<svg id="Layer_1" data-name="Layer 1" xmlns="http://www.w3.org/2000/svg" viewBox="0 0 300 300"><path d="M200.14317,105.5798Q160.9066,178.83638,121.67,252.09291h0l5.043-29.27421q12.23292-47.52017,24.45542-95.043,4.67686-18.12865,9.54012-36.20858a25.59889,25.59889,0,0,0,.77722-6.37384c6.31394-1.2008,16.47168-2.81512,22.652-2.65153,11.20014.2964,16.54415,1.64706,19.2486,12.67963C203.75128,96.70967,200.28838,104.41751,200.14317,105.5798Z" fill="#6cbe4d"/><path d="M200.14309,105.5798h0c-3.60087-13.077.00008-20.65251-38.65729-20.38653-6.18034-.1636,6.31394-1.2008,0,0-18.37718-2.53567-36.896-3.65234-55.34065-5.51206L75,75.06268h0l21.23169-4.57819q56.15479-10.98691,112.35787-21.728c2.75273-.53107,5.50189-1.18385,8.33361-.65148,6.82356,1.28287,10.00843,6.88431,6.85475,12.97807C216.0592,75.99773,208.04084,90.75762,200.14309,105.5798Z" fill="#046d42"/></svg>