<svg id="Layer_1" data-name="Layer 1" xmlns="http://www.w3.org/2000/svg" viewBox="0 0 300 300"><path d="M52.057,182.802a17.71765,17.71765,0,0,1-17.60563-17.60566c0-8.15393,4.63305-17.60566,17.60563-17.60566a17.60566,17.60566,0,0,1,0,35.21132Zm0-65.78948A10.37812,10.37812,0,1,1,41.679,127.39068C41.86429,122.387,44.45886,117.01256,52.057,117.01256Zm13.71386,24.64811A19.79261,19.79261,0,0,0,52.057,107.56114c-11.67531,0-19.82951,8.15423-19.82951,19.82954a20.21082,20.21082,0,0,0,5.745,14.08459C30.00366,145.923,25,154.44776,25,165.01128a27.05707,27.05707,0,1,0,54.11413,0C79.29941,155.18906,73.73978,146.47893,65.77091,141.66067Z" fill="#9ba9b1"/><path d="M88.19491,135.17412A18.16159,18.16159,0,1,1,106.35654,153.336,18.19111,18.19111,0,0,1,88.19491,135.17412Zm45.7746,0a27.613,27.613,0,1,0-27.613,27.61328,23.0249,23.0249,0,0,0,6.11563-.74129L99.87025,185.39672a4.84925,4.84925,0,0,0,1.85324,6.48625,4.93629,4.93629,0,0,0,2.22388.55589,4.60482,4.60482,0,0,0,4.07708-2.40928l22.60928-41.88266.18532-.3708A25.93664,25.93664,0,0,0,133.96951,135.17412Z" fill="#9ba9b1"/><path d="M247.94292,147.40562c-8.15424,0-17.60566,4.63286-17.60566,17.60566a17.60566,17.60566,0,1,0,17.60566-17.60566Zm0,44.66275a27.08894,27.08894,0,0,1-27.05716-27.05709c0-15.938,11.11941-27.05708,27.05716-27.05708a27.05709,27.05709,0,0,1,0,54.11417Z" fill="#2793d8"/><path d="M169.55152,182.61694a17.71787,17.71787,0,0,1-17.60566-17.60566c0-8.15423,4.63309-17.60566,17.60566-17.60566a17.60566,17.60566,0,0,1,0,35.21132Zm0-44.66274c-7.0423,0-12.97257,2.03848-17.60566,5.93035V112.3797a4.81838,4.81838,0,1,0-9.63675,0v52.63158a27.057,27.057,0,1,0,54.11409,0A26.81363,26.81363,0,0,0,169.55152,137.9542Z" fill="#2793d8"/><path d="M208.65456,191.32707a4.785,4.785,0,0,1-4.81842-4.81856V145.73764a4.81838,4.81838,0,0,1,9.63675,0v40.77087A4.785,4.785,0,0,1,208.65456,191.32707Z" fill="#2793d8"/><path d="M213.65821,127.02019a5.00387,5.00387,0,1,1-.38089-1.91489A4.95478,4.95478,0,0,1,213.65821,127.02019Z" fill="#2793d8"/></svg>