<svg id="Layer_1" data-name="Layer 1" xmlns="http://www.w3.org/2000/svg" viewBox="0 0 300 300"><defs><style>.cls-1{fill:#00b8b5;}.cls-2{fill:#006788;}</style></defs><path class="cls-1" d="M187.67,151.67H174.51V166h15.3v4.22H169.3V130.12h20.4v4.28H174.51v13h13.16Z"/><path class="cls-1" d="M244.53,151.67H231.37V166h15.3v4.22H226.16V130.12h20.4v4.28H231.37v13h13.16Z"/><rect class="cls-1" x="213.77" y="130.12" width="5.21" height="17.11"/><polygon class="cls-1" points="213.77 151.84 213.77 159.68 213.72 159.73 200.34 130.12 195.13 130.12 195.13 170.32 200.34 170.32 200.34 140.71 200.45 140.65 213.77 170.32 218.98 170.32 218.98 151.84 213.77 151.84"/><path class="cls-1" d="M152.14,149.81v4.06H158V163a6.74,6.74,0,0,1-2,2.53,6.37,6.37,0,0,1-3.84.93,6.25,6.25,0,0,1-5.37-2.63c-1.26-1.76-1.92-4.39-1.92-8v-1.75h-5.21v1.75c0,4.83,1.1,8.5,3.35,11a11.58,11.58,0,0,0,9.15,3.78,11.93,11.93,0,0,0,7.08-1.86,12.29,12.29,0,0,0,3.94-4.34V149.7H152.14Z"/><path class="cls-2" d="M72.47,160H61.17l-2.58,10.31H53.33l11-40.2h5l10.92,40.14H75Zm-10.2-4.28h9.15l-4.49-18.15h-.11Z"/><path class="cls-2" d="M128.72,160H117.43l-2.58,10.31h-5.26l11-40.14h5l10.92,40.14H131.3Zm-10.19-4.28h9.1l-4.5-18.15H123Z"/><path class="cls-2" d="M144.85,149.53v-5.59c0-3.45.6-6,1.75-7.73a5.82,5.82,0,0,1,5-2.58,5.67,5.67,0,0,1,4.72,1.92,10.11,10.11,0,0,1,1.65,5.76h5.15c-.22-3.95-1.26-6.91-3.13-8.94s-4.66-3.07-8.44-3.07a11,11,0,0,0-8.77,3.78c-2.14,2.53-3.18,6.15-3.18,11v5.54h5.21Z"/><path class="cls-2" d="M103.94,134.24c-2.36-2.75-5.76-4.12-10.25-4.12h-9v19.41H89.9V134.45h3.62c3.13,0,5.38.94,6.69,2.86s2,5,2,9.32v7.24c0,4.27-.66,7.34-2,9.32S96.54,166,93.25,166H89.9V154.25H84.69v16.07h8.78c4.6,0,8.11-1.32,10.47-4s3.51-6.85,3.51-12.44v-7.19C107.39,141.09,106.24,136.92,103.94,134.24Z"/></svg>