<svg id="Layer_1" data-name="Layer 1" xmlns="http://www.w3.org/2000/svg" viewBox="0 0 300 300"><title>ADPT_Light_BG</title><path d="M10,168.72743c.21287-.59527.34351-1.00327.50279-1.39979Q16.87613,151.46171,23.255,135.598c1.59867-3.97681,3.18952-7.95679,4.80171-11.92812a3.564,3.564,0,0,1,3.79209-2.55584q3.03561-.01049,6.07126-.006c.21521.00012.43039.028.76438.05122,6.33318,15.78406,12.67663,31.59368,19.0859,47.56737-1.0417-.09431-1.926-.15642-2.80584-.25763-2.06623-.23769-4.13324-.47234-6.1942-.75065a3.18638,3.18638,0,0,1-2.641-2.22333q-1.11571-2.91591-2.22927-5.83264-4.21047-11.05395-8.418-22.109c-.39746-1.0444-.77977-2.09458-1.18114-3.13745-.10585-.275-.25667-.53272-.38684-.79837l-.19726.01355-9.6636,25.28942c4.72779-.14823,9.26155-.51159,13.80237-.7144a9.07614,9.07614,0,0,1-7.35231,9.08352,34.28277,34.28277,0,0,1-4.97793.61715c-3.03641.22618-6.07843.38052-9.11932.54213C14.33234,168.55908,12.25666,168.63073,10,168.72743Z" fill="#0055de"/><path d="M146.69275,165.13058c0,.59283-.00007.96055,0,1.32826.00078,3.952-.006,7.90409.00683,11.85608a3.34024,3.34024,0,0,1-1.5359,3.0087,2.11707,2.11707,0,0,1-1.0167.41363c-1.98672.039-3.9746.01906-6.04248.01906V134.4384c.98567,0,1.94183,0,2.898,0,.71593,0,1.43188-.002,2.14781.00045a3.23423,3.23423,0,0,1,3.49057,2.59593c.04391.14376.08821.2874.15183.49465.22265-.15575.4071-.2616.5646-.39846a14.55592,14.55592,0,0,1,8.07812-3.48867,17.178,17.178,0,0,1,8.3425.87823,15.33684,15.33684,0,0,1,8.71893,8.60219,21.12222,21.12222,0,0,1,1.49822,9.76486,17.71528,17.71528,0,0,1-3.04813,9.26027,14.76924,14.76924,0,0,1-10.80964,6.55382,18.37924,18.37924,0,0,1-10.25739-1.58442,24.73714,24.73714,0,0,1-2.3905-1.44279C147.28606,165.54909,147.09392,165.40549,146.69275,165.13058Zm.29115-13.9939c.0955.86217.12714,1.73723.29832,2.5841A8.38368,8.38368,0,0,0,151.612,159.819a9.4317,9.4317,0,0,0,5.77981.97414,8.03283,8.03283,0,0,0,6.84406-5.04371,11.68884,11.68884,0,0,0,.29278-8.37942,7.83838,7.83838,0,0,0-4.55559-5.13313,10.74709,10.74709,0,0,0-2.87407-.71526,8.67365,8.67365,0,0,0-7.16415,2.186A9.929,9.929,0,0,0,146.9839,151.13668Z" fill="#0055de"/><path d="M92.50445,121.15483v46.4358c-.1.06964-.14966.13448-.1996.13468-2.02084.0081-4.04566.08707-6.061-.017a2.51231,2.51231,0,0,1-2.19082-1.90792c-.11062-.3133-.18244-.64029-.28925-1.02266a5.48471,5.48471,0,0,0-.6057.39577,14.62064,14.62064,0,0,1-9.01344,3.5458,16.93685,16.93685,0,0,1-7.13665-.89746,15.3055,15.3055,0,0,1-8.94531-8.73375,20.71734,20.71734,0,0,1-1.50655-9.29622,18.2817,18.2817,0,0,1,3.102-9.70977,14.51211,14.51211,0,0,1,10.18274-6.421,18.3094,18.3094,0,0,1,11.16382,1.62866c.93349.46792,1.78673,1.09585,2.79642,1.72481.02414-.37625.06206-.69535.06242-1.01449q.00635-5.64828.00307-11.29659a3.35969,3.35969,0,0,1,1.03616-2.69661,2.89967,2.89967,0,0,1,1.51974-.81381C88.40439,121.09806,90.39362,121.15483,92.50445,121.15483ZM83.48569,150.966a11.57579,11.57579,0,0,0-.00689-1.29966,9.15957,9.15957,0,0,0-3.10371-6.25771,8.86014,8.86014,0,0,0-6.5098-1.99963,8.10351,8.10351,0,0,0-7.50789,5.07774,11.34549,11.34549,0,0,0,.02337,9.23337c1.70286,4.00938,5.43918,5.57662,9.36861,4.95473A9.30544,9.30544,0,0,0,83.48569,150.966Z" fill="#0055de"/><path d="M103.171,136.61647a10.367,10.367,0,0,1,3.85889-2.19378,16.7732,16.7732,0,0,1,14.44026,1.32447c.81912.48441,1.54974,1.11838,2.34768,1.70265.07311-.10743.147-.17037.16238-.24528a3.12024,3.12024,0,0,1,3.3061-2.76512c1.741-.0075,3.48205-.00162,5.30369-.00162v33.27857c-.27947.0238-.54878.06507-.81833.06655-1.24491.00688-2.48991.00088-3.73487.00287-2.70928.0043-3.41951-.50626-4.19218-3.10045-.23916.183-.45884.33124-.65592.50506a14.37347,14.37347,0,0,1-8.73209,3.51009,16.87369,16.87369,0,0,1-6.705-.6759,15.62656,15.62656,0,0,1-9.69355-9.20287,19.79276,19.79276,0,0,1-1.46734-9.29541,17.92915,17.92915,0,0,1,4.63854-11.22834,20.72549,20.72549,0,0,1,1.96794-1.6738l.044.00252ZM114.49648,160.773c.15553,0,.31123.00488.46656-.00074a8.11394,8.11394,0,0,0,7.58919-4.80291,11.35176,11.35176,0,0,0,.82464-7.359,9.12507,9.12507,0,0,0-2.2987-4.603,8.67321,8.67321,0,0,0-7.02093-2.60031,8.22764,8.22764,0,0,0-7.67058,5.14137,11.62294,11.62294,0,0,0-.81105,5.54787C105.89607,157.29406,109.51586,160.909,114.49648,160.773Z" fill="#0055de"/><path d="M289.691,154.18281H264.84947a1.758,1.758,0,0,0-.039.47714,8.10263,8.10263,0,0,0,6.69951,6.231,9.92063,9.92063,0,0,0,9.51915-3.52291c.13842-.16613.27561-.33329.4991-.60368l7.43087,3.57055a14.6768,14.6768,0,0,1-2.77358,3.67,17.29651,17.29651,0,0,1-9.51349,4.55187,19.55677,19.55677,0,0,1-10.7981-1.038,15.41447,15.41447,0,0,1-9.267-10.21243c-1.68756-5.62065-1.34721-11.12922,1.769-16.25263a15.03569,15.03569,0,0,1,8.0375-6.50483,18.60151,18.60151,0,0,1,13.48464.16323c5.18075,2.08262,8.19209,6.10728,9.518,11.43341A18.78405,18.78405,0,0,1,289.691,154.18281Zm-8.91987-6.91481a4.74879,4.74879,0,0,0-.103-.6502,7.38662,7.38662,0,0,0-6.60194-5.45314,8.32423,8.32423,0,0,0-8.99821,5.54647,2.28,2.28,0,0,0-.03262.55687Z" fill="#0055de"/><path d="M256.37753,134.42826c-4.49532,11.17935-8.93807,22.2279-13.3908,33.30134H231.427c-4.44125-11.03882-8.89522-22.10927-13.3982-33.3015.52582,0,.92073,0,1.31562,0q3.03455.00045,6.06907.00154a3.45879,3.45879,0,0,1,3.69576,2.52308q3.82068,9.955,7.62227,19.91733c.11655.30457.24495.60462.4512,1.11181.20955-.44836.33472-.67773.42718-.9196q3.84059-10.04754,7.67744-20.09649a3.48673,3.48673,0,0,1,3.69348-2.53669C251.37543,134.42563,253.77006,134.42826,256.37753,134.42826Z" fill="#0055de"/><path d="M181.49538,141.77309H174.341V134.443h7.16434V121.30917a1.67285,1.67285,0,0,1,.42682-.17074c1.70838-.05512,3.4176-.151,5.12553-.1328a3.25479,3.25479,0,0,1,3.33853,2.44849,10.52859,10.52859,0,0,1,.18638,1.94421c.02014,2.64546.00666,5.29116.01038,7.93677.00048.33341.02954.66679.04949,1.08722h8.86493v7.33439h-8.93428c-.04233.46657-.108.82921-.10259,1.19078.03074,2.0508.0944,4.10118.116,6.152.021,1.99177-.01525,3.98425.01643,5.97574a7.87,7.87,0,0,0,.25177,1.9288c.84726,3.10645,3.49246,3.81216,5.77658,3.47643.75816-.11144,1.50009-.33347,2.30915-.51862.86333,2.5139,1.70631,4.96859,2.55748,7.44713a12.19374,12.19374,0,0,1-3.78522,1.20951,17.03511,17.03511,0,0,1-8.97734-.88006,10.5734,10.5734,0,0,1-6.42737-7.15416,13.90511,13.90511,0,0,1-.6109-4.2237c-.02456-4.54085-.07916-9.08155-.12623-13.62225C181.568,142.46541,181.52925,142.19285,181.49538,141.77309Z" fill="#0055de"/><path d="M205.15506,167.70947V134.51442h8.84858c.23281.60007.30739,31.97026.05236,33.19505Z" fill="#0055de"/><path d="M209.73507,129.10236a5.26515,5.26515,0,0,1-5.40082-3.73888,5.38983,5.38983,0,0,1,4.353-7.03945,6.40074,6.40074,0,0,1,3.11384.24962,5.413,5.413,0,0,1-1.50622,10.52756C210.10867,129.11,209.9217,129.10236,209.73507,129.10236Z" fill="#0055de"/><polygon points="103.171 136.616 103.241 136.627 103.197 136.624 103.171 136.616" fill="#0055de"/></svg>