<svg id="Layer_1" data-name="Layer 1" xmlns="http://www.w3.org/2000/svg" viewBox="0 0 300 300"><defs><style>.cls-1{fill:#0a4e90;}.cls-2{fill:#1eafdc;}.cls-3{fill:#0b86b7;}.cls-4{fill:#f7aa58;}.cls-5{fill:#f3712d;}.cls-6{fill:#fff;}</style></defs><path class="cls-1" d="M83.7,158.71q-8.82,13-17.63,26L56.94,198.1c-.14.21-.3.43-.48.68H36.75a2.09,2.09,0,0,0-1,.08v-.36c.46-.2.61-.67.88-1,1.65-2.3,3.27-4.62,4.91-6.94.44.07.41-.35.53-.56a77.52,77.52,0,0,1,17-19.48,61.9,61.9,0,0,1,15.92-9.36l1.11-.43,0,0,0-.05.51-.17h0l0,0,1-.3A35.59,35.59,0,0,1,83.7,158.71Z"/><path class="cls-2" d="M125.68,103.36l9.67,0a119.83,119.83,0,0,1,12.13.32c10.39,1,20.26,3.55,28.87,9.8a43,43,0,0,1,7.73,7.27,3.35,3.35,0,0,0,.27.45,41.62,41.62,0,0,1,4.76,7.35c3.42,6.59,4.5,13.72,4.78,21a47.06,47.06,0,0,1-.11,5.31,28.89,28.89,0,0,1-7.34,10.53,26.66,26.66,0,0,1-17.53,7.06v0a30.91,30.91,0,0,0,4.23-7,38.54,38.54,0,0,0,2.39-16.26A36.31,36.31,0,0,0,173.64,138c-3.37-9.34-10-15.2-19.48-17.91a59.37,59.37,0,0,0-17.1-2c-3.78,0-7.57,0-11.36,0Q125.7,110.69,125.68,103.36Z"/><path class="cls-1" d="M125.68,103.36q0,7.33,0,14.66a4.17,4.17,0,0,0-.09,1.49q0,18,0,36c0,.26,0,.53,0,.79a102.08,102.08,0,0,0-11.77-6.28c-2.43-1.08-4.94-1.93-7.42-2.86V125.48c-.34.14-.43.41-.57.62q-2.75,4-5.48,8.06l-7.07,10.5c-1.68,0-3.36-.13-5-.1a36.12,36.12,0,0,0-7.54.82c-.29,0-.58.06-.87.11a58.09,58.09,0,0,0-8.05,2.29q5.54-7.87,11.08-15.73,9.78-13.88,19.59-27.74l.75-1h6c5.18,0,10.36,0,15.54,0A8.52,8.52,0,0,1,125.68,103.36Z"/><path class="cls-3" d="M195.18,157.6a41.48,41.48,0,0,0,2.36,8.24c4.6,10.76,12.66,17.18,24.25,18.91a31,31,0,0,0,19-2.68,26.64,26.64,0,0,0,9.32-7.64l.36-.43,13.72,9.64a39.17,39.17,0,0,1-5.16,5.51A43.28,43.28,0,0,1,235.19,200c-10.74,1.35-21.18.32-31.16-4.13A47,47,0,0,1,185.41,181a1.75,1.75,0,0,1-.11-.24,6.28,6.28,0,0,0,.85-.77,43.31,43.31,0,0,0,8.41-18.65c.14-.73.55-1.53.05-2.3A4.94,4.94,0,0,1,195.18,157.6Z"/><path class="cls-3" d="M184.65,120a39.68,39.68,0,0,1,6.69-7.54,51.22,51.22,0,0,1,27.59-12.33,56,56,0,0,1,24.75,1.79A42.28,42.28,0,0,1,259,110.09a23.35,23.35,0,0,1,3.75,4.1c-4.36,3.45-8.68,6.88-13.07,10.34a21.34,21.34,0,0,0-4.88-4.84,28.06,28.06,0,0,0-12.93-4.78,31.84,31.84,0,0,0-24.22,6.35c-6.74,5.19-10.64,12.15-12.28,20.44-.08.4-.17.81-.26,1.21a3.16,3.16,0,0,1-.45-1.42,37.85,37.85,0,0,0-1.68-7.37,41.83,41.83,0,0,0-7-12.88C185.58,120.78,185.36,120.1,184.65,120Z"/><path class="cls-4" d="M80.74,145.38a36.12,36.12,0,0,1,7.54-.82c1.68,0,3.36.07,5,.1a51.38,51.38,0,0,1,5.24.66,78.5,78.5,0,0,1,7.88,1.88c2.48.93,5,1.78,7.42,2.86a102.08,102.08,0,0,1,11.77,6.28,137.9,137.9,0,0,0,15.54,9.08,72.54,72.54,0,0,0,17.39,6.19c1.53.31,3.08.52,4.61.78-.16.05-.36,0-.47.17a36,36,0,0,1-1.4,6.67l0,0-.75,0c-1.35-.16-2.7-.27-4-.49a78.57,78.57,0,0,1-20-6.45c-3.7-1.7-7.28-3.65-10.85-5.62a74.54,74.54,0,0,0-11.7-5.28,45.15,45.15,0,0,0-7.49-2.15,48.34,48.34,0,0,0-8.71-1.39,50.63,50.63,0,0,0-13.46.71,4.31,4.31,0,0,0-.59.16,35.59,35.59,0,0,0-5.94,1.48l-1,.3h0l-.51.17-.07,0-1.11.43a3.18,3.18,0,0,1,.18-1.3,41.11,41.11,0,0,1,4.22-11.75A7,7,0,0,0,80.74,145.38Z"/><path class="cls-2" d="M160.52,179.22l.75,0h0a37.35,37.35,0,0,0,12.05-1.11l.07,0,0-.06a29.19,29.19,0,0,0,12.05-6.31,35.13,35.13,0,0,0,7-8.42,6.25,6.25,0,0,1-.09.87,39.13,39.13,0,0,1-4.72,11.28c-.94,1.53-2,3-2.93,4.53-1.45,1.59-2.78,3.28-4.35,4.76a50.55,50.55,0,0,1-21.06,11.74,65,65,0,0,1-15.85,2.57c-5.82.19-11.65,0-17.47.09a2.11,2.11,0,0,1-.35-.05c0-1.86,0-3.72,0-5.58q0-4.65,0-9.3c3.34,0,6.68-.05,10,0a68.17,68.17,0,0,0,12.36-.88A37.72,37.72,0,0,0,160.52,179.22Z"/><path class="cls-1" d="M125.71,184.28q0,4.65,0,9.3c0,1.86,0,3.72,0,5.58-6.36.15-12.71,0-19.21.05v-40a45.15,45.15,0,0,1,7.49,2.15,74.54,74.54,0,0,1,11.7,5.28c0,.12-.05.23-.05.35q0,8.3,0,16.58A4.1,4.1,0,0,0,125.71,184.28Z"/><path class="cls-5" d="M80.74,145.38a7,7,0,0,1-1.28,2.69,41.11,41.11,0,0,0-4.22,11.75,3.18,3.18,0,0,0-.18,1.3,61.9,61.9,0,0,0-15.92,9.36,77.52,77.52,0,0,0-17,19.48c-.12.21-.09.63-.53.56,0-5.21,0-10.41,0-15.62a3,3,0,0,1,.49-1.74c7.3-11.19,16.68-20,29.17-25.11.2-.08.38-.18.56-.27a58.09,58.09,0,0,1,8.05-2.29C80.16,145.44,80.45,145.42,80.74,145.38Z"/><path class="cls-5" d="M192.49,163.37a35.13,35.13,0,0,1-7,8.42,29.19,29.19,0,0,1-12.05,6.31.11.11,0,0,0-.11,0,37.35,37.35,0,0,1-12.05,1.11h.05l0,0a36,36,0,0,0,1.4-6.67c.11-.17.31-.12.47-.17l5,.17h.35l.41-.14h0a26.66,26.66,0,0,0,17.53-7.06,28.89,28.89,0,0,0,7.34-10.53l.81-1.89c.4.67.18,1.42.3,2.13s.19,1.68.29,2.52a4.94,4.94,0,0,0-.57,1.48Z"/><path class="cls-2" d="M194.59,153l-.81,1.89a47.06,47.06,0,0,0,.11-5.31c-.28-7.3-1.36-14.43-4.78-21a41.62,41.62,0,0,0-4.76-7.35,3.35,3.35,0,0,1-.27-.45,2,2,0,0,1,.57-.73c.71.12.93.8,1.29,1.26a41.83,41.83,0,0,1,7,12.88,37.85,37.85,0,0,1,1.68,7.37,3.16,3.16,0,0,0,.45,1.42,55.26,55.26,0,0,0-.43,9.09C194.66,152.31,194.78,152.65,194.59,153Z"/><path class="cls-2" d="M192.49,163.37l2.12-4.29c.5.77.09,1.57-.05,2.3A43.31,43.31,0,0,1,186.15,180a6.28,6.28,0,0,1-.85.77,1.63,1.63,0,0,1-.55-.75c1-1.51,2-3,2.93-4.53a39.13,39.13,0,0,0,4.72-11.28A6.25,6.25,0,0,0,192.49,163.37Z"/><polygon class="cls-5" points="76.75 160.5 76.75 160.49 76.73 160.51 76.75 160.5"/><polygon class="cls-5" points="76.17 160.69 76.24 160.67 76.21 160.72 76.17 160.69"/><polygon class="cls-4" points="168.91 172.42 168.9 172.39 168.91 172.43 168.91 172.42"/><polygon class="cls-6" points="161.3 179.23 161.34 179.26 161.29 179.25 161.27 179.25 161.3 179.23"/><path class="cls-4" d="M173.34,178.14a.11.11,0,0,1,.11,0l0,.06Z"/><path class="cls-4" d="M168.15,172.56a.23.23,0,0,1,.35,0Z"/></svg>