<svg id="Layer_1" data-name="Layer 1" xmlns="http://www.w3.org/2000/svg" viewBox="0 0 300 300"><path d="M259.8632,190.205c-25.6946-9.66712-63.05-24.1766-68.76682-37.35634-5.92546-13.61649,15.81976-25.486,30.32925-30.74653,24.61243-9.22943,31.4114-22.20053,19.99725-26.81571-13.84461-5.48777-42.84411,26.58759-69.22212,44.61062a15.05052,15.05052,0,0,0-3.07679,2.62055,72.43147,72.43147,0,1,0-.20864,16.48464,15.8722,15.8722,0,0,0,1.53746,2.64c12.079,18.45886,49.8712,24.82108,78.8707,43.48951C267.55516,216.56448,290.85732,202.07447,259.8632,190.205Zm-93.816-30.97465C155.73467,178.126,118.816,186.02659,91.583,206.02384c-17.14858,12.51579-41.74247-1.1007-11.86945-14.0718,24.61243-10.97739,60.639-26.79715,65.02515-40.41365,4.61518-13.84461-18.44031-24.61243-33.38563-29.43625C85.86621,113.95487,77.94706,101.21189,88.943,96.16c13.40785-6.15264,45.256,24.61336,73.382,41.53383C165.83854,139.89705,173.52958,145.38575,166.04718,159.23036Z" fill="#51a3dc"/></svg>