<svg id="Layer_1" data-name="Layer 1" xmlns="http://www.w3.org/2000/svg" viewBox="0 0 300 300"><title>AEON_Mark_Light</title><path d="M59.6944,247.27817a17.16475,17.16475,0,0,1-9.978-3.25187,16.86469,16.86469,0,0,1-5.58654-20.90091l72.70848-160.37a16.90556,16.90556,0,0,1,15.5645-10.03355h0a16.90555,16.90555,0,0,1,15.5645,10.03355L188.713,152.6682c22.81867-4.4748,42.16313-2.557,54.64254,6.97623,10.7284,8.17136,25.07,28.82213.75043,75.07094a23.52067,23.52067,0,0,1-42.21874-1.25071L176.595,177.627c-30.26741,9.53326-68.42825,30.57313-105.28278,64.98181A16.77765,16.77765,0,0,1,59.6944,247.27817Zm138.05162-74.654,23.59691,52.05772a2.17169,2.17169,0,0,0,3.89113.139c5.89229-11.20088,18.17712-38.2998,5.19744-48.19438C224.12231,171.8181,212.64348,170.37283,197.746,172.62412ZM132.40288,80.09869l-60.61819,133.688c31.43474-26.20952,65.59328-45.4984,96.02745-55.55973Z" fill="#33ccbe"/></svg>