<svg id="Layer_1" data-name="Layer 1" xmlns="http://www.w3.org/2000/svg" viewBox="0 0 300 300"><circle cx="180.42378" cy="180.41758" r="7.61316" fill="#85cba4"/><circle cx="119.59226" cy="119.59177" r="7.61316" fill="#85cba4"/><circle cx="180.41848" cy="119.59083" r="7.61316" fill="#85cba4"/><circle cx="119.59226" cy="180.41768" r="7.61316" fill="#85cba4"/><circle cx="171.88688" cy="97.26707" r="7.61316" fill="#51a7bb"/><circle cx="128.11872" cy="202.73674" r="7.61316" fill="#51a7bb"/><circle cx="128.11613" cy="97.2646" r="7.61316" fill="#51a7bb"/><circle cx="171.89633" cy="202.74227" r="7.61316" fill="#51a7bb"/><circle cx="202.73763" cy="171.88597" r="7.61316" fill="#51a7bb"/><circle cx="97.26796" cy="128.11781" r="7.61316" fill="#51a7bb"/><circle cx="202.74011" cy="128.11829" r="7.61316" fill="#51a7bb"/><circle cx="97.27236" cy="171.88857" r="7.61316" fill="#51a7bb"/><circle cx="104.34608" cy="195.67379" r="7.61316" fill="#3f78bc"/><circle cx="195.65444" cy="104.33566" r="7.61316" fill="#3f78bc"/><circle cx="104.34608" cy="104.33566" r="7.61316" fill="#3f78bc"/><circle cx="195.65444" cy="195.67379" r="7.61316" fill="#3f78bc"/><circle cx="150.06477" cy="85.57572" r="7.61316" fill="#3f78bc"/><circle cx="150.06477" cy="214.42381" r="7.61316" fill="#3f78bc"/><circle cx="85.58613" cy="149.98487" r="7.61316" fill="#3f78bc"/><circle cx="214.4243" cy="149.98487" r="7.61316" fill="#3f78bc"/><circle cx="110.75575" cy="55.27188" r="5.01258" fill="#2a3f91"/><circle cx="189.25291" cy="244.72582" r="5.01258" transform="translate(-79.24649 91.05259) rotate(-22.5)" fill="#2a3f91"/><circle cx="189.2411" cy="55.2706" r="5.01258" fill="#2a3f91"/><circle cx="110.75531" cy="244.7294" r="5.01258" transform="translate(-157.7294 253.40002) rotate(-67.49999)" fill="#2a3f91"/><circle cx="244.72365" cy="110.76171" r="5.01258" fill="#2a3f91"/><circle cx="55.26971" cy="189.24895" r="5.01258" fill="#2a3f91"/><circle cx="244.73029" cy="189.24939" r="5.01258" fill="#2a3f91"/><circle cx="55.28142" cy="110.76358" r="5.01258" fill="#2a3f91"/><circle cx="210.80136" cy="89.19866" r="5.01258" fill="#2a3f91"/><circle cx="89.19916" cy="210.80087" r="5.01258" fill="#2a3f91"/><circle cx="210.80136" cy="210.80087" r="5.01258" fill="#2a3f91"/><circle cx="89.19916" cy="89.19866" r="5.01258" fill="#2a3f91"/><circle cx="223.7348" cy="119.43295" r="7.61316" fill="#2a3f91"/><circle cx="76.27564" cy="180.56657" r="7.61316" fill="#2a3f91"/><circle cx="223.7348" cy="180.56657" r="7.61316" fill="#2a3f91"/><circle cx="76.27564" cy="119.43295" r="7.61316" fill="#2a3f91"/><circle cx="149.95559" cy="64.06629" r="5.01258" fill="#2a3f91"/><circle cx="149.95559" cy="235.94317" r="5.01258" fill="#2a3f91"/><circle cx="119.37389" cy="76.27515" r="7.61316" fill="#2a3f91"/><circle cx="180.62663" cy="76.27515" r="7.61316" fill="#2a3f91"/><circle cx="119.37389" cy="223.73431" r="7.61316" fill="#2a3f91"/><circle cx="180.62663" cy="223.73431" r="7.61316" fill="#2a3f91"/><circle cx="235.89403" cy="150.00473" r="5.01258" fill="#2a3f91"/><circle cx="64.01715" cy="150.00473" r="5.01258" fill="#2a3f91"/></svg>