<svg id="Layer_1" data-name="Layer 1" xmlns="http://www.w3.org/2000/svg" xmlns:xlink="http://www.w3.org/1999/xlink" viewBox="0 0 300 300"><defs><style>.cls-1{fill:none;stroke:#054852;stroke-miterlimit:10;stroke-width:5.39px;}.cls-2{fill:#054852;}.cls-3{fill:url(#linear-gradient);}.cls-4{opacity:0.22;}.cls-5,.cls-9{fill:#010101;}.cls-6{opacity:0.65;}.cls-7,.cls-8{fill:#fff;}.cls-7,.cls-8,.cls-9{isolation:isolate;}.cls-7{opacity:0.45;}.cls-8{opacity:0.44;}.cls-9{opacity:0.32;}.cls-10{fill:#ecccd4;}</style><linearGradient id="linear-gradient" x1="61.94" y1="180.11" x2="220.67" y2="122.32" gradientTransform="matrix(1, 0, 0, -1, 0, 302)" gradientUnits="userSpaceOnUse"><stop offset="0" stop-color="#dd1276"/><stop offset="0.11" stop-color="#d71574"/><stop offset="0.25" stop-color="#c91a72"/><stop offset="0.39" stop-color="#b0206e"/><stop offset="0.55" stop-color="#8f2768"/><stop offset="0.71" stop-color="#623162"/><stop offset="0.88" stop-color="#2d3f59"/><stop offset="1" stop-color="#084953"/></linearGradient></defs><circle class="cls-1" cx="137.61" cy="150" r="103.61"/><rect class="cls-2" x="223.12" y="208.1" width="19.17" height="33.71" transform="translate(-79.49 310.36) rotate(-59.33)"/><rect class="cls-2" x="237.02" y="184.67" width="19.17" height="33.71" transform="translate(-52.52 310.84) rotate(-59.33)"/><g id="Layer_1-2" data-name="Layer 1"><path class="cls-3" d="M221.59,155.64c-.88-.56-1.76-1.2-2.6-1.77a9.87,9.87,0,0,1-4.21-4.74,48.43,48.43,0,0,1-3.36-13.88c-.74-7.39-1.15-14.88-2.58-22.15-1.24-6.33-3.75-12.24-11.48-13.77-2.62-.52-5.55-1.77-6.54-4.83a22.34,22.34,0,0,1-1-4.85,17.71,17.71,0,0,0-3.81-10c-3.53-4.35-7.44-8-13.61-7.31a44.94,44.94,0,0,0-6,1.05,2.59,2.59,0,0,1-3.16-1.07A24.45,24.45,0,0,0,160,68.8a2.35,2.35,0,0,0-1.77-.73c-2.49.66-5,1.31-6.46,3.8a25.83,25.83,0,0,1-3,4.09c-.79.88-1.77,1.06-2.47-.3a2.39,2.39,0,0,0-1.33-1.17c-2.76-.62-5.61-1.32-7.5,1.77,0,.09-.21.11-.46.23a9.78,9.78,0,0,0-12.2,1c-2.41,2-5,4-8.32,2.94a21.69,21.69,0,0,0-8.38-.25,31.1,31.1,0,0,0-6.69,1.33A73.92,73.92,0,0,0,92.53,85a10.56,10.56,0,0,0-4,2.81,37,37,0,0,0-4.88,7.76,13.32,13.32,0,0,1-9,8.51l-.51.19a13.08,13.08,0,0,0-6.81,6.21,37.18,37.18,0,0,1-3.17,6,10.62,10.62,0,0,0-.92,10.22,37.77,37.77,0,0,0,1.54,4.12,7.31,7.31,0,0,1,0,6.42,22.5,22.5,0,0,0-.78,2.27,57.11,57.11,0,0,1-5.51,14.15,15.19,15.19,0,0,0-1.49,3.78,4.45,4.45,0,0,0,1.06,4.49,69,69,0,0,1,4.65,5.75A12.18,12.18,0,0,1,64,169.56a16.48,16.48,0,0,0-.28,13.2C66.49,189.83,73.14,194,79.3,193c2.83,4.72,5.3,9.64,8,14.45a6.75,6.75,0,0,0,2.3,2.78,47.79,47.79,0,0,0,8.17,3.29c3.23.92,3.53.83,4,4.17a20.44,20.44,0,0,1,0,3.13,11.35,11.35,0,0,0,.8,4,10.71,10.71,0,0,0,9.76,5.72,7.37,7.37,0,0,0,3.72-1.24,44.83,44.83,0,0,0,4-3.29,3.52,3.52,0,0,1,5.64.37c.76.8,1.43,1.77,2.21,2.48a9.31,9.31,0,0,0,13.15.55l.08-.08a18.7,18.7,0,0,0,4.35-5.3c2.25-4.67,6.18-5.73,10.62-5.54a12.38,12.38,0,0,0,8.22-2.14,85,85,0,0,0,10.47-9.23c4.92-5.31,9.41-10.86,14.15-16.31a6.27,6.27,0,0,1,8.49-1.77c2.92,1.38,5.86,1.88,8.38-.63a13.41,13.41,0,0,0,2.22-3.75c2.17-4.59,4.68-8.85,9.92-10.51s7.22-4.18,7.3-9.55C225.29,161.23,224.87,157.78,221.59,155.64Z"/><g class="cls-4"><path class="cls-5" d="M221.59,155.64c-.88-.56-1.76-1.2-2.6-1.77a9.87,9.87,0,0,1-4.21-4.74,48.43,48.43,0,0,1-3.36-13.88c-.74-7.39-1.15-14.88-2.58-22.15-1.24-6.33-3.75-12.24-11.48-13.77-2.62-.52-5.55-1.77-6.54-4.83a22.34,22.34,0,0,1-1-4.85,17.71,17.71,0,0,0-3.81-10l-1.13-1.31c-.9,14.15-8.13,28-21.66,34.52,6.1,24.66-17.69,53.42-42.61,52.52-12.92-.48-19.32-6.58-26-13.9a47.36,47.36,0,0,1-8.57.79,39.86,39.86,0,0,1-23.61-7.07,37.74,37.74,0,0,1-3.73,8.45,15.49,15.49,0,0,0-1.49,3.79,4.43,4.43,0,0,0,.94,4.45,69,69,0,0,1,4.65,5.75A12.18,12.18,0,0,1,64,169.56a16.48,16.48,0,0,0-.28,13.2C66.49,189.83,73.14,194,79.3,193c2.83,4.72,5.3,9.64,8,14.45a6.75,6.75,0,0,0,2.3,2.78,47.79,47.79,0,0,0,8.17,3.29c3.23.92,3.53.83,4,4.17a20.44,20.44,0,0,1,0,3.13,11.35,11.35,0,0,0,.8,4,10.71,10.71,0,0,0,9.76,5.72,7.37,7.37,0,0,0,3.72-1.24,44.83,44.83,0,0,0,4-3.29,3.52,3.52,0,0,1,5.64.37c.76.8,1.43,1.77,2.21,2.48a9.31,9.31,0,0,0,13.15.55l.08-.08a18.7,18.7,0,0,0,4.35-5.3c2.25-4.67,6.18-5.73,10.62-5.54a12.38,12.38,0,0,0,8.22-2.14,85,85,0,0,0,10.47-9.23c4.92-5.31,9.41-10.86,14.15-16.31a6.27,6.27,0,0,1,8.49-1.77c2.92,1.38,5.86,1.88,8.38-.63a13.41,13.41,0,0,0,2.22-3.75c2.17-4.59,4.68-8.85,9.92-10.51s7.22-4.18,7.3-9.55C225.29,161.23,224.87,157.78,221.59,155.64Z"/></g><g class="cls-6"><circle class="cls-7" cx="76.33" cy="176.69" r="7.2"/><circle class="cls-7" cx="175.32" cy="124.64" r="4.4"/><circle class="cls-7" cx="185.3" cy="147.24" r="9.98"/><circle class="cls-8" cx="198.42" cy="111.95" r="2.95"/></g><path class="cls-9" d="M134.94,93c-12.89,0-26.76,7.61-35.14,20.54-6.39,9.85-8.49,21.1-5.79,30.88a26,26,0,0,0,12.88,16.39c15.42,8.3,37.36.59,48.87-17.19,6.39-9.85,8.49-21.1,5.79-30.88a26.08,26.08,0,0,0-12.86-16.41A28.77,28.77,0,0,0,134.94,93Z"/><path class="cls-10" d="M134.94,93c-12.89,0-26.76,7.61-35.14,20.54-6.39,9.85-8.49,21.1-5.79,30.88a26,26,0,0,0,12.88,16.39c15.42,8.3,37.36.59,48.87-17.19,6.39-9.85,8.49-21.1,5.79-30.88a26.08,26.08,0,0,0-12.86-16.41A28.77,28.77,0,0,0,134.94,93Zm22.91,51.75c-8.85,13.77-23.7,21.85-37.5,21.85a31.11,31.11,0,0,1-14.86-3.54,28.49,28.49,0,0,1-13.92-17.69C88.69,135,90.92,123,97.71,112.5c12.29-19,35.78-27.13,52.36-18.23A28.49,28.49,0,0,1,164,112C166.89,122.3,164.64,134.29,157.85,144.76Z"/></g></svg>