<svg id="Layer_1" data-name="Layer 1" xmlns="http://www.w3.org/2000/svg" viewBox="0 0 300 300"><defs><style>.cls-1{fill:#e81f76;}</style></defs><title>AGEN_Logo_Light</title><path class="cls-1" d="M242,243a26.6,26.6,0,0,1-13.3,2.8,13.94,13.94,0,0,1-11.4-11.1c-.1-1-.1-2-.1-3V110.4c0-45.5-12.2-77.7-79.2-77.7-33.7,0-81.1,16.1-81.1,47.9a22,22,0,0,0,21.9,22h1.5a23.11,23.11,0,0,0,23.1-23.1,17,17,0,0,0-.1-2.3c0-15.6,3.9-28.4,34.2-28.4,41.1,0,41.5,36.2,41.5,70.4v18.6c-.1,0-.1,16.1,0,16.1v28.8c0,33.2-20.5,64.1-52.3,64.1-16.6,0-33.2-17.1-33.2-42.5,0-35.3,37.6-45.8,65.2-49l4.6-16.3C121,142.1,50,149.7,50,212a55.57,55.57,0,0,0,55.6,55.4c1,0,2.1,0,3.1-.1a78,78,0,0,0,69.4-35.6h1c0,19.4,7.1,33.4,30.6,35.4a28.22,28.22,0,0,0,5.8.3h.3a8.59,8.59,0,0,0,3.2-.5A142.91,142.91,0,0,0,247.3,253l2.8-14.9A33.67,33.67,0,0,1,242,243"/></svg>