<svg id="Layer_1" data-name="Layer 1" xmlns="http://www.w3.org/2000/svg" xmlns:xlink="http://www.w3.org/1999/xlink" viewBox="0 0 300 300"><defs><mask id="mask" x="25" y="108.66142" width="462.96777" height="84.60545" maskUnits="userSpaceOnUse"><g id="mask-2"><polygon id="path-1" points="25 193.267 487.968 193.267 487.968 108.661 25 108.661 25 193.267" fill="#fff" fill-rule="evenodd"/></g></mask></defs><g mask="url(#mask)"><path id="Fill-9" d="M108.51979,143.6613a80.54239,80.54239,0,0,0-7.151-3.90307c-4.41565,2.80421-9.44681,6.178-14.213,8.36255C68.50209,158.47868,44.20591,163.59609,25,151.88684c25.24483,24.10215,60.20981,10.07624,84.88782-7.3986Z" fill="#35799a" fill-rule="evenodd"/></g><g mask="url(#mask)"><path id="Fill-10" d="M111.60637,134.065c7.65872,3.828,5.24955,6.01945,10.62567,1.48347A111.16968,111.16968,0,0,1,145.08371,123.095c35.66185-14.53223,74.08132-1.18163,103.74806,20.45292-27.7785-22.92051-65.22288-43.07437-101.92033-31.53413-13.75745,3.83979-25.45069,12.76638-36.52078,21.42034Z" fill="#35799a" fill-rule="evenodd"/></g><g mask="url(#mask)"><path id="Fill-11" d="M268.02912,156.1143c1.736-1.67613,5.23426-5.05828,6.97088-6.73858-26.41187,22.915-62.38947,41.06719-97.23761,26.73387-15.37167-5.54791-27.89951-16.78491-39.76384-27.64983C113.24334,126.93926,77.93479,107.91,51.847,138.40856c27.09066-20.58228,60.50539.57865,82.0398,19.53,11.66542,10.79954,23.14306,22.80923,38.27758,28.68193,34.68539,14.64142,70.70543-7.39651,95.86471-30.5062" fill="#35799a" fill-rule="evenodd"/></g></svg>