<svg id="Layer_1" data-name="Layer 1" xmlns="http://www.w3.org/2000/svg" viewBox="0 0 300 300"><path d="M22.72693,162.13579l-6.3285,14.88271H10l24.20215-54.94107L57.77793,177.0185H51.31058l-6.18965-14.88271Zm11.33636-26.42736L25.0915,156.71111H42.82579Z"/><path d="M76.62659,171.59382H91.09223v5.42468H70.78509V124.58111h5.8415Z"/><path d="M110.14917,177.0185h-5.842V124.58111h5.842Z"/><path d="M176.84418,150.66057c.13936,7.09372-.62586,12.93572-5.42443,18.49925a25.90851,25.90851,0,0,1-19.40358,8.76275,27.12348,27.12348,0,1,1,.34815-54.24579c9.18007,0,16.62143,4.10329,22.18471,11.33611l-4.24214,3.96418c-4.3815-6.18964-10.29293-9.87561-18.0125-9.87561-11.96171,0-21.42,10.08415-21.42,21.907a21.12858,21.12858,0,0,0,6.12021,14.81329c3.82508,3.82482,9.38836,6.67639,14.88272,6.67639,9.11064,0,18.70779-6.67639,18.70779-16.41289h-15.578v-5.42468Z" fill="#0061c2"/><path d="M244.44477,150.86936a27.33178,27.33178,0,1,1-27.33143-27.19258A27.18787,27.18787,0,0,1,244.44477,150.86936Zm-48.82086-.06968a21.49043,21.49043,0,1,0,21.48943-21.69822A21.68256,21.68256,0,0,0,195.62391,150.79968Z"/><path d="M283.46271,134.80411c-2.08635-3.61629-4.58978-5.70265-9.04121-5.70265-4.65921,0-8.69307,3.33833-8.69307,8.1369,0,4.52035,4.65971,6.60671,8.20657,8.20632l3.47743,1.52993C284.22793,149.96529,290,153.373,290,161.71847a16.19415,16.19415,0,0,1-16.48257,16.2041c-8.41486,0-14.67393-5.42443-16.34322-13.56132l5.70315-1.59961c.76471,5.355,4.868,9.7365,10.50121,9.7365s10.77943-4.31207,10.77943-10.22325c0-6.12021-4.79857-8.20657-9.66657-10.432l-3.19922-1.39082c-6.12021-2.7819-11.40528-5.91143-11.40528-13.42247,0-8.13664,6.88493-13.35279,14.67393-13.35279a15.0483,15.0483,0,0,1,13.56157,8.1369Z"/></svg>