<svg id="Layer_1" data-name="Layer 1" xmlns="http://www.w3.org/2000/svg" viewBox="0 0 300 300"><defs><style>.cls-1{fill:#0f6cac;}.cls-2{fill:#609dd5;}.cls-3{fill:#fc6a43;}</style></defs><path class="cls-1" d="M89.23,117c-1.52,3.84-3.1,4.66-6.67,3.07-6.9-3-13.73-6.24-20.58-9.39-2.43-1.11-4.25-2.53-2.79-5.62s3.94-4,7-2.47c3.75,1.91,7.39,4.08,11.07,6.13,2.91,1.62,5.83,3.21,8.73,4.84C87.29,114.34,88.78,115,89.23,117Z"/><path class="cls-1" d="M49.45,129.82q-1.38-8.47,6.84-6.23c7.18,2,14.34,4,21.53,5.9,2.31.62,4.41,1.51,3.71,4.34s-3,3.07-5.55,2.57c-7.68-1.54-15.36-3-23.05-4.47A5.28,5.28,0,0,1,49.45,129.82Z"/><path class="cls-1" d="M245,176.93l-17.74-4.87q-3.33-.93-6.64-1.89c-1.84-.53-3-1.71-2.52-3.66s1.89-3.54,4.16-3.12q12.64,2.34,25.22,4.94c2.51.51,3.69,2.13,3.16,4.79S248.46,177.1,245,176.93Z"/><path class="cls-1" d="M49,172.33a3.44,3.44,0,0,1,3-3.87c8.43-1.71,16.85-3.41,25.3-5a3.47,3.47,0,0,1,4.26,3c.47,2.17-.77,3.29-2.8,3.84-7.79,2.15-15.54,4.47-23.35,6.51C51.59,177.79,49.07,175.85,49,172.33Z"/><path class="cls-1" d="M220.91,136.78c-2.1-1.42-3.39-2.69-2.81-4.76.52-1.9,2.26-2.16,3.91-2.61,7.52-2,15-4.25,22.52-6.28,2.86-.77,5.06.15,5.93,3.25.76,2.73-.3,4.75-3,5.3C238.64,133.52,229.72,135.11,220.91,136.78Z"/><path class="cls-1" d="M89.26,182.63A4.23,4.23,0,0,1,86.84,186L66.75,197.21a5.6,5.6,0,0,1-5.17.43,4.94,4.94,0,0,1-2.84-4.29c-.14-1.89,1.11-3,2.76-3.73q10.65-4.83,21.28-9.7C86,178.45,88.2,179.24,89.26,182.63Z"/><path class="cls-1" d="M210.71,116.12a4.1,4.1,0,0,1,2.17-2.11q10.08-5.62,20.21-11.2c2.75-1.52,5.21-1.33,7,1.53,1.46,2.34,1.28,4.52-1.41,5.78-7.43,3.5-14.87,7-22.4,10.25C212.94,121.81,210.93,120.08,210.71,116.12Z"/><path class="cls-1" d="M165.06,87c1.8-7.13,3.61-14.46,5.51-21.76.87-3.32,3.54-4.62,6.9-3.32,2.81,1.08,3.89,2.91,2.65,6.06-2.43,6.19-4.63,12.47-6.81,18.76-.69,2-1.57,3.54-3.89,3.59C167.25,90.37,165.77,89.38,165.06,87Z"/><path class="cls-1" d="M110.15,203.49c2.91-.59,4.75-.18,5.92,1.64s-.16,3.42-1,4.93q-4.86,8.28-9.8,16.51c-1.5,2.52-3.36,4.24-6.58,3-3.67-1.37-4.53-3.89-2.25-7.11C101.05,216,105.81,209.48,110.15,203.49Z"/><path class="cls-1" d="M134.72,87.38c-3.57,4.35-6.61,4-8.36-.68-2.28-6.11-4.52-12.25-6.65-18.41-1.3-3.74-.36-5.61,3-6.49,3.49-.92,5.52.28,6.48,3.94C131,72.92,132.85,80.1,134.72,87.38Z"/><path class="cls-1" d="M101.22,103.7c-2.15,4-4.31,4.66-7.38,2.24C88,101.35,82.27,96.64,76.47,92c-2.11-1.7-3-3.69-1-5.9,1.82-2.06,4.37-3.48,6.74-1.35,6.27,5.64,12.27,11.58,18.35,17.43A4.84,4.84,0,0,1,101.22,103.7Z"/><path class="cls-1" d="M198.6,103.07c1.69-3,4.47-4.74,6.72-7,3.62-3.61,7.24-7.23,11-10.66,2.74-2.49,5.88-2.1,8,.78s.3,4.65-1.87,6.36c-5.62,4.44-11.13,9-16.81,13.37C202.25,108.53,200,107.56,198.6,103.07Z"/><path class="cls-1" d="M222.33,146.88c9.11-1,18.46-1,27.8-1.21,2.54,0,4,1.59,3.94,4.25,0,2.82-1.57,4.52-4.23,4.47q-12.87-.27-25.75-1C220.42,153.16,219.72,150.57,222.33,146.88Z"/><path class="cls-1" d="M183.25,94.36a3.31,3.31,0,0,1,.36-2.59c3.86-6.48,7.63-13,11.61-19.43,1.69-2.71,5-2.92,7.72-.83s1.86,4.12.24,6.32c-4,5.47-8,11-12,16.44C188.57,97.86,186.47,97.86,183.25,94.36Z"/><path class="cls-1" d="M225.35,211.42c-2.06,4.89-5.45,6.23-8.85,3.17-5.73-5.15-11.18-10.6-16.71-16a8.36,8.36,0,0,1-1.13-1.85c1.29-4.15,3.68-5.27,6.76-2.91,6.12,4.68,12.07,9.58,18.1,14.38A4.84,4.84,0,0,1,225.35,211.42Z"/><path class="cls-1" d="M101.11,196.58c-.37,1.75-1.84,2.7-3,3.84q-7,6.86-14.08,13.6c-2.94,2.79-5.57,2.88-8.06.42-2-2-2.29-4.06,0-5.93,6-4.94,12.1-9.86,18.27-14.64C97.2,191.58,99.64,192.65,101.11,196.58Z"/><path class="cls-1" d="M205.09,224.86c-1.1,3.71-3.16,4.74-5.77,5-2.46.24-3.65-1.41-4.73-3.25-3.9-6.6-7.82-13.18-11.62-19.56.89-3.65,3.22-4,6.55-3.64Z"/><path class="cls-1" d="M210.86,184.72c-.19-4.87,2-6.56,5.88-4.88,7,3.08,14,6.36,21,9.51,2.62,1.17,4,2.9,2.65,5.74s-3.91,3.7-6.76,2.38-5.64-3-8.44-4.61C220.42,190.16,215.65,187.43,210.86,184.72Z"/><path class="cls-1" d="M46,147.8a3.88,3.88,0,0,1,3.4-2.05c9.35,0,18.68.41,27.74,1.1,1.58,1.22,2.42,2.45,1.77,4.17a3.67,3.67,0,0,1-3.57,2.45c-8.45.34-16.9.81-25.35,1C46.5,154.51,45.59,152.71,46,147.8Z"/><path class="cls-1" d="M116.71,93c-2.15,4.61-5.39,5.15-8,1.66C104.54,89,100.46,83.28,96.32,77.6c-1.52-2.08-2.25-4.08.24-6,2.82-2.15,6.1-2.08,7.78.62C108.59,79.07,112.59,86.06,116.71,93Z"/><path class="cls-1" d="M134.78,212.39c-2,7.84-3.76,15.68-6,23.39-1,3.39-4.2,2.91-6.84,2.14-2.46-.72-3.43-2.59-2.54-5.11,2.42-6.87,4.78-13.76,7.38-20.55C128.09,208.83,131.17,208.82,134.78,212.39Z"/><path class="cls-1" d="M146.09,213.56c5.28-2.83,7.59-1.54,7.83,3.63.3,6.51.66,13,1,19.53.15,3.05-1.55,4.47-4.39,4.64s-5.59-.5-5.54-3.81C145.09,229.53,145.68,221.52,146.09,213.56Z"/><path class="cls-1" d="M172.59,211.18c2.43,6.77,4.94,13.64,7.38,20.53,1.26,3.58.45,5.5-2.55,6.36-3.66,1.05-6,0-6.86-3.46-1.66-6.33-3.19-12.7-4.75-19.05-.42-1.73-1.25-3.61.69-4.92S170.33,209.25,172.59,211.18Z"/><path class="cls-1" d="M153.33,86.48c-5.32,2.77-7.61,1.45-7.78-3.72-.22-6.51-.5-13-.73-19.54-.11-3,1.61-4.46,4.44-4.59s5.59.57,5.5,3.88C154.53,70.52,153.84,78.53,153.33,86.48Z"/><path class="cls-2" d="M113.15,131c-.91,2.31-1.86,2.8-4,1.84-4.15-1.84-8.27-3.76-12.4-5.65-1.46-.67-2.56-1.53-1.68-3.39a2.83,2.83,0,0,1,4.2-1.49c2.27,1.15,4.46,2.46,6.68,3.69l5.26,2.92C112,129.42,112.88,129.78,113.15,131Z"/><path class="cls-2" d="M89.18,138.74q-.83-5.1,4.12-3.75c4.33,1.18,8.64,2.4,13,3.56,1.39.37,2.65.9,2.23,2.61s-1.81,1.85-3.34,1.55c-4.63-.93-9.26-1.81-13.9-2.7A3.11,3.11,0,0,1,89.18,138.74Z"/><path class="cls-2" d="M207,167.13l-10.68-2.93c-1.34-.37-2.67-.76-4-1.14-1.11-.32-1.8-1-1.51-2.21a2.12,2.12,0,0,1,2.5-1.88q7.62,1.41,15.2,3a2.2,2.2,0,0,1,1.9,2.89C210.07,166.45,209.11,167.23,207,167.13Z"/><path class="cls-2" d="M88.92,164.36a2.07,2.07,0,0,1,1.8-2.33c5.08-1,10.16-2.06,15.25-3a2.1,2.1,0,0,1,2.57,1.79c.28,1.31-.47,2-1.69,2.32-4.7,1.29-9.36,2.69-14.08,3.92C90.47,167.65,89,166.48,88.92,164.36Z"/><path class="cls-2" d="M192.51,142.94c-1.27-.86-2-1.62-1.7-2.87s1.37-1.3,2.36-1.57c4.53-1.24,9-2.57,13.57-3.79,1.73-.46,3,.09,3.57,2,.46,1.65-.17,2.86-1.77,3.19C203.19,141,197.82,141.93,192.51,142.94Z"/><path class="cls-2" d="M113.17,170.57a2.55,2.55,0,0,1-1.46,2q-6,3.39-12.11,6.76a3.32,3.32,0,0,1-3.11.26A3,3,0,0,1,94.78,177c-.09-1.14.67-1.8,1.66-2.25l12.82-5.84C111.2,168.05,112.53,168.52,113.17,170.57Z"/><path class="cls-2" d="M186.36,130.48a2.44,2.44,0,0,1,1.31-1.26c4.05-2.27,8.11-4.51,12.18-6.76,1.65-.91,3.13-.79,4.2.92.88,1.42.77,2.73-.84,3.49-4.48,2.11-9,4.21-13.51,6.18C187.7,133.92,186.49,132.87,186.36,130.48Z"/><path class="cls-2" d="M158.85,112.93c1.09-4.3,2.18-8.71,3.32-13.11.52-2,2.13-2.79,4.16-2,1.69.65,2.34,1.75,1.6,3.65-1.47,3.73-2.8,7.51-4.11,11.3-.42,1.2-.94,2.14-2.34,2.17A2.46,2.46,0,0,1,158.85,112.93Z"/><path class="cls-2" d="M125.76,183.14c1.76-.35,2.86-.11,3.57,1s-.1,2.06-.63,3c-2,3.32-3.94,6.63-5.91,10-.9,1.51-2,2.55-4,1.82-2.21-.82-2.73-2.34-1.35-4.28C120.27,190.65,123.14,186.75,125.76,183.14Z"/><path class="cls-2" d="M140.57,113.16c-2.15,2.63-4,2.42-5-.4-1.38-3.69-2.72-7.38-4-11.1-.78-2.25-.22-3.38,1.78-3.91s3.33.17,3.9,2.38C138.34,104.45,139.44,108.78,140.57,113.16Z"/><path class="cls-2" d="M120.38,123c-1.3,2.41-2.6,2.81-4.45,1.35-3.51-2.77-7-5.61-10.46-8.4-1.28-1-1.78-2.22-.61-3.56s2.64-2.09,4.07-.81c3.78,3.4,7.39,7,11.06,10.51C120.19,122.28,120.23,122.64,120.38,123Z"/><path class="cls-2" d="M179.06,122.62c1-1.81,2.7-2.86,4.05-4.2,2.18-2.18,4.37-4.36,6.65-6.43a3,3,0,0,1,4.8.47c1.27,1.73.18,2.8-1.13,3.84-3.38,2.67-6.7,5.43-10.13,8C181.26,125.91,179.88,125.33,179.06,122.62Z"/><path class="cls-2" d="M193.36,149c5.49-.58,11.13-.63,16.75-.73a2.24,2.24,0,0,1,2.38,2.56,2.4,2.4,0,0,1-2.55,2.7c-5.17-.11-10.35-.31-15.51-.61C192.21,152.81,191.79,151.25,193.36,149Z"/><path class="cls-2" d="M169.81,117.37a2,2,0,0,1,.22-1.56c2.32-3.9,4.6-7.84,7-11.71,1-1.63,3-1.76,4.65-.5s1.12,2.48.14,3.81c-2.41,3.3-4.79,6.62-7.21,9.91C173,119.48,171.76,119.48,169.81,117.37Z"/><path class="cls-2" d="M195.19,187.92c-1.25,2.94-3.29,3.75-5.34,1.91-3.45-3.11-6.74-6.39-10.07-9.62a5,5,0,0,1-.68-1.11c.77-2.51,2.22-3.18,4.07-1.76,3.69,2.82,7.28,5.77,10.91,8.67A3,3,0,0,1,195.19,187.92Z"/><path class="cls-2" d="M120.31,179c-.22,1.05-1.11,1.62-1.81,2.31-2.8,2.75-5.63,5.49-8.48,8.19-1.77,1.68-3.36,1.74-4.86.26-1.19-1.19-1.38-2.45,0-3.57,3.64-3,7.29-5.95,11-8.83C118,176,119.43,176.61,120.31,179Z"/><path class="cls-2" d="M183,196a3.63,3.63,0,0,1-3.47,3c-1.49.14-2.2-.85-2.85-2-2.35-4-4.72-7.95-7-11.79.53-2.2,1.93-2.43,3.94-2.19C176.68,187.35,179.88,191.75,183,196Z"/><path class="cls-2" d="M186.45,171.83c-.11-2.93,1.22-4,3.54-2.94,4.25,1.85,8.44,3.83,12.67,5.72,1.58.71,2.42,1.75,1.6,3.47a2.8,2.8,0,0,1-4.08,1.43c-1.74-.81-3.4-1.83-5.08-2.78C192.21,175.11,189.34,173.46,186.45,171.83Z"/><path class="cls-2" d="M87.12,149.58a2.35,2.35,0,0,1,2-1.24c5.64,0,11.26.25,16.72.67,1,.73,1.46,1.47,1.06,2.51A2.21,2.21,0,0,1,104.8,153c-5.09.2-10.18.48-15.27.58C87.4,153.62,86.85,152.53,87.12,149.58Z"/><path class="cls-2" d="M129.71,116.56c-1.29,2.78-3.25,3.1-4.81,1-2.52-3.41-5-6.86-7.48-10.29-.91-1.25-1.35-2.45.15-3.6,1.7-1.3,3.68-1.25,4.69.38C124.82,108.16,127.23,112.37,129.71,116.56Z"/><path class="cls-2" d="M140.6,188.5c-1.19,4.73-2.26,9.45-3.62,14.1-.6,2-2.53,1.75-4.12,1.29a2.16,2.16,0,0,1-1.54-3.08c1.46-4.14,2.89-8.29,4.46-12.39C136.57,186.35,138.43,186.35,140.6,188.5Z"/><path class="cls-2" d="M147.42,189.21c3.18-1.71,4.57-.93,4.72,2.18.18,3.93.39,7.85.58,11.77.09,1.84-.93,2.7-2.64,2.8s-3.37-.3-3.34-2.29C146.81,198.83,147.17,194,147.42,189.21Z"/><path class="cls-2" d="M163.39,187.78c1.46,4.08,3,8.21,4.44,12.37.77,2.15.27,3.31-1.53,3.83-2.21.63-3.6,0-4.14-2.09-1-3.81-1.92-7.65-2.86-11.48-.25-1-.75-2.17.42-3A2.73,2.73,0,0,1,163.39,187.78Z"/><path class="cls-2" d="M151.78,112.63c-3.2,1.66-4.58.87-4.69-2.25-.13-3.92-.3-7.85-.44-11.77-.07-1.84,1-2.69,2.68-2.77s3.37.34,3.31,2.34C152.5,103,152.09,107.83,151.78,112.63Z"/><path class="cls-3" d="M129.53,139.19c-.5,1.27-1,1.54-2.21,1-2.28-1-4.55-2.07-6.81-3.11-.81-.37-1.41-.84-.93-1.86a1.56,1.56,0,0,1,2.31-.82c1.25.63,2.45,1.35,3.67,2,1,.54,1.93,1.06,2.89,1.61C128.89,138.3,129.38,138.5,129.53,139.19Z"/><path class="cls-3" d="M116.36,143.43c-.31-1.87.45-2.56,2.26-2.06,2.38.65,4.75,1.31,7.13,1.95.77.2,1.46.5,1.23,1.43s-1,1-1.84.86q-3.81-.77-7.63-1.48A1.76,1.76,0,0,1,116.36,143.43Z"/><path class="cls-3" d="M181.09,159l-5.87-1.62-2.2-.62c-.61-.18-1-.57-.83-1.21a1.17,1.17,0,0,1,1.38-1c2.78.52,5.57,1.07,8.35,1.64a1.2,1.2,0,0,1,1,1.59C182.78,158.65,182.26,159.08,181.09,159Z"/><path class="cls-3" d="M116.22,157.5a1.13,1.13,0,0,1,1-1.28c2.79-.57,5.58-1.13,8.37-1.65a1.15,1.15,0,0,1,1.41,1c.16.72-.25,1.09-.92,1.28-2.58.71-5.15,1.47-7.74,2.15C117.07,159.31,116.23,158.67,116.22,157.5Z"/><path class="cls-3" d="M173.13,145.73c-.69-.47-1.12-.89-.93-1.58s.75-.71,1.3-.86c2.49-.68,5-1.41,7.46-2.08a1.43,1.43,0,0,1,2,1.08,1.25,1.25,0,0,1-1,1.75C179,144.65,176.05,145.18,173.13,145.73Z"/><path class="cls-3" d="M129.54,160.92a1.38,1.38,0,0,1-.8,1.1l-6.65,3.72a1.83,1.83,0,0,1-1.71.14,1.64,1.64,0,0,1-.95-1.41c0-.63.37-1,.92-1.24l7-3.21C128.46,159.53,129.19,159.79,129.54,160.92Z"/><path class="cls-3" d="M169.76,138.89a1.39,1.39,0,0,1,.71-.7q3.34-1.86,6.7-3.71a1.54,1.54,0,0,1,2.31.51c.48.78.42,1.5-.47,1.92-2.46,1.15-4.92,2.31-7.42,3.39C170.49,140.78,169.83,140.2,169.76,138.89Z"/><path class="cls-3" d="M154.64,129.25c.6-2.37,1.2-4.79,1.83-7.21a1.55,1.55,0,0,1,2.28-1.1,1.35,1.35,0,0,1,.88,2c-.81,2-1.54,4.13-2.26,6.21-.23.66-.52,1.17-1.29,1.19A1.34,1.34,0,0,1,154.64,129.25Z"/><path class="cls-3" d="M136.46,167.82c1-.19,1.57-.06,2,.55s0,1.13-.35,1.63c-1.07,1.82-2.16,3.64-3.24,5.46-.5.84-1.12,1.41-2.19,1s-1.5-1.29-.74-2.36C133.44,172,135,169.81,136.46,167.82Z"/><path class="cls-3" d="M144.59,129.37c-1.18,1.45-2.18,1.33-2.76-.22-.76-2-1.5-4.06-2.21-6.1-.43-1.24-.12-1.86,1-2.15a1.55,1.55,0,0,1,2.15,1.31C143.37,124.59,144,127,144.59,129.37Z"/><path class="cls-3" d="M133.5,134.78c-.71,1.32-1.43,1.54-2.44.74-1.93-1.52-3.83-3.08-5.75-4.62-.7-.56-1-1.22-.33-2s1.44-1.15,2.23-.45c2.08,1.87,4.06,3.84,6.08,5.78C133.4,134.38,133.42,134.58,133.5,134.78Z"/><path class="cls-3" d="M165.75,134.57a10.85,10.85,0,0,1,2.22-2.31c1.2-1.2,2.4-2.39,3.65-3.53a1.64,1.64,0,0,1,2.64.26c.7.95.1,1.54-.62,2.1-1.86,1.47-3.68,3-5.56,4.43C167,136.38,166.19,136.06,165.75,134.57Z"/><path class="cls-3" d="M173.6,149.08c3-.32,6.12-.35,9.21-.41a1.23,1.23,0,0,1,1.3,1.41,1.31,1.31,0,0,1-1.4,1.48c-2.84-.06-5.68-.16-8.52-.33C173,151.16,172.74,150.3,173.6,149.08Z"/><path class="cls-3" d="M160.66,131.69a1.12,1.12,0,0,1,.12-.86c1.28-2.15,2.53-4.31,3.85-6.43a1.66,1.66,0,0,1,2.55-.28c.86.66.62,1.36.08,2.09-1.32,1.81-2.63,3.64-4,5.45C162.42,132.85,161.73,132.85,160.66,131.69Z"/><path class="cls-3" d="M174.61,170.45c-.69,1.62-1.81,2.06-2.94,1.05-1.89-1.71-3.7-3.51-5.53-5.29a2.43,2.43,0,0,1-.37-.61c.42-1.37,1.22-1.74,2.23-1,2,1.56,4,3.18,6,4.77A1.66,1.66,0,0,1,174.61,170.45Z"/><path class="cls-3" d="M133.47,165.53c-.13.58-.61.9-1,1.28q-2.31,2.26-4.66,4.5c-1,.92-1.85.95-2.67.14-.66-.65-.76-1.35,0-2,2-1.63,4-3.26,6-4.84C132.17,163.88,133,164.23,133.47,165.53Z"/><path class="cls-3" d="M167.89,174.9a2,2,0,0,1-1.9,1.65c-.82.08-1.21-.47-1.57-1.08-1.29-2.18-2.59-4.36-3.85-6.47.29-1.21,1.07-1.34,2.17-1.21Z"/><path class="cls-3" d="M169.81,161.61c-.07-1.61.66-2.18,1.94-1.62,2.34,1,4.64,2.11,7,3.15.87.39,1.33,1,.88,1.9a1.54,1.54,0,0,1-2.24.79c-1-.45-1.87-1-2.79-1.53C173,163.41,171.39,162.5,169.81,161.61Z"/><path class="cls-3" d="M115.23,149.38a1.28,1.28,0,0,1,1.12-.68c3.1,0,6.19.14,9.19.37.52.4.8.81.59,1.38a1.22,1.22,0,0,1-1.19.81c-2.79.11-5.59.27-8.39.32C115.38,151.6,115.08,151,115.23,149.38Z"/><path class="cls-3" d="M138.63,131.24c-.71,1.53-1.79,1.7-2.64.55-1.39-1.87-2.74-3.77-4.11-5.65-.51-.69-.75-1.35.08-2a1.66,1.66,0,0,1,2.57.2C135.94,126.62,137.27,128.94,138.63,131.24Z"/><path class="cls-3" d="M144.61,170.77c-.65,2.59-1.24,5.19-2,7.74-.33,1.13-1.39,1-2.26.71a1.18,1.18,0,0,1-.84-1.69c.8-2.27,1.58-4.55,2.44-6.8C142.4,169.59,143.42,169.59,144.61,170.77Z"/><path class="cls-3" d="M148.36,171.16c1.75-.94,2.51-.51,2.59,1.2.1,2.15.22,4.31.32,6.46a1.34,1.34,0,0,1-1.45,1.54c-.92.06-1.85-.16-1.84-1.26C148,176.45,148.22,173.79,148.36,171.16Z"/><path class="cls-3" d="M157.13,170.37c.81,2.24,1.64,4.51,2.45,6.8.41,1.18.14,1.82-.85,2.1-1.21.35-2,0-2.27-1.14-.55-2.1-1.05-4.21-1.57-6.31-.14-.57-.42-1.2.23-1.63A1.49,1.49,0,0,1,157.13,170.37Z"/><path class="cls-3" d="M150.76,129.08c-1.76.91-2.52.48-2.58-1.23-.07-2.16-.17-4.32-.24-6.48,0-1,.53-1.47,1.47-1.51s1.85.18,1.82,1.28C151.15,123.79,150.92,126.44,150.76,129.08Z"/></svg>