<svg id="Layer_1" data-name="Layer 1" xmlns="http://www.w3.org/2000/svg" xmlns:xlink="http://www.w3.org/1999/xlink" viewBox="0 0 300 300"><defs><style>.cls-1{fill:#29316f;}.cls-2{fill:#5f7291;}.cls-3{fill:url(#linear-gradient);}</style><linearGradient id="linear-gradient" x1="203.14" y1="234.42" x2="162.32" y2="305.12" gradientTransform="translate(0 -148.72)" gradientUnits="userSpaceOnUse"><stop offset="0" stop-color="#5f7291"/><stop offset="0.27" stop-color="#5f7291"/><stop offset="0.56" stop-color="#fff" stop-opacity="0"/></linearGradient></defs><path class="cls-1" d="M196.44,136.14a25.3,25.3,0,1,1-25.65-25.23A25.33,25.33,0,0,1,196.44,136.14Zm-38.4,0c0,8.18,5.13,14,13,14,7.49,0,13.31-5.41,13.31-13.86,0-8.18-5.41-14-13.31-14C163.45,122.27,158,128.24,158,136.14Z"/><path class="cls-1" d="M89.42,155.27c-4.3,4.16-8.73,6.37-14.83,6.37-12.2,0-23-10.53-23-25.23,0-15.11,10.12-25.36,22.74-25.36a20.68,20.68,0,0,1,15.11,6.51v-5.27h12.06V160.4H89.42v-5.13ZM63.77,136.14c0,8.31,5.41,14.28,13,14.28S90.11,144.73,90.11,136c0-8.46-5.68-14.14-13.31-14.14C68.76,122,63.77,128.24,63.77,136.14Z"/><path class="cls-1" d="M108,93.58h12.06v66.68H108Z"/><path class="cls-1" d="M129.76,93.58h12.06v66.68H129.76Z"/><path class="cls-2" d="M148.06,169.82H155L172,208,189,169.82H196l-23.28,52.27h-1.25Z"/><path class="cls-2" d="M205,169.82h6.51v52.27H205Z"/><path class="cls-2" d="M222.64,169.82h6.66v7.63a23.21,23.21,0,0,1,6.37-6.79,12.06,12.06,0,0,1,6.93-2.22,11.28,11.28,0,0,1,5.83,1.8L245,175.92a10.27,10.27,0,0,0-3.47-1,9.69,9.69,0,0,0-6.37,2.78c-2.08,1.8-3.61,4.71-4.58,8.59-.83,3.05-1.24,9-1.24,18v17.75h-6.66Z"/><path class="cls-3" d="M210.44,104.11a11.73,11.73,0,0,0-18.85-13.86A36.42,36.42,0,1,0,217,124.91,35.67,35.67,0,0,0,210.44,104.11ZM180.5,156.52a31.75,31.75,0,1,1,0-63.5,30.26,30.26,0,0,1,8.73,1.25,13.84,13.84,0,0,0-.55,3.47,11.77,11.77,0,0,0,11.78,11.78,11.11,11.11,0,0,0,6.65-2.08,32.17,32.17,0,0,1,5.13,17.33A31.65,31.65,0,0,1,180.5,156.52Z"/><path class="cls-2" d="M188.12,86.37A16.68,16.68,0,0,1,217.23,97.6a17.53,17.53,0,0,1-1.52,7.07c.55,1.11,1.11,2.22,1.66,3.46a20.6,20.6,0,0,0,3-10.39,19.85,19.85,0,0,0-35.49-12.2C185.9,85.81,187,86.09,188.12,86.37Z"/></svg>