<svg id="Layer_1" data-name="Layer 1" xmlns="http://www.w3.org/2000/svg" xmlns:xlink="http://www.w3.org/1999/xlink" viewBox="0 0 300 300"><defs><mask id="mask" x="76.54946" y="45.42529" width="105.27866" height="209.14943" maskUnits="userSpaceOnUse"><g id="_2ixln07tpb" data-name="2ixln07tpb"><path id="_8nfmi7w2ka" data-name="8nfmi7w2ka" d="M76.54946,45.42666H181.82812V254.57155H76.54946Z" fill="#fff" fill-rule="evenodd"/></g></mask></defs><path d="M75,162.40529s12.26388,3.24647,15.16253-2.1608c6.8039-12.68551-12.68025-53.198-12.68025-53.198s22.60414,52.43906,48.55489,76.70333c14.22443,13.29158,30.54641,14.09267,41.751,8.04242,22.88873-12.37983,53.49838-73.92063,56.903-80.10792s-22.26684,55.66973-31.23155,69.58849c-8.97,13.91876-16.70671,29.993-45.77218,30.92587C112.93005,213.30545,75,162.40531,75,162.40531" fill="#4396c7" fill-rule="evenodd"/><g mask="url(#mask)"><path d="M130.05839,62.20189s8.97-3.09364,10.20321-1.54419c2.593,3.23594,2.16608,6.493-4.954,14.53537-7.1043,8.04242-27.516,29.37642-27.516,29.37642s41.8353-37.47153,53.49838-33.70857c9.59187,3.09364,5.57594,16.70672,4.02121,21.65022-1.54418,4.954-20.4117,55.98067-88.7564,162.05514-.74838,1.17,100.47218-119.68754,104.84123-171.01986,3.705-43.61138-17.629-38.046-19.18373-37.72977-18.11388,3.62066-32.15384,16.3905-32.15384,16.3905" fill="#223561" fill-rule="evenodd"/></g></svg>