<svg id="Layer_1" data-name="Layer 1" xmlns="http://www.w3.org/2000/svg" viewBox="0 0 300 300"><path d="M26.41934,121.67757h12.19q8.021,22.81248,16.07767,45.72623H42.81663c-.906-2.579-1.82927-5.20712-2.761-7.8594H24.745c-.97428,2.62091-1.9472,5.23816-2.928,7.87649H10C15.48156,152.14959,20.94209,136.93688,26.41934,121.67757Zm10.61585,28.68394c-1.51739-4.87507-2.9986-9.63394-4.47981-14.39281l-.20312.01879-4.52215,14.374Z" fill="#003659"/><path d="M254.052,123.40468h10.57594a1.55282,1.55282,0,0,1,.12478,1.012c.05691,8.31589-.11946,16.63269.09861,24.94793a15.8033,15.8033,0,0,0,.83035,4.95425c1.01419,2.83576,3.10713,4.22755,6.33813,4.22691,3.22353-.00064,5.32788-1.39546,6.34094-4.22486a14.51972,14.51972,0,0,0,.81906-4.8564q.05329-12.17771.06067-24.35561c.00114-.525.00015-1.05009.00015-1.666h10.71712c.01595.33479.04184.624.04177.91324-.00232,8.41583.01027,16.83171-.02273,25.24741a31.58763,31.58763,0,0,1-.71419,7.27132,13.8293,13.8293,0,0,1-9.32073,10.42863,23.61807,23.61807,0,0,1-14.787.34688c-6.3546-1.857-9.82244-6.209-10.73612-12.69078a40.36762,40.36762,0,0,1-.36478-5.62484q-.00485-12.42576-.002-24.8515C254.052,124.15858,254.052,123.834,254.052,123.40468Z" fill="#4e5253"/><path d="M85.08437,164.69013v18.26692H74.79763V136.35357h10.279v3.45906a10.27465,10.27465,0,0,1,9.239-4.56358,13.41855,13.41855,0,0,1,10.1826,4.94654c5.93711,6.90862,5.43154,18.50909-1.07121,24.6224-4.57937,4.30511-11.85685,4.92966-16.57378,1.40617C86.26147,165.78214,85.73257,165.256,85.08437,164.69013Zm12.88234-12.79664c-.01477-3.4338-1.9433-6.12232-4.898-6.82824a6.50067,6.50067,0,0,0-7.40362,2.99329,7.89709,7.89709,0,0,0,.98772,9.01576,6.9819,6.9819,0,0,0,7.45183,1.28115A6.6257,6.6257,0,0,0,97.96671,151.89349Z" fill="#003659"/><path d="M113.20085,117.043h10.23378v23.26763c.487-.58645.79172-.946,1.08845-1.312,4.28033-5.28014,12.5227-4.47824,15.869-.99166a12.72766,12.72766,0,0,1,3.29538,7.76723,33.61832,33.61832,0,0,1,.15779,3.5561c.01539,5.642.00689,11.284.00689,16.926v1.13544h-10.244c-.23379-.30445-.11678-.68034-.11822-1.02876q-.03365-8.215-.05067-16.43018a9.82267,9.82267,0,0,0-.39524-2.63194,3.89363,3.89363,0,0,0-3.27989-3.153,4.68181,4.68181,0,0,0-4.75713,1.74781,8.26259,8.26259,0,0,0-1.50594,5.12911c-.02553,5.114-.01306,10.22814-.01556,15.34222-.00015.32385,0,.64771,0,1.02878h-10.2846Z" fill="#003659"/><path d="M171.44,139.25076v-2.92185h10.26216v11.35573H170.60038a6.44068,6.44068,0,0,0-6.12207-2.80049,6.11443,6.11443,0,0,0-4.24182,2.0787c-2.49905,2.83078-2.27019,7.9385.45788,10.35372,2.87681,2.54693,7.01017,2.014,10.04256-1.30105h10.93712v11.38773H171.47032v-3.20943c-.15292.04224-.26755.03781-.30456.08924-2.66693,3.70655-6.45592,4.7078-10.67581,4.03087-6.35078-1.01874-10.16752-5.10752-11.84413-11.083-1.949-6.9461-.7032-13.31784,4.64517-18.457a12.99381,12.99381,0,0,1,15.73916-1.63024A13.38946,13.38946,0,0,1,171.44,139.25076Z" fill="#003659"/><path d="M192.1672,133.11984H181.593V123.4109h31.73431v9.67581H202.90815V167.3634H192.1672Z" fill="#4e5253"/><path d="M68.45031,167.42365H58.2412V117.05989H68.45031Z" fill="#003659"/><path d="M224.95559,123.3816h11.70249c2.82791,8.04129,5.66358,16.10471,8.54054,24.28548H233.764c-.97652-3.1162-1.98218-6.32546-2.98786-9.5347l-.20608-.01071c-1.00582,3.18119-2.01167,6.36238-3.02985,9.5826H216.23279C219.1499,139.57019,222.04112,131.50835,224.95559,123.3816Z" fill="#4e5253"/><path d="M250.73038,150.39118V153.438h-44.5578v-3.04683Z" fill="#003659"/><path d="M252.12532,167.38214H240.70411c-1.30662-3.70649-2.61521-7.41854-3.95119-11.20831h11.43431C249.48761,159.87481,250.7903,163.58248,252.12532,167.38214Z" fill="#4e5253"/><path d="M220.5286,167.40627H209.16243c1.35467-3.77758,2.67989-7.47309,4.02219-11.2162h11.48711C223.282,159.95244,221.91025,163.66592,220.5286,167.40627Z" fill="#4e5253"/><path d="M167.96752,153.46388c-1.758,1.92864-3.60075,2.15324-5.03119.69956a3.29721,3.29721,0,0,1,.14434-4.6998c1.46026-1.31531,3.304-1.02143,4.85891.85056h20.83314v3.14968Z" fill="#003659"/></svg>