<svg id="Layer_1" data-name="Layer 1" xmlns="http://www.w3.org/2000/svg" viewBox="0 0 300 300"><path d="M149.61626,264.6167c-58.11671,1.76512-114.43758-47.036-114.61584-114.11506C34.824,84.11626,89.83527,35.15053,150.3939,35.318c61.68075.17064,114.81626,51.30324,114.60548,115.273C264.78668,215.14126,210.03523,266.78192,149.61626,264.6167Zm-46.9839-126.22691a9.13171,9.13171,0,0,0,1.063,1.65267q22.74765,22.78146,45.53285,45.52559c.92526.92411,1.73,2.06253,3.561,2.10924a21.42461,21.42461,0,0,0,1.78569-1.48071c13.54013-13.57989,27.12456-27.11656,40.55455-40.80446,3.026-3.0842,6.93987-5.39263,8.82-9.54362a11.26082,11.26082,0,0,0,6.9953-6.99766c5.50674-2.77642,8.44069-8.58118,13.60089-12.0871,9.57757,9.55724,18.87589,18.8358,28.80828,28.74712.12795-1.8802.23027-2.51661.20561-3.148a91.58489,91.58489,0,0,0-13.63766-44.44563c-19.26-31.7282-47.62124-49.15421-84.67045-51.62881A96.0828,96.0828,0,0,0,98.13247,60.13964C65.02071,80.19548,47.14422,109.39144,46.30358,148.461c-.24367.30729-.75672.79-.68872.8943.5778.88577.97514.30351,1.34134-.25509,10.966-10.76761,21.93192-21.53527,33.70161-33.09206a79.45458,79.45458,0,0,0,5.30678,6.209c3.1573,3.01874,5.64147,6.80077,9.72263,8.80127C97.21732,134.214,99.89543,136.32953,102.63236,138.38979Zm122.259-5.39056L111.2852,246.35906c63.3872,27.65414,137.18853-18.73653,141.77028-85.27258ZM46.88669,166.22044c5.83021,32.70847,23.3574,57.79071,51.21183,74.28544L143.37538,196.049l-63.23915-63.5723C69.24405,143.53078,58.38593,154.55031,46.88669,166.22044Z" fill="#2074b0"/><path d="M203.94939,135.8485c-5.70755-4.58638-10.51179-10.107-15.70081-15.2263-11.16516-11.01514-22.22336-22.1385-33.32154-33.21381-2.254.6769-3.29471,2.48949-4.65534,3.84353q-21.41422,21.31019-42.75917,42.68991c-1.55671,1.55271-3.25013,2.96862-4.88015,4.448-2.73695-2.06026-5.41506-4.17583-6.94516-7.37133q28.58865-28.72526,57.19249-57.43542a6.0913,6.0913,0,0,1,1.48854-.86739c1.466.1174,2.08364,1.10805,2.84733,1.87146q25.848,25.83951,51.67512,51.69976a29.08419,29.08419,0,0,1,2.054,2.564A11.26082,11.26082,0,0,1,203.94939,135.8485Z" fill="#5c8d37"/></svg>