<svg id="Layer_1" data-name="Layer 1" xmlns="http://www.w3.org/2000/svg" viewBox="0 0 300 300"><defs><style>.cls-1{fill:#0258a4;}</style></defs><path class="cls-1" d="M150,68.53c47.33,0,80.75,34.61,80.75,81.68S197.33,231.89,150,231.89s-80.75-34.6-80.75-81.68S102.67,68.53,150,68.53Zm0,24.6c-32,0-52.33,24.43-52.33,57.08,0,32.4,20.35,57.09,52.33,57.09,31.72,0,52.33-24.6,52.33-57.09C202.33,117.56,181.72,93.13,150,93.13Z"/><path class="cls-1" d="M149.58,259.37a11.94,11.94,0,0,1-12-12V52.59a12,12,0,1,1,23.92,0V247.41A12.06,12.06,0,0,1,149.58,259.37Z"/></svg>