<svg id="Layer_1" data-name="Layer 1" xmlns="http://www.w3.org/2000/svg" viewBox="0 0 300 300"><path d="M275,101.46487c-.61773.26474-1.23543.61772-1.85316.88246-13.76634,5.383-27.44442,11.11895-39.79881,19.41405a122.784,122.784,0,0,0-39.79881,43.41687,130.74892,130.74892,0,0,0-11.73667,27.88564c-2.64737,9.08931-3.88281,18.61985-5.64772,27.97388-.61772,3.26509-.88246,6.61843-1.50017,9.97176-2.38264-4.0593-3.17685-8.55982-4.14755-13.41334-.97071,1.50018-1.67666,2.73563-2.47088,3.88281a1.27537,1.27537,0,0,0-.61772-.17649c.17649-.706.44123-1.41194.61772-2.02965a21.104,21.104,0,0,0,1.67666-9.08931A138.45861,138.45861,0,0,1,172.988,172.5909a17.0429,17.0429,0,0,0-.353-5.55948c-1.85316-11.2072-4.14754-22.23791-5.47123-33.53336a195.49078,195.49078,0,0,1-1.23543-27.88563,144.84173,144.84173,0,0,1,8.03036-44.12284A126.61122,126.61122,0,0,1,184.90116,38.281a2.712,2.712,0,0,1,1.41194-1.14719c-.08826.353,0,.706-.17649.9707-3.61808,5.03-4.58878,10.85422-5.11826,16.76668-.61771,6.97141-1.14719,13.94281,1.059,20.826,2.47088,7.67737,5.11825,15.35475,7.58913,23.12037,2.73563,8.73632,5.55948,17.47264,6.00071,26.73844a6.767,6.767,0,0,0,.44123,1.50017c23.64984-16.76667,50.91775-22.14966,78.53865-26.38545A3.135,3.135,0,0,1,275,101.46487Z" fill="#0f2a46"/><path d="M157.45676,237.80445a17.13572,17.13572,0,0,1-.17649-2.11789,196.26094,196.26094,0,0,0-9.707-55.683,214.6889,214.6889,0,0,0-10.413-26.12073,128.32794,128.32794,0,0,0-21.35545-31.85668A125.98078,125.98078,0,0,0,82.88917,97.14083,146.86533,146.86533,0,0,0,38.67808,81.52135C34.2658,80.72714,29.76527,80.4624,25,79.93293c.44123-.353.79421-.79421,1.14719-.88246,4.85352-2.02965,10.06-2.55912,15.17826-2.64737,19.23756-.26473,37.6809,3.88281,55.683,10.32475a119.99573,119.99573,0,0,1,29.38582,15.00176c9.707,6.97141,16.4137,16.149,21.26721,26.91493,6.9714,15.443,10.2365,31.85669,11.56019,48.62337.88246,10.58948,1.23543,21.26721,1.05894,31.94493-.08825,9.17755-1.23543,18.3551-1.9414,27.53265a4.36919,4.36919,0,0,1-.353,1.1472A1.11942,1.11942,0,0,0,157.45676,237.80445Z" fill="#0f2a46"/><path d="M223.641,240.8048c-2.82386,4.324-5.736,8.64807-8.91282,13.41335h19.85528a1.27541,1.27541,0,0,1,.17649.61773,14.50883,14.50883,0,0,1-1.94141,1.23543c-3.08859,1.67667-6.08894,3.52983-9.26579,5.03a10.75967,10.75967,0,0,1-4.677,1.14718c-10.94245.1765-21.97316.1765-32.91564.26473-21.97316.08825-43.85809.26472-65.83127.353a7.94818,7.94818,0,0,1-4.14754-1.32368c-3.00036-1.85316-5.82422-3.97106-8.64808-5.91247,0-.1765.08824-.44123.08824-.61773h21.4437c-2.47088-4.58877-4.58877-8.55983-6.88316-12.97211a37.95514,37.95514,0,0,1,4.0593-.353c12.88387-.17649,25.67949-.26474,38.56336-.44123l38.12213-.52948c6.00071-.08825,12.00142-.26474,18.00212-.353h2.47088C223.288,240.36357,223.46453,240.62831,223.641,240.8048Z" fill="#0f2a46"/><path d="M184.28344,236.12777c.44123-2.91211.88246-5.64772,1.41194-8.38334,1.32368-6.44193,2.47088-12.97211,6.26545-18.61984,2.47088-3.70632,5.29474-7.14791,9.53053-8.91282a7.97683,7.97683,0,0,1,4.76526-.26474c3.26509.88246,4.14755,3.88281,2.02966,6.44194a18.98064,18.98064,0,0,1-4.85352,4.324,41.6088,41.6088,0,0,0-18.17861,24.09107,7.43676,7.43676,0,0,1-.52948,1.23544C184.90116,236.03953,184.81292,236.03953,184.28344,236.12777Z" fill="#0f2a46"/><path d="M147.04377,208.06564a55.99788,55.99788,0,0,0-1.1472-6.70667,54.80738,54.80738,0,0,0-3.52982-9.17755c-1.67667-3.35334-4.94177-5.11825-8.38334-6.35368a27.12821,27.12821,0,0,1-3.70632-1.50018c-2.38263-1.32368-3.35334-5.11825-1.76491-7.23614a3.95668,3.95668,0,0,1,3.26508-1.1472,16.32509,16.32509,0,0,1,11.91317,8.73632c3.70632,6.79491,4.58877,14.38405,4.2358,21.97317a4.35844,4.35844,0,0,1-.44123,1.41193Z" fill="#0f2a46"/></svg>