<svg id="Layer_1" data-name="Layer 1" xmlns="http://www.w3.org/2000/svg" viewBox="0 0 300 300"><path d="M239.00434,183.7516h35.92531v8.84316H219.54939L250.72151,156.78a114.96226,114.96226,0,0,0,11.65086-15.21023,20.69276,20.69276,0,0,0,3.22775-10.32438,15.47552,15.47552,0,0,0-4.99639-11.62875,17.33256,17.33256,0,0,0-12.31409-4.7753,16.22717,16.22717,0,0,0-13.26473,5.96913,20.75932,20.75932,0,0,0-3.86888,11.51821h-9.39585a33.16187,33.16187,0,0,1,4.42158-14.67964,25.44619,25.44619,0,0,1,9.44006-8.44521,27.878,27.878,0,0,1,12.66782-3.00667,26.52944,26.52944,0,0,1,18.92435,7.2956,23.54493,23.54493,0,0,1,7.782,17.92949,27.038,27.038,0,0,1-3.60358,13.26474,65.90463,65.90463,0,0,1-5.41642,7.93673q-3.692,4.709-9.39585,11.20869Z" fill="#ff2426"/><path d="M83.36482,174.73158H49.62818l-7.56089,17.46523H25l35.81478-84.43h12.093l34.86413,84.43H90.41723Zm-4.99639-13.04365-11.673-29.713L54.713,161.68793Z" fill="#333132"/><path d="M123.49063,192.19681V107.612h11.05394l50.4502,57.61315V109.53543h16.11665v84.27526H190.05748l-50.36176-57.4805v55.86662Z" fill="#333132"/></svg>