<svg id="Layer_1" data-name="Layer 1" xmlns="http://www.w3.org/2000/svg" xmlns:xlink="http://www.w3.org/1999/xlink" viewBox="0 0 300 300"><defs><linearGradient id="linear-gradient" x1="70.04727" y1="220.74466" x2="222.94827" y2="85.28873" gradientUnits="userSpaceOnUse"><stop offset="0" stop-color="#4feb92"/><stop offset="0.18346" stop-color="#4de696"/><stop offset="0.39487" stop-color="#45d8a2"/><stop offset="0.62013" stop-color="#3ac1b7"/><stop offset="0.85349" stop-color="#29a1d3"/><stop offset="1" stop-color="#1d89e8"/></linearGradient></defs><path d="M87.19688,42.41607h125.379C233.12357,77.81573,253.7267,113.31078,275,149.96044c-20.73818,35.77309-41.60874,71.7745-62.39092,107.62349H87.45084C66.80035,222.05237,46.17587,186.56559,25,150.13006,45.59,114.47174,66.402,78.42907,87.19688,42.41607Zm62.61941,37.36969c-10.53053,17.42258-20.28054,34.24217-29.74568,52.08173,8.83157,14.45295,11.74562,30.59244,12.18741,47.89328,12.27541.69939,23.41012,1.42854,34.80788-.60212,1.47054-17.078,4.46107-32.93054,12.70913-47.64067Zm46.23532,168.11547c-7.7981-9.15289-14.26753-17.90224-19.05475-27.72207-4.72875-9.69986-6.32619-20.50371-9.53309-30.63563-12.55532.52718-24.0106,1.30809-35.77429-.91145-.95841,11.69366-4.67376,21.90989-8.78285,31.99148-4.0634,9.96948-11.98809,17.62564-18.20614,27.27767ZM98.56342,104.03307,114.457,121.318c11.79846-20.25443,23.16971-39.77543,35.00922-60.10034,12.93608,20.54453,23.279,40.76866,35.6892,60.12785,6.73281-5.84913,10.284-12.77947,16.53087-17.22667l-30.299-51.63409h-42.7258C118.635,69.65682,108.79814,86.50425,98.56342,104.03307ZM91.82575,246.778c17.53433-17.52778,29.09184-36.1071,30.09436-60.04991-8.99853-5.14583-18.05041-8.53433-27.16084-14.97208,3.131,20.65015-3.66593,37.02192-16.98366,50.83759C82.615,230.92366,86.91214,238.32028,91.82575,246.778Zm130.01855-24.0369c-13.806-13.71923-18.84458-30.27188-18.52563-49.94011-8.864,6.25074-17.027,9.76938-25.92715,13.522,2.80263,23.88418,12.3672,43.78366,31.16807,59.60034C213.19013,237.843,217.30307,230.66574,221.8443,222.74114ZM92.49225,52.23778C86.39823,62.84345,81.2921,73.3015,74.74064,82.76662c-10.055,14.52674-4.71685,28.57248-.87206,45.3236,15.07314-26.42751,29.643-50.4288,43.75748-75.85244Zm90.44023.4691c14.07442,24.45,27.6842,48.34653,42.60946,72.62353,4.65278-13.08409,5.18187-18.80971,3.64871-35.52117-7.47687-12.705-14.99955-25.48779-22.28712-37.87115C198.45891,52.1957,191.16627,51.27934,182.93248,52.70688Zm23.674,59.63c-18.28766,17.49235-28.45168,37.84788-29.1449,63.1886,17.94331-4.98323,40.21578-25.48038,42.77844-39.55779C216.03166,128.67337,211.45149,120.73462,206.60647,112.33683Zm-83.525,63.85991c-1.85112-25.23869-10.49853-46.03736-29.68935-63.12105-2.786,4.83683-4.94574,8.84676-7.3563,12.701-2.62193,4.19221-5.36679,8.29557-6.84054,12.83062C89.0868,156.72585,102.48723,168.33254,123.08144,176.19674Zm104.11614-28.20852c-20.30709,20.30653-16.33332,53.4203.3736,65.25625,6.212-10.87983,12.40462-21.72571,18.68789-32.7303C239.87835,169.62633,233.72068,159.11907,227.19758,147.98822ZM54.29448,180.00108c3.74906,10.493,14.87935,28.56292,19.58829,32.202,18.16212-14.14281,14.31173-55.973-2.15958-62.26291C65.836,160.09432,59.89986,170.333,54.29448,180.00108Zm186.01616-70.43691c-3.43549,9.56-3.64626,19.1311-8.69994,27.23777,6.62383,11.24206,13.09893,22.23174,20.19626,34.27743,4.52162-7.81139,8.294-14.32844,12.1571-21.00221Zm-180.46118-.01334C50.1735,123.8324,43.225,137.01809,36.05837,149.8656a102.74645,102.74645,0,0,0,12.51872,20.89732c7.16465-11.516,13.94865-22.02007,19.137-33.35387A125.72778,125.72778,0,0,1,59.84946,109.55083Z" fill="url(#linear-gradient)"/></svg>