<svg id="Layer_1" data-name="Layer 1" xmlns="http://www.w3.org/2000/svg" xmlns:xlink="http://www.w3.org/1999/xlink" viewBox="0 0 300 300"><defs><style>.cls-1,.cls-2{fill:#231f20;}.cls-1,.cls-3{fill-rule:evenodd;}.cls-3,.cls-4{fill:#007b96;}.cls-5{fill:url(#linear-gradient);}</style><linearGradient id="linear-gradient" x1="242.59" y1="175.97" x2="269.35" y2="188.44" gradientTransform="matrix(1, 0, 0, -1, 0, 302)" gradientUnits="userSpaceOnUse"><stop offset="0.5" stop-color="#ed1c24"/><stop offset="0.5" stop-color="#f1441d"/><stop offset="0.6" stop-color="#f56d15"/><stop offset="0.6" stop-color="#f88f0e"/><stop offset="0.7" stop-color="#faac09"/><stop offset="0.7" stop-color="#fcc205"/><stop offset="0.8" stop-color="#fed102"/><stop offset="0.9" stop-color="#ffda01"/><stop offset="1" stop-color="#fd0"/></linearGradient></defs><path id="Layer" class="cls-1" d="M112.15,189.13c-6.21-.09-13.28-.2-19.54-.2H85.88c-1.11-2.42.12-5,.43-8.12-9.1,6.73-18.65,10-31.62,9.41-19.08-.82-28.07-7-23.66-16,5.44-11.17,26.38-16.78,63.43-17.56a3.73,3.73,0,0,1,.2-.4c5.79-11.87,1.23-17.56-10.53-17.57-12.22,0-22.75,5.84-33,17.49H49l.3-15.83q5-1.29,10-2.26c3.37-.66,6.74-1.2,10.13-1.63s6.8-.77,10.21-1,6.83-.33,10.26-.33c14.51,0,24,2.43,27.87,6.75,4.3,4.62,3.23,10.36-.75,18.5L114.71,165c-7,14.27-10.09,20.68-1.71,22ZM89.51,160c-16.64,1-27.47,4.78-32,14-3.59,7.33.26,11.59,6.5,11.78,12.07.35,20-7.74,27.44-23L93,160.09l-.87-.07-.86,0-.87,0-.87,0Z"/><path id="Layer-2" data-name="Layer" class="cls-2" d="M113.28,187.69c10.23-2,12-7.29,17.54-19,.49-1,1-2.1,1.53-3.21l6.69-14c2.75-4.36,3.63-9.83-3.95-10.24l.55-1.45c11.64-.91,24-1.58,32.52-3.09l-4.58,10.82c9.37-8.65,19.75-12,32.62-12,20.77,0,26.52,7.24,18.08,23.77L211.59,165c-.53,1.1-1.05,2.21-1.54,3.21-5.61,11.76-10.15,17.85,0,19.39v1.73c-6.87-.3-15.57-.44-22.31-.44-5.82,0-12.6.09-20.37.38l.53-1.11c9.88-1.9,13.08-7.33,18.06-17.78q1.09-2.26,2.31-4.83l2.26-4.72c6.44-13.47,5-19.8-6.23-19.82-10.91,0-18.26,7.37-24.23,19.84l-2.26,4.72c-.38.81-.77,1.61-1.1,2.32-6,12.56-8.54,18.06,0,19.87l-.52,1.54c-6.89-.31-17.79-.44-24.52-.44-5.83,0-11.16.07-18.93.37Z"/><path id="Layer-3" data-name="Layer" class="cls-2" d="M258.51,155l-5,10.56c-.58,1.21-1,2.33-1.59,3.32-8.87,16-7.14,17.14,1.16,18.86l-1,1.52c-6.88-.31-14.05-.38-20.78-.38-5.83,0-13.42.11-21.2.41l.54-1.73c10.08-2,12.24-6.8,17.46-17.76l2-4.12,6.69-14c3.41-7.14,2.66-9.44-3.77-10.44l.46-1.63c12-1,25-1.63,34.33-3-3.27,5.93-6.21,12.07-9.22,18.39Z"/><path id="Layer-4" data-name="Layer" class="cls-3" d="M114.49,189.13c-6.21-.09-13.28-.2-19.55-.2H88.22c-1.11-2.42.12-5,.41-8.12-9.08,6.73-18.65,10-31.61,9.41-19.07-.82-28.08-7-23.65-16C38.81,163,59.73,157.43,96.8,156.65a3.73,3.73,0,0,1,.2-.4c5.79-11.87,1.23-17.56-10.54-17.57-12.22,0-22.75,5.84-33,17.49H51.29l.29-15.83q5-1.29,10-2.26t10.12-1.63q5.08-.66,10.22-1c3.41-.22,6.83-.33,10.24-.33,14.51,0,24,2.43,27.89,6.75,4.3,4.62,3.22,10.36-.76,18.5L117,165c-7,14.27-10.1,20.68-1.72,22ZM91.86,160c-16.63,1-27.49,4.78-32,14-3.58,7.33.28,11.59,6.52,11.78,12.07.35,20-7.74,27.43-23l1.52-2.69-.86-.07-.86,0-.88,0-.86,0Z"/><path id="Layer-5" data-name="Layer" class="cls-4" d="M115.61,187.69c10.23-2,12-7.29,17.54-19,.48-1,1-2.1,1.54-3.21l6.67-14c2.77-4.36,3.65-9.83-3.93-10.24l.54-1.45c11.65-.91,24-1.58,32.52-3.09l-4.58,10.82c9.37-8.65,19.76-12,32.61-12,20.79,0,26.53,7.24,18.09,23.77L213.92,165c-.52,1.1-1.06,2.21-1.53,3.21-5.61,11.76-10.15,17.85,0,19.39v1.73c-6.89-.3-15.59-.44-22.31-.44-5.84,0-12.61.09-20.38.38l.53-1.11c9.89-1.9,13.07-7.33,18.07-17.78q1.06-2.26,2.3-4.83l2.26-4.72c6.44-13.47,5-19.8-6.24-19.82-10.91,0-18.26,7.37-24.21,19.84l-2.26,4.72L159,167.89c-6,12.56-8.53,18.06,0,19.87l-.53,1.54c-6.88-.31-17.78-.44-24.52-.44-5.82,0-11.16.07-18.92.37Z"/><path id="Layer-6" data-name="Layer" class="cls-4" d="M260.83,155l-5,10.56c-.57,1.21-1,2.33-1.59,3.32-8.87,16-7.13,17.14,1.17,18.86l-1,1.52c-6.89-.31-14.07-.38-20.78-.38-5.85,0-13.42.11-21.2.41l.54-1.73c10.06-2,12.22-6.8,17.46-17.76.63-1.31,1.29-2.71,2-4.12l6.67-14c3.41-7.14,2.67-9.44-3.75-10.44l.44-1.63c12-1,25-1.63,34.35-3-3.28,5.93-6.21,12.07-9.24,18.39Z"/><path id="Layer-7" data-name="Layer" class="cls-2" d="M257.62,115.53c7.5,0,11.43,4.27,8.91,10s-10.18,10-17.66,10c-7.84,0-11.49-4.15-8.92-10S250.13,115.53,257.62,115.53Z"/><path id="Layer-8" data-name="Layer" class="cls-5" d="M260.4,109.73c7.5,0,11.44,4.27,8.91,10s-10.17,10-17.66,10c-7.84,0-11.48-4.15-8.92-10.06S252.91,109.73,260.4,109.73Z"/></svg>