<svg id="Layer_1" data-name="Layer 1" xmlns="http://www.w3.org/2000/svg" viewBox="0 0 300 300"><title>ANVS_Mark_Light</title><path d="M150.877,148.46064a25.5143,25.5143,0,0,0-.28319,5.30855c.12931,1.96908.19611,3.94178.44013,5.90753a54.98086,54.98086,0,0,0,3.30351,13.28548,45.80589,45.80589,0,0,0,11.66087,17.167,51.88662,51.88662,0,0,0,14.00729,9.1887,62.9232,62.9232,0,0,0,11.41606,3.97118,45.66251,45.66251,0,0,0,13.31355,1.22806,48.53048,48.53048,0,0,0,25.921-9.40571,49.42034,49.42034,0,0,0,14.02329-14.95689c.71331-1.21137,1.30187-2.48624,1.90164-3.76022a42.99525,42.99525,0,0,1-2.16982,7.35784,49.08293,49.08293,0,0,1-12.30347,18.51824,45.40469,45.40469,0,0,1-15.84429,9.5341,56.912,56.912,0,0,1-13.72038,3.0149,6.59172,6.59172,0,0,0-2.37671.29843h-5.7862a6.25479,6.25479,0,0,0-2.29244-.2945A50.74785,50.74785,0,0,1,153.71937,190.006a46.58731,46.58731,0,0,1-5.75765-16.5895,49.74819,49.74819,0,0,1,.102-14.9871,65.29673,65.29673,0,0,1,2.7143-10.89959c.01349-.0399.07831-.06248.11926-.09325Q150.88726,147.94849,150.877,148.46064Z" fill="#ec1151"/><path d="M281.83453,159.11047c-.16441.66285-.29666,1.33565-.49836,1.987-1.47817,4.77378-4.47611,8.13554-9.45788,9.13521-6.60315,1.325-13.42233-2.8409-14.52641-9.66308-.14444-.89261-.22558-1.782-.30128-2.73123h5.504a10.04354,10.04354,0,0,0,1.14277,3.71034,6.56263,6.56263,0,0,0,8.9461,2.35025,7.03966,7.03966,0,0,0,1.6738-10.70417,6.016,6.016,0,0,0-2.6007-1.66429c-2.14785-.6921-4.28954-1.404-6.44463-2.07274a10.31463,10.31463,0,0,1-7.12056-11.36173c.55519-4.2088,2.57406-7.37416,6.40142-9.20033,5.466-2.608,14.11479-.68342,15.94515,8.02689.12315.5861.19515,1.18294.29823,1.81981h-5.54426a5.82058,5.82058,0,0,0-2.14341-3.68006,5.71731,5.71731,0,0,0-6.10394-.83669,5.55388,5.55388,0,0,0-3.34686,5.06887c-.115,1.863,1.15952,3.57739,3.25163,4.4892,2.34864,1.02359,4.82059,1.70262,7.226,2.568,4.46188,1.60515,6.7562,4.87908,7.53342,9.39883.01909.111.01971.21459.16572.22091Z" fill="#242021"/><path d="M194.24036,148.61092c.19087-.13914.13354-.34582.13806-.53107a55.375,55.375,0,0,0-2.9707-19.94429A46.23707,46.23707,0,0,0,178.59345,108.743a48.2359,48.2359,0,0,0-21.30284-10.92933,55.61271,55.61271,0,0,0-16.76017-1.45713,47.79737,47.79737,0,0,0-20.7081,6.20218,52.79517,52.79517,0,0,0-11.6785,9.025A57.615,57.615,0,0,0,97.805,125.736a.92123.92123,0,0,1-.24881.32063,23.78732,23.78732,0,0,1,.85334-4.02052,50.20267,50.20267,0,0,1,8.98983-18.25235,47.15242,47.15242,0,0,1,14.003-11.94244,52.37852,52.37852,0,0,1,16.317-5.85334,48.5192,48.5192,0,0,1,12.87338-.74551,56.33034,56.33034,0,0,1,21.55524,5.96673,41.21745,41.21745,0,0,1,19.293,20.75624,56.01153,56.01153,0,0,1,3.95559,14.2134,63.73283,63.73283,0,0,1,.6943,9.26343,55.81365,55.81365,0,0,1-1.704,15.38269c-.03568.12654-.01.28108-.18978.31841Q194.21879,149.87717,194.24036,148.61092Z" fill="#ec1151"/><path d="M94.10771,155.68856V128.70288h6.30551v41.78021L67.45629,142.66033v27.05406H61.59291V128.575Z" fill="#242021"/><path d="M106.48253,128.61952l32.46533,27.07338V128.68732h6.28663v41.78494l-32.91988-27.794V169.7064h-5.83208Z" fill="#242021"/><path d="M194.24036,148.61092q-.02159,1.26623-.04319,2.53247a22.118,22.118,0,0,1-2.11061,7.35021c-3.276,6.17808-8.20781,10.36248-15.15475,11.59867-9.12969,1.62462-16.63086-1.33612-22.19741-8.83784a19.757,19.757,0,0,1-3.83473-12.13352c.00042-.21981-.0146-.43965-.02253-.65987q.01-.5127.02017-1.02447a21.35487,21.35487,0,0,1,2.4075-8.28031c3.1026-5.5023,7.59405-9.363,13.78128-10.84079,6.77647-1.61856,13.18337-.60113,18.765,3.8081a20.6074,20.6074,0,0,1,8.05142,13.30139C194.06727,146.48532,194.179,147.54348,194.24036,148.61092Zm-21.5875-15.03284c-8.68-.21471-15.82194,7.375-15.88024,15.38369-.061,8.37881,7.35519,15.69493,15.79677,15.7067a15.89524,15.89524,0,0,0,15.71223-15.14918A15.68781,15.68781,0,0,0,172.65286,133.57808Z" fill="#242021"/><path d="M36.92757,124.42256c6.281,15.168,12.52332,30.24247,18.78874,45.37276H49.67643c-4.23449-10.2665-8.47388-20.54491-12.74932-30.91071L24.18326,169.79045H18.16547Z" fill="#242021"/><path d="M199.259,128.58378h6.34381l11.87988,31.91858c4.17394-10.77288,8.26815-21.34,12.37031-31.92767h6.33533c-6.22046,15.13307-12.42419,30.22545-18.70489,45.505C211.37054,158.81941,205.32821,143.73521,199.259,128.58378Z" fill="#242021"/><path d="M242.85569,128.41947H249.012c.19049.64977.21335,40.55453.02218,41.36085h-6.17849Z" fill="#242021"/></svg>