<svg id="Layer_1" data-name="Layer 1" xmlns="http://www.w3.org/2000/svg" viewBox="0 0 300 300"><defs><style>.cls-1{fill:#57595a;}.cls-2{fill:#e77345;}</style></defs><title>APLS_Light_bg</title><path class="cls-1" d="M91.76,186.21V129.88a24.19,24.19,0,0,1,4.6-.08v7.08c.64.06.74-.37.94-.62,8.07-10.09,22.34-9.44,29.5,1.34a23.17,23.17,0,0,1-.17,25.45,17.27,17.27,0,0,1-28.23.69A5.41,5.41,0,0,0,97,162.38v23.83ZM97,149.54c0,1.76,0,3.51,0,5.27a4.57,4.57,0,0,0,.56,2.38,18,18,0,0,0,5.44,6.25,13.09,13.09,0,0,0,17.89-2.13,16.84,16.84,0,0,0,4-14,15.71,15.71,0,0,0-7-11.2c-6.78-4.52-14-2-18.64,3.14A7.84,7.84,0,0,0,97,145.2C97.07,146.64,97,148.09,97,149.54Z"/><path class="cls-1" d="M59.4,115.27h4.47q11.38,27.17,22.9,54.59H80.91l-7-16.88H49.25c-2.29,5.55-4.62,11.22-7,16.9H36.5C44.16,151.62,51.76,133.5,59.4,115.27Zm2.44,6.83h-.33c-3.66,8.76-7.31,17.52-11,26.42H72.55C68.93,139.6,65.39,130.85,61.84,122.1Z"/><path class="cls-1" d="M167.88,159.44c.33.06.59.09.83.16l3.59,1a8.13,8.13,0,0,1-2.14,3.7,18.46,18.46,0,0,1-12.3,6.22c-9,.95-16.47-3-20.5-11.15-5.62-11.37-.63-26.25,13.3-29.82a19.77,19.77,0,0,1,23.44,13.23,21.45,21.45,0,0,1,1,9H141c-.39,4.42,3.36,12,10.14,14.15C156.9,167.81,164.71,165.73,167.88,159.44ZM140.64,147.6h29.28c.32-5.08-4.31-13.38-13-14.26C148.54,132.5,141.33,138.39,140.64,147.6Z"/><path class="cls-1" d="M262.22,134.66l-2.48,3c-.64-.51-1.19-1-1.82-1.45a17.56,17.56,0,0,0-15-2.43,6.55,6.55,0,0,0-5.14,5.75c-.39,2.86.45,4.49,3.07,5.74a38.31,38.31,0,0,0,7.11,2.14c3.39.88,6.85,1.57,10,3.17a9.68,9.68,0,0,1,2.29,15.93,13.74,13.74,0,0,1-7.22,3.67c-7.31,1.31-14.19.22-20.43-4a6,6,0,0,1-1.8-1.6l2.29-3.31a7.67,7.67,0,0,1,2,1.24,20.79,20.79,0,0,0,16.29,3.77,10.05,10.05,0,0,0,4.38-1.89,5.9,5.9,0,0,0-.79-10.09c-3-1.55-6.26-2.07-9.45-2.9A48.34,48.34,0,0,1,238,149c-4.44-2-6-5.08-5.19-9.86A10.31,10.31,0,0,1,239,131c7.72-3.27,15.11-2.58,22,2.4a5.86,5.86,0,0,1,.7.62C261.85,134.16,262,134.34,262.22,134.66Z"/><path class="cls-1" d="M187,113.92v45.8c0,.47,0,.93,0,1.4a4.31,4.31,0,0,0,5.29,4.38c1.12-.15,2.22-.43,3.45-.67a33.39,33.39,0,0,1,1,4.26c-3.62,1-7.11,2.08-10.8.66a6.41,6.41,0,0,1-4.13-5.19,14.42,14.42,0,0,1-.18-2.63q0-23.34,0-46.68v-1.33Z"/><path class="cls-1" d="M200.37,113.88h5.11a3.53,3.53,0,0,1,.18,1.86c0,14.63.11,29.26,0,43.89-.05,4.85,2.57,6.75,7.12,5.58.54-.14,1.09-.25,1.72-.4a30.4,30.4,0,0,1,1,4.23c-3.59,1.1-7.09,2.07-10.76.7a6.43,6.43,0,0,1-4.21-5.65,24.59,24.59,0,0,1-.08-3.1V113.88Z"/><path class="cls-1" d="M219.5,129.82h5.06v40c-1.66.25-3.3,0-5.06.13Z"/><path class="cls-2" d="M222.1,113.81a5.7,5.7,0,0,1,5.93,5.77,6,6,0,0,1-5.95,6.21,6.06,6.06,0,0,1-6.12-6.07A5.78,5.78,0,0,1,222.1,113.81Z"/></svg>