<svg id="Layer_1" data-name="Layer 1" xmlns="http://www.w3.org/2000/svg" viewBox="0 0 300 300"><path d="M149.96482,131.40135,125.017,91.30049l24.94269-38.52623C158.31284,65.753,166.571,78.58418,174.90978,91.5406Z" fill="#57a4c1"/><path d="M185.72871,108.52716c-8.581,13.74444-17.01335,27.25087-25.42306,40.72055,3.40629,5.56653,6.72947,10.9968,10.16911,16.61647,5.07353-8.11743,10.0323-16.05055,15.038-24.05886.31377.47151.58288.84691.822,1.23984q11.323,18.59154,22.6415,37.18649,13.63051,22.38312,27.25313,44.77134a29.13964,29.13964,0,0,1,2.73973,4.78068q-1.17963-.00169-2.35924-.00226-18.80357.01272-37.60656.0277c-.40649-.08706-.809-.20522-1.22-.25611a18.15573,18.15573,0,0,1-8.38823-3.37293c-2.66115-1.89056-4.41829-4.5093-6.11832-7.25129q-16.65208-26.87179-33.43816-53.66049-16.07373-25.75747-32.15875-51.5076c-1.05666-1.69212-2.13141-3.3735-3.28813-5.203C86.21535,154.83685,58.16393,200.91192,30,247.17129h1.4247q33.94953-.00169,67.89906-.00057a37.6066,37.6066,0,0,0,5.66151-.4031,35.0587,35.0587,0,0,0,24.39071-15.0589c2.40843-3.43852,4.45-7.1337,6.665-10.7079,1.26132-2.03586,2.5362-4.0638,3.81844-6.11662-3.38311-5.532-6.72947-11.00415-10.112-16.53619a4.82234,4.82234,0,0,0-.43307.5043c-4.37757,7.12635-8.97225,14.11871-13.21131,21.32987a19.36532,19.36532,0,0,1-7.90541,7.56,24.07321,24.07321,0,0,1-7.011,2.063q-19.98149-.00339-39.9641-.00621c-.10912-.47434.23688-.7802.44381-1.12111q3.52528-5.80992,7.07377-11.60626,12.61711-20.72521,25.23141-41.45269,9.98735-16.40022,19.98657-32.79252c.18374-.30133.27759-.69991.77567-.80733.268.40367.558.81807.82543,1.24662q4.21644,6.7665,8.4278,13.53582,18.62124,29.81025,37.24868,59.61768c3.30622,5.29176,6.33089,10.78422,9.96559,15.8391,6.88211,9.57153,16.483,14.7146,28.2459,14.83841,23.143.24311,46.2899.07011,69.43514.05993.34034,0,.72874.143,1.11771-.22614Q227.91184,177.80682,185.72871,108.52716Z" fill="#3a76a1"/></svg>