<svg id="Layer_1" data-name="Layer 1" xmlns="http://www.w3.org/2000/svg" viewBox="0 0 300 300"><path d="M51.07784,102.52621C67.805,85.73982,85.69,66.89514,102.43145,50.123h0c31.69012,0,63.19719-.15085,94.70158.07352A52.96612,52.96612,0,0,1,248.1472,89.99027,52.221,52.221,0,0,1,249.895,103.15c.16942,31.37279.083,94.02845.08322,94.02919l-.00026-.00074-52.305,51.96228V102.5404c-10.01054-.02763-19.68708-.01069-29.36319-.01355q-14.77987-.00437-29.55975-.00064-14.5974,0-29.19481,0l-29.55975,0H51.07784" fill="#a5b9c2"/><path d="M50.01028,163.03522c17.695-17.74722,34.72744-34.82989,51.82137-51.97424v86.98658h86.95482L137.70693,249.866H121.55375c-6.56684,0-13.13818.15612-19.69958-.03244a52.24276,52.24276,0,0,1-35.82791-14.77389c-7.90777-7.53452-12.54618-16.66373-15.06409-27.05857a28.25126,28.25126,0,0,1-.91052-6.39535C49.96908,188.49462,50.01028,175.38274,50.01028,163.03522Z" fill="#a5b9c2"/><path d="M149.685,179.35764c-15.99879.384-29.48729-13.67853-29.242-29.79145.23338-15.3293,13.66093-29.36587,30.26885-28.84648A29.576,29.576,0,0,1,179.23,150.22918C179.17074,167.06836,164.92365,179.91342,149.685,179.35764Z" fill="#068459"/></svg>