<svg id="Layer_1" data-name="Layer 1" xmlns="http://www.w3.org/2000/svg" viewBox="0 0 300 300"><defs><style>.cls-1{fill:#6a625a;}.cls-2{fill:#9d1f34;}</style></defs><path class="cls-1" d="M85.59,156.61c12.91-4.29,15.79-11,9.53-22.47-2.79-5.14-2.22-9.62-.36-15,6.43-18.58,20.17-26.8,38.7-28.85,18-2,35.95-3,53.41,3.47,7.17,2.65,9.41,6.06,7.36,11.41-2.14,5.57-5.14,6.24-12.86,3.33-17.13-6.47-33.29-4.49-47.94,6.53a193.52,193.52,0,0,1-17,11.5c-5.92,3.54-10.31,8.17-11.48,15.37-4.25,26.09-1.9,50.18,20.13,68.54s49.74,14.06,65.49-10.19a47,47,0,0,0,5.17-9.61,28.69,28.69,0,0,1,13.11-15.83c8.33-5,10-16.34,5.36-28.53-3.19-8.3-7-16.27-12.68-23.27-3.88-4.79-4.65-10.27-.26-15,4.61-4.94,9.66-2.26,14.19.76C222,113.15,226,119,225.81,127.08c-.14,7.64,1.77,14.77,4.54,21.91,5.73,14.76,2.47,29.29-2.78,43.41-1.76,4.73-2,8.65.92,12.84,3.82,5.51,3.68,11.34-.16,16.64-3.69,5.09-9.22,5.8-14.81,3.91-6.22-2.1-11.33-.46-16.77,2.68A73.87,73.87,0,0,1,88.1,183C83.62,165.82,83.41,163.66,85.59,156.61Z"/><path class="cls-2" d="M213.2,67.61c14,6.52,16,9.55,13.2,19.79a16,16,0,0,1-16.73,11.29C203,98,198.83,93.45,198.22,86.28,197.46,77.23,202.9,70.31,213.2,67.61Z"/><path class="cls-2" d="M86.52,226c13.87,5.82,15.8,8.53,13.48,18.53a16,16,0,0,1-16.44,12.68c-6.38-.26-11.18-5.11-11.84-12C70.79,235.57,75.66,229.14,86.52,226Z"/><path class="cls-2" d="M208,46.16c1.53,5.33,1.39,10.17-4.25,12.75-3.56,1.63-7.69,2.35-10.53-1.47s-2.44-7.65.47-11.24C198,40.84,202.7,42.68,208,46.16Z"/><path class="cls-2" d="M82.69,143.06c-3.41,4.68-8,6.22-12.76,3-3.77-2.57-4.25-6.87-1.76-10.87,2.88-4.62,6.72-6.57,11.84-3.09C83.75,135,82.54,139.21,82.69,143.06Z"/><path class="cls-1" d="M82.69,143.06c-.15-3.85,1.06-8-2.68-11C86.44,134.38,84.83,138.65,82.69,143.06Z"/></svg>