<svg id="Layer_1" data-name="Layer 1" xmlns="http://www.w3.org/2000/svg" viewBox="0 0 300 300"><title>ABUS_Light_BG</title><path id="Path_437" data-name="Path 437" d="M272.28566,90.795a110.00449,110.00449,0,0,0-23.29719.62985,137.8826,137.8826,0,0,0-68.96876,28.81938,185.29308,185.29308,0,0,0-36.1762,41.41641c-15.16771-14.28153-24.31521-24.60816-44.43384-32.9244a117.76031,117.76031,0,0,0-72.07409-4.7605,3.087,3.087,0,0,0,.86788,6.07881s2.62194-.12817,7.38977,0c30.892,1.09857,60.97112,10.84664,77.59628,38.31842,18.12288,29.85571,10.61959,67.47471,6.29851,82.47394l56.705-.2014a114.91867,114.91867,0,0,1,49.9597-139.45357,118.87373,118.87373,0,0,1,41.995-14.77954c2.64025-.40647,4.06474-.553,4.06474-.553a3.06865,3.06865,0,0,0,2.77444-3.3371l-.00234-.02455C274.92957,91.10623,273.72845,90.92313,272.28566,90.795Zm-106.5658,68.24736c-5.72725,10.38157-9.0706,31.61343-9.239,50.25265a179.75017,179.75017,0,0,0,2.77208,30.37569,1.23774,1.23774,0,0,1-.22338.813.73242.73242,0,0,1-.60788.36619H146.65221a.75806.75806,0,0,1-.60788-.33324,1.23785,1.23785,0,0,1-.22338-.813s.36619-6.91006.553-24.66675c.42478-36.95252,17.94345-57.27622,18.10457-57.40439a.73238.73238,0,0,1,1.12787,0A1.29266,1.29266,0,0,1,165.71986,159.04232Z" fill="#424648"/><path id="Path_438" data-name="Path 438" d="M230.66052,71.32449c-1.29265,0-53.303.16478-76.53431,20.19553l-5.55148-37.47251c-.61154-3.17856-.92649-5.76388-2.38392-4.6177-5.95063,4.6177-6.174,7.64977-6.43035,14.02153h0V119.358s.14648,2.069.14648,4.138,2.64025,2.86363,3.56672,1.53435c2.92954-4.32473,27.93686-43.88089,88.68458-48.03718C238.25535,76.616,237.79029,71.32449,230.66052,71.32449Z" fill="#424648"/></svg>