<svg id="Layer_1" data-name="Layer 1" xmlns="http://www.w3.org/2000/svg" xmlns:xlink="http://www.w3.org/1999/xlink" viewBox="0 0 300 300"><defs><clipPath id="clip-path"><path d="M79.16372,370.12125h0c-39.21811,33.89781-64.90744,83.50316-69.06236,91.20485H136.268a269.05491,269.05491,0,0,1,29.89489-40.53549h0a92.725,92.725,0,0,0-82.99643-51.32809H79.41693" fill="none"/></clipPath><linearGradient id="linear-gradient" x1="6542.9156" y1="7486.42871" x2="6543.87833" y2="7486.42871" gradientTransform="translate(2640575.21538 3021554.92134) rotate(-179.99858) scale(403.54001)" gradientUnits="userSpaceOnUse"><stop offset="0" stop-color="#b8d29f"/><stop offset="0.23" stop-color="#b8d29f"/><stop offset="0.4" stop-color="#89b286"/><stop offset="0.6" stop-color="#5c8f6e"/><stop offset="0.78" stop-color="#3d785b"/><stop offset="0.92" stop-color="#2f6950"/><stop offset="1" stop-color="#2a634c"/></linearGradient><clipPath id="clip-path-2"><path d="M485.9665,422.649a1.57681,1.57681,0,0,0,.12243-.17446,1.29674,1.29674,0,0,0-.12243.17446m-85.00828-49.66749h-.07663c-38.43878,32.91726-63.5814,81.03708-67.65961,88.78041H456.78632a266.07311,266.07311,0,0,1,29.18-39.11292h0a90.99892,90.99892,0,0,0-81.3282-49.84693c-1.21994,0-2.46013.08225-3.68007.152" fill="none"/></clipPath></defs><path d="M113.96406,171.23588a26.48,26.48,0,1,0-18.72375-7.75105,26.48543,26.48543,0,0,0,18.72375,7.75105" fill-rule="evenodd"/><path d="M161.30918,129.26376c11.52635,0,20.88107-9.79262,20.88107-21.87381s-9.35472-21.869-20.88107-21.869-20.86674,9.84393-20.86674,21.869c0,12.02988,9.3404,21.87381,20.87629,21.87381" fill-rule="evenodd"/><path d="M150.00239,166.95705c27.94721.19569,54.12251,4.77759,76.77905,12.66347a39.77173,39.77173,0,0,0,1.07746-9.08386,39.00875,39.00875,0,0,0-77.85651-3.57961" fill-rule="evenodd"/><path d="M275,208.12257c-28.959-20.77845-72.39883-34.0063-120.94789-34.0063-53.298,0-100.41523,15.94-129.05211,40.35891,36.691-12.3926,81.30131-19.874,129.53655-20.44672a38.97455,38.97455,0,0,0,66.33018,3.6679A410.79237,410.79237,0,0,1,275,208.12257" fill-rule="evenodd"/><g clip-path="url(#clip-path)"><rect x="-2.29411" y="333.98095" width="180.53495" height="164.01669" transform="translate(-220.45338 123.31312) rotate(-34.56)" fill="url(#linear-gradient)"/></g><g clip-path="url(#clip-path-2)"><g id="Group_387" data-name="Group 387"><g id="Path_1064" data-name="Path 1064"><path d="M381.74927,536.03513,287.69034,400.78226,437.51023,298.55632l94.11128,135.26283Zm-86.9262-133.937,88.22714,126.869,141.43856-96.46393-88.27947-126.879Z" fill="#fff"/></g></g></g></svg>