<svg id="Layer_1" data-name="Layer 1" xmlns="http://www.w3.org/2000/svg" viewBox="0 0 300 300"><title>RCUS_Mark_Light</title><path d="M200.0275,136.984c3.58832,9.98935,7.02106,20.03861,11.10725,29.83983,1.51128,3.625,3.6701,6.76679,7.83792,7.78808a35.13187,35.13187,0,0,0,5.39974.38779v7.23313H178.01869v-7.51635c2.21064,0,4.41893.02853,6.62587-.01374a15.29446,15.29446,0,0,0,2.71839-.29995,4.32046,4.32046,0,0,0,3.6519-5.55309c-1.52381-6.57757-4.08021-12.83127-6.14364-19.23993-.78536-2.43918-1.69593-4.838-2.54876-7.25457a10.7675,10.7675,0,0,0-.96784-2.91965c-.39663.13416-.72393.226-1.03676.35332-33.993,13.83813-57.7872,37.65069-70.47171,72.25221a83.32585,83.32585,0,0,0-4.54072,18.61772c-.547,4.49433,1.92136,7.74779,6.27507,8.49883,2.44075.421,4.91153.07827,7.36581.19549v7.14515H72.06742v-7.11877a26.79156,26.79156,0,0,0,6.27694-.656,11.7577,11.7577,0,0,0,6.911-5.56046c3.206-5.12194,5.31332-10.75343,7.27624-16.41726,18.83483-54.346,39.85026-107.88326,59.92819-161.768.17857-.47922.39732-.94346.62325-1.47586h15.78486q13.78155,36.99665,27.66033,74.25427a134.478,134.478,0,0,1,31.2828-1.97844c0,2.22738,0,4.32109.00053,6.41434a118.23479,118.23479,0,0,0-28.71245,2.135A8.40147,8.40147,0,0,0,200.0275,136.984Zm-77.81567,32.43938.45451.18564a131.0235,131.0235,0,0,1,56.16552-37.19959c-7.52879-19.87156-14.28036-39.79966-21.71614-60.01331Z" fill="#292d6d"/><path d="M118.94629,239.35307c-2.45427-.11722-4.925.22551-7.3658-.19549-4.35371-.751-6.82207-4.0045-6.27507-8.49883a83.32585,83.32585,0,0,1,4.54072-18.61772c12.68451-34.60152,36.47871-58.41408,70.47171-72.25221.31283-.12735.64013-.21916,1.03676-.35332a10.7675,10.7675,0,0,1,.96784,2.91965,89.47305,89.47305,0,0,0-28.27436,17.51949c-14.86046,13.55723-24.36144,30.41071-30.17371,49.4792a108.88419,108.88419,0,0,0-4.94024,27.25706C118.8961,237.52319,118.94028,238.43894,118.94629,239.35307Z" fill="#f8af42"/><path d="M200.0275,136.984a8.40147,8.40147,0,0,1-.92842-2.657,118.23479,118.23479,0,0,1,28.71245-2.135,3.0008,3.0008,0,0,1-.10391,1.99006A141.57622,141.57622,0,0,0,200.0275,136.984Z" fill="#f8af42"/></svg>