<svg id="Layer_1" data-name="Layer 1" xmlns="http://www.w3.org/2000/svg" viewBox="0 0 300 300"><title>ARDX_Mark_Light</title><path d="M269.99646,150.50366c.0196,65.68759-53.35438,118.63551-118.00167,119.53738a120.05494,120.05494,0,1,1-1.989-240.0942C216.89605,29.98492,270.50176,84.30548,269.99646,150.50366Zm-39.75928,61.00207c-.30075-1.06757-.45159-1.819-.72026-2.5256q-16.57506-43.59147-33.19034-87.16761c-5.13156-13.3908-9.8539-26.95511-15.8458-39.99584-7.45045-16.21514-17.96764-22.09008-35.35351-19.57424-11.73943,1.69875-18.69594,9.57088-22.61509,20.03168-8.40931,22.44564-16.40244,45.04746-24.51317,67.60432-.69064,1.92073-1.91454,3.72111-1.86575,5.99952H124.0564a16.48379,16.48379,0,0,0,.77532-1.62217q10.35191-29.72287,20.6823-59.45321c1.30066-3.74218,2.933-5.16551,6.03272-5.21524,3.143-.05042,5.0784,1.53676,6.38993,5.225,1.74149,4.89729,3.45274,9.80575,5.24051,14.68612q17.62442,48.11237,35.27182,96.21631c1.53111,4.17917,4.1978,6.21736,8.66849,6.28537,4.43569.06748,8.88859.22148,13.30511-.08214C223.56009,211.70227,226.74177,212.38869,230.23718,211.50573Zm-96.30646-56.80064a7.91976,7.91976,0,0,0-1.5845,5.28273,136.96635,136.96635,0,0,1-.56843,16.45342c-.75575,6.1419-3.8796,10.09531-9.696,11.99253a37.78938,37.78938,0,0,1-23.54344.1876c-6.34647-1.97353-9.69-5.99135-10.41929-12.62348-.604-5.49255-.42934-10.972-.50793-16.45936-.05783-4.03756-1.12206-5.19719-5.10105-5.231q-7.37547-.0627-14.75154-.03457c-1.69664.00821-3.43317-.26406-5.35841.36857,0,1.02814.00808,1.97339-.00129,2.91845-.07171,7.23354.439,14.43663.92914,21.65007.965,14.20192,10.86281,27.03113,24.58179,31.14343a73.20261,73.20261,0,0,0,43.82587-.00181c13.47707-4.2575,21.88247-13.5876,24.372-27.69455,1.56333-8.8588,1.36015-17.85394,1.35912-26.816a6.55676,6.55676,0,0,0-.45412-1.55017C149.20637,154.48969,141.43362,153.7438,133.93072,154.70509Z" fill="#f37e22"/><path d="M230.23718,211.50573c-3.49541.883-6.67709.19654-9.81458.41223-4.41652.30362-8.86942.14962-13.30511.08214-4.47069-.068-7.13738-2.1062-8.66849-6.28537q-17.62638-48.11166-35.27182-96.21631c-1.78777-4.88037-3.499-9.78883-5.24051-14.68612-1.31153-3.6882-3.24695-5.27538-6.38993-5.225-3.09975.04973-4.73206,1.47306-6.03272,5.21524q-10.33289,29.72946-20.6823,59.45321a16.48379,16.48379,0,0,1-.77532,1.62217H96.13326c-.04879-2.27841,1.17511-4.07879,1.86575-5.99952,8.11073-22.55686,16.10386-45.15868,24.51317-67.60432,3.91915-10.4608,10.87566-18.33293,22.61509-20.03168,17.38587-2.51584,27.90306,3.3591,35.35351,19.57424,5.9919,13.04073,10.71424,26.605,15.8458,39.99584q16.68828,43.54811,33.19034,87.16761C229.78559,209.68673,229.93643,210.43816,230.23718,211.50573Z" fill="#fefefe"/><path d="M133.93072,154.70509c7.5029-.96129,15.27565-.2154,23.08191-.41419a6.55676,6.55676,0,0,1,.45412,1.55017c.001,8.96211.20421,17.95725-1.35912,26.816-2.4895,14.107-10.8949,23.43705-24.372,27.69455a73.20261,73.20261,0,0,1-43.82587.00181C74.19081,206.24118,64.293,193.412,63.328,179.21005c-.49012-7.21344-1.00085-14.41653-.92914-21.65007.00937-.94506.00129-1.89031.00129-2.91845,1.92524-.63263,3.66177-.36036,5.35841-.36857q7.37555-.03573,14.75154.03457c3.979.03381,5.04322,1.19344,5.10105,5.231.07859,5.48739-.09607,10.96681.50793,16.45936.72931,6.63213,4.07282,10.64995,10.41929,12.62348a37.78938,37.78938,0,0,0,23.54344-.1876c5.81638-1.89722,8.94023-5.85063,9.696-11.99253a136.96635,136.96635,0,0,0,.56843-16.45342A7.91976,7.91976,0,0,1,133.93072,154.70509Z" fill="#fefefe"/></svg>