<svg id="Layer_1" data-name="Layer 1" xmlns="http://www.w3.org/2000/svg" viewBox="0 0 300 300"><defs><style>.cls-1{fill:#104c8e;}.cls-2{fill:#f58220;}.cls-3{fill:#f8994b;}.cls-4{fill:#fab072;}.cls-5{fill:#fdca9c;}.cls-6{fill:#fedcbe;}</style></defs><path class="cls-1" d="M277.34,155.52a18.33,18.33,0,0,0-4.39-2,20.93,20.93,0,0,0-6.08-.85c-7.36,0-12,3.54-12,8.91,0,3.54,2.27,6.23,7.36,8.63l5.94,2.83c2.69,1.28,3.68,2.69,3.68,4.95,0,2.69-2.26,4.39-6.08,4.39a14.76,14.76,0,0,1-5.52-1.13,18,18,0,0,1-4.24-2.69l-2.41,4.53a34.81,34.81,0,0,0,4.67,2.55,20.35,20.35,0,0,0,6.79,1c7.5,0,12-3.54,12-9.34,0-4.11-2-6.37-8.21-9.34s-7.5-3.68-8.49-5.24a3,3,0,0,1-.42-1.69c0-2.55,2.54-4.11,6.79-4.11a14.91,14.91,0,0,1,4.67.71,13.78,13.78,0,0,1,4.1,2ZM233.9,172.78H222.73l5.65-14.72Zm10.47,13.44-13.44-33.81H225.7l-13.44,33.81h5.23l3.68-9.2h14.15l3.82,9.2Zm-45.27.43v-33.4h-4.81v26.46a6.4,6.4,0,0,0-1.28-3l-18.67-23.49H169.1v33h4.81V159.76a6.53,6.53,0,0,0,1.7,3l18.68,23.77h4.81Zm-49.52-33.4h-5.24v33h5.24Zm-18.54,0h-5.66L116.18,177a5.09,5.09,0,0,0-.42,1.56,5.17,5.17,0,0,0-.28-1.56l-9.91-23.77H99.91l14.29,33.82h2.69Zm-46,9.63a5.2,5.2,0,0,1-1.84,4.24c-1.42,1.27-2.13,1.42-5.52,1.42H72.46v-10.9H77.7c3.82,0,4.24,0,5.38.85a5.21,5.21,0,0,1,2,4.39m7.07,23.34-9.2-13.86c4.67-.71,7.79-4.67,7.79-9.77,0-6.08-4.39-9.34-12.31-9.34h-11v33h5.24V172.78h4.81l8.63,13.44ZM44.31,172.78H33.13l5.66-14.72Zm10.47,13.44L41.34,152.41H36.1L22.66,186.22H27.9l3.67-9.2H45.72l3.82,9.2Z"/><path class="cls-2" d="M147.17,144.06a15.57,15.57,0,1,0-15.56-15.57,15.52,15.52,0,0,0,15.56,15.57"/><path class="cls-3" d="M185.09,144.06a11.61,11.61,0,1,0-11.6-11.6,11.56,11.56,0,0,0,11.6,11.6"/><path class="cls-4" d="M216.22,144.06a8.78,8.78,0,1,0-8.78-8.77,8.81,8.81,0,0,0,8.78,8.77"/><path class="cls-5" d="M242.25,144.06a6.51,6.51,0,1,0-6.51-6.51,6.58,6.58,0,0,0,6.51,6.51"/><path class="cls-6" d="M264.46,144.06a5,5,0,1,0-4.95-4.95,5.12,5.12,0,0,0,4.95,4.95"/></svg>