<svg id="Layer_1" data-name="Layer 1" xmlns="http://www.w3.org/2000/svg" xmlns:xlink="http://www.w3.org/1999/xlink" viewBox="0 0 300 300"><defs><style>.cls-1{fill:url(#linear-gradient);}.cls-2{fill:url(#linear-gradient-2);}.cls-3{fill:url(#linear-gradient-3);}.cls-4{fill:url(#linear-gradient-4);}.cls-5{fill:url(#linear-gradient-5);}.cls-6{fill:url(#linear-gradient-6);}.cls-7{fill:url(#linear-gradient-7);}</style><linearGradient id="linear-gradient" x1="143.91" y1="111.43" x2="128.3" y2="180.6" gradientTransform="matrix(1, 0, 0, -1, 0, 302)" gradientUnits="userSpaceOnUse"><stop offset="0" stop-color="#f3e6ed"/><stop offset="1" stop-color="#cc96b6"/></linearGradient><linearGradient id="linear-gradient-2" x1="126.39" y1="206.3" x2="194.67" y2="162.61" xlink:href="#linear-gradient"/><linearGradient id="linear-gradient-3" x1="214.32" y1="130.49" x2="157.32" y2="95.72" xlink:href="#linear-gradient"/><linearGradient id="linear-gradient-4" x1="88.4" y1="113.61" x2="154.63" y2="228.96" gradientTransform="matrix(1, 0, 0, -1, 0, 302)" gradientUnits="userSpaceOnUse"><stop offset="0" stop-color="#cc96b6"/><stop offset="0.04" stop-color="#c78bb0"/><stop offset="0.28" stop-color="#b15a95"/><stop offset="0.49" stop-color="#9f337f"/><stop offset="0.69" stop-color="#921770"/><stop offset="0.87" stop-color="#8a0667"/><stop offset="1" stop-color="#870064"/></linearGradient><linearGradient id="linear-gradient-5" x1="146.13" y1="234.66" x2="212.68" y2="154.21" gradientTransform="matrix(1, 0, 0, -1, 0, 302)" gradientUnits="userSpaceOnUse"><stop offset="0" stop-color="#e9cfdd"/><stop offset="0.02" stop-color="#e5c8d9"/><stop offset="0.22" stop-color="#c98cb6"/><stop offset="0.41" stop-color="#b15a98"/><stop offset="0.59" stop-color="#9f3381"/><stop offset="0.75" stop-color="#921771"/><stop offset="0.89" stop-color="#8a0667"/><stop offset="1" stop-color="#870064"/></linearGradient><linearGradient id="linear-gradient-6" x1="244.69" y1="60.92" x2="101.07" y2="141.49" xlink:href="#linear-gradient-5"/><linearGradient id="linear-gradient-7" x1="122.63" y1="215.22" x2="189.19" y2="134.77" xlink:href="#linear-gradient-5"/></defs><path class="cls-1" d="M70,138.15a72.07,72.07,0,0,0,2.8,10.21A80.13,80.13,0,0,0,104.07,189a80.6,80.6,0,0,1,65-113.7,79.83,79.83,0,0,1,10.9-.38,79.94,79.94,0,0,0-38.6-5.45C102.52,73.48,69.79,139.47,70,138.15Z"/><path class="cls-2" d="M210.13,188.39A83.22,83.22,0,0,0,112.66,78c.15-.11-.91.68-.75.57C99.16,85.06,90.41,94,81.71,106.66,104.57,89,135.4,84.45,163.78,97.13A81.09,81.09,0,0,1,210.13,188.39Z"/><path class="cls-3" d="M206.46,170.91a81.41,81.41,0,0,1-47.14,31.18,81.52,81.52,0,0,0,45.86-21.76A77.85,77.85,0,0,0,206.46,170.91Z"/><path class="cls-4" d="M192.69,81.35a80.7,80.7,0,0,0-27.51-10.9A81.88,81.88,0,0,0,149,68.94a80.45,80.45,0,0,0-78.29,65.12c-.26,1.29-.49,2.5-.68,3.78a77.44,77.44,0,0,0,2.84,10.52,80.08,80.08,0,0,0,23.65,34.89,80.51,80.51,0,0,1,21.11-77.08,83,83,0,0,1,8.78-7.56,72.9,72.9,0,0,1,6.43-4.32,79.63,79.63,0,0,1,14-6.7c2.43-.9,4.92-1.66,7.46-2.34a78.16,78.16,0,0,1,11.61-2.12,70.22,70.22,0,0,1,8-.45c1.32,0,2.69,0,4,.07,2.69.11,5.41.38,8.13.76,1.37.19,2.73.41,4.09.68A83.64,83.64,0,0,1,200.56,87,89.68,89.68,0,0,0,192.69,81.35Z"/><path class="cls-5" d="M203.17,89.18c-.87-.75-1.78-1.51-2.65-2.23A86.34,86.34,0,0,0,190,84.15l-.75-.11a83.27,83.27,0,0,1,25.5,115.06C240.21,165.62,235.6,117.45,203.17,89.18Z"/><path class="cls-6" d="M188.94,219.46a81.53,81.53,0,0,0,26-50.25,80.87,80.87,0,0,1-39.39,29.1c-42.3,14.53-88.31-7.84-102.77-49.95a82,82,0,0,1-2.84-10.52,79.8,79.8,0,0,0,3.33,38.86c14.42,42.08,60.43,64.44,102.77,50a73.56,73.56,0,0,0,8.7-3.6C186.18,221.92,187.58,220.71,188.94,219.46Z"/><path class="cls-7" d="M193.79,102.73A84.06,84.06,0,0,0,166.88,83c-.37,0-.75,0-1.13.07a80.59,80.59,0,0,0-11.62,2.12c-1.89.49-3.71,1.06-5.56,1.7a81.78,81.78,0,0,1,30.08,16.69c33.79,29.48,37.5,80.56,8.29,114.08a79.23,79.23,0,0,1-7.72,7.72c1.82-.68,3.56-1.44,5.33-2.27,1.48-1.17,3-2.42,4.39-3.71C222.51,188.81,224.66,136.56,193.79,102.73Z"/></svg>