<svg id="Layer_1" data-name="Layer 1" xmlns="http://www.w3.org/2000/svg" xmlns:xlink="http://www.w3.org/1999/xlink" viewBox="0 0 300 300"><defs><radialGradient id="radial-gradient" cx="835.79478" cy="-8046.64127" r="266.26928" gradientTransform="matrix(1.0313, 0, 0, -1.031, -765.36728, -8218.5206)" gradientUnits="userSpaceOnUse"><stop offset="0" stop-color="#ff007a"/><stop offset="0.055" stop-color="#f00086"/><stop offset="0.16" stop-color="#ca00a6"/><stop offset="0.302" stop-color="#8d00da"/><stop offset="0.395" stop-color="#6200ff"/><stop offset="0.645" stop-color="#4f00ff"/><stop offset="0.744" stop-color="#4900e8"/><stop offset="0.909" stop-color="#4100c7"/><stop offset="1" stop-color="#3f00bb"/></radialGradient><radialGradient id="radial-gradient-2" cx="297.71789" cy="-6607.35461" r="181.55993" gradientTransform="matrix(1.5121, 0, 0, -1.512, -342.78914, -9912.75829)" xlink:href="#radial-gradient"/><radialGradient id="radial-gradient-3" cx="-190.21225" cy="-5290.82224" r="104.38154" gradientTransform="matrix(2.6299, 0, 0, -2.63, 601.76561, -13837.28439)" xlink:href="#radial-gradient"/><radialGradient id="radial-gradient-4" cx="447.7745" cy="-6976.10376" r="203.30137" gradientTransform="matrix(1.3484, 0, 0, -1.35, -488.80539, -9340.12041)" xlink:href="#radial-gradient"/><radialGradient id="radial-gradient-5" cx="-781.53557" cy="-3719.70577" r="12.33368" gradientTransform="matrix(22.2634, 0, 0, -22.257, 17136.02968, -82711.92288)" xlink:href="#radial-gradient"/><radialGradient id="radial-gradient-6" cx="-631.84762" cy="-4110.8406" r="35.02933" gradientTransform="matrix(7.8359, 0, 0, -7.845, 4995.16781, -32172.01144)" xlink:href="#radial-gradient"/><radialGradient id="radial-gradient-7" cx="-741.97358" cy="-3784.6435" r="16.04248" gradientTransform="matrix(17.1148, 0, 0, -17.108, 12794.26077, -64670.21446)" xlink:href="#radial-gradient"/><radialGradient id="radial-gradient-8" cx="-719.82801" cy="-3845.40986" r="19.58521" gradientTransform="matrix(14.0096, 0, 0, -14.022, 10179.02142, -53842.78354)" xlink:href="#radial-gradient"/><radialGradient id="radial-gradient-9" cx="-677.28942" cy="-3952.64186" r="26.00642" gradientTransform="matrix(10.5595, 0, 0, -10.556, 7269.43233, -41646.50132)" xlink:href="#radial-gradient"/><radialGradient id="radial-gradient-10" cx="-705.56584" cy="-3912.36138" r="23.51543" gradientTransform="matrix(11.6731, 0, 0, -11.674, 8216.01486, -45595.32763)" xlink:href="#radial-gradient"/><radialGradient id="radial-gradient-11" cx="-611.21149" cy="-4135.76531" r="36.36049" gradientTransform="matrix(7.5485, 0, 0, -7.553, 4737.64948, -31160.88884)" xlink:href="#radial-gradient"/><radialGradient id="radial-gradient-12" cx="-384.47172" cy="-4730.97878" r="71.56379" gradientTransform="matrix(3.8308, 0, 0, -3.831, 1590.43594, -18046.64277)" xlink:href="#radial-gradient"/><radialGradient id="radial-gradient-13" cx="-654.17633" cy="-4015.31711" r="29.64933" gradientTransform="matrix(9.2477, 0, 0, -9.257, 6130.1925, -37092.16845)" xlink:href="#radial-gradient"/><radialGradient id="radial-gradient-14" cx="-570.32943" cy="-4241.28283" r="42.53128" gradientTransform="matrix(6.4612, 0, 0, -6.4541, 3814.01161, -27296.01409)" xlink:href="#radial-gradient"/><radialGradient id="radial-gradient-15" cx="-476.45581" cy="-4493.96259" r="57.10553" gradientTransform="matrix(4.7993, 0, 0, -4.8076, 2406.48062, -21527.65153)" xlink:href="#radial-gradient"/><radialGradient id="radial-gradient-16" cx="-727.57108" cy="-3818.6704" r="18.03527" gradientTransform="matrix(15.2242, 0, 0, -15.218, 11159.1473, -58034.9997)" xlink:href="#radial-gradient"/><radialGradient id="radial-gradient-17" cx="413.70109" cy="-6904.1705" r="196.50585" gradientTransform="matrix(1.396, 0, 0, -1.397, -452.27199, -9567.5499)" xlink:href="#radial-gradient"/><radialGradient id="radial-gradient-18" cx="527.05958" cy="-7264.35205" r="217.35633" gradientTransform="matrix(1.263, 0, 0, -1.263, -572.77627, -9097.30579)" xlink:href="#radial-gradient"/><radialGradient id="radial-gradient-19" cx="-327.71243" cy="-4951.17013" r="83.56797" gradientTransform="matrix(3.2856, 0, 0, -3.282, 1159.58732, -16172.1572)" xlink:href="#radial-gradient"/><radialGradient id="radial-gradient-20" cx="82.34331" cy="-6057.41307" r="147.61926" gradientTransform="matrix(1.8638, 0, 0, -1.8588, -61.12893, -11181.88973)" xlink:href="#radial-gradient"/><radialGradient id="radial-gradient-21" cx="-205.83237" cy="-5285.16768" r="103.16373" gradientTransform="matrix(2.664, 0, 0, -2.661, 628.57185, -13986.2458)" xlink:href="#radial-gradient"/><radialGradient id="radial-gradient-22" cx="-604.30324" cy="-4155.38157" r="37.52822" gradientTransform="matrix(7.3176, 0, 0, -7.315, 4519.77585, -30319.0098)" xlink:href="#radial-gradient"/><radialGradient id="radial-gradient-23" cx="-514.37037" cy="-4383.17583" r="51.24578" gradientTransform="matrix(5.3599, 0, 0, -5.357, 2889.76512, -23403.10327)" xlink:href="#radial-gradient"/><radialGradient id="radial-gradient-24" cx="-602.89732" cy="-4160.90393" r="37.88671" gradientTransform="matrix(7.2471, 0, 0, -7.251, 4452.23373, -30093.16305)" xlink:href="#radial-gradient"/><radialGradient id="radial-gradient-25" cx="-634.85467" cy="-4071.4291" r="32.75976" gradientTransform="matrix(8.3836, 0, 0, -8.38, 5403.07235, -34041.03472)" xlink:href="#radial-gradient"/><radialGradient id="radial-gradient-26" cx="-630.92556" cy="-4081.52789" r="33.51365" gradientTransform="matrix(8.1899, 0, 0, -8.195, 5244.27672, -33370.58048)" xlink:href="#radial-gradient"/><radialGradient id="radial-gradient-27" cx="-503.95028" cy="-4432.8629" r="53.56543" gradientTransform="matrix(5.1277, 0, 0, -5.125, 2671.07874, -22640.85138)" xlink:href="#radial-gradient"/><radialGradient id="radial-gradient-28" cx="-575.60076" cy="-4229.79016" r="41.94873" gradientTransform="matrix(6.5459, 0, 0, -6.544, 3853.46543, -27602.19265)" xlink:href="#radial-gradient"/><radialGradient id="radial-gradient-29" cx="-173.29982" cy="-5330.28282" r="105.78915" gradientTransform="matrix(2.5938, 0, 0, -2.595, 529.74529, -13754.50985)" xlink:href="#radial-gradient"/><radialGradient id="radial-gradient-30" cx="-16.87446" cy="-5750.4289" r="130.04265" gradientTransform="matrix(2.1118, 0, 0, -2.113, 152.70469, -12073.12599)" xlink:href="#radial-gradient"/><radialGradient id="radial-gradient-31" cx="-629.90916" cy="-4059.18132" r="32.10077" gradientTransform="matrix(8.5501, 0, 0, -8.552, 5536.61239, -34636.5557)" xlink:href="#radial-gradient"/><radialGradient id="radial-gradient-32" cx="-610.16587" cy="-4133.47181" r="36.48702" gradientTransform="matrix(7.5232, 0, 0, -7.524, 4677.47358, -31022.64246)" xlink:href="#radial-gradient"/><radialGradient id="radial-gradient-33" cx="-497.14101" cy="-4441.82624" r="54.2007" gradientTransform="matrix(5.0646, 0, 0, -5.066, 2604.07705, -22424.73864)" xlink:href="#radial-gradient"/><radialGradient id="radial-gradient-34" cx="-385.96256" cy="-4755.26982" r="72.18588" gradientTransform="matrix(3.8009, 0, 0, -3.8, 1549.24181, -17992.45368)" xlink:href="#radial-gradient"/><radialGradient id="radial-gradient-35" cx="-331.20196" cy="-4885.54934" r="80.17549" gradientTransform="matrix(3.4237, 0, 0, -3.424, 1224.23693, -16650.52294)" xlink:href="#radial-gradient"/><radialGradient id="radial-gradient-36" cx="-331.08168" cy="-4880.37623" r="80.0595" gradientTransform="matrix(3.4285, 0, 0, -3.429, 1227.96804, -16657.25686)" xlink:href="#radial-gradient"/><radialGradient id="radial-gradient-37" cx="-447.14769" cy="-4588.10546" r="62.64633" gradientTransform="matrix(4.381, 0, 0, -4.378, 2038.29184, -20009.13945)" xlink:href="#radial-gradient"/><radialGradient id="radial-gradient-38" cx="-647.62419" cy="-3986.81376" r="27.88587" gradientTransform="matrix(9.8709, 0, 0, -9.836, 6644.42567, -39136.67819)" xlink:href="#radial-gradient"/><radialGradient id="radial-gradient-39" cx="78.83259" cy="-5992.36022" r="143.87356" gradientTransform="matrix(1.9061, 0, 0, -1.9103, -30.11176, -11369.67298)" xlink:href="#radial-gradient"/><radialGradient id="radial-gradient-40" cx="741.39177" cy="-7794.74892" r="249.79187" gradientTransform="matrix(1.0991, 0, 0, -1.099, -732.51739, -8488.85882)" xlink:href="#radial-gradient"/><radialGradient id="radial-gradient-41" cx="-554.06376" cy="-4273.96513" r="44.7165" gradientTransform="matrix(6.1384, 0, 0, -6.139, 3507.1503, -26160.28765)" xlink:href="#radial-gradient"/><radialGradient id="radial-gradient-42" cx="-598.45756" cy="-4164.25764" r="38.36119" gradientTransform="matrix(7.149, 0, 0, -7.148, 4360.69617, -29688.43266)" xlink:href="#radial-gradient"/><radialGradient id="radial-gradient-43" cx="-67.41879" cy="-5599.16879" r="122.22702" gradientTransform="matrix(2.2452, 0, 0, -2.246, 232.60794, -12498.16067)" xlink:href="#radial-gradient"/><radialGradient id="radial-gradient-44" cx="-183.32412" cy="-5287.60208" r="104.30247" gradientTransform="matrix(2.6308, 0, 0, -2.632, 565.50702, -13839.41723)" xlink:href="#radial-gradient"/><radialGradient id="radial-gradient-45" cx="-162.02417" cy="-5335.57429" r="107.31801" gradientTransform="matrix(2.5585, 0, 0, -2.561, 512.66872, -13587.01155)" xlink:href="#radial-gradient"/><radialGradient id="radial-gradient-46" cx="187.23019" cy="-6286.87468" r="163.11346" gradientTransform="matrix(1.6824, 0, 0, -1.687, -234.60456, -10528.7229)" xlink:href="#radial-gradient"/><radialGradient id="radial-gradient-47" cx="55.74646" cy="-5937.66678" r="142.16545" gradientTransform="matrix(1.9317, 0, 0, -1.931, -27.43953, -11388.0429)" xlink:href="#radial-gradient"/><radialGradient id="radial-gradient-48" cx="-316.41221" cy="-4900.21246" r="81.17188" gradientTransform="matrix(3.3814, 0, 0, -3.382, 1184.02342, -16494.94446)" xlink:href="#radial-gradient"/><radialGradient id="radial-gradient-49" cx="-326.95955" cy="-4880.18292" r="80.22293" gradientTransform="matrix(3.4133, 0, 0, -3.425, 1210.94939, -16637.17171)" xlink:href="#radial-gradient"/><radialGradient id="radial-gradient-50" cx="-716.80077" cy="-3848.69379" r="19.92525" gradientTransform="matrix(13.831, 0, 0, -13.778, 9994.37738, -52949.70499)" xlink:href="#radial-gradient"/><radialGradient id="radial-gradient-51" cx="-424.93661" cy="-4634.37851" r="65.53271" gradientTransform="matrix(4.1895, 0, 0, -4.185, 1870.71962, -19317.26106)" xlink:href="#radial-gradient"/><radialGradient id="radial-gradient-52" cx="160.19653" cy="-6211.16772" r="158.3371" gradientTransform="matrix(1.7337, 0, 0, -1.734, -172.822, -10692.64039)" xlink:href="#radial-gradient"/><radialGradient id="radial-gradient-53" cx="-157.25754" cy="-5356.15101" r="108.19051" gradientTransform="matrix(2.5363, 0, 0, -2.537, 497.83136, -13510.93818)" xlink:href="#radial-gradient"/><radialGradient id="radial-gradient-54" cx="-373.14927" cy="-4795.72946" r="75.28577" gradientTransform="matrix(3.6437, 0, 0, -3.644, 1454.92254, -17397.96867)" xlink:href="#radial-gradient"/><radialGradient id="radial-gradient-55" cx="-270.72308" cy="-5028.44087" r="88.51568" gradientTransform="matrix(3.103, 0, 0, -3.104, 948.80955, -15530.77104)" xlink:href="#radial-gradient"/><radialGradient id="radial-gradient-56" cx="378.84081" cy="-6825.96965" r="194.00959" gradientTransform="matrix(1.4154, 0, 0, -1.415, -454.18959, -9582.19256)" xlink:href="#radial-gradient"/><radialGradient id="radial-gradient-57" cx="866.27398" cy="-8119.39258" r="270.56853" gradientTransform="matrix(1.0152, 0, 0, -1.015, -764.88308, -8163.67231)" xlink:href="#radial-gradient"/><radialGradient id="radial-gradient-58" cx="367.72456" cy="-6798.76665" r="193.30053" gradientTransform="matrix(1.4228, 0, 0, -1.423, -416.73418, -9597.36429)" xlink:href="#radial-gradient"/><radialGradient id="radial-gradient-59" cx="-523.11095" cy="-4766.52797" r="73.73582" gradientTransform="matrix(5.414, 0, 0, -3.723, 2912.34767, -17668.22543)" xlink:href="#radial-gradient"/><radialGradient id="radial-gradient-60" cx="414.32331" cy="-6848.09675" r="195.94703" gradientTransform="matrix(1.4014, 0, 0, -1.401, -446.9399, -9516.63639)" xlink:href="#radial-gradient"/><radialGradient id="radial-gradient-61" cx="-165.4952" cy="-5317.51073" r="106.0343" gradientTransform="matrix(2.5935, 0, 0, -2.589, 561.47003, -13689.45878)" xlink:href="#radial-gradient"/><radialGradient id="radial-gradient-62" cx="-478.88081" cy="-4491.20077" r="57.55101" gradientTransform="matrix(4.7694, 0, 0, -4.769, 2368.08728, -21340.91317)" xlink:href="#radial-gradient"/><radialGradient id="radial-gradient-63" cx="364.21978" cy="-6730.13776" r="188.93274" gradientTransform="matrix(1.453, 0, 0, -1.453, -408.66797, -9701.31666)" xlink:href="#radial-gradient"/><radialGradient id="radial-gradient-64" cx="146.64928" cy="-6193.27742" r="157.40923" gradientTransform="matrix(1.7442, 0, 0, -1.744, -170.73996, -10723.52249)" xlink:href="#radial-gradient"/><radialGradient id="radial-gradient-65" cx="778.56376" cy="-7905.17929" r="257.7024" gradientTransform="matrix(1.0649, 0.00041, 0.00033, -1.066, -748.07769, -8327.20123)" xlink:href="#radial-gradient"/><radialGradient id="radial-gradient-66" cx="-104.9486" cy="-5519.96647" r="117.83287" gradientTransform="matrix(2.3277, 0, 0, -2.329, 348.04679, -12778.36868)" xlink:href="#radial-gradient"/><radialGradient id="radial-gradient-67" cx="-551.9184" cy="-4391.25045" r="51.47511" gradientTransform="matrix(5.3323, 0, 0, -5.333, 2881.01431, -23340.97585)" xlink:href="#radial-gradient"/><radialGradient id="radial-gradient-68" cx="-613.07264" cy="-4132.78554" r="36.24978" gradientTransform="matrix(7.5742, 0, 0, -7.573, 4734.89605, -31220.04398)" xlink:href="#radial-gradient"/><radialGradient id="radial-gradient-69" cx="-487.54963" cy="-4461.01049" r="55.80073" gradientTransform="matrix(4.9225, 0, 0, -4.9228, 2508.05811, -21883.21807)" xlink:href="#radial-gradient"/><radialGradient id="radial-gradient-70" cx="-747.62691" cy="-3766.14677" r="15.03027" gradientTransform="matrix(18.2631, 0, 0, -18.262, 13721.30185, -68699.7976)" xlink:href="#radial-gradient"/><radialGradient id="radial-gradient-71" cx="-188.88832" cy="-5294.27786" r="103.74892" gradientTransform="matrix(2.6462, 0, 0, -2.646, 579.90713, -13931.11739)" xlink:href="#radial-gradient"/><radialGradient id="radial-gradient-72" cx="-187.59075" cy="-5291.48885" r="104.26293" gradientTransform="matrix(2.6338, 0, 0, -2.633, 573.92803, -13853.30029)" xlink:href="#radial-gradient"/><radialGradient id="radial-gradient-73" cx="-557.40723" cy="-4389.15545" r="51.4382" gradientTransform="matrix(5.3306, 0, 0, -5.337, 2879.51238, -23347.37403)" xlink:href="#radial-gradient"/><radialGradient id="radial-gradient-74" cx="-769.78821" cy="-3729.65439" r="12.97685" gradientTransform="matrix(21.153, 0, 0, -21.155, 16205.03611, -78823.28103)" xlink:href="#radial-gradient"/><radialGradient id="radial-gradient-75" cx="-720.59809" cy="-3862.41984" r="20.76349" gradientTransform="matrix(13.2223, 0, 0, -13.221, 9535.99321, -50987.47762)" xlink:href="#radial-gradient"/><radialGradient id="radial-gradient-76" cx="-727.39954" cy="-3872.84027" r="21.24851" gradientTransform="matrix(12.9184, 0, 0, -12.93, 9276.12853, -49998.31374)" xlink:href="#radial-gradient"/><radialGradient id="radial-gradient-77" cx="-755.33816" cy="-3802.13591" r="17.17594" gradientTransform="matrix(15.9896, 0, 0, -15.984, 11862.23858, -60695.74879)" xlink:href="#radial-gradient"/><radialGradient id="radial-gradient-78" cx="-675.66947" cy="-4033.01219" r="30.71162" gradientTransform="matrix(8.9369, 0, 0, -8.94, 5916.00703, -35977.56749)" xlink:href="#radial-gradient"/><radialGradient id="radial-gradient-79" cx="-642.26581" cy="-4086.44633" r="33.90377" gradientTransform="matrix(8.0979, 0, 0, -8.097, 5212.7282, -33010.37551)" xlink:href="#radial-gradient"/></defs><path id="Path_239" data-name="Path 239" d="M131.87988,237.11366l-.90933-.12388-.30842,2.28539.93057.12654c.311.04219.62472.07381.93571.10808.62215.06588,1.24687.145,1.86886.19769l.21607-2.29593c-.609-.05273-1.21518-.12916-1.8214-.19242C132.4861,237.19278,132.183,237.16113,131.87988,237.11366Z" fill="url(#radial-gradient)"/><path id="Path_240" data-name="Path 240" d="M182.51938,219.54233l-.8461-1.42606c-.37438.22669-3.10253,1.66855-3.48207,1.88736-.19242.10807-.38226.22142-.57468.32684l-.57984.311.79076,1.46033,2.9365-1.54994c.19773-.10808.39272-.22142.58788-.33215C181.73908,219.9799,182.13454,219.77432,182.51938,219.54233Z" fill="url(#radial-gradient-2)"/><path id="Path_241" data-name="Path 241" d="M192.68628,212.37516c.36908-.26362.7433-.50873,1.10706-.775l-1.40229-2.01917c-.35314.26361-5.75426,3.89068-6.11545,4.1411-.1818.12388-.36119.26361-.543.37169l-.55088.3611,1.34437,2.05871.5668-.369Z" fill="url(#radial-gradient-3)"/><path id="Path_242" data-name="Path 242" d="M161.30779,232.10535l-.52723-2.31966-5.88877,1.2389.52723,2.31967Z" fill="url(#radial-gradient-4)"/><path id="Path_243" data-name="Path 243" d="M219.58892,177.32475l.14238-28.61865a78.762,78.762,0,0,0-5.8228-30.05L203.507,122.89737a69.42813,69.42813,0,0,1,3.76153,12.63683,70.39033,70.39033,0,0,1,1.23094,13.135l-.14238,28.60811Z" fill="url(#radial-gradient-5)"/><path id="Path_244" data-name="Path 244" d="M212.42432,100.79744l.32949.48238,1.318,1.93478c.427.65372.83821,1.318,1.25475,1.977l.62215.99376.58788,1.01222c.39015.6748.79075,1.34959,1.16514,2.0297l1.09386,2.07186c.17923.34795.36634.688.52723,1.05437l.50615,1.05437.50615,1.05437.26353.52718.12646.26361.116.26362,6.94837-3.13415-.12646-.29-.13707-.29-.26353-.572-.54831-1.14929-.55361-1.14664c-.18453-.38223-.38741-.75388-.58257-1.13083l-1.18879-2.24847c-.41653-.73807-.84079-1.47087-1.26521-2.20632l-.64049-1.09921-.67218-1.07811c-.45338-.717-.89887-1.43659-1.36287-2.14831l-1.434-2.10878-.36119-.52719c-.11857-.174-.23988-.348-.36634-.52718l-.75649-1.02276-6.134,4.52333.69584.941C212.20294,100.47583,212.31363,100.63664,212.42432,100.79744Z" fill="url(#radial-gradient-6)"/><path id="Path_245" data-name="Path 245" d="M188.65849,82.38258l-1.78455-1.18091c-.29781-.19507-.593-.398-.8963-.58518l-.91464-.55619c-.609-.37169-1.21775-.74333-1.84521-1.1071l-1.87159-1.05437-.93572-.52718-.95422-.485-1.91374-.96214c-.64322-.30576-1.29433-.59572-1.94528-.8936l-.97272-.44284-.24519-.11073-.24776-.10015-.493-.203-1.98228-.80926c-.3295-.13969-.6643-.26361-.99911-.38223l-1.00425-.36376-1.007-.36377-.50341-.18188-.50873-.16342-2.48312-.63264-1.10706,3.65345,1.96121.62472.49022.15815.48507.174.96741.35057.97.35323c.32161.116.64579.232.9621.36642l1.90843.7776.47719.19508.23731.10015.23457.10542.93845.427c.62473.28469,1.252.56411,1.87417.85934l1.84521.92787.92.46657.90144.49818,1.80306,1.00168c.59045.35058,1.17833.70907,1.76605,1.05437l.88037.52719c.29265.17923.57469.3743.862.56145l1.71859,1.13876c2.25112,1.58159,4.46267,3.21588,6.545,5.00831,1.05445.86987,2.064,1.81355,3.08146,2.73877.12388.116.26353.22935.377.35057l.36634.36111.73541.72226.73284.72488.36633.36111.35315.37695,1.41017,1.49987.35315.377.33737.38749.6775.7908.67476.7776.33737.39011.32419.40065,1.2916,1.60528.32161.40065c.10812.13708.20819.27677.311.41384l.61411.82507.6141.82768.30842.41384c.10023.13707.195.282.29265.42176.775,1.1361,1.58152,2.2564,2.2854,3.42676a82.3656,82.3656,0,0,1,4.05675,7.17244l3.42672-2.085a84.131,84.131,0,0,0-4.21748-7.44659c-.74329-1.21783-1.56575-2.37236-2.37243-3.55857-.10023-.14762-.19773-.29788-.30585-.44023l-.3163-.42965-.63791-.85933-.63792-.85668c-.10811-.14234-.2135-.2873-.32419-.427l-.33207-.41911L205.95507,98.185l-.33738-.4165-.35057-.4033-.70114-.8066-.70114-.80661-.35315-.4033-.36376-.39011-1.46568-1.56048-.36634-.39011c-.12388-.12653-.26353-.26361-.37953-.37695l-.7618-.75126-.7618-.75126-.38226-.37431c-.12646-.12388-.26353-.24249-.39273-.36376-1.05445-.95949-2.093-1.93744-3.19745-2.84158Q192.179,84.79725,188.65849,82.38258Z" fill="url(#radial-gradient-7)"/><path id="Path_246" data-name="Path 246" d="M193.68523,107.79592c.16346.18189.3163.377.46914.56938l.46126.57465c.30585.38749.61942.76441.92,1.15456l.87506,1.18883c.29266.39538.593.7908.862,1.19671.5483.81715,1.12814,1.61587,1.63429,2.45935l.79075,1.24945c.26354.42176.49023.85141.73815,1.27579l7.15672-4.294c-.26354-.46919-.52723-.94368-.81715-1.4076l-.86718-1.38125c-.56149-.93048-1.19667-1.81355-1.80305-2.715-.2978-.45338-.6273-.88568-.95164-1.318l-.97-1.318c-.32949-.42965-.67476-.8488-1.01214-1.27579l-.51129-.63526c-.16877-.21088-.33481-.42438-.52723-.62738a74.58138,74.58138,0,0,0-9.22587-9.18107l-.62215-.52718-.64322-.50084L188.35795,91.279l-.32161-.26362-.3295-.23722-.66156-.47711-1.318-.95157-1.35756-.89887-.68007-.45076-.34011-.22669-.348-.21088-1.39183-.84615-.69857-.42176-.71176-.39538-1.42336-.7908-.35588-.19768c-.12131-.06589-.24246-.12389-.36377-.18716l-.72753-.36641-1.45506-.7328c-.49022-.232-.98848-.45077-1.48144-.68007l-.74329-.33742c-.24777-.10807-.49022-.232-.7433-.32949l-1.5104-.61419c-.99911-.42438-2.02444-.7908-3.04462-1.15983l-3.45053,7.38071c.92526.34269,1.84521.66691,2.76242,1.05437l1.368.55618c.22926.087.44807.20035.67476.29788l.67218.30577c.4455.20561.8963.4033,1.34163.61418l1.318.66426.66156.33215c.10812.05535.21881.10808.32692.16869l.32419.17923,1.289.71434.6458.35849.63.38484,1.26006.76441.31631.18981.30584.20561.61411.40857,1.23094.81188,1.19667.8646.59834.42965.30053.21615.28992.22669,1.16241.90941.57983.45338.56407.47711A67.46,67.46,0,0,1,193.68523,107.79592Z" fill="url(#radial-gradient-8)"/><path id="Path_247" data-name="Path 247" d="M159.55219,202.319c-.23457.07115-.47719.12388-.71433.18188l-.71965.17134c-.47719.11073-.95422.23461-1.43655.33742l-1.44718.2873c-.48234.09489-.9621.20035-1.44975.26362-.97272.14761-1.9427.33215-2.92057.42964l-1.46294.174c-.49022.05008-.9806.08173-1.47082.12389l.83033,8.30327c.54042-.04481,1.08341-.08173,1.62383-.13708l1.61852-.19507c1.08067-.11073,2.15089-.30842,3.22384-.47184.52723-.07646,1.07022-.18981,1.60259-.29523l1.59744-.319c.52723-.11334,1.05445-.24776,1.58152-.37169l.79075-.1898c.26354-.06327.52723-.12388.79076-.20035a74.876,74.876,0,0,0,12.24411-4.431l.74072-.34.72753-.36642,1.45505-.7328.36377-.18454.35588-.19507.71433-.39538,1.42337-.7908,1.3944-.84353.69857-.42176.348-.21088.34011-.22669,1.35756-.89622.68007-.45076.66156-.47446,1.318-.95156.33207-.23723.32161-.25042.64322-.50084,1.28371-1.00429c.41911-.34269.83034-.69853,1.24688-1.05437l.61941-.52718c.20561-.17662.42168-.34531.61684-.52719l1.19941-1.10183c.81183-.72487,1.58151-1.49721,2.35135-2.259l-5.20081-6.27095c-.70388.6906-1.39714,1.39706-2.13256,2.05078l-1.086.999c-.17923.17135-.37438.32158-.55876.48238l-.56407.47711c-.37695.3163-.746.64053-1.12813.95156l-1.16241.90676-.57983.456c-.0975.07381-.19242.15288-.29265.22408l-.30054.21615-1.19667.86195-.60108.42964-.6141.406-1.23094.81453-.30585.203-.3163.1898-.63261.38223-1.26006.76707-1.2916.71172-.64579.35849-.32162.17923-.32949.16608-1.318.66164-.65642.33477-.67218.30576A67.82656,67.82656,0,0,1,159.55219,202.319Z" fill="url(#radial-gradient-9)"/><path id="Path_248" data-name="Path 248" d="M202.75037,134.34272a62.48708,62.48708,0,0,0-2.43292-7.80247,61.37084,61.37084,0,0,0-3.42672-7.42025,63.22263,63.22263,0,0,0-4.41521-6.88779l-4.8422,3.5691a56.9846,56.9846,0,0,1,3.98033,6.213,55.30127,55.30127,0,0,1,3.09723,6.69006,55.99662,55.99662,0,0,1,2.19578,7.03275,57.41868,57.41868,0,0,1,1.20986,7.26736l5.98884-.59837A63.79723,63.79723,0,0,0,202.75037,134.34272Z" fill="url(#radial-gradient-10)"/><path id="Path_249" data-name="Path 249" d="M165.12466,65.43069l2.21154.717c.73541.24777,1.46568.52719,2.19836.7908,1.47082.50872,2.89949,1.115,4.3494,1.70548l.52723.22142c.17922.07646.35588.15815.52722.23988l1.05445.48238,1.05445.485c.35315.16342.71176.319,1.05445.49818l2.0904,1.05437c.34526.17923.69857.34531,1.03852.52719l1.02533.56672c.68007.377,1.36544.75126,2.0402,1.13876l2.00336,1.21256.99637.61153.97787.64318,1.95059,1.29425c.63534.44811,1.26794.90414,1.90055,1.36018l.94891.68533c.31373.232.61684.47711.92783.71434l2.31709-3.02346c-.32162-.24777-.63792-.50345-.96484-.74334l-.98591-.71433c-.659-.47446-1.318-.95157-1.98228-1.41814L190.356,73.133l-1.01744-.66953-1.05445-.63526-2.08236-1.26263c-.70645-.40331-1.41821-.7908-2.12724-1.18884l-1.05445-.58783c-.35315-.19769-.72222-.37169-1.08067-.55884l-2.17728-1.09391c-.36119-.18715-.73284-.348-1.09918-.52719l-1.10979-.5061-1.10706-.50346-.55619-.24776-.56149-.232c-1.50252-.61419-2.99973-1.24418-4.52863-1.77663-.7618-.26361-1.5236-.55619-2.288-.81453l-2.30389-.746-2.325-.68534c-.775-.22142-1.56044-.4191-2.34332-.62737l-.9436,3.69033c.75118.20035,1.5051.39011,2.2537.60365Z" fill="url(#radial-gradient-11)"/><path id="Path_250" data-name="Path 250" d="M145.39177,223.94969l-2.32224-.07381c-.79075-.03161-1.55529-.08961-2.33012-.13707-1.55529-.08173-3.10253-.26361-4.65251-.427l-.57984-.06327c-.195-.02373-.38741-.05273-.57983-.07908l-1.15726-.16607-1.15725-.17135c-.38484-.058-.77242-.10807-1.15453-.18453l-2.29858-.42438c-.38227-.07646-.76711-.13969-1.14921-.22669l-1.13876-.26361c-.76179-.174-1.52359-.34269-2.28008-.52719l-2.26158-.60626-1.12814-.30576-1.11768-.34531-2.23262-.70118c-.73814-.26361-1.47082-.52718-2.20623-.775l-1.10192-.39538c-.36633-.13442-.725-.28469-1.08871-.427l-1.38395,3.55064c.377.15027.75391.30577,1.13345.4455l1.14663.41122c.76711.26362,1.53148.543,2.29859.80661l2.325.73014,1.16514.3585,1.1756.32157,2.35393.63c.79075.1898,1.58151.36642,2.37243.54826l1.18879.26361c.39546.09227.79076.15554,1.1941.23461l2.39608.4455c.398.07646.79076.12915,1.202.19242l1.20456.17661,1.20456.17135.60364.08434.60365.06588c1.61321.17135,3.22642.3585,4.84494.44284.80668.05008,1.61851.11073,2.425.145l2.41716.07381h2.425c.80668,0,1.61578-.03161,2.425-.05008l-.12388-3.809c-.77757.0158-1.55529.0448-2.33012.04746Z" fill="url(#radial-gradient-12)"/><path id="Path_251" data-name="Path 251" d="M85.90335,199.9334,84.71713,198.684c-.39272-.41911-.76968-.85668-1.15452-1.28372-.77756-.85141-1.49978-1.75289-2.23005-2.636l-.26353-.33476c-.08961-.11335-.17665-.22935-.26353-.34269l-.52723-.69061-.52722-.6906c-.17392-.232-.35057-.45865-.52723-.69853l-.98848-1.42079c-.16346-.23988-.33207-.47184-.48765-.717l-.46657-.72753c-.311-.48765-.62472-.97268-.92783-1.46294l-.8778-1.49721-.4323-.74861-.41123-.76441-.81183-1.52886c-.26353-.52719-.50615-1.03856-.75922-1.55787l-.37439-.79079c-.12388-.26362-.23457-.52719-.35314-.7908l-2.57805,1.14929c.12388.26362.23988.55357.36908.82507l.39015.81187q.3953.81448.79075,1.62375l.8461,1.58159.427.7908.4508.7908.91207,1.55786c.3163.51138.64322,1.01483.96741,1.5236l.48764.75914c.16073.26361.33738.49557.50615.746l1.03064,1.47879c.16877.26361.35315.485.52723.72753l.54041.7196.54557.717.26353.3585.28461.35057c.7618.92787,1.513,1.86624,2.32224,2.752.4006.44811.79075.90149,1.202,1.33906L83.85494,201.9l1.2731,1.26525c.427.41911.86717.82506,1.30479,1.23625l1.91631-2.06924c-.41911-.39538-.84352-.7908-1.25475-1.18883Z" fill="url(#radial-gradient-13)"/><path id="Path_252" data-name="Path 252" d="M176.23789,105.247l3.73257-5.09532-1.27052-.91733c-.42973-.29788-.87249-.57726-1.30479-.86722l-.65368-.43491-.16346-.10808-.166-.10015-.33738-.203-1.33906-.81453c-.2188-.14234-.45338-.26361-.68006-.38749l-.68538-.37958c-.45869-.26361-.90676-.52718-1.38121-.746l-1.39971-.70379-.348-.17662-.35846-.16342-.71433-.32422c-1.89267-.891-3.85645-1.61848-5.83069-2.31966a62.70833,62.70833,0,0,0-6.06268-1.71075,61.5684,61.5684,0,0,0-12.418-1.54733,60.22986,60.22986,0,0,0-12.46017,1.0333l1.16514,6.20768a53.96127,53.96127,0,0,1,11.166-.9226,54.99541,54.99541,0,0,1,11.13431,1.38652,55.60449,55.60449,0,0,1,5.44327,1.53674,48.97973,48.97973,0,0,1,5.23509,2.085l.64049.29.32161.145.31373.16081,1.25475.63264c.42442.19769.825.4455,1.23625.66692l.61684.34c.203.116.4138.22142.61153.348l1.19941.73014.30311.18188.15027.08962.145.09753.58514.39011c.38742.26362.79076.51138,1.17029.77761Z" fill="url(#radial-gradient-14)"/><path id="Path_253" data-name="Path 253" d="M121.70493,78.95582q2.839-.9173,5.75427-1.56841,2.91405-.65243,5.87557-1.01221,2.9616-.37166,5.94412-.46657,2.98524-.0949,5.96261.1028c1.98486.12915,3.95395.33742,5.92835.65372s3.91179.71961,5.83873,1.20991l1.21517-4.76055q-3.10783-.79077-6.28406-1.29952c-2.10874-.34269-4.2466-.56672-6.3843-.70645s-4.28344-.174-6.42645-.11073-4.27813.23722-6.4028.50345-4.23855.63-6.32638,1.09129-4.157,1.03068-6.19445,1.687a68.6802,68.6802,0,0,0-11.788,5.04258l2.34074,4.31771A63.9769,63.9769,0,0,1,121.70493,78.95582Z" fill="url(#radial-gradient-15)"/><path id="Path_254" data-name="Path 254" d="M67.26449,116.99014c.71691-1.72128,1.51571-3.41356,2.39351-5.061s1.8452-3.25542,2.87584-4.8159,2.14044-3.07353,3.316-4.5312,2.43035-2.85473,3.74576-4.19645a56.19614,56.19614,0,0,1,4.12529-3.83794c1.44187-1.202,3.79322-3.44784,5.33516-4.5286l-2.20624-2.47515q-2.491,1.73974-4.81855,3.69033c-1.55,1.30217-3.02869,2.69131-4.44416,4.13317s-2.76243,2.95492-4.03568,4.52333-2.45931,3.20268-3.57168,4.88182-2.14832,3.41356-3.09723,5.18758-1.80563,3.59545-2.58062,5.45115a63.49615,63.49615,0,0,0-3.56653,11.48754l3.21323.75914A58.74663,58.74663,0,0,1,67.26449,116.99014Z" fill="url(#radial-gradient-16)"/><path id="Path_255" data-name="Path 255" d="M148.49961,67.73982l.6273.07115c.20819.02373.41653.04746.62472.07907l1.252.17662,1.24414.20822c.20818.03427.41653.07381.62214.116l.61942.12127.659-2.52-.66157-.12916c-.2188-.0448-.44018-.087-.66156-.12388l-1.33375-.22407-1.33649-.18715c-.22411-.03427-.44549-.06062-.66961-.08435l-.67218-.07646q-2.68866-.28863-5.39324-.33742l.03427,2.59377Q145.973,67.471,148.49961,67.73982Z" fill="url(#radial-gradient-17)"/><path id="Path_256" data-name="Path 256" d="M128.50834,68.09039l-.35845-2.59643c-1.42337.19242-2.83627.45865-4.23341.775l.57984,2.55423C125.82234,68.52534,127.1614,68.27227,128.50834,68.09039Z" fill="url(#radial-gradient-18)"/><path id="Path_257" data-name="Path 257" d="M203.43833,89.03841l.69068.63c.22669.2135.464.41911.68264.64053l1.33118,1.318,3.32922-3.33714-1.405-1.38387c-.232-.232-.47719-.45076-.71965-.6748l-.72495-.66426c-.48765-.44284-.97-.88833-1.46294-1.318L203.657,82.97568l-3.03142,3.60865,1.42867,1.20991C202.51307,88.18169,202.96918,88.61926,203.43833,89.03841Z" fill="url(#radial-gradient-19)"/><path id="Path_258" data-name="Path 258" d="M138.83355,78.99539l.16877,4.81063q2.84673-.09091,5.69361.05273l.26354-4.808C142.914,78.95582,140.871,78.92947,138.83355,78.99539Z" fill="url(#radial-gradient-20)"/><path id="Path_259" data-name="Path 259" d="M186.13852,105.35765l-.94633-.93576c-.31888-.30842-.65642-.601-.9806-.90148l-3.2475,3.55329c.30054.27942.609.54565.90418.83034l.86992.862c.59833.56145,1.13618,1.17829,1.70282,1.76875l3.54529-3.25542C187.3722,106.63344,186.78432,105.96918,186.13852,105.35765Z" fill="url(#radial-gradient-21)"/><path id="Path_260" data-name="Path 260" d="M97.7705,94.342l3.04461,4.11476a77.23785,77.23785,0,0,1,16.256-9.19427,79.62307,79.62307,0,0,1,8.85149-3.063,75.99546,75.99546,0,0,1,9.15734-1.96644l-.77242-5.05843a81.08976,81.08976,0,0,0-9.75309,2.09559,84.54,84.54,0,0,0-9.4368,3.26334,82.52075,82.52075,0,0,0-17.33938,9.8084Z" fill="url(#radial-gradient-22)"/><path id="Path_261" data-name="Path 261" d="M182.61414,211.26013l-2.40139-4.52067a77.40266,77.40266,0,0,1-17.43687,6.69272,79.73057,79.73057,0,0,1-9.20738,1.71863,76.4249,76.4249,0,0,1-9.34718.59045l.01577,5.119a81.22793,81.22793,0,0,0,9.964-.63265,84.38712,84.38712,0,0,0,9.81633-1.84516,82.46606,82.46606,0,0,0,18.5967-7.13556Z" fill="url(#radial-gradient-23)"/><path id="Path_262" data-name="Path 262" d="M95.20033,92.74194c1.81352-1.39972,3.65341-2.76512,5.56185-4.03568.941-.65372,1.91374-1.26,2.87585-1.87682.48233-.311.97786-.59838,1.46825-.89622s.97529-.59838,1.47613-.87776l-1.26521-2.21685c-.52723.29257-.60365.4033-1.12025.71172s-1.03595.6168-1.53937.941c-1.01487.65106-2.03489,1.289-3.02611,1.97431-2.00062,1.33379-3.93818,2.77039-5.84131,4.24125a103.634,103.634,0,0,0-10.7337,9.66345l1.93209,1.58159A98.34451,98.34451,0,0,1,95.20033,92.74194Z" fill="url(#radial-gradient-24)"/><path id="Path_263" data-name="Path 263" d="M80.83961,126.28721c.74072-1.66594,1.5104-3.31868,2.37243-4.92924.41122-.81453.862-1.60528,1.30221-2.404.22138-.40065.45869-.7908.688-1.18357s.456-.79079.70115-1.17037l-3.42672-2.10877c-.26354.4033-.493.82241-.73815,1.23363s-.49022.8198-.72222,1.24152c-.464.83822-.93572,1.67121-1.368,2.52524-.8963,1.69228-1.70813,3.42676-2.48569,5.17966a82.49278,82.49278,0,0,0-3.85114,10.82854l3.86175,1.08076A78.35735,78.35735,0,0,1,80.83961,126.28721Z" fill="url(#radial-gradient-25)"/><path id="Path_264" data-name="Path 264" d="M92.70418,180.5169c-.95164-1.55521-1.87159-3.12888-2.71238-4.74475-.43488-.79079-.83291-1.62113-1.23883-2.43827-.203-.40857-.38742-.82507-.57984-1.23625s-.16072-.33477-.33737-.75653L82.49,173.44988c.18454.44284.39546.87248.593,1.318s.398.87249.61153,1.29952c.427.85933.84353,1.72128,1.29948,2.56216.88568,1.70021,1.8452,3.35557,2.852,4.98989a82.18326,82.18326,0,0,0,6.7191,9.32341l4.53121-3.5401A78.09336,78.09336,0,0,1,92.70418,180.5169Z" fill="url(#radial-gradient-26)"/><path id="Path_265" data-name="Path 265" d="M111.9203,74.52476l-1.318-3.4663A90.72534,90.72534,0,0,0,92.38788,81.5127l1.98759,3.05508A90.6247,90.6247,0,0,1,111.9203,74.52476Z" fill="url(#radial-gradient-27)"/><path id="Path_266" data-name="Path 266" d="M67.1221,128.67276l3.25538,1.00694A66.93246,66.93246,0,0,1,77.405,114.22241L74.50551,112.43A70.11925,70.11925,0,0,0,67.1221,128.67276Z" fill="url(#radial-gradient-28)"/><path id="Path_267" data-name="Path 267" d="M78.18,106.45687c-.14769.18715-.28992.38222-.42973.57726l-.42441.58253-.42169.58253-.21092.29257-.203.29788,3.20792,2.23793.19242-.282.2003-.27942.40334-.55357.40061-.55619c.1345-.18453.26353-.369.41123-.54826.55618-.72487,1.10448-1.45506,1.68963-2.15885l-3.03931-2.462C79.34513,104.92535,78.75725,105.69507,78.18,106.45687Z" fill="url(#radial-gradient-29)"/><path id="Path_268" data-name="Path 268" d="M152.35606,84.17767c.41911.058.84079.1028,1.25733.16869l1.252.19769.31373.04746.311.058.62472.116c.4138.07907.83034.15026,1.24414.24515l1.23882.26361,1.23368.29788.941-3.79579c-.43761-.10542-.86992-.2135-1.318-.31631l-1.318-.27942c-.43761-.10015-.87779-.17661-1.318-.26361l-.66156-.12388-.3295-.06061-.33207-.05274-1.318-.20822c-.44292-.06854-.88826-.11862-1.33118-.17923l-.66687-.08435c-.22412-.029-.4455-.04746-.66961-.07115l-1.33648-.13442-.33738,3.8986,1.26006.12654c.21092.02108.42168.03954.63.06327Z" fill="url(#radial-gradient-30)"/><path id="Path_269" data-name="Path 269" d="M63.05747,144.85492c.02107-.22934.03958-.45865.06323-.68534l.07915-.68533.16346-1.37072.195-1.36544c.03427-.22669.06323-.45338.10023-.68007l.116-.68006.23457-1.35491.48234-2.61489-2.76242-.50872-.48234,2.61223-.23988,1.40233-.12131.7038c-.03958.23461-.06854.47184-.10538.70645l-.203,1.41552c-.05792.47184-.11069.94629-.166,1.41813l-.08431.71173c-.02365.23722-.04215.47445-.066.71172l-.12646,1.4234a78.86752,78.86752,0,0,0-.03684,11.43746l2.802-.19242a76.29585,76.29585,0,0,1,.03427-11.0315Z" fill="url(#radial-gradient-31)"/><path id="Path_270" data-name="Path 270" d="M72.14884,157.40213l.21881,2.29067.12919,1.2231.06854.61418c.02107.20561.05277.40857.07915.61418l.166,1.22572c.06065.40595.12919.81453.195,1.22044l.10023.61153c.03427.203.07642.406.11343.60892l.232,1.21517a68.26035,68.26035,0,0,0,2.67554,9.529l3.63764-1.27579a66.16732,66.16732,0,0,1-2.58062-9.19161l-.22411-1.17037c-.03684-.19769-.07642-.39276-.11069-.58784l-.09492-.59045-.18985-1.17829-.15815-1.18091c-.02639-.19769-.05535-.39538-.07916-.59311l-.06323-.5931L76.13722,159.01l-.21881-2.288Z" fill="url(#radial-gradient-32)"/><path id="Path_271" data-name="Path 271" d="M65.97016,102.21031l.50341-.75915a4.22185,4.22185,0,0,1,.26353-.37957l.26353-.3743.52723-.74333.543-.7328c.08961-.12127.17923-.24515.26353-.36377l.282-.35849.56149-.71434,1.09918-1.36806-1.44444-1.16244-1.09918,1.36806-.57983.73806-.29266.37169c-.09492.12388-.18711.26361-.282.377l-.56149.75914c-.18181.26361-.36119.52719-.543.77234l-.26353.38484-.26353.39276-.52722.7908a52.75443,52.75443,0,0,0-3.61126,6.63472l1.68963.76441A50.66083,50.66083,0,0,1,65.97016,102.21031Z" fill="url(#radial-gradient-33)"/><path id="Path_272" data-name="Path 272" d="M89.2115,79.2537l.7486-.52719c.12646-.08434.25034-.174.377-.26361l.38226-.26361.7618-.49557.79076-.47711.38741-.23462.39546-.22934.79076-.45338,1.53148-.85668-.90676-1.61848-1.5289.85934-.81457.46657-.40865.23723-.40335.24515-.79075.49291c-.26353.16869-.52723.34269-.79076.514l-.39546.26361c-.13176.087-.26353.17661-.39015.26361l-.79076.52719a52.41084,52.41084,0,0,0-5.82553,4.80535l1.28114,1.34172A49.54238,49.54238,0,0,1,89.2115,79.2537Z" fill="url(#radial-gradient-34)"/><path id="Path_273" data-name="Path 273" d="M70.24571,141.94219l.16347-.95687.08173-.47977.10538-.5641.83291-4.48113-3.25281-.61419-.83564,4.49959-.10281.56411-.087.50611-.17134,1.00695c-.06066.33742-.10023.6748-.15284,1.01222l-.14239,1.01221,3.28176.42438.13708-.96214C70.15353,142.58272,70.18763,142.26115,70.24571,141.94219Z" fill="url(#radial-gradient-35)"/><path id="Path_274" data-name="Path 274" d="M66.58442,168.29922l.06854.56937.06854.50611.13707,1.01483c.04215.33742.10812.6748.15815,1.00957l.166,1.00956,3.25811-.57465-.15558-.95948c-.05-.32157-.11069-.63792-.15027-.95949l-.13176-.96476-.06323-.48237-.07111-.56673-.543-4.5312-3.28708.38484Z" fill="url(#radial-gradient-36)"/><path id="Path_275" data-name="Path 275" d="M89.19042,113.37362a77.67117,77.67117,0,0,1,7.0354-8.43508l-3.237-3.10515a82.44484,82.44484,0,0,0-7.436,8.93065Z" fill="url(#radial-gradient-37)"/><path id="Path_276" data-name="Path 276" d="M53.38336,167.89592l-.26353-1.5816L52.88,164.73273l-.116-.7908c-.03684-.26361-.06854-.52719-.10023-.7908l-.195-1.58159c-.05792-.52719-.10538-1.05437-.15815-1.5816-.11069-1.05437-.17134-2.12458-.24776-3.18688a95.40035,95.40035,0,0,1,.11857-12.758l-1.90055-.14762a97.48448,97.48448,0,0,0-.11858,13.0164c.07643,1.086.13708,2.17205.26354,3.25277.05277.54037.10023,1.08336.16072,1.62374l.19773,1.61848c.03427.26361.06323.54038.10281.80926l.11857.8066c.08173.52719.15815,1.07549.24519,1.61321l.282,1.60529.14238.79079.16073.7908,1.86885-.37169-.15557-.79079Z" fill="url(#radial-gradient-38)"/><path id="Path_277" data-name="Path 277" d="M118.87929,64.893l1.55528-.3743,1.56044-.33742.79076-.16608c.26353-.05534.52722-.1028.79076-.15288l1.58151-.29257c.52723-.09227,1.05445-.174,1.58152-.26361,1.05445-.17923,2.10873-.30577,3.16318-.44811a95.24848,95.24848,0,0,1,12.73964-.69061l.02639-1.90317a96.91911,96.91911,0,0,0-12.998.70119c-1.0781.145-2.1562.27676-3.229.45865-.52722.087-1.07279.16868-1.6079.26361l-1.60532.29788c-.26353.05273-.52723.10015-.79076.15554l-.79075.16869c-.52723.116-1.05445.22668-1.58152.34795L118.484,63.04l-.79076.19507-.79076.21089.48765,1.84516.77242-.20561Z" fill="url(#radial-gradient-39)"/><path id="Path_278" data-name="Path 278" d="M67.58594,153.153c0,.47184.03684.94368.05534,1.41552s.05.9463.08431,1.41813l2.30116-.1608c-.0317-.456-.06854-.90941-.08173-1.36806s-.04489-.912-.05277-1.36806Z" fill="url(#radial-gradient-40)"/><path id="Path_279" data-name="Path 279" d="M62.71735,168.80533l-2.37243.38749a89.26055,89.26055,0,0,0,4.08845,15.79471l2.26431-.81187A86.61071,86.61071,0,0,1,62.71735,168.80533Z" fill="url(#radial-gradient-41)"/><path id="Path_280" data-name="Path 280" d="M74.56085,210.33757c-.15284-.174-.30054-.35057-.4508-.52719l-.8963-1.05437-.87249-1.07283-.43488-.52718-.42168-.54826-.84079-1.09656-.81714-1.115-.40592-.56145-.39546-.56672c-.26353-.37958-.52722-.75653-.79076-1.13876-.50341-.77234-1.02275-1.53675-1.50252-2.32493-.23988-.39276-.49022-.7908-.725-1.17829l-.70114-1.19145-1.73452,1.00168.71691,1.2231c.23988.406.49553.7908.7433,1.20725.49022.80661,1.02018,1.5816,1.53678,2.37236.26353.39276.52723.7776.79076,1.16771l.40334.58253.41654.572.83822,1.144.862,1.12557.4323.56145.44549.55092.89357,1.09921.91994,1.0781c.15285.17923.30312.36111.46127.52719l.47188.52718c1.24944,1.41814,2.57,2.773,3.91179,4.10156l1.40229-1.43133c-1.318-1.29952-2.59639-2.62015-3.81687-4.00667Z" fill="url(#radial-gradient-42)"/><path id="Path_281" data-name="Path 281" d="M70.93109,190.27523c-.17923-.35058-.36907-.69592-.52722-1.05437L67.25918,190.784c.17923.37169.377.73545.56407,1.10183s.37438.73545.57468,1.09656c.40061.71961.79076,1.44979,1.20987,2.15886l3.03657-1.76083c-.40592-.67745-.77242-1.37332-1.15726-2.06131C71.287,190.98429,71.11289,190.62318,70.93109,190.27523Z" fill="url(#radial-gradient-43)"/><path id="Path_282" data-name="Path 282" d="M88.11232,222.47883l-.86718,1.0781c1.35225,1.09656,2.75985,2.12458,4.19914,3.10515s2.92057,1.90316,4.44159,2.75457l.68007-1.202c-1.48933-.8356-2.9365-1.73974-4.34667-2.69658S89.43545,223.55166,88.11232,222.47883Z" fill="url(#radial-gradient-44)"/><path id="Path_283" data-name="Path 283" d="M106.40318,231.35674l-.79076,1.84517c2.309,1.0201,4.6736,1.92163,7.0618,2.744s4.81324,1.54733,7.27,2.16151l.49022-1.9427c-2.40139-.601-4.77108-1.318-7.11713-2.10878S108.66219,232.35311,106.40318,231.35674Z" fill="url(#radial-gradient-45)"/><path id="Path_284" data-name="Path 284" d="M87.6509,216.8484l1.70813-2.10878c-.46126-.38222-.91995-.76972-1.37864-1.1519s-.90144-.7908-1.35225-1.18618l-1.8082,2.0139c.46657.40857.92783.82506,1.39971,1.22837S87.17129,216.45564,87.6509,216.8484Z" fill="url(#radial-gradient-46)"/><path id="Path_285" data-name="Path 285" d="M81.30891,204.7493c-.18711-.26362-.38226-.52719-.56149-.81188l-.5483-.82241-2.59639,1.70809.572.85934c.18985.2873.39273.56411.58788.8488l.593.84352.61153.83034,2.49889-1.84517-.58788-.7908Z" fill="url(#radial-gradient-47)"/><path id="Path_286" data-name="Path 286" d="M55.08635,156.83276a83.72784,83.72784,0,0,0,1.06764,8.733l2.56743-.45338a81.47056,81.47056,0,0,1-1.03595-8.46147Z" fill="url(#radial-gradient-48)"/><path id="Path_287" data-name="Path 287" d="M54.37185,180.12679a83.1903,83.1903,0,0,0,3.11042,8.22946l2.37243-1.05437a81.828,81.828,0,0,1-3.01035-7.97377Z" fill="url(#radial-gradient-49)"/><path id="Path_288" data-name="Path 288" d="M113.92092,210.97283a67.08946,67.08946,0,0,1-19.52727-13.75974c-1.40229-1.42605-2.74665-2.89957-4.0146-4.45213s-2.46205-3.14734-3.58487-4.79482-2.1694-3.34768-3.13938-5.09-1.07279-1.78983-2.23793-4.16218l-3.954,1.97963c.82776,1.87417,1.89782,3.65606,2.8995,5.44854s2.07447,3.53745,3.229,5.23239,2.38562,3.34242,3.69041,4.9319,2.68343,3.11307,4.12787,4.57867a68.98957,68.98957,0,0,0,20.07557,14.14723Z" fill="url(#radial-gradient-50)"/><path id="Path_289" data-name="Path 289" d="M72.626,142.13461l-.07642.67745-.15815,1.35225-.11858,1.35225-.06065.67746c-.0185.22407-.02639.45076-.04215.6748l-.08431,1.3549c-.02365.45077-.03169.90149-.05,1.35225-.04746.90149-.029,1.803-.04746,2.7045H75.415c.0185-.85933,0-1.72128.04488-2.58323.01851-.42965.02365-.862.04747-1.29164l.08173-1.29425c.01319-.21615.02107-.4323.03957-.64845l.06066-.6458L75.8,144.52285l.15284-1.29425.07111-.6458.116-.89622-3.39776-.43757Z" fill="url(#radial-gradient-51)"/><path id="Path_290" data-name="Path 290" d="M136.51389,219.226l.50084.0422,1.00168.087,1.00425.058.50084.03161.50342.01581.20818-3.75361-.48233-.0158-.47977-.029-.9621-.05535-.95952-.08434-.47977-.03954-.47719-.05535-.95679-.10542-.95164-.13442-.47719-.06327-.47446-.07907-.94633-.15554-.543,3.71672.98848.16342.49553.08435.49827.06853.9938.13969.99637.11073Z" fill="url(#radial-gradient-52)"/><path id="Path_291" data-name="Path 291" d="M123.43157,215.338l.69857.20034,1.3944.40331,1.4076.36376.70387.18454.709.16342.79076-3.38457-.68007-.15554-.67218-.17661-1.34694-.348-1.33649-.38749-.66961-.18981-.66156-.2135-1.318-.41649-1.318-.456-.65641-.22408-.64838-.24776-1.29948-.48765-1.26794,3.237,1.35756.50872.67749.26361.68538.23461,1.368.47711,1.38395.43757Z" fill="url(#radial-gradient-53)"/><path id="Path_292" data-name="Path 292" d="M190.66185,204.44619l.56937-.45077,1.14133-.89887,1.115-.93049.55876-.46391.54556-.47977-2.28282-2.62277-.52722.4613-.52723.4455-1.06764.8936-1.09387.85934-.543.4323-.55876.41384-1.11237.833-1.13344.7908-.56681.4033-.57726.38222-1.15194.77234,1.89267,2.918,1.20455-.80661.60365-.40064.59045-.41911,1.18348-.83561,1.15983-.86987Z" fill="url(#radial-gradient-54)"/><path id="Path_293" data-name="Path 293" d="M53.95017,128.95218l-.12646.485-.11069.4903-.22669.97795-.19773.98322-.10023.49291-.08431.49557-.17391.98849-.145.99375-.07385.49819-.06065.50084,2.38819.30049.05792-.47976.07112-.47711.13965-.95422.166-.94894.08173-.47446.0975-.47184.18984-.94368.21607-.93575.10538-.46919.12131-.46392.23989-.93048-2.32224-.63265Z" fill="url(#radial-gradient-55)"/><path id="Path_294" data-name="Path 294" d="M101.84044,196.39856l.79076-.91468q-1.58168-1.35222-3.03657-2.81519l-.854.84615Q100.227,195.01337,101.84044,196.39856Z" fill="url(#radial-gradient-56)"/><path id="Path_295" data-name="Path 295" d="M167.46009,234.80193l.55618,1.52621,3.78791-1.1493-.55618-1.52621Z" fill="url(#radial-gradient-57)"/><path id="Path_296" data-name="Path 296" d="M180.47645,228.78932l.79075,1.58159,4.25706-2.16939-.79076-1.5816Z" fill="url(#radial-gradient-58)"/><path id="Path_297" data-name="Path 297" d="M110.04083,224.22646q-3.37282-1.58156-6.58992-3.49-3.21861-1.90977-6.234-4.09629l-1.44718,1.8847q3.16311,2.28931,6.51349,4.28344a76.69523,76.69523,0,0,0,6.89045,3.64553Z" fill="url(#radial-gradient-59)"/><path id="Path_298" data-name="Path 298" d="M150.68477,237.19805q-3.71286.38751-7.44663.43757l.04489,2.10878c2.59912-.03161,4.86859-.22142,7.45194-.49292s5.1585-.67745,7.70485-1.19144l-.38484-2.00859C155.61932,236.5496,153.15728,236.93178,150.68477,237.19805Z" fill="url(#radial-gradient-60)"/><path id="Path_299" data-name="Path 299" d="M173.02981,222.55263l-.854-2.37235q-4.17934,1.48273-8.48515,2.578t-8.69865,1.76347l.39546,2.48308c3.05249-.4771,5.77276-1.00429,8.76992-1.7582S170.1197,223.58593,173.02981,222.55263Z" fill="url(#radial-gradient-61)"/><path id="Path_300" data-name="Path 300" d="M105.188,218.82272l1.27309-2.17732q-3.81953-2.2577-7.42024-4.85808-3.6021-2.60172-6.92472-5.53554L90.46609,208.147c2.31966,2.03759,4.468,3.78526,6.96944,5.60142S102.52839,217.25171,105.188,218.82272Z" fill="url(#radial-gradient-62)"/><path id="Path_301" data-name="Path 301" d="M131.06274,229.97022l-.35058,2.3302c2.18516.45865,4.157.7908,6.37642,1.05437s4.44947.398,6.6821.4455l.01319-2.37235q-3.20655-.06722-6.39492-.42438Q134.202,230.6438,131.06274,229.97022Z" fill="url(#radial-gradient-63)"/><path id="Path_302" data-name="Path 302" d="M118.88717,226.612c-.34269-.11334-.69069-.2135-1.03064-.33476l-1.02276-.35584-1.13875,3.21322,1.07279.3743c.35588.12654.72222.232,1.08068.35057s.72221.232,1.08341.34269l1.09129.31631.93845-3.27915-1.05445-.3005Z" fill="url(#radial-gradient-64)"/><polygon id="Rectangle_1180" data-name="Rectangle 1180" points="171.915 226.984 175.376 225.558 176.446 228.154 172.982 229.58 171.915 226.984" fill="url(#radial-gradient-65)"/><path id="Path_303" data-name="Path 303" d="M187.30624,222.21l1.2784,1.88735,6.50818-4.25182-1.2784-1.88736Z" fill="url(#radial-gradient-66)"/><path id="Path_304" data-name="Path 304" d="M204.817,148.6481l-6.47134-.02635.066,14.026,6.32638.03161Z" fill="url(#radial-gradient-67)"/><path id="Path_305" data-name="Path 305" d="M119.786,91.90633a62.20291,62.20291,0,0,0-7.39659,3.47949,61.52094,61.52094,0,0,0-6.87983,4.42052,62.543,62.543,0,0,0-6.21826,5.31674l4.19913,4.30717a56.85437,56.85437,0,0,1,5.60931-4.79482,55.23767,55.23767,0,0,1,6.2025-3.98556,56.05919,56.05919,0,0,1,6.66633-3.1368,57.01022,57.01022,0,0,1,7.03283-2.19574l-1.41291-5.84919A62.91262,62.91262,0,0,0,119.786,91.90633Z" fill="url(#radial-gradient-68)"/><path id="Path_306" data-name="Path 306" d="M119.40651,207.53818a62.07293,62.07293,0,0,0,7.7972,2.45935,61.2896,61.2896,0,0,0,8.05285,1.41814,62.66446,62.66446,0,0,0,8.17143.311l-.16346-6.01265a57.03077,57.03077,0,0,1-7.38067-.282,56.0772,56.0772,0,0,1-14.28688-3.4953,56.96265,56.96265,0,0,1-6.65845-3.16315l-2.92861,5.25612A62.60332,62.60332,0,0,0,119.40651,207.53818Z" fill="url(#radial-gradient-69)"/><path id="Path_307" data-name="Path 307" d="M93.66886,122.00377,88.352,118.5902l-.83564,1.318c-.26354.44811-.52723.90414-.79076,1.35491l-.39273.68007-.09749.16868-.08962.174-.1818.348-.7301,1.38652c-.12646.22934-.232.46919-.34526.7038l-.33481.70645c-.22138.47446-.464.93841-.659,1.4234L83.278,128.2958l-.15557.35849-.13965.369-.27946.73279c-.77242,1.94271-1.37864,3.95395-1.9559,5.96254a62.08749,62.08749,0,0,0-2.10874,18.63628A60.5521,60.5521,0,0,0,80.439,166.72816l6.12334-1.54467a54.31436,54.31436,0,0,1-1.61064-11.08685,55.113,55.113,0,0,1,.69584-11.19758,55.95025,55.95025,0,0,1,1.19941-5.53554c.52722-1.80828,1.05445-3.60864,1.75816-5.35366l.26354-.65633.12388-.3295.13965-.32423.55361-1.29163c.17392-.43757.39546-.85141.59045-1.27579l.30311-.63526c.10023-.21088.19242-.427.30842-.63l.65368-1.24418.16346-.31369.08173-.15553.087-.15027.35315-.60892c.23731-.4033.46126-.81453.70388-1.21517Z" fill="url(#radial-gradient-70)"/><path id="Path_308" data-name="Path 308" d="M93.78228,112.31659l-.79076,1.07283c-.26353.36111-.49826.73546-.7486,1.10184l3.98821,2.694c.232-.33742.45081-.68272.69069-1.01483l.72753-.98849c.46657-.66953.9991-1.29425,1.49978-1.94l-3.73787-3.03134C94.87084,110.909,94.29631,111.58906,93.78228,112.31659Z" fill="url(#radial-gradient-71)"/><path id="Path_309" data-name="Path 309" d="M105.99727,200.44216l1.05445.82242c.35057.26361.71964.52718,1.07552.79079l2.81777-3.90387c-.3295-.24249-.66688-.47184-.99106-.7196l-.96484-.75653c-.659-.4903-1.26264-1.05437-1.89267-1.56048l-3.15,3.64026C104.62651,199.314,105.2855,199.90967,105.99727,200.44216Z" fill="url(#radial-gradient-72)"/><path id="Path_310" data-name="Path 310" d="M204.30036,168.7684l-5.79916-.029c.05792,4.97144.22927,9.67137.52723,14.04177l5.214.02635Z" fill="url(#radial-gradient-73)"/><path id="Path_311" data-name="Path 311" d="M232.38116,233.43652c-2.98123-5.45646-9.5528-17.41053-12.86352-52.859h0l-11.39527-.07907v.08173c3.31346,35.44844,9.88487,47.40254,12.86352,52.859a10.708,10.708,0,0,0,1.99548,2.82311h11.39269A10.6535,10.6535,0,0,1,232.38116,233.43652Z" fill="url(#radial-gradient-74)"/><path id="Path_312" data-name="Path 312" d="M237.6769,201.40954H226.07859c4.51271,25.15234,12.3231,34.85006,12.3231,34.85006H250S242.187,226.56981,237.6769,201.40954Z" fill="url(#radial-gradient-75)"/><path id="Path_313" data-name="Path 313" d="M220.464,122.75764l.17134.67219c.05792.22669.11857.44811.16346.6748l.58788,2.715c.34011,1.81882.67218,3.64291.8963,5.48015l.1818,1.376.1345,1.38125.12919,1.38387c.02108.22934.04747.45865.06066.6906l.03958.69326c.04746.92261.11069,1.84517.14238,2.77039l.04215,2.773-.04215,9.08091h11.53765l-.07111-15.38087-.04746-.79079c-.01319-.26362-.04489-.52719-.066-.7908l-.1477-1.58159-.15284-1.5816-.20561-1.56575c-.26353-2.093-.63261-4.16744-1.02276-6.23668l-.66687-3.08934c-.05535-.26362-.12131-.52719-.18711-.76972l-.195-.76442-.39546-1.53147-11.23454,3.0208Z" fill="url(#radial-gradient-76)"/><path id="Path_314" data-name="Path 314" d="M234.54267,162.73206l-.03169-6.86933H222.94436l-.03169,6.81133v.058h.03958a225.56431,225.56431,0,0,0,2.54377,35.264h11.59831A225.59006,225.59006,0,0,1,234.54267,162.73206Z" fill="url(#radial-gradient-77)"/><path id="Path_315" data-name="Path 315" d="M204.60877,187.294h-.81183l-4.21748-.02108v.01581h.22669a209.21224,209.21224,0,0,0,3.91711,23.54972h4.78959A208.43005,208.43005,0,0,1,204.60877,187.294Z" fill="url(#radial-gradient-78)"/><path id="Path_316" data-name="Path 316" d="M216.76053,233.31526a74.84269,74.84269,0,0,1-7.2489-18.52029h-4.79217a74.99007,74.99007,0,0,0,7.24891,18.52029,10.70771,10.70771,0,0,0,1.99547,2.82311h4.78959A10.63609,10.63609,0,0,1,216.76053,233.31526Z" fill="url(#radial-gradient-79)"/></svg>