<svg id="Layer_1" data-name="Layer 1" xmlns="http://www.w3.org/2000/svg" viewBox="0 0 300 300"><defs><style>.cls-1{fill:#ffdc32;}.cls-2{fill:#00ae7c;fill-rule:evenodd;}</style></defs><path id="Path_4" data-name="Path 4" class="cls-1" d="M59.36,175.67l-21.85-5.23a4.05,4.05,0,0,0-4.92,2.66,3.67,3.67,0,0,0,2.88,4.58h.24l21.61,5.12C57.92,180.45,58.52,178,59.36,175.67Zm4.81-48,15.4,14.24c1.81-1.9,3.75-3.69,5.67-5.38L69.59,122.16a4.38,4.38,0,0,0-5.78,0,3.66,3.66,0,0,0,0,5.38C64.05,127.54,64.05,127.65,64.17,127.65Zm51.55-29.93,5.48,19c2.52-.78,5.13-1.45,7.76-2l-5.49-19.25a4,4,0,0,0-4.89-2.69,3.73,3.73,0,0,0-2.86,4.58C115.6,97.61,115.72,97.61,115.72,97.72Zm62.78,18.74,5.37-18.7c0-.12.11-.12.11-.23A3.67,3.67,0,0,0,181.12,93a4,4,0,0,0-4.89,2.69l-5.48,19C173.37,115.12,176,115.79,178.5,116.46Zm42,25,14.85-13.71.25-.22a3.69,3.69,0,0,0,0-5.36,4.34,4.34,0,0,0-5.75,0l-15.1,13.93A63.52,63.52,0,0,1,220.51,141.45Zm46.6,31.68a4,4,0,0,0-4.91-2.69l-21,5.06a70.18,70.18,0,0,1,2,7.3L264,177.74h.23A3.73,3.73,0,0,0,267.11,173.13ZM203,135.94l11.59-38.07-29.29,28.42A77.94,77.94,0,0,1,203,135.94Zm-52.8-16.58a96.07,96.07,0,0,1,10,.56L150,81.66,139.66,120A83.3,83.3,0,0,1,150.22,119.36ZM279.3,202.58l-41.93-9.82a65.83,65.83,0,0,1,.48,8.48v1.34Zm-48-32.72,30.71-27.67-40.74,10.93A86.15,86.15,0,0,1,231.34,169.86ZM62.6,201.24a68.19,68.19,0,0,1,.48-8.63l-42.38,10H62.6Zm16.69-48.09L38,142,69.1,170.3A81.12,81.12,0,0,1,79.29,153.15Zm35.54-26.79L85.24,97.87,97,136.09A90.24,90.24,0,0,1,114.83,126.36ZM82,201.24c0-35.26,30.55-63.81,68.28-63.81s68.27,28.55,68.27,63.81v.45h12c0-41.54-36.07-75.12-80.38-75.12s-80.38,33.69-80.38,75.12H82Z"/><path id="Path_5" data-name="Path 5" class="cls-2" d="M99.92,191.76l-3.11,9.63H90l11.6-33.91h8.5l11.72,33.91h-7.06l-3.23-9.63Zm10.3-4.7-2.87-8.39a62.9,62.9,0,0,1-1.8-6.39h-.13c-.47,2-1.07,4.37-1.67,6.39L101,187.06Zm9.52-14.44v-5.14H147.1v5.14H136.7v28.77h-6.57V172.62Zm52.31,13.62H158.43v10h15.29v5H151.86V167.33h21v5H158.43v8.74h13.62Zm15.31,5.52-3.11,9.63h-6.81L189,167.48h8.5l11.72,33.91H202.2L199,191.76Zm10.3-4.7-2.87-8.39a62.9,62.9,0,0,1-1.8-6.39h-.13c-.47,2-1.07,4.37-1.67,6.39l-2.75,8.39ZM90.14,207a19.07,19.07,0,0,1,3-.23,5.43,5.43,0,0,1,3.36.89A2.84,2.84,0,0,1,97.58,210a3.63,3.63,0,0,1-1,2.47,5.47,5.47,0,0,1-3.72,1.22,4,4,0,0,1-1.2-.11v4.48H90.14Zm1.57,5.36a3.74,3.74,0,0,0,1.31.13c1.92,0,3-.91,3-2.47s-1.08-2.24-2.88-2.24a4.39,4.39,0,0,0-1.43.11Zm9.3-6.18v5.06a2.32,2.32,0,0,1,1.08-1,4.25,4.25,0,0,1,1.56-.45c1.21,0,3,.67,3,3.49v4.82h-1.56v-4.71c0-1.35-.48-2.48-2-2.48a2.38,2.38,0,0,0-2.17,1.46,1.44,1.44,0,0,0-.11.67v4.94H99.22V206.15Zm12.9,12-.11-1a3.19,3.19,0,0,1-2.61,1.25,2.34,2.34,0,0,1-2.6-2.38c0-2,1.89-3.07,5.21-3.07v-.11a1.75,1.75,0,0,0-1.89-1.92,4.75,4.75,0,0,0-2.26.56l-.36-1a5.52,5.52,0,0,1,2.85-.68c2.6,0,3.31,1.7,3.31,3.41v3.06a9.85,9.85,0,0,0,.12,1.93Zm-.23-4.2c-1.66,0-3.67.22-3.67,1.81a1.37,1.37,0,0,0,1.41,1.48,2.39,2.39,0,0,0,2.13-1.36c0-.12.13-.34.13-.46Zm3.95-1.44a16.51,16.51,0,0,0-.12-2.54H119v1.55h.11a2.54,2.54,0,0,1,2.42-1.77H122V211h-.48a2.23,2.23,0,0,0-2.17,1.89c0,.21-.13.43-.13.65v4.32h-1.56Zm5.8-.38a13.66,13.66,0,0,0-.12-2.27h1.42l.13,1.36a3,3,0,0,1,2.73-1.47,2.68,2.68,0,0,1,2.5,1.7,2.61,2.61,0,0,1,.95-1,3.06,3.06,0,0,1,1.91-.57c1.19,0,2.85.68,2.85,3.52v4.88h-1.55v-4.66c0-1.58-.6-2.49-1.9-2.49a2.36,2.36,0,0,0-1.91,1.36,1.61,1.61,0,0,0-.12.8v5.1h-1.54v-4.88c0-1.36-.59-2.27-1.78-2.27a2.18,2.18,0,0,0-1.91,1.48,1.37,1.37,0,0,0-.12.68v5h-1.54Zm19.59,6-.11-1a3.27,3.27,0,0,1-2.66,1.25,2.37,2.37,0,0,1-2.67-2.38c0-2,1.94-3.07,5.33-3.07v-.11a1.76,1.76,0,0,0-1.94-1.92,4.89,4.89,0,0,0-2.3.56l-.36-1a5.63,5.63,0,0,1,2.9-.68c2.67,0,3.39,1.7,3.39,3.41v3.06a9.85,9.85,0,0,0,.12,1.93Zm-.23-4.2c-1.7,0-3.76.22-3.76,1.81a1.38,1.38,0,0,0,1.45,1.48,2.47,2.47,0,0,0,2.18-1.36c0-.12.13-.34.13-.46Zm10.11,4a5.81,5.81,0,0,1-2.51.44,4,4,0,0,1-4.33-4.17c0-2.49,1.8-4.3,4.68-4.3a4.73,4.73,0,0,1,2.16.44l-.36,1.14a3.53,3.53,0,0,0-1.8-.34,2.9,2.9,0,0,0-3.12,3.06,2.87,2.87,0,0,0,3,3.05,4.23,4.23,0,0,0,1.92-.46Zm2.47-3.65c0,2,1.45,2.79,3,2.79a6.47,6.47,0,0,0,2.41-.44l.25,1a8.56,8.56,0,0,1-2.9.45,4,4,0,0,1-4.35-4.13,4,4,0,0,1,4.1-4.35,3.52,3.52,0,0,1,3.64,3.79V214h-6.16Zm4.58-1a2.1,2.1,0,0,0-2.17-2.34,2.48,2.48,0,0,0-2.41,2.34ZM170.62,216a12.45,12.45,0,0,0,.13,2.25h-1.44l-.13-1.35a3.16,3.16,0,0,1-2.87,1.46c-1.33,0-3-.67-3-3.6V210h1.56v4.51c0,1.57.48,2.58,1.92,2.58a2.08,2.08,0,0,0,2-1.35A1.43,1.43,0,0,0,169,215v-5h1.56v6Zm4.23-8.35V210h2.29v1.13h-2.29v4.4c0,1,.37,1.57,1.21,1.57A2.46,2.46,0,0,0,177,217l.13,1.13a4.86,4.86,0,0,1-1.45.22,2.1,2.1,0,0,1-1.69-.68,2.77,2.77,0,0,1-.59-2.13V211h-1.33v-1.13h1.33V208Zm5.71,0a1,1,0,0,1-1.93,0,.86.86,0,0,1,1-.89A.92.92,0,0,1,180.56,207.63Zm-1.69,10.42V210h1.57v8.06ZM189,217.9a5.83,5.83,0,0,1-2.52.44,4,4,0,0,1-4.32-4.17c0-2.49,1.79-4.3,4.68-4.3a4.77,4.77,0,0,1,2.16.44l-.36,1.14a3.53,3.53,0,0,0-1.8-.34,3.06,3.06,0,1,0-.12,6.11,4.27,4.27,0,0,0,1.92-.46Zm6.48.22-.11-1a3.31,3.31,0,0,1-2.67,1.25,2.37,2.37,0,0,1-2.66-2.38c0-2,1.93-3.07,5.33-3.07v-.11a1.76,1.76,0,0,0-1.95-1.92,4.85,4.85,0,0,0-2.29.56l-.36-1a5.63,5.63,0,0,1,2.9-.68c2.66,0,3.38,1.7,3.38,3.41v3.06a9.11,9.11,0,0,0,.13,1.93Zm-.24-4.2c-1.7,0-3.75.22-3.75,1.81a1.38,1.38,0,0,0,1.45,1.48,2.47,2.47,0,0,0,2.18-1.36c0-.12.12-.34.12-.46Zm4-7.77h1.48v11.9H199.3Zm3.8,10.5a4,4,0,0,0,2.05.56c1.2,0,1.68-.56,1.68-1.25s-.48-1.14-1.56-1.47c-1.56-.57-2.28-1.36-2.28-2.39,0-1.37,1.08-2.38,3-2.38a5.34,5.34,0,0,1,2.17.46l-.36,1.12a3.5,3.5,0,0,0-1.81-.44c-1,0-1.44.44-1.44,1.13s.49,1,1.69,1.36c1.56.57,2.28,1.25,2.28,2.5,0,1.48-1.2,2.49-3.25,2.49a4.81,4.81,0,0,1-2.4-.57Z"/></svg>