<svg id="Layer_1" data-name="Layer 1" xmlns="http://www.w3.org/2000/svg" viewBox="0 0 300 300"><defs><style>.cls-1{fill:#fa9c5c;fill-rule:evenodd;}.cls-2{fill:#4f83a7;}</style></defs><path id="Path_6" data-name="Path 6" class="cls-1" d="M214.06,245.83q-2-4.37-3.77-8.73a215.4,215.4,0,0,0-15.62-28c-13-19.67-29.85-36.32-49-50q-5.34-4-10.88-7.53a187.64,187.64,0,0,1-39.14,22.64c-2.15,1-4.54.58-5.73-1.59a4.19,4.19,0,0,1,1.39-5.76,180.22,180.22,0,0,0,32.62-17.88,29.77,29.77,0,0,0,3.35-2.2A339.84,339.84,0,0,0,81.4,122.5c-4-1.77-2-8.11,2.19-7.92,17.58,1,35,3.56,52.37,6.34,5.34,1,3.15,9.15-2.16,8.34-8.89-1.58-18-3-27.09-4q8.51,4.39,16.59,9.15,5.53,3.17,11.08,6.76c27.09-22.25,46.06-52.43,58.33-85.39,1.77-5.17,9.69-3.2,8.11,2.17a214.08,214.08,0,0,0-6.92,40.53c-3.77,46.44,6.31,93.11,24.31,135.8,1.06,2.38,2.11,4.69,3.16,7v.19a10.81,10.81,0,0,0,.39,1c2,4.56-5.74,7.73-7.7,3.36ZM195.86,196c-9.47-34-13.62-69.9-9.69-104.86A197.28,197.28,0,0,1,151,138q-4.55,4.17-9.12,7.95c14.85,9.93,28.89,21.25,40.94,34.35Q189.75,187.85,195.86,196Z"/><path id="Path_7" data-name="Path 7" class="cls-2" d="M194.48,34a8.77,8.77,0,1,1,4,11.93A9,9,0,0,1,194.48,34Zm22.35,224.2a8.67,8.67,0,0,1,11.66-4,8.93,8.93,0,0,1,4,11.91,8.76,8.76,0,0,1-15.62-7.93Zm-149.28-84a8.76,8.76,0,1,1,15.62,7.92,8.76,8.76,0,0,1-15.62-7.92Z"/></svg>