<svg id="Layer_1" data-name="Layer 1" xmlns="http://www.w3.org/2000/svg" xmlns:xlink="http://www.w3.org/1999/xlink" viewBox="0 0 300 300"><defs><linearGradient id="linear-gradient" x1="51.02874" y1="171.64999" x2="307.85834" y2="122.91426" gradientUnits="userSpaceOnUse"><stop offset="0" stop-color="#f1ac22"/><stop offset="0.9987" stop-color="#041d08"/></linearGradient></defs><path d="M249.84179,61.5306c.85751-7.15-1.72457-9.53973-8.87778-9.64409-6.39117-.09321-12.78963.14125-19.17627-.05247-6.43518-.19522-10.33915,2.65367-12.009,8.8103-1.04536,3.85427-2.23145,7.67065-3.51646,12.05736-3.98955-3.61194-7.22487-6.76712-10.69162-9.64418C166.23706,38.71365,123.76109,43.5426,94.43334,66.75211,55.66353,97.43384,39.874,154.32351,56.66387,200.792c17.138,47.43209,61.898,65.3858,105.20928,42.19885,8.26679-4.4256,15.51128-10.28517,23.13355-17.05832a18.33,18.33,0,0,1,1.47177,3.3437c3.5344,22.017,4.936,18.64635,23.82124,18.83822,11.41141.11584,14.51236-3.07731,16.09276-14.734,5.22922-38.56713,10.64527-77.109,15.9506-115.666C244.9187,98.9963,247.59232,80.28852,249.84179,61.5306Zm-67.6103,72.55678c-1.76757,9.6166-2.40421,19.45616-4.44832,29.0031-3.97991,18.5885-15.97348,30.6643-33.83,35.81053-18.29294,5.272-36.49008-10.1539-38.12522-31.07219-.2124-2.71737-.02908-5.46559-.02908-8.19956.22531-19.46915,5.71111-36.91079,20.98207-49.955,18.22522-15.56778,41.98971-11.49868,52.91386,8.64634A22.92546,22.92546,0,0,1,182.23149,134.08738Z" fill="url(#linear-gradient)"/></svg>