<svg id="Layer_1" data-name="Layer 1" xmlns="http://www.w3.org/2000/svg" viewBox="0 0 300 300"><path d="M145.16619,57.871c4.545,1.08488,9.15527,1.953,13.62191,3.29812,10.47756,3.15518,19.88668,8.244,27.64865,16.11484a17.7185,17.7185,0,0,0,1.92146,1.56258c.08129.062.28718-.03937.89675-.145v-14.67H250V236.03573H189.456V218.47366c-.79522-.06616-1.273-.2225-1.36463-.097-10.182,13.95368-24.34025,20.78055-41.0833,23.02321a8.12593,8.12593,0,0,0-1.84186.7291H126.94288a7.2388,7.2388,0,0,0-1.76825-.80474c-35.2936-5.54008-57.59061-26.434-69.88642-59.1347C52.48765,174.74144,51.61146,166.83926,50,159.11166V138.86353c1.60428-3.03254,1.26635-6.47306,2.02611-9.69094,7.81772-33.11117,26.302-56.86216,59.41732-67.70924,4.71533-1.54452,9.65253-2.41167,14.487-3.59232Zm6.79053,130.88319c23.60769.06119,39.31-15.368,39.27858-38.59537-.031-22.90611-15.79123-38.74935-38.70912-38.913-23.16389-.16538-39.42091,15.67763-39.60454,38.59593C112.7362,172.9856,128.49353,188.6934,151.95672,188.75422Z" fill="#fe6d09"/></svg>