<?xml version="1.0" encoding="UTF-8"?>
<svg id="Layer_1" xmlns="http://www.w3.org/2000/svg" version="1.1" viewBox="0 0 300 300">
  <!-- Generator: Adobe Illustrator 29.1.0, SVG Export Plug-In . SVG Version: 2.1.0 Build 142)  -->
  <defs>
    <style>
      .st0 {
        fill: #945b98;
      }

      .st1 {
        fill: #4074b5;
      }

      .st2 {
        fill: #2f327e;
      }

      .st3 {
        fill: #64bbea;
      }

      .st4 {
        fill: #673589;
      }

      .st5 {
        fill: #d96339;
      }
    </style>
  </defs>
  <path class="st5" d="M92.3,119.2l58,144.8,57.6-147.5s-2-14.4-15.6-35.2c-8.1-12.2-24-33.7-42-45.3-27.7,19.6-44.6,50.2-58,83.2Z"/>
  <path class="st0" d="M235,55.5l-84.7,208.5s-3.5-11.9-9.3-26.9c-6.8-16.5-10.7-34.1-11.5-52-.7-14.2.3-25.7,9.1-45.1,6.1-13.4,24.2-34.2,40.1-47.2,16.8-15.1,35.8-27.7,56.3-37.3Z"/>
  <path class="st3" d="M111.4,87.7c-23.8-22.3-46.4-32.1-46.4-32.1l30,72.6,16.4-40.6Z"/>
  <path class="st2" d="M150.3,264s2.7-12.4,6.2-27.8c5.7-25.3,10.9-60.8-5.5-95.7-2.6-5.6-5.5-10.9-8.6-15.9,0,0-33.2,45.9,7.9,139.4Z"/>
  <path class="st1" d="M130.7,177.6c2-30.6,14.3-48.5,14.3-48.5,0,0-5.3-10.9-15.6-23.2-8.9-10.6-20.8-21.4-20.8-21.4-6.7,11.3-12.4,23.1-17,35.4l58.6,144.1c-1.9-6.6-3.9-12.6-6.5-19.9-7.2-20.8-13.1-43.9-13.1-66.5Z"/>
  <path class="st4" d="M208.9,119.6l-58.6,144.5s6.5-42.4,6.5-70.2-11.9-64.7-11.9-64.7c6.3-9.3,13.5-17.9,21.5-25.8,15.3-15,25.9-21.7,25.9-21.7,7.2,11.9,12.8,24.6,16.6,38Z"/>
</svg>