<svg id="Layer_1" data-name="Layer 1" xmlns="http://www.w3.org/2000/svg" viewBox="0 0 300 300"><g id="acb-cross"><path id="acb-cross__cross" d="M250,140.39548v19.39736a4.46131,4.46131,0,0,1-4.51976,4.51978H168.83239a4.46131,4.46131,0,0,0-4.51977,4.51977v76.45952a4.46131,4.46131,0,0,1-4.51977,4.51977H140.20716a4.46132,4.46132,0,0,1-4.51978-4.51977v-76.2712a4.4613,4.4613,0,0,0-4.51977-4.51976H54.51977A4.46132,4.46132,0,0,1,50,159.98117V140.39548a4.46132,4.46132,0,0,1,4.51977-4.51978h76.45951a4.46131,4.46131,0,0,0,4.51978-4.51977V54.7081a4.46131,4.46131,0,0,1,4.51977-4.51978h19.58569a4.46132,4.46132,0,0,1,4.51978,4.51978v76.45951a4.46131,4.46131,0,0,0,4.51977,4.51977h76.45951A4.952,4.952,0,0,1,250,140.39548Z" fill="#00b5e2" fill-rule="evenodd"/><path id="acb-cross__wind" d="M237.759,217.04331H193.87948a1.62018,1.62018,0,0,0-1.5066,1.50659v1.88324a1.62018,1.62018,0,0,0,1.5066,1.50659H237.759a1.62017,1.62017,0,0,0,1.50659-1.50659V218.5499A1.48538,1.48538,0,0,0,237.759,217.04331Zm8.28625-8.09792v1.88324a1.62017,1.62017,0,0,1-1.50658,1.50659H200.65913a1.62017,1.62017,0,0,1-1.50659-1.50659v-1.88324a1.62017,1.62017,0,0,1,1.50659-1.50659h43.87949A1.386,1.386,0,0,1,246.0452,208.94539Zm-13.55933,19.209v1.88323a1.62017,1.62017,0,0,1-1.50658,1.5066H189.92467a16.51472,16.51472,0,0,1-7.9096-2.07157,15.59056,15.59056,0,0,1-7.9096-13.55931,15.09962,15.09962,0,0,1,4.51976-10.73448,11.72847,11.72847,0,0,1,3.38984-2.63652,14.52806,14.52806,0,0,1,4.70809-1.88325,1.9287,1.9287,0,0,0,1.12995-.94162h0v-.18832a22.08044,22.08044,0,0,1,1.69491-4.51977,15.89371,15.89371,0,0,1,13.74765-7.90961,15.69733,15.69733,0,0,1,10.92278,4.33145,32.78859,32.78859,0,0,1,2.25989,2.63654l.37665.565a1.51878,1.51878,0,0,0,1.69492.565h0c.18832,0,.18832,0,.37664-.18831l.18833-.18833a10.26327,10.26327,0,0,1,4.14312-.94162,8.754,8.754,0,0,1,3.9548.94162,8.64721,8.64721,0,0,1,3.76649,3.57816,13.07636,13.07636,0,0,1,.94162,2.44821v.565a1.62018,1.62018,0,0,1-1.50659,1.50659h-1.88325a1.4162,1.4162,0,0,1-1.31827-.94162h0v-.37664c-.18831-.37666-.18831-.565-.37664-.94163a4.45986,4.45986,0,0,0-7.533,0c-.18832.37665-.37665.565-.37665.94163h0a1.64046,1.64046,0,0,1-1.50659,1.12993h-1.88323a1.64046,1.64046,0,0,1-1.5066-1.12993v-.37666a9.83863,9.83863,0,0,0-1.31827-3.9548,10.91387,10.91387,0,0,0-9.41619-5.46139,10.68911,10.68911,0,0,0-9.41619,5.46139,11.349,11.349,0,0,0-1.5066,5.46139v.94162a1.62017,1.62017,0,0,1-1.50659,1.50659h-.94162a11.349,11.349,0,0,0-5.46139,1.5066,10.68911,10.68911,0,0,0-5.46139,9.41619,10.9139,10.9139,0,0,0,5.46139,9.4162,11.349,11.349,0,0,0,5.46139,1.50659h41.24294C231.92091,226.64784,232.48587,227.21281,232.48587,228.15443Zm-13.55932-33.71-.18832.18833c-.18832,0-.18832.18832-.37665.18832C218.54991,194.63277,218.73823,194.44444,218.92655,194.44444Z" fill="#00b5e2"/><path id="acb-cross__sun" d="M89.73635,192.56121a17.3258,17.3258,0,1,0,17.3258,17.3258A17.28023,17.28023,0,0,0,89.73635,192.56121Zm-2.44821-5.27307V175.9887a1.62018,1.62018,0,0,1,1.50659-1.5066H90.678a1.62019,1.62019,0,0,1,1.50659,1.5066v11.29944a1.62017,1.62017,0,0,1-1.50659,1.50658H88.79473A1.62016,1.62016,0,0,1,87.28814,187.28814Zm38.04143,21.65725v1.88324a1.62018,1.62018,0,0,1-1.50659,1.50659H112.52354a1.62018,1.62018,0,0,1-1.50659-1.50659v-1.88324a1.62017,1.62017,0,0,1,1.50659-1.50659H123.823A1.62017,1.62017,0,0,1,125.32957,208.94539Zm-33.145,23.54049v11.29943a1.62019,1.62019,0,0,1-1.50659,1.5066H88.79473a1.62018,1.62018,0,0,1-1.50659-1.5066V232.48588a1.62018,1.62018,0,0,1,1.50659-1.5066H90.678A1.48539,1.48539,0,0,1,92.18456,232.48588ZM67.13748,212.33522H55.838a1.62018,1.62018,0,0,1-1.50659-1.50659v-1.88324A1.62017,1.62017,0,0,1,55.838,207.4388H67.13748a1.62017,1.62017,0,0,1,1.50659,1.50659v1.88324A1.48538,1.48538,0,0,1,67.13748,212.33522Zm31.82674-22.03391a1.24526,1.24526,0,0,1,.18832-1.12993l5.838-9.79286a1.51481,1.51481,0,0,1,2.07157-.565l1.50659.94162a1.5148,1.5148,0,0,1,.565,2.07157l-5.838,9.79284a1.58539,1.58539,0,0,1-1.31827.75329,1.1323,1.1323,0,0,1-.7533-.18832l-1.50658-.94163A1.25122,1.25122,0,0,1,98.96422,190.30131Zm21.84557,36.72317-.94162,1.50659a1.58535,1.58535,0,0,1-1.31827.75329,1.13232,1.13232,0,0,1-.75329-.18831l-9.79284-5.838a1.51482,1.51482,0,0,1-.565-2.07157l.94162-1.50659a1.51481,1.51481,0,0,1,2.07157-.565l9.79284,5.838A1.56059,1.56059,0,0,1,120.80979,227.02448Zm-40.30131,3.57816-5.83805,9.79283a1.58534,1.58534,0,0,1-1.31826.75331,1.13223,1.13223,0,0,1-.7533-.18833l-1.50659-.94162a1.88024,1.88024,0,0,1-.7533-.94161,1.24529,1.24529,0,0,1,.18833-1.13l5.838-9.79284a1.51481,1.51481,0,0,1,2.07156-.565l1.50659.94162A1.60289,1.60289,0,0,1,80.50848,230.60264ZM58.6629,192.74952l.94162-1.50659a1.51479,1.51479,0,0,1,2.07156-.565l9.79285,5.838a1.88016,1.88016,0,0,1,.75329.94162,1.24528,1.24528,0,0,1-.18832,1.12994l-.94162,1.5066a1.5854,1.5854,0,0,1-1.31827.75329,1.13225,1.13225,0,0,1-.7533-.18833l-9.79284-5.838A1.51481,1.51481,0,0,1,58.6629,192.74952Zm49.34087,3.57816,9.79284-5.838a1.5148,1.5148,0,0,1,2.07156.565l.94162,1.5066a1.51481,1.51481,0,0,1-.565,2.07156l-9.79284,5.838a1.1323,1.1323,0,0,1-.7533.18832,1.42167,1.42167,0,0,1-1.31827-.75329l-.94162-1.50659A1.51482,1.51482,0,0,1,108.00377,196.32768Zm1.12994,41.61959a2.38851,2.38851,0,0,1,.18833,1.13,1.88029,1.88029,0,0,1-.7533.94161l-1.50659.94162a1.13224,1.13224,0,0,1-.7533.18833,1.42167,1.42167,0,0,1-1.31827-.75331l-5.838-9.79283a1.51481,1.51481,0,0,1,.565-2.07157l1.50658-.94162a1.51482,1.51482,0,0,1,2.07157.565Zm-37.66478-14.501-9.79285,5.838a1.13221,1.13221,0,0,1-.75329.18833,1.42169,1.42169,0,0,1-1.31827-.75329l-.94162-1.50659a1.51482,1.51482,0,0,1,.565-2.07157l9.79284-5.838a1.51481,1.51481,0,0,1,2.07157.565l.94162,1.50659A1.51479,1.51479,0,0,1,71.46893,223.44632ZM70.339,181.82675a1.51481,1.51481,0,0,1,.565-2.07157l1.5066-.94162a1.5148,1.5148,0,0,1,2.07156.565l5.838,9.79286a2.38847,2.38847,0,0,1,.18833,1.12993,1.88014,1.88014,0,0,1-.7533.94162l-1.50659.94163a1.13229,1.13229,0,0,1-.7533.18832,1.42164,1.42164,0,0,1-1.31826-.75329Z" fill="#00b5e2"/><path id="acb-cross__water" d="M226.08286,98.96422v1.88324a18.42077,18.42077,0,0,1-3.01317,8.85122,41.3664,41.3664,0,0,1-2.63654,3.38983,18.37216,18.37216,0,0,1-6.403,4.33145,20.88563,20.88563,0,0,1-7.72128,1.50659,19.1634,19.1634,0,0,1-14.12429-5.64971A16.23721,16.23721,0,0,1,189.548,109.887a18.42636,18.42636,0,0,1-3.01317-10.73446,24.40986,24.40986,0,0,1,2.25988-9.60452,25.31353,25.31353,0,0,1,2.25988-4.51977c.37666-.565,1.13-2.07156,2.63654-4.33145.75329-1.12995,1.69492-2.63654,2.82485-4.33145.94162-1.50659,2.07157-3.38983,3.38983-5.27307.7533-1.13,1.5066-2.44821,2.2599-3.76648v-.18832a39.84985,39.84985,0,0,0,2.07156-3.95481c.37665-.94162.75329-1.69491,1.12994-2.44821a1.51357,1.51357,0,0,1,2.63654.18833l.18832.37664c1.31827,2.82486,3.20151,6.403,5.08474,9.60452,5.27308,8.09793,8.09794,12.806,8.85123,13.936C224.57627,90.113,226.08286,94.82109,226.08286,98.96422Zm-5.46139,0a1.43847,1.43847,0,0,0-.37665-.94162l-.18832-.18833a1.43853,1.43853,0,0,0-.94162-.37664h-1.50659a1.45541,1.45541,0,0,0-1.50659,1.31826v.37665a10.76055,10.76055,0,0,1-10.1695,9.98117h-.18832a1.598,1.598,0,0,0-1.31827,1.50659v1.50659a1.90626,1.90626,0,0,0,.7533,1.31827c.18832.18832.37665.18832.75329.18832a15.22949,15.22949,0,0,0,9.22788-3.57815,21.48436,21.48436,0,0,0,2.07155-2.07156A15.22548,15.22548,0,0,0,220.62147,98.96422Z" fill="#00b5e2"/><path id="acb-cross__earth" d="M98.39925,60.92279,123.258,115.16007a1.84,1.84,0,0,1-1.50659,2.63654H59.98117a1.93033,1.93033,0,0,1-1.69492-2.63654L75.42373,72.78719a1.72287,1.72287,0,0,1,2.82486-.565l5.46139,5.838a1.69194,1.69194,0,0,0,2.82486-.37664l8.47458-16.94916A1.888,1.888,0,0,1,98.39925,60.92279ZM94.44444,88.98305c.565.37665,1.12995.94162,1.69492,1.31827.94162.565,1.69491.18832,2.63653-.37665,1.69492-.94162,5.27307-2.63653,3.9548-5.64972-1.31826-3.2015-3.57815-8.85122-4.70809-12.05273a1.70165,1.70165,0,0,0-3.20151-.18832c-2.25989,4.51977-4.7081,9.79284-6.968,14.50094a1.8005,1.8005,0,0,1-2.82486.565c-1.88324-1.88324-3.76648-3.57815-5.4614-5.27307a1.592,1.592,0,0,0-2.63653.37665c-3.57815,9.4162-4.14313,9.98117,1.31827,13.55932a1.56378,1.56378,0,0,0,2.25989-.37665c.75329-.94162,1.69491-1.88323,2.44821-3.01318a1.76081,1.76081,0,0,1,2.44821-.18832,10.76477,10.76477,0,0,1,1.50659,1.31827c.75329.75329,1.88324.37664,2.63653-.37665.7533-1.13,1.50659-2.25989,2.25989-3.57816A1.91231,1.91231,0,0,1,94.44444,88.98305Z" fill="#00b5e2"/></g></svg>