<svg id="Layer_1" data-name="Layer 1" xmlns="http://www.w3.org/2000/svg" viewBox="0 0 300 300"><defs><style>.cls-1{fill:#2e56a7;}.cls-2{fill:#77c47e;}</style></defs><g id="Group"><path id="Path" class="cls-1" d="M229.42,137.38a67.86,67.86,0,0,1,2.94,7.66,58.45,58.45,0,0,1,1.91,7.94,65.44,65.44,0,0,1,1,8.07,61.57,61.57,0,0,1,0,8.15,80.43,80.43,0,0,1-.27,8.21c-.28,2.69-.66,5.38-1.17,8.08A79.28,79.28,0,0,1,228.94,201q-1.65,3.63-3.63,7a69.59,69.59,0,0,1-4.24,6.64,74,74,0,0,1-4.93,6.22,71.73,71.73,0,0,1-5.47,5.68,68.66,68.66,0,0,1-6.16,5.34q-3.15,2.53-6.57,4.79t-7.05,4a75.77,75.77,0,0,1-7.39,3.42A98.3,98.3,0,0,1,167,248.85a97.3,97.3,0,0,1-34.15,0,98,98,0,0,1-16.49-4.65q-3.77-1.57-7.33-3.49t-7-4.11c-2.28-1.5-4.49-3.08-6.63-4.72a73.5,73.5,0,0,1-6.16-5.27q-3-2.67-5.62-5.61a74.07,74.07,0,0,1-4.92-6.23,68.32,68.32,0,0,1-4.25-6.63A74.93,74.93,0,0,1,70.93,201a83.45,83.45,0,0,1-4.73-15.6,81,81,0,0,1,0-32.44,83.22,83.22,0,0,1,4.73-15.6c1.14-2.38,2.37-4.7,3.69-7a77.66,77.66,0,0,1,4.31-6.64c1.51-2.15,3.13-4.22,4.86-6.23s3.56-3.92,5.48-5.75l1.5-1.5c.55-.46,1.07-.94,1.58-1.44L94,107.47l1.64-1.37a40.78,40.78,0,0,0,16.7,6.23,42.27,42.27,0,0,0,17.79-1.3,42,42,0,0,0,26.21-22.92,63.72,63.72,0,0,1,7.12.68q3.48.48,7,1.23a68.94,68.94,0,0,1,6.84,1.85q3.42,1,6.71,2.33,3.77,1.58,7.32,3.42c2.42,1.28,4.77,2.64,7,4.1s4.42,3,6.57,4.73,4.13,3.46,6.09,5.33,3.76,3.65,5.54,5.61,3.38,4.09,4.93,6.23a64.8,64.8,0,0,1,4.24,6.71,68.42,68.42,0,0,1,3.56,7"/><path id="Path-2" class="cls-2" d="M127.31,51.29a24.13,24.13,0,0,1,13.08,12.59,23.84,23.84,0,0,1,2,9,23.75,23.75,0,1,1-15.06-21.56Z"/></g></svg>