<svg id="Layer_1" data-name="Layer 1" xmlns="http://www.w3.org/2000/svg" xmlns:xlink="http://www.w3.org/1999/xlink" viewBox="0 0 300 300"><defs><linearGradient id="linear-gradient" x1="6376.0262" y1="6313.98481" x2="6380.03308" y2="6313.98481" gradientTransform="matrix(47.65651, 0, 0, -44.46521, -303804.62968, 280902.68439)" gradientUnits="userSpaceOnUse"><stop offset="0.2" stop-color="#2ebeef"/><stop offset="0.8" stop-color="#f47722"/></linearGradient></defs><g id="Group_163032-2" data-name="Group 163032-2"><path id="Path_86585" data-name="Path 86585" d="M124.61536,229.03009c-23.9411-5.44535-45.71447-30.13575-15.703-65.33616,8.41444-9.87294,13.87582-15.54668,21.1964-23.23991a28.56494,28.56494,0,0,1,19.88212-8.36636,29.02585,29.02585,0,0,1,19.8581,8.41444c7.61308,7.61308,12.6417,13.12254,21.23647,23.19183,30.01155,35.20041,8.23814,59.89482-15.69895,65.33616a118.56737,118.56737,0,0,1-50.75914,0M150.003,60.91747a26.54933,26.54933,0,0,0-9.68463,1.747,31.88661,31.88661,0,0,0-10.71841,6.411,420.24727,420.24727,0,0,0-41.347,40.83011C79.6542,119.96688,54.68732,145.691,54.523,174.41634v.557a47.79815,47.79815,0,0,0,6.29881,23.4723c20.03439,35.69731,68.6218,40.63776,89.17711,40.63776s69.12668-4.94048,89.17709-40.63776c21.04816-37.47632-16.47225-75.73-27.42709-88.528A420.065,420.065,0,0,0,170.402,69.0875a31.88658,31.88658,0,0,0-10.71841-6.411,26.554,26.554,0,0,0-9.50833-1.747h-.1763" fill="url(#linear-gradient)"/></g></svg>