<svg id="Layer_1" data-name="Layer 1" xmlns="http://www.w3.org/2000/svg" viewBox="0 0 300 300"><defs><style>.cls-1{fill:#020202;}.cls-2{fill:#040404;}</style></defs><path class="cls-1" d="M239.3,174l-.5,0v0h.5Z"/><path class="cls-2" d="M213.52,157.66l.07.14h0l0-.15Z"/><polygon class="cls-2" points="213.55 157.66 213.52 157.7 213.52 157.66 213.55 157.66"/><path class="cls-2" d="M214.46,142.63v1.66h-.22a3.35,3.35,0,0,1,.07-1.66A.08.08,0,0,0,214.46,142.63Z"/><path class="cls-2" d="M213.24,136.56a.71.71,0,0,1-.18.47.29.29,0,0,1,.05-.45Z"/><path class="cls-2" d="M212.92,137.34c.07.08.08.15,0,.22C212.83,137.48,212.83,137.41,212.92,137.34Z"/><path class="cls-1" d="M244.67,116.72c-4.61-11.57-10.79-22.31-19.42-31.44a117.87,117.87,0,0,0-18.58-15.81c-5.23-3.62-10.68-7-16.67-9.06s-11.51-5.64-18.19-5.4a7.78,7.78,0,0,1-3.21-.91c-4.21-1.83-8.79-1.75-13.17-2-8.07-.4-15.9,2.13-23.88,3.09a51.35,51.35,0,0,0-13.92,3.87c-9.66,4.08-19.18,8.36-26.5,15.6-.43,1.63-.14,2.92-1.32,4a32.17,32.17,0,0,1,9.9,11c4.06,0,7.69-.26,11.18-1.93,2.84-1.35,5.44-3.46,8.88-3.24A1.7,1.7,0,0,0,121,84c1.26-1.46,3-1.65,4.68-1.71a11,11,0,0,0,4.07-1.06c3.19-1.36,6.43-2.6,10-2.35a18.92,18.92,0,0,0,4.24-.29c4.94-.81,10-.57,14.93-1s9.38,1.74,14,3A78,78,0,0,1,201.7,94.93c5.1,4.14,9.21,9.11,13.27,14.12,4.39,5.42,7.27,11.69,9.82,18.21,3.26,8.34,4.16,16.91,3.83,25.67a80.53,80.53,0,0,1-6.42,27.77,74.48,74.48,0,0,1-19.87,27.55A75.69,75.69,0,0,1,167,225.62a87,87,0,0,1-33.83.33,84,84,0,0,1-39.9-18.58c-4.59-3.91-8.81-8-11-13.89-.7-1.91-1.54-4.16-3.77-5.09.2-1.39-.16-2.81-.77-3.18l-.51.2c-.18-.33-.16-.55.2-.64,0-1.71-2.14-1.79-2.26-3.32-.09-2.92-1.86-5.42-2.28-8.26h0a2.58,2.58,0,0,0-.68-2L72.19,170c.41-1-.47-1.58-.85-2.29,1.69-2.19-1.38-4.42.27-6.57-.71-.11-1.22-.34-1.4-1-.29,0-.59-.08-.63-.47.23-.42.47,0,.71,0,.21-2.45-.58-4.94.58-7.42-1.58-.23-1.3-1.29-1.31-2.19A58.89,58.89,0,0,1,71,138.28a49.52,49.52,0,0,0,.44-6l-1.07,0a20.6,20.6,0,0,0-2.39,8.6c-1.23,4-1.3,8-1.46,11.79-.93-2.09-.87-3.12-.18-5.58a12,12,0,0,0,.23-3.74c-.17-4.25,2.17-8,2.4-12.21.11-2.09,1.82-4.09,2.81-6.12l.39-.8.52-.74.09-.09c1.57-1.15,0-2.8.77-4.32.27-.2.72-.56,1.31-1-1-1.68,1-2.53,1.19-4.08.16-1.28,2.41-1.78,2.23-3.49,2.12-1.39,2.12-1.39,1.59-2.71-1.27,1.23-3.15,1.69-4,3.39l-.92,0-.32.26.25-.32a1.34,1.34,0,0,1,.15-.64,1.69,1.69,0,0,1,.4-.53,4,4,0,0,0,1.12-2.2,6.51,6.51,0,0,0-3.75,3.06c-1.37,2.18-2.44,4.58-4.38,6.37,1,.45.82.88,0,1.31-.42-.2-.4-.56-.39-.93-1.08,3.29-2,6.62-3.29,9.85-.8,2.08-.59,4.46-2,6.35v.1c.37.16.49.31.47.47a.3.3,0,0,1,0,.15c-.1.21-.35.42-.42.63a.67.67,0,0,1,0,.24c0,.4-.07.8-.1,1.2v2.6c-1.07.2-.68-1-1.29-1.06a.78.78,0,0,0-.28.22c-.31-1.41.37-2.77.35-4.16-.3-1.45.25-2.82.44-4.22,1.53-4.35,2.52-8.9,4.65-13,.22-.42.79-1,0-1.52l-.09,0-.11,0c-.12.21-.18.2-.18,0l.18,0h0l.1,0,.11,0c-.24-1.82,1-3.13,1.59-4.68l-.2-.42a.63.63,0,0,1-.38.22.31.31,0,0,1-.32-.19.3.3,0,0,1,0-.36.6.6,0,0,1,.37-.15c-.27-.51-.25-.88.45-.9a.8.8,0,0,1-.2-.52.32.32,0,0,1,.14-.22h0l.14-.08a1.91,1.91,0,0,1,.39-.08A6.57,6.57,0,0,1,70,104.19a6,6,0,0,1,.53-.58,4.14,4.14,0,0,1,.63-.51,3.1,3.1,0,0,1,1-.42c-.27-.14-.37-.28-.37-.42a.54.54,0,0,1,0-.22c.08-.17.24-.34.33-.51.08-.8,1.25-.51,1.33-1.47.1-.8-.46-1-1.24-1-.74,1.08-2.11,1.47-2.77,2.72a12.79,12.79,0,0,1-4.07,4.4c0,.48.17,1-.28,1.37-3.67,3.24-5.11,7.83-7.29,12-.14.28-.24.43-.39.45a.63.63,0,0,1-.35-.1h0c1.33-3,1.86-6.23,3.24-9.19A13.25,13.25,0,0,1,61,109.5a1.09,1.09,0,0,0-.48-1c-.2.19-.53,0-.72.35-1.9,4-3.61,8.09-5.27,12.22a72.92,72.92,0,0,0-4.66,19.84,96.28,96.28,0,0,0,1.62,29.55c4,19.29,12.54,36.15,26.45,50.1,11.37,11.39,25.14,18.77,40.57,23.18,6.65,1.91,13.29,3.67,20.28,3.66,1.71,0,3.49-.55,5.12.46l0,0,6-.15c13.52-.35,26.68-2.3,39.37-7.43a92.69,92.69,0,0,0,33-22.23A101.08,101.08,0,0,0,250,159,85.64,85.64,0,0,0,244.67,116.72ZM74,112.59c0,1.17-.9,1.78-1.4,2.39a2.94,2.94,0,0,1-.32,1,1.06,1.06,0,0,1,.32-1A3.15,3.15,0,0,1,74,112.59ZM67,110.78c.17.14.24.29,0,.42C66.83,111.06,66.79,110.92,67,110.78ZM55.77,126.17c-.25-.25-.27-.48,0-.71C56.05,125.71,56.07,126,55.77,126.17Zm.5-1.75a1,1,0,0,1,.17-1.52c.06-.27.13-.53.26-1.08.1.53.15.78.19,1A2.32,2.32,0,0,1,56.27,124.42Zm.84-4.34.23,1.43C56.79,120.91,57.11,120.48,57.11,120.08ZM61,148.66l-.75,0c-.14-1.84-.52-3.67.26-5.53.29-1.21-.23-2.5.32-3.69.06,1.23.12,2.46.17,3.69Zm8.89,6.92c.33.76.38,1.21,0,1.74C69.48,156.83,69.5,156.37,69.84,155.58Z"/></svg>