<?xml version="1.0" encoding="UTF-8"?>
<svg id="Layer_1" xmlns="http://www.w3.org/2000/svg" version="1.1" xmlns:xlink="http://www.w3.org/1999/xlink" viewBox="0 0 300 300">
  <!-- Generator: Adobe Illustrator 29.1.0, SVG Export Plug-In . SVG Version: 2.1.0 Build 142)  -->
  <defs>
    <style>
      .st0 {
        fill: url(#linear-gradient);
      }
    </style>
    <linearGradient id="linear-gradient" x1="71.3" y1="426" x2="257.8" y2="426" gradientTransform="translate(0 -276)" gradientUnits="userSpaceOnUse">
      <stop offset=".3" stop-color="#f3c237"/>
      <stop offset=".4" stop-color="#71fae4"/>
      <stop offset=".5" stop-color="#83acff"/>
      <stop offset=".8" stop-color="#970c81"/>
    </linearGradient>
  </defs>
  <path class="st0" d="M91.3,75.3c3.7,0,7.4,1,10.4,3.1,1.3.9,2.5,2,3.5,3.2,5.9,6.8,5.8,16.9-.1,23.6h0l-1.2,1.1c-3.2,3.1-4.6,6.2-4,9.1.7,2.6,2.6,4.7,5.1,5.7l.5.2h.2c.7.4,1.2.9,1.7,1.5.4.4.7.9.9,1.4h0c0,0,.2.8.2.8.4,1.5,3.1,3.5,6.4,4.9,2,.9,4.2,1.3,6.4,1.4,1.9,0,3.8-.5,5.2-1.7l.9-.8h.1c.2-.2.4-.3.6-.4,4.9-3,11.3-1.4,14.3,3.5,1.6,2.7,2,5.9.9,8.9-.1.4-.2.9-.2,1.3-.1,2.4.9,4.7,2.6,6.4,1.6,1.4,3.6,2.1,5.7,2,1.1,0,2.2-.1,3.2-.4l1-.2h0c2.2-.3,4.4-.2,6.5.4h0l.9.3c1,.3,2,.5,3,.5,1.7,0,3.3-.4,4.7-1.3,3.7-2.2,4.9-6.6,3.4-11.7-2.7-9.3.3-19.3,7.6-25.6,1-.8,2-1.6,3.1-2.2,11.5-7,26.6-3.4,33.7,8.2,1,1.6,1.8,3.3,2.4,5.1,1.5,4.6,4,7.7,7.1,8.8.9.3,1.9.5,2.9.5,1.8,0,3.6-.5,5.2-1.5.7-.4,1.3-.9,1.8-1.4l.6-.6h0c.4-.4.9-.7,1.3-1,4.9-3,11.3-1.5,14.4,3.4,2.7,4.4,1.8,10.1-2.2,13.5-.7.6-1.4,1.1-2.3,1.5h-.2c0,0-.8.4-.8.4-.5.2-1,.4-1.4.7-2.1,1.4-3.5,3.7-3.7,6.3-.3,2.7.5,5.1,1.4,5.9l.5.5h0c.2.3.3.6.4.9,1.1,2.2.2,4.9-2,6h0c0,0-.2,0-.3.1-.6.3-1.2.4-1.9.4-2.5,0-4.6-2-4.6-4.5,0-1.4.6-2.7,1.6-3.5.2-.2.5-.4.8-.5h0c1.3-.8,2.8-3.6,2.9-6.7.2-2.7-1.1-5.2-3.3-6.7l-.7-.6h-.1c-.4-.5-.8-.9-1.2-1.3-.2-.2-.4-.4-.6-.7h0c0-.1-.4-.8-.4-.8-1.4-2.3-3.5-3.9-6.1-4.6-.7-.2-1.4-.3-2.1-.3-1.7,0-3.3.5-4.8,1.4-2.1,1.3-3.8,3.1-5.1,5.2-6.7,10.5-20.2,14.4-31.4,8.9-1.8-.9-3.7-1.4-5.6-1.4-1.6,0-3.2.4-4.5,1.3-3.1,2-4.6,5.6-4,9.1v.9h.1c.8,7.2-3.6,14-10.5,16.1-4.4,1.4-7.2,4.2-7.6,7.7-.2,3,.9,5.9,3,7.9l.7.7h0c1.7,2.1,2.5,4.8,2.3,7.5-.4,5.4-5,9.6-10.4,9.6h-1.6c-1-.2-2-.2-3-.3-2.2,0-4.3.5-6.2,1.6-2.6,1.6-4.3,4.3-4.8,7.3v.6h-.1c-.3.8-.7,1.5-1.4,2.1-.2.2-.4.3-.6.4-2.1,1.3-4.8.7-6.1-1.4-1.2-1.9-.8-4.3.9-5.8.6-.5,1.3-.9,2-1h.6c1.7-.1,3.4-.7,4.9-1.6,2.5-1.5,5.4-4.8,5-11.6v-.8c0-3,1.4-5.9,3.7-7.9.5-.5,1.1-.9,1.7-1.3h.1c0,0,.9-.4.9-.4.6-.2,1.1-.5,1.6-.8,2.5-1.4,4.2-4,4.5-6.8.2-2.1-.4-5.3-4.3-8.6-.6-.5-1.2-1.1-1.7-1.7-3.2-3.8-4.3-8.9-3-13.7h0l.4-1.1c1.6-4.5.6-7.4-.6-9-1.4-1.9-3.6-3.1-6-3.3h-.4c-.3,0-.6,0-.9.1-.8.2-1.6.3-2.4.3-3.1,0-6-1.3-8-3.7-1-1.1-1.8-2.5-2.1-4h0c0-.1-.2-1.2-.2-1.2-.5-3.5-4.2-5.7-6.3-6.7-2.4-1.1-5.1-1.8-7.7-1.9-1,0-1.9.1-2.7.6l-.8.6h-.1c-.7.4-1.5.6-2.3.6-1.7,0-3.3-.8-4.3-2.1-1.4-1.5-1.8-3.8-1-5.7h0c0-.1.4-.8.4-.8,1.3-2.3,1.5-5.2.4-7.6-1.3-2.6-4.4-4.2-8.9-4.6-6.4-.5-12.1-4.4-14.9-10.2-3-5.8-2.5-12.9,1.4-18.1.9-1.3,2-2.5,3.2-3.5,2.1-1.8,4.5-3,7.1-3.7,1.5-.3,3-.5,4.4-.4M238.6,129.1h0M155.7,149.7h0M91.3,73.4h0c-1.6,0-3.3.2-4.9.5h0c-2.9.8-5.6,2.2-7.9,4.1-1.3,1.1-2.5,2.4-3.5,3.9-4.3,5.9-4.9,13.7-1.5,20.2.7,1.5,1.7,2.9,2.7,4.2,3.4,4.1,8.3,6.6,13.6,7,2.6.2,6,1,7.3,3.5.8,1.8.7,4-.3,5.7l-.4.7h0c0,.2-.1.3-.2.4-1.1,2.6-.6,5.7,1.3,7.8,1.4,1.7,3.5,2.8,5.8,2.8,1.1,0,2.2-.3,3.2-.8h.2c0-.1.1-.2.1-.2h0l.8-.6c.5-.2,1.1-.3,1.6-.3,2.4.1,4.7.7,6.9,1.7,1.4.7,4.8,2.5,5.2,5.2l.2,1.1c0,0,0,.1,0,.2h0c.5,1.9,1.3,3.5,2.5,4.8,3,3.5,7.7,5.1,12.2,4,.2,0,.3,0,.5,0h.2c1.8.1,3.5,1,4.6,2.5,1.3,1.8,1.4,4.3.3,7.3l-.4,1.1c0,.2-.1.4-.1.6-1.5,6.2.6,12.7,5.5,16.8,3.3,2.8,3.8,5.3,3.7,7-.3,2.3-1.6,4.2-3.6,5.3-.4.3-.9.5-1.3.7l-.9.4h-.2c0,0-.1.1-.1.1-.8.4-1.5.9-2.1,1.5-2.7,2.3-4.3,5.7-4.4,9.3v.8s0,0,0,0c.3,4.7-1,8-4,9.8-1.2.7-2.6,1.2-4,1.3h-.6c0,0-.3,0-.3,0-1.1.2-2,.7-2.8,1.4-1.3,1.1-2.1,2.6-2.2,4.3-.3,3.5,2.2,6.6,5.7,6.9,1.4.1,2.8-.2,3.9-.9.3-.2.6-.4.8-.6,1-.8,1.7-1.8,2-3h0v-.8c.5-2.4,1.9-4.6,4-5.9,1.6-.9,3.4-1.4,5.2-1.3.9,0,1.8,0,2.7.2h1.9c6.4,0,11.8-4.9,12.3-11.4.3-3.2-.7-6.4-2.7-8.9,0,0-.1-.1-.2-.2h0l-.6-.6c-1.7-1.6-2.6-4-2.4-6.3.3-2.7,2.6-4.9,6.3-6.1,2.2-.7,4.2-1.8,6-3.3,4.2-3.6,6.4-9,5.9-14.5,0-.2,0-.3,0-.5l-.2-.9c-.5-2.8.7-5.6,3.1-7.2,1.1-.6,2.3-1,3.5-.9,1.7,0,3.3.5,4.8,1.2,12.1,5.9,26.6,1.7,33.8-9.6,1.1-1.8,2.7-3.4,4.5-4.6,1.1-.7,2.4-1.1,3.8-1.1.5,0,1.1,0,1.6.2,2,.6,3.8,1.9,4.9,3.7l.4.7h0c0,.2,0,.2,0,.2.2.2.3.5.5.7l.2.2c.4.5.9,1,1.4,1.4h0c0,0,.1.2.1.2l.7.6h0c1.7,1.2,2.6,3.1,2.4,5.1,0,2.6-1.3,4.7-1.9,5.1h0c-.4.2-.7.5-1.1.7-1.3,1.1-2.1,2.7-2.3,4.4-.3,3.6,2.3,6.7,5.9,7h0c.2,0,.4,0,.6,0,3.4,0,6.2-2.6,6.5-5.9,0-1.2-.1-2.3-.7-3.4v-.2c-.2-.3-.4-.6-.6-.9h0c0-.2-.2-.3-.2-.3l-.5-.5c-.7-1.3-1-2.8-.8-4.3.1-2,1.1-3.7,2.7-4.9.3-.2.7-.4,1.1-.5h.1l.8-.3h.2c1-.5,1.9-1.1,2.7-1.8,5-4.6,5.4-12.4.8-17.5-4.3-4.7-11.4-5.4-16.5-1.6-.1,0-.2.1-.3.2h-.1l-.6.6c-.5.5-1,.9-1.5,1.2-1.2.8-2.7,1.2-4.1,1.3-.8,0-1.5-.1-2.3-.4-2.5-.9-4.6-3.6-5.9-7.6-4.5-13.8-19.3-21.4-33.2-17-2,.6-3.9,1.5-5.7,2.6-1.2.7-2.3,1.5-3.4,2.4-8,6.8-11.2,17.6-8.3,27.6,1.3,4.3.3,7.8-2.6,9.5-1.1.7-2.4,1-3.7,1-.8,0-1.6-.1-2.3-.4l-.9-.3c-.2,0-.3,0-.5-.1-1.4-.4-2.8-.5-4.3-.5-.7,0-1.4,0-2.2.1h-.6l-1,.2c-.9.2-1.8.3-2.8.3-1.6,0-3.2-.5-4.4-1.5-1.4-1.3-2.1-3-2-4.9,0-.2,0-.5.1-.7,2.3-6.4-1.1-13.5-7.6-15.8-3.5-1.2-7.4-.8-10.5,1.1h0c-.2,0-.4.2-.6.3h0c-.1,0-.2.1-.3.2l-.9.8c-1.1.9-2.6,1.3-4,1.2-1.9,0-3.9-.5-5.7-1.2-3.3-1.3-5-3.1-5.2-3.6h0c0-.1-.2-.8-.2-.8,0,0,0,0,0,0h0c-.3-.8-.7-1.4-1.2-2-.7-.8-1.5-1.4-2.4-1.8h-.2c0,0-.1,0-.1,0l-.5-.3h-.1c-1.9-.8-3.3-2.4-3.8-4.3-.6-2.7,1.6-5.5,3.5-7.3l1.1-1.1h0l.2-.2c3.2-3.6,5-8.2,5-13,0-4.8-1.7-9.5-4.8-13.2-1.1-1.3-2.4-2.5-3.8-3.5-3.4-2.3-7.5-3.5-11.6-3.5h0Z"/>
  <g>
    <path d="M229.3,182.4v-18.9c0-5.5-1.8-7.5-5.4-7.5s-5.8,2.4-5.8,7v19.4h-10.5v-19.3c0-4.6-1.6-7.1-5.2-7.1s-5.9,2.7-5.9,7.5v18.9h-10.5v-35.1h9.8v3.7h.1c1.8-3.3,5.2-4.9,9.7-4.9s7.9,2.3,10.1,6.2c2.3-3.9,6.6-6.3,11.1-6.2,7.8,0,13,4.8,13,14.6v21.7h-10.5Z"/>
    <path d="M43,182.4v-3.8h-.1c-1.5,3.1-5.7,5-10.3,5-10.4,0-17.6-8.2-17.6-18.7s7.5-18.7,17.5-18.7,8.3,1.7,10.3,4.9h.1v-3.7h10.5v35.1h-10.5ZM43,164.9c0-4.9-4-8.9-8.9-8.9h0c-4.9,0-9,4-9,8.9,0,4.9,4,9,8.9,9,4.9,0,9-4,9-8.9h0s0,0,0,0Z"/>
    <path d="M121.5,157.2c0-2-1.5-2.7-3.2-2.7s-3,1-3,2.3c0,1.9,1.7,2.8,6.6,4.1,8.3,2.2,11,5.6,11,10.7,0,7.3-6.3,11.9-14.3,11.9s-13.5-4.5-14.3-11.6h10.5c.3,2.2,1.9,3.2,4,3.2s3.7-1.1,3.7-2.7-1.2-3-6.5-4.6c-8.9-2.7-11.3-6.2-11.3-10.3,0-7,6.5-11.4,13.6-11.4s13,4.2,13.5,11h-10.3Z"/>
    <path d="M158.2,183.5c-10.7,0-18.9-7.9-18.9-18.6s8.4-18.6,18.9-18.6,18.9,7.9,18.9,18.5-8.3,18.8-18.9,18.8ZM166.7,164.9c-.2-4.6-4.2-8.2-8.8-8-4.6.2-8.2,4.2-8,8.8.2,4.5,3.9,8,8.4,8,4.8-.1,8.5-4.1,8.4-8.8Z"/>
    <path d="M258.5,168.1c.6,4,3.9,6.6,8.2,6.6,2.6,0,5-1.2,6.4-3.3h10.7c-3.4,7.6-9.7,12.1-17.1,12.1-10.3,0-18.6-8.3-18.6-18.6h0c0-10.1,8.1-18.8,18.4-18.8s18.5,8.3,18.5,19.1c0,.9,0,1.9-.3,2.8h-26.3ZM274.5,161c-.9-3.7-4.3-6.2-8-6-3.7-.2-7.1,2.4-7.9,6h15.9Z"/>
    <path d="M87,182.4l-7-10.9-7.1,10.9h-12.6l13.3-18.8-11.8-16.3h12.6l5.7,9.2,5.6-9.2h12.4l-11.8,16.3,13.6,18.8h-12.8Z"/>
  </g>
</svg>