<svg id="Layer_1" data-name="Layer 1" xmlns="http://www.w3.org/2000/svg" viewBox="0 0 300 300"><defs><style>.cls-1{fill:#6a6b6d;}.cls-2{fill:#45bcab;}.cls-3{fill:#47bcab;}.cls-4{fill:#49bcaa;}.cls-5{fill:#54bba3;}.cls-6{fill:#61ba9a;}.cls-7{fill:#f8db1e;}.cls-8{fill:#e0d32f;}.cls-9{fill:#c2cb46;}.cls-10{fill:#fad91a;}.cls-11{fill:#9ec26b;}.cls-12{fill:#7dba8f;}.cls-13{fill:#fad913;}.cls-14{fill:#ead62e;}</style></defs><path id="Logo_white_" data-name="Logo white " class="cls-1" d="M169.15,241.17H120.31V129.35h48.84c20.29,0,37.42,10.15,37.42,31.27a24.48,24.48,0,0,1-16.5,23,27.82,27.82,0,0,1,20.09,26.63c0,23.7-19.88,30.88-41,30.88Zm-34.89-63.85h35.52c13.32,0,23-4.86,23-16.48,0-12.47-10.15-18.82-23.67-18.82H134.26Zm0,50.53h34.89c11.62,0,27.06-3,27.06-18.18-.22-14-14.38-19.88-26.43-19.88H134.26Z"/><path class="cls-2" d="M60.11,243.12c-3.07-4.8-5.67-8.88-8.79-13.75L80.7,219.15l.56.86Z"/><path class="cls-3" d="M37.83,189.81c-.41-5.31-.78-10.09-1.24-16l30,5,.29,1.23Z"/><path class="cls-2" d="M68.23,158.05l-30.56,1.6,3.1-15.51L68.54,156.9Z"/><path class="cls-2" d="M40.34,201.51l30.43-2.12.36,1.15L45.69,216.85C43.88,211.66,42.27,207.06,40.34,201.51Z"/><path class="cls-4" d="M51.8,116.32l23,18.67-.56,1.14-29.06-5.34Z"/><path class="cls-5" d="M59.66,104.94,69.77,93,87.23,116.6l-.62,1Z"/><path class="cls-6" d="M109.55,110.08c-6.13-4.73-12.34-9.36-18.37-14.21-8.29-6.68-16.45-13.54-25.45-21L88.46,58.44c1.45,3.33,2.72,6,3.84,8.83q8.63,21.42,17.19,42.86Z"/><path class="cls-7" d="M232.76,134.4l23.64-19.51,7,14.23-30.16,6Z"/><path class="cls-8" d="M184.51,91.47c1.2-9.5,2.41-19,3.72-29.31l14.67,5.62c-6.16,8.57-11.81,16.44-17.47,24.3Z"/><path class="cls-9" d="M163,86.09c-1.3-9.37-2.6-18.74-4-28.83l15.55,1.36c-3.7,9.64-7.13,18.61-10.56,27.57Z"/><path class="cls-10" d="M221.45,115.82,238.1,91.05l10.62,12.43-27.34,12.26Z"/><path class="cls-11" d="M147.08,56.88c-1.22,10.5-2.32,20-3.42,29.52l-.93.19L131.84,58.93Z"/><path class="cls-12" d="M120.68,91.77,103.31,68.22l14.29-5.89,4.23,29.2Z"/><path class="cls-13" d="M211,85.88l4.15-11.29,13.1,9-10,8.08Z"/><path class="cls-14" d="M211,85.88l7.26,5.75-13.12,11.66-.88-.64Z"/><path class="cls-10" d="M223.37,121.7l-.45.46c0-.1.05-.23.11-.28a1.76,1.76,0,0,1,.41-.1Z"/><path class="cls-6" d="M107.5,114.1l.31.2-.25-.25Z"/><circle class="cls-1" cx="71.77" cy="267.87" r="0.79"/><circle class="cls-1" cx="31.79" cy="285.15" r="0.79"/></svg>