<?xml version="1.0" encoding="UTF-8"?>
<svg xmlns="http://www.w3.org/2000/svg" version="1.1" viewBox="0 0 300 300">
  <defs>
    <style>
      .cls-1 {
        fill: #426ea9;
      }

      .cls-2 {
        fill: #7fb058;
      }

      .cls-3 {
        fill: #8b806d;
      }
    </style>
  </defs>
  <!-- Generator: Adobe Illustrator 28.6.0, SVG Export Plug-In . SVG Version: 1.2.0 Build 709)  -->
  <g>
    <g id="Layer_1">
      <g>
        <path class="cls-1" d="M65,222.4c6.5-4.6,14.2-7.2,22.2-7.3,14.8,0,18.4,4.4,28,10.1,7.9,4.7,13,5.5,25.2,2-5.2,4-11.2,6.9-17.6,8.3-5.6,1-11.3.6-16.6-1.3-5.3-2-8.8-5.9-13-9.2-1-.8-2.1-1.5-3.2-2.1-2.5-1.3-5.1-2-7.9-2.3-2.8-.3-5.6-.4-8.3-.3-1.7,0-3.3.4-4.9.8l-2.4.6c-.5.1-.9.3-1.3.6Z"/>
        <path class="cls-3" d="M235,224.1c-7.6-4.3-15.8-7.3-24.4-9-7.7-1.2-15.6-.8-23.2,1-3.7.9-7.4,2.1-10.9,3.6-3.5,1.7-7,3.1-10.7,4.3-6.7,1.8-11.7-.7-16.7-3.2-3.7-2.4-7.9-4.1-12.2-5.1-5.6-.4-11.3.6-16.4,2.9-1.4.6-2.8,1.3-4.1,2l-2,1.2c5.6-1.3,11.8-3,17.6-1.5,2.3.7,4.5,1.9,6.3,3.5,6.5,5.5,14,12.2,23.2,12.2,6.6.1,13.1-1.7,18.7-5.2,1-.6,2-1.1,3-1.7l2.7-1.5c3.3-1.9,6.7-3.4,10.2-4.7.8-.3,1.6-.6,2.5-.8,3-.9,6.1-1.5,9.2-1.8,9.3-.5,18.6.7,27.4,3.6Z"/>
        <polygon class="cls-3" points="164.8 147.2 207.3 121.1 163 145.2 162.6 140 178.6 92.3 160.1 139.2 134.2 94.5 157.8 140.3 157.5 144.3 109.5 127 156.3 146.6 114.3 164 157.3 148.7 154.5 200.8 138.2 209.9 151.9 208.4 146.9 213.8 161 211.8 175 213.8 170 208.4 183.8 210 167 200.7 163.3 149.2 206.1 157.3 164.8 147.2"/>
        <g>
          <path class="cls-2" d="M175.9,133.6c0-2-2.5-3.2-2.5-3.2-1,1-1.6,2.4-1.6,3.8.2,1.6,2.4,3.2,2.4,3.2,1.1-1,1.7-2.4,1.6-3.8Z"/>
          <path class="cls-2" d="M156.4,123.8c-.7,1.3-.9,2.9-.6,4.3,1.5,0,3-.5,4-1.5.9-1.3,1.2-3,.7-4.5-1.6,0-3,.6-4.2,1.7Z"/>
          <path class="cls-2" d="M144.9,138.2c1.2-.8,1.9-2.1,2.1-3.5.2-2.1-2.2-3.8-2.2-3.8-1.2.9-1.9,2.3-2.1,3.8.3,1.4,1.1,2.7,2.2,3.6Z"/>
          <path class="cls-2" d="M183.3,95.5c3.6,1.9,7.8,2.4,11.8,1.2,4.3-2,6.7-9.3,6.7-9.3-3.4-2.1-7.4-2.6-11.2-1.5-5.6,1.8-7.2,9.6-7.2,9.6Z"/>
          <path class="cls-2" d="M194.2,102.6c-2.3-2.2-5.4-3.4-8.6-3.2-4.8.4-7.6,6.3-7.6,6.3,2.5,2.3,5.8,3.4,9.1,3.2,3.8-.9,7.1-6.3,7.1-6.3Z"/>
          <path class="cls-2" d="M173.9,114.2c1.5,1.5,3.5,2.3,5.6,2.4,2.5-.3,4.7-3.6,4.7-3.6-1.4-1.5-3.3-2.4-5.3-2.5-3.1,0-5,3.7-5,3.7Z"/>
          <path class="cls-2" d="M178.1,122.4c-.9-1.2-2.3-2-3.8-2.1-2.2,0-3.9,2.3-3.9,2.3,1,1.2,2.4,2,4,2.1,1.9,0,3.8-2.3,3.8-2.3Z"/>
          <path class="cls-2" d="M173.3,91.8s3.8-7,.8-12c-2.2-3.3-5.6-5.6-9.5-6.2,0,0-3,7.1-1,11.5,2.2,3.4,5.7,5.9,9.7,6.8Z"/>
          <path class="cls-2" d="M170.7,102.8s1.7-6.3-1.7-9.7c-2.3-2.2-5.5-3.4-8.7-3.2-.6,3.2-.1,6.4,1.4,9.3,2.4,2.4,5.6,3.7,9,3.7Z"/>
          <path class="cls-2" d="M161.3,104.4c-.2,2,.2,4.1,1.3,5.8,1.6,1.4,3.7,2,5.8,1.8.5-2.1,0-4.4-1.4-6-1.6-1.3-3.6-1.9-5.6-1.6Z"/>
          <path class="cls-2" d="M164,116.3c-1.2-.9-2.8-1.1-4.3-.8,0,1.5.4,3,1.3,4.2,1.3.9,2.8,1.3,4.4,1,.2-1.6-.3-3.2-1.4-4.3Z"/>
          <path class="cls-2" d="M191.8,78.6c2-5.9-2.8-14.7-2.8-14.7-5,1.4-9.1,4.7-11.5,9.3-3.2,7,2.6,15.6,2.6,15.6,1.8-.6,9.7-4.2,11.7-10.1Z"/>
          <path class="cls-2" d="M148.3,85.3c1.4-4.6-2.6-11.2-2.6-11.2-3.8,1.2-6.9,3.9-8.5,7.5-2.3,5.4,2.5,11.8,2.5,11.8,3.8-1.4,7-4.3,8.7-8Z"/>
          <path class="cls-2" d="M144,94.1c-2.9,3.9-.3,9.7-.3,9.7,3.3-.4,6.3-2.1,8.4-4.8,1.9-3.2,0-9.4,0-9.4-3.2.3-6.2,1.9-8.1,4.4Z"/>
          <path class="cls-2" d="M148,106.5c-1.1,1.9-1.3,4.2-.6,6.2,2.1-.1,4.1-1.1,5.5-2.7.8-1.9.9-3.9.4-5.9-2,0-4,.9-5.4,2.4Z"/>
          <path class="cls-2" d="M156.3,115c-2.3-.5-4.6,1.1-5,3.4-.2.8,0,1.7.3,2.5,1.6,0,3.1-.5,4.2-1.6.7-1.3.8-2.9.6-4.3Z"/>
          <path class="cls-2" d="M118.7,101.2c4,.7,8.2-.3,11.5-2.7,0,0-2.7-7.5-8.5-8.5-3.9-.5-7.9.6-10.9,3.1,0,0,3.3,6.8,7.9,8.2Z"/>
          <path class="cls-2" d="M120.3,106.9s4,4.9,7.9,5.1c3.3-.3,6.4-1.8,8.6-4.4,0,0-3.5-5.5-8.3-5.2-3.2.3-6.2,1.9-8.1,4.5Z"/>
          <path class="cls-2" d="M142.1,115.5s-2.5-3.2-5.5-2.9c-2,.3-3.8,1.5-4.9,3.2,1.4,1.5,3.2,2.5,5.2,2.9,2.1-.4,4-1.5,5.2-3.2Z"/>
          <path class="cls-2" d="M143.1,126c1.5-.4,2.8-1.3,3.6-2.6-1-1.2-2.6-1.9-4.2-1.8-1.5.4-2.7,1.3-3.4,2.6,1.1,1,2.5,1.6,4,1.8Z"/>
          <path class="cls-2" d="M132.3,91.2c.8-1.7,3.2-10,.2-15.4s-13-7.6-13-7.6c-2.2,4.7-2.3,10-.5,14.8,2.9,7.1,13.2,8.3,13.2,8.3Z"/>
          <path class="cls-2" d="M220.1,123.3c-5.2-2-11,2.7-11,2.7,1.5,3.6,4.4,6.5,8,8,4.4,1.1,10.5-2.8,10.5-2.8-1.3-3.5-4-6.4-7.5-7.9Z"/>
          <path class="cls-2" d="M204.2,138c3,.9,6.1.9,9.1-.2-.4-3.1-2-5.8-4.5-7.6-2.9-1.4-6.4-1.4-9.3,0,.5,3.1,2.2,6,4.8,7.9Z"/>
          <path class="cls-2" d="M193.7,139c1.8.7,3.8.8,5.6.2,0-2-.9-3.8-2.4-5.1-1.8-1-4-1.2-5.9-.4.1,2,1.1,3.9,2.6,5.3Z"/>
          <path class="cls-2" d="M185.3,141.9c1.3.6,2.7.8,4.1.5,0-1.4-.5-2.8-1.5-3.8-1.3-.9-2.9-1.1-4.3-.6,0,1.5.7,2.9,1.7,3.9Z"/>
          <path class="cls-2" d="M203.9,117.2s6.9-2.8,7.7-8.3c.4-3.7-.8-7.4-3.2-10.3,0,0-6.5,3.2-7.5,7.8-.4,3.9.7,7.7,3.1,10.8Z"/>
          <path class="cls-2" d="M195.5,123.7s5-3.5,4.5-8.1c-.5-3-2.2-5.7-4.6-7.5-2.3,2-3.9,4.6-4.5,7.6.4,3.1,2.1,6,4.6,8Z"/>
          <path class="cls-2" d="M190.7,123.7c-.4-1.9-1.6-3.6-3.2-4.5-1.4,1.3-2.3,3.1-2.5,5,.4,2,1.6,3.7,3.2,4.9,0,0,3-2.4,2.5-5.3Z"/>
          <path class="cls-2" d="M182.5,129.5c-.4-1.4-1.4-2.6-2.7-3.2-.9,1.1-1.4,2.4-1.5,3.8.5,1.4,1.4,2.5,2.7,3.2,1-1,1.6-2.4,1.5-3.8Z"/>
          <path class="cls-2" d="M225.5,118.8c5-3.2,6.5-12.5,6.5-12.5-4.5-1.9-9.6-1.9-14.1,0-6.5,3.1-7.2,13-7.2,13,1.7.5,9.8,2.6,14.7-.5Z"/>
          <path class="cls-2" d="M112.4,122.6c1.9-3.4,2.4-7.4,1.4-11.1-1.8-4.2-8.6-6.5-8.6-6.5-2,3.2-2.6,7.1-1.7,10.7,1.6,5.2,8.9,6.9,8.9,6.9Z"/>
          <path class="cls-2" d="M124.9,119.2c-.6-3.7-5.6-6.9-5.6-6.9-2.2,2.2-3.3,5.1-3.2,8.2.3,4.6,5.7,7.4,5.7,7.4,2.1-2.4,3.3-5.5,3.1-8.6Z"/>
          <path class="cls-2" d="M129.7,132.1c1.5-1.4,2.4-3.3,2.4-5.3-.2-2.3-3.2-4.6-3.2-4.6-1.5,1.3-2.4,3.1-2.5,5,0,2.9,3.3,4.9,3.3,4.9Z"/>
          <path class="cls-2" d="M137.4,135.6c1.2-.9,1.9-2.3,2.1-3.7-.3-1.4-1-2.7-2.1-3.6-1.2.8-2,2.1-2.1,3.5-.2,2.1,2.1,3.8,2.1,3.8Z"/>
          <path class="cls-2" d="M108.6,132s-6.5-3.8-11.2-1.1c-3.2,2-5.4,5.2-6.1,8.9,0,0,6.5,3.1,10.7,1.3,3.3-2.1,5.7-5.3,6.6-9.1Z"/>
          <path class="cls-2" d="M118.9,134.8s-5.8-1.8-9.1,1.3c-2.2,2.2-3.3,5.2-3.2,8.2,3,.7,6,.3,8.8-1,2.3-2.3,3.6-5.3,3.6-8.5Z"/>
          <path class="cls-2" d="M125.6,142.8c1.3-1.5,2-3.5,1.9-5.5-2-.5-4.1,0-5.7,1.2-1.3,1.5-1.8,3.4-1.6,5.4,1.9.3,3.8-.1,5.5-1.1Z"/>
          <path class="cls-2" d="M134.5,144.4c.9-1.2,1.2-2.7,1-4.2-1.5-.2-3,.2-4.1,1.3-.8,1.2-1.1,2.6-.9,4,1.4,0,2.8-.3,4-1.1Z"/>
          <path class="cls-2" d="M105.9,125.4c-.4-1.7-3.6-9.4-9.1-11.5s-13.9,2.3-13.9,2.3c1.1,4.8,4.2,8.9,8.4,11.4,6.4,3.2,14.6-2.2,14.6-2.2Z"/>
          <path class="cls-2" d="M175.9,145c-.4,1.1-.5,2.3-.2,3.5,1.9.1,3.6-1.3,3.8-3.3,0-.6,0-1.2-.3-1.8-1.3,0-2.4.6-3.2,1.6Z"/>
          <path class="cls-2" d="M174.8,152.7c-.8,1-1.2,2.2-1.1,3.4.4,1.4,2.4,2.6,2.4,2.6.8-.9,1.2-2.1,1.1-3.2-.2-1.8-2.4-2.7-2.4-2.7Z"/>
          <path class="cls-2" d="M204.1,161.5c-1.1,3.1-1,6.5.4,9.5,2.1,2.3,5,3.8,8,4.3,1.2-2.9,1.2-6.2,0-9.2-2.1-4.3-8.4-4.7-8.4-4.7Z"/>
          <path class="cls-2" d="M195.6,158.3c-1.5,2.2-2,5-1.5,7.6,1,3,5.6,5,5.6,5,1.5-2.1,2.1-4.7,1.6-7.3-.8-3.8-5.7-5.4-5.7-5.4Z"/>
          <path class="cls-2" d="M188.4,155.9c-1,1.4-1.4,3.1-1.1,4.8.5,1.9,3.2,3.2,3.2,3.2,1.1-1.3,1.5-2.9,1.3-4.5-.4-2.3-3.4-3.5-3.4-3.5Z"/>
          <path class="cls-2" d="M181.4,154.1c-.8.9-1.3,2.2-1.2,3.4.3,1.4,2.2,2.7,2.2,2.7.8-.9,1.3-2,1.3-3.2-.1-1.8-2.3-2.9-2.3-2.9Z"/>
          <path class="cls-2" d="M215.4,152.4c2.4-2.1,3.7-5.1,3.8-8.3-3-.9-6.2-.7-9.1.4-2.5,2.2-4,5.2-4.3,8.5,0,0,5.9,2.3,9.5-.6Z"/>
          <path class="cls-2" d="M204.4,149.8c1.5-2.1,2-4.8,1.5-7.3-2.5-.1-5.1.6-7.1,2.1-1.5,2.2-2.2,4.9-1.8,7.6,2.7.4,5.4-.5,7.4-2.3Z"/>
          <path class="cls-2" d="M194.7,144.8c-1.6,0-3.2.6-4.4,1.6-.9,1.5-1.2,3.2-.8,4.9,1.7.1,3.4-.5,4.6-1.8.8-1.4,1.1-3.1.6-4.7Z"/>
          <path class="cls-2" d="M182.6,146.3c-.6,1.1-.6,2.4-.3,3.6,1.3,0,2.5-.6,3.2-1.6.5-1.1.6-2.3.2-3.5-1.2.1-2.3.6-3.2,1.5Z"/>
          <path class="cls-2" d="M221,154.4c-5.8-1.9-11.9,3.8-11.9,3.8.6,1.4,4.3,7.3,9.2,8.3s11.2-3.8,11.2-3.8c-1.6-3.8-4.6-6.8-8.5-8.2Z"/>
          <path class="cls-2" d="M146.6,154.1c-1.1.8-1.8,1.9-1.9,3.2-.2,1.9,1.9,3.4,1.9,3.4,1-.8,1.7-2,1.9-3.2-.2-1.3-.9-2.5-1.8-3.4Z"/>
          <path class="cls-2" d="M143.9,146.2c-1.1-.7-2.4-1-3.6-.9-.6,2,.6,4.1,2.6,4.6.7.2,1.5.2,2.2,0,.1-1.3-.3-2.7-1.2-3.7Z"/>
          <path class="cls-2" d="M103.4,160.1c4.4,2.6,10.3-.7,10.3-.7-.8-3.4-3-6.4-6-8.3-3.8-1.7-9.7.9-9.7.9.6,3.3,2.6,6.3,5.5,8.1Z"/>
          <path class="cls-2" d="M119.8,149.5c-2.5-1.2-5.2-1.6-8-1.1-.1,2.8.9,5.5,2.9,7.5,2.4,1.7,5.5,2.2,8.3,1.3,0-2.9-1.2-5.6-3.2-7.7Z"/>
          <path class="cls-2" d="M129.2,150.1c-1.5-.9-3.3-1.2-5-1-.2,1.7.3,3.5,1.4,4.8,1.5,1.2,3.4,1.6,5.2,1.2.1-1.8-.4-3.6-1.6-5Z"/>
          <path class="cls-2" d="M137.3,148.8c-1-.8-2.3-1.1-3.6-1.1-.2,1.3,0,2.6.8,3.6,1,1,2.4,1.4,3.7,1.2.2-1.3-.1-2.7-.9-3.7Z"/>
          <path class="cls-2" d="M108.9,174.2c-.9,3.3-.4,6.8,1.5,9.7,0,0,6.2-2,7.9-5.8.9-3.4.5-7-1.3-10.1,0,0-6.6,1.3-8.1,6.1Z"/>
          <path class="cls-2" d="M120.2,169.9c0,2.8,1,5.4,3,7.4,0,0,4.5-2.8,5.1-6.1.1-2.9-.9-5.7-2.8-7.8,0,0-5.1,2.5-5.4,6.5Z"/>
          <path class="cls-2" d="M132.7,159.8s-3,1.7-3,4.3c0,1.8.9,3.4,2.2,4.5,0,0,2.7-2,3-4.1,0-1.8-.8-3.5-2.1-4.8Z"/>
          <path class="cls-2" d="M139.8,156.9c-1.1.7-1.8,1.9-1.9,3.2.2,1.3.9,2.5,1.9,3.2,0,0,1.9-1.6,1.9-3.2-.2-1.3-.9-2.5-1.9-3.2Z"/>
          <path class="cls-2" d="M98,163.4c-4.9,2-7.8,10.1-7.8,10.1,3.7,2.5,8.3,3.3,12.6,2.2,6.3-1.8,8.3-10.4,8.3-10.4-1.4-.9-8.3-4-13.2-1.9Z"/>
        </g>
      </g>
    </g>
  </g>
</svg>