<svg id="Layer_1" data-name="Layer 1" xmlns="http://www.w3.org/2000/svg" viewBox="0 0 300 300"><path d="M228.90014,71.976c.54536.67516.83513,1.07407,1.16528,1.43613,2.16264,2.37163,4.38652,4.68967,6.49018,7.11223,3.17655,3.658,6.3502,7.31815,9.196,11.25409,1.945,2.69007,3.94023,5.34069,5.73487,8.13712,1.3642,2.12569,2.83963,4.18163,4.15919,6.33382,1.415,2.30781,2.73212,4.67721,4.04294,7.04686,1.31332,2.37413,2.57561,4.77676,3.83961,7.17777.36464.6927.65945,1.42226.98336,2.13623.13931.307.24776.63038.41016.92424a100.03432,100.03432,0,0,1,4.53708,9.96054c.79986,1.91553,1.39532,3.92053,2.2604,5.80365,1.15142,2.50645,1.85808,5.1603,2.81757,7.7278a8.14637,8.14637,0,0,1-.221,5.9374c-1.048,2.79668-1.98372,5.636-3.05718,8.42252-.9331,2.42211-1.97343,4.80371-2.99942,7.189-.73657,1.71235-1.48471,3.42228-2.30325,5.09632-1.76144,3.60239-3.46588,7.23877-5.38821,10.75485-2.49586,4.5652-5.11776,9.06514-7.81092,13.51724-1.37316,2.26992-3.006,4.38428-4.54743,6.5505-2.09884,2.94963-4.13884,5.94657-6.35895,8.80285a64.00234,64.00234,0,0,1-7.03738,8.27471c-.60521.55348-.9582,1.37535-1.53656,1.96682-2.36521,2.41886-4.73181,4.83912-7.17539,7.17791-2.88915,2.76521-5.84344,5.45567-8.98462,7.94882-1.85185,1.46979-3.57137,3.11807-5.4518,4.56383-1.56337,1.202-3.13774,2.39209-4.74629,3.53237-2.6711,1.89356-5.35506,3.77032-8.07012,5.6-1.48163.9985-3.02616,1.90607-4.56357,2.81885-3.09991,1.84056-6.17544,3.72767-9.33593,5.45884-2.24783,1.23123-4.62223,2.2305-6.93088,3.35235-.55.26727-1.04445.64994-1.59685.911q-1.90705.90122-3.84762,1.73111c-2.63911,1.12672-5.26447,2.29127-7.93894,3.3282a84.885,84.885,0,0,1-10.62037,3.80946,6.45794,6.45794,0,0,0-1.6017.56291,4.62336,4.62336,0,0,1-3.92606.08168,184.08429,184.08429,0,0,1-19.8791-7.7229c-4.15315-1.92809-8.33437-3.79881-12.44665-5.81044-2.07713-1.01612-4.0509-2.25212-6.03246-3.453-2.9011-1.75813-5.81091-3.50819-8.63608-5.38358-2.86682-1.90307-5.56936-4.05729-8.46559-5.91132-2.86552-1.83443-5.38745-4.09049-8.03973-6.18036-2.30706-1.81783-4.38652-3.92316-6.58345-5.88247-1.73481-1.54717-3.54087-3.01715-5.23252-4.60933-1.98432-1.86768-3.90491-3.80533-5.80748-5.75713a126.48088,126.48088,0,0,1-12.03643-14.283c-1.91866-2.65917-3.97881-5.22042-5.81168-7.93617-1.95938-2.90318-3.7482-5.92292-5.57073-8.91659-1.52866-2.511-3.0701-5.01873-4.47418-7.59956-1.341-2.46494-2.50606-5.02539-3.76334-7.53639-.22454-.44846-.55476-.84417-.77708-1.29349-.2954-.597-.5282-1.2247-.79617-1.83559-.44844-1.02227-.926-2.03234-1.3513-3.06405-1.15787-2.80877-2.32819-5.61319-3.43149-8.44353Q27.323,157.59478,25.4048,152.35a6.31506,6.31506,0,0,1-.0521-4.30685c1.95031-5.90225,4.11018-11.71609,6.56016-17.43445a165.66444,165.66444,0,0,1,7.6151-15.52677,178.354,178.354,0,0,1,12.9747-20.68c4.23508-5.61869,8.66988-11.06241,13.43127-16.23527,2.3362-2.53808,4.79612-4.96526,7.257-7.38475,2.17938-2.14276,4.40035-4.24675,6.6728-6.29018,1.80629-1.62424,3.67756-3.183,5.59184-4.6789,3.52451-2.75416,7.031-5.54063,10.67777-8.12636,3.40686-2.4156,6.97893-4.59919,10.49182-6.86391,2.31989-1.49561,4.64213-2.99,7.007-4.41231,1.00144-.6023,2.13777-.97533,3.1736-1.52627,4.892-2.602,9.87954-5.012,14.97723-7.17334,3.58767-1.52109,7.264-2.83716,10.92339-4.18328,2.0604-.75792,4.17239-1.37445,6.24991-2.08738a4.538,4.538,0,0,1,3.15918.06293c3.38168,1.26074,6.76657,2.51328,10.13724,3.80292,2.10512.80542,4.18645,1.673,6.27915,2.51091,5.18029,2.07422,10.29112,4.30481,15.24624,6.87566,3.34819,1.73712,6.71161,3.452,9.9884,5.317,1.94266,1.1057,3.74724,2.45963,5.58365,3.74514,2.86707,2.007,5.7467,3.99947,8.54909,6.09431,2.393,1.78883,4.69562,3.69977,7.01721,5.58259,1.26933,1.02943,2.5022,2.10435,3.73907,3.17313a123.00976,123.00976,0,0,1,9.113,8.52647A6.85894,6.85894,0,0,0,228.90014,71.976ZM35.43386,149.64742a12.04661,12.04661,0,0,0,.67,1.60371c1.37129,2.41168,2.73936,4.82725,4.19258,7.18975,1.63215,2.65339,3.3508,5.25367,5.03921,7.8723,1.4721,2.28316,2.914,4.5873,4.44374,6.83138,1.52717,2.24033,3.13906,4.42322,4.72816,6.6209,1.65739,2.29209,3.29415,4.60062,5.01013,6.84837,1.54058,2.018,3.16761,3.97044,4.77267,5.93863,1.8241,2.23679,3.6475,4.47467,5.50683,6.68207,1.27809,1.51735,2.6053,2.994,3.93124,4.47025,1.96926,2.19249,3.89434,4.42957,5.95211,6.53644,2.68609,2.75017,5.45929,5.41693,8.2387,8.07385,3.93154,3.7583,7.81865,7.56977,11.88352,11.17977,3.37776,2.99975,6.96637,5.76431,10.496,8.59006,2.694,2.15671,5.43506,4.25491,8.16732,6.36345,4.47882,3.4564,9.13767,6.65441,13.91646,9.68118,3.19744,2.02518,6.34356,4.13332,9.57331,6.105,2.60178,1.58831,5.29443,3.02775,7.97378,4.5486.93323-.43786,1.77381-.76279,2.54491-1.20806,1.76223-1.01767,3.50051-2.078,5.23045-3.1501,3.94111-2.4425,7.90024-4.85772,11.79679-7.36976q4.64064-2.99169,9.14189-6.19789c2.35371-1.67392,4.56663-3.54476,6.9041-5.24277a222.59571,222.59571,0,0,0,17.86074-14.89595c2.73435-2.46022,5.34158-5.062,7.99965-7.60662,1.39256-1.33321,2.78326-2.66883,4.15179-4.02653,1.56524-1.55285,3.12236-3.11468,4.651-4.70342,1.64959-1.71446,3.38253-3.36907,4.85628-5.22657,1.41611-1.78483,3.001-3.3877,4.56854-5.01981.47192-.49136.939-.9895,1.37711-1.51077q2.18506-2.60007,4.34509-5.22106c1.542-1.87466,3.10049-3.73722,4.59211-5.65153,1.63585-2.09936,3.19842-4.25567,4.80373-6.379.54354-.71889,1.15231-1.38993,1.67346-2.12388.68606-.96626,1.29458-1.98728,1.97245-2.95969,2.12691-3.05111,4.30848-6.06492,6.39317-9.14442,1.17054-1.72914,2.20114-3.55372,3.27825-5.34523,2.26592-3.76879,4.521-7.54411,6.67878-11.14683a3.01821,3.01821,0,0,0-.12789-.59494q-2.507-4.31519-5.02429-8.62435c-1.02259-1.75428-1.98188-3.54916-3.07914-5.25534-1.79712-2.79439-3.66768-5.54216-5.53709-8.28931q-2.38314-3.50222-4.83941-6.9544c-1.25141-1.74912-2.55913-3.45857-3.86493-5.168-1.30449-1.7077-2.6184-3.409-3.963-5.08516-2.02282-2.52171-4.05265-5.03854-6.12422-7.52014-1.4144-1.69435-2.901-3.32864-4.36254-4.98339-1.83423-2.07672-3.59688-4.22418-5.53218-6.20245-3.20392-3.2751-6.52133-6.43916-9.79052-9.65042-2.21255-2.17337-4.39708-4.3763-6.64769-6.50949-1.1894-1.12737-2.568-2.05848-3.73114-3.20955a118.94467,118.94467,0,0,0-9.76008-8.45847q-3.66017-2.90975-7.3572-5.773c-3.09039-2.38771-6.15881-4.80741-9.31729-7.10242-2.97443-2.16126-6.11449-4.09588-9.07236-6.27835-4.48557-3.30967-9.462-5.79324-14.18845-8.69532a3.58439,3.58439,0,0,0-3.99464-.01432c-2.63736,1.52724-5.33928,2.95182-7.91011,4.58333q-8.16947,5.18454-16.21742,10.55929c-2.57984,1.73013-5.02744,3.66271-7.48784,5.56453q-6.58629,5.091-13.10872,10.26436c-1.28439,1.01708-2.48946,2.13556-3.7149,3.22553q-2.85819,2.5422-5.69328,5.11031c-1.8862,1.70734-3.8034,3.38365-5.62793,5.155-2.1508,2.08811-4.22131,4.25916-6.31806,6.40264-2.21509,2.26447-4.47473,4.48867-6.61547,6.82171-2.60061,2.83422-5.12968,5.73611-7.62927,8.66038-2.27976,2.66711-4.5313,5.36195-6.699,8.12022-2.27814,2.89882-4.47068,5.86644-6.6492,8.84165-3.53763,4.83135-7.04393,9.68518-10.14409,14.81811-1.27851,2.11684-2.67253,4.165-3.91572,6.30164-.58679,1.00848-1.20974,1.98673-1.82525,2.97483C37.71822,145.55233,36.67243,147.48871,35.43386,149.64742Z" fill="#013da4"/><path d="M232.15616,185.87982H68.70925a343.1709,343.1709,0,0,1-25.18151-35.64964,1.962,1.962,0,0,1,1.02361-1.44129,15.43394,15.43394,0,0,1,5.85966-2.53818c.49532-.11329.99454-.20953,1.65213-.34712l5.89419,3.12855a26.41353,26.41353,0,0,1,10.00208-3.81779c1.89527.81067,1.89527.81067,2.29662,2.152-.33711.47738-.72593,1.02817-1.115,1.5788a8.42982,8.42982,0,0,0-1.14685,1.66766,19.64131,19.64131,0,0,1-2.786,4.423,3.44834,3.44834,0,0,0-.66475.96984c-.62575,2.35048-2.69481,3.49719-4.23517,5.16049l-1.52189.64152a14.98214,14.98214,0,0,0-.70765,5.45272c.93893.4465,1.4474-.07142,1.88364-.56382a42.59984,42.59984,0,0,0,3.01007-3.61139c1.07369-1.52247,2.03228-3.13292,2.95154-4.75578a29.61523,29.61523,0,0,1,4.18318-5.54162,8.3749,8.3749,0,0,0,1.31005-1.54643,23.14242,23.14242,0,0,1,3.51709-4.10292,38.03649,38.03649,0,0,1,2.82868-2.69981A26.45615,26.45615,0,0,1,81.028,141.643a23.09329,23.09329,0,0,1,3.52193-1.5115c1.17756-.50157,2.34713-1.022,3.5176-1.54.49488-.219.98311-.45306,1.78607-.82446,1.2817-1.05713,3.30025-1.68,4.69264-3.21935,1.32166-1.46112,2.6985-2.87233,4.02448-4.27731v-4.6296c1.34019-1.63934,1.81983-1.63259,3.46225.01306-.083,1.4266-.80848,2.9898.043,4.45641-.89159,2.87951-3.41842,4.54443-4.87881,7.11383l.7021.906a3.24339,3.24339,0,0,0,.65168-.1029,29.15741,29.15741,0,0,1,2.94915-1.28347,11.15135,11.15135,0,0,0,5.76017-4.49681,44.27116,44.27116,0,0,1,3.00343-4.093,23.78347,23.78347,0,0,0,3.64767-4.87968,14.58948,14.58948,0,0,1,1.949-2.73807c1.61926-1.83809,2.46048-4.14584,3.82436-6.13487a5.15508,5.15508,0,0,0,.551-1.3993c.49213-1.58887.75472-1.91835,2.446-2.90785,1.5707.33144,2.09357,2.17827,3.6491,2.59612l.52149,1.19782c-.09537.99471-.16267,1.77554-.24671,2.55457-.12064,1.11806-.26732,2.23345-.37716,3.35249-.10485,1.06823-.20975,2.13844-.2504,3.21021a21.283,21.283,0,0,0,.151,2.14618l-1.17609,3.30931a5.51653,5.51653,0,0,1-.62514,3.0284,1.2713,1.2713,0,0,0,.408,1.74528,1.88973,1.88973,0,0,0,2.29332-.75466,55.12777,55.12777,0,0,0,3.34688-4.67829,6.21273,6.21273,0,0,0,.67985-3.10263,41.39733,41.39733,0,0,1,.75441-6.18555,22.21913,22.21913,0,0,0,.55545-3.21613l4.445-5.09543v-3.10464c.26714-1.72689.50283-3.39543.78987-5.05509.191-1.10445.45533-2.19624.66571-3.19356l1.54835-1.02754,1.7281.88369a10.77285,10.77285,0,0,1,1.77048,6.05152c.05679,1.12432.2661,2.24079.32716,3.36511.05749,1.05871.01959,2.1232.00651,3.18493a1.42386,1.42386,0,0,0,.72944,1.49229l1.8566-.93539,1.548.43931,1.317,3.05922c1.092.247,2.077.46985,2.94043.6652.83392.47219,1.226,1.6042,2.44217,1.10582a4.72764,4.72764,0,0,0-.2472-3.1074c-.74655-1.95436-1.556-3.88534-2.37067-5.81277a7.35361,7.35361,0,0,1-.65321-3.45771,5.99366,5.99366,0,0,0-1.02415-3.69387,15.02078,15.02078,0,0,1-1.04674-1.7418,8.16316,8.16316,0,0,1-.56286-1.93378,18.301,18.301,0,0,1-.26991-2.7055,22.7206,22.7206,0,0,1,.20206-2.39465l3.90048-1.23107c.6142-.38941.87831-1.32143,1.23571-2.21493a13.35885,13.35885,0,0,1,2.19767-4.24608l1.31807-.06773a5.23366,5.23366,0,0,1,1.83252,3.89365,24.006,24.006,0,0,0,.69724,5.015,11.73975,11.73975,0,0,0,1.72982,3.44762,25.08118,25.08118,0,0,0,1.79647,2.45189,33.81607,33.81607,0,0,0,2.1957,2.79694c1.42313,1.50678,1.87073,3.441,2.52794,5.2919.07459.21.1435.42208.18811.55372.88761.87517,1.805.08672,2.78141.234a5.04121,5.04121,0,0,1,1.81831,2.79758c.49911,1.90765.70308,3.88694,1.32752,5.74153.66468,1.97406,1.61324,3.85257,2.54039,6.01157.58692.25129,1.33256.6116,2.107.89222a5.23849,5.23849,0,0,1,2.62738,1.97944c1.03941,1.44657,1.524,3.13275,2.43049,4.618.55893.91583,1.06552,1.86361,1.56662,2.746l-.38044,1.47953a7.30366,7.30366,0,0,0,2.90872,3.58716h1.35329c.67256-.7647,1.65174-1.3095,1.95627-2.444a33.28961,33.28961,0,0,1,1.60522-4.81733l-.59874-1.81911c.4781-.82078-.00086-2.0612,1.23139-2.8034,1.85377-.51185,2.6753,1.80973,4.36855,2.12073.60242-1.14215-.37635-2.41356.59711-3.38019a1.7209,1.7209,0,0,1,2.23544.61109c1.60556,2.19483,3.1859,4.41024,4.69686,6.67058A7.82794,7.82794,0,0,1,205.934,134.24l2.7322,2.71072.99556-.80589c-.55534-1.88663-1.55577-3.64026-.93539-5.60421a1.305,1.305,0,0,1,1.876.26378c.68225.75215,1.30545,1.55756,1.96434,2.3313a14.29072,14.29072,0,0,1,3.1236,5.90534,15.38968,15.38968,0,0,0,.91041,1.97828c.63887,1.56511,1.24952,3.14189,1.85918,4.71873.20359.52658.32437,1.08886.56275,1.59744a2.55015,2.55015,0,0,0,2.04265,1.70508l.52638-.36546c.10366-1.216.19672-2.30774.2885-3.38471a14.63085,14.63085,0,0,1-1.88737-4.87451c-.61981-2.55019-.68934-5.27432-2.0566-7.63376a3.45229,3.45229,0,0,1-.119-1.17556c.38718-.22254.83558-.69871,1.209-.64581a3.38064,3.38064,0,0,1,1.767.82513c.93356.88946,1.72142,1.93057,2.585,2.89516.52563.58707,1.07555,1.1528,1.62381,1.71919a5.14147,5.14147,0,0,1,1.261,2.71725,3.12909,3.12909,0,0,0,1.7229,2.38794,2.45674,2.45674,0,0,0,1.09213-2.22352,33.62667,33.62667,0,0,0-.26927-4.40135,39.27937,39.27937,0,0,1-.34866-6.273,2.787,2.787,0,0,1,2.16914-2.84674,6.82166,6.82166,0,0,1,1.41958.73c2.46029,2.05859,5.16672,3.861,6.97732,6.6104a15.71889,15.71889,0,0,0,1.33685,1.74874c.14495.1643.48111.15987.80788.25568.31606-1.36377.10682-2.85016,1.41359-3.70611a4.54279,4.54279,0,0,1,2.59911,1.19244c.08026.08026.16965.2144.25644.2157,1.47635.02205,1.88778,1.22974,2.52761,2.21249,2.16066,3.31874,4.34773,6.62026,6.51858,9.93238,1.081,1.64927,2.14852,3.30731,3.19759,4.92352A323.66813,323.66813,0,0,1,232.15616,185.87982Zm-23.60279-2.96576v-35.878c-1.8261-1.82081-3.74451-3.73368-5.7087-5.6922H173.35218c-1.42723,1.35473-2.85794,2.71278-4.42045,4.1959h-1.56541l-4.03342-4.09345H137.12424c-.88508.82317-1.62883,1.51213-2.36943,2.20444-.77724.72658-1.32708,1.7146-2.49584,2.12763-2.4146-.60126-3.39577-3.08624-5.50555-4.44532H94.19612l-5.8178,5.855q0,17.414.00259,34.9134a5.29217,5.29217,0,0,0,.06321.67674c.0064.04922.05687.095.093.13738.03537.04149.07828.07656-.0034-.00157Z" fill="#013da4"/><path d="M149.48054,42.86011l1.40139-.15868a6.78609,6.78609,0,0,1,.87646.51324c2.65082,2.12466,5.61268,3.778,8.4501,5.62094q3.06021,1.98763,6.01927,4.13,7.61184,5.53516,15.1696,11.14465c.77318.57052,1.507,1.19549,2.24674,1.81,3.30385,2.74441,6.62621,5.46723,9.896,8.25176,2.06748,1.76066,4.05815,3.6118,6.07578,5.43067,1.808,1.62982,3.63766,3.23747,5.39854,4.917,1.62711,1.55193,3.16673,3.1952,4.7611,4.78194,1.84473,1.83588,3.72782,3.63355,5.55478,5.48673,1.26768,1.28587,2.48807,2.62008,3.69484,3.96387,1.78087,1.98309,3.53823,3.98747,5.2924,5.99433,3.08713,3.53179,6.2541,6.99689,9.02288,10.7957.296.4062.678.74981,1.19611,1.31424-2.84982.29709-5.52453-.11742-8.13845.33508l-2.74145.52442-.12989-.23634a9.3865,9.3865,0,0,1-1.02074,1.08052c-.70733.55162-1.46869,1.03375-2.20476,1.54878-.55009.38489-1.12155.74491-1.63747,1.17161a2.65889,2.65889,0,0,1-2.5223.60461c-.87557-.22942-1.76861-.39169-2.65217-.59137a1.8706,1.8706,0,0,1-.63972-.202c-2.18387-1.49359-4.8866-2.18793-6.65745-4.32265a3.057,3.057,0,0,0-.65446-.47261h-4.1035c-1.49685-.79181-2.73954-1.38918-3.20706-2.83606a.65963.65963,0,0,0-.22688-.24845c-1.16519-.96335-2.3328-1.92379-3.64735-3.00649a30.42509,30.42509,0,0,0-2.40207,2.09108,2.28165,2.28165,0,0,1-2.55706.74021c-.48-.14868-.98524-.21606-1.37979-.29933a8.124,8.124,0,0,0-1.68477-.94286,4.99708,4.99708,0,0,1-2.95639-2.64255c-1.11485-1.89653-2.32279-3.75488-3.24648-5.74314-1.22848-2.64427-2.91469-5.06482-3.84279-7.84739-.65582-1.96624-1.19648-3.97135-1.871-5.93073a26.44855,26.44855,0,0,0-1.3001-2.725l-1.76152-.52152L170.03845,87.521c-1.5877.41935-2.64557-.519-3.37618-1.67186a7.10953,7.10953,0,0,1-1.43107-4.26371,1.24759,1.24759,0,0,0-.029-.33937c-.4135-1.92628-.89144-3.84152-1.21971-5.78211a8.97871,8.97871,0,0,1-.00864-2.877,5.26637,5.26637,0,0,0-.37321-3.20431,6.28426,6.28426,0,0,0-1.43136-.78619,63.54088,63.54088,0,0,1-7.1042-2.86873,5.77253,5.77253,0,0,1-1.27817-.823,9.09862,9.09862,0,0,0-4.69785-1.89387c-1.26525.12418-1.84484,1.07026-2.35172,2.12348-.58681,1.21923-1.23326,2.41026-1.80064,3.63811a10.64409,10.64409,0,0,0-.571,1.76644,32.43053,32.43053,0,0,1-2.72645,7.24813l-.08657,1.68644c-1.4946,1.06022-3.1865.01754-4.99056.809-1.8422,1.32995-4.27953.98118-6.588.73851a5.1507,5.1507,0,0,0-2.29116,1.87779,11.952,11.952,0,0,1-1.65668,1.87407,6.02386,6.02386,0,0,0-1.95993,2.69082c-.64714,1.623-1.21846,3.27775-1.91,4.88106-.37839.87728-.964,1.66288-1.40662,2.51551a6.45548,6.45548,0,0,0-.84731,2.00912,5.78036,5.78036,0,0,1-1.2585,2.54322,15.77909,15.77909,0,0,0-.99169,1.36771,60.63683,60.63683,0,0,0-3.44417,6.79682,11.91429,11.91429,0,0,1-2.80754,3.84248,5.9622,5.9622,0,0,1-4.90723-6.23267,11.83477,11.83477,0,0,1-.55512-1.6044c-.421-2.13829-.82474-2.37648-3.02295-1.47033-.40751.85826-.82155,1.90953-1.39032,2.86909a5.68609,5.68609,0,0,1-1.60432,1.92647,15.72638,15.72638,0,0,0-5.0016,5.19578l-1.58993.80674a45.94475,45.94475,0,0,0-3.96357,6.77445c-.7452,1.38506-1.65638,2.68081-2.63528,4.244a10.54341,10.54341,0,0,1-3.18094,5.56213,7.85236,7.85236,0,0,1-3.82408,1.68987,4.56994,4.56994,0,0,0-2.77192,1.74405,42.68507,42.68507,0,0,0-3.293,4.28949c-.81078,1.44316-2.41232,1.56182-3.82439,1.86712-1.04137.22516-2.1384.18422-3.18926.37782a3.9474,3.9474,0,0,0-1.47814.70452c-1.09611.77357-2.14892,1.60849-2.90163,2.17838a5.67216,5.67216,0,0,1-4.876-.99479,7.94008,7.94008,0,0,1-3.85188-.46548,4.74741,4.74741,0,0,0-2.17316.04852,11.92286,11.92286,0,0,0-1.26136.23393c-.77529-1.05282-.80717-1.21682-.10074-2.29648,1.11616-1.70584,2.24505-3.405,3.424-5.06775,1.93218-2.7251,3.87145-5.44674,5.87682-8.118,2.17418-2.89608,4.40612-5.74965,6.652-8.5908,2.31145-2.924,4.66528-5.81466,7.01329-8.70958.3565-.43954.79585-.81077,1.17335-1.23455,2.51722-2.82585,4.98244-5.69965,7.55447-8.47452,2.30869-2.49076,4.73223-4.87507,7.10561-7.30583,2.08982-2.14033,4.15524-4.30531,6.27974-6.41067,1.32826-1.3163,2.73672-2.5526,4.12581-3.80637,1.93073-1.74267,3.8615-3.48588,5.82091-5.196,2.087-1.82149,4.17761-3.64111,6.32007-5.39633,3.54527-2.90449,7.104-5.79416,10.71293-8.61879,2.76491-2.16406,5.58559-4.26035,8.43683-6.30974q4.55113-3.27123,9.21122-6.39026c2.29957-1.54914,4.66761-2.99638,6.99658-4.50227C147.61023,44.15253,148.4895,43.53227,149.48054,42.86011Z" fill="#013da4"/><path d="M98.514,217.81945,93.39538,212.948a6.84885,6.84885,0,0,1,1.24408-.33593c.79391-.04077,1.59146-.00923,2.38754-.00925q52.79748-.002,105.595-.00234,1.85275.00007,3.70518.05844a3.2762,3.2762,0,0,1,.806.30647q-2.5713,2.55844-4.87847,4.85406Z" fill="#013da4"/><path d="M192.37726,226.61759l-7.83584,6.61062H116.15374c-2.62947-2.19983-5.22724-4.37315-8.08252-6.76192.8532-.0874,1.44223-.19263,2.03248-.19992,1.87619-.0231,3.75284-.01029,5.62931-.01031q37.35887-.00024,74.71774.00227c.61115.00009,1.2223.03654,1.83345.056Z" fill="#013da4"/><path d="M150.13012,257.24589c-8.20163-5.06222-15.863-10.2705-23.27672-15.77044-.01564-.10874-.04487-.17228-.02457-.20588a.19793.19793,0,0,1,.1406-.08774q22.93441-.046,45.86884-.08116c.33379-.0005.66764.04931,1.27082.09693C166.15319,246.95693,158.338,252.46231,150.13012,257.24589Z" fill="#013da4"/><path d="M210.05526,208.56271h-3.39759c-1.41211-3.83564-2.262-7.818-3.66283-11.71894a4.91622,4.91622,0,0,0-.22086,1.016c-.01662,2.95336-.00808,5.90685-.00708,8.86031.00019.56471.00006,1.12943.00006,1.74919a11.10162,11.10162,0,0,1-3.46742.12512,13.06285,13.06285,0,0,1-.2075-3.86587c-.04965-1.24761-.01092-2.49871-.0115-3.7483q-.00092-1.95955-.00261-3.91911c-.00006-1.24958-.02416-2.49985.00956-3.74854a12.97474,12.97474,0,0,1,.24872-3.9268H202.958c1.22079,3.461,2.15349,7.07508,3.27312,10.73376a4.54437,4.54437,0,0,0,.22626-.98376c.017-2.6693.003-5.33877.00889-8.00817.00121-.55326.04577-1.10643.07312-1.72266h3.38879C210.22527,190.72575,210.32291,205.60552,210.05526,208.56271Z" fill="#013da4"/><path d="M155.17221,189.29145V208.2879h-3.51665c-1.0229-3.55231-2.057-7.14361-3.201-11.11631-.6733,1.494-.30286,2.65158-.35245,3.76571-.05553,1.24736-.04742,2.4978-.05594,3.747-.008,1.17918-.00173,2.35843-.00173,3.61443h-3.449c-.31934-1.15863-.42541-16.42525-.12129-18.93036h3.589c.48816,1.79165.97428,3.62931,1.49129,5.45823.49968,1.76752,1.03117,3.526,1.63812,5.59312a4.38357,4.38357,0,0,0,.35187-1.03648c.02084-2.72642.015-5.453.01635-8.1796.00029-.56325,0-1.1265,0-1.77671A14.60686,14.60686,0,0,1,155.17221,189.29145Z" fill="#013da4"/><path d="M177.50648,208.58148h-3.40314c-.0057-6.42442-.00641-12.81138-.00038-19.26472h3.27858c.355,2.03908-.09833,4.08894.25724,6.10016.99883.58,2.01115.27907,3.194.28182.30659-2.09009-.01195-4.1804.18569-6.33477h3.49236v19.14177a9.61975,9.61975,0,0,1-3.52846.00825V197.64978a9.13952,9.13952,0,0,0-3.29735-.09932,13.20164,13.20164,0,0,0-.169,1.46217c-.01727,2.55922-.009,5.11862-.00953,7.678C177.50637,207.25555,177.50648,207.8205,177.50648,208.58148Z" fill="#013da4"/><path d="M97.19488,203.165l-1.97749,3.50459,2.036,1.42419c-.2955,1.30312-.2955,1.30312-2.35369,1.24215-1.49032-.82339-2.86687-2.29448-4.86072-1.34443l-.93925-.531.534-1.27512a12.29914,12.29914,0,0,1-2.26678-7.329,18.43658,18.43658,0,0,1,.47045-4.86542,7.27521,7.27521,0,0,1,2.74474-4.36717,3.31528,3.31528,0,0,1,4.20729.15932,6.23429,6.23429,0,0,1,2.08431,3.23746c.46768,1.90608,1.20967,3.778.99714,5.80273-.07061.67272-.15323,1.3457-.27011,2.01158-.12607.71817-.29871,1.4282-.451,2.14176Zm-5.34724-10.73609a3.237,3.237,0,0,0-.36182.97067c-.02445,3.4945-.01553,6.98924-.01553,10.33079.83337.85739,1.46448.42688,2.11785.106a2.75765,2.75765,0,0,0,.196-.68232c.01733-3.10863.045-6.21775-.00253-9.32566a4.64367,4.64367,0,0,0-.57029-1.46987Z" fill="#013da4"/><path d="M190.166,189.82018c1.12176-.8043,2.20473-.43081,3.20755-.47708.91076,1.50392,4.78832,16.73219,4.87955,19.13979a8.55221,8.55221,0,0,1-3.41413.04158l-1.00692-4.22145c-1.2511.04667-2.42339-.272-3.58957.27517l-.83535,3.99h-3.83248c.81291-3.2741,1.67406-6.39922,2.45593-9.54419C188.79975,195.93021,189.47553,192.81324,190.166,189.82018Zm1.81531,7.6828c.24952,1.14091-.9676,2.076-.39859,3.23184.63246.16269,1.16735.23973,1.646-.38659C192.796,199.45338,193.07581,198.29063,191.98135,197.503Z" fill="#013da4"/><path d="M143.48339,208.35161h-3.30286c-.36933-1.30352-.733-2.58721-1.12391-3.96688h-3.632l-1.05437,3.95863h-3.43612c-.51828-.92936.11386-1.77284.29334-2.579.55027-2.47154,1.3077-4.89628,1.95111-7.348.78262-2.98213,1.53116-5.97321,2.31872-9.05546h3.38643C140.46275,195.57411,142.08036,201.81948,143.48339,208.35161Zm-5.217-7.82148c-.44363-.96492-.30131-2.0169-1.22362-2.826l-.70344,2.826Z" fill="#013da4"/><path d="M172.95232,203.1291a6.702,6.702,0,0,1-1.92853,4.25827l-1.944,1.17553c-2.13.64245-3.80532-.40438-5.52919-1.56883v-1.1058c.22227-.08772.41347-.23942.52219-.19394a10.22888,10.22888,0,0,1,2.37,1.30026h2.40479a1.55254,1.55254,0,0,0,.20387-2.23469c-.43044-.59082-.90864-1.14684-1.36464-1.71912a2.394,2.394,0,0,1-.406-.53331c-.87385-2.19843-2.4209-4.04542-3.1273-6.3534-.91608-2.99306.36205-5.7314,3.343-6.65391a4.56406,4.56406,0,0,1,5.09556,1.64342c-.15764.54248-.549.47312-.95265.35891-1.07875-.30521-2.15663-.61348-3.36349-.95718l-1.20515,1.16879C169.22678,195.68564,172.23364,199,172.95232,203.1291Z" fill="#013da4"/><path d="M113.691,208.2949c-.42413-1.23969-.58611-14.859-.22318-18.91659a20.53872,20.53872,0,0,1,4.25745-.06216c0,.641.00006,1.19436,0,1.74772q-.00082,6.651-.00512,13.30194a1.98676,1.98676,0,0,0,.83443,2.03117c1.39182.06132,2.90431.128,4.49821.19821v1.69971Z" fill="#013da4"/><path d="M99.36373,208.287V189.074h4.544a41.9335,41.9335,0,0,1,.08783,4.70774c.02385,1.64583.00382,3.29229.004,4.93849.00017,1.58943.01868,3.17907-.00228,4.7682a41.36226,41.36226,0,0,1-.10191,4.79859Z" fill="#013da4"/><path d="M129.56269,208.327h-4.32518c-.10267-6.32333.02589-12.59211-.07831-18.96184,1.52385,0,2.917,0,4.31087.00019C129.75177,190.538,129.83893,205.77082,129.56269,208.327Z" fill="#013da4"/><path d="M188.7556,175.57137h7.16764V149.7533H198.749c.28162,1.2135.35939,27.30078.08339,29.3285a3.80294,3.80294,0,0,1-2.78008-.06232,4.49811,4.49811,0,0,0-1.45508-.31284q-7.42057-.03355-14.84128.005a4.82872,4.82872,0,0,0-1.90028.53381h-2.18c-.29469-1.3103-.33929-27.677-.05754-29.44428h2.757c.19373,1.80031.069,3.49407.09129,5.179.02258,1.7056.005,3.41173.005,5.11762v15.52517c1.28833.00981,2.45556.022,3.62281.02661,1.1286.00443,2.25722.001,3.56466.001.01789-.71072.04616-1.315.04636-1.91925q.00465-13.98834.005-27.97667c.00023-.61066.03194-1.22129.05255-1.95889h2.96722c.0495,5.25866.01852,10.52532.02425,15.79134C188.7601,164.866,188.7556,170.145,188.7556,175.57137Z" fill="#013da4"/><path d="M161.94269,161.61114c-2.27743.22727-4.43691-.14514-6.61355.24064v5.81349a16.28315,16.28315,0,0,0,3.84964.16658c1.2932.03794,2.58839.00836,3.9552.00836v2.73344a15.595,15.595,0,0,1-3.86619.16444c-1.24529.04535-2.49351.00986-3.76193.00986-.5458,1.30665.00021,2.65485-.41078,3.98438h-2.49773c-.07057-1.27013-.14117-2.54059-.2185-3.93243h-7.07033a8.73752,8.73752,0,0,1-.15276-2.91449h7.07242a15.86143,15.86143,0,0,0,.00787-6.19443h-6.9674a4.29234,4.29234,0,0,1,.55781-3.47829c.84529-1.33476,1.49383-2.7941,2.23844-4.22066-.60338-1.05792-1.713-.25114-2.5854-.78575v-2.63434c1.334-.44285,2.76975.01384,4.22578-.25772,1.67025-1.54357,1.9119-4.03829,3.5859-5.79555l2.35669,1.277c-.72727,1.48439-1.41456,2.88721-2.21464,4.52024,2.92555.17532,5.67808.00239,8.51509.113v2.92685c-2.12153.20355-4.31732-.04827-6.57842.14193a42.54569,42.54569,0,0,0-.0769,5.40032h6.64969Zm-9.7008-2.76562a15.83624,15.83624,0,0,0,.18176-4.5147c-.02028-.2252-.26737-.43-.43865-.688-1.07559.53357-1.19751,1.58682-1.59511,2.402-.42177.86471-1.26931,1.59069-1.14426,2.80077Z" fill="#013da4"/><path d="M115.823,145.3584h2.38094l.5534.91918h6.53574c.68974,1.10195.0745,1.95471-.32449,2.781-1.37411,2.8458-2.79977,5.6667-4.27376,8.634.95606,1.67786,1.84586,3.44219,2.92345,5.0832a15.11206,15.11206,0,0,1,2.618,8.10717c.022.95028.16755,1.8977.26911,2.98007-.39481.77646-1.13782.85112-1.95495.52932-1.4147-.55708-2.81218-1.15835-4.21125-1.75428-.46923-.19988-.92131-.44-1.356-.64951-.61876.21191-.52783.71-.529,1.15309-.00594,2.21685-.00273,4.43372-.00273,6.77481-.4768.03946-.90994.08986-1.3444.10725-.44973.018-.90074.004-1.25831.004-.1299-.14394-.17037-.18266-.20331-.227-.03328-.04479-.08441-.09509-.08453-.14309q-.0421-16.03623-.07575-32.07249c-.001-.4548.00193-.91011.02331-1.36422a1.90423,1.90423,0,0,1,.11785-.49535A2.76406,2.76406,0,0,1,115.823,145.3584Zm3.06388,23.46154,3.99641,1.58919c.50624-1.32333-.20911-2.3597-.61353-3.40032-.44258-1.13882-1.12851-2.18136-1.60091-3.31082a7.63681,7.63681,0,0,0-1.94449-2.826A22.05622,22.05622,0,0,0,118.88687,168.81994Zm-.35126-19.05564c0,1.41261-.00771,2.8734.01766,4.3336.00166.09532.25694.18624.48784.34259.31107-1.81008,2.10359-2.939,2.00817-4.96408A2.79612,2.79612,0,0,0,118.53561,149.7643Z" fill="#013da4"/><path d="M100.13382,168.21387l-2.20563-1.61318c2.942-4.38413,6.24614-8.36718,9.07072-12.84093-1.22692-.587-2.36261-.26425-3.44942-.32165-1.1271-.05954-2.2598-.01326-3.381-.01326a3.8945,3.8945,0,0,1-.08789-3.0304c1.2837,0,2.5789.00014,3.87409,0,1.364-.00019,2.73092-.056,4.0912.01509,1.266.0662,2.60364-.37039,3.78192.36354a2.18508,2.18508,0,0,1-.4531,2.27232c-.96207,1.248-1.87306,2.53538-2.85026,3.86762v1.75991l5.21214,5.48692-1.7567,1.87113c-1.27041-.58477-1.89548-2.02026-3.10149-2.64459a.84758.84758,0,0,0-.22006.06177.258.258,0,0,0-.09823.13611,2.5004,2.5004,0,0,0-.07332.49569c-.00372,5.22749-.00305,10.455-.00305,15.73872a8.45193,8.45193,0,0,1-2.85861.202c-.13406-1.54173-.04877-3.05642-.06311-4.56444-.0146-1.53439-.00186-3.069-.00167-4.60358q.00027-2.21657-.00057-4.43312a43.76861,43.76861,0,0,0-.16515-4.61973C103.29444,163.6598,102.09307,166.19909,100.13382,168.21387Z" fill="#013da4"/><path d="M136.26835,153.54681h7.07012v2.48177l-1.30437.30929V174.0287l4.3863,2.988h16.67445v2.89919c-.37527.03234-.808.10144-1.24075.102-4.89087.00685-9.78177-.006-14.6726.00972a4.62276,4.62276,0,0,1-2.8329-.89037c-1.05352-.75732-2.18187-1.41055-3.346-2.15224l-1.89454,2.10951c-1.108-.38445-1.108-.38445-2.272-1.70884.66463-.85681,1.34652-1.73587,2.01126-2.5928V156.26617l-2.46091-.13347A7.38083,7.38083,0,0,1,136.26835,153.54681Z" fill="#013da4"/><path d="M107.34475,146.95067l-2.185,1.88563-3.19834-3.18754c.49487-.50953.869-.91528,1.26715-1.296a8.17511,8.17511,0,0,1,.75282-.56124A28.55345,28.55345,0,0,1,107.34475,146.95067Z" fill="#013da4"/><path d="M140.16559,150.8551l-2.34292-3.37532,2.42269-1.59672,2.184,2.983Z" fill="#013da4"/></svg>