<svg id="Layer_1" data-name="Layer 1" xmlns="http://www.w3.org/2000/svg" viewBox="0 0 300 300"><path d="M118,134.65q-7.36-9.5-18.58-9.5a21.39,21.39,0,0,0-10.26,2.41Q84.8,130,80.42,137.65V102.13H65v94.33H80.38v-5.58a22.72,22.72,0,0,0,6.75,4.89,25.18,25.18,0,0,0,10.15,2.1q13.59,0,20.82-10.81T125.36,161Q125.36,144.18,118,134.65Zm-13.32,45.56a12.76,12.76,0,0,1-10.22,5,13.25,13.25,0,0,1-10.22-4.37q-3.88-4.34-3.89-13.45l-.07-10.15q0-9,4.13-13.91a13.12,13.12,0,0,1,10.46-4.88,11.67,11.67,0,0,1,10.47,5.78q3.7,5.75,3.71,16.41Q108.81,175.2,104.71,180.21Z" fill="#275d98" fill-rule="evenodd"/><path d="M220.41,155a32.57,32.57,0,0,0-8.6-17.59q-9.23-9.6-23.54-9.6-15.12,0-24.3,9.88t-9.22,24.81A38.88,38.88,0,0,0,163.08,187q8.32,10.74,24.12,10.74,14.66,0,24.26-9.67c5.3-5.37,8.36-12.22,9.26-20.51H235V155ZM187.79,185.2a13.71,13.71,0,0,1-11.74-5.78q-4.23-5.78-4.23-16.76,0-10.16,4-16.31t12.36-6.16c5.37,0,9.33,2,11.91,6a23.78,23.78,0,0,1,3.2,8.77H188.89l-2.1,12.63h17Q202.1,185.21,187.79,185.2Z" fill="#275d98" fill-rule="evenodd"/><rect x="132.59" y="135" width="15.42" height="61.43" fill="#275d98"/><path d="M148.38,120.75a8,8,0,1,1-8-8h0A8.05,8.05,0,0,1,148.38,120.75Z" fill="#275d98" fill-rule="evenodd"/></svg>