<svg id="Layer_1" data-name="Layer 1" xmlns="http://www.w3.org/2000/svg" viewBox="0 0 300 300"><defs><style>.cls-1{fill:#c33c32;}.cls-2{fill:#fff;}</style></defs><path id="SVGID" class="cls-1" d="M149.59,37.2C92.18,37.2,45.43,87.63,45.43,150S92.18,262.8,149.59,262.8c57.82,0,104.16-50.43,104.16-112.8.41-62.37-46.34-112.8-104.16-112.8"/><path class="cls-2" d="M121.29,130.09c-10.66,0-17.63,5.75-22.55,13.27V104.88H83.57v65.47c2.46,28.31,26.24,33.18,37.72,32.73,16-.44,30.76-13.27,30.76-36.27v-.44C152.05,142.92,136.88,130.09,121.29,130.09Zm15.59,36.28c0,13.71-8.61,22.56-18.87,22.56s-19.27-8.85-19.27-22.56v-.45c0-13.27,9-22.56,19.27-22.56,10.26.45,18.87,9.29,18.87,23Z"/><rect class="cls-2" x="162.71" y="131.42" width="15.17" height="69.89"/><path class="cls-2" d="M222.58,130.09c-20.5,0-35.26,16.81-35.26,36.72v.44c0,19.91,14.76,36.28,35.26,36.28a33.12,33.12,0,0,0,24.2-9.74,121.36,121.36,0,0,0,7.79-42.46v-.45A34.31,34.31,0,0,0,222.58,130.09Zm20.1,36.72c0,11.94-7.79,22.12-20.1,22.12-11.89,0-20.09-10.18-20.09-22.56v-.45c0-12.38,7.79-22.11,20.09-22.11,11.48.44,20.1,10.61,20.1,23Z"/><path class="cls-2" d="M170.09,104.44a8.41,8.41,0,0,0,0,16.81,8.41,8.41,0,0,0,0-16.81Z"/></svg>