<svg id="Layer_1" data-name="Layer 1" xmlns="http://www.w3.org/2000/svg" viewBox="0 0 300 300"><circle cx="69.04344" cy="106.84739" r="4.25271" fill="#1c3c70"/><circle cx="114.64643" cy="73.01701" r="3.16508" fill="#1c3c70"/><circle cx="96.01328" cy="81.03181" r="3.72663" fill="#1c3c70"/><circle cx="162.12268" cy="73.3233" r="2.65459" fill="#1c3c70"/><circle cx="178.65077" cy="80.96873" r="2.15612" fill="#1c3c70"/><circle cx="195.71342" cy="94.96839" r="2.24619" fill="#1c3c70"/><circle cx="206.84225" cy="109.16022" r="2.24619" fill="#1c3c70"/><circle cx="213.78502" cy="125.39403" r="1.53149" fill="#1c3c70"/><circle cx="183.15795" cy="215.34645" r="4.1833" fill="#1c3c70"/><path d="M30.11359,137.80326A14.65339,14.65339,0,0,0,16.63647,145.767V117.17918H10v59.21769h6.43227l.2042-7.35117a14.53937,14.53937,0,0,0,13.47713,8.168c9.69945,0,17.6632-7.75956,17.6632-19.70519S39.71094,137.80326,30.11359,137.80326ZM28.5821,171.49609c-6.94276,0-12.354-6.02387-12.354-13.98763s5.51337-13.98763,12.354-13.98763,12.45614,5.51338,12.45614,13.98763S35.52486,171.49609,28.5821,171.49609Z" fill="#1c3c70"/><rect x="58.2364" y="138.62006" width="6.73856" height="37.8789" fill="#1c3c70"/><path d="M94.4849,177.21366c10.92465,0,19.0926-7.55536,19.0926-19.70519,0-12.04774-8.168-19.70521-19.0926-19.70521s-19.0926,7.65746-19.0926,19.7052C75.39231,169.6583,83.66236,177.21366,94.4849,177.21366Zm0-5.61547c-7.04486,0-12.45613-5.51338-12.45613-14.19183,0-8.57636,5.41127-14.08973,12.45613-14.08973,7.147,0,12.55824,5.51338,12.55824,14.08973C107.04314,166.08482,101.52977,171.59819,94.4849,171.59819Z" fill="#1c3c70"/><path d="M152.00046,117.17918V145.767a14.45381,14.45381,0,0,0-13.27293-7.96377c-9.69945,0-17.76531,7.75956-17.76531,19.7052s8.06586,19.7052,17.76531,19.7052a14.49557,14.49557,0,0,0,13.375-8.168l.2042,7.35116H158.739V117.17918Zm-11.94563,54.31691c-6.94277,0-12.45614-5.51337-12.45614-13.98763s5.51337-13.98763,12.45614-13.98763,12.354,6.02387,12.354,13.98763C152.511,165.47222,146.99759,171.49609,140.05483,171.49609Z" fill="#1c3c70"/><path d="M205.44394,156.69167c0-12.66034-7.35116-18.9905-17.56111-18.9905-10.72044,0-18.6842,7.35116-18.6842,19.70519,0,12.45614,7.86166,19.7052,18.8884,19.7052a17.423,17.423,0,0,0,16.54012-11.12884l-6.02387-1.2252a11.49179,11.49179,0,0,1-10.61835,6.84067c-6.53436,0-12.04773-4.28818-12.25193-13.06873h29.60884Zm-17.56111-13.78343c5.92177,0,10.31205,3.47138,10.82255,10.51624H175.9372C177.16239,146.37962,181.859,142.90824,187.88283,142.90824Z" fill="#1c3c70"/><path d="M210.5944,176.499h8.168l10.51625-14.396,10.41414,14.396h8.168l-14.60022-18.9905,14.60022-18.9905h-8.06586l-10.51624,14.49812L218.76236,138.518h-8.168l14.60023,18.8884Z" fill="#1c3c70"/><path d="M264.80372,177.21366a15.14369,15.14369,0,0,0,12.45614-5.81967h.3063c.71469,3.57348,3.36928,5.105,7.147,5.105h3.36928v-4.79867h-.6126c-2.65458,0-3.87978-.9189-3.87978-5.00288V151.0762c0-9.90365-6.94276-13.06874-14.49812-13.06874-8.37216,0-13.88553,3.47138-15.11072,10.82254l6.02386,1.2252c.6126-5.105,4.28819-7.147,8.67846-7.147s8.37216,1.93989,8.37216,7.45326c0,1.93989-1.021,3.063-3.36928,3.47138l-6.126,1.021c-8.27006,1.42939-14.396,4.084-14.396,11.94564C253.26648,174.04858,258.57565,177.21366,264.80372,177.21366Zm1.53149-5.41127c-3.67558,0-6.63646-1.5315-6.63646-5.51338,0-3.77768,2.75668-5.41127,7.75956-6.22806l10.10785-1.93989C277.56616,166.69741,272.97168,171.80239,266.33521,171.80239Z" fill="#1c3c70"/><path d="M140.12007,193.391a3.28794,3.28794,0,0,0-3.063,1.53149l-.10209-1.32729H134.3004v14.80442h2.75669v-6.02387a3.55861,3.55861,0,0,0,3.063,1.42939c2.65459,0,4.79868-1.93988,4.79868-5.20707S142.77465,193.391,140.12007,193.391Zm-.6126,7.96376a2.86664,2.86664,0,1,1,2.65458-2.85879A2.63154,2.63154,0,0,1,139.50747,201.35477Z" fill="#00b8e9"/><path d="M152.995,193.391a4.21287,4.21287,0,0,0-3.26719,1.32729v-6.126h-2.75668v14.80443h2.75668v-5.51338c0-1.93989,1.1231-2.45038,2.14409-2.45038a1.69616,1.69616,0,0,1,1.83779,1.93989v5.92177h2.75669v-6.43227C156.56846,194.6162,155.13907,193.391,152.995,193.391Z" fill="#00b8e9"/><path d="M167.2586,201.04847v-4.084c0-2.96088-2.14408-3.57348-4.18607-3.57348-2.65459,0-4.18608.91889-4.59448,2.96088l2.45039.4084a1.72731,1.72731,0,0,1,1.93989-1.53149c.81679,0,1.63359.3063,1.63359,1.22519,0,.4084-.2042.6126-.9189.8168l-1.63359.40839c-2.042.4084-3.57348,1.1231-3.57348,3.16509s1.53149,2.75668,3.063,2.75668a4.39236,4.39236,0,0,0,3.16508-1.22519l.2042,1.1231h2.55248v-.3063C167.3607,202.68206,167.2586,202.17156,167.2586,201.04847Zm-4.90077.8168c-.7147,0-1.2252-.3063-1.2252-1.1231,0-.7147.4084-1.12309,1.3273-1.32729l2.34828-.7147C164.80821,200.94637,163.68512,201.86527,162.35783,201.86527Z" fill="#00b8e9"/><path d="M172.72174,195.0246l-.10209-1.42939h-2.65459v9.90365h2.75669v-4.79868c0-2.14409,1.021-2.75669,3.063-2.75669v-2.45038A3.9072,3.9072,0,0,0,172.72174,195.0246Z" fill="#00b8e9"/><path d="M189.28471,193.391a3.51426,3.51426,0,0,0-3.063,1.53149,3.37983,3.37983,0,0,0-3.063-1.53149A3.49518,3.49518,0,0,0,180.3,194.7183v-1.12309h-2.75669v9.90365H180.3v-5.41127c0-1.83779.9189-2.45039,1.83779-2.45039a1.53261,1.53261,0,0,1,1.63359,1.73569v6.126h2.85878v-5.61547c0-1.7357.9189-2.24619,1.83779-2.24619a1.475,1.475,0,0,1,1.5315,1.63359v6.22807h2.75668v-6.94277C192.7561,194.412,191.4288,193.391,189.28471,193.391Z" fill="#00b8e9"/><path d="M203.54673,201.04847v-4.084c0-2.96088-2.14409-3.57348-4.18608-3.57348-2.65458,0-4.18607.91889-4.59447,2.96088l2.45038.4084a1.72731,1.72731,0,0,1,1.93989-1.53149c.8168,0,1.6336.3063,1.6336,1.22519,0,.4084-.2042.6126-.9189.8168l-1.63359.40839c-2.042.4084-3.57348,1.1231-3.57348,3.16509s1.53149,2.75668,3.063,2.75668a4.39237,4.39237,0,0,0,3.16509-1.22519l.2042,1.1231h2.55248v-.3063C203.64883,202.68206,203.54673,202.17156,203.54673,201.04847Zm-4.90077.8168c-.7147,0-1.2252-.3063-1.2252-1.1231,0-.7147.4084-1.12309,1.32729-1.32729l2.34829-.7147C201.09634,200.94637,199.97325,201.86527,198.646,201.86527Z" fill="#00b8e9"/><path d="M210.74558,203.601a4.68093,4.68093,0,0,0,4.90078-3.67558l-2.55249-.3063a2.14313,2.14313,0,0,1-2.34829,1.73569c-1.53149,0-2.55248-1.22519-2.55248-2.96088s1.021-2.96089,2.55248-2.96089a2.20785,2.20785,0,0,1,2.34829,1.73569l2.55249-.30629a4.60993,4.60993,0,0,0-4.90078-3.67558,5.20807,5.20807,0,1,0,0,10.41414Z" fill="#00b8e9"/><path d="M226.89667,198.39388c0-3.47138-2.14409-5.00287-4.90078-5.00287a4.877,4.877,0,0,0-5.20707,5.20707c0,3.26719,2.14409,5.105,5.30917,5.105a4.67116,4.67116,0,0,0,4.69658-3.16508l-2.55249-.4084a2.12714,2.12714,0,0,1-2.14409,1.3273,2.435,2.435,0,0,1-2.55249-2.45039h7.35117Zm-4.90078-3.063A2.0332,2.0332,0,0,1,224.14,197.475H219.5455A2.2745,2.2745,0,0,1,221.99589,195.3309Z" fill="#00b8e9"/><path d="M235.5719,193.59521v5.51337c0,1.83779-1.021,2.45039-2.24619,2.45039a1.63633,1.63633,0,0,1-1.73569-1.83779v-6.02387h-2.75668v6.63646c0,2.14409,1.32729,3.47138,3.67558,3.47138a3.889,3.889,0,0,0,3.16508-1.42939l.1021,1.22519h2.65459v-9.90364H235.5719Z" fill="#00b8e9"/><path d="M244.93475,203.49886h1.83779v-2.14409h-.91889c-.7147,0-1.1231-.4084-1.1231-1.32729V195.6372h2.042v-2.14409h-2.042V190.328h-2.55248v1.32729c0,1.53149-.6126,1.83779-1.63359,1.83779h-.6126v2.14409h1.93989v4.69658A2.825,2.825,0,0,0,244.93475,203.49886Z" fill="#00b8e9"/><path d="M250.38244,192.06372a1.67911,1.67911,0,0,0,1.63359-1.63359,1.63359,1.63359,0,1,0-1.63359,1.63359Zm-1.42939,11.43514h2.75668v-9.90365h-2.75668Z" fill="#00b8e9"/><path d="M259.02314,203.601a4.68093,4.68093,0,0,0,4.90078-3.67558l-2.55249-.3063a2.14313,2.14313,0,0,1-2.34829,1.73569c-1.53149,0-2.55248-1.22519-2.55248-2.96088s1.021-2.96089,2.55248-2.96089a2.20785,2.20785,0,0,1,2.34829,1.73569l2.55249-.30629a4.60993,4.60993,0,0,0-4.90078-3.67558,5.20807,5.20807,0,1,0,0,10.41414Z" fill="#00b8e9"/><path d="M274.05113,201.04847v-4.084c0-2.96088-2.14409-3.57348-4.18608-3.57348-2.65458,0-4.18607.91889-4.59447,2.96088l2.45039.4084a1.7273,1.7273,0,0,1,1.93989-1.53149c.81679,0,1.63359.3063,1.63359,1.22519,0,.4084-.2042.6126-.9189.8168l-1.63359.40839c-2.042.4084-3.57348,1.1231-3.57348,3.16509s1.53149,2.75668,3.063,2.75668a4.39237,4.39237,0,0,0,3.16509-1.22519l.2042,1.1231h2.55248v-.3063A11.213,11.213,0,0,1,274.05113,201.04847Zm-4.90077.8168c-.7147,0-1.22519-.3063-1.22519-1.1231,0-.7147.40839-1.12309,1.32729-1.32729l2.34829-.7147C271.49865,200.94637,270.47765,201.86527,269.15036,201.86527Z" fill="#00b8e9"/><path d="M276.75759,203.49886h2.85879V188.69443h-2.85879Z" fill="#00b8e9"/><path d="M285.916,203.70306c2.14409,0,4.084-.8168,4.084-3.063,0-2.14409-1.63359-2.75668-3.16508-3.16508-1.2252-.3063-2.34829-.5105-2.34829-1.2252,0-.61259.6126-.91889,1.32729-.91889a1.63386,1.63386,0,0,1,1.73569,1.22519l2.34829-.51049c-.4084-1.83779-2.24619-2.65459-4.084-2.65459-2.24619,0-3.87978.9189-3.87978,2.96089,0,1.63359,1.1231,2.34828,2.34829,2.75668,1.53149.5105,3.16508.6126,3.16508,1.63359,0,.8168-.71469,1.021-1.42939,1.021a1.787,1.787,0,0,1-1.93989-1.42939l-2.34829.61259C281.93414,202.78416,283.66983,203.70306,285.916,203.70306Z" fill="#00b8e9"/><circle cx="137.41461" cy="70.05612" r="3.16508" fill="#1c3c70"/><circle cx="81.92356" cy="92.97745" r="4.23713" fill="#1c3c70"/><circle cx="60.95538" cy="125.19863" r="4.7854" fill="#00b8e9"/><circle cx="160.89749" cy="226.67671" r="3.77768" fill="#1c3c70"/><circle cx="140.37551" cy="229.94389" r="3.16507" fill="#1c3c70"/><circle cx="114.84323" cy="225.64832" r="2.66198" fill="#1c3c70"/><circle cx="93.56092" cy="216.92003" r="2.09501" fill="#1c3c70"/><circle cx="77.88117" cy="204.71587" r="2.15354" fill="#1c3c70"/><circle cx="66.46168" cy="186.96622" r="1.5253" fill="#1c3c70"/></svg>