<?xml version="1.0" encoding="UTF-8"?>
<svg id="Layer_1" xmlns="http://www.w3.org/2000/svg" viewBox="0 0 300 300">
  <defs>
    <style>
      .cls-1 {
        fill: #d51c5a;
      }

      .cls-2 {
        fill: #b53493;
      }

      .cls-3 {
        fill: #0b1d2b;
      }

      .cls-4 {
        fill: #ea1947;
      }

      .cls-5 {
        fill: #f0483e;
      }

      .cls-6 {
        fill: #613494;
      }
    </style>
  </defs>
  <polygon class="cls-5" points="146.87 65.78 144.12 66.18 142.16 66.57 139.03 67.74 135.9 69.31 133.16 71.27 132.37 73.22 131.2 74.8 130.81 75.58 130.81 75.97 130.81 76.75 131.98 79.49 133.94 80.67 135.9 83.02 137.47 84.59 139.82 85.76 141.78 86.15 144.91 86.15 146.87 86.55 149.22 86.94 151.96 86.94 154.7 87.33 158.22 86.94 160.97 86.15 164.49 84.98 165.67 83.41 167.23 81.84 168.8 79.49 168.41 77.53 168.01 74.4 164.49 69.31 161.36 66.96 160.18 66.18 159.01 65.78 157.84 65.78 154.31 66.18 150.78 65.39 149.22 65 146.87 65.78"/>
  <polygon class="cls-4" points="134.72 119.45 151.57 119.84 153.91 119.45 157.44 119.45 160.57 119.84 162.93 120.62 164.88 121.8 165.67 122.58 166.06 123.37 166.06 124.54 166.06 125.72 165.28 126.5 163.71 127.68 161.75 128.06 158.62 128.06 149.22 127.28 135.12 125.72 134.33 125.32 133.94 124.93 133.94 122.97 134.72 119.45"/>
  <polygon class="cls-1" points="139.43 135.12 140.99 136.29 141.78 136.68 142.95 137.07 143.73 136.68 144.51 136.29 145.3 135.9 146.09 135.9 147.65 136.29 149.22 136.68 150.39 136.29 151.96 135.9 153.53 136.68 154.31 137.07 155.09 137.07 159.79 136.29 163.71 137.07 164.1 137.07 164.1 137.07 164.1 137.85 163.71 138.25 163.71 138.64 164.88 139.43 166.06 139.82 166.45 139.82 166.45 140.6 166.84 140.99 166.45 142.16 166.06 142.56 165.67 142.95 163.32 143.34 156.66 143.73 146.87 142.56 138.64 140.99 137.47 140.21 136.29 139.43 135.9 137.85 135.51 136.68 139.43 135.12"/>
  <polygon class="cls-1" points="137.07 144.51 139.82 145.3 140.99 145.69 142.16 145.69 153.91 145.3 158.22 145.69 162.15 146.47 163.71 146.87 164.49 147.26 165.28 148.04 166.06 149.22 166.06 150.78 166.06 151.96 165.28 152.74 165.28 153.53 153.91 153.53 150.39 153.53 146.47 153.13 142.95 152.35 139.43 151.96 137.07 151.57 135.9 151.18 135.51 150.78 134.33 148.82 133.94 146.47 137.07 144.51"/>
  <polygon class="cls-2" points="137.85 157.84 142.95 158.62 144.91 158.62 146.09 158.22 148.04 158.22 151.18 158.62 155.88 158.62 160.18 158.22 161.75 158.22 163.32 158.62 165.67 160.57 166.06 161.75 166.84 162.93 166.84 164.1 166.45 165.28 165.28 169.19 164.49 170.76 163.32 171.94 162.53 172.32 161.75 172.32 159.79 171.94 157.84 171.54 156.27 171.54 155.09 171.54 153.91 172.32 152.74 172.72 151.57 172.72 148.04 171.94 145.69 171.54 143.34 171.94 142.95 171.94 142.16 171.94 141.78 171.54 140.99 171.15 139.43 171.15 139.03 171.15 138.64 170.76 137.07 168.01 135.12 166.06 134.33 164.88 133.94 163.71 134.33 162.15 135.51 160.97 137.85 157.84"/>
  <polygon class="cls-6" points="143.73 184.08 145.69 183.69 147.65 184.08 158.62 185.25 161.36 185.65 164.49 186.43 165.67 187.21 166.84 188.38 168.01 189.95 168.8 192.31 169.19 196.22 169.19 198.18 168.41 200.14 167.23 201.31 166.06 202.48 162.53 204.06 153.13 205.23 150.39 204.84 147.26 204.06 144.51 203.27 141.78 202.88 137.85 202.48 135.12 200.92 133.16 198.96 131.98 196.61 131.98 193.87 132.37 191.91 133.55 189.95 135.51 188.38 139.03 186.43 141.38 185.65 142.16 185.25 142.56 184.86 142.95 184.47 143.73 184.08"/>
  <polygon class="cls-3" points="148.82 215.41 144.91 216.59 141.38 217.76 137.85 219.72 135.9 221.29 135.12 223.25 134.33 225.6 134.72 227.95 135.51 230.3 135.9 231.47 137.07 232.26 139.82 233.82 143.34 234.61 147.65 235 152.35 235 156.66 234.22 160.18 233.04 163.32 231.08 164.49 229.91 165.28 228.34 165.67 226.38 165.67 223.64 164.88 219.33 164.1 218.94 163.32 218.54 161.36 218.16 160.57 217.37 159.4 216.2 155.49 215.02 151.96 214.63 148.82 215.41"/>
</svg>