<?xml version="1.0" encoding="UTF-8"?>
<svg xmlns="http://www.w3.org/2000/svg" version="1.1" xmlns:xlink="http://www.w3.org/1999/xlink" viewBox="0 0 300 300">
  <defs>
    <style>
      .cls-1 {
        fill: #fff;
      }

      .cls-2 {
        fill: none;
      }

      .cls-3 {
        fill: url(#radial-gradient);
      }

      .cls-4 {
        fill: #00205c;
      }

      .cls-5 {
        clip-path: url(#clippath);
      }
    </style>
    <clipPath id="clippath">
      <polygon class="cls-2" points="150 52.8 65.8 101.4 65.8 198.6 150 247.2 234.2 198.6 234.2 101.4 150 52.8"/>
    </clipPath>
    <radialGradient id="radial-gradient" cx="150" cy="150" fx="150" fy="150" r="86.3" gradientTransform="translate(0 300) scale(1 -1)" gradientUnits="userSpaceOnUse">
      <stop offset="0" stop-color="#c20101"/>
      <stop offset=".3" stop-color="#f1421a"/>
      <stop offset=".5" stop-color="#e19256"/>
      <stop offset=".6" stop-color="#bb8d70"/>
      <stop offset=".8" stop-color="#4a80bd"/>
      <stop offset="1" stop-color="#01457d" stop-opacity="0"/>
    </radialGradient>
  </defs>
  <!-- Generator: Adobe Illustrator 28.6.0, SVG Export Plug-In . SVG Version: 1.2.0 Build 709)  -->
  <g>
    <g id="Layer_1">
      <g id="layer">
        <polygon class="cls-1" points="114.6 227.7 114.2 227.5 65 199.1 65 100.9 65.2 100.8 150 51.9 176.5 67.2 176.2 67.5 122 138.7 147 130.4 112.8 195.2 131.8 186.8 114.6 227.7"/>
        <polygon class="cls-4" points="65.8 198.6 114.2 226.5 130.2 188.5 110.9 196.9 145.3 131.9 119.7 140.4 175.3 67.4 150 52.8 65.8 101.4 65.8 198.6"/>
        <polygon class="cls-1" points="150 248.1 117.6 229.4 159.8 164.2 144 169.9 180.6 101.2 157 112.5 180.1 69.2 180.5 69.5 235 100.9 235 199.1 234.8 199.2 150 248.1"/>
        <polygon class="cls-4" points="118.8 229.2 150 247.2 234.2 198.6 234.2 101.4 180.5 70.4 158.9 110.6 182.6 99.3 145.8 168.4 161.9 162.6 118.8 229.2"/>
        <g class="cls-5">
          <circle class="cls-3" cx="150" cy="150" r="86.3"/>
        </g>
        <polygon class="cls-1" points="144.9 169.1 181.6 100.2 158 111.5 180.3 69.8 175.9 67.3 120.9 139.6 146.1 131.1 111.9 196.1 131 187.6 114.4 227.1 118.2 229.3 160.9 163.4 144.9 169.1"/>
      </g>
    </g>
  </g>
</svg>