<svg id="Layer_1" data-name="Layer 1" xmlns="http://www.w3.org/2000/svg" viewBox="0 0 300 300"><path d="M52,230l-2-4.34285C110.34285,201.94286,134.85715,119.6,139.6,81.42857h1.82857v53.02857C130.05714,185.14287,75.82857,224.11429,52,230Z" fill="#90d1ee"/><path d="M153.88572,70a1.0243,1.0243,0,0,0-1.02858,1.02857V228.74285c0,.57142.45715,1.25715,1.02858,1.25715h15.14285c.57143,0,.97143-.68571.97143-1.25715V216.62857c0-1.37144,3.65714-2,4.57142-.97142A41.31424,41.31424,0,0,0,205.37142,230C230,230,250,206.57144,250,177.71429s-20-50.57143-44.68571-50.57143c-12.57144,0-24,4.45714-32.11428,14.28571-.45714.57143-3.2.28571-3.2-.4v-70A.97734.97734,0,0,0,169.02858,70ZM170,189.14285V167.88571a33.02857,33.02857,0,0,1,30.85715-23.6c16.91428,0,32,15.25715,32,34.28572s-15.08571,34.28571-32,34.28571A33.14289,33.14289,0,0,1,170,189.14285Z" fill="#0d1e49"/></svg>