<svg id="Layer_1" data-name="Layer 1" xmlns="http://www.w3.org/2000/svg" viewBox="0 0 300 300"><path d="M178.3691,180.80866c-1.9892,2.18648-3.752,2.26149-5.70084.06365-.98455-3.85487.26347-7.56364,1.49339-11.23722,3.35255-10.01352,8.91833-18.859,14.79551-27.52816,2.18908-3.229,4.58739-6.32447,6.64985-9.63007,19.31793-30.96212,1.02324-72.64915-34.82284-79.88815C131.2593,46.62626,105.066,65.62229,98.38077,90.4655c-4.5765,17.00681-1.31518,32.47816,8.85658,46.816A233.51049,233.51049,0,0,1,121.08012,159.303c2.53851,4.588,4.02724,9.78115,5.72389,14.79128.66116,1.95238.5983,4.14868.832,5.97409-2.8881,2.64837-2.8881,2.64837-6.078.89934-1.1559-12.89277-8.2669-23.33552-15.10136-33.88439-2.31263-3.56949-5.00271-6.89881-7.26147-10.49942-22.12653-35.2711-2.4772-82.1901,39.22394-90.27672,27.27042-5.28824,52.461,7.90392,64.20052,30.38043,10.67076,20.43039,9.72426,40.91809-2.53953,60.61475-4.21284,6.76617-8.90776,13.23567-13.06538,20.03361C182.565,164.6116,178.80464,172.232,178.3691,180.80866Z"/><path d="M180.07963,203.3748c3.99509,7.56426,3.31764,10.67273-3.478,16.66187-.002,1.58176.04567,3.16524-.01057,4.745-.20115,5.65022-3.59291,9.143-9.27208,9.57346-.706.05351-1.419.01861-2.12873.01866-10.1145.00084-20.2421-.316-30.33942.09945-8.28957.341-13.41505-4.95218-11.68077-13.38085a3.2514,3.2514,0,0,0-.13261-1.03155c-6.75467-6.27179-7.39064-9.29276-3.61534-16.25018-.79254-2.50284-1.95983-4.76831-2.16309-7.11679-.47227-5.45666,3.88129-10.02879,9.7592-10.48074,2.99918-.23061,6.02985-.05923,9.0463-.06q16.5026-.00394,33.00521.00106a32.73327,32.73327,0,0,1,4.25415.07649c6.90124.91271,10.75719,7.05379,8.53448,13.58494A30.18981,30.18981,0,0,1,180.07963,203.3748Zm-49.624,17.11222c-1.45312,2.99885-1.52682,5.0932.05959,7.00649,4.0571.88423,32.40213,1.02691,37.81166.23306,2.21109-2.84936,2.21109-2.84936.75547-6.86971-7.52327-.29312-15.24975-.59413-22.6964-.88426-1.45146-2.15156-1.57608-3.72534.29188-5.63393,1.51547-.14592,3.42481-.46879,5.33732-.48883,6.75112-.07074,13.50347-.01845,20.25494-.06826a14.10182,14.10182,0,0,0,2.66109-.55l1.53533-2.97718-1.90549-3.40055c-3.16541-.35838-6.30023-.71331-9.35169-1.05881-1.78709-3.49937-1.17155-5.25332,2.033-5.72922a27.78131,27.78131,0,0,1,4.25836-.0769c2.70455.02032,4.35622-1.19338,4.76689-3.858-.7046-2.72247-2.53983-3.80062-5.13965-3.80143q-21.3216-.00659-42.64318.00927a4.65689,4.65689,0,0,0-4.66694,2.88737,10.64664,10.64664,0,0,0-.3965,1.69575l2.30114,3.06707c1.773,0,3.533,0,5.29306,0,6.57417-.00017,13.14843.01782,19.72247-.01073,2.20209-.00957,4.31862.04883,5.57421,2.84059l-1.12369,3.072-29.83624.82983-2.08649,3.594c.71745,1.145,1.34958,2.15387,2.00687,3.20288L139.413,214.7594c1.05146,3.94617.4797,5.33083-2.43417,5.67931A56.63744,56.63744,0,0,1,130.45564,220.487Z"/><path d="M174.17141,136.27747a60.231,60.231,0,0,1-1.90212,6.509c-1.58074,3.75828-4.48818,5.946-8.66278,5.8389a27.17407,27.17407,0,0,1-7.30431-1.01738c-5.94841-1.85042-8.33578-5.18736-8.34835-11.367q-.061-30.01677.00043-60.03372c.01379-6.61493,3.47829-11.15545,9.31931-12.5238a12.98611,12.98611,0,0,1,14.60692,7.077c.70443,1.42,1.20781,2.9393,1.884,4.61184,4.09195,1.38012,8.37253,2.7327,10.55146,7.12788a13.30129,13.30129,0,0,1,1.1013,10.41648c3.07016,3.52459,7.00748,6.60226,7.191,11.89481.18249,5.263-2.53521,9.02981-6.423,12.13092.1726,4.53893,1.73107,9.04452-.58228,13.18755C183.209,134.41736,178.87158,135.56792,174.17141,136.27747ZM167.1402,83.04832a33.10325,33.10325,0,0,0-.0506-4.996,17.30425,17.30425,0,0,0-1.56727-5.49709c-1.28979-2.3653-4.40209-3.30773-6.97883-2.609a5.92181,5.92181,0,0,0-4.30176,5.46773,31.50274,31.50274,0,0,0-.04676,3.18936q-.00293,27.92767-.00148,55.85535v3.876c3.89577,3.95918,4.9331,4.28814,10.86253,3.62251a6.14457,6.14457,0,0,0,1.49058-7.60224,3.65284,3.65284,0,0,1,.67767-4.69092c3.78557-1.11134,8.66859,1.65671,12.42408-2.22453,1.5793-2.5733.717-5.25642.00456-7.81036l-4.10153-1.97281.57374-3.67158c4.93426-2.072,11.1252-2.8,9.83033-10.6491-1.00109-1.16981-2.1351-2.49492-3.26145-3.81109l-4.85387,2.29691L175.159,98.25653c1.35229-2.08977,2.48778-3.66552,3.43314-5.34757a7.0979,7.0979,0,0,0-.02492-7.58334,5.3977,5.3977,0,0,0-4.72707-2.88716L169.67125,84.856Z"/><path d="M119.98656,126.29328c3.88526,3.19644,7.95033,2.72674,11.93331,3.19785l1.94523,2.62027-2.1645,4.05307c2.04975,5.00279,2.04975,5.00279,14.31374,5.11532L147.711,144.979c-4.69516,4.22607-9.67412,2.99137-14.593,1.7106-5.70618-1.48574-7.09287-6.39991-8.42214-11.08147-11.1715-4.3718-11.89416-5.56985-11.21908-18.3528-9.91194-10.1975-7.00227-17.51957-.307-23.80113-1.27259-9.968,1.76523-14.36108,12.615-18.24306,2.95707-8.8768,7.72064-11.99308,17.68-11.56608,2.4074,2.507,2.4074,2.507.74678,5.46654-2.91873.73562-5.84253,1.3591-8.68082,2.25278-.92487.29122-1.62662,1.28732-2.89873,2.35356l.89052,9.13377c-.51246,1.86341-2.19853,2.27753-4.74066,1.64855-.58446-.71167-1.34686-1.64-2.1106-2.56688-4.10768-.20621-7.05349,3.43035-7.39842,9.10708.56775,2.77718,5.625,4.30181,2.05943,8.40683l-4.92917.21929c-5.2848,6.48893-3.62589,9.80417,7.62942,15.006l.47731,3.76136-4.52316,1.94019Z"/><path d="M139.57408,108.68727l-1.58439,3.14778a5.53257,5.53257,0,0,1-1.27736.50343c-8.077.48737-12.62146-8.20157-12.12442-14.40447.13994-1.74627.68461-2.2404,3.44026-4.12759V89.36963c5.60458-1.18072,8.61524-4.7888,9.21459-9.95179,3.65621-1.14371,3.65621-1.14371,5.77854,1.725-1.68372,8.25045-3.84575,10.80656-12.03369,14.07654-.47806,2.93016-.6382,6.10033,1.48483,8.41251C134.2785,105.59882,136.88836,106.83155,139.57408,108.68727Z"/><path d="M139.10075,237.98228c1.9449.18921,2.91642,1.06306,3.301,2.60947a23.00444,23.00444,0,0,0,.77289,3.06177c1.26952,3.153,3.92927,5.07129,6.89106,4.881a6.88136,6.88136,0,0,0,6.47243-4.69837c.54644-1.47643.9039-3.02243,1.34757-4.53945,1.93407-1.90028,3.71-1.76867,5.35726.27431.73428,12.68785-10.29256,17.70668-18.83786,14.19171-5.14627-2.11683-7.26815-6.51139-8.17031-11.59916C135.88755,240.20546,137.04193,238.80763,139.10075,237.98228Z"/><path d="M144.35914,131.09464l-3.41377,1.6978c-.77115-.70322-1.75405-1.16685-1.96421-1.86267-1.2053-3.99068-4.05649-5.98067-7.887-6.94534a4.0305,4.0305,0,0,1-3.36094-3.61561c.28376-1.53465,1.19271-2.64552,2.787-2.63377a15.355,15.355,0,0,1,10.07457,4.00951C143.21539,124.0113,144.97619,126.76859,144.35914,131.09464Z"/><path d="M170.07916,121.75517l-.16786,2.70725-7.32044,5.23219v5.30829c-1.47432,2.45386-3.247,2.25713-5.09593,1.499-2.49777-5.49713-1.61242-9.86917,2.7617-13.22243A33.78869,33.78869,0,0,1,165.271,120.338C167.09012,119.38987,168.6828,119.74362,170.07916,121.75517Z"/><path d="M163.58994,116.586c-2.57226-.58415-3.43592-2.02224-2.8009-4.86667,4.93074-2.43117,5.47848-8.10145,7.67164-13.27856l4.119.74571c1.65231,3.35071.28151,5.84707-.62975,8.22079C170.36427,111.5377,168.38458,115.51682,163.58994,116.586Z"/><path d="M171.06663,90.58956l.30035,3.60033c-3.66034,1.93931-6.3607,1.62982-9.08454-1.144a19.45564,19.45564,0,0,1-4.79323-9.84849,3.41278,3.41278,0,0,1,2.46915-4.24856,3.14192,3.14192,0,0,1,3.65707,2.82131A10.5513,10.5513,0,0,0,171.06663,90.58956Z"/></svg>