<?xml version="1.0" encoding="UTF-8"?>
<svg xmlns="http://www.w3.org/2000/svg" version="1.1" viewBox="0 0 300 300">
  <defs>
    <style>
      .cls-1 {
        fill: #e65925;
      }

      .cls-2 {
        fill: #23408f;
      }
    </style>
  </defs>
  <!-- Generator: Adobe Illustrator 28.6.0, SVG Export Plug-In . SVG Version: 1.2.0 Build 709)  -->
  <g>
    <g id="Layer_1">
      <g>
        <path class="cls-2" d="M127.1,183.1h15.8l-24.3-65.1h-17.2l-24.8,65.1h15.6l4.6-11.8h25.9l4.3,11.8ZM118.9,160.6h-18.2l9.2-27.1,9,27.1Z"/>
        <path class="cls-2" d="M148.6,183.1h35.7v-12.2h-20.9v-52.9h-14.7v65.1Z"/>
        <path class="cls-2" d="M208.6,183.1h24.4c16.9,0,31.7-15.2,31.7-32.5s-14.8-32.6-31.7-32.6h-24.4v65.1ZM228.7,170.9h-5.4v-40.6h1.3c16.3,0,24.5,6.9,24.5,20.4s-8.2,20.3-20.5,20.3h0Z"/>
        <path class="cls-2" d="M277.6,135.3c-2.9,0-5.6-1.3-7.4-3.2v51.1h14.7v-51c-1.8,2-4.4,3.2-7.3,3.2h0Z"/>
        <path class="cls-2" d="M64.4,163.7c-3.6,3.9-8.8,6.4-14.5,6.4-11,0-19.9-8.9-19.9-19.9s8.9-19.9,19.9-19.9,10.7,2.4,14.3,6.1l10.9-9c-6.3-7.2-15.5-11.7-25.8-11.7-18.9,0-34.3,15.3-34.3,34.3s15.3,34.3,34.3,34.3,19.5-4.5,25.8-11.7l-10.6-8.9h0Z"/>
        <path class="cls-1" d="M277.6,132.6c4.1,0,7.4-3.3,7.4-7.4s-3.3-7.4-7.4-7.4-7.4,3.3-7.4,7.4,3.3,7.4,7.4,7.4Z"/>
        <path class="cls-2" d="M196.7,135.3c-2.9,0-5.6-1.3-7.4-3.2v51.1h14.7v-51c-1.8,2-4.4,3.2-7.3,3.2h0Z"/>
        <path class="cls-1" d="M196.7,132.6c4.1,0,7.4-3.3,7.4-7.4s-3.3-7.4-7.4-7.4-7.4,3.3-7.4,7.4,3.3,7.4,7.4,7.4Z"/>
      </g>
    </g>
  </g>
</svg>