<?xml version="1.0" encoding="UTF-8"?>
<svg xmlns="http://www.w3.org/2000/svg" version="1.1" viewBox="0 0 300 300">
  <defs>
    <style>
      .cls-1 {
        fill: #3d3165;
      }

      .cls-2 {
        fill: #aa2638;
      }
    </style>
  </defs>
  <!-- Generator: Adobe Illustrator 28.6.0, SVG Export Plug-In . SVG Version: 1.2.0 Build 709)  -->
  <g>
    <g id="Layer_1">
      <g>
        <path class="cls-1" d="M80.5,135c2.5.1,4.9.5,7,1.8,1.8,1.1,3.3,2.7,4.3,4.5.5.9.9,1.8,1.2,2.8l-7.9,1.8c-.1-.4-.3-.9-.5-1.3-.8-1.7-2.6-2.8-4.5-2.8-1.2,0-2.3.2-3.3.8-1.3.8-2.1,2.2-2.4,3.6-.3,1.5-.4,3-.4,4.6,0,1.4.2,2.8.6,4.1.5,1.9,2.2,3.3,4.3,3.5.9.1,1.9,0,2.8-.2,1.3-.4,2.3-1.3,2.8-2.6.4-.8.7-1.7.9-2.6,0,0,0-.1,0-.2l7.8,2.4c0,.1,0,.2,0,.4,2.5-6.7,5-13.3,7.5-19.9h9.8l8.3,22h0v-22h8.4l10.9,16.1v-16.1h8.5v9.7c-2.4,1-3.8,2.8-3.6,5.4.1,2.4,1.5,3.9,3.7,4.8v9h-8.5l-10.8-15.9h0v15.9h-15.3l-1.5-4.8h-10.2l-1.4,4.8h-9.2l2.1-5.6h0c-.2.2-.3.5-.5.8-1.7,2.7-4.4,4.5-7.6,5-1.4.2-2.9.4-4.3.3-2.1,0-4.2-.3-6.1-1-2-.7-3.7-2-5-3.6-1.6-2-2.7-4.3-3-6.8-.1-.9-.2-1.9-.3-2.8v-1.7c0-.2,0-.4,0-.6,0-1.5.3-2.9.7-4.3.8-3,2.8-5.6,5.4-7.2,2.4-1.3,5-2,7.7-2h1.6ZM105.6,143.1h0c-1,3.5-2.1,6.9-3.1,10.4h6.4l-3.2-10.4Z"/>
        <path class="cls-1" d="M234.6,141.6h-15v4.7h14v5.9h-14v5.8h15.5v6.6h-24.5v-29h24v6.2Z"/>
        <path class="cls-1" d="M209.9,135.5v7.1h-9.2v21.9h-9v-21.9h-9.2v-7.1h27.3Z"/>
        <path class="cls-1" d="M172.1,135.5v6.2h-13.2v5.1h11.3v5.9h-11.3v11.9h-9v-9c2.4-.9,3.8-2.6,3.8-5.2,0-2.5-1.4-4.2-3.8-5.1v-9.7h22.2Z"/>
        <path class="cls-1" d="M173,135.5h9v29h-9v-29Z"/>
        <path class="cls-2" d="M148.4,145.9c2.5,0,4.4,2,4.4,4.5,0,2.5-2,4.4-4.5,4.4s-4.4-2-4.4-4.5c0,0,0,0,0-.1,0-2.4,2-4.3,4.5-4.3Z"/>
      </g>
    </g>
  </g>
</svg>