<?xml version="1.0" encoding="UTF-8"?>
<svg xmlns="http://www.w3.org/2000/svg" version="1.1" viewBox="0 0 300 300">
  <defs>
    <style>
      .cls-1 {
        fill: #111c3e;
      }

      .cls-2 {
        fill: #df9738;
      }
    </style>
  </defs>
  <!-- Generator: Adobe Illustrator 28.6.0, SVG Export Plug-In . SVG Version: 1.2.0 Build 709)  -->
  <g>
    <g id="Layer_1">
      <g>
        <g>
          <path id="Path_1" class="cls-2" d="M97.4,196.9c1.7-.8,3.7-.2,4.5,1.4.7,1.6,0,3.6-1.6,4.4-1.6.9-3.5.3-4.4-1.3-.8-1.6-.2-3.7,1.4-4.5"/>
          <path id="Path_2" class="cls-2" d="M85.7,135.4c-1.6.8-3.6.1-4.4-1.5-.7-1.7,0-3.6,1.6-4.4,1.6-.8,3.6-.2,4.5,1.5,0,0,0,0,0,0,0,0,0,0,0,0,.7,1.7-.1,3.6-1.8,4.3,0,0,0,0,0,0"/>
          <path id="Path_3" class="cls-2" d="M220.2,70.8c1.7-.7,3.7,0,4.4,1.8.6,1.7-.3,3.6-1.9,4.3-1.7.7-3.7,0-4.4-1.8-.6-1.7.3-3.5,1.9-4.3"/>
          <path id="Path_4" class="cls-2" d="M123,220.2c1.6-.7,3.6,0,4.3,1.7.7,1.6,0,3.6-1.7,4.3-1.6.7-3.4,0-4.2-1.5-.8-1.7,0-3.7,1.6-4.5"/>
          <path id="Path_5" class="cls-2" d="M151.7,235.6c-.8-1.7-.1-3.7,1.5-4.5,1.7-.8,3.7-.1,4.5,1.5s.1,3.7-1.5,4.5c0,0,0,0-.1,0-1.6.8-3.6,0-4.3-1.5h0"/>
          <path id="Path_6" class="cls-2" d="M98.1,105.6c-1.6.8-3.6.1-4.4-1.5-.7-1.6,0-3.5,1.6-4.3,1.6-.9,3.5-.3,4.4,1.2,0,0,0,0,0,0,0,0,0,0,0,0,.8,1.6.2,3.6-1.5,4.4,0,0,0,0,0,0h-.2"/>
          <path id="Path_7" class="cls-2" d="M83.8,168c1.6-.8,3.5,0,4.3,1.6.7,1.5.1,3.4-1.3,4.2h0c-1.7.9-3.7.3-4.6-1.4-.7-1.7,0-3.6,1.6-4.4"/>
          <path id="Path_8" class="cls-2" d="M150.5,59.8c1.6-.7,3.5,0,4.3,1.7.7,1.6,0,3.5-1.7,4.3-1.6.7-3.5,0-4.2-1.6-.7-1.7,0-3.6,1.6-4.4"/>
          <path id="Path_9" class="cls-2" d="M120.1,73.8c1.6-.8,3.6-.1,4.4,1.5.7,1.7,0,3.7-1.8,4.5-1.6.7-3.6,0-4.3-1.6-.7-1.7,0-3.6,1.7-4.3"/>
          <path id="Path_10" class="cls-2" d="M192.2,233.4c-.8-1.6-.1-3.6,1.5-4.4,1.6-.9,3.5-.3,4.4,1.2s.3,3.5-1.2,4.4h-.2c-1.6,1-3.6.4-4.4-1.2"/>
          <path id="Path_11" class="cls-2" d="M186.1,59.2c1.5-.9,3.5-.3,4.4,1.2.9,1.5.3,3.5-1.2,4.4h0l-.3.2c-1.6.8-3.5.3-4.4-1.3-.8-1.6-.3-3.5,1.3-4.4h.2"/>
          <path id="Path_12" class="cls-2" d="M106.1,83.9c1.6-.7,3.4.1,4.1,1.7s-.1,3.4-1.7,4.1c-1.6.6-3.4,0-4.1-1.6-.6-1.6,0-3.4,1.7-4.2"/>
          <path id="Path_13" class="cls-2" d="M167.2,57.4c1.6-.6,3.4.1,4,1.7.6,1.6-.1,3.4-1.7,4-1.5.6-3.2,0-3.9-1.5-.7-1.6,0-3.5,1.6-4.2"/>
          <path id="Path_14" class="cls-2" d="M178,234.2c.8,1.6.2,3.5-1.4,4.3-1.6.8-3.5.2-4.3-1.4-.8-1.6-.2-3.5,1.4-4.3,0,0,.1,0,.2-.1,1.5-.7,3.4,0,4.1,1.5,0,0,0,0,0,0h0"/>
          <path id="Path_15" class="cls-2" d="M107.5,210.4c1.5-.8,3.3-.3,4.2,1.1,0,0,0,0,0,.1h0c.7,1.6,0,3.6-1.6,4.3-1.6.7-3.4,0-4.2-1.5-.7-1.5,0-3.4,1.5-4.1,0,0,0,0,0,0h0"/>
          <path id="Path_16" class="cls-2" d="M80,149.6c1.6-.6,3.4.1,4,1.7,0,0,0,0,0,0h0c.5,1.7-.3,3.4-2,4-1.6.6-3.4-.1-4-1.7-.6-1.6.1-3.4,1.7-4h.2"/>
          <path id="Path_17" class="cls-2" d="M215.8,77.9c1.5-.7,3.2,0,4,1.3.6,1.5,0,3.2-1.4,3.9-1.5.7-3.2,0-3.9-1.4-.7-1.5,0-3.2,1.4-3.9h0"/>
          <path id="Path_18" class="cls-2" d="M91.1,131.3c1.5-.6,3.2,0,3.9,1.4.7,1.6,0,3.4-1.6,4,0,0,0,0,0,0-1.5.6-3.2,0-3.8-1.5-.6-1.5.1-3.2,1.5-3.9"/>
          <path id="Path_19" class="cls-2" d="M124.8,80.5c1.5-.7,3.2,0,3.9,1.4.8,1.5.3,3.4-1.2,4.2-1.5.8-3.4.3-4.2-1.2s-.3-3.4,1.2-4.2c0,0,0,0,0,0,0,0,.1,0,.2,0"/>
          <path id="Path_20" class="cls-2" d="M183.6,71.4c-.7-1.4-.2-3.2,1.2-4,1.4-.8,3.3-.3,4.1,1.1h0c.7,1.4.2,3.1-1.2,3.8-1.4.9-3.2.4-4.1-.9h0"/>
          <path id="Path_21" class="cls-2" d="M104.3,192.4c1.5-.7,3.2,0,4,1.4h0c.5,1.6-.2,3.3-1.6,3.9-1.5.6-3.2,0-3.9-1.4-.6-1.5,0-3.2,1.5-3.9"/>
          <path id="Path_22" class="cls-2" d="M153.5,227.5c-.5-1.5.3-3.2,1.8-3.8,1.5-.5,3.2.3,3.7,1.8.5,1.5-.3,3.2-1.8,3.7-1.5.5-3.1-.3-3.6-1.7"/>
          <path id="Path_23" class="cls-2" d="M106.3,105.2c.6,1.5-.1,3.3-1.7,3.9-1.4.6-3,0-3.8-1.3-.6-1.5,0-3.2,1.5-3.9,1.4-.7,3.2-.2,3.9,1.3,0,0,0,0,0,0h0"/>
          <path id="Path_24" class="cls-2" d="M156.5,69.1c.6,1.5,0,3.2-1.5,3.9-1.4.8-3.1.2-3.9-1.1,0,0,0,0,0,0,0,0,0-.2-.1-.3-.6-1.5,0-3.2,1.5-3.9,1.5-.6,3.2,0,3.9,1.4"/>
          <path id="Path_25" class="cls-2" d="M91.8,166.2c1.4-.8,3.2-.3,3.9,1.1.8,1.4.3,3.2-1.1,3.9-.1,0-.2.1-.3.2-1.4.7-3.2.2-3.9-1.2h0c-.7-1.5,0-3.2,1.4-4"/>
          <path id="Path_26" class="cls-2" d="M190.2,225.8c-.7-1.5,0-3.2,1.4-3.9,1.4-.8,3.1-.3,3.9,1.1,0,0,0,.1.1.2.7,1.5,0,3.2-1.4,3.9h0c-1.4.7-3.2.2-4-1.3"/>
          <path id="Path_27" class="cls-2" d="M126,217.6c-.8-1.5-.2-3.3,1.3-4,1.5-.8,3.3-.2,4,1.3.8,1.5.2,3.3-1.3,4,0,0,0,0-.1,0-1.5.7-3.2,0-3.9-1.3"/>
          <path id="Path_28" class="cls-2" d="M143,223.2c-1.4.6-3-.1-3.6-1.6-.5-1.3,0-2.8,1.3-3.5h.2c1.4-.7,3.1,0,3.7,1.4.5,1.5-.2,3.1-1.6,3.7"/>
          <path id="Path_29" class="cls-2" d="M114,206.4c-.8-1.4-.2-3.1,1.1-3.9,1.4-.8,3.1-.2,3.9,1.1.8,1.4.2,3.1-1.1,3.9,0,0,0,0,0,0h0c-1.4.7-3.1.2-3.8-1.1"/>
          <path id="Path_30" class="cls-2" d="M91,149.3c1.4-.6,3,0,3.6,1.5.6,1.4,0,3-1.5,3.6-1.4.6-3,0-3.6-1.4-.6-1.4,0-3.1,1.5-3.7"/>
          <path id="Path_31" class="cls-2" d="M172,226c-.6-1.4,0-3.1,1.4-3.7,1.3-.7,3-.2,3.7,1.2s.2,3-1.2,3.7c-.1,0-.2.1-.4.2-1.4.6-2.9,0-3.6-1.3"/>
          <path id="Path_32" class="cls-2" d="M116.5,96.6c-1.3.7-3,.2-3.7-1.1h0c-.6-1.6.1-3.3,1.6-3.9,1.4-.6,3,0,3.6,1.4.6,1.4,0,3.1-1.5,3.7,0,0,0,0,0,0h0"/>
          <path id="Path_33" class="cls-2" d="M96,120.6c-.5-1.5.4-3.1,1.9-3.5,1.2-.4,2.5.1,3.2,1.2.6,1.4,0,3.1-1.4,3.7,0,0,0,0,0,0h0c-1.3.7-2.9.1-3.6-1.2,0,0,0-.1,0-.2"/>
          <path id="Path_34" class="cls-2" d="M204.9,73.7c.7,1.4.2,3.1-1.2,3.8-1.4.7-3,.1-3.7-1.2s-.1-3,1.2-3.7c1.3-.7,3-.2,3.7,1.2"/>
          <path id="Path_35" class="cls-2" d="M138.6,74.3c1.4-.7,3,0,3.7,1.3h0c.6,1.4,0,3.1-1.5,3.7,0,0,0,0,0,0-1.4.6-3,0-3.6-1.4-.5-1.3,0-2.8,1.2-3.5h.2"/>
          <path id="Path_36" class="cls-2" d="M102.2,180.7c.7,1.4,0,3.1-1.3,3.8-1.4.7-3.1,0-3.8-1.3-.7-1.4,0-3.1,1.3-3.8,0,0,0,0,0,0,1.4-.6,3,0,3.7,1.3,0,0,0,0,0,0h0"/>
          <path id="Path_37" class="cls-2" d="M166.5,72.3c-.7-1.4,0-3,1.3-3.7h0s0,0,0,0c1.4-.7,3-.1,3.8,1.2.6,1.4,0,3.1-1.4,3.7,0,0,0,0,0,0h0c-1.3.7-2.9.3-3.6-1,0,0,0,0,0,0,0,0,0-.1,0-.2"/>
          <path id="Path_38" class="cls-2" d="M154.5,75.8c1.3-.6,2.8-.2,3.6,1,.8,1.3.3,2.9-.9,3.7-1.3.8-2.9.3-3.7-.9-.8-1.3-.3-2.9.9-3.7,0,0,0,0,0,0h.1"/>
          <path id="Path_39" class="cls-2" d="M188.2,218.1c-.6-1.3,0-2.9,1.3-3.5,0,0,0,0,0,0h0c1.3-.6,2.8,0,3.4,1.2,0,0,0,0,0,0h0c.5,1.4-.1,2.9-1.5,3.5-1.2.5-2.7,0-3.3-1.2"/>
          <path id="Path_40" class="cls-2" d="M160.5,217.6c.5,1.3,0,2.8-1.4,3.4-1.3.7-2.8.2-3.5-1.1-.7-1.3-.2-2.8,1.1-3.5.1,0,.2-.1.3-.2,1.3-.6,2.8,0,3.4,1.3"/>
          <path id="Path_41" class="cls-2" d="M111.6,112.8c-1.2.7-2.8.2-3.5-1-.7-1.2-.2-2.8,1-3.5,0,0,.2,0,.2-.1,1.3-.6,2.8,0,3.5,1.2.6,1.3,0,2.8-1.3,3.5"/>
          <path id="Path_42" class="cls-2" d="M128.1,90.7c-.6-1.3,0-2.8,1.2-3.5,1.3-.7,2.9-.2,3.6,1,0,0,0,0,0,0,.6,1.4-.1,2.9-1.5,3.5-1.2.5-2.7,0-3.3-1.2"/>
          <path id="Path_43" class="cls-2" d="M215,86.2c.5,1.3-.1,2.8-1.4,3.4-1.3.6-2.8,0-3.4-1.2,0,0,0,0,0,0h0c-.5-1.4.1-2.9,1.4-3.4,0,0,0,0,0,0h0c1.3-.6,2.8,0,3.4,1.3"/>
          <path id="Path_44" class="cls-2" d="M98.5,167.8c-.6-1.3,0-2.8,1.3-3.4,1.3-.6,2.8-.1,3.5,1.1.6,1.3,0,2.9-1.3,3.5h0c-1.3.6-2.8,0-3.4-1.2h0"/>
          <path id="Path_45" class="cls-2" d="M131.9,207.2c1.3-.6,2.8-.1,3.5,1.1.6,1.4,0,2.9-1.4,3.6-1.3.6-2.8,0-3.5-1.2s0-2.8,1.2-3.5h.1"/>
          <path id="Path_46" class="cls-2" d="M99.1,133c1.2-.6,2.7-.2,3.4,1h0c.6,1.4,0,3-1.4,3.6h0c-1.3.6-2.8,0-3.4-1.3,0,0,0,0,0,0h0c-.6-1.3,0-2.7,1.2-3.3,0,0,0,0,0,0h.1"/>
          <path id="Path_47" class="cls-2" d="M183.7,75.5c1.2-.7,2.8-.3,3.5.9.7,1.2.3,2.8-.9,3.4,0,0,0,0,0,0h0c-1.2.8-2.8.4-3.6-.8,0,0,0,0,0,0-.6-1.3,0-2.8,1.1-3.5"/>
          <path id="Path_48" class="cls-2" d="M111.1,188.1c1.3-.6,2.8,0,3.4,1.3.6,1.2,0,2.7-1.1,3.3-1.3.7-2.9.1-3.6-1.2-.5-1.3,0-2.8,1.3-3.4"/>
          <path id="Path_49" class="cls-2" d="M116.2,68.8c1.2-.6,2.7-.2,3.4,1,.6,1.2.2,2.7-1,3.4h0c-1.2.7-2.7.2-3.3-1.1-.6-1.1-.2-2.5.9-3.2h.2"/>
          <path id="Path_50" class="cls-2" d="M227.8,66.7c.5,1.3-.2,2.8-1.5,3.3-1.2.4-2.5,0-3.1-1.2-.5-1.3,0-2.8,1.4-3.4,1.3-.5,2.7,0,3.3,1.3"/>
          <path id="Path_51" class="cls-2" d="M147.9,57.2c-.7-1.2-.2-2.8,1-3.5,1.2-.7,2.8-.2,3.5,1,.7,1.2.2,2.8-1,3.5h0c-1.2.7-2.8.3-3.5-.9,0,0,0,0,0,0h0"/>
          <path id="Path_52" class="cls-2" d="M152.2,239c1.2-.6,2.7-.2,3.3,1,.7,1.2.3,2.8-.9,3.5s-2.8.3-3.5-.9c-.7-1.2-.3-2.8.9-3.5,0,0,.1,0,.2,0"/>
          <path id="Path_53" class="cls-2" d="M76.1,129.1c1.2-.6,2.7-.1,3.4,1,.6,1.2.2,2.7-1,3.3-1.2.7-2.8.2-3.5-1,0,0,0,0,0,0-.5-1.3,0-2.7,1.2-3.3"/>
          <path id="Path_54" class="cls-2" d="M92.9,98c.6,1.2,0,2.7-1.2,3.3,0,0,0,0,0,0h0c-1.2.6-2.7.2-3.4-1-.6-1.3,0-2.9,1.3-3.5,1.2-.6,2.7,0,3.3,1.2"/>
          <path id="Path_55" class="cls-2" d="M195.1,239.8c-.6-1.2-.2-2.7,1-3.4,1.3-.7,2.8-.2,3.5,1,.6,1.2,0,2.7-1.1,3.3-1.2.7-2.7.2-3.4-.9h0"/>
          <path id="Path_56" class="cls-2" d="M91.8,201.8c1.2-.6,2.7,0,3.3,1.2.6,1.2.1,2.6-1,3.2,0,0-.2,0-.3.1-1.2.6-2.7,0-3.2-1.2h0c-.5-1.3,0-2.7,1.3-3.3"/>
          <path id="Path_57" class="cls-2" d="M79.3,175c-1.2.6-2.7.2-3.4-1-.6-1.3-.1-2.8,1.1-3.4h0c1.2-.6,2.7-.2,3.3,1h0c.6,1.3,0,2.8-1.1,3.4h0"/>
          <path id="Path_58" class="cls-2" d="M119.6,227c1.2-.6,2.6,0,3.2,1.1h0c.6,1.3.1,2.9-1.1,3.5-1.3.6-2.8.1-3.4-1.1-.6-1.2-.2-2.7,1-3.4h.3"/>
          <path id="Path_59" class="cls-2" d="M186.6,56.3c-.7-1.2-.3-2.8.9-3.5,1.2-.7,2.8-.3,3.5.9.7,1.2.4,2.6-.7,3.4h-.3c-1.2.8-2.7.4-3.4-.8"/>
          <path id="Path_60" class="cls-2" d="M168.5,79.7c1.2-.6,2.7,0,3.3,1.1.7,1.2.2,2.8-1,3.4-1.2.7-2.8.2-3.4-1-.7-1.2-.2-2.8,1-3.4,0,0,0,0,0,0,0,0,0,0,0,0"/>
          <path id="Path_61" class="cls-2" d="M126.6,196c.6,1.2,0,2.7-1.2,3.3,0,0,0,0,0,0h0c-1.2.6-2.7,0-3.3-1.2-.5-1.2,0-2.6,1.2-3.2,1.2-.6,2.7-.1,3.3,1.1"/>
          <path id="Path_62" class="cls-2" d="M112,176.1c.5,1.2,0,2.7-1.2,3.2h0c-1.2.5-2.6,0-3.2-1.3-.5-1.1,0-2.5,1.1-3.1h.1c1.2-.6,2.6-.2,3.2,1,0,0,0,0,0,0h0"/>
          <path id="Path_63" class="cls-2" d="M200.7,84.1c.8,1.2.5,2.7-.7,3.5s-2.7.5-3.5-.7-.5-2.7.7-3.5c.1,0,.2-.1.4-.2,1.1-.5,2.5-.1,3.1.9"/>
          <path id="Path_64" class="cls-2" d="M143.2,84.4c1.2-.6,2.6-.2,3.3.9,0,0,0,0,0,.1.6,1.2,0,2.7-1.2,3.3,0,0,0,0,0,0h0c-1.2.6-2.6.1-3.2-1-.6-1.2-.1-2.6,1-3.2h.1"/>
          <path id="Path_65" class="cls-2" d="M173.2,211.7c1.2-.5,2.6,0,3.1,1.3.5,1.2,0,2.6-1.3,3.1-1.2.5-2.5,0-3.1-1.2-.5-1.2,0-2.7,1.3-3.2h0"/>
          <path id="Path_66" class="cls-2" d="M101,152.4c-.5-1.3,0-2.7,1.3-3.2,1.1-.5,2.4,0,3.1,1,.6,1.2.2,2.6-1,3.2,0,0,0,0,0,0h0c-1.2.6-2.6.2-3.2-.9,0,0,0,0,0,0h0"/>
          <path id="Path_67" class="cls-2" d="M125.6,100.5c.5,1.2,0,2.6-1.3,3.2h0c-1.2.5-2.5,0-3.1-1.1v-.2c-.5-1.3.2-2.7,1.5-3.1,1.2-.4,2.4.1,3,1.2"/>
          <path id="Path_68" class="cls-2" d="M144,211.6c-.6-1.2,0-2.6,1.1-3.2,0,0,0,0,0,0h0c1.2-.6,2.6-.1,3.2,1,0,0,0,.1,0,.2.5,1.2,0,2.5-1.1,3.1h0c-1.1.7-2.6.3-3.2-.9h0"/>
          <path id="Path_69" class="cls-2" d="M107.9,121.2c1.1-.6,2.5-.2,3.2.9,0,0,0,0,0,0v.2c.6,1.2.2,2.5-1,3.1-1.2.7-2.6.2-3.3-.9h0c-.6-1.2-.1-2.7,1-3.3h.1"/>
          <path id="Path_70" class="cls-2" d="M159.6,84.6c.6,1.1.2,2.5-.9,3.2-1.1.6-2.5.2-3.2-.9-.6-1.1-.2-2.5.9-3.2,0,0,0,0,0,0h.1c1.1-.5,2.4-.1,3.1,1"/>
          <path id="Path_71" class="cls-2" d="M136.3,200.7c1.1-.5,2.4,0,3,1.1.5,1.1,0,2.4-1.1,3-1.1.5-2.4,0-2.9-1.1-.5-1.1,0-2.4,1.1-3"/>
          <path id="Path_72" class="cls-2" d="M117.9,183.7c1.1-.5,2.4,0,2.9,1.1,0,0,0,0,0,0h0c.5,1.2,0,2.5-1.2,3s-2.5,0-3-1.2h0c-.4-1.2,0-2.5,1.2-3"/>
          <path id="Path_73" class="cls-2" d="M185.6,84.6c.4,1.2-.2,2.5-1.4,2.9-1,.4-2.2,0-2.7-1-.5-1.1,0-2.5,1.1-3,1.1-.5,2.4,0,3,1h0"/>
          <path id="Path_74" class="cls-2" d="M190.3,208.4c.5,1.1,0,2.5-1.1,3-1.1.6-2.4.2-3-.9s-.2-2.4.9-3h.2c1.1-.6,2.4-.2,3,.9h0"/>
          <path id="Path_75" class="cls-2" d="M137.1,94.9c.5,1.1,0,2.4-1.1,2.9h0c-1.1.5-2.5,0-3-1-.5-1.2,0-2.5,1.2-3,1.1-.5,2.4,0,3,1.1"/>
          <path id="Path_76" class="cls-2" d="M106.7,165.5c-.5-1.1,0-2.5,1.2-3,1-.7,2.4-.4,3.1.6s.4,2.4-.6,3.1c0,0-.2.1-.2.1-.1,0-.3.1-.4.2-1.1.5-2.5,0-3-1.1h0"/>
          <path id="Path_77" class="cls-2" d="M157.7,211.9c-.5-1.1,0-2.4,1-3h0c1.1-.5,2.5,0,3,1,.5,1.1,0,2.4-1.1,2.9,0,0,0,0,0,0h0c-1,.6-2.3.2-2.9-.8v-.2"/>
          <path id="Path_78" class="cls-2" d="M116.4,112.5c1.1-.6,2.4-.2,3,.9s.2,2.4-.9,3h-.2c-1.1.6-2.4.2-3-.9,0,0,0,0,0,0-.5-1.1,0-2.4,1.1-2.9,0,0,0,0,0,0h0"/>
          <path id="Path_79" class="cls-2" d="M207.2,92c1.1-.6,2.4-.2,3,.9.6,1.1.2,2.4-.9,3h0c-1.1.6-2.4.2-3-.9,0,0,0,0,0,0-.5-1.1,0-2.4,1.1-3"/>
          <path id="Path_80" class="cls-2" d="M107.1,134.7c1-.7,2.4-.4,3,.6.7,1,.4,2.4-.6,3-.1,0-.2.1-.4.2,0,0-.1,0-.2.1-1.1.6-2.4.2-3-.9-.6-1.1-.2-2.4.9-3h.1"/>
          <path id="Path_81" class="cls-2" d="M151,245c1-.5,2.3-.1,2.9.9.6,1,.2,2.4-.8,3s-2.4.2-3-.8-.2-2.4.8-3c0,0,0,0,0,0h0"/>
          <path id="Path_82" class="cls-2" d="M86.6,97.9c-1,.6-2.3.2-2.8-.8-.6-1-.2-2.3.8-2.8h.1c1.1-.6,2.4-.2,3,.9,0,0,0,0,0,0h0c.4,1,0,2.2-1,2.7"/>
          <path id="Path_83" class="cls-2" d="M227.8,61c1-.6,2.2-.2,2.8.8,0,0,0,0,0,0h0c.4,1.2-.1,2.4-1.3,2.9-1,.4-2,0-2.6-.9-.5-1-.1-2.3.9-2.8,0,0,0,0,0,0h0"/>
          <path id="Path_84" class="cls-2" d="M200.8,243.1c.5,1.1.1,2.3-.9,2.9-1,.5-2.2.2-2.8-.8-.6-1-.2-2.3.8-2.9,1-.6,2.3-.2,2.9.8"/>
          <path id="Path_85" class="cls-2" d="M119.3,233.2c.6,1,.2,2.3-.9,2.9-1,.6-2.3.2-2.9-.9-.6-1-.2-2.3.9-2.9,0,0,0,0,.1,0,1-.5,2.3,0,2.8.9"/>
          <path id="Path_86" class="cls-2" d="M148,48.6c1-.4,2.2,0,2.7,1.1s0,2.2-1.1,2.7c-1,.4-2.1,0-2.6-.9-.5-1.1,0-2.3,1-2.8,0,0,0,0,0,0h0"/>
          <path id="Path_87" class="cls-2" d="M112.2,67.2c-.5-1.1,0-2.4,1.1-2.8,1-.5,2.2,0,2.8.9.6,1,.2,2.3-.8,2.9-1,.6-2.3.2-2.9-.8,0,0,0-.1,0-.2"/>
          <path id="Path_88" class="cls-2" d="M71.5,172.4c1.1-.5,2.3-.1,2.9.9.4,1.1,0,2.3-1.1,2.8-1,.5-2.3,0-2.8-1-.5-1,0-2.3,1-2.8"/>
          <path id="Path_89" class="cls-2" d="M86,208.2c-.5-1.1,0-2.3,1-2.8h0c1.1-.4,2.2.1,2.7,1.2.4,1.1-.1,2.2-1.2,2.7-.9.4-2,0-2.5-.9h0"/>
          <path id="Path_90" class="cls-2" d="M73.5,129.3c.5,1,0,2.2-1,2.7,0,0,0,0,0,0h0c-1,.5-2.2,0-2.7-.9-.5-1,0-2.2.9-2.7h.2c1-.6,2.2-.2,2.8.8,0,0,0,0,0,0,0,0,0,0,0,0"/>
          <path id="Path_91" class="cls-2" d="M175.4,202.6c.5,1.1,0,2.3-1.1,2.8,0,0,0,0,0,0h0c-1,.5-2.2,0-2.7-1-.5-1.1,0-2.3,1.1-2.8,1-.4,2.2,0,2.7.9"/>
          <path id="Path_92" class="cls-2" d="M115.3,152.5c-.9.7-2.2.6-2.9-.3-.7-.9-.6-2.2.3-2.9.1,0,.2-.2.4-.2.1,0,.2-.1.4-.2,1-.5,2.2-.1,2.8.9.5.9.2,2-.6,2.6-.1,0-.2.1-.4.2"/>
          <path id="Path_93" class="cls-2" d="M188,50.4c-.5-1-.1-2.2.9-2.8h.1c1-.5,2.2,0,2.7,1,.5,1,0,2.2-1,2.7-.9.4-2.1,0-2.6-.8,0,0,0,0,0-.1"/>
          <path id="Path_94" class="cls-2" d="M121.8,171.5c.4,1,0,2.2-1.1,2.7-1,.4-2.2,0-2.7-1.1-.4-1,0-2.1,1-2.6,1-.5,2.2-.1,2.8.9,0,0,0,0,0,.1h0"/>
          <path id="Path_95" class="cls-2" d="M121,126.2c.5,1,.1,2.2-.9,2.8,0,0,0,0,0,0h0c-1,.5-2.2,0-2.7-1-.5-1,0-2.1.9-2.7h.1c1-.5,2.2-.1,2.7.9"/>
          <path id="Path_96" class="cls-2" d="M146.9,97.1c-.3-1.1.3-2.3,1.4-2.6,1-.3,2,.1,2.5,1,.4,1.1-.2,2.3-1.3,2.7-1,.4-2.2,0-2.6-1.1h0"/>
          <path id="Path_97" class="cls-2" d="M149.7,198.5c1-.5,2.2-.1,2.8.9,0,0,0,0,0,0h0c.4,1.1,0,2.3-1.1,2.7-.9.7-2.2.6-2.9-.3s-.6-2.2.3-2.9c.2-.2.5-.3.7-.4h.1"/>
          <path id="Path_98" class="cls-2" d="M172.1,90.5c.5,1,.1,2.2-.9,2.8s-2.2.1-2.8-.9-.1-2.2.9-2.8c0,0,0,0,0,0h0c1-.5,2.2,0,2.7.9"/>
          <path id="Path_99" class="cls-2" d="M130.4,107c.9-.5,2.1-.2,2.7.7h0c.5,1.1.2,2.3-.8,2.8h-.1c-1,.6-2.2.2-2.8-.8,0,0,0,0,0,0h0c-.4-1.1,0-2.3,1-2.7"/>
          <path id="Path_100" class="cls-2" d="M131.4,187.2c1-.4,2.2,0,2.7,1,0,0,0,.1,0,.2.4,1-.1,2.1-1.1,2.6h0c-1,.5-2.2,0-2.7-.9,0,0,0,0,0,0h0c-.5-1,0-2.2,1-2.7,0,0,0,0,0,0h0"/>
          <path id="Path_101" class="cls-2" d="M193.6,93.9c1-.6,2.2-.3,2.8.7,0,0,0,0,0,0h0c.5,1.1,0,2.2-.9,2.8-1.1.4-2.2-.2-2.6-1.3-.2-.8,0-1.6.5-2.1h0"/>
          <path id="Path_102" class="cls-2" d="M123.3,116.8c.9-.4,2.1-.1,2.6.8.4,1,0,2.1-.9,2.6-.9.4-2.1.1-2.6-.8-.4-1,0-2.1.9-2.6"/>
          <path id="Path_103" class="cls-2" d="M202,101.5c-.4-1,0-2.1,1-2.5.9-.5,2.1,0,2.5.9.5.9,0,2.1-.9,2.5h-.1c-1,.4-2.1,0-2.6-.9"/>
          <path id="Path_104" class="cls-2" d="M180.8,93.9c-.6-.9-.3-2.1.6-2.6.9-.6,2.1-.3,2.6.6.5.9.3,2-.6,2.6h0c-.9.6-2.1.3-2.6-.6"/>
          <path id="Path_105" class="cls-2" d="M114.8,163.2c-.4-1,0-2.1,1-2.5s2.1,0,2.5,1c.4,1,0,2.1-1,2.5-1,.4-2.1,0-2.5-1"/>
          <path id="Path_106" class="cls-2" d="M127.1,180.2c.4.9,0,2-.9,2.5,0,0,0,0,0,0h0c-.9.5-2.1.1-2.5-.8-.5-.9-.1-2.1.8-2.5h.1c.9-.5,2-.1,2.5.8h0"/>
          <path id="Path_107" class="cls-2" d="M187.3,200.3c.5.9.1,2.1-.8,2.6-.9.5-2.1.2-2.6-.7-.5-.9-.2-2.1.7-2.6.9-.5,2.1-.2,2.6.7"/>
          <path id="Path_108" class="cls-2" d="M161.1,92.5c.4,1,0,2.1-1,2.5-1,.4-2.1,0-2.5-1-.4-1,0-2.1,1-2.5,1-.4,2.1,0,2.5,1"/>
          <path id="Path_109" class="cls-2" d="M141.3,101.4c.5.9.1,2-.8,2.5,0,0,0,0,0,0h0c-.9.5-2.1.1-2.6-.8-.4-.9,0-2.1.9-2.6.9-.5,2.1,0,2.5.8h0"/>
          <path id="Path_110" class="cls-2" d="M117.7,137.2c.4,1,0,2.1-1,2.5-.9.5-2.1,0-2.5-.9-.5-.9,0-2.1.9-2.5h0c.9-.5,2.1,0,2.5.9,0,0,0,0,0,0"/>
          <path id="Path_111" class="cls-2" d="M160.5,201.5c.9-.4,2,0,2.4.9.4.9,0,2-.9,2.4-.9.4-2,0-2.4-.9-.4-.9,0-2,.9-2.4h0"/>
          <path id="Path_112" class="cls-2" d="M141,194.1c1-.4,2.1,0,2.5,1,.4,1,0,2.1-1,2.6-1,.4-2.1,0-2.6-1-.4-1,0-2.1,1-2.5h.1"/>
          <path id="Path_113" class="cls-2" d="M82.4,210.8c-.4-.9,0-1.8.9-2.2.8-.3,1.8,0,2.2.8.2.9-.3,1.9-1.3,2.1-.7.2-1.4,0-1.8-.6"/>
          <path id="Path_114" class="cls-2" d="M114,236.7c.8-.4,1.9,0,2.3.8s0,1.9-.8,2.3h-.1c-.9.4-1.9,0-2.2-1-.3-.8,0-1.6.7-2"/>
          <path id="Path_115" class="cls-2" d="M80.8,92.1c.8-.4,1.8,0,2.3.7.4.9,0,2-.9,2.4-.9.3-1.8,0-2.3-.9-.3-.9,0-1.8.9-2.3"/>
          <path id="Path_116" class="cls-2" d="M199.5,247.2c.8-.4,1.8,0,2.2.8.4.8,0,1.8-.8,2.2-.8.4-1.8,0-2.2-.8-.4-.8,0-1.8.8-2.3"/>
          <path id="Path_117" class="cls-2" d="M150.2,250c.8-.4,1.8,0,2.3.7.4.8,0,1.8-.7,2.3-.8.5-1.8.2-2.3-.6-.4-.8-.2-1.7.5-2.2h.2"/>
          <path id="Path_118" class="cls-2" d="M146.2,46.6c-.4-.8,0-1.8.7-2.3.9-.5,1.9-.1,2.4.7h0c.3.9,0,1.8-.9,2.3-.8.4-1.8,0-2.3-.7"/>
          <path id="Path_119" class="cls-2" d="M66,127.9c.8-.4,1.8-.1,2.3.7.4.9,0,1.9-1,2.3-.8.3-1.7,0-2.2-.7-.4-.8,0-1.8.8-2.2h0"/>
          <path id="Path_120" class="cls-2" d="M67.1,174c.9-.3,1.8,0,2.2.9.3.9-.1,1.8-1,2.2-.9.4-1.9,0-2.2-.9,0,0,0,0,0-.1-.3-.8.2-1.8,1-2h0"/>
          <path id="Path_121" class="cls-2" d="M230.7,57.3c.8-.4,1.8,0,2.3.7.4.8,0,1.8-.7,2.3-.9.4-2,0-2.4-.8-.3-.9,0-1.8.9-2.2"/>
          <path id="Path_122" class="cls-2" d="M110.7,60.9c.8-.4,1.8,0,2.2.8.4.9,0,1.9-.9,2.3,0,0,0,0,0,0h0c-.8.3-1.7,0-2-.8,0,0,0,0,0-.1-.4-.8,0-1.8.8-2.1,0,0,0,0,0,0h0"/>
          <path id="Path_123" class="cls-2" d="M189.8,43.2c.8-.5,1.8-.3,2.3.5.5.8.3,1.8-.5,2.3h-.2c-.8.5-1.8.2-2.2-.6-.4-.7-.2-1.6.5-2.1h.1"/>
          <path id="Path_124" class="cls-2" d="M149.6,254.6c.7-.2,1.4,0,1.8.7.2.7-.1,1.4-.8,1.7h0c-.6.3-1.3,0-1.6-.6-.3-.7,0-1.4.7-1.8"/>
          <path id="Path_125" class="cls-2" d="M79.9,211.6c.6-.3,1.4,0,1.7.6.4.6.1,1.4-.5,1.8-.6.4-1.4.1-1.8-.5-.4-.6-.1-1.4.5-1.8,0,0,0,0,0,0h.1"/>
          <path id="Path_126" class="cls-2" d="M79,91.1c.2.7-.1,1.4-.8,1.7-.6.3-1.3,0-1.6-.6-.3-.7,0-1.4.7-1.7,0,0,0,0,0,0h0c.7-.3,1.4,0,1.8.6"/>
          <path id="Path_127" class="cls-2" d="M234.9,54.6c.2.7,0,1.5-.8,1.7-.7.2-1.4-.1-1.7-.8-.2-.6.1-1.3.7-1.6.6-.3,1.4,0,1.7.6,0,0,0,0,0,0h0"/>
          <path id="Path_128" class="cls-2" d="M202.9,251.9c.3.7,0,1.5-.6,1.8-.6.3-1.4,0-1.7-.6-.3-.6,0-1.2.4-1.6.6-.4,1.5-.2,1.9.4"/>
          <path id="Path_129" class="cls-2" d="M112,240.8c.6-.3,1.3,0,1.7.5.4.6.2,1.4-.4,1.8-.6.4-1.4.2-1.8-.4s-.2-1.4.4-1.8c0,0,0,0,0,0h0"/>
          <path id="Path_130" class="cls-2" d="M108.2,57.9c.6-.3,1.3,0,1.7.5h0c.4.6.2,1.3-.3,1.7h-.2c-.6.4-1.3.2-1.7-.4-.3-.7,0-1.5.6-1.8"/>
          <path id="Path_131" class="cls-2" d="M127.6,131.6c-.8.4-1.8,0-2.2-.7-.4-.9,0-1.9,1-2.3h0c.8-.4,1.8,0,2.2.9.4.8,0,1.8-.9,2.2h0"/>
          <path id="Path_132" class="cls-2" d="M122,148.7c.8-.4,1.7-.1,2.2.7,0,0,0,0,0,0,.4.8,0,1.8-.8,2.2,0,0,0,0,0,0h0c-.8.5-1.8.3-2.3-.5-.5-.8-.3-1.8.5-2.3,0,0,0,0,.1,0,0,0,.2,0,.3-.1"/>
          <path id="Path_133" class="cls-2" d="M170.6,102.1c-.8.4-1.8,0-2.2-.7,0,0,0,0,0,0h0c-.4-.8,0-1.8.8-2.2.8-.4,1.8-.2,2.3.6v.2c.4.8,0,1.8-.8,2.1h0"/>
          <path id="Path_134" class="cls-2" d="M126.5,167.3c.8-.4,1.8,0,2.2.8.4.8,0,1.8-.8,2.2-.8.4-1.8,0-2.2-.8-.4-.8,0-1.8.8-2.2,0,0,0,0,0,0"/>
          <path id="Path_135" class="cls-2" d="M152.8,190.5c.8-.4,1.7-.2,2.2.6,0,0,0,0,0,0,.4.8,0,1.8-.8,2.3,0,0,0,0,0,0h-.1c-.8.4-1.8,0-2.2-.8-.4-.8,0-1.8.9-2.2,0,0,0,0,0,0"/>
          <path id="Path_136" class="cls-2" d="M138.1,114.3c.4.8,0,1.8-.9,2.2-.9.4-1.9,0-2.3-.9-.3-.9.2-1.8,1-2.2.8-.4,1.7,0,2.1.7,0,0,0,0,0,.1"/>
          <path id="Path_137" class="cls-2" d="M151.5,102.7c.8-.4,1.8-.1,2.3.7,0,0,0,0,0,0h0c.4.9,0,1.8-.9,2.2-.8.4-1.8,0-2.2-.7,0,0,0,0,0,0h0c-.4-.8-.1-1.7.6-2.1h.2"/>
          <path id="Path_138" class="cls-2" d="M192.4,102.8c.3.8,0,1.7-.7,2h-.2c-.8.5-1.8.1-2.2-.7h0c-.3-.9,0-1.8.9-2.2.8-.4,1.8,0,2.2.8,0,0,0,0,0,0h0"/>
          <path id="Path_139" class="cls-2" d="M137.5,181.2c.8-.4,1.8,0,2.2.7,0,0,0,0,0,0h0c.3.9,0,1.8-.9,2.2-.8.4-1.8,0-2.2-.8h0c-.4-.8,0-1.8.8-2.2h0"/>
          <path id="Path_140" class="cls-2" d="M172.5,193.5c.8-.4,1.7-.2,2.2.6,0,0,0,0,0,0,0,0,0,0,0,.1.4.8,0,1.8-.7,2.2,0,0,0,0,0,0h0c-.8.4-1.8.1-2.2-.7,0,0,0,0,0,0h0c-.4-.8,0-1.8.8-2.2,0,0,0,0,0,0h0"/>
          <path id="Path_141" class="cls-2" d="M182,99.9c.3.8,0,1.7-.8,2.1-.7.4-1.7.2-2.1-.5s-.2-1.7.5-2.1c0,0,.1,0,.2-.1.8-.4,1.7-.2,2.2.6,0,0,0,0,0,0"/>
          <path id="Path_142" class="cls-2" d="M198.7,106.2c.8-.4,1.7-.1,2.1.6.3.8,0,1.7-.8,2.1-.7.4-1.7.2-2.1-.6s-.2-1.7.6-2.1c0,0,.1,0,.2,0"/>
          <path id="Path_143" class="cls-2" d="M131.1,175.1c.8-.4,1.7,0,2.1.7.3.8-.1,1.7-.9,2-.7.4-1.7.1-2.1-.6-.4-.7-.1-1.7.6-2.1,0,0,.1,0,.2,0h0"/>
          <path id="Path_144" class="cls-2" d="M159.9,99.9c.8-.4,1.7,0,2.1.7.3.8,0,1.7-.9,2-.7.3-1.6,0-2-.7-.4-.8,0-1.7.7-2.1"/>
          <path id="Path_145" class="cls-2" d="M124.9,138.9c.4.7,0,1.7-.7,2h0c-.7.4-1.7.1-2.1-.6-.4-.7-.1-1.7.6-2.1,0,0,0,0,0,0,.7-.4,1.7-.2,2.1.6,0,0,0,0,0,0h0"/>
          <path id="Path_146" class="cls-2" d="M181.9,194.3c-.3-.8,0-1.7.8-2.1.8-.3,1.7,0,2,.8.3.8,0,1.7-.8,2-.8.3-1.6,0-2-.7"/>
          <path id="Path_147" class="cls-2" d="M161.8,195.5c-.3-.8,0-1.7.9-2,.7-.3,1.6,0,2,.6.4.8,0,1.7-.7,2.1-.8.4-1.7,0-2.1-.7"/>
          <path id="Path_148" class="cls-2" d="M144,189.5c-.3-.8,0-1.7.9-2,.8-.3,1.7,0,2,.9s0,1.7-.9,2c-.8.3-1.6,0-2-.8"/>
          <path id="Path_149" class="cls-2" d="M142.6,109.8c-.4-.8,0-1.7.8-2h0c.8-.4,1.7,0,2,.7,0,0,0,0,0,0h0c.4.8,0,1.7-.8,2-.8.4-1.7,0-2-.8h0"/>
          <path id="Path_150" class="cls-2" d="M122.6,160.9c-.4-.8,0-1.7.8-2,0,0,0,0,0,0h0c.7-.3,1.6,0,2,.6.4.8.1,1.7-.7,2.1-.8.3-1.6,0-2-.7"/>
          <path id="Path_151" class="cls-2" d="M129.8,121.4c.8-.3,1.7,0,2,.9,0,0,0,0,0,0,.3.8-.1,1.7-.9,2,0,0,0,0,0,0h0c-.7.3-1.6,0-1.9-.8-.3-.8,0-1.7.8-2,0,0,0,0,0,0"/>
        </g>
        <path id="letter_c" class="cls-1" d="M172.4,114.8c8.1-.1,15.9,2.8,21.8,8.3.7.5.8,1.6.3,2.3,0,0,0,0,0,0,0,0-.1.1-.2.2l-4,4c-.6.8-1.5.8-2.3,0-4.4-3.7-9.9-5.9-15.6-6-12.7.4-22.7,11-22.3,23.8.4,12.2,10.2,22,22.4,22.3,5.7,0,11.2-2.2,15.5-5.9.6-.6,1.5-.6,2.2,0l4.1,4c.6.7.6,1.7,0,2.4h0c-5.9,5.6-13.8,8.7-21.9,8.6-17.7.3-32.2-13.7-32.6-31.4-.3-17.7,13.7-32.2,31.4-32.6.4,0,.8,0,1.1,0h0Z"/>
      </g>
    </g>
  </g>
</svg>