<?xml version="1.0" encoding="UTF-8"?>
<svg xmlns="http://www.w3.org/2000/svg" version="1.1" viewBox="0 0 300 300">
  <defs>
    <style>
      .cls-1 {
        fill: #005cb9;
        fill-rule: evenodd;
      }
    </style>
  </defs>
  <!-- Generator: Adobe Illustrator 28.6.0, SVG Export Plug-In . SVG Version: 1.2.0 Build 709)  -->
  <g>
    <g id="Layer_1">
      <path class="cls-1" d="M198.8,95.2v-38.3c0-15-12.3-27.3-27.3-27.3h-4c-15,0-27.3,12.3-27.3,27.3v45c-1.2,2.1-2.1,4.6-2.5,7-4.3-3.4-9.8-5.2-15.6-5.2v-1.8c0-15-12.3-27.3-27.3-27.3h-2.8c-15,0-27.3,12.3-27.3,27.3v68c0,13.8,10.1,25.1,23.3,27v46.2c0,15,12.3,27.3,27.3,27.3h6.4c15,0,27.3-12.3,27.3-27.3v-35.8c5.2-1.8,8.9-6.7,8.9-12.9s0-2.1-.3-3.1c3.1,1.2,6.4,1.8,9.8,1.8h4c15,0,27.3-12.3,27.3-27.3v-46.6c5.8-.9,10.1-6.1,10.1-12.3s-4.3-11-10.1-11.9ZM156.3,131c8.6,0,15.6,7,15.6,15.6s-7,15.6-15.6,15.6-15.6-7-15.6-15.6,7-15.6,15.6-15.6ZM143.1,111.1c0-6.4,5.2-11.9,11.9-11.9s11.9,5.2,11.9,11.9-5.2,11.9-11.9,11.9c-6.4-.3-11.9-5.5-11.9-11.9ZM87.7,131.3v61c-10.7-2.1-19-11.9-19-23.3v-66.5c0-13.2,10.7-23.9,23.9-23.9s23.9,10.7,23.9,23.9v1.2h-1.2c-15.3,0-27.6,12.3-27.6,27.6ZM116.5,112v57c0,11.9-8.9,22.1-20.5,23.6v-58.5c0-11.6,8.9-21.1,20.5-22.1ZM140,240.7c0,12.3-9.8,22.1-22.1,22.1s-22.1-9.8-22.1-22.1v-42.9c14.4-.6,26-12.6,26-27.3v-58.2c8.6,1.5,15.3,8,17.5,16.2-4.3,4.3-7,10.4-7,17.2s3.1,13.2,7.7,17.8v18.1c-5.2,1.8-9.2,6.7-9.2,12.9s4,11,9.2,12.9v33.4ZM144.3,203.6c-4.9,0-8.9-4-8.9-8.9s4-8.9,8.9-8.9,8.9,4,8.9,8.9-4,8.9-8.9,8.9ZM193.3,164.7c0,13.2-10.7,23.9-23.9,23.9s-16.2-4.6-20.5-11.6v-8c2.5.9,4.9,1.2,7.7,1.2,13.5,0,24.2-10.7,24.2-24.2s-5.5-18.1-13.8-22.1c3.4-3.1,5.5-7.7,5.5-12.9,0-9.8-8-17.5-17.5-17.5s-6.7.9-9.5,2.8v-37.4c0-13.2,10.7-23.9,23.9-23.9s23.9,10.7,23.9,23.9v36.4c-5.2,1.5-9.2,6.1-9.2,11.9s4,10.4,9.2,11.9v45.3ZM196.4,115.7c-4.6,0-8.6-3.7-8.6-8.6s3.7-8.6,8.6-8.6,8.6,3.7,8.6,8.6-4,8.6-8.6,8.6ZM223.7,78.3c-6.4,0-11.3,5.2-11.3,11.3s5.2,11.3,11.3,11.3,11.3-5.2,11.3-11.3c.3-6.1-4.9-11.3-11.3-11.3ZM223.7,96.1c-3.4,0-6.1-2.8-6.1-6.1s2.8-6.1,6.1-6.1,6.1,2.8,6.1,6.1-2.8,6.1-6.1,6.1Z"/>
    </g>
  </g>
</svg>