<svg id="Layer_1" data-name="Layer 1" xmlns="http://www.w3.org/2000/svg" viewBox="0 0 300 300"><defs><style>.cls-1{fill:#8c1736;}.cls-2{fill:#ef9340;}.cls-3{fill:#185444;}</style></defs><path id="path14" class="cls-1" d="M106.37,65.92A9.06,9.06,0,0,0,102.06,67l-38,20.5a8,8,0,0,0-4.32,7v41a8,8,0,0,0,4.32,7l38,20.5a9.16,9.16,0,0,0,8.63,0l38-20.5a8,8,0,0,0,4.31-7v-41a8,8,0,0,0-4.31-7l-38-20.5A9.07,9.07,0,0,0,106.37,65.92Zm0,112.05A24.86,24.86,0,0,1,94.62,175l-38-20.51a21.8,21.8,0,0,1-11.75-19v-41a21.8,21.8,0,0,1,11.75-19L94.62,55a25,25,0,0,1,23.5,0l38,20.51a21.8,21.8,0,0,1,11.75,19v41a21.8,21.8,0,0,1-11.75,19l-38,20.51A24.8,24.8,0,0,1,106.37,178"/><path id="path16-1" class="cls-2" d="M218.32,88.26a17,17,0,0,0-8,2l-20.72,11.19a14.86,14.86,0,0,0-8,13v22.37a14.86,14.86,0,0,0,8,13L210.29,161a17.07,17.07,0,0,0,16.07,0l20.72-11.19a14.86,14.86,0,0,0,8-13V114.46a14.86,14.86,0,0,0-8-13L226.36,90.27A17,17,0,0,0,218.32,88.26Zm0,12.2a3.16,3.16,0,0,1,1.51.38L240.55,112a2.81,2.81,0,0,1,1.51,2.44v22.37a2.79,2.79,0,0,1-1.51,2.44l-20.72,11.19a3.17,3.17,0,0,1-3,0L196.1,139.27a2.79,2.79,0,0,1-1.51-2.44V114.46A2.81,2.81,0,0,1,196.1,112l20.72-11.18a3.15,3.15,0,0,1,1.5-.38"/><path id="path18" class="cls-3" d="M175.7,172.33a6.84,6.84,0,0,0-3.27.82L148.71,186a6.07,6.07,0,0,0-3.27,5.3v25.6a6.07,6.07,0,0,0,3.27,5.3L172.43,235a7,7,0,0,0,6.54,0l23.72-12.8a6.09,6.09,0,0,0,3.27-5.3v-25.6a6.09,6.09,0,0,0-3.27-5.3L179,173.15A6.84,6.84,0,0,0,175.7,172.33Zm0,75.64a20.67,20.67,0,0,1-9.8-2.45l-23.72-12.8a18.18,18.18,0,0,1-9.79-15.87v-25.6a18.17,18.17,0,0,1,9.8-15.87l23.71-12.8a20.86,20.86,0,0,1,19.6,0l23.71,12.8a18.19,18.19,0,0,1,9.8,15.87v25.6a18.19,18.19,0,0,1-9.8,15.87l-23.72,12.8A20.63,20.63,0,0,1,175.7,248"/></svg>