<?xml version="1.0" encoding="UTF-8"?>
<svg xmlns="http://www.w3.org/2000/svg" version="1.1" viewBox="0 0 300 300">
  <defs>
    <style>
      .cls-1 {
        fill: #8a8a8a;
      }

      .cls-2 {
        fill: #d93232;
      }
    </style>
  </defs>
  <!-- Generator: Adobe Illustrator 28.6.0, SVG Export Plug-In . SVG Version: 1.2.0 Build 709)  -->
  <g>
    <g id="Layer_1">
      <g>
        <path class="cls-1" d="M140.4,182c.3-3.7,2.4-5.2,3.4-7.3h15.2c0-2.9-2-4.4-3.5-6.1-7.1-7.9-15.1-15.2-22.2-23.1-14.1-15.8-9.7-39,2.9-52.8,1.2-1.3,2.9-2,4.3-2.9,2,.4,3.8,1.8,4.7,3.7-.7,3.1-3,5.2-4.8,8.6h13.3c2.3,2.3,3.8,4.1,4.7,7-7.5,1.2-14.8,0-22.4.7-1.2,2.3-2.5,4.5-1.5,7.8h26.2c1.6,2.5,1.3,4.6.2,7.4h-26.6c-.7,3-.5,5.1,1.2,7.3,7.4,1.1,15-.3,22.6.7q-.7,3.4-3.1,6.5c-4.1,1.3-8.7-.2-13.3.9.4,2.5,2.4,3.7,3.8,5.2,6.5,7.2,14.2,13.2,19.9,21.1,4.6,6.4,8.7,13.1,10,21.1,1.6,10.1-1.5,19.1-7.3,27.3-4.7,6.6-11,11.7-17,17-2.8-1.1-4.2-3.3-6-5.8,4.7-4.8,9.5-9.5,15-15.1h-13.3c-2.9-1.8-4.3-4.2-6.1-7.2h22.6c2.7-2.1,2.9-4.5,3.4-7.4h-28.9c-1.3-2.6-1-4.6-.3-7.3h28.1c1.1-2.9,0-4.8-1.4-7.2h-23.6Z"/>
        <path class="cls-2" d="M118.3,186.3v10.8c-1.7.9-2.4-.4-3.2-1.2-12.6-13.6-25.6-26.9-37.7-40.9-15.7-18.2-16.4-45.6-2.6-65.1,17.3-24.5,51-29.2,74.9-10.4,8.8,6.8,16.1,15.3,21.5,25,10.4,19.3.1,39.8-11.5,48.6-1.5-.2-2.3-1.6-3.4-2.4-1.2-.7-2-1.7-2.5-3,2.2-2.8,4.8-5.6,6.9-8.7,7.6-11.1,8.2-22.5.6-33.8-9.2-13.6-20.5-24.4-37.5-27.3-22.4-3.8-43.2,9.7-48.5,31.8-3.8,15.6-.2,29.6,10.6,41.5,10.7,11.8,21.6,23.4,32.5,35.1Z"/>
        <path class="cls-1" d="M159.5,82.8c-1.9-1.9-4.1-3.2-5.2-5.3,25.2-18.1,64.2-10.1,77,24.4,7.6,20.7,3.6,39.6-11.3,56-11.5,12.7-23.2,25.2-34.9,37.7-.8.8-1.4,2.1-3.2,1.7v-11.5c9.9-10.6,20.3-21.8,30.8-32.9,8.7-9.2,13.2-19.9,13.1-32.7-.4-31.6-30.6-51.5-59.8-39.3-2,.8-3.7,2.5-6.5,1.9Z"/>
        <path class="cls-2" d="M140.2,159.9c2.8,1.2,4.5,3,6.5,5.2-6.3,7.8-13,15.1-13.9,25.6-.9,11,6.1,18.2,12.4,25.7-1.8,2.2-3.4,4.2-5.7,5.6-20.8-17.2-21.1-40.8.7-62Z"/>
      </g>
    </g>
  </g>
</svg>