<?xml version="1.0" encoding="UTF-8"?>
<svg xmlns="http://www.w3.org/2000/svg" version="1.1" viewBox="0 0 300 300">
  <defs>
    <style>
      .cls-1 {
        fill: #56a6ba;
      }

      .cls-2 {
        fill: #dd7538;
      }
    </style>
  </defs>
  <!-- Generator: Adobe Illustrator 28.6.0, SVG Export Plug-In . SVG Version: 1.2.0 Build 709)  -->
  <g>
    <g id="Layer_1">
      <g>
        <g>
          <path class="cls-2" d="M69.9,192.2c-.5-4.5,3.7-7.5,7.1-7.5,4.4,0,7.7,3,7.8,7.2.1,3.7-2.9,7.7-7.3,7.8-3.8,0-8.2-3-7.6-7.6Z"/>
          <path class="cls-2" d="M71.3,113.4c-3.1-5.4-.9-9.3,1.6-11.1,3.2-2.2,7.6-1.6,10.2,1.2,2.5,3,2.4,7.4-.3,10.3-2.2,2.4-7.3,3.8-11.5-.4Z"/>
          <path class="cls-2" d="M216.8,113.5c-3.3-5-1.2-9.4,1.6-11.2,3.3-2.3,7.8-1.6,10.2,1.6,2.2,2.8,2.2,7.2-.4,9.7-2.6,2.5-6.9,3.8-11.4-.2Z"/>
          <path class="cls-2" d="M150,226.5c4.2-.3,7.4,3.6,7.4,7.6-.1,4.2-3.6,7.4-7.8,7.3,0,0,0,0,0,0-4.5-.2-7.2-3.8-7.2-7.9.1-4,3.4-7.1,7.4-7,0,0,.2,0,.3,0Z"/>
          <path class="cls-2" d="M157.4,66.1c-.1,4.5-3.4,7.6-7.8,7.5-4.1,0-7.3-3.5-7.2-7.5,0,0,0,0,0,0,.2-4.7,3.5-7.7,7.6-7.4,4.5.2,7.2,3,7.3,7.5Z"/>
          <path class="cls-2" d="M222.7,199.7c-3.8.5-7.6-3.5-7.5-7.2,0-4.4,3.1-7.7,7.4-7.7,4.1,0,7.4,3.2,7.6,7.3.2,4.4-3.9,8-7.4,7.6Z"/>
        </g>
        <g>
          <path class="cls-1" d="M174.4,235.1c-2,.2-4.1.3-6.1,0-.8-1-.5-2.2-.4-3.2.4-8.6-6.7-17.5-17.1-17.8-9.1-.4-17,6.3-18.2,15.4-.2,1.8-.3,3.6-.4,5.5-2,.3-4.1.3-6.1,0-.8-4.7.1-9.1,1.9-13.6-10.6-3.3-20.3-8.9-28.5-16.3-2.8,3.1-5.8,5.9-9.8,7.7-1.7-1.4-2.1-3.5-3.4-5.2.9-1.2,2-1.6,3-2.1,7.5-4.4,10.7-14,7.3-21.9-3.4-8.3-12.4-12.7-21-10.4-2.5.7-4.7,2.1-7.2,3.4-1.1-1.8-2.2-3.6-3.3-5.5,3.6-2.5,7.7-4.2,12-5-2.1-10.4-2.2-21.2-.2-31.6-4.3-.9-8.2-2.2-11.7-4.8.7-2,2-3.6,3-5.5,2.5,1,4.6,2.5,7.1,3.2,10.1,2.9,20.9-4.1,22.3-14.5,1-6.9-2.5-14.8-9.2-18.1-.9-.3-1.6-.9-2.2-1.6.1-.7.4-1.4.9-2,.8-1.1,1.1-2.4,2.2-3.4,3.9,1.6,7,4.3,10,7.6,8.1-7.6,17.5-12.9,28.1-16.5-.7-2.4-1.6-4.7-1.9-7.2-.2-2.4-.2-4.9,0-7.3,2-.1,4.1,0,6.1.2.6,2.1.2,4.2.5,6.2,1.2,6.9,4.9,11.7,11.4,14.2,6.6,2.5,12.9,1.3,18.2-3.2,3.7-3.1,5.9-7.6,6-12.4,0-1.5,0-3,0-4.6,2.1-.6,4.2-.5,6.5-.5.8,5,0,9.7-2,14.4,10.6,3.3,20.3,8.9,28.5,16.4,2.7-3.3,6.1-5.9,9.9-7.7,1.2,1.6,2.3,3.3,3.1,5.1-.3,1.3-1.4,1.4-2.3,1.9-8.6,4.8-11.6,15.5-6.9,24.1,4.5,8.1,14.6,11.4,23,7.5,1.3-.6,2.6-1.4,4-2,1.4,1.3,2.1,2.4,3.4,5.4-3.4,2.6-7.5,4.2-11.7,4.7,2.2,10.5,2.2,21.3,0,31.8,4.2.7,8.3,2.3,11.8,4.7-.8,2-1.9,3.9-3.2,5.6-1-.5-2.1-1-3.1-1.6-9.4-5.3-23.2-1.1-26.1,12.2-1.5,7.1,2.1,14.8,8.6,18.6.9.5,1.8,1,2.6,1.7-.8,1.9-1.8,3.7-3.1,5.4-4.1-1.6-7.2-4.4-10.1-7.7-8.1,7.5-17.8,13.1-28.3,16.4,1.6,4.5,2.6,8.8,2,13.7ZM131.1,84.5c-10.8,3.1-20.6,8.8-28.7,16.6,2.7,7.5,2.4,14.6-1.5,21.4-3.9,6.8-9.9,10.5-17.4,12-2.4,10.5-2.3,21.4.1,31.9,7.6,1.4,13.6,5.2,17.5,11.9,4,6.8,4.2,14,1.7,21.3,8.1,7.8,18,13.4,28.9,16.4,10.2-10.7,26.3-11.3,37-.2,8.5-1.6,23-9.5,28.8-16.7-2.6-7.2-2.1-14.1,1.6-20.8,3.8-6.9,10-10.4,17.5-12.1,2.6-10.5,2.6-21.4,0-31.8-7.8-1.5-13.7-5.3-17.5-12-3.9-6.8-4.2-13.8-1.6-21.2-8.2-8.1-17.8-13.3-28.8-16.6-4.7,5.5-11.5,8.6-18.7,8.5-7.4,0-13.7-2.8-18.8-8.4Z"/>
          <path class="cls-1" d="M139.7,117.1c0,4.9-4.1,8.8-8.9,8.7,0,0,0,0,0,0-4.6,0-8.7-4.3-8.7-8.9,0-4.9,4.1-8.8,9-8.8,4.8,0,8.7,4,8.7,8.8,0,0,0,0,0,.1Z"/>
          <path class="cls-1" d="M169.7,126.1c-4.8,0-8.8-3.9-8.8-8.7,0,0,0,0,0-.1.2-4.8,4.1-8.6,8.9-8.6,4.8,0,8.8,3.9,8.8,8.7,0,0,0,.1,0,.2,0,4.7-3.9,8.6-8.6,8.5,0,0-.1,0-.2,0Z"/>
          <path class="cls-1" d="M130.3,191.8c-4.8,0-8.8-3.8-8.9-8.6,0,0,0,0,0-.1,0-4.8,4-8.6,8.7-8.7,4.8,0,8.8,3.8,8.8,8.7,0,0,0,.1,0,.2,0,4.8-3.8,8.6-8.6,8.7,0,0,0,0-.1,0Z"/>
          <path class="cls-1" d="M177.8,183.3c0,5.1-3.6,8.9-8.7,8.8-4.8,0-8.7-3.8-8.8-8.7,0-4.8,3.8-8.7,8.7-8.8,0,0,0,0,.1,0,4.7-.1,8.6,3.6,8.7,8.3,0,.1,0,.2,0,.3Z"/>
          <path class="cls-1" d="M111.5,158.9c-4.8,0-8.6-4-8.6-8.7,0,0,0,0,0,0,0-4.8,4-8.6,8.8-8.7,4.7,0,8.7,3.7,8.8,8.4,0,.1,0,.3,0,.4,0,5-3.8,8.6-8.9,8.6Z"/>
          <path class="cls-1" d="M188.4,158.9c-4.7.1-8.6-3.5-8.7-8.2,0-.2,0-.4,0-.6,0-4.8,4-8.7,8.8-8.6,4.8,0,8.6,3.9,8.6,8.6.1,4.7-3.6,8.7-8.3,8.8-.2,0-.3,0-.5,0Z"/>
          <path class="cls-1" d="M149.9,144c3.4,0,6.1,2.7,6.2,6.1,0,0,0,0,0,0,.1,3.4-2.5,6.3-5.9,6.4s-6.3-2.5-6.4-5.9c0,0,0-.2,0-.2-.2-3.3,2.4-6.2,5.8-6.3.1,0,.3,0,.4,0Z"/>
        </g>
      </g>
    </g>
  </g>
</svg>