<?xml version="1.0" encoding="UTF-8"?>
<svg xmlns="http://www.w3.org/2000/svg" version="1.1" viewBox="0 0 300 300">
  <defs>
    <style>
      .cls-1 {
        fill: #065d94;
      }
    </style>
  </defs>
  <!-- Generator: Adobe Illustrator 28.6.0, SVG Export Plug-In . SVG Version: 1.2.0 Build 709)  -->
  <g>
    <g id="Layer_1">
      <g>
        <path class="cls-1" d="M209.7,234.5c-3-2.6-5.9-5.3-8.7-8.1-30.4-30.4-47.1-70.9-47.1-113.9s1.6-26.7,4.8-39.4c-16.4,7.3-31.5,16.7-44.9,28.2v.6c0,37.3,14.5,72.3,40.9,98.7,15.7,15.8,34.5,27.3,55,34"/>
        <path class="cls-1" d="M146.7,208.5c-26.3-26.3-41.6-60.5-43.9-97.2-15.4,15.2-28.3,33-37.8,52.8,33,41.3,80.8,70.3,135.3,79.1-19.9-7.4-38.1-19.2-53.6-34.7"/>
        <path class="cls-1" d="M226.6,233.5c-14.7-23.9-23.2-52.1-23.2-82.2s11.7-68.2,31.6-94.4c-22.2,0-43.4,3.9-63.1,10.9-4.5,14.3-6.8,29.3-6.8,44.6,0,40,15.6,77.6,43.9,106,5.6,5.5,11.5,10.6,17.6,15.1"/>
      </g>
    </g>
  </g>
</svg>