<?xml version="1.0" encoding="utf-8"?>
<!-- Generator: Adobe Illustrator 24.0.1, SVG Export Plug-In . SVG Version: 6.00 Build 0)  -->
<svg version="1.1" id="Layer_1" xmlns="http://www.w3.org/2000/svg" xmlns:xlink="http://www.w3.org/1999/xlink" x="0px" y="0px"
	 viewBox="0 0 300 300" style="enable-background:new 0 0 300 300;" xml:space="preserve">
<style type="text/css">
	.st0{fill:#EFEA70;}
	.st1{fill:#FE6965;}
	.st2{fill:#F9AF46;}
	.st3{fill:#F1746B;}
	.st4{fill:#A0D9E5;}
	.st5{fill:#FCE68B;}
	.st6{fill:#F6ACAC;}
	.st7{fill:#FFFFFF;}
	.st8{fill:#CAE9F0;}
	.st9{fill:#977FB9;}
	.st10{fill:#CA2127;}
	.st11{fill:#EF71A7;}
	.st12{fill:#8597CB;}
	.st13{fill:#E5408A;}
</style>
<title>SAVA_Light_bg</title>
<g>
	<polygon class="st0" points="191.6,41.7 149.9,113.9 233.3,113.9 	"/>
	<path class="st1" d="M191.3,186.7l-0.1-0.6c0.1-0.1,0.2-0.1,0.3-0.1l0.1,0.1c0,0.1,0,0.2,0,0.3L191.3,186.7z"/>
	<polygon class="st2" points="150.1,113.9 108.4,41.7 191.8,41.7 	"/>
	<polygon class="st3" points="108.4,186.1 66.7,113.9 150.1,113.9 	"/>
	<polygon class="st4" points="191.6,186.1 149.9,113.9 233.3,113.9 	"/>
	<polygon class="st5" points="108.4,41.7 66.7,113.9 150.1,113.9 	"/>
	<polygon class="st6" points="66.7,113.9 25,186.1 108.4,186.1 	"/>
	<polygon class="st7" points="150.1,113.9 108.4,186.1 191.8,186.1 	"/>
	<polygon class="st8" points="233.3,113.9 191.6,186.1 275,186.1 	"/>
	<polygon class="st9" points="191.6,186.1 149.9,258.3 233.3,258.3 	"/>
	<polygon class="st10" points="150.1,258.3 108.4,186.1 191.8,186.1 	"/>
	<polygon class="st11" points="66.7,258.3 25,186.1 108.4,186.1 	"/>
	<polygon class="st12" points="233.3,258.3 191.6,186.1 275,186.1 	"/>
	<polygon class="st13" points="108.4,186.1 66.7,258.3 150.1,258.3 	"/>
</g>
</svg>
