<svg id="Layer_1" data-name="Layer 1" xmlns="http://www.w3.org/2000/svg" xmlns:xlink="http://www.w3.org/1999/xlink" viewBox="0 0 300 300"><defs><style>.cls-1{fill:url(#radial-gradient);}.cls-2{fill:url(#radial-gradient-2);}.cls-3{fill:url(#radial-gradient-3);}.cls-4{fill:url(#radial-gradient-4);}.cls-5{fill:url(#radial-gradient-5);}.cls-6{fill:url(#radial-gradient-6);}.cls-7{fill:url(#radial-gradient-7);}.cls-8{fill:url(#radial-gradient-8);}.cls-9{fill:url(#radial-gradient-9);}.cls-10{fill:url(#radial-gradient-10);}.cls-11{fill:url(#radial-gradient-11);}.cls-12{fill:url(#radial-gradient-12);}.cls-13{fill:url(#radial-gradient-13);}.cls-14{fill:url(#radial-gradient-14);}.cls-15{fill:url(#radial-gradient-15);}.cls-16{fill:url(#radial-gradient-16);}.cls-17{fill:url(#radial-gradient-17);}.cls-18{fill:url(#radial-gradient-18);}.cls-19{fill:url(#radial-gradient-19);}.cls-20{fill:url(#radial-gradient-20);}.cls-21{fill:url(#radial-gradient-21);}.cls-22{fill:url(#radial-gradient-22);}.cls-23{fill:url(#radial-gradient-23);}.cls-24{fill:url(#radial-gradient-24);}.cls-25{fill:url(#radial-gradient-25);}.cls-26{fill:url(#radial-gradient-26);}.cls-27{fill:url(#radial-gradient-27);}.cls-28{fill:url(#radial-gradient-28);}.cls-29{fill:url(#radial-gradient-29);}.cls-30{fill:url(#radial-gradient-30);}.cls-31{fill:url(#radial-gradient-31);}.cls-32{fill:url(#radial-gradient-32);}.cls-33{fill:url(#radial-gradient-33);}.cls-34{fill:url(#radial-gradient-34);}.cls-35{fill:url(#radial-gradient-35);}.cls-36{fill:url(#radial-gradient-36);}</style><radialGradient id="radial-gradient" cx="91.27" cy="121.44" r="34.08" gradientUnits="userSpaceOnUse"><stop offset="0" stop-color="#b7d0e4"/><stop offset="1" stop-color="#64869d"/></radialGradient><radialGradient id="radial-gradient-2" cx="87.57" cy="131.99" r="33.78" xlink:href="#radial-gradient"/><radialGradient id="radial-gradient-3" cx="85.79" cy="143.09" r="33.38" xlink:href="#radial-gradient"/><radialGradient id="radial-gradient-4" cx="85.8" cy="156.09" r="33.31" xlink:href="#radial-gradient"/><radialGradient id="radial-gradient-5" cx="87.42" cy="167.19" r="33.71" xlink:href="#radial-gradient"/><radialGradient id="radial-gradient-6" cx="90.96" cy="177.76" r="34.04" xlink:href="#radial-gradient"/><radialGradient id="radial-gradient-7" cx="96.31" cy="187.5" r="34.25" xlink:href="#radial-gradient"/><radialGradient id="radial-gradient-8" cx="103.32" cy="196.08" r="34.32" xlink:href="#radial-gradient"/><radialGradient id="radial-gradient-9" cx="111.78" cy="203.23" r="34.26" xlink:href="#radial-gradient"/><radialGradient id="radial-gradient-10" cx="121.44" cy="208.73" r="34.08" xlink:href="#radial-gradient"/><radialGradient id="radial-gradient-11" cx="131.99" cy="212.43" r="33.78" xlink:href="#radial-gradient"/><radialGradient id="radial-gradient-12" cx="143.09" cy="214.21" r="33.38" xlink:href="#radial-gradient"/><radialGradient id="radial-gradient-13" cx="156.09" cy="214.2" r="33.31" xlink:href="#radial-gradient"/><radialGradient id="radial-gradient-14" cx="167.19" cy="212.58" r="33.71" xlink:href="#radial-gradient"/><radialGradient id="radial-gradient-15" cx="177.76" cy="209.04" r="34.04" xlink:href="#radial-gradient"/><radialGradient id="radial-gradient-16" cx="187.5" cy="203.69" r="34.25" xlink:href="#radial-gradient"/><radialGradient id="radial-gradient-17" cx="196.08" cy="196.68" r="34.32" xlink:href="#radial-gradient"/><radialGradient id="radial-gradient-18" cx="203.23" cy="188.22" r="34.26" xlink:href="#radial-gradient"/><radialGradient id="radial-gradient-19" cx="208.73" cy="178.56" r="34.08" xlink:href="#radial-gradient"/><radialGradient id="radial-gradient-20" cx="212.43" cy="168.01" r="33.78" xlink:href="#radial-gradient"/><radialGradient id="radial-gradient-21" cx="214.21" cy="156.91" r="33.38" xlink:href="#radial-gradient"/><radialGradient id="radial-gradient-22" cx="214.2" cy="143.91" r="33.31" xlink:href="#radial-gradient"/><radialGradient id="radial-gradient-23" cx="212.58" cy="132.81" r="33.71" xlink:href="#radial-gradient"/><radialGradient id="radial-gradient-24" cx="209.04" cy="122.24" r="34.04" xlink:href="#radial-gradient"/><radialGradient id="radial-gradient-25" cx="203.69" cy="112.5" r="34.25" xlink:href="#radial-gradient"/><radialGradient id="radial-gradient-26" cx="196.68" cy="103.92" r="34.32" xlink:href="#radial-gradient"/><radialGradient id="radial-gradient-27" cx="188.22" cy="96.77" r="34.26" xlink:href="#radial-gradient"/><radialGradient id="radial-gradient-28" cx="178.56" cy="91.27" r="34.08" xlink:href="#radial-gradient"/><radialGradient id="radial-gradient-29" cx="168.01" cy="87.57" r="33.78" xlink:href="#radial-gradient"/><radialGradient id="radial-gradient-30" cx="156.91" cy="85.79" r="33.38" xlink:href="#radial-gradient"/><radialGradient id="radial-gradient-31" cx="143.91" cy="85.8" r="33.31" xlink:href="#radial-gradient"/><radialGradient id="radial-gradient-32" cx="132.81" cy="87.42" r="33.71" xlink:href="#radial-gradient"/><radialGradient id="radial-gradient-33" cx="122.24" cy="90.96" r="34.04" xlink:href="#radial-gradient"/><radialGradient id="radial-gradient-34" cx="112.5" cy="96.31" r="34.25" xlink:href="#radial-gradient"/><radialGradient id="radial-gradient-35" cx="103.92" cy="103.32" r="34.32" xlink:href="#radial-gradient"/><radialGradient id="radial-gradient-36" cx="96.77" cy="111.78" r="34.26" xlink:href="#radial-gradient"/></defs><title>CPRX_Light_bg</title><path class="cls-1" d="M134.15,140.79,50.84,99.94l-2.71,5.37L132.64,143S135.21,143,134.15,140.79Z"/><path class="cls-2" d="M132.79,143.68,43.66,117.91l-1.74,5.77,89.76,22.39S134.21,145.62,132.79,143.68Z"/><path class="cls-3" d="M132,146.76,39.7,136.87l-.71,6,92.28,6.46S133.69,148.43,132,146.76Z"/><path class="cls-4" d="M131.67,149.94,39.1,156.22l.34,6,92-9.66S133.67,151.29,131.67,149.94Z"/><path class="cls-5" d="M131.94,153.13,41.86,175.38l1.38,5.87,88.93-25.49S134.14,154.1,131.94,153.13Z"/><path class="cls-6" d="M132.76,156.22,47.91,193.78l2.38,5.53,83.15-40.54S135.09,156.8,132.76,156.22Z"/><path class="cls-7" d="M134.1,159.12l-77,51.72,3.3,5,74.84-54.37S136.5,159.28,134.1,159.12Z"/><path class="cls-8" d="M135.92,161.74,69,226.05l4.13,4.39,64.26-66.54S138.31,161.48,135.92,161.74Z"/><path class="cls-9" d="M138.17,164,83.48,239l4.82,3.6L140,165.87S140.49,163.34,138.17,164Z"/><path class="cls-10" d="M140.79,165.85,99.94,249.16l5.37,2.71L143,167.36S143,164.79,140.79,165.85Z"/><path class="cls-11" d="M143.68,167.21l-25.77,89.13,5.77,1.74,22.39-89.76S145.62,165.79,143.68,167.21Z"/><path class="cls-12" d="M146.76,168l-9.89,92.26,6,.71,6.46-92.28S148.43,166.31,146.76,168Z"/><path class="cls-13" d="M149.94,168.33l6.28,92.57,6-.34-9.66-92S151.29,166.33,149.94,168.33Z"/><path class="cls-14" d="M153.13,168.06l22.25,90.08,5.87-1.38-25.49-88.93S154.1,165.86,153.13,168.06Z"/><path class="cls-15" d="M156.22,167.24l37.56,84.85,5.53-2.38-40.54-83.15S156.8,164.91,156.22,167.24Z"/><path class="cls-16" d="M159.12,165.9l51.72,77,5-3.3-54.37-74.84S159.28,163.5,159.12,165.9Z"/><path class="cls-17" d="M161.74,164.08,226.05,231l4.39-4.13L163.9,162.57S161.48,161.69,161.74,164.08Z"/><path class="cls-18" d="M164,161.83l75,54.69,3.6-4.82L165.87,160S163.34,159.51,164,161.83Z"/><path class="cls-19" d="M165.85,159.21l83.31,40.85,2.71-5.37-84.51-37.64S164.79,157.05,165.85,159.21Z"/><path class="cls-20" d="M167.21,156.32l89.13,25.77,1.74-5.77-89.76-22.39S165.79,154.38,167.21,156.32Z"/><path class="cls-21" d="M168,153.24l92.26,9.89.71-6-92.28-6.46S166.31,151.57,168,153.24Z"/><path class="cls-22" d="M168.33,150.06l92.57-6.28-.34-6-92,9.66S166.33,148.71,168.33,150.06Z"/><path class="cls-23" d="M168.06,146.87l90.08-22.25-1.38-5.87-88.93,25.49S165.86,145.9,168.06,146.87Z"/><path class="cls-24" d="M167.24,143.78l84.85-37.56-2.38-5.53-83.15,40.54S164.91,143.2,167.24,143.78Z"/><path class="cls-25" d="M165.9,140.88l77-51.72-3.3-5-74.84,54.37S163.5,140.72,165.9,140.88Z"/><path class="cls-26" d="M164.08,138.26,231,74l-4.13-4.39L162.57,136.1S161.69,138.52,164.08,138.26Z"/><path class="cls-27" d="M161.83,136l54.69-75-4.82-3.6L160,134.13S159.51,136.66,161.83,136Z"/><path class="cls-28" d="M159.21,134.15l40.85-83.31-5.37-2.71-37.64,84.51S157.05,135.21,159.21,134.15Z"/><path class="cls-29" d="M156.32,132.79l25.77-89.13-5.77-1.74-22.39,89.76S154.38,134.21,156.32,132.79Z"/><path class="cls-30" d="M153.24,132l9.89-92.26-6-.71-6.46,92.28S151.57,133.69,153.24,132Z"/><path class="cls-31" d="M150.06,131.67,143.78,39.1l-6,.34,9.66,92S148.71,133.67,150.06,131.67Z"/><path class="cls-32" d="M146.87,131.94,124.62,41.86l-5.87,1.38,25.49,88.93S145.9,134.14,146.87,131.94Z"/><path class="cls-33" d="M143.78,132.76,106.22,47.91l-5.53,2.38,40.54,83.15S143.2,135.09,143.78,132.76Z"/><path class="cls-34" d="M140.88,134.1l-51.72-77-5,3.3,54.37,74.84S140.72,136.5,140.88,134.1Z"/><path class="cls-35" d="M138.26,135.92,74,69l-4.39,4.13,66.54,64.26S138.52,138.31,138.26,135.92Z"/><path class="cls-36" d="M136,138.17,61,83.48l-3.6,4.82L134.13,140S136.66,140.49,136,138.17Z"/></svg>