<?xml version="1.0" encoding="UTF-8"?>
<svg xmlns="http://www.w3.org/2000/svg" version="1.1" viewBox="0 0 300 300">
  <defs>
    <style>
      .cls-1 {
        fill: #003f76;
      }
    </style>
  </defs>
  <!-- Generator: Adobe Illustrator 28.6.0, SVG Export Plug-In . SVG Version: 1.2.0 Build 709)  -->
  <g>
    <g id="Layer_1">
      <g>
        <path class="cls-1" d="M32,131.1c3.3,0,6.5.6,9.5,2l-.8,4.1c-2.7-1.3-5.6-2-8.6-2-10,0-12.6,6.2-12.6,14.6s3.9,14.7,13,14.7c3.1,0,6.2-.6,9.1-1.8l.6,4.2c-3.2,1.3-6.6,1.9-10,1.8-11.1,0-17.1-6.1-17.1-18.6s4.8-19.2,17-19.2Z"/>
        <path class="cls-1" d="M82.2,151.8h-25.8v.3c0,8.9,5,12.6,12.9,12.6,4,0,8-.9,11.6-2.7l.6,4.1c-3.8,1.8-8,2.7-12.3,2.7-11.5,0-17.3-5.7-17.3-18.9s3.7-18.9,15.6-18.9,15.3,5.4,15.3,15.9c0,1.6-.2,3.3-.6,4.8ZM56.4,148h22.2v-.4c0-8.9-4.4-12.4-11.1-12.4s-11,3.4-11,12.3v.5Z"/>
        <path class="cls-1" d="M94.9,116.4h4.4v41.5c0,5.3,1.8,6.7,4.4,6.7,1.2,0,2.5-.2,3.6-.7l.7,4.1c-1.4.6-2.9.8-4.4.8-5,0-8.7-2.5-8.7-10.3v-42Z"/>
        <path class="cls-1" d="M134.5,131.1c3.3,0,6.5.6,9.5,2l-.8,4.1c-2.7-1.3-5.6-2-8.6-2-10,0-12.6,6.2-12.6,14.6s3.9,14.7,13,14.7c3.1,0,6.2-.6,9-1.8l.6,4.1c-3.2,1.3-6.6,1.9-10,1.8-11.1,0-17.1-6.1-17.1-18.6,0-11.2,4.9-19.1,17-19.1Z"/>
        <path class="cls-1" d="M186.3,166.2c-4.8,1.8-9.9,2.8-15,2.7-8.6,0-14.9-2.8-14.9-14.5v-22.6h4.4v22.5c0,9,4.1,10.5,10.4,10.5,3.6,0,7.2-.5,10.6-1.8v-31.2h4.5v34.4Z"/>
        <path class="cls-1" d="M204.5,115.7c1.6,0,3,1.3,3,2.9,0,0,0,0,0,0h0c-.1,1.8-1.6,3.1-3.3,3-1.5,0-2.8-1.3-2.9-2.9,0-1.7,1.3-3.1,3-3.1,0,0,0,0,0,0h.1ZM202.2,131.8h4.4v36.6h-4.4v-36.6Z"/>
        <path class="cls-1" d="M220.3,121.8h4.5v10h15.3v4.2h-15.3v19.6c0,7.1,3.1,9.1,7.8,9.1,2.9,0,5.8-.6,8.5-1.8l.7,4.1c-2.9,1.2-6,1.9-9.1,1.8-7.1,0-12.3-3.5-12.3-13.3v-33.8Z"/>
        <path class="cls-1" d="M268.5,162.7l11.9-31h4.6l-14.1,36.6c-2.9,7.5-6.8,16.3-16.7,15.9l-1-4.2c7,.5,10.7-5.1,13.2-11.6l-16.4-36.6h4.7l13.8,30.9Z"/>
      </g>
    </g>
  </g>
</svg>