<?xml version="1.0" encoding="UTF-8"?>
<svg xmlns="http://www.w3.org/2000/svg" version="1.1" viewBox="0 0 300 300">
  <defs>
    <style>
      .cls-1 {
        fill: #3d89a8;
      }

      .cls-2 {
        fill: #14375c;
        fill-rule: evenodd;
      }

      .cls-3 {
        fill: #a7ceda;
      }
    </style>
  </defs>
  <!-- Generator: Adobe Illustrator 28.6.0, SVG Export Plug-In . SVG Version: 1.2.0 Build 709)  -->
  <g>
    <g id="Layer_1">
      <g>
        <g>
          <path class="cls-2" d="M97.3,182.1h13.7v-64.2h-13.7v64.2ZM112.7,182.1h13.7v-64.2h-13.7v64.2Z"/>
          <rect class="cls-3" x="97.3" y="104.5" width="13.7" height="64.1"/>
          <rect class="cls-1" x="97.3" y="117.9" width="13.7" height="50.7"/>
          <rect class="cls-3" x="112.7" y="131.4" width="13.7" height="64.1"/>
          <rect class="cls-1" x="112.7" y="131.4" width="13.7" height="50.7"/>
        </g>
        <g>
          <path class="cls-2" d="M270,154.1c-5.2-1.4-9.3-2-9.3-4.7s2.7-2.7,5.8-2.7c5.2,0,10.3,1.4,14.7,4v-12c-3.7-2.4-8.6-4-15-4s-16.8,4.2-18,12.3v-11.4h-24v-17.8h-13.4v64.3h13.4v-34h10.3v34h13.7v-2.2c5.1,2.6,10.8,3.9,16.6,3.9,14.4,0,20.3-6.6,20.3-15.1,0-9.1-7-12.3-15-14.6ZM265,172.1c-6,0-11.9-1.6-17-4.8v-15.7c.7,4.5,3.3,8,7.9,10.3,6.9,3.4,15.8,4,15.8,7.1,0,2.2-2.6,3.1-6.8,3.1h0Z"/>
          <path class="cls-2" d="M241,131.7c4.3,0,7.8-3.3,7.8-7.6,0,0,0,0,0,0,0-4.4-3.6-7.9-8-7.8,0,0,0,0,0,0-4.3,0-7.7,3.6-7.7,7.9,0,4.3,3.5,7.7,7.8,7.7Z"/>
          <path class="cls-2" d="M99.4,158.6c0-13-9.3-23.4-23.4-23.4s-16.4,3.8-20.7,10.3v-6.6c-4-3-9.1-4.2-14.4-4.2-14.8,0-25.8,10.4-25.8,24.6s10.9,24.5,25.8,24.5,10.5-1.2,14.4-4.2v-5.8c4.3,6.5,11.8,10.2,21.3,10.2s12.9-1.4,17.2-4.2v-12c-2.7,1.8-7.6,4.5-16.5,4.5s-12-3.5-12.2-9h34.1c.2-2.3.2-4.6.2-4.6ZM52.6,168.3c-3.2,2-7,3-10.8,2.9-7.7,0-13.2-5-13.2-12.1s5.5-12.2,13.2-12.2c3.9-.1,7.8,1,11,3.2-1.1,2.9-1.6,6.1-1.6,9.2v.4c0,2.9.4,5.8,1.4,8.5h0ZM65.1,154.1c.3-4.2,5-7.7,10.8-7.7s9.6,3.5,9.6,7.7h-20.4Z"/>
          <path class="cls-2" d="M195.7,171.2c-7.7,0-13.2-5-13.2-12.1,0-7.1,5.5-12.2,13.1-12.2,5-.2,9.8,1.6,13.4,5v-13.2c-4-3-9.1-4.2-14.4-4.2-11.1,0-20,5.8-23.8,14.7-3.4-8.3-11.2-14.2-21.8-14.2s-22,7.3-24.2,19.1h-9.4v9h9.2c1.4,12.7,11.2,20.7,25,20.7s12.9-1.4,17.2-4.2v-12c-2.7,1.8-7.7,4.5-16.5,4.5s-11.9-3.5-12.2-9h30.9c1.8,12.1,12.1,20.7,25.5,20.7s10.5-1.2,14.4-4.2v-13.2c-4.2,4-8.6,4.9-13.4,4.9ZM138.5,154h0s-.3,0-.3,0c.3-4.2,5-7.6,10.8-7.6s9.6,3.5,9.6,7.7h-20.2Z"/>
        </g>
      </g>
    </g>
  </g>
</svg>