<?xml version="1.0" encoding="UTF-8"?>
<svg xmlns="http://www.w3.org/2000/svg" version="1.1" xmlns:xlink="http://www.w3.org/1999/xlink" viewBox="0 0 300 300">
  <defs>
    <style>
      .cls-1 {
        fill: none;
      }

      .cls-2 {
        fill: #00a950;
      }

      .cls-3 {
        fill: #004990;
      }

      .cls-4 {
        fill: url(#linear-gradient);
      }

      .cls-5 {
        clip-path: url(#clippath);
      }
    </style>
    <clipPath id="clippath">
      <polygon class="cls-1" points="118.1 235 181.9 235 181.9 213.7 165.9 213.7 165.9 148.2 134.1 148.2 134.1 213.7 118.1 213.7 118.1 235"/>
    </clipPath>
    <linearGradient id="linear-gradient" x1="150.4" y1="153" x2="149.7" y2="228.4" gradientUnits="userSpaceOnUse">
      <stop offset="0" stop-color="#dbe0ef"/>
      <stop offset="1" stop-color="#5271ab"/>
    </linearGradient>
  </defs>
  <!-- Generator: Adobe Illustrator 28.6.0, SVG Export Plug-In . SVG Version: 1.2.0 Build 709)  -->
  <g>
    <g id="Layer_1">
      <g>
        <path class="cls-2" d="M112.8,226.6c-27.4-14.1-47.8-43.9-47.8-76.8,0-16,4.5-31.7,13.1-45.2l50.7,43.1v60.8h-15.9v18.2ZM187.2,226.6c27.5-14,47.8-43.8,47.8-76.8,0-16-4.5-31.7-13.1-45.3l-50.6,43.2v60.7h15.9v18.2Z"/>
        <g class="cls-5">
          <rect class="cls-4" x="118.1" y="148.2" width="63.7" height="86.8"/>
        </g>
        <path class="cls-3" d="M144.7,235v-87.3c.2-4.1-1.5-8.1-4.6-10.8l-51.3-46.1c32.7-33.7,86.6-34.5,120.3-1.8.7.7,1.3,1.3,2,2l-51.3,45.8c-3.2,2.6-4.9,6.7-4.5,10.8v87.3h-10.6Z"/>
      </g>
    </g>
  </g>
</svg>