<svg id="Layer_1" data-name="Layer 1" xmlns="http://www.w3.org/2000/svg" viewBox="0 0 300 300"><defs><style>.cls-1{fill:#2b8fce;}.cls-2{fill:#92b8c2;}.cls-3{fill:#00ad7e;}</style></defs><path class="cls-1" d="M236.64,65.22a121,121,0,0,0-84.8-35.38h-1.12c-37.78,0-79.21,18.84-103.5,47.08C32.35,94.23,26,112.79,28.87,130.61c2.76,17.11,10.48,28,18,38.47,5.6,7.88,10.9,15.33,14.76,25.87,16,43.75,50.39,72.48,89.63,75,2.29.14,4.56.22,6.83.22,27.53,0,53.91-10.62,74.9-30.34A123.74,123.74,0,0,0,271.8,149.9,118.59,118.59,0,0,0,236.64,65.22ZM225.12,231.45c-18.7,17.55-42.53,27.22-67.05,27.22-2,0-4.08-.07-6.1-.21C117.33,256.25,86.83,230.4,72.38,191,68,179,62,170.56,56.19,162.42c-7-9.86-13.64-19.17-16-33.65S43.34,99.06,56,84.41c22.16-25.78,60.25-43.09,94.8-43.09h1a109.67,109.67,0,0,1,76.8,32,107.33,107.33,0,0,1,31.8,76.55A112.35,112.35,0,0,1,225.12,231.45Z"/><path class="cls-2" d="M213.44,88.49A88.27,88.27,0,0,0,151.53,62.7h-.81c-28.2,0-60.48,14.64-78.51,35.61-5.89,6.84-12.55,17.13-10.9,27.33,1.54,9.62,5.82,15.63,12.32,24.74,6.24,8.78,13.32,18.73,18.63,33.23,11.5,31.36,34.87,51.87,61,53.54,1.59.09,3.18.15,4.75.15,19.37,0,37.53-7.41,52.48-21.44a90.72,90.72,0,0,0,28.46-66A86,86,0,0,0,213.44,88.49Zm-10.81,119c-12.78,12-28.23,18.35-44.64,18.35-1.32,0-2.68-.05-4-.13-21.52-1.37-41.05-19-51-46-5.84-15.93-13.71-27-20-35.88s-9.25-13.22-10.34-19.93c-.73-4.52,2.29-11.1,8.29-18.07C96.66,87.47,126,74.17,150.7,74.17h.71A76.88,76.88,0,0,1,205.34,96.6a74.69,74.69,0,0,1,22.15,53.28A79.25,79.25,0,0,1,202.63,207.48Z"/><path class="cls-3" d="M225,76.85A104.74,104.74,0,0,0,151.7,46.27h-1c-33.16,0-69.72,16.62-91,41.33-8.15,9.46-17.3,24.2-14.66,40.59,2.17,13.39,8.18,21.85,15.14,31.63,5.93,8.34,12.07,17,16.65,29.43,13.76,37.56,42.63,62.19,75.33,64.26,1.93.13,3.88.19,5.79.19,23.28,0,45.91-9.2,63.71-25.9a107.19,107.19,0,0,0,33.65-77.92,102.45,102.45,0,0,0-30.34-73ZM213.88,219.46C198,234.36,178.67,242.25,158,242.25c-1.68,0-3.38-.06-5.07-.15-28.11-1.79-53.13-23.55-65.31-56.78-5.09-13.89-12-23.56-18-32.1C63,143.89,58.16,137.15,56.43,126.4c-1.94-12.05,5.47-23.68,12-31.31,18.91-22,52.74-37.34,82.28-37.34h.86A93.29,93.29,0,0,1,217,85a91.05,91.05,0,0,1,27,64.92,95.87,95.87,0,0,1-30.07,69.56Z"/></svg>