<?xml version="1.0" encoding="UTF-8"?>
<svg xmlns="http://www.w3.org/2000/svg" version="1.1" viewBox="0 0 300 300">
  <defs>
    <style>
      .cls-1 {
        fill: #e55d29;
      }

      .cls-2 {
        fill: #4576e3;
      }

      .cls-3 {
        fill: #7d1a9a;
      }
    </style>
  </defs>
  <!-- Generator: Adobe Illustrator 28.6.0, SVG Export Plug-In . SVG Version: 1.2.0 Build 709)  -->
  <g>
    <g id="Layer_1">
      <g>
        <path class="cls-1" d="M150.7,86.4c-6.8-9.6-15.7-15.2-24.8-15.2-2.7,0-5.3.4-7.8,1.3-12,20.1-11.8,45.2.5,65.2,2.4.8,4.9,1.2,7.4,1.2,9.3,0,19-5.8,25.6-14.9-4.9-5.2-7.6-12.1-7.6-19.3,0-6.7,2.4-13.2,6.7-18.3Z"/>
        <path class="cls-3" d="M167.6,230.7c0-1.9-1-2.9-2.6-3.9l-5.4-3.4c-15.6-8.8-26.2-18.6-26.2-33.1s4.1-16.2,7.3-19.6c-4.2.8-8.5,1.2-12.8,1.2-4.5,0-9.1-.4-13.5-1.4-3.3,7.9-5,16.4-5.1,25,0,48.8,38.3,59.7,54.2,62.2,1.7.3,3.2-.9,3.5-2.6,0-.1,0-.3,0-.4l.5-24Z"/>
        <path class="cls-1" d="M235,104.7c0-34.7-28.1-62.9-62.8-62.9,0,0,0,0,0,0-5.2,0-10.4.6-15.4,1.9,4.3,2,8.3,4.5,12.1,7.4,11.2,8.6,19.4,20.5,23.5,34,10.5,10.9,10.5,28.2,0,39.2-4.1,13.5-12.4,25.4-23.5,34-1.4,1.1-2.8,2-4.2,3,2.5-.2,4.9-.3,7.5-.3,21.4,0,38.7,8.2,38.7,29.6s-12.8,25.9-27.2,33.6l-4.5,2.9c-1.6,1-2.5,1.9-2.5,3.7l.5,24.4c0,1.7,1.4,3.1,3.1,3.1.2,0,.4,0,.6,0,31-4.4,54.1-30.9,54.1-62.2v-91.3Z"/>
        <path class="cls-2" d="M126,143.4c-19.7,0-26.7-17.2-26.7-38.4s7.1-38.4,26.7-38.4,24,9.2,30.9,20.9h31.5c-7.8-27.2-32.8-45.9-61.1-45.7-33.7.5-61.4,27.8-62.3,61.5-.8,34.7,26.6,63.5,61.3,64.4,28.6.7,54.1-18.1,62-45.6h-30.2c-6.6,12-19,21.4-32.2,21.4Z"/>
      </g>
    </g>
  </g>
</svg>