<?xml version="1.0" encoding="UTF-8"?>
<svg xmlns="http://www.w3.org/2000/svg" version="1.1" viewBox="0 0 300 300">
  <defs>
    <style>
      .cls-1 {
        fill: #1c8e4e;
      }
    </style>
  </defs>
  <!-- Generator: Adobe Illustrator 28.6.0, SVG Export Plug-In . SVG Version: 1.2.0 Build 709)  -->
  <g>
    <g id="Layer_1">
      <path class="cls-1" d="M285,154.6c-1.7,45.7-24.8,82.1-70.7,102.2-43.8,19.1-88.8,19.4-132.3-1.1-40.1-18.8-61.9-51.5-66.3-95.6-3.5-34.8,6.9-65,31.1-90.3,18-18.7,40.1-30.4,65.2-36.1,38.7-8.8,76.4-5.7,111.5,13.5,40.5,22.2,60.9,56.8,61.6,107.4ZM149.8,200.2c28.6,0,51-22.3,51-51,0-28.1-22.7-50.9-50.7-51-28.1,0-50.9,22.7-51,50.7h0c0,28.9,22.1,51.2,50.7,51.2Z"/>
    </g>
  </g>
</svg>