<?xml version="1.0" encoding="UTF-8"?>
<svg xmlns="http://www.w3.org/2000/svg" version="1.1" xmlns:xlink="http://www.w3.org/1999/xlink" viewBox="0 0 300 300">
  <defs>
    <style>
      .cls-1 {
        fill: url(#linear-gradient-2);
      }

      .cls-2 {
        fill: url(#linear-gradient-4);
      }

      .cls-3 {
        fill: url(#linear-gradient-3);
      }

      .cls-4 {
        fill: #1f91ab;
      }

      .cls-5 {
        fill: url(#linear-gradient);
      }
    </style>
    <linearGradient id="linear-gradient" x1="76" y1="201.8" x2="221.3" y2="201.8" gradientTransform="translate(0 300) scale(1 -1)" gradientUnits="userSpaceOnUse">
      <stop offset="0" stop-color="#11a5c3"/>
      <stop offset=".8" stop-color="#108da7"/>
    </linearGradient>
    <linearGradient id="linear-gradient-2" x1="100.9" y1="156.5" x2="209.8" y2="87.7" gradientTransform="translate(0 300) scale(1 -1)" gradientUnits="userSpaceOnUse">
      <stop offset="0" stop-color="#568f9f"/>
      <stop offset=".3" stop-color="#815572"/>
      <stop offset=".6" stop-color="#a81e48"/>
      <stop offset=".7" stop-color="#b80937"/>
    </linearGradient>
    <linearGradient id="linear-gradient-3" x1="51.4" y1="153.5" x2="213.4" y2="59.4" gradientTransform="translate(0 300) scale(1 -1)" gradientUnits="userSpaceOnUse">
      <stop offset=".2" stop-color="#16284c"/>
      <stop offset="1" stop-color="#dc0040"/>
    </linearGradient>
    <linearGradient id="linear-gradient-4" x1="110.5" y1="173.6" x2="220.1" y2="234.4" gradientTransform="translate(0 300) scale(1 -1)" gradientUnits="userSpaceOnUse">
      <stop offset=".2" stop-color="#16294e"/>
      <stop offset="1" stop-color="#11a5c3"/>
    </linearGradient>
  </defs>
  <!-- Generator: Adobe Illustrator 28.6.0, SVG Export Plug-In . SVG Version: 1.2.0 Build 709)  -->
  <g>
    <g id="Layer_1">
      <g>
        <path class="cls-5" d="M82.4,136.7c.4.6.8,1.3.8,1.3,0,0,.7-.5.9-.7,3.6-2.3,8.5-6.1,14-9.7-.2-.2.9-.5.8-.7-1-1-1.8-2.1-2.4-3.3-2.7-5.6-2.5-10.3.7-14.9,4.8-7.1,11.7-11.8,18.9-16.1,20.9-12.4,43.5-20.4,67.1-25.8,9-2.2,18.1-3.6,27.3-4.1,2.9.4,5.8.6,8.7,1.2,1.7.4,2.3,1.3,1.8,2.3.2-.4.3-.8.1-1.3h.1s0-3.3-2.3-4.9h0c-3.6-1-7.4-1.6-11.1-1.6-7.9,0-15.9.5-23.8,1.3-21.5,2.2-42.5,6.6-62.7,14.3-13.1,4.9-25.5,11.1-35.4,21.5-10.6,11.1-13.7,25.5-4.2,40,.3.5.5,1,.7,1.3Z"/>
        <path class="cls-1" d="M88.3,143.7l1.4,2.1.5.5c-.2-.2.2.2.4.4.8.5,1.5,1.1,2.1,1.8,9.3,8.5,19.5,15.7,30.6,21.7,15.4,8.5,31.2,16.5,46.7,24.9,13.9,7.5,27.8,15.2,41.6,23,3.2,1.8,6,4.5,9.3,7.1h.4c4.5-1.3,8.1-4.7,9.9-9-.6-.9-1.4-1.7-2.2-2.4-5-4.2-9.9-8.7-15.5-12.1-16.8-10.1-33.9-19.6-50.9-29.3-16.8-9.6-33.5-19.4-48.9-31.1-3-2.3-6-5.1-9.2-7.7"/>
        <path class="cls-3" d="M234.5,222.3c0-.2-.1-.5-.2-.7-.2-.7-.5-1.4-.9-2-.3-.5-.6-1.1-.9-1.6-.1-.2-.3-.4-.4-.7-.3-.4-.5-.7-.8-1.1-1.9,4.6-5.3,7.5-9.9,9.2-.7.2-1.4.5-2.1.8-4.4,1.7-5.7,1.4-9.1,1.7-1.7.1-3.5.2-5.2.2-14.4.1-28.3-2.7-42.2-6.3-21.8-5.7-42.6-13.7-61.7-25.7-7.2-4.5-13.9-9.8-19.3-16.5-6.8-8.6-7-16.6-.4-25.4,1.5-2,3.1-3.8,4.8-5.6.7-.8,1.3-1.4,1.8-1.8.5-.5,1-1,1.4-1.4l-5.3-7.7c-1.8,1.3-3,2.1-3,2.1-3.7,3.4-7.1,7.1-10.3,10.9-4.3,5.3-6.3,12.1-5.7,18.9.6,6.4,3.4,11.9,7.1,16.9,7.2,9.6,16.6,16.5,26.8,22.6,20.3,12.2,42.1,20.5,65,26.3,15.6,4,31.4,7.1,47.7,6,6.4-.4,12.6-1.6,17.9-5.6,1.8-1.3,3.3-3.1,4.3-5.1.1-.3.2-.6.4-.8,0-.3.2-.5.3-.8.7-2.2.7-4.6,0-6.8Z"/>
        <path class="cls-2" d="M220.3,60.3c-.6-.2-1.2-.3-1.8-.5.2.1.4.3.6.4,2.3,1.6,2.2,4.8,2.2,4.8h-.1c.3.7,0,1.5-.9,2.3-1.9,1.8-4,3.4-6.3,4.6-13.8,6.5-27.7,13.1-41.7,19.3-20.8,9.2-41.8,18-61.7,28.9-3.4,1.9-6.8,3.7-10.1,5.8,0,0,0,0,0,0-.5.3-1.1.7-1.7,1.1.8,1.2,1.6,2.4,2.5,3.6.9,1,2.1,1.8,3.2,2.9,1-.7,2-1.3,2.7-1.7,18.4-12.2,38.2-22,57.9-31.9,15.7-7.9,31.5-15.5,47.2-23.4,3.6-1.9,7-4.2,10.1-6.9,4-3.5,3.1-7.7-2.1-9.2Z"/>
        <path class="cls-4" d="M89.2,145.3s13.3-10.8,15.3-11.8c0,0-4.4-4.7-5.5-6.6l-15.4,10.9-.2.3s4.7,6.2,5.9,7.2Z"/>
      </g>
    </g>
  </g>
</svg>