<svg id="Layer_1" data-name="Layer 1" xmlns="http://www.w3.org/2000/svg" viewBox="0 0 300 300"><polygon points="171.919 94.492 149.846 81.748 127.773 94.492 127.773 119.979 149.846 132.723 171.919 119.98 171.919 94.492" fill="#133b7e"/><path d="M149.505,223.48708,97.00518,193.176V132.55421l52.50026-30.31079,52.49976,30.311v60.62184Zm-40.3541-37.32336,40.3541,23.29871L189.85954,186.164V139.56678l-40.3541-23.29872-40.35459,23.29847Z" fill="#133b7e"/><rect x="143.77312" y="51.84997" width="12.14567" height="33.52364" fill="#133b7e"/><rect x="111.52872" y="67.1412" width="12.14569" height="42.95675" transform="translate(-17.94628 146.15511) rotate(-59.99974)" fill="#133b7e"/><rect x="161.43086" y="82.54672" width="42.95675" height="12.14569" transform="translate(-19.80453 103.32831) rotate(-30.00026)" fill="#133b7e"/><polygon points="124.277 177.009 102.205 164.266 80.132 177.009 80.132 202.497 102.205 215.241 124.277 202.497 124.277 177.009" fill="#133b7e"/><rect x="96.13185" y="204.47793" width="12.14567" height="42.21259" fill="#133b7e"/><rect x="65.56434" y="150.62664" width="12.14569" height="42.95675" transform="translate(-113.22861 148.09128) rotate(-59.99974)" fill="#133b7e"/><rect x="50.15881" y="204.00841" width="42.95675" height="12.14569" transform="translate(-95.44373 63.96491) rotate(-30.00026)" fill="#133b7e"/><polygon points="175.722 178.469 197.796 165.726 213.796 174.964 243.927 157.566 250 168.084 219.869 185.482 219.869 199.625 250 217.021 243.927 227.54 211.475 208.803 203.869 213.194 203.869 248.15 191.723 248.15 191.723 213.194 175.722 203.956 175.722 178.469" fill="#133b7e"/><polygon points="109.048 191.103 105.091 184.038 145.779 161.254 145.456 118.886 153.554 118.824 153.913 165.979 109.048 191.103" fill="#133b7e"/><rect x="166.37301" y="151.5208" width="8.09713" height="47.09637" transform="translate(-65.43157 238.83383) rotate(-60.89938)" fill="#133b7e"/></svg>