<?xml version="1.0" encoding="UTF-8"?>
<svg xmlns="http://www.w3.org/2000/svg" version="1.1" viewBox="0 0 300 300">
  <defs>
    <style>
      .cls-1 {
        fill: #497b98;
      }

      .cls-1, .cls-2 {
        fill-rule: evenodd;
      }

      .cls-2 {
        fill: #aa6034;
      }
    </style>
  </defs>
  <!-- Generator: Adobe Illustrator 28.6.0, SVG Export Plug-In . SVG Version: 1.2.0 Build 709)  -->
  <g>
    <g id="Layer_1">
      <g>
        <g>
          <path class="cls-1" d="M145.3,251.3c-5.8,3.8-13.5,2.2-17.3-3.6-3.8-5.8-2.2-13.5,3.6-17.3,5.8-3.8,13.5-2.2,17.3,3.6,3.8,5.7,2.2,13.5-3.6,17.2h0Z"/>
          <path class="cls-1" d="M107.6,235.2c-6.7,4.5-15.7,2.6-20.1-4-4.5-6.7-2.6-15.7,4-20.1,6.7-4.5,15.7-2.6,20.1,4,4.4,6.7,2.6,15.7-4,20.1h0Z"/>
          <path class="cls-1" d="M91.1,193.6c-7.8,5.1-18.2,3-23.3-4.8-5.1-7.8-3-18.2,4.8-23.3,7.8-5.1,18.2-3,23.3,4.8h0c5.1,7.8,3,18.2-4.8,23.3Z"/>
          <path class="cls-1" d="M115,148.9c-8.9,5.9-20.9,3.4-26.8-5.5-5.9-8.9-3.4-20.9,5.5-26.8,8.9-5.9,20.9-3.4,26.8,5.5,5.9,8.9,3.4,20.9-5.5,26.8h0Z"/>
          <path class="cls-1" d="M149.3,103.5c-10.3,6.8-13.1,20.6-6.4,30.8,6.8,10.3,20.6,13.1,30.8,6.4,10.3-6.8,13.1-20.6,6.4-30.8h0s0,0,0,0c-6.8-10.2-20.5-13-30.8-6.3Z"/>
        </g>
        <g>
          <path class="cls-2" d="M154.7,48.7c5.8-3.8,13.5-2.2,17.3,3.6,3.8,5.8,2.2,13.5-3.6,17.3-5.8,3.8-13.5,2.2-17.3-3.6h0c-3.8-5.8-2.2-13.5,3.6-17.3Z"/>
          <path class="cls-2" d="M192.4,64.8c6.7-4.4,15.7-2.5,20.1,4.2s2.5,15.7-4.2,20.1c-6.7,4.4-15.7,2.5-20.1-4.2-4.4-6.7-2.5-15.6,4.1-20h0Z"/>
          <path class="cls-2" d="M208.9,106.3c7.8-5.1,18.2-3,23.3,4.8,5.1,7.8,3,18.2-4.8,23.3-7.7,5.1-18.2,3-23.3-4.7-5.1-7.8-3-18.2,4.7-23.3,0,0,0,0,0,0Z"/>
          <path class="cls-2" d="M185,151.1c9-5.8,21-3.3,26.8,5.6,5.8,9,3.3,21-5.6,26.8-9,5.8-21,3.3-26.8-5.6-5.8-8.9-3.3-20.9,5.6-26.8h0Z"/>
          <path class="cls-2" d="M150.8,196.5c10.3-6.8,13.1-20.6,6.3-30.8s-20.6-13.1-30.8-6.3c-10.3,6.8-13.1,20.6-6.3,30.8h0c6.7,10.3,20.5,13.1,30.8,6.4h0Z"/>
        </g>
      </g>
    </g>
  </g>
</svg>