<svg id="Layer_1" data-name="Layer 1" xmlns="http://www.w3.org/2000/svg" xmlns:xlink="http://www.w3.org/1999/xlink" viewBox="0 0 300 300"><defs><linearGradient id="linear-gradient" x1="176.88" y1="188.34" x2="86.46" y2="75.63" gradientUnits="userSpaceOnUse"><stop offset="0" stop-color="#21627e"/><stop offset="1" stop-color="#284347"/></linearGradient><linearGradient id="linear-gradient-2" x1="190.74" y1="177.22" x2="100.32" y2="64.52" xlink:href="#linear-gradient"/><linearGradient id="linear-gradient-3" x1="91.13" y1="95.26" x2="91.62" y2="95.26" xlink:href="#linear-gradient"/></defs><path d="M211.76,226.62a13.37,13.37,0,0,0-3.27,1,71.86,71.86,0,0,1-18.67,3.49,79.57,79.57,0,0,1-19-.87,47.78,47.78,0,0,1-23.49-11.13c-8.69-7.62-13.52-17.43-16-28.54a78.89,78.89,0,0,1-1.79-18.95,74.31,74.31,0,0,1,2.8-18.91,5.6,5.6,0,0,1,.29-.69c1.65,2,3.26,4,4.84,6,5.48,6.87,10.92,13.77,16.44,20.6a4.37,4.37,0,0,1,.75,2.65c.58,5.81,1.77,11.44,4.61,16.63,3.91,7.12,10,11.15,17.83,12.7a53,53,0,0,0,27.14-1.8c2.26-.73,2.28-.77,3.22,1.46a58.12,58.12,0,0,1,4.08,14.39c0,.17,0,.31.24.35Z"/><path d="M91.62,95.27c3.51,2.8,7,5.57,10.52,8.41,11.66,9.48,23.25,19.06,34.64,28.88,7.14,6.16,14.23,12.37,21.08,18.87,4.53,4.3,9.11,8.57,12.88,13.59a27.41,27.41,0,0,1,1.54,31.88c-.45.71-.62.65-1.1,0-3.84-4.92-7.72-9.81-11.58-14.7L143.69,162q-12.23-15.54-24.45-31.11Q105.64,113.63,92,96.36c-.22-.28-.4-.59-.61-.88Z" fill="url(#linear-gradient)"/><path d="M175.34,167.21,88.24,68.88c.56-.39.88.05,1.22.3,7.44,5.45,14.9,10.88,22.31,16.38Q121,92.4,130.13,99.39c10.3,7.86,20.53,15.79,30.39,24.19,4.09,3.48,8.27,6.9,11.67,11.1,7.85,9.71,8.67,20.33,3.81,31.6A1.61,1.61,0,0,1,175.34,167.21Z" fill="url(#linear-gradient-2)"/><path d="M159.42,119.88a49,49,0,0,1,16.81-4.4,87.21,87.21,0,0,1,20.92.71,59.79,59.79,0,0,1,12.45,3.54c.85.33.64.94.58,1.47a34.12,34.12,0,0,1-1.91,8.34c-1,2.63-2,5.26-3,7.9-.24.65-.49.82-1.19.58a52.11,52.11,0,0,0-14.39-3.09,44.34,44.34,0,0,0-12.9.79,1.42,1.42,0,0,1-1.72-.54c-4.4-5.65-9.73-10.34-15.26-14.84A3.65,3.65,0,0,1,159.42,119.88Z"/><path d="M91.38,95.48c-.1-.09-.34-.18-.22-.33s.35-.11.46.12Z" fill="url(#linear-gradient-3)"/></svg>