<?xml version="1.0" encoding="UTF-8"?>
<svg xmlns="http://www.w3.org/2000/svg" version="1.1" xmlns:xlink="http://www.w3.org/1999/xlink" viewBox="0 0 300 300">
  <defs>
    <style>
      .cls-1 {
        fill: url(#linear-gradient-2);
      }

      .cls-2 {
        fill: url(#linear-gradient-4);
      }

      .cls-3 {
        fill: url(#linear-gradient-3);
      }

      .cls-4 {
        fill: url(#linear-gradient-5);
      }

      .cls-5 {
        fill: url(#linear-gradient);
      }
    </style>
    <linearGradient id="linear-gradient" x1="99.7" y1="97.9" x2="200.3" y2="97.9" gradientTransform="translate(0 300) scale(1 -1)" gradientUnits="userSpaceOnUse">
      <stop offset="0" stop-color="#0075b8"/>
      <stop offset="1" stop-color="#3eade2"/>
    </linearGradient>
    <linearGradient id="linear-gradient-2" x1="103.7" y1="212.3" x2="189.5" y2="212.3" gradientTransform="translate(0 300) scale(1 -1)" gradientUnits="userSpaceOnUse">
      <stop offset="0" stop-color="#f6b533"/>
      <stop offset="1" stop-color="#e0881c"/>
    </linearGradient>
    <linearGradient id="linear-gradient-3" x1="103.4" y1="163.3" x2="153.8" y2="163.3" gradientTransform="translate(0 300) scale(1 -1)" gradientUnits="userSpaceOnUse">
      <stop offset="0" stop-color="#e0881c"/>
      <stop offset="1" stop-color="#f6b533"/>
    </linearGradient>
    <linearGradient id="linear-gradient-4" x1="161.8" y1="147.4" x2="200.2" y2="147.4" gradientTransform="translate(0 300) scale(1 -1)" gradientUnits="userSpaceOnUse">
      <stop offset="0" stop-color="#1296cf"/>
      <stop offset="1" stop-color="#0073b4"/>
    </linearGradient>
    <linearGradient id="linear-gradient-5" x1="174.9" y1="168.2" x2="196.1" y2="168.2" gradientTransform="translate(0 300) scale(1 -1)" gradientUnits="userSpaceOnUse">
      <stop offset=".2" stop-color="#e0881c"/>
      <stop offset="1" stop-color="#f6b533"/>
    </linearGradient>
  </defs>
  <!-- Generator: Adobe Illustrator 28.6.0, SVG Export Plug-In . SVG Version: 1.2.0 Build 709)  -->
  <g>
    <g id="Layer_1">
      <g>
        <path class="cls-5" d="M99.7,223.6v-43.6c6.8,4,14.2,6.8,22,8.3,4.8,1,9.6,1.7,14.5,2,5.5.4,11,.4,16.5,0,13.6-1,26.5-4.2,38.1-11.8,3.5-2.3,6.7-5,8.8-8.8,0-.1.3-.2.6-.4,0,.6.1,1.1.1,1.6,0,10.4-.2,20.7,0,31.1.2,8.6-3.7,14.8-10.2,19.7-7.4,5.7-16,8.8-25,10.9-19.8,4.6-40.6,2.7-59.2-5.4-1.3-.6-2.5-1.3-3.7-2-.9-.5-1.7-1-2.5-1.5Z"/>
        <path class="cls-1" d="M112.4,110.3c-8.9-6.8-12.7-18.4-3.5-28.2,6.4-6.8,14.5-10.7,23.3-13.1,5.7-1.4,11.5-2.5,17.3-3.3,6.3-.9,12.7-1,19-.3,7.1.5,14.1,1.9,20.9,4.1v32.5c-26.6-6.4-52.5-5.9-77.1,8.3Z"/>
        <path class="cls-3" d="M103.4,106.9c5.7,7.6,13.1,11.9,21.2,15.1,7.2,2.8,14.8,4.6,22.5,5.5,2.2.3,4.3.5,6.7.8v38.2c-3.1-.4-6.1-.7-9.2-1.2-8.9-1.5-17.5-3.9-25.5-8.2-5.2-2.9-10-6.4-13.2-11.6-1.7-2.7-2.6-5.9-2.6-9.1,0-9,0-18.1,0-27.1v-2.5Z"/>
        <path class="cls-2" d="M194.7,143.9c1.1,1.6,2.2,3.2,3.2,4.9,3.3,5.5,2.6,11,0,16.5-2.2,4.9-6.1,8.3-10.5,11.1-7.8-5-16.5-8.2-25.7-9.4v-38.2c2.4.5,4.7,1,7,1.6,7.4,1.8,14.5,4.9,20.7,9.3,1.8,1.3,3.4,2.8,5.1,4.2h0Z"/>
        <path class="cls-4" d="M196.1,123.5v16.6c-3.5-2.3-6.8-4.9-10.4-6.9-3.6-2-7.4-3.4-10.8-4.9l21.2-4.8Z"/>
        <path d="M194.7,144h0c0,0,0,0,0,0,0,0,0,0,0,0Z"/>
      </g>
    </g>
  </g>
</svg>