<?xml version="1.0" encoding="UTF-8"?>
<svg xmlns="http://www.w3.org/2000/svg" version="1.1" xmlns:xlink="http://www.w3.org/1999/xlink" viewBox="0 0 300 300">
  <defs>
    <style>
      .cls-1 {
        fill: #06195c;
      }

      .cls-2 {
        fill: url(#linear-gradient);
      }
    </style>
    <linearGradient id="linear-gradient" x1="100.9" y1="81.8" x2="209.7" y2="81.8" gradientTransform="translate(0 300) scale(1 -1)" gradientUnits="userSpaceOnUse">
      <stop offset="0" stop-color="#2c0ff1"/>
      <stop offset="1" stop-color="#2569fa"/>
    </linearGradient>
  </defs>
  <!-- Generator: Adobe Illustrator 28.6.0, SVG Export Plug-In . SVG Version: 1.2.0 Build 709)  -->
  <g>
    <g id="Layer_1">
      <g>
        <path class="cls-1" d="M188.4,120.4c-12.8-11-26.9-15.9-43.3-11.8-9.5,2.3-17.9,7.8-23.8,15.7-13.9,18.4-12.3,42.1,4.3,58.6,9.8,9.7,22,13.5,35.6,12,13.4-1.5,23.7-8.7,31.9-19.4,14.5,6.2,28.2,12.2,41.8,18-6.3,27.1-50.9,50.7-89.9,46.9-41.1-4-75.6-37.4-79.7-81.2-4.4-47.2,24.9-86.9,72.3-98,35.7-8.4,74.7,9.3,90,34.4l-39.3,24.7Z"/>
        <path class="cls-2" d="M154.9,195.6c-21.4,0-41.5,10.4-54,27.9,12.9,9.5,28.1,15.4,44,17,22.5,2.2,46.7-4.5,64.8-15.8-12.3-18.2-32.8-29-54.8-29Z"/>
      </g>
    </g>
  </g>
</svg>