<svg id="Layer_1" data-name="Layer 1" xmlns="http://www.w3.org/2000/svg" viewBox="0 0 300 300"><path d="M109.4912,94.5917H131.076l32.96232,57.78181.26739-.03113q-.40386-28.81644-.80878-57.7087h17.40115v81.07317H161.07167L126.4028,114.75373l-.20861.06377q.38077,30.42329.76226,60.90383H109.4912Z" fill="#1e416a"/><path d="M196.0667,175.734V161.41174a2.82177,2.82177,0,0,1,1.26956-.1087q21.00176-.01242,42.00352-.01577a27.3981,27.3981,0,0,0,6.28512-.66748c3.93191-.92551,5.82509-2.95352,6.36393-6.92882a12.66044,12.66044,0,0,0-.45122-5.48031c-.95267-3.07957-3.31819-4.42067-6.27042-4.99473a28.04433,28.04433,0,0,0-5.40165-.46589c-6.9817.008-13.9635.01912-20.94511-.01077a42.286,42.286,0,0,1-12.60105-1.78463c-7.67955-2.415-11.86042-7.77294-13.10211-15.56932a37.7489,37.7489,0,0,1,.41254-14.26127c1.69213-7.59673,6.29316-12.48113,13.71791-14.76237a41.29549,41.29549,0,0,1,12.04035-1.77374c15.32187-.05213,30.644-.02618,45.966-.02776.18527,0,.37056.02293.62665.03983v14.32772a2.8328,2.8328,0,0,1-1.34466.1116q-20.3225.01033-40.645.00311a24.621,24.621,0,0,0-6.056.64336c-4.59515,1.156-6.97558,3.99816-7.26926,8.72768a13.89149,13.89149,0,0,0,.15633,3.3785,7.21913,7.21913,0,0,0,4.8174,5.7841,15.08852,15.08852,0,0,0,5.4354.90712c7.8497.00941,15.69943-.0015,23.5491.01484a45.59664,45.59664,0,0,1,12.07866,1.50525c6.80412,1.87163,10.913,6.25329,12.37735,13.11678a36.3447,36.3447,0,0,1-.37656,17.78093c-1.94015,6.81184-6.56327,10.97278-13.21409,13.055a41.24212,41.24212,0,0,1-12.263,1.79714c-15.47285.04567-30.94594.02214-46.41893.0227C196.585,175.77586,196.36249,175.75136,196.0667,175.734Z" fill="#1e416a"/><path d="M96.69205,161.52465V175.6368c-.21885.253-.5429.13519-.828.13531-10.0376.00413-20.07548.04275-30.1127-.02037a41.9989,41.9989,0,0,1-13.61865-1.82507c-9.63113-3.33843-16.08338-9.9254-19.46963-19.51034a48.99276,48.99276,0,0,1-2.52353-13.49544A78.89537,78.89537,0,0,1,30.621,126.365a42.74242,42.74242,0,0,1,5.595-17.37715c4.05551-6.61064,10.0616-10.539,17.40946-12.61968a47.05194,47.05194,0,0,1,12.503-1.77122c10.037-.075,20.075-.0322,30.11252-.03568.111,0,.222.01789.41745.0347v13.6669c-.32571.229-.75354.09585-1.14974.09627q-13.41494.01393-26.82986.005a24.6473,24.6473,0,0,0-7.255.98854c-5.10589,1.55738-8.36626,5.015-10.19775,9.93947a41.29842,41.29842,0,0,0-2.25624,11.1403,73.20606,73.20606,0,0,0-.02692,12.4232,38.19373,38.19373,0,0,0,1.51044,7.9681c1.74376,5.6331,5.625,8.82028,11.29217,10.01676a30.99862,30.99862,0,0,0,6.399.67519q13.64132.00858,27.28262.009C95.83347,161.52475,96.23978,161.52465,96.69205,161.52465Z" fill="#1e416a"/><path d="M121.31917,204.98619a2.76927,2.76927,0,0,1-2.2551-.03913V189.405l-.29092-.06669c-2.14811,5.22266-4.29621,10.44532-6.42033,15.60967a3.41245,3.41245,0,0,1-2.26577.10449l-6.17764-15.67518-.238.05625V204.869a2.60959,2.60959,0,0,1-2.38085.10085V187.27646a1.06271,1.06271,0,0,1,1.0429-.6404c.1131.00308.22642.00079.33961-.00111,2.548-.04289,2.63253.01186,3.57555,2.35218q2.27708,5.65108,4.5542,11.30216c.13973.34622.30354.68275.49986,1.12138a14.43615,14.43615,0,0,0,1.03826-2.2834c1.51274-3.56629,3.00489-7.14127,4.5094-10.71106a2.96064,2.96064,0,0,1,3.94193-1.72232.88555.88555,0,0,1,.61977.73884,6.35072,6.35072,0,0,1,.036.78956q.00289,7.91724-.00063,15.83447A1.69228,1.69228,0,0,1,121.31917,204.98619Z" fill="#1e416a"/><path d="M87.62408,196.94021v7.9633a2.85974,2.85974,0,0,1-2.38948.08281V187.17114a1.11373,1.11373,0,0,1,1.15785-.54c1.54652.01434,3.09321.01335,4.63984.01281a7.09407,7.09407,0,0,1,1.89485.292,4.44344,4.44344,0,0,1,3.53444,4.05434,4.49509,4.49509,0,0,1-2.646,4.69142c-.224.11663-.45351.22278-.77818.38158a7.742,7.742,0,0,1,2.78476,4.08322c.59965,1.536,1.31862,3.02783,1.80859,4.65769-.7689.644-1.5844.347-2.29514.30359a1.60379,1.60379,0,0,1-.64491-.99251c-.57019-1.43185-1.0998-2.88079-1.70533-4.29741C91.84761,197.15613,90.73715,196.5584,87.62408,196.94021Zm.11364-8.24057v6.05c1.055,0,2.02938.01766,3.00245-.00975a3.78113,3.78113,0,0,0,.98978-.207,2.76178,2.76178,0,0,0,2.073-2.96962,2.57559,2.57559,0,0,0-2.21659-2.70444A16.60725,16.60725,0,0,0,87.73772,188.69964Z" fill="#1e416a"/><path d="M49.88265,186.87041a2.97227,2.97227,0,0,1,2.40784.01253v7.37134h8.43064v-7.31165a3.03283,3.03283,0,0,1,2.4526-.11015v18.11223a2.8314,2.8314,0,0,1-2.3967-.00867V196.6693h-8.41v8.17133a2.70361,2.70361,0,0,1-2.48436.13181Z" fill="#1e416a"/><path d="M72.67319,186.83444a5.96106,5.96106,0,0,1,3.07918-.0273q3.29136,9.01868,6.58,18.02991a3.36037,3.36037,0,0,1-2.54307.22013c-.79063-1.46651-1.10478-3.18884-1.83945-4.78578h-7.6345c-.71792,1.51591-1.00983,3.24008-1.75219,4.7224a2.57036,2.57036,0,0,1-2.44289-.20977Zm1.54865,2.67887-.26807.01835L70.91534,198.125h6.39915Z" fill="#1e416a"/><path d="M140.55384,204.89105a4.23249,4.23249,0,0,1-2.56535.2022c-.76577-1.53572-1.13754-3.23545-1.8298-4.83068h-7.65643c-.69751,1.548-1.01033,3.26488-1.77172,4.79885a3.38514,3.38514,0,0,1-2.43821-.18943c2.18513-5.99438,4.36574-11.97636,6.55791-17.99007a5.34953,5.34953,0,0,1,3.10189-.06969C136.14413,192.81505,138.33181,198.806,140.55384,204.89105Zm-5.035-6.754c-1.05369-2.92763-2.08213-5.78512-3.11057-8.64262l-.24871.026-3.05322,8.61658Z" fill="#1e416a"/><path d="M243.82681,204.92381a4.36916,4.36916,0,0,1-2.60145.141c-.72406-1.516-1.11643-3.1689-1.78554-4.77743h-7.6869c-.67013,1.52908-1.00975,3.19974-1.7274,4.73015a3.07117,3.07117,0,0,1-2.4681-.15872c2.19193-6.00866,4.37524-11.99369,6.56781-18.00408a5.33807,5.33807,0,0,1,3.10314-.01192Zm-5.044-6.79418c-1.07089-2.97137-2.09093-5.80166-3.111-8.63194l-.24586.01711c-1.01048,2.84959-2.021,5.69919-3.05485,8.61483Z" fill="#1e416a"/><path d="M173.29553,186.8788a2.7122,2.7122,0,0,1,2.24254-.04686,2.02792,2.02792,0,0,1,.17186,1.26374c.00955,3.315.00192,6.63.00854,9.945a7.80842,7.80842,0,0,0,.20513,2.12741,4.18843,4.18843,0,0,0,4.68342,3.1953,4.0155,4.0155,0,0,0,4.02067-3.568,11.34755,11.34755,0,0,0,.1654-2.023q-.00734-4.8595.00106-9.719a3.19224,3.19224,0,0,1,.08831-1.1738,2.60936,2.60936,0,0,1,2.17687-.063,1.54309,1.54309,0,0,1,.2,1.14146c.00858,3.35266.00022,6.70537.00835,10.058a10.18048,10.18048,0,0,1-.29131,2.57349,6.16152,6.16152,0,0,1-5.86155,4.78753,10.4248,10.4248,0,0,1-2.25683-.02809,5.98411,5.98411,0,0,1-5.59813-6.25457c-.06381-3.879-.024-7.7598-.02543-11.63981A5.47024,5.47024,0,0,1,173.29553,186.8788Z" fill="#1e416a"/><path d="M34.70956,187.22219a1.03845,1.03845,0,0,1,.91276-.5821,39.2,39.2,0,0,1,5.97379.17524,4.99911,4.99911,0,0,1,4.407,4.19972c.40322,2.93382-.72932,5.32269-3.0749,6.44213a8.20952,8.20952,0,0,1-3.73321.72558c-.634-.0104-1.26824-.00179-2.00859-.00179v6.67282a2.6712,2.6712,0,0,1-2.4769.09968Zm2.51814,1.51323v7.388a14.008,14.008,0,0,0,3.64133-.188,3.61491,3.61491,0,0,0,2.60917-3.97126,3.19525,3.19525,0,0,0-3.02756-3.20778A29.59,29.59,0,0,0,37.2277,188.73542Z" fill="#1e416a"/><path d="M158.81238,187.1935a1.07712,1.07712,0,0,1,1.00508-.5592c2.90278.01216,5.80559.01376,8.70839.02349.06811.00023.13606.056.23925.10137a1.989,1.989,0,0,1-.0345,1.90608h-7.42749v5.8573h6.34777a2.07086,2.07086,0,0,1,.08021,2.04189h-6.416v6.56932h7.46184a1.71827,1.71827,0,0,1,.09139,1.955,5.44321,5.44321,0,0,1-1.80468.10115c-2.29978.01449-4.59971.0041-6.89959.00724-.49632.00067-.99675.03025-1.35167-.57969Z" fill="#1e416a"/><path d="M155.2581,201.31333c.55668,1.30642.39376,1.97149-.62544,2.69276-3.45408,2.44436-10.52139,2.2602-12.1682-4.34855a13.521,13.521,0,0,1,.27332-7.89983c2.02449-5.7421,7.824-6.312,11.447-4.35364,1.371.74112,1.59145,1.43251,1.033,2.996-.441.20278-.69413-.16263-.98471-.35948a7.68138,7.68138,0,0,0-2.54023-1.18663,5.0757,5.0757,0,0,0-6.27045,3.26236,10.91723,10.91723,0,0,0-.34429,6.77071c.99907,3.92893,4.78832,5.42293,8.45534,3.39828A7.12291,7.12291,0,0,1,155.2581,201.31333Z" fill="#1e416a"/><path d="M225.90251,201.30746c.56916,1.29.40591,1.97223-.60883,2.69312-3.44327,2.44615-10.51883,2.27656-12.17355-4.334a13.50554,13.50554,0,0,1,.26814-7.9001c2.102-5.96776,8.2-6.29125,11.63511-4.2498,1.22228.72639,1.44409,1.6305.75374,2.93456-.4654.04971-.7367-.31473-1.06754-.5354a7.10342,7.10342,0,0,0-3.01719-1.198,5.032,5.032,0,0,0-5.5755,3.28338,10.93008,10.93008,0,0,0-.38849,6.87691c.99352,3.9318,4.77992,5.43145,8.44993,3.41094A7.99314,7.99314,0,0,1,225.90251,201.30746Z" fill="#1e416a"/><path d="M257.94188,201.82822c.50219-.08083.82821.29855,1.21267.50213a6.813,6.813,0,0,0,4.66053.93576,2.87617,2.87617,0,0,0,2.56433-2.3526,2.79388,2.79388,0,0,0-1.5551-3.20354,28.85614,28.85614,0,0,0-2.72928-1.3521A9.39641,9.39641,0,0,1,259.4591,194.64a4.67987,4.67987,0,0,1,1.76906-7.808,7.07423,7.07423,0,0,1,6.61413.86593,2.76737,2.76737,0,0,1-.03978,2.05611c-.5789.078-.9344-.32091-1.35568-.53139a5.39034,5.39034,0,0,0-3.80809-.64615,2.35658,2.35658,0,0,0-1.91684,1.71423,2.58319,2.58319,0,0,0,.85965,2.7554,8.28694,8.28694,0,0,0,1.82723,1.11256c.98247.47363,1.97655.92857,2.92961,1.4565a4.73822,4.73822,0,0,1,2.696,5.02927,4.97255,4.97255,0,0,1-3.7144,4.37447,8.66916,8.66916,0,0,1-6.59-.50737C257.51059,203.9247,257.301,203.1326,257.94188,201.82822Z" fill="#1e416a"/><path d="M198.01774,204.92268a2.96075,2.96075,0,0,1-2.5112-.00266V188.69581H190.091a1.99417,1.99417,0,0,1-.07066-1.991h13.39131c.3419.86172.3419.86172.04324,1.93579h-5.43715Z" fill="#1e416a"/><path d="M246.66509,204.6276V186.89891a2.65982,2.65982,0,0,1,2.457.03855v16.20516h6.83529a1.94617,1.94617,0,0,1,.17694,1.78077,45.44093,45.44093,0,0,1-8.51032.27479A1.18669,1.18669,0,0,1,246.66509,204.6276Z" fill="#1e416a"/><path d="M206.59062,186.87746a2.89131,2.89131,0,0,1,2.37763-.00251v18.05136a2.66219,2.66219,0,0,1-2.37763.01792Z" fill="#1e416a"/></svg>