<svg id="Layer_1" data-name="Layer 1" xmlns="http://www.w3.org/2000/svg" viewBox="0 0 300 300"><path d="M111.67721,95.43884h72.24553c7.12152,21.61039,14.304,43.406,21.97721,66.69064-19.438,14.04318-38.18809,27.58935-58.04592,41.93587-19.13936-13.7689-37.91012-27.27262-57.953-41.69155C97.0937,140.26521,104.19338,118.44235,111.67721,95.43884Z" fill="#8c92c1"/><path d="M73.05015,46.327c7.74324,10.22208,13.41846,17.71409,19.68858,25.9915-8.67913,26.4875-17.28633,52.75544-26.20958,79.988L35,163.062C48.03117,123.08332,59.95785,86.49313,73.05015,46.327Z" fill="#0081b6"/><path d="M108.17771,66.16514C103.168,59.162,97.65533,51.45575,90.65513,41.67016H208.03428c-5.67313,8.75549-10.46119,16.14509-15.87153,24.495Z" fill="#70afc7"/><path d="M224.96962,175.65689l29.5683,10.33676c-32.23,24.42558-62.37816,47.27349-95.13563,72.09885V225.376C180.14885,209.64409,202.34625,192.812,224.96962,175.65689Z" fill="#70afc7"/><path d="M207.0852,72.68982c6.13193-8.43438,11.41834-15.70565,19.2636-26.49665,13.07573,39.36224,25.17995,75.8,38.6512,116.353l-31.23466-9.75709C224.95287,126.33222,216.23043,100.14568,207.0852,72.68982Z" fill="#0081b6"/><path d="M136.28494,258.32984c-31.7092-23.06033-61.38443-44.64146-93.1874-67.77,11.17285-3.93368,19.54858-6.88257,28.59183-10.06649q32.534,23.68209,64.59557,47.02024Z" fill="#3f94b3"/></svg>