<svg id="Layer_1" data-name="Layer 1" xmlns="http://www.w3.org/2000/svg" viewBox="0 0 300 300"><path d="M254.91163,234.31623a105.22092,105.22092,0,0,0-47.37375-85.68813,111.23142,111.23142,0,0,1-4.41919,25.49874,82.10862,82.10862,0,0,1,26.51516,42.73358,3.49116,3.49116,0,0,1-2.43056,4.19823,82.197,82.197,0,0,1-52.41162-2.25378,78.79373,78.79373,0,0,1-11.35732-5.4798A81.269,81.269,0,0,1,125.827,165.55359a74.1542,74.1542,0,0,0-20.726,11.00379,105.26524,105.26524,0,0,0,21.69823,36.59092,104.20454,104.20454,0,0,0,25.01263,20.15152h0A104.86743,104.86743,0,0,0,255,234.27205" fill="#2d6ab0"/><path d="M170.019,133.3377a104.38137,104.38137,0,0,0-42.51262.5303,102.70194,102.70194,0,0,0-29.74116,11.44571l-.61869.30934A105.53032,105.53032,0,0,0,49.9053,204.53088,103.5419,103.5419,0,0,0,45,234.31623a104.51391,104.51391,0,0,0,97.9293,1.85605,111.58465,111.58465,0,0,1-19.88637-16.572,82.24119,82.24119,0,0,1-50.202,1.45834,3.49114,3.49114,0,0,1-2.43055-4.154,82.18843,82.18843,0,0,1,98.98989-60.101,74.37482,74.37482,0,0,0,.79546-23.42172" fill="#4daae8"/><path d="M174.92425,211.33645a106.06064,106.06064,0,0,0,20.85858-37.077,104.07177,104.07177,0,0,0,4.90531-31.6856v-.26515A104.95582,104.95582,0,0,0,173.15657,71.69,106.06059,106.06059,0,0,0,149.779,52.55486,103.542,103.542,0,0,0,126.44571,71.69a108.66806,108.66806,0,0,0-13.25758,18.25127,104.69056,104.69056,0,0,0-13.78787,46.53409,111.67285,111.67285,0,0,1,24.26136-8.83839,81.13625,81.13625,0,0,1,9.72222-26.16161,82.28556,82.28556,0,0,1,14.2298-18.16288,3.49115,3.49115,0,0,1,4.86111,0A82.10122,82.10122,0,0,1,166.61617,183.363a83.7,83.7,0,0,1-11.57828,15.55556,78.22009,78.22009,0,0,0,11.71086,8.35227,66.99334,66.99334,0,0,0,8.17551,4.06565" fill="#3b86c9"/></svg>