<svg id="Layer_1" data-name="Layer 1" xmlns="http://www.w3.org/2000/svg" viewBox="0 0 300 300"><defs><style>.cls-1{fill:#ee7725;}.cls-2{fill:#203569;}.cls-3{fill:#93bb3e;}.cls-4{fill:#1a74bb;}</style></defs><path class="cls-1" d="M195.16,93.56,150.61,49a1.09,1.09,0,0,0-1,0L105,93.56c-.34.34-.34.86,0,1l9.9,9.9a.64.64,0,0,0,1,0,56.66,56.66,0,0,1,68.28,0,.64.64,0,0,0,.52.17.62.62,0,0,0,.51-.17l9.9-9.9C195.5,94.42,195.5,93.9,195.16,93.56Z"/><path class="cls-2" d="M105,183.86a56.49,56.49,0,0,1-.17-67.94,1.08,1.08,0,0,0,0-1L95,105c-.34-.34-.85-.34-1,0L49,149.55c-.34.34-.34.86,0,1l44.55,44.55a.64.64,0,0,0,.52.17.62.62,0,0,0,.51-.17l10.24-10.24A.82.82,0,0,0,105,183.86Z"/><path class="cls-3" d="M195.16,205.37l-10.24-10.24a.65.65,0,0,0-1,0,56.35,56.35,0,0,1-67.59,0,1.1,1.1,0,0,0-1,0L105,205.37c-.34.34-.34.85,0,1L149.58,251a.62.62,0,0,0,.51.17.63.63,0,0,0,.52-.17l44.55-44.56A.64.64,0,0,0,195.16,205.37Z"/><path class="cls-4" d="M251,149.38l-44.21-44.21a.83.83,0,0,0-1.2,0L184.92,126a43.1,43.1,0,1,0-.34,47.79l21,21a.62.62,0,0,0,.51.17.66.66,0,0,0,.52-.17l44.21-44.21A.74.74,0,0,0,251,149.38Z"/></svg>