<?xml version="1.0" encoding="UTF-8"?>
<svg xmlns="http://www.w3.org/2000/svg" version="1.1" viewBox="0 0 300 300">
  <defs>
    <style>
      .cls-1 {
        fill: #68b337;
      }

      .cls-2 {
        fill: #3f7b32;
      }
    </style>
  </defs>
  <!-- Generator: Adobe Illustrator 28.6.0, SVG Export Plug-In . SVG Version: 1.2.0 Build 709)  -->
  <g>
    <g id="Layer_1">
      <g>
        <path class="cls-2" d="M200.8,92.2l-5.4,1.6c-3-4.9-6.4-9.5-10.1-13.8,9.2-4.1,18.5-7.8,28-11-10.6,1.6-20.9,4.2-31,7.7-2.6-2.8-5.3-5.4-8.2-7.8.3-.7.9-.9,1.4-1.2,9.1-5.4,18.8-10,28.7-13.6,4-1.5,8-3,12-4.2.5,0,1-.1,1.3-.5-.5-.2-.9-.3-1.2.1-11.4,1.7-22.5,4.7-33.1,9.1-1.7.7-3.4,1.5-5.1,2.3,0,0-.1-.1-.1-.2,1.3-1.9,2.8-3.7,4.4-5.3,6.3-6.8,13.3-13,20.9-18.3.8-.5,1.6-1,2.4-1.5.6,0,.9-.4,1.2-.8-.4-.2-.9-.1-1.1.2-5.3,2.3-10.4,5-15.2,8.1-11.1,7.5-20,17.9-25.8,30-5,10.5-8.5,21.6-10.4,33.1-2,11.7-3,23.5-3.1,35.3,0,.3,0,.7,0,1,1.4-7.9,2.7-15.7,4.4-23.6,4.2-3.3,8.6-6.3,13.1-9,2.9,9.3,4.8,18.9,5.6,28.7-3.7,1.6-7.5,3.1-11.4,4.3-3.8,1.3-7.6,2.3-11.5,3.1-.3.4-.5.9-.4,1.4-.1,5.4,0,10.9-.4,16.3-1.2,19.7-5.4,38.6-15.3,56-2.1,3.8-4.5,7.4-7.2,10.9-3.2-2.8-10.1-12-12.1-16.2.8-2.9,1.7-5.8,2.5-8.7,2.2-8.3,3.7-16.7,4.5-25.3,1.2-10.5,1.2-21.1,1.4-31.7.1-6.4.2-12.8.9-19.2,1.2-11.4,3.8-22.7,7.9-33.4,3.6-9.5,8.6-18.5,14.8-26.6,10.3-13.5,23.9-24.1,39.4-30.9,6.9-3.1,14.1-5.4,21.4-6.8,5.5-.9,11.1-1.5,16.7-1.8,2.5-.2,5-.2,7.5-.3.5,0,1.1,0,1.5.2,0,2.6,0,5.3,0,7.9-.2,6.6-.8,13.3-1.8,19.8-3.3,20.9-10.9,39.9-24.6,56.3-.8,1-1.7,1.9-2.8,3.1-2.4-7.7-5.6-15-9.6-22,1.5-.9,3.1-1.7,4.8-2.4.4,0,.7-.1.8-.6-.2-.2-.6-.2-.8,0,0,0,0,0,0,.1ZM202.7,91.7c0,0-.2-.1-.3-.1-.2,0-.2.2,0,.2,0,0,.2,0,.3,0Z"/>
        <path class="cls-1" d="M92.8,178.1c-1,.9-1.5,2.2-1.6,3.5-.4,1.6.3,3.2,1.7,4,.6.4,1.1.8,1.6,1.2,2,1.2,2.8,3.6,2.1,5.8-.5,1.8-1.2,3.5-1.6,5.4-.8,3.7.9,7.6,4.1,9.6,1.9,1,3.9,1.5,6,1.5,1.1,0,2.1.2,3.1.5,1.4,2.6,2.8,5.2,4.3,7.8,3.2,5.5,7.1,10.7,11.4,15.5,6.1,6.7,13.1,12.6,20.8,17.4,6.3,4,13,7.4,19.9,10.2,9.2,3.7,18.6,6.6,28.3,8.7,5.1,1.1,10.3,2,15.5,2.9,0,.4-.3.4-.6.3-6.7-.8-13.5-1.7-20.2-3-5.4-1-10.7-2.1-16-3.4-8.4-2-16.7-4.6-24.9-7.6-10.8-4-21.1-9.1-30.8-15.4-10-6.5-19-14.6-26.4-24-5.6-7.2-10.2-15.1-13.7-23.6-3.1-7.8-5.4-15.9-6.6-24.2-1.5-9.4-2-18.9-1.5-28.5.4-12.1,2.6-24,6.4-35.4,3.7-11.1,9.5-21.5,17-30.5,7.9-9.5,17.5-17.5,28.2-23.6,1.1-.8,2.3-1.4,3.5-1.8,3.1,1.7,6,3.6,8.8,5.8-1.2,1.3-2.5,2.5-3.9,3.6-3.7,3.4-7,7.1-9.9,11.1-3.8,5.1-7.7,10.1-11.3,15.3-6,8.6-10.5,18.1-13.3,28.2-.3,1.2-.5,2.4-.7,3.6-.3,1.5,0,3.1.7,4.5,1.8,3,2.5,6.1,1.1,9.5-.9,2-2.1,3.8-3.6,5.3-3.6,3.9-7.5,7.5-11.6,10.9-3.1,2.6-2.7,5.7.9,7.7,1.4.6,2.8,1.1,4.3,1.3,1.4.4,2.8.6,4.2,1,.9.2,1.7.6,2.3,1.2,1.1,2.4.6,5,.2,7.6-.2,1.1-.5,2.2-.9,3.2-.7,1.7-.3,3.6,1,4.9.6.7,1.3,1.2,2,1.9Z"/>
        <path class="cls-1" d="M151.1,248.6c-3-1.7-5.9-3.6-8.7-5.7,2.3-2.1,4.6-4.1,6.7-6.3,7.9-8,14.4-17.3,19-27.5,4.3-9.7,7.4-19.9,9-30.4,1.4-9,2.1-18.2,1.9-27.3,0-12.8-1.8-25.6-5.1-38-2.1-7.9-5.2-15.5-9-22.8-.2-.4-.4-.8-.6-1.4,2.1-5.8,4.3-11.8,7.8-17.2,1.5,1,2.9,2.2,4.1,3.6,4.5,4.5,8.6,9.4,12.2,14.6,5.1,7.5,9.2,15.5,12.1,24.1,2.9,8.4,4.8,17.1,5.7,26,.7,7.2.8,14.5.3,21.7-.4,6.6-1.3,13.1-2.7,19.5-2.9,13-8.4,25.3-16.3,36-5.6,7.7-12.3,14.5-19.9,20.3-4.7,3.7-9.7,7-14.9,9.9-.5.3-1.1.6-1.8.9Z"/>
        <path class="cls-1" d="M153.3,56.8c-2.9,2.8-5.5,5.5-8,8.3-1.5-1.2-3-2.5-4.4-3.9-5.1-4.3-10.6-8.2-16.4-11.5-8.2-4.7-16.9-8.5-25.8-11.4-7.7-2.5-15.5-4.5-23.4-6.1-3-.7-6.1-1.2-9.2-1.5-.4,0-.7-.2-1-.4,1.5-.3,3.1-.2,4.7.1,3.4.7,6.8,1,10.1,1.6,3,.5,6,1,9,1.6,5.7,1.1,11.4,2.3,17,3.8,5.9,1.6,11.8,3.3,17.6,5.4,8.9,3.1,17.5,7,25.7,11.5,1.3.7,2.7,1.6,4.3,2.5Z"/>
        <path class="cls-2" d="M67.6,267.6c0-.3,0-.5-.1-.8,0-.4,0-.8,0-1.2,14.2-5.4,26.3-13.7,35.7-26,3.2,2.4,6.3,4.8,9.8,7.1-13.2,10.5-28.8,17.6-45.4,20.9Z"/>
        <path class="cls-1" d="M142.6,47.7c-2.6-1.3-5.5-1.9-8.3-3.3,1.6-.9,3.4-1.6,5.1-2.3,6.1-2.4,12.3-4.6,18.7-6.3,6.5-1.8,13.1-3.3,19.7-4.4,5.6-1,11.3-1.7,16.9-2.4,4.2-.5,8.5-1,12.7-1.4.5-.1,1,0,1.4.3-23,4-45.3,9.2-66.2,19.9Z"/>
        <path class="cls-1" d="M126.2,253.8l6.9,3.4c-20.4,8-41.4,12.2-62.7,14.5,9.6-1.9,19.2-3.8,28.6-6.6,9.4-2.8,18.6-6.6,27.2-11.3Z"/>
        <path class="cls-2" d="M157.9,109.9c1.3-5.6,2.6-10.8,4.3-16.3,2,3.6,3.7,7.4,5.1,11.3-3.1,1.6-6.2,3.2-9.4,5Z"/>
        <path class="cls-1" d="M205.9,35.1c.3-.3.8-.4,1.1-.2-.3.5-.6.8-1.2.8v-.6Z"/>
        <path class="cls-1" d="M216.5,49.6c.3-.4.7-.3,1.2-.1-.3.4-.8.5-1.3.5v-.4Z"/>
        <path class="cls-1" d="M200.8,92.2c.1-.3.5-.4.8-.2,0,0,0,0,.1,0,0,.5-.4.5-.8.6v-.4Z"/>
        <path class="cls-2" d="M178.3,61c0,.2-.1.2-.3.2,0-.2,0-.3.2-.3,0,0,0,.1.1.2Z"/>
        <path class="cls-1" d="M202.7,91.7c0,0-.2.1-.3,0-.1,0-.1-.2,0-.2,0,0,.2,0,.3.1Z"/>
      </g>
    </g>
  </g>
</svg>