<svg id="Layer_1" data-name="Layer 1" xmlns="http://www.w3.org/2000/svg" viewBox="0 0 300 300"><title>Artboard 3</title><path d="M164.92459,65.21076h39.162c21.67423,0,17.01088,40.2219-7.949,40.2219H159.04233Z" fill="#188bcb" fill-rule="evenodd"/><path d="M159.6783,130.23351h37.0953c21.62126,0,16.95783,40.1689-7.949,40.1689h-38.5791l5.67032-40.1689Z" fill="#86c140" fill-rule="evenodd"/><path d="M142.77343,170.40241H105.67814c-21.67423,0-17.01088-40.22189,7.896-40.22189h35.29354l-5.29933,40.22189Z" fill="#86c140" fill-rule="evenodd"/><path d="M152.04718,105.43266h-37.0953c-21.67423,0-17.01087-40.2219,7.896-40.2219h35.29354l-5.29932,40.2219Z" fill="#188bcb" fill-rule="evenodd"/><path d="M149.71554,194.46136h37.09529c21.62127,0,16.95784,40.1689-7.949,40.1689H140.81271l5.72328-40.1689Z" fill="#ee8422" fill-rule="evenodd"/><path d="M132.96965,234.78924H95.87435c-21.62126,0-16.95783-40.1689,7.949-40.1689h35.92944l-5.56423,40.1689Z" fill="#ee8422" fill-rule="evenodd"/></svg>