<svg id="Layer_1" data-name="Layer 1" xmlns="http://www.w3.org/2000/svg" xmlns:xlink="http://www.w3.org/1999/xlink" viewBox="0 0 300 300"><defs><style>.cls-1{fill:#f5e0d7;}.cls-1,.cls-2,.cls-3,.cls-5,.cls-6,.cls-7{fill-rule:evenodd;}.cls-2{fill:url(#linear-gradient);}.cls-3{fill:#9e1b37;}.cls-4{fill:none;}.cls-5{fill:url(#linear-gradient-2);}.cls-6{fill:url(#linear-gradient-3);}.cls-7{fill:url(#linear-gradient-4);}</style><linearGradient id="linear-gradient" x1="-628.59" y1="299.56" x2="-629.63" y2="299.56" gradientTransform="matrix(70.77, 0, 0, -88.46, 44583.61, 26690.75)" gradientUnits="userSpaceOnUse"><stop offset="0" stop-color="#a6273b"/><stop offset="0.48" stop-color="#da9090"/><stop offset="1" stop-color="#fae6e6"/></linearGradient><linearGradient id="linear-gradient-2" x1="-628.55" y1="299.56" x2="-629.59" y2="299.56" gradientTransform="matrix(70.77, 0, 0, -88.46, 44653.19, 26690.75)" gradientUnits="userSpaceOnUse"><stop offset="0" stop-color="#a6273b"/><stop offset="0.47" stop-color="#da9090"/><stop offset="1" stop-color="#fae6e6"/></linearGradient><linearGradient id="linear-gradient-3" x1="-628.53" y1="299.59" x2="-629.57" y2="299.59" gradientTransform="matrix(70.77, 0, 0, -88.46, 44687.29, 26629.1)" xlink:href="#linear-gradient"/><linearGradient id="linear-gradient-4" x1="-628.49" y1="299.59" x2="-629.53" y2="299.59" gradientTransform="matrix(70.77, 0, 0, -88.46, 44760.72, 26629.1)" xlink:href="#linear-gradient"/></defs><g id="logo-_-white" data-name="logo-/-white"><g id="Corcept_newlogocolor" data-name="Corcept newlogocolor"><g id="Group-8"><polyline id="Fill-5" class="cls-1" points="61.66 144.97 24.89 172.56 24.89 209.34 61.66 236.92 98.44 209.34 98.44 172.56 61.66 144.97"/><polyline id="Fill-7" class="cls-2" points="61.66 144.97 24.89 172.56 24.89 209.34 61.66 236.92 98.44 209.34 98.44 172.56 61.66 144.97"/></g><path id="Fill-9" class="cls-3" d="M61.35,144.56l-37,27.74v37.3l37.29,28,37.3-28V172.3l-37.3-28Zm.31,1.06,36.26,27.2v36.26L61.66,236.27,25.4,209.08V172.82Z"/><g id="Group-14"><polyline id="Fill-10" class="cls-1" points="134.66 144.97 97.88 172.56 97.88 209.34 134.66 236.92 171.44 209.34 171.44 172.56 134.66 144.97"/><polyline id="Fill-12" class="cls-4" points="134.66 144.97 97.88 172.56 97.88 209.34 134.66 236.92 171.44 209.34 171.44 172.56 134.66 144.97"/><polyline id="Fill-13" class="cls-5" points="134.66 144.97 97.88 172.56 97.88 209.34 134.66 236.92 171.44 209.34 171.44 172.56 134.66 144.97"/></g><path id="Fill-15" class="cls-3" d="M134.35,144.56l-37,27.74v37.3l37.3,28,37.3-28V172.3l-37.3-28Zm.31,1.06,36.26,27.2v36.26l-36.26,27.19L98.4,209.08V172.82Z"/><g id="Group-19"><polyline id="Fill-16" class="cls-1" points="171.43 80.59 134.65 108.17 134.65 144.96 171.43 172.54 208.21 144.96 208.21 108.17 171.43 80.59"/><polyline id="Fill-18" class="cls-6" points="171.43 80.59 134.65 108.17 134.65 144.96 171.43 172.54 208.21 144.96 208.21 108.17 171.43 80.59"/></g><path id="Fill-20" class="cls-3" d="M171.12,80.17l-37,27.74v37.3l37.3,28,37.3-28v-37.3l-37.3-28Zm.31,1.07,36.26,27.19v36.26l-36.26,27.2-36.26-27.2V108.43Z"/><g id="Group-24"><polyline id="Fill-21" class="cls-1" points="244.42 80.59 207.65 108.17 207.65 144.96 244.42 172.54 281.21 144.96 281.21 108.17 244.42 80.59"/><polyline id="Fill-23" class="cls-7" points="244.42 80.59 207.65 108.17 207.65 144.96 244.42 172.54 281.21 144.96 281.21 108.17 244.42 80.59"/></g><path id="Fill-25" class="cls-3" d="M244.11,80.17l-37,27.74v37.3l37.3,28,37.31-28v-37.3l-37.31-28Zm.31,1.07,36.27,27.19v36.26l-36.27,27.2-36.26-27.2V108.43Z"/><polyline id="Fill-26" class="cls-3" points="61.91 224.44 62.54 225.27 87.61 206.46 86.99 205.63 61.91 224.44"/></g></g></svg>