<svg id="Layer_1" data-name="Layer 1" xmlns="http://www.w3.org/2000/svg" viewBox="0 0 300 300"><path d="M50.00164,104.66216c-.06975-5.68531,2.08088-15.28481,6.15979-24.52395,6.96925-15.78605,19.23784-24.127,36.25621-25.59039,18.00436-1.54819,33.03422,4.39814,44.47469,18.55244,7.41283,9.17126,9.06387,19.293,4.45468,30.2798-2.62169,6.24927-5.66033,12.35275-6.71821,19.14961a38.97237,38.97237,0,0,0,4.21892,25.01622c3.87395,7.22579,9.94387,11.86821,17.708,14.38457A83.48309,83.48309,0,0,1,169.01,166.91387c14.7556,7.56772,21.68668,21.7272,17.68487,37.81571-4.7168,18.96306-16.62575,31.38563-35.85773,36.08992a34.79954,34.79954,0,0,1-28.143-4.84064c-36.41752-23.45537-57.64028-57.38349-68.49842-98.43441A125.60923,125.60923,0,0,1,50.00164,104.66216Z" fill="#171963"/><path d="M143.60954,244.77916c3.83122-.55535,7.64471.09474,11.39516-.61194,21.26616-4.00713,38.59917-22.67373,40.8524-44.065,1.77553-16.85613-9.90727-35.235-26.80667-42.08262a75.47613,75.47613,0,0,0-8.43782-2.99418c-10.6384-2.89791-15.69372-10.38857-17.55836-20.66731a31.30482,31.30482,0,0,1,2.1325-17.96223c4.10775-9.9429,7.64458-20.11753,12.586-29.71693a81.31874,81.31874,0,0,1,16.9751-22.56815c11.796-10.97112,31.57328-13.43382,47.64657-6.091,14.7117,6.7208,22.26781,18.65979,25.68235,33.925,4.23394,18.92845,1.30051,36.81108-7.06006,54.07938-7.90525,16.32791-18.04892,31.29715-28.00791,46.386-8.96137,13.57738-17.82424,27.25443-29.01821,39.15165-10.54141,11.20365-23.44477,16.51316-39.05037,13.99885a3.60246,3.60246,0,0,1-.91674-.29465C143.88752,245.20356,143.80745,245.02041,143.60954,244.77916Z" fill="#0191b0"/></svg>