<svg id="Layer_1" data-name="Layer 1" xmlns="http://www.w3.org/2000/svg" xmlns:xlink="http://www.w3.org/1999/xlink" viewBox="0 0 300 300"><defs><linearGradient id="linear-gradient" x1="690.8638" y1="8736.05256" x2="902.40645" y2="8878.84386" gradientTransform="matrix(0.98657, -0.16333, -0.16333, -0.98657, 790.99163, 8967.81811)" gradientUnits="userSpaceOnUse"><stop offset="0.23" stop-color="#7fbe4a"/><stop offset="0.32" stop-color="#7cbd4d"/><stop offset="0.44" stop-color="#75bb5a"/><stop offset="0.58" stop-color="#6ab872"/><stop offset="0.74" stop-color="#5db297"/><stop offset="0.91" stop-color="#51acc9"/><stop offset="1" stop-color="#4da9e7"/></linearGradient><linearGradient id="linear-gradient-2" x1="794.88538" y1="8848.96423" x2="901.47032" y2="8877.33943" gradientTransform="matrix(0.98657, -0.16333, -0.16333, -0.98657, 790.99163, 8967.81811)" gradientUnits="userSpaceOnUse"><stop offset="0.23" stop-color="#2a629a"/><stop offset="0.38" stop-color="#2d68a1"/><stop offset="0.6" stop-color="#367ab4"/><stop offset="0.86" stop-color="#4497d3"/><stop offset="1" stop-color="#4da9e7"/></linearGradient></defs><path d="M98.23985,141.21615C156.51579,51.51393,240.62433,39.51295,260.965,70.02391c16.67932,25.4258-3.66132,74.14163-35.08761,106.68665C164.85544,239.97,90.10358,252.68286,57.15174,236.20693a59.08956,59.08956,0,0,1-31.62968-60.4117c3.86472-45.86814,47.6988-80.24381,84.41366-99.46572C82.781,96.67015,63.35566,115.18013,52.0666,148.43708c-5.59368,16.37421-2.13577,45.76644,18.00147,55.93676,41.3932,20.34064,107.602-12.30609,141.57084-41.90172,40.68128-35.49441,56.24188-67.12411,44.03749-86.85453S171.873,62.803,98.23985,141.21615Z" fill="url(#linear-gradient)"/><path d="M98.23985,141.21615c62.24236-66.20878,123.56938-80.65064,147.87646-72.61608a83.39422,83.39422,0,0,1,10.17032-4.27154C229.64038,41.64872,152.54936,57.61612,98.23985,141.21615Z" fill="url(#linear-gradient-2)"/><path d="M218.75814,159.21762a126.51875,126.51875,0,0,0-80.34552-35.49441h0l-6.81412,6.30559-6.30559,5.59368-.71192.71192h2.64427a137.401,137.401,0,0,1,82.07448,33.05354,267.47931,267.47931,0,0,1,64.98834,75.66718H275A257.71583,257.71583,0,0,0,218.75814,159.21762Z" fill="#2a629a"/></svg>