<svg id="Layer_1" data-name="Layer 1" xmlns="http://www.w3.org/2000/svg" viewBox="0 0 300 300"><path id="Layer" d="M149.15464,29.56618a8.87264,8.87264,0,0,1,7.51774,2.00473,9.121,9.121,0,0,1-2.85675,15.58677,9.12655,9.12655,0,1,1-4.661-17.5915ZM169.70312,31.17a9.409,9.409,0,1,1,.80191,18.59387,9.34147,9.34147,0,0,1-6.26478-3.3078A9.46389,9.46389,0,0,1,169.70312,31.17Zm-41.39765.60142A8.86314,8.86314,0,0,1,138.78019,38.387a8.95909,8.95909,0,0,1-5.513,10.37448,8.87429,8.87429,0,1,1-4.96171-16.99009Zm61.2946,5.36265a9.7072,9.7072,0,1,1-6.71582,5.26242A9.69436,9.69436,0,0,1,189.6001,37.134Zm-81.24166.60142A8.6605,8.6605,0,0,1,118.783,43.499a8.60745,8.60745,0,0,1-12.67994,9.92341,8.62171,8.62171,0,0,1,2.25532-15.687Zm100.83792,8.97117a9.65919,9.65919,0,1,1-8.47,9.27187A9.62975,9.62975,0,0,1,209.19633,46.70662Zm-119.48188.20047a8.34446,8.34446,0,0,1,8.921,13.08086,8.25153,8.25153,0,0,1-8.01892,3.15746,8.34661,8.34661,0,0,1-.90212-16.23832ZM74.57873,59.03571a8.01465,8.01465,0,0,1,8.069,3.95934,8.0603,8.0603,0,1,1-8.06905-3.95934Zm151.70794.05012a10.06353,10.06353,0,0,1,8.069,2.30543,9.82649,9.82649,0,0,1,3.408,7.86857,9.91883,9.91883,0,0,1-15.38631,7.91868,9.90945,9.90945,0,0,1,3.90925-18.09268ZM60.295,74.1213a8.06506,8.06506,0,0,1,7.36739,13.38157A8.07135,8.07135,0,1,1,60.295,74.1213Zm184.2848,11.07613A2.55414,2.55414,0,1,1,243.377,89.658a2.54981,2.54981,0,0,1,1.20282-4.46052ZM48.31677,91.91328a7.80392,7.80392,0,1,1-5.91394,7.71821A7.7869,7.7869,0,0,1,48.31677,91.91328Zm102.09086,5.06194a4.41787,4.41787,0,1,1-2.80664,3.10734,4.48743,4.48743,0,0,1,2.80661-3.10733Zm-9.47236.90213a4.30738,4.30738,0,0,1,5.06193,2.25532,4.26448,4.26448,0,1,1-5.06193-2.25532Zm19.59622,0a4.48072,4.48072,0,0,1,5.513,3.05722,4.40512,4.40512,0,0,1-3.25769,5.46288,4.34989,4.34989,0,0,1-5.36266-3.5584A4.47631,4.47631,0,0,1,160.53149,97.87735Zm91.66629-.05012a3.33673,3.33673,0,0,1,4.20994,3.60851,3.3246,3.3246,0,1,1-4.20991-3.60851Zm-81.84309,2.35556a4.56292,4.56292,0,1,1-3.3579,3.60851,4.60169,4.60169,0,0,1,3.3579-3.60851Zm-38.591.25059a4.24205,4.24205,0,1,1-2.90686,2.105A4.27189,4.27189,0,0,1,131.76364,100.43338Zm47.41184,4.4104a4.782,4.782,0,0,1,6.11444,4.00946,4.73033,4.73033,0,1,1-9.42223.2506A4.77608,4.77608,0,0,1,179.17548,104.84378Zm-56.58351.2506a4.079,4.079,0,1,1-2.80664,2.30544,3.96493,3.96493,0,0,1,2.80661-2.30544Zm-80.89084,5.513a7.72707,7.72707,0,0,1,8.62033,8.97117,7.77728,7.77728,0,0,1-3.65863,5.41277,7.9188,7.9188,0,0,1-8.01892,0,7.76367,7.76367,0,0,1,3.05722-14.38394Zm72.67147.55131a3.97916,3.97916,0,0,1,5.31252,3.35792,3.91532,3.91532,0,1,1-7.51774-1.20284,3.74454,3.74454,0,0,1,2.20522-2.15509Zm73.02229-.05012a4.83729,4.83729,0,0,1,6.16454,4.00945,4.7514,4.7514,0,1,1-9.47233.65154A4.843,4.843,0,0,1,187.39489,111.10857Zm72.72159,1.35319a3.78721,3.78721,0,1,1-2.30545,5.76359,3.81179,3.81179,0,0,1,2.30545-5.76359Zm-152.7103,5.96406a3.94295,3.94295,0,1,1,1.50355,7.618,4.01077,4.01077,0,0,1-4.00946-3.95934A3.96656,3.96656,0,0,1,107.40618,118.42582Zm87.25589.35083a4.97444,4.97444,0,1,1-3.35793,5.61324,4.88293,4.88293,0,0,1,3.35793-5.61325ZM102.04355,126.996a3.766,3.766,0,1,1-2.35559,4.26005,3.88141,3.88141,0,0,1,2.35556-4.26005Zm-65.45443,4.05958a7.67637,7.67637,0,0,1,6.21466,1.50355,7.526,7.526,0,1,1-6.21467-1.50355Zm226.98553,0a3.74953,3.74953,0,0,1,4.91159,3.408,3.7523,3.7523,0,1,1-7.46763-.25059,3.72919,3.72919,0,0,1,2.556-3.15745ZM98.58538,136.11757a3.62015,3.62015,0,1,1-1.00236,6.46525C95.12721,141.07927,95.72864,136.81922,98.58538,136.11757Zm-1.90449,9.87329a3.45793,3.45793,0,0,1,3.35793,1.05249,3.45669,3.45669,0,1,1-3.35789-1.05249Zm168.79825,3.809a3.75485,3.75485,0,1,1-2.957,4.20994,3.668,3.668,0,0,1,2.957-4.20993ZM35.687,152.05517a7.5815,7.5815,0,0,1,5.01183.65154,7.29385,7.29385,0,1,1-5.01183-.65155Zm170.402,2.15509a1.78942,1.78942,0,0,1,2.35556,1.75414,1.80662,1.80662,0,1,1-2.35556-1.75414ZM95.72864,156.06463a3.47568,3.47568,0,0,1,4.661,2.05484,3.38609,3.38609,0,0,1-2.85675,4.51065,3.44108,3.44108,0,0,1-1.80427-6.5655Zm109.05729,8.16928a1.78313,1.78313,0,0,1,2.60615,1.25295,1.8076,1.8076,0,0,1-2.7565,1.85438A1.83068,1.83068,0,0,1,204.78593,164.23391ZM97.583,165.8377a3.28261,3.28261,0,1,1-.90216,5.76359c-2.105-1.4033-1.55365-5.11206.90213-5.76359Zm163.48572,2.957a3.75925,3.75925,0,0,1,4.96172,2.25532,3.83739,3.83739,0,0,1-2.90685,4.9617,3.77122,3.77122,0,0,1-2.05484-7.217Zm-222.2243,3.75887a6.97854,6.97854,0,0,1,8.62035,8.67045,6.98567,6.98567,0,0,1-13.68228-2.2052,7.0149,7.0149,0,0,1,5.062-6.46525ZM202.28,173.80649a1.979,1.979,0,1,1-.20045,3.40805,1.98683,1.98683,0,0,1,.20045-3.40805Zm-101.18875,1.55367a3.27055,3.27055,0,1,1-1.704,5.26242A3.2742,3.2742,0,0,1,101.09126,175.36016Zm96.77832,7.01656a2.11782,2.11782,0,1,1-.0501,3.85911A2.10132,2.10132,0,0,1,197.86958,182.37672Zm-91.71639,1.55367a3.23975,3.23975,0,0,1,3.90922,2.50591,3.2004,3.2004,0,0,1-2.80661,3.90922,3.24309,3.24309,0,0,1-3.65862-3.35793,3.2106,3.2106,0,0,1,2.556-3.05722ZM256.558,188.39091a4.04069,4.04069,0,1,1-1.95463,7.41751,4.126,4.126,0,0,1-.90212-5.96407,4.17967,4.17967,0,0,1,2.85675-1.45343ZM192.106,190.19517a2.14613,2.14613,0,0,1,2.7565,2.40567,2.10936,2.10936,0,0,1-3.25769,1.4033,2.17582,2.17582,0,0,1,.50119-3.809ZM45.46,191.84906a6.963,6.963,0,0,1,8.72057,6.46525,6.96172,6.96172,0,0,1-10.02365,6.5655,6.99538,6.99538,0,0,1-2.957-2.70639,7.11975,7.11975,0,0,1,.60143-8.01891A7.27613,7.27613,0,0,1,45.46,191.84906Zm66.70738.05012a3.10634,3.10634,0,0,1,3.809,3.75887,3.16935,3.16935,0,0,1-5.06193,1.60379A3.12662,3.12662,0,0,1,112.16738,191.89918Zm72.97216,5.26242a2.11635,2.11635,0,1,1-1.05247,3.15744A2.1188,2.1188,0,0,1,185.13954,197.1616Zm-65.10362.95224a2.93472,2.93472,0,1,1-1.50354,4.81136A2.93931,2.93931,0,0,1,120.03592,198.11384Zm56.33292,4.46052a2.28032,2.28032,0,1,1-.30072,3.85912,2.32347,2.32347,0,0,1,.30069-3.85912Zm-48.11351.60143a2.93906,2.93906,0,1,1-1.30306,4.56076A2.92875,2.92875,0,0,1,128.25533,203.17579Zm39.19247,2.85675a2.45538,2.45538,0,1,1-.95226,4.26A2.43971,2.43971,0,0,1,167.4478,206.03254Zm-29.36928.35083c2.20522-.70165,4.26005,2.05485,3.0572,4.00946-.852,2.00473-4.20994,1.85438-4.96171-.15035a2.75619,2.75619,0,0,1,1.90448-3.85911Zm108.45587.45106a4.00591,4.00591,0,0,1,5.16217,3.5584,4.02042,4.02042,0,1,1-7.71822-1.20285,3.87016,3.87016,0,0,1,2.556-2.35556Zm-88.80954,1.20284a2.46312,2.46312,0,1,1-.80188,4.26005A2.48707,2.48707,0,0,1,157.72485,208.03727Zm-10.47472.20047a2.61131,2.61131,0,1,1-.2506,4.51064A2.62811,2.62811,0,0,1,147.25013,208.23774Zm-91.66627,1.90448a6.4888,6.4888,0,0,1,7.66808,3.45816,6.41414,6.41414,0,0,1-7.41751,8.97118,6.42231,6.42231,0,0,1-3.85911-2.70639,6.54317,6.54317,0,0,1-.35083-6.365,6.44,6.44,0,0,1,3.95934-3.35793Zm178.62142,12.78016a4.56347,4.56347,0,1,1,1.10261,8.97116,4.52079,4.52079,0,0,1-4.51064-4.76124A4.59282,4.59282,0,0,1,234.20528,222.92238Zm-165.6408,3.408a6.17185,6.17185,0,1,1-3.30781,9.02128A6.19811,6.19811,0,0,1,68.56448,226.33041Zm150.10415,10.7253a4.57777,4.57777,0,1,1-2.75654,5.41277,4.6163,4.6163,0,0,1,2.75654-5.41277Zm-134.01618,2.556a6.24469,6.24469,0,0,1,7.1168,3.35792,6.36566,6.36566,0,0,1-.50118,6.06431,6.1711,6.1711,0,1,1-6.61562-9.42222ZM202.28,247.58054a5.11627,5.11627,0,0,1,5.96409,4.51065,5.17158,5.17158,0,0,1-5.4629,5.61325,5.10707,5.10707,0,0,1-4.661-5.86385A4.99812,4.99812,0,0,1,202.28,247.58054Zm-99.28426,2.15508a5.92425,5.92425,0,1,1-4.76123,6.16454A5.87443,5.87443,0,0,1,102.99572,249.73562Zm79.98871,5.41277a5.34029,5.34029,0,0,1,6.46526,4.86147,5.38416,5.38416,0,1,1-6.46526-4.86147Zm-60.39249,1.55366a5.66252,5.66252,0,1,1-4.4104,6.66573A5.67212,5.67212,0,0,1,122.59194,256.70205Zm40.14471,2.80663a5.39124,5.39124,0,1,1-3.75887,4.10969,5.25911,5.25911,0,0,1,3.75887-4.10971Zm-20.84918.70165a5.37358,5.37358,0,1,1-3.408,5.2123A5.27771,5.27771,0,0,1,141.88747,260.21033Z" fill="#074578"/><path id="Layer-2" data-name="Layer" d="M149.45537,61.79221a7.14436,7.14436,0,0,1,5.36266.70166,7.01251,7.01251,0,0,1,3.30779,7.06667,6.93139,6.93139,0,0,1-5.06193,5.66336,6.90943,6.90943,0,0,1-8.16927-9.42223A6.88684,6.88684,0,0,1,149.45537,61.79221ZM133.66812,63.396a6.968,6.968,0,0,1,4.36027,13.23122,7.16029,7.16029,0,0,1-7.46763-1.85437,7.04611,7.04611,0,0,1-1.75414-5.2123,6.86538,6.86538,0,0,1,4.86147-6.16455Zm30.97307,0a6.7002,6.7002,0,1,1-4.71112,6.46526A6.51593,6.51593,0,0,1,164.64119,63.396Zm-46.10878,3.5584a7.57914,7.57914,0,0,1,5.513.75177A7.22159,7.22159,0,0,1,125.549,78.98277a7.18177,7.18177,0,0,1-12.17873-6.51538A7.38939,7.38939,0,0,1,118.53241,66.95439Zm61.29461.5513a6.69584,6.69584,0,1,1-4.86148,6.21466A6.69716,6.69716,0,0,1,179.827,67.50569Zm-74.97689,6.6156a7.56258,7.56258,0,0,1,5.914,1.50355,7.48614,7.48614,0,0,1,2.80661,5.36265,7.25471,7.25471,0,0,1-2.45581,6.01419,7.41,7.41,0,0,1-7.26714,1.55367,7.09562,7.09562,0,0,1-4.4104-3.809,7.45272,7.45272,0,0,1,5.41276-10.62507Zm89.46107.60142a6.42785,6.42785,0,1,1-4.7111,5.01182,6.35872,6.35872,0,0,1,4.71113-5.01182ZM91.6189,84.0447a7.76617,7.76617,0,0,1,4.76124.60142,7.5074,7.5074,0,0,1,4.1598,7.71821,7.45611,7.45611,0,0,1-13.983,2.4558,7.6503,7.6503,0,0,1-.60142-5.46289A7.45445,7.45445,0,0,1,91.6189,84.0447Zm115.07148,0a6.16054,6.16054,0,0,1,5.56312,10.575,6.13557,6.13557,0,0,1-5.81371,1.35319,6.21392,6.21392,0,0,1-4.20994-4.05958,6.13744,6.13744,0,0,1,4.46053-7.86857ZM217.7665,95.42155a6.13875,6.13875,0,0,1,7.36739,5.81371,6.15005,6.15005,0,1,1-11.2766-3.15745A6.31543,6.31543,0,0,1,217.7665,95.42155ZM79.89122,96.023a7.8523,7.8523,0,0,1,7.4175,13.03075,7.99564,7.99564,0,0,1-10.67518.70165,7.883,7.883,0,0,1-2.80663-7.26715A7.7967,7.7967,0,0,1,79.89122,96.023ZM226.2365,108.90335a6.68336,6.68336,0,0,1,4.05957.5513,5.94737,5.94737,0,0,1-1.3532,11.026,5.94472,5.94472,0,0,1-2.70637-11.57731ZM72.02265,120.98185a2.45262,2.45262,0,0,1,2.70638,3.25769c-.5513,2.05485-3.809,2.15508-4.56076.25059A2.43154,2.43154,0,0,1,72.02265,120.98185Zm160.228,2.50591a5.59368,5.59368,0,0,1,5.11207,1.30308,5.66777,5.66777,0,0,1-3.95936,9.87329,5.68334,5.68334,0,0,1-5.513-5.61324A5.5996,5.5996,0,0,1,232.25069,123.48776ZM66.05858,135.56626a2.55718,2.55718,0,1,1-.20047,4.56076,2.5526,2.5526,0,0,1,.20047-4.56076ZM235.759,139.02442a5.412,5.412,0,0,1,3.55838,10.12389,5.40767,5.40767,0,1,1-3.55838-10.12389ZM64.45481,151.95493a2.822,2.822,0,1,1-1.253,4.81135,2.8223,2.8223,0,0,1,1.253-4.81135Zm171.00346,2.90686a5.40814,5.40814,0,0,1,5.26242,9.322,5.40735,5.40735,0,1,1-5.26242-9.322ZM66.0586,167.49159a2.76877,2.76877,0,0,1,3.408,2.70638c.30071,2.15508-2.45579,3.70875-4.20993,2.50592C63.0515,171.6514,63.65291,167.89253,66.0586,167.49159Zm167.49518,2.80663a5.14071,5.14071,0,1,1-3.60852,4.9617A5.12115,5.12115,0,0,1,233.55378,170.29822ZM69.46665,182.67743a3.323,3.323,0,0,1,3.05721.50118,3.10674,3.10674,0,1,1-4.91158,3.35793,3.21908,3.21908,0,0,1,1.85438-3.85911Zm159.3259,2.556a5.16614,5.16614,0,0,1,6.11443,6.41513,5.22462,5.22462,0,0,1-5.26242,3.75887,5.15326,5.15326,0,0,1-.852-10.174ZM76.43308,196.20936a3.35688,3.35688,0,0,1,4.36029,4.05958c-.45107,2.35556-3.75886,3.20756-5.46288,1.60379-1.80426-1.55367-1.253-4.96171,1.10261-5.66336Zm144.44079,2.556a5.16421,5.16421,0,1,1-1.00236,9.67282,5.32227,5.32227,0,0,1-2.45581-6.86621,5.41946,5.41946,0,0,1,3.45817-2.80663Zm-134.91832,9.8733a3.347,3.347,0,0,1,3.30779.8019,3.42608,3.42608,0,0,1-.852,5.41276,3.351,3.351,0,1,1-2.4558-6.21467Zm125.19537,2.60616a4.92053,4.92053,0,1,1-3.50828,4.56074,4.93359,4.93359,0,0,1,3.50828-4.56074ZM96.68083,219.6146a3.32192,3.32192,0,0,1,4.46054,3.5584,3.36511,3.36511,0,0,1-5.16217,2.35556c-2.25532-1.30308-1.80425-5.21229.70166-5.91395Zm101.84029,1.704a4.62923,4.62923,0,0,1,6.365,3.60852,4.553,4.553,0,0,1-3.85911,5.21229,4.32335,4.32335,0,0,1-4.31016-1.704A4.60708,4.60708,0,0,1,198.52112,221.31862Zm-88.60906,6.56549a3.59034,3.59034,0,1,1,0,6.81607,3.63281,3.63281,0,0,1-2.25532-4.661A3.68755,3.68755,0,0,1,109.91206,227.88411Zm75.879.95224a4.66192,4.66192,0,0,1,5.66336,4.31018,4.622,4.622,0,1,1-5.66339-4.31018Zm-60.99391,4.71111a3.86517,3.86517,0,1,1,.50118,7.56786,3.908,3.908,0,0,1-3.25769-4.56076A3.771,3.771,0,0,1,124.79719,233.54746Zm45.80809.60143a4.42026,4.42026,0,0,1,5.7636,3.5584,4.35144,4.35144,0,1,1-5.7636-3.5584ZM139.63221,236.755a3.8411,3.8411,0,1,1-2.15508,5.36265,3.82454,3.82454,0,0,1,2.15508-5.36265Zm15.83735-.05012A4.13364,4.13364,0,1,1,153.114,242.669a4.21975,4.21975,0,0,1,2.35556-5.96407Z" fill="#43c0b9"/><path id="Layer-3" data-name="Layer" d="M149.75607,121.23245a5.79785,5.79785,0,0,1,4.81134.70165,5.71112,5.71112,0,0,1,2.40567,5.86384,5.60851,5.60851,0,0,1-6.61562,4.4104,5.66738,5.66738,0,0,1-.60139-10.97589Zm14.53429,2.90686a5.61321,5.61321,0,0,1,4.91158,1.20283,5.42193,5.42193,0,1,1-7.31728.10024,5.37553,5.37553,0,0,1,2.40567-1.30308Zm-27.76552.60142a5.893,5.893,0,0,1,7.06666,3.05721,5.99347,5.99347,0,0,1-.80188,6.41514,5.88975,5.88975,0,0,1-6.365,1.75414,5.75053,5.75053,0,0,1-4.00946-5.36265,5.8833,5.8833,0,0,1,4.1097-5.86384Zm38.54094,8.31963a5.16553,5.16553,0,0,1,4.661,1.00236,4.91856,4.91856,0,1,1-4.661-1.00235Zm-49.61706.5513a6.19329,6.19329,0,0,1,7.71822,7.11679,6.11281,6.11281,0,0,1-5.96408,4.96171,6.17988,6.17988,0,0,1-6.11443-4.71112,6.29021,6.29021,0,0,1,4.36026-7.36738Zm56.58351,12.37921c2.7064-.8019,5.914,1.35319,5.81371,4.26005a4.41,4.41,0,0,1-3.20758,4.661,4.62917,4.62917,0,0,1-6.0643-4.1097A4.52245,4.52245,0,0,1,182.03223,145.99087Zm.3007,14.48417a4.06871,4.06871,0,0,1,4.71113,1.4033,4.32548,4.32548,0,0,1-.70167,5.7636c-2.05484,1.75414-5.7636.90212-6.51537-1.75414A4.06353,4.06353,0,0,1,182.33293,160.475Zm-5.71349,13.33145A3.64369,3.64369,0,0,1,181.08,175.7611a3.6878,3.6878,0,0,1-1.90449,4.96171,3.78416,3.78416,0,0,1-4.96171-2.15508,6.27311,6.27311,0,0,1,0-2.556A3.63486,3.63486,0,0,1,176.61944,173.80649Zm-49.26623,2.50592a2.46571,2.46571,0,0,1,3.35792,3.00709,2.42754,2.42754,0,0,1-3.35792,1.45343C125.49883,180.07127,125.39858,176.96394,127.35321,176.31241Zm38.29035,7.01655a3.52246,3.52246,0,0,1,4.86147,2.70638,3.411,3.411,0,0,1-3.15744,3.85911,3.33412,3.33412,0,0,1-3.70876-3.55839A3.42186,3.42186,0,0,1,165.64356,183.329Zm-27.26434.852a2.97992,2.97992,0,0,1,3.85911,3.10733,3.033,3.033,0,0,1-4.81134,2.05486,2.98182,2.98182,0,0,1,.95226-5.16218Zm13.93287,2.556a3.12488,3.12488,0,0,1,3.85911,1.30308,3.351,3.351,0,0,1-1.40331,4.61088,3.3119,3.3119,0,0,1-3.70876-.80189A3.18581,3.18581,0,0,1,152.31209,186.737Z" fill="#ffab51"/></svg>