<?xml version="1.0" encoding="UTF-8"?>
<svg xmlns="http://www.w3.org/2000/svg" version="1.1" viewBox="0 0 300 300">
  <defs>
    <style>
      .cls-1 {
        fill: #065fa8;
      }
    </style>
  </defs>
  <!-- Generator: Adobe Illustrator 28.6.0, SVG Export Plug-In . SVG Version: 1.2.0 Build 709)  -->
  <g>
    <g id="Layer_1">
      <g>
        <path class="cls-1" d="M172.4,152.7c.4-1,.8-2.1,1.2-3.1,1.1-2.9,2.3-5.7,3.4-8.6.1-.4.3-.7.6-1,.5-.7,1.5-.9,2.2-.4.3.2.5.4.6.7.2.5.4,1,.5,1.5.7,3.3,1.3,6.7,2,10,.6,2.8,1.1,5.6,1.7,8.4,0,0,0,.1,0,.2h-4c-.7-3.8-1.4-7.7-2.2-11.5h-.1c0,.1-.1.3-.2.4-1.3,3.1-2.5,6.2-3.8,9.2-.2.4-.3.8-.6,1.2-.4.9-1.4,1.2-2.3.8-.4-.2-.7-.5-.8-.9-.2-.4-.5-.9-.6-1.3-1.2-3-2.5-6.1-3.7-9.2,0-.1-.2-.3-.3-.3-.7,3.8-1.4,7.6-2.2,11.5h-4c.2-1.2.5-2.3.7-3.5,1-5.1,2-10.2,3.1-15.3,0-.4.2-.9.4-1.3.4-.9,1.4-1.2,2.3-.8.2.1.5.3.6.5.4.4.6.9.8,1.4,1.5,3.7,3,7.4,4.4,11.1,0,0,0,.2.1.3h.1Z"/>
        <path class="cls-1" d="M53.8,160.4h-5.8l-3.8-5.5h-4v-4.4h.6c1.6,0,3.3,0,4.9,0,1.2.1,2.3-.8,2.4-2,0,0,0,0,0,0,.1-.6,0-1.3,0-1.9-.2-1-1.2-1.8-2.2-1.7-2.1,0-4.2,0-6.2,0h-1.5v15.6h-4v-20.8h.7c3.7,0,7.4,0,11.1,0,2.6-.2,5,1.5,5.7,4,.9,2.5.9,5.2,0,7.6-.4,1.2-1.2,2.2-2.3,2.8,0,0-.1,0-.2.1,0,0,0,0,0,0l4.8,6.1Z"/>
        <path class="cls-1" d="M203.2,160.4v-20.7c.2,0,.5,0,.7,0,2.9,0,5.8,0,8.8,0,3-.1,5.7,1.6,7,4.2.8,1.4,1.2,3,1.3,4.5.3,2.4-.1,4.9-1.1,7.1-.8,1.8-2.1,3.3-3.8,4.2-.9.5-1.9.7-2.9.7-3.2,0-6.4,0-9.5,0-.1,0-.2,0-.4,0ZM207.2,155.1c.2,0,.4,0,.6,0,1.6,0,3.3,0,4.9,0,1.5,0,3-.8,3.6-2.2.9-1.7.9-3.6.2-5.3-.5-1.8-2.3-3-4.1-2.8-1.5,0-3,0-4.6,0-.2,0-.4,0-.6,0v10.3Z"/>
        <path class="cls-1" d="M136.9,139.6h14.9v5.2h-10.8v10.3h10.8v5.2h-14.9v-20.7Z"/>
        <path class="cls-1" d="M201,139.6v5.2h-10.8v10.3h10.9v5.2h-14.9v-20.7h14.9Z"/>
        <path class="cls-1" d="M69.9,144.8h-10.8v10.3h10.9v5.2h-14.9v-20.7h14.8v5.2Z"/>
        <path class="cls-1" d="M32.2,139.6v5.2c-.2,0-.4,0-.6,0-2.6,0-5.3,0-7.9,0-2-.2-3.9,1.1-4.3,3.1-.6,1.6-.5,3.4.3,4.9.6,1.5,2.1,2.4,3.7,2.3,2.8,0,5.5,0,8.3,0,.2,0,.4,0,.6,0v5.2c-.2,0-.4,0-.6,0-2.6,0-5.3,0-7.9,0-3.1.1-6-1.6-7.3-4.4-.9-1.6-1.3-3.4-1.4-5.3-.2-2,.1-4,.8-5.8.8-2.2,2.4-3.9,4.6-4.8.8-.3,1.7-.5,2.6-.5,2.9,0,5.8,0,8.7,0,.1,0,.3,0,.5,0Z"/>
        <path class="cls-1" d="M246.5,139.6v5.2c-.2,0-.4,0-.6,0-2.7,0-5.3,0-8,0-1.9-.2-3.6,1.1-4.2,2.9-.7,1.8-.6,3.9.5,5.6.7,1.2,1.9,1.9,3.3,1.8,2.8,0,5.6,0,8.4,0h.6v5.2c-.2,0-.4,0-.6,0-2.6,0-5.3,0-7.9,0-3.1.1-5.9-1.6-7.2-4.3-.8-1.6-1.3-3.3-1.4-5-.3-2.5.2-5,1.3-7.2,1.1-2.2,3.2-3.8,5.6-4.2.4,0,.7,0,1.1,0,2.9,0,5.7,0,8.6,0,.2,0,.3,0,.5,0Z"/>
        <path class="cls-1" d="M269.4,160.4h-4.9c-.7-1.5-1.4-3-2.1-4.6h-6c.6-1.4,1.2-2.6,1.8-3.9h2.4c-.8-1.7-1.6-3.4-2.3-5h-.1c-2.1,4.5-4.1,9-6.2,13.5h-4.6c.3-.7.6-1.4.9-2,2.7-5.7,5.4-11.5,8.1-17.2.2-.4.4-.8.7-1.2.5-.7,1.5-.9,2.3-.4.2.1.3.3.4.4.2.3.4.6.6,1,3,6.4,6,12.7,8.9,19.1,0,0,0,.2.1.3Z"/>
        <path class="cls-1" d="M93,160.4h-4.9l-2.1-4.6h-6l1.8-3.9h2.4l-2.3-5h-.1c-2.1,4.5-4.1,9-6.2,13.5h-4.6c0,0,0-.2,0-.3,2.9-6.3,5.9-12.6,8.9-18.9.2-.5.5-.9.8-1.3.5-.7,1.5-.8,2.2-.3.1,0,.2.2.3.3.3.3.5.7.7,1.1,3,6.3,5.9,12.6,8.8,18.9,0,.1.1.2.2.4Z"/>
        <path class="cls-1" d="M113.4,139.6h5c2.1,4.5,4.1,9.1,6.2,13.6h.1c2-4.5,4.1-9,6.1-13.6h4.6c0,.2-.1.3-.2.4-2.9,6.3-5.9,12.5-8.8,18.8-.2.4-.4.8-.7,1.2-.5.7-1.5.9-2.2.4-.1,0-.3-.2-.3-.3-.3-.3-.5-.7-.7-1.1-2.9-6.2-5.8-12.3-8.7-18.5-.1-.3-.3-.5-.4-.9Z"/>
        <path class="cls-1" d="M100.4,160.4h-4.1v-15.6h-5.8v-5.2h15.6v5.2h-5.7v15.6Z"/>
        <path class="cls-1" d="M270.9,160.4v-20.7h4v15.5h10.1v5.2h-14.1Z"/>
        <path class="cls-1" d="M107.8,139.6h4v20.7h-4v-20.7Z"/>
        <path class="cls-1" d="M227.1,160.4h-4v-20.8h4v20.8Z"/>
        <path class="cls-1" d="M200.4,147.9v3.9h-8.1v-3.9h8.1Z"/>
        <path class="cls-1" d="M151.1,151.8h-8.1v-3.9h8.1v3.9Z"/>
        <path class="cls-1" d="M69.3,147.9v3.9h-8.1v-3.9h8.1Z"/>
      </g>
    </g>
  </g>
</svg>