<svg id="Layer_1" data-name="Layer 1" xmlns="http://www.w3.org/2000/svg" viewBox="0 0 300 300"><path d="M155.20551,107.52945h6.00212l27.99493,38.07313V107.52946h5.19586v45.46379h-5.97971l-27.99494-38.34188v38.36426H155.2951Z" fill="#050505"/><path d="M81.37726,135.60278H65.57691v17.40164H60.42585V107.50706H82.79941a15.25166,15.25166,0,0,1,10.179,3.505,13.348,13.348,0,0,1,4.54638,10.5149,12.3962,12.3962,0,0,1-3.169,9.12635,15.01645,15.01645,0,0,1-7.40187,3.91929l-.40312.08959L98.499,153.01563H92.34008Zm-15.76675-4.9607H81.18689a18.19706,18.19706,0,0,0,3.96409-.41432c6.79717-1.52292,9.57427-8.95838,5.29665-14.21023a10.34691,10.34691,0,0,0-8.36489-3.59455c-5.27425-.07839-10.55969,0-15.83394,0-.21276,0-.44792-.08959-.63828.14557Z" fill="#050505"/><path d="M125.15015,106.88c8.14093.21276,14.79253,3.18022,19.3277,10.07817,6.71878,10.13417,4.53518,24.44519-4.73674,31.82465A23.43436,23.43436,0,0,1,102.25028,133.072a23.8629,23.8629,0,0,1,4.47919-17.25608A21.62328,21.62328,0,0,1,121.41,107.21591C122.68659,106.992,123.96316,106.98075,125.15015,106.88Zm-.168,41.65646c7.09952-.14558,12.62011-2.7883,15.93472-9.05916a19.60765,19.60765,0,0,0,1.1198-15.67716,16.15867,16.15867,0,0,0-10.22376-10.67167,19.60765,19.60765,0,0,0-9.77583-.87344,15.80033,15.80033,0,0,0-10.81725,6.0917c-4.71434,6.31566-5.263,13.26961-2.13881,20.33553C112.1269,145.457,117.90506,148.33488,124.98218,148.53644Z" fill="#050505"/><path d="M247.432,129.56707c.0784,6.87555-1.91486,12.60891-6.45,17.31207a21.612,21.612,0,0,1-12.68731,6.41644,24.9379,24.9379,0,0,1-12.07142-1.03021,21.433,21.433,0,0,1-11.76906-9.63027,24.24358,24.24358,0,0,1-3.15784-14.35579,22.89992,22.89992,0,0,1,4.21043-12.06023,21.39935,21.39935,0,0,1,13.66153-8.768c7.1891-1.39975,13.87429-.224,19.75323,4.34481a21.20891,21.20891,0,0,1,6.99873,9.70864A22.93322,22.93322,0,0,1,247.432,129.56707Zm-23.25819,18.96937a20.03338,20.03338,0,0,0,6.08049-.907,16.24827,16.24827,0,0,0,11.05239-11.198,20.0778,20.0778,0,0,0,.43672-10.67167c-1.355-6.05811-4.74794-10.39172-10.62688-12.63131a19.32762,19.32762,0,0,0-9.83182-.94063,16.46105,16.46105,0,0,0-10.21255,5.263,18.779,18.779,0,0,0-4.65836,12.57532,19.03623,19.03623,0,0,0,.86225,6.01331,17.4125,17.4125,0,0,0,4.03128,7.18909c3.35941,3.561,7.60343,5.07269,12.85528,5.30785Z" fill="#7dbb34"/><path d="M288.70776,119.93681h-5.18467c-.15679-.61589-.26874-1.243-.48151-1.83647a8.20807,8.20807,0,0,0-5.0167-5.02789,20.63794,20.63794,0,0,0-14.80373,0,6.47245,6.47245,0,0,0-4.34482,4.88232,5.03911,5.03911,0,0,0,2.34038,5.74456,22.88888,22.88888,0,0,0,6.85315,2.68752c4.12085,1.11979,8.3313,1.87006,12.31777,3.35939a22.75464,22.75464,0,0,1,4.92711,2.38517,9.787,9.787,0,0,1,4.47919,10.34694c-.68306,4.75914-3.54978,7.76019-7.83859,9.48468a28.622,28.622,0,0,1-12.20578,1.61252,25.50936,25.50936,0,0,1-9.05916-1.93725c-5.25185-2.32918-7.89458-6.48362-8.42088-12.161h5.38622a9.49591,9.49591,0,0,0,.97422,3.57216,8.95838,8.95838,0,0,0,5.07268,4.21043,23.94138,23.94138,0,0,0,15.76675.33594,6.97637,6.97637,0,0,0,5.19588-5.599,5.375,5.375,0,0,0-2.2396-5.67738A19.32781,19.32781,0,0,0,276.278,133.632c-3.95289-1.11979-8.029-1.88125-11.95943-3.15783a23.51575,23.51575,0,0,1-6.59561-3.10185c-3.35939-2.44116-4.47919-5.80055-3.89689-9.79822a10.68288,10.68288,0,0,1,7.00993-8.73443,25.86736,25.86736,0,0,1,20.15633.14557,12.31774,12.31774,0,0,1,7.71543,9.92141A2.23948,2.23948,0,0,1,288.70776,119.93681Z" fill="#050505"/><path d="M47.27942,139.4101h5.44222a19.21575,19.21575,0,0,1-2.95627,5.711A20.55945,20.55945,0,0,1,34.80488,153.43a22.69825,22.69825,0,0,1-12.95606-2.17241,20.38033,20.38033,0,0,1-10.69406-13.3032c-2.06043-7.45786-1.47814-14.71414,2.67631-21.39933,3.67294-5.89014,9.18234-8.95838,16.0467-9.52948a22.67578,22.67578,0,0,1,14.07586,3.04585,20.35794,20.35794,0,0,1,8.63363,10.57088,4.309,4.309,0,0,1,.112.44792H47.29062a16.22582,16.22582,0,0,0-2.84428-4.4232,14.65818,14.65818,0,0,0-9.48469-4.53518,18.34235,18.34235,0,0,0-11.42194,2.094,15.47565,15.47565,0,0,0-7.1779,9.14875,21.41053,21.41053,0,0,0,1.1198,16.42743c2.64272,5.263,7.11071,7.98416,12.90007,8.6a19.54052,19.54052,0,0,0,7.59222-.62708,14.09826,14.09826,0,0,0,8.95838-7.637C47.06666,139.858,47.17864,139.63405,47.27942,139.4101Z" fill="#050505"/><path d="M77.62594,192.86922h-1.6685v-2.50834a.26909.26909,0,0,0-.35833.056,7.23393,7.23393,0,0,1-7.581,2.45236,7.36826,7.36826,0,0,1-5.81175-5.45341,9.07037,9.07037,0,0,1,2.62032-9.63027c3.97529-3.281,10.67167-1.72448,12.65372,2.98986H75.43114a5.92376,5.92376,0,0,0-5.599-2.83309,6.02453,6.02453,0,0,0-5.599,3.79612,7.17788,7.17788,0,0,0,2.00444,8.30889c3.35939,2.43,8.40968.91824,9.43989-2.83308.112-.42553.15677-.87344.24636-1.41094H69.87694v-1.7021h7.72661Z" fill="#050505"/><path d="M113.51545,186.21762c1.42214,2.2396,2.82189,4.356,4.27763,6.58442a13.43642,13.43642,0,0,1-2.2396.08958L111.52221,186.52H105.856v6.27087a9.76394,9.76394,0,0,1-1.89246.112V176.285h5.49821a21.98112,21.98112,0,0,1,3.74012.112,4.79274,4.79274,0,0,1,4.22163,4.47919c.21277,2.73231-.83984,4.31123-3.49377,5.21826Zm-7.62582-1.51173a61.14562,61.14562,0,0,0,6.71879-.10078,3.04587,3.04587,0,0,0,2.94506-3.43779,3.12422,3.12422,0,0,0-3.04585-2.98985c-2.23959-.14558-4.37841,0-6.5844,0Z" fill="#050505"/><path d="M141.57758,184.53792a8.43207,8.43207,0,1,1,8.40967,8.52166,8.18572,8.18572,0,0,1-8.41345-7.95147Q141.56575,184.823,141.57758,184.53792Zm8.34248,6.6628a6.6404,6.6404,0,0,0,.57109-13.24721c-4.08725-.12318-6.86436,2.40756-6.98754,6.37165a6.31568,6.31568,0,0,0,6.41645,6.87557Z" fill="#050505"/><path d="M225.15926,176.285c2.7435,0,5.44222-.07839,8.12973,0a5.33024,5.33024,0,0,1-.21277,10.64927h-6.0469v5.82294a7.7597,7.7597,0,0,1-1.81406.10078C225.03608,192.21974,225.03608,177.5504,225.15926,176.285Zm1.90366,8.824c2.1276,0,4.244.112,6.32684,0a3.13542,3.13542,0,0,0,2.97867-3.21381,3.169,3.169,0,0,0-2.655-3.61059l-.04369-.00635a48.15,48.15,0,0,0-6.60679-.15677Z" fill="#050505"/><path d="M184.15228,176.31861h1.83647a1.99314,1.99314,0,0,1,.07839.91825c0,3.057,0,6.1141.0784,9.17114a4.79273,4.79273,0,0,0,4.77571,4.80968q.21035.00075.42015-.017a4.88233,4.88233,0,0,0,5.009-4.75223q.00464-.177-.00354-.354V176.285h1.93725v4.59118a53.34324,53.34324,0,0,1-.07839,5.83415,7.04353,7.04353,0,0,1-14.03107-.20156v-1.25417Z" fill="#050505"/></svg>