<?xml version="1.0" encoding="UTF-8"?>
<svg xmlns="http://www.w3.org/2000/svg" version="1.1" viewBox="0 0 300 300">
  <defs>
    <style>
      .cls-1 {
        fill: #77d298;
      }

      .cls-2 {
        fill: #529ecc;
      }

      .cls-3 {
        fill: #2f56b2;
      }

      .cls-4 {
        fill: #a5c95f;
      }

      .cls-5 {
        fill: #1a2a56;
      }
    </style>
  </defs>
  <!-- Generator: Adobe Illustrator 28.6.0, SVG Export Plug-In . SVG Version: 1.2.0 Build 709)  -->
  <g>
    <g id="Layer_1">
      <g>
        <path class="cls-3" d="M65,264.4c3.3-3.6,6.5-7.9,9.4-11.7,7.1-9.2,13.2-19,18.1-29.4,6.2-13.2,11.2-26.8,13.5-41.3,1.2-8.1,2-16.3,2.9-24.4,1-9.2,0-18.3-.8-27.4,0-.7.2-1.7.7-2.1,6.7-7.5,13-15.3,20.2-22.4,8.4-8.4,17.5-15.8,27.5-22.2.4,3.7.7,7.3.8,11,.2,4,.4,8.1.2,12.1-.3,5.6-.8,11.1-1.2,16.9-1.4,7.7-2.5,15.3-4.2,22.8-4.2,17.7-11,34.6-20.1,50.3-12,20.6-27.1,38.6-45.9,53.3-6.2,4.9-12.8,9.2-19.2,13.8l-1.8.8"/>
        <path class="cls-4" d="M65,264.4c5.6-.7,11.3-1.3,16.7-2.3,45-9.1,82-31.5,111.1-66.9,20.6-25.2,33.6-53.9,39.6-85.8,1.1-5.9,1.8-11.8,2.6-18.3-6.7,1.7-12.9,3-19,4.6-6.3,1.8-12.5,4-18.8,6,0,0-.2.3-.4.4-1.4,8.3-2.3,16.5-4.2,24.5-6.4,27.9-19,53-36.8,75.3-15,18.9-33.1,34.2-54.1,46.1-10.4,5.9-21.3,10.9-32.6,14.8l-3.3,1.1-.9.5Z"/>
        <path class="cls-1" d="M156,123.3c8.5-5,17-10,25.6-14.6,4.8-2.5,9.9-4.4,15.1-6.5-1.1,8.2-2,16.4-3.9,24.5-6.4,27.9-19,53-36.8,75.3-15,18.9-33.1,34.2-54.1,46.1-10.4,5.9-21.3,10.9-32.6,14.8-.8.3-3.3,1.3-4.5,1.5,6.2-4.6,14.6-9.8,20.8-14.7,18.8-14.8,33.9-32.7,45.9-53.3,9.1-15.8,16-32.5,20.1-50.3,1.8-7.4,2.9-15,4.3-22.8Z"/>
        <path class="cls-2" d="M156,123.2c.5-5.6,1-11.1,1.2-16.7.2-4,0-8.1-.2-12.1,0-3.6-.5-7.2-.7-11.1,0-.3,0-.4,0-.6,12.1-8.2,24.7-15.2,38.1-20.7.7-.3,1.5-.6,2.5-1,1.7,13.6,1.7,26.9.4,40.6,0,.4-.2.5-.6.7-5.3,2.2-10.4,4.1-15.2,6.6-8.6,4.5-17.1,9.5-25.6,14.3Z"/>
        <path class="cls-5" d="M65,264.4c5.4-10.3,10-21.8,13.4-33,10.7-35.9,9.8-71.3-2.7-106.6-.6-1.7-.7-3.1.2-4.7,11-23.7,25.7-44.7,44.3-63.1,7.9-7.8,16.3-15,25.6-21.5,5.7,15.1,9,30.7,10.7,46.9,0,.4,0,.5-.2.7-10,6.6-19.1,14-27.5,22.4-7.1,7.1-13.5,14.9-20.2,22.4-.5.6-.7,1.5-.7,2.1.9,9.1,2,18.2.8,27.4-.9,8.2-1.6,16.3-2.9,24.4-2.2,14.5-7.2,28.1-13.5,41.3-4.9,10.5-11.1,20.3-18.1,29.4-2.8,3.9-5.6,8.1-9.4,11.8Z"/>
      </g>
    </g>
  </g>
</svg>