<svg id="Layer_1" data-name="Layer 1" xmlns="http://www.w3.org/2000/svg" xmlns:xlink="http://www.w3.org/1999/xlink" viewBox="0 0 300 300"><defs><linearGradient id="linear-gradient" x1="150.09351" y1="14392.83846" x2="54.85822" y2="14391.13259" gradientTransform="matrix(1, 0, 0, -1, 0, 14474)" gradientUnits="userSpaceOnUse"><stop offset="0" stop-color="#023976"/><stop offset="0.5" stop-color="#d4d7e6"/><stop offset="1" stop-color="#3b5580"/></linearGradient><linearGradient id="linear-gradient-2" x1="149.90649" y1="14255.16154" x2="245.14178" y2="14256.86742" xlink:href="#linear-gradient"/><linearGradient id="linear-gradient-3" x1="51.80745" y1="14302.12763" x2="151.86627" y2="14301.0688" gradientTransform="matrix(1, 0, 0, -1, 0, 14474)" gradientUnits="userSpaceOnUse"><stop offset="0" stop-color="#d3d4d6"/><stop offset="0.52" stop-color="#78797b"/><stop offset="1" stop-color="#898a8e"/></linearGradient><linearGradient id="linear-gradient-4" x1="248.19847" y1="14345.66536" x2="148.13965" y2="14346.66536" xlink:href="#linear-gradient-3"/></defs><path d="M150,93.94117V38.23529c-1.7647,15.70589-20.35294,20.52941-29.70588,23.17648C64.70588,77.29412,51.88235,107.35294,50,125.88235,58.82353,100.94118,120.35294,94.17647,150,93.94117Z" fill="url(#linear-gradient)"/><path d="M150,206.05882v55.70589c1.7647-15.70588,20.35294-20.52943,29.70588-23.17647,55.58824-15.88235,68.41177-45.94118,70.29412-64.4706C241.17647,199.0588,179.64706,205.82352,150,206.05882Z" fill="url(#linear-gradient-2)"/><path d="M150,206.29412v-36.4706c-70.58824,0-96.05882-20.88235-100-31.35294C60.35294,191.41177,121,205.7647,150,206.29412Z" fill="url(#linear-gradient-3)"/><path d="M150,93.94117v36.52942c70.58824,0,96.05883,20.82353,100,31.29412C239.64707,108.82353,179,94.4706,150,93.94117Z" fill="url(#linear-gradient-4)"/></svg>