<svg id="Layer_1" data-name="Layer 1" xmlns="http://www.w3.org/2000/svg" viewBox="0 0 300 300"><path d="M144.27,212.23A190.35,190.35,0,0,1,114.06,210c-16.1-2.5-31.86-6.45-46.81-13.11-13-5.78-24.86-13-33.94-24.31-9.85-12.24-11.43-28.54-2.11-42.14,9-13.09,21.72-21.06,35.75-27.18a185.3,185.3,0,0,1,53.43-13.91,229.5,229.5,0,0,1,30.7-2c13.77.29,27.63.8,42.15,4.13-14.3,26.58-28.43,52.84-43.31,80.48l-27.07-50.23H95.48C111.57,152.33,128.31,181.64,144.27,212.23Z" fill="#ff6e32"/><path d="M217.56,97.41c15.8,5.25,30,11.69,41.81,22.3,9.24,8.29,16,18.09,15.62,31.24-.29,11.21-5.79,20-13.51,27.49-10.08,9.8-22.31,16.23-35.35,21.17a189.21,189.21,0,0,1-60.67,12.22c-3.09.11-6.12,1.34-10.24.41Z" fill="#00a0b4"/></svg>