<svg id="Layer_1" data-name="Layer 1" xmlns="http://www.w3.org/2000/svg" viewBox="0 0 300 300"><defs><style>.cls-1{fill:#fbde00;}.cls-2{fill:#feda00;}.cls-3{fill:#111223;}</style></defs><g id="Layer_2" data-name="Layer 2"><g id="Layer_1-2" data-name="Layer 1-2"><path class="cls-1" d="M127.81,154.42l-47.87,16.8c-.81-3.34-1.58-6.52-2.39-9.89l50.22-7.13Zm1.74-29.34L84,103.16a27.33,27.33,0,0,0-3.47,9.45l49,12.59Zm10-16.9L105.85,70.41,99,77.9l40.51,30.41Zm-12.46,26.48L77.91,122c-.56,3.3-1.07,6.53-1.63,10l50.84,2.81Zm-.62,9.76-50.77-2.78.44,10.13,50.33-7.15ZM140.15,91q-12.83-21.51-25.55-43.1a25.65,25.65,0,0,0-7.95,5.9q16.71,18.69,33.42,37.34Zm15.33,5.37L138.91,49.14a25.75,25.75,0,0,0-9,4.21l25.55,43.09Zm55.5,8.92,37.51-33.58A27.83,27.83,0,0,0,241,65q-15.18,20.17-30.23,40.26Zm2.49-21.7,30.32-40.35A25.25,25.25,0,0,0,235.15,38L213.32,83.45Zm-48.56,9.78-7.13-50.17-9.87,2.4c5.68,16.15,11.14,32,16.77,47.86Zm-31.19,22.81L93.19,85.63l-5.28,8.69,45.78,22Zm33.7-74q3.54,25,7.11,50h.2q1.36-25.12,2.76-50.37A26.88,26.88,0,0,0,167.42,42.1Zm29.72,1.4-10-1.62-2.85,50.86h.14c4.18-16.31,8.39-32.62,12.65-49.24ZM62.72,189.87a26,26,0,0,0,4.07,8.91l43.09-25.46Zm116.11,2.76Q177.42,217.85,176,243a26.62,26.62,0,0,0,10.1-.4q-3.57-25-7.11-50Zm-36.25-13.19L105,213.06a27.84,27.84,0,0,0,7.45,6.82l30.25-40.28ZM92.46,198l5.9,8.07,37.87-33.89Zm59.66,69.06,10,1.61,2.83-50.89h0c-4.33,16.27-8.52,32.64-12.79,49.26Zm7.35-77.57-21.9,45.6A26.63,26.63,0,0,0,147,238.5q6.3-24.51,12.58-49Zm-8.91-4.19L120,225.94l8.69,5.28c7.53-15.51,14.73-30.59,22-45.78Z"/><path class="cls-2" d="M127.81,154.42l-47.87,16.8c-.81-3.34-1.58-6.52-2.39-9.89l50.22-7.13Zm1.74-29.34L84,103.16a27.33,27.33,0,0,0-3.47,9.45l49,12.59Zm10-16.9L105.85,70.41,99,77.9l40.51,30.41Zm-12.46,26.48L77.91,122c-.56,3.3-1.07,6.53-1.63,10l50.84,2.81Zm-.62,9.76-50.77-2.78.44,10.13,50.33-7.15Zm29-48L138.91,49.14a25.75,25.75,0,0,0-9,4.21l25.55,43.09ZM211,105.3l37.51-33.64A27.83,27.83,0,0,0,241,65q-15.18,20.17-30.23,40.26ZM196.65,95.1c7.29-15.24,14.59-30.37,22-46l-9.49-3.39L196.52,95Zm-31.74-1.72-7.13-50.23-9.87,2.4c5.68,16.15,11.14,32,16.77,47.86ZM133.72,116.2,93.19,85.63l-5.28,8.69,45.78,22Zm33.7-74.1q3.54,25,7.11,50h.2q1.36-25.12,2.76-50.37A26.88,26.88,0,0,0,167.42,42.1Zm29.72,1.4-10-1.62-2.85,50.86h.14c4.18-16.31,8.39-32.62,12.65-49.24ZM178.83,192.63Q177.42,217.85,176,243a26.62,26.62,0,0,0,10.1-.4q-3.57-25-7.11-50Zm20.61-3.43q8.33,23.66,16.59,47.32a26,26,0,0,0,9.11-4.21l-25.5-43.18Zm-10.3,2.85,7.24,50.15,9.87-2.41L189.37,192Zm-46.56-12.61L105,213.06a27.84,27.84,0,0,0,7.45,6.82l30.25-40.28ZM92.46,198l5.9,8.07,37.87-33.89Zm67-8.51-21.9,45.6A26.63,26.63,0,0,0,147,238.5q6.3-24.51,12.58-49Zm-8.91-4.19L120,225.94l8.69,5.28c7.53-15.51,14.73-30.59,22-45.78Z"/><path class="cls-3" d="M213.47,83.56l30.32-40.37A25.25,25.25,0,0,0,235.15,38L213.32,83.45Z"/><path class="cls-3" d="M140.15,91Q127.32,69.44,114.6,47.85a25.65,25.65,0,0,0-7.95,5.9q16.71,18.69,33.42,37.34Z"/><path class="cls-3" d="M62.72,189.87a26,26,0,0,0,4.07,8.91l43.09-25.46Z"/><path class="cls-3" d="M152.12,267l10,1.6,2.83-50.88h0C160.58,234.05,156.39,250.42,152.12,267Z"/></g></g></svg>