<svg id="Layer_1" data-name="Layer 1" xmlns="http://www.w3.org/2000/svg" viewBox="0 0 300 300"><circle cx="198.28309" cy="125.10722" r="5.03648"/><circle cx="210.6864" cy="115.35017" r="6.4524"/><circle cx="225.79972" cy="102.40932" r="7.76176"/><circle cx="241.2385" cy="88.96163" r="8.7615"/><circle cx="188.77688" cy="133.83077" r="4.27805"/><circle cx="179.11437" cy="141.80711" r="3.64688"/><circle cx="170.9928" cy="149.20582" r="2.8527"/><path d="M207.26406,246.12833c-5.7753,3.82589-12.14369,6.41233-18.67672,8.68553-13.66992,4.75642-27.85782,5.21764-41.95739,3.96581-20.06721-1.78162-38.15079-9.29411-54.09193-21.71354C73.37027,222.13285,60.85389,202.781,54.127,179.52585a97.62373,97.62373,0,0,1-3.05271-42.25174c4.14237-26.56146,15.74116-49.63693,36.05786-67.93382,16.99006-15.301,36.90656-24.85867,59.33636-27.69606,31.28141-3.95712,60.0249,3.58146,85.09768,23.26368,5.15253,4.04475,5.80175,9.90283,2.05454,14.32578-4.09123,4.829-9.678,5.17344-15.116.67253a95.48828,95.48828,0,0,0-39.65248-19.72965,92.00326,92.00326,0,0,0-55.42744,3.87306C95.74289,74.806,76.47822,94.34172,66.53531,122.20535A99.07884,99.07884,0,0,0,95.37805,231.11981c24.73733,21.16257,53.36522,28.31384,85.26613,23.04252C189.8129,252.6473,198.48989,249.3579,207.26406,246.12833Z" fill="#1980d5"/><path d="M193.56547,226.80079c-8.33279,5.45454-17.81685,7.46536-27.4137,8.21637a83.73865,83.73865,0,0,1-83.37984-50.19084C63.986,141.847,84.20153,90.59811,127.4751,72.27238c31.47736-13.3302,61.04829-8.96228,88.59024,10.79542,4.45871,3.19854,5.32907,8.08618,2.38934,11.80923-3.0981,3.9236-7.45518,4.24768-11.956.57324-16.186-13.21423-34.74454-18.97751-55.42729-16.72734-22.64926,2.46413-40.62624,13.45791-53.687,32.083a72.14714,72.14714,0,0,0-13.4521,44.659c.98731,29.19057,14.15395,51.613,39.39951,66.382,18.65532,10.91356,38.71934,13.04214,59.68777,7.61451C186.51266,228.55723,189.94374,227.25971,193.56547,226.80079Z" fill="#1980d5"/><path d="M178.586,213.12015c-28.14925,12.23836-63.919-2.74874-78.13945-31.391-18.56437-37.39166,1.30291-82.95316,41.42505-94.153,21.79113-6.08287,42.11253-2.21821,60.38054,11.3717,3.88718,2.89176,4.606,6.1459,2.24343,9.26473-2.4887,3.28528-5.9136,3.39443-9.84467.31381-21.49925-16.84827-49.0462-17.449-71.0863-1.55021-18.22994,13.1503-27.49291,38.39394-22.368,59.97438,5.31442,22.37833,18.82453,37.30829,40.35531,44.95122a52.19641,52.19641,0,0,0,23.73981,2.77115C169.74424,214.1476,174.26539,214.27581,178.586,213.12015Z" fill="#1980d5"/><path d="M194.11316,117.07086c-1.93193,5.21469-4.51947,6.104-8.65717,2.97535-14.96531-11.31577-33.55059-12.5856-48.77418-3.33242-15.24222,9.2645-23.0549,26.61185-20.13816,44.71489,3.18428,19.76354,19.043,34.37437,40.11946,37.06716,3.38125.432,10.85634.714,14.16339-.2931h0c-16.72105,6.78063-43.95553-.98177-55.52985-25.55654-11.63749-24.709.08339-55.31726,25.08646-65.897C159.93517,98.476,192.43782,104.81689,194.11316,117.07086Z" fill="#1980d5"/><path d="M184.88178,126.8608c-1.84008,4.07716-3.1487,4.45466-6.62063,1.90988-14.426-10.57365-33.92593-7.79378-43.78123,6.24135A31.759,31.759,0,0,0,142.33,179.69837a35.90394,35.90394,0,0,0,11.899,5.40864c-3.34989.822-4.46558.76-6.22133.13468A34.837,34.837,0,0,1,124.8304,152.1032c.06-14.9925,9.64207-28.74422,23.43215-33.53073,11.94476-4.146,23.19024-2.77423,33.6307,4.4618C183.83605,124.38077,183.80757,124.42179,184.88178,126.8608Z" fill="#1980d5"/></svg>