<svg id="Layer_1" data-name="Layer 1" xmlns="http://www.w3.org/2000/svg" viewBox="0 0 300 300"><path d="M189.00561,187.056c5.32279,4.75581,10.42831,9.31767,15.534,13.87926,5.03372,4.49728,10.0677,8.9943,15.28973,13.65954A92.64775,92.64775,0,0,1,171.7446,239.243c-20.506,3.89177-40.61209,2.25419-60.04743-5.69268,7.06988-31.61078-21.59367-52.81236-47.19734-43.59085A90.84154,90.84154,0,0,1,55.119,141.29915,89.80462,89.80462,0,0,1,77.66972,87.57446c10.498,9.37933,20.81961,18.60107,31.21923,27.89251a88.85193,88.85193,0,0,0-5.71291,10.39018c-4.18457,9.93456-5.18978,20.21391-3.8979,30.8292a52.73966,52.73966,0,0,0,10.74964,26.247,48.81988,48.81988,0,0,0,31.55758,19.05915c14.63822,2.43736,28.3429-.20263,40.55638-9.07179A74.92907,74.92907,0,0,0,189.00561,187.056Z" fill="#6dcdc0"/><path d="M238.18535,108.22345c15.82223,30.89632,11.39826,74.34682-13.51495,101.07661q-15.48057-13.844-31.00155-27.72423c1.42436-2.55447,2.77483-4.8233,3.97976-7.16684a55.37037,55.37037,0,0,0,5.73222-20.67472,55.78474,55.78474,0,0,0-8.88851-36.47909A48.50959,48.50959,0,0,0,161.43462,95.281c-15.40363-2.77706-29.80614.10018-42.45015,9.82633-1.87608,1.44316-3.59689,3.08785-5.5553,4.78277-10.16825-9.0766-20.299-18.11967-30.758-27.45586a90.47275,90.47275,0,0,1,40.87067-22.87288,105.59829,105.59829,0,0,1,67.80409,4.276c-3.35554,14.1095-.7207,26.59937,9.86442,36.5701C211.76894,110.35338,224.30321,112.49317,238.18535,108.22345Z" fill="#6dcdc0"/><path d="M78.21255,249.855a28.0905,28.0905,0,1,1,28.13527-28.01327A28.16559,28.16559,0,0,1,78.21255,249.855Z" fill="#37419b"/><path d="M249.99926,76.90512a26.41411,26.41411,0,1,1-26.18639-26.75894A26.35221,26.35221,0,0,1,249.99926,76.90512Z" fill="#37419b"/></svg>