<svg id="Layer_1" data-name="Layer 1" xmlns="http://www.w3.org/2000/svg" viewBox="0 0 300 300"><defs><style>.cls-1{fill:#53b950;}.cls-2{fill:#009a82;}.cls-3{fill:#93ccbe;}.cls-4{fill:#abd7a1;}</style></defs><g id="Layer"><g id="Layer-2" data-name="Layer"><path id="Layer-3" data-name="Layer" class="cls-1" d="M267.43,71.45v157.1a78.24,78.24,0,0,1-68.56-40.27c-13.66,24-39.08,40.27-68.6,40.27V71.83a78.26,78.26,0,0,1,68.6,40.27,77.48,77.48,0,0,1,68.56-40.65Z"/><path id="Layer-4" data-name="Layer" class="cls-2" d="M110.73,228.22a78.39,78.39,0,0,1,0-156.77Z"/><path id="Layer-5" data-name="Layer" class="cls-3" d="M110.73,208.63a58.8,58.8,0,0,1,0-117.6Z"/><path id="Layer-6" data-name="Layer" class="cls-4" d="M267.09,208.63a58.8,58.8,0,0,1,0-117.6Z"/><path id="Layer-7" data-name="Layer" class="cls-4" d="M130.27,91a58.8,58.8,0,0,1,0,117.6Z"/></g></g></svg>