<svg id="Layer_1" data-name="Layer 1" xmlns="http://www.w3.org/2000/svg" viewBox="0 0 300 300"><path d="M240.78,150.18c-.2,22.37-8,41.76-23.61,57.74s-35.2,24.59-57.7,25a82.83,82.83,0,0,1-84.88-82.7c0-22,7.47-41.07,22.51-57.08,16.29-17.33,36.61-26,60.23-26.24A80.47,80.47,0,0,1,214.4,89.13,81.35,81.35,0,0,1,240.78,150.18ZM187.39,95.76a15.25,15.25,0,0,0,4.52,3.71,13.2,13.2,0,0,0,4.85,3.85l.14,2.06c.77.33,1.1,1.07,1.63,1.55l-1.12,1.38h-2.64c-.67.2-.69.84-1.23.88h-2c-1,.08-1,.75-1.71.89h-4.88c-.67.17-.69.82-1.08.85h-4.55c-.87-.8-1.5-1.87-2.83-1.9-1.41-2.17-4.1-2.8-5.71-4.79A6.14,6.14,0,0,0,166,102c-1.87-1-2.22-3.2-3.65-4.3H160.3c0,.72-.83.71-1,1.31l-.1,1.64c-.78,1.54-2.78,1.39-3.47,2.86v1.78a15.33,15.33,0,0,1,2.33,2.29c.53.77,1.24.7,1.91.92-.46.69,0,1.11.49,1.44a15.51,15.51,0,0,1,3.47,2.67l-.42,1.09h-4.09l.56.88h-3.13l-.74.88-1.91.09a11,11,0,0,1-5.53,3.76,13.46,13.46,0,0,1-1.92,4v3.33a28.82,28.82,0,0,1,2.82,5.6l.62-.43.2,1.23,4.28,4.3c0,.46-.42.48-.59.71l.55.7h-5.44c-.69.2-.71.85-1.24.91h-2.46c-.52.07-.54.73-1.2.9h-2.14a13.61,13.61,0,0,0-5.23,4.09l-.11,2-.84-.57v2.39l-.82-.56v2.28l.8-.5v3.81c.44,2.54,3.56,3.22,3.83,5.72l1.5.29c0,1.74,1.06,2.42,2.6,2.67.3,1.91,2.1,2.75,3.28,4.37-1.24-.11-2.2-.11-2.67.85h-12c-1,.08-1,.74-1.48,1H109.13V174a1.61,1.61,0,0,0-.8,1.93c.48.16.68.86,1.32,1.24H130.6c-.7.63-1.57.34-2.34.35-4.47.07-8.95.07-13.42.11a3.44,3.44,0,0,0-2,.26v3.71h2.93l15.88-.09a39,39,0,0,0,4.46-.07c3.84-.47,7.7-.46,11.55-.73,2.29-.15,4.59-.38,6.86-.64a40.89,40.89,0,0,0,5.53-.51,7.23,7.23,0,0,1,4.57.26l0,0c0,.54.26.87.86.83l.16.8c1.26-.12,1.92,1.32,3.44,1.21-.48,1.29,1.22,1.78.83,3-.57.28-.73,1.06-1.63,1.32h-2.5c-.26.37-.42.85-1,.87h-2.09c-.81.17-.82.84-1.36.89h-4.25c-.52.07-.54.73-1.23.89h-4c-.69.16-.71.82-1.23.89h-6c-.53.06-.56.7-1.22.91h-8.88c-.17.43.39.41.32.83H120.38l-1,.94c-3.65,0-7.3,0-11,0s-7.24,0-10.83,0V202c1,.39,1.87.08,2.72.26.23.2-.15.58.23.73.56.05.52-.69,1.11-.76H119c-.63.61-1.42.33-2.13.34-4.32.06-8.64.06-13,.11a4.75,4.75,0,0,0-2.36.25c.16,1.1-.25,2.26.19,3.28a2.35,2.35,0,0,0,1.84.41c6.39-.1,12.79,0,19.19-.3,7.49-.37,15-.6,22.44-1.44,3.38-.38,6.8-.55,10.17-1A122.25,122.25,0,0,0,171,200.76,25.23,25.23,0,0,0,179.7,197c3.58-2.71,4.68-5.7,3.1-10.19a13.28,13.28,0,0,0-4.8-6.53l0,0-.49-.66a5.23,5.23,0,0,1-.48-2.46c1.29-.33,2.57-.64,3.86-1a29.92,29.92,0,0,0,10.49-4.49,8,8,0,0,0,3-9.19,22.86,22.86,0,0,0-4.37-6.85,11.45,11.45,0,0,0-.8-1c-2.24-2.21-4.5-4.4-6.74-6.59a53.21,53.21,0,0,0,6.75-1.17,22.11,22.11,0,0,0,6.09-2c2.7-1.3,4.92-3.21,5.41-6.35a10.86,10.86,0,0,0-1.23-7.32,24.35,24.35,0,0,0-5.42-6.93c-.19-.73.66-.73.83-1.21a21.1,21.1,0,0,1,2.83-.55c4-.64,8-1.57,11.32-4.17a8,8,0,0,0,3.06-8.47,15.35,15.35,0,0,0-2.28-5.27,18.22,18.22,0,0,0-4.57-5.36,3.32,3.32,0,0,0-2.87-2.76c-.45-.42,0-1.09-.62-1.53-.92.19-1.47-.58-2.08-1.16a60.12,60.12,0,0,1-4.44-4.45c-1.36-1.62-3.61-2.06-4.77-3.87a1.37,1.37,0,0,0-.49-.4,20,20,0,0,1-5.2-3.52c-.65-.63-1.13-1.49-2.06-1.87a14.43,14.43,0,0,1-4.54-3,9,9,0,0,0-3.9-2.37c-.67-.18-.73-1-1.4-1l-1.9.09c0,2-1.82,2.64-2.81,4v2.69l2.54,2.37-.63.54c.32.24.74.3.82.74s.42.73.77,1c3.41,2.45,6.78,5,10.26,7.31,1.81,1.23,3.35,2.9,5.45,3.7Z" fill="#38b893"/><path d="M194.93,123.08c-.17.48-1,.48-.83,1.21.61,2,2,3.64,2.46,5.67,1.06,4.51,0,7.94-4,10.24a21,21,0,0,1-5.31,2.17,73.92,73.92,0,0,1-9.18,1.93l4.44,3.76c2.24,2.19,4.5,4.38,6.74,6.59a11.45,11.45,0,0,1,.8,1c-.46.15-.51.48-.37.87.19.56.46,1.1.6,1.67.83,3.52.56,6.69-2.54,9.22-2.84,2.32-6.17,3.46-9.6,4.39a108.53,108.53,0,0,1-14.78,2.81c-5.8.72-11.57,1.65-17.43,1.73-.3,0-.6,0-.9,0a115.73,115.73,0,0,1-14.42.79H109.65c-.64-.38-.84-1.08-1.32-1.24a1.61,1.61,0,0,1,.8-1.93v-5.67H131c.47-.28.48-.94,1.48-1h12c.47-1,1.43-1,2.67-.85-1.18-1.62-3-2.46-3.28-4.37-1.54-.25-2.62-.93-2.6-2.67l-1.5-.29c-.27-2.5-3.39-3.18-3.83-5.72v-3.81l-.8.5v-2.28l.82.56V146l.84.57c0-.7.08-1.35.11-2a13.61,13.61,0,0,1,5.23-4.09h2.14c.66-.17.68-.83,1.2-.9h2.46c.53-.06.55-.71,1.24-.91h5.44l-.55-.7c.17-.23.55-.25.59-.71l-4.28-4.3-.2-1.23-.62.43a28.82,28.82,0,0,0-2.82-5.6v-3.33a13.46,13.46,0,0,0,1.92-4,11,11,0,0,0,5.53-3.76l1.91-.09.74-.88H160l-.56-.88h4.09l.42-1.09c1.31.55,1.31.55,2.24.11-2.06-1.41-3.93-3.11-6.2-4.22-.67-.22-1.38-.15-1.91-.92a15.33,15.33,0,0,0-2.33-2.29v-1.78c.69-1.47,2.69-1.32,3.47-2.86,0-.46.07-1,.1-1.64.2-.6,1-.59,1-1.31h2.08c1.43,1.1,1.78,3.29,3.65,4.3a6.14,6.14,0,0,1,4.74,2.29c1.61,2,4.3,2.62,5.71,4.79,1.33,0,2,1.1,2.83,1.9h4.55c.39,0,.41-.68,1.08-.85h4.88c.74-.14.75-.81,1.71-.89h2c.54,0,.56-.68,1.23-.88h2.64l1.12-1.38c-.53-.48-.86-1.22-1.63-1.55l-.14-2.06a13.2,13.2,0,0,1-4.85-3.85,7.68,7.68,0,0,0-4.52-3.71l0,0a1,1,0,0,0-.45-.94c-4.82-3.76-9.78-7.33-14.77-10.85a1.46,1.46,0,0,0-1.26-.2c-.08-.44-.5-.5-.82-.74l.63-.54-2.54-2.37V77.46c1-1.34,2.78-2,2.81-4l1.9-.09c.67,0,.73.8,1.4,1a9,9,0,0,1,3.9,2.37,14.43,14.43,0,0,0,4.54,3c.93.38,1.41,1.24,2.06,1.87a20,20,0,0,0,5.2,3.52,1.37,1.37,0,0,1,.49.4c1.16,1.81,3.41,2.25,4.77,3.87a60.12,60.12,0,0,0,4.44,4.45c.61.58,1.16,1.35,2.08,1.16.57.44.17,1.11.62,1.53a3.32,3.32,0,0,1,2.87,2.76c.33,1.48,1.42,2.58,1.92,4,1.88,5.18,1.17,10.14-4.71,12.78-3.7,1.65-7.64,2.24-11.54,3-2.69.54-5.42.78-8.15,1.07-4,.41-7.91,1-11.85,1.62-2.85.43-5.73.79-8.53,1.46a20.09,20.09,0,0,0-5.88,2,18.57,18.57,0,0,0,4.38,4.81c1.89,2.46,4.47,4.11,7,6h3.23c.53,0,.56-.67,1.16-.86h6.09l1-.91h3.39c.61-.18.63-.83,1.15-1h2.88c-.95-.9.74-1.44.06-2.22-1.69-1.93-3.75-3.57-5.24-5.72.47-.86,1.31-.8,2.12-.88,1.17-.12,2.34-.11,3.53-.33C189.81,123.64,192.38,123.41,194.93,123.08Zm-21.35,30.35c.69-.47.07-.75-.19-1-2.81-2.52-6-4.58-8.77-7.14a5.39,5.39,0,0,0-2.69-1.81c.22,1.21,1.7,1.24,1.67,2.35-6.08,1.25-12.36,1.71-18.29,4.28a15,15,0,0,0,4,4.62c.76-.12,1,.6,1.36,1a2.57,2.57,0,0,0,2.2.95,2.12,2.12,0,0,0,1.47,2.46,4.91,4.91,0,0,1,2.22,1.59,38.36,38.36,0,0,0,3.47,3.28,12.5,12.5,0,0,0,2.94,1.49c1,.38,1.57-.48,2.17-.88h3.38c.53-.19.56-.83,1.1-1h3.72l-.55-.73h3.72c.54-.14.56-.78,1-.92l1.93-.13c.51-.74,1.58-1.1,1.17-2.16-1.23-1.29-2.43-2.54-3.61-3.8-.25-.28-.47-.6-.86-.64C175,155.13,174.33,154.2,173.58,153.43Z" fill="#3a90ed"/><path d="M119,202.21H101.64c-.59.07-.55.81-1.11.76-.38-.15,0-.53-.23-.73-.85-.18-1.76.13-2.72-.26v-8.71c3.59-.06,7.21,0,10.83,0s7.3,0,11,0l1-.94H134.8c.07-.42-.49-.4-.32-.83h8.88c.66-.21.69-.85,1.22-.91h6c.52-.07.54-.73,1.23-.89h4c.69-.16.71-.82,1.23-.89h4.25c.54-.05.55-.72,1.36-.89h2.09c.54,0,.7-.5,1-.87h2.5c.9-.26,1.06-1,1.63-1.32.39-1.27-1.31-1.76-.83-3-1.52.11-2.18-1.33-3.44-1.21l-.16-.8-.86-.83,0,0c-.1-.26-.36-.49-.19-.86a50.65,50.65,0,0,0,8.71-1.25,11.43,11.43,0,0,1,3.94-.55,5.23,5.23,0,0,0,.48,2.46c0,.32.1.61.49.66l0,0c-.21,1.32.89,2.29,1,3.53,0,1.65,0,3.31,0,5a7.82,7.82,0,0,1-3.68,4.53,24.7,24.7,0,0,1-7,3.12,107.2,107.2,0,0,1-10.8,2.39c-5.77.92-11.54,1.75-17.37,2.18-2.15.16-4.3.24-6.43.44A132.91,132.91,0,0,1,119,202.21Z" fill="#3a90ed"/><path d="M173.58,153.43c.75.77,1.37,1.7,2.58,1.84.39,0,.61.36.86.64,1.18,1.26,2.38,2.51,3.61,3.8.41,1.06-.66,1.42-1.17,2.16l-1.93.13c-.43.14-.45.78-1,.92h-3.72l.55.73h-3.72c-.54.13-.57.77-1.1,1h-3.38c-.6.4-1.21,1.26-2.17.88a12.5,12.5,0,0,1-2.94-1.49,38.36,38.36,0,0,1-3.47-3.28,4.91,4.91,0,0,0-2.22-1.59,2.12,2.12,0,0,1-1.47-2.46,2.57,2.57,0,0,1-2.2-.95c-.39-.37-.6-1.09-1.36-1a.87.87,0,0,1,.7-1,23.21,23.21,0,0,1,3.53-1.27c3.27-.59,6.55-1.18,9.81-1.8a25.22,25.22,0,0,1,6.18-.5Z" fill="#38b893"/><path d="M160.93,130v-.89c1.8-1.35,4-1.62,6-2,4.16-.86,8.37-1.48,12.57-2.18a2.71,2.71,0,0,1,2.12.39c1.49,2.15,3.55,3.79,5.24,5.72.68.78-1,1.32-.06,2.22h-2.88c-.52.13-.54.78-1.15,1h-3.39l-1,.91h-6.09c-.6.19-.63.83-1.16.86h-3.23C165.4,134.15,162.82,132.5,160.93,130Z" fill="#38b893"/><path d="M179,183.78a6,6,0,0,1,0,5C178.94,187.09,179,185.43,179,183.78Z" fill="#38b893"/><path d="M72.05,128.53a102.64,102.64,0,0,1,3.84-11.79,87.69,87.69,0,0,1,23-32.92,92.53,92.53,0,0,1,19-13.13A116.92,116.92,0,0,1,131.53,65c.48-.07,1,.07,1.36-.47a3.62,3.62,0,0,0,.67-.07A95.41,95.41,0,0,1,155.44,61a78.47,78.47,0,0,1,12.43.71,86.53,86.53,0,0,1,17.73,3.91A90.25,90.25,0,0,1,217,84.14a86.47,86.47,0,0,1,14.85,17.67c.63,1,.95,2.19,2,2.94L250,95a2,2,0,0,0-.41-1.61,108.6,108.6,0,0,0-12.69-16.86,107.12,107.12,0,0,0-14.66-13.33,108.61,108.61,0,0,0-37.76-18.3A52.14,52.14,0,0,0,174,43c-1.22-.83-2.69-.19-4-.67-1.84-.21-3.68-.53-5.52-.6a118.41,118.41,0,0,0-26.84,1.71,113.53,113.53,0,0,0-14.77,3.93A108.11,108.11,0,0,0,85,70a112.54,112.54,0,0,0-11.1,11.89,110,110,0,0,0-9.84,14.53,106.11,106.11,0,0,0-11.57,30.62A56.47,56.47,0,0,0,50.9,137.8c-.75,1.72-.32,3.54-.46,5.31a4.89,4.89,0,0,0-.39,2.39A111.79,111.79,0,0,0,51,163.7a97.17,97.17,0,0,0,1.93,11.12A112.22,112.22,0,0,0,59,193.3a66.35,66.35,0,0,0,3.53,7.12,3.07,3.07,0,0,0,.84,1.39,13.71,13.71,0,0,0,2,3.93,108.65,108.65,0,0,0,11.34,15.69,113,113,0,0,0,12.45,12.1,106.59,106.59,0,0,0,45.27,22.24,100.2,100.2,0,0,0,19.8,2.58,102.34,102.34,0,0,0,10.93-.27,122.89,122.89,0,0,0,13.65-1.82,93.92,93.92,0,0,0,14.32-3.94,113.92,113.92,0,0,0,16.55-7.59,102.49,102.49,0,0,0,17.88-12.42A108.58,108.58,0,0,0,244,214.71a36.83,36.83,0,0,0,4.46-6.82l-16.08-10.35c-.6.76-1.11,1.31-1.52,1.92a88.33,88.33,0,0,1-49.75,36,96.52,96.52,0,0,1-20.81,3.21,66.08,66.08,0,0,1-7.57-.23,86.5,86.5,0,0,1-16-2.36A85.35,85.35,0,0,1,109.14,224a86.44,86.44,0,0,1-17.86-15.7,94.92,94.92,0,0,1-7.49-10A87.66,87.66,0,0,1,73,174.62,95.66,95.66,0,0,1,69.39,151a82.85,82.85,0,0,1,.79-12A75.51,75.51,0,0,1,72.05,128.53Z" fill="#3a90ed"/></svg>