<svg id="Layer_1" data-name="Layer 1" xmlns="http://www.w3.org/2000/svg" viewBox="0 0 300 300"><title>DAWN_Mark_Light</title><path d="M229.42827,120.16506c0,.0633.0633.0633,0,0a1.28835,1.28835,0,0,0,1.51913-.94946l6.01323-22.787a1.27046,1.27046,0,0,0-1.01276-1.58243l-3.54464-.633a1.30806,1.30806,0,0,0-1.51913,1.13935l-2.53189,23.48325a1.20526,1.20526,0,0,0,1.07606,1.32924Z" fill="#ffb600"/><path d="M216.51565,121.24111h0a1.31085,1.31085,0,0,0,.88616-1.51913l-6.32972-22.72369a1.284,1.284,0,0,0-1.64573-.88616l-3.418,1.20265a1.30932,1.30932,0,0,0-.75958,1.709l9.62118,21.58434a1.34082,1.34082,0,0,0,1.64573.633Z" fill="#ffb600"/><path d="M205.88171,128.52029h0a1.28045,1.28045,0,0,0-.0633-1.77232l-16.90035-16.58386a1.32037,1.32037,0,0,0-1.89892.06329l-2.342,2.72178a1.25093,1.25093,0,0,0,.18989,1.83562l19.179,13.92538a1.29707,1.29707,0,0,0,1.83563-.18989Z" fill="#ffb600"/><path d="M200.31157,140.167h0a1.28835,1.28835,0,0,0-.94946-1.51914l-22.97687-5.94993a1.27047,1.27047,0,0,0-1.58243,1.01275l-.633,3.54464a1.34023,1.34023,0,0,0,1.13936,1.51914l23.60984,2.53188a1.42779,1.42779,0,0,0,1.39254-1.13934Z" fill="#ffb600"/><path d="M243.98662,160.73855h0a1.28045,1.28045,0,0,0,.0633,1.77232l16.90036,16.58386a1.32035,1.32035,0,0,0,1.89891-.0633l2.342-2.72178a1.251,1.251,0,0,0-.18989-1.83562l-19.179-13.92537a1.29709,1.29709,0,0,0-1.83566.18989Z" fill="#ffb600"/><path d="M249.55677,149.09187h0a1.28833,1.28833,0,0,0,.94945,1.51913l22.97687,5.94994a1.27047,1.27047,0,0,0,1.58243-1.01276l.633-3.54464a1.3402,1.3402,0,0,0-1.13934-1.51913l-23.60984-2.53189a1.36818,1.36818,0,0,0-1.39254,1.13935Z" fill="#ffb600"/><path d="M248.48073,136.30584h0a1.25612,1.25612,0,0,0,1.58243.82286l22.91358-6.26642a1.284,1.284,0,0,0,.88616-1.64572l-1.20264-3.35475a1.30934,1.30934,0,0,0-1.709-.75957l-21.71092,9.55787a1.29139,1.29139,0,0,0-.75957,1.64573Z" fill="#ffb600"/><path d="M241.13825,125.73521h0a1.27718,1.27718,0,0,0,1.77231-.0633L259.621,108.89816a1.24551,1.24551,0,0,0-.0633-1.83562l-2.78507-2.342a1.25093,1.25093,0,0,0-1.83561.18989l-14.052,19.05245a1.36137,1.36137,0,0,0,.25319,1.77232Z" fill="#ffb600"/><path d="M242.46749,158.14337l-4.74728-3.418c-.25319.31648-.50637.56967-.75958.88616l4.17762,4.11431a.71.71,0,0,0,1.01276-.06329c.0633-.0633.1266-.18989.25318-.25319.0633-.0633.12661-.18989.18989-.25319A.70593.70593,0,0,0,242.46749,158.14337Z" fill="#ff9015"/><path d="M261.45665,159.28272l-21.521-8.22864a1.89523,1.89523,0,0,1-.25319.50638,3.75838,3.75838,0,0,1-.25318.50638l20.06521,11.3302a1.26647,1.26647,0,0,0,1.77231-.50638,6.3889,6.3889,0,0,0,.44309-.94946c.1266-.31649.31649-.633.44309-.94946A1.30188,1.30188,0,0,0,261.45665,159.28272Z" fill="#ffb600"/><path d="M246.96158,147.636l-5.82335-.633-.18988,1.13935,5.69674,1.45584a.63306.63306,0,0,0,.82286-.50638,2.74105,2.74105,0,0,1,.0633-.31648c0-.1266.0633-.1899.0633-.31649C247.59455,148.01582,247.34137,147.636,246.96158,147.636Z" fill="#ff9015"/><path d="M265.50766,141.36961a5.53986,5.53986,0,0,0-.1266-1.01275,1.33789,1.33789,0,0,0-1.45583-1.13935l-22.787,3.54464a6.87923,6.87923,0,0,1,.0633,1.13935l23.04017-.12659a1.24506,1.24506,0,0,0,1.26594-1.32924A6.10932,6.10932,0,0,0,265.50766,141.36961Z" fill="#ffb600"/><path d="M246.64509,137.31859c-.0633-.12659-.0633-.25319-.1266-.31648-.0633-.1266-.0633-.1899-.1266-.31649a.67623.67623,0,0,0-.94946-.37978l-5.38026,2.342c.1266.37979.25319.69627.37979,1.07605l5.69674-1.51913A.67534.67534,0,0,0,246.64509,137.31859Z" fill="#ff9015"/><path d="M259.05134,122.57035c-.18988-.31648-.37978-.56967-.56967-.88616a4.0628,4.0628,0,0,0-.633-.82286,1.3128,1.3128,0,0,0-1.83561-.25319L238.1,134.97659a8.246,8.246,0,0,1,.633.94946l19.87531-11.58338A1.27394,1.27394,0,0,0,259.05134,122.57035Z" fill="#ffb600"/><path d="M235.94787,132.6346l4.11432-4.17761a.71.71,0,0,0-.0633-1.01275c-.0633-.0633-.18988-.1266-.25319-.25319-.0633-.0633-.18988-.1266-.25318-.18989a.71331.71331,0,0,0-1.01276.12659l-3.48134,4.684C235.3782,132.12823,235.69469,132.38141,235.94787,132.6346Z" fill="#ff9015"/><path d="M243.35365,108.58168a6.38735,6.38735,0,0,0-.94946-.44308c-.31648-.1266-.633-.31649-.94945-.44309a1.28069,1.28069,0,0,0-1.709.69627l-8.29193,21.33115a1.89533,1.89533,0,0,1,.50637.25319,3.75814,3.75814,0,0,1,.50637.25319L243.86,110.354A1.26644,1.26644,0,0,0,243.35365,108.58168Z" fill="#ffb600"/><path d="M228.47881,128.77347l1.45583-5.63345a.63307.63307,0,0,0-.50637-.82286c-.1266,0-.25318-.06329-.37978-.06329s-.18989-.0633-.31649-.0633a.7153.7153,0,0,0-.82286.56967l-.633,5.82335C227.71924,128.64688,228.099,128.71018,228.47881,128.77347Z" fill="#ff9015"/><path d="M223.03525,128.52029a6.87935,6.87935,0,0,1,1.13934-.0633l-.1266-22.85028a1.28333,1.28333,0,0,0-1.32924-1.26594c-.37979,0-.69627.06329-1.07606.06329a4.91927,4.91927,0,0,0-1.01276.1266,1.33788,1.33788,0,0,0-1.13934,1.45583Z" fill="#ffb600"/><path d="M218.92094,129.533c.37978-.12659.69627-.25319,1.07606-.37978l-1.58243-5.63345a.6841.6841,0,0,0-.88616-.44308c-.1266.0633-.25318.0633-.31649.1266-.1266.06329-.18988.06329-.31648.12659a.62947.62947,0,0,0-.37979.88616Z" fill="#ff9015"/><path d="M216.13586,130.98888l-11.64667-19.74872a1.27393,1.27393,0,0,0-1.77231-.44308c-.31649.18989-.56968.37978-.88616.56967a4.06344,4.06344,0,0,0-.82286.633,1.31281,1.31281,0,0,0-.25318,1.83562l14.495,17.78651A4.49211,4.49211,0,0,1,216.13586,130.98888Z" fill="#ffb600"/><path d="M212.90771,133.64736l-4.17762-4.11432a.71.71,0,0,0-1.01276.0633c-.0633.06329-.1266.18989-.25319.25319-.0633.06329-.1266.18989-.18988.25319a.71331.71331,0,0,0,.1266,1.01275l4.74729,3.41805C212.40134,134.28033,212.59122,133.96384,212.90771,133.64736Z" fill="#ff9015"/><path d="M208.98327,141.11642l-5.69674-1.45583a.63306.63306,0,0,0-.82286.50638,2.74105,2.74105,0,0,1-.0633.31648c0,.12659-.0633.1899-.0633.31649a.63381.63381,0,0,0,.633.75956l5.82335.633C208.85669,141.876,208.92,141.49621,208.98327,141.11642Z" fill="#ff9015"/><path d="M210.18593,137.69838a3.7589,3.7589,0,0,1,.25319-.50638l-20.06521-11.33019a1.26647,1.26647,0,0,0-1.77232.50637,6.38983,6.38983,0,0,0-.44308.94946c-.12661.31649-.31649.633-.44309.94946a1.30184,1.30184,0,0,0,.69627,1.709l21.521,8.22863A3.75808,3.75808,0,0,1,210.18593,137.69838Z" fill="#ffb600"/><path d="M24.91509,194.53924h2.40529a2.95894,2.95894,0,0,1,2.15211.82287,2.6977,2.6977,0,0,1,.88616,1.96221,2.59558,2.59558,0,0,1-.88616,1.96222,3.61757,3.61757,0,0,1,1.01275.69627,3.13639,3.13639,0,0,1,1.076,2.342,3.03857,3.03857,0,0,1-1.076,2.342,3.75025,3.75025,0,0,1-2.59518.94946h-2.975a.57461.57461,0,0,1-.44308-.1899.54709.54709,0,0,1-.18989-.37978v-10.001a.54716.54716,0,0,1,.18989-.37979A.91491.91491,0,0,1,24.91509,194.53924Zm.56967,1.13935v3.35476h1.83562a1.76739,1.76739,0,0,0,1.266-.50638,1.41875,1.41875,0,0,0,.50637-1.20265,1.85178,1.85178,0,0,0-.50637-1.20264,1.88192,1.88192,0,0,0-1.266-.50638H25.48476Zm0,4.43081v4.4308h2.4053a2.29121,2.29121,0,0,0,1.709-.633,2.14635,2.14635,0,0,0,0-3.16486,2.38965,2.38965,0,0,0-1.709-.633Z" fill="#1b538c"/><path d="M35.23253,195.10891a.54713.54713,0,0,1,.18989-.37978.61185.61185,0,0,1,.88616,0,.547.547,0,0,1,.18989.37978v10.001a.54712.54712,0,0,1-.18989.37979.61188.61188,0,0,1-.88616,0,.54713.54713,0,0,1-.18989-.37979Z" fill="#1b538c"/><path d="M52.25947,200.1094a5.07326,5.07326,0,0,1-1.77232,3.92442,6.18968,6.18968,0,0,1-4.30421,1.64573,6.30238,6.30238,0,0,1-4.3042-1.64573,5.231,5.231,0,0,1,0-7.84885,6.18966,6.18966,0,0,1,4.3042-1.64573,6.30239,6.30239,0,0,1,4.30421,1.64573A5.07325,5.07325,0,0,1,52.25947,200.1094Zm-6.07653-4.43081a4.83333,4.83333,0,0,0-3.41805,1.32925,4.09079,4.09079,0,0,0-1.39254,3.16486,4.18452,4.18452,0,0,0,1.39254,3.16486,5.05926,5.05926,0,0,0,6.8361,0,4.09078,4.09078,0,0,0,1.39254-3.16486,4.18445,4.18445,0,0,0-1.39254-3.16486A4.39384,4.39384,0,0,0,46.18294,195.67859Z" fill="#1b538c"/><path d="M56.56368,194.53924H58.969a4.03453,4.03453,0,0,1,2.78508,1.076,3.37374,3.37374,0,0,1,1.13935,2.53189,3.278,3.278,0,0,1-1.13935,2.53189,4.03449,4.03449,0,0,1-2.78508,1.07605H57.19665v3.35475a.54716.54716,0,0,1-.18989.37979.61188.61188,0,0,1-.88616,0,.54709.54709,0,0,1-.18989-.37979v-10.001a.54708.54708,0,0,1,.18989-.37978A.68376.68376,0,0,1,56.56368,194.53924Zm.633,1.13935v5.00048h1.83562a2.83026,2.83026,0,0,0,1.96221-.75957,2.46075,2.46075,0,0,0,.82286-1.77232,2.24368,2.24368,0,0,0-.82286-1.77232,2.72308,2.72308,0,0,0-1.96221-.75957H57.19665Z" fill="#1b538c"/><path d="M66.69123,195.10891a.54708.54708,0,0,1,.18989-.37978.61185.61185,0,0,1,.88616,0,.54709.54709,0,0,1,.18989.37978v4.43081H74.0337v-4.43081a.54708.54708,0,0,1,.18989-.37978.61185.61185,0,0,1,.88616,0,.54709.54709,0,0,1,.18989.37978v10.001a.54712.54712,0,0,1-.18989.37979.61188.61188,0,0,1-.88616,0,.54713.54713,0,0,1-.18989-.37979v-4.4308H67.95717v4.4308a.54716.54716,0,0,1-.18989.37979.61188.61188,0,0,1-.88616,0,.54713.54713,0,0,1-.18989-.37979Z" fill="#1b538c"/><path d="M80.93309,201.75512,79.414,205.29976c0,.0633-.0633.12659-.12659.1899a.61188.61188,0,0,1-.88616,0,.54713.54713,0,0,1-.18989-.37979.3806.3806,0,0,1,.06329-.25319l4.24091-9.93765a.33919.33919,0,0,1,.18989-.25319.61188.61188,0,0,1,.88616,0,.32887.32887,0,0,1,.12659.25319l4.24091,9.93765c.0633.0633.0633.1266.0633.25319a.54716.54716,0,0,1-.18989.37979.61188.61188,0,0,1-.88616,0c-.0633-.06331-.12659-.1266-.12659-.1899l-1.51914-3.54464Zm3.86113-1.07605-1.709-4.051-1.709,4.051Z" fill="#1b538c"/><path d="M91.63032,194.53924h3.03826a3.86315,3.86315,0,0,1,2.59518.94946,3.1364,3.1364,0,0,1,1.07606,2.342,3.03858,3.03858,0,0,1-1.07606,2.342,3.91844,3.91844,0,0,1-1.07605.69627l2.65848,3.86113a.48349.48349,0,0,1,.1266.31649.5471.5471,0,0,1-.1899.37978.57461.57461,0,0,1-.44307.1899.52131.52131,0,0,1-.50638-.31649l-2.84838-4.17762H92.32658v3.92443a.5471.5471,0,0,1-.1899.37978.61184.61184,0,0,1-.88615,0,.5471.5471,0,0,1-.1899-.37978v-10.001a.54714.54714,0,0,1,.1899-.37979A.53513.53513,0,0,1,91.63032,194.53924ZM92.2,195.67859v4.43081h2.4053a2.29119,2.29119,0,0,0,1.709-.633,2.14635,2.14635,0,0,0,0-3.16486,2.38969,2.38969,0,0,0-1.709-.633Z" fill="#1b538c"/><path d="M107.51791,205.36306l-4.30421-7.91214v7.659a.54714.54714,0,0,1-.1899.37979.61186.61186,0,0,1-.88615,0,.5471.5471,0,0,1-.1899-.37979v-10.001a.5471.5471,0,0,1,.1899-.37978.57461.57461,0,0,1,.44307-.1899.66474.66474,0,0,1,.56968.31649l4.93718,9.0515,4.93718-9.0515a.66471.66471,0,0,1,.56967-.31649.57463.57463,0,0,1,.44308.1899.54709.54709,0,0,1,.18989.37978v10.001a.54716.54716,0,0,1-.18989.37979.61188.61188,0,0,1-.88616,0,.54713.54713,0,0,1-.18989-.37979v-7.659l-4.30421,7.97544a.51369.51369,0,0,1-.50638.25319C107.77109,205.67955,107.58121,205.553,107.51791,205.36306Z" fill="#1b538c"/><path d="M119.86086,201.75512l-1.51913,3.54464c0,.0633-.0633.12659-.1266.1899a.61186.61186,0,0,1-.88615,0,.54714.54714,0,0,1-.1899-.37979.3805.3805,0,0,1,.06331-.25319l4.2409-9.93765a.33921.33921,0,0,1,.1899-.25319.61186.61186,0,0,1,.88615,0,.32885.32885,0,0,1,.1266.25319l4.24091,9.93765c.0633.0633.0633.1266.0633.25319a.54714.54714,0,0,1-.1899.37979.61186.61186,0,0,1-.88615,0c-.0633-.06331-.1266-.1266-.1266-.1899l-1.51912-3.54464Zm3.92442-1.07605-1.709-4.051-1.709,4.051Z" fill="#1b538c"/><path d="M138.78671,203.46415a.57465.57465,0,0,1,.44308.18989.47475.47475,0,0,1,0,.75958,6.368,6.368,0,0,1-3.79784,1.26594,6.30242,6.30242,0,0,1-4.30421-1.64573,5.23106,5.23106,0,0,1,0-7.84885,6.1897,6.1897,0,0,1,4.30421-1.64573,6.4152,6.4152,0,0,1,3.86114,1.266.47474.47474,0,0,1,0,.75957.61188.61188,0,0,1-.88616,0,4.90732,4.90732,0,0,0-2.975-.94946,4.8333,4.8333,0,0,0-3.418,1.32925,4.09075,4.09075,0,0,0-1.39254,3.16485,4.18445,4.18445,0,0,0,1.39254,3.16486,4.83336,4.83336,0,0,0,3.418,1.32925,5.096,5.096,0,0,0,3.03827-.94946A.348.348,0,0,1,138.78671,203.46415Z" fill="#1b538c"/><path d="M143.02763,194.53924h7.27917a.57461.57461,0,0,1,.44308.1899.47474.47474,0,0,1,0,.75957.57464.57464,0,0,1-.44308.18989h-6.7095V199.603h4.87388a.57465.57465,0,0,1,.44308.18989.47474.47474,0,0,1,0,.75957.57459.57459,0,0,1-.44308.1899H143.5973v3.92442h6.7095a.57464.57464,0,0,1,.44308.18989.47475.47475,0,0,1,0,.75958.57464.57464,0,0,1-.44308.18989h-7.27917a.57462.57462,0,0,1-.44308-.18989.54714.54714,0,0,1-.1899-.37979v-10.001a.54714.54714,0,0,1,.1899-.37978C142.71114,194.60254,142.83773,194.53924,143.02763,194.53924Z" fill="#1b538c"/><path d="M153.978,195.10891a.54713.54713,0,0,1,.18989-.37978.61185.61185,0,0,1,.88616,0,.54709.54709,0,0,1,.18989.37978v6.70951a2.59557,2.59557,0,0,0,.88616,1.96221,3.22569,3.22569,0,0,0,4.3042,0,2.69769,2.69769,0,0,0,.88616-1.96221v-6.70951a.54713.54713,0,0,1,.18989-.37978.61185.61185,0,0,1,.88616,0,.54709.54709,0,0,1,.18989.37978v6.70951a3.70936,3.70936,0,0,1-1.26594,2.78507,4.31248,4.31248,0,0,1-3.03827,1.13935,4.15973,4.15973,0,0,1-2.975-1.13935,3.70936,3.70936,0,0,1-1.26594-2.78507v-6.70951Z" fill="#1b538c"/><path d="M166.19439,195.67859a.57462.57462,0,0,1-.44308-.18989.47472.47472,0,0,1,0-.75957.5746.5746,0,0,1,.44308-.1899h7.91214a.5746.5746,0,0,1,.44308.1899.47472.47472,0,0,1,0,.75957.57462.57462,0,0,1-.44308.18989h-3.35475v9.49458a.54716.54716,0,0,1-.18989.37979.61188.61188,0,0,1-.88616,0,.54713.54713,0,0,1-.18989-.37979v-9.49458Z" fill="#1b538c"/><path d="M178.34744,195.10891a.5471.5471,0,0,1,.1899-.37978.61184.61184,0,0,1,.88615,0,.54706.54706,0,0,1,.1899.37978v10.001a.54714.54714,0,0,1-.1899.37979.61186.61186,0,0,1-.88615,0,.5471.5471,0,0,1-.1899-.37979Z" fill="#1b538c"/><path d="M192.71591,203.46415a.57469.57469,0,0,1,.44309.18989.47476.47476,0,0,1,0,.75958,6.3679,6.3679,0,0,1-3.79783,1.26594,6.30241,6.30241,0,0,1-4.30421-1.64573,5.231,5.231,0,0,1,0-7.84885,6.18967,6.18967,0,0,1,4.30421-1.64573,6.41523,6.41523,0,0,1,3.86113,1.266.47475.47475,0,0,1,0,.75957.6119.6119,0,0,1-.88618,0,4.90729,4.90729,0,0,0-2.975-.94946,4.83331,4.83331,0,0,0-3.41805,1.32925,4.09077,4.09077,0,0,0-1.39253,3.16485,4.42113,4.42113,0,0,0,1.39253,3.16486,4.83335,4.83335,0,0,0,3.41805,1.32925,5.09594,5.09594,0,0,0,3.03825-.94946A.34812.34812,0,0,1,192.71591,203.46415Z" fill="#1b538c"/><path d="M198.98233,201.75512l-1.51913,3.54464c0,.0633-.0633.12659-.1266.1899a.6119.6119,0,0,1-.88618,0,.54707.54707,0,0,1-.18988-.37979.38055.38055,0,0,1,.0633-.25319l4.24092-9.93765a.3392.3392,0,0,1,.18988-.25319.6119.6119,0,0,1,.88618,0,.32888.32888,0,0,1,.1266.25319l4.24092,9.93765c.0633.0633.0633.1266.0633.25319a.54716.54716,0,0,1-.18989.37979.61189.61189,0,0,1-.88617,0c-.0633-.06331-.1266-.1266-.1266-.1899l-1.51913-3.54464Zm3.92443-1.07605-1.709-4.051-1.709,4.051Z" fill="#1b538c"/><path d="M209.10987,195.10891a.54717.54717,0,0,1,.18989-.37978.61187.61187,0,0,1,.88617,0,.547.547,0,0,1,.18989.37978v9.49458h6.07653a.57469.57469,0,0,1,.44309.18989.47476.47476,0,0,1,0,.75958.57466.57466,0,0,1-.44309.18989h-6.7095a.57468.57468,0,0,1-.44309-.18989.54709.54709,0,0,1-.18989-.37979Z" fill="#1b538c"/><path d="M218.92094,204.16041c-.0633-.12659-.12661-.18989-.12661-.31648a.54717.54717,0,0,1,.18989-.37979.62325.62325,0,0,1,.94946.06329c.0633.0633.1266.18989.18988.25318a2.363,2.363,0,0,0,1.64573.75957,2.45652,2.45652,0,0,0,1.77231-.50638,1.86438,1.86438,0,0,0,.82286-1.51913,2.04129,2.04129,0,0,0-.56967-1.64573,2.65987,2.65987,0,0,0-1.64573-.75956,3.20774,3.20774,0,0,1-2.0888-.94946,2.43942,2.43942,0,0,1-.69627-2.02551,2.67459,2.67459,0,0,1,1.07606-1.89891,3.09359,3.09359,0,0,1,1.96221-.69628,2.94239,2.94239,0,0,1,2.2787,1.01276c.12661.12659.18989.25319.31649.37979a.4743.4743,0,0,1,.0633.31648.54715.54715,0,0,1-.18988.37979.6119.6119,0,0,1-.88618,0,1.38083,1.38083,0,0,0-.25318-.31648,1.59357,1.59357,0,0,0-1.26595-.56968,1.66769,1.66769,0,0,0-1.32924.37979,1.73707,1.73707,0,0,0-.633,1.13935,1.44343,1.44343,0,0,0,.44308,1.20265,1.55889,1.55889,0,0,0,1.20265.56967,3.49364,3.49364,0,0,1,2.46858,1.13935,3.09464,3.09464,0,0,1,.88616,2.08881v.31648a3.1132,3.1132,0,0,1-1.26594,2.2787,3.90021,3.90021,0,0,1-2.342.82287,3.64733,3.64733,0,0,1-2.78507-1.20264C219.11082,204.41361,218.98424,204.287,218.92094,204.16041Z" fill="#1b538c"/><path d="M24.7252,179.53781a1.33634,1.33634,0,0,1-.37978-1.01276V144.851a1.30692,1.30692,0,0,1,1.39253-1.39254h8.41853a18.62243,18.62243,0,0,1,9.43128,2.342,17.25852,17.25852,0,0,1,6.51961,6.45631,20.16105,20.16105,0,0,1,0,18.86256,16.97991,16.97991,0,0,1-6.51961,6.51961,18.78768,18.78768,0,0,1-9.43128,2.342H25.738A1.6689,1.6689,0,0,1,24.7252,179.53781Zm9.43128-2.08881a15.88926,15.88926,0,0,0,7.97544-2.0255,14.28814,14.28814,0,0,0,5.50686-5.63345,16.50454,16.50454,0,0,0,1.96221-8.102,16.0932,16.0932,0,0,0-1.96221-8.03874,14.71311,14.71311,0,0,0-5.50686-5.63345,15.26523,15.26523,0,0,0-7.97544-2.02551h-7.026V177.449Z" fill="#1b538c"/><path d="M77.76823,155.80137a12.32972,12.32972,0,0,1,4.684,4.684,13.39256,13.39256,0,0,1,1.709,6.7095v11.33019a1.43748,1.43748,0,0,1-.37979,1.01276,1.33636,1.33636,0,0,1-1.01275.37979,1.43743,1.43743,0,0,1-1.01275-.37979,1.33635,1.33635,0,0,1-.37979-1.01276v-3.67123a11.02831,11.02831,0,0,1-4.2409,3.92442,12.6083,12.6083,0,0,1-6.01324,1.45584,13.39256,13.39256,0,0,1-6.7095-1.709,12.32972,12.32972,0,0,1-4.684-4.684,13.157,13.157,0,0,1-1.709-6.6462,13.39266,13.39266,0,0,1,1.709-6.7095,12.32972,12.32972,0,0,1,4.684-4.684,13.90082,13.90082,0,0,1,13.3557,0Zm-1.45583,20.445a9.46871,9.46871,0,0,0,3.67123-3.73453,11.29856,11.29856,0,0,0,0-10.63393,9.46877,9.46877,0,0,0-3.67123-3.73453,10.28023,10.28023,0,0,0-14.17858,3.73453,11.29856,11.29856,0,0,0,0,10.63393,9.9059,9.9059,0,0,0,3.67124,3.73453,10.45447,10.45447,0,0,0,5.25367,1.32925A9.69846,9.69846,0,0,0,76.3124,176.24636Z" fill="#1b538c"/><path d="M112.39179,155.48489a2.063,2.063,0,0,1-.1899.633l-15.6977,34.05388a1.1733,1.1733,0,0,1-1.076.82287,2.78615,2.78615,0,0,1-.633-.1266A1.24783,1.24783,0,0,1,93.909,189.792a2.06285,2.06285,0,0,1,.18989-.633l4.684-10.12755a3.287,3.287,0,0,0-.18989-.31648l-10.25414-22.4705a1.68544,1.68544,0,0,1-.18989-.75956,1.17328,1.17328,0,0,1,.82286-1.07605,1.68534,1.68534,0,0,1,.75957-.1899,1.1733,1.1733,0,0,1,1.07605.82287l9.49457,20.76147,9.55788-20.69817a1.17328,1.17328,0,0,1,1.07605-.82287,2.24884,2.24884,0,0,1,.633.1266A1.27121,1.27121,0,0,1,112.39179,155.48489Z" fill="#1b538c"/><path d="M138.53352,177.95538a17.96451,17.96451,0,0,1-6.7095-6.7095,19.61485,19.61485,0,0,1,0-19.05245,17.52029,17.52029,0,0,1,6.7095-6.7095,19.61486,19.61486,0,0,1,19.05246,0,17.96458,17.96458,0,0,1,6.7095,6.7095,19.61485,19.61485,0,0,1,0,19.05245,17.52022,17.52022,0,0,1-6.7095,6.7095,19.28572,19.28572,0,0,1-9.49458,2.46859A18.70141,18.70141,0,0,1,138.53352,177.95538Zm17.65991-2.40529a14.92472,14.92472,0,0,0,5.69675-5.69675,16.8802,16.8802,0,0,0,0-16.26737,14.92465,14.92465,0,0,0-5.69675-5.69675,15.92878,15.92878,0,0,0-8.102-2.08881,16.33155,16.33155,0,0,0-8.16533,2.08881,14.92472,14.92472,0,0,0-5.69675,5.69675,15.92888,15.92888,0,0,0-2.08881,8.102,16.33171,16.33171,0,0,0,2.08881,8.16533,14.92465,14.92465,0,0,0,5.69675,5.69675,16.8802,16.8802,0,0,0,16.26737,0Z" fill="#1b538c"/><path d="M191.57655,155.42158a10.05982,10.05982,0,0,1,4.17762,4.11432,12.82073,12.82073,0,0,1,1.51912,6.45631v12.59614a1.43751,1.43751,0,0,1-.37978,1.01275,1.33636,1.33636,0,0,1-1.01276.37979,1.43744,1.43744,0,0,1-1.01276-.37979,1.33638,1.33638,0,0,1-.37979-1.01275V165.99221c0-2.975-.82285-5.19037-2.53188-6.7728a9.06047,9.06047,0,0,0-6.51961-2.342,10.391,10.391,0,0,0-4.49411.94945,8.311,8.311,0,0,0-3.22816,2.65848,6.64524,6.64524,0,0,0-1.13935,3.73454v14.30516a1.43744,1.43744,0,0,1-.37979,1.01276,1.33634,1.33634,0,0,1-1.01275.37979,1.43744,1.43744,0,0,1-1.01276-.37979,1.33635,1.33635,0,0,1-.37979-1.01276v-22.787a1.39365,1.39365,0,1,1,2.78509,0v2.4053a10.57472,10.57472,0,0,1,3.86113-3.03827,10.92448,10.92448,0,0,1,5.00048-1.076A13.50474,13.50474,0,0,1,191.57655,155.42158Z" fill="#1b538c"/><path d="M221.95919,155.73807a11.44779,11.44779,0,0,1,4.17762,4.4941,13.58161,13.58161,0,0,1,1.51913,6.51961,1.28821,1.28821,0,0,1-.37979.94946,1.33634,1.33634,0,0,1-1.01276.37978H206.70457a10.014,10.014,0,0,0,1.45583,4.93718,9.48506,9.48506,0,0,0,3.48134,3.418,9.83864,9.83864,0,0,0,4.93717,1.20264,10.67471,10.67471,0,0,0,3.67123-.633,7.98963,7.98963,0,0,0,2.91168-1.64573,1.552,1.552,0,0,1,1.01276-.37979,1.16719,1.16719,0,0,1,.82285.25319,1.32139,1.32139,0,0,1,.50637,1.01276,1.1053,1.1053,0,0,1-.44309.88616,11.59818,11.59818,0,0,1-3.92443,2.2154,13.85765,13.85765,0,0,1-4.62069.88616,13.36482,13.36482,0,0,1-6.5829-1.64573,11.69315,11.69315,0,0,1-4.4941-4.6207,13.85705,13.85705,0,0,1-1.64573-6.7095,14.80617,14.80617,0,0,1,1.51913-6.7728,11.10193,11.10193,0,0,1,4.24091-4.62069,12.17748,12.17748,0,0,1,6.26642-1.64573A10.95162,10.95162,0,0,1,221.95919,155.73807Zm-12.21634,3.48135a10.445,10.445,0,0,0-2.975,6.393h18.1663a9.50106,9.50106,0,0,0-2.78507-6.393,8.44267,8.44267,0,0,0-6.26642-2.4053A8.10756,8.10756,0,0,0,209.74285,159.21942Z" fill="#1b538c"/></svg>