<svg id="Layer_1" data-name="Layer 1" xmlns="http://www.w3.org/2000/svg" viewBox="0 0 300 300"><path d="M240.07373,24.977h22.6837C238.0432,52.68193,214.33954,79.59855,190.19868,106.119l-2.04911-1.6235C205.1744,77.7224,222.82938,51.35542,240.07373,24.977Z" fill="#184272"/><path d="M273.99367,49.55207c.34473,6.61171.66584,12.77034,1.00633,19.30074q-37.22682,24.39012-74.10672,48.5529l-1.26116-1.25163c.74984-1.17877,1.27928-2.60428,2.2818-3.50011q35.132-31.39271,70.36392-62.67356A9.14494,9.14494,0,0,1,273.99367,49.55207Z" fill="#184272"/><path d="M198.22449,24.92471h15.81026c-13.62658,27.01307-26.8938,53.31377-40.161,79.61449l-1.649-.7008C180.92163,77.44186,189.61851,51.04532,198.22449,24.92471Z" fill="#184272"/><path d="M274.87621,94.161v14.82959l-73.684,24.26845-.67949-1.61644Z" fill="#184272"/><path d="M31.57593,109.03413l4.72929-12.419,71.85137,36.19311-.49591,1.29682Z" fill="#184272"/><path d="M158.8706,103.60486c1.50173-26.08067,3.00343-52.16133,4.52527-78.59161h13.1855l-16.358,78.67214Z" fill="#184272"/><path d="M97.8488,36.03324l12.28572-4.89712c8.498,25.80817,16.7607,50.9019,25.02343,75.99564l-1.17612.52963Z" fill="#184272"/><path d="M102.27147,146.28354,25,141.94647l1.3022-13.02421,76.0379,15.72817Z" fill="#184272"/><path d="M38.14072,206.95776,32.928,194.9957l74.39587-24.55739.61144,1.32624Z" fill="#184272"/><path d="M103.01342,159.62468,27.238,175.42752l-2.13947-12.88725,77.665-4.4218Z" fill="#184272"/><path d="M129.98008,26.27868l12.97623-1.02174c1.48717,26.59531,2.92357,52.28268,4.36,77.97006l-1.29308.16855C140.73955,77.99781,135.45589,52.60008,129.98008,26.27868Z" fill="#184272"/><path d="M110.25961,118.95867c-1.32218-.32375-2.85721-.31973-3.93489-1.02Q77.86849,99.44885,49.50865,80.81053c-.89156-.58338-1.82939-1.096-3.14149-1.87725L54.5471,68.53452c6.25669,5.67683,12.08161,10.97141,17.917,16.25449q18.9591,17.16483,37.92668,34.32028Z" fill="#184272"/><path d="M119.60911,109.68442c-7.50358-8.20848-15.046-16.38186-22.50005-24.63509C89.29034,76.39236,81.54718,67.667,73.79438,58.9507c-1.295-1.4559-2.4709-3.01774-4.22127-5.169l9.72034-7.67405c1.24063,1.639,2.37093,2.94312,3.29393,4.38042q17.1657,26.73077,34.2436,53.51774a44.18221,44.18221,0,0,1,2.64228,5.82134Z" fill="#184272"/><path d="M135.11434,197.576c-7.79493,23.62236-15.58986,47.24472-23.64815,71.66521l-11.79934-4.334C111.28394,241.84,122.56348,219.443,133.843,197.046Z" fill="#184272"/><path d="M160.19665,200.63048c4.9656,23.93339,9.93122,47.8668,15.00244,72.3093l-11.87986,1.51659c-2.13456-24.7777-2.58516-49.25978-4.62042-73.62995Z" fill="#184272"/><path d="M111.29362,185.40576c-17.85946,16.09264-35.7189,32.18526-54.1693,48.81041-2.81454-3.42512-5.21185-6.34248-8.08425-9.838,5.827-3.73323,10.92445-7.00021,16.023-10.26538q20.64945-13.224,41.31843-26.41733a36.00882,36.00882,0,0,1,4.80332-2.16875Z" fill="#184272"/><path d="M171.2749,197.41615c1.05824,1.129,2.45289,2.08758,3.12413,3.41274q14.59689,28.81707,29.01372,57.72532c.46882.93592.8024,1.93964,1.53055,3.72476-3.44873,1.59976-6.73088,3.12227-10.71355,4.96972-2.21176-6.6482-4.24-12.69237-6.23379-18.74788q-7.65906-23.26157-15.28411-46.53427c-.50211-1.53328-.87128-3.11012-1.30216-4.66672Z" fill="#184272"/><path d="M147.3205,201.0615c-1.37073,24.43154-2.74146,48.86308-4.15253,74.01379l-12.23479-1.44576c5.14906-24.74723,10.137-48.7202,15.125-72.69316Z" fill="#184272"/><path d="M203.988,144.67315c23.30585-4.84357,46.6117-9.68713,70.59145-14.67077V142.284l-70.44852,4.008Z" fill="#184272"/><path d="M198.81279,170.40672c22.50219,7.41571,45.00437,14.83143,68.52014,22.58119-1.53927,3.7828-2.88811,7.09764-4.57731,11.2489L198.287,171.68023Z" fill="#184272"/><path d="M120.57782,194.86674a7.52589,7.52589,0,0,1-.54929,2.55358c-12.45259,19.07414-24.95684,38.11455-37.89715,57.83808L71.73728,248.261,120.686,194.73791Z" fill="#184272"/><path d="M274.28827,162.12244c-.5014,4.26786-.87212,7.42345-1.37211,11.67943-23.57854-4.16176-46.5424-9.551-69.65977-14.16325l.17884-1.496Z" fill="#184272"/><path d="M252.89362,221.11893l-6.96615,9.48763c-16.78035-15.27623-33.12636-30.15707-49.47237-45.03791l.69017-.96324C215.52,196.64028,233.89467,208.67517,252.89362,221.11893Z" fill="#184272"/><path d="M186.68778,195.06548c5.37991,5.73954,10.848,11.39935,16.12043,17.23607,9.48563,10.5009,18.85386,21.1079,28.8934,32.36852l-9.23751,7.292c-4.10043-6.40656-7.73864-12.10647-11.39243-17.79638-6.87823-10.71126-13.80383-21.39238-20.61758-32.14447-1.41554-2.23372-2.43032-4.72156-3.62979-7.09228Z" fill="#184272"/><path d="M171.40969,197.29982c-.148-.29686-.296-.59372-.13479-.27035v.38668Z" fill="#184272"/><path d="M119.47326,109.8271l.51678-.03522-.38093-.10746Z" fill="#184272"/><path d="M110.39073,119.10929l-.28054.1357.14943-.28632Z" fill="#184272"/><path d="M111.18487,185.52672l.195-.26054-.08624.13958Z" fill="#184272"/><path d="M120.686,194.73791l.23526.136-.12356-.2397-.21991.23255Z" fill="#184272"/><polygon points="186.824 194.929 186.505 194.766 186.688 195.065 186.824 194.929" fill="#184272"/></svg>