<svg id="Layer_1" data-name="Layer 1" xmlns="http://www.w3.org/2000/svg" viewBox="0 0 300 300"><path d="M92.21,188.1a31.31,31.31,0,0,0,0,12.83c14.14-1.72,26,2.53,35.35,13.06a34.62,34.62,0,0,1,8.31,17.2c-14.07,3.68-26.59,1.44-37.26-8.21S84.46,201,86.7,186.83C69.62,179.94,60.12,167.68,60,149c-.07-11.54,6.79-22.94,12.79-27a37.4,37.4,0,0,1,12.26,25.44c.77,10-2.27,19-8.58,27a29.53,29.53,0,0,0,11.71,6.85c8.36-18.05,22.36-25.94,41.78-24.51a22.51,22.51,0,0,0-.08-13.23c-13.5,1.33-25.12-2.68-34.44-12.77-4.24-4.59-8.54-13.68-8.25-17.19a37.85,37.85,0,0,1,27.92,2.36c9,4.39,15,11.6,18.93,20.82,4.49-1.62,8.56-3.59,11.89-6.92C134.71,113.5,134.49,97.37,146,81a33.85,33.85,0,0,0-11.5-6.62c-4.88,11.9-13.25,19.93-25.53,23.67-7.13,2.17-16.5,1.79-22-.66a35,35,0,0,1,16.93-24.34c16-9.51,31.57-7.46,46.12,3.77,13-10.16,27.18-12.89,42.36-5.8,11.12,5.19,17.76,14.33,20.87,26.46a36.52,36.52,0,0,1-28.6-1.88c-9.07-4.42-15.35-11.63-19.08-21.18A34.16,34.16,0,0,0,153.92,81c11.49,16.27,11.33,32.4.21,48.53,2,2.68,7.48,6,11.78,7,4.67-11.1,12.52-19,24.12-22.78a37.92,37.92,0,0,1,22.66-.25c-.19,6.85-6.87,17.9-15.3,23.46a40.27,40.27,0,0,1-27.4,6.49,24.06,24.06,0,0,0-.14,13.3c19.57-1.49,33.47,6.47,41.84,24.5a31.92,31.92,0,0,0,11.75-6.72c-8.35-11.21-10.86-23.37-6.65-36.67,2-6.29,7.19-13.8,10.69-15.75,9.3,7.46,14.88,22.16,11.55,36.35s-12.18,23.32-25.75,28.22c2.55,17.41-2.95,31.37-17.86,40.76-9.56,6-20.14,7-31.33,3.69a36.76,36.76,0,0,1,15.72-23.73A38.09,38.09,0,0,1,207.72,201a30.17,30.17,0,0,0,0-12.9c-19.67,1.5-33.54-6.53-41.91-24.52a31.35,31.35,0,0,0-12,6.79c7.73,10.33,10.58,21.59,7.28,34-2,7.61-7.05,15.65-11,18.21-10.54-7.69-20-31.31-4.08-52.18a29.62,29.62,0,0,0-11.9-6.91C125.94,181.5,111.94,189.49,92.21,188.1Zm43.3-46a38.42,38.42,0,0,1,.05,16A42.4,42.4,0,0,1,150,166.37c4.21-4,9.24-6.28,14.43-8.39a38,38,0,0,1,0-16A39.61,39.61,0,0,1,150,133.66a44.48,44.48,0,0,1-6.62,4.9C141,140,138.32,140.84,135.51,142.09ZM94,206.68c4.47,13.15,19.37,22.8,34.84,20.27C123.71,211.57,105.34,203.41,94,206.68Zm77.4,20.26c15.19,2.5,30-6.94,34.74-20.4C191.06,203.11,174.24,215.1,171.35,226.94ZM128.7,73.41a4,4,0,0,0-2.73-.72A33.16,33.16,0,0,0,94.48,91.56c-.32.65-.85,1.34-.27,2.13C109.45,95.83,124.1,86.35,128.7,73.41ZM206,93.67c-1.39-6.31-8.58-14.31-16.22-17.82-5.85-2.68-12-3.95-18.53-2.75C175.41,85.87,190.2,95.94,206,93.67Zm21.58,76.45c9.65-11.84,9-29.46-.11-40.25C216.84,142.16,219.05,161.37,227.53,170.12Zm-155,.09c10.22-11.79,8.83-30.78,0-40.11C63.54,140.37,62.55,157.91,72.48,170.21ZM149.93,85.5c-9.73,11.5-8.73,30.15.09,39.81C159.53,114.08,159,95.82,149.93,85.5Zm0,129.17c10.63-12.82,7.83-31.73-.09-39.69C141,185.16,140.43,203.25,150,214.67ZM94,182.44c15.28,2.55,30.87-8.38,34.07-20.08C114.16,160,98.71,169.23,94,182.44Zm77.72-20.12c4.49,13.74,20.91,22.65,34.09,20.05C201.1,169.11,186,160.22,171.73,162.32Zm-77.66-44.6c5.22,15.2,23.86,23,34.1,19.77C123.61,125.33,109.91,115.61,94.07,117.72Zm111.81,0c-16.33-2.41-30.71,8.8-34.08,19.9C183.56,140.44,200.75,132.1,205.88,117.74Z" fill="#4c9633"/></svg>