<svg id="Layer_1" data-name="Layer 1" xmlns="http://www.w3.org/2000/svg" viewBox="0 0 300 300"><path d="M129.26751,167.78275H122.6608l-20.094-25.84782v25.83084H96.60326v-35.457a11.78352,11.78352,0,0,1,2.8986-.11152c.99648-.03543,1.99523-.00783,3.08708-.00783l20.53125,26.37072V132.42458a23.5934,23.5934,0,0,1,6.14732-.11758Z" fill="#a2c856"/><path d="M25,132.18938c2.42977,0,4.7672-.00251,7.10463.00068,2.47223.00336,4.95011-.09123,7.41529.04372a20.90348,20.90348,0,0,1,9.61757,2.65576,14.50458,14.50458,0,0,1,7.09331,9.16181,20.88,20.88,0,0,1-1.28374,14.98035,14.49017,14.49017,0,0,1-8.27036,7.24381,25.3849,25.3849,0,0,1-8.73216,1.55321c-4.03363.01883-8.06741.006-12.10112.00675-.25468.00005-.50936,0-.84342,0Zm5.974,5.525v24.4092c2.53374,0,4.99566.00512,7.45754-.00162a16.06526,16.06526,0,0,0,5.68226-1.06045,9.50108,9.50108,0,0,0,5.71037-5.33081,15.33213,15.33213,0,0,0,.41929-10.36558c-1.117-3.8001-3.85764-5.86263-7.52572-6.93364a24.14418,24.14418,0,0,0-5.23716-.68319C35.3357,137.60611,33.1742,137.71436,30.974,137.71436Z" fill="#a2c856"/><path d="M241.453,167.77628H234.9506l-3.53507-7.96651H213.61061l-3.53335,7.96285h-6.5038L219.24267,132.232H225.783C230.99046,144.0441,236.19888,155.85842,241.453,167.77628ZM222.512,139.5488l-6.38277,14.46655h12.77456C226.78107,149.211,224.6985,144.49757,222.512,139.5488Z" fill="#a2c856"/><path d="M249.77441,167.78871h-7.52714c4.03625-6.18989,8.11719-12.15515,12.15492-18.27892-3.73223-5.69966-7.47609-11.417-11.29833-17.25413h7.50719c2.598,3.90837,5.2436,7.88847,7.99653,12.02995,2.82881-3.98934,5.28026-8.12845,8.07072-12.05489h7.36631c-1.71637,3.05611-3.71719,5.77768-5.54174,8.60781-1.8454,2.8625-3.72575,5.70252-5.67494,8.68095,4.03145,6.04031,8.06683,12.08657,12.17207,18.23749h-7.54959c-2.87087-4.36977-5.77923-8.79665-8.81237-13.41346C255.54618,158.87711,252.71817,163.37807,249.77441,167.78871Z" fill="#a2c856"/><path d="M198.73939,132.23556h6.80868c-4.7927,11.91534-9.541,23.72026-14.29822,35.54738h-6.83239q-7.0932-17.63236-14.28655-35.5136H176.939c3.59454,8.71352,7.20418,17.4637,10.89642,26.41408C191.51968,149.74717,195.1163,141.02346,198.73939,132.23556Z" fill="#3b7bb8"/><path d="M149.93307,132.232h6.44812l15.67813,35.54148h-6.50544c-4.113-9.32326-8.22962-18.65453-12.43925-28.19672-4.19858,9.52161-8.31489,18.85661-12.43941,28.21026h-6.26851C134.51373,166.88111,148.66048,134.50061,149.93307,132.232Z" fill="#3b7bb8"/><path d="M85.37066,132.22749h6.61691c-4.39641,7.3094-8.87151,14.3944-13.22876,21.59446v13.9466H72.668V153.90377L59.36184,132.26683h6.659l9.64122,16.03175C78.95727,142.84391,82.15739,137.5466,85.37066,132.22749Z" fill="#a2c856"/></svg>