<svg id="Layer_1" data-name="Layer 1" xmlns="http://www.w3.org/2000/svg" viewBox="0 0 300 300"><circle cx="150.0075" cy="232.01959" r="23.6351" fill="#115da9"/><path d="M165.10671,138.91379h0c-33.53388-20.15618-38.05288-27.40093-41.46007-66.3863h0a29.37351,29.37351,0,1,0-44.29339,27.68786h0c33.53387,20.15619,38.05287,27.36507,41.46006,66.35043h0a29.37351,29.37351,0,1,0,44.2934-27.652Z" fill="#115da9"/><path d="M234.97192,75.03805a29.419,29.419,0,1,0-58.7829-2.54642h0c-3.26372,38.98536-7.78273,46.23011-41.35246,66.42216h0a29.37352,29.37352,0,1,0,44.36513,27.72372h0c3.58651-38.98536,7.92618-46.19425,41.46006-66.35043h0A29.30178,29.30178,0,0,0,234.97192,75.03805Z" fill="#e02426"/></svg>