<svg id="Layer_1" data-name="Layer 1" xmlns="http://www.w3.org/2000/svg" viewBox="0 0 300 300"><defs><style>.cls-1{fill:#5bbac0;}.cls-2{fill:#0c3347;}</style></defs><path class="cls-1" d="M213.71,47.59H150v9h63.71Z"/><path class="cls-2" d="M150.06,47.59H101.82v9h48.24Z"/><path class="cls-2" d="M97.37,72.38a20.31,20.31,0,1,0-20.3-20.31A20.31,20.31,0,0,0,97.37,72.38Z"/><path class="cls-1" d="M202.63,72.38a20.31,20.31,0,1,0-20.31-20.31A20.3,20.3,0,0,0,202.63,72.38Z"/><path class="cls-1" d="M270.84,145.52H150v9H270.84Z"/><path class="cls-2" d="M150.07,145.52H36.37v9h113.7Z"/><path class="cls-2" d="M36.37,170.31A20.31,20.31,0,1,0,16.06,150,20.31,20.31,0,0,0,36.37,170.31Z"/><path class="cls-1" d="M263.63,170.31A20.31,20.31,0,1,0,243.32,150,20.31,20.31,0,0,0,263.63,170.31Z"/><path class="cls-1" d="M255.19,96.55H150v9H255.19Z"/><path class="cls-2" d="M150.07,96.55H58.72v9h91.35Z"/><path class="cls-2" d="M56.93,121.34A20.31,20.31,0,1,0,36.62,101,20.31,20.31,0,0,0,56.93,121.34Z"/><path class="cls-1" d="M243.07,121.34A20.31,20.31,0,1,0,222.76,101,20.31,20.31,0,0,0,243.07,121.34Z"/><path class="cls-1" d="M213.71,243.45H149.83v9h63.88Z"/><path class="cls-2" d="M149.9,243.45H101.82v9H149.9Z"/><path class="cls-2" d="M97.37,268.24a20.31,20.31,0,1,0-20.3-20.31A20.31,20.31,0,0,0,97.37,268.24Z"/><path class="cls-1" d="M202.63,268.24a20.31,20.31,0,1,0-20.31-20.31A20.31,20.31,0,0,0,202.63,268.24Z"/><path class="cls-1" d="M255,194.48H149.83v9H255Z"/><path class="cls-2" d="M149.89,194.48H58.72v9h91.17Z"/><path class="cls-2" d="M56.93,219.27A20.31,20.31,0,1,0,36.62,199,20.31,20.31,0,0,0,56.93,219.27Z"/><path class="cls-1" d="M242.9,219.27A20.31,20.31,0,1,0,222.59,199,20.31,20.31,0,0,0,242.9,219.27Z"/></svg>