<svg id="Layer_1" data-name="Layer 1" xmlns="http://www.w3.org/2000/svg" xmlns:xlink="http://www.w3.org/1999/xlink" viewBox="0 0 300 300"><defs><linearGradient id="linear-gradient" x1="6483.64278" y1="6676.1915" x2="6483.64278" y2="6681.03076" gradientTransform="matrix(24.612, 0, 0, -26.74094, -159417.6412, 178764.05006)" gradientUnits="userSpaceOnUse"><stop offset="0.016" stop-color="#e17231"/><stop offset="0.995" stop-color="#f3b940"/></linearGradient></defs><path d="M244.63638,62.94663v63.612h-.48395a32.86382,32.86382,0,0,0-8.22672-9.19455,47.077,47.077,0,0,0-10.40437-5.97648,52.45863,52.45863,0,0,0-10.9996-3.22782,60.52886,60.52886,0,0,0-10.28341-.96784,56.2858,56.2858,0,0,0-24.74794,5.13927,50.87992,50.87992,0,0,0-17.69714,13.86929,53.84623,53.84623,0,0,0-5.43929,8.22672,128.268,128.268,0,0,1,13.29827,31.43093,79.49965,79.49965,0,0,1,1.58729-10.60277,46.82388,46.82388,0,0,1,6.21846-15.30654,32.42323,32.42323,0,0,1,11.47868-10.76249,34.91072,34.91072,0,0,1,17.45517-4.065,37.74647,37.74647,0,0,1,17.93424,3.944,34.84239,34.84239,0,0,1,12.09814,10.40437,43.5535,43.5535,0,0,1,6.81369,14.94361,72.34138,72.34138,0,0,1,.12095,34.55714,44.52079,44.52079,0,0,1-6.57651,14.94848,33.56021,33.56021,0,0,1-29.1759,14.7065,36.29434,36.29434,0,0,1-17.09711-3.82785c-.82266-.43072-1.57761-.91947-2.35184-1.40335a49.21523,49.21523,0,0,0,31.3777,21.254,55.6511,55.6511,0,0,0,8.87519-2.87449,29.892,29.892,0,0,0,15.78081-14.82745h.484v16.763H265V62.94663Z" fill="#2f2d29"/><path d="M96.27945,217.10592A40.30608,40.30608,0,0,1,62.88862,198.47l64.3621-47.22629c-6.01517-17.61976-14.31448-33.91835-30.48732-44.19209h-.51777C62.47733,107.05158,35,136.21293,35,172.05248s27.47726,65.00089,61.24563,65.00089a60.2827,60.2827,0,0,0,50.48793-28.33868,141.197,141.197,0,0,1-10.26407-26.50462A42.32405,42.32405,0,0,1,96.27945,217.10592ZM54.96192,172.03313c0-24.85442,18.53916-45.07766,41.31753-45.07766a38.71406,38.71406,0,0,1,23.08806,7.70894l-63.52976,46.602a48.96911,48.96911,0,0,1-.8759-9.22852Z" fill="#2f2d29"/><path d="M98.22,107.03225c61.37625,32.16654,21.5831,142.608,119.10372,128.09994C144.04284,222.1775,189.44961,108.71635,98.22,107.03225Z" fill="url(#linear-gradient)"/></svg>