<svg id="Layer_1" data-name="Layer 1" xmlns="http://www.w3.org/2000/svg" viewBox="0 0 300 300"><path d="M271.71561,177.8823h1.35255v3.6068h.61992v-3.6068h1.32438v-.53538h-3.29685Zm4.81846,3.6068v-3.74769h.02817l1.12713,3.74769h.5072l1.1553-3.74769H279.38v3.74769H280v-4.14219h-1.099l-.9017,3.07142h-.02818l-.98623-3.07142h-1.07077v4.14219Z" fill="#0067b1"/><path d="M192.42223,152.522c-4.70576,0-6.67823,14.14544-6.67823,16.48423,0,2.08518.73262,3.07142,2.56421,3.07142,4.70575,0,6.67823-14.2018,6.67823-16.48423S194.14111,152.522,192.42223,152.522Z" fill="#0067b1"/><path d="M99.15248,154.88891c-2.42332,2.81782-3.86041,9.41151-3.86041,13.61006,0,2.28243.64809,3.26867,2.22607,3.26867,1.38073,0,3.71952-2.367,4.00131-3.46592l3.12777-14.79354a2.242,2.242,0,0,0-1.38072-.45085A4.81507,4.81507,0,0,0,99.15248,154.88891Z" fill="#0067b1"/><path d="M280,85.51426,20,131.13472l14.93443,83.351L280,171.11954ZM63.45074,179.20668h-27.361L45.783,133.6144H72.29869l-2.90236,9.60875h-13.92L53.842,150.88761H65.226l-1.97247,9.2988h-11.384L49.897,169.457H65.53593Zm12.14479.84534c-9.60875,0-8.76341-4.95936-7.32632-11.72212l4.903-23.04974c1.66251-7.80535,1.8034-10.285,1.747-12.20115l11.83484-1.97247a35.3345,35.3345,0,0,1-.98624,8.45345L80.414,164.61038c-1.23984,5.9456-1.38073,7.52358,1.18348,7.52358a4.04829,4.04829,0,0,0,1.23984-.19725l.33813,7.07272A24.39905,24.39905,0,0,1,75.59553,180.052Zm29.27712.45085a6.15962,6.15962,0,0,1-2.56421-4.00131,12.85172,12.85172,0,0,1-8.76341,3.71953c-6.87548,0-9.74965-4.31126-9.74965-11.52487,0-7.18544,2.87417-14.65265,7.27-19.04845,3.86042-3.86041,7.97442-5.10025,13.9482-5.10025,4.6494,0,10.39774.789,12.9056,2.02883a64.6004,64.6004,0,0,0-2.56422,9.27062h0l-2.56421,12.173a6.08818,6.08818,0,0,0,1.29619,5.10025Zm27.72732-1.268,4.593-21.58448c.59175-2.62057.2536-3.80405-1.63433-3.80405-1.83158,0-3.26867.92988-4.70576,3.12777l-4.79029,22.26076h-11.384l4.5085-21.27452c1.0426-5.10025,1.43709-8.11531.92988-11.44034l10.08778-1.88794a19.14892,19.14892,0,0,1,.59174,3.66317,15.78225,15.78225,0,0,1,10.22868-3.69134c8.45345,0,9.29879,4.79028,8.2562,9.69329l-5.2975,24.93768Zm27.98092.84535h0c-9.4115,0-14.00455-6.03013-11.58123-17.41411,2.42333-11.44034,9.35516-18.06221,19.302-18.06221,4.84665,0,7.46722,1.23984,10.20051,4.0013l-6.67822,6.87548a5.6982,5.6982,0,0,0-4.25489-2.47968c-2.62057,0-4.593,2.08518-6.03013,8.96065s-1.2962,9.69329,1.97248,9.69329a10.179,10.179,0,0,0,6.81912-3.01506l3.40955,6.67823A20.411,20.411,0,0,1,160.58089,180.0802Zm46.43763-23.5006c0,8.84795-4.903,23.5006-20.68279,23.5006-7.97442,0-12.51111-4.3958-12.51111-12.173,0-8.707,4.70576-23.30334,20.68278-23.30334,7.07273,0,12.51112,3.46592,12.51112,11.97572Z" fill="#0067b1"/></svg>