<svg id="Layer_1" data-name="Layer 1" xmlns="http://www.w3.org/2000/svg" viewBox="0 0 300 300"><path d="M224.57282,114.62518V85.76758a35.06109,35.06109,0,0,0-2.96932,2.63674q-8.88831,8.45183-17.77147,16.909-7.28727,6.92172-14.59288,13.8242-7.52412,7.13189-15.04806,14.2639c-.64121.606-1.33933,1.15168-1.97112,1.86854v1.47361q0,47.36721.01469,94.73441a8.18473,8.18473,0,0,1-1.87712,5.73021,7.61219,7.61219,0,0,1-8.63366,2.07049,7.71053,7.71053,0,0,1-4.77591-7.09488q.0491-50.02327.01141-100.04662a7.854,7.854,0,0,1,2.5335-5.97248q10.45576-9.92045,20.913-19.83934,7.248-6.87158,14.50356-13.73507,10.09231-9.56857,20.17881-19.14328,4.72464-4.47989,9.46058-8.94786c.91891-.86764,1.82347-1.75317,2.7805-2.57732A7.68271,7.68271,0,0,1,239.765,66.174a11.90665,11.90665,0,0,1,.23353,2.38095q-.01891,24.22113.00146,48.44228a9.0463,9.0463,0,0,1-3.23492,7.205c-2.96582,2.6236-5.75052,5.45116-8.62223,8.18144q-7.605,7.23044-15.22157,14.44863-7.24831,6.87171-14.5059,13.73364c-.85657.81022-1.68482,1.65792-2.59955,2.39772a7.31155,7.31155,0,0,1-8.1723,1.038,7.14912,7.14912,0,0,1-4.349-6.58328,7.44516,7.44516,0,0,1,2.46441-5.97519q9.36186-8.87092,18.68992-17.77746,7.15029-6.79117,14.32383-13.55789Q221.66418,117.37222,224.57282,114.62518Z" fill="#51b1da"/><path d="M127.68953,135.1977c-3.153-3.01444-6.22332-5.962-9.30744-8.89513q-4.763-4.5298-9.54641-9.03817-7.61338-7.21926-15.22154-14.444-7.20177-6.82651-14.41168-13.64445-7.61471-7.21788-15.22821-14.437a17.131,17.131,0,0,1-2.47172-2.51667,7.60923,7.60923,0,0,1,6.06168-12.06412,7.66233,7.66233,0,0,1,5.69032,2.288Q81.86564,70.635,90.48182,78.81848q7.33508,6.962,14.68135,13.91214,9.99923,9.47978,19.99571,18.96242c4.83187,4.57987,9.63344,9.19257,14.522,13.71132A9.42869,9.42869,0,0,1,142.95,130.638a9.59413,9.59413,0,0,1,.11921,1.76174q.00139,49.76258-.00258,99.52514a7.6698,7.6698,0,0,1-11.9059,6.62,7.70369,7.70369,0,0,1-3.46905-6.53308c-.01354-.33669-.00216-.67438-.00216-1.01161q0-47.10687,0-94.21375Z" fill="#51b1da"/><path d="M67.74742,160.42266a7.54458,7.54458,0,0,1,5.64329,2.38931q6.73308,6.40782,13.46175,12.82025,10.03831,9.536,20.08958,19.05842c2.53853,2.406,5.14446,4.74432,7.6149,7.21792a7.61584,7.61584,0,0,1-3.69837,12.7595,7.43477,7.43477,0,0,1-7.11581-1.92847c-2.766-2.59728-5.49159-5.23752-8.24293-7.85049Q85.41463,195.31115,75.321,185.742q-4.725-4.48034-9.46132-8.94887c-1.10238-1.04154-2.22673-2.06035-3.31386-3.11746a7.64956,7.64956,0,0,1,3.44992-13.10673,3.50957,3.50957,0,0,1,.61365-.13979C66.98751,160.40639,67.36795,160.42266,67.74742,160.42266Z" fill="#51b1da"/><path d="M67.72823,110.26877a7.56548,7.56548,0,0,1,5.55223,2.32607q3.93093,3.75636,7.87171,7.50243,9.99447,9.48647,19.99676,18.96471c4.375,4.14387,8.77347,8.26308,13.13569,12.42028a7.33226,7.33226,0,0,1,2.15679,7.72885,7.1874,7.1874,0,0,1-5.559,5.32236,7.8965,7.8965,0,0,1-7.61345-2.33582c-4.46239-4.29757-8.96134-8.55731-13.45153-12.826q-7.60515-7.23-15.22284-14.44683Q68.67318,129.32123,62.724,123.747a7.81036,7.81036,0,0,1-2.6773-5.7867A7.57233,7.57233,0,0,1,67.72823,110.26877Z" fill="#51b1da"/></svg>