<svg id="Layer_1" data-name="Layer 1" xmlns="http://www.w3.org/2000/svg" viewBox="0 0 300 300"><defs><style>.cls-1{fill:#d31c5c;}.cls-1,.cls-2,.cls-3{fill-rule:evenodd;}.cls-2{fill:#e96a2e;}.cls-3{fill:#f89f20;}</style></defs><g id="Symbols"><g id="nav_desktop" data-name="nav/desktop"><g id="Group-29"><polygon id="Fill-1" class="cls-1" points="150.73 43.55 32.83 161.46 64.5 193.12 150.73 106.91 224.94 181.06 246.04 181.09 150.73 85.79 64.55 172.09 53.95 161.45 150.73 64.67 256.73 170.43 267.17 159.98 150.73 43.55"/><polygon id="Fill-2" class="cls-2" points="75.07 203.69 106.73 235.35 150.73 191.35 182.47 223.53 203.88 223.12 150.73 170.23 106.55 214.04 96.19 203.69 150.73 149.15 214.19 212.94 246.03 181.09 224.94 181.06 214.41 191.64 150.73 128.03 75.07 203.69"/><polygon id="Fill-3" class="cls-3" points="117.31 245.89 127.87 256.45 150.73 233.59 172.06 255.06 203.88 223.13 182.48 223.53 172.13 233.87 150.73 212.47 117.31 245.89"/></g></g></g></svg>