<svg id="Layer_1" data-name="Layer 1" xmlns="http://www.w3.org/2000/svg" xmlns:xlink="http://www.w3.org/1999/xlink" viewBox="0 0 300 300"><defs><radialGradient id="radial-gradient" cx="6691.59" cy="2397.32" r="1.34" gradientTransform="matrix(98.25, 0, 0, -98.27, -657320.43, 235722.01)" gradientUnits="userSpaceOnUse"><stop offset="0" stop-color="#f69816"/><stop offset="0.33" stop-color="#f59516"/><stop offset="0.51" stop-color="#f18c16"/><stop offset="0.65" stop-color="#eb7f17"/><stop offset="0.77" stop-color="#e36918"/><stop offset="0.88" stop-color="#d9501b"/><stop offset="0.98" stop-color="#cc311e"/><stop offset="1" stop-color="#ca2c1e"/></radialGradient></defs><path d="M70.58,211.11a99.77,99.77,0,0,1,74-160.32C125.15,63.07,110,80.65,109.92,95.52c0,8.24,4.62,14.07,7.41,17.57l.47.58c2.83,3.54,5.19,6.41,7.16,8.79,6.66,8.09,7.62,9.42,7.62,11.69,0,1.91-1,4.47-12.68,12.94-31.55,22.8-47,42.79-49.3,64Zm114.91-154a36.18,36.18,0,0,0-5.4-.43c-21.34-.1-38,15.06-38,28.17,0,6.43.49,7.37,13.92,25.24,6.6,8.75,9,13.89,9,19,0,8.32-3.37,10.57-19.46,21.41-31.23,20.92-41.2,33.68-41.29,52.64-.12,27.46,18.75,46,46.94,46.1a114.09,114.09,0,0,0,31.08-4.1,99.29,99.29,0,0,0,21.58-10.38l.25-.17h0A99.86,99.86,0,0,0,185.47,57.15Z" fill="url(#radial-gradient)"/></svg>