<svg id="Layer_1" data-name="Layer 1" xmlns="http://www.w3.org/2000/svg" viewBox="0 0 300 300"><polygon points="218.7 193.1 50 233.55 50 203.46 218.7 163.5 218.7 193.1" fill="#37b1b2"/><polygon points="218.7 133.39 50 173.84 50 143.75 218.7 103.8 218.7 133.39" fill="#37b1b2"/><polygon points="218.7 73.85 50 114.3 50 84.21 218.7 44.25 218.7 73.85" fill="#37b1b2"/><polygon points="250 215.3 81.3 255.75 81.3 226.04 250 185.7 250 215.3" fill="#13658d"/><polygon points="250 156.12 81.3 196.05 81.3 166.34 250 126 250 156.12" fill="#13658d"/><polygon points="250 96.36 81.3 136.29 81.3 106.59 250 66.25 250 96.36" fill="#13658d"/></svg>