<svg id="Layer_1" data-name="Layer 1" xmlns="http://www.w3.org/2000/svg" viewBox="0 0 300 300"><path d="M150.88753,233.29039a276.194,276.194,0,0,1-31.09466-9.37827,212.84065,212.84065,0,0,1-33.55559-15.73023A151.01668,151.01668,0,0,1,59.865,188.993a106.9857,106.9857,0,0,1-26.80456-36.88123,86.46659,86.46659,0,0,1-6.21894-22.21521h0c2.39446,4.05726,4.62262,8.31407,7.31637,12.23832a135.85484,135.85484,0,0,0,9.37828,11.939,101.83108,101.83108,0,0,0,9.4448,9.079,99.769,99.769,0,0,0,24.97548,15.46419,127.10506,127.10506,0,0,0,22.08218,7.51591Z" fill="#1b2c76"/><path d="M234.62686,181.17777c-3.92422.99769-7.84849,2.09515-11.806,2.92656-3.32563.66513-6.65125.99768-9.97688,1.52978a314.23515,314.23515,0,0,1-38.74357,4.12379,209.28222,209.28222,0,0,1-64.25119-6.91731,137.91414,137.91414,0,0,1-31.99256-13.30252,127.63929,127.63929,0,0,1-20.75192-14.99859,113.83615,113.83615,0,0,1-25.77363-33.58886c-.19953-.39908-.39909-.83141-.56535-1.26374s0-.19954,0-.33257a74.49457,74.49457,0,0,0,5.78659,5.88637A137.24708,137.24708,0,0,0,49.28954,134.619a147.459,147.459,0,0,0,15.33115,8.58013,116.397,116.397,0,0,0,47.25722,11.24063,196.94241,196.94241,0,0,0,21.68312-.83141c5.28774-.39908,10.509-1.52979,15.7635-2.26143Z" fill="#6fa78a"/><path d="M275,85.03383A301.83276,301.83276,0,0,1,236.75526,113.601a248.59131,248.59131,0,0,1-40.43967,20.61889,189.56092,189.56092,0,0,1-43.39947,11.939A147.72462,147.72462,0,0,1,87.60075,141.503a141.57264,141.57264,0,0,1-23.54546-9.71084A117.16151,117.16151,0,0,1,47.12785,121.516,56.93465,56.93465,0,0,1,27.60639,96.37422a40.27334,40.27334,0,0,1-2.594-14.23369,2.85747,2.85747,0,0,1,0-.5321h0c0-.39908,1.72931,4.88867,2.92654,7.81523a46.22633,46.22633,0,0,0,14.69933,18.75655,71.96655,71.96655,0,0,0,34.387,14.10066,133.02463,133.02463,0,0,0,36.58192,1.36351,123.38118,123.38118,0,0,0,30.8286-7.31638,155.90769,155.90769,0,0,0,21.61659-9.97689c4.05728-2.32794,7.84849-5.055,11.87253-7.51592,14.36669-11.20737,30.99484-32.12558,31.75972-32.12558Z" fill="#f8ea0a"/></svg>