<svg xmlns="http://www.w3.org/2000/svg" viewBox="0 0 300 300"><g id="svg5"><g id="g18024"><path id="path56" d="M131.27753,270.96773a76.7491,76.7491,0,0,1-29.93612-4.791,124.53233,124.53233,0,0,1-39.72931-26.47,98.11553,98.11553,0,0,1-20.25615-34.649c-.90146-2.20267-1.80291-4.40447-2.73833-6.58995-.871-2.02626-1.76459-4.03526-2.6582-6.04427A95.72547,95.72547,0,0,1,25,152.35679,81.80507,81.80507,0,0,1,35.06232,116.044c1.18627-2.55559,2.39865-5.15338,3.5553-7.85527,1.20368-2.8121,2.35161-5.74126,3.51262-8.70486A96.27077,96.27077,0,0,1,61.6121,65.0035a122.40485,122.40485,0,0,1,40.80149-23.96094,122.85609,122.85609,0,0,1,47.58459-12.22278,125.53484,125.53484,0,0,1,48.66024,9.71281,87.76188,87.76188,0,0,1,29.68876,23.03219c2.01543,2.11835,4.05262,4.25734,6.17082,6.3507,2.10077,2.07615,4.28257,4.10583,6.47217,6.14841a92.65184,92.65184,0,0,1,24.186,30.20233A121.61837,121.61837,0,0,1,274.9998,152.356a59.77984,59.77984,0,0,1-13.82143,33.34238,81.02173,81.02173,0,0,0-7.75686,12.77622,56.21034,56.21034,0,0,0-3.21561,13.37364,45.396,45.396,0,0,1-11.81821,27.85762,124.4938,124.4938,0,0,1-39.73365,26.47,83.19885,83.19885,0,0,1-36.64607,4.59734c-6.17954-.193-12.91562-.20163-19.7632-.01816-3.62933.11035-7.30134.21071-10.96725.21071ZM149.99817,50.33956A102.28664,102.28664,0,0,0,110.8916,60.8632,104.15177,104.15177,0,0,0,77.00737,80.21908a79.66261,79.66261,0,0,0-14.57395,27.04507c-1.242,3.16846-2.4753,6.29562-3.76,9.30481-1.24984,2.9171-2.54759,5.712-3.827,8.46041a62.26827,62.26827,0,0,0-8.07216,27.32739,78.11139,78.11139,0,0,0,9.11819,31.40052c.93542,2.10112,1.87085,4.21084,2.781,6.32914.9781,2.2862,1.92223,4.58958,2.862,6.893a80.9289,80.9289,0,0,0,15.47192,27.51246,102.86977,102.86977,0,0,0,32.81032,21.86332,80.3,80.3,0,0,0,31.79041,2.89213c7.30657-.20208,14.50167-.20208,21.10187.01815a63.32273,63.32273,0,0,0,27.46954-2.90848,102.85087,102.85087,0,0,0,32.8138-21.86332,26.40253,26.40253,0,0,0,5.69876-15.97135,74.7386,74.7386,0,0,1,4.6745-18.42544,97.60541,97.60541,0,0,1,9.79843-16.48354,43.48443,43.48443,0,0,0,10.06145-21.25471,100.40129,100.40129,0,0,0-8.10524-39.70943A74.28007,74.28007,0,0,0,226.047,89.71852c-2.3429-2.18548-4.678-4.36317-6.92334-6.58652-2.275-2.244-4.46111-4.53879-6.62547-6.81293A69.15314,69.15314,0,0,0,190.17692,58.3576a103.64073,103.64073,0,0,0-40.17872-8.01623Z" fill="#7bbd31"/><path id="path58" d="M104.5823,157.94573a35.33233,35.33233,0,1,1,35.749-35.32987h0A35.582,35.582,0,0,1,104.5823,157.94573Zm0-49.13989A13.81184,13.81184,0,1,0,118.557,122.61672v-.00086A13.90917,13.90917,0,0,0,104.5823,108.8067Z" fill="#7bbd31"/></g></g></svg>