<svg id="Layer_1" data-name="Layer 1" xmlns="http://www.w3.org/2000/svg" viewBox="0 0 300 300"><path d="M93.25067,154.90687c-3.50471-8.29141-3.11669-16.59094.00218-24.87355,3.37864-8.9731,9.01826-16.45369,15.64184-23.23478,11.14444-11.41055,24.25244-20.11468,38.3051-27.49062a4.17033,4.17033,0,0,0,1.64156-1.01943,5.20069,5.20069,0,0,0-1.91334.74247A189.92184,189.92184,0,0,0,109.8792,98.78348c-9.39973,6.499-18.06327,13.83313-25.18947,22.83148-6.1728,7.79431-10.95889,16.25967-11.94612,26.39935a28.24936,28.24936,0,0,0,2.82417,15.83032c1.32505-.205,2.30137-1.12653,3.44523-1.7C83.77235,159.75845,88.50715,157.32372,93.25067,154.90687Z" fill="#08397a"/><path d="M240.70591,168.30021c-.42622.1202-.86444.209-1.27647.3653-5.6609,2.14556-11.40639,4.037-17.219,5.7251a225.72538,225.72538,0,0,1-44.5925,8.35731,168.58068,168.58068,0,0,1-31.39392-.19026,102.74457,102.74457,0,0,1-28.639-6.73382c-8.75739-3.60219-16.5423-8.54326-21.96144-16.58773a8.4934,8.4934,0,0,0-1.01943.28644c-5.06005,2.10654-10.03387,4.4049-14.98041,6.762-.69636.33194-1.58918.39941-1.97392,1.24305A30.35417,30.35417,0,0,0,83.1,173.92175c6.61048,6.07587,14.52035,9.77247,22.988,12.39329,12.95082,4.00842,26.26237,5.2325,39.75838,5.13727a194.12847,194.12847,0,0,0,28.25049-2.29338,234.01039,234.01039,0,0,0,62.39381-18.677,17.87812,17.87812,0,0,0,4.2218-2.16377h0c.4284.13637.71164-.09407,1.06964-.45A1.19381,1.19381,0,0,0,240.70591,168.30021Z" fill="#08397a"/><path d="M149.51916,78.0324c-.00491.01194-.01528.01488-.02074.02593.012-.00376.02729-.00062.03765-.00819Z" fill="#08397a"/><path d="M149.49842,78.05833c-.12879.04031-.34927-.09837-.36237.18807A.31722.31722,0,0,0,149.49842,78.05833Z" fill="#08397a"/><path d="M242.139,167.64062l.024.0775c.065-.01255.12825-.03084.1921-.048C242.28308,167.6602,242.21105,167.65024,242.139,167.64062Z" fill="#08397a"/><path d="M149.55681,78.02135l.29743-.08888C149.67578,77.83055,149.619,77.933,149.55681,78.02135Z" fill="#08397a"/><path d="M149.51916,78.03247l.01691.01767.02074-.02879Z" fill="#08397a"/><path d="M272.38088,135.563c-2.96006-5.57345-7.73578-9.13211-13.341-11.67694-9.00735-4.08946-18.6341-5.2338-28.36782-5.58048a169.89569,169.89569,0,0,0-28.7924,1.7761,269.24578,269.24578,0,0,0-29.69231,5.77653,401.64838,401.64838,0,0,0-69.00157,24.5004q-4.9689,2.2708-9.93509,4.54829c-4.74352,2.41685-9.47832,4.85158-14.23766,7.23773-1.14386.5735-2.12018,1.495-3.44523,1.7-.19919.528-.7291.62725-1.14495.85558a373.72817,373.72817,0,0,0-39.575,24.82538,108.64031,108.64031,0,0,0-9.39372,7.21059c.3389.0425.55228-.20022.79895-.365a418.99392,418.99392,0,0,1,49.94125-28.504c.43877-.21291.865-.69254,1.45547-.33965.38474-.84364,1.27756-.91111,1.97392-1.24305,4.94654-2.35709,9.92036-4.65545,14.98041-6.762a8.4934,8.4934,0,0,1,1.01943-.28644c.35582-.51565.95667-.60774,1.474-.82808q13.24826-5.6412,26.8605-10.3399c21.097-7.2629,42.59293-12.91207,64.78958-15.58228a158.73577,158.73577,0,0,1,23.06874-1.20492,102.31964,102.31964,0,0,1,17.25994,1.69458c6.37091,1.25887,12.51588,3.16539,17.92083,6.91459,8.29243,5.752,11.545,13.6804,10.07862,23.61693-.95831,6.49717-3.60512,12.34615-6.91555,17.92266-6.27321,10.567-14.49525,19.52065-23.33232,27.95675-4.13121,3.94416-8.50309,7.61436-12.85532,11.30727l.00054.00048c-.32034.29647-.88081.37628-.88627.95763a2.1235,2.1235,0,0,0,1.07674-.76123c.30452-.17819.62432-.33474.91137-.53776a281.66591,281.66591,0,0,0,22.56939-17.61194c9.30587-8.1178,18.02124-16.79927,25.29315-26.8255,4.887-6.7373,9.06083-13.85838,11.07241-22.04549C275.55323,147.58823,275.49375,141.42539,272.38088,135.563Z" fill="#3ec07e"/><path d="M213.0792,221.68511c-.00054-.01378.00764-.02006.00764-.03329-.00764.00279-.01419.00805-.02183.01078Z" fill="#3ec07e"/><path d="M212.53456,221.93505l.01037-.01882c-.01092-.00171-.018.00429-.02893.00211Z" fill="#3ec07e"/><path d="M213.0792,221.6849l-.01419-.0223c-.00382.00654-.00982.00709-.0131.01337C213.06174,221.68088,213.06883,221.67924,213.0792,221.6849Z" fill="#3ec07e"/><path d="M212.54493,221.91623a.44871.44871,0,0,0,.507-.24026C212.78614,221.54663,212.647,221.691,212.54493,221.91623Z" fill="#3ec07e"/><path d="M25.4208,196.75507c.00709-.00054.01037-.00552.018-.00586l.01528-.013c-.00982-.00123-.018.00259-.02783.00082C25.4268,196.74566,25.42025,196.747,25.4208,196.75507Z" fill="#3ec07e"/><path d="M25.18122,197.02514c-.00164-.01146.00655-.01371.006-.02435-.00873.00109-.01255.00662-.02182.00744Z" fill="#3ec07e"/><path d="M25.18722,197.00079c.14408-.01828.24176-.08118.23358-.24572C25.26745,196.76688,25.17686,196.83687,25.18722,197.00079Z" fill="#3ec07e"/><path d="M25.18068,197.02508l-.01528-.01685-.01474.02128A.13494.13494,0,0,0,25.18068,197.02508Z" fill="#3ec07e"/><path d="M25.03606,197.19071l.1146-.1612C25.06825,197.041,24.93564,197.008,25.03606,197.19071Z" fill="#3ec07e"/><path d="M212.51655,221.945c-.066.03507-.13152.07006-.20247.10792C212.49745,222.176,212.522,222.08138,212.51655,221.945Z" fill="#3ec07e"/><path d="M212.53456,221.93512l-.01856-.01678.00055.02667Z" fill="#3ec07e"/></svg>