<?xml version="1.0" encoding="utf-8"?>
<!-- Generator: Adobe Illustrator 28.3.0, SVG Export Plug-In . SVG Version: 6.00 Build 0)  -->
<svg version="1.1" id="Layer_1" xmlns="http://www.w3.org/2000/svg" xmlns:xlink="http://www.w3.org/1999/xlink" x="0px" y="0px"
	 viewBox="0 0 300 300" style="enable-background:new 0 0 300 300;" xml:space="preserve">
<style type="text/css">
	.st0{fill:#19903D;}
	.st1{fill:#26AAE1;}
</style>
<g>
	<path class="st0" d="M63.4,168.9c-3.1-0.8-6.4-1.4-9.4-2.6c-8.2-3.3-13.9-9.2-17-17.5c-3.4-9-3-17.9,1.6-26.3
		c5-9.2,12.7-14.8,23.1-16.1c4.5-0.6,9.2-0.3,13.8-0.4c0.9,0,1.9,0,2.7,0c-1.5-3.3-3.3-6.4-4.4-9.8c-3.3-10.6-1.3-20.4,5.4-29
		c4.5-5.8,10.6-9.5,17.8-11.1c0.3-0.1,0.6-0.3,0.9-0.6c26.5-0.1,52.9-0.1,79.6-0.1c0.7,0.6,1.3,1.3,1.9,1.9c2,2.1,2.3,4.5,1.1,7
		c-1,2.2-2.9,3.3-5.4,3.3c-23.5,0-46.9,0-70.4,0c-5.6,0-10.6,1.8-14.5,5.8C85.1,78.7,83,86.2,86,93.6c2.5,6.1,6.9,10.1,13.3,11.8
		c1.5,0.4,3,0.6,4.6,0.6c33.2,0,66.3,0,99.5,0c5.4,0,8.2,4.7,5.6,9.5c-1,1.7-2.6,2.4-4.4,2.7c-0.6,0.1-1.2,0-1.8,0
		c-45.3,0-90.5,0-135.8,0c-10.3,0-18.3,6.6-19.7,17.1c-1,7.2,2.6,14.5,9,18.3c3.5,2.1,7.3,3,11.4,3c5.7,0,11.4,0,17,0.2
		c-5.4,0.9-10.4,2.5-14.7,5.9C67.7,164.6,65.6,166.9,63.4,168.9z"/>
	<path class="st0" d="M228.3,131.1c4.3,0.4,8.6,0.2,12.7,1.2c12.8,3.1,20.8,11.6,23.4,24.4c2.4,11.7-1.3,22.1-10.4,30
		c-5.6,4.8-12.2,7.5-19.7,7.3c-2-0.1-3.9,0-6.2,0c0.4,0.8,0.7,1.5,1.1,2c4.1,5.9,5.7,12.5,5.2,19.6c-0.4,6.7-2.9,12.7-7.3,18
		c-4.6,5.5-10.4,8.9-17.3,10.5c-1.6,0.3-3.2,0.6-4.7,0.6c-31,0-62,0-93,0c-4.4,0-6.9-2.1-6.9-5.9c0-4.1,2.4-6.3,6.9-6.3
		c30.5,0,61.1,0,91.6,0c8.9,0,17.1-7.5,18.3-16.3c1.4-9.5-4.7-18.1-12.5-20.6c-2.8-0.9-5.9-1.4-8.9-1.4C163,194,125.5,194,87.9,194
		c-3.9,0-6.7-2.4-6.5-5.9c0.3-3.5,1.8-5.8,6.4-6.3c0.6-0.1,1.2,0,1.8,0c48.1,0,96.3,0,144.4,0c9,0,16.7-7.2,18.3-15.5
		c2-10.2-5.1-20.6-15.9-22.5c-0.6-0.1-1.2-0.1-1.8-0.1c-10.1,0-20.1,0-30.2-0.1c1.1-0.3,2.3-0.4,3.4-0.6c7.8-1.4,14.3-5.2,19.3-11.3
		C227.5,131.4,228,131.3,228.3,131.1z"/>
	<path class="st1" d="M63.4,169c2.2-2.2,4.3-4.4,6.6-6.3c4.3-3.4,9.3-5,14.8-5.8c1.3-0.1,2.4-0.3,3.5-0.3c48.7,0,97.5,0,146.2,0
		c2.8,0,5.5,2.1,6,4.9c0.6,3.4-1.1,6.2-4.3,7.1c-0.7,0.2-1.4,0.2-2.1,0.2c-48.6,0-97.1,0-145.7,0c-9.5,0-17.3,6.8-18.8,15.9
		c-1.8,11,5.7,20.9,16.5,22.1c1.5,0.2,3.1,0.3,4.6,0.3c37.6,0,75.2,0,112.8,0c4,0,6.4,2.9,6.4,6.1c0,3.6-2.7,6.1-6.5,6.1
		c-38.7,0-77.4,0-116,0c-6.9,0-13-2.4-18.5-6.7c-3.8-3-6.8-6.7-8.9-11.1c-1.6-3.4-2.5-7-2.9-10.8c-0.7-6.2,0.7-12,3.3-17.5
		C61.3,171.9,62.4,170.6,63.4,169z"/>
	<path class="st1" d="M228.3,131c-0.4,0.3-0.8,0.4-1,0.7c-5,6.1-11.5,10-19.3,11.3c-1.2,0.2-2.3,0.3-3.6,0.5
		c-0.6,0.1-1.2,0.2-1.7,0.2c-45.3,0-90.6,0-135.9,0c-3,0-5.4-0.9-6.8-3.7c-1.6-3.1,0.3-7.5,3.6-8.4c1.1-0.3,2.3-0.5,3.5-0.5
		c45.6,0,91.2,0,136.8,0c5.7,0,10.2-2.7,13.8-6.8c3-3.4,4.5-7.5,4.5-11.9c0-9.1-6.2-17.3-15.6-19c-1-0.2-2.1-0.3-3.1-0.3
		c-33.3,0-66.6,0-99.8,0c-4.9,0-7.8-4.4-6.3-8.5c0.8-2.2,2.9-3.8,5.2-3.8c34.6,0,69.2-0.1,103.8,0.1c5.2,0,10,2.2,14.4,5.1
		c4.8,3.1,8.4,7.4,10.8,12.6c2.5,5.5,3.5,11.2,2.8,17.3C233.5,121.4,231.5,126.3,228.3,131z"/>
</g>
</svg>
