<svg id="Layer_1" data-name="Layer 1" xmlns="http://www.w3.org/2000/svg" viewBox="0 0 300 300"><rect x="25" y="147.29212" width="5.999" height="18.53858" fill="#007bc3"/><path d="M25,134.00266H48.49608v5.33244H25Zm0,13.28946H48.41277v5.33244H25Zm0,13.20613H48.41277v5.33244H25Zm36.91051-17.95534c0-2.333,2.04133-3.791,4.87419-3.791a12.632,12.632,0,0,1,7.58207,2.70788l3.29111-4.58257a17.30318,17.30318,0,0,0-10.87318-3.58274c-6.124,0-11.16481,3.58274-11.16481,9.12348,0,13.70605,17.08049,6.124,17.08049,14.1643,0,2.70789-2.33295,4.58257-5.83236,4.58257a13.31212,13.31212,0,0,1-8.54025-3.29111l-3.29111,4.7492A18.49505,18.49505,0,0,0,66.868,166.70553c6.58223,0,12.123-3.99933,12.123-9.915,0-13.66437-17.08049-6.95716-17.08049-14.24761m39.6184-8.54025H86.57307v31.828h5.999V155.749h8.83186a10.86783,10.86783,0,0,0,11.16481-10.87319,10.66461,10.66461,0,0,0-11.03982-10.87319m0,16.41394H92.69705V139.33511h8.83186c2.83286,0,4.87419,2.54125,4.87419,5.54074s-1.958,5.54075-4.87419,5.54075m17.83036,15.4141H142.772v-5.33244H119.35928v5.33244Zm0,0H142.772v-5.33244H119.35928v5.33244Zm0-13.16447H142.772v-5.33244H125.39993v-7.957H142.772v-5.33244H119.35928v18.62189Zm57.57373-7.79038a10.86783,10.86783,0,0,0-11.1648-10.87319H150.81236v31.828h5.999V155.749h7.37378l6.79053,10.08166h6.79053l-7.37378-11.08149a10.4607,10.4607,0,0,0,6.54058-9.87336m-11.1648,5.54075h-8.83186V139.33511h8.83186c2.83286,0,4.87419,2.54125,4.87419,5.54074s-2.16631,5.54075-4.87419,5.54075m18.247-16.41394h5.999v31.828h-5.999Zm30.70322-.74987c-9.6234,0-17.37211,7.29045-17.37211,16.70555s7.74871,16.70556,17.37211,16.70556,17.37211-7.29046,17.37211-16.70556c0-9.45676-7.957-16.70555-17.37211-16.70555m0,27.95368a11.16511,11.16511,0,1,1,11.08149-11.1648,11.14795,11.14795,0,0,1-11.08149,11.1648m45.99234-27.20381v18.33028h-.08332l-21.45476-19.08015v32.61956h5.91568V147.6254h0l21.66306,19.12181V134.04432h-6.04066Z" fill="#007bc3"/><path id="cRight" d="M275,136.044a2.75729,2.75729,0,0,0-2.70788-2.70788,2.70788,2.70788,0,1,0,0,5.41576A2.78608,2.78608,0,0,0,275,136.044m-.4166,0a2.33294,2.33294,0,1,1-4.66587,0,2.38429,2.38429,0,0,1,2.33294-2.333,2.2071,2.2071,0,0,1,2.33293,2.333m-.87487,1.66639-.66654-1.45809a1.10617,1.10617,0,0,0,.66654-1.08316,1.05024,1.05024,0,0,0-1.08314-1.08315H271.084v3.49941h.66654v-1.16647h.79155l.66654,1.2498C273.042,137.71039,273.70853,137.71039,273.70853,137.71039Zm-2.04131-1.958v-.95817h.95817a.49992.49992,0,1,1,0,.99984h-.95817Z" fill="#007bc3"/></svg>