<svg id="Layer_1" data-name="Layer 1" xmlns="http://www.w3.org/2000/svg" viewBox="0 0 300 300"><path d="M162.8317,99.22853c-.59,5.6255-1.58655,11.05471-1.32938,16.59668.25831,5.56617-.92528,11.0694-.58531,16.30619-.43686,1.03781-.97553,1.27323-1.71076,1.11943a1.6851,1.6851,0,0,1-.873-1.61209c-.00153-3.51312-.60885-6.98877-.51735-10.52.12026-4.63977-.07475-9.28685-.02188-13.92952.02964-2.60378-.627-5.10848-.69242-7.57533a1.23172,1.23172,0,0,0-1.84612.178c-3.938,3.92868-8.77713,6.80588-12.64353,10.81554a2.4175,2.4175,0,0,1-3.00932.78715c-.10783-1.2564.78548-1.94215,1.485-2.76366,1.916-2.2503,3.78324-4.542,5.67995-6.80877a1.43673,1.43673,0,0,0,.27154-1.43544,8.033,8.033,0,0,0-3.06578,1.15613c-6.87983,4.13416-13.60434,8.52331-20.18312,13.10185-7.48805,5.21136-14.71641,10.79823-21.78627,16.57679-.91677.74933-1.90675,1.40929-2.782,2.05134a2.21558,2.21558,0,0,1-1.69021-1.84537c1.82375-2.77152,6.13152-6.15932,24.41105-19.39172,8.42735-6.10049,17.39432-11.3597,26.49259-16.946a31.24906,31.24906,0,0,0-9.319-1.21008c-5.47865-.0413-10.89872-.99756-16.38289-.81318a16.74682,16.74682,0,0,1-3.55806-.46714,1.10084,1.10084,0,0,1-.86514-1.00765,1.55776,1.55776,0,0,1,1.56911-.87338c2.31788-.02068,4.60493-.49706,6.89337-.552,5.65039-.13567,11.27175-.49137,16.887-1.12313,1.92955-.21708,3.9016-.04513,5.85369-.08058a6.21393,6.21393,0,0,0,2.63137-.29483c-.577-2.20806-2.64911-3.23125-3.75124-4.96275a50.91375,50.91375,0,0,0-4.27567-5.09433c-1.36108-1.61873-2.68907-3.26522-4.13944-5.03079a1.76519,1.76519,0,0,1,.6775-2.08014c5.10674,4.141,10.27634,8.33308,15.5738,12.62881a7.58138,7.58138,0,0,0,.87246-3.91393c.07779-3.15287.81635-6.23764.71455-9.40371a99.50255,99.50255,0,0,1,.96285-13.24593c.16841-1.65766.10259-3.34014.12024-5.01156.009-.85421-.01185-1.69772,1.04817-2.006a1.30143,1.30143,0,0,1,.97949,1.46311c.0079,3.98072.47543,7.93881.69676,11.90646.3602,6.45687,1.156,12.88962,1.08239,19.37421-.00182.1596.16712.32114.25968.48767a2.28551,2.28551,0,0,0,2.49425-.72258c3.52771-3.13892,7.07943-6.25093,10.60276-9.39473.96227-.85863,1.83338-1.829,3.017-2.06067.71086.06647.983.43825,1.328.99209-2.14022,3.7093-5.85613,6.20141-8.51506,9.7685,1.43066.65941,2.37262-.18373,3.27763-.57513A202.2382,202.2382,0,0,1,198.69719,73.098c3.53359-1.03256,7.16857-1.70218,10.65359-2.78028,4.27771-1.32332,8.70424-1.45669,13.01715-2.3932,2.67229-.58025,5.55683-.14865,8.34329-.249A46.17831,46.17831,0,0,1,245.7904,69.4079c8.65411,2.59962,15.24353,7.54331,17.919,16.50518a27.522,27.522,0,0,1,.76538,13.5993c-.59232,2.87738-.947,5.77936-1.82712,8.62185a83.64129,83.64129,0,0,1-3.5344,9.56451,138.47647,138.47647,0,0,1-16.2913,26.63567,257.01868,257.01868,0,0,1-30.08512,32.62074c-4.12965,3.85368-8.5952,7.25462-12.945,10.8194-3.49531,2.8645-6.78129,5.994-10.36616,8.73735A299.89714,299.89714,0,0,1,159.47286,216.905c-4.599,2.70936-9.13181,5.53709-13.80105,8.11913-3.946,2.18209-8.0117,4.158-12.08474,6.09887-6.55017,3.12133-13.19572,6.03979-19.99921,8.56792-3.87607,1.4403-7.835,2.65759-11.75338,3.98483-4.36166,1.47739-8.86093,2.45021-13.32983,3.50619-2.9472.69643-5.997.949-8.98854,1.47105a65.40748,65.40748,0,0,1-17.76166.37528c-6.58106-.65893-13.00353-2.43573-18.2789-6.97429a23.399,23.399,0,0,1-7.86145-13.27677c-1.18235-5.62265-.48874-11.21039.6578-16.74924.25145-1.21475.48514-2.59975,1.93466-3.171.84848.07628,1.18183.7864,1.71782,1.33338a31.9252,31.9252,0,0,1-.80628,5.17374,28.20778,28.20778,0,0,0,.11531,14.216c1.56211,6.24961,5.58986,10.303,11.11074,13.02431,5.20231,2.56423,10.85726,3.35492,16.60381,3.466a94.90955,94.90955,0,0,0,17.08233-1.47843A151.47,151.47,0,0,0,100.42,240.79307a155.15,155.15,0,0,0,15.87025-5.60651,252.88587,252.88587,0,0,0,23.6298-10.89837,334.359,334.359,0,0,0,29.73222-17.63426q10.7235-7.13,20.87233-15.03044c4.15233-3.23072,8.44816-6.29465,12.42055-9.75369,1.59553-1.38933,3.00178-2.99357,4.57154-4.41474a307.89864,307.89864,0,0,0,22.7331-22.827,185.82544,185.82544,0,0,0,12.81727-16.00162,131.12578,131.12578,0,0,0,11.58917-19.11981,96.93872,96.93872,0,0,0,5.30083-13.61178,34.55189,34.55189,0,0,0,1.34452-16.15868c-1.449-8.31035-6.53271-13.83356-14.5585-16.59873a44.16425,44.16425,0,0,0-13.01788-2.27795c-8.74769-.29068-17.29179,1.08076-25.78037,3.04343a167.812,167.812,0,0,0-21.31472,6.61755c-5.92786,2.23279-11.66052,4.98316-17.47381,7.51765a5.3706,5.3706,0,0,0-.86629.58893c.11757.91225.78451.70421,1.28836.768,5.163.65348,10.36111.52022,15.544.74145,4.79658.20474,9.57458.8502,14.38565.9141a1.48273,1.48273,0,0,1,1.595,1.24506c-.94622,1.35389-2.33221,1.36867-3.73467,1.37649-7.06618.03939-14.133.04665-21.19812.15755-2.3995.03766-4.79811.312-7.18963.55262a10.20464,10.20464,0,0,0-2.04393.70471c3.52562,6.09006,8.99129,10.38558,12.90078,15.67777-.00592.94805-.53718,1.32208-.86949,1.93849a33.79724,33.79724,0,0,1-4.41816-3.60443q-4.19876-4.24452-8.745-8.11748A7.23977,7.23977,0,0,0,162.8317,99.22853Z" fill="#2cdcf1"/></svg>