<?xml version="1.0" encoding="UTF-8"?>
<svg data-name="Layer 1" inkscape:export-filename="erna1.png" inkscape:export-xdpi="96" inkscape:export-ydpi="96" inkscape:version="1.2.1 (9c6d41e4, 2022-07-14)" sodipodi:docname="erna12.svg" version="1.1" viewBox="0 0 300 300" xmlns="http://www.w3.org/2000/svg" xmlns:inkscape="http://www.inkscape.org/namespaces/inkscape" xmlns:sodipodi="http://sodipodi.sourceforge.net/DTD/sodipodi-0.dtd" xmlns:xlink="http://www.w3.org/1999/xlink">
 <sodipodi:namedview bordercolor="#666666" borderopacity="1.0" inkscape:current-layer="Layer_1" inkscape:cx="104.98669" inkscape:cy="94.450392" inkscape:deskcolor="#d1d1d1" inkscape:pagecheckerboard="true" inkscape:pageopacity="0.0" inkscape:showpageshadow="2" inkscape:window-height="847" inkscape:window-maximized="0" inkscape:window-width="1440" inkscape:window-x="0" inkscape:window-y="25" inkscape:zoom="1.3287399" pagecolor="#ffffff" showgrid="false"/>
 <defs>
  <linearGradient id="linear-gradient" x1="77.639" x2="221.73" y1="143.7" y2="143.7" gradientUnits="userSpaceOnUse">
   <stop stop-color="#191f70" offset="0"/>
   <stop stop-color="#2c9fd6" offset=".6"/>
  </linearGradient>
  <linearGradient id="linear-gradient-2" x1="78.335" x2="225.97" y1="39.105" y2="39.105" xlink:href="#linear-gradient"/>
  <linearGradient id="linearGradient140" x1="77.639" x2="221.73" y1="143.7" y2="143.7" gradientUnits="userSpaceOnUse" inkscape:collect="always" xlink:href="#linear-gradient"/>
 </defs>
 <g transform="matrix(.94089 0 0 .94089 8.9028 66.444)">
  <g fill="#191f70">
   <path d="m142.98 93.503a22.432 22.432 0 0 0-28.203-23.359 22.645 22.645 0 0 0 9.323 44.273c7.4837-1.2716 12.931-5.4228 16.496-12.085 0.12017-0.2245 0.33582-0.44245 0.22344-0.764h-7.4839a16.025 16.025 0 0 1-18.839 5.4034c-5.6345-2.2667-10.19-8.4323-9.9027-13.469zm-21.934-17.404c7.5952 0.273 13.169 6.0236 14.324 10.723h-29.955c1.2665-4.674 7.0048-11.033 15.631-10.723z"/>
   <path d="m38.273 70.125a22.659 22.659 0 1 0 14.863 31.459h-7.5516a16.081 16.081 0 0 1-19.454 5.1388c-6.0989-2.709-9.3318-8.9228-9.2746-13.225h38.328c1.137-10.864-6.8551-20.995-16.911-23.372zm-20.58 16.686c1.1181-4.3648 6.4078-10.304 14.189-10.715 6.911-0.36529 13.858 4.2717 15.806 10.715z"/>
   <path d="m289.99 113.69q7e-3 -10.857 4e-3 -21.713a21.016 21.016 0 0 0-4.6811-13.648c-6.136-7.5567-14.05-10.241-23.528-8.1868a20.974 20.974 0 0 0-10.625 6.1816c-5.4893 5.6251-7.3125 12.373-6.0895 20.011a20.844 20.844 0 0 0 5.4438 10.913c5.4664 5.9706 12.259 8.2916 20.218 7.2677a21.462 21.462 0 0 0 11.542-5.3683 4.697 4.697 0 0 1 1.1125-0.89374v6.48h6.523a2.6687 2.6687 0 0 0 0.0801-1.043zm-22.75-5.5412a16.259 16.259 0 0 1-15.926-16.348c0.15973-8.6162 7.6457-15.922 16.02-15.675 8.3853-0.24663 16.068 7.0729 16.068 15.995a16.271 16.271 0 0 1-16.162 16.028z"/>
  </g>
  <path d="m210.51 128.12a73.035 73.035 0 0 1-14.026 15.856 71.779 71.779 0 0 1-43.621 16.924 66.596 66.596 0 0 1-7.4104-0.1015c-2.6135-0.1899-5.2071-0.4866-7.7904-0.92356a71.187 71.187 0 0 1-18.112-5.6669 22.594 22.594 0 0 0-2.7764-1.2824c-0.12814-0.0771-0.25317-0.16-0.38485-0.23052a72.405 72.405 0 0 1-29.835-29.51c-0.34564-0.6281-0.67712-1.2639-1.0134-1.8926a21.926 21.926 0 0 1-7.8366-1.5018c-0.15742 0.27936 0.0016 0.41652 0.0669 0.57128 0.76066 1.8022 1.6279 3.554 2.5461 5.2793a78.595 78.595 0 0 0 21.373 25.397 74.586 74.586 0 0 0 14.683 8.9822 5.2594 5.2594 0 0 0 1.6676 0.84587 78.471 78.471 0 0 0 29.097 6.6987c2.3465 0.0888 4.6956 0.0473 7.0478-0.0789a80.219 80.219 0 0 0 10.122-1.175 76.902 76.902 0 0 0 18.367-5.7748 79.262 79.262 0 0 0 38.548-37.971 3.5586 3.5586 0 0 0 0.50262-1.2536h-7.273c-1.2296 2.3327-2.5089 4.6159-3.9426 6.8087z" fill="url(#linearGradient140)"/>
  <path d="m228.82 87.101a16.65 16.65 0 0 0-0.43333-3.5819 17.874 17.874 0 0 0-6.4214-10.093 17.574 17.574 0 0 0-13.705-3.8139 17.032 17.032 0 0 0-9.8825 4.6426 17.372 17.372 0 0 0-5.892 13.119c-0.028 8.7771-8e-3 17.554-5e-3 26.332a3.0857 3.0857 0 0 0 0.0516 0.988h6.5895c0-0.39891 8e-5 -0.72862 8e-5 -1.0582q0-12.804 6.2e-4 -25.608c0-0.33157 9e-3 -0.66314 0.0156-0.99462a11.527 11.527 0 0 1 23.039 0.72384q0.017 12.985 8e-3 25.97a1.9857 1.9857 0 0 0 0.0879 0.99285h6.4563a1.2301 1.2301 0 0 0 0.0919-0.743q7e-3 -13.437-2e-3 -26.875z" fill="#191f70"/>
  <path d="m85.591 114.74c0-2.0272 0.0015-3.982-0.0023-5.9369a1.2083 1.2083 0 0 0-0.09221-0.67447 1.3932 1.3932 0 0 0-0.21025-0.0355 7.7381 7.7381 0 0 1-7.4671-7.8438c0.04858-7.6918 0.01213-15.384 0.01761-23.076a1.8778 1.8778 0 0 1 0.14619-1.0821h7.5505v-6.6551h-7.6982v-6.4741h-6.6534v0.70676q0 18.416 0.0063 36.832a13.146 13.146 0 0 0 0.1492 2.0713 14.258 14.258 0 0 0 7.2999 10.432 13.35 13.35 0 0 0 6.9538 1.737z" fill="#191f70"/>
  <path d="m85.579 56.27c0.20477-0.38369 0.38891-0.72782 0.57218-1.0725a72.567 72.567 0 0 1 20.461-24.038 77.487 77.487 0 0 1 10.692-6.725 36.526 36.526 0 0 0 3.3622-1.5187 71.3 71.3 0 0 1 24.127-6.0473 65.132 65.132 0 0 1 8.306-0.1184 80.906 80.906 0 0 1 10.217 1.1574 69.908 69.908 0 0 1 16.649 5.2653 72.488 72.488 0 0 1 37.148 39.051 6.012 6.012 0 0 0 0.80287 1.7602 24.369 24.369 0 0 1 7.9906 4.2262 1.2103 1.2103 0 0 0-0.0426-0.84455 78.754 78.754 0 0 0-63.627-56.384 89.045 89.045 0 0 0-11.776-0.97223c-2.2259-0.0477-4.4519 0.10822-6.6757 0.26688a74.24 74.24 0 0 0-7.7905 0.976 77.368 77.368 0 0 0-15.576 4.5026 18.295 18.295 0 0 0-3.5043 1.6084c-0.11167 0.04283-0.22662 0.07876-0.33458 0.12955a79.124 79.124 0 0 0-38.041 38.107c-0.0953 0.20335-0.28927 0.39909-0.16255 0.67057z" fill="url(#linear-gradient-2)"/>
  <path d="m175.9 76.165a2.401 2.401 0 0 0 1.2136-0.17247v-6.5039a19.311 19.311 0 0 0-2.7204 0.16468 18.155 18.155 0 0 0-15.446 17.503c-0.0229 8.9571-6e-3 17.914-8e-4 26.871 9e-5 0.2291-0.0847 0.48041 0.0822 0.67668h6.5347v-1.0407q0-9.1834 4e-3 -18.367c6e-3 -2.8038-0.0673-5.6083 0.0484-8.4115a11.525 11.525 0 0 1 10.284-10.72z" fill="#191f70"/>
 </g>
</svg>
