<svg id="Layer_1" data-name="Layer 1" xmlns="http://www.w3.org/2000/svg" viewBox="0 0 300 300"><defs><style>.cls-1{fill:#3999d4;}</style></defs><path class="cls-1" d="M146,159.55q0,9.63,5.14,15.24t13.92,5.67q8.7,0,13.91-5.61t5.21-15q0-9.36-5.21-15t-13.91-5.67q-8.52,0-13.79,5.67T146,159.55Zm-15.17-.26a31.92,31.92,0,0,1,10-23.68,35.13,35.13,0,0,1,48.67.07,34.39,34.39,0,0,1-.07,48.34,34,34,0,0,1-24.6,9.7,32.61,32.61,0,0,1-24.2-9.9Q130.83,174.07,130.83,159.29Z"/><path class="cls-1" d="M204.84,127.63h13.21v9c5.1-5.57,11.6-11.14,20.89-11.14,7.86,0,14,2.71,18.44,7.42,3.79,4,5.23,10.53,5.23,19.58v39.38H248.78V156q0-9.5-2.78-13.12c-1.8-2.47-3.82-5.55-10.32-5.55a16.6,16.6,0,0,0-13.46,7.2c-2.13,3.21-4,5.57-4,16.35v31H204.83V127.63Z"/><path class="cls-1" d="M89.94,151.48Q85.89,138,70.36,138a22.68,22.68,0,0,0-6.64.94,20,20,0,0,0-5.65,2.69,18,18,0,0,0-4.35,4.22A18.36,18.36,0,0,0,51,151.48Zm14.21,10.84H50c.43,5.27,2.32,10.05,7.42,14.69,3.34,3,9.7,4.18,14.85,4.18,4,0,9-1,11.61-2.79s3.67-2.21,7-7l10.21,7.89a41.75,41.75,0,0,1-10.45,10A31.37,31.37,0,0,1,82,192.66a45.74,45.74,0,0,1-10.09,1.06q-15.6,0-25-9.24t-9.45-24.66q0-15.24,9.16-24.67T71,125.85c10.26,0,18.06,3.37,24,9.39s9.17,13.92,9.17,24.51Z"/><polygon class="cls-1" points="124.73 120.27 124.73 191.87 111.22 191.87 111.22 120.27 87.34 120.27 87.34 106.28 148.54 106.28 148.54 120.27 124.73 120.27"/></svg>