<svg id="Layer_1" data-name="Layer 1" xmlns="http://www.w3.org/2000/svg" xmlns:xlink="http://www.w3.org/1999/xlink" viewBox="0 0 300 300"><defs><linearGradient id="linear-gradient" x1="37.21156" y1="224.43018" x2="263.34873" y2="93.86982" gradientUnits="userSpaceOnUse"><stop offset="0.16809" stop-color="#9163a9"/><stop offset="0.67592" stop-color="#00a4b2"/></linearGradient></defs><path d="M275,114.05042c-24.3847-2.40734-49.31477-4.8684-74.209-7.32395L229.98761,68.702,213.81928,82.19441c-.11568.08539-.2534.1212-.36633.21485-.29748.24652-.5922.49166-.88692.73818l-19.87024,15.09c-3.6661-24.10512-4.8202-47.97612-8.25493-71.55654-2.24208,23.787-4.48417,47.57537-6.751,71.61576-2.67452-1.46809-5.36557-2.87421-7.99051-4.396C149.42693,82.16,127.67819,78.57513,104.71477,82.536,87.0811,85.57957,71.359,92.80987,58.19021,105.15509c4.14812.35532,6.02662,3.48431,8.23565,6.21117-2.209-2.72686-4.08753-5.85585-8.23565-6.21117a19.65743,19.65743,0,0,0-2.72135,1.91431c-24.93007,24.48936-34.90375,54.07436-28.654,88.42035,4.2583,23.40551,16.4355,42.60367,35.23979,57.29977,22.92762,17.9215,48.987,23.87513,77.45922,18.77674,17.83473-3.19235,33.72762-10.705,46.72288-23.6782-.05509-.8456-.10467-1.62785-.15425-2.45416.05233.82631.10191,1.60856.15425,2.45416a21.27471,21.27471,0,0,0,2.6938-1.99143c18.157-18.32088,28.2078-40.3244,29.15807-66.13037.70513-19.11-6.98516-42.17261-16.92854-58.48692Q238.72044,117.60222,275,114.05042Zm-73.3469,8.13237c-.05784-.10743-.14874-.27407-.26442-.482C201.47957,121.86465,201.576,122.04507,201.6531,122.18279Zm.62525,38.20351c5.40413,28.9818-1.98317,54.26167-22.78439,75.41821-.6225.63489-1.16512,1.35241-1.74629,2.03275h0c-16.79082,13.9593-35.82372,22.26932-57.9388,21.633-38.826-1.11828-70.46029-27.73267-78.51415-63.24651-6.77307-29.86871.93925-55.94461,22.57506-77.78149,1.57827-1.592,3.1345-3.20612,4.70176-4.80918h0c10.74491-7.985,22.34369-14.04881,35.58959-16.89135,20.49549-4.3974,39.68539-.95165,57.96909,8.80719a2.71,2.71,0,0,1,1.78761,2.125q-31.06964,3.04911-62.13374,6.09961c21.6358,2.08508,46.00948,4.72518,67.63978,6.87636-5.00474,9.073-18.04131,26.57445-18.04131,26.57445s16.24544-13.279,26.34858-18.46412c2.26412,23.181,5.29671,45.51921,7.46718,67.74583,2.019-20.37016,4.0407-40.7417,6.18087-62.34721A62.15028,62.15028,0,0,1,202.27835,160.3863Zm-21.89748,77.61209a6.32811,6.32811,0,0,0-2.29166-.14047A6.32811,6.32811,0,0,1,180.38087,237.99839Z" fill="url(#linear-gradient)"/></svg>