<svg id="Layer_1" data-name="Layer 1" xmlns="http://www.w3.org/2000/svg" viewBox="0 0 300 300"><defs><style>.cls-1{fill:#e25651;}</style></defs><path class="cls-1" d="M150.21,199.62c-3.06,5.47-5.72,10.7-8.81,15.66-16.37,26.35-50,38.9-77.71,28.8C47,238,36,226.52,33.4,208.63c-2.62-18.09,3.62-33.07,18.28-44.24,4.36-3.32,8.75-2.86,11.59.85s1.94,8.12-2.2,11.44C50,185.59,45.69,198.17,49.51,210.49c3.55,11.5,15.62,20.29,29.15,21q33.53,1.76,51-27a89.34,89.34,0,0,0,11.75-31.54c.31-1.76.85-3.57,0-5.74a290.44,290.44,0,0,1-31.11-1.95c-20.42-2.45-40.42-6.57-58.81-16.27-14.6-7.69-26.27-18.28-30.84-34.79C11.91,82.59,34,53.29,67.08,52.69c29-.52,50.89,12.55,67.16,35.94a133.73,133.73,0,0,1,15.53,30.92c1.61-1.18,1.71-2.83,2.26-4.2,7.91-19.57,18.46-37.32,36.32-49.44C206,54,225.45,49,246.32,55c38.94,11.34,44.29,55.64,21.31,79.75-9.18,9.63-20.47,15.85-32.79,20.37-22.26,8.15-45.48,10.89-69,11.89-2.52.11-5.08-.19-7.85.67a74.78,74.78,0,0,0,5.73,23.63c6.79,16.82,16.76,30.83,34.7,37.15,11.79,4.16,23.79,5,35.52-.29,20.41-9.24,24.12-34.78,7.32-49.66-.85-.74-1.78-1.39-2.63-2.13-3.46-3-4.08-7.6-1.48-10.95a7.73,7.73,0,0,1,11-1.35c11,7.94,17.53,18.69,18.93,32.21,3.12,30.13-19.9,50.2-47,51-30.07.85-51.73-13.27-65.74-39.59C153,205.12,151.67,202.5,150.21,199.62Zm-8.44-47.75c-3.31-21.07-9.58-40.28-22.05-56.9C106.14,76.87,88.3,66.7,65.07,68.67c-13.13,1.11-23.67,7.14-28.52,20-5,13.17-2.42,25.27,7.4,35.59a53.68,53.68,0,0,0,15.58,11.53C85.32,148.29,113.09,150.56,141.77,151.87Zm17-.49a18.73,18.73,0,0,0,2.62.24c21.33-.85,42.5-2.82,63-9.31,12.36-3.91,23.88-9.27,32.9-19.07,16.27-17.68,9.25-45.48-13.56-52.86-10.87-3.51-21.83-2.6-32.41,1.17-16.87,6-28.78,17.79-37.19,33.39A135,135,0,0,0,158.81,151.38Z"/></svg>