<svg id="Layer_1" data-name="Layer 1" xmlns="http://www.w3.org/2000/svg" viewBox="0 0 300 300"><path d="M251.68608,222.26662a58.80235,58.80235,0,0,0-16.02549-59.10444L185.414,114.26145l-48.37905-50.2153c-7.57457-8.597-28.775-23.47486-55.54672-16.57847a121.17422,121.17422,0,0,1,70.99838-22.54627,124.7549,124.7549,0,0,1,99.19949,197.34521Z" fill="#70808a"/><circle cx="150.2017" cy="149.88062" r="93.8994" fill="#b00067"/><path d="M219.68726,251.605A57.08373,57.08373,0,0,1,161.407,235.26648l-48.12865-50.94564-49.558-49.15112A58.7845,58.7845,0,0,1,47.4549,78.924,124.32132,124.32132,0,0,0,147.83336,275.07982,120.41943,120.41943,0,0,0,219.68726,251.605Z" fill="#ef6d19"/><path d="M182.597,62.01166c-12.21735-2.65005-25.66582.2504-11.20532,15.07607,26.9387,19.72929,34.27328,27.18908,50.66393,52.45846,14.304,14.95086,16.182,0,13.04159-13.16679C229.9223,94.49041,204.73638,66.77965,182.597,62.01166Z" fill="#c32183"/></svg>