<svg id="Layer_1" data-name="Layer 1" xmlns="http://www.w3.org/2000/svg" viewBox="0 0 300 300"><path d="M88.33,150.78C73.67,134.27,67.58,106.72,78.74,82A65.78,65.78,0,0,1,202.87,94.15c6.14,26.85-5.62,52-21.22,64.28a58,58,0,0,1-5.83-8.84c-2.25-4.18-4.33-8.44-4.53-13.34-.15-3.72.69-7.31,1.47-10.9,1.31-6,2.56-12,2.2-18.29-1-16.32-14.09-30.77-30.32-33.14s-31.12,5.23-38.28,19.56a35.5,35.5,0,0,0-1.81,28.33,9.91,9.91,0,0,1,0,6.73c-2.39,7-6.86,12.67-11.8,18A33,33,0,0,1,88.33,150.78Z" fill="#00aadb"/><path d="M187.14,208.27c1.44-10.73-3.11-19.9-7.71-29a100.49,100.49,0,0,0-26.12-32.88c-5.46-4.46-11.36-8.14-18.65-8.87a21.42,21.42,0,0,0-9.15,1.48c-13.63,4.64-24,13.53-32.32,25-1.47,2-2.79,4.14-4.21,6.18-3.56,5.09-5.23,10.79-6,16.92-.68,5.65-2.73,10.75-7.62,14.25a16.14,16.14,0,0,1-22.54-4,15.55,15.55,0,0,1,4.26-22.06,19.2,19.2,0,0,1,6.27-2.84C73.57,170,82.08,164.56,89.93,158c7.46-6.26,13.94-13.38,18.44-22.13a31.9,31.9,0,0,0,3.1-8.78c.65-3.44-.73-6.51-1.65-9.66-4.32-14.86,5-31.88,19.94-36.24,13.51-4,27,.94,34.4,12.68,4.69,7.46,5.55,15.62,3.71,24.14-.85,4-1.7,7.92-2.44,11.89-1.37,7.38.34,14.21,3.74,20.77,4.34,8.37,10.26,15.61,16.14,22.89,3.11,3.83,6.56,7.35,9.88,11,4.23,4.65,10,6.73,15.47,9.19,4.42,2,8.69,4.17,11.6,8.25,4.47,6.27,5.27,13.06,2,20s-9.12,11-17,11.16c-11.49.25-20-8.26-20.07-19.78C187.13,211.64,187.14,210,187.14,208.27Z" fill="#f58a35"/><path d="M193,172.68a43.22,43.22,0,1,1-21.88,65.78c-12.87-18.55-8.61-41.61,3.56-53.76.15.1.37.17.43.31,2.92,6.08,5.92,12.12,5.72,19.14-.1,3.06-.08,6.11-.08,9.17a25.8,25.8,0,0,0,28.63,26.07c11.59-1.07,21.35-10.83,22.83-22.34a26.44,26.44,0,0,0-14.57-27,71.89,71.89,0,0,0-8.31-3.86c-6-2.13-10.12-6.47-14.17-11C194.51,174.45,193.85,173.64,193,172.68Z" fill="#00aadb"/><path d="M165.36,168.94c-20.8,9.54-46.16,6.63-63.31-5.72a30.44,30.44,0,0,1,4.91-5.47A58.36,58.36,0,0,1,127.65,145a16.24,16.24,0,0,1,13.53,1c7,3.59,12.62,8.88,17.83,14.64,2,2.22,3.82,4.6,5.7,6.92C165,167.94,165.45,168.26,165.36,168.94Z" fill="#4ca7d5"/></svg>