<svg id="Layer_1" data-name="Layer 1" xmlns="http://www.w3.org/2000/svg" viewBox="0 0 300 300"><path d="M246.015,248.38726l3.985,1.1866v.72223H230.7423v-.76826c1.30642-.37323,2.628-.75078,4.00161-1.14323l-3.72454-8.38134H215.3729c-1.19582,2.77345-2.392,5.54761-3.61326,8.38016l3.99057,1.14052v.73229c-.3228.08131-21.20584.11554-22.09666.03355l-9.26085-17.962h-3.4312v16.07488l3.27544,1.11768v.77422H167.49276a1.49254,1.49254,0,0,1-.02905-.71109l3.29674-1.181v-35.9011l-3.28756-1.18005v-.721c.117-.00782.23017-.022.34335-.022,6.32751.00058,12.6551-.0158,18.9825.01252a28.95352,28.95352,0,0,1,7.95311,1.04928,13.96552,13.96552,0,0,1,4.71352,2.2653,8.93522,8.93522,0,0,1,3.54639,6.20635,11.36465,11.36465,0,0,1-.32,4.74018,8.43226,8.43226,0,0,1-3.91336,4.89691,16.10069,16.10069,0,0,1-4.94331,1.85027,35.42419,35.42419,0,0,1-5.96573.69317,2.29064,2.29064,0,0,0-.44118.05181,27.362,27.362,0,0,0,8.72982,1.88522l7.59017,14.16419,2.82619.86181,2.91824-.86781,16.80829-38.3207h1.83037Q237.07218,229.22494,246.015,248.38726Zm-65.05359-17.67261c.12315,0,.20927.00155.29532-.00024,1.28179-.02661,2.5642-.037,3.84514-.08591a9.88007,9.88007,0,0,0,2.98022-.58675,5.79657,5.79657,0,0,0,2.97155-2.26412,8.06819,8.06819,0,0,0,1.15463-3.178,19.358,19.358,0,0,0,.15491-4.465,11.09162,11.09162,0,0,0-.71042-3.41138,6.24663,6.24663,0,0,0-2.427-3.07271,8.56923,8.56923,0,0,0-3.52215-1.20932,32.13935,32.13935,0,0,0-4.5929-.16284.67437.67437,0,0,0-.14928.04177Zm42.16913-8.4844-.09383-.00145q-3.42081,7.94548-6.85042,15.91144h14.01876Z" fill="#2f2a2b"/><path d="M162.53675,230.47016a20.62169,20.62169,0,0,1-6.95642,15.50282,18.80757,18.80757,0,0,1-9.39263,4.54111,19.971,19.971,0,0,1-20.7185-9.22246,19.53377,19.53377,0,0,1-2.79908-7.77625,20.52262,20.52262,0,0,1,4.13415-15.92864,19.03832,19.03832,0,0,1,10.45048-6.88029,20.12578,20.12578,0,0,1,6.26608-.6377,19.65224,19.65224,0,0,1,16.81135,10.95973,20.765,20.765,0,0,1,2.11056,7.49916C162.49792,229.13056,162.50285,229.73809,162.53675,230.47016Zm-11.705-.05081a63.36331,63.36331,0,0,0-.478-8.36109,23.66423,23.66423,0,0,0-1.0866-4.73808,11.35778,11.35778,0,0,0-1.92771-3.51274,6.45465,6.45465,0,0,0-7.88348-1.50061,7.01,7.01,0,0,0-2.65278,2.60608,14.22051,14.22051,0,0,0-1.59445,3.87427,35.23257,35.23257,0,0,0-1.04471,7.75632,81.21117,81.21117,0,0,0,.1542,10.014,30.01137,30.01137,0,0,0,1.075,6.14,12.53532,12.53532,0,0,0,2.13841,4.29058,6.39558,6.39558,0,0,0,9.89019-.01236,12.58584,12.58584,0,0,0,2.1307-4.3429,32.039,32.039,0,0,0,1.12732-7.29456C150.77183,233.701,150.7839,232.05916,150.83175,230.41935Z" fill="#2f2a2b"/><path d="M50.01511,250.25791c-.004-.054-.0127-.12456-.01384-.19523-.00236-.14645-.00071-.293-.00071-.47225l3.43316-1.19253V212.50333l-3.40952-1.18592v-.67027c.33548-.09569,29.8128-.14316,31.12407-.04982.08454.30905.11583,12.77492.0306,13.526h-.807c-.03758-.09927-.08777-.2176-.12765-.33934a36.93851,36.93851,0,0,0-2.03382-5.18681,14.57846,14.57846,0,0,0-1.737-2.71834,9.12831,9.12831,0,0,0-5.32762-3.17211,17.29744,17.29744,0,0,0-3.42954-.31419c-1.25359-.01353-2.50743-.00392-3.76115-.00256-.10067.00011-.20132.01445-.32531.024v17.18027a8.10549,8.10549,0,0,0,5.82948-1.905,8.747,8.747,0,0,0,1.94417-2.67044c.417-.862.77475-1.75286,1.15633-2.632.07529-.17349.13979-.35169.21263-.53621h.8475c.08275.32445.113,15.97716.03083,16.73914h-.88289c-.18508-.44606-.37018-.90925-.56857-1.36664a15.07578,15.07578,0,0,0-1.38721-2.56583,6.99893,6.99893,0,0,0-4.87985-3.05045c-.6102-.09574-1.23094-.12511-1.84735-.17921-.143-.01256-.28808-.00186-.45567-.00186v16.97283l3.41173,1.12735v.72681c-.009.00816-.01965.01852-.0311.02784-.011.00894-.02233.02322-.03435.02413-.088.00665-.17623.01472-.26439.01468q-8.29634-.00348-16.59267-.00994C50.09339,250.30933,50.06837,250.28524,50.01511,250.25791Z" fill="#2f2a2b"/><path d="M102.79593,210.601v.77194l-3.41245,1.129v35.9808c.12114.01038.22159.02728.32188.02636,1.76952-.01626,3.54115.01357,5.308-.065a12.15907,12.15907,0,0,0,6.0392-1.77407,11.55165,11.55165,0,0,0,3.60351-3.72284,27.688,27.688,0,0,0,2.59291-5.66206c.19106-.54179.37243-1.087.56529-1.65127h.78409c.09081.37226.13206,13.04195.04859,14.61722-.01044.01044-.02041.0214-.0314.03123-.01063.0095-.0223.02559-.03351.02559q-16.30461.00678-32.6092.01038a1.60783,1.60783,0,0,1-.19233-.02527v-.71067l3.40366-1.184V212.5l-3.40082-1.1798V210.601Z" fill="#2f2a2b"/><path d="M212.61729,135.82307c15.81394,8.88186,26.92817,22.14407,36.90054,36.845a19.07873,19.07873,0,0,1-1.7175,1.41149c-12.39856,7.94442-25.73972,13.50617-40.37119,15.64847a54.97567,54.97567,0,0,1-26.34622-2.14251c-11.16107-3.8741-19.39354-11.36151-25.64329-21.182-1.63792-2.57372-3.00225-5.3217-4.48946-7.99119-.30458-.5467-.59682-1.10027-1.06972-1.9739-.54165.95318-.96354,1.619-1.31209,2.3213a70.81853,70.81853,0,0,1-8.61264,13.58909c-11.04256,13.44567-25.469,19.00973-42.55409,17.86414-16.47473-1.10469-31.29312-7.19478-45.14879-15.88242-.68664-.43052-1.308-.96513-2.10149-1.557a144.18514,144.18514,0,0,1,16.36152-20.8137A84.17659,84.17659,0,0,1,87.09788,135.85a92.10742,92.10742,0,0,1-13.20354-26.18822,115.13152,115.13152,0,0,1-4.61321-19.44353c-.1305-.89587-.12741-1.8112-.20276-2.97321,17.69011-1.78094,34.95738-1.79925,51.91242,4.72729,7.54481-15.82305,15.79363-31.1037,29.672-42.83453A155.53807,155.53807,0,0,1,166.77,69.31733a110.86971,110.86971,0,0,1,12.07714,22.59911c16.82947-6.4782,34.02371-6.41,51.33-4.742.70809,3.80651-1.84719,15.67441-5.40833,25.4823A91.446,91.446,0,0,1,212.61729,135.82307ZM147.39158,116.224c.24531-19.13681.761-38.22068.71373-57.62377-7.59376,6.2077-19.64339,27.32575-22.43592,35.57952A49.66279,49.66279,0,0,1,147.39158,116.224Zm27.04366,11.92925q23.26017-18.13235,46.52032-36.26469l-.23845-.56816c-13.724-.85272-27.22344.05572-40.41909,5.25838C182.33559,107.932,179.46765,118.16435,174.43524,128.15322ZM78.97809,91.32183l-.22838.58971,46.49178,36.23689c-5.047-10.01087-7.89392-20.25139-5.86634-31.57193C106.16751,91.375,92.68211,90.478,78.97809,91.32183ZM182.5,155.5618c10.28,3.04946,55.272,12.52063,57.55335,12.29929-.39741-.588-.72823-1.13074-1.11024-1.63462a117.50719,117.50719,0,0,0-13.10752-14.70275,73.03192,73.03192,0,0,0-13.23038-10.07066c-.8487-.494-1.74877-.89967-2.70511-1.3869a39.23593,39.23593,0,0,1-12.30986,10.14462C192.83915,152.75936,187.70219,154.21616,182.5,155.5618ZM59.62854,167.64344l.32226.65857,57.27659-12.40272.1132-.54794c-10.86138-2.104-20.46513-6.468-27.6766-15.354C77.1464,146.73962,67.94492,156.71168,59.62854,167.64344Zm140.28419,17.55172c8.71294,1.01785,33.09379-6.47234,39.16366-12.07838l-55.54368-12.02519-.29745.47033A51.39236,51.39236,0,0,1,199.91273,185.19516ZM116.20943,161.072,60.65976,173.11011c12.20135,7.06219,24.934,11.79472,38.99188,12.34286,1.79582-4.91919,3.78136-9.44031,6.8494-13.30281C109.50915,168.3631,112.86886,164.85542,116.20943,161.072ZM153.46366,59.58266c-.82327,2.88142-1.17337,53.0384-.38614,55.80443a47.27563,47.27563,0,0,1,21.32506-21.41184C169.53728,81.02317,161.92886,70.18728,153.46366,59.58266Zm71.034,36.44994-.58887-.35858q-22.04745,17.2736-44.09095,34.55221a.33976.33976,0,0,0-.07927.25613c.00382.06192.08426.11909.208.27764,9.62151-2.02081,19.01258-.76132,28.18175,2.92635C216.82548,122.33159,221.57112,109.573,224.49762,96.0326ZM91.82539,133.60825a49.65645,49.65645,0,0,1,28.2489-3.03939C105.32666,118.77094,90.51051,107.19365,75.35613,95.425,76.94613,107.71838,84.86447,126.32332,91.82539,133.60825Zm55.11409,11.34587a15.47153,15.47153,0,0,0,.34468-1.93213,58.47578,58.47578,0,0,0-1.37512-15.17136c-2.81816-11.90324-9.11043-21.35038-19.68422-27.74923a22.99189,22.99189,0,0,0-2.09612-1.00365,4.91232,4.91232,0,0,0-.35525.81449c-.07246.45636-.11882.91783-.15487,1.37888a37.0113,37.0113,0,0,0,2.5047,16.33422c3.67182,9.55664,9.90926,17.287,17.29174,24.19241C144.481,142.81486,145.59515,143.76049,146.93948,144.95412Zm28.828-46.10076a40.68033,40.68033,0,0,0-17.37633,16.80631c-4.92107,9.01221-6.49229,18.71006-5.911,29.23209a11.0073,11.0073,0,0,0,1.43338-.98468c3.487-3.569,7.18218-6.96558,10.38171-10.77768,5.92089-7.05447,10.05992-15.06022,11.45658-24.29188A35.65917,35.65917,0,0,0,175.76752,98.85336ZM155.11489,155.257c4.32492,15.4,24.46061,30.67615,39.36014,29.861C190.74769,171.14982,174.16246,156.68214,155.11489,155.257Zm-49.76517,29.78367c5.74384.58793,15.59226-2.77994,22.34921-7.746,7.76459-5.70666,13.09588-13.29025,17.19868-22.14C123.19141,157.2057,108.15638,173.54437,105.34972,185.04071Zm99.138-47.43664a40.33437,40.33437,0,0,0-24.194-1.92231c-8.77027,1.99563-20.22311,8.529-23.4581,13.26952C173.589,154.12931,192.14427,151.0834,204.48774,137.60407Zm-109.09992.18769c12.85119,14.2473,33.49624,16.13854,47.47753,10.90252C129.58576,135.61193,110.15535,130.96842,95.38782,137.79176Z" fill="#2f2a2b"/></svg>