<svg id="Layer_1" data-name="Layer 1" xmlns="http://www.w3.org/2000/svg" viewBox="0 0 300 300"><path d="M18.5,147.28045H29.36388v2.75507H21.41642v6.03589h7.94746V158.826H21.41642v10.07513H18.5Z" fill="#1d3164"/><path d="M42.48082,146.97089a10.61044,10.61044,0,0,1,7.862,3.173,10.848,10.848,0,0,1,3.14029,7.95465,10.66579,10.66579,0,0,1-3.16962,7.91621,10.90019,10.90019,0,0,1-7.993,3.134,10.29444,10.29444,0,0,1-7.67265-3.134,10.77469,10.77469,0,0,1-3.06746-7.8543,11.0218,11.0218,0,0,1,3.08934-8.01656A10.44234,10.44234,0,0,1,42.48082,146.97089Zm.11656,2.94081A7.6598,7.6598,0,0,0,36.85,152.23289a8.16462,8.16462,0,0,0-2.251,5.92754,8.0098,8.0098,0,0,0,2.25821,5.8192,8.03011,8.03011,0,0,0,11.342-.04643,8.16691,8.16691,0,0,0,2.28008-5.89659,7.97124,7.97124,0,0,0-2.28008-5.78025A7.509,7.509,0,0,0,42.59738,149.9117Z" fill="#1d3164"/><path d="M57.15787,168.90111V147.28045h5.10386a7.08572,7.08572,0,0,1,4.907,1.62519,5.60276,5.60276,0,0,1,1.81563,4.39523,5.88794,5.88794,0,0,1-.88955,3.26584,5.35634,5.35634,0,0,1-2.5518,2.05806,9.25361,9.25361,0,0,1,1.91032,1.85735,37.58983,37.58983,0,0,1,2.62462,4.10115q1.06452,1.84163,1.70626,2.77l1.07918,1.54779H69.39273l-.88852-1.42447q-.04361-.07713-.17471-.26362l-.5679-.85129-.90318-1.57924-.97548-1.6881a16.65641,16.65641,0,0,0-1.65506-2.11947,6.37531,6.37531,0,0,0-1.3576-1.13588,4.351,4.351,0,0,0-2.03665-.34751h-.75909v9.40958Zm3.79155-18.98941h-.87488V156.737H61.1828a7.79056,7.79056,0,0,0,3.04045-.40242,2.91568,2.91568,0,0,0,1.28323-1.21527,3.69,3.69,0,0,0,.45931-1.84936,3.45461,3.45461,0,0,0-.51026-1.84936,2.75747,2.75747,0,0,0-1.43659-1.16834A9.7836,9.7836,0,0,0,60.94942,149.9117Z" fill="#1d3164"/><path d="M70.69089,147.2495H87.70848v2.75507H80.60681v18.89654H77.67573V150.00457H70.69089Z" fill="#1d3164"/><path d="M90.46433,147.28045H102.0137v2.75507H93.381v6.5931h8.34115v2.77H93.381v6.71691h8.90982v2.75458H90.46433Z" fill="#1d3164"/><path d="M118.40372,168.94779h-6.65449V147.32714h5.14912a8.24709,8.24709,0,0,1,3.79842.72,5.0291,5.0291,0,0,1,2.08228,1.98067,5.79808,5.79808,0,0,1,.71744,2.91734,4.6984,4.6984,0,0,1-2.99658,4.56549,5.92406,5.92406,0,0,1,3.42579,1.95022,5.37128,5.37128,0,0,1,1.273,3.59038,5.668,5.668,0,0,1-.77378,2.95628,5.81472,5.81472,0,0,1-2.272,2.12A7.73178,7.73178,0,0,1,118.40372,168.94779Zm-1.421-18.86558H114.5631v6.50022h1.871a4.4422,4.4422,0,0,0,3.20064-.94415,3.29793,3.29793,0,0,0,.94954-2.44551Q120.58431,150.08246,116.98275,150.08221Zm.211,9.25479H114.5631v6.85622h2.77142a8.26123,8.26123,0,0,0,3.13014-.39493,3.06948,3.06948,0,0,0,1.32265-1.23025,3.44215,3.44215,0,0,0,.49922-1.79544,3.27765,3.27765,0,0,0-.52752-1.81041,3.17318,3.17318,0,0,0-1.49816-1.22276A8.58933,8.58933,0,0,0,117.19376,159.337Z" fill="#1d3164"/><path d="M127.99843,147.32714h2.81362v21.62065h-2.81362Z" fill="#1d3164"/><path d="M144.81736,147.01758a10.05266,10.05266,0,0,1,7.58467,3.173,11.06186,11.06186,0,0,1,3.0296,7.95465,10.87131,10.87131,0,0,1-3.0574,7.91621,10.32128,10.32128,0,0,1-7.71153,3.134,9.75727,9.75727,0,0,1-7.4022-3.134,10.99,10.99,0,0,1-2.95934-7.85429,11.24536,11.24536,0,0,1,2.98044-8.01657A9.89665,9.89665,0,0,1,144.81736,147.01758Zm.11246,2.9408a7.2588,7.2588,0,0,0-5.54483,2.32119,8.33268,8.33268,0,0,0-2.17166,5.92755,8.17124,8.17124,0,0,0,2.17861,5.8192,7.55464,7.55464,0,0,0,10.9417-.04644,8.332,8.332,0,0,0,2.20046-5.89659,8.12891,8.12891,0,0,0-2.20046-5.78025A7.1194,7.1194,0,0,0,144.92982,149.95838Z" fill="#1d3164"/><path d="M163.76078,159.88922l-2.13839-1.42946a10.02153,10.02153,0,0,1-2.86277-2.65921,5.38906,5.38906,0,0,1-.85149-3.01021,5.57789,5.57789,0,0,1,1.61112-4.14758,5.69493,5.69493,0,0,1,4.18543-1.59423,7.42224,7.42224,0,0,1,4.5156,1.52083v3.513a6.253,6.253,0,0,0-4.5722-2.24779,3.53723,3.53723,0,0,0-2.265.7015,2.1908,2.1908,0,0,0-.88624,1.79544,2.92593,2.92593,0,0,0,.65289,1.8194,8.367,8.367,0,0,0,2.09967,1.78046l2.14882,1.399q3.59559,2.36288,3.59609,6.01492a5.79885,5.79885,0,0,1-1.58282,4.225,5.48827,5.48827,0,0,1-4.11493,1.62518,8.1461,8.1461,0,0,1-5.304-1.96919v-3.93139q2.27891,3.177,5.27573,3.177a3.12691,3.12691,0,0,0,2.202-.80985,2.64256,2.64256,0,0,0,.87929-2.02811Q166.3495,161.66044,163.76078,159.88922Z" fill="#1d3164"/><path d="M189.02729,163.93345v3.40464a13.61835,13.61835,0,0,1-7.147,1.85735,9.77293,9.77293,0,0,1-9.2149-5.46321,11.73978,11.73978,0,0,1-1.33606-5.52511,11.08263,11.08263,0,0,1,3.05988-7.93918,10.0009,10.0009,0,0,1,7.54768-3.21941,16.38663,16.38663,0,0,1,6.8794,1.78v3.32725a12.64562,12.64562,0,0,0-6.7389-2.16641A7.41051,7.41051,0,0,0,176.471,152.334a8.87223,8.87223,0,0,0-.03525,11.72328,7.43364,7.43364,0,0,0,5.61334,2.29073A11.93834,11.93834,0,0,0,189.02729,163.93345Z" fill="#1d3164"/><path d="M192.51614,147.32714h2.81412v21.62065h-2.81412Z" fill="#1d3164"/><path d="M199.69145,147.32714h11.14228v2.75507h-8.32866v6.59309h8.04715v2.77h-8.04715v6.71692h8.59577v2.75457H199.69145Z" fill="#1d3164"/><path d="M229.71335,147.32714h2.67312v21.62065h-2.41991l-13.13967-16.65124v16.65124h-2.64481V147.32714h2.2789l13.25237,16.79254Z" fill="#1d3164"/><path d="M253.53159,163.93345v3.40464a13.61835,13.61835,0,0,1-7.147,1.85735,9.77293,9.77293,0,0,1-9.2149-5.46321,11.73978,11.73978,0,0,1-1.33606-5.52511,11.08263,11.08263,0,0,1,3.05988-7.93918,10.0009,10.0009,0,0,1,7.54768-3.21941,16.38663,16.38663,0,0,1,6.8794,1.78v3.32725a12.64562,12.64562,0,0,0-6.73889-2.16641,7.41052,7.41052,0,0,0-5.6064,2.34465,8.87223,8.87223,0,0,0-.03525,11.72328,7.43364,7.43364,0,0,0,5.61334,2.29073A11.93831,11.93831,0,0,0,253.53159,163.93345Z" fill="#1d3164"/><path d="M256.99264,147.32714h11.14228v2.75507h-8.32866v6.59309h8.04715v2.77h-8.04715v6.71692H268.402v2.75457H256.99264Z" fill="#1d3164"/><path d="M276.26647,159.88922l-2.13839-1.42946a10.02172,10.02172,0,0,1-2.86278-2.65921,5.38913,5.38913,0,0,1-.85148-3.01021,5.57789,5.57789,0,0,1,1.61112-4.14758,5.6949,5.6949,0,0,1,4.18543-1.59423,7.42224,7.42224,0,0,1,4.5156,1.52083v3.513a6.253,6.253,0,0,0-4.5722-2.24779,3.53723,3.53723,0,0,0-2.265.7015,2.19077,2.19077,0,0,0-.88624,1.79544,2.92593,2.92593,0,0,0,.65289,1.8194,8.367,8.367,0,0,0,2.09967,1.78046l2.14882,1.399q3.59559,2.36288,3.59609,6.01492a5.79885,5.79885,0,0,1-1.58282,4.225,5.48827,5.48827,0,0,1-4.11493,1.62518,8.1461,8.1461,0,0,1-5.304-1.96919v-3.93139q2.27891,3.177,5.27573,3.177a3.12691,3.12691,0,0,0,2.202-.80985,2.64255,2.64255,0,0,0,.87928-2.02811Q278.85518,161.66044,276.26647,159.88922Z" fill="#1d3164"/><rect x="18.5" y="130.80456" width="87.89616" height="5.46218" fill="#1d3164"/><rect x="111.74923" y="130.80456" width="82.25764" height="5.46218" fill="#6fa5c3"/><rect x="199.24197" y="130.80456" width="82.25803" height="5.46218" fill="#c8cdd1"/></svg>