<svg id="Layer_1" data-name="Layer 1" xmlns="http://www.w3.org/2000/svg" xmlns:xlink="http://www.w3.org/1999/xlink" viewBox="0 0 300 300"><defs><linearGradient id="linear-gradient" x1="169.73171" y1="10250.51671" x2="77.2223" y2="10158.81598" gradientTransform="matrix(1, 0, 0, -1, 0, 10411.19738)" gradientUnits="userSpaceOnUse"><stop offset="0.14" stop-color="#0bc11c" stop-opacity="0"/><stop offset="0.64" stop-color="#0bc11c" stop-opacity="0.8"/><stop offset="1" stop-color="#0bc11c"/></linearGradient><linearGradient id="linear-gradient-2" x1="70.04234" y1="10236.63832" x2="152.10274" y2="10320.79818" gradientTransform="matrix(1, 0, 0, -1, 0, 10411.19738)" gradientUnits="userSpaceOnUse"><stop offset="0" stop-color="#0bc11c" stop-opacity="0"/><stop offset="0.87" stop-color="#0bc11c"/></linearGradient><linearGradient id="linear-gradient-3" x1="59.28267" y1="10308.23867" x2="109.08554" y2="10358.24507" xlink:href="#linear-gradient-2"/></defs><title>FTRE_Mark_Light</title><path d="M112.67289,250.05264l128.2-128.77838a22.78814,22.78814,0,0,0-.08033-32.09685A22.53689,22.53689,0,0,0,208.921,89.0168l-.08068.08027L80.64567,217.87543a22.69472,22.69472,0,0,0,31.95193,32.23605l.08066-.08029v.02141Z" fill="url(#linear-gradient)"/><path d="M196.30788,166.032a21.9324,21.9324,0,0,1-31.70588.14461,23.1329,23.1329,0,0,1-.32135-32.31644c9.39395-9.4368,23.37238-8.51561,31.96831.10711,8.56915,8.60664,9.74742,22.40836.10177,32.09151l-.04285-.04285v.01606Z" fill="#0bc11c"/><path d="M121.12424,90.83767,79.47277,132.66588a22.18873,22.18873,0,0,0,31.23567,31.52272l.06854-.06854,41.65682-41.83892A22.18874,22.18874,0,0,0,121.19815,90.7584l-.07391.07391Z" fill="url(#linear-gradient-2)"/><path d="M111.98736,81.27235c-9.46355,9.4582-22.83681,8.32815-30.92395.17674a22.55747,22.55747,0,0,1-.13924-31.50772,21.68,21.68,0,0,1,31.165.06426c8.31209,8.38707,9.37787,21.82457-.06428,31.2828l-.03749-.03749Z" fill="url(#linear-gradient-3)"/></svg>