<?xml version="1.0" encoding="UTF-8"?>
<svg xmlns="http://www.w3.org/2000/svg" version="1.1" viewBox="0 0 300 300">
  <defs>
    <style>
      .cls-1 {
        fill: #a2a9ad;
      }

      .cls-2 {
        fill: #002d5d;
      }
    </style>
  </defs>
  <!-- Generator: Adobe Illustrator 28.6.0, SVG Export Plug-In . SVG Version: 1.2.0 Build 709)  -->
  <g>
    <g id="Layer_1">
      <g>
        <path class="cls-1" d="M159.8,57.4c0,5.7-4.6,10.3-10.3,10.3s-10.3-4.6-10.3-10.3,4.6-10.3,10.3-10.3c5.7,0,10.3,4.6,10.3,10.3h0Z"/>
        <path class="cls-1" d="M137.7,83.6c0,5.7-4.6,10.3-10.3,10.3s-10.3-4.6-10.3-10.3,4.6-10.3,10.3-10.3,10.3,4.6,10.3,10.3h0Z"/>
        <path class="cls-1" d="M183.3,83.6c0,5.7-4.6,10.3-10.3,10.3s-10.3-4.6-10.3-10.3,4.6-10.3,10.3-10.3,10.3,4.6,10.3,10.3h0Z"/>
        <path class="cls-1" d="M114.7,203.1c19.3,19.2,50.5,19,69.7-.3,19.2-19.3,19-50.5-.3-69.7l-34-34-34.8,34.8c-19.3,18.9-19.5,49.9-.6,69.2,0,0,0,0,0,0ZM128,146.7l21.2-21.2,21.2,21.2c12.2,11.7,12.6,31.1.9,43.3-11.7,12.2-31.1,12.6-43.3.9-12.2-11.7-12.6-31.1-.9-43.3.3-.3.6-.6.9-.9h0Z"/>
        <path class="cls-2" d="M209.7,107.4s-7.1-7.2-7.3-7.4l-1.2-.9c-4.2-2.7-9.8-1.5-12.5,2.7-1.9,3-1.9,6.9,0,9.8l1.2,1.7,6.9,7c26.7,25.9,27.3,68.5,1.4,95.2-25.9,26.7-68.5,27.3-95.2,1.4-26.7-25.9-27.3-68.5-1.4-95.2.2-.2.4-.4.6-.7l6.9-6.9,2.1-2.5c2.8-4.2,1.6-9.8-2.5-12.5-3-2-7-2-10,0l-1.1.9c-.2.2-.4.4-.6.6l-7.6,7.6c-33,33.4-32.6,87.2.8,120.2,33.4,33,87.2,32.6,120.2-.8,33-33.4,32.6-87.2-.8-120.2,0,0,0,0,0,0Z"/>
      </g>
    </g>
  </g>
</svg>