<svg id="Layer_1" data-name="Layer 1" xmlns="http://www.w3.org/2000/svg" viewBox="0 0 300 300"><defs><style>.cls-1{fill:#118348;}.cls-2{fill:#82c466;}</style></defs><path class="cls-1" d="M113,100.65c1.25-4,.3-8.27,6.26-11.11,6.17-1.15,14.32-.4,21.27-.12,5.17,3.66,4.33,7.89,4.33,11.79.05,31-.2,62.05.1,93.07.22,22.89-5.33,43.14-26.58,55-23.15,12.87-47,12.49-70.34-.36A70.05,70.05,0,0,1,32.35,237c-2.69-9.95,5.37-13.43,10.16-18.17,4.94-.05,7.35,2.61,10.18,4.33a53.41,53.41,0,0,0,32.55,8c20-1.53,30.66-15.41,27.65-36-36.17,19.15-62.75,16.63-81.1-7.68-18.66-24.73-17-63,3.55-84.07S84.86,81,113,100.65Zm-31.7,13.71c-18.05.15-31.39,14.69-31.07,33.87.31,18.49,14,32.82,31.47,32.89,18.14.06,32.25-15,32.07-34.25C113.55,128.09,99.69,114.21,81.26,114.36Z"/><path class="cls-2" d="M160,43c9-2.29,10.54-2.29,19.1-.05,2,19.67-.09,39.82,1.3,61.42,16.59-14.26,34.1-22,55.37-16.87,13.05,3.13,23.9,9.64,32,20.19,18.69,24.31,17.82,59.43-1.84,81.69-11.19,12.68-25.49,18.83-42.27,19.2-16.48.37-30.13-6.67-42.38-17.72-2.72,4.63.05,9.33-2.82,13.47-5.87,1.66-12,2.34-18.47-1Zm59.37,146.21c23.31.12,40-17.27,40.22-41.91.21-23.68-16.92-42-39.34-42.06-22.8-.07-40.17,17.66-40.31,41.15C179.76,170.81,196.61,189.11,219.33,189.23Z"/></svg>