<svg id="Layer_1" data-name="Layer 1" xmlns="http://www.w3.org/2000/svg" viewBox="0 0 300 300"><defs><style>.cls-1{fill:#f9a11b;}.cls-2{fill:#355fab;}.cls-3{fill:#19bedc;}.cls-4{fill:#8c99cd;}</style></defs><g id="_f9a11bff" data-name="#f9a11bff"><path id="Layer" class="cls-1" d="M147.71,17.38c.36.05,1.12.16,1.48.26-.31,2.36-.82,4.66-1.17,7A142.05,142.05,0,0,0,147.41,70c2.44,16.86,7.6,33.21,14.28,48.84,8.41,19.27,18.67,37.62,26.93,57a84.87,84.87,0,0,1,6.43,26.49,64.26,64.26,0,0,1-3.78,27.07c-4.54,12.5-12.75,23.32-22.19,32.49A167.82,167.82,0,0,1,144,282.62c2.85-7.33,6.78-14.25,9.18-21.79,5.56-16.91,6-35.21,3.42-52.73-1.38-9.59-3.73-19-5.92-28.35-3.83-16.19-8-32.34-11.58-48.59a204.85,204.85,0,0,1-5.3-48,165.89,165.89,0,0,1,13.92-65.81Z"/></g><g id="_355fabff" data-name="#355fabff"><path id="Layer-2" data-name="Layer" class="cls-2" d="M161.74,43.06a124,124,0,0,0,12.85,41.52c7.35,14.09,15.36,27.77,23,41.66,8.67,15.84,16.22,32.6,19.08,50.59a94.22,94.22,0,0,1,0,29.32A67.63,67.63,0,0,1,209,227.88c-3.72,6.76-8.36,13-12.95,19.22,3-8.15,6-16.35,7.65-24.91a71.66,71.66,0,0,0,.61-24.91A94.3,94.3,0,0,0,197.8,175c-7.5-22.09-19.28-42.34-28.51-63.71-6.12-14.3-11-29.52-11-45.21a71.69,71.69,0,0,1,3.42-23Z"/></g><g id="_19bedcff" data-name="#19bedcff"><path id="Layer-3" data-name="Layer" class="cls-3" d="M128.28,103.23l1.93.62c-.76,5.53-1.83,11-2.49,16.55-1.94,15.79-.62,31.88,2.44,47.46a315.35,315.35,0,0,0,9.49,36c3,9.38,5.82,18.91,7.45,28.65,2.35,13.84,1.68,28.45-3.88,41.41-1.63-2-1.17-4.71-1.22-7.12-1.63-15.53-7.5-30.09-13.52-44.33-4.13-9.74-8.62-19.33-12.55-29.12-4.44-11-8.41-22.29-10.25-34-1.68-10.81-1.07-22.19,3.26-32.34,3.93-9.63,11-17.68,19.34-23.73Z"/></g><g id="_8c99cdff" data-name="#8c99cdff"><path id="Layer-4" data-name="Layer" class="cls-4" d="M86.7,177a36.44,36.44,0,0,1,15-14.55c-1.38,12.5.71,25.11,4.9,36.9,5.2,15,13.72,28.6,19.79,43.26a90.82,90.82,0,0,1,6,19.94,59.64,59.64,0,0,1,.41,15.68c-5.72-12.92-14.75-23.83-23.77-34.49A260.16,260.16,0,0,1,93,223c-4.24-6.31-8-13.07-9.9-20.45A35.37,35.37,0,0,1,86.7,177Z"/></g></svg>