<svg id="Layer_1" data-name="Layer 1" xmlns="http://www.w3.org/2000/svg" viewBox="0 0 300 300"><path d="M20.01617,149.47186C19.26273,78.83816,79.22561,19.65214,151.03822,20.2847c68.69788.60514,129.93472,56.78184,128.95007,131.578-.93172,70.77435-58.86216,128.19034-131.2411,127.85614C78.85967,279.39614,18.86948,221.25138,20.01617,149.47186Zm220.34824,3.15819-57.53182-21.6727c-5.1924-20.01446-10.12029-39.00942-15.31463-59.0314-24.86447-5.07088-49.89272-10.71684-74.90466-15.81744L50.90045,108.00558c5.65976,21.856,11.12076,42.94438,16.6563,64.32065l68.60868,14.764c11.66076,17.5622,23.03385,34.69117,34.56205,52.05373,22.53741-6.42815,44.826-11.66735,66.46746-18.54235C238.27547,197.429,239.31446,175.14683,240.36441,152.63005Z" fill="#6da88b"/><path d="M240.36441,152.63005c-1.04995,22.51678-2.08894,44.79894-3.16947,67.97152-21.64148,6.875-43.93,12.1142-66.46746,18.54235-11.5282-17.36256-22.90129-34.49153-34.56205-52.05373l-68.60868-14.764c-5.53554-21.37627-10.99654-42.46467-16.6563-64.32065L92.6133,56.10851c25.01194,5.1006,50.04019,10.74656,74.90466,15.81744,5.19434,20.022,10.12223,39.01694,15.31463,59.0314ZM63.52981,110.72376c4.52773,17.35718,9.08161,34.81465,13.55255,51.95413l60.619,12.90265c11.47963-14.40358,23.17646-28.04611,33.785-42.43586-4.58068-17.38692-9.074-34.44213-13.55494-51.45048L97.14688,68.8683C85.77817,83.0231,74.7872,96.70756,63.52981,110.72376Zm115.91064,31.857c-5.99648,7.42769-11.31852,13.84928-16.44738,20.4205-5.2223,6.691-11.22683,12.80343-15.62787,20.208,9.92272,14.156,18.6,28.83468,28.55218,42.65877l49.563-13.73042c2.1184-17.63777,1.3146-34.53255,3.15777-51.84732C211.95051,154.4601,196.08486,147.72184,179.44045,142.58073Z" fill="#fafbfa"/><path d="M63.52981,110.72376C74.7872,96.70756,85.77817,83.0231,97.14688,68.8683l60.78458,12.8259c4.481,17.00835,8.97426,34.06356,13.55494,51.45048-10.60854,14.38975-22.30537,28.03228-33.785,42.43586l-60.619-12.90265C72.61142,145.53841,68.05754,128.08094,63.52981,110.72376Z" fill="#6da88b"/><path d="M179.44045,142.58073c16.64441,5.14111,32.51006,11.87937,49.1977,17.70957-1.84317,17.31477-1.03937,34.20955-3.15777,51.84732l-49.563,13.73042c-9.9522-13.82409-18.62946-28.50281-28.55218-42.65877,4.401-7.40461,10.40557-13.51707,15.62787-20.208C168.12193,156.43,173.444,150.00842,179.44045,142.58073Z" fill="#6da88b"/></svg>