<svg id="Layer_1" data-name="Layer 1" xmlns="http://www.w3.org/2000/svg" viewBox="0 0 300 300"><polygon points="149.876 254.624 149.135 254.13 59.952 202.744 59.211 202.497 59.211 201.756 59.211 98.738 59.211 97.997 59.952 97.503 149.135 46.117 149.629 45.623 150.371 46.117 239.554 97.503 240.295 97.997 240.295 98.738 240.295 201.509 240.295 202.25 239.554 202.744 150.371 254.13 149.876 254.624" fill="#4daae8"/><path d="M149.62943,47.10526l89.43072,51.63266V201.75617l-89.18367,51.38561L60.6928,201.75617V98.73792l88.93663-51.63266m.247-2.96455-1.23523.74114L59.21053,96.5145l-1.23523.74114v105.9828l1.23523.74115,89.18367,51.38559,1.23523.74115,1.23523-.74115,89.43072-51.63263,1.23523-.74115V97.0086l-1.23523-.74114L150.86466,44.88185l-.98818-.74114Z" fill="#221f20"/><path d="M149.87648,32.77658l101.783,58.55.247,117.34694-101.783,58.797-101.536-58.55-.247-117.34693,101.536-58.797m0-15.56391-6.67025,3.95274-101.536,58.797L35,83.6681V216.3319l6.67025,3.95273,101.783,58.54994,6.67025,3.95276,6.67025-3.95274,101.536-58.797L265,216.08487v-7.4114l-.247-117.34694V83.6681l-6.67024-3.70569-101.536-58.797Z" fill="#221f20"/></svg>