<svg id="Layer_1" data-name="Layer 1" xmlns="http://www.w3.org/2000/svg" viewBox="0 0 300 300"><defs><style>.cls-1{opacity:0.59;}.cls-2{fill:#9ec8d8;fill-rule:evenodd;}</style></defs><g id="Layer"><g id="Layer-2" data-name="Layer" class="cls-1"><path id="Layer-3" data-name="Layer" class="cls-2" d="M150,225.62a82,82,0,1,1,82-82A82.06,82.06,0,0,1,150,225.62Zm0-163.18a81.21,81.21,0,1,0,81.22,81.21A81.31,81.31,0,0,0,150,62.44Z"/></g><g id="Layer-4" data-name="Layer" class="cls-1"><path id="Layer-5" data-name="Layer" class="cls-2" d="M165.53,236a84.2,84.2,0,0,1-21.6-2.84,82.72,82.72,0,1,1,21.6,2.84Zm-.28-165.45a81.16,81.16,0,0,0-41,11.09,82.29,82.29,0,1,0,62.55-8.24A84.18,84.18,0,0,0,165.25,70.59Z"/></g><g id="Layer-6" data-name="Layer" class="cls-1"><path id="Layer-7" data-name="Layer" class="cls-2" d="M153.21,236.7c-22.84,0-45-9.28-60.27-27.57-13.65-16.4-19.71-37.43-17.06-59.22A87.17,87.17,0,0,1,107,93.62c35.91-29.85,88-26.72,116.18,7.11s21.8,85.56-14,115.51A87.86,87.86,0,0,1,153.21,236.7ZM163,73.82a87.31,87.31,0,0,0-55.44,20.27,86.15,86.15,0,0,0-30.79,55.82c-2.66,21.6,3.31,42.45,16.86,58.65,15.07,18.1,37.06,27.29,59.71,27.29a87.3,87.3,0,0,0,55.44-20.28c35.54-29.66,41.89-80.92,13.93-114.46C207.61,83.1,185.62,73.82,163,73.82Z"/></g><g id="Layer-8" data-name="Layer" class="cls-1"><path id="Layer-9" data-name="Layer" class="cls-2" d="M136.82,234.62a68.5,68.5,0,0,1-42.08-13.93c-16.3-12.51-25.87-31.75-27-54.2s6.45-45.39,21.14-64.63,35-32.4,56.86-37.24,43-.47,59.42,12,25.87,31.74,27,54.2-6.45,45.39-21.14,64.62-35,32.41-56.86,37.24A84,84,0,0,1,136.82,234.62Zm-41.51-14.5c16.11,12.41,37.06,16.58,58.76,11.84s41.79-17.81,56.48-37,22.08-41.88,21-64.15S221,89.54,204.86,77.23s-37-16.59-58.75-11.85-41.8,17.82-56.49,37-22.08,41.88-21,64.15S79.1,207.71,95.31,220.12Z"/></g><g id="Layer-10" data-name="Layer" class="cls-1"><path id="Layer-11" data-name="Layer" class="cls-2" d="M137.58,241.63c-41.7,0-75.63-39.8-75.63-88.79s33.93-88.78,75.63-88.78,75.62,39.79,75.62,88.78S179.27,241.63,137.58,241.63Zm0-176.72c-41.32,0-74.87,39.51-74.87,88s33.55,88,74.87,88,74.86-39.52,74.86-88S178.9,64.91,137.58,64.91Z"/></g><g id="Layer-12" data-name="Layer" class="cls-1"><path id="Layer-13" data-name="Layer" class="cls-2" d="M145.06,239.83a94.13,94.13,0,0,1-44.16-11.09,92.63,92.63,0,0,1-45-53.35A86.15,86.15,0,0,1,114.64,65.1,92.82,92.82,0,0,1,184,72.77c44.54,23.79,62.17,78.08,39.24,121.1C207.7,223.15,177.1,239.83,145.06,239.83ZM140,62.35A89.82,89.82,0,0,0,115,65.85,85.51,85.51,0,0,0,56.74,175.21a92.41,92.41,0,0,0,44.63,52.87c44.17,23.59,98.66,8,121.4-34.59s5.31-96.46-39-120A94.14,94.14,0,0,0,140,62.35Z"/></g><g id="Layer-14" data-name="Layer" class="cls-1"><path id="Layer-15" data-name="Layer" class="cls-2" d="M156.72,220.22c-41,0-74.39-36.3-74.39-80.93s33.35-80.92,74.39-80.92,74.39,36.29,74.39,80.92S197.75,220.22,156.72,220.22Zm0-161.19c-40.56,0-73.64,36-73.64,80.17s33.08,80.16,73.64,80.16,73.63-36,73.63-80.16S197.28,59,156.72,59Z"/></g><g id="Layer-16" data-name="Layer" class="cls-1"><path id="Layer-17" data-name="Layer" class="cls-2" d="M141.27,236.8a84,84,0,1,1,35.92-8.15A83.16,83.16,0,0,1,141.27,236.8Zm-.19-167.06a84.19,84.19,0,0,0-35.63,8.06A83.13,83.13,0,0,0,66,188.57,83.15,83.15,0,0,0,176.81,228a83.14,83.14,0,0,0,39.43-110.78A82.08,82.08,0,0,0,169,74.57,83.49,83.49,0,0,0,141.08,69.74Z"/></g></g></svg>