<svg id="Layer_1" data-name="Layer 1" xmlns="http://www.w3.org/2000/svg" viewBox="0 0 300 300"><title>ACST_Mark_Light</title><path d="M173.64133,240.32205h-10.2186a7.72717,7.72717,0,0,1-8.14024-8.14024c0-5.02269-.1732-9.8722,0-14.89492a20.45156,20.45156,0,0,0-4.15672-12.98974c-5.5423-7.44746-12.81655-11.95056-22.51556-11.77738H116.14005c-5.71549,0-8.833-3.29072-8.833-9.00622v-19.398c0-5.71549,3.29074-8.833,9.00623-8.833h13.16294c11.60417,0,19.91761-5.54229,24.24753-16.45368a20.50954,20.50954,0,0,0,1.55877-8.48663c-.1732-4.84951,0-9.699,0-14.54852,0-5.0227,3.29073-8.31344,8.31343-8.48663h20.264c5.1959,0,8.48664,3.46393,8.48664,8.65983v15.41449c0,12.297,11.431,23.90114,23.72794,23.90114H231.6622c5.1959,0,8.31345,3.29072,8.48664,8.31344v20.61039c0,4.84951-3.11755,8.14023-7.967,8.31344-7.10106.17321-14.02893.17321-21.13,0-4.8495-.17321-7.967-3.63714-8.14024-8.48662,0-4.50313-.17319-9.17943,0-13.68253.3464-8.833-3.81033-15.2413-10.565-20.4372-6.06188-4.50313-12.98975-5.54229-20.4372-5.36911a28.40427,28.40427,0,0,0-18.18565,6.40827c-6.06188,5.02269-9.699,11.25778-9.35261,19.22484.17319,5.3691-.69279,10.73818,1.38557,15.93408A28.68936,28.68936,0,0,0,156.49488,199.794a17.31755,17.31755,0,0,0,10.91138,3.29073c5.3691-.17321,10.7382,0,16.10729,0,5.54229,0,8.833,3.29072,8.833,8.833V231.8354c0,5.36911-3.29074,8.48662-8.65983,8.65983C180.396,240.32205,177.10526,240.32205,173.64133,240.32205Z" fill="#ee341f"/><path d="M144.7175,126.01228v9.8722c0,5.54229-3.11754,8.48662-8.65983,8.65983-5.88869.17321-11.77737-.51959-17.49286.34639-9.87221,1.55876-19.05163,10.04541-21.30319,19.7444-.51959,2.07836-.1732,4.32992-.1732,6.40827v12.64336c0,5.36911-3.29073,8.65983-8.65983,8.65983H68.33778c-5.19589,0-8.48663-3.29072-8.48663-8.65983V163.59591c0-5.1959,3.29074-8.48662,8.48663-8.48662,4.84951,0,9.52582-.17321,14.37533,0,9.8722.51959,16.45367-4.50312,21.30318-12.297a23.24257,23.24257,0,0,0,3.63713-13.163c-.1732-4.50312,0-9.00622,0-13.68253,0-5.54229,3.29074-8.833,8.833-8.833h19.57122c5.54229,0,8.833,3.11755,8.833,8.65983C144.7175,119.4308,144.7175,122.72152,144.7175,126.01228Z" fill="#183861"/><path d="M155.45569,173.64135v-10.3918c.17319-4.6763,3.29073-7.967,7.967-7.967h21.13a7.87877,7.87877,0,0,1,8.14024,7.96705q.2598,10.6516,0,21.30319a7.94579,7.94579,0,0,1-7.967,7.96706q-10.65159.2598-21.30318,0c-4.84951-.17321-7.79385-3.46394-7.967-8.31345v-10.565Z" fill="#183861"/><path d="M126.01226,59.50477h10.3918A7.72718,7.72718,0,0,1,144.5443,67.645v21.13a7.63859,7.63859,0,0,1-7.967,7.967c-7.10106.17319-14.02892.17319-21.13,0a7.87878,7.87878,0,0,1-8.14024-7.967q-.2598-10.65159,0-21.30319a7.73851,7.73851,0,0,1,8.14024-7.79385C119.0844,59.50477,122.54833,59.50477,126.01226,59.50477Z" fill="#183861"/><path d="M78.21,144.54431H67.8182a7.72718,7.72718,0,0,1-8.14025-8.14024V115.62048c0-4.6763,3.11754-8.14024,7.79385-8.14024,7.27426-.17319,14.37532-.17319,21.64958,0a7.79951,7.79951,0,0,1,7.79385,7.967c.17319,7.10106.17319,14.02893,0,21.13,0,4.84951-3.46393,7.96706-8.31344,7.96706Q83.4059,144.54429,78.21,144.54431Z" fill="#183861"/><path d="M155.45569,78.0368V67.645c.17319-4.67631,3.29073-7.967,7.967-7.967h21.13A7.87878,7.87878,0,0,1,192.693,67.645q.2598,10.65157,0,21.30319c-.17319,4.6763-3.46393,7.79384-8.14024,7.967h-20.7836c-4.8495,0-8.14024-3.46393-8.14024-8.31345C155.28249,84.96467,155.45569,81.50074,155.45569,78.0368Z" fill="#183861"/><path d="M240.322,126.18546v10.39179a7.63861,7.63861,0,0,1-7.967,7.96706h-21.13c-4.84951,0-7.967-3.29073-8.14024-8.14024V115.62048a7.77942,7.77942,0,0,1,7.967-8.14024q10.65159-.25978,21.30319,0c4.84952.1732,7.79385,3.46394,7.96705,8.31345v.51959Q240.322,121.24938,240.322,126.18546Z" fill="#183861"/><path d="M144.7175,221.9632V232.355c-.1732,4.67631-3.29074,7.96706-7.967,7.96706h-21.13a7.87879,7.87879,0,0,1-8.14024-7.96706c-.17319-7.10107-.17319-14.02893,0-21.13a7.91982,7.91982,0,0,1,8.14024-8.14023h20.7836c4.8495,0,7.967,3.29072,8.14024,8.14023v.5196C144.7175,215.03533,144.7175,218.49926,144.7175,221.9632Z" fill="#183861"/></svg>