<svg id="Layer_1" data-name="Layer 1" xmlns="http://www.w3.org/2000/svg" viewBox="0 0 300 300"><defs><style>.cls-1{fill:#a01d21;}.cls-2{fill:#18335c;}</style></defs><path class="cls-1" d="M103.5,35.21c0-2.49-3.49-1.88-3.8-4.13C143,10.26,210.59,17.84,251.75,69.39c39.14,49,33.53,115.8,5.17,152.66-2.25-4.92-4.31-9.63-6.54-14.26-10.22-21.25-26.3-35.23-49.8-40a37.82,37.82,0,0,0-11.64-.3c17.41,5.16,31.84,13.22,44,25.18,8.3,8.18,15.57,17.1,20.86,27.59,1.73,3.42,1.39,5.94-.93,8.87a131.56,131.56,0,0,1-60.6,43.53c-3.55,1.25-6.12.64-8.91-1.7-6.06-5.09-9.51-12.13-14.2-18.23-11.53-15-20-31.15-19.06-50.93-2.8.69-2.29,2.6-2.49,4.05a71,71,0,0,0,6,39.86c.66,1.44,1.83,2.75,1.39,4.54-6.31-3.42-6.67-10.63-10.13-15.87.74-2.66,0-5.24-.42-7.84a60.73,60.73,0,0,1-.13-21.84c2.36-12.38,5.14-24.67,7.59-37,3.7-18.68,9.76-37.12,6.63-56.58-2.05-12.73-5.38-25-14.71-34.65-2.93-4.23-4.57-9.46-9.45-12.18-6.68-13.59-18-22.27-31-29.12Zm90.72,58.41a20.64,20.64,0,0,0-21,20.65c0,11,9.36,20.6,20.48,20.89,10.95.27,21.15-9.86,21.09-21A20.87,20.87,0,0,0,194.22,93.62Zm26.34,77.12c.91-2.49-.34-3.53-1.62-4.6-13.57-11.36-28.88-18.87-46.63-20.82-11.94-1.32-11.95-1.22-14.85,10.53-.29,1.18-.46,2.41-.86,3.55-1.43,4.1-.18,5.52,4.22,5.06,7.89-.84,15.81-1.56,23.73-1.81C197.12,162.24,209.34,163.86,220.56,170.74Zm1.75,20a11.5,11.5,0,0,0-1.8-2c-1.74-1.3-3.06,0-4.29,1q-26,21.18-51.94,42.4a7.87,7.87,0,0,0-1.69,1.72c-1,1.67-.28,3.14.81,4.43,1.57,1.85,2.49,0,3.43-.78q26.47-21.54,52.9-43.16C220.82,193.49,222,192.67,222.31,190.79Zm26,29.93a6.08,6.08,0,0,0-1.38-2c-1.8-1.26-3.08.3-4.27,1.27q-26.73,21.83-53.38,43.78c-1.45,1.19-3.83,2.51-2.08,4.9,2.12,2.89,4,.41,5.55-.88q26.55-21.58,53-43.28C246.79,223.58,248.14,222.87,248.27,220.72Zm-73.11,36q30-24.55,59.66-48.81c1.55-1.27,2.84-2.56,1-4.48s-3.27-.59-4.74.61q-27.63,22.62-55.29,45.21C173.32,251.22,172.55,253.33,175.16,256.7Zm-17.73-38.64c1.29-.9,2.67-1.73,3.91-2.74,13.08-10.66,26.17-21.3,39.14-32.09,1.16-1,4.55-1.66,2.16-4.43-2.11-2.42-4.18-1.37-6.3.39-12.53,10.36-25.13,20.64-37.67,31a13.61,13.61,0,0,0-3.66,4C154.1,216,154.74,217.68,157.43,218.06Zm-2.78-24.83a17.16,17.16,0,0,0,2.57-1.44q10.65-8.64,21.23-17.37c.93-.77,2.17-1.79,1.62-3s-2.44-2.22-3.66-1.55a93.25,93.25,0,0,0-23.91,19.39C151.36,190.54,151.91,192.84,154.65,193.23ZM269.8,116.59c1.67,16.48,4,32.95,4.18,49.59A91.82,91.82,0,0,0,269.8,116.59Z"/><path class="cls-2" d="M134.4,64.27c4.88,2.72,6.52,8,9.45,12.18a1.65,1.65,0,0,0-.92,2.44c2.5,5.68,3,11.76,3.22,17.82.61,14.87-4.51,28.76-7.83,42.93-4.57,19.57-10,39-6.73,59.44,2,12.64,5.47,24.82,13.3,35.31,3.46,5.24,3.82,12.45,10.13,15.87l-.12-.07,1.12,1.39c6.69,10.15,16.95,16.14,26.81,22.75-31,11.49-83.76,5.85-121.79-29.82C17.36,203.56,11.16,140.83,31.47,98.31c6.2,22,21.59,33.82,40.8,41.57,8.61,3.47,17.62,5.29,27.23,4.33-.74-2-2.26-1.75-3.28-1.94C71.66,137.71,54.72,121.73,39,104c-6.95-7.82-6.86-9.9-1.56-18.9C47.3,68.4,60,54.22,76.14,43.37c8.19-5.5,16-13,27.36-8.16l-.08-.06c-1.54,2.18.85,2.69,1.72,3.53,19.69,19.12,32.53,41.75,36,69.38C144.92,92.51,140.4,78.28,134.4,64.27Zm-75,75.11c15.3,13.87,32.53,23,52.48,24.74,21.73,1.86,15.87,6.62,20.41-14.27a3.9,3.9,0,0,1,.14-.59c.82-2.49-.19-3.28-2.65-3.1-5.27.37-10.57.42-15.83.94-17.26,1.71-34.15,1.09-49.91-7.29A5.59,5.59,0,0,0,59.4,139.38ZM41.47,97.13c.89-.71,2-1.59,3.09-2.49q28.57-23.37,57.12-46.79c1.48-1.21,4.64-2,2.3-5.08s-4.15-.74-6,.75c-.79.64-1.63,1.22-2.42,1.86L42.21,89.07a39.78,39.78,0,0,0-3.59,3.27c-1,1.07-.59,2.33.12,3.37C39.29,96.49,39.9,97.43,41.47,97.13Zm77.62-36.46c-.58-.78-1.11-2-2.06-2.65-1.93-1.27-3.48.25-4.83,1.34-8.56,6.89-17,13.85-25.56,20.81Q70.33,93.49,54.05,106.85c-1.34,1.1-3.37,2.18-1.43,4.36,1.45,1.62,3.08,1.72,4.79.24,1.23-1.06,2.57-2,3.83-3Q89.19,85.71,117.1,63C117.83,62.39,119.07,62.27,119.09,60.67ZM69.77,125.75a27.94,27.94,0,0,0,4.25-2.4q26.07-21.19,52-42.53c1.28-1.06,3.47-2.22,1.91-4.43-1.87-2.63-3.67-.53-5.11.62-7,5.58-13.93,11.27-20.85,16.95Q85.7,107.33,69.45,120.75c-1,.84-2.65,1.63-2.23,3.22C67.41,124.69,68.78,125.1,69.77,125.75Zm19.72,10A29.82,29.82,0,0,0,92.2,134q20.13-16.38,40.21-32.82A12.86,12.86,0,0,0,134.56,99c1.17-1.58.68-3.09-.53-4.41-1.52-1.67-2.5-.13-3.54.71q-21.51,17.57-43,35.17c-.88.72-2.35,1.4-1.76,2.83S87.67,135.29,89.49,135.76Zm23.44,5a11.31,11.31,0,0,0,6.85-2.76c4.35-3.64,8.76-7.23,13.18-10.79a14.39,14.39,0,0,0,4.27-5.06,2.79,2.79,0,0,0-.27-3.36c-1.15-1.28-2.2-.53-3.15.24-7.08,5.76-14.17,11.51-21.19,17.34-.82.69-2.18,1.51-1.37,3A3.71,3.71,0,0,0,112.93,140.76ZM26.33,161.2c.31,15.86,5,30.57,12.22,44.62C35.31,190.74,29.65,176.29,26.33,161.2Z"/><path class="cls-1" d="M156,251.58l-1.12-1.39C156,250.12,155.93,250.89,156,251.58Z"/></svg>