<svg id="Layer_1" data-name="Layer 1" xmlns="http://www.w3.org/2000/svg" viewBox="0 0 300 300"><defs><style>.cls-1{fill:#1280c4;}.cls-2{fill:#38b34a;}</style></defs><g id="logo_mark" data-name="logo mark"><path id="Path_21" data-name="Path 21" class="cls-1" d="M120.37,130.13c-4.81,14.46-33.16,83.8-39.54,99.4h-.64c3-14.32,15.44-74.24,20.7-104.55,6.69-38.3-43.39-13.21-40.82,11.08.6,5.71,7.62,16,34.06,3.53l-.32,1.31c-19.84,12.75-34.29,9.2-39.19-1.79C49,118.21,71.73,91.27,97.78,87.74,125.53,84,125.56,114.56,120.37,130.13Z"/><path id="Path_19" data-name="Path 19" class="cls-2" d="M132.19,83.67a16.41,16.41,0,0,1-4.9-4.74,17.07,17.07,0,0,1-2.72-6.25,17.49,17.49,0,1,1,14,13.49,16.73,16.73,0,0,1-6.35-2.5Zm29.13,43.45c-8,12.56-13.87,23.91-17.24,29.67L91,248.5h-.73c4.32-12.24,20.44-57.61,35.56-95.81,7.21-11.5,21.57-22.72,35.54-25.57Zm84.91-54.63v.86c-31.88-8.23-58.09,16.15-76.39,41.24a49,49,0,0,1,5,.13,47.76,47.76,0,0,1,4.94.71,39.8,39.8,0,0,1,4.83,1.25,43.06,43.06,0,0,1,4.68,1.79,14.89,14.89,0,0,1,4,2.34,14.35,14.35,0,0,1,3,3.49,13.92,13.92,0,0,1,1.76,4.26,14.09,14.09,0,0,1,.32,4.62c-.54,9.29-10.77,21.6-29.13,30h-1.95C180,155.32,187,145.61,187.47,138c.35-6-2.89-10.73-10-13.23-15-5.26-29,.16-42.17,5L129,132l.42-1.37s.83-.61,1.5-1.13q1.6-1.53,3.08-3.2c1-1.13,1.94-2.3,2.82-3.49s1.74-2.43,2.53-3.69,1.53-2.56,2.21-3.91,1.26-2.73,1.92-4.1,1.35-2.75,2.05-4.1,1.44-2.67,2.18-4,1.53-2.64,2.34-3.94C168.05,71,211.5,52,246.23,72.49Z"/></g></svg>