<svg id="Layer_1" data-name="Layer 1" xmlns="http://www.w3.org/2000/svg" viewBox="0 0 300 300"><defs><style>.cls-1{fill:#a7c55f;}.cls-2{fill:#0694a0;}</style></defs><path class="cls-1" d="M123.07,121.55c.67-9.56-.21-19.16,1.12-28.73,4.33-31.15,21.73-47.23,53.21-48.61,6-.27,12.1,0,16.72,0-25.44,9.07-35.05,30.3-36.51,56.88a115.6,115.6,0,0,0,1.95,27.54c1.84,14,3.79,28,5.49,42,3.18,26.12,5.58,52.28.32,78.42-4.33,21.54-22.13,36.2-43.22,35.73a34.16,34.16,0,0,1-17.2-5.23c-14.5-8.89-22.23-22.86-29.17-39.07,4,1.73,5.52,4.38,7.44,6.43,5.3,5.66,10.5,11.43,17.07,15.67,14,9.09,27.64,4.09,32.37-11.94,4-13.42,2.58-27,.87-40.59-2.48-19.7-5.13-39.38-7.72-59.06a20.81,20.81,0,0,0-.63-2.44Q124.13,135,123.07,121.55Z"/><path class="cls-2" d="M159.56,128.59a115.6,115.6,0,0,1-1.95-27.54c20.49-11.68,40.68-23.82,59.08-38.7A34.59,34.59,0,0,0,219.32,60c14.9-14.65,13.64-29.27-3.54-41.23-1.22-.85-2.4-1.74-4.11-3,2.07-1,3.56-.39,5,0,23.12,6.23,32,27.45,20.36,48.8-5.33,9.8-13.24,17.38-21.4,24.7-16.49,14.79-34.78,27.11-53.79,38.38A18,18,0,0,1,159.56,128.59Z"/><path class="cls-2" d="M123.07,121.55q1.05,13.49,2.11,27C113.11,154.89,101.5,162,91,170.8c-17.38,14.67-25.43,33-22,55.89-.41.63-.44,1.19.32,1.59.6,2.48,1.2,5,1.79,7.44l-.58,1.65C57,219.94,54.51,200.73,62,180.27c6-16.38,17.79-28.39,31.2-38.94A237.3,237.3,0,0,1,123.07,121.55Z"/></svg>