<?xml version="1.0" encoding="UTF-8"?>
<svg id="Layer_1" xmlns="http://www.w3.org/2000/svg" version="1.1" xmlns:xlink="http://www.w3.org/1999/xlink" viewBox="0 0 300 300">
  <!-- Generator: Adobe Illustrator 29.1.0, SVG Export Plug-In . SVG Version: 2.1.0 Build 142)  -->
  <defs>
    <style>
      .st0 {
        fill: url(#linear-gradient1);
      }

      .st1 {
        fill: #7fc8e4;
      }

      .st2 {
        fill: url(#linear-gradient);
      }
    </style>
    <linearGradient id="linear-gradient" x1="211.8" y1="178.8" x2="285" y2="178.8" gradientTransform="translate(0 300) scale(1 -1)" gradientUnits="userSpaceOnUse">
      <stop offset="0" stop-color="#503088"/>
      <stop offset="1" stop-color="#5e2e87"/>
    </linearGradient>
    <linearGradient id="linear-gradient1" x1="86.6" y1="110.4" x2="249" y2="198.8" gradientTransform="translate(0 300) scale(1 -1)" gradientUnits="userSpaceOnUse">
      <stop offset="0" stop-color="#88569c"/>
      <stop offset="1" stop-color="#602f87"/>
    </linearGradient>
  </defs>
  <path class="st1" d="M46.4,195.8c-4.4,0-8.7.1-13.1,0-4.6-.1-8.3-4-8.1-8.6,0-1.3.4-2.6,1-3.8,4.7-8.4,9.5-16.7,14.1-25.1,1.5-2.9,4.5-4.7,7.8-4.6,8-.2,16,0,24-.5,3.8-.5,7.4,1.4,9.3,4.7,1.5,2.2,1.6,5.1.3,7.5-4.8,8.7-9.6,17.4-14.5,26-1.6,2.8-4.6,4.4-7.7,4.3-4.4,0-8.7,0-13.1,0v.2Z"/>
  <path class="st2" d="M284.6,131.6c-2.1-9.7-6.7-18.8-13.3-26.2-1-1.1-2.1-2.1-3.4-2.8-3.2-2.8-6.9-4.9-10.9-6.3-21.9-8-39.4,2.5-45.1,23.9,7.6,9.1,17.2,15.9,27.8,21.1,6.1,3.5,12.7,5.8,19.5,7,5.8,1.1,11.7.4,17.2-1.8,6.8-2.7,9.8-7.9,8.2-14.9Z"/>
  <path class="st1" d="M27.8,143.7c-2.3,0-4.6.1-6.9,0-4.9-.3-7.4-4.8-5-9.1,2.2-3.9,4.4-7.7,6.5-11.7,1.3-2.9,4.3-4.7,7.4-4.3,3.7.1,7.3,0,11-.2,4.8-.3,9.2,4.1,6.1,9.4-2.2,3.8-4.4,7.7-6.5,11.6-1.5,3-3.7,4.4-7.1,4.2-1.8-.1-3.7,0-5.5,0h0Z"/>
  <path class="st0" d="M262.6,96.1c-3.7-3.2-7.7-6-12.1-8.3-3.4-1.8-7-3.4-10.7-4.7-.1,0-.2,0-.3-.1-.5-.2-.9-.3-1.4-.5h0s0,0,0,0c-.3-.1-.7-.2-1-.3-4-1.3-8.1-2.4-12.2-3.2-22.2-4.4-43.5-2.6-63.5,8.8-27.5,15.7-48.5,37.9-65.5,64.2-.3.4-.4.8-.2,1,7.5,0,14.8.1,22.1,0,4.1,0,7.8.7,10.3,4.3,2.5,3.5,1.4,6.8-.5,10.2-4.3,7.5-8.6,15.1-12.7,22.7-1.7,3.6-5.4,5.8-9.4,5.6-7.3,0-14.7.1-22,.3-1.2,0-2.5-.4-3.5.7.3,11.7,6.4,20.1,17.2,23.9,4.8,1.7,9.8,2.5,14.8,2.6,15.5.1,30.9-3.5,44.7-10.5,15.1-7.5,24.9-19.3,29.7-35.4,3.4-11.4,5.7-23,8.1-34.6,2.2-10.5,4.9-20.9,10.5-30.2,6.6-11.1,15.8-18.1,26.7-20.5,19.6-3.2,33.1,6,33.1,6-.6-.6-1.3-1.2-1.9-1.8Z"/>
</svg>