<svg id="Layer_1" data-name="Layer 1" xmlns="http://www.w3.org/2000/svg" viewBox="0 0 300 300"><path d="M145.37286,250.2867l-1.86723-.00291c-.44653-3.567-.4288-7.1925-1.34884-10.7a9.39147,9.39147,0,0,0-.11705-3.17121q-.451-4.941-.90208-9.88206c.57129-.20544,1.26425-.19344,1.56952-.87727.58571-7.49667-.31051-14.93882-.70414-22.56571l-3.63593.87282c.33511,2.4557.73191,4.78177.956,7.12433.49264,5.14947,1.81573,10.21363,1.59427,15.43563-1.13764.69992-1.44322-.25194-1.76051-.95793-.61879-1.37683-.51547-3.00094-1.425-4.28878l-.10918-1.302a1.72656,1.72656,0,0,0-.49364-1.78646q-.03736-.36182-.07456-.72361a13.47923,13.47923,0,0,0-1.20751-5.52177q-.03769-.39529-.07548-.79059c.08582-.52094.10178-1.01828-.44838-1.32434l.03392.05146c.06022-1.91891-.75033-3.67155-1.05614-5.52058l.22022-.7435c1.008-.12932,2.09794.29444,3.17883-.53247.48162-3.09743-1.30913-6.1194-.978-9.4519,1.299-.09114,2.41053-.35626,3.36373.11269,1.10449.83174,1.11929,2.17045,2.05923,2.98567-.96523-4.00523-.19261-8.12337-1.16594-12.082q4.40588.03921,8.81168.07842a30.76391,30.76391,0,0,1-.38415,4.66935,37.34328,37.34328,0,0,0-.74138,12.488c.71309,1.23184,1.80315,1.00126,2.65866,1.32243-.86029,5.66215-1.858,11.30792-2.53745,16.99166-.54315,4.5436-1.29872,9.07411-1.39858,13.666q-.0384.9685-.07672,1.937c-.96839,2.43733-.60814,5.04274-.95806,7.55831a1.60573,1.60573,0,0,0-.20017,1.27694.55441.55441,0,0,0-.0256.59911q-.04071.962-.08135,1.924A6.44336,6.44336,0,0,0,145.37286,250.2867Z" fill="#0f7dbe"/><path d="M181.42011,145.555c.57522-.11483.44846-.77438.81642-1.05007,1.90717,1.08374,3.72359-.08288,5.453-.45549,7.99434-1.72245,15.93911-3.67933,23.88017-5.63945a13.6218,13.6218,0,0,1,4.97844-.35614c1.98837,1.13606,1.63645,2.73.83376,4.34547-1.27466,2.56526-3.30027,4.58864-5.07806,6.784-4.15116,5.12632-8.35181,10.2126-12.53242,15.31509a1.51735,1.51735,0,0,0-.98875,1.66139.526.526,0,0,0,.82-.19588c2.99585-.361,5.86116-1.55387,8.93775-1.40055a1.78489,1.78489,0,0,1-.60545,1.40064c-1.65866,1.3355-2.57947,3.29844-4.08446,4.76247-.89514.87076-1.43774,1.80841-.55463,3.09521l1.52326.15691c-4.16265,5.25866-8.24764,10.58127-12.51507,15.7536-2.859,3.4653-6.392,5.57647-11.23,5.11358-3.3224-.31786-6.69994-.06094-10.287-.06094-1.44954-4.51662,1.93517-7.11581,3.45071-10.31327.031-.09624.11535-.25374.08521-.28-1.42927-1.244-4.76509-1.09912-6.23344.26l-1.26333.05364-.64215-.49281a6.65,6.65,0,0,1,1.92521-4.38736,5.64512,5.64512,0,0,0,1.65458,2.40029c1.855-.02384,3.84742.56458,5.87843.108-.06083.49028-.59.86361-.31313,1.54034a15.65356,15.65356,0,0,1,4.15193-.23227c-.12014,2.03652-2.16294.67547-3.00372,1.76866-.37421,1.86793-.363,3.77813,1.10672,5.39164,3.3514,1.60351,9.98919.01619,12.432-3.0916,1.73653-2.20917,3.434-4.43592,5.36236-6.49117a40.39533,40.39533,0,0,0,5.48372-7.53921c1.7171-2.98179.37574-5.80554-3.01991-6.483-1.27143-1.096-2.568.534-3.84427-.0354.35138-2.33688,2.64016-.48419,3.584-1.70786a13.02051,13.02051,0,0,1,2.30821-5.61958c2.39827-2.90528,4.28247-6.15283,6.53632-9.14694a5.55016,5.55016,0,0,0,.97086-5.59057c-7.20577-1.57708-13.92946,1.41054-20.81553,3.01358-1.228.26852-2.50322-.06018-3.70933.40058-1.5356.49554-1.32525,3.046-3.42365,2.86777C179.62235,149.13466,181.514,147.69216,181.42011,145.555Z" fill="#45b151"/><path d="M97.21388,144.52358c-2.0984-3.61777-4.20937-7.22833-6.28309-10.86018a8.48283,8.48283,0,0,1-.82189-2.03007c-.65333-2.48481.59226-3.90857,3.13256-3.51627,3.82854.59126,7.64305,1.27252,11.46541,1.90427a52.03658,52.03658,0,0,0,5.2824.80317c4.7876.29036,7.24663,3.26823,8.81184,7.34764.29825.77721.48816,1.5959.728,2.39547l-.20156-.00861c-2.12477.39766-1.4022,2.51652-2.2638,3.55728.88065,4.32544,2.33212,8.35855,3.51217,12.58841a15.91388,15.91388,0,0,1-5.28171-2.35611c-2.77232-1.87756-5.08662-4.37486-8.21371-5.80033-.99006-.45128-2.11968-.88768-3.05492-1.21941-1.93786-.6874-3.7047-2.30132-6.01029-1.79762C97.43518,145.44374,97.4944,144.84885,97.21388,144.52358Z" fill="#194897"/><path d="M97.21388,144.52357c.28052.32528.2213.92017.80138,1.00765a6.22543,6.22543,0,0,0,1.437,3.00014c1.46889,2.32053,2.87433,4.68115,4.30529,7.02562-3.19032-.72332-3.154-4.07694-4.66485-5.73921-3.18345-1.58631-6.40785-1.76115-9.63418-2.38461-1.48563.63038-3.49089.60383-4.24176,3.312,2.55465,5.46692,7.48852,10.05411,9.62031,16.21558-.50166.17934-1.18229-.28312-1.5558.42234.306.51024.6046,1.008.90308,1.50575-2.03286-.25118-3.85321.59633-5.64873.939a5.26637,5.26637,0,0,0-1.259,2.83172,13.11183,13.11183,0,0,0,1.73977,2.77671c2.15,2.65456,4.21485,5.38236,6.21849,8.14985,3.562,4.9202,7.8072,8.39,14.38238,7.22434,2.85436-2.8073,2.96493-4.725.5972-8.36051-1.06709-.87071-3.03009.688-3.38695-1.52988a31.66974,31.66974,0,0,0,5.59723.95138c-.21883-.89961-.3833-1.57567-.54777-2.25172,2.03309-.12678,4.10111.26966,6.16466-.30133.06639-.60463.12221-1.11279.178-1.62094,1.85975,1.46056,2.16379,4.01725,3.91906,5.55143q-.10953.11473-.2213.2274c-2.526-1.19326-5.22187-1.24451-8.15588-1.30639.85157,4.3788,5.713,7.238,4.39042,12.57527-4.87836,0-9.59432.27609-14.25893-.0942-3.26967-.25956-5.63525-2.721-7.63387-5.15309-4.18238-5.08945-8.18588-10.32559-12.26285-15.50147.65788-.16757,1.517.18536,1.92791-.80086.00687-1.1635-.8161-1.98462-1.3796-2.96716-1.18923-2.07315-3.47778-3.29709-4.25733-5.65513,3.39033-.07873,6.57764,1.15945,9.89974,1.52339.404.04425.8077.0897,1.203.13364.45385-.99847-.3284-1.40845-.73075-1.91854-4.41309-5.59446-8.87321-11.15207-13.26378-16.76406-1.27467-1.62928-2.72429-3.2817-1.9472-5.61812,1.43065-1.50345,3.08808-1.1085,4.74219-.71363q7.17664,1.71326,14.35269,3.42959C95.44034,144.859,96.35861,145.31863,97.21388,144.52357Z" fill="#45b151"/><path d="M50.19463,88.365c1.09431-.68,2.25123-.33378,3.35549-.11237,3.38586.67886,6.73718,1.54843,10.13947,2.12111a10.76194,10.76194,0,0,1,7.24015,4.56993c3.14452,4.44273,6.11948,9.0054,9.15388,13.52561a2.528,2.528,0,0,1,.53852,2.662c-1.07942.64471-2.179.25484-3.29688-.01-3.15693-.74783-6.30661-1.53814-9.48729-2.17065a12.43557,12.43557,0,0,1-7.74444-4.97583c-3.00889-4.028-5.92015-8.1289-8.85972-12.20834C50.51193,90.76464,49.59327,89.80146,50.19463,88.365Z" fill="#194897"/><path d="M163.37235,194.166c1.9081.21612,1.63082,1.642,1.41909,2.82892a30.11726,30.11726,0,0,1-1.15476,3.70915c1.28908.82872,2.98529-.0499,4.16249,1.09229a2.48253,2.48253,0,0,1-.25515,2.58691q-3.21261,6.23976-6.44526,12.46923c-.86476,1.67079-2.032,2.88909-4.12231,2.51459-1.32841,3.12034-1.80378,6.40157-3.68743,9.06649-1.21128.359-1.94566-.70356-2.94743-.83255a7.68039,7.68039,0,0,1-.20048-2.81522,193.1846,193.1846,0,0,1,2.844-19.91583c.75812-.4477.51993-1.24678.674-1.90749h2.6363c2.67185-2.3186,3.68289-5.329,4.56947-8.19278A3.226,3.226,0,0,1,163.37235,194.166Zm-.36055,7.116a2.42739,2.42739,0,0,0-3.07335,1.67934c-1.88643,5.05838-5.17529,9.70088-5.09356,15.25419a1.86354,1.86354,0,0,0,2.2099.18278C158.636,212.6869,161.12174,207.20774,163.0118,201.282Z" fill="#0f7dbe"/><path d="M226.416,117.83769c-.64146-1.38015.09006-2.1165.59218-2.87392,2.03016-3.06275,4.09495-6.10268,6.14762-9.15057a9.71726,9.71726,0,0,1,6.9133-4.45916c2.58958-.38694,5.14823-.99994,7.704-1.58484.88473-.20248,1.65256-.35541,2.22331.61146a4.3521,4.3521,0,0,1-1.26965,2.73521c-2.02916,2.80949-4.08168,5.60211-6.11254,8.4104a10.58557,10.58557,0,0,1-7.194,4.63715C232.4316,116.61691,229.59274,117.92313,226.416,117.83769Z" fill="#1b3f93"/><path d="M165.12516,184.77624q-1.87788,4.36044-3.75575,8.72085h-5.29874a3.78428,3.78428,0,0,1-2.37753,2.541c-.53058-3.89345,1.98459-7.69484-.55749-11.24438l-2.81519-.26174a45.48477,45.48477,0,0,1,.81973-4.93966c.61385-2.23382,1.879-4.01829,4.41486-4.34574,2.07157-.26751,4.15794-.42037,6.23776-.62407-.47159,1.35441-.92653,2.71487-1.41863,4.06176a7.02024,7.02024,0,0,0,.16964,5.82562Z" fill="#45b151"/><path d="M209.61112,164.335c1.257-2.717,3.62783-4.037,6.34348-4.66989,3.36357-.78385,6.79177-1.28889,10.18835-1.934a1.62865,1.62865,0,0,1,1.66383.59879c.148,1.12537-.67747,1.71522-1.27536,2.3965-2.0051,2.28484-4.22032,4.411-6.01854,6.84591a13.66007,13.66007,0,0,1-11.04263,5.67554c-1.15191.05223-2.30659.045-3.46.06508,1.22694-1.74112,2.4477-3.48655,3.68273-5.22193C210.603,166.81205,210.96667,165.55826,209.61112,164.335Z" fill="#45b151"/><path d="M82.22282,173.23473c-5.72932.30989-10.71516-.9339-14.23766-6.03527a61.16839,61.16839,0,0,0-5.61141-6.32824,6.1886,6.1886,0,0,1-1.5103-2.23811c.53327-1.03714,1.28622-.97952,2.18622-.80156,3.17529.62783,6.38673,1.08639,9.5422,1.79691,2.81758.63444,5.28733,1.92094,6.60363,4.72851-1.81657,1.89569-.52934,3.49189.62465,4.942C80.797,170.52647,82.01894,171.55368,82.22282,173.23473Z" fill="#45b151"/><path d="M150.32046,184.532l2.81519.26174c2.54208,3.54954.02691,7.35093.55749,11.24438a3.78428,3.78428,0,0,0,2.37753-2.541h5.29874q1.00151.33442,2.00294.6689a3.226,3.226,0,0,0-2.50745.60371c-.88658,2.86382-1.89762,5.87418-4.56947,8.19278h-2.6363l-.11759-.63926c-.21335-1.19448.54045-2.59036-.66505-3.86129-.90925,1.371-.38461,2.69269-.73514,3.853-.50991.06551-1.0667.08914-.77755.86856l-.04.019c-.85551-.32117-1.94557-.09059-2.65866-1.32243a37.34328,37.34328,0,0,1,.74138-12.488,30.76391,30.76391,0,0,0,.38415-4.66935A.91069.91069,0,0,1,150.32046,184.532Z" fill="#149cce"/><path d="M137.752,141.75115q.27932.02408.55934.0384.01584,3.12786.03161,6.25573c-1.22855-.863-.96369-2.42317-1.56451-3.54576-1.30242-.40521-2.56189-.09481-3.78782-.23252-1.14381-.12851-2.06594.94578-3.31531.402-2.20952-.96163-4.21739-.18535-6.19836.94313a10.00241,10.00241,0,0,0,.56844,6.10545c.53111,1.15246,1.3419,2.511.4668,3.93456-.86583-.71394-.90608-1.81209-1.22014-2.7586-1.35995-4.09878-2.64941-8.22089-3.96448-12.33452l.20156.00862c3.70586-.35417,7.33.50308,10.9895.79646C132.93027,141.55742,135.33463,141.73088,137.752,141.75115Z" fill="#45b151"/><path d="M132.63464,207.345c-1.003.012-1.63213.90281-3.06841,1.17545-3.53892-4.7832-5.54811-10.48126-7.59732-15.82171a3.35756,3.35756,0,0,1,2.01559-2.35754c1.371.0786,1.47846,1.3002,1.885,2.17857.86453,1.86763,1.54416,3.82346,2.45826,5.66451.65573,1.3206.98852,2.98253,2.75451,3.45066l.4106.558a.83886.83886,0,0,0,.54623.77391c.22454.57413-.13124,1.34525.59488,1.74911A5.8566,5.8566,0,0,1,132.63464,207.345Z" fill="#0f7dbe"/><path d="M165.12508,184.77623l-4.58126-.26635a7.02024,7.02024,0,0,1-.16964-5.82562c.4921-1.34689.947-2.70735,1.41863-4.06176a.76106.76106,0,0,1,.46819-.16985c.44877-.06884.69767-.23919.36-.70747l.09091-.27328c1.89807,1.11117,4.16734-.19441,6.03967.85631,1.63629,2.04806-.64632,3.527-.64239,5.29688a6.65,6.65,0,0,0-1.92521,4.38737,2.79789,2.79789,0,0,0-.0165.51009Z" fill="#16a74c"/><path d="M57.23454,176.07671c5.39621-1.8408,11.14757,1.23067,14.43428,7.76828-4.00812.49641-7.73781.63769-10.38923-3.0436C60.07456,179.12828,58.20494,178.00413,57.23454,176.07671Z" fill="#45b151"/><path d="M217.252,183.76251c2.84758-6.21171,8.29414-9.19255,13.98143-7.85167C228.50383,182.09549,223.93251,184.71427,217.252,183.76251Z" fill="#45b151"/><path d="M140.2638,235.12477c-.40065.01884-.75488.38912-1.61023-.10251-1.72173-4.11778-3.59845-8.60646-5.46337-13.06695.96315-1.123,1.73892-1.927,2.94288-.69989,1.1398,3.21375,2.33921,6.40822,3.391,9.65046C139.96162,232.25487,140.68913,233.60416,140.2638,235.12477Z" fill="#2a7bbd"/><path d="M131.08231,201.635c-1.766-.46813-2.09878-2.13006-2.75451-3.45066-.9141-1.841-1.59373-3.79688-2.45826-5.66451-.40658-.87837-.51407-2.1-1.885-2.17858q.31-.6321.62-1.26417c.64207-.88028,1.58055-.4375,2.39773-.53618a25.89635,25.89635,0,0,1,2.73007,7.47666C129.98785,197.93663,131.20129,199.626,131.08231,201.635Z" fill="#149cce"/><path d="M82.22282,173.23473c-.20388-1.681-1.4258-2.70826-2.40267-3.93576-1.154-1.45011-2.44122-3.04631-.62465-4.942l1.09177.21626c.77955,2.358,3.0681,3.582,4.25733,5.65513.5635.98254,1.38647,1.80366,1.3796,2.96716-.4109.98622-1.27.63329-1.92791.80085Q83.10951,173.61555,82.22282,173.23473Z" fill="#16a74c"/><path d="M209.61112,164.335c1.35555,1.22331.99191,2.4771.08189,3.756-1.235,1.73538-2.45579,3.48081-3.68273,5.22193l-1.19115.66574-1.52326-.15693c-.88311-1.2868-.34051-2.22445.55463-3.09521,1.505-1.464,2.4258-3.427,4.08446-4.76247a1.78489,1.78489,0,0,0,.60545-1.40064Z" fill="#16a74c"/><path d="M127.00225,188.54085c-.81718.09868-1.75566-.3441-2.39773.53619a19.37061,19.37061,0,0,1-2.68712-5.60078q.11173-.11266.2213-.2274l3.64471.16258v2.95724C126.20912,187.1966,127.21969,187.52823,127.00225,188.54085Z" fill="#45b151"/><path d="M168.08948,184.45161c1.46835-1.35914,4.80417-1.50407,6.23344-.26.03014.02624-.05421.18374-.08521.28C172.19128,183.5391,170.13729,184.952,168.08948,184.45161Z" fill="#5cb655"/><path d="M165.0317,103.59845c.15877-1.80449-.88974-3.816.91727-5.33779A15.68778,15.68778,0,0,1,165.0317,103.59845Z" fill="#2d5182"/><path d="M124.93685,110.28019c1.68642,1.61021.48493,3.68168.87987,5.49816C125.00216,114.02889,125.16625,112.12311,124.93685,110.28019Z" fill="#2d5182"/><path d="M132.48073,131.73911l4.648-.06163q.05979.58767.11967,1.17534l-.09145.04348C135.769,131.82168,133.8032,133.07786,132.48073,131.73911Z" fill="#2d5182"/><path d="M123.8309,102.64146c1.36727,1.3251.45748,2.98278.65541,4.47867A9.0174,9.0174,0,0,1,123.8309,102.64146Z" fill="#2d5182"/><path d="M126.38478,119.12691c.06592-.28548.13185-.571.23186-1.00364.56481,1.0587.72272,1.94366-.05968,2.79584Q126.4709,120.023,126.38478,119.12691Z" fill="#2d5182"/><path d="M199.60266,165.96392a.526.526,0,0,1-.82.19588,1.51737,1.51737,0,0,1,.98875-1.6614Q199.687,165.23115,199.60266,165.96392Z" fill="#5cb655"/><path d="M185.24063,137.51155c-.03678-.87539-.40689-1.914,1.01743-2.07395A4.45181,4.45181,0,0,1,185.24063,137.51155Z" fill="#2d5182"/><path d="M127.62343,125.36915c.892.32628.64546,1.10076.69389,1.75912A1.81846,1.81846,0,0,1,127.62343,125.36915Z" fill="#2d5182"/><path d="M164.79845,106.38847c-.59457-.457-.54985-.86441.09539-1.22512Q164.84619,105.77591,164.79845,106.38847Z" fill="#214190"/><path d="M182.69354,143.17758c-.04989-.581-.094-1.15933.62025-1.40316A1.42564,1.42564,0,0,1,182.69354,143.17758Z" fill="#2d5182"/><path d="M166.1675,184.52255a2.798,2.798,0,0,1,.0165-.5101l.64215.49281Z" fill="#5cb655"/><path d="M137.24836,132.85282q-.05979-.58767-.11967-1.17534c.00555-1.64915-.00571-3.2986.0236-4.94734.01565-.88322-.36773-1.34791-1.25146-1.39586-.4749-3.30749,1.51863-6.254,1.37-8.49338a13.86262,13.86262,0,0,1,7.003-7.90914h19.53532c.96415,1.48621-.53174,2.58753-.11728,3.79486-.03887,2.28475.30873,4.628-1.09231,6.70058a2.16254,2.16254,0,0,0-.16678.91272c-.89931,7.68638-.94279,7.77315-6.39444,12.5129Z" fill="#0a51a0"/><path d="M138.343,148.04527q-.016-3.12785-.03169-6.25572h8.142c2.5191.79741,3.87981,2.9415,5.74967,4.7543.08482,3.19109.58956,6.52879-.83677,9.72905-.58216,1.306-.20318,2.68968-.32077,4.03325a55.127,55.127,0,0,1-1.24282,9.83156,6.37124,6.37124,0,0,1-6.80889-.88282,7.89022,7.89022,0,0,1-2.68033-4.82613c-.01488-.67568.16316-1.40463-.52441-1.89447l-.192-1.23081.08281-1.94468a25.35083,25.35083,0,0,0-1.12261-9.445Z" fill="#0a51a0"/><path d="M164.43536,169.46234l-.77008-.52827a58.5344,58.5344,0,0,0,6.153-11.27141,20.92284,20.92284,0,0,1,6.43716-9.56806,1.66477,1.66477,0,0,0,.69844-1.28738c1.6767.25173,2.64709-2.01093,4.46621-1.25224.09384,2.13718-1.79776,3.57968-1.97125,5.62331l-.00647.02847a.542.542,0,0,0-.48285.62231q-.07634.32229-.15252.64461a.52619.52619,0,0,0-.439.60815q-.088.32922-.176.65844a.53608.53608,0,0,0-.47591.61157c-.71016,1.50767-1.43589,3.00825-2.1277,4.52431A19.26164,19.26164,0,0,1,164.43536,169.46234Z" fill="#0a51a0"/><path d="M151.34336,170.38392l-1.37783.45091a42.20355,42.20355,0,0,1-.81294,4.44467c-.509,1.775-.97148,3.686-3.09054,4.36807l-5.72538-.00665-.03964-.03969q.00451-1.88454.0091-3.7691h2.5959a4.79223,4.79223,0,0,0,2.30736-3.22629,27.11812,27.11812,0,0,0-2.21907-1.948c-2.01752-1.47675-3.82738-3.26954-3.31469-6.18942l.63775-.03967a7.89022,7.89022,0,0,0,2.68033,4.82614,6.37124,6.37124,0,0,0,6.80889.88282Z" fill="#45b151"/><path d="M193.79269,113.95609a1.10754,1.10754,0,0,1-.15061-.13677,1.10993,1.10993,0,0,0,.15061.13677,1.20683,1.20683,0,0,0-.3086-1.29052l.00483.0025a2.8451,2.8451,0,0,0-.35192-1.80921c-.06717.0905-.12778.17974-.18086.2675.05293-.08772.11365-.177.18086-.2675a4.60457,4.60457,0,0,0-2.90511-3.21077c-3.60671-1.72952-7.22044-.56052-10.83267-.02651-3.15849.10706-6.33848-.0868-9.45006.67487l-4.99256.00613q-.07911-.957-.15806-1.91411c-.59466-.457-.54995-.86441.09529-1.22513a2.07977,2.07977,0,0,0,.13789-1.56489c.15875-1.80448-.88976-3.816.91726-5.33781a8.67989,8.67989,0,0,0,.30134-3.12752c.83313-1.83711.62919-3.83135.87394-5.75766.69767-3.605,1.42948-7.23885.95172-10.9096-.49548-3.807-1.44739-7.48529-5.70177-8.98483a6.234,6.234,0,0,0-3.07751-.30493q-14.87913-.02448-29.75829-.00089a8.05651,8.05651,0,0,0-3.09936.23009c-4.11927,1.38018-5.19147,4.88508-5.66692,8.57033-.58031,4.49848.46611,8.9115,1.29356,13.31279a34.71264,34.71264,0,0,0,1.22355,8.08007,5.6006,5.6006,0,0,0,.54165,3.273c1.3673,1.32512.45752,2.9828.65543,4.47868a6.47925,6.47925,0,0,0,.45053,3.16007c1.68642,1.61019.48494,3.68167.87988,5.49815a6.017,6.017,0,0,0,.568,3.34857c.06593-.28549.13187-.571.23186-1.00364.56485,1.05869.72275,1.94367-.05968,2.79581a10.42465,10.42465,0,0,0,1.06649,4.45005c.892.32631.64547,1.10079.69389,1.75915a7.36975,7.36975,0,0,0,4.16341,4.61081q2.324-.03078,4.648-.06161c.00555-1.64915-.00571-3.29861.02357-4.94734.01566-.88324-.3677-1.34793-1.25144-1.39588-.47491-3.30749,1.51864-6.254,1.37-8.49337a13.863,13.863,0,0,1,7.003-7.90916h19.53533c.96414,1.48623-.53174,2.58756-.11728,3.7949-.03885,2.28475.30875,4.62794-1.0923,6.70054a2.16256,2.16256,0,0,0-.16677.91275c-.89933,7.68637-.94281,7.77313-6.39446,12.51288h-18.79l-.09147.04348c-.071,2.96969.793,5.87668.595,8.85486q.27933.02408.55932.03839h8.142c2.51908.79743,3.87981,2.94152,5.74964,4.75429.08484,3.19109.58957,6.52879-.83675,9.72906-.58216,1.306-.2032,2.68968-.32079,4.03325a55.12593,55.12593,0,0,1-1.24279,9.83157l1.54074.24618c4.12935-.29622,8.28226-.39259,12.322-1.44982a58.53551,58.53551,0,0,0,6.153-11.27143,20.92267,20.92267,0,0,1,6.43716-9.568,1.66474,1.66474,0,0,0,.69845-1.28739c1.67669.25173,2.64708-2.01091,4.46622-1.25225.57521-.11481.44844-.77436.81641-1.05q.22853-.66365.457-1.32733c-.04988-.581-.094-1.15935.62025-1.40317a11.91591,11.91591,0,0,0,1.92684-4.26287c-.03676-.87536-.40689-1.914,1.01742-2.07395a46.30272,46.30272,0,0,0,2.78273-6.70239,3.92988,3.92988,0,0,0,.9126-2.12808l.26068-.65983a2.17364,2.17364,0,0,0,.73551-1.82438,11.32735,11.32735,0,0,0,1.799-4.4597,5.289,5.289,0,0,0,.87363-3.68934A2.60378,2.60378,0,0,0,193.79269,113.95609Zm-25.26163-4.92281c.39957.00633.79967-.0037,1.20005-.02161C169.33073,109.02958,168.93067,109.03961,168.53106,109.03328Zm24.89409,3.79829-.00263.02169Zm-.02064.17758c-.00112.01482-.00058.02925-.00136.044C193.40393,113.0384,193.40339,113.024,193.40451,113.00915Zm-.0046.17481c.00058.01886.00386.03707.00521.05578C193.40377,113.221,193.40049,113.20286,193.39991,113.184Zm.20224.58208a.93476.93476,0,0,1-.0696-.09351A.93019.93019,0,0,0,193.60215,113.766Zm-.10683-.17179c-.01215-.02577-.02689-.051-.03634-.07743C193.46847,113.54329,193.48317,113.56848,193.49532,113.59425Zm-.06142-.17272c-.00555-.02276-.0135-.04494-.01747-.06813C193.4204,113.37659,193.42831,113.39877,193.4339,113.42153Z" fill="#1b3f93"/><path d="M140.979,184.64427c.97333,3.95859.20071,8.07673,1.16594,12.082-.93994-.81522-.95474-2.15393-2.05923-2.98567-.9532-.46895-2.06478-.20383-3.36373-.11269-.33118,3.3325,1.45957,6.35447.978,9.4519-1.08089.82691-2.1708.40315-3.17883.53247-1.09978-1.99808-.82721-4.53983-2.50429-6.30922.13239-1.23288-.00825-2.54511,1.16077-3.62845.64585-.45222,1.78195.17779,2.64856-.83951,0-1.38194.02244-2.94335-.0067-4.50382a4.387,4.387,0,0,1,1.33488-3.6933l3.81851-.09692Z" fill="#149cce"/><path d="M141.13766,226.53057l-.2203-.0102c.22146-5.222-1.10163-10.28616-1.59427-15.43563-.22407-2.34256-.62087-4.66863-.956-7.12433l3.63593-.87282c.39363,7.62689,1.28985,15.069.70414,22.56571C142.40191,226.33713,141.70895,226.32513,141.13766,226.53057Z" fill="#0a51a0"/><path d="M132.01678,197.303c1.67708,1.76939,1.40451,4.31114,2.50429,6.30922l-.22022.7435c-.61431-.151-1.23988-.35406-1.66683.36019-.72612-.40386-.37034-1.175-.59488-1.74911a.79373.79373,0,0,0-.54623-.77391l-.4106-.558c.119-2.00894-1.09446-3.69832-1.35-5.61744C130.7964,195.90928,130.93481,197.44291,132.01678,197.303Z" fill="#45b151"/><path d="M178.19209,153.74027q.0879-.32922.176-.65842l.439-.60815q.0761-.32234.15244-.64463a.66814.66814,0,0,0,.48285-.62231l.00647-.02847c2.0984.17818,1.888-2.37223,3.42365-2.86777,1.20611-.46076,2.48131-.13206,3.70933-.40058,6.88607-1.603,13.60976-4.59066,20.81553-3.01358a5.55016,5.55016,0,0,1-.97086,5.59057c-2.25385,2.99411-4.13805,6.24166-6.53632,9.14694a13.02051,13.02051,0,0,0-2.30821,5.61958c-.94387,1.22367-3.23265-.629-3.584,1.70786-1.21845.22305-2.4376.443-3.65535.66971a13.00772,13.00772,0,0,0-9.11317,5.91148c-1.32494,2.089-2.843,4.05566-4.27445,6.07726-1.41145-.01867-1.26988.98671-1.25909,1.90584a2.7161,2.7161,0,0,1-.05367.60774c-2.031.45662-4.02346-.1318-5.87843-.108a5.64512,5.64512,0,0,1-1.65458-2.40029c-.00393-1.76992,2.27868-3.24882.64239-5.29688-1.87233-1.05072-4.1416.25486-6.03967-.85631a12.633,12.633,0,0,1,1.72343-4.00955,19.26168,19.26168,0,0,0,11.15312-10.5862c.69181-1.51606,1.41754-3.01664,2.1277-4.52431Q177.95421,154.04608,178.19209,153.74027Z" fill="#4eb64a"/><path d="M197.84222,166.99671c3.39565.67748,4.737,3.50123,3.01991,6.483a40.39533,40.39533,0,0,1-5.48372,7.53921c-1.92831,2.05525-3.62583,4.282-5.36236,6.49117-2.44284,3.10779-9.08063,4.69511-12.432,3.0916-1.46967-1.61351-1.48093-3.52371-1.10672-5.39164.84078-1.09319,2.88358.26786,3.00372-1.76866,3.43428-.49509,6.09688-2.44891,8.64782-4.59523,3.59884-3.028,6.00143-7.08126,9.04208-10.58828a.7869.7869,0,0,0,.61671-.64117A2.616,2.616,0,0,1,197.84222,166.99671Z" fill="#4eb64a"/><path d="M197.84222,166.99671a2.616,2.616,0,0,0-.05459.62.7993.7993,0,0,0-.61671.64117c-3.04065,3.507-5.44324,7.56026-9.04208,10.58828-2.55094,2.14632-5.21354,4.10014-8.64782,4.59523a15.65356,15.65356,0,0,0-4.15193.23227c-.27689-.67673.2523-1.05006.31313-1.54034a2.7161,2.7161,0,0,0,.05367-.60774,1.90137,1.90137,0,0,0,1.25909-1.90584c1.43142-2.0216,2.94951-3.9883,4.27445-6.07726a13.00772,13.00772,0,0,1,9.11317-5.91148c1.21775-.22673,2.4369-.44666,3.65535-.66971C195.27423,167.53069,196.57079,165.90067,197.84222,166.99671Z" fill="#16a74c"/><path d="M119.32752,140.559c1.31507,4.11363,2.60453,8.23574,3.96448,12.33452.31406.94651.35431,2.04466,1.22007,2.75861q.08292.62069.16578,1.24137c-.37382,1.29987.95706,2.98283-.88974,3.95169L120.76827,160.7l-1.36033.07623-3.57755-.12367a5.98891,5.98891,0,0,0-3.689-1.26781c-2.38216.17338-4.24152-1.13242-6.1753-2.28018-.78619-.46668-1.13232-1.53265-2.20851-1.54757-1.431-2.34447-2.8364-4.70509-4.30529-7.02562a6.22543,6.22543,0,0,1-1.437-3.00014c2.30559-.5037,4.07243,1.11022,6.01029,1.79762.93524.33173,2.06486.76813,3.05492,1.21941,3.12709,1.42547,5.44139,3.92277,8.21371,5.80033a15.91388,15.91388,0,0,0,5.28171,2.35611c-1.18-4.22986-2.63152-8.263-3.51217-12.58841C117.92532,143.07552,117.20275,140.95666,119.32752,140.559Z" fill="#0a51a0"/><path d="M103.75753,155.557c1.07619.01492,1.42232,1.08089,2.20851,1.54757,1.93378,1.14776,3.79314,2.45356,6.1753,2.28018a5.989,5.989,0,0,1,3.689,1.2678c.88936,2.03591,1.77864,4.07183,2.71079,6.20581-1.12461.32061-2.31438-.18008-3.24329,1.01-.91257,2.27205.0074,4.44829,1.29787,6.51635a7.75789,7.75789,0,0,1,1.62388,3.31271c-.05583.50815-.11165,1.01631-.178,1.62094-2.06355.571-4.13157.17455-6.16466.30133-1.11744-1.60285-2.35594-3.1359-3.32981-4.82152-3.0617-5.29938-7.92433-7.34927-13.71008-7.83746-2.13179-6.16147-7.06566-10.74866-9.62031-16.21558.75087-2.70815,2.75613-2.6816,4.24176-3.312,3.22633.62346,6.45073.7983,9.63418,2.38461C100.60353,151.48,100.56721,154.83366,103.75753,155.557Z" fill="#4eb64a"/><path d="M106.82748,180.92c.35686,2.21786,2.31986.65917,3.38695,1.52988,2.36773,3.63551,2.25716,5.55321-.5972,8.36051-6.57518,1.16565-10.82033-2.30414-14.38238-7.22434-2.00364-2.76749-4.0685-5.49529-6.21849-8.14985a13.11183,13.11183,0,0,1-1.73977-2.77671,5.26637,5.26637,0,0,1,1.259-2.83172c1.79552-.34267,3.61587-1.19018,5.64881-.939q1.19385,1.62967,2.38771,3.25941C99.30141,175.87634,102.42519,179.14409,106.82748,180.92Z" fill="#4eb64a"/><path d="M118.21964,177.69743a7.75789,7.75789,0,0,0-1.62388-3.31271c-1.29047-2.06806-2.21044-4.2443-1.29787-6.51635.92891-1.19011,2.11868-.68942,3.24329-1.01-.93215-2.134-1.82143-4.1699-2.71079-6.20581l3.57755.12368a26.87824,26.87824,0,0,0,3.76246,7.531c.00185,1.30792.74046,2.348,1.2321,3.48677,1.02483,2.37351,2.00147,4.76878,2.94789,7.17477.74771,1.901.37837,3.463-1.567,4.44274l-3.64471-.16258C120.38343,181.71468,120.07939,179.158,118.21964,177.69743Z" fill="#16a74c"/><path d="M106.82748,180.92c-4.40229-1.77595-7.52607-5.0437-10.25536-8.77183q-1.19339-1.63005-2.38779-3.2594c-.29848-.49775-.597-.99551-.90308-1.50575.37351-.70546,1.05414-.243,1.5558-.42234,5.78575.48819,10.64838,2.53808,13.71008,7.83746.97387,1.68562,2.21237,3.21867,3.32981,4.82152.16447.67605.32894,1.35211.54777,2.25172A31.66974,31.66974,0,0,1,106.82748,180.92Z" fill="#16a74c"/><path d="M214.69242,49.7133h-16.4197a8.39964,8.39964,0,0,0-4.34778,6.76,8.179,8.179,0,0,0-.99963,3.85023q-.14954,1.084-.29934,2.168c-.68031.62371-.56264,1.45182-.57645,2.24628a4.60328,4.60328,0,0,0-.67012,2.90958,2.56064,2.56064,0,0,0-.53028,2.1611l-.00424.01613-.20247.20933.08642.244a4.19394,4.19394,0,0,0-.59918,2.52579,9.29561,9.29561,0,0,0-1.05175,3.94235c-.2361,1.52555-.69188,3.07447.47549,4.45033.60778,1.39707,1.8728,1.08913,2.96186,1.06378,1.554-.03614,3.11239-.14779,4.6553-.33679,2.338-.28642,4.77323.40755,7.027-.6974a3.26808,3.26808,0,0,0,2.525-1.69468,1.02379,1.02379,0,0,0,.62054-.85546l.02369.06281a3.42752,3.42752,0,0,0,1.43712-2.47367,2.75178,2.75178,0,0,0,.46627-1.75375,3.94714,3.94714,0,0,0,.86785-2.19381,2.449,2.449,0,0,0,.40535-1.49874c.67506-.6197.63313-1.50664.85666-2.29458a1.12686,1.12686,0,0,0-.909.8048,1.12681,1.12681,0,0,1,.90893-.8048q.21354-.74518.427-1.49032a.96533.96533,0,0,0,.44629-1.02047A79.29274,79.29274,0,0,0,215.986,55.00284C216.4945,53.19987,216.6266,51.21226,214.69242,49.7133Z" fill="#1b3f93"/><path d="M163.0118,201.282c-1.89006,5.92573-4.37585,11.40489-5.957,17.11631a1.86354,1.86354,0,0,1-2.2099-.18278c-.08173-5.55331,3.20713-10.19581,5.09356-15.25419A2.42739,2.42739,0,0,1,163.0118,201.282Z" fill="#0a51a0"/><path d="M152.98514,204.87c-.07333-.49544-.14659-.99086-.21591-1.45949-.41329-.58533-.93716-.21841-1.40543-.227-.28915-.77942.26764-.803.77755-.86856q.7001.00419,1.40019.00832l.11759.63926C153.50507,203.62318,153.74326,204.42226,152.98514,204.87Z" fill="#4e98c8"/><path d="M153.54154,202.32321q-.70009-.00414-1.40019-.00832c.35053-1.16028-.17411-2.482.73514-3.853C154.082,199.73285,153.32819,201.12873,153.54154,202.32321Z" fill="#45b151"/><path d="M124.67785,156.8935q-.08294-.62068-.16578-1.24137c.87517-1.42357.06438-2.78211-.46673-3.93457a10.00241,10.00241,0,0,1-.56844-6.10545c1.981-1.12848,3.98884-1.90476,6.19836-.94313,1.24937.5438,2.1715-.53049,3.31531-.402,1.22593.13771,2.4854-.17269,3.78782.23252.60082,1.12259.336,2.68275,1.56459,3.54575l.2142,1.86853q-.05181,2.22316-.10355,4.44631c-.91735,1.06706-1.341,2.03434.51453,2.541l.136,2.4933c-1.376,1.03318-.11188,1.38619.4928,1.90908l.192,1.23081-.11334,1.93414c-.51269,2.91987,1.29717,4.71266,3.31469,6.18941a27.11812,27.11812,0,0,1,2.21907,1.948,4.79223,4.79223,0,0,1-2.30736,3.22629h-2.5959c-.82181-2.57063-1.8707-4.97808-4.72545-6.3602h-2.84387c-.62689-2.39-2.76353-.55078-4.30568-1.72687a20.69,20.69,0,0,1-2.65311-8.669C125.74208,158.20254,126.13287,157.07086,124.67785,156.8935Z" fill="#4eb64a"/><path d="M131.49291,202.19291a.79373.79373,0,0,1,.54623.77391A.83886.83886,0,0,1,131.49291,202.19291Z" fill="#149cce"/><path d="M162.261,174.45265l.36-.70747C162.95867,174.21346,162.70977,174.38381,162.261,174.45265Z" fill="#4eb64a"/><path d="M125.78341,183.41144c1.94535-.97976,2.31469-2.54171,1.567-4.44274-.94642-2.406-1.92306-4.80126-2.94789-7.17477-.49164-1.13874-1.23025-2.17885-1.2321-3.48678l2.59173-.06051.05606.03509c1.51555,4.4298,2.82676,8.99649,7.84792,11.40647h3.47715c-.27874,1.48534,1.8084.84582,1.85328,2.28427.27712,1.29764-2.02469,1.19828-1.84225,2.66547a4.387,4.387,0,0,0-1.33488,3.6933c.02914,1.56047.0067,3.12188.0067,4.50382-.86661,1.0173-2.00271.38729-2.64856.83951-1.169,1.08334-1.02838,2.39557-1.16077,3.62845-1.082.13989-1.22038-1.39374-2.28446-1.28551a25.89635,25.89635,0,0,0-2.73007-7.47666c.21744-1.01262-.79313-1.34425-1.21884-2.17217Z" fill="#4eb64a"/><path d="M138.45363,154.36011q.05181-2.22315.10355-4.4463a25.35075,25.35075,0,0,1,1.12261,9.445,4.3941,4.3941,0,0,1-.57561.0356l-.136-2.4933C138.98706,156.01562,139.40891,155.04871,138.45363,154.36011Z" fill="#4a80b4"/><path d="M139.10418,159.3944a4.3941,4.3941,0,0,0,.57561-.0356l-.08281,1.94469C138.9923,160.78059,137.7282,160.42758,139.10418,159.3944Z" fill="#45b151"/><path d="M139.67563,164.46842l.11334-1.93412c.68757.48983.50953,1.21878.52441,1.89445Z" fill="#4a80b4"/><path d="M137.15429,184.63794c-.18244-1.46719,2.11937-1.36783,1.84225-2.66547-.04488-1.43845-2.132-.79893-1.85328-2.28427l3.15377-.087.03964.03969.15221,1.09187a11.52556,11.52556,0,0,1,.48392,3.80823Z" fill="#45b151"/><path d="M140.48888,180.73279l-.15221-1.09187,5.72538.00665C144.35743,180.79413,142.13728,179.29811,140.48888,180.73279Z" fill="#5cb655"/><path d="M178.19209,153.74028l-.47583.61157A.536.536,0,0,1,178.19209,153.74028Z" fill="#45b151"/><path d="M178.8071,152.4737l-.439.60815A.52617.52617,0,0,1,178.8071,152.4737Z" fill="#45b151"/><path d="M179.44239,151.20676a.66814.66814,0,0,1-.48285.62231A.542.542,0,0,1,179.44239,151.20676Z" fill="#45b151"/><path d="M140.297,179.60123l-3.15377.087h-3.47715c-5.02116-2.41-6.33237-6.97667-7.84792-11.40647,2.3655.0528,4.42165,1.9002,6.91862,1.1902h2.84387c2.85475,1.38212,3.90364,3.78957,4.72545,6.3602Q140.30151,177.71669,140.297,179.60123Z" fill="#16a74c"/><path d="M176.955,179.61974a1.90137,1.90137,0,0,1-1.25909,1.90586C175.6851,180.60647,175.54353,179.60109,176.955,179.61974Z" fill="#45b151"/><path d="M197.17092,168.2579a.7993.7993,0,0,1,.61671-.64117A.7869.7869,0,0,1,197.17092,168.2579Z" fill="#45b151"/><path d="M132.73681,169.47193c-2.497.71-4.55312-1.1374-6.91862-1.1902l-.05606-.03508a56.10864,56.10864,0,0,1-2.5393-6.80475l.56535-.59669c1.84673-.96888.51585-2.65184.88967-3.95172,1.455.17737,1.06423,1.309,1.10017,2.18252a20.69,20.69,0,0,0,2.65311,8.669C129.97328,168.92115,132.10992,167.082,132.73681,169.47193Z" fill="#45b151"/><path d="M123.22275,161.44188a56.12072,56.12072,0,0,0,2.53938,6.80476l-2.59173.06051a26.878,26.878,0,0,1-3.76246-7.53094l1.36033-.07623C121.37048,161.66026,122.42654,161.12215,123.22275,161.44188Z" fill="#5cb655"/><path d="M123.22283,161.4419c-.79629-.31975-1.85235.21836-2.45456-.74192q1.51.07261,3.01991.14523Z" fill="#515e88"/><path d="M138.45363,154.36011c.95528.6886.53343,1.65551.51453,2.541C137.11258,156.39445,137.53628,155.42717,138.45363,154.36011Z" fill="#45b151"/></svg>