<svg id="Layer_1" data-name="Layer 1" xmlns="http://www.w3.org/2000/svg" xmlns:xlink="http://www.w3.org/1999/xlink" viewBox="0 0 300 300"><defs><linearGradient id="linear-gradient" x1="85.12491" y1="262.27736" x2="215.0058" y2="37.31706" gradientUnits="userSpaceOnUse"><stop offset="0" stop-color="#32e767"/><stop offset="0.99969" stop-color="#19a757"/></linearGradient></defs><path d="M176.71714,68.07017c4.04,14.41029,12.02165,19.05333,28.06566,16.62083,2.03737-4.11953,1.92966-8.82193,2.51814-13.35867.56912-4.38743.8175-8.817,1.40587-13.20134,2.25761-16.823,8.05918-19.65475,23.0004-11.16993,10.31057,5.85519,17.20191,14.75127,21.90884,25.44791,3.79886,8.633.74926,13.962-8.59851,15.337-10.32682,1.51893-20.64852,3.07282-30.66722,4.566-4.13145,15.0081,1.05445,23.98163,16.47289,28.6411,6.12664-8.12,12.44562-16.39286,18.652-24.74933,6.1484-8.27832,11.92821-8.55333,18.41466-.50755,9.81538,12.17505,12.80721,26.11876,9.98476,41.33961-1.288,6.94619-5.3301,9.4372-12.15766,7.09137-10.52245-3.6154-20.86147-7.76493-31.11806-11.62755-10.66169,6.34078-10.96876,24.87509.02833,32.19743,9.16-2.6146,18.04379-7.14331,27.15843-11.03261,11.41425-4.87067,16.37367-2.11567,17.86857,10.41717,1.72913,14.49655-3.14782,27.06029-11.92778,38.23756-4.59186,5.84562-10.50718,5.7443-15.25032.00256-6.93538-8.39551-13.68013-16.94854-20.34811-25.23805-14.32423,2.45388-20.36951,12.75685-16.46251,27.90933,9.77451,2.18468,19.94274,2.94,30.041,4.197,11.61632,1.44595,14.00007,5.74144,9.8205,16.5094C249.92658,240.1279,239.01425,248.912,225.1823,254.523c-6.193,2.51213-11.10014-.40209-12.2793-7.06653-1.94583-10.99749-3.6557-22.0367-5.44484-32.93565-12.8188-5.77233-26.32734,2.65852-28.11705,16.67026,7.9769,6.05784,16.19981,12.39056,24.51829,18.59508,8.27586,6.17281,8.49137,11.09316.588,17.82494-12.49266,10.64058-27.16355,12.49828-42.668,10.13316-5.656-.86278-8.30733-6.81807-6.0998-12.4783,3.96093-10.15616,8.037-20.26734,12.01853-30.28054-8.8181-11.58761-21.28506-11.77521-33.1664-.33923,4.05834,9.63192,8.13906,19.45453,12.3329,29.22861,3.60369,8.39868,1.69544,12.51309-7.1498,14.70976-16.61512,4.12619-30.62855-1.70526-43.17733-11.95373-5.02936-4.10741-4.65276-9.14495.63739-13.607,8.65025-7.29618,17.57846-14.26264,26.2689-21.271-5.06009-15.32895-14.35817-20.65843-28.399-16.24341-5.94394,13.36336,1.41152,31.32018-11.6724,42.52924C64,253.94627,53.03079,242.44124,46.04109,226.56775c-3.24447-7.36808-.72459-12.29765,7.34426-13.87283,10.70023-2.08891,21.53757-3.47512,32.182-5.14231,5.19513-13.49732-1.63311-25.31948-16.4042-28.12667-5.97522,5.827-10.29973,13.27267-15.62314,19.90728-1.8874,2.35227-3.56049,4.89372-5.5925,7.10921-4.36805,4.76241-8.85689,5.14594-13.20325.538-11.623-12.32253-15.84656-27.10287-12.78745-43.682,1.44862-7.85092,6.44921-10.0732,14.01478-7.14882,9.91328,3.83181,19.80193,7.72738,29.32684,11.4493,11.13652-10.15147,11.30475-20.30068.71914-32.65936-8.87948,1.68947-16.64721,7.1658-25.39852,9.94206-1.982.62875-3.84325,1.63048-5.77967,2.412-7.07951,2.85721-11.18948,1.24235-13.25349-6.10734-3.598-12.812-.79247-24.85837,5.57922-36.22385a55.81054,55.81054,0,0,1,4.27577-6.35439c5.36326-7.07294,10.81109-7.25777,16.45175-.43543,6.50194,7.86407,12.8436,15.86069,19.28332,23.77657a7.89043,7.89043,0,0,0,1.56489,1.18255C83.55266,118.18,88.47842,109.03947,83.90092,94.25623c-9.38548-1.17761-19.01456-2.61183-28.692-3.54349-12.41556-1.19536-15.2486-5.9165-10.30933-17.67554,5.766-13.72734,16.17283-22.39447,29.84234-27.4015,6.74317-2.46994,11.35.40489,12.51193,7.44649C89.066,64.06441,90.80043,75.0595,92.51779,85.73828c14.37989,4.01258,23.16964-1.03409,28.55092-16.59464-7.57159-5.75548-15.36848-11.81-23.3012-17.68082C87.12129,43.58373,86.96089,38.4449,97.573,30.547c11.44038-8.51436,24.43849-11.07519,38.33917-9.04786,8.28525,1.20836,10.813,5.99131,7.81987,13.98183-3.7427,9.99154-7.60622,19.93782-11.37264,29.78609,9.9407,11.32823,20.91781,11.39122,32.92493-.02407-4.05912-9.57258-8.187-19.35164-12.35141-29.11514-3.75492-8.80354-.8884-13.91956,8.41939-15.3746C176.2387,18.426,189.467,22.16773,201.30411,31.2853c7.14937,5.50681,7.43553,10.75212.57428,16.46646C193.52776,54.70657,184.97551,61.41921,176.71714,68.07017Zm48.03377,60.63589c-16.23186-6.59957-22.37893-18.41438-20.24482-35.00552-17.347,3.071-28.53725-4.15521-35.69191-19.17535-13.29894,10.58587-26.52821,10.1277-40.14107.78491-6.59677,15.33547-17.98485,22.06473-34.615,20.765,2.44253,16.64794-4.5173,27.859-18.772,34.63155,9.216,20.08525,9.2363,22.26054.29824,40.64889,14.8919,6.25582,22.032,17.56518,19.996,34.4696,17.14064-2.335,28.55681,4.59276,35.45443,19.67952,13.4823-10.51,26.78049-10.54644,40.36321-.46517,6.13127-16.16792,18.01064-22.37128,34.39091-21.14771-2.58392-17.04124,4.894-28.17418,19.49972-35.148C215.0193,155.1679,215.2209,142.22182,224.75091,128.70606ZM123.99876,60.28957c4.09873-6.88753,10.3667-23.52778,11.13336-29.25776-11.96022-3.95687-27.53756.49677-36.00017,10.47487C107.24848,47.63741,115.351,53.75756,123.99876,60.28957ZM258.74421,98.59226c-6.68151,8.91262-12.86767,17.16453-19.59023,26.13186,10.3601,3.98442,19.72911,7.5877,29.82238,11.46948C271.75687,121.66227,268.814,109.76,258.74421,98.59226ZM30.01679,140.12177l30.19955-12.84788c-7.06512-8.73718-13.44345-16.625-20.31047-25.11715C30.56131,113.63958,26.41376,125.12869,30.01679,140.12177ZM53.315,221.20715c5.45567,14.12791,13.55221,23.63779,27.854,27.43328,1.76807-10.741,3.84051-20.89388,3.46-32.21928Zm122.01683,17.81526c-3.99447,10.686-8.57769,19.9617-11.38345,30.373,14.1686,1.76654,26.478.14736,37.1894-10.77714C192.44637,252.01842,184.23227,245.781,175.33182,239.02241Zm39.299-155.62518,31.57092-4.959c-5.174-13.87126-13.35458-23.00338-27.6556-27.19224C217.22439,62.09951,215.99774,72.17224,214.63078,83.39723Zm-74.71207,185.746c-4.17288-9.73346-8.16937-19.05547-12.41147-28.95033-9.22093,6.06262-16.9384,12.85979-24.81811,19.5404C112.39023,269.96128,127.7108,273.85014,139.91871,269.14322Zm99.96486-96.48,20.30408,25.30647c8.56539-11.87009,13.76524-23.211,9.42217-37.96986Zm-18.15906,73.11868c14.416-4.43964,23.92829-14.32,26.15495-27.45316l-31.42895-3.71816C218.38551,225.7406,218.95941,235.66474,221.72451,245.78189ZM159.92572,30.05356c4.30964,10.11784,8.42667,19.78344,12.7673,29.974L197.5974,39.816C186.18407,30.18893,174.23993,27.038,159.92572,30.05356ZM60.91715,175.27047c-5.88993-2.35534-10.59177-4.26992-15.32005-6.11673-4.66247-1.821-9.35174-3.57341-14.02178-5.353-4.74425,12.65037.37988,30.46738,10.47334,36.463C48.10493,192.24155,54.19163,184.17912,60.91715,175.27047ZM52.06884,81.53826c10.17542,1.24187,20.32961,2.48119,31.11825,3.79792-1.31008-11.12478-2.5045-21.12883-4.8679-30.96357C65.47694,56.92714,53.89561,68.76711,52.06884,81.53826Z" fill="url(#linear-gradient)"/></svg>