<svg id="Layer_1" data-name="Layer 1" xmlns="http://www.w3.org/2000/svg" viewBox="0 0 300 300"><defs><style>.cls-1{fill:#00a2d9;}.cls-2{fill:#1e63af;}.cls-3{fill:#7fc9e6;}</style></defs><title>HOOK_Light_bg</title><path class="cls-1" d="M149.05,51.46c-18.93,0-36.59,8.78-50.2,23.37C158.16,94.75,201,141.77,207.27,196.47a109.47,109.47,0,0,0,14.32-47.79c3.29-51-27.38-94.42-68.53-97.11-1.32-.06-2.69-.11-4-.11"/><path class="cls-2" d="M213.47,77c14,20,21.78,46.69,19.86,75.6-3.07,46.7-30.29,84.61-65.24,95.91,58.49-12.62,100.68-45.59,103.37-87,2.14-32.59-20.68-63.21-58-84.55Z"/><path class="cls-3" d="M86.61,80.43c-28.14,10-50.36,34-58.21,64.3,18.71-8.56,42-13.66,67.27-13.66H96c61.23.11,91.73,30.07,94.86,32.76-19.09-36.76-58.65-69.9-104.25-83.4"/></svg>