<svg id="Layer_1" data-name="Layer 1" xmlns="http://www.w3.org/2000/svg" xmlns:xlink="http://www.w3.org/1999/xlink" viewBox="0 0 300 300"><defs><linearGradient id="linear-gradient" x1="25" y1="144.66305" x2="247.533" y2="144.66305" gradientUnits="userSpaceOnUse"><stop offset="0" stop-color="#d54c3f"/><stop offset="0.28681" stop-color="#9b352c"/><stop offset="1" stop-color="#d54c3f"/></linearGradient><linearGradient id="linear-gradient-2" x1="132.55811" y1="171.79687" x2="132.55811" y2="128.99185" gradientUnits="userSpaceOnUse"><stop offset="0.15725"/><stop offset="0.91585" stop-color="#7d7d7c"/></linearGradient><linearGradient id="linear-gradient-3" x1="78.95157" y1="171.79687" x2="78.95157" y2="128.99185" xlink:href="#linear-gradient-2"/><linearGradient id="linear-gradient-4" x1="258.56368" y1="171.79687" x2="258.56368" y2="128.99185" xlink:href="#linear-gradient-2"/><linearGradient id="linear-gradient-5" x1="104.3292" y1="171.79687" x2="104.3292" y2="128.99185" xlink:href="#linear-gradient-2"/><linearGradient id="linear-gradient-6" x1="186.55318" y1="171.79687" x2="186.55318" y2="128.99185" xlink:href="#linear-gradient-2"/><linearGradient id="linear-gradient-7" x1="160.49445" y1="171.79687" x2="160.49445" y2="128.99185" xlink:href="#linear-gradient-2"/><linearGradient id="linear-gradient-8" x1="212.3496" y1="171.79687" x2="212.3496" y2="128.99185" xlink:href="#linear-gradient-2"/><linearGradient id="linear-gradient-9" x1="236.36574" y1="171.79687" x2="236.36574" y2="128.99185" xlink:href="#linear-gradient-2"/></defs><path d="M247.533,140.60578c-2.24419-.33379-4.48765-.67256-6.7328-.99981-1.87192-.27286-3.74573-.53259-5.61882-.79743-1.71563-.24257-3.4307-.48961-5.14738-.72472-1.764-.2416-3.52965-.47209-5.2948-.70569-1.60747-.21272-3.21449-.42909-4.82309-.63293q-2.83953-.35982-5.68147-.70063-2.62782-.32-5.25672-.63111c-1.516-.17758-3.033-.34654-4.54992-.51574q-2.41779-.26967-4.83643-.53156-2.49036-.26541-4.98239-.51523-2.23046-.22724-4.46175-.44637-2.184-.21089-4.3696-.40589-2.589-.23372-5.1789-.45721c-1.29907-.11051-2.59906-.21014-3.89892-.311q-2.92462-.22706-5.84973-.44816-1.54587-.11573-3.093-.214c-2.45918-.15694-4.91821-.31691-7.37818-.46057-1.66651-.09732-3.33426-.17422-5.0019-.25089-2.19154-.10077-4.38316-.20147-6.57539-.28518-2.00178-.07643-4.005-.11572-6.00646-.19914-1.28751-.05366-2.57562-.04753-3.86288-.09-2.4808-.08188-4.96314-.05451-7.44405-.10409-1.68673-.0337-3.37294-.03193-5.059-.02371q-3.60267.01755-7.205.09841c-2.13.04423-4.26037.09832-6.38883.18883-2.79526.11886-5.59123.23072-8.38267.42809-1.99829.1413-3.99841.25971-5.995.42222-1.88567.15349-3.769.339-5.651.533-1.81855.18753-3.6371.3808-5.4502.61386q-3.07368.39509-6.13708.86918-3.887.60148-7.73892,1.4041a98.23865,98.23865,0,0,0-14.66621,4.10288,42.68077,42.68077,0,0,0-7.4294,3.54439,18.07426,18.07426,0,0,0-3.72985,2.952,9.11907,9.11907,0,0,0-1.27539,1.72,5.40438,5.40438,0,0,0-.33412,4.42808,9.06454,9.06454,0,0,0,2.82168,4.1706,19.82031,19.82031,0,0,0,4.86339,3.06651,41.55641,41.55641,0,0,0,9.69682,2.96705.72423.72423,0,0,1-.46819.117c-1.54093.07126-3.08188.14166-4.62485.14884-.636.003-1.27324.03808-1.90734.02925-2.51176-.035-5.02391-.04835-7.53332-.21116-1.92075-.12463-3.8385-.27109-5.74809-.50762a46.42337,46.42337,0,0,1-10.6706-2.38927,16.40936,16.40936,0,0,1-4.85828-2.68576,7.91583,7.91583,0,0,1-2.15349-2.70181,5.00891,5.00891,0,0,1-.1177-3.93978,9.49867,9.49867,0,0,1,1.75319-2.93052,20.67487,20.67487,0,0,1,4.17984-3.67524,47.13871,47.13871,0,0,1,8.61611-4.57528,100.2901,100.2901,0,0,1,14.85922-4.78c4.21285-1.04073,8.465-1.88654,12.74615-2.59434q4.63482-.76628,9.297-1.33625c2.33582-.2872,4.67537-.53579,7.01746-.76543,2.94361-.28861,5.89194-.51751,8.8424-.717,1.93506-.13085,3.87294-.22113,5.81-.32085,2.69947-.139,5.40047-.23286,8.10275-.30505,1.5265-.04078,3.05338-.04553,4.57925-.09028,3.54792-.10406,7.09635-.05872,10.64439-.05249,2.465.00432,4.93012.06332,7.39471.11863q3.17122.07118,6.3413.19132c3.12945.119,6.25843.25035,9.38574.42026,2.63526.14318,5.27036.28638,7.90312.47163,2.06191.14509,4.12588.26252,6.18677.42034,2.55245.19546,5.1031.41492,7.65373.63338,2.26554.194,4.531.39013,6.79459.60523,2.07354.19705,4.14487.41766,6.21657.63354,2.19823.22906,4.39686.455,6.59329.70045,2.054.22952,4.10556.4807,6.15774.72625,1.94181.23235,3.88435.45932,5.82413.70769,2.30224.29478,4.6022.60733,6.90249.91693,2.18991.29474,4.38039.58575,6.568.89648,2.28209.32415,4.56169.666,6.84131,1.00728,2.38925.35766,4.77848.71582,7.16542,1.08853q3.39172.52964,6.77855,1.0907,4.14045.68115,8.27752,1.38281c1.76957.30121,3.53533.62466,5.30276.93832q.72123.128,1.44229.257Z" fill="url(#linear-gradient)"/><path d="M120.03292,146.59356a.48919.48919,0,0,1,.4293-.037l12.15189,14.13589,12.03061-14.12451a.44065.44065,0,0,1,.43857.02569v25.61121h-3.749c-.102-.08685-.051-.22351-.051-.343q.00226-6.68025.01537-13.36047c.00266-.82533.0678-1.65043.10192-2.47573.00588-.14249.00082-.28543.00082-.55167-.57661.807-1.06656,1.5539-1.63187,2.2427-.57509.70071-1.15652,1.39623-1.73557,2.09369q-.88386,1.06458-1.76834,2.12867-.868,1.04672-1.73423,2.09491c-.578.69732-1.15686,1.39388-1.72352,2.0765a1.07292,1.07292,0,0,1-.52761.01078c-.80652-.97137-1.62916-1.96067-2.45018-2.9513q-1.9943-2.40627-3.98652-4.81423c-.6086-.736-1.16161-1.51354-1.707-2.2966a3.86067,3.86067,0,0,0-.38258-.48688c.16337,5.54032.02118,11.07351.08654,16.63481h-3.80759Z" fill="url(#linear-gradient-2)"/><path d="M89.05064,172.21876H85.05105v-8.17509H72.83158v8.16645H68.8525V146.83995a32.18642,32.18642,0,0,1,3.93513-.01545V160.433H85.043V146.80815h3.95738C89.04287,155.25657,89.041,163.71148,89.05064,172.21876Z" fill="url(#linear-gradient-3)"/><path d="M250.195,146.78946h16.13547v3.4252H254.25035c-.1071.376-.12626,8.931-.03,9.89149h10.74085v3.42532H254.21038v5.14543h12.61049a19.51157,19.51157,0,0,1,.07065,3.4993c-.34709.07372-16.03065.09619-16.69657.02221Z" fill="url(#linear-gradient-4)"/><path d="M98.56787,146.79259c0,.2138-.00038.38649.00006.55918q.02,7.82574.04021,15.65147A9.33963,9.33963,0,0,0,98.88,165.3154a4.442,4.442,0,0,0,3.63252,3.47959,8.54216,8.54216,0,0,0,3.87838-.05415,4.49894,4.49894,0,0,0,3.47714-3.64912,9.20377,9.20377,0,0,0,.20692-2.0351q.0159-7.82574.03816-15.65148c.00048-.189.00006-.378.00006-.599h3.84962c.08623.06743.0578.18624.0581.29291.01553,5.42394.0382,10.84787.03723,16.27181a10.33512,10.33512,0,0,1-.68339,3.82543,7.70913,7.70913,0,0,1-4.45666,4.51992,11.93641,11.93641,0,0,1-9.41849-.101,7.79282,7.79282,0,0,1-4.62445-5.75336,11.88662,11.88662,0,0,1-.27488-2.696q.02383-7.89731.0425-15.79463a1.80447,1.80447,0,0,1,.04153-.57862Z" fill="url(#linear-gradient-5)"/><path d="M198.02624,151.52128l-3.01673,2.16854c-.29713-.38591-.56839-.77739-.89476-1.12534a7.75361,7.75361,0,0,0-4.22283-2.34168,9.45875,9.45875,0,0,0-5.5269.44609,8.28951,8.28951,0,0,0-4.73164,4.71818,10.27539,10.27539,0,0,0,.32116,8.85535,8.29624,8.29624,0,0,0,6.57979,4.63848,9.05656,9.05656,0,0,0,5.51488-.8631,8.75221,8.75221,0,0,0,3.0233-2.64486c.07578-.10186.14925-.2055.22772-.30522a.4886.4886,0,0,1,.1088-.0684l2.97363,2.08618c.0158.18569-.103.28606-.18141.39639a11.58836,11.58836,0,0,1-7.54291,4.84151,13.55458,13.55458,0,0,1-8.56307-.99428,12.33287,12.33287,0,0,1-7.07608-9.08217,13.114,13.114,0,0,1,.883-8.25108,12.36854,12.36854,0,0,1,8.71851-7.128,14.23206,14.23206,0,0,1,7.124.10715A10.64233,10.64233,0,0,1,198.02624,151.52128Z" fill="url(#linear-gradient-6)"/><path d="M161.64535,148.99485c.45268,1.01386.9128,2.02447,1.35681,3.04211q4.27554,9.79926,8.54468,19.6013c.07506.17225.14212.348.22957.563h-4.16832c-.46754-1.14242-.95156-2.3251-1.43659-3.51029H154.54178l-1.43786,3.52582h-3.89143q5.4808-12.86847,10.9149-25.62734a.57073.57073,0,0,1,.46353-.03788c.349.79433.73932,1.60588,1.05772,2.4499Zm-1.29563,4.81327c-1.20015,3.93308-3.00435,7.5976-4.3895,11.43772h8.69521a.63066.63066,0,0,0-.09645-.38093c-.44962-1.13593-.91355-2.26623-1.35815-3.40409-.79683-2.0393-1.68881-4.04191-2.37228-6.12491C160.66219,154.82886,160.509,154.3175,160.34972,153.80812Z" fill="url(#linear-gradient-7)"/><path d="M214.57541,172.21288h-4.01159V164.2084c-3.21816-5.82811-6.40944-11.60751-9.622-17.42546h4.27826c.11991.04942.159.17887.21873.28649q2.86538,5.16637,5.72464,10.33616a20.725,20.725,0,0,1,1.1902,2.75271c.07254.19295.1433.38656.2145.57881a.17326.17326,0,0,0,.12665-.12788,37.448,37.448,0,0,1,2.69369-5.72587c1.40046-2.58252,2.78028-5.17619,4.16982-7.76461.05979-.11139.12867-.21792.19554-.33049h4.00352c-.25814.4926-.49562.95462-.74089,1.41247q-4.11719,7.68551-8.23992,15.368a1.725,1.725,0,0,0-.21209.85878c.01154,2.41694.00907,4.83394.01092,7.25092C214.57552,171.84943,214.57541,172.02039,214.57541,172.21288Z" fill="url(#linear-gradient-8)"/><path d="M234.4151,150.24966h-7.45719a20.229,20.229,0,0,1-.023-3.45394h18.92369v3.45134h-7.5101V172.2049H234.4151Z" fill="url(#linear-gradient-9)"/><path d="M268.66791,149.5749a3.12423,3.12423,0,0,1,3.2094-3.13156,3.16259,3.16259,0,1,1-3.2094,3.13156Zm5.858.03465a2.70778,2.70778,0,0,0-5.41554-.0114,2.70778,2.70778,0,1,0,5.41554.0114Z"/><polygon points="161.645 148.995 161.649 149.002 161.66 148.993 161.645 148.995"/><path d="M272.26561,149.65244a5.40177,5.40177,0,0,1,.86967,1.7865.75944.75944,0,0,1-.54688.06656c-.21036-.35953-.308-.76392-.48042-1.13523-.22158-.47723-.40729-.569-1.02682-.49276v1.57685a.61528.61528,0,0,1-.49775.0378,18.71613,18.71613,0,0,1,.04461-3.80337,5.81825,5.81825,0,0,1,1.40724.01756.93869.93869,0,0,1,.83584.74129.99991.99991,0,0,1-.41726,1.08012C272.394,149.57236,272.32928,149.61052,272.26561,149.65244Zm-1.15134-1.48355a5.86988,5.86988,0,0,0-.01152,1.17173,1.99876,1.99876,0,0,0,.81637-.04264.56588.56588,0,0,0,.38459-.58826.52612.52612,0,0,0-.49609-.53611A6.51838,6.51838,0,0,0,271.11427,148.16889Z"/></svg>