<svg id="Layer_1" data-name="Layer 1" xmlns="http://www.w3.org/2000/svg" viewBox="0 0 300 300"><defs><style>.cls-1{fill:#9f036f;}.cls-2{fill:#ee057a;}.cls-3{fill:#d20479;}.cls-4{fill:#9e036f;}</style></defs><path class="cls-1" d="M37.36,132c0-11.77,0-23.54,0-35.31,0-9.37,5.26-15.12,13.54-15.13s13.58,5.91,13.6,15.14q0,35.79,0,71.57c0,8.91-5.38,14.8-13.36,14.89-8.32.11-13.72-5.65-13.77-14.9C37.31,156.13,37.36,144.05,37.36,132Z"/><path class="cls-2" d="M230.91,167.26c0,12.24,0,24.49,0,36.74,0,8.7-5.24,14.36-13.14,14.47-8.09.13-13.87-5.7-13.89-14.36q-.12-36.51,0-73c0-8.62,5.92-14.72,13.78-14.61s13.22,6,13.26,14.5C231,143.08,230.91,155.17,230.91,167.26Z"/><path class="cls-3" d="M104.6,149.59c0-6.05-.07-12.09,0-18.13.12-8.79,5.59-14.81,13.46-15s13.67,5.9,13.76,14.6q.21,18.84,0,37.68c-.1,8.8-5.75,14.47-13.87,14.34-7.78-.11-13.19-5.9-13.34-14.46C104.51,162.31,104.6,156,104.6,149.59Z"/><path class="cls-3" d="M168.54,150c0-6.36-.09-12.72,0-19.07.14-8.45,5.69-14.37,13.38-14.45,7.88-.09,13.68,6,13.74,14.63q.12,18.84,0,37.68c-.07,8.44-5.64,14.25-13.45,14.31-8,.07-13.46-5.47-13.66-14C168.42,162.74,168.54,156.38,168.54,150Z"/><path class="cls-4" d="M69.44,149.65c0-6.52-.1-13,0-19.56.16-7.74,5.78-13.41,13.21-13.58a13.47,13.47,0,0,1,13.8,13.57q.26,19.78,0,39.59a13.26,13.26,0,0,1-13.79,13.45c-7.53-.08-13.07-5.61-13.22-13.44C69.34,163,69.44,156.32,69.44,149.65Z"/><path class="cls-3" d="M163.42,156.72c0,4.46.12,8.92,0,13.37-.24,7.37-5.56,12.75-12.65,13-7.44.29-13.78-4.59-14.16-12a266.31,266.31,0,0,1,0-29.09c.43-7.4,7-12.33,14.31-11.85s12.29,5.79,12.49,13.2C163.53,147.81,163.43,152.27,163.42,156.72Z"/><path class="cls-2" d="M262.62,156.71c0,4.46.1,8.92,0,13.37a13,13,0,0,1-13.13,13c-7.37.11-13.5-5.09-13.78-12.47-.34-9.37-.36-18.78,0-28.16.29-7.35,6.55-12.53,13.91-12.33a13,13,0,0,1,13,13.19C262.71,147.8,262.62,152.26,262.62,156.71Z"/></svg>