<svg id="Layer_1" data-name="Layer 1" xmlns="http://www.w3.org/2000/svg" viewBox="0 0 300 300"><title>IBIO_Mark_Light</title><path d="M146.44821,164.24309a44.68855,44.68855,0,0,0-11.482-5.90471c.608-.35078,1.16925-.63139,1.77727-.97048,4.85238-2.98159,8.76937-6.81673,10.418-12.33559,3.23882-10.80387-.38586-22.56652-13.61007-27.17336a55.35238,55.35238,0,0,0-18.21691-2.66589H45.62382v13.28267h66.31984a73.83861,73.83861,0,0,1,10.89741.57294c7.44812,1.0991,11.8211,4.25607,12.27711,12.04328.35078,6.02162-2.46712,9.44754-8.4303,10.19585a91.86965,91.86965,0,0,1-10.75709.4677h-70.342v52.967h77.568a50.27778,50.27778,0,0,0,18.0883-3.27388C157.76654,195.09961,159.193,173.84264,146.44821,164.24309Zm-9.63462,24.99857a7.64683,7.64683,0,0,1-1.52.65477,26.89246,26.89246,0,0,1-8.48874,1.42649c-14.12454.32739-28.23739.1403-42.36192.1403H58.75449V164.95634H121.438a39.36807,39.36807,0,0,1,12.12512,1.52c5.97486,1.96433,8.11459,6.40749,7.99766,12.12512a23.4661,23.4661,0,0,1-.59631,5.10961,8.34853,8.34853,0,0,1-3.13358,4.89916,7.015,7.015,0,0,1-.98218.63141Z" fill="#12223a"/><path d="M280.91192,169.46964a30.1666,30.1666,0,0,0-4.88745-15.96025c-4.677-7.0155-11.6925-10.7688-19.66679-12.86175a75.44024,75.44024,0,0,0-24.00469-2.0345,63.81819,63.81819,0,0,0-19.8071,3.99883c-6.64132,2.6425-12.48757,6.46595-16.36949,12.63959-6.197,9.84508-6.197,20.2631-1.52,30.56419,4.01052,8.8746,11.27157,14.65069,20.228,18.15844a60.53221,60.53221,0,0,0,22.98746,3.98715h2.72435c7.834-.36247,15.45748-1.73049,22.473-5.39025a32.43486,32.43486,0,0,0,14.13624-14.183A37.17036,37.17036,0,0,0,280.91192,169.46964ZM266.48339,178.999c-2.28,7.30781-7.7989,11.28325-14.67409,13.727a43.26184,43.26184,0,0,1-14.39346,2.08127c-6.5361-.12862-13.16574-.81847-19.468-3.50775-10.52325-4.5367-14.83778-14.031-12.68637-24.55424,1.74219-8.51214,7.51827-13.28268,15.41072-15.91349a53.97232,53.97232,0,0,1,23.79422-1.99941c6.94535.85355,13.50484,3.005,18.18184,8.60568,5.40193,6.36072,6.27886,13.73868,3.83514,21.561Z" fill="#12223a"/><path d="M161.51984,144.96218c-4.829-5.65917-7.717-11.77436-7.869-18.90677-.26893-12.42912,5.84624-21.36219,15.92517-27.92168a39.7546,39.7546,0,0,1,20.32156-6.10348,40.35117,40.35117,0,0,1,9.28385.912c4.73546,1.53172,4.10406,1.28618,5.44871,2.432-6.27887,4.24438-7.55336,10.52325-7.88075,17.28151-.23385,4.677-.08186,9.28385-.68985,13.91407a17.73751,17.73751,0,0,1-11.026,14.82608c-6.32564,2.80619-13.06051,3.62468-20.18124,3.68313a82.46776,82.46776,0,0,1,5.16808-22.21574c2.98159-7.35458,8.55892-12.47589,14.45193-17.39843a22.37927,22.37927,0,0,0-10.64018,5.46039c-5.9164,5.21485-9.10845,11.94973-10.82725,19.51477A81.84853,81.84853,0,0,0,161.51984,144.96218Z" fill="#37c80e"/><path d="M32.0956,204.66406H19V151.80228H32.0956Z" fill="#12223a"/><path d="M164.95744,151.814h13.13067v52.85008H164.95744Z" fill="#12223a"/><path d="M32.10729,128.38221H19V115.31H32.10729Z" fill="#12223a"/><path d="M141.61921,178.5664a23.46681,23.46681,0,0,1-.59631,5.10962,8.30175,8.30175,0,0,1-3.192,4.93423,8.34853,8.34853,0,0,0,3.13358-4.89916,23.4661,23.4661,0,0,0,.59631-5.10961c.11693-5.71763-2.0228-10.16079-7.99766-12.12512a39.36817,39.36817,0,0,0-12.12513-1.52h.05848a39.368,39.368,0,0,1,12.12511,1.52C139.59641,168.40564,141.77121,172.84877,141.61921,178.5664Z" fill="#12223a"/></svg>