<svg id="Layer_1" data-name="Layer 1" xmlns="http://www.w3.org/2000/svg" viewBox="0 0 300 300"><defs><style>.cls-1{fill:#1b5877;}.cls-2{fill:#131313;}.cls-3{fill:#e72f28;}.cls-4{fill:#ec4f25;}.cls-5{fill:#f17326;}.cls-6{fill:#f39823;}.cls-7{fill:#f6ba1e;}.cls-8{fill:#f8c827;}.cls-9{fill:#f8d128;}.cls-10{fill:#4092cf;}.cls-11{fill:#39b0cc;}.cls-12{fill:#72c08e;}.cls-13{fill:#a6cb51;}.cls-14{fill:#ccd93b;}.cls-15{fill:#e7e52e;}</style></defs><path class="cls-1" d="M41.42,175.88c2.1,0,3.44.83,3.44,2.54a2.2,2.2,0,0,1-1.57,2.21,2.52,2.52,0,0,1,2,2.51c0,2.29-2.23,2.78-3.82,2.78H37.17v-10Zm-.17,1.42H38.81V180l2.67,0c.94,0,1.72-.41,1.72-1.38s-.75-1.38-2-1.38Zm.27,4.13h-2.7v3.06h2.47c1.12,0,2.31-.13,2.31-1.52S42.42,181.43,41.52,181.43Z"/><path class="cls-1" d="M53.93,175.88v10H52.29v-10Z"/><path class="cls-1" d="M66.18,175.7a5.2,5.2,0,1,1-5.28,5.2A5,5,0,0,1,66.18,175.7Zm0,1.54a3.67,3.67,0,1,0,3.61,3.66,3.45,3.45,0,0,0-3.61-3.66Z"/><path class="cls-1" d="M81.38,175.7a6.56,6.56,0,0,1,3.14.76V178a5.44,5.44,0,0,0-3-.84c-1.22,0-2,.36-2,1.22,0,2.17,5.74,1.29,5.74,4.88,0,2.11-1.8,2.84-3.81,2.83a7.28,7.28,0,0,1-3.56-.88v-1.61a6.38,6.38,0,0,0,3.45,1c1.29,0,2.25-.3,2.25-1.25,0-2.32-5.74-1.38-5.74-4.94C77.85,176.58,79.49,175.7,81.38,175.7Z"/><path class="cls-1" d="M96.78,175.7a6.57,6.57,0,0,1,2.85.65V178A4.66,4.66,0,0,0,97,177.2,3.67,3.67,0,0,0,93.11,181c0,2.47,2,3.61,4,3.61a4.33,4.33,0,0,0,2.62-.77v1.62a6.66,6.66,0,0,1-2.91.66,5.21,5.21,0,1,1,0-10.41Z"/><path class="cls-1" d="M108.35,175.88v10h-1.64v-10Z"/><path class="cls-1" d="M122.81,175.88v1.49h-5.28v2.74h4.85v1.49h-4.85v2.84h5.37v1.49h-7V175.88Z"/><path class="cls-1" d="M129.92,185.92v-10h1.54l5.41,7.35c0-.35,0-.74,0-1.11v-6.24h1.64v10H137l-5.41-7.34c0,.34,0,.73,0,1.09v6.25Z"/><path class="cls-1" d="M150.81,175.7a6.41,6.41,0,0,1,2.85.66V178a4.54,4.54,0,0,0-2.58-.74,3.67,3.67,0,0,0-3.93,3.79c0,2.46,2,3.61,3.95,3.61a4.36,4.36,0,0,0,2.63-.77v1.62a6.72,6.72,0,0,1-2.92.64,5.2,5.2,0,1,1,0-10.4Z"/><path class="cls-1" d="M167.63,175.88v1.49h-5.28v2.74h4.85v1.49h-4.85v2.84h5.37v1.49h-7V175.88Z"/><path class="cls-1" d="M177.7,175.7a6.62,6.62,0,0,1,3.14.76V178a5.44,5.44,0,0,0-3-.84c-1.22,0-2,.36-2,1.22,0,2.17,5.74,1.29,5.74,4.88,0,2.11-1.79,2.84-3.8,2.83a7.15,7.15,0,0,1-3.56-.88v-1.61a6.38,6.38,0,0,0,3.45,1c1.29,0,2.25-.3,2.25-1.25,0-2.32-5.74-1.38-5.74-4.94C174.17,176.58,175.8,175.7,177.7,175.7Z"/><path class="cls-2" d="M45.21,116.85V166.2h-8V116.85Z"/><path class="cls-2" d="M72.6,116.85c17.48,0,25.94,10.37,25.94,24.68S90.09,166.2,72.6,166.2H55.34V116.85Zm-.07,7.33H63.37v34.69h9.16c11.7,0,17.84-6.28,17.84-17.34s-6.14-17.35-17.84-17.35Z"/><path class="cls-2" d="M139.08,116.85v7.33H112.71v13.47h26.37V145H112.71v13.89h26.37v7.33h-34.4V116.85Z"/><path class="cls-2" d="M142.24,166.2l20.87-49.35h8.81l20.8,49.35h-8.47l-4.37-10.65H155.14l-4.37,10.65Zm15.64-17.69h19.18l-8.67-21.08c-.28-.77-.56-1.55-.91-2.74-.36,1.19-.63,2-.92,2.74Z"/><path class="cls-2" d="M212.34,166.2l20.87-49.35H242l20.81,49.35h-8.46L250,155.55H225.25l-4.37,10.65ZM228,148.51h19.18l-8.67-21.08c-.29-.77-.57-1.55-.92-2.74-.35,1.19-.63,2-.92,2.74Z"/><path class="cls-2" d="M209.87,171.59s7.25.86,11.17,9.65c5.73,12.83,2.33,24.32-2,28.68C219.48,188.71,214.08,179.06,209.87,171.59Z"/><path class="cls-2" d="M211,77.92a53.47,53.47,0,0,1,4.45,10.61c6,21.64-1.41,38-10.5,59.68-9.84,23.51-20.39,43-17.41,58.3,1.85,9.57,6.54,14.78,11.58,15.57a30.36,30.36,0,0,1-5.3-17.83c0-14.35,10.79-35.62,17.42-51.19,6.15-14.46,17.5-38,12.18-59.18C221,84.41,215.06,78.75,211,77.92Z"/><path class="cls-2" d="M197.89,154.16c-13.37-32-18.06-44.73-11.69-56,1.31,17.78,9.77,31,13.23,39.84A17.18,17.18,0,0,1,197.89,154.16Z"/><path class="cls-3" d="M207.12,90.64h4a1.59,1.59,0,0,1,0,3.17h-4a1.59,1.59,0,1,1-.12-3.17Z"/><path class="cls-4" d="M201.34,97.15H212a1.59,1.59,0,0,1,0,3.17h-10.7a1.59,1.59,0,0,1,0-3.17Z"/><path class="cls-5" d="M195.22,103.66h17.21a1.59,1.59,0,0,1,.11,3.17H195.22a1.59,1.59,0,1,1-.11-3.17Z"/><path class="cls-6" d="M193.59,110.17h17.85a1.58,1.58,0,0,1,0,3.16H193.59a1.58,1.58,0,0,1,0-3.16Z"/><path class="cls-7" d="M194.55,118.28a1.6,1.6,0,0,1,1.58-1.59h13.48a1.59,1.59,0,0,1,0,3.17H196.13A1.58,1.58,0,0,1,194.55,118.28Z"/><path class="cls-8" d="M197.63,124.78a1.59,1.59,0,0,1,1.59-1.58h8.13a1.59,1.59,0,0,1,0,3.17h-8.13a1.59,1.59,0,0,1-1.59-1.58Z"/><path class="cls-9" d="M200.76,131.3a1.59,1.59,0,0,1,1.58-1.59h2.06a1.59,1.59,0,0,1,0,3.17h-2.06a1.58,1.58,0,0,1-1.58-1.58Z"/><path class="cls-10" d="M199.54,208.25h3.54a1.51,1.51,0,0,1,0,3h-3.54a1.51,1.51,0,1,1,0-3Z"/><path class="cls-11" d="M198.87,202.05h9.38a1.51,1.51,0,0,1,0,3h-9.38a1.51,1.51,0,0,1,0-3Z"/><path class="cls-12" d="M214,197.37a1.51,1.51,0,0,1-1.51,1.5H199.39a1.51,1.51,0,0,1-.11-3h13.2A1.51,1.51,0,0,1,214,197.37Z"/><path class="cls-13" d="M212.62,191.17a1.51,1.51,0,0,1-1.5,1.51h-10a1.51,1.51,0,0,1-.11-3h10.14A1.51,1.51,0,0,1,212.62,191.17Z"/><path class="cls-14" d="M209.37,186.48h-6a1.51,1.51,0,1,1-.11-3h6.14a1.51,1.51,0,0,1,0,3Z"/><path class="cls-15" d="M206.34,177.27h1a1.51,1.51,0,1,1,0,3h-1a1.51,1.51,0,0,1,0-3Z"/></svg>