<svg id="Layer_1" data-name="Layer 1" xmlns="http://www.w3.org/2000/svg" viewBox="0 0 300 300"><path d="M134,159.89s82.24,58.23,64.17,56.93l-6.16,0-32.09-12.69-40.43-41.68Z" fill="#afafc9"/><path d="M160.09,146.32s82.45,5.3,89.91,18.33c0,0-3.14,6.29-19.77,6.47L172.91,158Z" fill="#afafc9"/><path d="M189.72,117.38s45.27-8.26,53.54,1.18c0,0,.09,7.54-19,9.34l-31.72-4.85Z" fill="#afafc9"/><path d="M176.73,97.13s20.6-13.22,30-11.87c0,0,6.23,1.41-5.53,7.85l-20.91,8Z" fill="#afafc9"/><path d="M87.49,120.85s-14.34,32,16.94,84.2c0,0,8.58,15.71-15.75,3L74.33,192.68l-5.22-54L80,121.59Z" fill="#ffb9c4"/><path d="M198.13,216.82s-14.57,3.85-40.83-30.1-37-39.16-50.62-41.2c0,0-6.12,51,73.37,70C180.05,215.53,191.26,218.3,198.13,216.82Z" fill="#09097f"/><path d="M134,150s60.72,50.45,112.61,17.47c0,0-16.94.91-54.59-13.69C192,153.8,163.87,139.75,134,150Z" fill="#09097f"/><path d="M157.38,135.42s9.19,8.47,31.35,4.51c0,0,41.44-.54,53.88-19.46,0,0-7,5.58-29.73-2C212.88,118.48,184.05,108,157.38,135.42Z" fill="#09097f"/><path d="M157.38,117.84s20.62-2.9,24.9-6.49A81.15,81.15,0,0,0,208,88a33.8,33.8,0,0,1-15.88,5.11s-12.43,1.38-15.88,4.42C176.2,97.54,156.1,112.73,157.38,117.84Z" fill="#09097f"/><path d="M88.68,208.06c-2.59-.72-4.74-2.29-6.91-3.74A69.58,69.58,0,0,1,55,171.3a72,72,0,0,1-4.43-17.42,70.45,70.45,0,0,1,13-50.4c5.54-7.56,12.73-13.26,20.69-18,1.35-.81,2.89-1.33,4.33-2a4.26,4.26,0,0,1,2.94-.59,35.88,35.88,0,0,1,2.86,7.25,32.23,32.23,0,0,1,1.84,8.69c.3,6-1.85,11.22-4.94,16.19-1.24,2-3,3.67-3.84,5.9-.68.33-.93,1-1.29,1.59a62.18,62.18,0,0,0-7.34,17.27,77.22,77.22,0,0,0-2.81,17.72c-.07,2.63-.81,5.25-.38,7.85a56,56,0,0,1,.37,6.83,69.18,69.18,0,0,0,1,8,69,69,0,0,0,2.65,11c1.91,5.82,4.66,12.39,9,16.91Z" fill="#d52130"/></svg>