<svg id="Layer_1" data-name="Layer 1" xmlns="http://www.w3.org/2000/svg" viewBox="0 0 300 300"><path d="M253.90186,120.65c1.58144.68693,3.06551,1.70343,4.67339,1.96709,7.93482,1.30114,13.17369,5.78149,15.47226,13.33069,2.33229,7.65993.27582,14.50076-5.01318,20.42631a26.66814,26.66814,0,0,1-11.97118,7.47963q-16.4394,5.36707-32.89224,10.69306c-1.35095.43977-2.683.93727-4.43649,1.55288.68206,1.18305,1.145,2.17886,1.77707,3.05278,6.76264,9.35109,13.58351,18.66031,20.32365,28.02747,5.03575,6.99843,7.30973,14.68762,5.14071,23.259a18.80282,18.80282,0,0,1-25.86327,12.77893c-1.70411-.71705-3.46427-1.30123-4.75858-1.78307-2.34788.56724-3.224,1.76324-3.25474,3.55506a33.16458,33.16458,0,0,0,.12341,4.3225c1.28143,11.21341-9.04841,22.91325-23.45363,20.1516A24.4,24.4,0,0,1,174.3703,259.764c-7.03952-9.5068-13.95559-19.10473-20.933-28.65747-1.004-1.37459-2.06314-2.709-3.27126-4.29044-.82077.95882-1.51121,1.66244-2.08453,2.451q-9.54441,13.127-19.04872,26.28291c-3.23684,4.49765-6.8566,8.57269-11.867,11.16033a23.37767,23.37767,0,0,1-15.45905,2.54927c-8.56968-1.59866-16.66949-10.97636-14.70609-21.28134.49518-2.59906.34276-4.86-2.65816-6.53265a48.08422,48.08422,0,0,0-4.57524,1.54771c-7.11765,3.16175-13.90108,2.49281-20.00815-2.19633-6.56393-5.03991-8.53305-12.08091-7.47223-20.048a28.14,28.14,0,0,1,5.56321-12.97q10.102-13.79335,20.09828-27.66384c.81929-1.13065,1.56833-2.31206,2.6053-3.84827-3.59792-1.2063-6.83264-2.31469-10.0828-3.376-9.04521-2.95354-18.15851-5.71315-27.12853-8.87831-8.92546-3.14943-15.511-8.87245-17.83154-18.44827A18.62742,18.62742,0,0,1,38.75526,123.407c2.55355-.71825,5.57446-.5921,7.1649-3.41139.615-2.5832-1.288-3.94668-2.67136-5.54954-6.17819-7.15852-6.858-17.064-1.5631-24.35989a20.99786,20.99786,0,0,1,17.07475-8.80249A32.55188,32.55188,0,0,1,68.97151,82.6272c10.63244,3.17963,21.15786,6.71572,31.72958,10.09866,1.88943.60463,3.80338,1.13283,6.27282,1.8642.10646-1.9795.25075-3.49117.2591-5.00357.06611-11.97579-.05579-23.95541.2162-35.92623A25.00174,25.00174,0,0,1,115.5208,35.576a18.89659,18.89659,0,0,1,29.70565,4.10418c1.92872,3.22882,1.92872,3.22882,4.83317,4.59674,2.73509-.3386,3.57177-2.68478,4.67067-4.6387a17.56991,17.56991,0,0,1,10.9063-8.62107c9.25862-2.617,18.298,1.16771,23.31189,9.65075a26.80909,26.80909,0,0,1,3.64894,14.04926c-.04175,11.54449-.01531,23.08924-.0165,34.63387-.00016,1.53858,0,3.07716,0,5.014a33.36423,33.36423,0,0,0,3.459-.67389q15.0216-4.86192,30.02438-9.78185c6.37387-2.08254,12.79651-3.568,19.53811-1.86231,7.33694,1.85632,12.912,5.86746,15.22248,13.283,2.04916,6.57681,1.194,12.82086-3.48292,18.24261C255.76407,115.40174,253.92857,117.12419,253.90186,120.65ZM241.767,108.63359c-1.73433-5.57476-4.31226-7.41078-9.83879-6.86792a22.53506,22.53506,0,0,0-4.621,1.05139c-7.549,2.42084-15.07589,4.91038-22.61525,7.36136-6.16516,2.00426-12.29884,4.11768-18.51728,5.942-5.40865,1.58677-9.873-1.066-11.23549-6.5039a21.51411,21.51411,0,0,1-.4842-5.129c-.03631-13.41915-.00829-26.83848-.03119-40.25769a28.01918,28.01918,0,0,0-.32027-5.171c-.70681-3.70833-3.91144-6.57929-7.0468-6.56077-3.26111.01927-6.21113,2.7522-6.89354,6.64287a36.05486,36.05486,0,0,0-.46444,6.02406c-.0465,9.23456-.01737,18.46948-.02437,27.70427a25.68623,25.68623,0,0,1-.10475,3.45541c-.44884,3.2735-2.35708,5.21026-5.65407,5.52309a43.1108,43.1108,0,0,1-6.47732.05512,5.6143,5.6143,0,0,1-5.46281-4.70271,18.65137,18.65137,0,0,1-.4562-4.26521c-.03906-9.52323-.00518-19.04674-.03787-28.57a24.23464,24.23464,0,0,0-.36608-5.1631c-.83752-3.74915-4.241-6.6501-7.54382-6.71386-3.372-.0651-6.65755,2.63544-7.66121,6.51753a17.64889,17.64889,0,0,0-.382,4.28471q-.11141,20.7762-.16724,41.55272a25.91323,25.91323,0,0,1-.13981,3.88518c-.8898,5.67885-5.35156,8.79868-10.95667,7.5983a63.05311,63.05311,0,0,1-6.20934-1.88c-11.92865-3.87766-23.82963-7.84272-35.797-11.59676a19.74656,19.74656,0,0,0-7.62148-.97618,6.31275,6.31275,0,0,0-4.18516,10.64593,12.8023,12.8023,0,0,0,4.55417,3.1344c2.49814,1.096,5.16914,1.80255,7.77425,2.65138,7.948,2.58969,15.8703,5.26357,23.861,7.71483,4.70166,1.4423,5.89679,5.28663,5.123,9.12839a19.68292,19.68292,0,0,1-1.63052,4.89977c-1.64441,3.27835-4.6994,4.55015-8.341,3.63493-1.6758-.42115-3.32012-.97443-4.96508-1.50957-8.2267-2.67621-16.43094-5.42339-24.68543-8.01085a21.47549,21.47549,0,0,0-6.34671-1.06692,7.87251,7.87251,0,0,0-7.19545,5.34622,7.1169,7.1169,0,0,0,2.55026,7.75491,13.99141,13.99141,0,0,0,4.46264,2.50145c6.95357,2.39094,13.95814,4.6342,20.94759,6.92074,7.25586,2.37372,14.54052,4.66268,21.7661,7.12476,6.18339,2.107,8.30935,8.533,4.74607,13.9839-.78839,1.206-1.65942,2.35884-2.50739,3.5253-7.80463,10.73585-15.65046,21.44222-23.38076,32.23115A18.65573,18.65573,0,0,0,74.35159,218.23a6.62432,6.62432,0,0,0,2.84229,7.55549c2.44235,1.53325,5.39251,1.36362,8.00884-.84523a28.483,28.483,0,0,0,4.329-4.78817c4.05217-5.43726,7.979-10.96745,11.98865-16.43657q3.19657-4.36008,6.51083-8.63379a5.94077,5.94077,0,0,1,6.12269-2.406,12.50942,12.50942,0,0,1,9.01778,6.76876c1.68394,3.30514-.11385,6.08079-2.06045,8.72566q-8.46331,11.49925-16.84286,23.05989a24.43855,24.43855,0,0,0-2.50445,4.03045c-1.59991,3.47225-.66209,7.76232,1.99886,9.86973,2.79362,2.2125,6.70075,2.03413,9.91717-.72436a27.072,27.072,0,0,0,3.97823-4.529c4.802-6.49607,9.53168-13.04545,14.28474-19.57754,3.39453-4.66506,6.75158-9.35771,10.18319-13.99538,4.53321-6.12644,11.12461-6.16167,15.87137-.12024.80153,1.02013,1.53488,2.09375,2.29808,3.14387,7.80137,10.73451,15.56745,21.495,23.44151,32.17607a17.01654,17.01654,0,0,0,4.33029,4.1297,6.52957,6.52957,0,0,0,8.037-.48874c2.36463-2.06074,3.03671-4.59444,1.71676-7.82166a25.99994,25.99994,0,0,0-2.96879-5.23143c-5.88562-8.20566-11.69949-16.47065-17.85707-24.47028a7.35952,7.35952,0,0,1,1.18249-10.68332c2.2491-1.81555,4.53275-3.60912,7.46168-3.81382a8.34132,8.34132,0,0,1,6.47454,3.96345c5.95379,8.32794,12.08254,16.531,18.06084,24.84168a11.57093,11.57093,0,0,0,6.43146,4.80123c2.69772.73451,5.20921.43086,7.18421-1.69046,1.99491-2.14267,2.92937-4.69,1.7677-7.54575a27.72582,27.72582,0,0,0-2.79228-5.31948c-3.11741-4.50655-6.38037-8.913-9.6033-13.34639-5.17448-7.118-10.428-14.17969-15.526-21.35166-4.45585-6.26845-2.44226-12.42076,4.80812-15.10913,1.48561-.55083,3.00123-1.02228,4.50914-1.51145q18.71952-6.07251,37.43818-12.14772c4.11386-1.34373,7.01917-3.87727,7.76428-8.25644-2.005-5.60488-5.20558-7.42178-10.66245-6.05118-1.95441.49088-3.86129,1.1745-5.7822,1.79385-8.64089,2.7861-17.287,5.55655-25.91335,8.38684-2.61774.85888-5.21452,1.12753-7.36068-.80917-3.23143-2.916-4.25708-6.80871-3.82983-11.00608.386-3.7923,3.32117-5.10381,6.53623-5.97372.69437-.18788,1.37872-.41446,2.063-.63749,8.77458-2.85985,17.53321-5.76966,26.32852-8.56446C238.07854,116.14689,240.9638,113.34106,241.767,108.63359Z" fill="#820d19"/></svg>