<svg id="Layer_1" data-name="Layer 1" xmlns="http://www.w3.org/2000/svg" viewBox="0 0 300 300"><path d="M30.2874,81.66708a17.52906,17.52906,0,0,0-3.31449.82468c-5.51181,2.28784-8.54191,5.3004-10.9584,10.89516a19.72529,19.72529,0,0,0-.77934,9.34807,18.07433,18.07433,0,0,0,13.43974,14.49526,13.52537,13.52537,0,0,0,4.479.47325,13.5016,13.5016,0,0,0,4.42755-.4677,18.17,18.17,0,0,0,3.8829-33.74093,14.691,14.691,0,0,0-5.2647-1.75684,21.95757,21.95757,0,0,0-5.91225-.07095Z" fill="#bbe1e1" fill-rule="evenodd"/><path d="M82.69125,124.40159a53.6975,53.6975,0,0,0-5.91225.89415c-.6405.14925-1.5273.35506-1.9707.45736a49.25657,49.25657,0,0,0-12.0933,4.90454c-1.0842.60916-4.8744,3.15315-5.37645,3.609-.19815.1797-.7626.6447-1.25415,1.03351a65.973,65.973,0,0,0-6.3711,6.44579l-.79349,1.061-.08955-9.0336-.08955-9.0336-15.5421-.0459-15.54192-.04574V194.3427H69.07516l.00015-12.67545c.00015-13.52056.00465-13.60185.90735-16.3443a18.42073,18.42073,0,0,1,5.9487-8.3304,18.90411,18.90411,0,0,1,6.27509-3.08415,11.89533,11.89533,0,0,1,4.4262-.47925,15.11783,15.11783,0,0,1,7.92991,1.77825,17.98068,17.98068,0,0,1,8.9211,10.47c.80115,2.4234.874,3.80759.88,16.7076l.0057,12.13891,14.915-.04575,14.91495-.04591.0999-13.3473c.10455-13.9566.07455-13.39605.848-15.85545a19.28538,19.28538,0,0,1,3.4188-5.8128,18.69815,18.69815,0,0,1,5.1345-4.1094c.2001-.0888.72405-.32835,1.16445-.5322a23.34242,23.34242,0,0,1,2.4129-.8493,12.18349,12.18349,0,0,1,4.479-.48524,12.33806,12.33806,0,0,1,4.74765.5361c7.19415,2.07675,11.85855,6.9414,13.43355,14.01165,1.64249,7.37835-2.199,15.46395-9.1509,19.2618a18.88066,18.88066,0,0,1-7.194,2.07615h-.67185v29.1735l2.10524-.08415a47.74239,47.74239,0,0,0,12.4065-2.32575,46.63,46.63,0,0,0,15.04951-8.42295,43.2948,43.2948,0,0,0,6.519-6.51615,48.43871,48.43871,0,0,0,5.2695-8.1189,5.6949,5.6949,0,0,1,.98549-1.6125c.0495.08055.447.83175.882,1.6692a47.80258,47.80258,0,0,0,15.7695,17.54385,46.74252,46.74252,0,0,0,13.125,6.06165c.3945.10425,1.15949.309,1.701.45495a49.28481,49.28481,0,0,0,4.9275.95235,62.83178,62.83178,0,0,0,12.63.0009,42.56777,42.56777,0,0,0,8.1525-1.912,32.63855,32.63855,0,0,0,5.931-2.3283,47.404,47.404,0,0,0,18.711-16.14149,46.72694,46.72694,0,0,0,7.611-20.48731c.0615-.5913.1545-1.25639.207-1.4781L285,175.352H254.928l-.31649,1.0302a18.77244,18.77244,0,0,1-5.01,7.87695,17.38173,17.38173,0,0,1-13.4085,4.36034,15.74713,15.74713,0,0,1-7.97551-2.94435,17.70389,17.70389,0,0,1-7.239-10.771,26.86888,26.86888,0,0,1,.003-7.07686,18.20676,18.20676,0,0,1,3.4875-7.25279c.18149-.19876.531-.61995.777-.9357a13.88728,13.88728,0,0,1,1.671-1.5786,17.28128,17.28128,0,0,1,18.7185-2.2149,12.74023,12.74023,0,0,1,2.91,1.8168,17.338,17.338,0,0,1,5.886,8.23935l.51151,1.3884H285l-.096-.40305c-.0525-.2217-.1455-.8868-.207-1.4781a51.6015,51.6015,0,0,0-1.7265-8.1345,74.60609,74.60609,0,0,0-2.898-7.0896,50.67474,50.67474,0,0,0-4.785-7.61866c-.04949-.0492-.45-.53295-.891-1.07489a47.47122,47.47122,0,0,0-7.899-7.6131c-.7335-.5445-1.4145-1.0539-1.512-1.1322-.099-.0783-.744-.506-1.434-.95025A47.29626,47.29626,0,0,0,245.445,124.85a50.90308,50.90308,0,0,0-17.187.4383c-2.33549.5226-2.86349.65789-4.3005,1.09949a39.63565,39.63565,0,0,0-6.5385,2.61946,47.30962,47.30962,0,0,0-19.629,17.769c-.549.87106-1.101,1.87531-1.8975,3.4491a11.38507,11.38507,0,0,1-.7905,1.43325c-.021-.0249-.462-.8514-.978-1.83675a21.67726,21.67726,0,0,0-1.185-2.0745,1.06222,1.06222,0,0,1-.2445-.39689,22.72687,22.72687,0,0,0-1.29-1.95661,47.97958,47.97958,0,0,0-18.984-16.42455,47.9232,47.9232,0,0,0-51.59895,6.7293c-.85425.7224-1.58775,1.3134-1.62991,1.3134a9.52793,9.52793,0,0,1-1.475-1.22954c-.29565-.267-1.02119-.84555-1.6125-1.2852-.59114-.4398-1.18905-.90795-1.32855-1.04055a52.74746,52.74746,0,0,0-8.43555-4.94,48.179,48.179,0,0,0-7.88294-2.76315c-.4434-.10215-1.2093-.27794-1.702-.3906a38.75465,38.75465,0,0,0-9.0474-.969c-2.21715-.03436-4.4745-.0309-5.01645.00764Z" fill="#bbe1e1" fill-rule="evenodd"/></svg>