<svg id="Layer_1" data-name="Layer 1" xmlns="http://www.w3.org/2000/svg" viewBox="0 0 300 300"><defs><style>.cls-1{fill:#ea1e26;}.cls-2{fill:#e92028;}</style></defs><path class="cls-1" d="M139.9,103.85c8.15-27.56,8.57-54.77,2.19-83.06,50-.73,89.13,17.72,115.77,58.38,28.09,42.89,28.16,87.94,5,135.24C236.37,160.5,196.12,124,139.9,103.85Z"/><path class="cls-1" d="M44.09,75.6c19.76,19.9,41.61,34.56,68,43.32-7.61,27.3-8.56,54.45-3.91,82s14.41,52.77,28.67,78.36c-49-7.24-84.25-31.48-104.11-74.92C12.65,160.27,17.44,117.27,44.09,75.6Z"/><path class="cls-1" d="M247.08,235.42c-19.9,24.26-56.66,43.09-83.41,42.83C135.06,235,120,178.11,134.34,126.62,188.4,145.81,224.14,183.43,247.08,235.42Z"/><path class="cls-2" d="M118.16,95.92C99.12,91,78.23,77.38,59.73,58c16.2-16.72,35.73-27.28,59.35-33.54C124.46,48.63,124.81,72.05,118.16,95.92Z"/></svg>