<svg id="Layer_1" data-name="Layer 1" xmlns="http://www.w3.org/2000/svg" viewBox="0 0 300 300"><path d="M40.54515,140.85275h7.18426v3.88165l.093.05591c.10132-.107.20554-.21136.30352-.32131a11.63569,11.63569,0,0,1,7.17061-4.11836,9.58721,9.58721,0,0,1,7.9867,1.977,25.52462,25.52462,0,0,1,2.22048,2.46839c.20352-.22045.47687-.52571.76-.82168a11.09171,11.09171,0,0,1,6.56632-3.62252,10.41853,10.41853,0,0,1,7.99791,1.74879,7.836,7.836,0,0,1,3.14934,5.65129,40.512,40.512,0,0,1,.22838,4.102c.02384,6.05142.01039,12.103.01044,18.15449v.50211H76.36152v-.55544c0-5.39568.022-10.79151-.01455-16.18694a36.72015,36.72015,0,0,0-.31658-4.40517c-.32065-2.503-2.44035-3.39288-4.46791-3.11349a5.51278,5.51278,0,0,0-4.82157,4.92385,32.94346,32.94346,0,0,0-.378,4.80209c-.04847,4.64992-.01764,9.30066-.01792,13.95108,0,.17757,0,.35515,0,.56825H58.47684v-.52614c-.00005-5.32116.01668-10.6424-.01094-15.96341a35.70519,35.70519,0,0,0-.245-4.45762c-.37335-2.84115-2.27094-3.55132-4.50219-3.3009a5.39634,5.39634,0,0,0-4.97747,4.88539,35.25251,35.25251,0,0,0-.35381,4.76138c-.04512,4.6798-.01643,9.36031-.01663,14.04053,0,.17763,0,.35527,0,.56463H40.54515Z" fill="#7b7b7b"/><path d="M109.41692,170.50635V169.937c-.00006-5.32115.01633-10.64239-.01082-15.9634a35.72766,35.72766,0,0,0-.24174-4.41331c-.36638-2.81926-2.24566-3.58-4.53675-3.30869a5.38764,5.38764,0,0,0-4.94447,4.86756,34.96265,34.96265,0,0,0-.35551,4.76122c-.04526,4.6947-.01652,9.39011-.01674,14.08524,0,.17432,0,.34864,0,.54257H91.47431V140.87079h7.2032v3.87987l.10536.04172c.10152-.11552.20216-.23182.30467-.34645a11.62421,11.62421,0,0,1,7.13609-4.09305,9.60884,9.60884,0,0,1,7.91991,1.91052,18.40165,18.40165,0,0,1,1.95878,2.24525,2.77125,2.77125,0,0,1,.21433.32507,33.08514,33.08514,0,0,1,2.44025-2.25169,10.77288,10.77288,0,0,1,11.90283-1.16766,7.59047,7.59047,0,0,1,4.25908,6.36925,37.59163,37.59163,0,0,1,.227,4.10186c.02357,6.0365.01025,12.07315.01028,18.10975v.5096h-7.85449v-.53656c0-5.39567.02181-10.79149-.01442-16.18692a36.84886,36.84886,0,0,0-.31379-4.40552c-.32183-2.522-2.44334-3.40043-4.45779-3.12826a5.51943,5.51943,0,0,0-4.83951,4.95683,33.599,33.599,0,0,0-.37338,4.80254c-.04791,4.64992-.01739,9.30065-.01765,13.95107,0,.17537,0,.35073,0,.54834Z" fill="#7b7b7b"/><path d="M204.35219,155.43654l8.005,2.49787c-.36366,1.03026-.67555,2.03586-1.06972,3.00818a15.86786,15.86786,0,0,1-6.0762,7.696,16.27529,16.27529,0,0,1-6.76714,2.40061,20.788,20.788,0,0,1-8.38643-.45,17.24855,17.24855,0,0,1-11.52233-9.98269,29.63068,29.63068,0,0,1-.39072-19.97285c2.52427-6.55144,7.22515-10.492,14.20011-11.605a20.46892,20.46892,0,0,1,9.64132.64652,14.5811,14.5811,0,0,1,9.84447,9.8773c.12358.37991.23964.76226.37508,1.19425l-8.16783,1.96119c-.17112-.52021-.2989-1.01106-.49075-1.47549a8.11121,8.11121,0,0,0-7.19679-5.34346,9.256,9.256,0,0,0-9.01806,4.07349,12.0819,12.0819,0,0,0-1.88174,5.30065,30.36128,30.36128,0,0,0,.33992,11.01689,9.86414,9.86414,0,0,0,4.14235,6.39686,8.87722,8.87722,0,0,0,13.37944-4.20226C203.71747,157.50509,203.99761,156.4833,204.35219,155.43654Z" fill="#7b7b7b"/><path d="M244.79413,158.00846H225.164c-.155,5.05971,3.66983,8.12775,7.79087,7.15536a4.42038,4.42038,0,0,0,3.05476-2.66228c.21061-.45766.37683-.93571.57925-1.44446l7.76394,1.32952c-.03857.14259-.05868.25314-.09783.35649a12.19985,12.19985,0,0,1-11.13877,8.42468,17.46294,17.46294,0,0,1-7.75146-.9301,12.06941,12.06941,0,0,1-7.25492-7.65614,19.88985,19.88985,0,0,1-1.0367-7.56711,17.66069,17.66069,0,0,1,1.394-6.78408c2.31855-5.08232,6.26148-7.825,11.88783-8.00588a14.027,14.027,0,0,1,7.61337,1.75943,12.48774,12.48774,0,0,1,5.72291,7.22029A26.226,26.226,0,0,1,244.79413,158.00846Zm-19.5077-4.85874h11.68369a5.55649,5.55649,0,0,0-.00472-.69551,15.959,15.959,0,0,0-.26-1.62993,5.67718,5.67718,0,0,0-7.85559-4.1651C226.469,147.68916,225.14362,150.23,225.28643,153.14972Z" fill="#7b7b7b"/><path d="M169.81134,170.5105h-7.27763v-4.36256c-.17192.20922-.26458.31389-.34842.42518a11.99212,11.99212,0,0,1-14.01776,3.7711,8.05223,8.05223,0,0,1-4.9839-6.45251,23.59289,23.59289,0,0,1-.35259-3.73013c-.03546-6.31913-.01748-12.63855-.01823-18.95788,0-.1023,0-.20459,0-.336h7.86923c0,.15813-.00006.32919,0,.50026.00209,5.02267-.016,10.04547.01793,15.06792.01095,1.62145.09683,3.24816.25851,4.86146a4.13435,4.13435,0,0,0,3.8175,3.90185,6.03421,6.03421,0,0,0,6.56309-3.76711,12.46221,12.46221,0,0,0,.51792-3.60635c.0823-5.4684.08581-10.938.11753-16.40714.001-.17565.00012-.35131.00012-.55372h7.83669Z" fill="#7b7b7b"/><path d="M25,170.49866v-40.898h8.208v40.898Z" fill="#7b7b7b"/><path d="M251.25368,129.5816h7.80188v40.921h-7.80188Z" fill="#7b7b7b"/><path d="M275,129.59124v40.91645h-7.81564V129.59124Z" fill="#7b7b7b"/></svg>