<svg xmlns="http://www.w3.org/2000/svg" viewBox="0 0 300 300"><g id="layer"><polyline points="191.515 172.794 113.346 158.08 128.192 80.174 206.229 94.888 191.515 172.794" fill="#62bfdd"/><polyline points="128.192 80.174 183.632 37.74 206.229 94.888 128.192 80.174" fill="#1396c8"/><polyline points="206.229 94.888 235 140.869 191.515 172.794 206.229 94.888" fill="#0e719a"/><polyline points="113.346 158.08 69.335 88.976 129.505 38.659 128.192 80.174 113.346 158.08" fill="#0e719a"/><polyline points="129.505 38.659 156.7 58.234 128.192 80.174 129.505 38.659" fill="#0a5193"/><polyline points="113.346 158.08 65 195.259 128.192 207.345 113.346 158.08" fill="#5484c5"/><polyline points="78.4 103.165 78.4 184.88 113.346 158.08 78.4 103.165" fill="#0a5193"/><polyline points="175.224 216.542 128.192 207.345 138.964 262.26 175.224 216.542" fill="#62bfdd"/><polyline points="235 140.869 175.224 216.542 191.515 172.794 235 140.869" fill="#0a5193"/><polyline points="113.346 158.08 191.515 172.794 175.224 216.542 128.192 207.345 113.346 158.08" fill="#1396c8"/></g></svg>