<svg id="Layer_1" data-name="Layer 1" xmlns="http://www.w3.org/2000/svg" viewBox="0 0 300 300"><path d="M25.28878,129.38339a84.7482,84.7482,0,0,0,53.57819,86.041A84.66811,84.66811,0,0,1,47.69268,144.638a79.24576,79.24576,0,0,1,83.29777-81.01156c51.79083-.66508,77.27065,43.68552,77.27065,65.75692-1.12229,31.17429-33.25255,37.4923-49.50478,36.20376-12.5113-1.95363-36.53625.956-34.91521,25.47982,1.621,25.02253,18.99557,26.64358,27.43337,24.35745,51.49994-14.58956,67.087-49.83727,67.087-81.01157,0-71.119-46.76136-102.95826-91.44454-102.95826C84.894,31.45459,27.9074,62.33792,25.28878,129.38339Z" fill="#352b70"/><path d="M274.68318,170.61661a84.53531,84.53531,0,0,0-53.57827-86.041A84.21109,84.21109,0,0,1,252.2792,155.362c.3325,28.2647-18.03945,80.67906-83.2977,81.01156-51.95715.66508-77.27072-43.97648-77.27072-66.08942,1.28854-31.17429,33.41888-37.4923,49.33852-36.20376,12.34506,1.95355,36.70259-.62354,35.2478-25.47982-1.62113-25.02253-19.16182-26.64358-27.766-24.025-51.16737,14.2986-67.04547,49.50477-67.04547,80.67906,0,71.11889,47.0524,103.29077,91.56925,103.29077,42.18926,0,99.1758-31.17429,101.62825-98.2613Z" fill="#386cb4"/></svg>