<svg id="Layer_1" data-name="Layer 1" xmlns="http://www.w3.org/2000/svg" viewBox="0 0 300 300"><defs><style>.cls-1{fill:#fff;}.cls-2{fill:#2c97d4;fill-rule:evenodd;}</style></defs><g id="_ffffffff" data-name="#ffffffff"><path id="Layer" class="cls-1" d="M145.53,61c5.07-.62,10.73-.5,14.88,2.69,4.6,3.31,7.63,8.69,7.3,14.19.2,5.87-3.29,11.43-8.49,14.5a21,21,0,0,1-14.94,1.68c-3.61-1.5-7.17-3.43-9.34-6.68-3.16-3.94-3.22-9.19-2.7-13.88,1.45-6.12,7-11.06,13.29-12.5ZM92.37,111.2a34.41,34.41,0,0,1,4.41-.31c8.55.06,17.11,0,25.66.06a37.47,37.47,0,0,1,7.5.31c-.2,30.38,0,60.69-.07,91.06.07,8.25-.13,16.5.14,24.69a19.72,19.72,0,0,1-4.28.5c-11.12-.19-22.24.06-33.36-.13q.06-7.19-.07-14.37c6.58-.44,13.23.06,19.81-.25.2-29.25-.07-58.5.13-87.69-6.58-.18-13.16-.06-19.67-.06-.4-4.62-.13-9.25-.2-13.81Zm77.12.06c2.69-.56,5.46-.31,8.22-.31,9.74-.06,19.48,0,29.15-.06.2,4.68.13,9.37,0,14.06-6.38,0-12.77.06-19.08.06.06,29.25,0,58.5,0,87.69,6.38.56,12.83-.32,19.21.31-.07,4.81.07,9.62-.13,14.44-12.37-.13-24.81.18-37.18-.13a67.82,67.82,0,0,1-.06-8.19c-.07-35.93.06-71.87-.13-107.87Z"/></g><g id="_43b8feff" data-name="#43b8feff"><path id="Layer-2" data-name="Layer" class="cls-2" d="M106.19,20c13.55-3.88,27.7-6.5,41.91-6.13,29.94-.93,60,8.25,84.42,24.63,31.25,20.62,53,53.75,59,89.44,1.18,5.37,1,10.81,1.77,16.24A135.84,135.84,0,0,1,291.61,171a132.37,132.37,0,0,1-25,58.31,191.44,191.44,0,0,1-15.26,17.25c-5.2,4.38-10.33,8.94-15.92,12.88a147.21,147.21,0,0,1-72.91,26.18,147.85,147.85,0,0,1-43.62-2.56A144.1,144.1,0,0,1,39.53,237.2,134,134,0,0,1,8.35,173.51c-.6-3.94-1-7.94-1.71-11.81V137.82c1.18-7.68,2.3-15.5,4.47-23.06a135.12,135.12,0,0,1,7.37-20A140.72,140.72,0,0,1,30.39,74.14c4-5.25,7.76-10.69,12.63-15.32,2.5-2.5,4.61-5.31,7.44-7.43A66.28,66.28,0,0,0,56,46.64,147.8,147.8,0,0,1,106.19,20ZM145.53,61c-6.31,1.44-11.84,6.38-13.29,12.5-.52,4.69-.46,9.94,2.7,13.88,2.17,3.25,5.73,5.18,9.34,6.68a21,21,0,0,0,14.94-1.68c5.2-3.07,8.69-8.63,8.49-14.5.33-5.5-2.7-10.88-7.3-14.19-4.15-3.19-9.87-3.31-14.88-2.69ZM92.37,111.2c.07,4.56-.2,9.19.2,13.81,6.51,0,13.09-.12,19.67.06-.2,29.19.07,58.44-.13,87.69-6.58.31-13.23-.19-19.81.25q.14,7.19.07,14.37c11.12.19,22.24-.06,33.36.13A19.72,19.72,0,0,0,130,227c-.27-8.19-.07-16.44-.14-24.69.07-30.37-.13-60.68.07-91.06a37.69,37.69,0,0,0-7.5-.31c-8.55-.06-17.11,0-25.66-.06a33.66,33.66,0,0,0-4.41.31Zm77.12.06c.19,36,.06,71.94.06,107.87.07,2.75-.2,5.44.13,8.19,12.37.31,24.81,0,37.18.13.2-4.82,0-9.63.13-14.44-6.38-.63-12.83.25-19.21-.31,0-29.19.06-58.44,0-87.69,6.31,0,12.7-.06,19.08-.06.13-4.69.2-9.38,0-14.06-9.74.06-19.41,0-29.15.06C175,111,172.18,110.7,169.49,111.26Z"/></g></svg>