<svg id="Layer_1" data-name="Layer 1" xmlns="http://www.w3.org/2000/svg" viewBox="0 0 300 300"><defs><style>.cls-1{fill:#02a69b;}.cls-2{fill:#019bd0;}.cls-3{fill:#01a1b7;}.cls-4{fill:#019ec2;}.cls-5{fill:#a6a8ab;}</style></defs><path class="cls-1" d="M85.83,40l.82-1.05a3,3,0,0,0,2-2.29l.49-.56a30.15,30.15,0,0,0,6.22-6.29,79.54,79.54,0,0,1,39.23-19.24,88.3,88.3,0,0,1,29.15,0,78.66,78.66,0,0,1,34,13.79,76.36,76.36,0,0,1,24.34,28.27c.29.56,1,1,.67,2H212.57c3.43-6.08,2.2-11-3.32-14.66-3.27-2.16-7.76-1.63-10.91.93-4,3.24-4.53,6.47-2.22,13.54a5.61,5.61,0,0,1-3.43.17c-1.06-4.71-3.61-8.25-8.78-8-4.67.2-7.2,3.42-8,8-2.84.35-5.43.53-8.16-.88a38.43,38.43,0,0,0-47.89,10.17,29.69,29.69,0,0,0-6.74,22.55c.53,4.88,3.06,9,5.76,13,1.77,2.6,4.06,4.78,6,7.26a.68.68,0,0,0,.78.79l0,0a.68.68,0,0,0,.79.78l0,0c0,.55.28.8.83.77h0c-.06.73.39.87,1,.86a1.91,1.91,0,0,1,1,.88.71.71,0,0,0,.83.74l0,0c0,.59.32.83.89.76l.33.3a3.9,3.9,0,0,0,2.92,2.17h0c0,1.11.87,1.18,1.68,1.24,3.72,2.11,6.95,4.9,10.55,7.22-1.22,1.4-36.89,22.9-39.42,23.82a87.16,87.16,0,0,1-11-9.42,97.26,97.26,0,0,1-20-27.57c-7.1-15-7.61-30.39-2.85-46.11A72.12,72.12,0,0,1,85.05,41.05,1,1,0,0,0,85.83,40Z"/><path class="cls-2" d="M119.8,237.11a34.64,34.64,0,0,0,4.78,5c0,.47.24.63.68.57l1.27,1.08c0,.49.33.66.8.55.14.1.28.2.41.31.09.46.37.6.81.46l.43.35c.2.76.93,1,1.48,1.28a43.57,43.57,0,0,0,11.29,4.4,37,37,0,0,0,17.54-.13c.71.71,1.32.92,1.66-.31l1.61-.58c.38.72.95.64,1.57.4a61,61,0,0,0,11.42-5.66,36,36,0,0,0,11.18-11.34,31.46,31.46,0,0,0,4.18-12,7.3,7.3,0,0,1,0-.81c.81-7.91-2.07-14.57-6.79-20.69-2.09-2.7-4.57-5-6.76-7.63.13-.93.72-.93,1.33-.55a4.41,4.41,0,0,0,4.13,0,14.24,14.24,0,0,1,2.67-1c4.48-.77,8.46-3.05,12.87-4.12,3.7-.9,7.25-2.46,11.65-4,1.36-1.6,4.6-.5,6.77-2.43.71.83,1.23,1.55,1.85,2.16,1.88,1.82,2.57,4.52,4.64,6.2a14.11,14.11,0,0,1,2.11,4.93c-.59.54-.22.71.31.81a.2.2,0,0,1,.15.29l.25.51a4.25,4.25,0,0,1,.58,1.93.89.89,0,0,0,.33,1,46.65,46.65,0,0,1,2.77,17.09,70.09,70.09,0,0,1-10.13,36.69c-13.33,21.95-33,34.35-58.31,38a82.47,82.47,0,0,1-32.9-2.17c-.64-.16-1.38-.14-1.82-.78.18-.22.61-.28.42-.87-.55-.06-1.19-.37-1.36.65a1.91,1.91,0,0,1-1.81-.67c.28-.13.7-.07.74-.53,0-.07,0-.16-.08-.18A74.54,74.54,0,0,1,99.86,271,73.72,73.72,0,0,1,83.7,250.84a68,68,0,0,1-7.59-20.15c-.59-3-.08-4.22,2.77-5.22,2.2-.76,4.16-2.41,6.74-2,.4.07.89-.3,1.31-.51,3.64-1.71,7.57-2.49,12.17-4.19,3-1.93,7.29-2.86,11.53-3.32,1.14.75.44,2.57,2.05,2.73v2.45c-.6.3-.58.59,0,.88.14.6.26,1.2.44,1.79.92,3,1.37,6.23,3.48,8.78l.33.5-.06.15.16.07.24.55c-.15.49.07.72.53.79.37.57.74,1.13,1.1,1.7C118.79,236.59,119.19,236.92,119.8,237.11Zm10.63,50c-.54-.44-.91-.33-1.51.11C129.65,287.6,130.05,287.75,130.43,287.11Z"/><path class="cls-3" d="M136.73,134.17l3.25-1.89c.51.14.74-.13.85-.58l3.24-1.88c.53.16.76-.11.87-.58l.4-.19a.68.68,0,0,0,.88-.58l5.28-3.22c.18.11.29,0,.32-.16q9.1-6.63,18.22-13.25c.44-.31.91-.81,1.38-.82,3.53-.07,7.06,0,10.83,0a14.21,14.21,0,0,0,3.49,12c-.05.54.2.78.74.72l.09.08c.09.91.78,1.06,1.49,1.18l.41.21c.11.45.35.72.86.57,7.49,4.38,19.18,0,20.43-12a.81.81,0,0,1,1,0,7.56,7.56,0,0,0,9.17-1.6c1-.92,1.89-1.52,3.33-.62a43,43,0,0,1-4.21,7.87A96.41,96.41,0,0,1,205.91,136a7,7,0,0,1-.8.61c-1.35-.06-1.86.7-1.88,1.93l0,0c-.9.17-1.7.45-1.62,1.6a.65.65,0,0,1-.62.53,2.15,2.15,0,0,0-2.18.77,26.82,26.82,0,0,1-5.32,4.3,1.72,1.72,0,0,0-.85,1.9h0a.72.72,0,0,0-.89.74v0a1.62,1.62,0,0,0-1.5,0c-4.46,1.67-7.75,5.83-13.1,5.79-2,0-4.14,1.18-6.19,1.85-5,1.65-9.88,3.68-15,5.22a111.5,111.5,0,0,0-11.69,4,51.28,51.28,0,0,1-6.71,2.35c-7.49,2-14.67,5-22,7.36-2.83.93-5.61,2-8.45,2.93-4.71,1.53-9.56,2.71-14.13,4.57-3.35,1.37-7.23,1.32-10.15,4,.45-3.83,2.74-6.71,4.4-9.94-1.63-.61-2.12,1.44-3.4.9l0-.56.39-.65c.13-.2.26-.4.4-.59a1.9,1.9,0,0,1,.82-1.06l.41-.57.76-1.06a.56.56,0,0,0,.47-.6c3.64-5.33,8.23-9.79,12.94-14.14a81.16,81.16,0,0,1,14.9-11c.5.22.79.08.87-.47l7.79-4.68c.51.14.74-.13.85-.58l11.46-6.82C136.39,134.89,136.63,134.63,136.73,134.17Z"/><path class="cls-4" d="M83.8,177.56c1.28.54,1.77-1.51,3.4-.9-1.66,3.23-4,6.11-4.4,9.94,2.92-2.69,6.8-2.64,10.15-4,4.57-1.86,9.42-3,14.13-4.57,2.84-.92,5.62-2,8.45-2.93,7.36-2.4,14.54-5.33,22-7.36a51.28,51.28,0,0,0,6.71-2.35,111.5,111.5,0,0,1,11.69-4c5.09-1.54,10-3.57,15-5.22,2-.67,4.15-1.86,6.19-1.85,5.35,0,8.64-4.12,13.1-5.79a1.62,1.62,0,0,1,1.5,0c-4.15,3.09-8.63,5.68-13,8.47-10.66,6.86-21.31,13.75-31.8,20.86-.62.42-1.29.74-1.94,1.11-.11-.33-.08-.82-.67-.59,0,.51.38.49.68.58a5.76,5.76,0,0,1-2.46,1.66c-.54-1.59-1-.5-1.65,0,.67.5,1.15-.16,1.66,0-2.4,2.22-5.23,3.83-7.86,5.72a86.24,86.24,0,0,0-12,10.65.71.71,0,0,0-.72.76l0,0a.74.74,0,0,0-.76.84.85.85,0,0,1-.61.79,1.14,1.14,0,0,0-1,1.32l0,0a1.14,1.14,0,0,0-.88,1.19l-.27.43A10.5,10.5,0,0,0,115,208.1c-.24.75-.49,1.5-.74,2.25a.64.64,0,0,0-.34.94l-.57,2.07c-1.46,1.44-.29,3.27-.71,4.86-1.61-.16-.91-2-2.05-2.73-4.24.46-8.51,1.39-11.53,3.32-4.6,1.7-8.53,2.48-12.17,4.19-.42.21-.91.58-1.31.51-2.58-.45-4.54,1.2-6.74,2-2.85,1-3.36,2.23-2.77,5.22a68,68,0,0,0,7.59,20.15A73.72,73.72,0,0,0,99.86,271a74.54,74.54,0,0,0,24.67,14.39s0,.11.08.18c0,.46-.46.4-.74.53a8.93,8.93,0,0,1-4-1.37c-.75-.8-1.82-.85-2.76-1.2a29.58,29.58,0,0,1-6.26-3.2,4,4,0,0,0-2.36-1.31,4.89,4.89,0,0,1-2.56-1.58c-.11-.38-.41-.46-.75-.47a3,3,0,0,1-1.71-1.18.7.7,0,0,0-.73-.47.87.87,0,0,1-.87-.66.69.69,0,0,0-.73-.55l-1-.73c-.08-.39-.37-.5-.72-.52a1.15,1.15,0,0,1-.91-.75,1.89,1.89,0,0,0-1.5-1.29,4.57,4.57,0,0,1-1.79-1.59,33.08,33.08,0,0,0-5.34-5.37,6.48,6.48,0,0,1-2-2.26.65.65,0,0,0-.55-.65,1.11,1.11,0,0,1-.68-.93,1.18,1.18,0,0,0-.83-1.09l-.4-.53a23.82,23.82,0,0,0-3.29-4.79l-.4-.56a8.58,8.58,0,0,0-.45-1.13,75.44,75.44,0,0,1-7.61-17.74,77.38,77.38,0,0,1-2.35-13.39A59.16,59.16,0,0,1,73.58,198c1.5-5,3.87-9.72,6.13-14.45.11-.21.21-.42.31-.64.64-.29.75-.9.92-1.48a1.75,1.75,0,0,1,.85-1.4c.13-.23.27-.45.41-.68l.3-.5a.81.81,0,0,0,.51-.76l.37-.47Z"/><path class="cls-4" d="M223.28,188.68c-2.07-1.68-2.76-4.38-4.64-6.2-.62-.61-1.14-1.33-1.85-2.16-2.17,1.93-5.41.83-6.77,2.43-4.4,1.53-8,3.09-11.65,4-4.41,1.07-8.39,3.35-12.87,4.12a14.24,14.24,0,0,0-2.67,1,4.41,4.41,0,0,1-4.13,0c-.61-.38-1.2-.38-1.33.55-.94,0-1.36-.82-2-1.35a58.21,58.21,0,0,0-4.71-3.86c-4.63-3.29-9.21-6.65-13.79-10,0-.53-.09-1-.13-1.48,1.45-1.49,3.42-2.23,5-3.48.66-.16,1.35-.29,1.63-1.05l1.17-.58c.57,0,1.17.07,1.27-.73,4.71-3.49,9.82-6.37,14.71-9.58,4-2.66,8.16-5.2,12.42-7.91a110.41,110.41,0,0,1,22.67,23.17,3.41,3.41,0,0,0,1.72,2.49l.24.58a1.13,1.13,0,0,0,.89,1.43A34.31,34.31,0,0,1,223.28,188.68Z"/><path class="cls-2" d="M187.56,106a10.15,10.15,0,0,1,10.06-3.52,10.79,10.79,0,0,1,8.88,7.8,11.26,11.26,0,0,1-8.83,14.48,1.86,1.86,0,0,1-1.39-.07c.09-.26.31-.54.26-.76-1.09-4.44-1.77-9-4.8-12.74C190.36,109.46,188.33,108.23,187.56,106Z"/><path class="cls-1" d="M163,74.42l1.22,1a.73.73,0,0,0,.85.71c.73.82,1.77,1.37,2.15,2.5-1.47.59-2.29-2.21-3.93-.78-.48.73-.18,1.59-.44,2.35-1.29-.83-2.46-1.79-4.14-1.9-2.47-.17-4,1.31-5.47,2.86l-2.41-.35c-1.36.09-1.85,1.55-3.12,1.55.79-4,1.79-5.1,7.44-8.21L149.39,69a7.44,7.44,0,0,1,.18-3.54h17.74c.65,1.23.29,2.49.24,4h-9.94l-.3.63c1.47,1.75,3.59,2.76,5.38,4.14Z"/><path class="cls-2" d="M198.52,42.48a8.5,8.5,0,0,1,14.53,6.34,8.57,8.57,0,0,1-5.58,7.83,3.3,3.3,0,0,1-2.18.31C204.66,51.38,201.52,47,198.52,42.48Z"/><path class="cls-3" d="M187.56,106c.77,2.23,2.8,3.46,4.18,5.19,3,3.77,3.71,8.3,4.8,12.74.05.22-.17.5-.26.76a9.88,9.88,0,0,1-9.52-4.22,10.75,10.75,0,0,1-1.21-11.71A5.87,5.87,0,0,1,187.56,106Z"/><path class="cls-2" d="M169.45,86.87a4.39,4.39,0,0,1-.39,2.55.93.93,0,0,0-.25.9c-.5,3.73-2.91,5.9-6.18,7.18-6.18,2.42-12.62-.37-14.36-6.1a3.22,3.22,0,0,1,4.76-.81c1.69,2.11,3.57,3.92,6.57,3.21,2.74-.65,4.22-2.6,4.86-5.26C165.75,86.88,167.28,85.91,169.45,86.87Z"/><path class="cls-2" d="M209.33,101.15a6.88,6.88,0,0,1,8.24-1.31,7.31,7.31,0,0,1,3.72,7.77,6.91,6.91,0,0,1-6.51,5.49c-.54-3.22-1.23-6.42-3.54-8.9A9.06,9.06,0,0,1,209.33,101.15Z"/><path class="cls-2" d="M192.17,89a6.39,6.39,0,0,1,7.71-2.41,7,7,0,0,1,4.2,7.06,6.26,6.26,0,0,1-5.78,5.57c-1-1.56-.92-3.48-1.71-5.15-.91-1.9-2.52-3.31-3.42-5.21Z"/><path class="cls-2" d="M178.81,50.72c2.07-2.52,4.75-3.49,7.37-2.59a6.81,6.81,0,0,1,1.13,12.53,4.34,4.34,0,0,1-2.95.49C184.17,56.79,182.91,53,178.81,50.72Z"/><path class="cls-1" d="M123,215.77c0-1.74,1.33-1.38,2.35-1.38q21.68,0,43.35,0h4.66a2.42,2.42,0,0,1,.63,3l-.33,0c-.35-1.23-1.38-1.19-2.32-1.16-9.63.29-19.24-.56-28.86-.44C136,215.84,129.52,215.77,123,215.77Z"/><path class="cls-2" d="M173.69,217.36l.33,0c0,1.75-1.32,1.25-2.22,1.25q-22.37,0-44.72,0c-1.21,0-2.45.3-3.52-.12a1.6,1.6,0,0,1-.57-1.95l.18-.06c10.69.06,21.37.29,32.06.83C161.37,217.66,167.53,217.38,173.69,217.36Z"/><path class="cls-4" d="M145.38,82.83c-.8,3.76-2.42,7.23-3.82,10.76a19.5,19.5,0,0,0-1.35,8.38c.07,1.42,0,2.85,0,4.36a11.51,11.51,0,0,1-5.22,0c.31-2.64-.27-5.19.39-7.73.41,2.34-.24,4.74.39,7.18a18,18,0,0,0,4.07-.17c-1-5.27.4-10.21,1.91-15.12-2.17-.37-2.17-.37-4,.48-2.74-.7-3.51.16-3.16,3,.15,1.22,1.11,2.21.79,3.49a90.69,90.69,0,0,1-4.75-13l.4,0c.77,2,1.53,4,2.32,6,.73-.45.37-1.28,1.25-1.49l1.76.22c-.27-1.9-1.26-3.45-1.2-5.2,1.29,1.62,1.24,3.86,2.42,5.8,1.43-1.58,1.17-3.66,2.43-5,.94.6,1.62-.45,2.59-.37.57-.29.75.93,1.53.5S144.5,83.29,145.38,82.83Z"/><path class="cls-2" d="M175.77,98.13a5.81,5.81,0,0,1,7-.76,6.31,6.31,0,0,1,2.8,6.54,5.69,5.69,0,0,1-5.29,4.56c-.61-2.55-1.09-5.13-3-7.16C176.45,100.45,175.54,99.53,175.77,98.13Z"/><path class="cls-2" d="M135.36,97.42c.32-1.28-.64-2.27-.79-3.49-.35-2.82.42-3.68,3.16-3,1.86-.85,1.86-.85,4-.48-1.51,4.91-2.94,9.85-1.91,15.12a18,18,0,0,1-4.07.17c-.63-2.44,0-4.84-.39-7.18Z"/><path class="cls-3" d="M198.52,42.48c3,4.48,6.14,8.9,6.77,14.48a8.18,8.18,0,0,1-8.56-4.55A8.54,8.54,0,0,1,198.52,42.48Z"/><path class="cls-4" d="M161.61,201.79a1,1,0,0,1-.4,1.4H135.85a1.71,1.71,0,0,1-.37-2.18,19.1,19.1,0,0,1,6.3-.38c5.37.44,10.75.38,16.14.36A6.38,6.38,0,0,1,161.61,201.79Z"/><path class="cls-2" d="M79.71,183.56c-2.26,4.73-4.63,9.4-6.13,14.45a59.16,59.16,0,0,0-2.23,22.73,77.38,77.38,0,0,0,2.35,13.39,75.44,75.44,0,0,0,7.61,17.74,8.58,8.58,0,0,1,.45,1.13c-2.26-2.43-3.5-5.48-4.87-8.42a70.29,70.29,0,0,1-6.57-29c-.14-11.41,3.33-21.93,8.89-31.79C79.29,183.7,79.54,183.65,79.71,183.56Z"/><path class="cls-4" d="M161.3,233.41a1.54,1.54,0,0,1-.52,1.66H136.36a1.92,1.92,0,0,1-.44-2.06c2.21-.73,4.41-.15,6.63-.06C148.8,233.21,155.06,232.72,161.3,233.41Z"/><path class="cls-1" d="M161.3,233.41c-6.24-.69-12.5-.2-18.75-.46-2.22-.09-4.42-.67-6.63.06-.44-.69-.13-1.29.21-2H160.7A2,2,0,0,1,161.3,233.41Z"/><path class="cls-2" d="M197.47,61.84a4.46,4.46,0,0,1,5.76-1.23,5.1,5.1,0,0,1,2.67,5.81,4.63,4.63,0,0,1-4.73,3.6c0-.47-.07-.94-.12-1.4C200.79,65.87,198.92,64,197.47,61.84Z"/><path class="cls-3" d="M173.69,217.36c-6.16,0-12.32.3-18.46,0-10.69-.54-21.37-.77-32.06-.83a.58.58,0,0,0-.18-.3c0-.15,0-.31,0-.46,6.49,0,13,.07,19.48,0,9.62-.12,19.23.73,28.86.44C172.31,216.17,173.34,216.13,173.69,217.36Z"/><path class="cls-2" d="M209.63,58.89c.93-2.17,2.77-2.41,4.75-2.13a4.73,4.73,0,0,1,3.77,3.81c.38,2.15-.47,3.8-2.56,5l-.4.22a1.48,1.48,0,0,1-1.27.2c.06-1-1.12-1.36-1.21-2.29C212.5,61.58,211,60.29,209.63,58.89Z"/><path class="cls-1" d="M161.61,201.79a6.38,6.38,0,0,0-3.69-.8c-5.39,0-10.77.08-16.14-.36a19.1,19.1,0,0,0-6.3.38c-.41-.63-.15-1.15.3-1.77h25.56A2.06,2.06,0,0,1,161.61,201.79Z"/><path class="cls-3" d="M209.33,101.15a9.06,9.06,0,0,0,1.91,3c2.31,2.48,3,5.68,3.54,8.9a6.59,6.59,0,0,1-7.09-3.84A6.87,6.87,0,0,1,209.33,101.15Z"/><path class="cls-4" d="M211.83,80.21a4.09,4.09,0,0,1,4,3.88A3.91,3.91,0,0,1,212.12,88a4,4,0,0,1-4.1-3.7A4.13,4.13,0,0,1,211.83,80.21Z"/><path class="cls-1" d="M131,84.43l-.4,0a81.66,81.66,0,0,1-4.06-10.54h5.09a62.45,62.45,0,0,1,3.25,9.26c-1.26.25-1.35-1.21-2.19-1.52a1.77,1.77,0,0,0-1.69.85Z"/><path class="cls-3" d="M192.17,89l1-.14c.9,1.9,2.51,3.31,3.42,5.21.79,1.67.67,3.59,1.71,5.15-2.6,1-5.35-1-6.55-2.89A6.07,6.07,0,0,1,192.17,89Z"/><path class="cls-1" d="M145.38,82.83c-.88.46-.61,1.61-1.27,2.14s-1-.79-1.53-.5c-1-.08-1.65,1-2.59.37a1.43,1.43,0,0,1,.43-1.25c.4-.18.43-.51.37-.89a1.75,1.75,0,0,1,.54-1.59.68.68,0,0,0,.3-.78,1.44,1.44,0,0,1,.38-1.25c.44-.16.48-.51.41-.91a2,2,0,0,1,.54-1.58c.33-.17.35-.47.31-.79a1.29,1.29,0,0,1,.43-1.24l1.73-.45a2.18,2.18,0,0,1,1.51,0c.67,0,1.3.15,1.38,1a1.48,1.48,0,0,1-.48,1.15c-.4.17-.42.5-.36.86l-.18.79-.23.5a1.55,1.55,0,0,1-.49,1.12,3.58,3.58,0,0,0-.78,2.06A1.37,1.37,0,0,1,145.38,82.83Z"/><path class="cls-3" d="M153,90.59a3.22,3.22,0,0,0-4.76.81,11.79,11.79,0,0,1-.55-9c1.27,0,1.76-1.46,3.12-1.55l2.41.35A12.88,12.88,0,0,0,153,90.59Z"/><path class="cls-3" d="M169.45,86.87c-2.17-1-3.7,0-5,1.67a12.39,12.39,0,0,0-1.6-8.31c.26-.76,0-1.62.44-2.35,1.64-1.43,2.46,1.37,3.93.78C169.54,81,169.79,83.84,169.45,86.87Z"/><path class="cls-2" d="M195.74,75.75l.2-.35c4-1.9,5.1-1.71,7.25,1.28a9.74,9.74,0,0,1-.38,4.38l-.07.08c-.91,0-1.24,1.06-2.08,1.21-3,.14-2.61-3.13-4.18-4.16C196.05,77.29,196.61,76.32,195.74,75.75Z"/><path class="cls-3" d="M178.81,50.72c4.1,2.28,5.36,6.07,5.55,10.43-2.73.38-4.63-1-5.92-3.14A6.41,6.41,0,0,1,178.81,50.72Z"/><path class="cls-4" d="M224.43,77.94A3.42,3.42,0,0,1,221,81.46a3.54,3.54,0,0,1-3.46-3.36,3.76,3.76,0,0,1,3.31-3.58A3.54,3.54,0,0,1,224.43,77.94Z"/><path class="cls-3" d="M175.77,98.13c-.23,1.4.68,2.32,1.49,3.18,1.9,2,2.38,4.61,3,7.16a5.48,5.48,0,0,1-6-3.09C172.93,102.62,173.41,100.27,175.77,98.13Z"/><path class="cls-2" d="M186.43,67.67a3.5,3.5,0,0,1,4.49-1.12,4,4,0,0,1,2.72,3.88A3.48,3.48,0,0,1,191,74.22c-1.11-.06-1.44-.91-1.7-1.76A16.17,16.17,0,0,0,186.43,67.67Z"/><path class="cls-3" d="M197.47,61.84c1.45,2.12,3.32,4,3.58,6.78,0,.46.08.93.12,1.4a4.53,4.53,0,0,1-4.82-2.87A4.37,4.37,0,0,1,197.47,61.84Z"/><path class="cls-3" d="M131,84.43V82.5a1.77,1.77,0,0,1,1.69-.85c.84.31.93,1.77,2.19,1.52a.76.76,0,0,1,.24.84c0,1.75.94,3.3,1.21,5.2L134.58,89c-.88.21-.52,1-1.25,1.49C132.54,88.44,131.78,86.43,131,84.43Z"/><path class="cls-3" d="M209.63,58.89c1.34,1.4,2.87,2.69,3.08,4.82.09.93,1.27,1.28,1.21,2.29-2.22.71-3.66-.52-4.67-2.18S208,60.41,209.63,58.89Z"/><path class="cls-4" d="M187.78,82.4a2.53,2.53,0,0,1-2.42,2.35,2.65,2.65,0,0,1-2.75-2.46A2.6,2.6,0,0,1,185,79.68,2.71,2.71,0,0,1,187.78,82.4Z"/><path class="cls-3" d="M186.43,67.67a16.17,16.17,0,0,1,2.89,4.79c.26.85.59,1.7,1.7,1.76a3.79,3.79,0,0,1-5-1C184.59,71.39,184.72,69.52,186.43,67.67Z"/><path class="cls-3" d="M195.74,75.75c.87.57.31,1.54.74,2.44,1.57,1,1.14,4.3,4.18,4.16.84-.15,1.17-1.18,2.08-1.21a4.42,4.42,0,1,1-7-5.39Z"/><path class="cls-4" d="M210.5,91.28c-.31,1.19-1,2-2.28,1.91a2,2,0,0,1,.21-4.07A2.17,2.17,0,0,1,210.5,91.28Z"/><path class="cls-4" d="M211.47,69.22a2.19,2.19,0,0,1-1.78,2.32,2.25,2.25,0,0,1-2.08-1.89C208.76,67.14,209.81,67,211.47,69.22Z"/><path class="cls-4" d="M192.61,147.7a1.72,1.72,0,0,1,.85-1.9,26.82,26.82,0,0,0,5.32-4.3,2.15,2.15,0,0,1,2.18-.77A40.18,40.18,0,0,1,192.61,147.7Z"/><path class="cls-3" d="M202.81,81.06a9.74,9.74,0,0,0,.38-4.38c-2.15-3-3.27-3.18-7.25-1.28,1.42-2.35,4.91-2,6.42-.6A4.34,4.34,0,0,1,202.81,81.06Z"/><path class="cls-2" d="M187.21,90.53c-.17.77-.48,1.25-1.24,1.37a1.41,1.41,0,0,1-1.34-1.23,1.45,1.45,0,0,1,1.08-1.33C186.57,89.23,187,89.74,187.21,90.53Z"/><path class="cls-5" d="M95.34,29.8a30.15,30.15,0,0,1-6.22,6.29A20.62,20.62,0,0,1,95.34,29.8Z"/><path class="cls-2" d="M115,208.1a10.5,10.5,0,0,1,3.38-5.87C117.3,204.19,116.17,206.14,115,208.1Z"/><path class="cls-5" d="M219.8,89.85c.22,1.05-.19,1.58-1.13,1.47s-1-.73-.81-1.44A1.28,1.28,0,0,1,219.8,89.85Z"/><path class="cls-2" d="M191.57,84.63c-1.43.39-1.43.39-1.29-1C191.21,83.34,191.61,83.69,191.57,84.63Z"/><path class="cls-2" d="M205,99.44c-.25-1.57-.25-1.57,1.15-1.17C206.33,99.05,206,99.39,205,99.44Z"/><path class="cls-3" d="M134.34,114.75a3.9,3.9,0,0,1-2.92-2.17A7.3,7.3,0,0,1,134.34,114.75Z"/><path class="cls-5" d="M88.63,36.65a3,3,0,0,1-2,2.29A3.59,3.59,0,0,1,88.63,36.65Z"/><path class="cls-3" d="M148.32,75.11c-.08-.85-.71-1-1.38-1,.49-.6,1.07-.3,1.55-.27C148.92,74.43,148.82,74.82,148.32,75.11Z"/><path class="cls-4" d="M203.23,138.57c0-1.23.53-2,1.88-1.93A3.8,3.8,0,0,1,203.23,138.57Z"/><path class="cls-3" d="M145.43,74.11l-1.73.45C144,73.51,144.67,73.55,145.43,74.11Z"/><path class="cls-4" d="M201.58,140.2c-.08-1.15.72-1.43,1.62-1.6A3.32,3.32,0,0,1,201.58,140.2Z"/><path class="cls-3" d="M145.8,81.59a3.58,3.58,0,0,1,.78-2.06A2.16,2.16,0,0,1,145.8,81.59Z"/><path class="cls-3" d="M136,116c-.81-.06-1.63-.13-1.68-1.24A2.75,2.75,0,0,1,136,116Z"/><path class="cls-2" d="M80.94,181.44c-.17.58-.28,1.19-.92,1.48A1.33,1.33,0,0,1,80.94,181.44Z"/><path class="cls-5" d="M188.06,124.94c-.71-.12-1.4-.27-1.49-1.18C187.19,124,187.84,124.2,188.06,124.94Z"/><path class="cls-2" d="M218.55,180.06a1.13,1.13,0,0,1-.89-1.43A1.84,1.84,0,0,1,218.55,180.06Z"/><path class="cls-2" d="M119.55,200.65a1.14,1.14,0,0,1,1-1.32A1.71,1.71,0,0,1,119.55,200.65Z"/><path class="cls-2" d="M118.69,201.8a1.14,1.14,0,0,1,.88-1.19A1.24,1.24,0,0,1,118.69,201.8Z"/><path class="cls-2" d="M83,178.1a.81.81,0,0,1-.51.76C82.42,178.43,82.45,178.08,83,178.1Z"/><path class="cls-2" d="M82.2,179.36c-.14.23-.28.45-.41.68C81.6,179.61,81.68,179.36,82.2,179.36Z"/><path class="cls-3" d="M165.9,169.88c-.1.8-.7.75-1.27.73A1.62,1.62,0,0,1,165.9,169.88Z"/><path class="cls-3" d="M128.33,109.88c-.59,0-1-.13-1-.86A1.3,1.3,0,0,1,128.33,109.88Z"/><path class="cls-5" d="M140.83,131.7c-.11.45-.34.72-.85.58A.71.71,0,0,1,140.83,131.7Z"/><path class="cls-5" d="M144.94,129.24c-.11.47-.34.74-.87.58A.75.75,0,0,1,144.94,129.24Z"/><path class="cls-2" d="M83.8,177.56l-.42.07c-.21-.45,0-.61.44-.63C83.81,177.18,83.8,177.37,83.8,177.56Z"/><path class="cls-5" d="M146.22,128.47a.68.68,0,0,1-.88.58A.68.68,0,0,1,146.22,128.47Z"/><path class="cls-5" d="M115.78,146.83c-.08.55-.37.69-.87.47A.88.88,0,0,1,115.78,146.83Z"/><path class="cls-3" d="M130.18,111.5a.71.71,0,0,1-.83-.74A1.1,1.1,0,0,1,130.18,111.5Z"/><path class="cls-4" d="M191.73,148.43a.72.72,0,0,1,.89-.74A1.18,1.18,0,0,1,191.73,148.43Z"/><path class="cls-5" d="M186.48,123.68c-.54.06-.79-.18-.74-.72A.87.87,0,0,1,186.48,123.68Z"/><path class="cls-3" d="M131.09,112.28c-.57.07-.88-.17-.89-.76A1.26,1.26,0,0,1,131.09,112.28Z"/><path class="cls-2" d="M87.07,172.47a.56.56,0,0,1-.47.6C86.49,172.66,86.68,172.49,87.07,172.47Z"/><path class="cls-2" d="M85.84,174.13l-.41.57C85.28,174.31,85.4,174.1,85.84,174.13Z"/><path class="cls-2" d="M84.61,175.76c-.14.19-.27.39-.4.59C84,175.93,84.22,175.79,84.61,175.76Z"/><path class="cls-4" d="M225.7,194.42c-.53-.1-.9-.27-.31-.81A.68.68,0,0,1,225.7,194.42Z"/><path class="cls-3" d="M127.34,109c-.55,0-.83-.22-.83-.77A1,1,0,0,1,127.34,109Z"/><path class="cls-2" d="M122,197.66a.71.71,0,0,1,.72-.76A.89.89,0,0,1,122,197.66Z"/><path class="cls-2" d="M121.16,198.54a.74.74,0,0,1,.76-.84A1,1,0,0,1,121.16,198.54Z"/><path class="cls-3" d="M126.48,108.21a.68.68,0,0,1-.79-.78A1,1,0,0,1,126.48,108.21Z"/><path class="cls-5" d="M136.73,134.17c-.1.46-.34.72-.85.58A.7.7,0,0,1,136.73,134.17Z"/><path class="cls-3" d="M125.65,107.39a.68.68,0,0,1-.78-.79A1,1,0,0,1,125.65,107.39Z"/><path class="cls-3" d="M168.81,90.32a.93.93,0,0,1,.25-.9C169.49,89.86,169.14,90.08,168.81,90.32Z"/><path class="cls-4" d="M140.79,82.7c.06.38,0,.71-.37.89C140.22,83.16,140.42,82.9,140.79,82.7Z"/><path class="cls-4" d="M141.63,80.33a.68.68,0,0,1-.3.78C141.09,80.71,141.27,80.49,141.63,80.33Z"/><path class="cls-3" d="M142.42,78.17c.07.4,0,.75-.41.91C141.84,78.64,142.1,78.39,142.42,78.17Z"/><path class="cls-3" d="M147.48,77.12c-.06-.36,0-.69.36-.86C148,76.68,147.83,76.93,147.48,77.12Z"/><path class="cls-3" d="M143.27,75.8c0,.32,0,.62-.31.79C142.69,76.18,143,76,143.27,75.8Z"/><path class="cls-5" d="M165.08,76.16a.73.73,0,0,1-.85-.71A.72.72,0,0,1,165.08,76.16Z"/><path class="cls-5" d="M85.83,40a1,1,0,0,1-.78,1.06A1,1,0,0,1,85.83,40Z"/><path class="cls-5" d="M124.42,141.57c-.11.45-.34.72-.85.58A.7.7,0,0,1,124.42,141.57Z"/><path class="cls-4" d="M227,198.11a.89.89,0,0,1-.33-1A.84.84,0,0,1,227,198.11Z"/><path class="cls-5" d="M151.82,125.09c0,.2-.14.27-.32.16Z"/><path class="cls-5" d="M173.05,191.8l.4.39C173.16,192.22,173,192.08,173.05,191.8Z"/><path class="cls-3" d="M215.19,65.8l.4-.22C215.53,65.8,215.41,65.88,215.19,65.8Z"/><path class="cls-1" d="M123,216.23a.58.58,0,0,1,.18.3l-.18.06A.24.24,0,0,1,123,216.23Z"/><path class="cls-3" d="M147.07,78.41l.23-.5Z"/><path class="cls-5" d="M163,74.42l-.32-.21Z"/><path class="cls-4" d="M112.67,220.67c0,.29,0,.59,0,.88C112.09,221.26,112.07,221,112.67,220.67Z"/><path class="cls-3" d="M142.56,180.53c-.51-.2-1,.46-1.66,0,.64-.45,1.11-1.54,1.65,0Z"/><path class="cls-3" d="M145,178.88c-.3-.09-.67-.07-.68-.58.59-.23.56.26.67.59Z"/></svg>