<svg id="Layer_1" data-name="Layer 1" xmlns="http://www.w3.org/2000/svg" viewBox="0 0 300 300"><path d="M126.90217,56.51314c10.41188,7.89893,20.57449,14.72075,29.6853,22.7288a36.01813,36.01813,0,0,1,6.169,47.10679c-6.31327,9.68131-13.44216,18.83548-20.6878,28.896-12.25559-9.68352-26.8556-15.867-35.95519-28.89986-8.5602-12.26022-9.97116-25.4704-1.9461-38.29354C110.91214,77.27386,119.01879,67.34123,126.90217,56.51314Z" fill="#05d0ff"/><path d="M245,141.917c-8.28121,10.83616-16.00443,21.02212-23.814,31.14192-10.969,14.2136-30.03052,14.81869-43.1858,8.387a53.50881,53.50881,0,0,1-5.74818-3.446c-8.81518-5.782-17.60635-11.60022-27.006-17.80126,7.86187-10.64493,15.22769-21.06332,23.06107-31.12086,11.86581-15.23488,32.425-15.279,45.27429-7.5278C224.01426,127.84339,234.05272,134.78483,245,141.917Z" fill="#081051"/><path d="M113.208,200.37117c5.10912,7.33884,10.08139,14.49941,15.07333,21.6463,4.8476,6.94026,9.71546,13.86653,15.04431,21.46939H114.87486c-5.22826-7.18339-10.68148-14.67593-16.53781-22.72229L82.40577,243.47972H55c10.0547-14.65248,19.72413-28.74355,29.48286-42.96469L56.61771,159.21328H84.98393c4.48238,6.81743,9.24173,14.05607,14.42755,21.9434,5.28581-7.898,10.11034-15.10675,14.9128-22.28256h27.94693C132.331,173.06693,122.86137,186.58791,113.208,200.37117Z" fill="#081051"/></svg>