<?xml version="1.0" encoding="utf-8"?>
<!-- Generator: Adobe Illustrator 24.2.3, SVG Export Plug-In . SVG Version: 6.00 Build 0)  -->
<svg version="1.1" id="Layer_1" xmlns="http://www.w3.org/2000/svg" xmlns:xlink="http://www.w3.org/1999/xlink" x="0px" y="0px"
	 viewBox="0 0 300 300" style="enable-background:new 0 0 300 300;" xml:space="preserve">
<style type="text/css">
	.st0{fill-rule:evenodd;clip-rule:evenodd;fill:#387EAF;}
	.st1{fill-rule:evenodd;clip-rule:evenodd;fill:#3B8341;}
	.st2{fill-rule:evenodd;clip-rule:evenodd;fill:#7EBEB4;}
	.st3{fill-rule:evenodd;clip-rule:evenodd;fill:#A1CA44;}
	.st4{fill-rule:evenodd;clip-rule:evenodd;fill:#F4CB46;}
	.st5{fill-rule:evenodd;clip-rule:evenodd;fill:#EA702E;}
	.st6{fill-rule:evenodd;clip-rule:evenodd;fill:#E73324;}
	.st7{fill-rule:evenodd;clip-rule:evenodd;fill:#666666;}
</style>
<path class="st0" d="M132.1,48.5c2,0.3,3.8-1.1,4.1-3.1s-1.1-3.8-3.1-4.1c-2-0.3-3.8,1.1-4.1,3.1c0,0.2,0,0.4,0,0.5
	C128.9,46.7,130.3,48.3,132.1,48.5z M164.5,59.3c1.8,0.8,4,0,4.8-1.9c0,0,0,0,0,0l0,0c0.8-1.9-0.1-4-1.9-4.8c-1.9-0.8-4,0.1-4.8,1.9
	C161.8,56.3,162.6,58.5,164.5,59.3L164.5,59.3z M127.4,80.9c1.3-0.2,2.3-1.4,2.1-2.7s-1.4-2.3-2.7-2.1c-1.3,0.2-2.3,1.4-2.1,2.7
	c0.1,1.1,1,2,2.1,2.1C127,80.9,127.2,80.9,127.4,80.9z M134.2,77.4c1.4,0.2,2.8-0.8,3-2.2c0.2-1.4-0.8-2.8-2.2-3c0,0,0,0,0,0l0,0
	c-1.4-0.2-2.7,0.8-3,2.2C131.8,75.8,132.8,77.2,134.2,77.4z M138.1,83.4c1.2,0.5,2.7,0,3.2-1.3s0-2.7-1.3-3.2s-2.7,0-3.2,1.3
	C136.3,81.5,136.9,82.9,138.1,83.4L138.1,83.4z M145.5,81.1c1.3,0.7,2.9,0.3,3.6-1c0.7-1.3,0.3-2.9-1-3.6c-1.3-0.7-2.9-0.3-3.6,1
	C143.7,78.8,144.2,80.4,145.5,81.1L145.5,81.1z M170.6,78.2c1.2,1.3,3.3,1.3,4.6,0.1c1.3-1.2,1.3-3.3,0.1-4.6
	c-1.2-1.3-3.3-1.3-4.6-0.1l0,0c0,0-0.1,0.1-0.1,0.1C169.4,74.9,169.4,76.9,170.6,78.2L170.6,78.2z M168.6,69
	c1.7,0.9,3.7,0.3,4.6-1.4c0.9-1.7,0.3-3.7-1.4-4.6c-1.7-0.9-3.7-0.3-4.6,1.4C166.3,66,166.9,68.1,168.6,69L168.6,69z M158.6,70.2
	c1.7,0.4,3.5-0.7,3.9-2.4c0.4-1.7-0.7-3.5-2.4-3.9c-1.7-0.4-3.5,0.7-3.9,2.4c-0.3,1.3,0.2,2.7,1.4,3.5
	C157.9,70,158.2,70.2,158.6,70.2L158.6,70.2z M154.1,61.1c1.7,0.7,3.8-0.1,4.5-1.8c0.7-1.7-0.1-3.8-1.8-4.5
	c-1.7-0.7-3.8,0.1-4.5,1.8c-0.7,1.5-0.1,3.3,1.3,4.2C153.7,61,153.9,61.1,154.1,61.1L154.1,61.1z M144.4,64.1c1.6,0.7,3.5,0,4.3-1.6
	c0.7-1.6,0-3.5-1.6-4.3c-1.6-0.7-3.5,0-4.3,1.6v0c0,0,0,0.1,0,0.1C142,61.6,142.8,63.4,144.4,64.1L144.4,64.1z M139.3,56.2
	c1.9,0.4,3.7-0.8,4.1-2.6c0.4-1.9-0.8-3.7-2.6-4.1c-0.1,0-0.2,0-0.3-0.1c-1.9-0.3-3.6,1-3.9,2.9C136.2,54.2,137.5,55.9,139.3,56.2
	L139.3,56.2L139.3,56.2z M130.3,60.8c1.8,0.1,3.3-1.2,3.5-3s-1.2-3.3-3-3.5c-1.8-0.1-3.3,1.2-3.5,3c0,0.1,0,0.1,0,0.2
	C127.3,59.3,128.6,60.7,130.3,60.8z M128.6,72c1.5,0.1,2.8-1.1,2.9-2.6c0.1-1.5-1.1-2.8-2.6-2.9c-1.5-0.1-2.8,1.1-2.9,2.6
	C126,70.6,127.1,71.9,128.6,72L128.6,72z M136.4,68c1.6,0.3,3.2-0.8,3.4-2.5s-0.8-3.2-2.5-3.4c-1.6-0.3-3.2,0.8-3.4,2.5v0
	c0,0.1,0,0.1,0,0.2C133.7,66.4,134.8,67.8,136.4,68L136.4,68z M140.8,74.9c1.4,0.6,3-0.1,3.6-1.5s-0.1-3-1.5-3.6
	c-1.4-0.6-3,0.1-3.6,1.5C138.8,72.7,139.4,74.3,140.8,74.9L140.8,74.9z M149.1,72.3c1.4,0.8,3.2,0.2,4-1.2c0.8-1.4,0.2-3.2-1.2-4
	s-3.2-0.2-4,1.2C147.2,69.7,147.7,71.5,149.1,72.3C149.1,72.3,149.1,72.3,149.1,72.3z M153.1,80.2c1.4,0.6,3-0.1,3.6-1.5
	s-0.1-3-1.5-3.6c-1.4-0.6-3,0.1-3.6,1.5C151,78,151.6,79.6,153.1,80.2L153.1,80.2z M161.7,79.1c1.4,0.8,3.3,0.3,4-1.2s0.3-3.3-1.2-4
	c-1.4-0.8-3.3-0.3-4,1.2l0,0C159.8,76.5,160.3,78.3,161.7,79.1L161.7,79.1z M131.5,88.3c1.2,0.2,2.3-0.6,2.5-1.8
	c0.2-1.2-0.6-2.3-1.8-2.5c-1.2-0.2-2.3,0.6-2.5,1.8c0,0,0,0,0,0l0,0C129.5,87,130.3,88.1,131.5,88.3L131.5,88.3z M125.8,91.2
	c1.1,0.1,2.1-0.8,2.2-1.9c0.1-1.1-0.8-2.1-1.9-2.2c-1.1-0.1-2.1,0.8-2.2,1.9l0,0C123.8,90.2,124.6,91.1,125.8,91.2L125.8,91.2z
	 M142.1,41.6c-2.1-0.7-3.2-2.9-2.5-5s2.9-3.2,5-2.5c2.1,0.7,3.2,2.9,2.5,5l0,0C146.5,41.2,144.3,42.3,142.1,41.6L142.1,41.6z
	 M160.3,47.7c-2.1-0.7-3.2-2.9-2.5-5l0,0c0.7-2.1,2.9-3.2,5-2.5s3.2,2.9,2.5,5S162.5,48.4,160.3,47.7L160.3,47.7z M176,56.2
	c-1.7-1.4-2-3.9-0.6-5.6c1.4-1.7,3.9-2,5.6-0.6c1.7,1.4,2,3.9,0.6,5.6C180.2,57.3,177.8,57.6,176,56.2C176.1,56.3,176,56.3,176,56.2
	L176,56.2z M133.9,32.2c-2.3-0.5-3.8-2.8-3.3-5.1l0-0.1c0.5-2.3,2.7-3.7,5-3.3l0.1,0c2.3,0.5,3.8,2.8,3.3,5.1
	C138.5,31.2,136.2,32.7,133.9,32.2z M171.6,44.5c-2-1.3-2.5-4-1.2-5.9s4-2.5,5.9-1.2c2,1.3,2.5,4,1.2,5.9
	C176.2,45.3,173.5,45.8,171.6,44.5L171.6,44.5z"/>
<path class="st1" d="M71.4,86c1.6-1.2,2-3.5,0.8-5.1s-3.5-2-5.1-0.8c-1.6,1.2-2,3.5-0.8,5.1c0,0,0,0,0,0l0,0
	C67.5,86.8,69.7,87.2,71.4,86L71.4,86z M103,73.5c1.9-0.6,3.1-2.6,2.5-4.5c-0.6-1.9-2.6-3.1-4.5-2.5C99,67,97.9,69.1,98.5,71l0,0
	C99,72.9,101.1,74,103,73.5C103,73.5,103,73.5,103,73.5L103,73.5z M88.5,113.8c1.1-0.8,1.3-2.3,0.5-3.4c-0.8-1.1-2.3-1.3-3.4-0.5
	c-1.1,0.8-1.3,2.3-0.5,3.4l0,0C85.9,114.4,87.5,114.7,88.5,113.8z M91.5,106.8c1.2-0.8,1.6-2.4,0.8-3.6c-0.8-1.2-2.4-1.5-3.6-0.7
	c0,0,0,0,0,0l0,0c-1.2,0.8-1.6,2.4-0.9,3.6s2.4,1.6,3.6,0.9l0,0L91.5,106.8z M98.3,109c1.3-0.4,2-1.7,1.7-3s-1.7-2-3-1.7
	s-2,1.7-1.7,3l0,0C95.6,108.6,97,109.3,98.3,109C98.3,109,98.3,109,98.3,109z M102.4,102.5c1.4-0.3,2.3-1.7,2.1-3.1
	s-1.7-2.3-3.1-2.1s-2.3,1.7-2.1,3.1l0,0C99.6,101.8,101,102.8,102.4,102.5z M119.8,84c1.8,0.1,3.3-1.2,3.5-3s-1.2-3.3-3-3.5
	c-1.8-0.1-3.3,1.2-3.5,3c0,0.1,0,0.2,0,0.2C116.8,82.5,118.1,83.9,119.8,84z M112.3,78.3c1.8-0.4,3-2.2,2.7-4c-0.4-1.8-2.2-3-4-2.7
	c-1.8,0.4-3,2.2-2.7,4v0C108.6,77.5,110.4,78.7,112.3,78.3z M105.4,85.7c1.7-0.5,2.7-2.3,2.3-4c-0.5-1.7-2.3-2.7-4-2.3
	s-2.7,2.3-2.3,4c0,0,0,0.1,0,0.1C102,85.2,103.8,86.1,105.4,85.7L105.4,85.7z M96.1,81.6c1.8-0.3,3-1.9,2.7-3.7c0-0.1,0-0.2-0.1-0.3
	c-0.4-1.8-2.2-3-4-2.7c-1.8,0.4-3,2.2-2.7,4C92.5,80.8,94.3,82,96.1,81.6C96.1,81.6,96.1,81.6,96.1,81.6L96.1,81.6z M90.7,90.1
	c1.7-0.5,2.7-2.3,2.3-4c-0.5-1.7-2.3-2.7-4-2.3c-1.7,0.5-2.7,2.3-2.3,4c0,0,0,0.1,0,0.1C87.3,89.6,89,90.6,90.7,90.1L90.7,90.1z
	 M81.7,87.3c1.6-1,2.1-3.1,1.2-4.7c-1-1.6-3.1-2.1-4.7-1.2c-1.6,1-2.1,3.1-1.2,4.7c0,0,0.1,0.1,0.1,0.1c0.8,1.6,2.8,2.2,4.4,1.3
	C81.6,87.5,81.7,87.5,81.7,87.3L81.7,87.3z M77.8,96.6c1.4-1.1,1.7-3.1,0.6-4.5s-3.1-1.7-4.5-0.6c-1.4,1.1-1.7,3.1-0.6,4.5
	c1.1,1.4,3,1.7,4.4,0.6C77.7,96.6,77.8,96.6,77.8,96.6L77.8,96.6z M83.7,106.3c1.2-0.9,1.5-2.6,0.6-3.8l0,0l0,0
	c-0.9-1.2-2.6-1.5-3.8-0.6l0,0c-1.2,0.9-1.5,2.6-0.6,3.8c0,0,0,0,0,0l0,0C80.8,106.9,82.6,107.2,83.7,106.3
	C83.8,106.3,83.8,106.3,83.7,106.3L83.7,106.3L83.7,106.3z M87.1,98.2c1.4-0.9,1.9-2.7,1-4.1c-0.9-1.4-2.7-1.9-4.1-1
	c-1.4,0.9-1.9,2.7-1,4.1l0,0l0,0C83.9,98.6,85.7,99.1,87.1,98.2z M94.9,100.7c1.5-0.4,2.3-2,1.8-3.4c-0.4-1.5-2-2.3-3.4-1.8
	c-1.5,0.4-2.3,2-1.8,3.4C91.9,100.3,93.5,101.1,94.9,100.7L94.9,100.7z M99.6,93.3c1.6-0.3,2.6-1.9,2.3-3.5
	c-0.3-1.6-1.8-2.6-3.4-2.3c0,0-0.1,0-0.1,0c-1.6,0.3-2.6,1.8-2.3,3.4l0,0C96.5,92.6,98,93.6,99.6,93.3L99.6,93.3z M107.7,96.8
	c1.5-0.5,2.3-2,1.8-3.5s-2-2.3-3.5-1.8s-2.3,2-1.8,3.5C104.7,96.5,106.2,97.3,107.7,96.8L107.7,96.8z M113.6,90.4
	c1.6-0.3,2.6-1.8,2.3-3.4v0c0,0,0-0.1,0-0.1c-0.3-1.6-1.9-2.6-3.5-2.3c-1.6,0.3-2.6,1.9-2.3,3.5C110.4,89.6,112,90.7,113.6,90.4
	C113.6,90.4,113.6,90.4,113.6,90.4L113.6,90.4z M96.4,116.8c1-0.6,1.4-2,0.7-3l0,0l0,0c-0.6-1-2-1.4-3-0.7c-1,0.7-1.3,2-0.7,3
	C94,117.1,95.3,117.4,96.4,116.8z M93.9,122.8c0.9-0.7,1.1-1.9,0.4-2.9c-0.7-0.9-1.9-1.1-2.9-0.4c-0.9,0.7-1.1,1.9-0.4,2.9
	c0,0,0,0,0,0l0,0C91.7,123.2,93,123.4,93.9,122.8z M74.4,74.2c-2,0.8-4.4-0.2-5.2-2.2c-0.8-2,0.2-4.4,2.2-5.2c2-0.8,4.4,0.2,5.2,2.2
	C77.5,71,76.5,73.3,74.4,74.2L74.4,74.2z M92.3,67.1c-2,0.8-4.4-0.2-5.2-2.2c-0.8-2,0.2-4.4,2.2-5.2s4.4,0.2,5.2,2.2l0,0
	C95.3,64,94.4,66.3,92.3,67.1C92.3,67.1,92.3,67.1,92.3,67.1L92.3,67.1z M110.1,63.6c-2.2,0.1-4-1.7-4.1-3.9c-0.1-2.2,1.7-4,3.9-4.1
	c2.2-0.1,4,1.7,4.1,3.9l0,0C114,61.7,112.3,63.5,110.1,63.6L110.1,63.6z M62.2,72.3c-2.1,1.1-4.7,0.2-5.7-1.9
	c-1.1-2.1-0.2-4.7,1.9-5.7c2.1-1.1,4.7-0.2,5.7,1.9l0,0C65.2,68.7,64.3,71.3,62.2,72.3z M99.1,57.5c-2.3,0.3-4.4-1.4-4.7-3.7
	c-0.3-2.3,1.4-4.4,3.7-4.7c2.3-0.3,4.4,1.4,4.7,3.7S101.4,57.2,99.1,57.5C99.1,57.5,99.1,57.5,99.1,57.5z"/>
<path class="st2" d="M48.9,153.7c0.6-1.9-0.4-4-2.3-4.6c-1.9-0.6-4,0.4-4.6,2.3c-0.6,1.9,0.4,4,2.3,4.6c0.2,0.1,0.4,0.1,0.6,0.2
	C46.7,156.4,48.4,155.3,48.9,153.7z M65.1,123.8c1.1-1.7,0.7-4-1-5.1c-1.7-1.1-4-0.7-5.1,1c-1.1,1.7-0.7,4,1,5.1c0,0,0,0,0,0l0,0
	C61.8,125.9,64,125.5,65.1,123.8C65.1,123.8,65.1,123.8,65.1,123.8L65.1,123.8z M80,164c0.3-1.3-0.5-2.6-1.8-2.9
	c-1.3-0.3-2.6,0.5-2.9,1.8c-0.3,1.3,0.5,2.6,1.8,2.9C78.3,166.1,79.6,165.3,80,164L80,164z M77.7,156.7c0.5-1.4-0.3-2.9-1.6-3.3
	c-1.4-0.5-2.9,0.3-3.3,1.6s0.3,2.9,1.6,3.3c0,0,0,0,0,0c0,0,0.1,0,0.1,0C75.8,158.8,77.3,158,77.7,156.7L77.7,156.7z M84.2,153.9
	c0.6-1.2,0.2-2.7-1-3.3c-1.2-0.6-2.7-0.2-3.3,1c-0.6,1.2-0.2,2.7,1,3.3c1,0.6,2.3,0.3,3.1-0.6C84.1,154.1,84.1,154,84.2,153.9
	L84.2,153.9z M83.2,146.3c0.9-1.1,0.7-2.8-0.4-3.7c-1.1-0.9-2.8-0.7-3.6,0.4c-0.9,1.1-0.7,2.8,0.4,3.6
	C80.7,147.6,82.3,147.4,83.2,146.3L83.2,146.3z M84.7,121c1.2-1.3,1.1-3.4-0.2-4.6c-1.3-1.2-3.4-1.1-4.6,0.2
	c-1.2,1.3-1.1,3.4,0.2,4.6c1,0.9,2.4,1.1,3.6,0.5C84.1,121.5,84.4,121.3,84.7,121L84.7,121z M75.3,121.4c-0.1,0.1-0.1,0.2,0,0.3
	c0.1,0.1,0.2,0.1,0.3,0c0.1-0.1,0.1-0.2,0-0.3c0,0,0,0,0,0H75.3z M74.9,131.6c1-1.5,0.6-3.5-0.8-4.5c-1.5-1-3.5-0.6-4.5,0.8
	c-1,1.5-0.6,3.5,0.8,4.5c0,0,0.1,0,0.1,0.1C72,133.5,73.9,133.1,74.9,131.6L74.9,131.6z M65.2,134.5c0.4,1.3-0.4,2.7-1.7,3.1
	c-1.3,0.4-2.7-0.4-3.1-1.7c-0.4-1.3,0.4-2.7,1.7-3.1c1.3-0.4,2.6,0.3,3,1.6l0,0L65.2,134.5z M66.5,144.5c0.7-1.6,0-3.5-1.7-4.3
	c-1.6-0.7-3.5,0-4.3,1.7c-0.7,1.6,0,3.5,1.7,4.3c1.3,0.6,2.7,0.2,3.7-0.8C66.2,145.1,66.4,144.8,66.5,144.5L66.5,144.5z M57.8,147.8
	c0.6-1.8-0.4-3.7-2.2-4.3s-3.7,0.4-4.3,2.2c-0.6,1.8,0.4,3.7,2.2,4.3h0c1.7,0.7,3.5-0.2,4.2-1.8C57.7,148.1,57.7,147.9,57.8,147.8z
	 M60.7,157.5c0.4-1.7-0.6-3.5-2.4-3.9c-1.7-0.4-3.5,0.6-3.9,2.4c-0.4,1.7,0.6,3.5,2.4,3.9c0,0,0.1,0,0.1,0
	C58.6,160.3,60.3,159.2,60.7,157.5L60.7,157.5z M71.5,161.1c0.3-1.5-0.6-3-2.1-3.3s-3,0.6-3.3,2.1s0.6,3,2.1,3.3l0,0l0.1,0
	C69.7,163.5,71.1,162.6,71.5,161.1L71.5,161.1z M68.9,152.8c0.5-1.5-0.3-3.2-1.9-3.7c-1.5-0.5-3.2,0.3-3.7,1.9s0.3,3.2,1.9,3.7
	C66.7,155.2,68.4,154.4,68.9,152.8L68.9,152.8z M76.4,149.6c0.8-1.3,0.5-3-0.8-3.8s-3-0.5-3.8,0.8c0,0,0,0,0,0l0,0
	c-0.8,1.3-0.5,3,0.8,3.8S75.6,150.9,76.4,149.6C76.4,149.6,76.4,149.6,76.4,149.6z M75.3,140.9c1-1.3,0.8-3.1-0.5-4.2
	s-3.1-0.8-4.2,0.5l0,0l0,0c-1,1.3-0.8,3.1,0.5,4.2S74.3,142.2,75.3,140.9L75.3,140.9z M83.8,138.4c0.8-1.3,0.5-3-0.8-3.8
	s-3-0.5-3.8,0.8s-0.5,3,0.8,3.8C81.2,140.1,82.9,139.7,83.8,138.4L83.8,138.4z M84.2,129.7c1-1.3,0.8-3.2-0.5-4.2
	c-1.3-1-3.2-0.8-4.2,0.5c-1,1.3-0.8,3.2,0.5,4.2l0,0l0,0C81.3,131.2,83.2,131,84.2,129.7L84.2,129.7z M88,161
	c0.4-1.1-0.2-2.3-1.3-2.7c0,0-0.1,0-0.1,0c-1.1-0.4-2.4,0.2-2.8,1.4l0,0c-0.5,1.1-0.1,2.4,1,2.9s2.4,0.1,2.9-1
	C87.9,161.4,87.9,161.2,88,161z M89.9,167.2c0.3-1.1-0.4-2.2-1.5-2.4s-2.2,0.4-2.4,1.5c-0.3,1.1,0.4,2.2,1.5,2.4
	C88.5,169,89.6,168.3,89.9,167.2L89.9,167.2z M43.9,142.6c-1,1.9-3.5,2.7-5.4,1.6c-1.9-1-2.7-3.5-1.6-5.4s3.5-2.7,5.4-1.6
	C44.2,138.3,44.9,140.7,43.9,142.6L43.9,142.6z M52.9,125.7c-1,1.9-3.5,2.7-5.4,1.6s-2.7-3.5-1.6-5.4c1-1.9,3.5-2.7,5.4-1.6l0,0
	C53.2,121.4,53.9,123.8,52.9,125.7L52.9,125.7z M64.1,111.6c-1.6,1.4-4.1,1.3-5.6-0.4c-1.4-1.6-1.3-4.1,0.4-5.6
	c1.6-1.4,4.1-1.3,5.6,0.4C65.9,107.7,65.7,110.2,64.1,111.6C64.1,111.6,64.1,111.6,64.1,111.6L64.1,111.6z M33.1,149.1
	c-0.9,2.1-3.4,3.1-5.6,2.2s-3.1-3.4-2.2-5.6c0.9-2.1,3.4-3.1,5.6-2.2C33.1,144.4,34.1,146.9,33.1,149.1L33.1,149.1z M51.9,114.1
	c-1.6,1.7-4.3,1.8-6,0.2s-1.8-4.3-0.2-6c1.6-1.7,4.3-1.8,6-0.2l0,0C53.4,109.6,53.5,112.3,51.9,114.1L51.9,114.1z"/>
<path class="st3" d="M75.3,219.9c-0.9-1.8-3.1-2.5-4.9-1.6c-1.8,0.9-2.5,3.1-1.6,4.9c0.9,1.8,3.1,2.5,4.9,1.6
	C75.5,223.9,76.2,221.7,75.3,219.9L75.3,219.9z M68.5,186.7c-0.9-1.2-2.6-1.4-3.8-0.5c-1.2,0.9-1.4,2.6-0.5,3.8
	c0.9,1.2,2.6,1.4,3.8,0.5C69.1,189.6,69.4,187.9,68.5,186.7L68.5,186.7L68.5,186.7z M105.7,207.9c-0.6-1.2-2-1.7-3.2-1.1h0l0,0
	c-1.2,0.6-1.7,2-1.1,3.2c0.6,1.2,2.1,1.7,3.3,1.1C105.8,210.6,106.3,209.1,105.7,207.9L105.7,207.9z M99.2,203.8
	c-0.5-1.3-1.9-1.9-3.2-1.5c-1.3,0.5-1.9,1.9-1.5,3.2c0.7,1.3,2.2,1.8,3.5,1.1c1.1-0.6,1.7-1.8,1.3-3L99.2,203.8z M102.5,197.3
	c-0.2-1.3-1.4-2.3-2.7-2.1s-2.3,1.4-2.1,2.7s1.4,2.3,2.7,2.1c0,0,0,0,0,0l0,0C101.7,199.8,102.6,198.6,102.5,197.3L102.5,197.3z
	 M96.8,192.1c0-1.4-1.2-2.6-2.7-2.6s-2.6,1.2-2.6,2.7s1.2,2.6,2.7,2.6l0,0C95.7,194.7,96.8,193.5,96.8,192.1z M81.7,171.8
	c0.4-1.7-0.6-3.5-2.3-3.9c-1.7-0.4-3.5,0.6-3.9,2.3c-0.4,1.7,0.6,3.5,2.3,3.9c0,0,0,0,0,0c0,0,0.1,0,0.1,0
	C79.5,174.5,81.2,173.5,81.7,171.8z M74.7,178.2c0-1.9-1.6-3.4-3.5-3.4s-3.4,1.6-3.4,3.5c0,1.9,1.6,3.4,3.5,3.4c0,0,0.1,0,0.1,0
	c1.8,0,3.2-1.4,3.2-3.2C74.7,178.4,74.7,178.3,74.7,178.2z M80.8,186.3c-0.5-1.7-2.4-2.6-4.1-2.1s-2.6,2.4-2.1,4.1
	c0.5,1.7,2.4,2.6,4.1,2.1c1.3-0.4,2.1-1.5,2.2-2.8C81,187.1,80.9,186.7,80.8,186.3L80.8,186.3z M75.2,194.7c0-1.9-1.6-3.4-3.5-3.4
	s-3.4,1.6-3.4,3.5c0,1.9,1.6,3.4,3.5,3.4c0,0,0.1,0,0.1,0C73.8,198.2,75.2,196.6,75.2,194.7L75.2,194.7z M82.6,201.5
	c-0.2-1.8-1.8-3.1-3.5-2.9c-1.8,0.2-3.1,1.8-2.9,3.5c0.2,1.8,1.8,3.1,3.5,2.9c0,0,0.1,0,0.1,0C81.5,204.8,82.8,203.3,82.6,201.5
	L82.6,201.5z M78.3,209.9c-0.7-1.8-2.7-2.6-4.4-2c-1.8,0.7-2.6,2.7-2,4.4c0.7,1.8,2.7,2.6,4.4,2l0,0C78.1,213.7,79,211.7,78.3,209.9
	C78.3,209.9,78.3,209.9,78.3,209.9L78.3,209.9z M86.8,215.4c-0.8-1.6-2.7-2.3-4.3-1.5c-1.6,0.8-2.3,2.7-1.5,4.3
	c0.8,1.6,2.7,2.3,4.3,1.5c0,0,0.1,0,0.1,0C86.8,218.8,87.5,217,86.8,215.4L86.8,215.4z M97.3,211.2c-0.6-1.3-2.2-1.9-3.6-1.3
	c0,0-0.1,0-0.1,0.1c-1.4,0.7-1.9,2.3-1.2,3.7c0.7,1.4,2.4,1.9,3.7,1.2C97.4,214.3,98,212.6,97.3,211.2
	C97.3,211.3,97.3,211.3,97.3,211.2L97.3,211.2z M90.1,206.5c-0.6-1.5-2.3-2.3-3.8-1.7l0,0c-1.5,0.6-2.3,2.3-1.7,3.8s2.3,2.3,3.8,1.7
	c0,0,0,0,0,0l0,0C89.9,209.7,90.6,208,90.1,206.5z M93.8,199.2c-0.3-1.5-1.7-2.5-3.2-2.3c-1.5,0.3-2.5,1.7-2.3,3.2
	c0.3,1.5,1.6,2.5,3.1,2.3c1.5-0.2,2.6-1.5,2.5-3v0C93.8,199.4,93.8,199.3,93.8,199.2L93.8,199.2z M87.3,193.3
	c-0.1-1.6-1.4-2.9-3-2.9c-1.6,0-2.9,1.3-2.9,2.9c0,0,0,0.1,0,0.1c0.1,1.6,1.5,2.9,3.1,2.8c1.6-0.1,2.9-1.5,2.8-3.1L87.3,193.3z
	 M92.2,186c-0.2-1.5-1.6-2.6-3.1-2.5s-2.6,1.6-2.5,3.1c0.2,1.5,1.6,2.6,3.1,2.5l0,0l0,0C91.3,188.9,92.4,187.5,92.2,186L92.2,186
	L92.2,186z M86.9,179c-0.1-1.6-1.4-2.9-3.1-2.9c-1.6,0.1-2.9,1.4-2.9,3.1c0.1,1.6,1.4,2.9,3,2.9C85.7,182,87,180.6,86.9,179
	C87,178.9,87,178.9,86.9,179c0-0.1,0-0.1,0-0.2V179z M110,200.6c-0.4-1.1-1.7-1.7-2.8-1.2h0l0,0c-1.2,0.3-1.9,1.5-1.6,2.7
	c0.3,1.2,1.5,1.9,2.7,1.6c0.2,0,0.3-0.1,0.4-0.2C109.9,203,110.4,201.8,110,200.6L110,200.6z M115.4,204.1c-0.5-1-1.7-1.4-2.7-0.9
	c0,0,0,0,0,0l0,0c-1,0.5-1.4,1.7-0.9,2.7l0,0c0.4,1,1.6,1.5,2.7,1.1c1-0.4,1.5-1.6,1.1-2.7C115.5,204.3,115.4,204.2,115.4,204.1z
	 M64.3,214.7c0.3,2.2-1.1,4.2-3.3,4.5c-2.2,0.3-4.2-1.1-4.5-3.3c-0.3-2.2,1.1-4.2,3.3-4.5c2.1-0.3,4.1,1,4.5,3.1
	C64.3,214.6,64.3,214.6,64.3,214.7L64.3,214.7z M60.4,195.9c0.5,2.1-0.9,4.2-3,4.7l-0.1,0c-2.1,0.5-4.2-0.9-4.7-3
	c-0.5-2.1,0.9-4.2,3-4.7c0,0,0.1,0,0.2,0l0,0c2.1-0.4,4.2,1,4.6,3.1c0,0,0,0.1,0,0.1L60.4,195.9z M60,178c-0.4,2.2-2.4,3.6-4.5,3.3
	s-3.6-2.4-3.3-4.5c0.4-2.2,2.4-3.6,4.5-3.3l0,0l0,0C58.9,173.8,60.3,175.8,60,178L60,178z M60.3,226.6c0.7,2.3-0.6,4.6-2.8,5.3
	c-2.3,0.7-4.6-0.6-5.3-2.8c-0.7-2.3,0.6-4.6,2.8-5.3l0,0C57.2,223,59.6,224.3,60.3,226.6L60.3,226.6z M52.1,187.7
	c-0.1,2.4-2.1,4.2-4.5,4c-2.4-0.1-4.2-2.1-4-4.5c0.1-2.4,2.1-4.2,4.5-4l0,0C50.4,183.3,52.2,185.3,52.1,187.7L52.1,187.7z"/>
<path class="st4" d="M138,253.8c-1.9-0.8-4,0.1-4.8,1.9c-0.8,1.9,0.1,4,1.9,4.8c1.9,0.8,4-0.1,4.8-1.9
	C140.7,256.7,139.9,254.6,138,253.8L138,253.8z M111.4,232.6c-1.4-1.4-3.7-1.5-5.1-0.1c0,0,0,0,0,0c0,0,0,0-0.1,0.1
	c-1.4,1.5-1.3,3.8,0.2,5.2s3.8,1.3,5.2-0.2c1.4-1.5,1.3-3.8-0.2-5.2V232.6z M153.5,225c-1.2-0.6-2.6,0-3.2,1.1c0,0,0,0.1-0.1,0.1
	c-0.6,1.2,0,2.7,1.2,3.2c0,0,0,0,0,0l0.1,0c1.2,0.5,2.7,0,3.2-1.3C155.3,227,154.7,225.6,153.5,225L153.5,225z M145.9,226
	c-1.3-0.7-2.9-0.3-3.6,1c-0.7,1.3-0.3,2.9,1,3.6c1.3,0.7,2.9,0.3,3.6-1C147.6,228.3,147.2,226.7,145.9,226L145.9,226z M144.4,219.1
	c-1.1-0.7-2.6-0.4-3.4,0.7c-0.7,1.1-0.4,2.6,0.7,3.4c1.1,0.7,2.6,0.4,3.4-0.7c0.6-0.9,0.5-2-0.1-2.8
	C144.9,219.4,144.7,219.2,144.4,219.1L144.4,219.1z M136.8,218.8c-0.9-1.1-2.6-1.2-3.7-0.2s-1.2,2.6-0.2,3.7
	c0.9,1.1,2.6,1.2,3.7,0.2l0,0C137.6,221.5,137.7,219.9,136.8,218.8C136.8,218.8,136.8,218.8,136.8,218.8
	C136.8,218.8,136.8,218.8,136.8,218.8L136.8,218.8z M112.1,212.9c-0.5-1.7-2.3-2.7-4-2.2c-1.7,0.5-2.7,2.3-2.2,4
	c0.5,1.7,2.3,2.7,4,2.2c0.4-0.1,0.7-0.3,1-0.5C112,215.6,112.5,214.2,112.1,212.9L112.1,212.9z M110.9,222.2
	c-1.3-1.4-3.4-1.5-4.8-0.3c-1.4,1.3-1.5,3.4-0.3,4.8s3.4,1.5,4.8,0.3C112.1,225.8,112.2,223.7,110.9,222.2L110.9,222.2z
	 M120.6,224.5c-1.3-1.2-3.3-1.2-4.6,0.1c-1.2,1.3-1.2,3.3,0.1,4.6c1.3,1.2,3.3,1.2,4.6-0.1c0,0,0,0,0,0c0.1-0.1,0.1-0.2,0.2-0.2
	c1.2-1.3,1.2-3.3,0-4.5L120.6,224.5z M121.8,234.6c-1.3-1.3-3.3-1.3-4.6-0.1s-1.3,3.3-0.1,4.6c1.2,1.2,3.1,1.3,4.4,0.3
	C122.9,238.2,123,236,121.8,234.6L121.8,234.6z M131.8,235c-1.2-1.3-3.3-1.3-4.6-0.1c-1.3,1.2-1.3,3.3-0.1,4.6
	c1.2,1.3,3.3,1.3,4.6,0.1c0,0,0.1-0.1,0.1-0.1C133,238.3,133,236.3,131.8,235L131.8,235z M133.9,244.1c-1.7-0.9-3.7-0.3-4.6,1.4
	s-0.3,3.7,1.4,4.6c1.7,0.9,3.7,0.3,4.6-1.4C136.2,247.1,135.5,245,133.9,244.1L133.9,244.1z M143.9,242.8c-1.6-0.7-3.5,0-4.3,1.6
	c-0.7,1.6,0,3.5,1.6,4.3s3.5,0,4.3-1.6c0,0,0,0,0,0c0,0,0-0.1,0-0.1C146.2,245.4,145.5,243.6,143.9,242.8L143.9,242.8z M149.3,232.9
	c-1.4-0.6-3,0-3.6,1.4l0,0c-0.6,1.4,0.1,3,1.5,3.6c1.4,0.6,3,0,3.6-1.4l0,0C151.3,235.2,150.7,233.5,149.3,232.9L149.3,232.9
	C149.3,232.9,149.3,232.9,149.3,232.9L149.3,232.9z M140.6,234c-1.4-0.8-3.3-0.3-4,1.2c-0.8,1.4-0.3,3.3,1.2,4
	c1.4,0.8,3.3,0.3,4-1.2c0,0,0,0,0,0l0,0C142.6,236.5,142.1,234.8,140.6,234L140.6,234z M138.8,226c-1.1-1.1-2.8-1.1-3.8,0l0,0
	c-1.1,1.1-1.1,2.8,0,3.9c1.1,1.1,2.8,1.1,3.9,0C139.9,228.8,139.9,227.1,138.8,226L138.8,226L138.8,226L138.8,226z M130.2,225.6
	c-1.1-1.2-3-1.4-4.2-0.3c-1.2,1.1-1.4,3-0.3,4.2c1.1,1.2,3,1.4,4.2,0.3l0,0l0,0C131.2,228.7,131.3,226.8,130.2,225.6L130.2,225.6z
	 M129.2,216.8c-1.1-1.1-2.8-1.1-3.8,0h0l0,0c-1.1,1.1-1.1,2.8,0,3.9c1.1,1.1,2.8,1.1,3.9,0C130.3,219.7,130.3,217.9,129.2,216.8
	L129.2,216.8z M120.7,214.9c-1-3-4.2-4.6-7.1-3.6c-3,1-4.6,4.2-3.6,7.1c1,3,4.2,4.6,7.1,3.6C120.1,221.1,121.7,217.9,120.7,214.9
	L120.7,214.9L120.7,214.9z M152.2,216.6c-1-0.6-2.3-0.2-2.9,0.8l0,0c0,0,0,0,0,0.1c-0.7,1-0.4,2.4,0.6,3c1,0.7,2.4,0.4,3-0.6
	c0.1-0.1,0.1-0.2,0.2-0.3C153.7,218.5,153.3,217.2,152.2,216.6L152.2,216.6z M158.7,215.8c-1-0.4-2.2,0-2.7,1.1l0,0
	c-0.4,1,0,2.2,1.1,2.7c1,0.4,2.2,0,2.7-1.1C160.2,217.5,159.7,216.2,158.7,215.8C158.7,215.8,158.7,215.8,158.7,215.8L158.7,215.8z
	 M126.3,256.8c1.7,1.4,2,3.9,0.6,5.6s-3.9,2-5.6,0.6c-1.7-1.4-2-3.9-0.6-5.6C122.1,255.7,124.5,255.4,126.3,256.8
	C126.3,256.8,126.3,256.8,126.3,256.8L126.3,256.8z M111.2,245c1.7,1.4,2,3.8,0.6,5.6c-1.4,1.7-3.8,2-5.6,0.6s-2-3.8-0.6-5.6
	C107,243.9,109.5,243.7,111.2,245L111.2,245z M99.3,231.5c1.2,1.8,0.6,4.3-1.3,5.4l0,0c-1.8,1.3-4.3,0.9-5.6-0.8s-0.9-4.3,0.8-5.6
	c0.2-0.1,0.4-0.3,0.6-0.4C95.6,229.1,98.1,229.6,99.3,231.5L99.3,231.5z M130.7,268.6c1.9,1.4,2.3,4.1,0.8,6c-1.4,1.9-4.1,2.3-6,0.8
	s-2.3-4.1-0.8-6c1.3-1.7,3.7-2.2,5.5-1.1C130.5,268.4,130.6,268.5,130.7,268.6L130.7,268.6z M99.5,244.1c1.2,2,0.6,4.6-1.4,5.9
	c-1.8,1.1-4.1,0.8-5.4-0.8c-1.4-1.8-1.1-4.5,0.8-5.9c0,0,0.1,0,0.1-0.1C95.4,241.8,98.1,242.2,99.5,244.1z"/>
<path class="st5" d="M207.9,239.4c-1.9,0.6-3,2.6-2.4,4.5c0.6,1.9,2.6,3,4.5,2.4c1.9-0.6,3-2.6,2.4-4.5
	C211.8,239.9,209.8,238.8,207.9,239.4L207.9,239.4z M173.9,240.3c-2-0.1-3.8,1.4-3.9,3.4s1.4,3.8,3.4,3.9c2,0.1,3.8-1.4,3.9-3.4l0,0
	C177.4,242.1,175.9,240.4,173.9,240.3L173.9,240.3z M201.4,207.3c-1.3,0.4-2,1.7-1.6,3c0.4,1.3,1.7,2,3,1.6c1.3-0.4,2-1.7,1.6-3v0
	l0,0C204,207.7,202.7,206.9,201.4,207.3L201.4,207.3z M196.1,212.9c-1.4,0.3-2.3,1.7-2,3.1c0.3,1.4,1.7,2.3,3.1,2
	c1.4-0.3,2.3-1.7,2-3.1C198.9,213.5,197.5,212.7,196.1,212.9L196.1,212.9z M190.4,208.6c-1.3-0.1-2.5,1-2.6,2.3
	c-0.1,1.3,1,2.5,2.3,2.6c1.3,0.1,2.5-1,2.6-2.3C192.8,209.8,191.8,208.6,190.4,208.6L190.4,208.6z M184.3,213.2
	c-1.4-0.2-2.8,0.8-3,2.2c-0.2,1.4,0.8,2.8,2.2,3c1.4,0.2,2.8-0.8,3-2.2l0,0C186.7,214.8,185.8,213.5,184.3,213.2L184.3,213.2z
	 M161.7,224.6c-1.6-0.7-3.5,0-4.3,1.6c-0.7,1.6,0,3.5,1.6,4.3c1.6,0.7,3.5,0,4.3-1.6v0c0,0,0-0.1,0-0.1
	C164,227.2,163.3,225.4,161.7,224.6L161.7,224.6z M166.7,232.5c-1.9-0.1-3.5,1.3-3.7,3.2s1.3,3.5,3.2,3.7c1.9,0.1,3.5-1.3,3.7-3.2
	c0.1-1.7-1-3.2-2.6-3.6C167.1,232.6,166.9,232.6,166.7,232.5L166.7,232.5z M175.7,227.9c-1.8-0.1-3.3,1.3-3.4,3.1
	c-0.1,1.8,1.3,3.3,3.1,3.4c1.8,0.1,3.3-1.3,3.4-3.1l0,0C178.8,229.6,177.5,228,175.7,227.9L175.7,227.9L175.7,227.9z M183,235
	c-1.9-0.3-3.6,1-3.9,2.9c-0.3,1.9,1,3.6,2.9,3.9c1.9,0.3,3.6-1,3.9-2.9l0,0c0.4-1.8-0.8-3.5-2.5-3.8C183.3,235,183.2,235,183,235z
	 M191.1,228.8c-1.8-0.1-3.3,1.2-3.5,3c-0.1,1.8,1.2,3.3,3,3.5c1.8,0.1,3.3-1.2,3.5-3c0-0.1,0-0.1,0-0.2
	C194.1,230.4,192.8,228.9,191.1,228.8L191.1,228.8z M198.7,234.6c-1.9,0.4-3.1,2.2-2.7,4.1c0.4,1.9,2.2,3.1,4.1,2.7
	c1.9-0.4,3.1-2.2,2.7-4.1C202.4,235.4,200.5,234.2,198.7,234.6L198.7,234.6z M205.5,227.2c-1.8,0.2-3,1.8-2.8,3.6
	c0.2,1.8,1.8,3,3.6,2.8c1.8-0.2,3-1.8,2.8-3.6c0-0.4-0.1-0.7-0.3-1.1C208.2,227.7,206.9,227,205.5,227.2L205.5,227.2z M203.3,216.1
	c-1.5,0.4-2.3,2-1.9,3.5s2,2.3,3.5,1.9s2.3-2,1.9-3.5l0,0l0-0.1C206.3,216.4,204.7,215.6,203.3,216.1
	C203.3,216.1,203.3,216.1,203.3,216.1L203.3,216.1z M197.3,222.5c-1.6,0.3-2.6,1.9-2.3,3.5c0,0,0,0,0,0l0,0c0.4,1.6,2.1,2.5,3.7,2.1
	c1.6-0.4,2.5-2.1,2.1-3.7c-0.4-1.6-2-2.5-3.6-2.1L197.3,222.5z M190.8,217.6c-1.5-0.1-2.8,1.1-2.9,2.6s1.1,2.8,2.6,2.9
	s2.8-1.1,2.9-2.6C193.5,219,192.4,217.7,190.8,217.6L190.8,217.6z M183.8,222.8c-1.6-0.3-3.2,0.8-3.4,2.5c-0.3,1.6,0.8,3.2,2.5,3.4
	c1.6,0.3,3.2-0.8,3.4-2.5c0-0.1,0-0.1,0-0.2C186.4,224.5,185.3,223.1,183.8,222.8L183.8,222.8z M177.3,216.7
	c-1.5-0.1-2.8,1.1-2.9,2.6s1.1,2.8,2.6,2.9s2.8-1.1,2.9-2.6C180,218.1,178.8,216.8,177.3,216.7L177.3,216.7z M169.5,220.7
	c-1.6-0.3-3.2,0.8-3.4,2.5c-0.3,1.6,0.8,3.2,2.5,3.4c1.6,0.3,3.2-0.8,3.4-2.5c0-0.1,0-0.1,0-0.2C172.2,222.4,171.1,221,169.5,220.7
	L169.5,220.7z M194.8,201.8c-1.2,0.3-1.9,1.4-1.7,2.6c0.3,1.2,1.4,1.9,2.6,1.7c1.2-0.3,1.9-1.4,1.7-2.6
	C197.1,202.3,196,201.6,194.8,201.8L194.8,201.8z M199.2,197.1c-1.1,0.3-1.7,1.5-1.4,2.5c0.3,1.1,1.5,1.7,2.5,1.4c0,0,0,0,0,0l0,0
	c1.1-0.3,1.7-1.5,1.4-2.5S200.3,196.7,199.2,197.1L199.2,197.1z M200.8,249.3c2.2,0.1,3.9,2,3.7,4.2s-2,3.9-4.2,3.7
	c-2.2-0.1-3.9-2-3.7-4.2c0.1-1.9,1.6-3.5,3.5-3.7C200.3,249.3,200.5,249.2,200.8,249.3L200.8,249.3z M181.6,249.8
	c2.2-0.1,4,1.7,4.1,3.9c0.1,2.2-1.7,4-3.9,4.1c-2.2,0.1-4-1.7-4.1-3.9v0l0,0C177.6,251.7,179.4,249.9,181.6,249.8L181.6,249.8z
	 M163.8,247.2c2,0.7,3.1,2.9,2.4,5c-0.7,2-2.9,3.1-5,2.4c-2-0.7-3.1-2.9-2.4-5C159.5,247.6,161.7,246.5,163.8,247.2
	C163.7,247.1,163.8,247.1,163.8,247.2L163.8,247.2z M211.7,255.3c2.3-0.3,4.5,1.4,4.8,3.7c0.3,2.3-1.4,4.5-3.7,4.8
	c-2.3,0.3-4.5-1.4-4.8-3.7l0,0l0,0C207.7,257.7,209.4,255.6,211.7,255.3L211.7,255.3z M172.1,256.6c2.2,0.7,3.5,3.1,2.7,5.4
	c-0.7,2.2-3.1,3.5-5.4,2.7s-3.5-3.1-2.7-5.4c0.6-2,2.7-3.2,4.7-2.9C171.6,256.5,171.8,256.5,172.1,256.6L172.1,256.6z"/>
<path class="st6" d="M252.1,183.5c-1.1,1.7-0.6,3.9,1.1,5c1.7,1.1,3.9,0.6,5-1.1c1.1-1.7,0.6-3.9-1.1-5
	C255.5,181.3,253.2,181.8,252.1,183.5L252.1,183.5z M226.6,206.1c-1.6,1.2-2,3.5-0.8,5.1s3.5,2,5.1,0.8s2-3.5,0.8-5.1l0,0
	C230.6,205.3,228.3,204.9,226.6,206.1C226.7,206.1,226.7,206.1,226.6,206.1L226.6,206.1z M226.6,163.2c-0.7,1.2-0.3,2.6,0.9,3.3
	c1.2,0.7,2.6,0.3,3.3-0.9c0.7-1.2,0.3-2.6-0.9-3.3c-1.1-0.7-2.5-0.3-3.2,0.7C226.7,163.1,226.7,163.2,226.6,163.2L226.6,163.2z
	 M226.3,170.9c-0.9,1.1-0.7,2.8,0.4,3.7c1.1,0.9,2.8,0.7,3.7-0.4c0.9-1.1,0.7-2.8-0.4-3.7C228.8,169.6,227.2,169.8,226.3,170.9
	L226.3,170.9z M219.1,171.2c-1.1,0.8-1.3,2.3-0.5,3.4c0.8,1.1,2.3,1.3,3.4,0.5c0,0,0,0,0,0l0,0c1.1-0.8,1.3-2.3,0.5-3.4
	C221.7,170.6,220.2,170.4,219.1,171.2C219.1,171.2,219.1,171.2,219.1,171.2z M217.4,178.7c-1.2,0.7-1.6,2.3-0.9,3.6c0,0,0,0,0,0l0,0
	c0.8,1.2,2.4,1.6,3.6,0.9c1.2-0.8,1.6-2.4,0.9-3.6C220.3,178.4,218.7,178,217.4,178.7C217.5,178.7,217.5,178.7,217.4,178.7
	L217.4,178.7z M207.4,202c-1.7,0.5-2.7,2.3-2.3,4s2.3,2.7,4,2.3c1.7-0.5,2.7-2.3,2.3-4l0,0c0,0,0-0.1,0-0.1
	C210.8,202.5,209.1,201.5,207.4,202L207.4,202z M216.4,204.8c-1.6,0.9-2.1,3-1.3,4.6c1,1.6,3.1,2.1,4.7,1.1c1.6-1,2.1-3.1,1.1-4.7
	c-1-1.6-3.1-2.1-4.7-1.1l0,0L216.4,204.8z M220.3,195.5c-1.2,1.3-1.1,3.4,0.2,4.6s3.4,1.1,4.6-0.2c1.2-1.3,1.1-3.4-0.2-4.6
	c-1-0.9-2.4-1.1-3.6-0.5C220.9,195,220.6,195.2,220.3,195.5L220.3,195.5z M230.4,196.2c-1.6,1-2.1,3.1-1.1,4.7
	c1,1.6,3.1,2.1,4.7,1.1c1.6-1,2.1-3.1,1.1-4.7C234.1,195.7,232,195.2,230.4,196.2C230.4,196.2,230.4,196.2,230.4,196.2L230.4,196.2z
	 M232.6,186.4c-1.5,1-1.8,3.1-0.8,4.5s3.1,1.8,4.5,0.8c1.5-1,1.8-3.1,0.8-4.5c0,0-0.1-0.1-0.1-0.1C236,185.7,234,185.4,232.6,186.4
	L232.6,186.4z M242,186c-1.2,1.5-0.9,3.6,0.6,4.8c1.5,1.2,3.6,0.9,4.8-0.6c1.2-1.5,0.9-3.6-0.6-4.8C245.3,184.3,243.2,184.5,242,186
	L242,186z M242.5,175.9c0.4,1.2,1.7,1.8,2.9,1.4c1.2-0.4,1.8-1.7,1.4-2.9c-0.4-1.2-1.7-1.8-2.9-1.4c-1.1,0.4-1.8,1.5-1.5,2.7
	c0,0,0,0.1-0.1,0.1L242.5,175.9z M233.6,168.9c-0.8,1.3-0.5,3,0.8,3.8s3,0.5,3.8-0.8c0.8-1.3,0.5-3-0.8-3.8
	C236.2,167.2,234.5,167.6,233.6,168.9L233.6,168.9z M233.2,177.6c-1,1.3-0.7,3.1,0.6,4.1c1.3,1,3.1,0.7,4.1-0.6s0.7-3.1-0.6-4.1l0,0
	c0,0-0.1,0-0.1-0.1c-1.3-1-3.1-0.8-4.1,0.4l0,0L233.2,177.6z M225.1,178c-1.2,0.9-1.5,2.6-0.6,3.8c0,0,0,0,0,0l0,0.1
	c0.9,1.2,2.6,1.5,3.8,0.6l0,0c1.2-0.9,1.5-2.7,0.6-3.9C228,177.3,226.3,177.1,225.1,178L225.1,178z M223.2,186.5
	c-1.4,0.8-1.8,2.7-1,4.1c0.8,1.4,2.7,1.8,4.1,1s1.8-2.7,1-4.1c0,0,0,0,0,0l0,0C226.4,186.1,224.6,185.7,223.2,186.5L223.2,186.5z
	 M214.4,186c-1.2,0.9-1.5,2.6-0.6,3.9s2.6,1.5,3.9,0.6s1.5-2.6,0.6-3.9l0,0l0,0C217.3,185.3,215.6,185,214.4,186
	C214.4,186,214.4,186,214.4,186L214.4,186z M211.1,194c-1.4,0.9-1.8,2.7-0.9,4.1c0.9,1.4,2.7,1.8,4.1,0.9c0,0,0,0,0,0l0,0
	c1.4-0.9,1.8-2.7,0.9-4.1C214.4,193.5,212.5,193.1,211.1,194C211.1,194,211.1,194,211.1,194z M218.1,163c-0.8,0.9-0.7,2.3,0.1,3.1
	c0.1,0.1,0.1,0.1,0.2,0.2c1,0.7,2.4,0.5,3.1-0.5s0.5-2.4-0.5-3.1C220.1,162,218.9,162.1,218.1,163z M218.4,156.5
	c-0.6,0.9-0.4,2.2,0.6,2.8c0.9,0.6,2.2,0.4,2.8-0.5l0,0c0.9-0.7,1-2,0.3-2.9c-0.7-0.9-2-1-2.9-0.3c-0.3,0.2-0.5,0.5-0.6,0.9H218.4z
	 M253.2,195.4c1.6-1.5,4.2-1.3,5.6,0.3s1.3,4.2-0.3,5.6c-1.6,1.5-4.2,1.3-5.6-0.3C251.4,199.4,251.5,196.9,253.2,195.4
	C253.2,195.4,253.2,195.4,253.2,195.4L253.2,195.4z M238.9,208.1c1.6-1.4,4.1-1.3,5.6,0.4c1.4,1.6,1.3,4.1-0.4,5.6
	c-1.6,1.4-4.1,1.3-5.6-0.4C237,212.1,237.2,209.6,238.9,208.1C238.8,208.1,238.8,208.1,238.9,208.1z M223.5,217.5
	c2-0.8,4.3,0.2,5.1,2.2l0,0.1c0.8,2-0.2,4.4-2.2,5.2s-4.4-0.2-5.2-2.2C220.4,220.7,221.4,218.4,223.5,217.5L223.5,217.5L223.5,217.5
	z M265.4,193.2c1.6-1.7,4.3-1.8,6-0.1s1.8,4.3,0.1,6c-1.6,1.7-4.3,1.8-6,0.2C263.9,197.6,263.8,194.9,265.4,193.2
	C265.4,193.2,265.4,193.2,265.4,193.2z M235.8,219.7c2.1-1,4.6-0.1,5.6,1.9s0.1,4.6-1.9,5.6c-2.1,1-4.6,0.1-5.6-1.9
	C232.9,223.3,233.7,220.8,235.8,219.7C235.8,219.7,235.8,219.7,235.8,219.7L235.8,219.7z"/>
<path class="st7" d="M202.7,58.9c1.4,1.4,3.7,1.4,5.1-0.1c1.4-1.4,1.4-3.7-0.1-5.1c-1.4-1.4-3.7-1.4-5.1,0.1
	C201.2,55.1,201.2,57.4,202.7,58.9L202.7,58.9z M220.4,88c0.9,1.8,3.1,2.5,4.9,1.6c1.8-0.9,2.5-3.1,1.6-4.9
	c-0.9-1.8-3.1-2.5-4.9-1.6C220.2,84,219.5,86.2,220.4,88L220.4,88z M178.1,80.5c1.1,0.7,2.6,0.4,3.4-0.7c0.7-1.1,0.4-2.6-0.7-3.4
	c-1.1-0.7-2.6-0.4-3.4,0.7c-0.6,0.9-0.5,2,0.1,2.8C177.7,80.2,177.9,80.4,178.1,80.5z M185.6,82.3c1,1.1,2.7,1.1,3.7,0.1
	c1.1-1,1.1-2.7,0.1-3.7s-2.7-1.1-3.7-0.1l0,0C184.7,79.6,184.7,81.2,185.6,82.3L185.6,82.3z M184.7,89.5c0.6,1.2,2.1,1.7,3.3,1.1
	s1.7-2.1,1.1-3.3c-0.6-1.2-2.1-1.7-3.3-1.1l0,0l-0.1,0C184.5,86.9,184.1,88.3,184.7,89.5L184.7,89.5L184.7,89.5L184.7,89.5z
	 M191.8,92.5c0.5,1.3,1.9,1.9,3.2,1.5c1.4-0.5,2.1-1.9,1.7-3.3c-0.5-1.4-1.9-2.1-3.3-1.7s-2.1,1.9-1.7,3.3c0,0,0,0,0,0
	C191.8,92.3,191.8,92.4,191.8,92.5L191.8,92.5z M213,106.4c0.2,1.8,1.8,3.1,3.5,2.9c1.8-0.2,3.1-1.8,2.9-3.5s-1.8-3.1-3.5-2.9
	c0,0-0.1,0-0.1,0C214.1,103.1,212.8,104.7,213,106.4L213,106.4z M217.3,98c0.7,1.7,2.7,2.6,4.4,1.9l0,0c1.7-0.6,2.6-2.4,2-4.1
	c0-0.1-0.1-0.2-0.1-0.3c-0.7-1.8-2.7-2.7-4.5-2c-1.8,0.7-2.7,2.7-2,4.5c0,0,0,0,0,0H217.3z M208.9,92.4c0.8,1.6,2.7,2.3,4.3,1.5
	c1.6-0.8,2.3-2.7,1.5-4.3s-2.7-2.3-4.3-1.5c0,0,0,0,0,0l-0.1,0C208.7,88.9,208.1,90.8,208.9,92.4L208.9,92.4z M211.3,82.7
	c0.7,1.8,2.7,2.6,4.4,1.9c1.7-0.7,2.6-2.7,1.9-4.4l0,0c-0.6-1.7-2.4-2.6-4.1-2l0,0c-0.1,0-0.2,0.1-0.3,0.1
	C211.4,78.9,210.6,80.9,211.3,82.7C211.2,82.7,211.2,82.7,211.3,82.7L211.3,82.7z M201.9,78.7c0.8,1.6,2.8,2.2,4.4,1.4
	c1.6-0.8,2.2-2.8,1.4-4.4s-2.8-2.2-4.4-1.4C201.7,75.1,201.1,77,201.9,78.7C201.9,78.6,201.9,78.6,201.9,78.7L201.9,78.7z
	 M203.1,69.3c1.3,1.4,3.4,1.6,4.8,0.3c1.4-1.3,1.6-3.4,0.3-4.8c-1.3-1.4-3.4-1.6-4.8-0.3l0,0c-1.4,1.1-1.6,3.1-0.5,4.5
	C203,69.2,203,69.2,203.1,69.3z M193.4,67.1c1.2,1.3,3.3,1.3,4.6,0.1c1.3-1.2,1.3-3.3,0.1-4.6c-1.2-1.3-3.3-1.3-4.6-0.1
	c0,0-0.1,0.1-0.1,0.1C192.2,63.8,192.2,65.8,193.4,67.1L193.4,67.1z M184.8,74.6c1.1,1,2.9,1,3.9-0.1c1-1.1,1-2.9-0.1-3.9l0,0
	c-1.1-1.1-2.8-1.1-3.9,0c-1.1,1.1-1.1,2.8,0,3.9c0,0,0,0,0,0l0,0L184.8,74.6z M193.4,76.6c1.1,1.2,2.9,1.3,4.2,0.3
	c1.2-1.1,1.3-3,0.3-4.2c-1.1-1.2-3-1.3-4.2-0.2C192.4,73.5,192.3,75.3,193.4,76.6L193.4,76.6z M192.2,84.7c0.7,1.4,2.3,1.9,3.7,1.2
	c1.4-0.6,2.1-2.2,1.6-3.6c-0.6-1.4-2.2-2.1-3.6-1.6c-0.2,0.1-0.3,0.1-0.5,0.2C192,81.6,191.5,83.3,192.2,84.7
	C192.2,84.6,192.2,84.6,192.2,84.7L192.2,84.7z M200.3,87.9c0.6,1.5,2.2,2.3,3.8,1.8s2.3-2.2,1.8-3.8s-2.2-2.3-3.8-1.8l0,0
	c0,0-0.1,0-0.1,0C200.4,84.7,199.7,86.4,200.3,87.9L200.3,87.9L200.3,87.9z M198.2,96.5c-1.2,0-2.1-1-2-2.2c0-1.2,1-2.1,2.2-2
	s2.1,1,2,2.2c0,1.1-0.9,2-2,2H198.2z M205.5,101.2c0.6,1.5,2.3,2.3,3.8,1.7l0,0c1.5-0.5,2.3-2.1,1.8-3.6c-0.6-1.5-2.3-2.3-3.9-1.7
	c-1.5,0.6-2.3,2.3-1.7,3.8c0,0,0,0,0,0l0,0L205.5,101.2z M176.4,88.8c0.8,0.9,2.2,1,3.1,0.2c0.9-0.8,1-2.2,0.2-3.1s-2.2-1-3.1-0.2
	c0,0,0,0,0,0l0,0C175.6,86.5,175.6,87.9,176.4,88.8L176.4,88.8L176.4,88.8z M170,87.4c0.8,0.8,2.1,0.7,2.9-0.1
	c0.8-0.8,0.7-2.1-0.1-2.9l0,0c-0.8-0.8-2-0.8-2.8,0l0,0C169.2,85.2,169.2,86.5,170,87.4L170,87.4z M214.9,60c-1-2-0.2-4.4,1.8-5.3
	c2-1,4.4-0.2,5.3,1.8c1,2,0.2,4.4-1.8,5.3c-1.7,0.9-3.8,0.4-5-1.2C215.1,60.4,215,60.2,214.9,60L214.9,60z M224.9,76.2
	c-1.1-1.9-0.6-4.3,1.3-5.5c1.9-1.1,4.3-0.6,5.5,1.3c1.1,1.9,0.6,4.3-1.3,5.5l0,0C228.5,78.7,226.1,78.1,224.9,76.2L224.9,76.2z
	 M231.4,92.9c-0.4-2.2,1-4.3,3.1-4.7c0,0,0,0,0,0c0,0,0.1,0,0.1,0c2.1-0.5,4.3,0.9,4.7,3c0.5,2.1-0.9,4.3-3,4.7s-4.3-0.9-4.7-3
	c0,0,0-0.1,0-0.1l0-0.1L231.4,92.9z M214.5,47.4c-1.2-2-0.6-4.6,1.4-5.9c2-1.2,4.6-0.6,5.9,1.4c1.2,2,0.6,4.6-1.4,5.9
	c-1.8,1.1-4.1,0.8-5.5-0.8C214.7,47.8,214.6,47.6,214.5,47.4z M235.5,81.2c-0.7-2.2,0.6-4.6,2.9-5.3c2.2-0.7,4.6,0.6,5.3,2.9
	c0.7,2.2-0.6,4.6-2.9,5.3C238.5,84.7,236.1,83.4,235.5,81.2L235.5,81.2z"/>
</svg>
