<svg id="Layer_1" data-name="Layer 1" xmlns="http://www.w3.org/2000/svg" viewBox="0 0 300 300"><path d="M138.66,225.34a5.51,5.51,0,0,1-5.51-5.51V191.37L113,211.5a5.51,5.51,0,1,1-7.79-7.79l38.92-38.92v55a5.51,5.51,0,0,1-5.5,5.51" fill="#383c7a"/><path d="M155.84,135.21v-55a5.51,5.51,0,1,1,11,0v28.46L187,88.51a5.5,5.5,0,1,1,7.79,7.78l-38.92,38.92" fill="#189dc2"/><path d="M144.16,135.21,105.24,96.29A5.5,5.5,0,1,1,113,88.51l20.12,20.12V80.17a5.51,5.51,0,1,1,11,0v55" fill="#189dc2"/><path d="M207.26,196.71a5.46,5.46,0,0,1-3.89-1.61l-38.92-38.92h55a5.51,5.51,0,1,1,0,11H191l20.13,20.12a5.51,5.51,0,0,1-3.9,9.4" fill="#189dc2"/><path d="M219.49,143.82h-55l38.92-38.92a5.51,5.51,0,0,1,7.79,7.79L191,132.81h28.46a5.51,5.51,0,1,1,0,11" fill="#189dc2"/><path d="M135.56,143.82h-55a5.51,5.51,0,1,1,0-11H109L88.85,112.69a5.5,5.5,0,0,1,7.78-7.79l38.93,38.92" fill="#189dc2"/><path d="M161.34,225.34a5.51,5.51,0,0,1-5.5-5.51v-55l38.92,38.92A5.51,5.51,0,1,1,187,211.5l-20.12-20.13v28.46a5.51,5.51,0,0,1-5.51,5.51" fill="#189dc2"/><path d="M92.74,196.71a5.51,5.51,0,0,1-3.89-9.4L109,167.19H80.51a5.51,5.51,0,1,1,0-11h55.05L96.63,195.1a5.46,5.46,0,0,1-3.89,1.61" fill="#189dc2"/></svg>