<svg id="Layer_1" data-name="Layer 1" xmlns="http://www.w3.org/2000/svg" viewBox="0 0 300 300"><path d="M167.44966,117.8926q-2.64495,14.51271-5.29406,29.04339-7.49316,40.99712-14.99091,81.99331c-2.20521,12.07037-4.47781,24.12952-6.5267,36.22647-.43252,2.55356-1.58693,2.96871-3.84436,2.94941-11.09107-.09492-22.18534-.15947-33.274.029-3.13334.05315-3.92681-.73812-3.34164-3.82435,2.77841-14.65324,5.39671-29.337,8.05243-44.01337q7.518-41.547,15.02152-83.09658c.57806-3.19186.31984-7.10993,2.11771-9.3591,2.19322-2.74383,5.8104.39526,8.846.609,11.85976.83522,22.4823-1.76721,31.47-9.85777A1.78644,1.78644,0,0,1,167.44966,117.8926Z" fill="#6e6f73"/><path d="M153.91614,107.9711c-26.22731.20243-37.62077-21.12375-29.5347-40.992,4.77669-11.7367,14.4785-17.80731,25.70211-22.20022,15.07663-5.901,30.79827-9.3382,46.56953-12.652,2.79133-.5865,3.85287-.43173,3.12374,2.975-3.855,18.01231-7.93482,35.94429-16.65556,52.38652C176.247,100.44926,165.5132,107.50275,153.91614,107.9711Z" fill="#e2022d"/></svg>