<svg xmlns="http://www.w3.org/2000/svg" xmlns:xlink="http://www.w3.org/1999/xlink" viewBox="0 0 300 300"><defs><linearGradient id="linear-gradient" x1="198.50883" y1="5822.18567" x2="189.90166" y2="5839.77843" gradientTransform="matrix(1, 0, 0, -1, 0, 6088)" gradientUnits="userSpaceOnUse"><stop offset="0" stop-color="#f0f1f1"/><stop offset="0.4969" stop-color="#54a7db"/><stop offset="1" stop-color="#3973b6"/></linearGradient><linearGradient id="linear-gradient-2" x1="186.94137" y1="5829.84888" x2="201.5324" y2="5829.84888" gradientTransform="matrix(1, 0, 0, -1, 0, 6088)" gradientUnits="userSpaceOnUse"><stop offset="0" stop-color="#5788c4"/><stop offset="1" stop-color="#2e398a"/></linearGradient><linearGradient id="linear-gradient-3" x1="124.8254" y1="6052.58166" x2="125.2734" y2="6032.31068" xlink:href="#linear-gradient"/><linearGradient id="linear-gradient-4" x1="117.31069" y1="6046.88771" x2="132.74459" y2="6046.88771" xlink:href="#linear-gradient-2"/><radialGradient id="radial-gradient" cx="6616.95385" cy="3217.04411" r="0.98032" gradientTransform="matrix(125.315, 0, 0, -124.612, -829055.15628, 401035.89244)" gradientUnits="userSpaceOnUse"><stop offset="0.4663" stop-color="#2e398a"/><stop offset="0.816" stop-color="#3973b6"/><stop offset="0.8957" stop-color="#54a7db"/><stop offset="1" stop-color="#f0f1f1"/></radialGradient><linearGradient id="linear-gradient-5" x1="256.96331" y1="6002.75839" x2="235.27283" y2="5991.39702" xlink:href="#linear-gradient"/><linearGradient id="linear-gradient-6" x1="249.61103" y1="5901.93779" x2="267.15968" y2="5901.93779" gradientTransform="matrix(1, 0, 0, -1, 0, 6088)" gradientUnits="userSpaceOnUse"><stop offset="0" stop-color="#3973b6"/><stop offset="0.5031" stop-color="#54a7db"/><stop offset="1" stop-color="#f0f1f1"/></linearGradient><linearGradient id="linear-gradient-7" x1="205.08768" y1="5974.10034" x2="222.51279" y2="5974.10034" gradientTransform="matrix(1, 0, 0, -1, 0, 6088)" gradientUnits="userSpaceOnUse"><stop offset="0" stop-color="#2e398a"/><stop offset="1" stop-color="#3973b6"/></linearGradient><linearGradient id="linear-gradient-8" x1="178.09697" y1="6018.12672" x2="202.56272" y2="6018.12672" xlink:href="#linear-gradient-7"/><linearGradient id="linear-gradient-9" x1="97.18794" y1="6024.75312" x2="118.75705" y2="6024.75312" xlink:href="#linear-gradient-7"/><linearGradient id="linear-gradient-10" x1="197.66114" y1="5910.43979" x2="219.23006" y2="5910.43979" xlink:href="#linear-gradient-7"/><linearGradient id="linear-gradient-11" x1="116.4785" y1="5983.04483" x2="138.04517" y2="5983.04483" xlink:href="#linear-gradient-7"/><linearGradient id="linear-gradient-12" x1="120.64602" y1="5910.31347" x2="140.98612" y2="5910.31347" xlink:href="#linear-gradient-7"/><linearGradient id="linear-gradient-13" x1="235.70721" y1="5944.27096" x2="253.69307" y2="5944.27096" xlink:href="#linear-gradient-7"/><linearGradient id="linear-gradient-14" x1="173.95611" y1="5870.30865" x2="198.92966" y2="5870.30865" xlink:href="#linear-gradient-7"/><linearGradient id="linear-gradient-15" x1="46.44334" y1="5974.32939" x2="64.42685" y2="5974.32939" xlink:href="#linear-gradient-7"/><linearGradient id="linear-gradient-16" x1="72.71787" y1="5932.60532" x2="90.14113" y2="5932.60532" xlink:href="#linear-gradient-7"/><linearGradient id="linear-gradient-17" x1="66.56541" y1="5880.43849" x2="86.9055" y2="5880.43849" xlink:href="#linear-gradient-2"/><linearGradient id="linear-gradient-18" x1="120.35203" y1="5846.014" x2="144.81523" y2="5846.014" xlink:href="#linear-gradient-7"/><linearGradient id="linear-gradient-19" x1="245.00913" y1="5998.95293" x2="254.7074" y2="5998.95293" xlink:href="#linear-gradient-2"/><linearGradient id="linear-gradient-20" x1="259.1897" y1="5902.14092" x2="268.00568" y2="5902.14092" xlink:href="#linear-gradient-2"/><linearGradient id="linear-gradient-21" x1="209.7151" y1="5974.24557" x2="217.90858" y2="5974.24557" xlink:href="#linear-gradient-2"/><linearGradient id="linear-gradient-22" x1="183.18677" y1="6017.99631" x2="197.93759" y2="6017.99631" xlink:href="#linear-gradient-2"/><linearGradient id="linear-gradient-23" x1="101.80885" y1="6024.70868" x2="114.13496" y2="6024.70868" xlink:href="#linear-gradient-2"/><linearGradient id="linear-gradient-24" x1="121.10089" y1="5983.20689" x2="133.42493" y2="5983.20689" xlink:href="#linear-gradient-2"/><linearGradient id="linear-gradient-25" x1="125.25694" y1="5910.68178" x2="136.37177" y2="5910.68178" xlink:href="#linear-gradient-2"/><linearGradient id="linear-gradient-26" x1="178.98709" y1="5870.32914" x2="194.30534" y2="5870.32914" xlink:href="#linear-gradient-2"/><linearGradient id="linear-gradient-27" x1="240.31764" y1="5944.4635" x2="249.06794" y2="5944.4635" xlink:href="#linear-gradient-2"/><linearGradient id="linear-gradient-28" x1="27.58689" y1="5918.77404" x2="46.11238" y2="5918.77404" xlink:href="#linear-gradient"/><linearGradient id="linear-gradient-29" x1="29.98528" y1="5918.4966" x2="38.16114" y2="5918.4966" xlink:href="#linear-gradient-7"/><linearGradient id="linear-gradient-30" x1="80.13863" y1="5829.64116" x2="91.13847" y2="5847.70838" xlink:href="#linear-gradient"/><linearGradient id="linear-gradient-31" x1="78.81632" y1="5838.76269" x2="91.95637" y2="5838.76269" xlink:href="#linear-gradient-7"/><linearGradient id="linear-gradient-32" x1="51.06808" y1="5974.68828" x2="59.81799" y2="5974.68828" xlink:href="#linear-gradient-2"/><linearGradient id="linear-gradient-33" x1="71.17642" y1="5880.80692" x2="82.29174" y2="5880.80692" xlink:href="#linear-gradient-7"/><linearGradient id="linear-gradient-34" x1="124.96676" y1="5846.1116" x2="139.71857" y2="5846.1116" xlink:href="#linear-gradient-2"/><linearGradient id="linear-gradient-35" x1="56.32268" y1="6026.73104" x2="82.45526" y2="6006.55143" xlink:href="#linear-gradient"/><linearGradient id="linear-gradient-36" x1="58.69014" y1="6020.5935" x2="70.26551" y2="6020.5935" xlink:href="#linear-gradient-7"/><linearGradient id="linear-gradient-37" x1="230.57242" y1="5872.49756" x2="247.02017" y2="5865.09225" xlink:href="#linear-gradient-6"/><linearGradient id="linear-gradient-38" x1="240.75734" y1="5867.3728" x2="248.61163" y2="5863.5378" xlink:href="#linear-gradient-2"/></defs><g id="Layer_1-2" data-name="Layer 1"><path id="Vector" d="M191.17046,250.27753a14.64091,14.64091,0,0,0-8.34543,8.85225l-.55584,1.93613,1.11265,1.93711c2.50373,4.42514,8.62384,5.53191,14.744,3.31935,5.8417-2.49,9.45809-7.19259,8.34543-11.89516l-.83523-2.49-1.94692-1.10579A15.24273,15.24273,0,0,0,191.17046,250.27753Z" fill="url(#linear-gradient)"/><path id="Vector_2" data-name="Vector 2" d="M192.84092,254.42426a9.76547,9.76547,0,0,0-5.84171,6.08581c1.11266,2.21355,5.00746,2.76645,8.90225,1.10678,3.89382-1.38322,6.12012-4.42613,5.5633-6.91614A11.59419,11.59419,0,0,0,192.84092,254.42426Z" fill="url(#linear-gradient-2)"/><path id="Vector_3" data-name="Vector 3" d="M113.00123,38.93439l-.55614,1.93632,1.11246,1.93642a15.64068,15.64068,0,0,0,10.57105,6.639A14.88992,14.88992,0,0,0,135.813,45.85l1.66849-1.38313V42.53048c0-4.97922-4.729-9.12862-11.12659-9.95848C119.95588,31.7421,114.39229,34.50837,113.00123,38.93439Z" fill="url(#linear-gradient-3)"/><path id="Vector_4" data-name="Vector 4" d="M124.68443,45.0201a10.50685,10.50685,0,0,0,8.068-2.48962c0-2.48961-3.05957-4.70267-7.23277-5.25586-3.8947-.55329-7.511.82983-8.34574,3.0428A10.50513,10.50513,0,0,0,124.68443,45.0201Z" fill="url(#linear-gradient-4)"/><path id="Vector_5" data-name="Vector 5" d="M271.01035,157.3308v-3.31935a10.88483,10.88483,0,0,0,3.8948-6.91612,10.25769,10.25769,0,0,0-4.45064-9.6816v-1.10679c0-.82935-.27841-1.93612-.27841-2.76645a10.827,10.827,0,0,0,1.66949-8.85127,10.65906,10.65906,0,0,0-4.45162-5.80965,8.05735,8.05735,0,0,1-.55584-2.48932,1.01249,1.01249,0,0,0-.27841-.83013,6.47649,6.47649,0,0,1-.55683-2.213c-.27741-.55329-.27741-1.10658-.55584-1.383a9.9418,9.9418,0,0,0,.83427-7.46884,10.40356,10.40356,0,0,0-6.676-6.91583V97.303a25.66109,25.66109,0,0,1-1.39106-2.76616.96375.96375,0,0,0-.27841-.55339,10.26247,10.26247,0,0,0-1.66948-9.682,9.86879,9.86879,0,0,0-6.67595-3.87244c-.55683,0-.55683-.27684-.83426-.55329-.55681-.83013-1.11363-1.38313-1.66947-2.21326-.55683-.82974-1.39107-1.65958-1.94691-2.48942a.27155.27155,0,0,0-.27841-.27674,10.30861,10.30861,0,0,0-10.01491-11.06483q-.83523-.82993-1.66948-1.65987c-.27742-.27655-.83425-.82984-1.11167-1.10668a9.99638,9.99638,0,0,0-5.00746-9.405,9.70365,9.70365,0,0,0-7.78959-.82984,15.518,15.518,0,0,0-2.22532-1.38313q-1.25286-.82994-2.50373-1.65977c-.55683-.27665-.83425-.55329-1.39108-.82984a9.25257,9.25257,0,0,0-4.729-5.53252,11.116,11.116,0,0,0-7.78959-1.10658c-.83426-.27654-1.39108-.82983-2.22532-1.10648-1.11266-.55319-2.22533-.82984-3.338-1.38313a9.78532,9.78532,0,0,0-5.00746-6.91558,10.97542,10.97542,0,0,0-12.24023,1.3831h-.27841c-1.11265-.27662-1.9469-.55324-3.05957-.82986h-.55681a10.97685,10.97685,0,0,0-6.95436-3.87275,10.0966,10.0966,0,0,0-6.95437,1.65976h-.55681c-1.11267,0-1.94692-.27662-3.05957-.27662h-3.339a9.10289,9.10289,0,0,0-6.39753-3.87276,10.36083,10.36083,0,0,0-9.73651,4.426H135.813c-.83524,0-1.94789.27662-2.78215.27662h-.2784a10.55953,10.55953,0,0,0-8.62384-1.65974,10.70234,10.70234,0,0,0-5.84191,4.426,6.31038,6.31038,0,0,1-2.50352,1.10648,1.02546,1.02546,0,0,0-.83445.27661c-.83474.27666-1.39107.55328-2.22552.8299-.55642.27658-1.11275.27658-1.39116.55322a10.10076,10.10076,0,0,0-7.5107-.82984,10.40871,10.40871,0,0,0-6.95465,6.639c-.83465.55319-1.66909.82984-2.50383,1.38313a.97381.97381,0,0,0-.55642.27655h-.278a11.59293,11.59293,0,0,0-4.451-.5532H87.68652c-.27831,0-.27831,0-.55633.27665a.97231.97231,0,0,0-.55643.27655c-.27831,0-.27831,0-.55633.27664-.27841,0-.55643.27665-.83474.27665a.27187.27187,0,0,0-.278.27664c-.27841.27665-.83474.55319-1.11285.82984a9.794,9.794,0,0,0-3.8946,6.639c-.27812.27665-.55643.27665-.55643.5533-.83444.55329-1.39078,1.10648-2.22551,1.65977-.83445.55319-1.66889,1.38313-2.50363,1.93632l-.278.27664a9.62568,9.62568,0,0,0-5.56378,1.10658.974.974,0,0,0-.55643.27645c-.278.27684-.55633.27684-.83445.55329-.27831.27655-.55633.5533-.83474.5533a10.01827,10.01827,0,0,0-3.05986,7.19238q-.83464.82994-1.66918,1.65958c-.278.55329-.83445.82973-1.11276,1.38313a10.08009,10.08009,0,0,0-9.45829,4.97932A9.55312,9.55312,0,0,0,50.4096,80.982a6.92527,6.92527,0,0,0-1.11276,1.93633q-.8345,1.24519-1.66908,2.4897c-.27822.55339-.55633.82984-.83455,1.38313a9.27562,9.27562,0,0,0-5.56378,4.70258,10.9438,10.9438,0,0,0-1.11266,7.74567c-.27821.82974-.83454,1.383-1.11276,2.21287s-.83454,1.93642-1.11275,2.76616c0,.27684-.27822.27684-.27822.55339a9.83409,9.83409,0,0,0-6.95461,4.97932,10.40766,10.40766,0,0,0,1.66912,12.17141q-.41727,1.65957-.83454,3.31955v.55289a10.88623,10.88623,0,0,0-3.89461,6.91613,9.95319,9.95319,0,0,0,1.6691,6.91516v.55388c0,1.10579-.27818,2.21257-.27818,3.04289v3.31936a9.79377,9.79377,0,0,0-3.89459,6.91514,10.25954,10.25954,0,0,0,4.451,9.6826v.82934c0,.82934.27819,1.93613.27819,2.76646v.27644a10.40529,10.40529,0,0,0-1.66912,8.57482,10.65748,10.65748,0,0,0,4.451,5.80935,2.15681,2.15681,0,0,0-.27819,2.21357,1.01152,1.01152,0,0,0,.27819.82934c.2782.83033.55635,1.38323.83455,2.21356.27819.5529.27819,1.10678.55639,1.38322a10.0795,10.0795,0,0,0,5.84188,14.38419c.27821.82934.83454,1.65967,1.11275,2.489a.96379.96379,0,0,0,.27812.55388.2713.2713,0,0,0,.27821.27645,11.2294,11.2294,0,0,0,1.66919,10.23549,9.87185,9.87185,0,0,0,6.67644,3.87224c0,.27645.27812.27645.27812.55388a15.35649,15.35649,0,0,0,1.66918,2.21258,15.35576,15.35576,0,0,0,1.66909,2.21256c0,.27744.27821.27744.27821.55388a10.30992,10.30992,0,0,0,10.01452,11.06484c.55633.55289,1.11276,1.10677,1.39107,1.38322.55643.55291.83444.82935,1.39077,1.38323a9.99492,9.99492,0,0,0,5.00746,9.40515,11.116,11.116,0,0,0,7.7891,1.10678,15.64587,15.64587,0,0,0,2.22551,1.38322c.83474.55291,1.39117.82935,2.22552,1.38225a5.82637,5.82637,0,0,1,1.66918,1.10677,9.25077,9.25077,0,0,0,4.72915,5.53292,11.10978,11.10978,0,0,0,7.789,1.10579c.55643.27743,1.39117.55388,1.9475.83033,1.11275.55289,2.22561.82935,3.33837,1.38322h.278a9.78351,9.78351,0,0,0,5.00745,6.91515,10.55548,10.55548,0,0,0,12.24013-1.65967c1.11275.27645,1.9472.55388,3.05956.83033.27842,0,.55683,0,.55683.27645a10.9765,10.9765,0,0,0,6.95436,3.87224,8.99651,8.99651,0,0,0,6.95437-1.93611h.2784c1.11266,0,2.22532.27644,3.06055.27644h3.338a9.87661,9.87661,0,0,0,6.95436,3.87324,10.10839,10.10839,0,0,0,9.73649-4.42613h.55683c1.11265,0,1.9469-.27646,3.05957-.27646h.27841a10.56243,10.56243,0,0,0,8.62384,1.65968,10.70417,10.70417,0,0,0,5.8417-4.42613c.83425-.27644,1.39107-.27644,2.22532-.55388.27841,0,.55681,0,.55681-.27644a5.18536,5.18536,0,0,1,1.94692-.55291c.55681-.27645,1.39106-.27645,1.94789-.5529a10.1009,10.1009,0,0,0,7.5102.82936h.2784c.27842,0,.83426-.27646,1.11267-.27646a.27208.27208,0,0,0,.27841-.27645c.2784-.27645.55681-.27645.83523-.55289a.27171.27171,0,0,0,.27742-.27744l.83524-.82934q.41615-.41467.83424-.83033a15.69615,15.69615,0,0,0,2.22532-3.5958c.83425-.27644,1.66949-.83032,2.50373-1.10677a.96992.96992,0,0,0,.55584-.27645c.27841,0,.27841-.27646.55682-.27646a14.43341,14.43341,0,0,0,3.05957.55291,5.45822,5.45822,0,0,0,2.22629-.27645h.27841c.27743,0,.27743,0,.55584-.27646a.974.974,0,0,0,.55682-.27645c.27744,0,.27744,0,.55585-.27742.2784,0,.55681-.27646.83424-.27646a.27207.27207,0,0,0,.27841-.27644c.2784-.27645.55683-.27645.83523-.5529a9.79456,9.79456,0,0,0,3.89382-6.6387c.27841,0,.27841-.27744.55681-.27744.83425-.55289,1.39108-1.10578,2.22532-1.65967.83425-.55289,1.66949-1.38322,2.50373-1.93613.27841,0,.27841-.27644.55682-.27644a11.46534,11.46534,0,0,0,7.23179-1.93612,10.08251,10.08251,0,0,0,3.8948-7.74548c.55681-.55388.83523-1.10677,1.39108-1.38323.55681-.55387.83521-.83033,1.39106-1.38323a10.08032,10.08032,0,0,0,9.45808-5.25645,9.54941,9.54941,0,0,0,.83426-7.74548c.27841-.55289.83522-1.10579,1.11363-1.65967q.83376-1.244,1.66851-2.489a5.786,5.786,0,0,1,1.11265-1.65969,9.27608,9.27608,0,0,0,5.56427-4.70354,10.93764,10.93764,0,0,0,1.11267-7.74451c.27841-.55388.55681-1.38322.83425-1.9371.2784-.82934.83424-1.93613,1.11265-3.04291,0-.27645.27842-.27645.27842-.55289a10.92779,10.92779,0,0,0,7.23277-4.979,10.40739,10.40739,0,0,0-1.66949-12.17161c.27843-1.10677.55683-1.93613.83524-3.04291v-.27644a9.79284,9.79284,0,0,0,3.89381-6.91614,9.951,9.951,0,0,0-1.66849-6.91515v-.83033C271.01035,159.26693,271.01035,158.43758,271.01035,157.3308Z" fill="url(#radial-gradient)"/><path id="Vector_6" data-name="Vector 6" d="M244.02617,77.93735l-1.9469.82984-.83524,1.93632a15.03658,15.03658,0,0,0,1.11364,12.44825A15.6152,15.6152,0,0,0,252.3716,100.344l1.94789.553,1.66948-1.10629c3.89381-3.043,4.45064-9.1287,1.11265-14.93786C254.04108,79.32048,248.75522,76.55422,244.02617,77.93735Z" fill="url(#linear-gradient-5)"/><path id="Vector_7" data-name="Vector 7" d="M262.66591,174.75985a14.79277,14.79277,0,0,0-8.90226,8.85127,14.49665,14.49665,0,0,0,1.11266,12.17161l1.11266,1.65968,1.94789.55388c4.729,1.10678,10.01392-2.49,12.23924-8.85227,2.2263-6.08579.83524-11.89514-3.338-14.10772l-1.94692-1.10678Z" fill="url(#linear-gradient-6)"/><path id="Vector_8" data-name="Vector 8" d="M212.03551,101.45141h-2.22532l-1.39106,1.65987a15.0929,15.0929,0,0,0-3.06056,12.17141,14.64878,14.64878,0,0,0,7.23278,9.95845l1.66948,1.10677,1.9469-.55388c4.72905-1.65967,7.23278-7.19179,5.84171-13.83079C220.93678,105.87754,216.76456,101.45141,212.03551,101.45141Z" fill="url(#linear-gradient-7)"/><path id="Vector_9" data-name="Vector 9" d="M179.20962,65.49371,178.097,67.43013l.83425,1.93641A14.79951,14.79951,0,0,0,188.1109,77.942a15.84419,15.84419,0,0,0,12.24022-1.10658l1.66948-1.10658.55584-1.93612c1.11364-4.703-2.78116-9.95854-8.90127-11.895C187.27665,59.96139,181.43494,61.34442,179.20962,65.49371Z" opacity="0.97" fill="url(#linear-gradient-8)" style="isolation:isolate"/><path id="Vector_10" data-name="Vector 10" d="M102.43018,56.91466A13.37,13.37,0,0,0,97.423,66.87321a7.171,7.171,0,0,0,1.11276,4.14928l1.11247,1.93642,2.22551.27675c4.45113.55338,8.90215-.55329,11.96211-3.5963A15.27115,15.27115,0,0,0,118.843,58.57454V56.63821L117.17414,55.255C113.55755,51.93544,107.15922,52.48873,102.43018,56.91466Z" fill="url(#linear-gradient-9)"/><path id="Vector_11" data-name="Vector 11" d="M202.85583,171.16209a14.29341,14.29341,0,0,0-5.00745,11.06581V184.164l1.66948,1.38322c3.61541,3.31935,10.01392,2.489,15.02138-1.65968,4.72905-4.14967,6.39852-9.959,3.89479-14.10773l-1.11266-1.9371-2.22532-.27645C210.367,167.28983,205.9154,168.39662,202.85583,171.16209Z" fill="url(#linear-gradient-10)"/><path id="Vector_12" data-name="Vector 12" d="M121.62526,98.68133a13.37,13.37,0,0,0-5.00706,9.95845,7.17282,7.17282,0,0,0,1.11246,4.14928l1.11276,1.93642,2.22551.27684c4.45074.553,8.90235-.55329,11.96191-3.59629a14.29164,14.29164,0,0,0,5.00746-11.06483V98.40478l-1.66947-1.38312C132.75244,93.42536,126.63232,94.25521,121.62526,98.68133Z" fill="url(#linear-gradient-11)"/><path id="Vector_13" data-name="Vector 13" d="M122.73763,168.39759c-3.33837,3.5958-2.50363,9.95806,1.66938,14.93708,4.17222,4.70258,10.01392,6.36226,14.18713,3.87324l1.94691-1.10678.27841-2.21258a14.058,14.058,0,0,0-3.61639-11.89516,15.43473,15.43473,0,0,0-11.12756-4.98H124.1286Z" fill="url(#linear-gradient-12)"/><path id="Vector_14" data-name="Vector 14" d="M245.13981,132.1553A14.78384,14.78384,0,0,0,236.516,141.284a13.99216,13.99216,0,0,0-.83425,4.70258,14.98893,14.98893,0,0,0,1.9469,7.469l1.11267,1.65968,1.94789.5529c4.729,1.10677,10.01392-2.76645,11.96181-8.85226,1.9469-6.0858.55584-11.89417-3.61638-14.10773l-1.94789-1.10677Z" fill="url(#linear-gradient-13)"/><path id="Vector_15" data-name="Vector 15" d="M185.05133,209.33854a14.7186,14.7186,0,0,0-10.01393,7.19259l-1.11267,1.65967.55584,1.93613c1.66948,4.70257,7.23278,7.19257,13.90972,5.80934,6.11912-1.38322,10.57074-5.5329,10.57074-10.23547v-2.21357l-1.66947-1.38223A16.24457,16.24457,0,0,0,185.05133,209.33854Z" fill="url(#linear-gradient-14)"/><path id="Vector_16" data-name="Vector 16" d="M47.34974,110.58364c-1.9473,6.08571-.55643,11.89487,3.61639,14.10754l1.9473,1.10677,1.9473-.83033a15.04891,15.04891,0,0,0,8.62364-8.85166,15.59487,15.59487,0,0,0-1.11275-12.17131l-1.11276-1.66-1.94721-.553C54.58251,100.6251,49.57515,104.49794,47.34974,110.58364Z" fill="url(#linear-gradient-15)"/><path id="Vector_17" data-name="Vector 17" d="M78.78446,143.49953c-4.72914,1.65967-7.23267,7.19257-5.8419,13.83127,1.39077,6.08581,5.56349,10.51194,10.29293,10.51194h2.22522l1.39116-1.65968a15.09207,15.09207,0,0,0,3.06-12.17161,14.64583,14.64583,0,0,0-7.23268-9.958L81.01,142.94663Z" fill="url(#linear-gradient-16)"/><path id="Vector_18" data-name="Vector 18" d="M68.49144,198.27175c-3.338,3.5958-2.50354,9.95806,1.66918,14.93807,4.17271,4.70257,10.01462,6.36224,14.18763,3.87224l1.9472-1.10677.278-2.21258a14.06012,14.06012,0,0,0-3.61628-11.89516,15.43381,15.43381,0,0,0-11.12738-4.979H69.8826Z" fill="url(#linear-gradient-17)"/><path id="Vector_19" data-name="Vector 19" d="M122.73811,235.062l-1.66918,1.10678-.55643,1.93611c-1.11276,4.70357,2.78184,9.959,8.902,11.89516s11.96182.55291,14.18714-3.59579l1.11364-1.93711-.83524-1.93611a14.80028,14.80028,0,0,0-9.17967-8.57484A14.181,14.181,0,0,0,122.73811,235.062Z" fill="url(#linear-gradient-18)"/><path id="Vector_20" data-name="Vector 20" d="M246.25149,90.94036a9.83571,9.83571,0,0,0,6.95534,4.97942c1.9469-1.38313,1.9469-5.25586,0-8.85216-1.94788-3.596-5.28586-5.53241-7.51118-4.70267A10.32251,10.32251,0,0,0,246.25149,90.94036Z" fill="url(#linear-gradient-19)"/><path id="Vector_21" data-name="Vector 21" d="M259.88377,184.714a9.67955,9.67955,0,0,0,.83425,8.29936c2.50373.55289,5.28586-1.93711,6.67692-5.80935,1.39108-3.87324.83426-7.469-1.39106-8.57581A8.98892,8.98892,0,0,0,259.88377,184.714Z" fill="url(#linear-gradient-20)"/><path id="Vector_22" data-name="Vector 22" d="M209.81019,114.45492a10.00073,10.00073,0,0,0,5.00746,6.91544c2.22532-.82975,3.61638-4.426,2.78116-8.57542-.83425-3.87274-3.338-6.91544-5.5633-6.639A9.83425,9.83425,0,0,0,209.81019,114.45492Z" fill="url(#linear-gradient-21)"/><path id="Vector_23" data-name="Vector 23" d="M189.50294,73.78738a9.83026,9.83026,0,0,0,8.34544-.83013c.55584-2.48932-1.94692-5.25587-5.84171-6.639s-7.51118-.5529-8.62384,1.38313A8.9871,8.9871,0,0,0,189.50294,73.78738Z" fill="url(#linear-gradient-22)"/><path id="Vector_24" data-name="Vector 24" d="M110.7761,66.319a11.91071,11.91071,0,0,0,3.61668-7.74529c-1.94749-1.66-5.56388-.83013-8.90216,1.93632-3.06,2.76626-4.1727,6.08571-3.06,8.29867A11.89206,11.89206,0,0,0,110.7761,66.319Z" fill="url(#linear-gradient-23)"/><path id="Vector_25" data-name="Vector 25" d="M205.638,174.75593a11.91036,11.91036,0,0,0-3.61639,7.74548c1.94691,1.65967,5.5633.83033,8.90225-1.93613,3.05957-2.76646,4.17222-6.08581,3.05957-8.29837A10.70137,10.70137,0,0,0,205.638,174.75593Z" fill="#5788c4"/><path id="Vector_26" data-name="Vector 26" d="M129.9703,107.81406a11.91309,11.91309,0,0,0,3.61736-7.74558c-1.94788-1.65958-5.56427-.82984-8.90225,1.93642-3.06035,2.76615-4.1731,6.0856-3.06035,8.29857A10.703,10.703,0,0,0,129.9703,107.81406Z" fill="url(#linear-gradient-24)"/><path id="Vector_27" data-name="Vector 27" d="M133.8651,174.75691a12.03233,12.03233,0,0,0-7.78861-3.5958c-1.66948,1.93613-.83524,5.53193,1.9469,8.85225,2.78214,3.04291,6.12011,4.14871,8.34544,3.04291A11.73143,11.73143,0,0,0,133.8651,174.75691Z" fill="url(#linear-gradient-25)"/><path id="Vector_28" data-name="Vector 28" d="M185.88656,213.76075a10.05,10.05,0,0,0-6.95534,4.979c.83522,2.21356,4.45161,3.5958,8.62383,2.76646,3.89481-.83033,6.95436-3.32034,6.67694-5.5329A9.97087,9.97087,0,0,0,185.88656,213.76075Z" fill="url(#linear-gradient-26)"/><path id="Vector_29" data-name="Vector 29" d="M240.9666,142.39177a9.68045,9.68045,0,0,0,.83426,8.29837c2.5047.55388,5.28586-1.93612,6.67692-5.80837,1.39108-3.87323.55683-7.469-1.39106-8.57581A10.21412,10.21412,0,0,0,240.9666,142.39177Z" fill="url(#linear-gradient-27)"/><path id="Vector_30" data-name="Vector 30" d="M31.77163,157.3308c-3.8946,1.10678-6.39827,5.53291-6.39827,10.51194a13.40086,13.40086,0,0,0,.27819,3.32033c1.11274,6.36127,5.28554,10.511,10.2929,10.511h2.22541l1.391-1.65967A14.67625,14.67625,0,0,0,35.388,157.88468l-1.66911-1.10677Z" fill="url(#linear-gradient-28)"/><path id="Vector_31" data-name="Vector 31" d="M37.89126,168.67307a10.00152,10.00152,0,0,0-5.00729-6.91515c-2.2255.83033-3.61643,4.42613-2.78186,8.57581.83455,3.87224,3.33822,6.91515,5.56373,6.91515A10.69061,10.69061,0,0,0,37.89126,168.67307Z" fill="url(#linear-gradient-29)"/><path id="Vector_32" data-name="Vector 32" d="M77.94992,240.043l-1.94721.55389-.83444,1.93613c-2.22551,4.42612,0,10.23547,5.56359,13.83127,5.28547,3.5958,11.40569,3.5958,14.74395.27645l1.66919-1.65967-.27831-2.21258a15.165,15.165,0,0,0-6.39833-10.78838A16.71266,16.71266,0,0,0,77.94992,240.043Z" fill="url(#linear-gradient-30)"/><path id="Vector_33" data-name="Vector 33" d="M87.40791,245.8514a10.00561,10.00561,0,0,0-8.34572-1.38322c-1.11247,2.21355.55632,5.5329,3.89469,8.0229,3.33828,2.21258,7.233,2.489,8.90216.82935A10.24711,10.24711,0,0,0,87.40791,245.8514Z" fill="url(#linear-gradient-31)"/><path id="Vector_34" data-name="Vector 34" d="M59.31116,114.45678a9.679,9.679,0,0,0-.83444-8.299c-2.50373-.55329-5.28557,1.93642-6.67644,5.80926s-.55643,7.46873,1.39087,8.57531A9.54892,9.54892,0,0,0,59.31116,114.45678Z" fill="url(#linear-gradient-32)"/><path id="Vector_35" data-name="Vector 35" d="M85.4612,154.56632a9.99942,9.99942,0,0,0-5.00716-6.91516c-2.22552.82935-3.61659,4.42614-2.78184,8.57483.83434,3.87323,3.33827,6.91614,5.56348,6.6387A9.35342,9.35342,0,0,0,85.4612,154.56632Z" fill="#265c99"/><path id="Vector_36" data-name="Vector 36" d="M79.89751,204.63205a12.03123,12.03123,0,0,0-7.78939-3.5958c-1.66919,1.93611-.83445,5.53191,1.94749,8.85127,2.78165,3.0429,6.11992,4.14968,8.34543,3.0429A11.73254,11.73254,0,0,0,79.89751,204.63205Z" fill="url(#linear-gradient-33)"/><path id="Vector_37" data-name="Vector 37" d="M133.58766,238.10493a9.82409,9.82409,0,0,0-8.34543.83033c-.55682,2.489,1.94691,5.25549,5.84171,6.63871s7.51118.55291,8.62384-1.38322A10.99259,10.99259,0,0,0,133.58766,238.10493Z" fill="url(#linear-gradient-34)"/><path id="Vector_38" data-name="Vector 38" d="M58.1989,61.61832a13.7396,13.7396,0,0,0-4.17282,9.40525A7.69547,7.69547,0,0,0,55.69517,76.003l1.391,1.65957h2.22551a15.13973,15.13973,0,0,0,11.68381-4.42583,13.66294,13.66294,0,0,0,3.89469-11.61841l-.27841-1.93642-1.66908-1.383C69.04826,55.53261,62.928,56.91574,58.1989,61.61832Z" fill="url(#linear-gradient-35)"/><path id="Vector_39" data-name="Vector 39" d="M67.379,70.19373a9.90765,9.90765,0,0,0,2.78165-8.022c-1.9472-1.38313-5.8419-.27655-8.62384,2.48961-2.78155,3.04309-3.61629,6.63909-2.22522,8.57541A10.92022,10.92022,0,0,0,67.379,70.19373Z" fill="url(#linear-gradient-36)"/><path id="Vector_40" data-name="Vector 40" d="M248.47778,211.27271a15.14127,15.14127,0,0,0-11.68438,4.42613,14.74907,14.74907,0,0,0-4.17224,11.61772l.27744,1.93711,1.66948,1.10677c3.89479,3.04192,10.01491,1.6587,14.74395-3.04388,4.45064-4.70257,5.5633-10.511,2.78116-14.38418l-1.39009-1.65967Z" fill="url(#linear-gradient-37)"/><path id="Vector_41" data-name="Vector 41" d="M241.80183,219.84655a10.78745,10.78745,0,0,0-3.06054,8.02194c1.9469,1.38322,5.56328.55289,8.62384-2.49,2.78213-2.76644,3.89479-6.36225,2.50373-8.57482A11.34717,11.34717,0,0,0,241.80183,219.84655Z" fill="url(#linear-gradient-38)"/><path id="Vector_42" data-name="Vector 42" d="M70.16111,191.07721H89.91223V110.303H70.16111Zm95.974-56.70835h-22.811l-18.36033,22.96h-.27842V134.09241H105.76875v56.9848h18.91666V163.6911h.27842l18.63875,27.38611H166.9694L143.88,159.81886Zm1.11267-24.06588v16.59783h23.08938v64.1764H210.0886v-64.1764H233.178V110.303Z" fill="#fff"/></g></svg>