<svg id="Layer_1" data-name="Layer 1" xmlns="http://www.w3.org/2000/svg" viewBox="0 0 300 300"><defs><style>.cls-1{fill:#0063a6;}.cls-2{fill:#5eaf36;}</style></defs><title>INO_Light_bg</title><path class="cls-1" d="M84.5,119l-12.44-5.32a2.3,2.3,0,0,0-3,1.17,2.18,2.18,0,0,0,1,2.91l.15.07,12.44,5.32Z"/><path class="cls-2" d="M141,78,142.3,91.5a2.29,2.29,0,0,0,4.52-.43l-1.55-13.5Zm18.45,0,1.33-13.5a2.35,2.35,0,0,0-2.08-2.5,2.28,2.28,0,0,0-2.44,2.07L154.9,77.57Zm-59.07,19.3,9,10.16a2.4,2.4,0,0,0,3.24,0,2.33,2.33,0,0,0,0-3.25l-8.82-10Zm14.94-11-6.92-11.7a2.25,2.25,0,1,0-3.88,2.29l6.91,11.7Zm69.86,0L178.24,98a2.23,2.23,0,0,0,.76,3.06l0,0a2.32,2.32,0,0,0,3.13-.8L189,88.63Zm14.89,11,9-10.26a2.29,2.29,0,0,0,0-3.19,2.35,2.35,0,0,0-3.25,0l-9.19,10.31Z"/><path class="cls-1" d="M215.94,119l-12.44,5.32a2.28,2.28,0,1,0,1.19,4.41,2.23,2.23,0,0,0,.61-.27l12.44-5.31Zm5.69,17.54,13.24-2.92a2.29,2.29,0,0,0,1.75-2.71,2.23,2.23,0,0,0-2.65-1.72l-.06,0-13.24,2.92Zm0,27-13.24-2.93a2.26,2.26,0,1,0-1,4.41L220.67,168Zm-5.69,17.54,12.44,5.32a2.3,2.3,0,0,0,3-1.17,2.25,2.25,0,0,0-1-2.93l-12.45-5.31ZM200,203l-9-10a2.28,2.28,0,0,0-3.4,3l9,10.15Zm-14.89,10.85,6.86,11.7a2.29,2.29,0,0,0,3.94-2.29L189,211.55Zm-25.73,8.35L158.14,209a2.29,2.29,0,0,0-4.52.42l1.28,13.51Zm-18.45,0-1,13.34a2.27,2.27,0,1,0,4.51.45v0l.79-13.35Zm-25.68-8.35,6.86-11.7a2.23,2.23,0,0,0-.77-3.06l0,0a2.24,2.24,0,0,0-3.07.76l0,0-6.86,11.69ZM100.35,203l-9,10.16a2.28,2.28,0,1,0,3.15,3.31,1.67,1.67,0,0,0,.25-.28l9-10.16ZM84.5,181.14l12.44-5.32a2.27,2.27,0,0,0,1.17-3,2.33,2.33,0,0,0-3-1.17L82.69,177ZM78.76,163.6l-13.24,2.81a2.29,2.29,0,1,0,1,4.47h0l13.24-3Zm0-27,13.29,2.93a2.24,2.24,0,0,0,2.66-1.7A2.28,2.28,0,0,0,93,135.1l-13.24-2.93Z"/><path class="cls-2" d="M126.77,79.43c-2.34,6.64-3.14,20-15.31,26.95C124,103.51,129,94.1,131.88,82.56S141,61.77,153.94,62.47a22.21,22.21,0,0,0-6-.86c-10.63,0-18.08,8.94-21.27,17.82"/><path class="cls-1" d="M78.23,153.65c6.06,3.67,19.19,12.76,19.83,23.4,1.28-13.61-7.55-23.4-17.76-29.41-7.23-4.25-18.18-14.67-16.22-25.2-3.88,12.07,3,24.51,14.15,31.21m46.52,62C116,222.88,105.13,227,95,218.79c9.2,11.64,22.86,8.66,31.9,2.49,5.85-4,14.41-14.3,28.34-12.65a24.46,24.46,0,0,0-10-2.18,33.06,33.06,0,0,0-20.63,9.25M205,194.43c4.09,10.64,4.57,22.23-6.44,29.14,14-5,15.48-18.93,12.45-29.51-2-6.8-9-18.18-3.09-30.84-9.52,10.9-7.23,20.1-2.92,31.21M208,110.8c8.35-.85,23.34,1,28,10.63-3.88-11.86-17.39-17.76-30.31-16.59-7,.64-22.75,1.22-29.4-7.18,7,11.75,19.88,14.36,31.9,13.14m-40.2,106.82c-2.81,10.95-9.25,20.68-22.22,19.93,14.3,4,23.61-6.38,27.33-16.74,2.39-6.65,3.24-20.05,15.47-26.85-12.71,2.76-17.6,12.12-20.58,23.66m52.43-64.39c9.52,6.11,16.75,15.31,11.91,27.38,8.4-12.28,1.44-24.41-7.23-31.21-5.32-4.26-18-9.57-20.63-23.18-1.38,12.92,5.95,20.52,15.95,27"/><path class="cls-2" d="M168.19,80.38C162.87,85.06,150.59,94.74,140,92c12.6,5.32,24.56,0,33.44-8.08C179.83,78.26,193.13,71,202.49,76a22.13,22.13,0,0,0-13.08-4.09,33.33,33.33,0,0,0-21.27,8.45M89.45,106.17c2,6.81,9.25,18.08,3.45,30.84,2.18-2.5,4.1-2.29,5.32-4.57,3.56-7.07,1.33-16.54-2.77-26.59s-4.83-22.17,6.07-29.24c-13.94,5.32-15.21,19.14-12,29.67"/><path class="cls-1" d="M94.28,194.81c7.08-.59,22.81-1.07,29.41,7.39-7-11.81-19.84-14.52-31.91-13.4-8.29.8-23.28-1.12-27.91-10.64C67.7,190,81.15,196,94.07,195"/><path class="cls-2" d="M96.84,77.09a31.08,31.08,0,0,1,30.57,5.85c9.62,8.77,13.82,12.6,27.7,11.37-9.68-.42-17.17-10.1-23.77-15.31a31.44,31.44,0,0,0-19.19-7.12,25.12,25.12,0,0,0-15.31,5.31"/><path class="cls-1" d="M123.16,217.78a27.6,27.6,0,0,0,26.58,22,31,31,0,0,1-20.79-23c-2.5-12.71-3.93-18.14-15.95-25.42,7.55,6.11,7.87,18.34,10,26.58m84.27-27.64c-12.86-1.65-18.5-2.34-29.13,6.7,8.18-5.32,19.88-1.71,28.23-1.23a27.69,27.69,0,0,0,29.24-18.29,31.21,31.21,0,0,1-28.39,12.82"/><path class="cls-1" d="M234,176.67c-3.25,7-16,14.25-27.07,13.56a29.12,29.12,0,0,0,28.71-12.76c4.52-9.09-1.59-22.17-10.63-28.07,9.57,8.08,12.49,19.67,9,27.27m-53,18.51c-9,4.68-11.85,16.27-13.08,22.44a33.91,33.91,0,0,1,13.94-20.79,27.4,27.4,0,0,1,15.68-1.49,54.87,54.87,0,0,0,8.88.42c-6.33-.32-12.23-2.34-17.81-2.34a16,16,0,0,0-7.61,1.76m-31.26,44.61c10,1.43,20.52-8.46,23.29-19-4.68,11.64-14.73,18.07-23,17.17s-18.35-11.11-21.27-21.59a28.81,28.81,0,0,0,20.84,23.4m-71-94c-11,6.81-19.31,17.07-14.47,32.22-1.8-10.63,7.93-20.89,15-25.25,10.21-6.12,21.59-14,20.74-29.67a21.26,21.26,0,0,1-7,12.76,78,78,0,0,1-14.3,9.94m13.55,43c8.83.42,16.22.37,22.44,6.06s5.64,15,8.72,22.92c-2.5-8.94-1.22-18.3-7.44-24.3a20.9,20.9,0,0,0-15.1-5.32,77.82,77.82,0,0,0-8.62.69"/><path class="cls-1" d="M64.08,178c2.29,9.89,15,17.76,25.74,17-9.15-.7-21.59-6.76-24.14-17.39-2.23-9.47,5.79-18.77,13.45-24.83C67.86,160.09,62,168.7,64.08,178m32.65-46.47c-4,6.65-11.17,9.52-18.18,14.25,8.18-4.41,15.1-3.51,18.18-9.3a22.85,22.85,0,0,0,2.92-11,19.6,19.6,0,0,1-2.12,5.32"/><path class="cls-2" d="M96.84,77.09c-8.94,4.84-11.49,19-7.39,29.08-3.19-12.12,1.06-23.29,8.34-27.49s21.27-2.28,29.94,4.52a29.41,29.41,0,0,0-21-8.24,21.22,21.22,0,0,0-9.94,2.13m108.52,28.12c-4.52,11-8.94,22.5,1.06,34.56-6.11-8.77.9-22.7,3.56-29.24,4.84-12.07,5.32-25.25-7.49-34.51,7.7,7.45,6.06,21.27,2.87,29.19m-53.6-11.06c10.1,1.33,17.28-6,21.85-10.31-7.33,4.89-13.29,9.36-21.58,8.45s-13.51-8.77-20.69-13.24c7.34,5.69,11.86,13.94,20.42,15.1"/><path class="cls-2" d="M171.86,77.57c7.76-4.79,21.27-7.34,29.77,0,7.4,6.22,6.49,18.5,3.89,27.91,4.73-12.6,4.3-23-2.88-29.19a20.59,20.59,0,0,0-13.5-4.41,27.25,27.25,0,0,0-17.28,5.69"/><path class="cls-1" d="M203.76,132.44c1.06,10.1,11.65,17.28,16.86,20.79-3.73-3.25-14.31-9.84-15.26-20.79a50.31,50.31,0,0,1,4.89-21.91c-3.94,8.35-7.13,15.37-6.49,21.91"/><path class="cls-2" d="M149.85,60.07a31.21,31.21,0,0,1,21.26,22.76c2.61,12.65,3.78,18.24,16,25.41-7.71-5.63-8.19-18.13-10.43-26.15a27.69,27.69,0,0,0-26.58-21.86h-.43"/><path class="cls-1" d="M88.44,189.54A27.64,27.64,0,0,0,97,223a31.07,31.07,0,0,1-3.25-30.9c5.32-11.75,7.45-17,2.08-29.88,2.49,9.41-4.42,19.46-7.39,27.33M145.27,205c9.73.59,17.07,10.32,23.56,15.64A27.71,27.71,0,0,0,203.34,223a31.21,31.21,0,0,1-30.52-6.27c-8.46-8-12.66-11.91-23.45-11.91h-4.1"/><path class="cls-1" d="M202.33,221.39c-6.81,3.83-21.54,2-29.89-4.89A29,29,0,0,0,203.18,223c9-4.68,11.91-15.95,8.24-27.33,2.82,12.34-1.81,21.64-9.09,25.68M128.21,213a25.68,25.68,0,0,1,20-5.9c7.71.9,13.4,8.93,20.47,13.56-7.23-5.8-11.64-14.15-20.2-15.42a18.53,18.53,0,0,0-3,0,26,26,0,0,0-17.33,8M97,223c7.33,7.07,20.15,5.31,27.86-.38-10.64,5.59-20.37,4.68-26.59-1S90,201.88,93.91,191.78A29,29,0,0,0,97,223m-2.13-57.16c1.54,7.6-4.31,15.52-6.43,23.71,3.24-8.72,9.62-15.52,8.24-24.08a22.08,22.08,0,0,0-13-15.48c6.86,5.32,9.52,7.61,11.22,16"/><path class="cls-2" d="M127.83,76.66a22.4,22.4,0,0,1,21.8-14.57c7.77.8,18.72,10.64,21.59,21.27A29.06,29.06,0,0,0,150,60.29a15.89,15.89,0,0,0-2.39,0,20.93,20.93,0,0,0-19.62,16.58"/><path class="cls-1" d="M221.09,146.79c-10.15,6.22-19.83,13.46-19.88,28.13,1.38-10,14.51-17.39,20.52-21.27,11-6.91,19.2-17.22,14.25-32.27,1.86,10.63-7.76,21-14.89,25.31M184.3,106.33a22.87,22.87,0,0,0,18.77,4.79A22.82,22.82,0,0,1,185.58,105c-5.8-5.32-7.82-14.14-11-22,2.56,9,3.41,17.33,9.68,23.34"/><path class="cls-1" d="M203.76,167.69a23.77,23.77,0,0,0,0,22.12,23.85,23.85,0,0,1,1.44-21.27,50,50,0,0,1,16.85-14.89c-8.13,4.47-14.83,8.3-18.13,13.93m32.43-45.94C235,112,222.8,105,211.84,105c12.39,1.38,21.27,8.88,22.65,16.85s-5.79,20.63-15.31,26.11c11.49-5.32,18.45-17.92,17.23-26.59M94.71,105.05c-13-1-25.68,2.5-30.63,17.55,4.74-9.57,18.67-12.28,27-11.54,11.86,1,24.14,1.7,32.65-11.43-6.54,8.46-22,6-29,5.32"/><path class="cls-1" d="M64.08,122.6A22.55,22.55,0,0,0,73,149.77a23.23,23.23,0,0,1-7.39-26.58c3.78-8.94,16-11.75,25.47-12.13H87.8c-11.75,0-20.31,3.67-23.72,11.65"/><path class="cls-2" d="M116.93,103.3a49.21,49.21,0,0,1-22.17,2.87,43.4,43.4,0,0,0,22.76-1.59,22.83,22.83,0,0,0,13.34-18.4,25.55,25.55,0,0,1-13.93,17.12m28.34-25.73L144.1,63.32a1.75,1.75,0,0,0-1.84-1.66,2.07,2.07,0,0,0-.55.11,2.76,2.76,0,0,0-1.75,3.3L141.18,78Zm9.63,0-1.28,13.5a2,2,0,0,0,1.8,2.12h.28a2,2,0,0,0,2.41-1.53l0-.17L159.42,78ZM103.75,94.15,94.76,84a2,2,0,0,0-2.85-.12l-.13.12a2.13,2.13,0,0,0-.47,3l0,.06,9,10.26Z"/><path class="cls-2" d="M111.4,88.63l6.65,11.43c.64,1.06,1.86,1,2.93.37s1.59-1.6,1-2.66l-6.7-11.43Z"/><path class="cls-1" d="M196.64,206l9,10.16c.85.9,1.76.37,2.55-.64a2.7,2.7,0,0,0,0-3.45L200,203ZM189,211.55l-7.17-12.22a1.75,1.75,0,0,0-2.41-.61,1.9,1.9,0,0,0-.41.34,2.82,2.82,0,0,0-.59,3.4l6.7,11.38ZM154.9,222.61l1.33,12.55c0,1.28,1.22,1.7,2.34,1.17a2.83,2.83,0,0,0,2-3l-1.17-11.11Zm-9.63,0L146.82,209c0-1.22-.64-2-2.13-1.81a2.5,2.5,0,0,0-2.45,2.13L141,222Z"/><path class="cls-2" d="M189,88.63l7.18-12.34a1.6,1.6,0,0,0-.46-2.21,1.65,1.65,0,0,0-.6-.24,3,3,0,0,0-3.14.8l-6.86,11.7Zm7.61,5.52-9.41,10.64a1.8,1.8,0,0,0,.28,2.54,1.86,1.86,0,0,0,.35.22,2.5,2.5,0,0,0,3.41-.42L200,97.29Z"/><path class="cls-1" d="M111.4,211.55l-6.64,11.28c-.64,1.06-.27,1.91,1.17,2.39a2.56,2.56,0,0,0,3.14-.8l6.22-10.63ZM103.75,206l9-10.15c.85-1,.59-1.76-.69-2.55a2.49,2.49,0,0,0-3.24,0l-8.45,9.46Zm114-82.83,14.63-6.38s0-.8-1.23-1.92a2.6,2.6,0,0,0-3.24-1.06l-12,5.31Zm2.93,9L207.91,135a1.7,1.7,0,0,0-1.39,2,1.78,1.78,0,0,0,.22.58,2.6,2.6,0,0,0,2.92,1.65l12-2.61Zm-138,44.88L68.6,183.16c-.42.32.38,1,1.23,1.92a3.29,3.29,0,0,0,3.29,1l11.38-4.9Zm-2.92-9,12.33-2.77a2.07,2.07,0,0,0,1.58-2.47l0-.13a2.13,2.13,0,0,0-2.39-1.83l-.11,0L78.71,163.6Zm140.9,0,12.81,2.87c1.23.27,1.76-.85,1.6-2.07a2.82,2.82,0,0,0-2.13-2.72l-11.32-2.49Zm-2.93,9-12.12-5.32a1.75,1.75,0,0,0-2.34.83,2.05,2.05,0,0,0-.16.55,2.57,2.57,0,0,0,1.49,3.09l11.33,4.89Zm-138-44.88-13.61-3c-2.18-.47-2.29,0-2.24,1.81s.38,2.39,1.6,2.66l13.24,2.92Zm2.92-9,12.44,5.31c1.12.48,1.92-.37,2.4-1.54A2.67,2.67,0,0,0,96,123.82L84.5,118.93Zm4.42-16.43,7.28-1.71s15,1.71,22.07-1.54A55,55,0,0,0,126,98.2,38,38,0,0,1,115.34,108a40.39,40.39,0,0,1-9.2,2.66Z"/><path class="cls-2" d="M173,81.66h3.5s1.76,5.32,2.66,9,4,14.46,8.67,18.24a66.85,66.85,0,0,1-9.52-7.23,156.17,156.17,0,0,1-5.31-20m37.43,18.4v8.88l-3.25,9.62a37.23,37.23,0,0,0-.95,21.69,31.2,31.2,0,0,1-5.75-13.61,37.47,37.47,0,0,1,2-10.63Z"/></svg>