<svg id="Layer_1" data-name="Layer 1" xmlns="http://www.w3.org/2000/svg" viewBox="0 0 300 300"><defs><style>.cls-1{fill:#1e355e;}.cls-2{fill:#246192;}.cls-3{fill:#0292b3;}.cls-4{fill:#63adc6;}</style></defs><path class="cls-1" d="M150,136.63a8.19,8.19,0,1,0-8.26-8.19A8.23,8.23,0,0,0,150,136.63Z"/><path class="cls-1" d="M131.15,147.42a8.19,8.19,0,1,0-8.26-8.19A8.23,8.23,0,0,0,131.15,147.42Z"/><path class="cls-1" d="M131.15,169a8.19,8.19,0,1,0-8.26-8.19A8.23,8.23,0,0,0,131.15,169Z"/><path class="cls-1" d="M150,179.8a8.19,8.19,0,1,0-8.26-8.19A8.22,8.22,0,0,0,150,179.8Z"/><path class="cls-1" d="M168.85,169a8.19,8.19,0,1,0-8.26-8.19A8.23,8.23,0,0,0,168.85,169Z"/><path class="cls-1" d="M168.85,147.42a8.19,8.19,0,1,0-8.26-8.19A8.23,8.23,0,0,0,168.85,147.42Z"/><path class="cls-2" d="M135.31,120.38a6.4,6.4,0,1,0-6.45-6.39A6.42,6.42,0,0,0,135.31,120.38Z"/><path class="cls-2" d="M119.11,132.5a6.4,6.4,0,1,0-6.45-6.4A6.42,6.42,0,0,0,119.11,132.5Z"/><path class="cls-2" d="M111.19,151a6.4,6.4,0,1,0-6.45-6.39A6.42,6.42,0,0,0,111.19,151Z"/><path class="cls-2" d="M113.65,171a6.4,6.4,0,1,0-6.45-6.39A6.41,6.41,0,0,0,113.65,171Z"/><path class="cls-2" d="M125.88,187.05a6.4,6.4,0,1,0-6.45-6.4A6.42,6.42,0,0,0,125.88,187.05Z"/><path class="cls-2" d="M144.55,194.91a6.4,6.4,0,1,0-6.45-6.4A6.43,6.43,0,0,0,144.55,194.91Z"/><path class="cls-2" d="M164.69,192.46a6.4,6.4,0,1,0-6.45-6.4A6.43,6.43,0,0,0,164.69,192.46Z"/><path class="cls-2" d="M180.89,180.34a6.4,6.4,0,1,0-6.45-6.39A6.41,6.41,0,0,0,180.89,180.34Z"/><path class="cls-2" d="M188.81,161.83a6.4,6.4,0,1,0-6.45-6.4A6.42,6.42,0,0,0,188.81,161.83Z"/><path class="cls-2" d="M186.35,141.86a6.4,6.4,0,1,0-6.45-6.4A6.43,6.43,0,0,0,186.35,141.86Z"/><path class="cls-2" d="M174.13,125.79a6.4,6.4,0,1,0-6.45-6.4A6.42,6.42,0,0,0,174.13,125.79Z"/><path class="cls-2" d="M155.45,117.94a6.4,6.4,0,1,0-6.45-6.4A6.42,6.42,0,0,0,155.45,117.94Z"/><path class="cls-3" d="M142.58,104.34a6.26,6.26,0,1,0-6.32-6.26A6.29,6.29,0,0,0,142.58,104.34Z"/><path class="cls-3" d="M117.39,115a6.26,6.26,0,1,0-6.32-6.26A6.29,6.29,0,0,0,117.39,115Z"/><path class="cls-3" d="M100.93,136.67a6.26,6.26,0,1,0-6.31-6.26A6.29,6.29,0,0,0,100.93,136.67Z"/><path class="cls-3" d="M97.63,163.64a6.26,6.26,0,1,0-6.31-6.26A6.28,6.28,0,0,0,97.63,163.64Z"/><path class="cls-3" d="M108.34,188.62a6.26,6.26,0,1,0-6.32-6.26A6.29,6.29,0,0,0,108.34,188.62Z"/><path class="cls-3" d="M130.22,204.94a6.27,6.27,0,1,0-6.31-6.27A6.29,6.29,0,0,0,130.22,204.94Z"/><path class="cls-3" d="M157.43,208.21a6.26,6.26,0,1,0-6.32-6.26A6.29,6.29,0,0,0,157.43,208.21Z"/><path class="cls-3" d="M182.61,197.6a6.26,6.26,0,1,0-6.31-6.26A6.3,6.3,0,0,0,182.61,197.6Z"/><path class="cls-3" d="M199.07,175.9a6.26,6.26,0,1,0-6.32-6.26A6.29,6.29,0,0,0,199.07,175.9Z"/><path class="cls-3" d="M202.37,148.93a6.27,6.27,0,1,0-6.31-6.27A6.29,6.29,0,0,0,202.37,148.93Z"/><path class="cls-3" d="M191.67,124a6.26,6.26,0,1,0-6.32-6.26A6.29,6.29,0,0,0,191.67,124Z"/><path class="cls-3" d="M169.78,107.63a6.26,6.26,0,1,0-6.32-6.26A6.28,6.28,0,0,0,169.78,107.63Z"/><path class="cls-4" d="M159.06,92.15a5.93,5.93,0,1,0-6-5.92A5.94,5.94,0,0,0,159.06,92.15Z"/><path class="cls-4" d="M125.67,96.21a5.93,5.93,0,1,0-6-5.92A5.94,5.94,0,0,0,125.67,96.21Z"/><path class="cls-4" d="M98.81,116.3a5.93,5.93,0,1,0-6-5.93A6,6,0,0,0,98.81,116.3Z"/><path class="cls-4" d="M85.66,147a5.93,5.93,0,1,0-6-5.92A5.94,5.94,0,0,0,85.66,147Z"/><path class="cls-3" d="M89.75,180.07a5.93,5.93,0,1,0-6-5.92A6,6,0,0,0,89.75,180.07Z"/><path class="cls-4" d="M110,206.71a5.93,5.93,0,1,0-6-5.93A6,6,0,0,0,110,206.71Z"/><path class="cls-4" d="M141,219.75a5.93,5.93,0,1,0-6-5.93A6,6,0,0,0,141,219.75Z"/><path class="cls-4" d="M174.33,215.69a5.93,5.93,0,1,0-6-5.93A6,6,0,0,0,174.33,215.69Z"/><path class="cls-4" d="M201.19,195.6a5.93,5.93,0,1,0-6-5.92A5.94,5.94,0,0,0,201.19,195.6Z"/><path class="cls-3" d="M214.34,164.93a5.93,5.93,0,1,0-6-5.93A6,6,0,0,0,214.34,164.93Z"/><path class="cls-4" d="M210.24,131.83a5.93,5.93,0,1,0-6-5.93A6,6,0,0,0,210.24,131.83Z"/><path class="cls-4" d="M190,105.19a5.93,5.93,0,1,0-6-5.93A6,6,0,0,0,190,105.19Z"/><path class="cls-4" d="M142.94,80a4.38,4.38,0,1,0-4.41-4.38A4.39,4.39,0,0,0,142.94,80Z"/><path class="cls-4" d="M106.36,93.47A4.38,4.38,0,1,0,102,89.1,4.39,4.39,0,0,0,106.36,93.47Z"/><path class="cls-4" d="M81.49,123.27a4.38,4.38,0,1,0-4.41-4.37A4.39,4.39,0,0,0,81.49,123.27Z"/><path class="cls-4" d="M75,161.4A4.38,4.38,0,1,0,70.56,157,4.4,4.4,0,0,0,75,161.4Z"/><path class="cls-4" d="M88.56,197.67a4.38,4.38,0,1,0-4.42-4.38A4.4,4.4,0,0,0,88.56,197.67Z"/><path class="cls-4" d="M118.61,222.33A4.38,4.38,0,1,0,114.2,218,4.39,4.39,0,0,0,118.61,222.33Z"/><path class="cls-4" d="M157.06,228.79a4.38,4.38,0,1,0-4.41-4.37A4.4,4.4,0,0,0,157.06,228.79Z"/><path class="cls-4" d="M193.63,215.33a4.38,4.38,0,1,0-4.41-4.38A4.4,4.4,0,0,0,193.63,215.33Z"/><path class="cls-4" d="M218.5,185.53a4.38,4.38,0,1,0-4.41-4.38A4.4,4.4,0,0,0,218.5,185.53Z"/><path class="cls-4" d="M225,147.4a4.38,4.38,0,1,0-4.41-4.38A4.4,4.4,0,0,0,225,147.4Z"/><path class="cls-4" d="M211.44,111.13a4.38,4.38,0,1,0-4.41-4.37A4.39,4.39,0,0,0,211.44,111.13Z"/><path class="cls-4" d="M181.39,86.47A4.38,4.38,0,1,0,177,82.1,4.39,4.39,0,0,0,181.39,86.47Z"/><path class="cls-4" d="M91,92a2.51,2.51,0,1,0-2.54-2.51A2.52,2.52,0,0,0,91,92Z"/><path class="cls-4" d="M68.35,129.38a2.52,2.52,0,1,0-2.54-2.51A2.52,2.52,0,0,0,68.35,129.38Z"/><path class="cls-4" d="M67.62,173a2.52,2.52,0,1,0-2.54-2.52A2.52,2.52,0,0,0,67.62,173Z"/><path class="cls-4" d="M88.94,211.06a2.51,2.51,0,1,0-2.54-2.51A2.52,2.52,0,0,0,88.94,211.06Z"/><path class="cls-4" d="M126.64,233.5a2.52,2.52,0,1,0-2.53-2.51A2.52,2.52,0,0,0,126.64,233.5Z"/><path class="cls-4" d="M170.59,234.22a2.52,2.52,0,1,0-2.53-2.51A2.53,2.53,0,0,0,170.59,234.22Z"/><path class="cls-4" d="M209,213.08a2.51,2.51,0,1,0-2.53-2.51A2.52,2.52,0,0,0,209,213.08Z"/><path class="cls-4" d="M231.66,175.7a2.52,2.52,0,1,0-2.54-2.52A2.52,2.52,0,0,0,231.66,175.7Z"/><path class="cls-4" d="M232.38,132.12a2.52,2.52,0,1,0-2.54-2.52A2.52,2.52,0,0,0,232.38,132.12Z"/><path class="cls-4" d="M211.06,94a2.51,2.51,0,1,0-2.54-2.51A2.52,2.52,0,0,0,211.06,94Z"/><path class="cls-4" d="M173.35,71.57a2.51,2.51,0,1,0-2.53-2.51A2.52,2.52,0,0,0,173.35,71.57Z"/><path class="cls-4" d="M129.4,70.85a2.51,2.51,0,1,0-2.53-2.51A2.52,2.52,0,0,0,129.4,70.85Z"/><path class="cls-1" d="M150,260.63A112.23,112.23,0,0,1,88,242,110.05,110.05,0,0,1,71.11,71.76,112.11,112.11,0,0,1,242.78,88.55,109.8,109.8,0,0,1,228.85,228.2,112.13,112.13,0,0,1,150,260.63Zm0-213.18A104,104,0,0,0,92.54,64.72a102.72,102.72,0,0,0-38.09,46,101.91,101.91,0,0,0,22.4,111.74A103.9,103.9,0,0,0,236,206.94a101.71,101.71,0,0,0-12.9-129.39A104,104,0,0,0,150,47.49Z"/><path class="cls-1" d="M150,246.61a97.88,97.88,0,0,1-54.07-16.27A96,96,0,0,1,81.18,81.88,97.77,97.77,0,0,1,230.91,96.5a95.68,95.68,0,0,1-12.16,121.78A98,98,0,0,1,150,246.61Zm0-189.27A94,94,0,0,0,98.07,73a92.9,92.9,0,0,0-34.43,41.59,92.13,92.13,0,0,0,20.27,101A93.92,93.92,0,0,0,227.73,201.5a92,92,0,0,0-11.67-117A94,94,0,0,0,150,57.34Z"/></svg>