<svg id="Layer_1" data-name="Layer 1" xmlns="http://www.w3.org/2000/svg" xmlns:xlink="http://www.w3.org/1999/xlink" viewBox="0 0 300 300"><defs><style>.cls-1{fill:#fff;}.cls-1,.cls-2,.cls-3,.cls-4{fill-rule:evenodd;}.cls-2{fill:#1385c8;}.cls-3{fill:#72bf4a;}.cls-4{fill:#4a2f8b;}.cls-5{mask:url(#mask);}</style><mask id="mask" x="26.27" y="136.72" width="241.71" height="54.2" maskUnits="userSpaceOnUse"><g id="color-b"><g id="use3460"><polygon id="color-a" class="cls-1" points="26.27 136.72 267.98 136.72 267.98 190.92 26.27 190.92 26.27 136.72"/></g></g></mask></defs><g id="layer1"><g id="g3469"><path id="path3454" class="cls-2" d="M62.89,127.69a4.2,4.2,0,0,1,4.23,4.38,4.56,4.56,0,0,1-4.54,4.37,4.19,4.19,0,0,1-4.22-4.37,4.56,4.56,0,0,1,4.53-4.38m26.87,6.54A4.21,4.21,0,0,1,94,138.62,4.58,4.58,0,0,1,89.45,143a4.2,4.2,0,0,1-4.23-4.38,4.59,4.59,0,0,1,4.54-4.39M65.49,112.52a3.67,3.67,0,0,1,3.68,3.82,4,4,0,0,1-4,3.81,3.66,3.66,0,0,1-3.68-3.81,4,4,0,0,1,3.95-3.82"/><path id="path3456" class="cls-3" d="M50,134.23a4.21,4.21,0,0,1,4.23,4.39A4.56,4.56,0,0,1,49.72,143a4.2,4.2,0,0,1-4.23-4.38A4.57,4.57,0,0,1,50,134.23m52.18-13a5.32,5.32,0,0,1,5.34,5.54,5.77,5.77,0,0,1-5.73,5.54,5.31,5.31,0,0,1-5.35-5.54,5.79,5.79,0,0,1,5.74-5.54m-24.8,0a5.31,5.31,0,0,1,5.34,5.54A5.76,5.76,0,0,1,77,132.33a5.3,5.3,0,0,1-5.34-5.54,5.78,5.78,0,0,1,5.73-5.54"/><path id="path3458" class="cls-4" d="M37.15,128.82a4.2,4.2,0,0,1,4.23,4.38,4.57,4.57,0,0,1-4.53,4.38,4.2,4.2,0,0,1-4.23-4.38,4.56,4.56,0,0,1,4.53-4.38M89.8,109.08a5.3,5.3,0,0,1,5.34,5.53,5.77,5.77,0,0,1-5.73,5.54,5.31,5.31,0,0,1-5.34-5.54,5.76,5.76,0,0,1,5.73-5.53"/><g id="g3465"><g class="cls-5"><path id="path3463" class="cls-4" d="M253.79,159.48a28,28,0,0,0-5.9-.67,10.07,10.07,0,0,0-7.4,2.86c-1.93,1.94-3.28,5.09-3.28,11,0,7.28,2.21,11.65,7.39,11.65,5.88,0,9.19-7,9.19-13.37Zm-6.5-22.16a94.57,94.57,0,0,1,14.49-.52V184c2.05.31,4,.53,6.2.74v4.93a87.93,87.93,0,0,1-13.81.53,38.54,38.54,0,0,1,.52-7h-.15a12.6,12.6,0,0,1-12.06,7.69c-9.91,0-13.64-7.76-13.64-17.47,0-10.63,5.54-21,19.36-21a53.19,53.19,0,0,1,5.59.3V143c-1.48-.29-5.24-.63-6.5-.75Zm-37.79,15c-10.83,0-16.95,8.37-16.95,19.57,0,13.07,6.34,19,17.92,19a33.88,33.88,0,0,0,12.85-2.39l-.75-6.34a25.65,25.65,0,0,1-10.83,2.39c-7.39,0-11.2-3.89-11-12.48h23.68a36.19,36.19,0,0,0,.22-3.73c0-8.81-4.55-16.06-15.16-16.06Zm7.17,14.19H200.91c.67-5,3.81-8.29,8.29-8.29C213.91,158.21,216.82,161.42,216.67,166.5Zm-43.83-14.09c6.76,0,10.92,3.71,10.92,11.88v20.09a40.41,40.41,0,0,1,6.19,1v4.93H175.76v-23.9c0-4.19-1-7.32-5.32-7.32-5.24,0-9.47,6.07-9.47,13.3v17.92h-8v-23.9c0-4.19-1-7.32-5.32-7.32-5.24,0-9.47,6.07-9.47,13.3v17.92h-8V159.36c-1.47-.29-5.23-.63-6.5-.75v-4.92a92.68,92.68,0,0,1,14.19-.53,46.73,46.73,0,0,1-.61,7.25l.1,0a13.5,13.5,0,0,1,12.87-8c6.45,0,9.36,4.14,10,7.9a13.39,13.39,0,0,1,12.57-7.9Zm-54.41,1v10.38H113.5a31,31,0,0,1-.9-5.38,20,20,0,0,0-3.8-.36c-4.32,0-6.8,1.65-6.8,4.85a3.52,3.52,0,0,0,1,2.64c3.24,3.24,10.72,2.82,15,7.1a7.47,7.47,0,0,1,2.28,5.87c0,7.46-6.68,12.39-16.28,12.39a40.56,40.56,0,0,1-9.19-1V179.05h5a42.22,42.22,0,0,1,.81,5.45,25.87,25.87,0,0,0,4.12.38c4.08,0,7.54-1.72,7.54-5.16a3.45,3.45,0,0,0-1-2.57c-3.09-3.09-10.65-2.75-14.93-7a7.94,7.94,0,0,1-2.38-6.3c0-7.16,6.12-11.5,15.38-11.5A43.32,43.32,0,0,1,118.43,153.43Zm-58.18-.27a46.73,46.73,0,0,1-.61,7.25l.1,0a13.48,13.48,0,0,1,12.86-8c6.91,0,11.1,3.71,11.1,11.88v20.09a40.54,40.54,0,0,1,6.2,1v4.93H75.71v-23.9c0-4.54-1.1-7.32-5.51-7.32-5.38,0-9.65,5.88-9.65,13.3v17.92h-8V159.36c-1.48-.29-5.24-.63-6.5-.75v-4.92a92.68,92.68,0,0,1,14.19-.53ZM40.84,143v47.28H32.7V148.89a46.43,46.43,0,0,1-6.43-1V143Z"/></g></g><path id="path3467" class="cls-4" d="M265.47,140.87v0a4.13,4.13,0,0,1,8.26,0v0a4.13,4.13,0,0,1-8.26,0Zm7.88,0v0a3.75,3.75,0,1,0-7.5,0v0a3.75,3.75,0,1,0,7.5,0ZM268,138.61h1.89a1.75,1.75,0,0,1,1.26.45,1.13,1.13,0,0,1,.34.82v0a1.23,1.23,0,0,1-1.09,1.24l1.31,1.7h-.78l-1.22-1.59h-1.08v1.59H268Zm1.84,2.08c.59,0,1-.28,1-.75v0c0-.44-.36-.73-1-.73h-1.24v1.51Z"/></g></g></svg>