<svg id="Layer_1" data-name="Layer 1" xmlns="http://www.w3.org/2000/svg" xmlns:xlink="http://www.w3.org/1999/xlink" viewBox="0 0 300 300"><defs><radialGradient id="radial-gradient" cx="1660.6928" cy="10178.44998" r="157.59368" gradientTransform="matrix(0.9559, -0.29371, -0.29371, -0.9559, 1587.41006, 10389.13379)" gradientUnits="userSpaceOnUse"><stop offset="0" stop-color="#fcee22"/><stop offset="0.13" stop-color="#fcf043"/><stop offset="0.47" stop-color="#fdf697"/><stop offset="0.71" stop-color="#fdfacc"/><stop offset="0.83" stop-color="#fdfbe0"/></radialGradient><radialGradient id="radial-gradient-2" cx="196.91625" cy="8871.70505" r="38.34045" gradientTransform="matrix(1, 0, 0, -1, 0, 9060.26905)" gradientUnits="userSpaceOnUse"><stop offset="0" stop-color="#fcee22"/><stop offset="0.38" stop-color="#faed22"/><stop offset="0.51" stop-color="#f3e822"/><stop offset="0.61" stop-color="#e8e022"/><stop offset="0.69" stop-color="#d7d422"/><stop offset="0.76" stop-color="#c1c422"/><stop offset="0.82" stop-color="#a5b122"/><stop offset="0.87" stop-color="#859a22"/><stop offset="0.92" stop-color="#5f8022"/><stop offset="0.96" stop-color="#366322"/><stop offset="1" stop-color="#0e4722"/></radialGradient></defs><path d="M264.81948,116.78132A118.30362,118.30362,0,1,1,116.97823,38.45855l.03139-.00965a118.24168,118.24168,0,0,1,147.78312,78.24541Z" fill="url(#radial-gradient)"/><path d="M178.0346,229.60478a45.1108,45.1108,0,1,1,59.97563-21.74614l-.0343.07314A45.1108,45.1108,0,0,1,178.0346,229.60478Z" fill="#0e4722"/><path d="M176.39962,252.86676a80.41174,80.41174,0,0,1-33.9646-7.52644l-.26834-.12548a80.92856,80.92856,0,1,1,34.23294,7.65192Zm.17763-146.038a65.00123,65.00123,0,0,0-27.63171,123.885l.031.01511-3.42042,7.23542,3.50583-7.19611a65.00329,65.00329,0,1,0,27.51531-123.93945Z" fill="#0e4722"/><path d="M149.777,275.0001A124.085,124.085,0,0,1,97.1698,263.29583l.00227.00076A125.02945,125.02945,0,1,1,149.777,275.0001Zm.38324-229.96874a104.97135,104.97135,0,0,0-44.52218,200.11016l.00227.00076A104.97456,104.97456,0,1,0,150.16026,45.03136Z" fill="#0e4722"/><path d="M163.84724,264.0419a101.851,101.851,0,0,1-43.13738-9.58852l-.00227-.00151A102.467,102.467,0,1,1,257.04976,204.578l-.1731.37341A102.6609,102.6609,0,0,1,163.84724,264.0419Zm-35.61472-25.72384a84.80713,84.80713,0,0,0,112.45817-40.78049l.05745-.12473a84.66418,84.66418,0,1,0-112.51335,40.90674Z" fill="#0e4722"/><path d="M189.02229,244.65321a62.45223,62.45223,0,0,1-26.66946-5.97912l-.01738-.00832a62.93836,62.93836,0,1,1,26.68684,5.98744Zm-20.6858-18.66454a48.7175,48.7175,0,1,0,41.76014-88.0322,48.7175,48.7175,0,0,0-41.76014,88.0322Z" fill="#0e4722"/><path d="M183.70054,221.5548a35.51383,35.51383,0,1,1,.09313.03724Z" fill="url(#radial-gradient-2)"/></svg>