<svg id="Layer_1" data-name="Layer 1" xmlns="http://www.w3.org/2000/svg" viewBox="0 0 300 300"><defs><style>.cls-1{fill:#4496d2;}</style></defs><path id="Layer" class="cls-1" d="M146.49,58a3.07,3.07,0,0,1,4.61,0c12.87,11.91,23.05,27.09,28,44a73.85,73.85,0,0,1,1.73,36.31A88,88,0,0,1,167.52,169c-5.38,8.07-11.91,15.27-18.73,22.19-6.43-6.63-12.87-13.45-18.06-21.14a91,91,0,0,1-12.87-27.28,76,76,0,0,1,1.54-43.89A99.42,99.42,0,0,1,146.49,58ZM42.94,148.29c7.2-1,14.5-.28,21.61.58C76.85,150.7,89,154.54,99.71,161a76.8,76.8,0,0,1,19.59,16.91,81.91,81.91,0,0,1,14.6,29.39c3.27,11.63,4.32,23.73,4.23,35.74-8.36-.2-16.81.57-25-.87-10.18-1.73-20.26-4.61-29.29-9.7a75.73,75.73,0,0,1-21.61-17.67,85.59,85.59,0,0,1-16-31.13,100,100,0,0,1-3.36-35.35Zm193.55.49c6.82-.87,13.74-1.45,20.65-.49a101.75,101.75,0,0,1-4.32,38,87,87,0,0,1-11.91,24.11,70.36,70.36,0,0,1-24.5,21.81c-9.12,5.18-19.4,8.16-29.68,9.89-8.16,1.44-16.52.67-24.88.87,0-13.16,1-26.42,5-39a78.53,78.53,0,0,1,15.85-28.63c13.64-15.46,33.62-24,53.79-26.6Z"/></svg>