<svg id="Layer_1" data-name="Layer 1" xmlns="http://www.w3.org/2000/svg" viewBox="0 0 300 300"><defs><style>.cls-1{fill:#149591;}</style></defs><g id="_119590ff" data-name="#119590ff"><path id="Layer" class="cls-1" d="M99.68,47.62c22.16-12,48.43-15.45,73.11-11.26,38.26,6.93,69.65,37,83.22,72.82-10.25,0-20.57,0-30.82-.07-10.68-23-32.26-41.07-57.52-45.32-20.71-4.19-42.58.86-60.12,12.27C93.84,84.64,84.16,98.29,77.6,112.79c-8.09,18-9.68,39.34-2.39,57.89,8.74,21.87,25.27,41.57,47.64,50.23,9.17,4,19.27,4.69,29,6.21-16.38,1.44-33.27,1.59-48.93-4.4a97.19,97.19,0,0,1-51-43.53c-13.06-23.6-12-53.12-1.59-77.51C60.42,79,77.74,59.38,99.68,47.62Z"/><path id="Layer-2" data-name="Layer" class="cls-1" d="M238.47,122.9c12.56-4.91,27.86,3.75,30.39,17,3.32,12.92-6.93,27.21-20.35,28-11.26,1.52-22.52-6.64-24.9-17.75C220.65,139,227.65,126.58,238.47,122.9Z"/><path id="Layer-3" data-name="Layer" class="cls-1" d="M225,180.42c11.26.07,22.52-.07,33.78.07-11.41,25-29.81,47.64-54.35,60.7-21.73,11.84-47.57,15.16-71.82,11.19C102.93,247.25,77,228.2,60.06,203.73c5.7,4.69,10.68,10.18,16.81,14.22,20.07,13.93,45,20.07,69.29,17.83,22-1.59,43.88-10.11,59.55-25.91A85.16,85.16,0,0,0,225,180.42Z"/></g></svg>