<svg id="Layer_1" data-name="Layer 1" xmlns="http://www.w3.org/2000/svg" viewBox="0 0 300 300"><path d="M102.78679,161.55056c4.43487-1.05985,8.98482-1.2126,13.45215-1.91936,5.73016-.90652,11.47619-1.71312,17.2136-2.57447,8.36582-1.256,16.73588-2.48542,25.0934-3.79424,9.015-1.41177,18.01265-2.93383,27.02734-4.3476,6.85909-1.07569,13.73891-2.02,20.599-3.09,8.92293-1.39174,17.81321-3.01162,26.75879-4.23322,8.57663-1.17122,17.075-2.84886,25.69279-3.75261,4.53589-.47568,9.03756-1.2728,13.55657-1.91151a83.44057,83.44057,0,0,1,17.63387-.86669c.58861,1.46659-.33588,2.13913-1.18,2.66526-2.01738,1.25748-4.05364,2.50915-6.18383,3.55827-7.68794,3.78627-15.66952,6.88073-23.69077,9.887-7.82949,2.93435-15.655,5.88389-23.63,8.39647q-13.45686,4.23966-27.0336,8.09774c-11.717,3.30878-23.58708,5.94684-35.51761,8.29354-5.212,1.02518-10.5653,1.35008-15.86133,1.93047a53.67021,53.67021,0,0,1-6.551.43276,70.52027,70.52027,0,0,1-22.34815-4.00953c-8.41266-2.92482-16.16257-7.15132-23.87905-11.47774a4.54361,4.54361,0,0,1-.89679-.69925A1.90631,1.90631,0,0,1,102.78679,161.55056Z" fill="#6c9741"/><path d="M101.4214,161.55484a52.76649,52.76649,0,0,1-8.96117,1.44644c-5.6493.70366-11.301,1.36991-16.93787,2.18323-4.32388.62388-8.697.9137-13.05082,1.32523-5.67507.53643-11.343,1.25173-17.03154,1.51715-7.611.35514-15.276.76433-22.7659-1.1622a17.749,17.749,0,0,1-10.14446-6.50708c-2.82864-3.79859-2.89878-8.19681-2.0669-12.55413,1.45991-7.64685,5.80745-13.65771,11.285-19.02454a29.07906,29.07906,0,0,1,9.35706-5.86378c4.95214-2.08281,9.86756-1.332,14.68115.69845,6.27958,2.64891,11.723,6.646,17.203,10.58022q11.56845,8.30534,23.10173,16.6593c4.77349,3.45417,9.69625,6.68516,14.678,9.82862.34665.21875.6173.41.62087.84132Z" fill="#b0c737"/><path d="M101.4214,161.55484l-.03177-.03177c.07116-.00981.19014-.04925.20556-.02452C101.68259,161.63864,101.61359,161.66427,101.4214,161.55484Z" fill="#6c9741"/></svg>