<svg id="Layer_1" data-name="Layer 1" xmlns="http://www.w3.org/2000/svg" viewBox="0 0 300 300"><defs><style>.cls-1{fill:#83bd41;}.cls-2{fill:#a1cd72;}.cls-3{fill:#c2dfa1;}.cls-4{fill:#dfeed1;}.cls-5{fill:#ecf5e4;}.cls-6{fill:#023d5a;}</style></defs><path class="cls-1" d="M179,215.35A73.51,73.51,0,0,1,88,144a75.12,75.12,0,0,1,4.56-25.3,54.62,54.62,0,0,0-.35,7.73C91.85,174.59,130.85,214,179,215.35Z"/><path class="cls-2" d="M171.61,223.43a73.51,73.51,0,0,1-91-71.32,75.13,75.13,0,0,1,4.57-25.3,54.62,54.62,0,0,0-.35,7.73C84.83,182.68,123.47,222,171.61,223.43Z"/><path class="cls-3" d="M164.58,231.51A72.61,72.61,0,0,1,147,233.62a73.47,73.47,0,0,1-73.78-73.43,75.17,75.17,0,0,1,4.57-25.3,54.62,54.62,0,0,0-.35,7.73A89.08,89.08,0,0,0,164.58,231.51Z"/><path class="cls-4" d="M157.2,237.49a73.55,73.55,0,0,1-91-71.33,75.17,75.17,0,0,1,4.57-25.3,54.62,54.62,0,0,0-.35,7.73C70.07,196.73,108.72,236.08,157.2,237.49Z"/><path class="cls-5" d="M149.82,244.51a72.59,72.59,0,0,1-17.56,2.11,73.4,73.4,0,0,1-73.43-73.43,75.17,75.17,0,0,1,4.56-25.3,54.62,54.62,0,0,0-.35,7.73C62.69,203.76,101.69,243.11,149.82,244.51Z"/><path class="cls-6" d="M249.26,150a99.57,99.57,0,0,1-99.44,99.43h-2.46A81.86,81.86,0,1,0,50.74,141.57,99.44,99.44,0,0,1,249.26,150Z"/></svg>