<svg id="Layer_1" data-name="Layer 1" xmlns="http://www.w3.org/2000/svg" xmlns:xlink="http://www.w3.org/1999/xlink" viewBox="0 0 300 300"><defs><linearGradient id="linear-gradient" x1="196.84907" y1="243.48426" x2="195.47807" y2="146.14325" gradientUnits="userSpaceOnUse"><stop offset="0" stop-color="#072261"/><stop offset="1" stop-color="#dc6f10"/></linearGradient><linearGradient id="linear-gradient-2" x1="156.12259" y1="234.55379" x2="189.02659" y2="124.87378" xlink:href="#linear-gradient"/><linearGradient id="linear-gradient-3" x1="114.54151" y1="222.07946" x2="147.44552" y2="112.39945" xlink:href="#linear-gradient"/><linearGradient id="linear-gradient-4" x1="135.42899" y1="228.34571" x2="168.333" y2="118.6657" xlink:href="#linear-gradient"/></defs><path d="M249.38174,142.48009c-20.80448.32657-41.15387-1.22617-61.37387.83975-21.71905,2.21909-39.50166,18.904-44.078,39.83615-4.91086,20.81945.91369,38.3776,17.339,51.83031,17.2131,14.097,36.86534,16.57492,57.07566,7.52165,24.01471-10.75741,32.56361-30.78376,31.03727-55.96743Z" fill="url(#linear-gradient)"/><path d="M249.21625,112.82744c-25.615,0-50.82067-1.09766-75.88991.27727-31.50732,1.727-56.35738,25.90987-61.22247,57.02021-3.73134,36.74827,22.131,74.09774,51.259,74.02292-25.84121-20.74462-32.91482-43.22948-22.74277-72.29413,13.44479-24.85623,34.4394-36.05552,62.64318-34.88921,12.267.5079,24.57367.16021,36.86094.03609,3.17327-.03168,6.58772,1.00964,9.72842-1.42951C249.60268,128.04855,250.67393,120.37814,249.21625,112.82744Z" fill="url(#linear-gradient-2)"/><path d="M118.21186,240.19732C86.5637,223.184,63.46531,180.18606,79.42055,134.3185c.56423-1.0202,1.17776-2.01575,1.68566-3.06323,16.60045-34.24575,43.87557-52.81706,82.13786-53.99218,25.75759-.79134,51.55655-.23679,77.337-.38026,2.88278-.01673,5.9645.8952,8.88074-1.095V52.52658c-2.75779-.13908-5.09835-.38379-7.43627-.35826-32.96412.36266-65.92647-.43572-98.89675.56423C98.22776,54.09429,57.46119,89.79243,50.73,134.41621c-5.73741,52.32236,22.78238,96.793,70.14018,108.5169C119.732,241.73686,119.12379,240.68762,118.21186,240.19732Z" fill="url(#linear-gradient-3)"/><path d="M109.71842,153.72428c15.86721-32.76959,42.08781-48.15883,78.57641-46.87455,13.76167.48413,27.55416.07834,41.33256.07834h19.816V82.25757c-33.62518,1.08358-66.90179-2.62223-99.83245,1.96558-35.97278,5.01121-63.55775,34.20173-68.38147,69.627-3.719,44.4759,25.24969,86.701,61.63619,89.84085C106.054,220.55564,99.04286,183.53626,109.71842,153.72428Z" fill="url(#linear-gradient-4)"/></svg>