<svg id="Layer_1" data-name="Layer 1" xmlns="http://www.w3.org/2000/svg" viewBox="0 0 300 300"><path d="M124.98292,164.41005v17.94713a49.68923,49.68923,0,0,0,13.18985,4.34908c12.03095,2.21437,23.79614,1.25725,35.07747-3.62971,9.6699-4.18891,17.52108-10.4744,22.2136-20.18722a30.06984,30.06984,0,0,0,3.04346-13.22789q.01841-54.66213.01445-109.32424a8.46232,8.46232,0,0,1,.18443-2.872,16.08905,16.08905,0,0,1,5.10673,1.98371C230.1,52.062,249.99813,71.22024,262.93523,97.40178A113.81676,113.81676,0,0,1,274.115,135.272c3.84489,34.00887-4.82024,64.50706-26.35022,91.11094-18.39746,22.73313-42.1994,36.962-70.76344,43.33216a131.42544,131.42544,0,0,1-35.6133,2.6024,118.62155,118.62155,0,0,1-21.10442-3.21971,2.71855,2.71855,0,0,1-1.4619-.67212,7.07017,7.07017,0,0,1-.20306-2.754q-.01232-57.22074-.03322-114.4414c-.01293-8.29066,3.4622-14.63948,10.12374-19.3033,7.2774-5.095,15.44811-6.87585,24.256-6.16429a34.72822,34.72822,0,0,1,19.28049,7.25784c4.51147,3.57437,7.70747,8.06339,8.62488,13.87732,1.14521,7.25765-1.43322,13.29143-6.5832,18.23518-5.44957,5.23135-12.16965,7.82428-19.62049,8.67715A38.368,38.368,0,0,1,132.77191,170.02,34.283,34.283,0,0,1,124.98292,164.41005Z" fill="#f6c901"/><path d="M180.97558,31.65727v88.62009c-2.48987-1.24888-4.67564-2.72128-7.106-3.70373-19.57357-7.91246-38.48073-6.979-56.33263,4.71656a35.03369,35.03369,0,0,0-15.62489,21.99654,29.86157,29.86157,0,0,0-.71529,6.68245q.026,55.01254.01226,110.02507v2.71113a47.25307,47.25307,0,0,1-7.14924-3.11182c-30.445-15.429-51.65154-39.01768-62.85645-71.3325a116.34341,116.34341,0,0,1-5.96517-45.529A117.47053,117.47053,0,0,1,49.1643,77.675c19.51617-25.82443,45.39773-41.73284,77.144-47.93474a125.30168,125.30168,0,0,1,53.30847,1.2539A2.64776,2.64776,0,0,1,180.97558,31.65727Z" fill="#840364"/></svg>