<svg id="Layer_1" data-name="Layer 1" xmlns="http://www.w3.org/2000/svg" viewBox="0 0 300 300"><path d="M68.729,216.92289a18.73347,18.73347,0,1,1,18.76186-18.74172A18.65815,18.65815,0,0,1,68.729,216.92289Z" fill="#060457"/><path d="M231.31393,247.19389A18.74141,18.74141,0,1,1,250,228.50565,18.68677,18.68677,0,0,1,231.31393,247.19389Z" fill="#74b51f"/><path d="M174.91021,52.83809c8.88056-.51571,18.70383,7.09518,18.71715,18.52369a18.74415,18.74415,0,1,1-37.48814.10748C156.14105,59.74771,166.15866,52.25184,174.91021,52.83809Z" fill="#74b51f"/><path d="M136.222,218.28724a16.44319,16.44319,0,1,1-16.57471-16.45011A16.42955,16.42955,0,0,1,136.222,218.28724Z" fill="#060457"/><path d="M224.20865,157.67085c8.53527-.23628,16.37838,7.35337,16.31029,16.51644a16.49262,16.49262,0,0,1-16.7015,16.33252,16.42565,16.42565,0,0,1,.39121-32.849Z" fill="#74b51f"/><path d="M131.4873,121.283c-9.15674.19655-16.43367-7.58209-16.55624-16.108a16.48952,16.48952,0,0,1,16.41548-16.76427,16.4363,16.4363,0,0,1,.14076,32.87222Z" fill="#74b51f"/><path d="M165.26429,228.45028a13.42747,13.42747,0,0,1-13.42221-13.52261,13.46284,13.46284,0,0,1,26.92547.10406A13.37239,13.37239,0,0,1,165.26429,228.45028Z" fill="#060457"/><path d="M110.7431,159.00312a13.44413,13.44413,0,1,1,13.44966-13.31578A13.34717,13.34717,0,0,1,110.7431,159.00312Z" fill="#74b51f"/><path d="M199.16158,122.4619c6.51391-.3223,13.51162,5.42042,13.42209,13.6529a13.46113,13.46113,0,1,1-26.91587-.58051C185.7762,128.29567,192.07812,122.14386,199.16158,122.4619Z" fill="#74b51f"/><path d="M178.95826,112.76508a11.62244,11.62244,0,1,1-23.239-.51612,11.62242,11.62242,0,0,1,23.239.51612Z" fill="#74b51f"/><path d="M106.61325,173.08417A11.6,11.6,0,0,1,118.05662,184.657a11.60189,11.60189,0,1,1-23.20135-.1512A11.68336,11.68336,0,0,1,106.61325,173.08417Z" fill="#74b51f"/><path d="M212.68492,198.50492a11.58407,11.58407,0,1,1-11.68918-11.59149A11.53465,11.53465,0,0,1,212.68492,198.50492Z" fill="#060457"/><path d="M230.44346,136.51785a8.23394,8.23394,0,0,1,8.26338,8.35167,8.33186,8.33186,0,1,1-16.66312-.138A8.275,8.275,0,0,1,230.44346,136.51785Z" fill="#060457"/><path d="M233.77488,121.27765a7.16678,7.16678,0,0,1-7.074,7.32178,7.20657,7.20657,0,1,1-.19793-14.41148A7.1164,7.1164,0,0,1,233.77488,121.27765Z" fill="#060457"/><path d="M209.69434,103.88527a5.74687,5.74687,0,0,1,5.73387-5.62975,5.73875,5.73875,0,1,1-5.73387,5.62975Z" fill="#060457"/></svg>