<svg id="Layer_1" data-name="Layer 1" xmlns="http://www.w3.org/2000/svg" viewBox="0 0 300 300"><defs><style>.cls-1{fill:#ddde1f;}.cls-2{fill:#f05023;}.cls-3{fill:#54575a;}</style></defs><title>Artboard 1</title><path class="cls-1" d="M143.83,113.89c19-25.11,40.57-41.07,56.57-39.54,23.85,2.34,25.75,43.14,4.51,91S146.58,250.25,122.73,248a19.58,19.58,0,0,1-10.82-4.86,19.3,19.3,0,0,1-6-10.19c3.2,16,11.77,26.14,25.56,27.54,31.87,3.16,79.3-42.46,106-102.51s22.54-110.81-9.34-114c-25.56-2.48-61,26.46-87.86,68.74"/><path class="cls-2" d="M153.7,148.06c4.19-16.1-4.91-28-20.46-26.24a46.61,46.61,0,0,0-30.93,20.87A47.58,47.58,0,0,0,97,154.23c-4.19,16.1,4.91,28,20.47,26.24A46.14,46.14,0,0,0,140,169.38a47.5,47.5,0,0,0,8.25-9.74A48.65,48.65,0,0,0,153.7,148.06Z"/><path class="cls-2" d="M128.68,97.7c3-11-3.42-18.75-13.88-17.58a30.18,30.18,0,0,0-15.38,7.39,30.66,30.66,0,0,0-9.33,14.43c-2.88,11,3.38,18.93,14.11,17.76a30.7,30.7,0,0,0,15.15-7.62,31.17,31.17,0,0,0,9-14.38Z"/><path class="cls-2" d="M131.43,51.45a8.75,8.75,0,0,0-9.37-12,20.93,20.93,0,0,0-10.6,5.05A21.56,21.56,0,0,0,105,54.33a8.66,8.66,0,0,0,9.61,12.13A20.51,20.51,0,0,0,125,61.37a20.8,20.8,0,0,0,6.17-9.79Z"/><path class="cls-3" d="M88,166.9c-13.52,9.65-22.54,20.87-23.13,30.34-.63,15.64,23,20.29,52.93,10.37s54.36-30.84,55.18-46.25a12.73,12.73,0,0,0-7.53-12.18,19.41,19.41,0,0,1,5.72,2.62,19.06,19.06,0,0,1,7.35,10,18.22,18.22,0,0,1,.86,6.27c-.86,20.91-31.56,47.92-68.7,60.27S44.29,233.71,45,212.84c.63-15.65,18-34.85,42.29-48.55"/></svg>