<svg id="Layer_1" data-name="Layer 1" xmlns="http://www.w3.org/2000/svg" viewBox="0 0 300 300"><defs><style>.cls-1{fill:#56bde5;}.cls-2{fill:#e85c54;}.cls-3{fill:#63bde0;}</style></defs><path class="cls-1" d="M168.39,149.78c-.11,10.77-8,18.64-18.7,18.54a18.73,18.73,0,0,1-18.32-18.83c.29-10.41,8.6-18.27,19.26-18.2A18.17,18.17,0,0,1,168.39,149.78Z"/><path class="cls-1" d="M59,161.36c-5.92,0-11.26-5.46-11.12-11.28a11.84,11.84,0,0,1,11.61-11.25c5.63,0,10.84,5.53,10.65,11.26C69.9,156.32,64.88,161.4,59,161.36Z"/><path class="cls-1" d="M165.76,250.49c-6.39-.1-10.63-4.7-10.51-11.4a10.87,10.87,0,0,1,11.18-10.6c5.49,0,10.71,5.14,10.73,10.48A11.1,11.1,0,0,1,165.76,250.49Z"/><path class="cls-1" d="M123.52,239.6a11.05,11.05,0,0,1,10.5-11c5.8-.12,11.58,5.39,11.5,11-.08,6-5.27,11.31-11.1,11.36A11,11,0,0,1,123.52,239.6Z"/><path class="cls-1" d="M209.06,208.09c-.49-5.6,4.85-10.81,11.27-10.65A10.85,10.85,0,0,1,231,208.55a11.13,11.13,0,0,1-11.05,10.8A10.82,10.82,0,0,1,209.06,208.09Z"/><path class="cls-1" d="M91.09,91A10.84,10.84,0,0,1,80.26,102.2c-6.41,0-11.08-4.84-11.08-11.43A10.91,10.91,0,0,1,79.72,80.23C86.12,80.14,91.06,84.8,91.09,91Z"/><path class="cls-1" d="M230.4,91.52c-.11,6.4-4.51,10.67-10.92,10.6a11,11,0,0,1-11-11.22c.06-5.67,5.6-10.76,11.61-10.66S230.51,85.14,230.4,91.52Z"/><path class="cls-1" d="M165.52,71.07a11,11,0,1,1,.16-22c6.25,0,10.94,4.93,10.92,11.55C176.58,66.22,171.48,71,165.52,71.07Z"/><path class="cls-1" d="M64.59,107.75c5.94,0,11.19,4.94,11.15,10.46,0,6.11-5.13,11.34-11.07,11.35-6.85,0-10.93-5-11.24-11C53.14,112.78,58.61,107.73,64.59,107.75Z"/><path class="cls-1" d="M134.34,71.13c-5.79.05-11.26-5.16-11.25-10.73a11.13,11.13,0,0,1,10.84-11.33A11.26,11.26,0,0,1,145.23,60C145.37,65.59,140,71.08,134.34,71.13Z"/><path class="cls-1" d="M80.41,219.52c-5.56,0-10.92-4.65-11.11-9.76-.24-6.7,4.55-12.07,10.86-12.18A11.05,11.05,0,0,1,91.37,209C91.07,214.11,87.72,219.44,80.41,219.52Z"/><path class="cls-1" d="M224.8,180.55a10.57,10.57,0,0,1,11-10.65,11,11,0,0,1,11,11.58c-.22,5.59-5.56,10.47-11.3,10.31A11.14,11.14,0,0,1,224.8,180.55Z"/><path class="cls-1" d="M246.27,118.46a10.85,10.85,0,0,1-10.81,11,11.56,11.56,0,0,1-11.15-11.28c0-5.16,5.72-10.92,10.92-11A11,11,0,0,1,246.27,118.46Z"/><path class="cls-1" d="M241.23,160.75c-5.62.09-11.14-5.05-11.22-10.46a11.31,11.31,0,0,1,10.75-11.55c6-.37,10.83,4,11.37,10.8C252.56,155,246.88,160.66,241.23,160.75Z"/><path class="cls-1" d="M94,229.14c0-6.32,4.42-10.92,10.63-11s11.24,4.84,11.18,10.64a11.44,11.44,0,0,1-10.83,11.24A11.1,11.1,0,0,1,94,229.14Z"/><path class="cls-1" d="M115.31,70.87c0,6.34-4.46,10.6-11,10.58A10.26,10.26,0,0,1,93.84,70.74c0-6.26,4.77-11.47,10.55-11.14C109.66,59.89,115.77,63.76,115.31,70.87Z"/><path class="cls-1" d="M53.89,181.23c0-6.21,4.35-10.86,10.4-10.8,8,.09,11,5.22,11.34,11.19.33,5.46-5.61,10.77-11.29,10.73S53.93,187.12,53.89,181.23Z"/><path class="cls-2" d="M86.23,149.8a10.12,10.12,0,0,1,10-10.14c5.13,0,10.07,5.2,9.93,10.37s-5.18,10.11-10.33,9.91A10.07,10.07,0,0,1,86.23,149.8Z"/><path class="cls-2" d="M186.84,196.57a10,10,0,0,1-10.39,9.67A10.16,10.16,0,0,1,167,196a10,10,0,0,1,10.21-9.52A9.89,9.89,0,0,1,186.84,196.57Z"/><path class="cls-2" d="M167,103.41c0-5.74,4-10.08,9.4-10.14A9.86,9.86,0,0,1,186.73,103c.09,5.24-4.78,10.11-10.11,10.09A9.84,9.84,0,0,1,167,103.41Z"/><path class="cls-2" d="M203.68,159.4a9.72,9.72,0,0,1-9.75-9.76,9.85,9.85,0,0,1,10-10c5,.08,9.88,5.11,9.77,10.07A9.9,9.9,0,0,1,203.68,159.4Z"/><path class="cls-2" d="M196.81,167.06c5.58,0,9.46,4,9.45,9.88a9.79,9.79,0,0,1-9.74,9.83,10,10,0,0,1-9.77-9.92C186.65,171.17,190.85,167.09,196.81,167.06Z"/><path class="cls-2" d="M113.24,103a9.76,9.76,0,0,1,9.94-9.68,10,10,0,0,1,9.85,9.83c-.08,5.25-4.76,10-9.89,10A9.89,9.89,0,0,1,113.24,103Z"/><path class="cls-2" d="M133.05,196.48a9.75,9.75,0,0,1-9.53,10.07,10,10,0,0,1-10.18-9.87,10.33,10.33,0,0,1,10.11-10C128.27,186.6,133,191.42,133.05,196.48Z"/><path class="cls-1" d="M186.93,64.21c4.24-5.14,8.52-5.9,14.48-2.58,1.12,2,.8,5.13,4.18,5.36,1.16,1.75.53,3.66.51,5.52-.8,0-1.74,0-1.85,1.08-.29,2.89-2.65,4.1-4.37,5.8-2.17-.08-4.21-.08-5.74,1.4-2-1.53-4.36-1.91-6-3.74-.61-1.83-.77-4-2.58-5.32C187.3,69.29,186.93,66.72,186.93,64.21Z"/><path class="cls-2" d="M206.21,122.6a9.63,9.63,0,0,1-9.88,10,9.78,9.78,0,1,1,0-19.55C202.14,113,206.16,117,206.21,122.6Z"/><path class="cls-2" d="M150,86.13a9.76,9.76,0,1,1-.06,19.51,9.81,9.81,0,0,1-9.81-9.81A9.56,9.56,0,0,1,150,86.13Z"/><path class="cls-2" d="M103.51,113.29a9.56,9.56,0,0,1,9.6,9.48,9.9,9.9,0,0,1-9.74,10.3c-4.92.12-10.05-5.2-10-10.31C93.53,117.37,97.83,113.34,103.51,113.29Z"/><path class="cls-2" d="M150.17,193.93a9.57,9.57,0,0,1,9.82,9.71c0,5.7-4,9.63-9.81,9.6-5.32,0-9.91-4.31-10-9.32A9.86,9.86,0,0,1,150.17,193.93Z"/><path class="cls-2" d="M113.13,177.22a9.63,9.63,0,0,1-9.41,9.74c-5.32,0-10.11-4.51-10.17-9.58a10.36,10.36,0,0,1,10.06-10.14C109.15,167.28,113.15,171.47,113.13,177.22Z"/><path class="cls-3" d="M186.93,64.21c0,2.51.37,5.08-1.35,7.52,1.81,1.37,2,3.49,2.58,5.32,1.62,1.83,4,2.21,6,3.74,1.53-1.48,3.57-1.48,5.74-1.4,1.72-1.7,4.08-2.91,4.37-5.8.11-1.09,1.05-1,1.85-1.08a10.59,10.59,0,0,1-8.28,8.82c-4.94,1-8.94-.79-11.68-5.13C183.62,72.24,183.88,68.33,186.93,64.21Z"/><path class="cls-3" d="M205.59,67c-3.38-.23-3.06-3.36-4.18-5.36A7.92,7.92,0,0,1,205.59,67Z"/><path class="cls-3" d="M206.26,229.16c0-.47,0-.93,0-1.39C206.88,228.22,206.81,228.69,206.26,229.16Z"/><path class="cls-1" d="M184.54,228.11c-.49-5.6,4.84-10.81,11.27-10.65a10.85,10.85,0,0,1,10.63,11.11,11.13,11.13,0,0,1-11.05,10.8A10.82,10.82,0,0,1,184.54,228.11Z"/></svg>