<svg id="Layer_1" data-name="Layer 1" xmlns="http://www.w3.org/2000/svg" viewBox="0 0 300 300"><path d="M129.15321,149.42455c.03721-11.76326,9.54771-21.01351,21.56638-20.97624a21.24525,21.24525,0,1,1-21.56638,20.97624Z" fill="#de021d"/><path d="M150.23242,211.82139a32.78405,32.78405,0,0,1,14.34189,3.019,16.37238,16.37238,0,0,1,4.72979,3.48347,8.96691,8.96691,0,0,1-.40153,13.28279,22.00642,22.00642,0,0,1-15.12018,5.7851c-4.79355.09836-9.59735-.10281-14.19565-1.80662a22.01609,22.01609,0,0,1-7.23093-4.31272c-3.75282-3.39753-4.13355-7.81967-.9527-11.73835,4.38429-5.40124,10.36189-7.36113,17.052-7.70856C149.046,211.79478,149.63991,211.82139,150.23242,211.82139Z" fill="#de021d"/><path d="M88.14393,149.363c.078,7.08286-1.40938,13.08334-6.16577,17.89242-5.07071,5.12687-12.03873,4.16211-15.624-2.1379a26.92368,26.92368,0,0,1-3.41194-10.82929c-.5092-5.31006-.8068-10.63034,1.01367-15.8071a20.07523,20.07523,0,0,1,4.76428-7.62953,8.742,8.742,0,0,1,12.41853-.57c4.08889,3.42776,5.54659,8.17032,6.51375,13.14054A27.81526,27.81526,0,0,1,88.14393,149.363Z" fill="#de021d"/><path d="M150.57734,61.34228c6.51072-.01,12.5213,1.49123,17.48417,5.99343a15.16306,15.16306,0,0,1,1.50769,1.54958c3.25728,3.94,3.10747,7.43541-.39154,11.21525-3.55228,3.83736-8.07138,5.81774-13.084,6.79162-8.05373,1.56471-15.33892-.55148-22.245-4.65654a9.30344,9.30344,0,0,1-1.29117-15.21154c4.60872-3.96819,10.03761-5.26257,15.84734-5.67482C149.12548,61.29812,149.853,61.34228,150.57734,61.34228Z" fill="#de021d"/><path d="M238.85249,150.06368c-.22608,4.74127-.80536,8.88406-2.66178,12.75589a18.14185,18.14185,0,0,1-3.75938,5.26811c-3.72989,3.60481-8.52079,3.659-12.33634.07733-6.39687-6.00471-8.18435-13.57482-7.21914-21.96241.61932-5.38192,2.35466-10.36824,6.20193-14.40423.27161-.28492.54857-.56611.83912-.83148,4.53209-4.139,8.35344-3.88106,12.29891.83444C236.76317,137.2362,238.549,143.6417,238.85249,150.06368Z" fill="#de021d"/><path d="M240.30147,85.01386a14.11141,14.11141,0,0,1-7.05527-1.56894c-9.23758-4.81883-16.01651-11.679-17.95451-22.33452-1.29572-7.12412,2.51236-11.33577,9.73986-10.93177a17.93031,17.93031,0,0,1,6.6687,1.65347C240.87952,56.15729,247.27244,62.88,249.66362,72.974a15.49273,15.49273,0,0,1,.23053,5.10711c-.383,3.92095-3.29178,6.54415-7.617,6.9247C241.62342,85.06336,240.96025,85.01386,240.30147,85.01386Z" fill="#de021d"/><path d="M84.97253,241.12527c.08,6.48316-4.33844,9.7565-11.55513,8.55883-10.98428-1.8229-21.70872-12.78555-23.21954-23.82206a15.00322,15.00322,0,0,1,.02044-4.32237c.67694-4.27207,4.10806-6.79788,8.92333-6.53076a25.06584,25.06584,0,0,1,15.44174,6.70092c5.699,5.02929,9.77567,10.97487,10.3567,18.82472C84.95463,240.7312,84.96338,240.92826,84.97253,241.12527Z" fill="#de021d"/><path d="M84.968,59.43363a22.71826,22.71826,0,0,1-4.21282,11.92448c-4.80512,6.95675-11.00924,11.9651-19.587,13.48047-7.48732,1.32273-12.10879-3.15333-11.00619-10.634C51.82624,62.91309,62.48141,52.087,73.75158,50.29173a13.88053,13.88053,0,0,1,5.11456.03622C82.75929,51.17064,84.99253,54.33835,84.968,59.43363Z" fill="#de021d"/><path d="M241.43336,214.98253c5.25556.00266,8.46185,3.03889,8.36426,8.32121-.13886,7.518-3.513,13.62289-8.85645,18.72859-4.59335,4.389-9.87683,7.345-16.36928,7.8449-5.71457.44-9.18242-2.62669-9.28312-8.34858C215.06673,228.91232,228.79214,214.97611,241.43336,214.98253Z" fill="#de021d"/><path d="M75.63833,106.34115,66.19088,95.97558C81.34943,90.98476,91.36225,81.031,96.4296,65.76988l9.45638,10.3662Z" fill="#de021d"/><path d="M98.51868,128.69334l14.36059.656v42.66153L98.535,171.38315C105.69777,157.2451,105.8256,143.128,98.51868,128.69334Z" fill="#de021d"/><path d="M128.71149,112.14059c.21372-4.75824.422-9.3959.64127-14.27715,14.16766,7.156,28.252,7.253,42.68721.00913-.20968,4.86208-.41037,9.51487-.61536,14.268Z" fill="#de021d"/><path d="M222.98264,107.35917,192.71787,77.15931l10.492-9.53905c4.965,15.15524,14.91112,25.16372,30.20694,30.20837Z" fill="#de021d"/><path d="M171.90944,200.67644c-16.966-7.15414-24.85142-7.14414-42.47586.04718V187.12294h42.47586Z" fill="#de021d"/><path d="M201.48363,171.21427h-13.6417V128.78584h13.63329C194.36772,142.90218,194.29715,156.99725,201.48363,171.21427Z" fill="#de021d"/><path d="M103.92175,226.15885l-9.29427,9.28752c-4.91529-14.76308-14.89137-24.74257-29.93415-29.704l9.51012-9.26177C84.07255,206.3364,94.11048,216.36079,103.92175,226.15885Z" fill="#de021d"/><path d="M225.02739,194.99507l9.382,9.34086c-14.944,4.96136-24.98634,14.88033-29.82318,29.53768l-9.23369-9.24522Z" fill="#de021d"/></svg>