<svg id="Layer_1" data-name="Layer 1" xmlns="http://www.w3.org/2000/svg" viewBox="0 0 300 300"><path d="M52.57,182.499H90.84082a83.54923,83.54923,0,0,0,10.2278,17.21884,73.29786,73.29786,0,0,0,15.76857,15.28824,85.28038,85.28038,0,0,0,18.10354,9.77537,65.55018,65.55018,0,0,0,9.88879,3.11082,2.35687,2.35687,0,0,0,1.23725-.03936,76.5469,76.5469,0,0,0,13.01451-5.1996,79.93258,79.93258,0,0,0,25.23465-20.20589,76.5534,76.5534,0,0,0,8.11126-11.74832,65.03216,65.03216,0,0,0,3.7528-7.58739c.0765-.19449.189-.37484.31791-.62658h36.84418a5.41851,5.41851,0,0,1-.56417,1.91346,101.39,101.39,0,0,1-8.92189,17.15264,111.68963,111.68963,0,0,1-9.13759,11.95282,94.2464,94.2464,0,0,1-26.09686,20.97761,96.18538,96.18538,0,0,1-16.86706,7.19812,91.72118,91.72118,0,0,1-12.0414,2.95381,100.59194,100.59194,0,0,1-11.55218,1.43073,94.23122,94.23122,0,0,1-10.28525.02306,98.74841,98.74841,0,0,1-25.66067-4.91329,80.4672,80.4672,0,0,1-7.665-2.983,101.36553,101.36553,0,0,1-16.62935-9.33441,87.501,87.501,0,0,1-7.53572-5.96961,92.31345,92.31345,0,0,1-7.1601-6.7854,101.51749,101.51749,0,0,1-8.27693-10.05738A94.88234,94.88234,0,0,1,57.7,194.15676a99.28978,99.28978,0,0,1-4.43929-9.925C53.05284,183.68605,52.82863,183.14649,52.57,182.499ZM210.53908,216.7391c-.34781-.12814-.5696-.10731-.72628.04133a11.74245,11.74245,0,0,1-2.19862,1.45627,99.07062,99.07062,0,0,1-9.2158,4.9352c-2.36946,1.09008-4.78386,2.05059-7.23041,2.93518a77.28005,77.28005,0,0,1-9.904,2.7884c-2.70613.58764-5.44641.94087-8.18681,1.32142-1.2092.16793-2.43.25132-3.62973.336a90.91134,90.91134,0,0,1-11.03918.02346,35.67632,35.67632,0,0,1-3.87262-.413c-.99228-.161-1.99664-.24816-2.98809-.41341-1.65187-.27532-3.30275-.56168-4.94466-.89031-1.61-.32224-3.20731-.69236-4.78806-1.15763-1.5269-.44942-3.03769-.94409-4.54543-1.44716-.39233-.13089-.84812.10383-1.17687-.25549a3.59,3.59,0,0,0-1.43455-.71582,65.13943,65.13943,0,0,1-6.77649-3.02674,12.68169,12.68169,0,0,0-2.16761-1.0621c-2.37134,1.20015-4.69638,2.47853-7.15211,3.49028a47.573,47.573,0,0,1-7.4039,2.40227c-2.1597.49922-4.34795.8387-6.55491,1.12631a37.37892,37.37892,0,0,1-9.05377.09053,33.25977,33.25977,0,0,1-9.09307-2.34187c-.50723-.21166-1.03706-.61257-1.68981-.31837.07127.11848.10934.26206.202.32374,1.43251.95393,2.76423,2.04549,4.19913,3.00082,2.58948,1.724,5.20273,3.39927,7.94071,4.881,1.97478,1.06876,4.05651,1.93229,6.03376,2.95677a88.30543,88.30543,0,0,0,8.22661,3.45426c2.05051.81318,4.23108,1.32416,6.36425,1.93635,1.64169.47113,3.3098.802,4.9603,1.21849a79.44643,79.44643,0,0,0,10.52976,1.72357c2.58937.29364,5.20435.3657,7.80885.52073a79.00689,79.00689,0,0,0,8.34725-.28295,22.34223,22.34223,0,0,0,3.39034-.2582c2.50239-.50754,5.04557-.72111,7.55641-1.22149,3.15294-.62833,6.28284-1.31191,9.36394-2.199a89.57116,89.57116,0,0,0,16.96988-6.82365,79.73589,79.73589,0,0,0,9.40539-5.59378c2.34337-1.67933,4.666-3.39211,6.92642-5.18028.80369-.63579,1.77965-1.1667,2.07966-2.069,2.0329-1.1087,3.25685-2.88857,4.88133-4.19635C210.32922,217.53133,210.35654,217.14029,210.53908,216.7391Z" fill="#662975"/><path d="M151.383,54.21933c2.018.18289,4.03642.337,6.046.62929,2.92558.42558,5.82679.96816,8.69662,1.661a101.75474,101.75474,0,0,1,9.81019,2.93745,98.68047,98.68047,0,0,1,13.29909,5.86006,85.7501,85.7501,0,0,1,12.03268,7.89852A97.83367,97.83367,0,0,1,213.3179,84.0041a96.745,96.745,0,0,1,10.03826,12.67222,99.25957,99.25957,0,0,1,7.19013,12.80185c.80524,1.71723,1.49828,3.48709,2.2384,5.23468a1.15065,1.15065,0,0,1,.11414.8514c-.91373.2528-35.11867.36407-38.03562.125a3.2237,3.2237,0,0,1-.63543-1.07742A80.61861,80.61861,0,0,0,164.18815,82.165a73.27825,73.27825,0,0,0-15.46767-7.171c-2.60571-.85771-5.21557-1.674-7.88963-2.29877a4.996,4.996,0,0,0-2.84863.12728,80.18989,80.18989,0,0,0-41.74487,32.8014,86.989,86.989,0,0,0-5.18471,9.38808,1.44467,1.44467,0,0,1-.54435.68753H53.77211a11.97522,11.97522,0,0,1,1.12093-2.99213c1.18317-2.51321,2.3606-5.03418,3.74375-7.45A113.247,113.247,0,0,1,69.17667,89.80423c1.19928-1.46781,2.35939-2.96406,3.64593-4.36522,2.00077-2.179,4.20393-4.14313,6.34509-6.17084a83.531,83.531,0,0,1,7.56456-6.35078A98.79866,98.79866,0,0,1,97.6533,65.82828a96.66275,96.66275,0,0,1,18.00488-7.68794,93.92434,93.92434,0,0,1,13.54824-3.14683,96.286,96.286,0,0,1,18.8343-1.14071c.93415.03562,1.84436.23612,2.77429.26557ZM72.82043,86.3746c.58129.16181.96656-.22744,1.36053-.522,1.98539-1.48429,4.06329-2.8285,6.17743-4.11815a75.18828,75.18828,0,0,1,9.98671-5.062,84.363,84.363,0,0,1,10.19156-3.56714q3.0906-.859,6.23382-1.47275c1.76728-.34681,3.55-.60808,5.34094-.83776,2.25079-.28865,4.50462-.56426,6.76423-.64875a80.86055,80.86055,0,0,1,14.51118.67008c1.95151.27922,3.90323.569,5.83655.92934a65.62437,65.62437,0,0,1,8.73345,2.315,75.67735,75.67735,0,0,1,8.99508,3.60145,2.60432,2.60432,0,0,0,2.95251-.15773,25.37366,25.37366,0,0,1,2.70767-1.59762,48.63015,48.63015,0,0,1,11.0957-4.397,36.96359,36.96359,0,0,1,7.52959-1.33605,43.48735,43.48735,0,0,1,6.16784-.1606,44.43321,44.43321,0,0,1,8.52336,1.51749,10.05009,10.05009,0,0,0,2.49895.5671c-.36072-.78232-1.08075-.90445-1.57551-1.29621a40.71818,40.71818,0,0,0-5.36583-3.416c-1.85738-1.04852-3.66538-2.17078-5.58768-3.11917-1.84825-.91184-3.71971-1.7675-5.61853-2.55088a88.76119,88.76119,0,0,0-10.92306-3.74958A78.22636,78.22636,0,0,0,157.684,55.52443a5.68714,5.68714,0,0,1-1.678-.19807,7.77582,7.77582,0,0,0-2.58827-.45251c-2.56952-.14906-5.13376-.39592-7.71617-.359-3.63259.052-7.27211-.06819-10.88822.345a8.16008,8.16008,0,0,0-3.20683.60323,6.063,6.063,0,0,0-2.83036.18683q-3.95609.65544-7.85772,1.64148a99.40181,99.40181,0,0,0-13.5952,4.48839A92.216,92.216,0,0,0,95.17654,67.926a77.96638,77.96638,0,0,0-8.49361,5.80461,109.88323,109.88323,0,0,0-8.79865,7.57881c-.62458.613-1.27373,1.21071-1.91689,1.80662a25.25288,25.25288,0,0,0-3.17774,3.22922c-.096.044-.221.06978-.14091.22524C72.81348,86.59833,72.8105,86.48081,72.82043,86.3746Zm-.35711.83614c-.17027-.14089-.33725-.13607-.33132-.02259C72.1432,87.40307,72.29141,87.37223,72.46332,87.21074ZM198.97038,72.34518l.08572-.066-.07446-.07849-.088.10277Z" fill="#662975"/><path d="M77.97232,119.19354a22.48649,22.48649,0,0,1,3.23677,2.97682c2.07045,2.19242,4.29119,4.24865,6.28254,6.5085,2.06079,2.33866,4.40832,4.39639,6.406,6.79356.93763,1.12511,2.07383,2.08256,3.08671,3.14767,2.14152,2.252,4.207,4.579,6.40616,6.77253,1.89707,1.89222,3.74224,3.83325,5.59288,5.76766,2.014,2.10521,3.9909,4.24555,6.06965,6.28837.55849.54882.83236,1.37318,1.68877,1.72706.13159-12.17176-.11713-24.30639.13719-36.43833.00133-.06367.10576-.12519.21819-.25009h7.63595c.24617,1.10334.24009,55.04565-.00039,56.04689-.35735.052-.51328-.24035-.71084-.43729-2.92459-2.91569-5.68913-5.98576-8.57969-8.93251-1.6378-1.66964-3.23748-3.37553-4.86854-5.05107-3.253-3.34174-6.43894-6.74878-9.65722-10.12443-.51779-.54311-1.06027-1.06267-1.59019-1.59424-2.53546-2.5434-4.90576-5.24459-7.47027-7.76209-1.66642-1.63587-3.22878-3.37749-4.84829-5.0616-.22271-.23159-.38853-.56323-.75785-.59157a.45307.45307,0,0,0-.13234.05234.30258.30258,0,0,0-.05982.11065.33247.33247,0,0,0-.0359.11816q-.00231,18.15955-.0015,36.30442a40.829,40.829,0,0,1-8.048.14108Z" fill="#afadaf"/><path d="M10.148,122.45871h8.14936v21.00563c3.73915-3.56276,6.99591-7.18015,10.42577-10.62355,3.4264-3.43993,6.79158-6.9408,10.16193-10.39278H49.75431c-4.07342,4.17486-8.09321,8.11909-12.06778,12.10725-3.96725,3.98081-7.94686,7.94932-11.97987,11.982L49.945,175.72317H39.02185L19.97518,152.22736a2.92358,2.92358,0,0,0-1.66591,2.6973c.05516,6.4773.02458,12.95533.02415,19.4331,0,.41851,0,.837,0,1.23738a48.155,48.155,0,0,1-8.10834.12772C9.98784,174.8097,9.90134,124.66971,10.148,122.45871Z" fill="#662975"/><path d="M65.0456,175.78287H56.98005V122.46253c1.29491-.09343,2.62179-.02384,3.94317-.03736,1.35057-.01382,2.70139-.003,4.03365-.003C65.20172,123.41074,65.2841,173.51836,65.0456,175.78287Z" fill="#662975"/><path d="M198.15547,122.44991H187.25381c-6.77538,6.93636-13.60069,13.92387-20.648,21.13836V122.56668a47.72157,47.72157,0,0,0-8.02516.0294c-.22171,1.99232-.14,52.22888.0908,53.13934h7.94341c0-3.73648-.02431-7.40654.00673-11.07612.0313-3.67523-.15237-7.35509.13737-11.00352a5.02444,5.02444,0,0,1,1.59877-1.39838q9.54219,11.772,19.03263,23.47967h10.935c-8.13071-9.8524-16.20114-19.45709-24.22113-29.19288C182.10954,138.52456,190.0602,130.55973,198.15547,122.44991Z" fill="#662975"/><path d="M264.45716,118.91952c-1.88981,4.06364-3.6288,7.81222-5.37581,11.55688q-2.64688,5.67292-5.30673,11.33987-2.62478,5.61074-5.2462,11.22338c-1.75554,3.78056-3.47823,7.57645-5.24283,11.35267-1.74313,3.72953-3.52739,7.43985-5.25654,11.33253h8.77384c1.00738-2.17264,1.95474-4.28642,2.96342-6.37042,1.0079-2.08205,1.81116-4.26142,2.91323-6.25031,1.86058-.35581,19.54641-.38362,22.86839-.03563,1.81349,4.183,3.65337,8.4266,5.493,12.66975H290C281.50245,156.83583,273.03879,138.00906,264.45716,118.91952Zm-8.34129,36.23427c2.71739-5.93751,5.382-11.75964,8.18193-17.87785,2.75956,6.08716,5.23378,11.95069,7.83554,17.87785Z" fill="#662975"/><path d="M230.41237,148.63983a23.14845,23.14845,0,0,0-5.367-3.55756c-2.3847-1.18382-4.91118-2.02547-7.34892-3.07987a17.76543,17.76543,0,0,1-4.27736-2.41562,5.45358,5.45358,0,0,1-.83069-7.48448,7.49865,7.49865,0,0,1,5.48834-2.99462c3.08191-.28829,5.77913.43006,7.65574,3.16647a9.70527,9.70527,0,0,0,1.47175,1.97515c2.17568-1.28791,4.32729-2.56169,6.504-3.85025a18.575,18.575,0,0,0-2.45973-3.54812,14.792,14.792,0,0,0-6.56065-4.601,17.81644,17.81644,0,0,0-12.39488.36994,14.53171,14.53171,0,0,0-7.89814,7.122,12.90449,12.90449,0,0,0-1.22961,6.51861,11.96988,11.96988,0,0,0,1.94129,6.06958,17.20307,17.20307,0,0,0,6.22952,5.44976,49.18094,49.18094,0,0,0,5.77524,2.57233,30.39117,30.39117,0,0,1,6.28954,3.21142,7.58745,7.58745,0,0,1,3.32664,5.30764,8.64581,8.64581,0,0,1-3.00456,8.27778,8.85311,8.85311,0,0,1-6.97742,1.87717,8.17481,8.17481,0,0,1-7.07418-6.309,24.62913,24.62913,0,0,0-.76679-3.53415c-2.72076.59511-5.37606,1.1759-8.03059,1.75655,0,.32535-.00725.53516.00207.74419a3.39737,3.39737,0,0,0,.05588.5045,20.26866,20.26866,0,0,0,2.9735,7.60881,14.40339,14.40339,0,0,0,8.11856,6.08872.23853.23853,0,0,0,.3032.13352,3.81846,3.81846,0,0,0,1.26375.28632c.18963.35872.49515.2362.78283.18843q.98293.11724,1.96561.23448a7.16493,7.16493,0,0,0,2.86925-.04947q1.104-.10929,2.20776-.21854a3.16068,3.16068,0,0,0,2.35831-.61076,15.90226,15.90226,0,0,0,9.69922-8.53933,17.43557,17.43557,0,0,0,1.42492-10.24543A13.82908,13.82908,0,0,0,230.41237,148.63983Z" fill="#662975"/><path d="M145.80138,122.6615l-.02458-.06979a.22633.22633,0,0,0-.29362-.16136c-1.3111-.00275-2.6222-.01517-3.933-.0055-1.28988.00954-2.58416-.05371-3.85542.04275v53.31963h7.78846a.22645.22645,0,0,0,.29414-.1637l.02406-.06745c.30138-.27623.16246-.63721.16272-.958q.0101-25.48931,0-50.97861C145.96384,123.29871,146.10276,122.93769,145.80138,122.6615Z" fill="#662975"/><path d="M210.53908,216.7391c-.18254.40119-.20986.79223-.58684,1.09576-1.62448,1.30778-2.84843,3.08765-4.88133,4.19635-.3.9023-1.276,1.43321-2.07966,2.069-2.26041,1.78817-4.58305,3.50095-6.92642,5.18028a79.73589,79.73589,0,0,1-9.40539,5.59378,89.57116,89.57116,0,0,1-16.96988,6.82365c-3.0811.8871-6.211,1.57068-9.36394,2.199-2.51084.50038-5.054.714-7.55641,1.22149a22.34223,22.34223,0,0,1-3.39034.2582,79.00689,79.00689,0,0,1-8.34725.28295c-2.6045-.155-5.21948-.22709-7.80885-.52073a79.44643,79.44643,0,0,1-10.52976-1.72357c-1.6505-.41649-3.31861-.74736-4.9603-1.21849-2.13317-.61219-4.31374-1.12317-6.36425-1.93635a88.30543,88.30543,0,0,1-8.22661-3.45426c-1.97725-1.02448-4.059-1.888-6.03376-2.95677-2.738-1.48176-5.35123-3.157-7.94071-4.881-1.4349-.95533-2.76662-2.04689-4.19913-3.00082-.09263-.06168-.1307-.20526-.202-.32374.65275-.2942,1.18258.10671,1.68981.31837a33.25977,33.25977,0,0,0,9.09307,2.34187,37.37892,37.37892,0,0,0,9.05377-.09053c2.207-.28761,4.39521-.62709,6.55491-1.12631a47.573,47.573,0,0,0,7.4039-2.40227c2.45573-1.01175,4.78077-2.29013,7.15211-3.49028a12.68169,12.68169,0,0,1,2.16761,1.0621,65.13943,65.13943,0,0,0,6.77649,3.02674,3.59,3.59,0,0,1,1.43455.71582c.32875.35932.78454.1246,1.17687.25549,1.50774.50307,3.01853.99774,4.54543,1.44716,1.58075.46527,3.178.83539,4.78806,1.15763,1.64191.32863,3.29279.615,4.94466.89031.99145.16525,1.99581.2524,2.98809.41341a35.67632,35.67632,0,0,0,3.87262.413,90.91134,90.91134,0,0,0,11.03918-.02346c1.1997-.08467,2.42053-.16806,3.62973-.336,2.7404-.38055,5.48068-.73378,8.18681-1.32142a77.28005,77.28005,0,0,0,9.904-2.7884c2.44655-.88459,4.861-1.8451,7.23041-2.93518a99.07062,99.07062,0,0,0,9.2158-4.9352,11.74245,11.74245,0,0,0,2.19862-1.45627C209.96948,216.63179,210.19127,216.611,210.53908,216.7391Z" fill="#afadaf"/><path d="M72.78965,86.34528a25.25288,25.25288,0,0,1,3.17774-3.22922c.64316-.59591,1.29231-1.19359,1.91689-1.80662a109.88323,109.88323,0,0,1,8.79865-7.57881A77.96638,77.96638,0,0,1,95.17654,67.926a92.216,92.216,0,0,1,12.14664-6.14622,99.40181,99.40181,0,0,1,13.5952-4.48839q3.89738-.98322,7.85772-1.64148a6.063,6.063,0,0,1,2.83036-.18683,8.16008,8.16008,0,0,1,3.20683-.60323c3.61611-.41319,7.25563-.293,10.88822-.345,2.58241-.03694,5.14665.20992,7.71617.359a7.77582,7.77582,0,0,1,2.58827.45251,5.68714,5.68714,0,0,0,1.678.19807,78.22636,78.22636,0,0,1,11.67292,2.44126A88.76119,88.76119,0,0,1,180.28,61.71527c1.89882.78338,3.77028,1.639,5.61853,2.55088,1.9223.94839,3.7303,2.07065,5.58768,3.11917a40.71818,40.71818,0,0,1,5.36583,3.416c.49476.39176,1.21479.51389,1.57551,1.29621a10.05009,10.05009,0,0,1-2.49895-.5671,44.43321,44.43321,0,0,0-8.52336-1.51749,43.48735,43.48735,0,0,0-6.16784.1606,36.96359,36.96359,0,0,0-7.52959,1.33605,48.63015,48.63015,0,0,0-11.0957,4.397,25.37366,25.37366,0,0,0-2.70767,1.59762,2.60432,2.60432,0,0,1-2.95251.15773,75.67735,75.67735,0,0,0-8.99508-3.60145,65.62437,65.62437,0,0,0-8.73345-2.315c-1.93332-.36029-3.885-.65012-5.83655-.92934a80.86055,80.86055,0,0,0-14.51118-.67008c-2.25961.08449-4.51344.3601-6.76423.64875-1.79095.22968-3.57366.49095-5.34094.83776q-3.14218.61662-6.23382,1.47275A84.363,84.363,0,0,0,90.3451,76.67242a75.18828,75.18828,0,0,0-9.98671,5.062c-2.11414,1.28965-4.192,2.63386-6.17743,4.11815-.394.29454-.77924.68379-1.36053.522Z" fill="#afadaf"/><path d="M72.46332,87.21074c-.17191.16149-.32012.19233-.33132-.02259C72.12607,87.07467,72.293,87.06985,72.46332,87.21074Z" fill="#afadaf"/><path d="M198.97038,72.34518l-.07676-.04175.088-.10276.07446.07849Z" fill="#afadaf"/><path d="M72.82043,86.3746c-.00993.10621-.007.22373-.17169.19592-.08014-.15546.045-.18125.14091-.22524Z" fill="#afadaf"/></svg>