<?xml version="1.0" encoding="utf-8"?>
<!-- Generator: Adobe Illustrator 28.3.0, SVG Export Plug-In . SVG Version: 6.00 Build 0)  -->
<svg version="1.1" id="Layer_1" xmlns="http://www.w3.org/2000/svg" xmlns:xlink="http://www.w3.org/1999/xlink" x="0px" y="0px"
	 viewBox="0 0 300 300" style="enable-background:new 0 0 300 300;" xml:space="preserve">
<path d="M254.5,150.6c0,19.6,0,39.2,0,58.8c0,6.2-2.5,10.4-8.6,10.9c-5,0.5-7.1,4.7-11.1,6.2c-5.6,2.1-10.5,5.8-15.8,8.7
	c-5.5,3.1-11.1,6-16.6,9.2c-7.2,4.2-13.9,9.3-21.4,12.6c-9.4,4.2-17.7,10.1-26.6,14.9c-1.7,0.9-3.5,2.6-5.2,2.5
	c-2.5-0.2-5.1-1.4-7.5-2.6c-4.4-2.2-8.6-4.5-12.8-7.1c-4.3-2.6-8.1-6-12.6-8c-5.9-2.7-9.8-8.2-16.7-9.5c-3.1-0.6-5.6-4.1-8.5-6
	c-6.9-4.5-13.8-9.1-21-13.1c-6.7-3.8-13.9-6.8-20.7-10.5c-2.6-1.4-3.6-4.2-3.6-7.5c0.1-19,0-38,0-57c0-19.6,0.5-39.2-0.1-58.8
	C45.2,86,49,81.5,55.8,77.7c6.7-3.7,13-8,19.6-11.9c4.6-2.7,9.4-5.1,14.1-7.7c5-2.8,9.8-5.7,14.8-8.6c3.8-2.2,7.7-4.3,11.5-6.5
	c6.1-3.6,12.1-7.4,18.2-11c3.7-2.2,7.3-4.5,11.2-6.1c4.5-1.9,8.1,1.5,11.7,3.3c5.5,2.8,10.9,5.8,16.3,8.8c10,5.6,20,11.3,30,17
	c4.2,2.4,8.2,5,12.4,7.4c5.5,3.1,11,6.2,16.5,9.2c5.1,2.8,10.1,5.5,15.4,8c4.2,2,7.1,5.7,7.1,10.3
	C254.5,110.2,254.5,130.4,254.5,150.6C254.5,150.6,254.5,150.6,254.5,150.6z M192.4,114.9c-2.2-0.3-3-0.5-3.7-0.5
	c-22.7,0.1-45.5,0.2-68.2,0.3c-4.8,0-9.6-0.1-14.5,0.1c-1.1,0-2.7,0.9-3.1,1.8c-0.3,0.7,0.7,2.1,1.3,3.1c0.8,1.2,2,2.2,2.6,3.5
	c3.1,6.4,3.9,13.6,8.8,19.6c4.6,5.6,4,14,9.2,19.7c1.4,1.5,1.9,3.8,2.7,5.8c1.8,4.9,2.1,11.3,5.4,14.6c5.6,5.4,4.3,13.7,9.9,18.9
	c2,1.8,2,5.6,3.1,8.5c0.4,0.9,1.2,1.7,1.9,2.5c0.8-0.9,2-1.6,2.5-2.7c1.9-3.8,3.5-7.7,5.2-11.6c1.3-3,2.3-6,3.7-8.9
	c1.4-2.8,3.3-5.4,4.5-8.2c2.1-4.9,3.7-10,5.8-15c2.4-5.7,5.2-11.2,7.8-16.8c3.5-7.6,6.9-15.2,10.3-22.8
	C189.2,123,190.6,119.3,192.4,114.9z M155.8,219.1c7.5-2.2,13.7,0,20.5-2.7c7-2.8,15.3-2.3,23.1-3.1c9.2-0.9,18.5-1.7,27.8-2.5
	c0.6-0.1,1.1-0.3,1.7-0.5c2.1-0.7,4.2-1.5,6.4-2c1.7-0.3,3.5-0.1,6.8-0.1c-2.4-6.4-4.1-11.9-6.5-16.9c-4.8-10-10.2-19.8-15.1-29.8
	c-2.8-5.7-5.2-11.5-7.8-17.3c-2.6-5.8-5.3-11.5-8.1-17.2c-0.7-1.4-2.1-2.6-3.2-3.8c-1.2,1.2-2.7,2.2-3.5,3.7c-1.2,2.2-1.9,4.8-3,7.1
	c-3.5,7.6-7.3,15-10.7,22.7c-2,4.6-3.2,9.6-5.3,14.2c-2.4,5.1-5.6,9.9-8.2,15c-3.8,7.6-7.3,15.3-10.9,23.1
	C158.5,211.8,157.5,214.7,155.8,219.1z M138.6,218.7c0.3-0.4,0.5-0.8,0.8-1.2c-0.6-1.5-1-3-1.7-4.4c-2.6-5.6-5.4-11.2-8-16.8
	c-2.8-5.9-5.4-11.9-8.2-17.7c-1.5-3.1-4.5-5.9-5.1-9.2c-1.8-9.3-7.2-16.9-10.6-25.4c-2.6-6.5-5.7-12.9-9-20.2
	c-0.8,0.3-2.7,0.5-3.2,1.4c-3.2,6.4-6.3,12.9-9.2,19.5c-2.6,6.1-4.7,12.4-7.3,18.5c-2.7,6.2-5.8,12.1-8.6,18.2
	c-3.3,7-6.5,14.1-9.7,21.2c-0.7,1.5-1.2,3.2-1.8,5c5.9,1.5,11,1,16.2,2.6c8.5,2.6,18,2.1,27.1,3c6.9,0.7,13.7,1.6,20.5,2.4
	c0.4,0.1,1,0.1,1.3,0.3C127.2,220.5,133.2,216.9,138.6,218.7z M105.7,104.5c2.3,0.2,3.3,0.4,4.3,0.4c24.7-0.1,49.4-0.1,74.1-0.2
	c1.7,0,3.3-0.5,5-0.8c-0.3-1.9-0.1-4.1-1.1-5.6c-5-7.6-10.3-15.1-15.5-22.6c-2.2-3.2-4.4-6.3-6.5-9.6c-3.2-5-6.4-10.2-9.6-15.2
	c-0.5-0.7-1.1-1.3-1.6-2c-1.7-2.4-3.1-5.1-5.1-7.2c-0.6-0.6-3.3-0.3-4,0.5c-3.1,3.5-6,7.2-8.7,11.1c-3.8,5.7-7.4,11.6-11.1,17.3
	c-2.3,3.6-4.9,7-7.2,10.6c-3.2,5-6.5,10-9.5,15.2C108,98.7,107.1,101.4,105.7,104.5z M245,187.5c0-31.3,0-61.6,0-93.2
	c-12,5.8-23.4,11.2-35.7,17.1c0.1,1-0.1,3.3,0.6,5.2c1.7,4.2,4.1,8.2,5.8,12.4c1.3,3.1,1,7.2,3,9.4c5.6,6.2,7.4,14.2,11,21.3
	c3.9,7.8,7.6,15.6,11.5,23.4C242,184.5,243.3,185.5,245,187.5z M55.6,188.5c3-7.2,5.8-13.5,8.4-19.9c1.2-3,1.6-6.4,3-9.4
	c3.3-7.3,6.9-14.5,10.3-21.8c3-6.3,6.1-12.6,8.9-19c1.2-2.7,2.7-5.9-0.4-8.3c-1.8-1.4-4.2-2-6.2-3c-4.8-2.3-9.5-4.8-14.4-7
	c-2.9-1.4-6-2.4-9.7-3.8c-0.2,2.8-0.4,4.7-0.4,6.6c0,22.6,0,45.2,0,67.9c0,3,0.7,6.4-0.5,8.9C52.8,183,54.7,185,55.6,188.5z
	 M165,44.1c-0.4,0.3-0.7,0.6-1.1,0.9c0.4,1,0.7,2,1.3,2.8c1.6,2.1,3.7,3.8,4.9,6.1c5.4,10.2,11.9,19.5,19.3,28.3
	c0.4,0.5,1.1,0.9,1.4,1.5c2.8,6.5,6.5,12.4,11.6,17.2c1.1,1.1,4.2,1.4,5.7,0.8c6-2.8,11.7-6.2,17.6-9.1c2.5-1.3,5.4-1.9,7.9-3.1
	c1.1-0.6,2.4-2.1,2.3-3.1c-0.1-1.3-1.2-3.1-2.4-3.7c-7.4-4-15.1-7.5-22.5-11.5c-5.1-2.7-9.9-5.9-14.9-8.8c-5.1-3-10.3-6-15.4-9
	C175.5,50.2,170.3,47.1,165,44.1z M61.3,86.4c2.4,1.4,4.4,2.6,6.4,3.7c7.5,4,14.9,8.1,22.5,11.8c1.2,0.6,4.1-0.3,4.9-1.4
	c6.8-10,13.1-20.3,19.8-30.3c4.6-6.9,9.7-13.4,14.4-20.1c0.8-1.1,0.9-2.6,1.5-4.2c-1.2-0.1-2.2-0.6-2.6-0.3
	C107.4,61,83.9,72.1,61.3,86.4z M222.8,222.3c-0.2-0.5-0.3-1-0.5-1.4c-4.5-0.3-8.6,0.6-13.2,1.8c-7.3,2-15.1,2.1-22.7,2.8
	c-3.3,0.3-7.4-0.9-9.7,0.7c-3.5,2.3-6.7,1.7-10.2,1.9c-2.3,0.1-4.5-0.1-6.8,0.1c-3.7,0.3-7.4,3.6-7.4,6.7c-0.1,7.2-0.1,14.5,0,21.7
	c0,3.4,1.7,4.1,4.5,2.4c7.9-4.5,15.9-9,23.8-13.5c6.6-3.8,13-7.8,19.6-11.6c3.8-2.1,7.9-3.8,11.8-5.8
	C215.7,226.3,219.2,224.2,222.8,222.3z M142,260.5c0.4-0.4,0.8-0.8,1.2-1.2c0-7,0-14.1,0-21.1c0-7.8-2-9.9-9.8-9.9
	c-3.2,0-7.2,1.1-9.3-0.5c-3.7-2.8-7.4-1.7-11.1-2.1c-8-0.9-16.1-1.8-24.1-2.8c-0.7-0.1-1.4-0.5-1.9-0.9c-3.3-2.2-6.5-1.2-9.9,0.3
	C98.8,235,120.4,247.7,142,260.5z"/>
</svg>
