<svg id="Layer_1" data-name="Layer 1" xmlns="http://www.w3.org/2000/svg" viewBox="0 0 300 300"><path d="M126.92291,261.07143a37.92343,37.92343,0,0,0-1.96-8.4062,37.19112,37.19112,0,0,0-1.95271-4.638c-.07106-.125-.17886-.23031-.25236-.35281a26.94428,26.94428,0,0,0-2.91069-4.06467h-.049a23.25214,23.25214,0,0,0-1.82531-1.85471,24.40737,24.40737,0,0,0-4.197-3.3125,126.03889,126.03889,0,0,0-12.64483-6.723c-2.58238-1.34509-4.66-2.602-5.43672-4.16268a2.99436,2.99436,0,0,1-.1813-2.36187,33.49357,33.49357,0,0,1,8.2788-9.53324,14.2103,14.2103,0,0,0,1.5852-1.43574,14.41622,14.41622,0,0,0,1.79835-2.38882,14.19849,14.19849,0,0,0,.81587-1.47985,14.40418,14.40418,0,0,0,.66642-1.61949,11.55723,11.55723,0,0,0,.196-4.219,11.68135,11.68135,0,0,0-.89673-3.2586,9.59723,9.59723,0,0,0-1.24953-1.769,9.49408,9.49408,0,0,0-3.47911-2.46478c-.11025-.0441-.23521-.05635-.34791-.09555a9.02511,9.02511,0,0,0-1.74935-.48756c-1.03148-.26461-2.085-.36752-3.1263-.56107a44.89257,44.89257,0,0,0-10.67252-.84528,57.25113,57.25113,0,0,0-10.0845,2.05807,10.80827,10.80827,0,0,1-3.52811.33321h-.0098a3.85925,3.85925,0,0,1-1.64155-.60272,3.27219,3.27219,0,0,1-.84282-.68357,11.0094,11.0094,0,0,1-1.4039-7.32572c.125-.49982.20826-1.01188.31851-1.5166a36.13219,36.13219,0,0,0,.784-5.25786,5.447,5.447,0,0,0-.615-1.92086,7.76961,7.76961,0,0,0-2.11441-2.553,16.06144,16.06144,0,0,0-2.13647-1.44555c-1.65625-.98-3.80251-1.95761-5.97083-2.94989-2.17076-.98982-4.366-1.99436-6.12273-3.02339a14.79121,14.79121,0,0,1-3.952-3.092,5.73253,5.73253,0,0,1-1.4676-3.12874,5.35994,5.35994,0,0,1,.86733-3.0479,5.41593,5.41593,0,0,1,.90653-1.03393c.0539-.05145.0882-.1176.147-.1666a5.65,5.65,0,0,1,1.39164-.86978,24.84126,24.84126,0,0,1,10.98858-1.7567c5.92183-.20091,14.85235-.20091,21.97717,0a66.31437,66.31437,0,0,0,15.45506-.30136,4.48487,4.48487,0,0,0,3.71186-3.3076,4.40871,4.40871,0,0,0,.15191-1.6587,23.18951,23.18951,0,0,0-2.20752-5.41956c-.70317-1.75671-.70317-3.51341,2.81024-4.8683a25.30007,25.30007,0,0,1,2.45742-.75952c3.73391-.99473,8.92807-1.84491,12.59583-2.85189a14.90966,14.90966,0,0,0,4.20433-1.50679c.06125-.03185.12985-.05145.1911-.08576.13231-.0735.24991-.174.37731-.2499a14.79244,14.79244,0,0,0,3.30515-2.624,5.879,5.879,0,0,0,1.5558-5.06675,7.4108,7.4108,0,0,0-3.21205-4.16513,14.244,14.244,0,0,0-5.66947-1.85716c-.12-.02205-.26951-.049-.39691-.0735-2.57993-.48756-6.04923-1.06578-8.63406-1.78365-2.37167-.70072-3.92992-1.5705-4.23618-3.2096a2.75477,2.75477,0,0,1-.12985-.70317c.10045-2.10706,2.05806-5.41956,2.35942-7.67853a2.77445,2.77445,0,0,0-.68847-2.37167c-.0637-.0686-.08085-.16416-.15436-.23031a4.41932,4.41932,0,0,0-.99963-.58312,4.2212,4.2212,0,0,0-.40181-.2352,10.76408,10.76408,0,0,0-2.07276-.54392,33.32069,33.32069,0,0,0-5.91938-.45081,55.26563,55.26563,0,0,0-6.97536.45081h-.05145c-2.00416.37241-4.01322.68357-6.02473.97023-.96043.1372-1.93066.24256-2.896.35771-1.6685.19846-3.337.40426-5.02755.52922a65.85217,65.85217,0,0,1-7.89414-.45327c-1.546-.15925-3.12384-.33566-4.72129-.50471-1.38674-.147-2.78818-.28911-4.19453-.39692a91.22967,91.22967,0,0,0-9.17552-.35771c-3.05524.03185-6.10314.20826-9.13878.50962a6.29161,6.29161,0,0,1-.95308.10045c-2.39372.30871-4.74579.60762-7.00231.81588-.67622.06125-1.38184.1519-2.02866.1862h0a124.84278,124.84278,0,0,0,5.46857,101.2444q1.54722,3.03564,3.261,5.98553A124.498,124.498,0,0,0,61.10658,238.962c1.497,1.519,2.97194,3.05524,4.54979,4.49833a124.11355,124.11355,0,0,0,32.26747,21.225c2.54318,1.16624,5.07165,2.35452,7.72508,3.3615a123.278,123.278,0,0,0,20.17146,5.76993h0c.10045-.17641.16906-.35281.25236-.52922.08085-.17641.174-.35036.24746-.52432a24.87121,24.87121,0,0,0,.65907-2.86413,25.4301,25.4301,0,0,0,.321-2.92539,25.97016,25.97016,0,0,0-.223-4.63064C127.02337,261.91916,126.99887,261.49284,126.92291,261.07143Z" fill="#0e1c36"/><path d="M273.66273,132.82967a124.97116,124.97116,0,0,0-100.16391-104.427q-2.95111-.5623-5.92428-.98248-5.94266-.84161-11.94411-1.10989A125.15343,125.15343,0,0,0,47.445,79.72187q-2.64975,3.79272-5.0202,7.78634h0c3.81231,1.00453,8.17835,2.10706,13.397,3.01114q6.24769,1.12825,12.55663,1.66115,6.30282.53657,12.63258.49491a93.293,93.293,0,0,0,20.42137-3.01114c2.232-.664,4.513-1.176,6.8014-1.64155a80.7591,80.7591,0,0,1,9.25638-1.36714,10.96668,10.96668,0,0,1,5.17456.88448,10.92644,10.92644,0,0,1,4.15777,3.18019,18.50488,18.50488,0,0,1,2.24182,5.55922c.1323.57822.23521,1.15888.31116,1.7469.0588.45817.13475.91388.1568,1.37449.30136,2.60933.30136,4.366,1.75671,5.41957a18.26505,18.26505,0,0,0,3.212,1.078,17.65361,17.65361,0,0,0,5.91938.47531c2.41332.05145,5.29951.0245,8.11955-.03185,2.74653-.05635,5.43181-.1421,7.53642-.21805,2.15852-.10046,3.71186-.20091,4.9173-.16416a5.5382,5.5382,0,0,1,2.81023.66642,6.48618,6.48618,0,0,1,2.39863,4.8095c0,.03675.01225.071.0098.1078-.01715.10045-.01715.2009-.03185.30136a57.16224,57.16224,0,0,0-.67132,6.22074c.0784.2744.245.49981.343.76442a12.36077,12.36077,0,0,0,2.69508,4.32193c.20825.21806.35281.48266.57577.686.2499.23766.43611.52186.67132.77177a19.52661,19.52661,0,0,1,3.69471,5.34851,4.12526,4.12526,0,0,1-.01715,2.94744,4.17126,4.17126,0,0,1-2.19282,2.37167c-.06615.0294-.1372.0392-.20581.06861a28.23287,28.23287,0,0,1-10.68232,2.44027c-1.8449.02205-3.67511.15435-5.49306.35526a51.79872,51.79872,0,0,0-6.19869,1.04863c-2.308.95553-2.15606,2.91069-.75217,4.9173h0c.06615.10045.15925.20091.2303.30136,1.3892,1.96741,3.69472,4.02547,4.8879,6.22319a5.48751,5.48751,0,0,1,.74482,1.7224,5.39438,5.39438,0,0,1-1.39654,5.10105,21.15947,21.15947,0,0,1-2.27122,1.5019,20.51505,20.51505,0,0,1-7.66383,2.56277c-4.06467.80363-8.37925,1.00453-12.243,1.65625H130.135a62.43334,62.43334,0,0,0-8.58261,2.34962c-.41161.14456-.84527.25481-1.252.40917-2.50887.85262-4.06467,1.45534-4.86829,3.11159a4.26354,4.26354,0,0,0,1.90616,5.72092c.10045.049.1519.049.25235.10046A69.42055,69.42055,0,0,0,127.849,176.9898c.74727.1029,1.4872.25481,2.23447.33566.0392,0,.0784.00735.1176.0098.16171.01225.32341.04165.48512.04165,4.415.90163,7.32572,2.40842,7.77653,5.26766-.12,1.50435-.32341,3.00624-.54146,4.50569-.14456.99963-.32341,1.987-.51207,2.97929-.23276,1.23973-.45081,2.48437-.75217,3.70451a17.98456,17.98456,0,0,0,2.60933,11.34139,9.80046,9.80046,0,0,0,3.33945,2.722,9.91385,9.91385,0,0,0,3.87356,1.01433c.25726.0147.50472.08085.76443.076.29891.0343.59536.00735.89427.0343a40.78347,40.78347,0,0,0,10.94938-.43611,41.3511,41.3511,0,0,0,9.13143-3.66286,9.22639,9.22639,0,0,1,7.04151-1.34019,9.43756,9.43756,0,0,1,2.34227.83793,21.80506,21.80506,0,0,1,5.92183,11.64275c.59537,2.72693.73992,5.1231,1.671,7.08806a6.9367,6.9367,0,0,0,2.79308,3.04789A76.97193,76.97193,0,0,0,201.69672,229.98c1.55334.29645,3.08954.68357,4.65759.88447,1.04373.18866,2.07276.43857,3.10424.67377a70.15461,70.15461,0,0,1,16.16314,5.75033,47.40562,47.40562,0,0,1,7.458,5.15c.39936.33321.833.62477,1.22259.97023A124.82445,124.82445,0,0,0,273.66273,132.82967Z" fill="#0e1c36"/></svg>