<svg id="Layer_1" data-name="Layer 1" xmlns="http://www.w3.org/2000/svg" viewBox="0 0 300 300"><defs><style>.cls-1{fill:#fdae0b;}.cls-2{fill:#f95312;}.cls-2,.cls-3{isolation:isolate;opacity:0.7;}.cls-3{fill:#f4430d;}.cls-4{fill:#e22f17;}</style></defs><path class="cls-1" d="M97.61,176l42.19,53.8a12.73,12.73,0,0,0,20.4,0L202.39,176a15.65,15.65,0,0,0,0-19L160.2,103.17a12.73,12.73,0,0,0-20.4,0L97.61,157A15.65,15.65,0,0,0,97.61,176Z"/><path class="cls-2" d="M122.62,171l22,28.13a6.66,6.66,0,0,0,10.66,0l22-28.13a8.18,8.18,0,0,0,0-9.93l-22-28.12a6.64,6.64,0,0,0-10.66,0l-22,28.12A8.18,8.18,0,0,0,122.62,171Z"/><path class="cls-3" d="M157.3,251.26l3.39,3.26,18.39-23.45a8.69,8.69,0,0,0,0-10.55l-23.41-29.86a7.08,7.08,0,0,0-11.32,0l-23.41,29.86a8.69,8.69,0,0,0,0,10.55l18.25,23.26,3.21-3.07A11.27,11.27,0,0,1,157.3,251.26Z"/><path class="cls-4" d="M272.81,145,173.89,27.68a31.16,31.16,0,0,0-47.78,0L27.19,145a32.23,32.23,0,0,0,0,41.46l81.83,97,27.06-26.16c-.26-.28-.52-.57-.76-.88L74,178.19a22.73,22.73,0,0,1,0-27.65l61.34-78.23a18.46,18.46,0,0,1,29.63,0l61.34,78.23a22.73,22.73,0,0,1,0,27.65L165,256.42c-.33.43-.66.81-1,1.19l27.18,25.63,81.66-96.83A32.18,32.18,0,0,0,272.81,145Z"/></svg>