<svg id="Layer_1" data-name="Layer 1" xmlns="http://www.w3.org/2000/svg" xmlns:xlink="http://www.w3.org/1999/xlink" viewBox="0 0 300 300"><defs><linearGradient id="linear-gradient" x1="179.21237" y1="8765.35066" x2="181.75482" y2="8753.21632" gradientTransform="matrix(1, 0, 0, -1, 0, 8894.25998)" gradientUnits="userSpaceOnUse"><stop offset="0.23" stop-color="#42b3dd"/><stop offset="0.29" stop-color="#62c2e4"/><stop offset="0.42" stop-color="#c1e8f4"/><stop offset="0.5" stop-color="#fff"/><stop offset="0.54" stop-color="#d6eff8"/><stop offset="0.64" stop-color="#80ceea"/><stop offset="0.71" stop-color="#52bbe1"/><stop offset="0.75" stop-color="#42b3dd"/></linearGradient><linearGradient id="linear-gradient-2" x1="213.98378" y1="8774.0127" x2="218.02856" y2="8759.16259" xlink:href="#linear-gradient"/><linearGradient id="linear-gradient-3" x1="233.47673" y1="8750.39662" x2="233.5923" y2="8787.95526" gradientTransform="matrix(1, 0, 0, -1, 0, 8894.25998)" gradientUnits="userSpaceOnUse"><stop offset="0.35" stop-color="#62c2e4"/><stop offset="0.45" stop-color="#c1e8f4"/><stop offset="0.53" stop-color="#d6eff8"/><stop offset="0.61" stop-color="#80ceea"/><stop offset="0.67" stop-color="#52bbe1"/></linearGradient><linearGradient id="linear-gradient-4" x1="250.23272" y1="8753.45063" x2="252.48624" y2="8787.9468" gradientTransform="matrix(1, 0, 0, -1, 0, 8894.25998)" gradientUnits="userSpaceOnUse"><stop offset="0.31" stop-color="#42b3dd"/><stop offset="0.35" stop-color="#62c2e4"/><stop offset="0.43" stop-color="#c1e8f4"/><stop offset="0.5" stop-color="#fff"/><stop offset="0.53" stop-color="#d6eff8"/><stop offset="0.61" stop-color="#80ceea"/><stop offset="0.7" stop-color="#42b3dd"/></linearGradient><linearGradient id="linear-gradient-5" x1="196.34891" y1="8769.50248" x2="200.16256" y2="8755.63467" xlink:href="#linear-gradient"/><linearGradient id="linear-gradient-6" x1="159.10379" y1="8751.94126" x2="161.47287" y2="8764.88455" gradientTransform="matrix(1, 0, 0, -1, 0, 8894.25998)" gradientUnits="userSpaceOnUse"><stop offset="0.15" stop-color="#42b3dd"/><stop offset="0.28" stop-color="#8dd4ec"/><stop offset="0.41" stop-color="#ddf2f9"/><stop offset="0.47" stop-color="#fff"/><stop offset="0.64" stop-color="#71c8e6"/><stop offset="0.71" stop-color="#4eb9e0"/><stop offset="0.74" stop-color="#42b3dd"/></linearGradient><linearGradient id="linear-gradient-7" x1="170.67801" y1="8757.45272" x2="164.89975" y2="8764.15549" gradientTransform="matrix(1, 0, 0, -1, 0, 8894.25998)" gradientUnits="userSpaceOnUse"><stop offset="0.22" stop-color="#fff"/><stop offset="0.34" stop-color="#b7d4da"/><stop offset="0.53" stop-color="#156479"/><stop offset="0.93"/></linearGradient><linearGradient id="linear-gradient-8" x1="189.86795" y1="8760.62424" x2="183.85856" y2="8765.01571" gradientTransform="matrix(1, 0, 0, -1, 0, 8894.25998)" gradientUnits="userSpaceOnUse"><stop offset="0.22" stop-color="#fff"/><stop offset="0.29" stop-color="#ddebee"/><stop offset="0.34" stop-color="#b7d4da"/><stop offset="0.4" stop-color="#86b6c1"/></linearGradient><linearGradient id="linear-gradient-9" x1="207.72667" y1="8764.78872" x2="201.3706" y2="8769.1224" gradientTransform="matrix(1, 0, 0, -1, 0, 8894.25998)" gradientUnits="userSpaceOnUse"><stop offset="0.22" stop-color="#fff"/><stop offset="0.25" stop-color="#f5f9fa"/><stop offset="0.34" stop-color="#b7d4da"/><stop offset="0.4" stop-color="#86b6c1"/><stop offset="0.46" stop-color="#4e90a0"/></linearGradient><linearGradient id="linear-gradient-10" x1="225.44911" y1="8768.52903" x2="218.86191" y2="8772.74715" gradientTransform="matrix(1, 0, 0, -1, 0, 8894.25998)" gradientUnits="userSpaceOnUse"><stop offset="0.22" stop-color="#fff"/><stop offset="0.29" stop-color="#ddebee"/><stop offset="0.4" stop-color="#86b6c1"/><stop offset="0.46" stop-color="#4e90a0"/></linearGradient><linearGradient id="linear-gradient-11" x1="243.12057" y1="8769.90747" x2="236.24446" y2="8773.95225" xlink:href="#linear-gradient-10"/><linearGradient id="linear-gradient-12" x1="270.19519" y1="8766.61638" x2="253.03377" y2="8770.71895" gradientTransform="matrix(1, 0, 0, -1, 0, 8894.25998)" gradientUnits="userSpaceOnUse"><stop offset="0.08" stop-color="#c9eefb"/><stop offset="0.18" stop-color="#c4ebf9"/><stop offset="0.22" stop-color="#b9e3f0"/><stop offset="0.36" stop-color="#a3d4e4"/><stop offset="0.45" stop-color="#87c0d0"/><stop offset="0.53" stop-color="#66a8ba"/><stop offset="0.62" stop-color="#408b9e"/><stop offset="0.7" stop-color="#1c6c80"/></linearGradient><linearGradient id="linear-gradient-13" x1="153.95858" y1="8758.42651" x2="148.70037" y2="8762.41349" gradientTransform="matrix(1, 0, 0, -1, 0, 8894.25998)" gradientUnits="userSpaceOnUse"><stop offset="0.22" stop-color="#fff"/><stop offset="0.4" stop-color="#86b6c1"/><stop offset="0.53" stop-color="#156479"/></linearGradient></defs><path d="M172.18849,136.18456a7.96074,7.96074,0,0,0-.3467,4.6226,120.62824,120.62824,0,0,0,13.57888-1.56013,15.89044,15.89044,0,0,1,.40448-5.08486,14.80879,14.80879,0,0,1,3.178-5.66268c-4.62259,1.04009-9.12965,1.90682-13.69445,2.60022A12.76287,12.76287,0,0,0,172.18849,136.18456Z" fill="url(#linear-gradient)"/><path d="M207.72473,129.19287c-.92452,3.69808-.40447,5.54712-.40447,5.54712,4.507-.9823,9.01408-1.90682,13.57888-2.658a21.437,21.437,0,0,1,.40448-5.836,16.27538,16.27538,0,0,1,3.178-6.41386c-4.56482.86673-9.12965,1.96461-13.69445,3.12026A17.02311,17.02311,0,0,0,207.72473,129.19287Z" fill="url(#linear-gradient-2)"/><path d="M225.4062,125.55258a13.507,13.507,0,0,0-.40448,5.89382,108.63126,108.63126,0,0,1,13.57889-1.15566,23.86461,23.86461,0,0,1,.46227-6.12494,13.888,13.888,0,0,1,3.178-6.2983,107.70135,107.70135,0,0,0-13.69445,1.27121A17.33481,17.33481,0,0,0,225.4062,125.55258Z" fill="url(#linear-gradient-3)"/><path d="M243.20322,124.108a15.21128,15.21128,0,0,0-.40447,6.24051,69.33978,69.33978,0,0,1,13.57888,1.73347,22.41967,22.41967,0,0,1,.46228-6.47165,10.63566,10.63566,0,0,1,3.178-5.77825,61.19178,61.19178,0,0,0-13.69445-1.96461A14.44549,14.44549,0,0,0,243.20322,124.108Z" fill="url(#linear-gradient-4)"/><path d="M189.92773,133.35322c-.92452,3.467-.40448,5.14264-.40448,5.14264,4.56483-.86673,9.07186-1.849,13.57889-2.83134a18.48963,18.48963,0,0,1,.46227-5.48934,15.59014,15.59014,0,0,1,3.178-6.18273L193.048,127.4594A17.06386,17.06386,0,0,0,189.92773,133.35322Z" fill="url(#linear-gradient-5)"/><path d="M167.73923,131.562a52.00662,52.00662,0,0,1-10.80533.28891h-.57783l-.75117.57782a8.66731,8.66731,0,0,0-1.90682,3.35139,8.83987,8.83987,0,0,0-.34669,4.21812,53.59887,53.59887,0,0,0,11.32538.9823v-.9823a9.9405,9.9405,0,0,1,.11557-1.849l.2889-1.73347A10.90127,10.90127,0,0,1,167.73923,131.562Z" fill="url(#linear-gradient-6)"/><path d="M174.03753,132.602a28.37054,28.37054,0,0,0-6.2983-1.04008,12.03572,12.03572,0,0,0-2.658,4.85373,10.25611,10.25611,0,0,0-.23113,1.73347,68.18292,68.18292,0,0,1,6.93391,2.658,8.63415,8.63415,0,0,1,.40447-4.68038A11.43055,11.43055,0,0,1,174.03753,132.602Z" fill="url(#linear-gradient-7)"/><path d="M189.92773,133.35322a15.928,15.928,0,0,1,1.849-4.04478,3.46324,3.46324,0,0,0-2.77356-.80895,14.74242,14.74242,0,0,0-3.178,5.72047q-.21015.97545-.3467,1.9646a5.707,5.707,0,0,1,4.04478,2.3113S189.00321,136.76239,189.92773,133.35322Z" fill="url(#linear-gradient-8)"/><path d="M207.72473,129.19287a18.199,18.199,0,0,1,1.849-4.39147,3.5541,3.5541,0,0,0-2.77356-.80895,16.05856,16.05856,0,0,0-3.178,6.24051l-.40448,2.138a5.77823,5.77823,0,0,1,4.04479,2.42687A12.97113,12.97113,0,0,1,207.72473,129.19287Z" fill="url(#linear-gradient-9)"/><path d="M225.4062,125.55258a18.06117,18.06117,0,0,1,1.849-4.507,3.064,3.064,0,0,0-2.77355-1.15566,16.80557,16.80557,0,0,0-3.178,6.41387q-.21914,1.14833-.3467,2.3113a5.97341,5.97341,0,0,1,4.04478,2.88912A13.79993,13.79993,0,0,1,225.4062,125.55258Z" fill="url(#linear-gradient-10)"/><path d="M243.20322,124.108a14.25546,14.25546,0,0,1,1.849-4.44926,4.1025,4.1025,0,0,0-2.77355-1.73347,13.33526,13.33526,0,0,0-3.178,6.29829l-.40448,2.3113a7.99955,7.99955,0,0,1,4.04479,3.87143A16.41758,16.41758,0,0,1,243.20322,124.108Z" fill="url(#linear-gradient-11)"/><path d="M260.48019,129.30844a60.1572,60.1572,0,0,1,9.70747,3.75586c-.17335-1.9646-6.00939-11.49872-10.22751-13.29a11.16821,11.16821,0,0,0-3.178,5.89382l-.28891,2.3113.46227.40447,3.46695.92452Z" fill="url(#linear-gradient-12)"/><path d="M164.85011,138.207a8.921,8.921,0,0,1,.23113-1.73348,11.78681,11.78681,0,0,1,2.658-4.85373,52.00593,52.00593,0,0,1-10.80533.28891h-.57783l2.77356.40447,2.88912.17336h2.88913a8.67952,8.67952,0,0,0,1.38679-.11557,10.63189,10.63189,0,0,0-1.56013,3.46695,11.152,11.152,0,0,0,0,5.08486l-.05778-.46226v-.52Z" fill="#42b3dd"/><path d="M155.66269,132.48649a14.05578,14.05578,0,0,0-2.71578-1.09787,7.028,7.028,0,0,0-2.60022,3.46695A8.93806,8.93806,0,0,0,150,136.64682c2.77356,1.44457,3.40917,3.35139,3.40917,3.40917a8.03687,8.03687,0,0,1,.34669-4.21812A9.20117,9.20117,0,0,1,155.66269,132.48649Z" fill="url(#linear-gradient-13)"/><path d="M152.88913,131.38862c-3.52474-.6934-9.93859-4.16034-9.99638-4.16034h-8.95629l-2.42687,7.974h9.07185l2.08018-6.70277a52.51567,52.51567,0,0,0,8.72516,3.2936,7.39243,7.39243,0,0,0-1.44456,7.33839,13.23208,13.23208,0,0,1,.34669-4.27591,7.50251,7.50251,0,0,1,2.658-3.46695Z" fill="#42b3dd"/><path d="M156.654,144.008a23.31854,23.31854,0,0,1,8.02224-2.79095,22.18905,22.18905,0,0,1,10.44166.64865,6.59838,6.59838,0,0,1,3.9332,3.273c.15139.29636.27117.19343.459.07674a27.88324,27.88324,0,0,1,9.268-3.69415,22.9656,22.9656,0,0,1,10.32172-.05333,7.57245,7.57245,0,0,1,6.05219,7.58219,27.01553,27.01553,0,0,1-1.197,8.061q-3.19363,11.895-6.36926,23.79472a.69313.69313,0,0,1-.82536.62279c-2.85605-.02552-5.7125-.02083-8.56867-.00336-.427.00261-.549-.03956-.42076-.51546q3.45348-12.81321,6.86972-25.63644a20.70645,20.70645,0,0,0,.88545-5.369,5.91985,5.91985,0,0,0-.182-1.42671,3.47214,3.47214,0,0,0-3.09637-2.55761,17.349,17.349,0,0,0-7.905.449,42.24017,42.24017,0,0,0-4.10268,1.34814c-.18007.06816-.34326.10434-.32008.37412a23.874,23.874,0,0,1-1.13359,8.26832q-3.29447,12.26758-6.58458,24.5363c-.10886.40769-.26621.51712-.68192.51423-3.02726-.02107-6.05474-.01133-9.13153-.01133.46579-1.75009.92227-3.46611,1.37924-5.182q2.99782-11.256,5.98911-22.51375a15.4223,15.4223,0,0,0,.598-4.21959,3.19694,3.19694,0,0,0-2.52642-3.37427,15.02833,15.02833,0,0,0-5.00477-.48072,23.32857,23.32857,0,0,0-6.45838,1.21407.68965.68965,0,0,0-.5102.54838q-4.4661,16.66587-8.94292,33.32887c-.14828.55494-.36143.7007-.92058.69413-2.80427-.033-5.60914-.01512-8.41381-.01512h-.61659c.3703-1.39171.72838-2.745,1.09047-4.09717q4.74257-17.71115,9.47579-35.4248c.11009-.41293.27253-.521.68911-.51782,2.8045.02117,5.60939.02642,8.41376-.00261.52892-.00547.53711.14835.41091.57026-.18623.62256-.31082,1.26353-.46164,1.89668l-.039.10051Z"/><path d="M73.81035,181.51635l.44536-1.8836a22.32014,22.32014,0,0,1-4.0132,1.59547,20.23143,20.23143,0,0,1-12.12442-.05252,9.85852,9.85852,0,0,1-6.87209-7.42558,12.85546,12.85546,0,0,1,.81451-7.56516c1.578-4.16427,4.72073-6.53143,8.90352-7.6855a33.53505,33.53505,0,0,1,8.773-1.03384q4.85131-.02988,9.70286.00823c.48743.00371.709-.10234.83161-.60474.45466-1.86382,1.13031-3.67169,1.42946-5.5756a7.74323,7.74323,0,0,0,.045-2.45992,3.5141,3.5141,0,0,0-2.20684-2.82524,11.99113,11.99113,0,0,0-4.17376-.81683,58.14592,58.14592,0,0,0-12.52188.81111c-.08115.01336-.16386.01726-.309.032.32124-1.19966.63656-2.34752.93079-3.50075.06025-.23612.222-.221.38567-.25381a63.9775,63.9775,0,0,1,8.94043-1.12248,49.21583,49.21583,0,0,1,8.1345.11079,14.99033,14.99033,0,0,1,7.0641,2.15587,6.88178,6.88178,0,0,1,3.05453,5.35122,18.99372,18.99372,0,0,1-.97946,6.68q-3.44652,12.75785-6.86336,25.52366a.60877.60877,0,0,1-.71712.54917c-2.7008-.02393-5.40191-.012-8.10292-.012Zm.142-20.49509a40.48536,40.48536,0,0,0-5.94754.25136,6.56454,6.56454,0,0,0-5.203,3.35209,17.36443,17.36443,0,0,0-2.08365,8.03626,4.61893,4.61893,0,0,0,3.25721,4.78122,8.59068,8.59068,0,0,0,2.31937.44561,22.64362,22.64362,0,0,0,8.3643-1.16391.74047.74047,0,0,0,.55928-.5737q1.93229-7.35888,3.89639-14.70938c.10306-.385-.00711-.428-.34387-.42516C77.24034,161.02846,75.70961,161.02126,73.9524,161.02126Z"/><path d="M228.84912,179.72026a23.195,23.195,0,0,1-5.57409,1.9213c-3.95692.73024-7.866.75461-11.61657-.94989a9.965,9.965,0,0,1-5.8472-10.628,14.35506,14.35506,0,0,1,2.95621-7.34411,13.02924,13.02924,0,0,1,6.916-4.21736,33.101,33.101,0,0,1,8.7759-1.03632c3.30307-.02074,6.60639-.01,9.90953.00345.32715.00133.47826-.073.562-.40723a56.32107,56.32107,0,0,0,1.53191-6.08008,7.66623,7.66623,0,0,0,.01575-2.056,3.56577,3.56577,0,0,0-2.523-3.02822,14.31942,14.31942,0,0,0-4.40409-.729,59.08471,59.08471,0,0,0-12.00524.83034c-.0971.016-.19676.01646-.33507.02728.31687-1.18355.62783-2.31974.92053-3.46061.055-.21452.17742-.2453.3613-.28264a61.333,61.333,0,0,1,7.19127-1.00618,55.703,55.703,0,0,1,8.75367-.11366,19.78624,19.78624,0,0,1,6.90445,1.507c3.355,1.54255,4.51,4.3,4.40316,7.52008a32.272,32.272,0,0,1-1.5194,7.1812c-2.09781,7.90191-4.23418,15.79358-6.34063,23.69321-.09251.34691-.20647.46307-.57342.46081q-4.15462-.02555-8.30949-.00032c-.41373.00258-.50241-.08424-.3673-.48194a12.14134,12.14134,0,0,0,.29163-1.25026l.01546-.11623Zm-.13758-18.699a41.48292,41.48292,0,0,0-6.06006.25549,6.77186,6.77186,0,0,0-5.54982,4.058,20.43286,20.43286,0,0,0-1.63084,5.81751,6.95263,6.95263,0,0,0,.42868,3.93628,4.93242,4.93242,0,0,0,4.18322,2.68775,20.92918,20.92918,0,0,0,9.37523-1.09708.605.605,0,0,0,.4246-.50565q1.946-7.35366,3.90216-14.70462c.109-.407-.01064-.45705-.36907-.45365C231.91976,161.0295,230.42365,161.02126,228.71154,161.02126Z"/><path d="M10,181.47275q.79315-2.963,1.58254-5.91072Q17.0357,155.274,22.4901,134.98625q1.91592-7.12736,3.82375-14.25687a.46794.46794,0,0,1,.55207-.41729q4.56841.02317,9.137-.0003c.40752-.0023.48016.071.37119.47376q-3.09633,11.44355-6.16765,22.89383-4.46961,16.58524-8.95813,33.16539c-.1332.49118.05945.48008.42066.47983q13.08615-.00909,26.17227-.01619c.50952-.00094.57883.12.44835.58369-.3019,1.07264-.556,2.15886-.82048,3.24176-.05794.23722-.12542.37345-.42749.37321q-18.429-.01454-36.858-.00976A1.58275,1.58275,0,0,1,10,181.47275Z"/><path d="M264.61031,143.869a24.27815,24.27815,0,0,1,7.18814-2.24723,24.922,24.922,0,0,1,8.25893.21468c.28349.05421.3388.1249.2541.41653-.30572,1.05285-.5784,2.11547-.85038,3.17777-.06387.24947-.17758.30291-.43329.28776a49.43853,49.43853,0,0,0-7.672.08767,40.50394,40.50394,0,0,0-6.727,1.25139.60732.60732,0,0,0-.47612.50929q-4.51277,16.70428-9.03684,33.40552c-.11537.4276-.28448.54038-.7128.53734q-4.33528-.03073-8.67087-.00156c-.408.00243-.47282-.06472-.3628-.47227q4.59027-17.0031,9.15382-34.01341c.46279-1.72146.9377-3.43976,1.38291-5.16572.08109-.3143.21108-.39495.52152-.39358q4.15477.01827,8.30966,0c.35448-.00164.4488.06738.32726.423-.17156.50182-.30507,1.01779-.42926,1.53385-.03481.14476-.1917.30577-.01972.46436-.02145-.01849-.04242-.03514-.06336-.05179l-.02234.03781Z"/><path d="M109.86632,143.93693a23.72715,23.72715,0,0,1,9.8493-2.54719,23.16987,23.16987,0,0,1,6.00464.52706c-.316,1.18114-.63274,2.33576-.92928,3.49555-.06992.27345-.192.32165-.46438.30584a45.96629,45.96629,0,0,0-10.023.39417c-1.47581.23822-2.92774.5797-4.37571.94665-.34347.087-.40477.31779-.47585.58173q-3.00875,11.17214-6.01719,22.34434-1.4976,5.56082-2.98959,11.12311a.43969.43969,0,0,1-.51423.39933q-4.46458-.02151-8.92928-.00072c-.37383.00174-.41095-.08362-.31708-.4303q4.80476-17.74407,9.589-35.49367c.33493-1.2409.67365-2.48084.9977-3.72459a.44179.44179,0,0,1,.51406-.3973q4.15485.02442,8.30985-.00071c.42528-.003.429.13743.3295.46513C110.23283,142.55761,110.06938,143.19851,109.86632,143.93693Z"/><path d="M124.29166,181.499c-1.44478,0-2.88984-.01624-4.33416.00938-.46351.00821-.58549-.06847-.4508-.56323q2.68911-9.87867,5.34164-19.76727,2.59533-9.61073,5.18866-19.222c.09678-.36066.21854-.4977.61076-.49532q4.38574.02668,8.77174.00307c.38543-.00159.50292.04929.386.481q-4.89474,18.07636-9.76328,36.15981c-.268.99346-.55188,1.98281-.80506,2.98a.47373.47373,0,0,1-.55972.42362C127.21579,181.48689,125.75363,181.499,124.29166,181.499Z" fill="#43b2dc"/><path d="M286.27783,142.68065q0,1.38267-.00083,2.76534c-.00035.17648.06619.36854-.25662.36884-.31291.0003-.31589-.15106-.31432-.38032.007-1.03-.00442-2.06011.01061-3.0899.00242-.1656-.15263-.48518.19928-.46518.309.01757.7157-.23062.89257.312.2754.84476.61178,1.6697.92414,2.50237.02966.07911.072.15348.14851.31413.34532-.92565.6663-1.78624.98743-2.64676a.73237.73237,0,0,1,.982-.4994c.18277.04813.14171.16486.142.272.0031,1.133-.00474,2.26609.00728,3.399.00255.24023-.09238.27085-.2998.27808-.25723.009-.31581-.089-.31263-.328a25.71159,25.71159,0,0,0-.08137-2.73864c-.33764.88366-.67759,1.76645-1.01135,2.65156-.085.22557-.131.42822-.47014.42248-.324-.0055-.34064-.21364-.41633-.41119q-.52635-1.37325-1.0515-2.747Z"/><path d="M283.72717,141.86562c.41157,0,.82311.00072,1.23467-.00036.14355-.00038.26958-.00464.27094.20537.00124.19263-.05432.2699-.25826.28295-.31482.02014-.75548-.16346-.91226.0847-.15633.24741-.053.66176-.05475,1.003-.00355.66825-.006,1.33659.00189,2.00477.00237.2-.02392.32062-.27225.31286-.22464-.007-.34293-.04357-.33857-.31088.0146-.89078-.00723-1.78224.01228-2.67283.007-.31979-.05949-.481-.41505-.43159-.185.02573-.3769-.00215-.56517.00573-.2174.00909-.18945-.141-.19792-.277-.00953-.15277.0521-.21188.20841-.20923C282.86971,141.87036,283.29846,141.8656,283.72717,141.86562Z"/><path d="M156.654,144.008l-.1135.01607.039-.10052Z" fill="#fdfdfd"/><path d="M228.84912,179.72026l.09319-.04337-.01546.11623Z"/><path d="M264.61031,143.869l-.08046.00136.02234-.03781c.02094.01665.04191.0333.06336.05179Z"/></svg>