<svg id="Layer_1" data-name="Layer 1" xmlns="http://www.w3.org/2000/svg" xmlns:xlink="http://www.w3.org/1999/xlink" viewBox="0 0 300 300"><defs><linearGradient id="linear-gradient" x1="93.50434" y1="252.5477" x2="259.45756" y2="86.59448" gradientUnits="userSpaceOnUse"><stop offset="0" stop-color="#d34227"/><stop offset="1" stop-color="#ffc62e"/></linearGradient><linearGradient id="linear-gradient-2" x1="24.99232" y1="184.03568" x2="190.94554" y2="18.08246" xlink:href="#linear-gradient"/><linearGradient id="linear-gradient-3" x1="41.03833" y1="200.08168" x2="206.99155" y2="34.12846" xlink:href="#linear-gradient"/><linearGradient id="linear-gradient-4" x1="13.99676" y1="173.04012" x2="179.94998" y2="7.0869" xlink:href="#linear-gradient"/><linearGradient id="linear-gradient-5" x1="-2.87637" y1="156.16699" x2="163.07685" y2="-9.78623" xlink:href="#linear-gradient"/></defs><path d="M272.24721,182.05655Q252.315,133.23367,232.35805,84.42023q-10.49558-25.67094-21.0112-51.33271a13.48688,13.48688,0,0,0-3.40467-5.18256,7.60713,7.60713,0,0,0-2.498,2.56885c-13.111,17.06644-21.57549,36.42075-27.76741,56.84227-7.18829,23.70637-10.848,48.0576-12.89973,72.68921-.23611,2.83713-.55957,5.7622-2.39885,8.04831-4.28181.72544-6.71844-1.00286-7.31107-5.42161a99.05613,99.05613,0,0,1-1.10144-19.32776c.30694-4.9069.36243-9.82265.8252-14.73015.752-7.96892,1.80386-15.89062,3.25238-23.74709a400.08559,400.08559,0,0,1,15.87468-59.05017c.25617-.73459.95269-1.47006.46395-2.42364a10.02263,10.02263,0,0,0-2.44725,2.467A294.15339,294.15339,0,0,0,149.26,76.899a373.84449,373.84449,0,0,0-44.511,101.24168,234.65728,234.65728,0,0,0-8.2248,53.5958,141.51925,141.51925,0,0,0,1.70233,26.24393,73.68617,73.68617,0,0,0,3.2819,13.86127,19.26192,19.26192,0,0,0,10.4808-1.164q26.62053-10.90549,53.26584-21.74726,40.54791-16.56855,81.08991-33.15834c6.0656-2.48148,12.215-4.78265,18.16138-7.523,7.0667-3.25651,10.61775-8.95083,10.49025-16.83033C274.94238,188.0336,273.48206,185.07931,272.24721,182.05655Z" fill="url(#linear-gradient)"/><path d="M116.07514,92.91714l-.0118.03424c.01652.00295.03187-.00325.0484.00059Z" fill="url(#linear-gradient-2)"/><path d="M116.06334,92.95138c-.82992-.14344-1.42609.42233-2.08837.73931-3.8273,1.8319-7.605,3.76591-11.4583,5.54085-21.64514,9.97229-44.01986,18.05307-66.62479,25.52675a8.47,8.47,0,0,0-2.635,1.05924q23.8138,58.41888,47.52016,116.57095c.74964-2.73973.10507-5.27139.039-7.82578a259.64724,259.64724,0,0,1,.34118-26.90591,251.3088,251.3088,0,0,1,5.75039-36.77993,320.96592,320.96592,0,0,1,25.96474-71.2C113.97733,97.45749,115.38335,95.37384,116.06334,92.95138Z" fill="url(#linear-gradient-3)"/><path d="M145.66058,41.346c-.00826.00856-.01771.01653-.026.02538.02125.00384.039-.00177.059.00295Z" fill="url(#linear-gradient-4)"/><path d="M87.84142,87.08175a460.06671,460.06671,0,0,0,46.01025-35.09206c4.0091-3.44245,8.18939-6.71017,11.78294-10.61834-1.20887-.23552-2.20524.40374-3.2453.82815Q105.32458,57.32483,68.26457,72.46079c-10.70511,4.36681-21.43147,8.68285-32.1354,13.052a17.30708,17.30708,0,0,0-11.12656,16.99856c.07673,4.999,2.68218,9.13293,4.33729,13.62015a25.0706,25.0706,0,0,0,5.73505-1.67223C53.94111,107.7922,71.22182,98.05749,87.84142,87.08175Z" fill="url(#linear-gradient-5)"/><path d="M116.07514,92.91714l.0366.03483c.06257-.09533.12514-.19066.11451-.175C116.24042,92.76367,116.15778,92.84041,116.07514,92.91714Z" fill="url(#linear-gradient-2)"/><polygon points="81.588 243.151 81.625 243.332 81.509 243.317 81.588 243.151" fill="#d8813e"/></svg>