<svg id="Layer_1" data-name="Layer 1" xmlns="http://www.w3.org/2000/svg" viewBox="0 0 300 300"><defs><style>.cls-1{fill:#0481bf;}.cls-2{fill:#83bd6a;}</style></defs><path class="cls-1" d="M48.62,178.47c0,6.61,2.17,9.94,6.48,9.94a15.88,15.88,0,0,0,3.44-.35l1.22,13.07a41.39,41.39,0,0,1-8.38,1q-19.25,0-19.29-23.37V114.64l16.53-1Z"/><path class="cls-1" d="M120.92,165.16a60.28,60.28,0,0,1-.48,9.11H82.61c1.5,9.27,7.12,13.9,16.76,13.9A42.3,42.3,0,0,0,116,184.69L118.62,198a49.83,49.83,0,0,1-20.91,4A32.15,32.15,0,0,1,74,193.29a31.23,31.23,0,0,1-8.94-23.46,32.86,32.86,0,0,1,8.26-23.18,28,28,0,0,1,21.43-8.87,24.72,24.72,0,0,1,18.85,7.57A27.8,27.8,0,0,1,120.92,165.16Zm-15.82-1v-1.43a12.61,12.61,0,0,0-2.68-8.4,9.4,9.4,0,0,0-3.36-2.5,9.22,9.22,0,0,0-4.11-.75,11.29,11.29,0,0,0-4.6.85,11.16,11.16,0,0,0-3.86,2.64,17,17,0,0,0-4,9.59Z"/><path class="cls-1" d="M151.67,202.08a28.16,28.16,0,0,1-18.26-5.23,18.15,18.15,0,0,1-4.81-21.3,16.37,16.37,0,0,1,5-6.07,28.42,28.42,0,0,1,17.48-5.19,67.79,67.79,0,0,1,10.63,1v-2.9c0-7.21-4-10.81-12.18-10.81a41.12,41.12,0,0,0-15.81,2.89l-3-13a54.07,54.07,0,0,1,20.71-3.6,26.79,26.79,0,0,1,19.76,6.62,25.54,25.54,0,0,1,6.65,18.93v33.36A57,57,0,0,1,151.67,202.08Zm10-13.55V175.7a40.49,40.49,0,0,0-8.5-1c-6.52,0-9.8,2.58-9.8,7.93s3.32,7.64,9.92,7.64A17.76,17.76,0,0,0,161.71,188.53Z"/><path class="cls-1" d="M238.31,146.26a30.73,30.73,0,0,1,8.38,22.82,34.56,34.56,0,0,1-7.9,23.77,27.64,27.64,0,0,1-21.86,8.91,29.52,29.52,0,0,1-10-1.54V223H190.48V143a59.68,59.68,0,0,1,24.91-5.15,30.94,30.94,0,0,1,22.92,8.44Zm-31.62,40.49a19.69,19.69,0,0,0,7.67,1.66q15.42,0,15.42-18.82,0-18-15.42-18a21.5,21.5,0,0,0-7.67,1.58Z"/><path class="cls-2" d="M256.5,116.43A11.44,11.44,0,1,0,245.09,105,11.42,11.42,0,0,0,256.5,116.43Z"/><path class="cls-2" d="M230,105.21a10.46,10.46,0,1,0-10.43-10.46A10.46,10.46,0,0,0,230,105.21Z"/><path class="cls-2" d="M204.71,97.82a9.46,9.46,0,1,0-9.44-9.46A9.45,9.45,0,0,0,204.71,97.82Z"/><path class="cls-2" d="M180.71,94a8.49,8.49,0,1,0-8.47-8.48A8.47,8.47,0,0,0,180.71,94Z"/><path class="cls-2" d="M158.08,93.19a7.49,7.49,0,1,0-7.47-7.49A7.48,7.48,0,0,0,158.08,93.19Z"/><path class="cls-2" d="M136.94,95.18a6.52,6.52,0,1,0-6.49-6.51A6.51,6.51,0,0,0,136.94,95.18Z"/><path class="cls-2" d="M117.37,99.52a5.52,5.52,0,1,0-5.5-5.52A5.51,5.51,0,0,0,117.37,99.52Z"/><path class="cls-2" d="M99.5,105.85A4.54,4.54,0,1,0,95,101.31,4.53,4.53,0,0,0,99.5,105.85Z"/><path class="cls-2" d="M83.38,113.77a3.55,3.55,0,1,0-3.54-3.55A3.54,3.54,0,0,0,83.38,113.77Z"/><path class="cls-2" d="M69.13,122.92a2.57,2.57,0,1,0-2.56-2.56A2.56,2.56,0,0,0,69.13,122.92Z"/></svg>