<svg xmlns="http://www.w3.org/2000/svg" viewBox="0 0 300 300"><g id="a"><path d="M171.54027,177.5626l-10.0696-10.0696-9.0753,9.11145L162.6096,186.8006c11.13622,11.13622,12.60056,29.25065,2.29594,41.16425a29.705,29.705,0,0,1-44.9426,0c-10.30462-11.89551-8.84028-30.028,2.29594-41.14617l75.85646-75.89263a6.4236,6.4236,0,1,0-9.0753-9.09337L113.31013,177.5626c-15.927,15.927-17.82518,41.797-3.0733,58.82672a42.55609,42.55609,0,0,0,64.34059,0c14.77-17.01166,12.87173-42.89976-3.05523-58.82672" fill="#d25574"/><path d="M132.437,138.26041l-10.9012-10.9012a29.66757,29.66757,0,0,1,0-41.95969l25.52653-25.50845a6.43,6.43,0,0,0-9.09338-9.09337L112.46045,76.32423a42.49917,42.49917,0,0,0,0,60.12835l10.90121,10.9012,9.09337-9.09337Z" fill="#4862a3"/></g></svg>