<svg id="Layer_1" data-name="Layer 1" xmlns="http://www.w3.org/2000/svg" xmlns:xlink="http://www.w3.org/1999/xlink" viewBox="0 0 300 300"><defs><linearGradient id="linear-gradient" x1="174.57911" y1="14944.2764" x2="174.57911" y2="14927.11836" gradientTransform="matrix(1, 0, 0, -1, 0, 15110)" gradientUnits="userSpaceOnUse"><stop offset="0" stop-color="#cbcc98"/><stop offset="1" stop-color="#cfa9a6"/></linearGradient><linearGradient id="linear-gradient-2" x1="179.53041" y1="14918.5447" x2="204.52268" y2="14904.64171" gradientTransform="matrix(1, 0, 0, -1, 0, 15110)" gradientUnits="userSpaceOnUse"><stop offset="0" stop-color="#a798c5"/><stop offset="1" stop-color="#7493d5"/></linearGradient><linearGradient id="linear-gradient-3" x1="164.40939" y1="14898.34052" x2="141.7343" y2="14863.96926" gradientTransform="matrix(1, 0, 0, -1, 0, 15110)" gradientUnits="userSpaceOnUse"><stop offset="0" stop-color="#d080bb"/><stop offset="1" stop-color="#7c3c88"/></linearGradient><linearGradient id="linear-gradient-4" x1="130.9317" y1="15039.83179" x2="130.9317" y2="14938.649" gradientTransform="matrix(1, 0, 0, -1, 0, 15110)" gradientUnits="userSpaceOnUse"><stop offset="0" stop-color="#e8d561"/><stop offset="1" stop-color="#eb814a"/></linearGradient><linearGradient id="linear-gradient-5" x1="76.3804" y1="14959.77555" x2="138.22659" y2="14916.19082" gradientTransform="matrix(1, 0, 0, -1, 0, 15110)" gradientUnits="userSpaceOnUse"><stop offset="0" stop-color="#ce3e5e"/><stop offset="1" stop-color="#e9896e"/></linearGradient><linearGradient id="linear-gradient-6" x1="217.01896" y1="15008.93655" x2="162.56562" y2="15009.32274" gradientTransform="matrix(1, 0, 0, -1, 0, 15110)" gradientUnits="userSpaceOnUse"><stop offset="0" stop-color="#1fac67"/><stop offset="1" stop-color="#e3d46f"/></linearGradient><linearGradient id="linear-gradient-7" x1="149.30646" y1="14902.76699" x2="91.21187" y2="14891.18117" gradientTransform="matrix(1, 0, 0, -1, 0, 15110)" gradientUnits="userSpaceOnUse"><stop offset="0" stop-color="#dd83a2"/><stop offset="1" stop-color="#c63e6a"/></linearGradient><linearGradient id="linear-gradient-8" x1="181.29464" y1="14909.90513" x2="181.29464" y2="14870.23751" gradientTransform="matrix(1, 0, 0, -1, 0, 15110)" gradientUnits="userSpaceOnUse"><stop offset="0" stop-color="#a280c7"/><stop offset="1" stop-color="#604fa6"/></linearGradient><linearGradient id="linear-gradient-9" x1="201.57373" y1="14932.42217" x2="179.45035" y2="14926.96027" gradientTransform="matrix(1, 0, 0, -1, 0, 15110)" gradientUnits="userSpaceOnUse"><stop offset="0" stop-color="#a2b5c0"/><stop offset="1" stop-color="#b5aebc"/></linearGradient><linearGradient id="linear-gradient-10" x1="163.17084" y1="14939.64206" x2="163.17084" y2="14923.80811" gradientTransform="matrix(1, 0, 0, -1, 0, 15110)" gradientUnits="userSpaceOnUse"><stop offset="0" stop-color="#cdbaa0"/><stop offset="1" stop-color="#cfa9a6"/></linearGradient></defs><path d="M171.18279,188.178c1.65511.99307,3.64126,2.53784,3.31024,5.95843C173.55513,193.58474,171.18279,192.48133,171.18279,188.178Z" fill="#d3a4c4"/><path d="M156.7281,195.12951c.99307-1.8758,4.30331-4.91017,9.379-1.98614C165.114,195.12951,161.30726,197.226,156.7281,195.12951Z" fill="#d89ca4"/><path d="M168.81046,182.88164a15.83393,15.83393,0,0,1,11.4203-17.158C181.05833,169.69587,180.23076,179.24039,168.81046,182.88164Z" fill="url(#linear-gradient)"/><path d="M178.24463,189.83314c1.65511,6.06876,9.48933,17.98559,27.19907,17.21321A25.21294,25.21294,0,0,0,178.24463,189.83314Z" fill="url(#linear-gradient-2)"/><path d="M167.81738,207.37738c2.04132,7.28251-2.70335,36.41256-29.57141,43.30888A40.2745,40.2745,0,0,1,167.81738,207.37738Z" fill="url(#linear-gradient-3)"/><path d="M119.76384,70.16821c-19.53038,26.75772-7.99973,81.10071,20.85447,101.18279C165.114,136.59355,145.30781,84.016,119.76384,70.16821Z" fill="url(#linear-gradient-4)"/><path d="M70,148.51039c46.34326-6.95149,69.239,35.69536,70.6183,45.95706C116.34326,196.12256,81.08928,182.88164,70,148.51039Z" fill="url(#linear-gradient-5)"/><path d="M228.6705,49.31374c-77.68014,25.76465-69.90109,103.16894-69.90109,103.16894,25.43361-6.62047,43.25372-21.51651,54.61884-38.67456C227.56708,92.402,232.69794,69.50617,228.6705,49.31374Z" fill="url(#linear-gradient-6)"/><path d="M87.10287,219.62523c19.58554-26.868,56.54982-19.86139,65.653-12.90991-19.8614,23.77851-50.42588,22.45441-65.54262,12.90991Z" fill="url(#linear-gradient-7)"/><path d="M177.25155,200.09487c-10.4824,19.19935,2.31717,37.01944,8.38592,39.7228C191.37521,231.54209,191.70622,211.6807,177.25155,200.09487Z" fill="url(#linear-gradient-8)"/><path d="M166.49329,198.77077c-.55171-1.76546-.82755-5.40671,4.02745-7.28251C170.85176,193.80541,170.24489,197.44669,166.49329,198.77077Z" fill="#d3a4c4"/><path d="M174.87922,183.54371c3.03437-4.41364,12.52371-11.58581,26.206-4.96536A21.02,21.02,0,0,1,174.87922,183.54371Z" fill="url(#linear-gradient-9)"/><path d="M161.4176,170.35794c-1.54478,3.31023-3.08955,11.08928,3.36541,15.83395,1.65511-2.86887,3.36541-10.041-3.31024-15.83394Z" fill="url(#linear-gradient-10)"/><path d="M153.69373,183.21267a10.48241,10.48241,0,0,1,10.75826,6.62047C161.74863,190.16418,155.735,189.50211,153.69373,183.21267Z" fill="#d89ca4"/></svg>