<svg id="Layer_1" data-name="Layer 1" xmlns="http://www.w3.org/2000/svg" xmlns:xlink="http://www.w3.org/1999/xlink" viewBox="0 0 300 300"><defs><style>.cls-1{fill:url(#linear-gradient);}.cls-2{fill-rule:evenodd;fill:url(#linear-gradient-2);}.cls-3{fill:#037843;}</style><linearGradient id="linear-gradient" x1="209.94" y1="183.8" x2="158.87" y2="183.8" gradientTransform="matrix(1, 0, 0, -1, 0, 302)" gradientUnits="userSpaceOnUse"><stop offset="0" stop-color="#fff"/><stop offset="1" stop-color="#008bcb"/></linearGradient><linearGradient id="linear-gradient-2" x1="65.45" y1="130.68" x2="175.1" y2="130.68" gradientTransform="matrix(1, 0, 0, -1, 0, 302)" gradientUnits="userSpaceOnUse"><stop offset="0" stop-color="#fff"/><stop offset="1" stop-color="#80ba27"/></linearGradient></defs><path id="Path_8" data-name="Path 8" class="cls-1" d="M208.38,57.48V171.86s-10,.78-22.27,7.06V129.46s-7.6-9.7-27.73-18.08V96.22A67,67,0,0,1,208.38,57.48Z"/><path id="Path_9" data-name="Path 9" class="cls-2" d="M158.38,111.38v91.08a78.76,78.76,0,0,1,27.73-23.54v63.6c-27-16.52-57.6-19.39-74.85-19.39a105.67,105.67,0,0,0-14.13.78L91.62,100.12c30.36,0,51.81,5.26,66.76,11.26Zm0,91.08v0Z"/><path class="cls-3" d="M158,111.14c1.71-.84,2.89.56,4.16,1.15,8.85,4.13,17.22,9,23.9,16.82v12.4q0,16.73,0,33.45c0,1.09.18,2.18.27,3.26-.11.37-.23.74-.35,1.1-6.18,2.6-11.31,6.77-16.39,11-4,3.34-7.31,7.4-10.83,11.51-.95-1.24-.59-2.46-.59-3.57q0-41.61,0-83.22C158.17,113.75,158.07,112.44,158,111.14Z"/></svg>