<svg id="Layer_1" data-name="Layer 1" xmlns="http://www.w3.org/2000/svg" viewBox="0 0 300 300"><path d="M270.3482,115.04954a4.53566,4.53566,0,1,1,0-9.0666h.026a4.53452,4.53452,0,1,1-.026,9.0666Zm0-8.15864h-.03a3.61161,3.61161,0,0,0,.056,7.22068,3.45969,3.45969,0,0,0,3.46284-3.60984A3.49781,3.49781,0,0,0,270.3482,106.8909Zm1.04995,3.74883c.447.138.691.496.833,1.10095a3.147,3.147,0,0,0,.327,1.103h-1.13295a3.729,3.729,0,0,1-.356-1.075c-.086-.494-.36-.717-.944-.717h-.5v1.79192h-1.05v-4.49181a8.79036,8.79036,0,0,1,1.74292-.166,2.61051,2.61051,0,0,1,1.58094.359,1.24223,1.24223,0,0,1,.44.965,1.16362,1.16362,0,0,1-.941,1.075Zm-1.16195-1.68092a2.56013,2.56013,0,0,0-.581.056v1.29394h.498c.578,0,1.054-.193,1.054-.663C271.20717,109.2338,270.90017,108.95881,270.2362,108.95881Zm-14.28536,66.822a5.20933,5.20933,0,0,1-1.13.273,12.69706,12.69706,0,0,1-1.70892.099,13.15082,13.15082,0,0,1-1.75992-.099,5.71319,5.71319,0,0,1-1.15695-.273,1.37662,1.37662,0,0,1-.653-.477,1.21679,1.21679,0,0,1-.2-.698v-5.96174a30.4135,30.4135,0,0,1-7.41367,6.00574,16.99074,16.99074,0,0,1-8.42364,2.1519,17.4289,17.4289,0,0,1-8.49362-1.92591,15.92344,15.92344,0,0,1-5.70675-5.20178,22.87675,22.87675,0,0,1-3.19486-7.70465,42.46644,42.46644,0,0,1-1.007-9.33259,40.37632,40.37632,0,0,1,1.26294-10.48054,23.17266,23.17266,0,0,1,3.71685-7.97665,16.63607,16.63607,0,0,1,6.11072-5.08178,18.94711,18.94711,0,0,1,8.41763-1.77992,15.40759,15.40759,0,0,1,7.26468,1.72892,25.64619,25.64619,0,0,1,6.50972,5.07778V107.95785a1.43593,1.43593,0,0,1,.174-.674,1.17085,1.17085,0,0,1,.682-.502,7.88708,7.88708,0,0,1,1.281-.302,13.5164,13.5164,0,0,1,1.98692-.12,14.40623,14.40623,0,0,1,2.0599.12,6.528,6.528,0,0,1,1.25794.302,1.406,1.406,0,0,1,.676.502,1.15146,1.15146,0,0,1,.228.674v66.64807a1.38639,1.38639,0,0,1-.172.698A1.23539,1.23539,0,0,1,255.95084,175.78086Zm-7.56567-32.85155a32.79751,32.79751,0,0,0-6.50972-6.32672,11.33246,11.33246,0,0,0-6.55771-2.1769,9.37144,9.37144,0,0,0-5.38276,1.49793,11.63538,11.63538,0,0,0-3.59084,3.95582,18.819,18.819,0,0,0-2.00991,5.54876,31.7591,31.7591,0,0,0-.636,6.30773,41.77026,41.77026,0,0,0,.53,6.6557,19.21553,19.21553,0,0,0,1.83792,5.77975,11.03638,11.03638,0,0,0,3.46985,4.05082,9.19541,9.19541,0,0,0,5.42375,1.52793,11.40059,11.40059,0,0,0,3.19687-.448,11.936,11.936,0,0,0,3.14285-1.50793,23.58614,23.58614,0,0,0,3.36686-2.72288,41.71447,41.71447,0,0,0,3.71884-4.12682ZM206.735,175.75687a4.80783,4.80783,0,0,1-1.25794.297,17.132,17.132,0,0,1-2.00992.099,17.60938,17.60938,0,0,1-2.05991-.099,4.77745,4.77745,0,0,1-1.25794-.297,1.6201,1.6201,0,0,1-.651-.478,1.09247,1.09247,0,0,1-.202-.673V148.23308a25.73449,25.73449,0,0,0-.606-6.20273,12.85687,12.85687,0,0,0-1.75792-4.05082,7.62845,7.62845,0,0,0-2.99188-2.60388,9.55459,9.55459,0,0,0-4.24781-.9,10.74521,10.74521,0,0,0-6.23372,2.2019,33.801,33.801,0,0,0-6.53472,6.45471v31.47362a1.093,1.093,0,0,1-.203.673,1.6716,1.6716,0,0,1-.651.478,4.82578,4.82578,0,0,1-1.25994.297,17.60773,17.60773,0,0,1-2.05791.099,17.2368,17.2368,0,0,1-2.01491-.099,5.209,5.209,0,0,1-1.282-.297,1.47479,1.47479,0,0,1-.652-.478,1.22716,1.22716,0,0,1-.172-.673v-45.035a1.456,1.456,0,0,1,.146-.674,1.38354,1.38354,0,0,1,.604-.502,3.68381,3.68381,0,0,1,1.15694-.302c.469-.046,1.088-.071,1.86091-.071.737,0,1.34795.025,1.83293.071a3.16578,3.16578,0,0,1,1.13395.302,1.64559,1.64559,0,0,1,.578.502,1.2408,1.2408,0,0,1,.177.674v5.95074a27.81247,27.81247,0,0,1,7.61568-6.22273,16.44677,16.44677,0,0,1,7.66566-1.98091,17.00349,17.00349,0,0,1,7.61566,1.53393,13.68632,13.68632,0,0,1,5.00477,4.07182,16.33834,16.33834,0,0,1,2.7369,5.97474,35.36576,35.36576,0,0,1,.831,8.23364v27.47379a1.10048,1.10048,0,0,1-.205.673A1.64171,1.64171,0,0,1,206.735,175.75687Zm-47.53691.246a10.22778,10.22778,0,0,1-2.05991.15,11.09215,11.09215,0,0,1-2.08891-.15,2.45123,2.45123,0,0,1-1.131-.448,1.13471,1.13471,0,0,1-.351-.905v-4.49781a22.43957,22.43957,0,0,1-6.61071,4.89979,17.60721,17.60721,0,0,1-7.71666,1.74992,21.11064,21.11064,0,0,1-6.45872-.924,13.88827,13.88827,0,0,1-4.92878-2.67488,11.98144,11.98144,0,0,1-3.16385-4.30181,14.07793,14.07793,0,0,1-1.134-5.80574,13.34444,13.34444,0,0,1,1.56293-6.60471,12.91943,12.91943,0,0,1,4.46681-4.6538,21.9321,21.9321,0,0,1,7.14068-2.77488,44.56819,44.56819,0,0,1,9.49958-.925h6.23673v-3.50284a17.23017,17.23017,0,0,0-.556-4.6048,7.87665,7.87665,0,0,0-1.78292-3.32685,7.62388,7.62388,0,0,0-3.19086-2.00091,14.9045,14.9045,0,0,0-4.82278-.678,19.30582,19.30582,0,0,0-5.50677.729,29.22883,29.22883,0,0,0-4.2728,1.59793q-1.83743.876-3.06787,1.60393a4.26735,4.26735,0,0,1-1.83292.724,1.2362,1.2362,0,0,1-.708-.202,1.64223,1.64223,0,0,1-.525-.598,3.16012,3.16012,0,0,1-.328-1.025,8.26026,8.26026,0,0,1-.101-1.37794,9.0091,9.0091,0,0,1,.174-1.97491,2.91206,2.91206,0,0,1,.859-1.37694,11.13323,11.13323,0,0,1,2.3359-1.52793,26.684,26.684,0,0,1,3.82283-1.59893A35.12335,35.12335,0,0,1,137.682,127.796a28.32979,28.32979,0,0,1,5.17677-.478,27.27114,27.27114,0,0,1,8.29464,1.102,13.45506,13.45506,0,0,1,5.53476,3.22686,12.5158,12.5158,0,0,1,3.06087,5.28277,25.45316,25.45316,0,0,1,.959,7.35267v30.36767a1.06069,1.06069,0,0,1-.404.905A2.85391,2.85391,0,0,1,159.19809,176.00285Zm-6.7367-21.914H145.3737a27.00392,27.00392,0,0,0-5.93174.577,12.21269,12.21269,0,0,0-4.17081,1.69992,7.07416,7.07416,0,0,0-2.4389,2.70388,8.10839,8.10839,0,0,0-.778,3.62884,7.23547,7.23547,0,0,0,2.2319,5.57376,8.847,8.847,0,0,0,6.26173,2.08191,11.68421,11.68421,0,0,0,6.05773-1.65493,26.07333,26.07333,0,0,0,5.85574-5.05578Zm-32.13358,31.31662a13.9284,13.9284,0,0,1-3.51285,4.03283,20.13663,20.13663,0,0,1-6.8597,3.35185,35.09767,35.09767,0,0,1-9.85357,1.22694,40.65011,40.65011,0,0,1-9.32658-.92495,20.31226,20.31226,0,0,1-6.30773-2.52789,9.779,9.779,0,0,1-3.56584-3.82584,10.6624,10.6624,0,0,1-1.108-4.82979,12.71284,12.71284,0,0,1,.401-3.20185,11.30262,11.30262,0,0,1,1.23195-2.94987,14.06382,14.06382,0,0,1,2.06091-2.67388,26.53247,26.53247,0,0,1,2.84287-2.53389c-.111-.056-.189-.135-.298-.191a8.7111,8.7111,0,0,1-3.34785-2.96088,7.61685,7.61685,0,0,1-1.182-4.10081,12.75584,12.75584,0,0,1,.298-2.75888,10.35126,10.35126,0,0,1,.96-2.69489,18.2077,18.2077,0,0,1,3.11286-4.3028,14.77151,14.77151,0,0,1-2.46189-4.18082,15.59153,15.59153,0,0,1-.904-5.62475,17.475,17.475,0,0,1,1.30594-6.9107,14.63516,14.63516,0,0,1,3.61784-5.14677A15.93927,15.93927,0,0,1,92.986,128.449a21.32852,21.32852,0,0,1,7.06068-1.13095,31.59812,31.59812,0,0,1,3.48485.197l.005-.01s.118.015.285.035c1.39594.186,8.07565,1.39694,11.59749,7.28868a16.06951,16.06951,0,0,1,2.1659,7.97665c.006.176.006.335.011.508v.039a18.19052,18.19052,0,0,1-.985,6.11672c-.091.261-.167.524-.273.765a13.8996,13.8996,0,0,1-3.58984,5.08178,16.29478,16.29478,0,0,1-5.55576,3.17986,22.134,22.134,0,0,1-7.14569,1.09595,18.74407,18.74407,0,0,1-5.25176-.724,10.9201,10.9201,0,0,1-3.84384-1.82992,7.9245,7.9245,0,0,0-1.48193,2.05591,5.83356,5.83356,0,0,0-.578,2.64988,3.427,3.427,0,0,0,1.63593,2.89887,7.32453,7.32453,0,0,0,3.29485,1.096,8.9511,8.9511,0,0,0,1.053.162l11.81248.497a24.52228,24.52228,0,0,1,6.18174.926,15.45974,15.45974,0,0,1,4.87778,2.35089,10.94619,10.94619,0,0,1,3.21685,3.75084,11.13078,11.13078,0,0,1,1.157,5.18177,13.79734,13.79734,0,0,1-1.30794,5.90075C120.66879,184.81947,120.49179,185.10546,120.32781,185.40544ZM92.941,150.686a9.58454,9.58454,0,0,0,7.10568,2.55189,10.82157,10.82157,0,0,0,4.27682-.772,8.071,8.071,0,0,0,2.99487-2.1569,9.06021,9.06021,0,0,0,1.75292-3.17686,12.11637,12.11637,0,0,0,.581-3.74984,9.76332,9.76332,0,0,0-2.54088-7.17668q-2.53639-2.57989-7.21168-2.57889a10.19211,10.19211,0,0,0-4.19582.799,8.19413,8.19413,0,0,0-2.96987,2.2019,9.31315,9.31315,0,0,0-1.75693,3.22586,12.67962,12.67962,0,0,0-.576,3.83083A9.47124,9.47124,0,0,0,92.941,150.686Zm18.49819,23.89395c-.189-.126-.414-.22-.616-.332a12.81926,12.81926,0,0,0-5.84774-1.34594L93.264,172.505c-.02.015-.04.03-.068.05a21.25284,21.25284,0,0,0-2.56789,2.3209,12.6215,12.6215,0,0,0-1.63393,2.1529,7.08,7.08,0,0,0-.83,2.02491,9.29441,9.29441,0,0,0-.228,2.05591,5.29522,5.29522,0,0,0,3.31785,4.92479q3.31485,1.67392,9.2496,1.67992a23.14688,23.14688,0,0,0,6.30972-.73,12.15672,12.15672,0,0,0,4.09582-1.92392,7.06959,7.06959,0,0,0,2.2369-2.74987,8.00232,8.00232,0,0,0,.677-3.25686A5.05783,5.05783,0,0,0,111.4392,174.57992Zm-38.25632,1.177a4.75865,4.75865,0,0,1-1.257.297,17.65868,17.65868,0,0,1-2.06191.099,17.08937,17.08937,0,0,1-2.00891-.099,5.22932,5.22932,0,0,1-1.28294-.297,1.45337,1.45337,0,0,1-.654-.478,1.23629,1.23629,0,0,1-.174-.673v-45.035a1.27216,1.27216,0,0,1,.174-.648,1.3432,1.3432,0,0,1,.654-.503,5.09506,5.09506,0,0,1,1.28294-.297,15.82761,15.82761,0,0,1,2.00891-.101,16.37,16.37,0,0,1,2.06191.101,4.643,4.643,0,0,1,1.257.297,1.4792,1.4792,0,0,1,.654.503,1.12481,1.12481,0,0,1,.197.648v45.035a1.09621,1.09621,0,0,1-.197.673A1.61839,1.61839,0,0,1,73.18288,175.75687Zm-14.88035-.829a1.66633,1.66633,0,0,1-.553.697,1.309,1.309,0,0,1-.78.227H28.21386a3.57657,3.57657,0,0,1-2.18691-.774A3.21665,3.21665,0,0,1,25,172.348V112.41066a1.2,1.2,0,0,1,.199-.698,1.30482,1.30482,0,0,1,.705-.473,7.08922,7.08922,0,0,1,1.35594-.302,14.29235,14.29235,0,0,1,2.06291-.125,14.17948,14.17948,0,0,1,2.08591.125,7.15216,7.15216,0,0,1,1.33494.302,1.31723,1.31723,0,0,1,.7.473,1.2167,1.2167,0,0,1,.202.698v55.99253h23.324a1.34166,1.34166,0,0,1,.78.222,1.76892,1.76892,0,0,1,.553.647,3.41931,3.41931,0,0,1,.328,1.126,12.40134,12.40134,0,0,1,.102,1.70392,11.71365,11.71365,0,0,1-.102,1.67393A3.95991,3.95991,0,0,1,58.30253,174.92791Z" fill="#5e5e61" fill-rule="evenodd"/><path d="M123.86365,123.09919q0,2.89786-1.135,3.93982c-.759.696-2.15089,1.052-4.17781,1.052-1.99791,0-3.36885-.346-4.10782-1.022-.738-.681-1.10395-1.97291-1.10395-3.86483q0-2.89186,1.13295-3.94183c.754-.696,2.15091-1.04095,4.17782-1.04095q2.99687,0,4.10282,1.02095Q123.85964,120.2653,123.86365,123.09919Z" fill="#da5a18" fill-rule="evenodd"/></svg>