<svg id="Layer_1" data-name="Layer 1" xmlns="http://www.w3.org/2000/svg" viewBox="0 0 300 300"><path d="M183.5692,115.04732A77.18453,77.18453,0,0,0,48.34589,113.964c-11.02659,19.7358-14.14007,44.21272-6.81383,65.69329a77.49947,77.49947,0,0,0,55.91486,50.10273c32.68082,7.32444,66.46273-7.70039,83.51415-36.16306.69856-1.16664.53191-2.84045,1.2234-3.99469a77.20041,77.20041,0,0,1-131.14708,3.07263c-14.33687-21.99813-16.86524-51.53183-3.9149-74.7126a77.15855,77.15855,0,0,1,133.46268-1.954,1.64878,1.64878,0,0,0,3.04965-.57091.65907.65907,0,0,0-.0656-.38821" fill="#42a982" fill-rule="evenodd"/><path d="M207.37591,115.87c-13.23756-32.58859-44.33151-55.46264-79.73043-57.70564C97.38132,56.24773,66.2324,68.418,46.59588,91.581A91.37348,91.37348,0,0,0,107.282,241.50115c36.15247,3.78905,72.70387-12.91133,92.33329-43.29254a1.64406,1.64406,0,0,0-1.516-2.52651c-.69149.06028-1.27659.2003-1.49469.56731-18.48226,31.21991-53.57087,49.46808-89.98575,43.45563A91.41321,91.41321,0,0,1,41.09411,105.57751c15.88652-28.83862,47.039-47.9787,80.39534-46.41838,35.79431,1.679,67.461,24.67549,80.91131,57.50346a1.13688,1.13688,0,0,0,.35284.4681c.78367.62053,3.2429,2.17912,4.6241-1.25879" fill="#d8a51d" fill-rule="evenodd"/><path d="M177.66849,115.04386C163.19157,92.4304,140.06036,76.473,112.61,74.47123a82.47488,82.47488,0,0,0-75.90065,38.85282,81.46288,81.46288,0,0,0,.70922,85.312c13.906,21.93251,35.93969,37.5212,62.22158,40.39713,36.12588,3.95388,70.695-16.86175,84.63293-50.071.04609-.11349-.00887-.26764-.12766-.44848a1.90894,1.90894,0,0,0-3.29078.32259,81.80011,81.80011,0,0,1-134.76055,21.149c-19.17906-21.07621-23.74821-53.20752-14.078-79.53015A82.14731,82.14731,0,0,1,88.27494,79.75312c33.36523-8.53911,69.49465,8.35105,89.078,35.36689,0,0,.53369.26606.3156-.07615" fill="#128f95" fill-rule="evenodd"/><polyline points="74.646 110.828 82.81 110.828 82.81 178.487 126.064 178.487 126.064 185.296 74.646 185.296 74.646 110.828" fill="#4e4e58" fill-rule="evenodd"/><rect x="267.9078" y="105.50843" width="7.0922" height="79.78712" fill="#4e4e58"/><rect x="244.85816" y="105.50843" width="7.09221" height="79.78712" fill="#4e4e58"/><path d="M234.2101,155.97372a30.88478,30.88478,0,0,0-3.6385-15.14482,26.81722,26.81722,0,0,0-10.08875-10.325,30.36043,30.36043,0,0,0-29.08478,0,26.657,26.657,0,0,0-10.20672,10.39578,30.39408,30.39408,0,0,0-3.70945,15.074,29.55281,29.55281,0,0,0,3.87471,15.09766,27.33273,27.33273,0,0,0,10.79754,10.44307,32.64758,32.64758,0,0,0,15.92454,3.7804,33.02711,33.02711,0,0,0,12.78227-2.41,25.03757,25.03757,0,0,0,9.71064-6.99363l-4.44188-5.03255a21.4102,21.4102,0,0,1-7.86781,5.62323,25.42131,25.42131,0,0,1-9.97051,1.91377c-6.42646,0-11.74253-1.81917-15.9482-5.505a20.465,20.465,0,0,1-6.99363-14.507h48.76607Zm-48.86053-3.37864a20.64607,20.64607,0,0,1,6.47391-13.82171v-.02365a21.66346,21.66346,0,0,1,28.37585,0,20.6492,20.6492,0,0,1,6.47391,13.84536Z" fill="#4e4e58" fill-rule="evenodd"/><path d="M179.25536,128.558l-28.83507,64.82084q-3.51063,8.14368-8.11347,11.55506a18.09573,18.09573,0,0,1-11.07446,3.41137,22.50389,22.50389,0,0,1-7.78369-1.32094,16.65921,16.65921,0,0,1-6.25-3.96109l3.617-5.8332a14.33113,14.33113,0,0,0,10.52659,4.40237,10.57245,10.57245,0,0,0,6.74291-2.20032q2.79519-2.20486,5.20744-7.48408l2.52127-5.61342L120.04974,128.558h8.11347l21.70743,49.19322L171.57985,128.558Z" fill="#4e4e58" fill-rule="evenodd"/></svg>