<svg id="Layer_1" data-name="Layer 1" xmlns="http://www.w3.org/2000/svg" viewBox="0 0 300 300"><path d="M129.04084,138.13816q-17.1872-19.15218-34.27-38.09094c-.74866.42748-1.496.8548-2.24467,1.36233V115.0592c0,33.97739-.107,68.03483,0,102.01207,0,6.7314-1.38907,12.20727-9.02825,13.81007a11.1326,11.1326,0,0,1-7.58571-3.87323c-1.736-2.93839-1.17516-6.27735-1.17516-9.456q-.12131-68.55558-.08087-137.13789c0-4.62124-.6404-9.50936,5.18192-11.78,5.36973-2.02995,8.81565.77475,12.26156,4.274,16.93482,16.98861,33.92311,33.87044,51.1253,51.01932Z" fill="#4f6778"/><path d="M227.0199,78.43753c-1.33559-4.461-2.37771-6.89167-4.62107-8.76152-6.464-2.48417-10.60513,0-14.638,4.14028C195.65971,86.18383,183.239,98.23084,171.03224,110.4916c-16.98829,16.98861-34.29743,33.6567-50.64532,51.23306-11.83376,12.68807-15.75965,27.91378-8.60175,44.68865,7.02618,16.50783,20.32856,25.26935,37.58423,25.88367,15.81313.58774,29.08812-6.67793,37.10164-20.86185,7.74744-13.72986,7.42659-27.75352-.373-41.75043-5.66319-10.15042-15.0123-17.09557-22.38541-25.96372C184.46766,120.96255,207.86781,101.00881,227.0199,78.43753Zm-57.05587,99.795c6.59706,10.76474,4.94193,21.90365-4.355,30.02395-8.7074,7.63951-21.12809,7.90673-30.50458.58774-8.49349-6.62462-10.89859-18.93868-5.4219-29.14258,4.88845-9.1621,12.795-15.7065,20.80853-22.972C158.5046,163.5143,165.0221,170.219,169.964,178.23248Z" fill="#79b5b9"/><path d="M226.326,101.62329c.107,37.74367,0,75.48735.107,113.231,0,5.18192-.2139,10.0169-5.12974,13.62291-2.4038,1.38906-5.315.74785-7.66528.58758-4.54151-2.53748-5.93057-6.25045-5.93057-10.551-.05348-35.09924-.05348-70.17174-.05348-105.77851,5.77015-5.58266,11.56639-11.16548,17.36262-16.88183C227.34075,97.58979,226.326,99.78017,226.326,101.62329Z" fill="#4f6778"/><path d="M151.45234,19.88532C76.23171,19.59153,23.15652,79.23885,20.1371,143.88125c-3.28549,71.80112,52.8626,134.60024,127.17544,136.203,72.869,1.5759,131.76913-56.22814,132.67691-128.88406C280.89723,79.93338,223.094,20.15254,151.45234,19.88532Zm.26738,249.51428C84.45913,270.468,31.11656,217.285,30.7957,150.105,30.047,88.37421,78.69029,31.63854,148.00642,30.57,214.011,29.555,268.85087,79.29233,269.49128,149.46391,270.07951,217.12474,216.94953,268.3578,151.71972,269.3996Z" fill="#4f6778"/><path d="M129.04084,138.13816q-17.1872-19.15218-34.27-38.09094c-.74866.42748-1.496.8548-2.24467,1.36233V115.0592c0,33.97739-.107,68.03483,0,102.01207,0,6.7314-1.38907,12.20727-9.02825,13.81007a11.1326,11.1326,0,0,1-7.58571-3.87323c-1.736-2.93839-1.17516-6.27735-1.17516-9.456q-.12131-68.55558-.08087-137.13789c0-4.62124-.6404-9.50936,5.18192-11.78,5.36973-2.02995,8.81565.77475,12.26156,4.274,16.93482,16.98861,33.92311,33.87044,51.1253,51.01932Z" fill="#4f6778"/><path d="M227.0199,78.43753c-1.33559-4.461-2.37771-6.89167-4.62107-8.76152-6.464-2.48417-10.60513,0-14.638,4.14028C195.65971,86.18383,183.239,98.23084,171.03224,110.4916c-16.98829,16.98861-34.29743,33.6567-50.64532,51.23306-11.83376,12.68807-15.75965,27.91378-8.60175,44.68865,7.02618,16.50783,20.32856,25.26935,37.58423,25.88367,15.81313.58774,29.08812-6.67793,37.10164-20.86185,7.74744-13.72986,7.42659-27.75352-.373-41.75043-5.66319-10.15042-15.0123-17.09557-22.38541-25.96372C184.46766,120.96255,207.86781,101.00881,227.0199,78.43753Zm-57.05587,99.795c6.59706,10.76474,4.94193,21.90365-4.355,30.02395-8.7074,7.63951-21.12809,7.90673-30.50458.58774-8.49349-6.62462-10.89859-18.93868-5.4219-29.14258,4.88845-9.1621,12.795-15.7065,20.80853-22.972C158.5046,163.5143,165.0221,170.219,169.964,178.23248Z" fill="#79b5b9"/><path d="M226.326,101.62329c.107,37.74367,0,75.48735.107,113.231,0,5.18192-.2139,10.0169-5.12974,13.62291-2.4038,1.38906-5.315.74785-7.66528.58758-4.54151-2.53748-5.93057-6.25045-5.93057-10.551-.05348-35.09924-.05348-70.17174-.05348-105.77851,5.77015-5.58266,11.56639-11.16548,17.36262-16.88183C227.34075,97.58979,226.326,99.78017,226.326,101.62329Z" fill="#4f6778"/><path d="M226.326,101.62329c.107,37.74367,0,75.48735.107,113.231,0,5.18192-.2139,10.0169-5.12974,13.62291-2.4038,1.38906-5.315.74785-7.66528.58758-4.54151-2.53748-5.93057-6.25045-5.93057-10.551-.05348-35.09924-.05348-70.17174-.05348-105.77851,5.77015-5.58266,11.56639-11.16548,17.36262-16.88183C227.34075,97.58979,226.326,99.78017,226.326,101.62329Z" fill="#4f6778"/><path d="M227.0199,78.43753c-1.33559-4.461-2.37771-6.89167-4.62107-8.76152-6.464-2.48417-10.60513,0-14.638,4.14028C195.65971,86.18383,183.239,98.23084,171.03224,110.4916c-16.98829,16.98861-34.29743,33.6567-50.64532,51.23306-11.83376,12.68807-15.75965,27.91378-8.60175,44.68865,7.02618,16.50783,20.32856,25.26935,37.58423,25.88367,15.81313.58774,29.08812-6.67793,37.10164-20.86185,7.74744-13.72986,7.42659-27.75352-.373-41.75043-5.66319-10.15042-15.0123-17.09557-22.38541-25.96372C184.46766,120.96255,207.86781,101.00881,227.0199,78.43753Zm-57.05587,99.795c6.59706,10.76474,4.94193,21.90365-4.355,30.02395-8.7074,7.63951-21.12809,7.90673-30.50458.58774-8.49349-6.62462-10.89859-18.93868-5.4219-29.14258,4.88845-9.1621,12.795-15.7065,20.80853-22.972C158.5046,163.5143,165.0221,170.219,169.964,178.23248Z" fill="#79b5b9"/><path d="M143.22492,123.92751l-14.18408,14.21065q-17.1872-19.15218-34.27-38.09094c-.74866.42748-1.496.8548-2.24467,1.36233V115.0592c0,33.97739-.107,68.03483,0,102.01207,0,6.7314-1.38907,12.20727-9.02825,13.81007a11.1326,11.1326,0,0,1-7.58571-3.87323c-1.736-2.93839-1.17516-6.27735-1.17516-9.456q-.12131-68.55558-.08087-137.13789c0-4.62124-.6404-9.50936,5.18192-11.78,5.36973-2.02995,8.81565.77475,12.26156,4.274C109.03444,89.8968,126.02273,106.77863,143.22492,123.92751Z" fill="#4f6778"/><path d="M226.326,101.62329c.107,37.74367,0,75.48735.107,113.231,0,5.18192-.2139,10.0169-5.12974,13.62291-2.4038,1.38906-5.315.74785-7.66528.58758-4.54151-2.53748-5.93057-6.25045-5.93057-10.551-.05348-35.09924-.05348-70.17174-.05348-105.77851,5.77015-5.58266,11.56639-11.16548,17.36262-16.88183C227.34075,97.58979,226.326,99.78017,226.326,101.62329Z" fill="#4f6778"/><path d="M227.0199,78.43753c-1.33559-4.461-2.37771-6.89167-4.62107-8.76152-6.464-2.48417-10.60513,0-14.638,4.14028C195.65971,86.18383,183.239,98.23084,171.03224,110.4916c-16.98829,16.98861-34.29743,33.6567-50.64532,51.23306-11.83376,12.68807-15.75965,27.91378-8.60175,44.68865,7.02618,16.50783,20.32856,25.26935,37.58423,25.88367,15.81313.58774,29.08812-6.67793,37.10164-20.86185,7.74744-13.72986,7.42659-27.75352-.373-41.75043-5.66319-10.15042-15.0123-17.09557-22.38541-25.96372C184.46766,120.96255,207.86781,101.00881,227.0199,78.43753Zm-57.05587,99.795c6.59706,10.76474,4.94193,21.90365-4.355,30.02395-8.7074,7.63951-21.12809,7.90673-30.50458.58774-8.49349-6.62462-10.89859-18.93868-5.4219-29.14258,4.88845-9.1621,12.795-15.7065,20.80853-22.972C158.5046,163.5143,165.0221,170.219,169.964,178.23248Z" fill="#79b5b9"/><path d="M143.22492,123.92751l-14.18408,14.21065q-17.1872-19.15218-34.27-38.09094c-.74866.42748-1.496.8548-2.24467,1.36233V115.0592c0,33.97739-.107,68.03483,0,102.01207,0,6.7314-1.38907,12.20727-9.02825,13.81007a11.1326,11.1326,0,0,1-7.58571-3.87323c-1.736-2.93839-1.17516-6.27735-1.17516-9.456q-.12131-68.55558-.08087-137.13789c0-4.62124-.6404-9.50936,5.18192-11.78,5.36973-2.02995,8.81565.77475,12.26156,4.274C109.03444,89.8968,126.02273,106.77863,143.22492,123.92751Z" fill="#4f6778"/><path d="M143.23362,123.92883l-14.19688,14.19689q-17.18141-19.11726-34.25516-38.07336c-.75294.4303-1.50555.8606-2.25849,1.3444v13.65893c0,33.98635-.10766,68.02652,0,102.01286,0,6.722-1.39822,12.20721-9.03429,13.82042a11.221,11.221,0,0,1-7.58258-3.872c-1.72086-2.95761-1.18291-6.29168-1.18291-9.46459q-.08073-68.56414-.05382-137.12828c0-4.62464-.64529-9.51809,5.16259-11.77659,5.37758-2.0435,8.819.75262,12.26071,4.24817C109.0323,89.88866,126.0253,106.77434,143.23362,123.92883Z" fill="#4f6778"/><path d="M226.31729,101.61174c.10766,37.75072,0,75.50143.10766,113.25182,0,5.16259-.21531,10.00254-5.10877,13.60543-2.42,1.39822-5.32375.75294-7.6899.59145-4.51731-2.5273-5.91553-6.23784-5.91553-10.53984-.05383-35.11575-.05383-70.17768-.05383-105.77723,5.754-5.59256,11.56193-11.18513,17.36981-16.88535C227.33905,97.57856,226.31729,99.78355,226.31729,101.61174Z" fill="#4f6778"/></svg>