<svg id="Layer_1" data-name="Layer 1" xmlns="http://www.w3.org/2000/svg" viewBox="0 0 300 300"><path id="Combined-Shape" d="M275,130.24659V170.1782h-7.48769l-.41-3.0545a11.76716,11.76716,0,0,1-8.546,3.6773c-8.56815,0-14.76677-5.47019-14.76677-14.76679,0-9.29622,6.19862-14.76678,14.76677-14.76678a10.73047,10.73047,0,0,1,8.21768,3.50415h0v-14.525Zm-15.6043,18.3289a7.49171,7.49171,0,1,0,7.49189,7.49152A7.49187,7.49187,0,0,0,259.3957,148.57549Z" fill="#bd1a8d" fill-rule="evenodd"/><path id="Combined-Shape-2" data-name="Combined-Shape" d="M86.3419,141.26743a10.39639,10.39639,0,0,1,8.4259,3.84129h0l.45385-3.151H102.786V170.1782h-7.4877l-.41-3.0545a11.768,11.768,0,0,1-8.54642,3.6773c-8.56778,0-14.7664-5.47019-14.7664-14.76679C71.5755,146.738,77.77412,141.26743,86.3419,141.26743Zm.83981,7.30806a7.49171,7.49171,0,1,0,7.49151,7.49152A7.49186,7.49186,0,0,0,87.18171,148.57549Z" fill="#bd1a8d" fill-rule="evenodd"/><polygon id="Fill-1" points="198.3 141.958 188.168 141.958 179.784 153.04 179.784 130.247 171.558 130.247 171.558 170.179 179.784 170.179 179.784 157.782 189.553 170.179 199.962 170.179 187.497 155.268 198.3 141.958" fill="#bd1a8d" fill-rule="evenodd"/><polygon id="Fill-2" points="200.725 170.179 208.951 170.179 208.951 141.958 200.725 141.958 200.725 170.179" fill="#bd1a8d" fill-rule="evenodd"/><path id="Fill-6" d="M204.8385,129.199a4.64487,4.64487,0,1,0,4.64487,4.64487,4.6451,4.6451,0,0,0-4.64487-4.64487" fill="#bd1a8d" fill-rule="evenodd"/><path id="Fill-12" d="M57.791,141.27219c-3.91071,0-6.85537,1.48549-9.36869,5.31267a8.44065,8.44065,0,0,0-8.22644-5.30161,8.68916,8.68916,0,0,0-7.17763,3.82566l-.45385-3.15137H25v28.22085h8.22644v-15.073c0-3.65594,2.07473-6.46369,5.16355-6.40648,3.1815,0,4.70284,1.72233,4.70284,6.06362v15.4159h8.22644v-15.073c0-3.65594,2.07473-6.46369,5.16393-6.40648,3.18112,0,4.70246,1.72233,4.70246,6.06362v15.4159H69.4121V154.75448c0-10.51169-5.73715-13.48229-11.62113-13.48229" fill="#bd1a8d" fill-rule="evenodd"/><path id="Fill-15" d="M123.80588,141.24893a12.471,12.471,0,0,0-8.97166,3.86l-.45423-3.15137h-7.564l-.00038,28.22085h8.25009V155.5878c0-3.65632,2.57052-6.9694,6.39809-6.91219,3.9416,0,5.82677,2.22766,5.82677,6.56933v14.93345H135.517V155.18773c0-10.96821-5.47743-13.9388-11.71114-13.9388" fill="#bd1a8d" fill-rule="evenodd"/><path id="Fill-17" d="M156.13686,141.24893a12.47189,12.47189,0,0,0-8.97205,3.86l-.45383-3.15137h-7.564l-.00039,28.22085h8.25008V155.5878c0-3.65632,2.57053-6.9694,6.39772-6.91219,3.942,0,5.82715,2.22766,5.82715,6.56933v14.93345H167.848V155.18773c0-10.96821-5.47742-13.9388-11.71114-13.9388" fill="#bd1a8d" fill-rule="evenodd"/><path id="Fill-19" d="M229.91523,141.24893a12.47042,12.47042,0,0,0-8.97168,3.86l-.45422-3.15137h-7.564l-.00038,28.22085h8.24971V155.5878c0-3.65632,2.57051-6.9694,6.39807-6.91219,3.942,0,5.82717,2.22766,5.82717,6.56933v14.93345h8.22643V155.18773c0-10.96821-5.47743-13.9388-11.71112-13.9388" fill="#bd1a8d" fill-rule="evenodd"/><path id="Combined-Shape-3" data-name="Combined-Shape" d="M275,130.24659V170.1782h-7.48769l-.41-3.0545a11.76716,11.76716,0,0,1-8.546,3.6773c-8.56815,0-14.76677-5.47019-14.76677-14.76679,0-9.29622,6.19862-14.76678,14.76677-14.76678a10.73047,10.73047,0,0,1,8.21768,3.50415h0v-14.525Zm-15.6043,18.3289a7.49171,7.49171,0,1,0,7.49189,7.49152A7.49187,7.49187,0,0,0,259.3957,148.57549Z" fill="#bd1a8d" fill-rule="evenodd"/><path id="Combined-Shape-4" data-name="Combined-Shape" d="M86.3419,141.26743a10.39639,10.39639,0,0,1,8.4259,3.84129h0l.45385-3.151H102.786V170.1782h-7.4877l-.41-3.0545a11.768,11.768,0,0,1-8.54642,3.6773c-8.56778,0-14.7664-5.47019-14.7664-14.76679C71.5755,146.738,77.77412,141.26743,86.3419,141.26743Zm.83981,7.30806a7.49171,7.49171,0,1,0,7.49151,7.49152A7.49186,7.49186,0,0,0,87.18171,148.57549Z" fill="#bd1a8d" fill-rule="evenodd"/><polygon id="Fill-1-2" data-name="Fill-1" points="198.3 141.958 188.168 141.958 179.784 153.04 179.784 130.247 171.558 130.247 171.558 170.179 179.784 170.179 179.784 157.782 189.553 170.179 199.962 170.179 187.497 155.268 198.3 141.958" fill="#bd1a8d" fill-rule="evenodd"/><polygon id="Fill-2-2" data-name="Fill-2" points="200.725 170.179 208.951 170.179 208.951 141.958 200.725 141.958 200.725 170.179" fill="#bd1a8d" fill-rule="evenodd"/><path id="Fill-6-2" data-name="Fill-6" d="M204.8385,129.199a4.64487,4.64487,0,1,0,4.64487,4.64487,4.6451,4.6451,0,0,0-4.64487-4.64487" fill="#bd1a8d" fill-rule="evenodd"/><path id="Fill-12-2" data-name="Fill-12" d="M57.791,141.27219c-3.91071,0-6.85537,1.48549-9.36869,5.31267a8.44065,8.44065,0,0,0-8.22644-5.30161,8.68916,8.68916,0,0,0-7.17763,3.82566l-.45385-3.15137H25v28.22085h8.22644v-15.073c0-3.65594,2.07473-6.46369,5.16355-6.40648,3.1815,0,4.70284,1.72233,4.70284,6.06362v15.4159h8.22644v-15.073c0-3.65594,2.07473-6.46369,5.16393-6.40648,3.18112,0,4.70246,1.72233,4.70246,6.06362v15.4159H69.4121V154.75448c0-10.51169-5.73715-13.48229-11.62113-13.48229" fill="#bd1a8d" fill-rule="evenodd"/><path id="Fill-15-2" data-name="Fill-15" d="M123.80588,141.24893a12.471,12.471,0,0,0-8.97166,3.86l-.45423-3.15137h-7.564l-.00038,28.22085h8.25009V155.5878c0-3.65632,2.57052-6.9694,6.39809-6.91219,3.9416,0,5.82677,2.22766,5.82677,6.56933v14.93345H135.517V155.18773c0-10.96821-5.47743-13.9388-11.71114-13.9388" fill="#bd1a8d" fill-rule="evenodd"/><path id="Fill-17-2" data-name="Fill-17" d="M156.13686,141.24893a12.47189,12.47189,0,0,0-8.97205,3.86l-.45383-3.15137h-7.564l-.00039,28.22085h8.25008V155.5878c0-3.65632,2.57053-6.9694,6.39772-6.91219,3.942,0,5.82715,2.22766,5.82715,6.56933v14.93345H167.848V155.18773c0-10.96821-5.47742-13.9388-11.71114-13.9388" fill="#bd1a8d" fill-rule="evenodd"/><path id="Fill-19-2" data-name="Fill-19" d="M229.91523,141.24893a12.47042,12.47042,0,0,0-8.97168,3.86l-.45422-3.15137h-7.564l-.00038,28.22085h8.24971V155.5878c0-3.65632,2.57051-6.9694,6.39807-6.91219,3.942,0,5.82717,2.22766,5.82717,6.56933v14.93345h8.22643V155.18773c0-10.96821-5.47743-13.9388-11.71112-13.9388" fill="#bd1a8d" fill-rule="evenodd"/></svg>