<svg id="Layer_1" data-name="Layer 1" xmlns="http://www.w3.org/2000/svg" viewBox="0 0 300 300"><defs><style>.cls-1{fill:#e87425;}</style></defs><path id="Vector" class="cls-1" d="M210.44,171.5a49.63,49.63,0,1,1,19-3.78,49.57,49.57,0,0,1-19,3.78Zm0-86a36.36,36.36,0,1,0,25.73,10.65,36.38,36.38,0,0,0-25.73-10.65Z"/><path id="Vector_2" data-name="Vector 2" class="cls-1" d="M147.5,227.71a20.69,20.69,0,1,1,14.6-6.06,20.69,20.69,0,0,1-14.6,6.06Zm0-33.07a12.43,12.43,0,1,0,8.76,3.64,12.41,12.41,0,0,0-8.76-3.64Z"/><path id="Vector_3" data-name="Vector 3" class="cls-1" d="M73.87,194.73a34,34,0,1,1,24-9.95,33.92,33.92,0,0,1-24,9.95Zm0-54.57a4.11,4.11,0,1,0,0-.08Z"/><path id="Vector_4" data-name="Vector 4" class="cls-1" d="M100.67,171.87l-5.34,8.35,34.44,22.05,5.34-8.36Z"/><path id="Vector_5" data-name="Vector 5" class="cls-1" d="M181,153.48l-28,37,7.9,6,28-37Z"/></svg>