<svg id="Layer_1" data-name="Layer 1" xmlns="http://www.w3.org/2000/svg" viewBox="0 0 300 300"><defs><style>.cls-1{fill:#2aa6e3;}.cls-1,.cls-2,.cls-3{fill-rule:evenodd;}.cls-2{fill:#0ad488;}.cls-3{fill:#3c237c;}</style></defs><g id="marinus-color-logo"><path id="Path_2183" data-name="Path 2183" class="cls-1" d="M189.82,218.17a86.78,86.78,0,1,1,33.31-6.65,88.06,88.06,0,0,1-33.31,6.65Zm0-164.45a77.51,77.51,0,1,0,77,77.17,78,78,0,0,0-6-29.49,76.28,76.28,0,0,0-16.62-25A77.8,77.8,0,0,0,219.3,59.65,75.94,75.94,0,0,0,189.82,53.72Z"/><path id="Path_2184" data-name="Path 2184" class="cls-2" d="M119.59,147.88a61.62,61.62,0,1,1,61.12-61.3A63.53,63.53,0,0,1,176,110a61.47,61.47,0,0,1-33.08,33.18A60.19,60.19,0,0,1,119.59,147.88Zm0-112.84A51.56,51.56,0,1,0,171,86.58a51.88,51.88,0,0,0-15-36.47A51.59,51.59,0,0,0,119.59,35Z"/><path id="Path_2185" data-name="Path 2185" class="cls-3" d="M122.31,275.31a99.27,99.27,0,1,1,91.16-61.39,100.52,100.52,0,0,1-21.33,32.22,99.57,99.57,0,0,1-69.83,29.17Zm0-188.41A89.23,89.23,0,1,0,211.23,176,90.56,90.56,0,0,0,204.52,142a88.7,88.7,0,0,0-82.21-55Z"/></g></svg>