<svg id="Layer_1" data-name="Layer 1" xmlns="http://www.w3.org/2000/svg" viewBox="0 0 300 300"><path d="M149.99885,181.75646a31.68546,31.68546,0,1,1,31.80232-31.6578A31.64579,31.64579,0,0,1,149.99885,181.75646Z" fill="#035cd3"/><path d="M44.78446,127.27686a13.87215,13.87215,0,1,1,13.95309-13.94532A13.91737,13.91737,0,0,1,44.78446,127.27686Z" fill="#0397fd"/><path d="M76.91676,220.30074a13.75133,13.75133,0,0,1,13.92571,13.91413,13.88786,13.88786,0,1,1-13.92571-13.91413Z" fill="#03af8c"/><path d="M223.03593,79.829A13.74971,13.74971,0,0,1,209.155,66.19961a13.89368,13.89368,0,1,1,27.78576-.29546A13.76852,13.76852,0,0,1,223.03593,79.829Z" fill="#03af8c"/><path d="M186.857,31.20187a13.83329,13.83329,0,1,1-13.9777,13.52156A13.82173,13.82173,0,0,1,186.857,31.20187Z" fill="#049d7b"/><path d="M127.12192,255.22237a13.70621,13.70621,0,0,1-14.02162,13.78681,13.83625,13.83625,0,1,1,.41755-27.669A13.67569,13.67569,0,0,1,127.12192,255.22237Z" fill="#049d7b"/><path d="M65.82146,90.95992a13.80029,13.80029,0,1,1,13.969-13.90761A13.71184,13.71184,0,0,1,65.82146,90.95992Z" fill="#892b85"/><path d="M49.67985,184.69173A13.59557,13.59557,0,0,1,63.51435,198.625a13.85078,13.85078,0,0,1-13.80287,13.75461,14.0142,14.0142,0,0,1-13.90771-14.04222A13.76538,13.76538,0,0,1,49.67985,184.69173Z" fill="#035cd3"/><path d="M250.13936,87.90227A13.84414,13.84414,0,1,1,236.485,101.74878,13.8125,13.8125,0,0,1,250.13936,87.90227Z" fill="#035cd3"/><path d="M38.76071,171.689A13.72942,13.72942,0,0,1,25,157.93008a13.85617,13.85617,0,1,1,27.712-.03738A13.55982,13.55982,0,0,1,38.76071,171.689Z" fill="#0481fd"/><path d="M255.12425,200.52871a13.79662,13.79662,0,1,1,13.93937-13.887A13.79255,13.79255,0,0,1,255.12425,200.52871Z" fill="#0397fd"/><path d="M261.0624,128.436a13.86277,13.86277,0,1,1-13.77671,14.046A13.84669,13.84669,0,0,1,261.0624,128.436Z" fill="#0481fd"/><path d="M233.9871,209.23718a13.84548,13.84548,0,0,1,.24733,27.68979,13.84556,13.84556,0,1,1-.24733-27.68979Z" fill="#892b85"/><path d="M115.44951,49.88738a13.86906,13.86906,0,0,1-14.01917,13.87067A13.643,13.643,0,0,1,87.87607,49.86139a13.78719,13.78719,0,0,1,13.57644-13.91423A13.9717,13.9717,0,0,1,115.44951,49.88738Z" fill="#a1459d"/><path d="M198.27419,264.12714a13.82811,13.82811,0,1,1,14.02373-13.818A13.79534,13.79534,0,0,1,198.27419,264.12714Z" fill="#a1459d"/><path d="M157.87923,274.84523A13.47493,13.47493,0,0,1,144.013,260.98484a13.85656,13.85656,0,1,1,27.71143.24258A13.625,13.625,0,0,1,157.87923,274.84523Z" fill="#d75bd2"/><path d="M155.9842,39.04223a13.89353,13.89353,0,0,1-13.91765,13.97238,13.92978,13.92978,0,0,1,.21592-27.85863A13.94136,13.94136,0,0,1,155.9842,39.04223Z" fill="#d75bd2"/><path d="M249.08036,126.79093a11.45868,11.45868,0,1,1-11.2638-11.5296A11.50134,11.50134,0,0,1,249.08036,126.79093Z" fill="#035cd3"/><path d="M206.89375,71.615a11.46239,11.46239,0,1,1-11.7036-11.39618A11.55533,11.55533,0,0,1,206.89375,71.615Z" fill="#049d7b"/><path d="M116.0289,228.43113a11.46114,11.46114,0,1,1-11.35524-11.45143A11.53887,11.53887,0,0,1,116.0289,228.43113Z" fill="#049d7b"/><path d="M221.26751,105.52317a11.48142,11.48142,0,1,1,11.44567-11.616A11.4433,11.4433,0,0,1,221.26751,105.52317Z" fill="#03af8c"/><path d="M93.8092,90.409a11.501,11.501,0,1,1,11.69612-11.52849A11.65207,11.65207,0,0,1,93.8092,90.409Z" fill="#892b85"/><path d="M78.67009,217.51614A11.38045,11.38045,0,1,1,90.21538,206.367,11.28158,11.28158,0,0,1,78.67009,217.51614Z" fill="#03af8c"/><path d="M239.59341,172.21588a11.38819,11.38819,0,1,1,11.99844-11.11869A11.46883,11.46883,0,0,1,239.59341,172.21588Z" fill="#0481fd"/><path d="M60.2678,127.9782a11.42705,11.42705,0,1,1-.57984,22.84585,11.42747,11.42747,0,1,1,.57984-22.84585Z" fill="#0481fd"/><path d="M206.08075,232.71442a11.42827,11.42827,0,1,1,11.522-11.587A11.47009,11.47009,0,0,1,206.08075,232.71442Z" fill="#892b85"/><path d="M60.161,104.60081a11.38929,11.38929,0,1,1,11.41407,11.6125A11.334,11.334,0,0,1,60.161,104.60081Z" fill="#0397fd"/><path d="M62.44953,162.04231a11.42132,11.42132,0,1,1-.0943,22.84242,11.42148,11.42148,0,1,1,.0943-22.84242Z" fill="#035cd3"/><path d="M160.78571,48.81944a11.36635,11.36635,0,1,1-.09862,22.72958,11.49256,11.49256,0,0,1-11.538-11.291A11.35987,11.35987,0,0,1,160.78571,48.81944Z" fill="#d75bd2"/><path d="M126.71672,74.06344a11.50769,11.50769,0,1,1,11.40157-11.43008A11.56618,11.56618,0,0,1,126.71672,74.06344Z" fill="#a1459d"/><path d="M139.2706,251.49091a11.57639,11.57639,0,0,1-11.55494-11.60523,11.5768,11.5768,0,0,1,23.14715.34023A11.58989,11.58989,0,0,1,139.2706,251.49091Z" fill="#d75bd2"/><path d="M173.30618,226.22935a11.41055,11.41055,0,1,1-11.423,11.31335A11.32172,11.32172,0,0,1,173.30618,226.22935Z" fill="#a1459d"/><path d="M239.83954,195.33192A11.39053,11.39053,0,1,1,228.486,184.06531,11.23175,11.23175,0,0,1,239.83954,195.33192Z" fill="#0397fd"/><path d="M205.45154,96.75643a9.91162,9.91162,0,0,1-9.76938,9.89407,9.95409,9.95409,0,0,1-.19354-19.907A9.92661,9.92661,0,0,1,205.45154,96.75643Z" fill="#049d7b"/><path d="M97.77576,182.86477A9.89252,9.89252,0,1,1,87.74412,172.938,9.87774,9.87774,0,0,1,97.77576,182.86477Z" fill="#03af8c"/><path d="M222.0688,117.38507a9.92039,9.92039,0,1,1-9.72326-9.94506A9.98092,9.98092,0,0,1,222.0688,117.38507Z" fill="#03af8c"/><path d="M92.73958,129.608a9.74452,9.74452,0,0,1-9.967,9.61541,9.88507,9.88507,0,1,1,.23049-19.76851A9.77,9.77,0,0,1,92.73958,129.608Z" fill="#0481fd"/><path d="M210.13719,144.288a10.043,10.043,0,0,1,9.989-9.71283,9.96029,9.96029,0,0,1-.19071,19.91958A10.02225,10.02225,0,0,1,210.13719,144.288Z" fill="#035cd3"/><path d="M217.2541,160.98082a9.88266,9.88266,0,1,1-9.995,9.56675A9.74956,9.74956,0,0,1,217.2541,160.98082Z" fill="#0481fd"/><path d="M104.52553,213.42158a9.90958,9.90958,0,1,1,9.796-10.18058A9.90367,9.90367,0,0,1,104.52553,213.42158Z" fill="#049d7b"/><path d="M107.39082,88.15349a9.85811,9.85811,0,1,1,9.8418,9.72819A9.82234,9.82234,0,0,1,107.39082,88.15349Z" fill="#892b85"/><path d="M192.60846,212.30992a9.84653,9.84653,0,0,1-19.69128-.265,9.84654,9.84654,0,1,1,19.69128.265Z" fill="#892b85"/><path d="M193.66152,195.72376a9.8144,9.8144,0,1,1,9.727,9.83276A9.7829,9.7829,0,0,1,193.66152,195.72376Z" fill="#0397fd"/><path d="M106.3363,104.597a9.54215,9.54215,0,0,1-9.67108,9.79518,9.8338,9.8338,0,1,1-.22969-19.66625A9.54042,9.54042,0,0,1,106.3363,104.597Z" fill="#0397fd"/><path d="M119.40857,216.97307c.06794-5.70062,4.30129-9.70225,10.15711-9.60112a9.45188,9.45188,0,0,1,9.4849,9.9436,9.8225,9.8225,0,0,1-19.642-.34248Z" fill="#d75bd2"/><path d="M145.8118,219.91989a9.78387,9.78387,0,0,1,9.75742-9.79891,9.94484,9.94484,0,1,1-9.75742,9.79891Z" fill="#a1459d"/><path d="M144.41688,89.88643a9.56673,9.56673,0,0,1-9.84736-9.94419,9.78538,9.78538,0,0,1,9.89542-9.65782c5.71507.021,9.77024,4.19439,9.7247,10.00837A9.35668,9.35668,0,0,1,144.41688,89.88643Z" fill="#a1459d"/><path d="M79.97893,165.39522a9.49645,9.49645,0,0,1-9.83166-9.907,9.72505,9.72505,0,0,1,9.83477-9.70238,9.85469,9.85469,0,0,1,9.87955,10.0221A9.61512,9.61512,0,0,1,79.97893,165.39522Z" fill="#035cd3"/><path d="M180.60923,83.018a9.82995,9.82995,0,1,1-19.65932.03364,9.831,9.831,0,1,1,19.65932-.03364Z" fill="#d75bd2"/><path d="M197.19334,140.47928a7.59009,7.59009,0,1,1,.31123-15.17508,7.58916,7.58916,0,1,1-.31123,15.17508Z" fill="#03af8c"/><path d="M175.93371,187.76722a7.55244,7.55244,0,0,1,7.32382-7.79114,7.62469,7.62469,0,1,1,.34076,15.24434A7.53092,7.53092,0,0,1,175.93371,187.76722Z" fill="#0397fd"/><path d="M102.68081,159.64752a7.66,7.66,0,0,1,7.68371,7.48867,7.5988,7.5988,0,1,1-15.19688.13943A7.601,7.601,0,0,1,102.68081,159.64752Z" fill="#03af8c"/><path d="M112.23962,191.09164a7.421,7.421,0,0,1-7.35893-7.69807,7.60425,7.60425,0,1,1,7.35893,7.69807Z" fill="#049d7b"/><path d="M203.21142,171.21936a7.60474,7.60474,0,1,1-15.20574.06865,7.603,7.603,0,0,1,15.20574-.06865Z" fill="#0481fd"/><path d="M207.72177,152.91988a7.4602,7.4602,0,0,1-7.40554,7.6651,7.66552,7.66552,0,0,1-7.71065-7.76468,7.788,7.788,0,0,1,7.6609-7.55208A7.56252,7.56252,0,0,1,207.72177,152.91988Z" fill="#035cd3"/><path d="M116.49631,120.09341a7.45225,7.45225,0,0,1-7.64451-7.44188,7.66345,7.66345,0,1,1,15.32683.03061A7.534,7.534,0,0,1,116.49631,120.09341Z" fill="#0397fd"/><path d="M154.72313,200.526a7.56895,7.56895,0,1,1-15.11626-.68167,7.56586,7.56586,0,1,1,15.11626.68167Z" fill="#a1459d"/><path d="M167.20428,204.93171a7.494,7.494,0,0,1-7.54461-7.55406,7.41309,7.41309,0,0,1,7.73692-7.64192,7.59152,7.59152,0,0,1,7.473,7.67581A7.68415,7.68415,0,0,1,167.20428,204.93171Z" fill="#892b85"/><path d="M179.90839,116.61949a7.6056,7.6056,0,1,1,15.20891.19519,7.60513,7.60513,0,0,1-15.20891-.19519Z" fill="#049d7b"/><path d="M160.40406,100.1388a7.35964,7.35964,0,0,1-7.67476,7.3527,7.47992,7.47992,0,0,1-7.4545-7.63837,7.57738,7.57738,0,0,1,7.58253-7.54329A7.40735,7.40735,0,0,1,160.40406,100.1388Z" fill="#a1459d"/><path d="M111.99754,128.95312a7.44022,7.44022,0,0,1-7.59206,7.48987,7.54936,7.54936,0,0,1-7.61616-7.50915,7.67147,7.67147,0,0,1,7.79752-7.68494A7.54743,7.54743,0,0,1,111.99754,128.95312Z" fill="#0481fd"/><path d="M99.83761,154.70058a7.16812,7.16812,0,0,1-7.56206-7.36305,7.44453,7.44453,0,0,1,7.64476-7.74014,7.61929,7.61929,0,0,1,7.475,7.66589A7.31134,7.31134,0,0,1,99.83761,154.70058Z" fill="#035cd3"/><path d="M132.847,95.34881a7.27914,7.27914,0,0,1,7.49447,7.5051,7.38325,7.38325,0,0,1-7.43682,7.61011,7.642,7.642,0,0,1-7.74974-7.71128A7.48981,7.48981,0,0,1,132.847,95.34881Z" fill="#892b85"/><path d="M178.72723,104.67135a7.62469,7.62469,0,0,1-7.55159,7.58217,7.68448,7.68448,0,1,1,.25371-15.36685A7.55268,7.55268,0,0,1,178.72723,104.67135Z" fill="#d75bd2"/><path d="M128.69965,203.11917a7.09987,7.09987,0,0,1-7.42781-7.48244,7.31519,7.31519,0,0,1,7.40357-7.62451,7.69719,7.69719,0,0,1,7.71463,7.7659A7.32,7.32,0,0,1,128.69965,203.11917Z" fill="#d75bd2"/></svg>