<svg id="Layer_1" data-name="Layer 1" xmlns="http://www.w3.org/2000/svg" viewBox="0 0 300 300"><defs><style>.cls-1{fill:#1167aa;}.cls-2{fill:#273b69;}.cls-3{fill:#96bdd9;}</style></defs><path class="cls-1" d="M167,128.42v73.24l8.6.24c4.1-26.7-.05-54.13,2.28-81.93h34.55V203c9.43-7.56,9.43-7.56,9.43-40.39V120.89c11.59-4.06,22.59-1.19,34.5-2.07,0,29.81.88,58.3-.37,86.69-.62,14-9.2,25.2-23.53,29.47-15.85,4.73-28.29-1.48-37.71-15.35-7.78,9.17-15.43,16.81-28.33,16.71-19.83-.16-32-11.5-33.7-34.73-1-13.71,0-27.57.05-41.37Z"/><path class="cls-2" d="M125.48,63.45l19.41.25c16.33,6.17,21.53,19.21,22.22,35-11.85,10.11-21.18,22.88-34.4,31.52V96.47c-12.08,1.49-9.87,8.91-9.92,14.58-.19,22.17-.08,44.35-.08,67.58H86.84V94.74c-8.75,9.13-8.75,9.13-8.75,41.55v41.78c-11.62,2.94-22.66,1.54-34.44.9,0-28.82-.86-57.27.37-85.63.6-14,9.48-24.42,23.4-29.6l19.3-.05c7.9,2.57,12.86,8.84,18.52,14.8C111.84,73,116.49,65.27,125.48,63.45Z"/><path class="cls-3" d="M132.71,130.25c13.22-8.64,22.55-21.41,34.4-31.52q-.06,14.85-.13,29.69l-34.23,31.82Q132.74,145.26,132.71,130.25Z"/></svg>