<svg id="Layer_1" data-name="Layer 1" xmlns="http://www.w3.org/2000/svg" viewBox="0 0 300 300"><defs><style>.cls-1{fill:#4c88b3;}.cls-2{fill:#526f7c;}</style></defs><path class="cls-1" d="M78.64,123.68a80,80,0,0,1,13.2,6h20.7a83.33,83.33,0,0,0-20.14-10.2A88.64,88.64,0,0,0,25,123.25,83.83,83.83,0,0,1,78.64,123.68Z"/><path class="cls-2" d="M104.31,114.89a77,77,0,0,1,25.59,14.78h18.86a80.88,80.88,0,0,0-30.7-19,88.6,88.6,0,0,0-67.4,3.79A83.72,83.72,0,0,1,104.31,114.89Z"/><path class="cls-1" d="M129.63,106.92A75,75,0,0,1,163,129.69h18a79.34,79.34,0,0,0-37.63-27A88.69,88.69,0,0,0,76,106.49,83.76,83.76,0,0,1,129.63,106.92Z"/><path class="cls-1" d="M170.37,193.09a77.53,77.53,0,0,1-24.23-13.62h-19a81.31,81.31,0,0,0,29.52,17.82,88.64,88.64,0,0,0,67.4-3.78A83.89,83.89,0,0,1,170.37,193.09Z"/><path class="cls-2" d="M195.7,185.12a80.35,80.35,0,0,1-12.56-5.64H162.32a83,83,0,0,0,19.62,9.85,88.69,88.69,0,0,0,67.42-3.78A83.82,83.82,0,0,1,195.7,185.12Z"/><path class="cls-1" d="M233.16,179.48H204.77c.95.37,1.88.74,2.84,1.07A88.7,88.7,0,0,0,275,176.77,83.92,83.92,0,0,1,233.16,179.48Z"/></svg>