<svg id="Layer_1" data-name="Layer 1" xmlns="http://www.w3.org/2000/svg" viewBox="0 0 300 300"><defs><style>.cls-1{fill:#2e5691;}.cls-2{fill:#1a365b;}</style></defs><path class="cls-1" d="M98.59,64.26a3,3,0,0,1,2.46-.94q14.51,0,29,0a2.86,2.86,0,0,1,1.92.64c5.09,4,7.65,9.62,9.86,15.43a100,100,0,0,1,5.55,24.69c1.36,12.17,2.24,24.38,3.35,36.57.89,9.74,1.83,19.48,3,29.19.48,4,1.07,7.91,1.64,11.86a1.81,1.81,0,0,0,.41,1.21,24.59,24.59,0,0,0,.71,5c.68,4,1.89,7.87,2.72,11.83,2.17,10.4,6.54,19.43,15.34,25.87a26,26,0,0,1-6.51,8.34c-2.52,2.13-5.58,2.71-8.76,2.64a38.18,38.18,0,0,1-12.16-2.05A18,18,0,0,1,137,225.89a84.36,84.36,0,0,1-7.23-20.25,249.72,249.72,0,0,1-5.09-31.82c-1.18-11.09-1.77-22.22-2.62-33.34-1.1-14.45-2.8-28.82-6.31-42.92-.1-.4,0-.89-.52-1.12a10,10,0,0,0-.17-1.42,77.43,77.43,0,0,0-7-18.46c-2.08-3.76-4.42-7.36-8.11-9.84A3,3,0,0,1,98.59,64.26Z"/><path class="cls-1" d="M178.77,64.52a3.4,3.4,0,0,1,3-1.2c9.63,0,19.26,0,28.88,0a2.87,2.87,0,0,1,1.92.67c5,4,7.54,9.5,9.73,15.22a98,98,0,0,1,5.56,24.44c1.42,12.69,2.31,25.43,3.49,38.15,1.15,12.5,2.43,25,4.17,37.41A135.09,135.09,0,0,0,244.21,212a36.7,36.7,0,0,0,10.59,15c0,.56-.4.72-.67,1-6.5,6.16-14.33,8.83-23.18,8.67a12.26,12.26,0,0,1-8.55-3.87c-3.83-3.75-6.08-8.45-8-13.34-3.25-8.38-5.11-17.13-6.59-26-2.6-15.52-3.79-31.18-4.82-46.86s-2.56-31.05-6-46.29c-.26-1.11-.54-2.22-.79-3.33-.07-.28-.13-.51-.49-.47a2.07,2.07,0,0,0-.08-1.53,82.41,82.41,0,0,0-7-18.32,31.75,31.75,0,0,0-5.73-7.78C181.48,67.49,179.62,66.5,178.77,64.52Z"/><path class="cls-2" d="M178.77,64.52c.85,2,2.71,3,4.17,4.37a31.75,31.75,0,0,1,5.73,7.78,82.41,82.41,0,0,1,7,18.32,2.07,2.07,0,0,1,.08,1.53c-1.12,5-2.23,10-3.07,15.07-1.38,8.36-2.38,16.76-3,25.21-1.06,13.21-1.69,26.45-3.21,39.62-1.47,12.73-3.3,25.41-7.1,37.7a54.22,54.22,0,0,1-4.72,11.51c-8.8-6.44-13.17-15.47-15.34-25.87-.83-4-2-7.84-2.72-11.83a24.59,24.59,0,0,1-.71-5c.66-5,1.35-9.91,2-14.87,1-8,1.79-16.05,2.53-24.08,1-10.62,1.89-21.24,2.82-31.86a152.22,152.22,0,0,1,3.25-22.38c1.75-7.27,4.05-14.34,8.24-20.64A15.74,15.74,0,0,1,178.77,64.52Z"/><path class="cls-2" d="M98.59,64.26a3,3,0,0,0,1.3,2.46c3.69,2.48,6,6.08,8.11,9.84a77.43,77.43,0,0,1,7,18.46,10,10,0,0,1,.17,1.42c-1.68,7.08-3.07,14.22-4.07,21.43q-1.71,12.19-2.53,24.47c-1.1,16.46-2.18,32.92-4.81,49.22-1.64,10.09-3.68,20.09-7.61,29.6a28.1,28.1,0,0,1-2.63,5.26A32.07,32.07,0,0,1,85.27,214a52.66,52.66,0,0,1-3.34-11.95c-.42-3.4-.89-6.81-1.52-10.18s-1.46-6.55-2.2-9.82a23.17,23.17,0,0,0,6.68-12.85A22.31,22.31,0,0,0,79.8,151c-.2-.23-.38-.47-.6-.75L80.46,136q1-11.47,2-22.95c1-11.11,2.29-22.16,6.1-32.74a43.68,43.68,0,0,1,7-13.3A10.7,10.7,0,0,1,98.59,64.26Z"/><path class="cls-1" d="M78.21,182.05c.74,3.27,1.58,6.52,2.2,9.82s1.1,6.78,1.52,10.18A52.66,52.66,0,0,0,85.27,214a32.07,32.07,0,0,0,8.3,12.42c-2.41,4.41-5.29,8.51-10.46,9.73-7.54,1.79-14.78-.76-18.21-8.3a78.39,78.39,0,0,1-5.3-17.44C58.15,203,57.14,195.53,55,188.28c0-.16-.05-.32-.1-.62C63.77,190,71.51,188.09,78.21,182.05Z"/><path class="cls-1" d="M61.89,149.35A16.31,16.31,0,1,1,45.2,165.27C45.13,156.67,52.82,149.34,61.89,149.35Z"/></svg>