<svg id="Layer_1" data-name="Layer 1" xmlns="http://www.w3.org/2000/svg" viewBox="0 0 300 300"><path d="M149.52352,99.69287q-.00048,23.29482-.0003,46.58963c0,.35135.00255.70273-.00026,1.05406-.01654,2.07355-.017,2.08877-2.08572,2.089q-47.69511.00483-95.39022-.00047c-2.03738-.00024-2.05379-.01767-2.04633-2.12347a95.0011,95.0011,0,0,1,5.654-31.32335A98.52529,98.52529,0,0,1,71.90948,86.89741a100.06441,100.06441,0,0,1,26.295-23.10213,96.68118,96.68118,0,0,1,32.6814-12.51436,89.64637,89.64637,0,0,1,16.30739-1.695c2.32144-.00577,2.329-.00426,2.32935,2.25243Q149.52607,75.76561,149.52352,99.69287Z" fill="#a2aac6"/><path d="M249.96222,148.5357c-.01262-.843-.03614-1.68587-.03619-2.52878q-.00291-40.58669-.00027-81.17338c.00048-4.91934.01793-9.83867.0276-14.758l-.37125-.47837L191,49.57042c-.48712-.041-.97425-.11764-1.46137-.11791q-18.54028-.01006-37.08064-.003a13.56,13.56,0,0,0-1.47.06427.48357.48357,0,0,0-.43026.59162,109.71951,109.71951,0,0,0,1.91767,18.83449,99.83316,99.83316,0,0,0,66.91243,75.50059,112.0009,112.0009,0,0,0,18.47838,4.15354c1.21378.67693,2.57893.43826,3.87175.60729a54.62187,54.62187,0,0,0,7.09807.31471C249.46446,149.5159,250.17254,149.53163,249.96222,148.5357Z" fill="#0a3670"/><path d="M249.24662,150.67147c-.568-.82078-1.41927-.41957-2.12429-.42011q-47.5405-.03471-95.08107-.0081c-.678.00032-1.4073-.23116-2.03575.25016a28.1957,28.1957,0,0,0-.15609,4.85512c-.26772.19969-.1904.35686.06079.49265.01159,1.05189.033,2.10372.03345,3.15561q.02022,45.457.03651,90.914c.14417.82046.80741.62882,1.30726.60772,1.99736-.08435,3.99363-.20318,5.988-.34193.67066-.04666,1.397.14976,1.98936-.35643l.045-.00558a6.93878,6.93878,0,0,0,3.74975-.42172l.04483-.00682a3.38456,3.38456,0,0,0,2.51009-.37608l.05042-.00634a3.33054,3.33054,0,0,0,2.4768-.42784l.04473-.00752a2.45408,2.45408,0,0,0,2.06812-.40991l.04569-.008a2.4335,2.4335,0,0,0,2.04719-.4424l.04343-.00929a1.734,1.734,0,0,0,1.65086-.4062l.04006-.00961a1.15511,1.15511,0,0,0,1.26806-.35214,1.12129,1.12129,0,0,1,.39128-.07436,1.178,1.178,0,0,0,1.2736-.37179l.0502-.00977a1.11852,1.11852,0,0,0,1.24095-.38435,1.08192,1.08192,0,0,1,.38677-.08011,1.17824,1.17824,0,0,0,1.2628-.39853l.03914-.01079a1.13226,1.13226,0,0,0,1.23145-.40519l.03769-.01052a1.12568,1.12568,0,0,0,1.22371-.41855l.03845-.01112a1.13637,1.13637,0,0,0,1.21582-.42387l.04161-.01342a.71934.71934,0,0,0,.838-.34682l.05708-.0145a1.08753,1.08753,0,0,0,1.19343-.44373l.03726-.0123a.6849.6849,0,0,0,.829-.35541l.07007-.02a1.1017,1.1017,0,0,0,1.18484-.46382l.89639-.39445a.67548.67548,0,0,0,.823-.37361c3.74062-1.66326,7.3462-3.58952,10.91027-5.59664a.39863.39863,0,0,0,.48186-.31557l.05692-.02712a.67029.67029,0,0,0,.75393-.45463.6957.6957,0,0,0-.2463.01777.69449.69449,0,0,1,.2463-.01783q2.54685-1.68591,5.09417-3.37205a.37518.37518,0,0,0,.44556-.33178l.06954-.0428a.66329.66329,0,0,0,.70872-.4955l2.17777-1.64576a.35142.35142,0,0,0,.42252-.34558l.06556-.04542a.65383.65383,0,0,0,.69611-.51526q.46739-.38757.93515-.77525a.35092.35092,0,0,0,.41432-.352l.06191-.04586a.63689.63689,0,0,0,.68058-.5384q.90715-.79295,1.81458-1.5861a.34479.34479,0,0,0,.40067-.35815l.0617-.05042a.30522.30522,0,0,0,.37055-.342l.07162-.066a1.275,1.275,0,0,0,1.08782-.963q2.52984-2.52735,5.06-5.05486a2.20831,2.20831,0,0,0,1.37567-1.5432l.0392-.04644a.35689.35689,0,0,0,.36711-.40675q.7923-.90264,1.5847-1.80549a.65381.65381,0,0,0,.54673-.68993l.03651-.04844a.36373.36373,0,0,0,.35917-.42145q.38305-.46595.76623-.93209a.66272.66272,0,0,0,.53362-.69912l.03635-.05272a.38418.38418,0,0,0,.34644-.43536l.37775-.47762a.67474.67474,0,0,0,.51166-.70937l.04167-.06255a.35479.35479,0,0,0,.3393-.43048l.3706-.48615a.68451.68451,0,0,0,.50764-.72714l.02813-.04709a.39676.39676,0,0,0,.339-.4598,106.55918,106.55918,0,0,0,9.78407-17.25869.4205.4205,0,0,0,.27363-.53212q.4917-1.21233.98348-2.42466a.725.725,0,0,0,.36588-.86251q.23236-.62534.46478-1.25066a.747.747,0,0,0,.35729-.88265.8146.8146,0,0,1,.09617-.37285.70831.70831,0,0,0,.34488-.87217.90426.90426,0,0,1,.09493-.38564.39865.39865,0,0,0,.23959-.54512q.0985-.35817.19717-.71629a.38281.38281,0,0,0,.22965-.54479q.08837-.36237.177-.72462a.39762.39762,0,0,0,.22778-.55392q.08722-.35937.17456-.71865a.71881.71881,0,0,0,.3124-.908l.1671-.76349a.37614.37614,0,0,0,.21124-.54453q.076-.36823.15238-.73632a.74159.74159,0,0,0,.29538-.92516q.0708-.37824.14154-.75646a.43025.43025,0,0,0,.19062-.57841l.30348-1.51651a.36682.36682,0,0,0,.18595-.54414.73887.73887,0,0,1,.05917-.35289,1.23721,1.23721,0,0,0,.2942-1.38174l.24485-1.52789a.4237.4237,0,0,0,.16285-.58694q.13451-.97038.26912-1.94071a.40329.40329,0,0,0,.15572-.58791q.13378-1.1826.26751-2.36521a.40709.40709,0,0,0,.11995-.59742A85.53622,85.53622,0,0,0,249.24662,150.67147Z" fill="#042150"/><path d="M249.95333,50.07554l-.37123-.47838C249.93653,49.578,250.05457,49.74188,249.95333,50.07554Z" fill="#042150"/></svg>