<svg id="Layer_1" data-name="Layer 1" xmlns="http://www.w3.org/2000/svg" viewBox="0 0 300 300"><path d="M35.95871,144.66364q1.41716,2.44233,3.1526,5.97686t3.53453,7.42419q1.79908,3.88967,3.568,7.90662t3.243,7.42418q1.48418-3.40722,3.21625-7.42418t3.53453-7.90663q1.7991-3.8997,3.53453-7.42417t3.1526-5.97687H70.1917q.58965,4.88469,1.11229,10.38581t.93472,11.24349q.42213,5.75576.784,11.5718t.62315,11.344H65.689q-.26133-7.776-.62315-16.00421T63.987,157.26062c-.47239.98833-1.02853,2.16428-1.67513,3.53788s-1.34011,2.85777-2.05706,4.4659-1.46742,3.26986-2.21788,4.98184-1.47746,3.37371-2.18437,4.98184-1.37025,3.109-1.9599,4.49941-1.11229,2.5797-1.54112,3.58478H46.32108q-.64326-1.47746-1.54113-3.60153t-1.9599-4.52956q-1.05869-2.41218-2.18772-4.98184t-2.23128-4.97849q-1.09218-2.382-2.05706-4.46925-.95985-2.08554-1.67513-3.50438-.72366,7.7056-1.08213,15.94391t-.61645,16.01761H25q.26131-5.52794.62315-11.44115t.784-11.72592q.42884-5.8194.93807-11.287t1.11229-10.091Z" fill="#0846a9"/><path d="M82.19569,144.66364h8.09759v44.5585H82.19569Z" fill="#0846a9"/><path d="M109.87557,144.66364q1.41045,2.44233,3.14924,5.97686t3.53453,7.42419q1.79908,3.88967,3.568,7.90662t3.24641,7.42419q1.47747-3.40722,3.2129-7.42419t3.53453-7.90662q1.79909-3.88965,3.53787-7.42419t3.14925-5.97686h7.29687q.58629,4.88469,1.11229,10.38581t.94812,11.25019q.42547,5.75575.78731,11.57181t.61981,11.344h-7.97026q-.26132-7.776-.62315-16.00421t-1.07544-15.9506c-.47239.98832-1.02853,2.16427-1.67513,3.53788s-1.34011,2.85777-2.05707,4.4659-1.46741,3.26985-2.21787,4.98184-1.47747,3.37371-2.18437,4.98184-1.3602,3.109-1.9599,4.4994-1.11564,2.5797-1.54447,3.58478h-6.03047q-.64326-1.47746-1.54447-3.60153t-1.95991-4.52956q-1.05867-2.41218-2.18436-4.98184t-2.22794-4.97849q-1.09552-2.382-2.05706-4.46925t-1.67513-3.50438q-.72366,7.7056-1.08213,15.94391t-.62315,16.0042H98.91351q.26131-5.52792.62314-11.44114t.784-11.72592q.42549-5.81271.95147-11.28034t1.119-10.08429Z" fill="#0846a9"/><path d="M230.86028,166.896a25.72178,25.72178,0,0,1-1.79909,10.05079,19.03261,19.03261,0,0,1-5.10915,7.13606,21.26744,21.26744,0,0,1-7.97029,4.25484,36.23651,36.23651,0,0,1-10.31881,1.38366q-2.70031,0-6.10752-.22782a41.20742,41.20742,0,0,1-6.49281-.93137V145.30689a38.86312,38.86312,0,0,1,6.55982-.90123q3.46753-.191,6.16783-.191a37.28508,37.28508,0,0,1,10.22165,1.31665,21.02956,21.02956,0,0,1,7.94013,4.11413,18.47658,18.47658,0,0,1,5.10915,7.06905A26.17548,26.17548,0,0,1,230.86028,166.896Zm-29.69674,15.62228c.47238.04356,1.09219.07371,1.86275.09381s1.82254.0335,3.15259.0335q8.16123,0,12.1782-4.14427t4.02031-11.60531q0-7.585-3.92316-11.63212t-12.14806-4.05046a47.60918,47.60918,0,0,0-5.14265.191Z" fill="#0846a9"/><path d="M145.10358,110.27653c-23.11681,0-36.85289,3.60824-53.09832,10.31882a77.64158,77.64158,0,0,0-27.72008,19.53873h0c5.46428-4.98854,40.97707-22.78179,81.00266-22.78179h0c41.83809,0,75.31392,17.78655,80.7782,22.78179h.01674A77.55133,77.55133,0,0,0,198.356,120.59869c-16.22865-6.71392-32.02514-10.32216-53.08155-10.32216Z" fill="#95989b"/><path d="M263.76656,189.16853l-16.19518-22.19884,15.23363-22.3161h11.92362L257.87346,167.0233,275,189.22214C274.84253,189.07138,263.76656,189.16853,263.76656,189.16853Z" fill="#0846a9"/><path d="M229.97581,189.22214l17.12654-22.19884-16.85517-22.36971h11.92359l15.77305,22.3161-16.73457,22.19885S230.13661,189.07138,229.97581,189.22214Z" fill="#95989b"/><polygon points="164.247 182.331 164.247 169.281 184.764 169.281 184.764 162.534 164.247 162.534 164.247 151.542 184.754 151.542 184.754 144.664 156.149 144.664 156.149 189.209 184.764 189.209 184.764 182.331 164.247 182.331" fill="#0846a9"/></svg>