<svg id="Layer_1" data-name="Layer 1" xmlns="http://www.w3.org/2000/svg" viewBox="0 0 300 300"><defs><style>.cls-1{fill:#4589b6;}.cls-2{fill:#c3b1cd;}.cls-3{fill:#b3adca;}.cls-4{fill:#6092bb;}.cls-5{fill:#abaac8;}.cls-6{fill:#8a9fc2;}.cls-7{fill:#98a3c5;}.cls-8{fill:#7c9ac0;}.cls-9{fill:#558fb9;}.cls-10{fill:#6994bc;}</style></defs><path class="cls-1" d="M164.63,245.82c8.72,4.69,17.19,4.66,25.27-1.44,3.87-2.92,6.26-6.9,7.55-12.38-6.59-1.53-12.9-3.79-18.07-8.42,2.67-1.66,5.48-3.17,6.58-6.44,8.11,5.4,16.81,7.26,26.23,4.18a28.59,28.59,0,0,0,19.56-30c-.11-1.2-.18-2.42-.27-3.62,3-1.64,4.79-5,8.44-5.65a38.35,38.35,0,0,1-31.75,50,2.78,2.78,0,0,0-.67.29c-2.35,11.39-8.65,19.76-19.61,24.29-2.2.91-4.56,1.45-6.84,2.16H175c-1.09-1-2.42-.53-3.67-.58A26.54,26.54,0,0,1,158,252.25C160.3,250.23,163.46,249.06,164.63,245.82Z"/><path class="cls-2" d="M70.73,110.13c-1.49-7.27.19-14.11,3.42-20.5A35.87,35.87,0,0,1,100,69.88a6.63,6.63,0,0,0,.88-.21,4.07,4.07,0,0,0,.7-.45c.73-2,.16-4.22.7-6.4,2.81-11.46,9.78-18.57,21.39-21,.27,0,.49-.33.73-.5h7.31c3.09,1.18,6.67,1.08,9.26,3.56-2.34,2.28-5.32,3.92-6.92,6.94-4.77-.89-9.41-1-13.82,1.56a16.41,16.41,0,0,0-8.62,14.1c-.1,2.13,0,4.26-.06,6.39A5.36,5.36,0,0,1,106.85,79c-16.42,2.44-22.77,8.28-26.62,24.45A3.09,3.09,0,0,1,80,104c-1.37-.19-2.15.76-3.12,1.49C74.84,107.06,73.29,109.28,70.73,110.13Z"/><path class="cls-3" d="M70.73,110.13c2.56-.85,4.11-3.07,6.15-4.63,1-.73,1.75-1.68,3.12-1.49a28.67,28.67,0,0,0,1.72,11.5c3.94,0,7.72-1.7,11.64-.93-.16,2.43-2.21,3.34-3.73,4.71-1.81,1.63-4.06,2.9-4.81,5.47q-15.91,4.92-21.32,20.67c-2.12,0-3.33,1.56-4.84,2.68-2,1.53-3.61,3.71-6.12,4.63v-4.87c1.34-3.36,1.77-7,3.3-10.31a40.87,40.87,0,0,1,16.69-18.4C71.79,116.06,70.72,113.2,70.73,110.13Z"/><path class="cls-4" d="M118.32,258.17a29.5,29.5,0,0,1-19.68-12.78c2.87-1.34,4.91-3.69,7.06-5.9,4.55,5.91,10.29,9.53,18,9.63a4.67,4.67,0,0,1,4.77,3.51c.82,2.81-.83,4.55-2.83,6.08h-4.88C120.08,257.91,119.19,258.1,118.32,258.17Z"/><path class="cls-5" d="M52.54,152.74c2.51-.92,4.07-3.1,6.12-4.63,1.51-1.12,2.72-2.71,4.84-2.68-1.45,8-1.23,15.85,3,23.16-1.27-.19-2,.62-2.85,1.37-1.54,1.4-3,2.92-5.11,3.53a28.77,28.77,0,0,1-5.36-14.63c-.12-1,.42-2.21-.6-3.07Z"/><path class="cls-5" d="M181.93,53.57c-3.48-1.26-6.86-2.73-10.72-2.82-2.19,0-3.59-1.79-4.05-4-.55-2.59,1.17-4.09,2.93-5.51h6.09c3.45,1.49,7.26,2.11,10.36,4.45A8.89,8.89,0,0,1,189,47.86Z"/><path class="cls-6" d="M171.29,258.13c1.25.05,2.58-.43,3.67.58H171.3Z"/><path class="cls-3" d="M52.54,155.79c1,.86.48,2,.6,3.07l-.3,0h-.3Z"/><path class="cls-2" d="M118.32,258.17c.87-.07,1.76-.26,2.43.54h-2.43A1.23,1.23,0,0,0,118.32,258.17Z"/><path class="cls-7" d="M181.93,53.57l7.1-5.71c6.86,5.45,9.32,12.94,9.73,21.53,4.74,1.19,9.43,2.42,13.4,5.37-2.14,2.36-5.52,3.5-6.76,6.76-3-.92-5.78-2.44-9.08-2.46-1.19,1.76-2.29,3.57-3.56,5.25-5,6.65-11.95,9.79-20.1,10.43a5,5,0,0,1-5.6-4.76c-.11-2.68,1.94-4.64,5.11-4.84,7.63-.48,13.09-4.15,15.71-11.36,2.52-7,.86-13.14-4.43-18.34A21,21,0,0,1,181.93,53.57Z"/><path class="cls-8" d="M214.57,124.49a34.17,34.17,0,0,0-16.15,1.16c-3.16,1.06-5.79-.23-6.7-2.91s.64-5,3.85-6.14a38.72,38.72,0,0,1,22.9-1c2.58-7.07,2.07-13.9-.49-20.71,3.09-1.11,5.09-3.69,7.57-5.62a33.59,33.59,0,0,1,3.5,23.25,3.73,3.73,0,0,0-2.81.75c-2.19,1.9-4.74,3.45-6.63,5.6C218,120.8,214.79,121.36,214.57,124.49Z"/><path class="cls-9" d="M239.92,182c-3.65.63-5.46,4-8.44,5.65-1-2.63-2-5.26-3.12-7.86a4.91,4.91,0,0,1,1-5.62,30.18,30.18,0,0,0,8.46-22.64c1.58-.22,2.58-1.34,3.75-2.27,1.58-1.26,2.83-3.13,5.15-3.21,2.33,12-.75,22.72-7.86,32.38Z"/><path class="cls-10" d="M214.57,124.49c.22-3.13,3.39-3.69,5-5.58,1.89-2.15,4.44-3.7,6.63-5.6a3.73,3.73,0,0,1,2.81-.75c-.46,2.15-.92,4.3-1.39,6.53,3.48,2.53,7.19,4.67,9.59,8.28-2.21,2.23-4.21,4.69-7.18,6A32.72,32.72,0,0,0,214.57,124.49Z"/><path class="cls-4" d="M230.07,133.37c3-1.31,5-3.77,7.18-6,5.3,5.14,8.15,11.52,9.44,18.68-2.32.08-3.57,1.95-5.15,3.21-1.17.93-2.17,2.05-3.75,2.27A32.1,32.1,0,0,0,230.07,133.37Z"/><path class="cls-6" d="M225.55,89.31c-2.48,1.93-4.48,4.51-7.57,5.62A31.62,31.62,0,0,0,205.4,81.52c1.24-3.26,4.62-4.4,6.76-6.76A31.94,31.94,0,0,1,225.55,89.31Z"/><path class="cls-6" d="M146.42,126.3l3.76,2.86c5.72-5.75,12.48-8.76,20.73-7A19.76,19.76,0,0,1,184.7,132c-2.57,1.79-4.11,5-7.57,5.55-5.54-7.39-13.79-8.32-19.31-2.16a11.24,11.24,0,0,0-2.94,7.45c-.06,2.13.08,4.26,0,6.38-.16,2.58-1.34,4.46-4.15,4.75s-4.81-1.17-5.33-4.15a14.81,14.81,0,0,1-.16-3.93c.54-5.35-1-9.77-5.41-13.05C141.79,130.48,144.88,129.17,146.42,126.3Z"/><path class="cls-10" d="M105.7,239.49c-2.15,2.21-4.19,4.56-7.06,5.9-3.22-3.76-4.55-8.35-5.6-13.18l-7-1.69c.26-1.68,1.83-2.33,2.75-3.5,1.22-1.55,3.49-2.17,4-4.39a30.21,30.21,0,0,0,23.63-7.38c2.47-2.13,5.17-1.91,7,.24s1.42,4.86-.91,7a37.45,37.45,0,0,1-16.75,8.77c-.69.17-1.37.35-2,.56-.18.06-.32.24-.59.45C103,235,104.7,237.12,105.7,239.49Z"/><path class="cls-10" d="M145.6,214.25a222.76,222.76,0,0,1,0-24.92c5.06-2.77,9.11-6.76,13.12-10.8,3.85,5.42,9.39,8.06,15.67,9.47-.46,2.26-2.41,3.32-3.92,4.68-1.1,1-2.57,1.56-2.8,3.26-4.78-.89-8.57-3.71-12.89-7v19.27c-1,0-1.49,1-2.26,1.39C150,210.89,148.74,213.93,145.6,214.25Z"/><path class="cls-7" d="M146.42,126.3c-1.54,2.87-4.63,4.18-6.63,6.58-7.3-2.63-12.14-1.5-15.91,3.61-1.72,2.33-1.93,5-2.13,7.74-1.88.05-3.1,1.31-4.34,2.45-1.55,1.43-3,3-5.08,3.63-.21-5.85-.53-11.68,2.33-17.17C120.79,121.38,137,117.85,146.42,126.3Z"/><path class="cls-4" d="M167.65,195.94c.23-1.7,1.7-2.29,2.8-3.26,1.51-1.36,3.46-2.42,3.92-4.68a32.24,32.24,0,0,0,24.35-8.17c.25-3.39-.53-6.72.08-10,1.61-.22,2.64-1.32,3.78-2.32,2.11-1.85,4.32-3.59,6.49-5.36.62-.5,1.26-1.2,1.94-.05a22.77,22.77,0,0,0-2.67,16.26,3.13,3.13,0,0,0-2.44,1c-4.92,4.18-9.93,8.25-14.8,12.48-1.24,1.06-2.94,2-2.74,4.11A32.21,32.21,0,0,1,167.65,195.94Z"/><path class="cls-6" d="M98.8,185.71c-1.17-.36-2.15.26-3.2.6-7.53,2.51-15,2.68-22.35-.68,0-1.07.85-1.42,1.51-2,1.79-1.69,4-3,5.19-5.28,3.88.35,7.75.71,11.63-.78-.87-3-2.62-5.41-3-8.33.77,0,1.2-.65,1.8-1,2.36-1.26,3.63-4.08,6.54-4.52,1,5.73,3.83,10.51,7.5,14.87-.24,1-1.17,1.26-1.77,1.87C101.14,182,98.77,183,98.8,185.71Z"/><path class="cls-7" d="M144.51,93c.62-.13.76-.68,1-1.15,1.61-.12,2.7-1.13,3.87-2.12,1.64-1.38,3-3.29,5.45-3.4,0,9.75.09,19.49.08,29.23,0,2.89-1.74,4.76-4.29,4.92-2.81.18-4.36-1.09-5-4.14a9.88,9.88,0,0,1-.36-2.39c.36-6-2.27-10.54-7-14,.85-1,1.77-1.88,2.52-2.91C141.89,95.53,144.36,95.34,144.51,93Z"/><path class="cls-7" d="M80,178.31c-1.18,2.3-3.4,3.59-5.19,5.28-.66.62-1.51,1-1.51,2L70,184.55a30.15,30.15,0,0,0-1.76,10.83c-1.24-.18-1.91.77-2.83,1.32-2.1,1.26-3.3,3.78-5.94,4.23-2-7.71-.52-15.08,2.12-22.38l-3.13-5.06c2.1-.61,3.57-2.13,5.11-3.53.84-.75,1.58-1.56,2.85-1.37C69.67,173.61,74.48,176.42,80,178.31Z"/><path class="cls-8" d="M177.13,137.59c3.46-.57,5-3.76,7.57-5.55a16.37,16.37,0,0,1,3.11,9.66q.08,10.19,0,20.39c0,3.46-1.81,5.37-4.83,5.29-2.84-.08-4.4-2-4.49-5.33-.18-6.78.45-13.58-.33-20.36A15.55,15.55,0,0,0,177.13,137.59Z"/><path class="cls-5" d="M144.51,93c-.15,2.31-2.62,2.5-3.69,4-.75,1-1.67,1.94-2.52,2.91-6.58-3-12.68-2.77-18.24,2.43a4.69,4.69,0,1,1-6.35-6.9C121.5,87.27,135.56,86.17,144.51,93Z"/><path class="cls-8" d="M158.7,178.53c-4,4-8.06,8-13.12,10.8a233.71,233.71,0,0,1-.11-25.11,4.72,4.72,0,0,1,5-4.69c2.47.09,4.25,1.87,4.47,4.78A34.68,34.68,0,0,0,158.7,178.53Z"/><path class="cls-5" d="M154.83,86.36c-2.45.11-3.81,2-5.45,3.4-1.17,1-2.26,2-3.87,2.12-.65-6.62-.12-13.26-.27-19.89-.05-2.31,0-4.63,0-6.94,3.5-.71,5.35-3.72,7.92-5.71A14.8,14.8,0,0,1,154.83,66C154.89,72.8,154.84,79.58,154.83,86.36Z"/><path class="cls-8" d="M98.8,185.71c0-2.71,2.34-3.7,3.86-5.26.6-.61,1.53-.9,1.77-1.87a31.79,31.79,0,0,0,15.89,6.88c3.25.41,4.59,2.62,4.12,5.57-.38,2.4-2.42,4-5.37,3.74A31.79,31.79,0,0,1,98.8,185.71Z"/><path class="cls-9" d="M188.36,195.9c-.2-2.1,1.5-3.05,2.74-4.11,4.87-4.23,9.88-8.3,14.8-12.48a3.13,3.13,0,0,1,2.44-1,23,23,0,0,0,6,10c2.51,2.46,2.59,5,.51,7.2s-4.68,2-7.42-.47c-1.89-1.71-3.22-3.87-5-6C198,192,193.6,194.83,188.36,195.9Z"/><path class="cls-4" d="M145.6,214.25c3.14-.32,4.43-3.36,6.9-4.69.77-.42,1.22-1.38,2.26-1.39q.08,11.25.14,22.52c-1.21-.14-2,.62-2.88,1.25-1.78,1.21-3,3.22-5.27,3.69C144.74,228.59,145.21,221.42,145.6,214.25Z"/><path class="cls-8" d="M92.78,222.63c-.48,2.22-2.75,2.84-4,4.39-.92,1.17-2.49,1.82-2.75,3.5a34.5,34.5,0,0,1-18-11.84c2.3-2,5.13-3.37,6.69-6.15A33.71,33.71,0,0,0,92.78,222.63Z"/><path class="cls-9" d="M146.75,235.63c2.28-.47,3.49-2.48,5.27-3.69.92-.63,1.67-1.39,2.88-1.25a24.51,24.51,0,0,0,9.73,15.13c-1.17,3.24-4.33,4.41-6.68,6.43A27.68,27.68,0,0,1,146.75,235.63Z"/><path class="cls-3" d="M153.17,59.34c-2.57,2-4.42,5-7.92,5.71-1.39-6.39-5.5-10.5-11.19-13.26,1.6-3,4.58-4.66,6.92-6.94A22.12,22.12,0,0,1,153.17,59.34Z"/><path class="cls-6" d="M112.33,150.31c2.11-.63,3.53-2.2,5.08-3.63,1.24-1.14,2.46-2.4,4.34-2.45,0,5.86.2,11.72.11,17.57,0,3.46-2.28,5.64-5.16,5.49s-4.44-2.21-4.45-5.76C112.23,157.79,112.3,154.05,112.33,150.31Z"/><path class="cls-6" d="M74.71,212.53c-1.56,2.78-4.39,4.17-6.69,6.15a32.6,32.6,0,0,1-8.51-17.75c2.64-.45,3.84-3,5.94-4.23.92-.55,1.59-1.5,2.83-1.32C68.45,201.84,71.29,207.29,74.71,212.53Z"/><path class="cls-5" d="M84.82,124.76c.75-2.57,3-3.84,4.81-5.47,1.52-1.37,3.57-2.28,3.73-4.71a47.5,47.5,0,0,1,11.53,2.2c3.19,1,4.47,3.46,3.57,6.32-.84,2.7-3.5,3.92-6.65,2.7C96.23,123.62,90.56,123.82,84.82,124.76Z"/><path class="cls-10" d="M211,162.07c-.68-1.15-1.32-.45-1.94.05-2.17,1.77-4.38,3.51-6.49,5.36-1.14,1-2.17,2.1-3.78,2.32.43-6.43,3.21-11.86,7.32-16.65a4.65,4.65,0,0,1,6.56-.65,4.56,4.56,0,0,1,.8,6.51C212.74,160.09,211.83,161.06,211,162.07Z"/><path class="cls-7" d="M96.93,163.71c-2.91.44-4.18,3.26-6.54,4.52-.6.32-1,.94-1.8,1a27.64,27.64,0,0,1-1.25-11.38,5.05,5.05,0,0,1,4.88-4.88c2.37-.05,4.57,2.22,4.7,5C97,159.87,96.93,161.79,96.93,163.71Z"/><path class="cls-9" d="M186,217.14c-1.1,3.27-3.91,4.78-6.58,6.44a7.83,7.83,0,0,1-2.84-2.64,4.71,4.71,0,0,1,6-6.69A10.24,10.24,0,0,1,186,217.14Z"/></svg>