<svg id="Layer_1" data-name="Layer 1" xmlns="http://www.w3.org/2000/svg" xmlns:xlink="http://www.w3.org/1999/xlink" viewBox="0 0 300 300"><defs><linearGradient id="linear-gradient" x1="137.19261" y1="17.33005" x2="137.19261" y2="268.92533" gradientUnits="userSpaceOnUse"><stop offset="0" stop-color="#5766ab"/><stop offset="1" stop-color="#4ebbea"/></linearGradient><linearGradient id="linear-gradient-2" x1="210.19472" y1="17.33005" x2="210.19472" y2="268.92533" xlink:href="#linear-gradient"/><linearGradient id="linear-gradient-3" x1="238.69117" y1="17.33005" x2="238.69117" y2="268.92533" xlink:href="#linear-gradient"/><linearGradient id="linear-gradient-4" x1="221.77642" y1="17.33005" x2="221.77642" y2="268.92533" xlink:href="#linear-gradient"/><linearGradient id="linear-gradient-5" x1="187.43161" y1="17.33005" x2="187.43161" y2="268.92533" xlink:href="#linear-gradient"/><linearGradient id="linear-gradient-6" x1="128.83281" y1="17.33005" x2="128.83281" y2="268.92533" xlink:href="#linear-gradient"/><linearGradient id="linear-gradient-7" x1="67.79758" y1="17.33005" x2="67.79758" y2="268.92533" xlink:href="#linear-gradient"/><linearGradient id="linear-gradient-8" x1="64.33057" y1="17.33005" x2="64.33057" y2="268.92533" xlink:href="#linear-gradient"/><linearGradient id="linear-gradient-9" x1="91.30614" y1="17.33005" x2="91.30614" y2="268.92533" xlink:href="#linear-gradient"/></defs><polygon points="168.976 108.656 105.409 46.76 134.336 45.039 151.476 21.676 168.976 108.656" fill="url(#linear-gradient)"/><polygon points="235.905 53.704 207.758 60.588 184.485 43.308 193.41 131.589 235.905 53.704" fill="url(#linear-gradient-2)"/><polygon points="280 132.5 253.985 119.683 247.291 91.496 197.382 164.849 280 132.5" fill="url(#linear-gradient-3)"/><polygon points="263.13 221.211 251.464 194.686 264.471 168.771 179.082 192.885 263.13 221.211" fill="url(#linear-gradient-4)"/><polygon points="193.19 278.324 201.295 250.498 227.89 238.981 146.973 202.58 193.19 278.324" fill="url(#linear-gradient-5)"/><polygon points="102.898 277.123 126.992 261.064 154.768 269.329 116.216 189.403 102.898 277.123" fill="url(#linear-gradient-6)"/><polygon points="34.498 218.169 63.305 221.321 79.314 245.505 101.097 159.505 34.498 218.169" fill="url(#linear-gradient-7)"/><polygon points="20 129.038 40.012 149.97 36.69 178.767 108.661 126.877 20 129.038" fill="url(#linear-gradient-8)"/><polygon points="66.187 51.443 68.078 80.36 47.066 100.281 135.547 106.795 66.187 51.443" fill="url(#linear-gradient-9)"/></svg>