<svg id="Layer_1" data-name="Layer 1" xmlns="http://www.w3.org/2000/svg" viewBox="0 0 300 300"><defs><style>.cls-1{fill:#2aace2;}.cls-1,.cls-2,.cls-3{fill-rule:evenodd;}.cls-2{fill:#3fb4e5;}.cls-3{fill:#e31837;}</style></defs><path class="cls-1" d="M181.85,221H163.71c-4.33,0-6.39,2.43-6.39,7.32,0,4.69,2.27,7.13,6.39,7.13h70.1c4.33,0,6.6-2.44,6.6-7.13s-2.27-7.33-6.6-7.33h-52Z"/><path class="cls-2" d="M83.3,221H66c-4.13,0-6.39,2.43-6.39,7.32,0,4.69,2.27,7.13,6.39,7.13h66.8c4.33,0,6.39-2.44,6.39-7.13s-2.06-7.33-6.39-7.33H83.3Z"/><path class="cls-3" d="M59.76,67.81H75.38V89c5.32-7.8,11-13.39,16.63-17.12a47.45,47.45,0,0,1,24.71-7.28A44.48,44.48,0,0,1,133.53,68,34.34,34.34,0,0,1,146.4,77.3c3.26,3.73,6.17,9.32,8.58,16.43,5.15-9.48,11.66-16.76,19.38-21.85a46.22,46.22,0,0,1,25-7.28c8.4,0,15.78,2,22.14,6.44,6.33,4.23,11,10.16,14.23,17.79,3.08,7.44,4.63,19,4.63,34.05v66.58H224.63V122.88c0-13-1-22-2.75-26.94a24,24,0,0,0-9.61-11.85,28.71,28.71,0,0,0-16-4.41,35.18,35.18,0,0,0-20.58,6.77A39.58,39.58,0,0,0,162,104.24c-2.75,7.63-4.29,20-4.29,37.44v47.61H142.11V127q0-22.12-2.58-30a24.27,24.27,0,0,0-9.6-12.54,28.61,28.61,0,0,0-16.13-4.74,34.72,34.72,0,0,0-20.24,6.6,38.93,38.93,0,0,0-13.9,17.62c-2.92,7.46-4.45,18.64-4.45,33.88v51.68H59.59V67.81Z"/></svg>