<svg id="Layer_1" data-name="Layer 1" xmlns="http://www.w3.org/2000/svg" xmlns:xlink="http://www.w3.org/1999/xlink" viewBox="0 0 300 300"><defs><linearGradient id="linear-gradient" x1="67.17512" y1="150.04412" x2="235.58135" y2="150.04412" gradientUnits="userSpaceOnUse"><stop offset="0.25" stop-color="#2432f8"/><stop offset="0.4" stop-color="#722fe5"/><stop offset="0.6" stop-color="#ff2952"/><stop offset="1" stop-color="#fe6b00"/></linearGradient><linearGradient id="linear-gradient-2" x1="67.17512" y1="150.03995" x2="235.58135" y2="150.03995" xlink:href="#linear-gradient"/><linearGradient id="linear-gradient-3" x1="67.17512" y1="62.71944" x2="235.58135" y2="62.71944" xlink:href="#linear-gradient"/><linearGradient id="linear-gradient-4" x1="67.17512" y1="237.31174" x2="235.58135" y2="237.31174" xlink:href="#linear-gradient"/><linearGradient id="linear-gradient-5" x1="67.17512" y1="89.68834" x2="235.58135" y2="89.68834" xlink:href="#linear-gradient"/><linearGradient id="linear-gradient-6" x1="67.17512" y1="210.38675" x2="235.58135" y2="210.38675" xlink:href="#linear-gradient"/><linearGradient id="linear-gradient-7" x1="67.17512" y1="242.16991" x2="235.58135" y2="242.16991" xlink:href="#linear-gradient"/><linearGradient id="linear-gradient-8" x1="67.17512" y1="58.00699" x2="235.58135" y2="58.00699" xlink:href="#linear-gradient"/><linearGradient id="linear-gradient-9" x1="67.17512" y1="91.45692" x2="235.58135" y2="91.45692" xlink:href="#linear-gradient"/><linearGradient id="linear-gradient-10" x1="67.17512" y1="208.49573" x2="235.58135" y2="208.49573" xlink:href="#linear-gradient"/><linearGradient id="linear-gradient-11" x1="67.17512" y1="129.75193" x2="235.58135" y2="129.75193" xlink:href="#linear-gradient"/><linearGradient id="linear-gradient-12" x1="67.17512" y1="170.32453" x2="235.58135" y2="170.32453" xlink:href="#linear-gradient"/><linearGradient id="linear-gradient-13" x1="67.17512" y1="171.89982" x2="235.58135" y2="171.89982" xlink:href="#linear-gradient"/><linearGradient id="linear-gradient-14" x1="67.17512" y1="128.15027" x2="235.58135" y2="128.15027" xlink:href="#linear-gradient"/><linearGradient id="linear-gradient-15" x1="67.17512" y1="126.60519" x2="235.58135" y2="126.60519" xlink:href="#linear-gradient"/><linearGradient id="linear-gradient-16" x1="67.17512" y1="94.59326" x2="235.58135" y2="94.59326" xlink:href="#linear-gradient"/><linearGradient id="linear-gradient-17" x1="67.17512" y1="205.46368" x2="235.58135" y2="205.46368" xlink:href="#linear-gradient"/><linearGradient id="linear-gradient-18" x1="67.17512" y1="120.51919" x2="235.58135" y2="120.51919" xlink:href="#linear-gradient"/><linearGradient id="linear-gradient-19" x1="67.17512" y1="180.77328" x2="235.58135" y2="180.77328" xlink:href="#linear-gradient"/><linearGradient id="linear-gradient-20" x1="67.17512" y1="174.93303" x2="235.58135" y2="174.93303" xlink:href="#linear-gradient"/><linearGradient id="linear-gradient-21" x1="67.17512" y1="173.48126" x2="235.58135" y2="173.48126" xlink:href="#linear-gradient"/><linearGradient id="linear-gradient-22" x1="67.17512" y1="90.57652" x2="235.58135" y2="90.57652" xlink:href="#linear-gradient"/><linearGradient id="linear-gradient-23" x1="67.17512" y1="90.30442" x2="235.58135" y2="90.30442" xlink:href="#linear-gradient"/><linearGradient id="linear-gradient-24" x1="67.17512" y1="94.02528" x2="235.58142" y2="94.02528" xlink:href="#linear-gradient"/><linearGradient id="linear-gradient-25" x1="67.17512" y1="125.18284" x2="235.58135" y2="125.18284" xlink:href="#linear-gradient"/><linearGradient id="linear-gradient-26" x1="67.17512" y1="123.8049" x2="235.58135" y2="123.8049" xlink:href="#linear-gradient"/><linearGradient id="linear-gradient-27" x1="67.17512" y1="176.30227" x2="235.58135" y2="176.30227" xlink:href="#linear-gradient"/><linearGradient id="linear-gradient-28" x1="67.17512" y1="179.69601" x2="235.58135" y2="179.69601" xlink:href="#linear-gradient"/><linearGradient id="linear-gradient-29" x1="67.17512" y1="212.86222" x2="235.58135" y2="212.86222" xlink:href="#linear-gradient"/><linearGradient id="linear-gradient-30" x1="67.17512" y1="212.36891" x2="235.58135" y2="212.36891" xlink:href="#linear-gradient"/><linearGradient id="linear-gradient-31" x1="67.17512" y1="89.24346" x2="235.58135" y2="89.24346" xlink:href="#linear-gradient"/><linearGradient id="linear-gradient-32" x1="67.17512" y1="88.84178" x2="235.58135" y2="88.84178" xlink:href="#linear-gradient"/><linearGradient id="linear-gradient-33" x1="67.17512" y1="88.34812" x2="235.58135" y2="88.34812" xlink:href="#linear-gradient"/><linearGradient id="linear-gradient-34" x1="67.17512" y1="93.69195" x2="235.58135" y2="93.69195" xlink:href="#linear-gradient"/><linearGradient id="linear-gradient-35" x1="67.17512" y1="206.01564" x2="235.58135" y2="206.01564" xlink:href="#linear-gradient"/><linearGradient id="linear-gradient-36" x1="184.03021" y1="206.3126" x2="262.95753" y2="206.3126" xlink:href="#linear-gradient"/><linearGradient id="linear-gradient-37" x1="67.17512" y1="89.73899" x2="235.58135" y2="89.73899" xlink:href="#linear-gradient"/><linearGradient id="linear-gradient-38" x1="67.17512" y1="211.88198" x2="235.58135" y2="211.88198" xlink:href="#linear-gradient"/><linearGradient id="linear-gradient-39" x1="67.17512" y1="211.37588" x2="235.58135" y2="211.37588" xlink:href="#linear-gradient"/><linearGradient id="linear-gradient-40" x1="67.17512" y1="210.87549" x2="235.58135" y2="210.87549" xlink:href="#linear-gradient"/><linearGradient id="linear-gradient-41" x1="67.17512" y1="209.46395" x2="235.58135" y2="209.46395" xlink:href="#linear-gradient"/><linearGradient id="linear-gradient-42" x1="67.17512" y1="209.7259" x2="235.58135" y2="209.7259" xlink:href="#linear-gradient"/><linearGradient id="linear-gradient-43" x1="67.17512" y1="87.76604" x2="235.58135" y2="87.76604" xlink:href="#linear-gradient"/><linearGradient id="linear-gradient-44" x1="67.17512" y1="210.2948" x2="235.58135" y2="210.2948" xlink:href="#linear-gradient"/><linearGradient id="linear-gradient-45" x1="67.17512" y1="78.98072" x2="235.58135" y2="78.98072" xlink:href="#linear-gradient"/><linearGradient id="linear-gradient-46" x1="67.17512" y1="220.98082" x2="181.4466" y2="220.98082" xlink:href="#linear-gradient"/></defs><path d="M232.176,180.97425c-.81175,2.633-1.60156,5.27311-2.448,7.89493-.26947.83461-.6896,1.62062-1.041,2.42929l-3.36178-5.01535c.65381-4.88141,1.32206-9.87068,2.01-15.00708l-5.77433-6.46779c-3.51521,3.44612-6.93437,6.79807-10.4538,10.2483-.51164,4.98994-1.03795,10.12289-1.57233,15.33467l7.47784,5.76073c-.36986,1.83182-.67168,3.63248-1.1034,5.40149-.91482,3.74835-1.88835,7.48253-2.86381,11.21574a2.84029,2.84029,0,0,1-.61762,1.28816q-6.01938,5.8968-12.09611,11.73514a3.97441,3.97441,0,0,1-.50356.31254l-10.68541-4.84315c1.0675-6.60868,2.12141-13.13319,3.19221-19.76228q6.13468-4.98206,12.49831-10.15.76812-7.94162,1.53889-15.91031l-12.34546-8.84731c-4.326,3.10315-8.58239,6.15646-12.8762,9.23656-.39378,6.10952-.78828,12.23012-1.19313,18.51127l-18.88122,12.59039c-6.41991-3.43643-12.72284-6.81025-19.01283-10.17717.2462-8.05672.48969-16.02462.73542-24.06607l20.37359-12.589c4.92449,3.08976,9.84921,6.17969,14.93256,9.36914l13.04883-9.11613V139.73356l-13.034-9.13106c-5.01291,3.14379-9.96661,6.25046-14.9495,9.37541L142.79782,127.389c-.24457-8.01445-.48762-15.97887-.73452-24.06926l19.01-10.17164,18.87913,12.573c.40054,6.183.79707,12.30434,1.20147,18.547l12.83994,9.22746L206.38,124.62514c-.50964-5.2814-1.01688-10.538-1.53259-15.88238L192.33221,98.56371c-1.0481-6.5156-2.0987-13.04675-3.17778-19.755l10.74417-4.82547a10.83087,10.83087,0,0,1,.91216.70745q5.74631,5.56576,11.47021,11.1545a2.53243,2.53243,0,0,1,.68243,1.127q2.00775,8.16273,3.95044,16.3414a3.34092,3.34092,0,0,1,.00579.68442c-2.42591,1.86459-4.87425,3.74643-7.37665,5.6698.52556,5.137,1.05066,10.26939,1.57156,15.36075,3.44822,3.37816,6.87106,6.73148,10.4341,10.22214l5.78676-6.42562q-1.0181-7.637-1.99659-14.97681c1.13157-1.70647,2.22391-3.35382,3.30252-4.98043a39.20421,39.20421,0,0,1,3.64148,10.78208c-.69468-1.68354-1.35753-3.28991-2.11616-5.12846l-2.04219,3.56428c.19571,1.43008.42363,3.0343.63287,4.641.2309,1.773.39568,3.55637.6876,5.319a8.70423,8.70423,0,0,0,.78509,2.3897c.7188,1.45759,1.54546,2.862,2.32654,4.289.18921.34566.37484.69326.6447,1.19287a11.73771,11.73771,0,0,0,1.25555-4.58864c.77523,3.6268.884,7.29656-.80958,10.8972-1.49334-2.57817-2.966-5.12071-4.55855-7.87012-1.99688,2.35463-3.82065,4.50511-5.63762,6.64757V159.0658l5.51662,6.51465a48.65535,48.65535,0,0,0,4.60565-7.86214,16.28891,16.28891,0,0,1,.89163,10.93018c-.10509-.63743-.18155-1.39317-.36339-2.12268-.18453-.74038-.47308-1.45487-.763-2.32083a5.23557,5.23557,0,0,0-.52651.63629c-.988,1.77668-2.07209,3.51159-2.90043,5.3606a12.692,12.692,0,0,0-.65613,3.31464c-.36765,2.49211-.70084,4.98936-1.03782,7.48587-.04863.36046-.04058.72856-.05617,1.041.64623,1.13528,1.26136,2.21595,1.98635,3.48957.54963-1.2846,1.01786-2.40067,1.50625-3.50783.15623-.35419.36583-.68488.551-1.02632ZM209.141,169.19648a6.2298,6.2298,0,0,0,.64994-.47311c3.06947-2.85529,6.11917-5.732,9.20868-8.56544a2.836,2.836,0,0,0,.92974-2.26783q-.00972-7.876.00141-15.75206a2.71342,2.71342,0,0,0-.90473-2.15332c-3.07881-2.84549-6.12195-5.72948-9.18481-8.59229a6.06931,6.06931,0,0,0-.7149-.51042c-4.052,3.07929-8.03156,6.10346-11.99984,9.11909v20.07036C201.13081,163.11276,205.11193,166.1364,209.141,169.19648Zm-46.212-38.195,11.61361-7.05578c-.27543-4.88358-.54719-9.70258-.82081-14.55419l-12.11132-7.95795-11.87774,6.59469c.18359,5.07256.36255,10.01755.54357,15.01919Zm-13.191,61.05064,11.86893,6.581q6.11328-4.00914,12.128-7.95366c.26888-4.92138.53-9.70222.79325-14.5199L162.93565,169.058c-4.31077,2.71643-8.50141,5.35716-12.66316,7.9797C150.09375,182.05789,149.91885,186.97,149.7379,192.05216Zm56.71755,4.47312-9.2796,7.87042-2.12944,12.18856,6.74052,3.2717c.53133-.46583.99895-.85472,1.443-1.26883,1.81506-1.69258,3.59649-3.4223,5.44425-5.07823a5.55594,5.55594,0,0,0,1.90336-3.14363c.64553-3.17557,1.40735-6.32757,2.13858-9.56123ZM212.70731,99.275c-.71929-3.21989-1.43992-6.33921-2.10346-9.47061a5.08088,5.08088,0,0,0-1.69189-2.98987c-.86711-.73487-1.626-1.59562-2.462-2.36919-1.54578-1.43041-3.113-2.83764-4.65714-4.24164l-6.75023,3.29882c.7331,4.18678,1.43255,8.18148,2.132,12.17628l9.28051,7.85484Z" fill="url(#linear-gradient)"/><path d="M139.17828,167.963l-20.47024.26439-8.12715-14.102H96.42806c-2.02615,3.48721-4.08506,7.03086-6.13461,10.55836H73.35417c-2.78363-4.88245-5.54088-9.71858-8.35417-14.653l8.33335-14.58925h16.9842c1.97883,3.40757,4.03739,6.95241,6.09346,10.493h14.18244l8.11584-14.082,20.47671.28541c3.32822,5.9149,6.67625,11.865,10.07184,17.89959C145.9032,156.00341,142.558,161.95251,139.17828,167.963Zm-4.45914-7.98288,5.59882-9.9371-5.5843-9.9123H123.31142l-5.64093,9.91158q2.88935,5.06373,5.67049,9.93782Zm-60.4759-9.93243c1.27173,2.20758,2.51987,4.37424,3.72014,6.45778h7.637c1.23911-2.163,2.46646-4.30549,3.71274-6.481l-3.73-6.47034H77.94942Z" fill="url(#linear-gradient-2)"/><path d="M157.50184,62.80262c-2.3996-3.11322-4.73274-6.14023-7.10273-9.215l-10.09773-1.19166-8.34914-10.005,5.39107-7.17582c1.6046.22318,3.21222.4202,4.81052.67544,2.28764.36532,4.56616.78743,6.85337,1.1556a3.552,3.552,0,0,1,2.20943,1.12749c2.27213,2.50014,4.5944,4.95472,6.89358,7.43037.16363.17618.29311.384.52555.69288L155.5107,51.8146l7.06881,8.97841,12.22135,2.24478c3.30322,4.70815,6.64038,9.46468,10.05125,14.32629-1.82,4.31054-3.61583,8.56376-5.42968,12.8597L162.5507,88.34622c-3.44727-5.20607-6.90055-10.42123-10.4123-15.72466ZM178.11169,76.1462c-1.89282-2.73618-3.76111-5.4369-5.65508-8.17471l-8.839-1.38968-3.67173,6.91413,5.73919,8.53232c3.06047.38376,6.10883.766,9.18594,1.15184C175.97239,80.78958,177.02334,78.50849,178.11169,76.1462ZM147.94246,40.83167l-5.92958-.91964-2.37469,3.39425,3.77165,4.32153,6.03393.80038L151.68,44.96677C150.42863,43.58226,149.25825,42.28741,147.94246,40.83167Z" fill="url(#linear-gradient-3)"/><path d="M184.84547,222.71232c-3.40837,4.85848-6.72439,9.58531-10.063,14.34434-3.74558.67391-7.416,1.36185-11.099,1.974a2.46572,2.46572,0,0,0-1.71355.984c-2.10783,2.74138-4.25331,5.45385-6.443,8.25034,1.03411,1.83078,2.0682,3.66154,3.152,5.58028-1.27431,1.39867-2.51614,2.78774-3.78719,4.14956-1.30516,1.39836-2.62144,2.78745-3.97278,4.14082a2.47463,2.47463,0,0,1-1.218.70672c-3.96557.67682-7.94017,1.3009-11.91279,1.93619a3.27742,3.27742,0,0,1-.50963-.02136c-1.73039-2.29413-3.51216-4.65634-5.328-7.06378l8.33827-10.00224,10.11053-1.20573,7.1-9.20992c-1.79748-3.29709-3.56388-6.53716-5.35384-9.82043,3.46672-5.23731,6.91916-10.45305,10.40709-15.72242,5.55337-.62361,11.12376-1.24915,16.867-1.8941C181.20537,214.07564,182.99828,218.32956,184.84547,222.71232Zm-19.16206-4.66723c-1.9506,2.89388-3.83461,5.689-5.72981,8.50064,1.21276,2.32546,2.40949,4.6202,3.64861,6.99622l8.91211-1.4901c1.87355-2.72059,3.71353-5.39247,5.59727-8.12786-1.08658-2.35744-2.15122-4.66723-3.23887-7.027C171.7638,217.28544,168.74962,217.662,165.68341,218.04509Zm-16.24524,33.57457-6.07119.86258-3.732,4.30422c.83046,1.1745,1.59973,2.26245,2.38452,3.37239,1.83713-.27784,3.60075-.53449,5.35944-.82131a1.39048,1.39048,0,0,0,.75007-.356c1.19148-1.26325,2.35336-2.55443,3.55032-3.8644C150.90813,253.91364,150.21034,252.82469,149.43817,251.61966Z" fill="url(#linear-gradient-4)"/><path d="M102.02389,97.30337V80.85219L116.883,73.3424l15.12724,8.23809c.24391,5.40706.48692,10.79445.73392,16.27028-5.01045,2.72174-10.00171,5.433-15.0651,8.18352Zm15.106-15.98465c-2.45591,1.26432-4.86268,2.50335-7.11023,3.66039v8.11906l7.498,4.15457,7.33856-3.912c-.10674-2.64228-.21278-5.2673-.321-7.94557Z" fill="url(#linear-gradient-5)"/><path d="M132.74476,202.22461c-.24548,5.47513-.48543,10.82658-.72882,16.2551L116.90246,226.729l-14.87791-7.5V202.77985l15.646-8.73531Zm-8.20505,12.45214.3155-7.944c-2.51287-1.339-4.90729-2.61494-7.34353-3.91314l-7.53771,4.19158V215.086l7.172,3.66675Z" fill="url(#linear-gradient-6)"/><path d="M188.81649,251.00585c-1.93325.14777-3.78185.50762-5.60057.00444,1.24745-3.03566,2.4756-6.03752,3.7216-9.03195a1.73363,1.73363,0,0,1,.5-.65623c3.42431-2.744,6.85845-5.47579,10.34188-8.25135l5.06753,1.35127c-.35461.704-.69975,1.33468-.99659,1.98733a28.29674,28.29674,0,0,1-8.60041,10.87108C191.70742,248.46986,190.262,249.785,188.81649,251.00585Zm2.30285-3.80757c4.41874-3.4424,5.95894-5.29735,6.94747-8.37707-.825-.1774-1.63882-.35242-2.42627-.52177a36.50405,36.50405,0,0,1-3.3751,2.73965c-2.18092,1.38756-2.58164,3.758-3.73609,5.92Z" fill="url(#linear-gradient-7)"/><path d="M183.16568,48.95713H188.842c2.93775,2.62709,6.00214,5.18834,8.83455,7.98428a20.92455,20.92455,0,0,1,2.88162,4.35688c.82274,1.38619,1.53131,2.84,2.33,4.33891l-5.15629,1.41964c-1.49956-1.23768-3.02124-2.51718-4.56872-3.7647-1.8066-1.4564-3.64417-2.87447-5.44742-4.33492a2.84741,2.84741,0,0,1-.82563-1.00075c-1.21776-2.79235-2.39514-5.60229-3.58034-8.40876A4.50909,4.50909,0,0,1,183.16568,48.95713Zm12.50155,12.823,2.34267-.52328c-1.01189-3.98584-4.03135-6.12674-6.90751-8.36023l-2.51541.27072c.63182,1.42852,1.1903,2.72605,1.78428,4.00714a2.25321,2.25321,0,0,0,.5929.75254C192.48978,59.19666,194.03285,60.4453,195.66723,61.78017Z" fill="url(#linear-gradient-8)"/><path d="M220.76567,87.41912c-.51051-.50572-1.01865-1.01384-1.53225-1.51642a9.66176,9.66176,0,0,0-1.38776-1.18133c.261,1.99957.05369,4.0433,1.20255,5.83815a16.86158,16.86158,0,0,1,1.323,2.59733,9.33228,9.33228,0,0,0,4.19259,5.08286c.26989-1.12925-.50568-2.1673-.50084-3.292l-.02817.02514c.12976.13883.30965.25565.3818.41977a36.36181,36.36181,0,0,1,2.52553,7.97741,3.16879,3.16879,0,0,1,.00444.57c-1.53321-1.00921-3.03155-1.96843-4.49384-2.97971a2.5493,2.5493,0,0,1-.72084-.9406q-3.16118-6.17292-6.28908-12.36286a2.527,2.527,0,0,1-.33829-.89374c-.18571-2.58529-.3395-5.17286-.50285-7.75975l-.026-.02965a22.27415,22.27415,0,0,1,5.48549,7.35281,9.28687,9.28687,0,0,0,.70788,1.09642Z" fill="url(#linear-gradient-9)"/><path d="M214.50138,220.96231c.19429-2.34289.37155-4.68741.59558-7.02747a4.62131,4.62131,0,0,1,.4158-1.605c2.02014-4.02786,4.09081-8.03043,6.10687-12.06029a3.4457,3.4457,0,0,1,1.33008-1.50241c1.34254-.82537,2.62781-1.74378,4.10568-2.738-.21832,1.05335-.33421,2.00687-.61961,2.90668-.5757,1.815-1.23351,3.60449-1.88393,5.39489a3.62508,3.62508,0,0,1-.51838.75593l.03106.02688c.214-1.06133.42793-2.12267.65277-3.2379a7.844,7.844,0,0,0-3.16068,2.69113c-.93013,1.84291-1.903,3.66574-2.77655,5.535a9.84492,9.84492,0,0,0-.64021,2.30179c-.18242.94559-.2735,1.90881-.4041,2.86439l.22984.17574c.51145-.51833,1.00829-1.05227,1.53993-1.549a12.02248,12.02248,0,0,1,1.011-.77078l.00553-.01876c-.56573.96876-1.17633,1.91456-1.68755,2.91125A19.86127,19.86127,0,0,1,214.936,220.774c-.09607.09684-.27936.10725-.4221.15785Z" fill="url(#linear-gradient-10)"/><path d="M234.26647,129.48251v.53637l-.07233.00248-.02611-.50674Z" fill="url(#linear-gradient-11)"/><path d="M234.168,170.53592l.02913-.45655.06009.00087v.48945Z" fill="url(#linear-gradient-12)"/><path d="M234.01368,171.73481l.02356.32725-.05789.00278v-.32778Z" fill="url(#linear-gradient-13)"/><path d="M234.022,127.983v.3323l-.05694.00224-.01794-.332Z" fill="url(#linear-gradient-14)"/><path d="M233.78533,126.63682c-.03326-.10954-.01664-.05479,0,0C233.7652,126.58315,233.74507,126.52952,233.78533,126.63682Z" fill="url(#linear-gradient-15)"/><path d="M224.063,94.94773l-.22085-.73408-.028.02863.22066.73059Z" fill="url(#linear-gradient-16)"/><path d="M223.84063,205.84071l.22388-.72718-.031-.02688-.21889.724Z" fill="url(#linear-gradient-17)"/><path d="M232.50714,120.57508c-.00752-.11514-.01172-.17949,0,0C232.53308,120.39873,232.524,120.46085,232.50714,120.57508Z" fill="url(#linear-gradient-18)"/><path d="M232.20515,180.99883l-.03088-.4511.1398.01766-.138.40886Z" fill="url(#linear-gradient-19)"/><path d="M233.48264,175.03015q.01508-.09722.03133-.19424Q233.4989,174.93313,233.48264,175.03015Z" fill="url(#linear-gradient-20)"/><path d="M233.76036,173.38792c-.001.06223-.001.12445-.001.18668a.67121.67121,0,0,1-.04985-.12928C233.70666,173.42986,233.743,173.40726,233.76036,173.38792Z" fill="url(#linear-gradient-21)"/><path d="M222.121,90.55214c.045.05146.09.10292.06045.06913.0093.03553-.00848-.0324-.02625-.10034Z" fill="url(#linear-gradient-22)"/><path d="M222.15517,90.52093l-.273-.46424-.029.02814.26777.46731Z" fill="url(#linear-gradient-23)"/><path d="M223.51826,93.83542l.2959.40686.028-.02863-.32891-.40538Z" fill="url(#linear-gradient-24)"/><polygon points="233.468 125.219 233.507 125.137 233.527 125.229 233.468 125.219" fill="url(#linear-gradient-25)"/><polygon points="233.269 123.763 233.279 123.847 233.222 123.824 233.269 123.763" fill="url(#linear-gradient-26)"/><polygon points="233.278 176.269 233.247 176.342 233.23 176.263 233.278 176.269" fill="url(#linear-gradient-27)"/><polygon points="232.529 179.64 232.55 179.752 232.477 179.738 232.529 179.64" fill="url(#linear-gradient-28)"/><path d="M220.7623,212.60062l-.24026.50445-.00553.01875.25285-.5Z" fill="url(#linear-gradient-29)"/><path d="M220.76936,212.62381l-.02815-.32579.27278-.16124-.0063-.02278-.24539.48662Z" fill="url(#linear-gradient-30)"/><path d="M221.37118,89.09989l.36968.31665.01019-.02338-.34886-.32278Z" fill="url(#linear-gradient-31)"/><path d="M221.12459,88.613l.24657.48685.031-.02951-.24693-.4867Z" fill="url(#linear-gradient-32)"/><path d="M220.89357,88.113l.231.50008.03067-.02936-.229-.50047Z" fill="url(#linear-gradient-33)"/><path d="M223.51322,93.80827l-.01695-.25954.004-.00026.018.287Z" fill="url(#linear-gradient-34)"/><path d="M223.81458,205.81066l-.31084.394-.00987.016.34676-.37992Z" fill="url(#linear-gradient-35)"/><path d="M223.50374,206.20464l-.00987.21593v-.2Z" fill="url(#linear-gradient-36)"/><path d="M221.74086,89.41654l.11234.66829.029-.02814-.13111-.66353Z" fill="url(#linear-gradient-37)"/><path d="M221.014,212.13676l-.026-.32428.27226-.16312-.00609-.02216-.24646.48678Z" fill="url(#linear-gradient-38)"/><path d="M221.26023,211.64938l.23089-.50675-.01945-.04024-.21751.52482Z" fill="url(#linear-gradient-39)"/><path d="M221.70639,210.60834l-.23472.49405.01945.04024.23526-.49273Z" fill="url(#linear-gradient-40)"/><path d="M222.134,209.5133c.02165-.07542.04333-.15083.01439-.05013.10491-.03535.02922-.00985-.04648.01568Z" fill="url(#linear-gradient-41)"/><path d="M221.85419,209.973l.2798-.45966-.03206-.03444-.27317.46086Z" fill="url(#linear-gradient-42)"/><path d="M220.92626,88.08321l-.16059-.66409.0034.00388.12451.69Z" fill="url(#linear-gradient-43)"/><path d="M221.82876,209.93971l-.12237.66863.02.04156.12781-.677Z" fill="url(#linear-gradient-44)"/><path d="M214.60168,79.00342l-.05806-.04539.03208.01574Z" fill="url(#linear-gradient-45)"/><polygon points="214.514 220.932 214.516 221.03 214.501 220.962 214.514 220.932" fill="url(#linear-gradient-46)"/></svg>