<svg id="Layer_1" data-name="Layer 1" xmlns="http://www.w3.org/2000/svg" viewBox="0 0 300 300"><path d="M235.81767,112.05112a26.12471,26.12471,0,0,1-1.6715,4.28405Q215.9,148.12059,197.54786,179.84529q-13.61517,23.61007-27.21573,47.22858-6.28905,10.91112-12.59933,21.81a9.869,9.869,0,0,1-1.571,2.15454,2.15443,2.15443,0,0,1-3.54281-.29274,38.5656,38.5656,0,0,1-2.27792-3.68192q-14.79281-25.67357-29.57368-51.354c-1.0997-1.90884-2.22907-3.77726-2.361-6.08141a10.57439,10.57439,0,0,1,1.533-6.09443q7.67793-13.20791,15.27519-26.46261,19.28556-33.4504,38.5704-66.90125Q185.17715,70.40478,196.55817,50.633c.13721-.23816.27343-.47837.4306-.70333,1.647-2.35726,3.48333-2.36924,4.97262.08753,1.96175,3.23625,3.808,6.5425,5.69837,9.82186q13.19868,22.89668,26.4037,45.78971A13.31751,13.31751,0,0,1,235.81767,112.05112Z" fill="#0139b0"/><path d="M55.63749,188.7711q-15.82489.00147-31.64979-.0002a13.57774,13.57774,0,0,1-1.85949-.03918,2.18813,2.18813,0,0,1-1.93663-3.11766,25.48556,25.48556,0,0,1,1.84332-3.68045q14.93955-25.9525,29.90638-51.88933,22.79207-39.54459,45.5846-79.0889a10.822,10.822,0,0,1,1.27439-1.867,2.14168,2.14168,0,0,1,3.407-.13078,9.50432,9.50432,0,0,1,1.44226,1.994q12.24357,21.1898,24.46,42.39525c2.30373,3.99539,4.51321,8.04851,6.92953,11.97459,2.38219,3.87068,2.31365,7.57234.06023,11.46745Q115.86283,150.04,96.732,183.35206a9.96968,9.96968,0,0,1-9.44493,5.44183C76.73768,188.72126,66.18741,188.77011,55.63749,188.7711Z" fill="#0139b0"/><path d="M217.85154,187.705c-.72517-1.385-.138-2.5363.53351-3.70108q5.82532-10.10451,11.62777-20.22218,7.72441-13.419,15.46176-26.8306.46338-.80364.96943-1.58256a2.90145,2.90145,0,0,1,3.55767-1.33147,22.23255,22.23255,0,0,1,1.85987,2.46987q13.52814,23.41824,27.01609,46.85961c2.02128,3.4951,1.48746,5.50371-3.04188,5.46583-18.05771-.151-36.11744-.06355-54.17641-.06023C220.34819,188.77239,219.02,188.87284,217.85154,187.705Z" fill="#0139b0"/></svg>