<?xml version="1.0" encoding="UTF-8"?>
<svg xmlns="http://www.w3.org/2000/svg" version="1.1" viewBox="0 0 300 300">
  <defs>
    <style>
      .cls-1 {
        fill: #808285;
      }

      .cls-2 {
        fill: #0e6992;
      }

      .cls-3 {
        fill: #818a91;
      }
    </style>
  </defs>
  <!-- Generator: Adobe Illustrator 28.6.0, SVG Export Plug-In . SVG Version: 1.2.0 Build 709)  -->
  <g>
    <g id="Layer_1">
      <g>
        <g>
          <path class="cls-1" d="M18.7,160c.1-.2,7.7-11.4,9.2-13.6-6.2,9.5-4.1,19.1,2.1,24.5,26,22.8,140,12.2,150.1,11.4-13,1.7-193.2,26.7-161.5-22.3Z"/>
          <path class="cls-1" d="M281.3,140c-.1.2-7.7,11.4-9.2,13.6,6.2-9.5,4.1-19.1-2.1-24.5-26-22.8-140-12.2-150.1-11.4,13-1.7,193.2-26.7,161.5,22.2Z"/>
        </g>
        <g>
          <path class="cls-2" d="M20.2,157.6c.1-.2,7.7-11.4,9.2-13.6-6.2,9.5-4.1,19.1,2.1,24.5,26,22.8,139.6,14.4,149.7,13.6-13,1.7-192.8,24.5-161-24.5Z"/>
          <path class="cls-2" d="M279.8,142.4c-.1.2-7.7,11.4-9.2,13.6,6.2-9.5,4.1-19.1-2.1-24.5-26-22.8-139.5-14.4-149.7-13.6,13-1.7,192.8-24.5,161,24.5Z"/>
        </g>
        <g>
          <path class="cls-1" d="M178.7,128.7h-7.1l-15.5,34.4h7l2.9-6.5h18l2.9,6.5h7.1l-15.4-34.4ZM168.7,150.6l6.4-14.7,6.4,14.7h-12.8Z"/>
          <rect class="cls-1" x="223.8" y="138.8" width="6" height="24.4"/>
          <path class="cls-1" d="M245.2,148.2c-3.1-.2-4.5-1.1-4.5-2.7s1.6-2.4,4.4-2.4,4.3.5,6,2.2l3.4-3.9c-2.8-2.5-5.7-3.2-9.5-3.2s-10.2,2-10.2,7.6,5.5,7.2,10,7.5c3.4.2,4.8.9,4.8,2.6s-2.1,3-4.4,2.9c-2.7,0-6.6-1.5-8.4-3.4l-2.9,4.3c3.5,3.7,7.4,4.3,11.2,4.3,6.9,0,10.4-3.7,10.4-8,0-6.5-5.8-7.5-10.4-7.8Z"/>
          <path class="cls-3" d="M203.5,138.9l3.7,5.2-3.6,5.1-7.3-10.3h7.2ZM220.8,163l-7.2.2-4.2-5.9,3.6-5.1,7.8,10.9ZM213.1,138.9l-23.1,32.4h7.2c0,.1,23.1-32.4,23.1-32.4h-7.2Z"/>
          <path class="cls-2" d="M230.4,132c0,4.7-7.1,4.7-7.1,0s7.1-4.7,7.1,0Z"/>
        </g>
        <g>
          <path class="cls-2" d="M91.5,138.1c-7.9,0-12.9,5.3-12.9,12.7s5,12.9,13.3,12.9,7.9-1.3,10.4-3.9l-3.8-3.8c-1.4,1.4-4.3,2.3-6.5,2.3-4.2,0-6.8-2.2-7.2-5.2h18.9c.9-10-4.1-15-12.3-15ZM84.9,148.2c.9-3.2,3.5-4.7,6.8-4.7s5.9,1.6,6.3,4.7h-13.1Z"/>
          <path class="cls-2" d="M126.6,138.9v12.4c0,3.7-2.5,6.8-6.2,6.8s-5.9-2.8-5.9-6.5v-12.7h-6v12.7c0,7.5,4.2,11.9,10,11.9s5.7-1.2,8.2-3.6l.4,3.3h5.4v-24.3h-6Z"/>
          <path class="cls-2" d="M150.7,138.2c-2.5,0-5,.4-6.8,3.4l-.4-2.8h-5.6v24.3h6v-12.8c0-4.5,2.9-6.2,6.1-6.2,1.6,0,3.2.5,4.3,1.6l2.7-5.2c-1.3-1.3-3.7-2.3-6.3-2.3Z"/>
          <path class="cls-2" d="M44.4,129h8.3l15.6,25.7v-25.7h6.6v34.8h-8.4l-15.6-25.7v25.7h-6.5v-34.8Z"/>
        </g>
      </g>
    </g>
  </g>
</svg>