<?xml version="1.0" encoding="UTF-8"?>
<svg xmlns="http://www.w3.org/2000/svg" version="1.1" viewBox="0 0 300 300">
  <defs>
    <style>
      .cls-1 {
        fill: #009b4c;
      }

      .cls-2 {
        fill: #134b98;
      }
    </style>
  </defs>
  <!-- Generator: Adobe Illustrator 28.6.0, SVG Export Plug-In . SVG Version: 1.2.0 Build 709)  -->
  <g>
    <g id="Layer_1">
      <g>
        <g>
          <path class="cls-1" d="M82,146.9c0,4.6-3.7,8.5-8.3,8.5,0,0-.1,0-.2,0-4.7,0-8.5-3.8-8.5-8.4,0-4.7,3.8-8.5,8.5-8.5,4.7,0,8.5,3.8,8.5,8.5Z"/>
          <path class="cls-1" d="M235,184.1c.3,4.7-3.2,8.7-7.9,9.1-4.7.3-8.7-3.2-9.1-7.9,0-.4,0-.8,0-1.3.4-4.7,4.5-8.2,9.1-7.8,4.2.3,7.5,3.7,7.8,7.9Z"/>
          <path class="cls-1" d="M171.3,68.6c4.7-.4,8.8,3.1,9.1,7.8.4,4.7-3.1,8.8-7.8,9.1-.5,0-.9,0-1.4,0-4.7,0-8.5-3.8-8.5-8.5,0-4.5,3.9-8.7,8.5-8.4Z"/>
          <path class="cls-1" d="M150.1,131.9c10.4-.3,19.1,7.9,19.4,18.3,0,.2,0,.4,0,.6,0,10.3-8.3,18.8-18.6,18.9-10.4.2-19-8.1-19.1-18.6,0-.3,0-.5,0-.8,0-4.9,2-9.5,5.5-12.9,3.4-3.4,8-5.4,12.9-5.5Z"/>
        </g>
        <g>
          <path class="cls-2" d="M182.2,104c-.5-8.9,6.3-16.5,15.2-17,8.9-.5,16.5,6.3,17,15.2.2,4-1.1,7.9-3.6,11-2.5,3.1-6,5.1-9.9,5.7-1.6.2-3.2.2-4.7.2-4,0-7.9,1.5-10.8,4.4-2.3,2.1-4,4.9-4.7,8-.7,2.9-.5,5.9.5,8.7.9,2.6,1.4,5.3,1.5,8.1.2,3.4-.1,6.8-.9,10-.6,3-.7,6-.4,9,.5,5,2.1,9.7,4.8,13.9.9,1.5,2,2.9,3.2,4.1,2,2,4,4.1,6.1,6,3.5,3.3,7.8,5.6,12.4,6.7,2.4.6,4.8,1,7.3,1.1,2.3,0,4.6.3,6.7,1.1,5.3,2.1,8.7,5.9,10,11.5,2,8.7-3.5,17.3-12.2,19.3-3.4.8-6.9.4-10.1-1-4.9-2.1-8.3-6.6-9.2-11.8-.2-1.4-.3-2.9-.3-4.3-.3-6.2-2.4-12.2-6.1-17.2-1.2-1.5-2.5-3-4-4.3-1.8-1.9-3.7-3.8-5.8-5.5-3.8-3-8.3-5.1-13.1-6-2.4-.5-4.9-.7-7.3-.6-2.1.1-4.2.4-6.3.8-16.7,3.4-33.2-7-37.2-23.6-.4-2-.7-4-.8-6-.1-3,.2-6,.9-8.9.6-2.7.8-5.5.6-8.3-.3-6.6-2.8-13-7.1-18-1.9-2.2-4.1-4.1-6.1-6.2-2.2-2.2-4.7-4.1-7.4-5.5-2.8-1.4-5.8-2.4-8.9-3-2.1-.3-4.2-.5-6.3-.6-5.2-.2-10-3-12.8-7.5-1.9-2.9-2.7-6.3-2.4-9.7.7-8.9,8.4-15.5,17.3-14.9,5,.4,9.5,3,12.2,7.1,1.7,2.6,2.6,5.6,2.7,8.6,0,6.1,1.7,12,4.9,17.2,1,1.5,2.1,3,3.4,4.3,2,2.1,4,4.2,6.2,6.1,3.9,3.5,8.6,5.9,13.6,7,2.8.6,5.6.9,8.5.7,1.7,0,3.5-.3,5.2-.7,1.7-.4,3.4-.6,5.2-.8,4.4-.2,8.7.4,12.9,1.8,5.7,1.7,10.7.5,15.1-3.6,3.7-3.2,5.7-8,5.2-12.9h0ZM150.1,131.9c-4.9,0-9.5,2.1-12.9,5.5-3.5,3.4-5.5,8.1-5.5,12.9-.3,10.4,8,19.1,18.4,19.3.3,0,.5,0,.8,0,10.3-.1,18.7-8.6,18.6-18.9,0-10.4-8.4-18.8-18.8-18.9-.2,0-.4,0-.6,0Z"/>
          <path class="cls-2" d="M107.5,177.7c8.7-.2,16.2,7.2,16.2,16.3,0,9-7.3,16.2-16.3,16.1-9,0-16.2-7.3-16.1-16.3,0-9,7.3-16.2,16.3-16.1Z"/>
        </g>
      </g>
    </g>
  </g>
</svg>