<?xml version="1.0" encoding="UTF-8"?>
<svg xmlns="http://www.w3.org/2000/svg" version="1.1" viewBox="0 0 300 300">
  <defs>
    <style>
      .cls-1 {
        fill: #fff;
        fill-rule: evenodd;
      }

      .cls-2 {
        fill: #005288;
      }
    </style>
  </defs>
  <!-- Generator: Adobe Illustrator 28.6.0, SVG Export Plug-In . SVG Version: 1.2.0 Build 709)  -->
  <g>
    <g id="Layer_1">
      <g>
        <g>
          <g>
            <path class="cls-2" d="M15,131.5h13.1l11.6,16.1h.1v-16.1h11v29h-12.6l-12.2-16.3h0v16.3h-11v-29Z"/>
            <path class="cls-2" d="M112.1,138.3h11.5l4.6,13.3h0l4.6-13.3h11.5l-10.3,22.3h-11.6l-10.3-22.3Z"/>
            <path class="cls-2" d="M146.2,145c.6-3,1.9-4.9,4.4-6.1,2.5-1.1,6.2-1.6,11.6-1.6,10.4,0,14.5,2.3,14.5,9v10.7c0,1.7.5,2.7,1,3.5h-10.4c-.2-.6-.3-1.4-.4-2.2-2.3,2.1-5.7,3.1-11.1,3.1s-11.1-1.8-11.1-7.5,2.9-6.7,10.4-7l8.6-.4c2-.1,2.7-.6,2.7-1.8s-1.8-2.2-4.7-2.2-4.6.4-5.1,2.5h-10.2ZM166.5,150.4c-1.7.4-4.6.6-8.2.9-1.9.2-2.8.8-2.8,2.2s1.3,2.5,3.8,2.5,7.2-.8,7.2-4.7v-1h0Z"/>
            <path class="cls-2" d="M181.8,131.5h26.1c5.9,0,8.6,2.6,8.6,7.2s-1.3,4.8-3.5,5.7h0c3.8,1.1,5,4.6,5,6.7,0,5.7-2.8,9.4-11.4,9.4h-24.9v-29ZM193,142.3h8.7c2.3,0,2.9-.8,2.9-1.9s-.5-1.8-2.9-1.8h-8.7v3.7ZM193,153.5h9.8c2.3,0,3-1,3-2.3s-.7-2.3-3-2.3h-9.8v4.6Z"/>
            <path class="cls-2" d="M222.3,145c.6-3,1.9-4.9,4.4-6.1,2.5-1.1,6.2-1.6,11.6-1.6,10.4,0,14.5,2.3,14.5,9v10.7c0,1.7.4,2.7.9,3.5h-10.4c-.2-.6-.3-1.4-.4-2.2-2.3,2.1-5.7,3.1-11.1,3.1s-11.1-1.8-11.1-7.5,2.9-6.7,10.4-7l8.6-.4c2-.1,2.7-.6,2.7-1.8s-1.8-2.2-4.7-2.2-4.6.4-5.1,2.5h-10.2ZM242.6,150.4c-1.7.4-4.6.6-8.2.9-1.9.2-2.8.8-2.8,2.2s1.3,2.5,3.8,2.5,7.2-.8,7.2-4.7v-1h0Z"/>
          </g>
          <path class="cls-2" d="M257.3,165.4c.8,0,1.3.1,2.5.1,2.1,0,3,0,3.8-2l.6-1.4-10.3-24.2h10.7l4.9,13.5,4.9-13.5h10.6l-12.5,30.6c-1.6,3.7-2.8,5.1-8.3,5.1s-5-.2-6.9-.4v-7.8Z"/>
        </g>
        <g>
          <path class="cls-1" d="M79.8,141.7s0,0,0,0h0Z"/>
          <path class="cls-2" d="M84.1,139.7c-4.3,0-7.9,3.5-7.9,7.9s3.5,7.9,7.9,7.9,7.9-3.5,7.9-7.9-3.5-7.9-7.9-7.9ZM80.1,143.9c-1.2,1.3-2.1,3.3-2.1,3.3,0,0-.2-3.2,1.2-4.6,1.5-1.4,4.1-1.4,4.8-1.2.7.2-2.4.9-3.9,2.5Z"/>
          <path class="cls-2" d="M110.2,145.6c-4.1-6.6-10.7-11.3-17.9-14.7-5-2.3-10.6-4.2-17.3-4.5-7-.3-12.3,1.5-16,5.5-1.6,1.8-2.7,4.4-2.5,7.7.2,2.4,1,4.5,2,6.4.8,1.8,2,3.2,3,4.8.2.1.2.1,0,0-2.2-6.9,2.6-12.1,7.6-14.8,8.9-4.8,21.7-3.6,29.3,1.1,3.8,2.4,7.2,6.3,7.4,11,0,2.5-.7,4.7-1.6,6.2-3,5.1-8.2,7.3-16.3,8.6-4.3.4-7.5-.2-12.2-.9,4.9,2.6,12.4,5.3,20.3,5.3s16.5-3.1,17.4-11.4v-1.5c-.2-3.4-1.7-6.2-3.2-8.7ZM64,131.4c-4.2,2.8-4.4,6.1-6.1,7.7.3-3.6,1.3-6,3.1-7.6,2.9-2.8,7.8-4.3,11.9-3.9,1.6.2-3.7.3-8.9,3.9ZM107.5,163.3c-3.6,2.7-9.5,2.9-13.9,1.8-1.7-.4,4.1.2,10.4-2.8,5-2.4,7.4-5.5,7.7-8.1-.4,4.1-.5,6.3-4.1,9Z"/>
        </g>
      </g>
    </g>
  </g>
</svg>