<?xml version="1.0" encoding="UTF-8"?>
<svg xmlns="http://www.w3.org/2000/svg" version="1.1" xmlns:xlink="http://www.w3.org/1999/xlink" viewBox="0 0 300 300">
  <defs>
    <style>
      .cls-1 {
        fill: #fff;
      }

      .cls-2 {
        fill: url(#radial-gradient);
      }
    </style>
    <radialGradient id="radial-gradient" cx="259.3" cy="129.2" fx="259.3" fy="129.2" r="135.8" gradientTransform="translate(-56.6 213.6) scale(1 -1)" gradientUnits="userSpaceOnUse">
      <stop offset="0" stop-color="#57d1d3"/>
      <stop offset=".6" stop-color="#318495"/>
      <stop offset=".7" stop-color="#308092"/>
      <stop offset=".8" stop-color="#2c7388"/>
      <stop offset=".9" stop-color="#265f79"/>
      <stop offset="1" stop-color="#1e4565"/>
    </radialGradient>
  </defs>
  <!-- Generator: Adobe Illustrator 28.6.0, SVG Export Plug-In . SVG Version: 1.2.0 Build 709)  -->
  <g>
    <g id="Layer_1">
      <g id="image">
        <path class="cls-2" d="M208.2,221.6H65V78.4h143.2v143.2ZM215.1,149.9l-6.9,8.5,13.1,16.3c0,.1.2.2.4.2h12.9c.2,0,.5-.2.5-.4,0-.1,0-.2-.1-.3l-19.8-24.2ZM234.9,125.4c.2-.2.1-.5,0-.6,0,0-.2-.1-.3-.1h-12.3c-.1,0-.3,0-.4.2l-13.7,16.7,6.9,8.4,19.8-24.6Z"/>
        <path class="cls-1" d="M208.2,141.5l-13.7-16.7c0-.1-.2-.2-.4-.2h-12.3c-.2,0-.5.2-.5.4,0,.1,0,.2.1.3l19.8,24.6-18.1,22.2-17.9-22.2c8-2.1,13.2-8.7,13.2-16.8s-6.3-18.1-20.9-18.1h-25.4c-.3,0-.6.2-.6.6v58.9c0,.3.2.5.5.5h11.7c.3,0,.5-.2.5-.5s0,0,0,0v-23.4h8.4l18.6,23.7c0,0,.2.1.3.1h23.2c.1,0,.3,0,.4-.2l13.1-16.3,6.9-8.5-6.9-8.4ZM155.6,142.4h-11.3v-18.8h11.3c7.8,0,10.6,4.1,10.6,9.5,0,5.3-2.8,9.3-10.6,9.3Z"/>
        <path class="cls-1" d="M117.3,174.7l-32.2-39.4v38.9c0,.3-.3.6-.6.6h-10.1c-.3,0-.6-.3-.6-.6h0v-58.8c0-.3.2-.5.5-.5h8c.1,0,.3,0,.4.2l32.2,39.3v-39c0-.3.2-.5.5-.5h10.2c.3,0,.5.2.5.5v59c0,.2-.2.4-.4.4h-8.2c-.1,0-.2,0-.3-.1Z"/>
      </g>
    </g>
  </g>
</svg>