<?xml version="1.0" encoding="UTF-8"?>
<svg xmlns="http://www.w3.org/2000/svg" version="1.1" viewBox="0 0 300 300">
  <defs>
    <style>
      .cls-1 {
        fill: #23155f;
      }
    </style>
  </defs>
  <!-- Generator: Adobe Illustrator 28.6.0, SVG Export Plug-In . SVG Version: 1.2.0 Build 709)  -->
  <g>
    <g id="Layer_1">
      <g>
        <path class="cls-1" d="M15,122.1c12.2,7.5,24.3,14.8,36.5,22.2v-22.1h7.5v33.3l-36.6-21.7v21.5h-7.3v-33.2Z"/>
        <path class="cls-1" d="M260.8,121.9l24.2,33.6h-8.5c-1.8-2.7-3.9-5.4-5.8-8.2h-19.5l-5.6,8.2h-8.5c8-11.2,15.9-22.4,23.9-33.6ZM254.2,142.6h13.4c-2.3-3.2-4.4-6.5-6.7-9.7-2.2,3.2-4.4,6.5-6.7,9.7h0Z"/>
        <path class="cls-1" d="M194.6,129.3l28.6,17.5v-17.4h5.9v26.2l-28.7-17.1v16.8h-5.8v-26.1Z"/>
        <path class="cls-1" d="M94.4,129.3h6.3v.9c0,5.2.1,10.5,0,15.7.1,3.1-1.7,6-4.5,7.5-2.1,1.1-4.2,1.7-6.6,1.9-2.5.2-5.1.3-7.6.2-2.9,0-5.8-.8-8.4-2.1-2.8-1.2-4.6-4-4.6-7-.1-5.6-.1-11.3-.1-17h6.4v16c0,1.5.6,3,1.7,4.1,1.2,1.1,2.6,1.7,4.1,1.8,1.7.2,3.6.3,5.4.3s3.9-.6,5.5-1.7c1.4-.9,2.3-2.4,2.4-4.1.1-5.2.1-10.3.2-15.4-.1-.4-.1-.8-.1-1.1Z"/>
        <path class="cls-1" d="M189.1,122.1c-4.4,1.2-8.5,3-12.4,5.5-2.9,1.8-5.6,3.8-8.2,6-3,2.6-5.7,5.5-8.1,8.7-2.2,2.9-4.1,5.9-5.8,9.1-1.7,3.2-3.1,6.6-4.4,10-1.4,4.2-2.6,8.5-3.5,12.9-.2,1.3-.4,2.5-.8,3.8h0c-.1-3.6-.5-8.3-.4-11.8.1-2.5.3-5.1.9-7.6.5-2.9,1.2-5.7,2.1-8.5,2.2-6.7,6-12.7,11.2-17.5,2.1-1.8,4.3-3.5,6.8-4.9,2.6-1.5,5.3-2.6,8.2-3.5,2.7-.8,5.5-1.4,8.3-1.8,1.7-.2,4.3-.3,6.2-.5h0Z"/>
        <path class="cls-1" d="M141.1,148.4v4.6c-1.5.8-3.1,1.3-4.9,1.6-3.2.8-6.6,1-9.8.6-3.8-.2-7.3-1.2-10.7-2.8-2.7-1.4-5.2-3.2-6.5-6.3-1.3-2.8-1.1-6.2.5-8.7,2.2-3.6,5.5-5.6,9.4-6.9,1.9-.6,4-1.1,6.2-1.2,2.1-.1,4.1-.2,6.2-.1,1.5.1,3.1.3,4.6.8,1.8.4,3.7,1.1,5.5,1.6l-.3,4.2c-1.2-.5-2.4-1.1-3.7-1.4-1.6-.5-3.1-.9-4.9-1.2-1.4-.2-2.8-.3-4.3-.3-3.5,0-6.8,1-9.6,2.8-1.8,1.1-3.1,2.9-3.7,5.1-.5,2.3.1,4.5,1.7,6.3,2.2,2.4,5.1,3.8,8.2,4.1,2.2.3,4.2.4,6.4.2,2.8-.2,5.6-1.1,8.1-2.4.5-.2,1-.4,1.5-.6Z"/>
        <path class="cls-1" d="M186.1,155.3h-6.8c-1.4-2.2-2.9-4.2-4.3-6.4h-17.5c.9-1.3,1.6-2.4,2.4-3.6h12.7c-1.9-2.9-3.8-5.6-5.7-8.5l3.6-3.3c5.3,7.3,10.5,14.5,15.7,21.8Z"/>
      </g>
    </g>
  </g>
</svg>