<?xml version="1.0" encoding="UTF-8"?>
<svg xmlns="http://www.w3.org/2000/svg" version="1.1" viewBox="0 0 300 300">
  <defs>
    <style>
      .cls-1 {
        fill: #79b4cc;
      }

      .cls-2 {
        fill: #3390af;
      }

      .cls-3 {
        fill: #3490af;
      }

      .cls-4 {
        fill: #9ec8d7;
      }

      .cls-5 {
        fill: #78b4cc;
      }

      .cls-6 {
        fill: #9dc8d7;
      }

      .cls-7 {
        fill: #5aa3bd;
      }

      .cls-8 {
        fill: #76b4cc;
      }
    </style>
  </defs>
  <!-- Generator: Adobe Illustrator 28.6.0, SVG Export Plug-In . SVG Version: 1.2.0 Build 709)  -->
  <g>
    <g id="Layer_1">
      <g>
        <path class="cls-6" d="M158.1,171.2c-2.2.4-4.4,1.1-6.5,1.9-.1,0-.2.1-.3.2,2.4-.3,4.8-.7,7.2-.9,2.4-.2,4.9-.2,7.3,0-.1.4-.7.3-.8.9s.6.6,1,.8c1.8.5,3.6.8,5.4,1,.5,0,.9.2,1.3.5-.9.4-1.8.4-2.7.2-4.3-.6-8.7-.8-13.1-.6-8.5.3-16.8,2.2-24.7,5.5,0,0-.2,0-.3,0,0-.5-.3-1-.8-1.2-.8,0-1.7,0-2.5.2-1.2.4-2.3.9-3.4,1.5-4.6,1.9-9.5,3.1-14.4,3.4-2.4,0-4.8,0-7.3-.2-1.3,0-2.7-.1-4-.3-.9-.2-1.9,0-2.7.5.4.8.5.9,1.8,1.6,3,1.7,6.3,2.5,9.7,2.5,1.8.5,3.7.7,5.6.7,3,0,5.9-.2,8.8-.8,2.5-.4,4.9-1.2,7.1-2.4.4-.5,1-.2,1.4-.3,3-.7,6-1.3,8.9-2.2.8.4,1.5,0,2.2-.1,1.1-.2,2.2-.1,3.3.2.8.1,1.6,0,2.4-.2,2.9-.4,5.9-.4,8.8.1,0,0,.2,0,.3.2-8.3.5-16.4,2.9-23.7,7-.5-1.5-1.1-1.8-2.5-1.3-2.3.8-4.6,1.5-7,2-1,.2-1.8-.4-2.7-.5-2-.2-4-.1-6,.1-.9,0-1.9.3-2.8.5-.2,0-.9,0-.6.7-2.9-.2-5.8-.6-8.6-.9v-.8c-.5-.7-1.2-1.3-2.1-1.4-1.1-.2-2.3-.4-3.4-.6-6-1.1-11.8-2.8-17.5-5-3.5-1.5-7-3.2-10.2-5.2-2.5-1.3-4.8-3-6.7-5.1-1-1.2-2.2-2.3-3.5-3.1-3.7-2.1-7.1-4.6-10.3-7.4-4.2-3.6-7.6-8.1-10-13.1-1.4-3.1-2.3-6.5-2.5-9.9.8,1.4,1.6,2.9,2.2,4.4,4.1,8,10.1,14.8,17.5,19.9,8,5.3,16.9,9.1,26.3,11,2.7.8,5.4,1.3,8.1,1.6.7.3,1.6.4,2.3.3l-2.4-.5c-.2,0-.3,0-.5,0l-7.2-1.7c-7.8-2-15.3-5.1-22.2-9.3.4-.3.8,0,1.1.2,2,.8,4,1.3,6.2,1.5h0c0,.2.2.2.4,0,1.4.6,2.8,1.1,4.3,1.3.8,1.6,2.3,2.2,3.8,2.7,3.7,1.2,7.5,2.1,11.3,2.7,1.7.3,3.4.7,5.2,1,.8.1,1.2.8,1.9,1,1.8.4,3.7.5,5.5.2,2.4-.3,4.7-1,6.8-2.2.3-.2.7-.2.8-.6-19.2,0-36.3-5-49.9-19.6.3-.2.7,0,1,.2,5.1,3.2,10.3,6.2,15.7,8.8,4.5,2.2,9.3,3.8,14.2,4.6,3.2.6,6.5.8,9.8.5.9-.1,1.7,0,2.5.2,2.2.9,4.4.5,6.6.2,1.4-.3,2.9-.5,4.3-.5.4,0,.8,0,1,.3s-.2.6-.2,1.1c1.6,0,3.2-.2,4.7-.7,1.3-.3,2.4-.9,3.8-.6,1,.3,1.9.7,2.7,1.3,3.1-.7,6.5-.4,9.5-1.6-.1-.7.2-1.3.9-1.5,2.4-1.3,5-2.4,7.7-3.1,2.6-.8,5.2-1.4,7.9-1.6.3,0,.6,0,1,0,3,.5,6.1-.2,8.5-2,2-1.2,4.3-1.7,6.6-1.3.6,0,1.2,0,1.8.1-3,1.3-5.9,2.9-8.6,4.8.1,0,.3.1.4,0,1.6-.5,3.1-1.1,4.7-1.6,3-.9,6-2,9-2.7,3.9-1,7.8-1.8,11.8-2.4,4.2-.6,8.4-.8,12.6-.7-.5.4-1.5,0-1.8.9.7.5,1.5.9,2.4,1,1.2-.5,2.5-.7,3.7-.5,1.8.1,3.6.3,5.4.6,1.5.1,3,.4,4.5.7,0,.3,0,.3.2.4,1.7.4,3.4,1,5,1.8,1.6.7,2.8,2,4.4,2.6,2.6,1,5.2,2.3,7.6,3.8,1.2.7,2.3,1.6,3.2,2.6-3.2-1.7-6.4-3.3-9.8-4.6-4.8-1.8-9.7-3.1-14.8-3.9-5.1-.7-10.3-1-15.5-.7-3.2.1-6.5.5-9.7,1.2-.4,0-.9,0-1.1.6.4.7,1.1,1.1,1.9,1.1,1.1.2,2.3,0,3.4-.3.7-.3,1.5-.4,2.2-.4,6.3,0,12.5.8,18.5,2.5.1,0,.3.1.3.2-1.8,0-3.7.2-5.5.6-1.8.4-3.7.6-5.5.6,11.8,4.3,22.9,9.9,32.5,18.4-.5.2-1,0-1.4-.3-2.2-1.5-4.4-3-6.6-4.5-1-.7-2-1.2-3.1-1.6-.6-.3-1.2-.3-1.7,0-.3.3-.4.7-.4,1.1-.9.2-1.4-.5-1.8-1-2.4-2.8-5.5-5.1-8.9-6.5-4.3-1.8-8.8-3.1-13.3-3.9-1.9-.6-3.8-.9-5.7-.9-2.6.1-4.9-.8-7.4-1.1-1.2-.1-2.3,0-3.4.5.2.6.7.4.9.7-6.4,0-12.8.4-19.1.8l-.8.9c-.3.1-.6.2-1,.2-1.8,0-3.6.2-5.4.2-1.3,0-2.5.2-3.8.5-4.1,1.1-8.2,2.4-12.2,3.7-3.5,1.2-7,2.4-10.6,3.4,2.5-.2,5.1-.5,7.6-1.1,4.3-.9,8.5-2.1,12.6-3.2,4.2-1.2,8.5-1.8,12.9-1.8ZM94.1,177.4c.1.1.2.1.3,0,0,0-.2-.1-.2,0,0,0,0,0,0,0h0Z"/>
        <path class="cls-8" d="M37.4,140c.2,3.4,1,6.8,2.4,10,2.3,5,5.7,9.5,9.9,13.1,3.2,2.8,6.7,5.3,10.3,7.4,1.4.8,2.6,1.9,3.6,3.1,1.9,2.1,4.2,3.8,6.7,5.1,3.3,2,6.7,3.7,10.2,5.2,5.7,2.2,11.5,3.9,17.5,5,1.1.2,2.2.4,3.4.6.9.2,1.6.7,2.1,1.4v.8c-1.4-.2-2.9-.5-4.3-.7-3.6-.6-7.3-1.4-10.8-2.4-2.6-.7-5.2-1.6-7.7-2.7-.5-.2-1.1-.3-1.7-.3-.1-.1-.2-.3-.5,0h.5c.3.5.8.6,1.2.8,3.3,1.5,6.6,2.9,10,4,.7.1,1.4.4,2,.9,1,1,2.3,1.8,3.7,2l5,1.5-.4.2c-.4,0-.7.3-.6.7,0,.4.3.7.6.9,1.7.7,3.4,1.2,5.2,1.3,2.8.2,5.6.1,8.4-.2.2,0,.3,0,.4.2-2.6.7-5.3,1.1-8,1.2-2.4,0-4.8-.2-7.1-.5l-2.6-.5c-.2-.2-.4-.3-.6-.3-2.2-.5-4.2-1.5-6-2.9-.3-.5.1-.9,0-1.4-.3-.4-.7-.7-1.1-1-1.1-.7-2.4-1.2-3.7-1.6-3.8-1.2-7.7-2.4-11.4-3.9-2.7-1.1-5.4-2.3-8.2-3.5,0,0-.2-.2-.3,0l.3.2,2,1.9c.7.7,1.4,1.6,1,2.6s-1.5,1-2.5,1.1c-2.3,0-4.6-.3-6.9-.9-3.8-.8-7.4-2-10.9-3.5-1.4-.5-2.8-1.3-3.9-2.3.7.2,1.4.3,2.2.3,1.4-.3,1.7-.9,1.2-2.2.3,0,.5,0,.7.1,2.3,1.1,4.7,1.9,7.1,2.4.8.2,1.6.6,2.5.1,0-.6-.4-1.1-.9-1.4-1.3-1-2.6-1.9-4-2.8-2-1.2-4-2.5-5.8-4-1-.9-2-1.6-3.1-2.3,0-1-.7-1.5-1.4-1.9-1.1-.6-2.1-1.4-3-2.4-.4-.4-.6-.8-.7-1.3.2-.6.7-.5,1.2-.6-3.1-2.6-5.3-6.2-6.2-10.1-5.1-3-9-7.8-10.7-13.5.2,3.4.9,6.7,2.2,9.9,1.2,3.2,3,6.1,5.2,8.6.8.9,1.7,1.7,2.6,2.3.5.3.8.8.9,1.4.5,2.3,0,4.8-1.4,6.7-.6-.8-1-1.7-1.1-2.7-.8-3.8-2.8-7.2-5.6-9.8-4.1-4-6.7-9.2-7.7-14.8-.1-.4-.2-.8-.2-1.2.1.1.2.3.3.5.8,2.1,1.8,4.1,3,6,.2.3.3.7.8.8.4-.2.3-.7.3-1.1-.1-3.3-.5-6.6-1.1-9.9-.5-3.4-.6-6.9,0-10.3,1.4-7.6,5-14.7,10.4-20.3,2.1-2.3,4.5-4.3,7.1-6.1,2.4-1.7,5.1-3.1,7.8-4.2,0,.4-.3.6-.5.8-.8.7-1.7,1.3-2.5,2-5,4.4-9.1,9.8-12,15.8-2,4.1-3.3,8.6-3.7,13.2-.4,4.6,0,9.3,1.5,13.7,1.5,4.3,3.6,8.2,6.4,11.8,2.8,3.5,6,6.7,9.6,9.5,4.3,3.4,9.1,6,13.7,9,2.5,1.6,5,3.1,7.6,4.6,1.1.8,2.5,1.2,3.9,1-2.4-1.1-4.5-2.3-6.6-3.4-3.2-1.9-6.4-3.9-9.4-6.1-2.2-1.6-4.4-3.4-6.4-5.3-1.9-1.8-3.7-3.7-5.4-5.8-2.1-2.6-3.9-5.5-5.4-8.5-1-2.2-1.9-4.5-2.5-6.9.1-1.8.8-3.5,1.9-4.9v.4Z"/>
        <path class="cls-7" d="M35.5,144.5c.7,2.4,1.5,4.6,2.6,6.9,1.5,3,3.3,5.9,5.4,8.5,1.7,2.1,3.5,4,5.4,5.8,2,1.9,4.2,3.7,6.4,5.3,3,2.2,6.2,4.2,9.4,6,2.1,1.2,4.2,2.3,6.6,3.4-1.4.2-2.8-.2-3.9-1-2.5-1.5-5.1-3-7.6-4.6-4.6-3-9.4-5.5-13.7-9-3.6-2.8-6.8-6-9.6-9.5-2.8-3.5-5-7.5-6.5-11.7-1.4-4.4-2-9.1-1.5-13.7.4-4.6,1.7-9,3.7-13.2,3-6,7.1-11.4,12.1-15.8.8-.7,1.7-1.4,2.5-2,.3-.2.5-.4.5-.8h0c.2,0,.3,0,.4-.2h0c.2,0,.3,0,.4-.2,1.2-.6,2.5-1,3.7-1.3,2.4-.7,4.9-1.3,7.5-1.6l-.3-.3c6.7.8,13,3.7,17.9,8.4.7.6,1.3,1.4,1.8,2.2-4.1-1.4-8.5-1.9-12.9-1.4-5.3.6-10.3,2.8-14.3,6.3-4.3,3.8-7.4,8.8-8.6,14.4-.2,1.3-.4,2.5-.8,3.7-.3,0-.3-.3-.4-.6-.2-3.7.5-7.3,2-10.7,2.1-4.6,5.2-8.6,9.1-11.8.2-.2.6-.4.6-.8-.2-.1-.4-.1-.7,0-4.6,1-8.8,3.4-11.9,7-2.4,2.6-4.4,5.6-5.8,8.8-1.5,3.6-2.4,7.4-2.5,11.3-.1,3.3.2,6.5,1,9.7.4,1.7.9,3.4,1.6,5,.1-.8.3-1.7.5-2.5Z"/>
        <path class="cls-6" d="M65.8,183.5c2.7,1.2,5.4,2.3,8.2,3.5,3.7,1.5,7.6,2.7,11.4,3.9,1.3.3,2.5.9,3.7,1.6.4.3.8.6,1.1,1,0,.5-.3.9,0,1.4,1.7,1.4,3.8,2.4,6,2.9.2,0,.5,0,.6.3-1.6-.2-3.2-.1-4.8-.2-.1,0-.2-.1-.3-.2-2.7-.5-5.5-.6-8.2-.3-2,0-4,.6-5.7,1.7-.7.4-1,1.2-.8,1.9.4.5.8.8,1.3,1.1,1.5.7,3.1,1.1,4.7,1.3.8.2,1.6.3,2.3,0,.9.4,1.9.8,2.8,1,0,.3-.2.3-.4.3-5.2.2-10.4-.3-15.5-1.5-1.4-.3-2.7-.9-3.8-1.7-1-.9-.9-1.7.3-2.2,1.2-.5,2.6-.8,3.9-.8.8,0,1.6,0,2.4,0,.2-.7-.3-1-.7-1.2-1.3-.6-2.7-1-4.1-1.1-.9-.1-1.8-.2-2.7-.2-.3,0-.5,0-.6-.3.4-.5,1.1-.6,1.2-1.4-.1-.7-.8-1-1.4-1.3-2.8-1.5-5.9-2.4-9.1-2.5-.4,0-.7,0-1,.2-.3.6,0,1,.4,1.3,1,.9,2.1,1.7,3.2,2.4-1.6-.3-3.2-.8-4.8-1.3-5.5-1.9-10.5-4.7-15-8.4-1.8-1.4-3.4-3.2-4.6-5.1,0,0-.2-.2-.2-.3-.2-.6-.8-1.2-.2-1.9s1.3-.3,1.9,0c1,.4,1.9,1,2.5,1.9,1.1,1.3,2.4,2.3,3.9,3.1l.9.5c1.2,1,2.5,1.7,4,2.2,3.5,1.5,7.2,2.7,11,3.4,2.3.6,4.6.8,6.9.9,1,0,2,0,2.5-1.1s-.2-1.9-1-2.6l-2.1-1.9v-.2ZM69.8,191.2c2.1,3.3,13.3,5.1,15.7,2.6-.2-.2-.5-.3-.8-.3-1.4-.2-2.8-.5-4.1-.7-3-.5-5.8-1.5-8.8-2.2-.7-.2-1.4,0-1.9.5h0Z"/>
        <path class="cls-3" d="M58.9,95.6l.3.3c-2.5.3-5,.8-7.4,1.6-1.3.3-2.5.8-3.7,1.4-.2,0-.3,0-.4.2h0c-.2,0-.3,0-.4.2h0c-2.8,1-5.4,2.4-7.8,4.2-2.6,1.8-5,3.8-7.1,6.1-5.4,5.6-9,12.7-10.3,20.3-.5,3.4-.5,6.9,0,10.3.6,3.3.9,6.6,1.1,9.9,0,.4.1.8-.3,1.1-.5,0-.6-.5-.8-.8-1.2-1.9-2.2-3.9-3-6,0-.2-.2-.3-.3-.5h0c0-.3,0-.7-.2-.9-.3-1.4-.6-2.9-.9-4.3-.1-.9-.6-1.6-1.3-2.2-.7-.4-1.2-1.2-1.3-2.1,2.4-.2,2.5-2,2.6-3.8.5-8.2,3.7-15.3,8.6-21.6,3.1-4.1,7.4-6.9,11.9-9.3,4.1-2.2,8.5-3.6,13.2-4.1,2.6-.3,5.1-.2,7.7.1Z"/>
        <path class="cls-2" d="M76,114.5c-1.7-.9-3.6-1.6-5.5-1.9-4.3-.4-8.1.4-10.9,3.9-.8,1.1-1.4,2.4-1.5,3.8-.9,1-1.8,2.1-2.4,3.2h-1c-.7-.4-1.4,0-2.1,0-3.1.3-5.4,3.1-5.1,6.2,0,.3,0,.6.1.8.2.5.3,1,.4,1.6-.3,2.1-.1,4.3.6,6.3.3,1.2.7,2.3,1.4,3.2h0c0,.2,0,.4.2.6.2.8.5,1.7.8,2.5-.7-.4-1.2-.9-1.7-1.5-1.3-1.6-2.4-3.4-3.2-5.2l-.2-.2v-.3c0-.2,0-.3,0-.5-1.1-2.9-1.6-6.1-1.5-9.2,0-4.6,1.8-9.1,5.1-12.3,3.8-4,9.1-6.2,14.6-6.3,1.1,0,2.1.3,3.1.2,2,.3,3.9,1,5.6,2.1,1.3.7,2.4,1.7,3.2,2.9Z"/>
        <path class="cls-1" d="M158.1,171.2c-4.4,0-8.7.6-12.9,1.8-4.2,1.2-8.4,2.4-12.6,3.2-2.5.5-5,.9-7.6,1.1,3.6-1,7.1-2.2,10.6-3.4,4.1-1.3,8.1-2.7,12.2-3.7,1.2-.3,2.5-.5,3.8-.5,1.8,0,3.6,0,5.4-.2.3,0,.7-.1,1-.2l.8-.9c6.3-.3,12.7-.8,19.1-.8,9.5.9,18.6,2.9,26.7,8.3,1.8,1.1,3.4,2.5,4.8,4-3.1-1.7-6.3-3.2-9.6-4.3-3.3-1.1-6.8-1.4-10.2-2.2.9-.7,1.9-.2,2.9-.6-.2-.4-.6-.6-1-.7-2.8-1-5.7-1.7-8.6-2-2.2-.3-4.5-.4-6.7-.4-1.6,0-3.2.2-4.7.6-.6.1-1.2.2-1.8.2-3.5-.2-7.1,0-10.6.7-.3,0-.7,0-1,0Z"/>
        <path class="cls-5" d="M140.4,183.8c-2.9.9-6,1.5-8.9,2.2-.5.1-1.1-.1-1.4.3-2.3.2-4.5,1.1-6.8.5-.3-.2,0-.6-.5-.7-4.6,1.6-9.4,2.1-14.3,2.7-3.4,0-6.8-.8-9.7-2.5-1.3-.7-1.4-.9-1.8-1.6.8-.4,1.8-.6,2.7-.5,1.3.2,2.7.3,4,.3,2.4.3,4.8.3,7.3.2,4.9-.3,9.8-1.5,14.4-3.4,1.1-.6,2.2-1.1,3.4-1.5.8-.2,1.7-.3,2.5-.2.5.2.8.6.8,1.2-1.1.5-2.2,1.1-3.2,1.6-.5.2-.9.5-1.2,1,1.1,0,2.1,0,3.1-.4,3-.7,6-1.2,9.1-1.4,1.7-.2,3.4-.2,5.1-.2.4,0,.8,0,1.1.3-1.3.9-2.8,1.6-4.3,1.9-.2,0-.5,0-.6.2-.1.1-.3.2-.5.2Z"/>
        <path class="cls-4" d="M260.9,171.1c-.5,2,.5,3.8,1,5.7-.8-.7-1.6-1.4-2.4-2.2-4.6-4.2-9.8-7.8-15.5-10.5-3.9-1.8-8-3.1-12.3-3.8h-.7c5,2,9.5,4.4,13,8.4v.3c-.1,0-3.4-1.2-3.4-1.2-.5-.2-1-.4-1.5-.5-.3,0-.7-.2-.8.3-.3,0-.5-.2-.8-.3-2.8-1.6-5.7-2.9-8.7-4.1-2.4-1-4.8-1.9-7.2-2.8q-.2-.3-1-.6v-1c.5-.7,1.4-1.1,2.3-1.1.4,0,.8.2,1.2-.2,1.7.3,3.4.3,5.1.5,4.5.7,8.9,1.9,13.1,3.7,4.4,1.8,8.6,4.2,12.3,7.1,1,.8,1.6.7,2.2-.3,1.5.6,3,1.5,4.2,2.5Z"/>
        <path class="cls-1" d="M223.9,157.5c-.3.3-.8.2-1.2.2-.9,0-1.8.4-2.3,1.1v1c0,0-.2,0-.3,0-6.7-2.8-13.9-4.1-21.2-3.9-4.2-.1-8.4,0-12.6.7-4,.6-7.9,1.5-11.8,2.4-3,.8-6,1.8-9,2.7-1.6.5-3.1,1.1-4.7,1.6-.1,0-.3,0-.4,0,2.7-1.9,5.5-3.5,8.6-4.8,5.2-2,10.7-3.4,16.2-4.1,5.3-.7,10.6-.9,15.9-.7,7.6.3,15.2,1.6,22.5,3.9,0,0,.1,0,.2.1Z"/>
        <path class="cls-8" d="M67.1,109.5c-1.1,0-2.1-.2-3.1-.2-5.5,0-10.8,2.3-14.6,6.3-3.3,3.3-5.1,7.7-5.1,12.3,0,3.1.4,6.2,1.5,9.2,0,.2,0,.3,0,.5-.4,0-.6-.3-.8-.6-.7-.9-1.5-1.8-2.3-2.7-.7-1.6-1-3.4-.8-5.2.3-1.2.6-2.5.8-3.7,1.3-5.6,4.3-10.6,8.6-14.4,4-3.5,9-5.7,14.3-6.3,4.3-.5,8.7,0,12.9,1.4.6.5,1.1,1.2,1.3,1.9-.4,0-.7,0-1-.3-2.3-1.2-4.9-1.8-7.4-1.5-2.1.2-4,1.3-5.3,3,.4.2.8,0,1.1.3Z"/>
        <path class="cls-6" d="M67.1,109.5c-.3-.3-.7,0-1.1-.3,1.3-1.7,3.2-2.8,5.3-3,2.6-.3,5.2.2,7.4,1.5.3.2.6.3,1,.3h0l.2.2c2.9,4.6,3.6,10.2,2,15.4-.2-1.1,0-1.9-.3-2.7-.3,0-.2.4-.5.5,0,0-.2,0-.2-.2-.8-2.7-2.5-4.9-4.8-6.5l-.2-.2h0c-.8-1.3-1.9-2.3-3.2-2.9-1.7-1-3.6-1.7-5.6-2Z"/>
        <path class="cls-1" d="M221.4,160.4c2.4.9,4.8,1.8,7.2,2.8,3,1.2,5.9,2.6,8.7,4.1.3.1.5.2.8.3,2.7,1.6,5.3,3.4,7.7,5.4,2.8,2.4,5.5,4.9,7.1,8.3.4.6.6,1.3.5,2-.9-1.5-2.2-2.7-3.8-3.5,0-.3-.2-.4-.4-.6-1.5-1.6-3.1-3.1-4.8-4.4-1.8-1.5-3.9-2.7-6.2-3.5-.6-.2-1.2-.5-1.8,0-.9-.4-1.8-.9-2.6-1.6-1-1-2-1.9-3.2-2.6-2.4-1.5-4.9-2.8-7.6-3.8-1.6-.7-2.9-1.9-4.4-2.6-1.6-.7-3.3-1.3-5-1.8-.3,0-.3,0-.2-.4.2,0,.5,0,.7,0,2.5.5,5,1.1,7.4,1.8Z"/>
        <path class="cls-6" d="M42.8,134.3c.8.9,1.5,1.8,2.3,2.7.2.3.4.6.8.6,0,.1,0,.2,0,.3l.2.2c.9,1.9,2,3.6,3.2,5.2.4.6,1,1.2,1.7,1.5,1.3,4.5,3.7,8.6,7,12l-1,.9c.5,2,2.4,2.9,3.5,4.3-.9,0-1.3-.7-1.9-1.1-3-2.2-5.6-4.9-7.9-7.9-2.4-3.1-4.4-6.5-5.9-10.1-.6-1.2-1-2.4-1.2-3.7.8.6,1.2,1.6,2.1,2.2,0,.2,0,.3.2.4h0c0-.2,0-.3-.2-.4,0-.4-.2-.8-.4-1.1-1.1-1.9-1.9-3.9-2.5-6Z"/>
        <path class="cls-8" d="M43.5,139.3c.2,1.3.6,2.5,1.2,3.7,1.5,3.6,3.5,7,5.9,10.1,2.3,3,4.9,5.6,7.9,7.9.6.4,1.1,1.2,1.9,1.1h0c0,.6.5.7,1,.8h0c.1.3.4.6.8.6,2.2,1.5,4.4,2.8,6.7,4-2.1-.2-4.2-.7-6.2-1.5-.4-.1-.7-.5-1.1-.2-1.4-.8-2.6-1.7-3.9-2.7-2.8-2-5.3-4.4-7.5-7-3.4-3.9-6-8.4-7.6-13.3-.8-2.1-1.4-4.3-1.7-6.5h0c.9.8,1.8,1.7,2.5,2.7l.2.2h0Z"/>
        <path class="cls-7" d="M79,185.5c.6,0,1.2,0,1.7.3,2.5,1,5.1,1.9,7.7,2.7,3.5,1,7.2,1.8,10.8,2.4,1.4.2,2.9.5,4.3.7,2.9.4,5.8.7,8.6.9.7.2,1.5.1,1.9.8,0,.6-.6.7-1,.8-3.3,1-6.7,1.2-10.1.8h-.7c-.5-.3-1-.1-1.5-.2l-5-1.5c-1.4-.3-2.7-1-3.7-2-.6-.5-1.2-.8-2-.9-3.4-1.1-6.8-2.5-10-4-.4-.2-.9-.3-1.2-.8h0Z"/>
        <path class="cls-5" d="M50,141.8c-.7-1-1.1-2.1-1.4-3.2-.7-2-.9-4.2-.6-6.3,0-.5-.1-1.1-.4-1.6-.8-3,1.1-6.1,4.1-6.9.3,0,.5-.1.8-.1.7,0,1.4-.4,2.1,0-.2,0-.5,0-.8.2-1.5,2.6-2.2,5.7-1.9,8.8.4,3.1,1.6,6.1,3.3,8.6.4.6.6,1.5,1.4,1.8h0c0,.2,0,.3.2.4h0l.2.2h0c0,.2,0,.3.2.4h0c0,.2,0,.3-.2.4h0l-.2-.2c-3.4-3.1-6.3-6.6-7.5-11.2-.2,1.7-.1,3.4,0,5.1.1,1.2.3,2.5.5,3.7Z"/>
        <path class="cls-7" d="M44.4,173c1.1.6,2.2,1.4,3.1,2.3,1.9,1.4,3.8,2.7,5.8,4,1.3.9,2.7,1.8,4,2.8.5.3.8.8.9,1.4-.9.5-1.7,0-2.5-.1-2.5-.5-4.9-1.3-7.1-2.4-.2-.1-.5-.2-.7-.1-1.6-1-3.2-1.9-4.7-2.9-1.5-1.1-2.7-2.5-3.4-4.2,1.7.3,3.4,1.2,4.7-.6Z"/>
        <path class="cls-4" d="M235.6,180.6c-1.2-.7-2.3-1.6-3.2-2.5-4-3.2-8.6-5.6-13.5-6.9-2.3-.6-4.4-1.9-6-3.7-.1-.4-.1-.8,0-1.2.7,0,1.4,0,2,.4,7.1,2.2,13.5,5.4,18.6,11,.9.9,1.6,1.9,2.2,3h0Z"/>
        <path class="cls-1" d="M246.3,157.3c2.7.7,5.4,1.6,7.9,2.7,4.9,2.1,9.6,4.6,14,7.6,1.5,1,2.4,2.6,3.7,3.9-8.4-5.3-17.2-10-26.3-13.8,0-.6.5-.3.8-.4Z"/>
        <path class="cls-5" d="M85.1,203.4c-.8.2-1.6.1-2.3,0-1.6-.1-3.2-.6-4.7-1.3-.5-.2-1-.6-1.3-1.1-.2-.7.1-1.5.8-1.9,1.7-1.1,3.7-1.7,5.8-1.8,2.7-.3,5.5-.2,8.2.3.1,0,.2,0,.3.2l-3.5.4c-2.5-.6-6.8.8-7.4,2.4.6.8,1.6,1.4,2.6,1.4.4.6.9,1.1,1.5,1.4Z"/>
        <path class="cls-6" d="M56.8,142.9c-.8-.4-1.1-1.2-1.4-1.8-1.8-2.6-2.9-5.5-3.3-8.6-.3-3,.3-6.1,1.9-8.8.2-.2.5-.1.8-.2h1c-2.4,4.8-2.7,10.5-.6,15.5.5,1.4,1.2,2.6,1.8,4Z"/>
        <path class="cls-4" d="M236.3,171.2c.6-.4,1.2,0,1.8,0,2.2.8,4.3,2,6.2,3.5,1.7,1.3,3.4,2.8,4.8,4.4.2.2.4.3.4.6-1-.2-2.1-.4-3.1-.5-2.5-2.5-5.3-4.8-8.2-6.8-.6-.5-1.3-.9-1.9-1.4Z"/>
        <path class="cls-4" d="M236.3,155q-2.3-.3-3.2,1.1c-4.2-1.8-8.7-2.1-13.2-2.4,2-1.3,13.6-.4,16.4,1.3Z"/>
        <path class="cls-4" d="M271.8,177.9c.9.1,1.3.8,1.9,1.4,1.1,1.1,2.4,2,3.9,2.6-.3,0-.6,0-.9.2,1.3,1.1,2.6,2.2,3.9,3.3,1,.7,1.8,1.6,2.4,2.6l-2.7-1.7c-1-.7-2.1-1.1-3.3-1.4-.4,0-.8-.4-1-.7-1.2-2.1-2.6-4.2-4.1-6.1,0,0,0-.2,0-.3h0Z"/>
        <path class="cls-1" d="M138.5,195.9c-3.8,1.7-7.9,2.8-12,3.1.1-.5.4-.5.7-.6,1.8-.6,3.4-1.4,5-2.4.2-.2.5-.3.8-.3h5.2c.2,0,.3,0,.4.2Z"/>
        <path class="cls-7" d="M83.6,202.1c-1,0-2-.6-2.6-1.4.6-1.7,4.9-3.1,7.4-2.4-1.3.3-2.5.9-3.6,1.5-.8.5-1.3,1.4-1.2,2.3Z"/>
        <path class="cls-1" d="M260.9,171.1c-1.3-1-2.8-1.9-4.3-2.5,0-.3-.1-.6-.2-.9.8.1,1.5.4,2.2.7,2.3.9,4.5,2.3,6.3,4,0,.1.2.3.2.4h0c-.9-.4-1.8-.9-2.7-1.3-.5-.3-1-.4-1.5-.4Z"/>
        <path class="cls-1" d="M283,188c-.6-1-1.4-1.9-2.4-2.6-1.2-1.2-2.6-2.2-3.9-3.3.3-.3.6-.1.9-.2h0c.1.2.4.2.6.2,2,1.4,3.7,3.1,5.1,5.1.7.9,1.2,1.8,1.7,2.7-.4-.4-.7-.7-1.1-1.1,0-.3-.3-.5-.6-.6h0c0-.2-.2-.2-.4-.2h0Z"/>
        <path class="cls-4" d="M99.3,198.4c2.4.3,4.8.5,7.1.5-.5.3-1.1.2-1.6.3-1,.2-1.8.6-1.8,1.8-1.5.5-2.4,0-2.7-1.8-.3-.4-.8-.5-1.1-.8Z"/>
        <path class="cls-6" d="M244.4,157.2l-2.5-.8c1.1,0,2.1.1,3.1.6-.2,0-.5,0-.6.2Z"/>
        <path class="cls-4" d="M57.1,144.3c.2,0,.2-.2.2-.4.4.4.8.9,1,1.4-.5-.2-.9-.6-1.2-1.1Z"/>
        <path class="cls-4" d="M114.5,197.8c0-.2-.3-.2-.4-.2.7-.3,1.4-.4,2.1-.3-.5.3-1.1.5-1.7.6Z"/>
        <path class="cls-6" d="M246.3,157.3c-.3,0-.7-.2-.8.4-.2,0-.5-.1-.6-.3.2,0,.4-.1.4-.4.4,0,.7.1,1,.3Z"/>
        <path class="cls-6" d="M100.9,194.7c.5,0,1.1-.1,1.5.2h-1.9l.4-.2Z"/>
        <path class="cls-1" d="M245.4,157c0,.3-.2.4-.4.4l-.6-.2c.1-.3.4-.2.6-.2h.3Z"/>
        <path class="cls-6" d="M61.4,162.9c-.5,0-.9-.2-1-.8.4.1.8.4,1,.8Z"/>
        <path class="cls-6" d="M62.2,163.5c-.3,0-.6-.2-.7-.5.3,0,.6.2.7.5Z"/>
        <path class="cls-1" d="M18.4,142.7c.3.3.2.6.2.9-.3-.3-.2-.6-.2-.9Z"/>
        <path class="cls-4" d="M283.3,188.3c.3,0,.5.3.6.6-.3,0-.5-.3-.6-.6Z"/>
        <path class="cls-5" d="M50.2,142.4c-.2-.1-.2-.4-.2-.6.2,0,.2.3.2.6Z"/>
        <path class="cls-4" d="M141,183.6c.1-.3.4-.2.6-.2-.2.2-.4.2-.6.2Z"/>
        <path class="cls-4" d="M278.2,182.1c-.2,0-.5,0-.6-.2.2,0,.4,0,.6.2Z"/>
        <path class="cls-4" d="M235.8,180.9c-.1,0-.2-.2-.2-.4h0c.2,0,.2.2.2.4h0Z"/>
        <path class="cls-8" d="M69.2,167.5c-.2.2-.3.1-.4,0h.4Z"/>
        <path class="cls-4" d="M57.4,143.9c-.2,0-.3-.2-.2-.4.2,0,.2.2.2.4Z"/>
        <path class="cls-4" d="M283,188c.2,0,.3,0,.4.2-.2,0-.3,0-.4-.2Z"/>
        <path class="cls-6" d="M57,143.3c-.1,0-.2-.2-.2-.4.2,0,.2.2.2.4Z"/>
        <path class="cls-4" d="M271.8,177.9l-.2-.2h0l.2.2h0Z"/>
        <path class="cls-1" d="M265.1,172.9s0,0,0,0,0,0,0,0Z"/>
        <path class="cls-4" d="M57,144.1l.2.2-.2-.2Z"/>
        <path class="cls-4" d="M57.1,143.5l-.2-.2.2.2Z"/>
        <path class="cls-8" d="M80,108.2l-.2-.2.2.2Z"/>
        <path class="cls-2" d="M75.9,114.5l.2.2-.2-.2Z"/>
        <path class="cls-2" d="M40.8,136.4c.3,2.2.9,4.4,1.7,6.5,1.7,4.9,4.3,9.4,7.6,13.3,2.2,2.6,4.7,4.9,7.5,7,1.3.9,2.6,1.9,3.9,2.7,6.9,4.2,14.4,7.3,22.2,9.3,0,.3-.2.4-.4.4-9.4-2-18.3-5.7-26.3-11.1-7.4-5.1-13.4-11.9-17.5-19.9-.6-1.5-1.4-3-2.2-4.4v-.4c-1.1,1.4-1.7,3.1-1.8,4.9-.2.8-.4,1.6-.5,2.5-.7-1.6-1.2-3.3-1.6-5-.8-3.2-1.1-6.5-1-9.7.2-3.9,1-7.7,2.5-11.3,1.4-3.3,3.3-6.3,5.8-8.8,3.1-3.5,7.3-5.9,11.9-7,.2,0,.5,0,.7,0,0,.4-.3.6-.6.8-3.9,3.2-7,7.3-9.1,11.8-1.5,3.4-2.2,7-2,10.7,0,.3,0,.5.4.6-.2,1.8.1,3.5.8,5.2.5,2.1,1.3,4.1,2.4,6,.2.3.4.7.4,1.1h0c-.9-.5-1.3-1.6-2.1-2.2h0l-.2-.2c-.7-1-1.5-1.9-2.5-2.7,0,0,0-.2-.2-.2l.2.2Z"/>
        <path class="cls-7" d="M83.4,175.4c.2,0,.4-.1.4-.4l7.2,1.7c.2,0,.3,0,.5,0v.3c-2.7-.3-5.4-.8-8.1-1.6Z"/>
        <path class="cls-8" d="M91.5,177v-.2l2.4.5c-.8.1-1.6,0-2.4-.3Z"/>
        <path class="cls-1" d="M94.1,177.4c0,0,.2-.1.2,0,0,0,0,0,0,0,0,.1-.2.1-.3,0Z"/>
        <path class="cls-7" d="M79,185.5h-.5c.2-.2.4-.1.5,0Z"/>
        <path class="cls-1" d="M65.8,183.5v.2l-.3-.2c.2-.3.3-.1.3,0Z"/>
        <path class="cls-8" d="M47.2,99.2c0-.1.2-.2.4-.2,0,.1-.2.2-.4.2Z"/>
        <path class="cls-8" d="M47.6,99c0-.1.2-.2.4-.2,0,.1-.2.2-.4.2Z"/>
        <path class="cls-8" d="M46.1,138.1l-.2-.2.2.2Z"/>
        <path class="cls-2" d="M45.7,141.3c.2,0,.2.2.2.4h0c-.1,0-.2-.2-.2-.4h0Z"/>
        <path class="cls-6" d="M43.3,139.1l.2.2-.2-.2Z"/>
        <path class="cls-8" d="M40.8,136.4l-.2-.2c.2,0,.2.1.2.2h0Z"/>
      </g>
    </g>
  </g>
</svg>