<?xml version="1.0" encoding="UTF-8"?>
<svg xmlns="http://www.w3.org/2000/svg" version="1.1" viewBox="0 0 300 300">
  <defs>
    <style>
      .cls-1 {
        fill: #203968;
      }

      .cls-2 {
        fill: #c59841;
      }
    </style>
  </defs>
  <!-- Generator: Adobe Illustrator 28.6.0, SVG Export Plug-In . SVG Version: 1.2.0 Build 709)  -->
  <g>
    <g id="Layer_1">
      <g>
        <g>
          <path class="cls-1" d="M15,180.2c0-6.9,1-13.7,2.8-20.3,3.3-11.9,8.2-23.3,14.8-33.7,5.6-9.1,12.3-17.4,20-24.7,4.7-4.5,9.9-8.3,15.6-11.4,3.7-2.1,7.8-3.5,12.1-4.1,3.6-.6,7.3-.2,10.7,1.2,3.5,1.6,6.4,4.3,8.1,7.7,1.8,3.3,2.9,6.9,3.4,10.7.5,3.3.6,6.7.4,10.1-.3,6.2-1.4,12.4-3.2,18.4-4.1,14.1-10.6,27.5-19.2,39.4-4,5.6-8.5,10.9-13.4,15.8-5,5-10.7,9.3-16.9,12.7-4.8,2.8-10.2,4.3-15.7,4.4-7.2,0-12.3-3.3-15.7-9.5-1.9-3.7-3.1-7.7-3.4-11.9-.2-1.6-.3-3.1-.3-4.7ZM24.4,172.8c0,1.9,0,3.8.3,5.8.4,3,1.3,5.8,2.7,8.4,2.7,4.7,6.7,7.3,12.2,7.2,3.2,0,6.4-.9,9.4-2.3,6.4-3.1,12.1-7.3,17-12.4,4-4,7.6-8.4,10.7-13.1,6.6-9.5,11.5-20,14.6-31,2-6.7,2.8-13.7,2.3-20.7-.2-3.3-1.1-6.6-2.6-9.5-2.2-4.6-6.9-7.5-12.1-7.4-3.7,0-7.4.9-10.7,2.6-5,2.5-9.6,5.7-13.6,9.5-4.2,3.9-8,8.3-11.3,12.9-7.3,9.9-12.8,21-16.3,32.9-1.7,5.6-2.6,11.4-2.6,17.2h0Z"/>
          <path class="cls-1" d="M237.4,142.7c.4-1.6.7-3.3.9-5,.2-3.3-1.3-5.2-4.4-6-2.6-.6-5.4-.8-8.1-.4-3.6.5-7.2,1.4-10.6,2.8-.4.1-.7.3-1.3.5,1.3-3.3,2.6-6.3,3.9-9.3,2.8-.8,5.7-1.3,8.6-1.7,2.9-.4,5.9-.5,8.9-.3,1.8.1,3.6.5,5.4,1.2,3.4,1.2,5.8,4.2,6.3,7.8.5,2.7.4,5.5-.1,8.2-1.1,6.1-2.3,12.1-3.5,18.1-.8,4.3-1.6,8.7-2.5,13,0,.2,0,.3-.2.6l-7.7.8c-.1-1.7.5-3.2.5-4.9-.5.4-1,.7-1.4,1-3.3,2.4-7.2,3.9-11.3,4.3-3.4.4-6.8,0-9.9-1.3-3.8-1.4-6.5-4.8-7.1-8.8-.8-5,.3-10.1,3-14.3,3.2-5.5,8.8-9.2,15.1-10.1,3.8-.7,7.7-.3,11.2,1.2,1.2.5,2.3,1.2,3.3,2,.2.3.6.5.9.6ZM235.7,154.8c0-3.9-1.6-6.3-4.7-7.6-2.3-.9-4.9-1.1-7.4-.7-5.4.8-9.9,4.5-10.7,10.3-.7,3.7,1.6,7.2,5.3,8.1,3.8,1,7.8.6,11.4-1.2,3.6-1.6,5.9-5,6.1-8.9h0Z"/>
          <path class="cls-1" d="M149.7,124.3c3-.3,5.9-.6,9-.8,0,1.4-.3,2.9-.6,4.2-1.5,8.2-3.1,16.3-4.7,24.5-.5,2.2-.8,4.5-.8,6.8,0,.7,0,1.3.2,2,.5,2.7,2.1,4.2,5.2,4.6,1.9.3,3.9.1,5.7-.4,3.1-.9,5.7-3,7.2-5.9,1.6-2.9,2.6-6.1,3.1-9.4,1.2-6.3,2.4-12.6,3.6-18.9.4-1.9.7-3.9,1.1-5.8,0-.3.2-.6.4-.9l8.9-.8c-.6,4.3-1.5,8.3-2.3,12.3-.7,4-1.5,8.1-2.3,12.1-.8,4.1-1.6,8.2-2.4,12.2-.8,4-1.5,8.1-2.3,12.1l-9.2.8c.4-2.2.8-4.3,1.2-6.5-.6.3-1.1.8-1.5,1.3-2.6,2.6-5.9,4.3-9.4,5.1-3.1.7-6.3.5-9.3-.5-3.8-1.3-5.9-4.1-6.7-7.9-.5-2.7-.6-5.4-.1-8.1.8-5.8,2.1-11.6,3.2-17.4.9-4.8,1.8-9.5,2.7-14.3,0-.1,0-.3.2-.4Z"/>
          <path class="cls-1" d="M144.9,130.1l-6.5,6c-.6-.6-1.2-1.1-1.8-1.6-2.1-1.8-4.8-2.8-7.6-2.9-5-.2-9.9,1.6-13.5,5.1-4.4,3.8-6.9,9.5-6.7,15.4.2,5.4,2.6,9.5,7.7,11.6,2.9,1.1,6.1,1.3,9.1.4,2.7-.8,5.3-2.1,7.5-3.9.3-.2.6-.5,1.1-.8,1.5,2,3.1,4,4.6,6.1-1.5,1.3-3.2,2.5-4.9,3.5-3.3,2.1-7,3.5-10.8,4.1-11.2,1.6-20.1-4.2-23-14.2-1.3-4.7-1.1-9.7.6-14.2,4.2-11.5,12.6-18.5,24.5-20.9,5.1-1.1,10.4-.4,15,2.2,1.8,1.1,3.4,2.5,4.6,4.2Z"/>
          <path class="cls-1" d="M199.2,106.1l9.4-.8c-4.3,22.4-8.6,44.7-12.8,67l-9.4.8c4.3-22.4,8.6-44.7,12.8-67Z"/>
          <path class="cls-1" d="M247.4,173.1c3.1-16.3,6.2-32.5,9.3-48.8l9.2-1.1c-.4,3.3-1.3,6.3-1.6,9.5,5.1-7,11.8-10.7,20.7-10.1l-5.5,9.2c-1.5.1-2.9.3-4.3.6-4.2.9-7.7,3.5-9.9,7.2-2.1,3.6-3.6,7.4-4.4,11.5-1.1,4.8-1.9,9.7-2.9,14.5-.4,2.2-.8,4.4-1.3,6.6l-9.3.9Z"/>
        </g>
        <g>
          <path class="cls-2" d="M106,181.7v-2.4c40.2,0,80.4,0,120.6,0v2.4h-120.6Z"/>
          <path class="cls-2" d="M168,186.4h2.1l.3,3.4c.7-.8,1.6-1.6,2.5-2.2,1-.6,2-1,3.1-1.3,1.1-.3,2.2-.4,3.2-.2,1.1.1,2.2.4,3.3.8,1,.5,1.9,1.1,2.7,1.8,3.4,3.1,4.3,8.1,2.3,12.2-.5,1-1.2,1.9-2,2.7-.8.8-1.8,1.4-2.8,1.9-1,.5-2.1.8-3.2.9-1.1,0-2.2,0-3.3,0-1.1-.2-2.2-.6-3.2-1.2-1-.5-1.6-1.3-2.8-2.1v10.1h-2.3v-26.8ZM186.1,196.3c0-4.4-3.6-7.9-8-7.8-4.4,0-7.9,3.6-7.8,8,0,4.4,3.6,7.8,8,7.8,4.2,0,7.8-3.3,7.9-7.5,0-.2,0-.3,0-.5Z"/>
          <path class="cls-2" d="M122.5,200.1c1,2,2.9,3.5,5.1,3.9,3,.8,5.5-.4,8-2,.5-.3.9-.6,1.5-1v2.8c-1.1,1-2.3,1.7-3.7,2.2-1.8.6-3.7.8-5.5.5-3.2-.3-6.1-2.2-7.6-5.1-1.7-3.1-1.7-6.8,0-9.9,1.3-2.5,3.5-4.3,6.2-5,2.4-.7,5-.5,7.2.5,1.6.8,3,2,3.8,3.6l-2.4,1.7c-4.1,2.5-8.2,4.9-12.3,7.3,0,0-.2.2-.3.3ZM121.6,197.9l12.5-7.5c-1.5-2.2-5.2-2.5-7.5-1.6-3.7,1.4-5.8,5.2-5,9.1h0Z"/>
          <path class="cls-2" d="M209,190.8c-2.5,1.8-5.1,3.1-7.6,4.6-2.5,1.5-5,3-7.5,4.5.6,1.6,1.9,2.8,3.5,3.5,2.4,1.1,5.2,1,7.5-.2,1.2-.7,2.4-1.4,3.6-2.2,0,0,0,1.8.1,2.7-1,1-2.2,1.8-3.6,2.2-2.8,1-5.9.9-8.7-.2-2.5-1-4.4-3.1-5.2-5.7-1.5-3.9-.5-8.3,2.6-11.1,1.4-1.3,3.1-2.2,4.9-2.5,1.7-.4,3.5-.3,5.1.2,2.3.7,4.2,2.2,5.3,4.3ZM193.1,197.9c2.1-1.3,4.2-2.5,6.2-3.7,2-1.3,4.2-2.3,6.2-3.8-1.6-2.2-5.5-2.5-8.4-1.1-3.1,1.6-4.8,5.2-4,8.6h0Z"/>
          <path class="cls-2" d="M103.2,178.8c0,2.6,0,6.1,0,8.7,0,.4,0,1.4,0,1.4.7-.7,1.5-1.3,2.3-1.8,2.4-1.5,6.4-1.4,8.3.4,1.3,1.1,2.2,2.8,2.2,4.6,0,4.6,0,9.5,0,14.1,0,0-1.6,0-2.3,0,0,0,0-.8,0-1.2,0-3.9,0-7.7,0-11.6,0-1.1-.2-2.1-.7-3-1.3-2.3-3.1-2.7-5.6-2.2-2.5.6-4.3,2.9-4.3,5.5.1,4,0,8.5,0,12.5h-2.3v-27.4"/>
          <path class="cls-2" d="M248,186.2s2,2.5,3.1,3.8c1.1,1.3,2.1,2.6,3.1,3.9.4,0,.6-.3.8-.6,1.5-2,3.1-4,4.6-6,.4-.4.7-.8,1.1-1.2l1.9,1.1c-2.1,3-4.5,5.8-6.6,8.8l14.4,18.3h-2.9c-4.4-5.3-8.6-10.9-13.1-16.4-2.4,2.8-4.2,5.7-6.4,8.4,0,0-2.1-1.1-1.9-1.1,2.1-3.2,4.6-6,6.7-9.2-2.3-2.8-4.5-5.6-6.7-8.4l2-1.3Z"/>
          <path class="cls-2" d="M162.3,206.5l-.7-1.8c-1.8,1.7-4.3,2.3-6.7,1.8-1.6-.3-3-1.2-4-2.5-2.2-2.7-2.1-6.6.2-9.3,2.1-2.4,5.6-3.9,10.3-.8.3-.6.5-1.2.3-1.9,0-.6-.1-1.2-.3-1.8-1.1-1.9-2.8-2.2-4.6-2-1.8.2-3.5.7-5.2,1.4l.4-2.4.9-.4c2.7-.7,5.3-1.2,8.1-.2,1.2.4,2.1,1.3,2.5,2.5.3.8.5,1.7.5,2.5,0,4.6,0,10.3,0,14.9M161.9,199.5c.2-2.6-1.8-4.9-4.5-5.1,0,0-.2,0-.3,0-2.8-.1-5.1,2-5.2,4.7-.1,2.8,2,5.1,4.7,5.2.1,0,.2,0,.3,0,2.5.2,4.8-1.7,4.9-4.3,0-.2,0-.4,0-.6Z"/>
          <path class="cls-2" d="M213.6,186.8c0,3.5,0,8,0,11.5,0,1.2.2,2.3.6,3.4.5,1.5,1.8,2.6,3.4,2.8,2,.4,4-.4,5.3-1.9,1-1.1,1.5-2.5,1.5-3.9,0-3.5,0-7.1,0-10.6,0-.4,0-1.2,0-1.7h2.2v19.8h-2.1l-.2-2.3c-.4.2-.7.4-1,.7-2.3,2.3-5.1,2.4-8,1.5-2.1-.7-3.2-2.4-3.7-4.5-.2-.9-.3-1.8-.3-2.7,0-4,0-8,0-12.1"/>
          <path class="cls-2" d="M89.1,181.9h-7.3v-2.6h16.6v2.5h-6.7v24.2c-.7.3-1.4.5-2.2.5-.6-.4-.4-.9-.4-1.4,0-4.6,0-9.1,0-13.7,0-2.7,0-5.4,0-8.1,0-.4,0-.9,0-1.4Z"/>
          <path class="cls-2" d="M231.4,188.8h-2.5v-2.1h2.5v-6h2.7v5.9h4.8v2.2h-5.1s0,.8,0,1.1c0,3,0,6,0,9.1,0,.9.1,1.9.2,2.9,0,1.2,1.1,2.2,2.4,2.1.8,0,1.6,0,2.5,0,0,0,0,2.1,0,2-.4.3-.8.5-1.3.5-1,0-2.1,0-3.1-.4-1.3-.4-2.2-1.4-2.6-2.7-.4-1.3-.6-2.6-.5-4,0-3,0-6,0-9.1,0-.4,0-1.6,0-1.6Z"/>
          <path class="cls-2" d="M142.2,186.7l.3,3.1c1.3-1.6,2.6-3.1,4.5-3.6.8-.3,1.6-.3,2.4-.2l-.6,2.5c-.7,0-1.4.2-2.1.4-1.3.5-2.4,1.5-3.1,2.7-.6,1.2-.9,2.4-1.1,3.7-.3,3.1-.3,6.2-.2,9.3,0,.4,0,1.3,0,1.7h-2.2v-19.6"/>
          <rect class="cls-2" x="241.4" y="179.3" width="2.4" height="2.4" transform="translate(-51.6 250.3) rotate(-50)"/>
          <rect class="cls-2" x="241.5" y="186.4" width="2.3" height="19.9"/>
        </g>
      </g>
    </g>
  </g>
</svg>