<?xml version="1.0" encoding="UTF-8"?>
<svg xmlns="http://www.w3.org/2000/svg" version="1.1" viewBox="0 0 300 300">
  <defs>
    <style>
      .cls-1 {
        fill: #7c8eba;
      }

      .cls-2 {
        fill: #a8b3d2;
      }

      .cls-3 {
        fill: #a4b0d1;
      }

      .cls-4 {
        fill: #95a4c8;
      }

      .cls-5 {
        fill: #6d83b4;
      }

      .cls-6 {
        fill: #95a3c8;
      }

      .cls-7 {
        fill: #a8b3d3;
      }

      .cls-8 {
        fill: #8e9ec5;
      }

      .cls-9 {
        fill: #afb8d6;
      }

      .cls-10 {
        fill: #fcfcfc;
      }

      .cls-11 {
        fill: #9eabcd;
      }

      .cls-12 {
        fill: #8497c0;
      }

      .cls-13 {
        fill: #8798c0;
      }

      .cls-14 {
        fill: #fff;
      }

      .cls-15 {
        fill: #8395bf;
      }

      .cls-16 {
        fill: #7388b7;
      }

      .cls-17 {
        fill: #8093bd;
      }

      .cls-18 {
        fill: #b5bed8;
      }

      .cls-19 {
        fill: #8b9cc3;
      }

      .cls-20 {
        fill: #8a9ac2;
      }

      .cls-21 {
        fill: #9ba8cb;
      }

      .cls-22 {
        fill: #8294bf;
      }

      .cls-23 {
        fill: #b5bfd8;
      }

      .cls-24 {
        fill: #7c8fbc;
      }

      .cls-25 {
        fill: #7186b6;
      }

      .cls-26 {
        fill: #8b9bc2;
      }

      .cls-27 {
        fill: #7d90bc;
      }

      .cls-28 {
        fill: #6a80b1;
      }

      .cls-29 {
        fill: #b5bed9;
      }

      .cls-30 {
        fill: #6e84b4;
      }

      .cls-31 {
        fill: #8495bf;
      }

      .cls-32 {
        fill: #657dad;
      }

      .cls-33 {
        fill: #9aa7ca;
      }

      .cls-34 {
        fill: #64789f;
      }

      .cls-35 {
        fill: #778bb9;
      }

      .cls-36 {
        fill: #b6bfd9;
      }

      .cls-37 {
        fill: #7c8fbb;
      }

      .cls-38 {
        fill: #9f2142;
      }

      .cls-39 {
        fill: #7689b8;
      }

      .cls-40 {
        fill: #647eaf;
      }

      .cls-41 {
        fill: #899ac2;
      }

      .cls-42 {
        fill: #96a4c8;
      }

      .cls-43 {
        fill: #11508f;
      }

      .cls-44 {
        fill: #657eaf;
      }

      .cls-45 {
        fill: #afb9d6;
      }

      .cls-46 {
        fill: #94a2c7;
      }

      .cls-47 {
        fill: #b0b9d6;
      }

      .cls-48 {
        fill: #7b8ebb;
      }

      .cls-49 {
        fill: #8f9fc5;
      }

      .cls-50 {
        fill: #768ab8;
      }

      .cls-51 {
        fill: #6a81b2;
      }

      .cls-52 {
        fill: #a1aecf;
      }

      .cls-53 {
        fill: #94a3c8;
      }
    </style>
  </defs>
  <!-- Generator: Adobe Illustrator 28.6.0, SVG Export Plug-In . SVG Version: 1.2.0 Build 709)  -->
  <g>
    <g id="Layer_1">
      <g>
        <path class="cls-43" d="M190.4,131.7c1.5,2.8,3.2,5.4,4.3,8.3,6.3,15.6,4.7,30.5-4.5,44.5-.4.6-.7,1.1-1.3,2,.5,0,1.1-.2,1.6-.4,10.9-4,21.5-8.5,31.5-14.6,1.1-.6,2.1-1.2,3.2-1.8,3.2-1.7,6.4-1.2,9.8.1-2.3,1.1-4.5,2-6.4,3.2-7.3,4.5-14.7,9.1-21.9,13.8-8.5,5.5-16.9,11.1-26,15.6-7.2,3.7-14.9,6.3-22.8,7.9-13.8,2.6-26.8.3-39-6.7-9.2-5.2-16.8-12.2-23.7-20.2-8-9.2-14.7-19.3-20.8-29.8-.4-.7-.9-1.3-1.3-2h0c.5.3,1.1.7,1.5,1.1,4.8,5.6,10.1,10.8,15.9,15.5,11.8,9.6,24.7,17,39.5,21.1,6.7,2,13.8,2.9,20.8,2.8,10.9-.4,21.3-2.9,29.8-10.2,14.2-11.9,18.4-32,10.3-48.6-.2-.5-.3-1-.3-1.6h0Z"/>
        <path class="cls-38" d="M230.4,147.8c-.4-.4-.9-.8-1.3-1.2-11.8-13.8-25.8-24.6-42.4-32.1-8.1-3.8-16.8-6.2-25.7-7.2-10.6-1.1-21,0-30.6,5-12.9,6.8-20.2,17.7-21.7,32.3-.8,7.6.8,14.7,4.1,21.5.3.6.5,1.2.7,1.9h0c-3.8-5-6.4-10.8-7.6-16.9-2.9-13.4-.3-25.8,7.5-37.1.2-.3.4-.6.6-.9,0,0,0-.2,0-.5-2.4,1-4.8,1.9-7.2,3-9.6,4.1-18.7,9.2-27.2,15.2-1.1.8-2.2,1.4-3.3,2.1-2.6,1.7-5.9,1.9-8.7.6-.9-.4-1.8-.8-2.7-1.2,0-.2.1-.4.2-.4,9.4-3.6,17.7-9.2,26-14.7,9.7-6.4,19.3-12.9,29.6-18.2,7.9-4.1,16.2-7.3,24.9-9,15.8-3,30.3.1,43.6,8.9,8.3,5.5,15.2,12.3,21.5,19.9,7.3,8.8,13.4,18.3,19,28.2.2.3.3.7.4,1h0Z"/>
        <g>
          <path class="cls-44" d="M159.8,124.7c10.7,3.4,17.3,10.7,19.2,21.8,2.5,14.6-6.9,27.7-20.9,30.9-1.1.4-2.3.5-3.5.5-1.7-.2-3.4-.2-5.1,0-11.9-.9-22.1-10.3-24.2-22.2-.5-2.3-.6-4.6-.3-7,.3-.3.3-.9.9-1.1.8.3.6,1.2.9,1.8.4,2.2,0,4.4.5,6.6.6,2.8,2.1,5.2,3,7.8.2.6.5,1.2.7,1.8,1.9,1.7,3.8,3.5,5.7,5.2.2.1.4.3.6.4.3.2.6.4.8.5.2.1.4.3.7.4,1.1.6,2.2,1.1,3.3,1.6.4.1.8.3.3.9,1.8-.4,3.3.6,5,.9,3.2.6,6.5.6,9.7,0,.5-.2,1-.2,1.4-.1.2,0,.4.2.5.4,0-.1,0-.3,0-.4,2-1,4.2-1.5,5.8-3.2,1.2-1.4,2.7-2.5,4.4-3.3,2.3-1.2,3.1-3.8,5-5.5.2-2.5,2.4-4.6,2.5-7.4,0-2.6,1-5.2.8-7.8-1.2-1.3-.8-3-.8-4.5,0-.2.2-.3.2-.5-.1,0-.2.2-.4,0-.7-.5-1.1-1.3-1.3-2.1-.6-1.9-1.6-3.6-3-5.1-.1,0-.2-.2-.3-.4,0-.5-.3-.9-.7-1.1-.1-.1-.2-.2-.4-.3-1.8-1.7-3.8-3.3-5.7-4.9-2.2-1.2-4.3-2.4-6.8-2.9-.9,0-1.8-.6-2.3-1.4.1-.8.7-.6,1.2-.6.8.1,1.6.5,2.5.3Z"/>
          <path class="cls-40" d="M126.4,149.4c-.6-.4-.2-1-.5-1.6-.4.2-.4.9-1,.8v-.8c.2-.3,0-.7.4-.9.2-.2,0-.5,0-.8,0-1.1.4-2.1.5-3.1.7-3,2.1-5.8,3.9-8.2,3.1-4.5,7.6-7.8,12.7-9.5.2-.1.5-.2.8-.2,1.3,0,2.4-1.1,3.8-.5-.2.5-.2,1,0,1.5-.3.2-.6.3-1,.2-.8-.2-1.4-.2-1.9.6-1,.6-2.2,1.1-3.4,1.3-.3,1.2-1.5,1.4-2.5,1.8-.1,0-.3,0-.4-.1-.2,0,0-.3-.2-.4,0,.3.3.5.1.8-.9.8-2.2,1.2-2.6,2.6-1.2.5-2.2,1.4-2.8,2.5-1.2,2.2-2.9,4.1-3.7,6.5-1.2,1.7-1.4,3.8-1.8,5.8-.1.6,0,1.2-.5,1.7Z"/>
          <path class="cls-32" d="M147.2,125c-.7-.7-1.3.1-2,.1-.5,0-1.1.2-1.7.2-.1,0-.2-.2-.1-.2,0,0,0-.1.1-.1,5.3-1.8,11-1.9,16.3-.3-.6,1-1.4.1-2.1.1-.6,0-1.1-.5-1.6.2,0,0-.1.1-.2.2-.2.1-.5.2-.8.1-.2,0-.4,0-.5-.1-1.4-.2-2.9-.1-4.3.2-1.1.3-2.1.4-3-.4Z"/>
          <path class="cls-51" d="M126.1,143.1c.2,1.3-.5,2.5-.3,3.8,0,0,.1.2,0,.2,0,0,0,.1,0,.1l-.7.7c0-1.7.4-3.3,1-4.9Z"/>
          <path class="cls-34" d="M149.5,177.9c1.7-.5,3.5-.5,5.1,0-1.7.2-3.4.2-5.1,0Z"/>
          <path class="cls-28" d="M143.5,125c0,.1,0,.2,0,.3h-.8c.2-.3.5-.4.8-.3Z"/>
          <path class="cls-25" d="M146.1,126.1h1.1c.5-.4,1.2-.6,1.9-.6,5.4-.2,10.6.3,15.3,3.1.3,0,.5.2.7.4,0,0,.2,0,.3,0,1.6.9,3,2,4.2,3.3.6.6,1.7.8,1.7,1.9h0c.7,0,1,.4.7,1.1-.1.1-.2.3-.3.4-.1,0-.3.1-.5.1-1.9-1.6-3.5-3.5-5.8-4.7-1.2-.7-2.3-1.6-3.8-1.7-2.5-1.3-5.2-1.7-8-2-3.2-.4-6.2.3-9.2,1.3-1,.3-2.1.8-3.1,1.1-2,.4-3.2,2.1-5,2.9-.3.2-.7.2-1,0l-.3-.7c.6-1.2,2.1-1.3,2.9-2.3h0c1.1,0,1.7-1,2.7-1.2l-.2-.6c1.3-.4,2.5-.8,3.8-1.2.5-.4,1.2-.7,1.9-.7Z"/>
          <path class="cls-30" d="M172,135.7l1-.2c0,.8.4,1.5,1,2,1,1.4,1.4,3,2.1,4.6.1.4.4.8.8,1h0c.3,1.4.4,2.8.4,4.3,0,.5.8.2.7.7-.2,1.7.4,3.5-.4,5.2-.6,1.2-.3,2.6-.6,4-.2,1.2-.7,2.4-1.3,3.5-.6,1-1,2-1.1,3.2-.3.2-.4-.2-.4-.2-1.3,2.3-2.6,4.4-4.7,5.7-.2-.3-.8-.4-.8-1.1.6-.7,1.2-1.4,2-2,0,0,.2,0,.2.1.1-.2-.1-.2-.1-.4.8-1.1,1.6-2.2,2.2-3.3,3.1-4.9,3.6-10.2,2.9-15.8-.4-3.5-1.7-6.8-3.8-9.7-.3-.5-.9-.9-.4-1.6h0c0-.1.2-.1.3,0,0,0,0,0,0,0Z"/>
          <path class="cls-5" d="M165,172.4v.9c-2.2.5-3.8,2.2-5.9,2.4-2.8.6-5.7.9-8.6.7-1.5,0-3.1-.3-4.5-.8-1.3-.6-2.7-.4-4.1-.8l.6-.4c-1.5-.4-2.9-1.1-4.2-2-.1-.1-.2-.2-.4-.4-.3,0-.6,0-.7-.4.5-1,1.2-.5,1.9-.2,1.4.8,2.8,1.5,4.3,2.1.7.3,1.5.4,2.3.4,3.8,1.1,7.9,1.3,11.8.5,2-.3,3.8-1.4,5.6-2.2.6-.3,1.4-1.1,1.9.2Z"/>
          <path class="cls-39" d="M165,172.4c-.4-.6-.8-.4-1.3,0-1.1.8-2.3,1.4-3.6,1.8-3.5,1.2-7.2,1.5-10.9,1-1.3-.2-2.6-.5-3.9-.9-.3-.3-1.4.3-1-.9,1-.6,1.9.1,2.9,0,9.3,1.8,16.9-1,23.1-8,.4-.3.8-.4,1-.9,0-.1.1-.3.2-.4,0-.1.2-.2.3-.3,0,0,.1-.1.2-.2.3-.3.6-.7,1.2-.4-.5,1.3-1.3,2.4-2.2,3.3-.6.6-1,1.5-1.9,1.9,0,.4.6.6.4,1.1-1.8.6-2.9,2-4.4,3Z"/>
          <path class="cls-51" d="M126.4,149.4c-.2-2.3.7-4.4,1.1-6.6.2-.5.6-1,1.1-1.2.4,1.8-.6,3.4-.8,5.1-.7,5.2.1,10.5,2.4,15.1,1.6,2.7,3.3,5.3,5.7,7.4.6.5,1.3.9,1.1,1.9,0,0,0,0-.1,0,0,0-.1,0-.2,0-.6,0-1.2-.4-1.5-.9-.6-1-1.5-1.9-2.6-2.4-1-.5-.7-2.2-2-1.8-1.1-2.3-1.6-4.7-2.9-6.6-.2-.3-.3-.6-.3-1-.9-3-1.3-6.1-1.1-9.2Z"/>
          <path class="cls-16" d="M136.8,171.3c.5-.5-.1-.6-.3-.8-1.1-1.1-2.2-2.1-3.2-3.3-1.3-1.4-2.1-3.2-3.2-4.8-.3-.4-.3-.9-.2-1.4,1.1-.5,1,.8,1.6,1.1,2.3,3.7,5.3,6.8,8.9,9.1.7.4,1.5.6,2.2.9.6.3,1.5.4,1.5,1.3.2.5.9.2,1.1.7-.6.4-1.1.1-1.7,0-1.8-.7-3.5-1.5-5.1-2.5-.4-.3-.9-.3-1.3,0l-.4-.4Z"/>
          <path class="cls-28" d="M165,129.1c-.6,0-1.2-.1-1.7-.5-2.6-1.6-5.7-2.5-8.8-2.4-2.4,0-4.8-.3-7.3,0l-.5-.5.5-.6c1-.1,2,.3,3,0,1.6-.3,3.2-.3,4.8,0,.1,0,.2,0,.4,0,.2.2.5.2.7,0,0,0,0,0,0,0h0c2.3,1.1,5,1.4,7.2,2.7.7.4,1.7.5,2.1,1.4h0c0,.1-.2.1-.3,0,0,0,0,0,0,0Z"/>
          <path class="cls-30" d="M176.9,143.1c0,0,.1-.1,0,0,.1-.1,0,0,0,0h0Z"/>
          <path class="cls-50" d="M172,135.7h-.4s.4-.4.4-.4c0,.1,0,.2,0,.4Z"/>
          <path class="cls-16" d="M137.9,172l.4.4c-.2,0-.3-.2-.4-.4Z"/>
          <path class="cls-5" d="M159.1,175.6l.2.2-.2.2-.2-.2.2-.2Z"/>
          <path class="cls-25" d="M130.2,160.9v1.5c-1.7-1.9-2-4.3-2.5-6.5-1-4.7-.7-9.7,1-14.2,0-1,.4-1.9,1.1-2.6,1.5-2.2,2.5-4.7,4.8-6.4h.9c0,.1.7-.2.7-.2.5.8-.2,1.1-.6,1.5-1.8,1.7-3.2,3.7-4.3,5.9-2.6,5.1-3.4,10.8-2.2,16.4.2.7.4,1.4.7,2.1.4.8.9,1.6.5,2.6Z"/>
          <path class="cls-28" d="M146.1,126.1c-.4.9-1.1.7-1.9.7v-.9c.7-.2,1.3-.4,1.9.2Z"/>
          <path class="cls-44" d="M125.7,147.2c0-.1,0-.2,0-.4,0,0,.1.1.2.2,0,0-.1.1-.2.2Z"/>
          <path class="cls-25" d="M137.9,129.8c0,0-.1-.1-.2-.2,0,0,.1-.1.2-.2v.4s0,0,0,0Z"/>
          <path class="cls-25" d="M137.9,129.4l.2-.2.2.2-.2.2-.2-.2Z"/>
          <path class="cls-44" d="M155,125h-4.8c1.5-.6,3.3-.6,4.8,0Z"/>
          <path class="cls-44" d="M156.1,125c-.2.4-.5.4-.7,0h.7Z"/>
          <path class="cls-50" d="M173.2,163.1l-1.1.7c-.5-1.3.8-2,1-3.1.2-.6.5-1.1.8-1.6,0-.2.1-.3.2-.5.1-.3.2-.6.2-.9,0-.3.1-.5.2-.7.5-.9.4-1.9.6-2.9.4-3,.2-6-.6-8.9,0-.2-.1-.3-.2-.5-.2-1.3-.7-2.5-1.4-3.6-2.1-4.4-5.5-7.6-9.6-10.2-.4-.6-1.8-.5-1.2-1.7,1-.2,1.8.5,2.5,1,2.5,1.6,5,3.2,6.8,5.7,0,0,.2,0,.4,0,0,1.1,1,1.7,1.6,2.4,1,1.3,1,2.8,1.8,4.1,1.6,2.8,1.2,6,1.8,9-.6,4.2-.7,8.5-3.6,11.9Z"/>
          <path class="cls-48" d="M162,129.1c0,1,1.4.6,1.5,1.5-.8.7-1.5.3-2.2,0-3-1.5-6.3-2.2-9.6-2.1-1.8,0-3.6.3-5.2.9-2.9.8-5.6,2.1-7.9,4-.8.6-1.5,1.2-2.2,1.8-.5.4-.9,1.1-1.7.6-.7-1.1.3-1.5.9-2.1,1.6-1.6,3.7-2.8,5.4-4.2,2.9-1.1,6-2,9.1-2.7,1-.2,2.1-.2,3.1.1,1.6.5,3.2.2,4.7.6,1,.2,1.9.6,2.7,1,.4.4,1,.5,1.5.5Z"/>
          <path class="cls-35" d="M140.9,129.4c0,.6-.4,1.2-1,1.4-2.1.6-3.1,2.6-4.8,3.6-.5.3-.5.8-.4,1.3,0,0,0,.2-.1.3-4,5.1-5.9,11.5-5.3,17.9.2,1.5.6,2.9,1.3,4.2,0,.6.2,1.3.5,1.9,0,.1.2.3.2.4,0,.1.2.3.3.4,0,.1.1.3.2.5.1.4,0,.8-.3,1.1-.8-.2-.5-1.1-1.1-1.5-2.8-5.6-2.5-11.4-1.2-17.6,1.3-.9,1.1-2.9,2.1-4.4,1.4-2,2.5-4.3,4.6-5.8.3-.2.4-.5.4-.8,1-.3,1.7-1.1,2.4-1.6.7-.5,1.5-1,2.4-1.3Z"/>
          <path class="cls-44" d="M171.3,134.3c0,0-.1.1,0,0-.1.1,0,0,0,0h0Z"/>
          <path class="cls-44" d="M165,129.1h.4c0,0-.1.1-.2.2,0,0-.1-.1-.2-.2Z"/>
          <path class="cls-39" d="M170.9,166.5c.2.1.4.2.2.5-.3,0-.2-.3-.2-.5Z"/>
          <path class="cls-1" d="M174.3,158.7c0,1.6-1.2,2.7-1.7,4.1-.1.4-.5.6-.5,1.1-.1.1-.2.2-.4.4-.3.4-.2.9-.7,1.1-.8.3-.9,1.1-1.4,1.6-2.5,2.5-5.4,4.5-8.7,5.8-2.7,1.1-5.6,1.4-8.5,1.8-1.7.2-3.4-.5-5.1-.7-.2-.2-.2-.6,0-.9,1.3-.6,2.7,0,4,0,2.6,0,5.1,0,7.5-1.2,6-1.4,10.1-5.1,13-10.3.4-.6.8-1.3,1.1-1.9.4-.4.5-1.4,1.4-.9Z"/>
          <path class="cls-37" d="M147.2,173.1v.7c-1,.2-1.9-.5-3-.4-.8-.6-1.8-1-2.8-1.2-1.3-.3-2.1-1.5-3.3-2.1-2.1-1.2-3.7-3.1-5.1-5.1-.6-.9-1.5-1.6-1.9-2.6v-1.5c.1-.1.3-.2.5-.2,1.8,1.9,3,4.1,4.9,5.9,2.3,2.3,5.1,4,8.1,5.2.9.2,1.7.7,2.4,1.3Z"/>
          <path class="cls-50" d="M170.9,165.4c.2-.4.3-.9.7-1.1,0,.5,0,1.1-.7,1.1Z"/>
          <path class="cls-50" d="M171.7,164.2l.4-.4-.4.4Z"/>
          <path class="cls-17" d="M146.1,129.1c1.2-.8,2.7-1.2,4.2-1.1,2.7,0,5.5-.3,8.1,1.1.5.1,1,.2,1.5.1,1.1.7,2.2,1.6,3.7,1.4,1.8.7,3,2.5,4.8,3.2,2,2.1,3.6,4.5,4.9,7.2.4,1.3,1,2.4,1.5,3.7.5,2.4.8,4.9.7,7.3,0,.6.2,1.2-.5,1.6-.8-.4-.6-1.1-.7-1.7,0-3.9-.7-7.6-2.7-11-2.4-4.8-6.5-8.4-11.6-10.1-1.3-.5-2.6-1-4-1.3-2.5-.2-4.9-.2-7.4,0-.2,0-.4.1-.6.2-.6.2-1.2,0-1.7-.4Z"/>
          <path class="cls-27" d="M174.6,153.5c.7-1.4.5-2.9.3-4.2-.2-1.6-.3-3.1-.3-4.7,1.2,3.1,1.5,6.4.7,9.6-.3,1-.1,2.1-.7,3v.7c-.2.2-.2.5-.4.7-.9-.1-.6.9-1.1,1.1-.3-.3-.5-.8-.3-1.2.7-1.7,1-3.5,1.8-5.1Z"/>
          <path class="cls-27" d="M174.6,144.6c-.8-1.1-1.6-2.2-1.5-3.7.8,1.1,1.6,2.2,1.5,3.7Z"/>
          <path class="cls-1" d="M174.6,157.2c0-1,.3-2,.7-3,0,1,.3,2.2-.7,3Z"/>
          <path class="cls-1" d="M174.3,158.7c0-.3,0-.6.4-.7,0,.3,0,.6-.4.7Z"/>
          <path class="cls-15" d="M146.1,129.1h1.9c0,.9-.6,1-1.2,1.1-2.4.5-4.8,1.5-6.8,3-.4.4-1,.6-1.5.4-.2,0-.2-.3-.2-.5.5-1.3,2.3-1,2.5-2.4,1.9-.2,3.4-1.5,5.3-1.6Z"/>
          <path class="cls-22" d="M138.3,133.1v.4s0,.2,0,.2c0,.1-.1.2-.2.3,0,0,0,0-.1.1,0,0-.2.2-.3.3,0,0,0,0-.1.1,0,.1-.2.2-.3.3,0,0,0,.1-.1.2-.1.1-.2.2-.3.3,0,0-.1.1-.2.2-.8.8-1.5,1.6-2.2,2.4-.4.4-.7,1.1-1.5.6-.4-1.4,1-1.9,1.6-2.9.9-.4,1.6-1,2.2-1.7.4-.4.8-1,1.5-.9Z"/>
          <path class="cls-24" d="M134.6,135.7c0,.6-.4,1-.8,1.4-.5.4-.7,1-.7,1.6,0,0,0,.2,0,.3-.9,1.9-1.7,3.8-2.3,5.8-.2.6-.2,1.3-.4,1.9-.8,2.8-.8,5.7,0,8.5.3,1.2.7,2.4,1.1,3.6.2.7.6,1.4,0,2.1h-.4s0,0,0,0c-.1-.1-.2-.3-.4-.4h0c-.3-.6-.4-1.3-.7-1.9-2.8-6.3-1.6-12.3,1-18.3.6-1.4,1.4-2.7,2.3-3.9.3-.4.6-.8,1.1-.8Z"/>
          <path class="cls-37" d="M130.2,158.7c.5.5.8,1.1.7,1.9-.5-.5-.8-1.1-.7-1.9Z"/>
          <path class="cls-37" d="M130.9,160.5l.4.4-.4-.4Z"/>
          <path class="cls-15" d="M131.6,160.9c-.2-1.9-1.5-3.6-1.5-5.6-.4-.8-.5-1.6-.2-2.4.9-.5.9.3,1,.7.2.8.4,1.7.7,2.4.8,4.7,3.6,8.1,6.9,11.1,3.5,2.9,7.4,4.7,12,4.7,1.7,0,3.4,0,5.2,0,.4,0,.8,0,1.1-.2.3,0,.6-.1.9-.1.5,0,1,0,1.3.4-3.4,2-7.1,1.7-10.8,1.2-.4,0-.7,0-1.1,0-2.6-.8-5.2-1.6-7.3-3.4-.2-.2-.4-.4-.6-.5-2-.2-2.8-2-3.9-3.1-1.5-1.5-2.8-3.3-3.8-5.2Z"/>
          <path class="cls-31" d="M159.1,172h-1.5c0-.9.7-.9,1.2-1,1.5-.4,2.9-1.1,4.1-2.1,2.2-.8,3.5-2.7,5.4-3.9,1.2-1.3,2.5-2.4,3.1-4.2.3-1,.8-1.9,1.1-2.9.1-.3.3-.7.4-1,.3-1.4.9-2.8.9-4.3,0-.4,0-1,.8-1,0,.6,0,1.2,0,1.9.2,1.7-.5,3.1-1.1,4.5-.2.6-.4,1.1-.4,1.7-1.8,4-4.6,7.4-8.3,9.9-1.7,1.1-3.5,2.4-5.8,2.3Z"/>
          <path class="cls-13" d="M138.3,133.5c1.5-.3,2.4-1.6,3.8-2.2,1.6-.7,3.1-1.4,4.8-1.6.4,0,.8-.3,1.1-.7,2.7-.3,5.4-.3,8.2,0,1.9.5,3.7,1.1,5.5,1.8,3.9,1.7,6.8,4.6,9.3,8,.4.5.7,1,.7,1.7.2.3.3.7,0,1.1-.8.2-1-.5-1.3-1-2-3.5-5-6.3-8.5-8.1-4.4-2.2-9-3.4-14-2-2.6.7-5.2,1.5-7.4,3.1-.8.5-1.4,1.1-2.1,1.6-.4.4-1,.5-1.6.3,0,0-.1-.2-.1-.3,0-.1,0-.2,0-.2.1-.1.2-.2.4-.4.1-.1.3-.2.4-.4.1-.1.3-.2.4-.4.1-.1.3-.2.4-.4h0Z"/>
          <path class="cls-12" d="M171.7,141.7v-1.1c2.4,3.3,2.8,7.2,3,11.1-.5,1.6-.5,3.4-1.1,5,0,.2-.2.4-.4.6,0,0-.1-.1-.2-.2-.2-.6-.3-1.2-.3-1.8,1-4.1.6-8.4-1.1-12.3-.2-.4-.2-.9,0-1.2Z"/>
          <path class="cls-15" d="M156.1,129.1h-8.2c.3-.4.7-.4,1.1-.4,2,0,3.9,0,5.9,0,.4,0,.9,0,1.1.4Z"/>
          <path class="cls-15" d="M136.8,135v.4c.3.6-.3,1-.6,1.4-.7.7-1.3,1.5-1.9,2.3-.3.4-.6,1.2-1.4.7-.1-.3,0-.7.1-1,1.1-.6,1.5-1.9,2.4-2.7.4-.4.8-.7,1.3-1Z"/>
          <path class="cls-15" d="M137.2,134.6l-.4.4.4-.4Z"/>
          <path class="cls-15" d="M137.6,134.3l-.4.4.4-.4Z"/>
          <path class="cls-15" d="M137.9,133.9l-.4.4.4-.4Z"/>
          <path class="cls-15" d="M138.3,133.5l-.4.4.4-.4Z"/>
          <path class="cls-22" d="M130.2,152.8v2.6c-.2-.2-.4-.4-.4-.6-.4-2.8-.9-5.6.4-8.3,0,0,.1.1.2.2.3.9.4,1.8.2,2.7,0,.2,0,.3-.1.5-.2.8-.3,1.6,0,2.4,0,.2,0,.3-.2.4Z"/>
          <path class="cls-22" d="M133.1,138.7v1.1c.6,1.4-.5,2.3-1.1,3.4-.4.5-.5,1.3-1.3,1.5,0,0-.2,0-.2,0,.3-2.2,1.2-4.2,2.6-5.9Z"/>
          <path class="cls-22" d="M130.2,146.5c.1-.6-.3-1.3.4-1.9h0c.5.7.8,1.5-.4,1.9h0Z"/>
          <path class="cls-41" d="M163.1,169.1c-.9,1.3-2.2,1.8-3.6,2.2-.7.1-1.4.4-2,.8h-.7c-.2.2-.6.1-.7.4-1.5,0-3.1,0-4.6,0-3.3,0-6.5-.4-9.3-2.2-1.3-.9-3.2-1.2-3.9-3,0,0,.2-.1.2-.2,1.3,0,2.2.8,3.1,1.4,2.4,1.4,5,2.4,7.7,2.9,2.5.5,4.9.1,7.3-.5,1.9-.4,3.6-1.1,5.3-2,.4-.1.8,0,1.1.3Z"/>
          <path class="cls-20" d="M131.6,143.1c.5-1.1,1.4-2,1.5-3.3,1.3-.9,1.5-2.6,3-3.3.2.1.3.4.3.6,0,.2,0,.3,0,.5,0,.1-.1.3-.2.4,0,.1-.2.2-.3.3-.2.1-.3.3-.4.5,0,.1-.1.3-.2.4,0,.2-.2.5-.2.7-2,3.8-3.3,7.7-3.1,12.1,0,.7,0,1.3.2,2,.2.8.2,1.7-.2,2.4-.1.2-.3.2-.5.1,0,0,0,0,0,0-.7-1.1-.5-2.5-1.1-3.7,0-.1,0-.2,0-.4-.3-.8-.3-1.8,0-2.6h0c.2-2.3.7-4.5,1.5-6.7Z"/>
          <path class="cls-41" d="M131.3,156.5h.4c1.1.1,1.4,1.1,1.6,1.8.7,3,3,5,4.5,7.4.3.5,1,.8.6,1.5h0c-.7,0-1.1-.5-1.5-1-1.6-1.9-3.5-3.7-4.4-6.1-.2-.4-.5-.8-.8-1.1-.1-.9.1-1.8-.4-2.6Z"/>
          <path class="cls-31" d="M156.1,172.4c.1-.3.4-.4.7-.4-.1.3-.4.4-.7.4Z"/>
          <path class="cls-26" d="M163.1,169.1h-1.1c0-.1,0-.3,0-.5.6-.4,1.2-.8,1.7-1.3,1.7-1.2,3.1-2.8,4.7-4.1.6-.3,1-1.1,1.8-.7.2,1.3-1.5,1.7-1.6,2.9-1,.6-1.9,1.3-2.7,2.1-.7.8-1.7,1.4-2.8,1.6Z"/>
          <path class="cls-12" d="M168.7,165.4c0-.6.2-1.2.7-1.6.4-.4.9-.7.8-1.4,0,0,0-.1,0-.2,0-.2.1-.4.2-.6,0-.1.2-.2.3-.4.2-.2.5-.4.8-.4,0,0,.1,0,.2,0,0,1.2-.8,1.9-1.4,2.7-.5.6-1,1.2-1.6,1.8Z"/>
          <path class="cls-12" d="M172.8,157.9c0,1.1-.6,2-1.1,3h0c-.3-.3-.4-.7-.3-1.1,0-.2,0-.3.1-.4.1-.3.2-.6.3-.8,0-.1.1-.3.2-.4.2-.2.4-.3.6-.3,0,0,.1,0,.2,0Z"/>
          <path class="cls-12" d="M173.2,157.2c0,.3,0,.6-.4.7h0c-.1,0-.2-.2-.2-.4,0-.2,0-.3.2-.4.1,0,.3,0,.4,0h0Z"/>
          <path class="cls-19" d="M170.2,162.4l-1.5,1.1c-.6-.7-.1-1.3.2-1.8,2.3-3.3,3.5-7.4,3.3-11.5-.4-5.5-2.2-10.5-6.6-14.2-2.9-1.9-5.8-3.9-9.3-4.6-3.9-.8-8-.4-11.7,1.1-1.6-.3-2.7,1.1-4.1,1.2,0,0-.2-.1-.2-.2.5-.7,1.2-1.3,2.1-1.7,2.2-1.1,4.6-1.5,6.8-2.3,1.1-.4,2.3,0,3.5-.1,3.5-.1,6.6,1.1,9.6,2.8,1.3.6,2.5,1.4,3.7,2.3,2.1,1.8,3.8,3.9,5.2,6.3.2.3.2.7.6.9,0,1.1,1.1,1.7,1.2,2.8.5,3.4,1.5,6.7.3,10.2,0,.2,0,.5,0,.7-.5.5,0,1.3-.4,1.9-.3.3-.5.8-.7,1.1-.3.3,0,.8-.4,1.1h0c-.2.8-.6,1.6-1.1,2.2-.2.2-.2.5-.4.7h0Z"/>
          <path class="cls-19" d="M136.1,137.2v-.7s.7-1.1.7-1.1c.5-.1,1-.2,1.5-.4,0,0,0,.2,0,.3-.5,1-1,1.9-2.3,2Z"/>
          <path class="cls-19" d="M138.3,135c.5-.7.9-1.4,1.9-1.5h0c0,1.2-.6,1.8-1.9,1.5h0Z"/>
          <path class="cls-26" d="M172.8,157.2c.1-.6-.3-1.3.4-1.9,0,.6,0,1.2,0,1.9-.1,0-.2,0-.4,0Z"/>
          <path class="cls-15" d="M131.6,143.1c-.3,2.3-.8,4.5-1.5,6.7v-3.3c.7-.5.3-1.2.4-1.9.8-.2.5-1.1,1.1-1.5Z"/>
          <path class="cls-15" d="M130.2,149.8v2.6c-.6-.8-.6-1.8,0-2.6Z"/>
          <path class="cls-49" d="M162,168.7c0,.1,0,.2,0,.4-1.9,1.7-4.3,1.8-6.6,2.5-2.4.8-5,.8-7.4,0-2.3-.8-4.8-1.4-6.8-2.9-.8-.7-1.8-1.2-2.9-1.5l-5.1-7c0-.4,0-.9,0-1.4-.5-.8-1-1.5-1.4-2.3v-2.6c-.3-.7-.1-1.4-.1-2.1,1-.3.9.5,1,1,.1,1.2.4,2.4.8,3.6,0,.2.2.5.2.8,0,.2,0,.3.1.5,0,.1.1.3.1.4,0,.4.2.7.4,1,0,.1.2.2.2.4.1.3.3.5.4.8,0,.1.1.3.2.4.2.5.4,1,.8,1.4.1.1.2.2.4.4.1.1.3.2.4.4,2.2,2.8,5.1,5,8.4,6.4,2.5,1,5.1,1.4,7.7,1.2,2.5,0,5.1-.3,7.5-1.6.5-.2,1.1-.3,1.6-.2,0,0,.1.1.2.2Z"/>
          <path class="cls-8" d="M131.6,151.7v2.2c-.8-1.8-.4-3.6-.2-5.4.3-3.1,1.5-6,3-8.7,0-.2.2-.5.2-.7.1-.1.2-.2.4-.4h0c.2-.3.4-.6.7-.7h0c.1-.1.2-.3.4-.4v-.4c.9-.6,1.6-1.3,2.2-2.2.9,0,1.4-.8,1.9-1.5,1.4-.4,2.4-1.8,4.1-1.5.5.9-.3,1-.8,1.2-1,.4-2,1-2.8,1.7-.1.1-.3.2-.4.3-1.3.7-2.4,1.7-3.2,2.9,0,.1-.2.3-.3.4,0,.1-.2.3-.3.4,0,.1-.2.3-.3.4-.7.7-1.2,1.6-1.4,2.5-.7,1.1-1.2,2.4-1.3,3.7-.9,1.9-.7,4.2-1.8,6.1Z"/>
          <path class="cls-19" d="M135.7,138c-.1.3-.4.6-.7.7,0-.4.2-.7.5-.7,0,0,.1,0,.2,0Z"/>
          <path class="cls-19" d="M135,138.7l-.4.4.4-.4Z"/>
          <path class="cls-19" d="M136.1,137.6l-.4.4.4-.4Z"/>
          <path class="cls-46" d="M165.7,135.7c.3,0,.8,0,.9.2,1.3,2,3.3,3.6,3.8,6,.2.8.8,1.2,1,1.9,2.2,6.1,1.5,11.9-1.5,17.5-.4.7-1.4,1.2-1.2,2.3-1.7,1.3-2.9,3.1-4.8,4.1-.6.3-1,.9-1.8.5-.1-.1-.2-.3-.3-.5,0-.6.6-.9,1.1-1.2,2.5-1.4,4-3.7,5.6-5.9,2.2-3.8,3.1-8.2,2.7-12.5,0-.5,0-1,0-1.6,0-.2,0-.3-.1-.5-.1-.8-.4-1.5-.9-2.1,0-.1-.1-.3-.2-.4,0-.2-.1-.4-.2-.6,0-.1,0-.2-.1-.4,0-.2-.2-.4-.2-.5,0-.1-.1-.2-.2-.3,0-.1-.1-.2-.2-.3,0,0-.2-.2-.2-.3,0,0-.2-.2-.2-.3,0-.1-.1-.2-.2-.3,0-.1-.1-.2-.2-.3,0-.1-.1-.2-.2-.4-.1-.2-.3-.5-.5-.7-.1-.1-.2-.2-.3-.3-.4-1-2-1.3-1.5-2.8Z"/>
          <path class="cls-49" d="M162,167.9c.7.1,1.2-.4,1.9-.4-.3.8-1.1,1.2-1.9,1.1h0c-.2-.1-.2-.4-.2-.6,0,0,.1-.1.2-.2Z"/>
          <path class="cls-26" d="M170.6,161.6c.2-.8.6-1.5,1.1-2.2,0,.5,0,1,0,1.5-.4.2-.7.5-1.1.7Z"/>
          <path class="cls-26" d="M170.2,162.4c0-.3,0-.6.4-.7,0,.3,0,.6-.4.7Z"/>
          <path class="cls-26" d="M172,158.3c0-.5.3-1,.7-1.1v.7l-.7.4Z"/>
          <path class="cls-26" d="M171.7,159.4c0-.4-.1-.9.4-1.1,0,.4.1.9-.4,1.1Z"/>
          <path class="cls-6" d="M165.7,135.7c0,.7.5,1,.9,1.5s1,.8.9,1.5c0,.4-.2.5-.5.5-.5-.2-1-.5-1.3-.9-3.5-3.7-8.2-5.7-13.3-5.8-3.6,0-6.8.4-9.8,2.5-.4.3-.9.4-1.4.4-.4,0-.8-.1-1.1-.4.7-1.3,2-1.7,3.3-2.2.4-.2.8-.2.8-.8.9,0,1.7-.4,2.4-1,2.4-.4,4.8-.5,7.3-.5,2.4,0,4.4,1.3,6.9,1.7,1.2,1.6,3.6,1.9,5,3.5Z"/>
          <path class="cls-42" d="M162,167.6v.4c-.5.4-1,.7-1.5,1.1-2.5,1.5-5.4,1.7-8.1,1.8-5.2.3-9.8-1.6-13.8-5-.9-1-1.8-2-2.6-3.1-.1-.1-.2-.3-.4-.4h0c-.2-.2-.2-.5,0-.7,0,0,0,0,0,0,.1-.1.3-.1.5-.1.8.3,1.5.6,1.8,1.5.2.8.8,1.4,1.4,1.9,2.3,1.8,4.6,3.4,7.6,3.8.2,0,.3,0,.5.2,2.6,1.2,5.3,1,8,.4.2,0,.3-.1.5-.2.4-.1.8-.2,1.3-.4.2,0,.3,0,.5-.1.9,0,1.8-.4,2.6-.9.5-.4,1.1-.7,1.7-.1Z"/>
          <path class="cls-4" d="M136.1,161.6h-.4c0,0-.2,0-.2,0-.1,0-.2-.2-.3-.3-.2-.2-.3-.5-.5-.7,0-.1,0-.2,0-.4-.2-.2-.1-.5-.4-.7-.4-.4-.3-1.1-.7-1.5h0c-.1-.1-.2-.3-.4-.4v-.7c-.3-.4-.1-1-.3-1.4,0-.4-.2-.8-.3-1.2-.5-3-.5-6,.7-8.9,0-1.4.2-2.8,1.5-3.7,0,0,.2,0,.3,0,.2.1.3.3.4.5.1.9,0,1.7-.4,2.5-1.7,3.4-1.4,6.9-.8,10.4.3,1.6,1.1,3,1.6,4.4.3.7,1,1.3.4,2.2Z"/>
          <path class="cls-53" d="M133.1,145.4c0,1.8-.9,3.4-.8,5.2.1,1.3.6,2.6.4,4,.2.2.1.6.4.7v1.5c-.7-1.2-1.1-2.5-1.1-3.9,0-.5.1-1-.4-1.3.2-2.2.3-4.4,1.5-6.3Z"/>
          <path class="cls-46" d="M160.5,169.1c.2-.6.8-1.1,1.5-1.1v.7c-.5.1-1,.2-1.5.4Z"/>
          <path class="cls-53" d="M134.6,160.5c.3.1.6.4.7.7.1.1.2.3.4.4h0v.7c-.7-.4-1.1-1.1-1.1-1.9Z"/>
          <path class="cls-53" d="M133.5,157.9c.7.3.8.8.7,1.5-.7-.3-.8-.8-.7-1.5Z"/>
          <path class="cls-53" d="M134.2,159.4c.3.1.4.4.4.7-.3-.1-.4-.4-.4-.7Z"/>
          <path class="cls-53" d="M135.7,162.4l.4.4-.4-.4Z"/>
          <path class="cls-53" d="M133.1,157.6l.4.4-.4-.4Z"/>
          <path class="cls-4" d="M140.2,135h1.1c.2.4-.2.7-.4.9-1.8,1.5-3.3,3.3-4.5,5.3-.3.5-.7.9-1.3.5h0c-.7-1.3.8-1.7,1.1-2.6,0-.1,0-.2,0-.4.1-.1.3-.2.4-.4h0c1.1-1.2,2.4-2.4,3.7-3.3h0Z"/>
          <path class="cls-6" d="M140.2,135c-1,1.4-2.4,2.3-3.7,3.3.9-1.5,1.9-2.9,3.7-3.3Z"/>
          <path class="cls-6" d="M136.1,139.1c0,1-1.4,1.4-1.1,2.6h-.4c-.2-1.3.5-2,1.5-2.6Z"/>
          <path class="cls-6" d="M136.5,138.3l-.4.4.4-.4Z"/>
          <path class="cls-21" d="M162,167.6c-.5,0-1,0-1.3.4-.8.8-2,1.2-3.1,1.1,0-1.4,1.4-1.1,2.1-1.7.9-.4,1.5-1.2,2.4-1.5,2.3-1.1,3.9-3.1,5.3-5.2.4-.5.4-1.5,1.5-1.1.1.4,0,.9-.2,1.3-1.3,2.1-2.7,4.1-4.8,5.5-.6.4-1.4.6-1.8,1.2Z"/>
          <path class="cls-33" d="M168.7,160.9v-1.5c-.7-.9,0-1.5.5-2.2,1.8-3.1,1.3-6.5,1-9.8,0-.8-.5-1.5-.3-2.3,0-.2.1-.4.3-.5,1.2-.2.7,1.1,1.2,1.5.4.4,0,1.1.4,1.5,0,1.4,0,2.8,0,4.3-.1,3.2-1.1,6.4-3,9.1Z"/>
          <path class="cls-33" d="M167.2,139.1l.4-.4c.1,0,.2,0,.4,0,.3.3,0,.8.4,1.1h0c.1.1.2.3.4.4v.4c.1.1.2.3.4.4.2.2.1.5.4.7.2.2.1.5.4.7.2.2.1.5.4.7v.4c.3.3.3.8,0,1.1h0c-1.1,0-1-1.1-1.6-1.6,0-.1-.1-.3-.2-.4,0-.2-.2-.4-.2-.7,0-.1-.1-.3-.2-.4-.2-.8-1-1.4-.7-2.4Z"/>
          <path class="cls-6" d="M170.2,144.6v-1.1c.8.6,1.2,1.6,1.1,2.6-.8-.2-.5-1.1-1.1-1.5Z"/>
          <path class="cls-6" d="M171.7,147.6c-.6-.4-.3-1-.4-1.5.6.4.3,1,.4,1.5Z"/>
          <path class="cls-6" d="M168.3,139.8c-.5-.3-.3-.7-.4-1.1.5.3.3.7.4,1.1Z"/>
          <path class="cls-6" d="M169.4,141.7c-.3-.1-.4-.4-.4-.7.3.1.4.4.4.7Z"/>
          <path class="cls-6" d="M169.8,142.4c-.3-.1-.4-.4-.4-.7.3.1.4.4.4.7Z"/>
          <path class="cls-6" d="M170.2,143.1c-.3-.1-.4-.4-.4-.7.3.1.4.4.4.7Z"/>
          <path class="cls-6" d="M169.1,140.9l-.4-.4.4.4Z"/>
          <path class="cls-6" d="M168.7,140.2l-.4-.4.4.4Z"/>
          <path class="cls-11" d="M167.2,139.1c.3.9,1,1.6,1.1,2.6-.1.4-.5.6-.9.5-1.4-1.4-2.6-2.9-4.1-4.2-3.6-3.3-8.5-4.8-13.4-4.2-3.3.4-5.8,2.1-8.6,3.4-4.1,2.9-6.2,6.9-6.7,11.8-.6,6,1.5,10.8,5.7,15,.4.3.8.8,1,1.3,0,.2,0,.4-.1.5-1.9,0-2.6-1.6-3.7-2.7,0-1-1.4-.6-1.5-1.5-.9-1.7-1.4-3.7-2.4-5.4-.4-.9-.6-1.9-.6-2.8,0-2.4-.3-4.8.4-7.1.5-1.5,1.4-3,1.4-4.6.4,0,.7-.1.9-.5,1.1-2.6,3.3-4.4,5.4-6.2,1.9-.7,3.5-1.9,5.4-2.6.7-.3,1.4-.4,2.1-.4,2.6.2,5.2-.5,7.7.3,3.7,1.2,7.5,2.5,9.9,6,.2.3.5.5.8.7Z"/>
          <path class="cls-11" d="M159.8,167.6c-.5.9-1.8.4-2.2,1.5-.1,0-.2,0-.4,0-.3.3-.8,0-1.1.4-2.9.7-6,.6-8.9-.4h0c-1.8-.3-3.5-1.1-5-2.2-.4-.3-1.1-.4-.9-1.2h0c1-.7,1.8,0,2.5.5,4.5,2.7,9.1,3,13.9,1.2.7-.3,1.4-.5,2.1.2Z"/>
          <path class="cls-21" d="M141.3,165.7c1.6,1.7,3.9,2.3,5.9,3.3-2.4.4-4.1-1.3-6-2.3-1.5-.8-3.1-1.8-3.7-3.6,1.2.4,1.6,1.7,2.7,2.2.3.2.6.3,1,.4Z"/>
          <path class="cls-21" d="M147.2,169.1c3,.5,5.9.4,8.9.4-2.4,1.2-6.8,1-8.9-.4Z"/>
          <path class="cls-21" d="M156.1,169.4c.3-.5.7-.3,1.1-.4-.3.5-.7.3-1.1.4Z"/>
          <path class="cls-42" d="M133.1,155.4c-.3-.1-.4-.4-.4-.7.3.1.4.4.4.7Z"/>
          <path class="cls-42" d="M135.7,161.6l-.4-.4.4.4Z"/>
          <path class="cls-3" d="M159.8,167.6c-.8,0-1.5.2-2.3.5-2.4.8-5,1.1-7.5.9-2.7-.4-5.3-1.4-7.5-2.9-.4-.2-.8-.3-1.2-.3-1.4-1.8-3.2-3.2-4.3-5.2-1.5-2.5-2.7-5-2.7-8.1,0-3.5.1-7,1.9-10.1,1.3-2.2,2.7-4.4,5.1-5.5.5.8-.2,1.1-.6,1.5-2.5,2.5-4.3,5.6-5.2,9,0,.4-.1.7-.2,1.1-.3,1.4-.3,2.8,0,4.2.1.5.2.9.2,1.4-.2,1.3.9,2.1,1.1,3.3,1.8,4.5,5.5,7.9,10,9.5,3.5,1.3,7.1,1,10.7,0,.2,0,.3-.1.5-.2.1,0,.3-.1.5-.2.2-.1.4-.2.7-.3.1,0,.3-.1.5-.2,1,0,1.6-1.4,2.8-.7.1.2,0,.5-.1.7-.7.5-1.2,1.4-2.2,1.5Z"/>
          <path class="cls-52" d="M162,166.1v-.7c1.7-1.9,3.8-3.6,5-6,.7-.8,1.2-1.8,1.3-2.9,0-.2,0-.4.1-.5,1.2-3.2,1.2-6.8,0-10-.2-1.2-.5-2.3-1-3.4,0-.2,0-.4.1-.5l.7-.4c.2.2.1.5.4.7,0,.1,0,.2,0,.4,2.4,4.8,2.9,9.8.7,14.8-.3.6-.9,1.1-.7,1.9-1.3,2.3-3,4.3-5.1,6-.4.4-1,.7-1.6.7Z"/>
          <path class="cls-11" d="M169.4,157.6c.5-1.8.9-3.7,1.1-5.5.1-2.5-.3-5-1.2-7.4-.2-.6-.4-1.3-.6-1.9.9.3.8,1.4,1.5,1.9.4,2.8,1.1,5.6.7,8.5-.2,1.6-.2,3.3-1.5,4.5Z"/>
          <path class="cls-11" d="M168.7,142.4c-.3-.1-.4-.4-.4-.7.3.1.4.4.4.7Z"/>
          <path class="cls-2" d="M167.6,142v.4c0,.2-.2.4-.4.5-.7.2-.9-.3-1.2-.8,0-.1-.1-.3-.2-.4-.1-.2-.3-.5-.6-.6-.4-.3-.8-.7-1.2-1.1-2.2-1.1-4.1-2.6-6.2-3.8-2.4-1.8-5.2-1.1-7.9-1-4.8.2-8.3,2.8-10.9,6.6-.2.3-.4.7-.6.9-1.2,1.9-2.2,3.9-2,6.3,0,.9-.2,1.7-.7,2.4-.4.4-.4,1-.9,1.4-.6-1.4-.6-3,0-4.4,0,0,.2.2.2.3,0-.4.3-.9-.2-1.4,1.1-3.9,3.3-7.3,6.2-10,0,0,0-.2,0-.4,1.5-1.4,3.6-1.7,5.2-2.9.3-.2.7-.3,1-.4,2.9-.2,5.9-.9,8.7,0,2.6.8,5.2,1.7,7.2,3.8.8.8,2.1,1.2,2,2.7.5,0,.3-.6.6-.6,1,.7.5,2.1,1.6,2.8Z"/>
          <path class="cls-7" d="M158,167.2c-3.1.7-6.1,1.7-9.3.5-.6-.1-1.2-.2-1.8-.2-3.3-1.3-6.1-3.4-8.4-6-.4-1.1-1.8-2.3-2.3-3.9.2-.3.5-.6.9-.4,1.2,1.3,2,2.9,3.1,4.3,3.9,4.7,10.3,6.5,16.1,4.7.9-.3,1.8-.6,2.7-.2.2.1.2.3,0,.5,0,0,0,0,0,0-.2.2-.5.1-.7.4-.1.1-.3.2-.4.4Z"/>
          <path class="cls-2" d="M159.1,166.5v-.4c-.2-.2,0-.5,0-.7,0-.1.2-.3.3-.4.2-.3.5-.6.8-.7,1.8-.6,3.3-1.9,4.3-3.5,1.6-1.2,2.2-3,2.9-4.8.3-.6.2-1.7,1.4-1.2,0,.6.1,1.1-.2,1.7-.3,1.1-.8,2.1-1.5,3,.2,1.3-1,1.9-1.6,2.7-1,1.3-1.9,2.7-3.6,3.2-1.1.1-1.8,1.3-3,1.1Z"/>
          <path class="cls-2" d="M136.8,157.2l-.7.4c0-.4,0-.9-.4-1.2-.6-.6-.9-1.4-.7-2.2.4-.2.4-.9,1.1-.8.6,1.2,1.6,2.3.8,3.7Z"/>
          <path class="cls-7" d="M135.7,153.5c0,.4-.2.7-.5.7,0,0-.1,0-.2,0v-1.5c0-.5-.2-1.1.4-1.5.2.2.6,0,.8.5-.2.5.3,1.2-.5,1.7Z"/>
          <path class="cls-7" d="M135,147.2c1.3.7-.2,1.6.3,2.3-.5-.3-.3-.8-.3-1.2v-1.1Z"/>
          <path class="cls-2" d="M158.3,166.8c.1-.3.4-.4.7-.4-.1.3-.4.4-.7.4Z"/>
          <path class="cls-2" d="M158,167.2l.4-.4-.4.4Z"/>
          <path class="cls-2" d="M168.7,156.5c0-.6,0-1.2,0-1.9-.1-.2-.2-.4-.2-.6.2-2.7,0-5.4,0-8.1,0,0,.1-.2.2-.2,1.7,3,1.4,6.1.5,9.3-.1.5,0,1.1-.5,1.5Z"/>
          <path class="cls-2" d="M167.2,142.8l.4-.4c.9.9,1.3,2.1,1.1,3.3h0c-1.2-.3-1.2-1.4-1.7-2.2,0-.3,0-.6.3-.8Z"/>
          <path class="cls-2" d="M167.2,159.4c.2-1.2,1-2,1.5-3,.1,1.2-.4,2.4-1.5,3Z"/>
          <path class="cls-45" d="M135.7,153.5c.1-.8.5-1.6-.4-2.2.9-1.1.8-2.4.7-3.6-.1-2.2,1.1-3.7,2.2-5.3,0-.1.3-.2.4-.1.3.4,0,.9.2,1.3,0,.2,0,.4-.1.6,0,.1-.2.2-.4.2-.2,0-.3.2-.4.4-.1.3,0,.7-.2,1,0,.1,0,.3-.1.4-.1.4-.2.7-.2,1.1,0,.2,0,.3-.1.4,0,.4-.1.8-.1,1.2,0,.7,0,1.4,0,2,0,.3,0,.7.1,1,0,3.8,1.5,6.8,4.2,9.4,0,.1.2.3.2.4.6,1,1.7,1.2,2.6,1.7.2,0,.3.1.5.2,1.5,1.2,3.4,1.8,5.3,1.8,2.5,0,5,.4,7.3-1,.1,0,.3-.1.4-.2.4-.2.7-.3,1.1-.4,1.9-.5,2.8-2.5,4.5-3.2.2,0,.3,0,.5,0,.2,0,.3.1.5.2-.4,1.7-1.7,3-3.4,3.5-.7.3-1.2.7-1.8,1h0s-.4.7-.4.7c-2,0-3.7,1-5.6,1.3-1.6.3-3.2.2-4.7-.3-1.7-.6-3.4-1-5-2-1.5-1-2.8-2.1-4-3.4-1.2-1.3-2.2-2.8-2.9-4.5,0-1.4-.8-2.5-1.1-3.7Z"/>
          <path class="cls-29" d="M158,136.1c1.5,0,2.3,1.6,3.8,1.5.2.5.4.8.6,1.2.8.5,1.8.2,2.3,1.1-1,.6-2.2.5-3.3.9-1.9-1-3.6-2.3-5.8-2.8-3.7-1-7.1-.3-10.3,1.5-.5.3-1,.7-1.6.9-.2,0-.3,0-.5,0-.2-.1-.4-.3-.6-.4-.2-.1-.4-.2-.6-.4-.2-.3,0-.6.2-.8.1,0,.2,0,.4,0-.2-.2,0-.4,0-.6,3.2-2.3,7.2-3.4,11.1-3.1,1.2,0,2.4.8,3.6.6.4,0,.3.4.5.6,0,0,.1,0,.2,0Z"/>
          <path class="cls-10" d="M161.3,140.5c1-.9,2.2-.8,3.3-.7.3.4.7.8,1.1,1.1.2.2.1.5.4.8h0c.3.4.2.9.3,1.4-.2,1.1-1,2-2.1,2.3-2.6.4-4.3-1-4.1-3.2,0-.7.2-1.5,1.1-1.6Z"/>
          <path class="cls-47" d="M142.4,138.7c-.3.1-.4.4-.4.7-.1,1.1-.9,1.7-1.6,2.4-.4.5-1.1.5-1.5.1,0,0-.2-.2-.2-.3.8-1.4,1.9-2.7,3.2-3.7,1.6-1.3,3.4-2.3,5.3-2.9,3.3-.2,7.1-1.2,10.8.4.1.2,0,.4,0,.6h0c0,.1-.2.1-.3,0,0,0,0,0,0,0-.5-.7-1.1.3-1.7,0-1.9-1.1-4-.8-6-.5-2.1.2-4.1,1-5.7,2.3-.5.4-1.5,0-1.8.8Z"/>
          <path class="cls-18" d="M138.7,141.7c.5,0,.9.5,1.6-.3.4-.8,1-1.5,1.7-1.9h.7c.1.1.2.3.4.4,0,0,0,.2,0,.3-.9,1.7-2.1,3.2-3.5,4.6-.3-.3-1,.3-1-.5v-.7c0-.4.4-.7,0-1.1h-.4s.4-.7.4-.7Z"/>
          <path class="cls-9" d="M166.1,143.1c0-.5,0-1,0-1.5.5.2.3,1.2,1.1,1.1v.7c-.3.3-.2.9-.9.9-.6-.3-.5-.8-.2-1.3Z"/>
          <path class="cls-9" d="M166.1,141.7c-.3-.2-.4-.5-.4-.8.3.2.4.4.4.8Z"/>
          <path class="cls-9" d="M164.6,160.9h-.4c0,0-.1-.1-.2-.2,0-.2.1-.3.2-.4.5-.3.8-.8.8-1.4.2-1,.6-2,1.1-2.9,1.6-3,1.5-6.1.4-9.2.2-.6.7-1,1.3-.9.6.6.9,1.4.8,2.3,0,2,.3,4-.1,6,0,.1,0,.2,0,.4-.3.2-.5.4-.5.7-.6,2.1-1.6,4-2.9,5.8l-.6-.2Z"/>
          <path class="cls-2" d="M168.7,154.2c-.1-2.4.3-4.9-.3-7.3-.1-.5-.2-.8-.8-.8,0,0,0-.1-.1-.2,0-.5-.2-1-.5-1.4,0,0,0-.1,0-.2,0-.2-.1-.3-.2-.5,0-.3.3-.2.5-.3.9.5.9,1.5,1.5,2.2.4,2.3.5,4.7.4,7,0,.5.2,1.1-.4,1.5Z"/>
          <path class="cls-36" d="M138.7,144.2c0,.5.8,0,.8.5,0,.1,0,.2,0,.4,0,.2-.1.4-.2.5,0,.1,0,.3-.1.4,0,.2-.1.4-.2.6,0,.1,0,.3-.1.4,0,.3-.1.6-.1.9,0,.4,0,.9-.1,1.3-.3,1.2-.3,2.4,0,3.5.5,2.5,1.6,4.8,3.2,6.8,3.9,4.4,8.8,5.6,14.4,4.1.5-.2,1.1-.3,1.6-.4.2,0,.4,0,.6,0,.3,0,.5.3.6.5,0,.2,0,.4,0,.5-.4.1-.7.4-1.1.4-1,.4-1.5,1.5-2.7,1.5-2.4-.1-4.8.3-7.1-.3-.7-.2-1.3-.1-1.8-.8-.4-.5-.6.2-.9.1-.4-.3-.2-1-.8-1.3-.9,0-2.9-1-3.2-1.6,0,0,.1-.2.2-.2h0c-1.5-.7-1.7-2.6-3.2-3.4-.5-2.1-1.7-4.2-1.3-6.6-.2-.2-.1-.6-.4-.7v-2.6c.4-.3,0-.8.4-1.1h0c0-.1.2-.2.3-.2,0-.1-.1-.3-.1-.4,0-.3,0-.6.2-.9h0c.4-.4.1-.9.2-1.4.1-.2.3-.4.5-.5.1,0,.2,0,.4,0Z"/>
          <path class="cls-23" d="M158.7,163.5h-.5c0-.6.5-.9.9-1.2,6.5-5.2,7.8-9.7,5.2-17.4.9-.3,1.3-1.1,1.8-1.8,0,.5,0,1.1.8,1.1h0c0,.7.4,1.3.7,1.9l-.6.7c0,.6.9.5.8,1.4-.5,1.5.5,3.3,0,5.2l-2.5,6.1c-.2.2-.5.3-.8.2.3.5,0,.6-.3.9h0c-.1.1-.2.3-.4.4-.4.5-1.2.6-1,1.5l-.9-.3c-.8,1.1-1.3,2.3-3,2.1v-.4c-.1-.1-.2-.2-.4-.4Z"/>
          <path class="cls-47" d="M138.7,142.4h.5c0,.5-.1.9-.5,1.1-.5-.4.2-.7,0-1.1Z"/>
          <path class="cls-18" d="M137.6,147.6h-.4c0-.5-.2-1.1.4-1.5v1.5Z"/>
          <path class="cls-18" d="M137.9,144.6c0,.5.2,1.1-.4,1.5v-1.5c0-.1.2-.1.3,0,0,0,0,0,0,0Z"/>
          <path class="cls-47" d="M137.9,144.6h-.2s-.2,0-.2,0c.2-.3.2-.8.7-.4l-.4.4Z"/>
          <path class="cls-18" d="M137.2,147.6c0,.4.1.9-.4,1.1,0-.4-.1-.9.4-1.1Z"/>
          <path class="cls-18" d="M136.8,151.3c.3.1.4.4.4.7-.3-.1-.4-.4-.4-.7Z"/>
          <path class="cls-2" d="M159.4,165.4c0,0-.1-.1,0,0-.1-.1,0,0,0,0h0Z"/>
          <path class="cls-2" d="M163.9,160.9l.4-.4c0,.1,0,.2,0,.4-.1,0-.2,0-.4,0Z"/>
          <path class="cls-2" d="M157.6,136.1h.4c-.1.2-.2.4-.5.3,0,0,.1-.2.2-.3Z"/>
          <path class="cls-47" d="M143.1,139.8l-.4-.4c.2,0,.3.2.4.4Z"/>
          <ellipse class="cls-47" cx="142.5" cy="138.8" rx=".2" ry=".2" transform="translate(-56.3 145.8) rotate(-46.3)"/>
          <path class="cls-45" d="M164.3,160.5c0-.3.2-.7.3-1.1h.8v.8c-.4.4-.8.3-1.1.3Z"/>
          <path class="cls-9" d="M167.6,146.1c-.9.1-.6-1-1.2-1.2,0-.4.4-.4.5-.7,1.1.3,1.2.9.7,1.9Z"/>
          <path class="cls-18" d="M138.3,149.1v3.7c-.5-1.2-.5-2.5,0-3.7Z"/>
          <path class="cls-18" d="M137.4,149.3c0,0,.1.1,0,.2,0,0,0,0,0,0-.2,0-.2-.2,0-.3Z"/>
          <path class="cls-18" d="M138.7,146.8c0,.3,0,.7-.3.9,0-.4,0-.7.3-.9Z"/>
          <path class="cls-18" d="M139,145.7c0,.3,0,.6-.3.9,0-.3,0-.7.3-.9Z"/>
          <path class="cls-45" d="M158,164.6c-.2,0-.4,0-.5-.2.3-.2.4,0,.5.2Z"/>
          <path class="cls-45" d="M158.7,163.5l.4.4-.4-.4Z"/>
          <ellipse class="cls-45" cx="144.7" cy="163.8" rx=".2" ry=".2" transform="translate(-72.8 142.9) rotate(-43)"/>
          <path class="cls-18" d="M139.4,145c0,.2,0,.4-.3.5,0-.2,0-.4.3-.5Z"/>
          <path class="cls-45" d="M141.6,162c0,0,.1.1,0,0,.1.1,0,0,0,0h0Z"/>
          <path class="cls-18" d="M137.7,147.5l.2.2-.2.2-.2-.2.2-.2Z"/>
          <path class="cls-14" d="M166.4,142.3c0,1.2-.7,2.3-1.8,2.8h0c-1.2.5-2.6.2-3.5-.8,0,0,0,0,0,0,0,0,0-.1-.1-.2,0,0,0,0,0,0h0c-.9-1.4-.6-3.2.8-4.2,1.4-.9,3.2-.6,4.2.8.3.5.5,1.1.5,1.7h0Z"/>
          <path d="M160.5,162c-5.7,4.3-14.1,3.5-18.8-1.8-4.9-5.4-4.8-13.7.3-19,5.2-5.3,13.3-5.8,19.2-.9,0,0,0,0,0,0-.9,1-1,2.5-.2,3.6,0,0,0,0,0,0h0c0,0,0,.1.1.2,0,0,0,0,0,0,.8,1,2.3,1.4,3.5.8h0s0,0,0,0c2.7,4.3,1.8,12.5-4.1,16.9Z"/>
        </g>
      </g>
    </g>
  </g>
</svg>