<?xml version="1.0" encoding="UTF-8"?>
<svg xmlns="http://www.w3.org/2000/svg" version="1.1" viewBox="0 0 300 300">
  <defs>
    <style>
      .cls-1 {
        fill: #e7811d;
      }
    </style>
  </defs>
  <!-- Generator: Adobe Illustrator 28.6.0, SVG Export Plug-In . SVG Version: 1.2.0 Build 709)  -->
  <g>
    <g id="Layer_1">
      <g>
        <path class="cls-1" d="M106.5,137.9c0-.7.3-1.3.8-1.8,1.8-2,3.1-4.4,5.2-6.2.5-.5,1.2-.9,1.9-1.1v-1.1c2.2-2.7,5.1-4.8,7.5-7.1.2-.4.2-.8,0-1.2-1.4-3.2-2.8-6.4-4.2-9.6-1.6-3.6-3.1-7.2-4.7-10.8-.5-1.1-.5-2.5.1-3.6,1.5-3,2.9-6,4.3-9.1,2.4-5.1,4.8-10.3,7.2-15.4.6-1.4,1.2-2.7,1.9-4,.3,0,.7.1.8.4,0,0,0,0,0,0,1.2,2.8,2.4,5.6,3.6,8.4,1.6,3.8,3.2,7.6,4.9,11.5,1.9,4.4,3.7,8.7,5.6,13.1.6,1.5,1.2,3,1.8,4.4.4,1,.9,2,1.4,2.9.3,0,.6.1.8,0,.9-.4,1.9-.7,2.8-1.2,1.6-.8,3.3-1.4,5.1-1.9,3.3-1.2,6.9-1.6,10.3-2.6.1,0,.3,0,.4,0,2.3-1.3,5.1-1.3,7.6-1.9,1.2-.2,2.5-.2,3.7,0l1,2c.3,1.5.2,3.1-.4,4.6.4.6.6,1.4.5,2.1,0,5.9,0,11.7,0,17.6,0,.2,0,.4,0,.6-.6.6-1.3,0-1.9.5-.4.6.3.6.6.9,0,.1-.2.3-.3.3-.9.3-1.8.6-2.7.7-1.2,0-2.4.5-3.4,1.3-1.7.5-3,1.7-4.8,2.1-1.2.4-2.3.9-3.4,1.5l-3,.2c-.7.4-1,1.2-.6,1.9.3,1,.7,1.9,1.1,2.8,2.1,5,4.3,10,6.4,15.1,2,4.7,4.1,9.4,6.1,14,1.9,4.5,3.9,9.1,5.8,13.7,1.4,3.3,2.8,6.6,4.2,9.8.3.7.6,1.5.8,2.1-.3.7-.8.5-1.2.5-3.1,0-6.3,0-9.4,0-5.1,0-10.2,0-15.4,0-.4,0-.7,0-.8,0-.6-.2-1-.7-1.2-1.2-.8-1.8-1.4-3.7-2.3-5.4-1.2-2.5-2.2-5.1-3.3-7.6-.8-1.9-1.6-3.7-2.4-5.6-2-4.8-4-9.5-6.1-14.3-.8-2-1.7-4-2.7-6-.2-.5-.4-.9-.6-1.4-.1-.5-.5-.8-1-.8-.6,0-.7.6-1,.9-.5.1-1.1-.1-1.3.5,0,.5.5.5.7.8,0,.2-.1.4-.3.5-1.5,1.2-2.7,2.6-3.6,4.3-.7,1.3-1.5,2.6-2.2,4-.2.5-.4.9-.5,1.4-.7,1.7-1.4,3.5-1.9,5.3-.2.7-.9,1.3-.8,2.1l-.8.7c.1,1.1-.2,2.2-.8,3.1,0,1.1,0,2.3-.5,3.4,0,.4-.1.7,0,1.1,0,.8-.1,1.6-.4,2.3-.4,1.1-.5,2.3-.5,3.5,0,1.8,0,3.5,0,5.3,0,.7-.3,1.3-.3,1.9,0,.6.3,1.1,0,1.6l.4,1.1-.4,1.2c.2,2.5.5,4.9,1,7.3.2.8.6,1.6.9,2.4.2.5-.4.8-.4,1.2,0,.6.9.5,1.1,1.1l-.6,1c.2,1,.7,2,1.2,2.8.6.8.2,1.9.8,2.7-.3.6-1,0-1.4.5l-.5.6-.8-.2c0,.1-.2.3-.1.4,0,.8.8,1.4.5,2.1.3.8.9.8,1,.9.4.4.6.9.7,1.4.8.5,1.5,1.1,2.1,1.9v1.2c.5.8,1.3,1.1,2,1.6,1,1.9,2.4,3.6,4.1,5,.4.4.9.7,1.4,1,.6.4,1.2.8,1.7,1.3,1,.9,2.2,1.3,3.2,2.2.5.4,1,.8,1.3,1.4,1.9,1.2,4.3,1.4,5.2,3.5.7.5,1.1-.5,1.6-.3.5.1.6.4.7.8,1,0,1.8.7,2.9.2.5,0,.7.5,1.1.7,1,.4,2.2-.3,3.3.4-.1.2-.2.4-.3.4-.9,0-1.9,0-2.7,0-.3.3-.6.4-.3.9,1.9.1,3.9.2,5.9,0l2.1,1c.5,1.3.6,2.7.3,4,0,.6-.1,1.2,0,1.7,0,6.1,0,12.3,0,18.4,0,.8,0,1.6.2,2.4.2.6,0,1.3-.4,1.7-.2,0-.4.1-.6.1-17.2,0-34.4,0-51.6,0-1.1-1.2-2.3-2.3-3.5-3.3-3.2-2.8-6.4-5.6-9.6-8.3-1.6-1.4-3.3-2.9-4.9-4.4-2.7-2.4-5.4-4.7-8-7.1-1.9-1-3.2-2.8-4.9-4-.5-.2-.8-.8-.8-1.3,2.2-.2,4.3-.2,6.5-.2,2.1,0,4.2,0,6.4,0h32.7c2.2,0,4.4,0,6.6,0,2.1,0,4.2,0,6.4,0,2.2,0,4.4,0,6.5,0,.5-.8-.2-.8-.4-1.1v-.6c-.7-.3-1.4.1-2.2.4-1.1-.6-2.5-.4-3.6-1.2.2-1,1.2-.3,1.5-.9,0-.2-.1-.4-.3-.5-.6-.1-1.3,0-2,0-.4.1-.8.2-1.3.2-.7-.1-.7-.6-1-.8-1.1-.4-2.3-.5-3-1.4h-1.7c-.5-.4-.8-1-.7-1.5l-1.3-.5.2-.8c-.7-.6-1.6,0-2.2-.3-.7-.5-.3-1.1-.5-1.6-2.9-1.2-5.6-2.9-7.9-5l-.3-1c-.8-.3-1.7-.6-2-1.5-.2-.7-.8-.8-1.3-1.1l-.2-.9c-.1,0-.3-.2-.5-.3-.2-.1-.3-.3-.5-.4v-.7c0,0-.1-.8-.1-.8-1.2-.1-1.9-1.2-2.9-1.8-.3-.5-.2-1.1-.8-1.5-1.3-1.1-2.1-2.6-2.5-4.2-.2-.7-.5-1.4-.9-1.9-.7-.9-1.2-1.8-1.6-2.8-.2-.4-.4-.8-.6-1.1-.3-.5-.6-1-.8-1.6-.5-1.7-1-3.3-1.7-4.9-.4-.9-.6-2-.7-3,0-.2,0-.4,0-.7-1.1-3-1.2-6.1-1.9-9.2-.3-1.7-.5-3.5-.6-5.2-.1-1.2-.3-2.4-.4-3.7-.1-.7,0-1.5.2-2.2,0-.3,0-.6,0-.8-.1-.4-.2-.9,0-1.3.3-1.3.4-2.6.3-3.9,0-2.8.4-5.5,1.2-8.2.1-.4.2-.9.1-1.3,0-.7.2-1.5.4-2.1.5-1.3.9-2.6,1.2-3.9.2-1.3.8-2.5,1.7-3.4.4-.5.8-1.1,1.1-1.7,0-.8,0-1.7.1-2.5,1-.7,1.9-1.7,2.4-2.8v-1.5c.7-1.4,1.5-2.7,2-3.8.6-.6,1.2-.4,1.4-.7.4-.6,0-1,0-1.4l.5-.9h.7c0,.2-.1.4.1.7.3-.3.3-.6-.2-.7ZM106.1,199.3c.1-1,0-2-.4-2.9-.6-1.7-1-3.5-1-5.3-.2-1.4-.4-2.7-.6-4.1-.1-.4-.2-.8-.3-1.3,0-4.7-.3-9.3.6-13.9.2-.9.2-1.8-.1-2.6,0-.2-.2-.4-.8-.2l-.4.4c0,.7.5,1.1.5,1.6,0,.2,0,.4,0,.5-.4.6-1.3.2-1.5.9.3,0,.7,0,1,.5.1,1.8-.2,3.6-.8,5.3.4.6.5,1.3.4,2,.2,1.4.2,2.9,0,4.3.3,1.8.5,3.6.4,5.4,0,1,.8,1.9.4,2.9l.8,1.2c0,1.4.2,2.8.4,4.1.2,1,.7,1.7.8,2.7.3,2.3,1.6,4.2,1.9,6.5,0,.2.1.4.3.6.1.3.4.4.7.2,0,0,0,0,.1,0,0-1.1-.8-2.1-.5-3.2-.5-.9-.9-1.8-1.2-2.7-.2-.9-.5-1.9-.9-2.8h0ZM122.7,225.8c1,.9,1.9,1.8,2.8,2.9.9,1.3,2,2.5,3.4,3.3.9.5,1.7,1.2,2.5,1.9.6.2,1.2,0,1.5.5,0,.3,0,.6-.2.9l-1.1.4h2.8c0,.1.9,1.4.9,1.4,1,.7,2.3,1.1,3.5,1,.2-.4.2-1-.2-1.4-.7,0-1.5,0-2.2-.1-.2,0-.4-.2-.4-.4l.6-.7c-.8-.4-2,.2-2.4-1l.2-.8-.6-.5h-2.1c-.7-.7-1.4-1.5-2.1-2.2-.4-.2-1,.2-1.1-.4.1-.5,1.3-.6.6-1.6l-2-.2-1.3-1.3-.2-1.8c-.2.2-.3.5-.8.5-.6-.3-.9-1.2-1.8-1.1l-.3.7ZM98.9,191.6c-.2-1.1-.6-2.1-1.2-3-.1-.5.4-.8,0-1.3-1.2-.1-1.3.8-1.6,1.7l.8,1.1c.2.7-.1,1.3.3,1.8l.4.3,1.2-.6ZM104.7,210.3c.4-1.2-1.2-1.7-1-2.7-.4-.7-1-1.2-1.7-1.5-.3,0-.5.1-.6.4.6,1.4,1.4,2.7,2.3,3.9.3.2.8.2,1.1,0h0ZM101.1,201c-.3-.3-.5-.5-.8-.5-.4,0-.7.3-.8.7,0,.7.8,1.5.4,2.4-.3.3-.5.7-.7,1.1-.2.3-.1.7.5.8.5-.6,1-1.3,1.5-2.1-.2-.8-.2-1.6,0-2.3h0ZM145.5,243.1l-.8.3c-.6-.2-.8-.9-1.5-.9-.6.3-1.1.8-1.4,1.4.2.3.5.3.8.3,1.4,0,2.9,0,4.3,0,.2,0,.4-.2.3-.5l-1.7-.5ZM118.6,228.4c.5-.3,1.2-.3,1.4-1-.3-.5-1-.2-1.5-.8-.3-.6-.9-1.1-1.6-1.3-.6.1-.6.5-.6,1,.6.8,1.1,1.7,2.3,2h0ZM98.8,194.9c-.3-.1-.6-.2-.9,0-.2.2-.3.3-.5.5.4.6.2,1.4.8,1.9.7.4,1.2.1,1.5-.5l-1-1.9ZM98.3,159.1l1.3.6.6-2.5c-.4-.4-.9-.4-1.4-.1.2.7-.6,1.1-.5,2h0ZM116.2,223.4c-1.2-.5-2.4-1.1-3.5-1.9-.5,0-.9,0-.9.6.8,1,2.3,1,3.1,2.1.5-.1,1,0,1.2-.7h0ZM108.8,217.6c-.1.4,0,.8.1,1.1.5.5,1.3.6,2,.4.2,0,.3-.3.4-.4-.2-.6-.6-1-1.1-1.2-.5-.1-.9,0-1.4,0h0ZM120.2,222.5c0,.5.7.5.8.9,0,.4.4.8.8.9.3,0,.6,0,.7-.4l-1.6-2c-.6,0-.8.1-.8.6h0ZM95.9,184.4c.5,0,1,.1,1.5-.2,0-.3-.1-.7-.4-.8-.4-.2-.8-.1-1.2,0-.2.2-.2.5.1.9ZM166.1,126.7c1.2.4,1.9,1.1,3,1,.3,0,.5-.2.5-.7-1.1.2-2-.9-3.5-.3ZM140,239.5q1.5.5,2.4,0c-1.2-.7-1.7-.7-2.4,0ZM112.5,213.5c.2,0,.4,0,.7,0,.1,0,.2-.2.3-.3-.5-1.3-.8-1.6-1.5-1.5l-.3.5.8,1.3ZM113.4,176c-.3,1-.4,2.1,0,3.1.2-1.1,1-1.9,0-3.1h0ZM120.3,214.4c0,.6.5,1,1,1.2.2-.4,1-.2.9-1.1-.6-.2-1.3-.3-1.9-.1h0ZM116.9,206.8c-.3,1.4-.3,1.4.8,1.8.5-.8,0-1.3-.8-1.8h0ZM112.9,208.5c.3-.3.2-.8,0-1.1-.3-.2-.7,0-.9.2,0,.3,0,.6.2.8.2.2.4.1.8,0ZM116,203.9c-.3.4-.3.9,0,1.2.4,0,.8,0,.9-.5-.1-.4-.5-.7-1-.7h0ZM101.3,208.1l-.6-.6c-.3,0-.4,0-.4,0l-.3.3c0,.4.4.8.8.8l.4-.5ZM129.1,237.4c-1,0-1.4-.7-2.1-.6-.2.2-.3.5-.2.7.7.3,1.6.3,2.3-.1h0ZM105.9,188.5c-.3.9-.3,1.1.3,1.1.3-.2.3-.6.1-.9,0,0,0,0,0,0l-.4-.2ZM136.1,241.5c.6,0,1.2.5,1.8-.2-.6-.3-1.3-.2-1.8.2ZM143.6,240.3l-.6.2c0,.2,0,.5.3.6.2,0,.5,0,.5-.4l-.2-.4Z"/>
        <path class="cls-1" d="M40.7,220c-.9,0-1.9-.1-2.7-.5-.9.9-1.5,2-1.9,3.1-.7.9-1.2,2-1.6,3.1l-.9.2c-.6.9-1.1,1.8-1.3,2.8l-1,.3-.3,1c-.4.8-1.5.3-1.8,1.1.3.9,1.2.2,1.7.6,0,0,.2.1.2.2-.2.6-.3,1.1-.5,1.6-.2.3-.5.4-.9.5-.6,0-.9-.7-1.7-.3-.7,1.7-2.3,3.1-2.9,5.1,0,.6-.2,1.3-.4,1.9-.5,1.1-.6,2.3-1.5,3.3-.5.5-.6,1.5-.8,2.2l-1.5,1.2v1.5c-.5.8-1.1.5-1.5.8-.4.4-.7.9-.8,1.5-.4.6-.9.6-1.3.7-.4.3-.4,1-1,1.1-.1,0-.4-.2-.4-.4-.2-.5-.4-1.1-.6-1.7.1-.6,1-.5,1.2-1.1,0-.4-.3-.7-.4-1.1,0-2.1,1.3-3.8,2.3-5.7.2-.5-.5-.9-.3-1.5l1.7-.3c0-1.3.5-2.6,1.2-3.7.4-1.1.7-2.3.9-3.5l-.6-.5c.7-.5.6-1.2.8-1.9l1.5-1.7-.4-1.3c.3-.8.8-1.6,1.3-2.3l.2-1.2c.4-.4,1-.5,1.1-.9.4-.8-.5-1.2,0-2.3.7-.8,1-2.3,1.7-3.7.7-1.4.9-3,1.7-4.4.7-1.3.5-3,1.4-4.4.2-.4.8-.4,1.2-.8l.7-1.9v-2.2c.7-.8,1.1-1.8,1.2-2.9.2-.9.8-1.7,1.7-2.1.2-1.1,1.2-1.9,1.2-3.1l1.1-.5c0-.2.2-.3.1-.4-.3-1.7.1-3.5,1.1-5,.5-1,.3-2.2,1.2-3,.3-1,.7-1.9,1.1-2.8.4-1,.6-2.1.9-3,.3-.6.9-1,1.5-1.3,0-.6-.4-.5-.7-.5-.3,0-.6,0-.8-.2.2-.7.6-1.4,1.1-1.9,0-.9.3-1.8.8-2.6,1-1.4,1.7-2.9,2.1-4.5.3-1.3.8-2.5,1.5-3.6v-1.9c.1,0,.8-.6.8-.6.2-1.1.4-2.1.7-3.1.3-1,.9-1.9,1.5-2.6v-1.6c1.1-1.6,1.7-3.4,2-5.3.6-.3,1.5-.2,1.6-1.3l-.3-.7c.1-.5.3-1.1.5-1.6.7-1.2,1.2-2.5,1.7-3.8.4-1.1,1.1-2,1.4-3.1.4-1,.9-2,1.5-2.9,0-.1.2-.2.2-.4.4-2.5,2.2-4.4,2.9-6.8.3-.8.8-1.4,1.5-1.9-.1-2.6,1.4-4.6,2.6-6.9,0-1.2.4-2.3,1.1-3.2.8-1.4,1.5-2.8,2-4.3.3-.9.9-1.8,1.7-2.3,0-1.4.4-2.7,1.1-3.9,1.2-2.5,2.3-5,3.5-7.5.5-1.1.4-2.3,1.2-3.4l1.1-.8c.3-.5,0-.8-.1-1.2.3-1.1.7-2.2,1.2-3.2.9-1.7,1.3-3.6,2.4-5.1.6-.6,1-1.4,1.3-2.2.1-.6.2-1.3.3-1.9.9-1.4,1.7-2.9,2.2-4.5.3-.8.7-1.6,1.2-2.3.7-1,1-2.2.9-3.4.8-1.7,1.5-3.3,2.3-5,.7-.3,1.3-.9,1.5-1.6.3-.7.6-1.3,1-2,0-1.4.4-2.7,1.2-3.8.9-1.6,1.6-3.3,2.4-4.9,1.3-2.6,2.5-5.2,3.7-7.9.7-1.7,1.8-3.2,2.5-4.8,1.5-3.2,2.9-6.3,4.4-9.5.9-2,1.8-4,2.7-6,.1-.3.3-.7.7-.8.4,0,.6.3.7.6,1.8,4.4,3.7,8.7,5.5,13.1,1.2,2.7,2.4,5.5,3.6,8.2,1.1,2.5,2.2,4.9,3.2,7.4.4,1.1,1,2.2.2,3.3-.1.2,0,.5,0,.8.6,0,1-.5,1.7.4.4,1.3,0,2.8-1.2,3.7v1.3c-.3.7-.7,1.3-1.2,1.9.1,1.9-1.5,3.2-2.1,4.9-.3.8-1,1.3-1.3,2.2-.3.8-1.1,1.3-1.5,2.1-.1.3-.4.5-.4.7-.3,1.5-1.1,2.8-2.3,3.9-.1.1-.2.3-.3.5,0,.4,0,.9,0,1.4-.2.5-.6.9-1,1.2-.7.3-.9-.2-1.4-.1-.2.6.7.4.6,1.2-.7,1-1.2,2.1-1.2,3.3-1,1.4-1.2,3.1-2.4,4.1-.6,2-.7,4-2.7,5-.3.3-.1.9-.6,1.1-.3.1-.6.1-.8,0-.5-.2-.2-.8-.6-1.2h-.6c-.4.4-.7.9-.8,1.4.6.9,1.5.1,2.2.6.4.6.1,1.3,0,1.9-.1.1-.2.2-.2.2-.4,0-.8.1-1.2.2-.8-.4-.2-1.3-.8-1.8-.1,0-.3,0-.4,0-1,.4-.5,1.6-1.2,2.2-.6.6-1.1,1.4-1.3,2.2,0,.1,0,.3.1.4.9.6,1.7,0,2.4-.2.2,0,.4.3.4.5,0,.6-.6.8-.7,1.2-.1.5-.2,1-.4,1.5-.4.9-1,1.8-1.5,2.7-.4.6-.8,1.2-.9,1.9,0,.9-.6,1.7-1.5,1.9-.3.8-.1,1.7-1,2.2-.2.8-.7,1.6-.6,2.4l-1.7,2.5v1.5c0,0-1.3,1.5-1.3,1.5l.4,1.2-1,.4c-.4.4.4.8.1,1.1-.2.6-1,.3-1.2.8-.2.5.1.9.3,1.3-.3.6-.4,1.3-.5,2-.5.8-1.3,1.5-1.4,2.5-.3.4-.9.5-1.2,1.3v1c0,0-.8.9-.8.9v1.2c-.4.5-.8.8-1.3.9-.4,1.9-1.1,3.7-2.1,5.4-.8,1.7-1.2,3.6-2.6,5,0,.4,0,.7-.1,1-.6.6-1.3.8-1.7,1.7.2,1.3-.8,2.6-.9,4.1l-1.1,1.3c-.5,1.8-1.2,3.5-2.1,5.2-.1.3-.3.7-.4,1-.8,2.1-1.7,4.1-2.8,6.1-.5,1-1.4,1.9-1.2,3.1l-1.3.6v2.6c-1.1,2.1-2.3,4.2-3.6,6.2l-2.7,1.3c-.9,1.3-1.5,2.6-2,4.1,0,.5.6.4.8.8,0,.6-.4.9-.9,1-.5,0-1,0-1.5.6-.3.4.2,1.2-.4,1.7.1.4.7.4.6.8,0,.1-.1.3-.2.3-.6.1-1.1.3-1.6.6-.9,1.7-2.1,3.2-3.4,4.6v2.1c-.9.4-1.8.7-2.8.8-.7.7,0,1.2,0,1.7,0,.1-.1.3-.2.3-.6.3-1.1.5-1.8.8.6.3,1.6.2,1.5,1.3-.7.7-1.8-.3-2.4.5,0,.8.9.3,1.1.8.1.3.1.6,0,.8-.5.5-.8-.2-1.2-.1-.5.3-.8,1-1.6,1,.3.6,1.1.6,1.5,1.1,0,.1,0,.3-.2.3-.4,0-.9,0-1.3.2-.4,0-.7-.6-1.3,0,.2,1.2,1.5,1.2,2.1,1.8.2.5-.2,1-.3,1.4,0,.4-.8.4-.8.9,0,.5-.3,1-.8,1.1-.5-.4.3-.9-.4-1.3-1.1.7-2.3,1.4-3.6,1.9v.7c-.4,0-.9,0-1.3,0-.4,0-.7.7-1.2.2.1-.7.9-1.1,1.1-1.7.6-.2,1.2,0,1.8-.4-.8-.7-1.9-.9-2.9-.6-.6.4-.4,1.1-.7,1.5-.3.4-.5.9-.4,1.4,0,.5-.7.8-.1,1.5,1.4.3,2.5-.6,3.7-1.1v-.7l.6.2c0,.1.2.3.1.4-.2,1.1-1.1,1.7-1.5,2.5h-.5s0,0,0,0c0-.3.1-.6-.2-.8q-.7,0-.8.8h0ZM62.3,170.7c.7-1,.7-2.2,1.4-3.1,1.1-1.4,1.9-3.1,2.3-4.8,0-.3.2-.5.3-.8,1.2-1.6,1.7-3.5,2.7-5.2.2-.3.3-.7.2-.8-.2-.3-.6-.4-.9-.3-.7,1.5-1.9,2.8-2,4.7l-1.1.8c-.4.9-.6,1.9-.7,2.9-.4.2-.9.4-1.2.9v1.2c-1.1,1.3-2.5,2.5-2.5,4.3.5.4.9.2,1.4.2h0ZM72,167c.1-.9.4-1.9.9-2.7.7-1.3,1.3-2.8,2.1-4.1.7-1.1.9-2.5.8-3.8,0-.1-.1-.2-.3-.4l-.3,1.4-1.2,1.3c0,1-.6,2-1.5,2.6-.4,1.3-.9,2.6-1.4,3.8-.7,1.1-1.1,2.5-1,3.8-.8,1.1-2.1,1.9-1.5,3.5h.6c1-1.2,1.6-2.6,1.8-4.1l1.1-1.3ZM53,187.3c.3.2.6.3.7,0,.8-.9,1.5-1.9,2.1-3,.8-1.8,1.8-3.6,2.8-5.4,0-.4,0-.8,0-1.3-.1-.4.6-.7.1-1.2h-.6c-.9,2.2-2.3,4.1-3.2,6.4,0,.3-.9,0-1,.7-.2.4.3.7.3,1.2-.6.7-1,1.5-1.2,2.3ZM74.8,143.2c-.3-.5-.7-.4-1.3,0-.2.8-.5,1.5-1.1,2.1,0,.6-.2,1.2.2,1.7.3.1.6,0,.8-.2.7-1.1,1.5-2.2,1.3-3.6ZM25,234.9c1-1,1-2.5,1.9-3.5-.3-.5-.5-.7-1.1-.5l-1.2,1.4c.1.7,0,1.5-.4,2.1,0,0,0,.3.1.4h.7ZM71,152.3c.4-.4.2-.9.4-1.3.2-.4.5-.9.7-1.3-.2-.4-.6-.7-1-.6-.5,1-1.1,2-1.7,3.1,0,0,.1.2.2.4.5.2,1.1.1,1.5-.3ZM52.6,157.2c0,.8,0,1.6-.4,2.3,0,0,.2.2.3.3l1.2-.9c.5-.2.9,0,1.3-.4.6-1,.9-2.2.9-3.3-.6.6-.6,1.4-.9,2.1l-.9.5-1.5-.7ZM99.3,108.4l-1.8,1.4c-.3.5,0,1,0,1.5-.1.4-.7.8-.3,1.3q1-.4,2.3-4.2h0ZM31,216.1c-.5.2-1,.6-1.2,1.1.2.3.5.5.9.5q.7-.7.4-1.5ZM82.3,141.1c.7.5.9.2,1.2-.3-.5-.2-.8-.2-1.2.3ZM89.2,127.9c-.4.4-.4.7.3.8l.2-.5c-.1-.2-.3-.3-.6-.3Z"/>
        <path class="cls-1" d="M212.3,220.9c.6.3,1.2.2,1.7.2.5,0,1,0,1.5.1,1,.3,2,.3,3,0,.5,0,1-.1,1.5-.1,2.3,0,4.5,0,6.8,0,.9-.1,1.9,0,2.7.5,1.3-.6,2.8-.6,4.1,0l1.8-.8c.2,0,.4,0,.5,0,.7.3,1.5.5,2.3.4,2.3,0,4.7,0,7,0,1.2.1,2.3,0,3.5-.3.6-.2,1.2-.2,1.7,0,1,.3,2,.4,3,.3,3.3,0,6.6,0,9.9,0,.7,0,1.5-.1,2.1-.5.8.4,1.7.5,2.5.5,1.2-.1,2.3,0,3.5.3.6.1,1.2,0,1.8-.3.6.3,1.4.3,2,.1.5-.2,1.2.2,1.9,0,.8-.1,1.5-.1,2.3,0l1.1.8c.7.2,1.1-.3,1.5-.8h.8c0,.3-.3.6.2,1.3.2.3,1.2-.4,1.7.2.1.2,0,.5-.2.7h-3.9l-.7-.7c-.7,0-1.4.5-1.4,1.2-1.6-.2-3.1.5-4.5-.4-.6.3-1.1.3-1.4.9l.6,1.1c-.1,0-.2.2-.3.2-1.2,0-2.3,0-3.4.4-.4.2-.9.1-1.3,0-.5-.3-1.2-.3-1.6.1,0,.3,0,.6.3.7.6.3,1.4.5,1.8,1.3.9,0,1.7,0,2.6,0,.7,0,1.3,0,1.9.2.7.2,1.4.2,2.2.2,2,0,3.9.1,5.8.6.2.4,0,.5-.4.7-1.1.4-2.3.6-3.4.5-1.4,0-2.9.3-4.2.8-.4,0-.5-.3-.6-.5-.8-.4-1.9-.3-2.6.2-1-.5-2.2-.5-3.3-.1-.5.2-1-.2-1.5-.2-.4,0-.7.2-1,.3-1.1.7-2.5.8-3.8.2-.4-.2-1,0-1.4,0-.4.1-.6.5-.7.9.1.1.2.3.3.3,1.8,0,3.6.4,5.2,1.1.5.2,1.2,0,1.6.4v.5c-1,.4-2.2,0-3.4.2-.5.4-1.3.5-1.6,1.3,0,.4.4.4.6.5.5,0,1-.3,1.5-.3.4.2.9.4,1.4.4.8,0,.8,0,1.2.6-.8.6-1.7.1-2.5.4l-.4.4c-.2.5.2.9.2,1.3-.2.1-.3.3-.4.3-1.5,0-2.9-.1-4.3-.3-1.2-.3-2.5-.2-3.7.2-.8.3-1.8,0-2.5.4-.9-.3-1.9-.4-2.8-.2-.2.1-.3.4-.3.6.9.5,1.9.7,2.9.8,0,.6-.3.7-.6.6-.9-.1-1.9,0-2.8.5-.8.1-1.3-.3-2-.4-2.3.6-4.7.8-7,.6-.8.3-1.4.9-1.8,1.7-1.2.2-2.5.1-3.7-.3-.9.3-1.8.4-2.8.4-.4.3-.6.5-.4.8.6.5,1.1-.2,1.6-.2.6,0,1.2,0,1.7,0l1.5.7c1.2-.3,2.4-.4,3.6,0,.4.7-.5,1,0,1.8.2.3.6-.4.9-.3.6,0,.8.6,1.5.8.9,0,1.7,0,2.6.2.8.3,1.9-.2,2.7.6-.5.8-1.3,1-1.8,1.6-1.3.2-2.6,0-3.7.5l-1.7-.5c-.8.3-1.5.7-2.2,1.2.8.6,1.8,0,2.4.6,0,.5-.5.4-.8.4-.5,0-1,0-1.5.3-.7.5-1.5,0-2.3.2-1,.2-2,.2-3.1.5-1.9-.9-4.1-.2-6.2-.7-.6.3-1.4.4-2.1.3-1.5,0-3.1,0-4.6.3-1.9.3-3.8.2-5.6-.3-.9-.3-1.9.3-2.7-.5l-1.4.8c-1.8,0-3.6.3-5.3.8-1.7.3-3.4.2-5-.3-1.8.9-3.3.2-4.6-1.1v-29.8c.8-.8,1.5-.2,2.4,0,1-.2,2-.4,3.1-.6.4,0,.7-.1,1.1,0,1.3.3,2.6.3,3.9,0,1.1-.2,2.2.1,3.4-.1,1.8-1.5,3.3-3.2,4.6-5.2,1.9-2.8,3.4-5.8,4.6-8.9.9-2.8,1.6-5.6,2.1-8.4.4-2.2.5-4.4.3-6.5-.5-5.8-2.3-11.3-5.4-16.2-1.7-2.9-3.9-5.5-6.3-7.8-4.1-3.8-8.9-6.9-14.1-9.1-3.2-1.3-6.5-2.3-9.8-2.9-2.1-.5-4.3-.7-6.5-.7-.6,0-1.2,0-1.6,0-.4-.2-.6-.7-.5-1.1,0-7.8,0-15.5,0-23.3,0-.4,0-.7.2-1,1.8-.3,3.6-.3,5.4,0,.4.1.8.2,1.3.2,2.3.2,4.6.6,6.9,1.2,4.5,1.1,8.9,2.7,13.1,4.8,3.1,1.6,6,3.5,8.8,5.7,5.3,4.2,9.8,9.5,13.1,15.4,1.3,2.3,2.4,4.7,3.3,7.1,1,2.9,1.8,5.8,2.3,8.8.7,3.8.9,7.7.5,11.6-.3,3.4-.8,6.8-1.8,10.1-.9,3.1-2.2,6.2-3.7,9.1-1.1,2.1-2.2,4.2-3.5,6.3-.5.8-1.1,1.5-1.7,2.2-1.4,2-3.2,3.8-5.1,5.4-.8.7-1.6,1.5-2.4,2.3-.1.2-.2.4-.2.6ZM235.3,239.1c2.6.6,5.3.8,7.9.5.8-.9.8-1,.3-1.4-.5.3-1.1.4-1.8.4-.9-.7-2.2-.1-3.2-.8l-1.1.6c-.8,0-1.4-.6-2.2,0v.6ZM254,236.9c.8.2,1.7.3,2.5.2.5-.4,1.1-.4,1.4-1.1-.1-.9-.7-1.1-1.6-1l-.4,1.1c-.6.4-1.4-.2-2,.7h0ZM237.5,246.6c.1-.5.1-.7-.2-.9q-.7.2-.5.9h.7ZM247.9,239.7c0-.4,0-.6-.3-.7-.5-.2-1-.1-1.4.1.3.8.9.7,1.7.6h0ZM259.6,234.2c-.5.5-.2.9.3,1.1.5-.6.4-1-.3-1.1h0Z"/>
        <path class="cls-1" d="M243.9,244.2h2.5c.8-.2.3-1,1-1.1q1.7,1.3,4.1.7c.4.2,0,.5.2.8h3.7c.4.2.5.4.4.7-.2,0-.4.1-.6.2-1.3,0-2.6.2-3.9.4-1.3.2-2.6.2-3.9.1-.9-.1-1.7,0-2.5.4l-1.1-.5c-.3-.3-.4-.8-.3-1.2l.6-.5ZM248.5,245.3c.5.2.9.3,1.1-.3-.6-.5-.9-.1-1.1.3h0Z"/>
        <path class="cls-1" d="M272.3,235.6c-.3.5-1,.1-1.4.5-.2.2-.4.4-.6.7h-2.3l-1.3-1.3c.1-.2.2-.4.3-.4,1.5-.2,3-.2,4.5,0,.4,0,.7.3.8.6Z"/>
        <path class="cls-1" d="M254.7,244.1v-.6c1.7-.5,3.5.3,5.3.6h-5.3Z"/>
        <path class="cls-1" d="M41.5,220c0,.6-.3,1.2-.8,1.6-.3,0-.4-.1-.5-.3-.2-.6.5-.8.4-1.3h0s.9,0,.9,0h0Z"/>
        <path class="cls-1" d="M56.7,201.4c-.5.3-.8.3-1.1,0-.1-.6,0-.7,1-.8.3.2.2.5,0,.8Z"/>
        <path class="cls-1" d="M61.1,191.6c.3,0,.6,0,.7.3q-.6.4-1.3.3c0-.3.3-.5.6-.5Z"/>
        <path class="cls-1" d="M56.6,198.7c.3-.3.8-.2,1.1,0,0,.2,0,.5-.3.5,0,0,0,0,0,0-.4,0-.6-.3-.7-.6Z"/>
        <path class="cls-1" d="M102.7,104.7s0,0-.1-.1c-.3-.4,0-.6.2-.9.5-.1.6.2.7.4,0,.6-.4.7-.8.7Z"/>
        <path class="cls-1" d="M59.2,195.9c-.2,0-.5,0-.6-.3l.2-.4c.2,0,.5,0,.6.3l-.2.5Z"/>
        <path class="cls-1" d="M102.8,102.8c.2.1.2.3,0,.4-.2-.1-.2-.3,0-.4Z"/>
      </g>
    </g>
  </g>
</svg>