<?xml version="1.0" encoding="UTF-8"?>
<svg xmlns="http://www.w3.org/2000/svg" version="1.1" viewBox="0 0 300 300">
  <defs>
    <style>
      .cls-1 {
        fill: #f2643d;
      }
    </style>
  </defs>
  <!-- Generator: Adobe Illustrator 28.6.0, SVG Export Plug-In . SVG Version: 1.2.0 Build 709)  -->
  <g>
    <g id="Layer_1">
      <path class="cls-1" d="M214.9,136.9c-15.6-19.8-38.2-32.3-63.4-35.1-16.9-1.9-33.6,1.8-48.1,10.4-1.3-5-2.3-9.9-3-14.7-3.1-20.8-.2-36.9,2.7-46.8,3.2-10.7,7.1-16.6,7.1-16.6,1.2-1.7.8-4.1-.8-5.3-1.7-1.3-4-1-5.4.5-.2.3-6,7-11.1,19.4-4.7,11.3-9.6,29.7-6.8,53.2.8,6.7,2.2,13.4,4.1,20.2-13.7,12.5-22.4,29.3-24.7,47.8-1,8-.5,16,1.5,23.6,1.8,9.6,5.8,18.7,12,26.5,10.1,12.8,24.7,20.9,41,22.7,1.9.2,3.7.3,5.5.3,14.3,0,27.5-6.1,36.9-16,16.1,14.8,34.5,29.7,55.4,44.4.7.5,1.5.7,2.3.7,1.2,0,2.4-.5,3.2-1.6,1.3-1.7,1-4.1-.7-5.4-20.1-15.7-37.8-31.5-53.2-47.2,3.4-5.8,5.7-12.3,6.6-19.3.2-1.5,4.1-23.1-7.6-35.7-8.5-9.2-17.1-13.2-28.1-14.4-6.9-.8-13.8,1.2-19.9,5.5-5.4-9.7-9.8-19.4-13.1-28.9,12.6-7.7,27.7-11.4,43.3-9.7,12.2,1.4,23.7,4.9,34.1,10.5,10.2,5.5,18.8,12.7,25.8,21.5,6.4,8,11,17.1,13.7,26.8,2.9,10.2,3.6,20.9,2.3,31.8h0c-.3,2.2,1.3,4.2,3.4,4.4,2.2.3,4.1-1.3,4.4-3.4h0c3.2-25.3-3.7-50.2-19.4-70.1h0ZM161.5,173.3c10,14.3,4,32.1.9,37.1-12.4-13.4-23.1-26.8-31.9-40-1.5-2.3-3-4.7-4.5-7,4.1-1.9,8.8-2.7,13.6-2.2,8.7,1,16.9,5,21.9,12.1h0ZM103.1,182.9c-.3,2.2,1.3,4.1,3.4,4.4,2.2.3,4.1-1.3,4.4-3.4h0c.5-4,1.9-7.7,4-10.9,1,1.4,1.9,2.8,3,4.2,10,14.1,22.4,28.2,36.9,42.4-9,8.3-21.3,12.8-34.2,11.3-14.4-1.6-27.3-8.7-36.2-20-4.5-5.8-7.8-12.3-9.7-19.2-.9-5.2-1.1-10.7-.4-16.1,2-16,9.4-30.1,20.2-40.7,3.9,10,9,20.1,15.2,30.2-3.5,5.4-5.9,11.6-6.7,17.8h0Z"/>
    </g>
  </g>
</svg>