<?xml version="1.0" encoding="UTF-8"?>
<svg xmlns="http://www.w3.org/2000/svg" version="1.1" viewBox="0 0 300 300">
  <defs>
    <style>
      .cls-1 {
        fill: #90bd4c;
      }

      .cls-2 {
        fill: #201b56;
      }
    </style>
  </defs>
  <!-- Generator: Adobe Illustrator 28.6.0, SVG Export Plug-In . SVG Version: 1.2.0 Build 709)  -->
  <g>
    <g id="Layer_1">
      <g>
        <path class="cls-1" d="M150,130.6c10.7,0,19.4,8.7,19.5,19.4,0,10.7-8.7,19.4-19.4,19.5-10.7,0-19.4-8.7-19.5-19.4,0-.1,0-.2,0-.3,0-10.4,8.8-19.1,19.4-19.1Z"/>
        <path class="cls-2" d="M223,150.8c-1.5,0-2.9.2-4.4.6v-2.3c.4,0,.7.2,1,.3,5.6,1.4,11.5-1.2,14.1-6.4.1-.3.3-.6.3-.9,1.2-2.9,1.2-6.2,0-9.2,0-.2-.1-.4-.2-.6-2.9-6.2-10.2-8.8-16.4-6-.5.2-1,.5-1.5.9-.1,0-.3.2-.4.3,0,0,0,0,0,0-.2.1-.4.2-.6.2-.2-.7-.5-1.3-.7-2,7.3-.5,11.2-5.6,12-10.6.8-5.4-2.1-10.6-7-12.9-5.6-2.6-11-1-15.8,4.7-.5-.6-.9-1.1-1.4-1.7,6.5-3.9,8.9-8.5,7.6-14.2-1.1-5.2-5.5-9.1-10.9-9.6-3-.3-6.1.5-8.5,2.4-2.4,1.8-4.1,4.5-4.7,7.5-.7-.4-1.3-.8-2-1.2,4.8-4.6,5.3-10.6,2.7-15.3-3.3-5.9-10.8-8.1-16.8-4.7-4.5,2.5-6.9,7.6-6.2,12.6-.8-.2-1.5-.3-2.2-.5,3.2-6.7.7-12.5-3-15.5-4.1-3.4-9.8-3.8-14.3-1-2.2,1.3-3.9,3.3-4.9,5.7-1.5,3.6-1.2,7.2.6,10.9-.9-.2-1.6.3-2.3,0,.6-6.1-2.3-11.1-7.6-13.3-5-2-10.6-.6-14.1,3.5-1.8,2.1-2.8,4.8-2.8,7.6,0,3.7,1.4,7.2,4.2,9.6-.7.4-1.4.8-2,1.1-2-6.5-6.3-10-12.1-10-6.8,0-12.3,5.4-12.4,12.2,0,1.4.2,2.7.6,4,1.1,3.5,3.8,6.3,7.2,7.6-.5.6-1,1.2-1.5,1.8-4-6.1-10.3-6.9-14.9-5.2-5.2,1.9-8.3,6.8-7.9,12.7.2,2.5,1.1,4.8,2.8,6.7,2.3,2.8,5.6,4.4,9.2,4.5-.3.8-.5,1.4-.8,2.1-5.9-4.4-12.4-2.9-16.1.4-4,3.6-5.2,9.4-3,14.3,2.6,5.6,7.3,7.7,15.1,6.6v2.2c-6.8-1.5-11.9.5-14.8,5.7-2.6,4.7-1.9,10.4,1.7,14.3,1.9,2.1,4.5,3.4,7.3,3.8,3.4.5,6.8-.4,9.5-2.6.3.8.5,1.5.7,2.2-7,.9-11.2,4.7-12.1,11-.6,5.4,2.4,10.6,7.4,12.7,5.6,2.4,12.2.3,15.4-4.9.5.6,1,1.2,1.4,1.8-6.7,3-8.5,8.9-7.7,13.7,1.2,6.7,7.6,11.1,14.3,9.9,5-.9,8.9-4.7,9.9-9.7.7.4,1.4.8,2,1.2-5.2,4.5-5.7,12.2-1.3,17.4,2.8,3.2,7.1,4.8,11.3,4.1,2.6-.4,5-1.7,6.8-3.5,2.8-2.9,3.8-6.5,3.4-10.5.8.2,1.5.3,2.2.4-2.4,7.4-1.3,12.3,3.4,15.9,4.2,3.2,10,3.4,14.3.4,2.2-1.4,3.8-3.5,4.7-6,1.2-3.3.9-7-.8-10.2.8-.1,1.5-.2,2.2-.4-.2,7.2,2.8,11.9,8.6,13.7,5.2,1.6,10.7-.3,13.8-4.8,2.7-3.9,3.6-10.8-2-16.3.6-.4,1.3-.7,2-1.1.4,2,1.3,3.8,2.5,5.4,1.2,1.6,2.8,2.8,4.7,3.6,1.8.8,3.8,1.2,5.8,1,5.6-.5,9.9-4.2,11.1-9.4,1.4-5.9-.9-10.4-7.4-14.5.5-.5.9-1.1,1.4-1.6,5.2,5.9,10.5,7.4,16.1,4.7,6.1-3,8.6-10.4,5.6-16.5-2-4.1-6.2-6.8-10.8-6.9.3-.7.5-1.4.8-2.2.3.2.5.3.7.5,3.9,2.8,9,3,13.1.7,0,0,0,0,0,0,5.9-3.3,8.1-10.7,4.8-16.7-2.1-3.8-6.1-6.2-10.5-6.3h0ZM77.2,169.3c-3.8,0-6.8-3.1-6.8-6.9,0-3.8,3.1-6.8,6.9-6.8,3.8,0,6.8,3.1,6.8,6.9,0,3.8-3.1,6.8-6.9,6.8,0,0,0,0,0,0ZM77.3,143.7c-3.8,0-6.9-3.1-6.8-6.9,0-3.8,3.1-6.9,6.9-6.8,3.8,0,6.8,3.1,6.8,6.9,0,3.8-3.1,6.8-6.9,6.8h0ZM229.6,137.5c0,3.8-3.1,6.8-6.9,6.9-3.7,0-6.8-3.1-6.8-6.8,0-3.8,3-6.9,6.8-6.9,3.8,0,6.8,3.1,6.9,6.9h0ZM213.2,150.2c0,3-2.4,5.4-5.3,5.4s-5.4-2.4-5.4-5.3c0-3,2.4-5.4,5.3-5.4,0,0,0,0,0,0,2.9,0,5.3,2.4,5.3,5.3ZM214.1,106.5c3.8,0,6.8,3.1,6.8,6.9,0,3.8-3.1,6.8-6.9,6.8-3.8,0-6.8-3.1-6.8-6.9,0-3.8,3-6.8,6.8-6.8,0,0,0,0,0,0h0ZM204.5,125.1c3,0,5.3,2.5,5.3,5.4,0,2.9-2.4,5.3-5.3,5.3-3,0-5.4-2.4-5.4-5.3,0-3,2.4-5.4,5.3-5.4,0,0,0,0,.1,0ZM197.8,86.8c3.7,0,6.7,3.1,6.7,6.8,0,0,0,.1,0,.2,0,3.7-3.1,6.7-6.9,6.7-3.8,0-6.8-3.1-6.8-6.9,0-3.8,3.1-6.8,6.9-6.8,0,0,0,0,.1,0h0ZM194.4,107.6c3,0,5.4,2.3,5.5,5.3,0,3-2.3,5.4-5.3,5.5-3,0-5.4-2.3-5.5-5.3,0,0,0,0,0-.1,0-2.9,2.4-5.3,5.3-5.4h0ZM184.5,100.1c0,3-2.5,5.3-5.4,5.2-3,0-5.3-2.5-5.2-5.4,0-2.9,2.4-5.3,5.4-5.3,3,0,5.4,2.5,5.3,5.4ZM175.6,73.9c3.8,0,6.8,3.1,6.8,6.8,0,3.8-3.1,6.8-6.8,6.8-3.8,0-6.8-3.1-6.8-6.8,0,0,0,0,0,0,0-3.7,3.1-6.7,6.8-6.8h0ZM160.3,87.7c2.9,0,5.3,2.4,5.3,5.3,0,2.9-2.4,5.3-5.3,5.3-2.9,0-5.3-2.4-5.3-5.3,0,0,0,0,0,0,0-2.9,2.4-5.3,5.3-5.3h0ZM150.4,69.3c3.8,0,6.8,3.1,6.8,6.8,0,3.8-3.1,6.8-6.8,6.8-3.8,0-6.8-3.1-6.8-6.8,0-3.8,3.1-6.8,6.8-6.8ZM140.2,87.6c3,0,5.4,2.4,5.4,5.4,0,3-2.4,5.4-5.4,5.4-3,0-5.4-2.4-5.4-5.4,0,0,0,0,0,0,0-2.9,2.4-5.3,5.4-5.3ZM125.1,73.6c3.8,0,6.8,3.1,6.8,6.9,0,3.8-3,6.8-6.8,6.8,0,0,0,0,0,0-3.8,0-6.8-3.1-6.8-6.9,0-3.7,3.1-6.7,6.8-6.8h0ZM121.3,94.4c3,0,5.4,2.4,5.4,5.3s-2.4,5.4-5.3,5.4c-3,0-5.4-2.4-5.4-5.3,0-3,2.4-5.4,5.3-5.5ZM111.2,112.6c0,3-2.4,5.3-5.4,5.3-3,0-5.3-2.4-5.3-5.4,0-3,2.4-5.3,5.4-5.3,0,0,0,0,0,0,2.9,0,5.3,2.5,5.3,5.4ZM96,93.2c0-3.7,3.1-6.7,6.9-6.8,3.8,0,6.9,3,6.9,6.8,0,0,0,0,0,0,0,3.8-3.1,6.9-6.9,6.9-3.8,0-6.9-3.1-6.9-6.9,0,0,0,0,0,0ZM95.8,124.6c3,0,5.3,2.5,5.3,5.4,0,3-2.5,5.3-5.4,5.3-2.9,0-5.3-2.4-5.3-5.4,0-3,2.4-5.3,5.4-5.3,0,0,0,0,0,0ZM97.5,149.7c0,2.9-2.4,5.3-5.4,5.3-2.9,0-5.3-2.4-5.3-5.4,0-2.9,2.4-5.3,5.3-5.3,2.9,0,5.3,2.3,5.4,5.3,0,0,0,0,0,0ZM79.4,112.7c0-3.8,3.1-6.9,6.9-6.8,3.8,0,6.8,3.1,6.8,6.9,0,3.8-3.1,6.9-6.8,6.9-3.8,0-6.9-3.1-6.9-6.8,0,0,0,0,0,0ZM86,193.4c-3.8,0-6.9-3-6.9-6.8,0-3.8,3-6.9,6.8-6.9,3.8,0,6.8,3,6.9,6.7,0,3.8-2.9,6.9-6.7,6.9,0,0,0,0,0,0ZM95.6,174.9c-3,0-5.4-2.4-5.4-5.4,0-3,2.4-5.4,5.4-5.4,3,0,5.4,2.4,5.4,5.4,0,0,0,0,0,0,0,2.9-2.4,5.3-5.4,5.4ZM102.3,213.1c-3.8,0-6.9-3.1-6.9-6.8,0-3.8,3.1-6.9,6.8-6.9,3.8,0,6.9,3.1,6.9,6.8,0,3.8-3.1,6.9-6.8,6.9h0ZM105.6,192.3c-3,0-5.4-2.4-5.4-5.3s2.4-5.4,5.3-5.4,5.4,2.4,5.4,5.3c0,0,0,0,0,0,0,2.9-2.4,5.3-5.3,5.3h0ZM115.5,199.9c0-3,2.4-5.3,5.3-5.3s5.3,2.4,5.3,5.3c0,2.9-2.4,5.3-5.3,5.3-2.9,0-5.3-2.3-5.4-5.2,0,0,0-.1,0-.2ZM124.4,226.1c-3.8,0-6.9-3.1-6.8-6.9,0-3.8,3.1-6.8,6.9-6.8,3.8,0,6.8,3.1,6.8,6.9,0,3.8-3.1,6.8-6.9,6.8ZM139.8,212.2c-3,0-5.4-2.3-5.4-5.3,0-3,2.3-5.4,5.3-5.4,0,0,0,0,.1,0,2.9,0,5.3,2.4,5.3,5.4,0,2.9-2.4,5.3-5.3,5.3h0ZM149.6,230.6c-3.8,0-6.8-3.1-6.8-6.9,0-3.8,3.1-6.8,6.9-6.8,3.8,0,6.8,3.1,6.8,6.9,0,3.8-3.1,6.8-6.9,6.8,0,0,0,0,0,0ZM159.8,212.3c-3,0-5.3-2.4-5.3-5.4,0-3,2.4-5.3,5.4-5.3,2.9,0,5.3,2.4,5.3,5.3,0,3-2.4,5.4-5.4,5.4,0,0,0,0,0,0h0ZM175,226.3c-3.8,0-6.9-3.1-6.9-6.8,0-3.8,3.1-6.8,6.9-6.8,3.8,0,6.8,3.1,6.8,6.8,0,3.7-3.1,6.8-6.8,6.8ZM178.7,205.6c-3,0-5.4-2.4-5.3-5.4,0-3,2.4-5.4,5.4-5.3,2.9,0,5.3,2.4,5.3,5.3,0,3-2.4,5.4-5.4,5.4h0ZM149.1,196c-25.2-.6-45.3-21.3-45.2-46.5.1-25,20.9-45.6,46.1-45.6,25.4,0,46,20.7,46,46.1,0,25.4-20.7,46-46.1,46-.3,0-.5,0-.8,0h0ZM194.1,182c3,0,5.4,2.4,5.4,5.4,0,3-2.4,5.4-5.3,5.4-3,0-5.4-2.4-5.4-5.3,0,0,0,0,0,0,0-2.9,2.4-5.3,5.3-5.4ZM204,206.7c0,3.8-3.1,6.8-6.9,6.9-3.8,0-6.8-3.1-6.8-6.9,0-3.8,3.1-6.8,6.9-6.8,0,0,0,0,0,0,3.7,0,6.8,3.1,6.8,6.8ZM198.9,170c0-2.9,2.4-5.3,5.3-5.3,2.9,0,5.3,2.4,5.3,5.3,0,2.9-2.4,5.3-5.3,5.3,0,0,0,0,0,0-2.9,0-5.3-2.4-5.3-5.3h0ZM220.6,187.1c0,3.8-3,6.9-6.7,6.9-3.8,0-6.9-3-6.9-6.7,0-3.8,3-6.9,6.7-6.9,0,0,0,0,0,0,3.7,0,6.8,3,6.9,6.7h0ZM222.6,169.9c-3.8,0-6.8-3-6.9-6.8,0-3.8,3-6.8,6.8-6.9,3.8,0,6.8,3,6.9,6.8,0,0,0,0,0,0,0,3.7-3.1,6.8-6.8,6.8h0Z"/>
      </g>
    </g>
  </g>
</svg>