<svg id="Layer_1" data-name="Layer 1" xmlns="http://www.w3.org/2000/svg" xmlns:xlink="http://www.w3.org/1999/xlink" viewBox="0 0 300 300"><defs><linearGradient id="linear-gradient" x1="47.46056" y1="137.79125" x2="288.80219" y2="137.79125" gradientUnits="userSpaceOnUse"><stop offset="0" stop-color="#9b9a9a"/><stop offset="0.51" stop-color="#fff"/><stop offset="1" stop-color="#9b9a9a"/></linearGradient></defs><path d="M269.04025,204.11773a4.14955,4.14955,0,0,0,1.13472,0,5.00288,5.00288,0,0,0,1.49316-.37285l-.239-.97024a5.63,5.63,0,0,1-1.00025.31341,4.24176,4.24176,0,0,1-2.50784-.239,3.19309,3.19309,0,0,1-1.67209-1.926,5.86967,5.86967,0,0,1-.25394-1.97048,5.503,5.503,0,0,1,.17893-1.19476,3.6653,3.6653,0,0,1,1.20918-1.851,3.25064,3.25064,0,0,1,.89635-.47733,2.57486,2.57486,0,0,1,.95523-.17892,3.98183,3.98183,0,0,1,1.19418,0,3.05716,3.05716,0,0,1,.98524.32841c.07445-.314.17892-.6118.254-.91078a.21353.21353,0,0,1,0-.10447h-.11948a3.59494,3.59494,0,0,0-.7763-.239,5.41316,5.41316,0,0,0-2.98574.19393,4.38653,4.38653,0,0,0-2.53784,2.4634,6.2516,6.2516,0,0,0-.11947,4.2994,3.97,3.97,0,0,0,1.49314,2.12,4.18816,4.18816,0,0,0,1.492.65625,4.08284,4.08284,0,0,0,.92579.06" fill="#481575"/><polygon points="99.407 203.984 99.407 203.984 99.407 194.295 98.243 194.295 98.243 203.984 99.407 203.984" fill="#481575"/><polygon points="232.824 203.984 232.898 203.984 232.898 194.28 231.749 194.28 231.749 203.984 232.824 203.984" fill="#481575"/><path d="M152.98588,204.11773a6.095,6.095,0,0,0,2.58287-.44731l-.224-.98524a4.04136,4.04136,0,0,1-.98524.31341,4.27526,4.27526,0,0,1-2.68733-.31341,3.1804,3.1804,0,0,1-1.49259-1.95605,5.10631,5.10631,0,0,1,.53678-4.23995,3.10939,3.10939,0,0,1,1.49316-1.13473,4.1523,4.1523,0,0,1,3.10521.20952l.28339-1.01526h-.10389a4.46788,4.46788,0,0,0-1.49316-.35843,5.97342,5.97342,0,0,0-2.38893.269,4.4788,4.4788,0,0,0-2.68676,2.80623,6.34236,6.34236,0,0,0,.32841,4.7623,4.07868,4.07868,0,0,0,1.881,1.73211,4.97069,4.97069,0,0,0,1.851.35784" fill="#481575"/><polygon points="28.362 203.984 29.467 203.984 29.467 194.295 28.318 194.295 28.362 203.984" fill="#481575"/><path d="M252.45488,203.98359h0v-9.6885h-1.09029v5.17959a21.13585,21.13585,0,0,0,.11948,2.74738v.09c-.43289-.92637-.88019-1.83657-1.38811-2.71735-1.04469-1.77713-2.12-3.5381-3.16467-5.29965h-1.26922v9.6885h1.1053c0-2.70234,0-5.3891-.09-8.07644v-.08946c.37344.83575.79131,1.67208,1.2392,2.46281,1.08971,1.91162,2.23946,3.79206,3.3586,5.70309Z" fill="#481575"/><path d="M288.25341,204.11773a.8638.8638,0,0,0,.68682-.16391,1.0751,1.0751,0,0,0,.10447-1.31423.77673.77673,0,0,0-.79129-.28339.82211.82211,0,0,0-.61239.82131.88123.88123,0,0,0,.61239.94022" fill="#481575"/><polygon points="117.307 203.984 117.307 203.984 117.307 202.953 113.351 202.953 113.351 199.43 116.903 199.43 116.903 198.356 113.351 198.356 113.351 195.37 117.098 195.37 117.098 194.325 112.172 194.325 112.172 204.028 117.307 203.984" fill="#481575"/><path d="M211.59533,205.68523h.80574l.105-.16392c.254-.59737.50734-1.17917.71628-1.79155.20952-.61182.329-1.01469.4779-1.49316l-1.23918.13448h-.07447a19.79728,19.79728,0,0,1-.7913,3.31415" fill="#481575"/><path d="M167.78,203.98359h5.12071v-1.03025h-3.956v-3.5381h3.55311v-1.0597h-3.55311V195.3698h3.747v-1.01526H167.795c0,3.16525-.015,6.38993-.015,9.62905" fill="#481575"/><path d="M64.08639,204.133a3.224,3.224,0,0,0,2.98574-1.37368,3.07644,3.07644,0,0,0,.284-2.14941,2.54835,2.54835,0,0,0-.68684-1.19476,3.58726,3.58726,0,0,0-.82133-.58237,13.37825,13.37825,0,0,1-1.911-.96966,1.46038,1.46038,0,0,1,.1795-2.53842,3.24,3.24,0,0,1,2.62731.269l.32842-.99967a3.82208,3.82208,0,0,0-1.04527-.38844,4.22709,4.22709,0,0,0-1.73153,0,2.60331,2.60331,0,0,0-1.95548,3.672,3.29556,3.29556,0,0,0,.56736.73186,3.44528,3.44528,0,0,0,.83576.56737,17.43888,17.43888,0,0,1,1.68709.80632,1.81569,1.81569,0,0,1,.71627.88019,1.68739,1.68739,0,0,1-.53735,1.8816,2.78009,2.78009,0,0,1-2.14941.25339,3.85956,3.85956,0,0,1-1.2542-.52235l-.2984,1.0597a4.48181,4.48181,0,0,0,2.17942.59737" fill="#481575"/><path d="M186.87361,204.133a3.43444,3.43444,0,0,0,2.6423-.94079,2.88036,2.88036,0,0,0,.61239-2.5823,2.6722,2.6722,0,0,0-.68685-1.19476,3.95013,3.95013,0,0,0-.82132-.58237,13.69858,13.69858,0,0,1-1.926-.96966,1.6167,1.6167,0,0,1-.5968-.83633,1.4936,1.4936,0,0,1,.83632-1.7321,3.27091,3.27091,0,0,1,2.58229.299l.31341-.99967a4.29831,4.29831,0,0,0-2.98573-.344,2.55785,2.55785,0,0,0-1.41812,4.03042,3.04967,3.04967,0,0,0,.8213.70185c.53736.329,1.11973.52234,1.67209.79131a1.95872,1.95872,0,0,1,1.00025,1.01526,1.68728,1.68728,0,0,1-.4629,1.896,2.16287,2.16287,0,0,1-1.11972.40287,4.00415,4.00415,0,0,1-1.62763-.25339,3.56439,3.56439,0,0,1-.70071-.37343l-.299,1.0597a4.70179,4.70179,0,0,0,2.16442.61238" fill="#481575"/><path d="M135.26584,203.98359H136.445v-9.6885H135.3553c0,2.62732-.07446,5.28464.11947,7.927v.10446c-.43288-.92579-.89578-1.851-1.40311-2.73178l-3.15024-5.31465h-1.28365v9.7035h1.10472V198.699c0-.89578-.07445-1.851-.07445-2.73236v-.11948q.56708,1.20948,1.2086,2.37394,1.68739,2.896,3.3892,5.76253" fill="#481575"/><path d="M83.598,204.133a6.27716,6.27716,0,0,0,2.50783-.44788l-.23837-1.00025a4.04552,4.04552,0,0,1-4.47889-.56737,4.4796,4.4796,0,0,1-.98525-3.65758,3.62578,3.62578,0,0,1,1.34368-2.6123,3.98641,3.98641,0,0,1,4.03042-.284l.269-1.01467H85.9269a5.26221,5.26221,0,0,0-1.49315-.329,5.36727,5.36727,0,0,0-2.38836.284,4.38994,4.38994,0,0,0-2.55286,2.47782,5.83832,5.83832,0,0,0,.70185,5.79256A4.47914,4.47914,0,0,0,83.598,204.133" fill="#481575"/><path d="M45.29123,204.103a4.017,4.017,0,0,0,4.20994-2.23945,6.95479,6.95479,0,0,0,.4779-4.11989,4.82346,4.82346,0,0,0-1.10472-2.37394,3.79275,3.79275,0,0,0-2.075-1.11972,4.06048,4.06048,0,0,0-3.94155,1.49316,6.04787,6.04787,0,0,0-1.03026,3.747,4.91339,4.91339,0,0,0,1.98549,4.04543,3.85317,3.85317,0,0,0,1.47815.56737m.11948-1.03027a1.81771,1.81771,0,0,1-.55236-.17949,2.98322,2.98322,0,0,1-1.31366-1.3281,4.25131,4.25131,0,0,1-.2984-.71684,6.30695,6.30695,0,0,1,0-3.16467,3.79176,3.79176,0,0,1,.17893-.58237,3.36056,3.36056,0,0,1,1.20919-1.58205,2.35574,2.35574,0,0,1,.4779-.23895,2.55092,2.55092,0,0,1,2.3139.299,3.32879,3.32879,0,0,1,.43289.37286,3.63734,3.63734,0,0,1,.71627,1.20918,4.518,4.518,0,0,1,.19451.64183,6.32592,6.32592,0,0,1,.11948,1.911,1.48344,1.48344,0,0,1-.11948.71628,3.29038,3.29038,0,0,1-.1795.6574,3.48085,3.48085,0,0,1-1.22361,1.62706,2.47394,2.47394,0,0,1-1.25421.41788,4.68841,4.68841,0,0,1-.70185-.06" fill="#481575"/><path d="M10.73209,203.998a13.40986,13.40986,0,0,0,1.49258,0,4.02833,4.02833,0,0,0,3.13523-1.04469,2.80644,2.80644,0,0,0,.52235-2.50784,2.21927,2.21927,0,0,0-.32842-.71627,2.90341,2.90341,0,0,0-.61238-.59739,3.464,3.464,0,0,0-.85076-.40344,4.71887,4.71887,0,0,0,.82132-.52234,2.09037,2.09037,0,0,0,.73129-1.64207,2.8585,2.8585,0,0,0-.14949-.88078,2.32527,2.32527,0,0,0-1.49258-1.29865,7.00725,7.00725,0,0,0-2.61289-.17892,2.58944,2.58944,0,0,0-.95523.11948.84335.84335,0,0,0-.20893,0v9.52458Zm1.13416-.92522a3.34155,3.34155,0,0,1-.38787,0v-3.68758a12.81962,12.81962,0,0,1,1.29865,0,4.141,4.141,0,0,1,.73129.13506,2.48419,2.48419,0,0,1,.76187.40287,1.33105,1.33105,0,0,1,.41788.6118,4.70962,4.70962,0,0,1,.11947.77631v.4779a1.822,1.822,0,0,1-1.20976,1.20919,4.00229,4.00229,0,0,1-.5818.11948c-.43288-.03-.79131-.045-1.14973-.045m-.31341-4.71727v-3.13522a11.09963,11.09963,0,0,1,1.22419,0,3.43936,3.43936,0,0,1,.77631.13448,1.59542,1.59542,0,0,1,.56736.2984,1.49212,1.49212,0,0,1,.47733,1.31423,1.65333,1.65333,0,0,1-.19393.59681,1.69978,1.69978,0,0,1-.43289.49233,4.675,4.675,0,0,1-.4779.254,5.61966,5.61966,0,0,1-1.94047.045" fill="#481575"/><path d="M10.4629,130.72891c-.13449-3.88094-.2984-7.82248-.4629-11.85291l4.16549.32841q2.10468.13419,4.16491.13391c.68685,0,1.49259,0,2.49283-.08947l2.98574-.14891a20.03949,20.03949,0,0,0,2.88127-.13448,14.50531,14.50531,0,0,1,2.32892-.08946c.64182,0,1.911,0,3.17967.08946a25.32091,25.32091,0,0,1,4.001.55236,21.93743,21.93743,0,0,1,4.16492,1.3731,11.94634,11.94634,0,0,1,3.747,2.65733,13.12166,13.12166,0,0,1,2.70235,4.34441A20.73054,20.73054,0,0,1,45.396,144.12a18.12439,18.12439,0,0,1-5.97148,5.852,23.177,23.177,0,0,1-7.56853,2.83683,39.53412,39.53412,0,0,1-7.09178.7307H21.15165a32.802,32.802,0,0,1-3.3586-.22336v5.03068c0,4.01542,0,7.9864.20894,11.943.20894,3.956.31341,7.748.4779,11.52508q-1.97135-.1792-4.20993-.1795-2.23974,0-4.20993.1795c.16449-3.77705.32841-7.62856.46289-11.52508s.224-7.86752.224-11.943V142.61243q0-5.97207-.224-11.8385m13.43554,19.407a24.682,24.682,0,0,0,5.50859-.64182,14.058,14.058,0,0,0,5.19517-2.3289,12.37191,12.37191,0,0,0,3.76205-4.68783,16.73887,16.73887,0,0,0,1.49258-7.643,16.90784,16.90784,0,0,0-1.02969-6.40437,8.86841,8.86841,0,0,0-2.88127-3.8365,10.78406,10.78406,0,0,0-4.4789-1.866,32.05818,32.05818,0,0,0-5.9709-.5079h-7.733v27.155a24.87416,24.87416,0,0,0,6.10539.73185" fill="#481575"/><path d="M150.55256,179.56061a22.55879,22.55879,0,0,1-4.04544,1.49259c-1.58262.46289-3.34417.86577-5.28521,1.23862a33.68231,33.68231,0,0,1-6.10539.55236,37.01824,37.01824,0,0,1-12.55535-2.05995,26.17736,26.17736,0,0,1-9.92687-6.2693,29.3368,29.3368,0,0,1-6.53885-10.28588,41.61047,41.61047,0,0,1,0-27.70741,28.72526,28.72526,0,0,1,6.61331-10.28589,28.19609,28.19609,0,0,1,10.19642-6.40436,37.44241,37.44241,0,0,1,13.07711-2.19443,40.82918,40.82918,0,0,1,10.36034,1.22363,47.50665,47.50665,0,0,1,8.30038,2.9863,12.5071,12.5071,0,0,0-1.11973,3.47808c-.29839,1.49316-.52234,2.68734-.68683,3.65757l-.52235.19393a19.00794,19.00794,0,0,0-2.40337-2.47782,27.94235,27.94235,0,0,0-3.61313-2.65733,22.55621,22.55621,0,0,0-4.64281-2.15,18.08547,18.08547,0,0,0-5.6725-.86576,24.99656,24.99656,0,0,0-9.47956,1.79156,19.94592,19.94592,0,0,0-7.46465,5.3741,25.38208,25.38208,0,0,0-5.03067,9.15116,42.29837,42.29837,0,0,0-1.80657,13.12212,42.296,42.296,0,0,0,1.80657,13.12214,25.38457,25.38457,0,0,0,5.03067,9.15173,20.12089,20.12089,0,0,0,7.46465,5.31464,24.99544,24.99544,0,0,0,9.41953,1.73154,18.97768,18.97768,0,0,0,5.7181-.82132,28.61566,28.61566,0,0,0,4.80673-1.97049,27.44636,27.44636,0,0,0,3.956-2.46339c1.17918-.88078,2.16442-1.65708,2.98574-2.32892l.34341.35843-.7763,5.40412a11.30357,11.30357,0,0,1-2.44838,1.59762" fill="#481575"/><path d="M165.69,130.72908c-.1495-3.8815-.29842-7.82247-.47735-11.85349.74629.11948,1.49258.239,2.14941.329a15.9168,15.9168,0,0,0,4.12048,0c.70127-.09,1.49258-.20952,2.16441-.329-.17892,4.031-.34342,7.972-.4779,11.85349-.1339,3.88153-.224,7.80749-.224,11.8385V158.302c0,4.016,0,7.987.224,11.943.22453,3.956.299,7.748.4779,11.52451-1.32866-.1189-2.73178-.17835-4.22436-.17835a31.857,31.857,0,0,0-4.20994.17835c.17893-3.77648.32785-7.62856.47735-11.52451.14947-3.89652.20893-7.8675.20893-11.943V142.56758q0-5.97205-.20893-11.8385" fill="#481575"/><path d="M187.96365,130.72908c-.13448-3.88152-.2984-7.82249-.4629-11.85349l4.89678.329c1.61206.08946,3.23913.1339,4.8962.1339a48.29793,48.29793,0,0,0,4.91177-.23839c1.597-.14947,3.23912-.22451,4.8962-.22451a32.115,32.115,0,0,1,6.88227.73187,16.09728,16.09728,0,0,1,5.71753,2.43336,11.85632,11.85632,0,0,1,3.86708,4.47833,16.76086,16.76086,0,0,1-.43345,14.40636,18.00273,18.00273,0,0,1-4.47832,5.20961,21.85283,21.85283,0,0,1-5.71753,3.19524,26.88,26.88,0,0,1-5.55419,1.49258c.70185.9258,1.64266,2.19443,2.85184,3.85151s2.53728,3.44806,4.03044,5.43412c1.49316,1.9855,2.98574,4.06045,4.64282,6.22487,1.65708,2.165,3.14966,4.23995,4.64282,6.21043q2.23971,2.95659,4.22492,5.44913c1.32867,1.65708,2.37394,2.89628,3.17968,3.747a18.668,18.668,0,0,0-2.58229-.17893h-5.07571a16.8401,16.8401,0,0,0-2.49339.17893l-3.941-5.777q-2.612-3.82236-5.807-8.22593-3.19555-4.40417-6.49441-8.73328-3.31329-4.34442-6.06093-7.37518h-3.32916V158.317c0,4.01543.075,7.987.22394,11.94295.14949,3.956.299,7.748.4629,11.52509q-1.97049-.17922-4.20936-.1795-2.23974,0-4.20993.1795c.16391-3.777.32783-7.62856.46289-11.52509.13391-3.89652.22337-7.8675.22337-11.94295V142.58259q0-5.9712-.22337-11.8385m9.89745,17.42152q1.40255.09,3.13465.08947a25.26227,25.26227,0,0,0,5.55359-.64182,15.95838,15.95838,0,0,0,5.28465-2.23888,12.48957,12.48957,0,0,0,5.583-11.1222,12.5461,12.5461,0,0,0-1.2392-5.97149,10.44455,10.44455,0,0,0-3.2247-3.702,11.73761,11.73761,0,0,0-4.2994-1.866,21.02892,21.02892,0,0,0-4.46331-.4929c-2.01493,0-3.672,0-5.00067.13447s-2.43337.194-3.34415.32841c-.11948,3.34418-.239,6.67334-.34343,9.95748-.10505,3.28414-.17892,6.58329-.17892,9.88244v5.21017a17.08237,17.08237,0,0,0,2.62673.37286" fill="#481575"/><path d="M159.964,94.31477C95.7507,99.29,52.23844,172.76187,47.46056,181.16788v.09985c7.46925-11.62724,113.19723-169.58287,241.34163-.69665v-.05656c-41.80555-60.711-80.99418-83.55281-115.144-86.19975Z" fill="url(#linear-gradient)"/><path d="M98.34731,175.3056c-1.16418-2.80624-2.49283-5.97148-3.956-9.554-1.46315-3.58311-2.98574-7.46406-4.68784-11.5701l-5.00066-12.55477c-1.65708-4.20992-3.29915-8.37483-4.89678-12.4803-1.597-4.10489-3.09021-7.94139-4.47832-11.47949H73.70009q-6.71748,16.421-13.33107,32.18573-6.61274,15.76387-13.58445,31.82788a28.25215,28.25215,0,0,1,6.35934,0q1.11944-4.21022,3.3586-10.65931,2.12025-6.15041,4.74786-12.94321l2.19385-5.5236,9.0917-22.54224,9.554,23.22909,1.58262,5.21018c.6424,1.71653,1.31366,3.47808,2.04552,5.34466q1.26835,3.34359,2.53785,6.5833c.82074,2.16441,1.582,4.23994,2.26888,6.22485.68685,1.98549,1.23921,3.67259,1.64207,5.07628a15.24277,15.24277,0,0,1,2.26947-.1795h4.56778a15.24253,15.24253,0,0,1,2.26946.1795q-1.12031-2.19471-2.88127-6.40494" fill="#481575"/><path d="M287.19376,175.3056q-1.76184-4.20936-3.956-9.554-2.1956-5.34524-4.68785-11.5701c-1.67208-4.14991-3.32916-8.31482-4.98624-12.52476q-2.48475-6.3149-4.9112-12.4803l-4.47889-11.48007h-1.64207q-6.70276,16.42188-13.33108,32.18631-6.62832,15.76388-13.585,31.82788a26.37835,26.37835,0,0,1,3.17967-.1795,26.0176,26.0176,0,0,1,3.17967.1795q1.11943-4.21108,3.35916-10.65931c1.41871-4.10547,2.98518-8.41987,4.74729-12.94321l2.19443-5.52359,9.10614-22.54224,9.54016,23.22908,1.582,5.21019c.64183,1.71652,1.31366,3.47807,2.02994,5.34408.86576,2.22444,1.7021,4.4789,2.53843,6.58387.83575,2.10439,1.582,4.23937,2.26888,6.22485s1.23921,3.67259,1.64208,5.07628a15.52047,15.52047,0,0,1,2.28389-.1795h4.46389a15.23381,15.23381,0,0,1,2.26889.1795c-.7313-1.49315-1.70154-3.59812-2.86627-6.40494" fill="#481575"/></svg>