<svg id="Layer_1" data-name="Layer 1" xmlns="http://www.w3.org/2000/svg" viewBox="0 0 300 300"><path d="M168.432,175.55729a48.55994,48.55994,0,0,1-6.73052,4.68008,152.76681,152.76681,0,0,1-43.06511,18.50693,144.58757,144.58757,0,0,1-14.78608,3.13587c-2.6857.42662-5.41835.68282-8.13641.963a108.54524,108.54524,0,0,1-18.27695.25419c-9.83445-.64832-19.36917-2.65056-27.71788-8.39536-5.367-3.693-8.93313-8.67475-10.00567-15.11917a21.13339,21.13339,0,0,1,.88638-10.70552A47.83307,47.83307,0,0,1,50.387,153.12255a5.40225,5.40225,0,0,1,1.52-1.22561h0a32.58655,32.58655,0,0,0-6.3145,18.91087,18.36571,18.36571,0,0,0,3.46307,11.68526,27.99533,27.99533,0,0,0,7.57427,6.52762,43.48267,43.48267,0,0,0,14.41146,5.64214,91.84367,91.84367,0,0,0,12.211,1.72347,101.41994,101.41994,0,0,0,11.63946.23156c2.85014-.08046,5.71585-.39222,8.56961-.64734,3.51671-.31437,7.00715-.79717,10.47036-1.38182,4.50207-.76,8.95745-1.80769,13.38564-2.96017a173.68529,173.68529,0,0,0,35.47131-13.65743,49.63349,49.63349,0,0,1,5.31342-2.75505Z" fill="#0274b1"/><path d="M205.08694,140.28167c.79186-2.52949,1.89-5.51867,2.43159-8.13124a20.49972,20.49972,0,0,0-2.70544-15.93791,25.07812,25.07812,0,0,0-9.64118-8.3176,52.04742,52.04742,0,0,0-16.393-5.33743,39.94653,39.94653,0,0,0-8.15291-.73808c-1.15015.05947-2.22091-.51343-3.37967-.33541-3.43863.52826-6.923.24706-10.38513.66489-3.83177.46244-7.64472.97407-11.44667,1.64052a166.818,166.818,0,0,0-20.83076,5.159,192.30189,192.30189,0,0,0-26.46409,10.55135c-2.25577,1.09-6.92179,2.98813-6.92179,2.98813s4.8316-2.97484,7.2999-4.369a176.01422,176.01422,0,0,1,32.314-14.056,164.49338,164.49338,0,0,1,21.35557-5.413c3.4565-.62955,6.95706-1.05717,10.46892-1.40211a89.4118,89.4118,0,0,1,10.58337-.60006c7.174.15349,14.35047.71705,21.22157,3.133,5.22661,1.83771,10.05591,4.34584,13.80168,8.54721a21.82982,21.82982,0,0,1,5.85726,16.93125,28.26042,28.26042,0,0,1-4.41089,12.31488c-.70118,1.14181-1.70882,2.75568-2.42605,3.8876Z" fill="#0274b1"/><path d="M123.24677,132.95306c-1.09321-1.00929-2.5027-.73611-3.70228-1.36073-.28118-.33237-.1179-.81074-.13566-1.29983a1.81274,1.81274,0,0,1,.55353-.20085c4.97112-.01434,9.94525-.117,14.912.0287a15.31465,15.31465,0,0,1,6.19068,1.34544,7.5933,7.5933,0,0,1,3.92241,8.56945,8.34542,8.34542,0,0,1-4.555,5.73446c-.99217.534-2.072.90453-3.28967,1.42531,1.361,1.87536,2.665,3.69665,3.99532,5.4984,1.43483,1.94328,2.93686,3.8381,4.33147,5.8095a7.96922,7.96922,0,0,0,5.97061,3.527,1.38864,1.38864,0,0,1,.16346,1.33912c-.06775.05267-.12074.12993-.1739.13-2.80958.00584-5.61918.00516-8.655.00516-3.32968-5.07477-6.76966-10.26-10.69967-15.15957h-3.3833c0,1.24547,0,2.4336,0,3.62172-.0001,2.22088-.00675,4.44178.00144,6.66263.00829,2.24524.34235,2.68364,2.47656,3.18058.57917.13487,1.182.16758,1.75759.245.48906.39376.14374.87967.3153,1.43058H119.596c-.41066-.28-.14859-.78234-.192-1.31068,1.04606-.36747,2.22835-.26274,3.30351-.82451a3.25642,3.25642,0,0,0,1.12016-2.80372q-.03393-11.60908.00541-23.21828A4.95556,4.95556,0,0,0,123.24677,132.95306Zm5.53115,13.59735c.97076,0,1.70386-.00019,2.43695,0,3.98624.00118,7.30521-1.905,8.22011-6.57917.69228-3.53677-1.5635-7.38507-4.85709-7.79523a47.4966,47.4966,0,0,0-5.8-.04277Z" fill="#0274b1"/><path d="M237.80745,143.17877a4.755,4.755,0,0,0-2.87549-1.056c-.34663-.46979-.27905-.90778-.02662-1.5531,2.51483.28346,5.0361-.59411,7.70775-.35408.38536,1.13238-.02389,2.29218.28867,3.45821.91167-.39754,1.41182-1.24453,2.1339-1.815a8.26025,8.26025,0,0,1,8.02066-1.70531,7.59076,7.59076,0,0,1,3.99977,3.55717c.98154-.80351,1.914-1.64432,2.92363-2.3784,2.71973-1.97734,6.53668-2.03349,8.66061-.56907,2.12217,1.4632,2.65778,3.63394,2.71424,5.94435.09851,4.03271.03722,8.06961.02025,12.10466a3.06767,3.06767,0,0,0,.77576,2.48742,3.96774,3.96774,0,0,0,2.60943.72025c.36912.49876.20091.904.20669,1.43549H263.89892c-.36981-.28741-.1669-.76306-.13263-1.30792,1.00248-.32123,2.29918-.0193,3.098-1.29341a13.94363,13.94363,0,0,0,.07442-2.84532c.01681-3.56428.01127-7.1287.00269-10.693a5.70058,5.70058,0,0,0-.13323-1.798c-.85515-2.63879-3.21193-3.688-5.96455-2.63941-1.598.60876-2.13245,1.04691-3.53256,2.91636v14.64457c1.07488,1.29333,1.14362,1.33153,3.00268,1.671a1.33642,1.33642,0,0,1,.009,1.39228h-10.4913c-.38991-.48893-.163-.92189-.21842-1.43994l1.73326-.15062a3.13968,3.13968,0,0,0,1.48763-1.58475c0-4.19961-.01954-8.43589.008-12.67185a5.20183,5.20183,0,0,0-2.7225-4.98434c-3.89876-.21023-4.77423.20963-7.339,3.56427,0,4.08334-.018,8.25014.00765,12.41668.01255,2.04024.73554,2.86935,2.74839,3.32087.24869.05578.54582-.05892.7643.26862a1.9843,1.9843,0,0,1-.00374,1.2319H235.3168c-.35913-.379-.23444-.82464-.10348-1.30072.59569-.40337,1.30775-.03809,1.93582-.2695a2.69968,2.69968,0,0,0,1.56613-2.76878c-.01727-4.43858-.02627-8.87742.00645-13.31583A4.6163,4.6163,0,0,0,237.80745,143.17877Z" fill="#11bbc8"/><path d="M28.85528,132.77944c-1.159-.80159-2.52928-.62625-3.66924-1.23583a1.25218,1.25218,0,0,1-.01045-1.29614,3.3985,3.3985,0,0,1,1.772-.16261q6.44578-.023,12.8917-.00491a16.60057,16.60057,0,0,1,4.69349.775c3.04107.90328,5.31771,2.7698,5.8691,5.94165a9.24732,9.24732,0,0,1-3.25444,9.19014,11.51235,11.51235,0,0,1-7.55435,2.72629c-1.659-.00832-3.318-.00151-4.82587-.00151a3.83853,3.83853,0,0,0-.37658,2.42283c-.02868,2.48847.00943,4.97773-.02082,7.46617a3.201,3.201,0,0,0,1.113,2.72361,7.20665,7.20665,0,0,0,3.38979.67372c.51525.408.3021.8892.27991,1.46845H25.29475c-.36305-.33437-.19572-.79505-.11476-1.36914,1.628-.25454,3.53527-.1145,4.33915-2.27083,0-8.21261-.00671-16.55283.01108-24.893A3.46571,3.46571,0,0,0,28.85528,132.77944Zm5.667-.67865c-.345,3.93024-.22513,13.41855.1863,14.91166a26.39079,26.39079,0,0,0,2.7834-.01444c4.03732-.42739,6.21361-1.91034,7.12853-5.56844a8.8166,8.8166,0,0,0-.95276-6.57461,5.30569,5.30569,0,0,0-4.41362-2.73065C37.72448,132.00814,36.179,132.10079,34.52225,132.10079Z" fill="#11bbc8"/><path d="M90.41139,142.01462c-.00721-.50875-.15638-.91131.25245-1.44359,2.331.28838,4.72456-.60144,7.27358-.34919.40281,1.03477-.04376,2.14833.36447,3.25147a4.27054,4.27054,0,0,0,1.63594-1.21683,9.24351,9.24351,0,0,1,6.76634-2.50084,5.73373,5.73373,0,0,1,5.83565,5.69282c.15814,3.358.07139,6.72766.0886,10.09228.00413.80759.02407,1.616-.00391,2.42269-.086,2.48051.22427,3.65841,3.376,4.17448.2415.20664.17457.49167.17112.75012a.54537.54537,0,0,1-.35875.626H105.17078c-.51988-.3355-.11162-.846-.28081-1.228.65626-.55208,1.37766-.13882,2.00288-.36506a2.64967,2.64967,0,0,0,1.61918-2.72865c-.01272-3.83614-.01926-7.67243.0054-11.50845a7.03452,7.03452,0,0,0-.62752-2.70324c-.82774-2.03512-2.80729-2.92387-5.18068-2.30107a6.80081,6.80081,0,0,0-3.41753,1.98888,4.20836,4.20836,0,0,0-1.20031,3.08212c.07535,3.4307.05325,6.86453.00764,10.2963a10.30816,10.30816,0,0,0,.4736,2.63694c.80911,1.09472,1.97757,1.192,3.01111,1.45a1.846,1.846,0,0,1,.05055,1.34328H90.93754c-.33717-.425-.13441-.83212-.20452-1.18641.58848-.577,1.35235-.12242,1.90071-.4238a3.01678,3.01678,0,0,0,1.3801-1.58018c0-4.63564.00272-9.346-.001-14.05641C94.01059,143.438,93.26364,142.5393,90.41139,142.01462Z" fill="#11bbc8"/><path d="M74.96129,162.24534c-.83012,1.74208-2.2559,1.71115-3.595,1.74665-2.73468.07247-3.61769-.54926-4.64423-3.15782-.74115.09876-1.04514.78-1.5356,1.19454a8.47481,8.47481,0,0,1-8.80394,1.5284,4.4334,4.4334,0,0,1-3.08941-4.48407,9.15959,9.15959,0,0,1,.34087-3.367c.83-2.10363,2.59224-3.00991,4.46144-3.75752,1.96905-.78755,4.00512-1.40734,6.01394-2.09445a10.97256,10.97256,0,0,0,2.49638-1.09493c0-.78979-.057-1.65979.01024-2.52.24218-3.09747-2.639-6.19744-6.73814-4.36121-.2972.13313-.56989.32118-.85725.48556a5.75862,5.75862,0,0,0,.21315,2.4075,2.46213,2.46213,0,0,1-2.30736,3.07054c-1.48133.17656-2.415-.72555-2.47445-2.4289-.01864-.534.04345-1.07086.06866-1.60794a9.00448,9.00448,0,0,1,7.08687-3.991,20.25426,20.25426,0,0,1,4.16536.195c3.27582.35734,5.23063,3.33867,5.26033,6.54793.03672,3.96748.00659,7.93556.00877,11.90337.0014,2.56014.006,2.55308,2.52244,3.20543A12.80611,12.80611,0,0,1,74.96129,162.24534Zm-8.40071-11.45616a25.17418,25.17418,0,0,0-2.99288.94032,20.78345,20.78345,0,0,0-2.87423,1.35285,5.94638,5.94638,0,0,0-2.72883,3.32155,3.71829,3.71829,0,0,0,3.6054,5.19132c2.27393.06849,3.72242-1.1613,4.99054-2.69941Z" fill="#11bbc8"/><path d="M204.33037,140.08478c0-.00009,1.17754.04474,3.59411,1.8486.16338.204-.19853-.1607-.00008,0,2.65186,2.148,4.35371,4.43272,4.73091,7.94441.43626,4.0615-.29143,7.73145-2.96366,10.79286a10.257,10.257,0,0,1-9.87744,3.45473c-5.11626-.80188-8.14766-3.88254-9.18735-8.74068-.88627-4.14122-.53155-8.273,2.32573-11.75555a10.71051,10.71051,0,0,1,7.94348-4.0627,7.47187,7.47187,0,0,1,3.43426.5182Zm-2.73608,22.64536c3.47507-.90581,4.62161-1.97817,5.68247-5.26487a17.6853,17.6853,0,0,0,.72934-7.53348,13.16516,13.16516,0,0,0-1.495-5.33531c-2.28474-3.82823-6.39524-4.26568-9.16171-1.18579a10.19478,10.19478,0,0,0-2.15435,5.28188,19.24859,19.24859,0,0,0,.02443,6.54583,11.95371,11.95371,0,0,0,2.35806,5.64323C198.629,162.21425,200.15731,162.42372,201.59429,162.73014Z" fill="#11bbc8"/><path d="M183.16179,161.09673a5.97038,5.97038,0,0,0,3.73318.88209,1.388,1.388,0,0,1,.05433,1.53168H175.26145c-.34263-.44315-.17919-.84879-.18775-1.23734.421-.5082,1.00485-.217,1.50752-.30944a2.76572,2.76572,0,0,0,1.42875-.761,6.02929,6.02929,0,0,0,.59831-3.06721c-.023-4.43578-.00123-8.87177-.01845-13.3076a3.12784,3.12784,0,0,0-.33948-2.10763c-1.31421-.29589-2.79512.06016-4.231-.18652a2.7893,2.7893,0,0,1-.04337-1.96h4.22125a4.82456,4.82456,0,0,0,.39456-2.9305,11.67184,11.67184,0,0,1,2.68014-7.37606c2.25373-2.83066,5.32248-3.404,8.672-2.94541a2.51854,2.51854,0,0,1,1.90889,1.3667,4.24321,4.24321,0,0,1-.30443,3.17624l-1.44.58017c-2.13183-.20732-2.92992-1.87089-3.93465-3.22339-1.65976-.21981-2.13051,1.0427-2.59963,2.08753a11.90568,11.90568,0,0,0-.81427,4.08177c-.11333,1.65414-.02673,3.322-.02673,5.10309h5.69871a2.64251,2.64251,0,0,1,.22012,2.09164H182.705c-.00769,3.24372-.09568,6.376.022,9.50005C182.84144,155.12018,182.17675,158.22145,183.16179,161.09673Z" fill="#11bbc8"/><path d="M172.10381,151.073H157.04046c-.1874.27224-.40473.44152-.39281.59265.17742,2.2494.35073,4.50439,1.53994,6.51524a6.64464,6.64464,0,0,0,5.7177,3.44069,6.8781,6.8781,0,0,0,6.44721-3.25913c.22929-.32065.29275-.76594.88955-1.04617l1.29446.82972c-.04519.57538-.433.88378-.68636,1.26918a9.81408,9.81408,0,0,1-5.59672,4.29909c-6.60891,1.87542-12.73154-1.79446-13.87048-8.79221a14.79709,14.79709,0,0,1,1.74369-10.36686,10.24308,10.24308,0,0,1,13.3019-3.80911,7.53032,7.53032,0,0,1,4.31491,6.09842C171.944,148.16666,172.47737,149.547,172.10381,151.073Zm-4.7761-1.759a10.89809,10.89809,0,0,0-.46565-4.8484,4.51472,4.51472,0,0,0-6.88645-2.28892c-2.57278,1.62872-3.08877,4.22831-3.2865,7.13732Z" fill="#11bbc8"/><path d="M213.79412,142.03881a1.877,1.877,0,0,1,.17812-1.46615c2.34505.27393,4.7345-.57788,7.26352-.36371.51268,1.00562-.00216,2.12916.39164,3.19224.718-.09182,1.02011-.66965,1.41214-1.06913a9.43552,9.43552,0,0,1,4.69545-2.51681,3.133,3.133,0,0,1,3.74808,2.93393c.06245,1.19775.17879,2.44263-.97918,3.28965-3.27351.5733-3.76852.1298-3.95-3.60211-2.0126.19681-3.32609,1.45906-4.514,2.90461a3.08156,3.08156,0,0,0-.58526,2.08067c.019,3.62746.02524,7.25521-.00453,10.88253a8.1081,8.1081,0,0,0,.52473,2.48523c1.37857,1.072,1.44239,1.09449,3.69089,1.31158.377.38911.24349.83322.08581,1.38684H214.33724c-.52-.29936-.09754-.82014-.26722-1.1859.62144-.58075,1.38154-.13448,1.923-.43945a3.01437,3.01437,0,0,0,1.3695-1.57617c0-4.70638.006-9.47563-.00241-14.24484C217.35551,143.4692,216.5153,142.51048,213.79412,142.03881Z" fill="#11bbc8"/><path d="M84.74632,160.37778a3.80691,3.80691,0,0,0,3.064,1.72179c.28217.47646.11606.8682.15007,1.22232-.16274.106-.27265.24-.383.24037-3.41676.01106-6.83355.00905-10.18447.00905-.55982-.39969-.33481-.88129-.319-1.31957.11536-.08274.21686-.21675.3306-.22815,2.5873-.25931,2.90238-.604,2.90413-3.24244.00267-4.0338-.0725-8.06942.02722-12.10075.065-2.62794-.1461-3.99949-3.90819-4.64387a1.3789,1.3789,0,0,1,.079-1.47382c2.5764.3253,5.17007-.65081,8.03482-.30546a22.55172,22.55172,0,0,1,.19382,4.97472c.04974,1.67928.011,3.36117.011,5.04193v10.10388Z" fill="#11bbc8"/><circle cx="82.11782" cy="131.06791" r="2.99537" fill="#11bbc8"/><polygon points="203.418 143.449 204.505 144.833 198.345 151.788 200.924 147.513 203.418 143.449" fill="#0274b1"/><path d="M173.23366,172.25061s-5.4348,3.23031-5.96551,3.30668l.50315.5732Z" fill="#0274b1"/></svg>