<?xml version="1.0" encoding="UTF-8"?>
<svg xmlns="http://www.w3.org/2000/svg" version="1.1" xmlns:xlink="http://www.w3.org/1999/xlink" viewBox="0 0 300 300">
  <defs>
    <style>
      .cls-1 {
        fill: url(#linear-gradient-2);
      }

      .cls-2 {
        fill: none;
      }

      .cls-3 {
        fill: #f26522;
      }

      .cls-4 {
        clip-path: url(#clippath-1);
      }

      .cls-5 {
        fill: url(#linear-gradient);
      }

      .cls-6 {
        clip-path: url(#clippath);
      }
    </style>
    <clipPath id="clippath">
      <path class="cls-2" d="M200.1,69.1s8.4,13.1,2.1,24.2l-31.1,42.2s-1.6,3.6-4.3,4h-41.1s-2.1,0-4,3.1l-29.6,40.3s-1.1,1.3-1.1,2.9v27.2s.3-8.1,3.9-13,12.5-16.9,51.9-18h40.3s2.5,0,4-2.3l42.6-57.6s2.5-2.7.5-6.7l-34.1-46.2Z"/>
    </clipPath>
    <linearGradient id="linear-gradient" x1="211.2" y1="108.8" x2="120.8" y2="169.5" gradientUnits="userSpaceOnUse">
      <stop offset="0" stop-color="#00c6ff"/>
      <stop offset="1" stop-color="#03f"/>
    </linearGradient>
    <clipPath id="clippath-1">
      <path class="cls-2" d="M146.9,182s-55.4-1.9-55.9,31.1v27.8s.8,3.3,5,4.2c0,0,3.2.5,5.5-3.3l41.6-56.7s1.1-2.3,3.9-3.2Z"/>
    </clipPath>
    <linearGradient id="linear-gradient-2" x1="132.9" y1="190.4" x2="100.8" y2="243.5" gradientUnits="userSpaceOnUse">
      <stop offset="0" stop-color="#4d2cc8"/>
      <stop offset="0" stop-color="#4935ca"/>
      <stop offset=".1" stop-color="#3964d7"/>
      <stop offset=".3" stop-color="#2b8ce2"/>
      <stop offset=".4" stop-color="#20aceb"/>
      <stop offset=".5" stop-color="#18c5f2"/>
      <stop offset=".7" stop-color="#11d7f7"/>
      <stop offset=".8" stop-color="#0ee2fa"/>
      <stop offset="1" stop-color="#0de6fb"/>
    </linearGradient>
  </defs>
  <!-- Generator: Adobe Illustrator 28.6.0, SVG Export Plug-In . SVG Version: 1.2.0 Build 709)  -->
  <g>
    <g id="Layer_1">
      <g>
        <path class="cls-3" d="M186.9,54.8h-117.1s-5.5.6-4.8,7.1l23.9,32.4s1,2.8,4.7,2.9h71.4s3.2-.2,4.7,2.2l11.8,16.1s1.9,2.9-.1,5.8l19.8-26.7s8-9.2-1.2-25.6l-9.2-12.2s-1.4-2.1-4-2.1Z"/>
        <g class="cls-6">
          <rect class="cls-5" x="91" y="69.1" width="144" height="144"/>
        </g>
        <g class="cls-4">
          <rect class="cls-1" x="91" y="182" width="55.9" height="63.1"/>
        </g>
      </g>
    </g>
  </g>
</svg>