<svg id="Layer_1" data-name="Layer 1" xmlns="http://www.w3.org/2000/svg" viewBox="0 0 300 300"><path d="M212.39846,141.29581H196.60291c-.9396,0-1.87918,0-2.81139.04439a7.49458,7.49458,0,0,0-6.91749,6.3774,7.67952,7.67952,0,0,0,4.39464,8.042,10.43159,10.43159,0,0,0,4.439.82121h29.80808a13.598,13.598,0,0,1,3.80278.4587,9.1,9.1,0,0,1,6.35521,9.49954,9.248,9.248,0,0,1-8.07164,8.43415,23.5422,23.5422,0,0,1-3.15172.10359h-17.549a24.90345,24.90345,0,0,0-3.15912.111,7.62773,7.62773,0,0,0-6.65854,7.45755,7.54637,7.54637,0,0,0,6.86571,7.56856c2.67081.22934,5.37862.08137,8.07163.10358a47.94115,47.94115,0,0,1,5.26024.111,9.211,9.211,0,0,1,1.70162,17.97067,15.94337,15.94337,0,0,1-4.16529.42909c-7.71651.04439-15.44042,0-23.16433,0-.93219,0-1.87918-.037-2.804.04439a7.61293,7.61293,0,0,0,.111,15.21107,34.63114,34.63114,0,0,1,3.50684.06658,16.595,16.595,0,0,1,3.78057.66585c4.15049,1.4427,6.444,5.4748,5.84472,10.047a8.87805,8.87805,0,0,1-8.30838,7.68693c-.4661.037-.93219.037-1.39829.037H163.59872a12.78494,12.78494,0,0,1-3.79537-.47351,9.15181,9.15181,0,0,1-6.26643-8.49335,9.27758,9.27758,0,0,1,5.91871-8.73008,17.30438,17.30438,0,0,1,3.76577-.73984c.9248-.111,1.87179,0,2.804-.08137a7.45016,7.45016,0,0,0,7.04326-7.3614,7.53894,7.53894,0,0,0-6.65854-7.7683c-1.38349-.185-2.81139-.05179-4.20968-.16276a9.22578,9.22578,0,0,1-.4883-18.37017,22.105,22.105,0,0,1,2.804-.09618h14.41208a27.245,27.245,0,0,0,2.804-.074,7.60554,7.60554,0,0,0-.11838-15.1297c-1.16155-.111-2.33789-.074-3.50683-.074H164.05a14.85613,14.85613,0,0,1-3.80277-.44391,9.15179,9.15179,0,0,1,2.07894-17.978c1.99017-.10359,3.98033,0,5.97049-.05179a16.42437,16.42437,0,0,0,3.13692-.25895,7.50934,7.50934,0,0,0,6.01489-8.25655,7.39839,7.39839,0,0,0-7.30219-6.71034c-1.99017.05919-3.98034.08138-5.9631-.04439a17.82969,17.82969,0,0,1-4.48341-.69545,9.18139,9.18139,0,0,1-6.08147-9.61789,9.03829,9.03829,0,0,1,8.33057-8.13822c1.746-.13317,3.50684-.074,5.26025-.074h15.09269a19.61322,19.61322,0,0,0,4.17269-.40691,7.53185,7.53185,0,0,0-.86561-14.782,26.34551,26.34551,0,0,0-3.15171-.111H165.6037a25.78287,25.78287,0,0,1-4.53521-.32553,9.14439,9.14439,0,0,1-.51788-17.89668,36.55656,36.55656,0,0,1,4.86813-.52529,7.39839,7.39839,0,0,0,6.95771-7.81423q-.01955-.33729-.06982-.67171a7.07285,7.07285,0,0,0-5.37122-6.26643,22.72813,22.72813,0,0,0-4.50561-.51789,9.174,9.174,0,0,1-2.53024-17.88188,12.94733,12.94733,0,0,1,3.79537-.55488q12.98417-.074,25.97571,0a13.70942,13.70942,0,0,1,3.79538.53268,9.07782,9.07782,0,0,1,6.407,9.38855,9.18879,9.18879,0,0,1-7.62775,8.38978,33.61835,33.61835,0,0,0-3.455.56228,7.59073,7.59073,0,0,0-5.63756,7.89407,7.51275,7.51275,0,0,0,7.16164,6.90269l9.47732.037c3.74358,0,7.48716-.037,11.23074,0a17.81549,17.81549,0,0,1,4.16529.4883,8.7961,8.7961,0,0,1,6.65854,9.137,8.67829,8.67829,0,0,1-7.19863,8.6931,56.4071,56.4071,0,0,1-5.9187.42911,7.25039,7.25039,0,0,0-6.77692,5.21586,7.39837,7.39837,0,0,0,4.60413,9.39543q.1385.0474.2788.0893a16.36535,16.36535,0,0,0,4.49822.54748c5.85211.05919,11.70423,0,17.54895,0,1.058,0,2.11592,0,3.1591.05919a9.137,9.137,0,0,1,2.06415,17.8301,17.98532,17.98532,0,0,1-4.83855.62887C223.62921,141.3402,218.01381,141.29581,212.39846,141.29581Z" fill="#5450a1"/><path d="M87.66916,141.29581H70.81565a18.04466,18.04466,0,0,1-4.50562-.52529,9.1518,9.1518,0,0,1,1.783-17.93368c1.04318-.08138,2.10114-.05919,3.15172-.05919H88.80112a17.01612,17.01612,0,0,0,4.49821-.55488,7.502,7.502,0,0,0-1.27992-14.6044c-.9248-.12578-1.86439-.08139-2.79659-.148a30.33153,30.33153,0,0,1-3.492-.28854A9.18879,9.18879,0,0,1,85.642,89.115a23.15576,23.15576,0,0,1,4.18009-.34772c5.73374-.037,11.46749,0,17.20123,0,1.05057,0,2.11594,0,3.15911-.074a7.51675,7.51675,0,0,0,2.042-14.45643,21.45478,21.45478,0,0,0-4.10611-.82862,8.83367,8.83367,0,0,1-7.51675-6.48838,9.063,9.063,0,0,1,5.75594-11.35651,13.38354,13.38354,0,0,1,4.1283-.60667q12.82138-.08879,25.628,0a13.97526,13.97526,0,0,1,3.80276.49569,9.16261,9.16261,0,0,1-1.99016,17.93368,14.97492,14.97492,0,0,0-2.44886.08877,14.4568,14.4568,0,0,0-3.38846.82862,7.51675,7.51675,0,0,0,2.2639,14.33806c1.62764.17757,3.28488.16277,4.87553.4883a8.73009,8.73009,0,0,1,6.65854,5.682,9.09261,9.09261,0,0,1-6.57716,12.22213,22.61683,22.61683,0,0,1-4.53521.37731c-5.61537.04439-11.23075,0-16.84612,0a29.18632,29.18632,0,0,0-3.50683.12577,7.51439,7.51439,0,0,0-1.08756,14.68579,18.792,18.792,0,0,0,4.513.4883c5.73375.05179,11.46749,0,17.20124,0,1.058,0,2.11593,0,3.15911.06658a9.15919,9.15919,0,0,1,2.14552,17.75611,18.148,18.148,0,0,1-4.48341.67326c-1.98276.111-3.98034,0-5.9631.06658a7.39838,7.39838,0,0,0-7.26521,8.47855,6.94706,6.94706,0,0,0,4.69057,6.03708,12.37023,12.37023,0,0,0,3.75838.68805c2.10114.11837,4.20968.074,6.31821.05179a9.211,9.211,0,0,1,.66585,18.39239,29.78368,29.78368,0,0,1-3.15171.074H120.15544a9.46994,9.46994,0,0,0-4.11349.69545,7.57595,7.57595,0,0,0,1.95317,14.523,19.702,19.702,0,0,0,2.804.10358H135.189a24.95721,24.95721,0,0,1,3.15911.10359,9.21838,9.21838,0,0,1-.19976,18.34059c-1.04317.111-2.11594,0-3.15911.111a13.4129,13.4129,0,0,0-3.40326.67325,7.55374,7.55374,0,0,0,2.08635,14.50083c1.04317.111,2.10854,0,3.1517.111a17.201,17.201,0,0,1,3.76578.73984,9.15919,9.15919,0,0,1-2.67821,17.70432c-.82122.05179-1.64245,0-2.45627,0H106.32047A9.15919,9.15919,0,0,1,104.101,224.757a16.27517,16.27517,0,0,1,3.44765-.56967c1.16154-.09618,2.33789-.06658,3.50683-.05179A7.62033,7.62033,0,0,0,111.233,208.917c-.9322-.08137-1.87179-.04438-2.804-.04438H86.31525c-1.05057,0-2.10853,0-3.1591-.05918a9.01864,9.01864,0,0,1-8.54513-8.98167,9.12219,9.12219,0,0,1,8.1974-9.39595,23.57342,23.57342,0,0,1,2.804-.08878c2.92236,0,5.85212.037,8.77448,0a12.15471,12.15471,0,0,0,3.44025-.48089,7.354,7.354,0,0,0,5.04569-7.93106,7.502,7.502,0,0,0-6.56236-6.73992,24.837,24.837,0,0,0-3.15171-.10359H75.95752c-.9322,0-1.87179,0-2.804-.04438a9.359,9.359,0,0,1-8.82626-9.248,9.23746,9.23746,0,0,1,9.15179-9.19618c.9322-.037,1.87179,0,2.81139,0h27.02628a16.81614,16.81614,0,0,0,4.83855-.59186,7.39839,7.39839,0,0,0,5.09008-7.96807,7.539,7.539,0,0,0-6.97667-6.71773c-.9322-.074-1.87179-.04439-2.804-.04439Z" fill="#5450a1"/><path d="M150.12629,43.0823H133.99042a27.2404,27.2404,0,0,1-2.804-.06658,9.26277,9.26277,0,0,1-8.42675-9.19619,9.04822,9.04822,0,0,1,8.81886-9.1518q18.41457-.19975,36.82174,0a9.18139,9.18139,0,0,1,0,18.36278c-6.07408.16277-12.15555.04439-18.22961.04439Z" fill="#5450a1"/><path d="M149.97092,256.95468h16.12847c.93219,0,1.87179,0,2.804.05179a9.1592,9.1592,0,0,1,2.34529,17.75612,11.83729,11.83729,0,0,1-3.76578.62886q-17.53416.08139-35.06831,0a11.01569,11.01569,0,0,1-3.42546-.57707,9.174,9.174,0,0,1,2.39708-17.82269c.93219-.05918,1.8644-.037,2.804-.037Z" fill="#5450a1"/><path d="M52.27531,107.41122c-1.62765,0-3.26269.0518-4.89033,0a21.9,21.9,0,0,1-3.81757-.39211A9.0408,9.0408,0,0,1,36.465,98.20024c-.04439-4.439,2.90756-8.43415,7.243-9.01122a62.27185,62.27185,0,0,1,16.38-.14057,8.87806,8.87806,0,0,1,7.7979,9.27017,9.1962,9.1962,0,0,1-8.27139,8.87806c-2.44147.19235-4.89033.19975-7.3318.29593Z" fill="#5450a1"/><path d="M247.99207,107.537c-2.67081-.12577-5.37123-.08138-8.01985-.4291a8.51046,8.51046,0,0,1-7.30219-6.20724,9.1,9.1,0,0,1,5.73916-11.51878q.17739-.0594.3571-.11148a14.60454,14.60454,0,0,1,3.79537-.54008c3.492-.074,6.99148-.06658,10.4909,0a16.3872,16.3872,0,0,1,3.79537.50309,9.15919,9.15919,0,0,1-.48089,17.82269,8.59679,8.59679,0,0,1-1.72381.25895h-6.65855Z" fill="#5450a1"/><path d="M39.5131,156.59565c1.75342,0,3.50683-.06658,5.26025,0a9.18139,9.18139,0,0,1,8.87805,8.36016,9.32444,9.32444,0,0,1-7.27261,9.81765,8.13872,8.13872,0,0,1-1.73862.23675c-3.50683,0-7.02106.12578-10.52049,0a9.21838,9.21838,0,0,1-.93959-18.37757C35.28862,156.43289,37.40456,156.59565,39.5131,156.59565Z" fill="#5450a1"/><path d="M260.71727,175.01762c-1.87179,0-3.751.13316-5.608,0a9.211,9.211,0,0,1-7.67212-13.35407,8.449,8.449,0,0,1,7.49456-4.99391c3.84717-.15536,7.70912-.17017,11.55627,0a9.1444,9.1444,0,0,1,2.545,17.69694,14.27959,14.27959,0,0,1-3.76577.68066c-1.47968.111-3.03334,0-4.55,0Z" fill="#5450a1"/><path d="M250.69247,208.81344c-1.99017,0-3.98774.148-5.95569,0a9.174,9.174,0,0,1-7.05065-14.16052,8.48591,8.48591,0,0,1,6.91749-4.21708,98.55237,98.55237,0,0,1,11.91878,0,9.18139,9.18139,0,0,1-.60667,18.30358c-1.75342.08138-3.50683,0-5.26024,0Z" fill="#5450a1"/><path d="M49.45652,190.41364a53.14871,53.14871,0,0,1,5.91871.037c3.95813.4365,6.8139,2.57464,7.94586,6.42919a8.87807,8.87807,0,0,1-2.878,9.82505,8.3972,8.3972,0,0,1-5.45261,2.10854c-3.61781.05918-7.25041.15536-10.86082,0a9.19618,9.19618,0,0,1,.037-18.37757C45.97189,190.33968,47.7327,190.41364,49.45652,190.41364Z" fill="#5450a1"/><path d="M226.68472,242.61661c-1.64244,0-3.27748-.037-4.91254,0a9.18141,9.18141,0,0,1-2.01974-18.01506,6.52539,6.52539,0,0,1,1.709-.36251c3.49944,0,7.02106-.24414,10.50571,0a9.2036,9.2036,0,0,1,8.36757,8.53774,9.09264,9.09264,0,0,1-6.04449,9.29977,11.3273,11.3273,0,0,1-3.08513.52528c-1.47968.08137-3.03334,0-4.55,0Z" fill="#5450a1"/><path d="M73.16833,242.60183c-1.635,0-3.27008.08877-4.89772,0a8.83366,8.83366,0,0,1-8.375-7.59075,9.09432,9.09432,0,0,1,6.06667-10.23936c2.49326-.85821,12.45888-.836,14.92993,0a9.09316,9.09316,0,0,1,5.9779,10.28375,8.87807,8.87807,0,0,1-8.44156,7.539c-1.746.09618-3.50683,0-5.26025,0Z" fill="#5450a1"/><path d="M74.99573,73.37867c-1.39829,0-2.79659.05919-4.19488,0a9.07782,9.07782,0,0,1-8.61172-7.7535,9.18139,9.18139,0,0,1,6.222-10.12838l.33293-.09618c2.16033-.65106,10.63887-.65846,12.83619,0a9.18926,9.18926,0,0,1-2.04195,18.01506H74.99573Z" fill="#5450a1"/><path d="M224.79814,73.31948c-1.51666,0-3.04813.09619-4.55741,0a9.1,9.1,0,0,1-8.36017-8.13821,9.25538,9.25538,0,0,1,6.00749-9.6179,7.783,7.783,0,0,1,2.38969-.54748c3.04072-.06659,6.09626-.22935,9.11481,0a9.09259,9.09259,0,0,1,8.525,9.62675q-.0042.0696-.00951.13911a8.915,8.915,0,0,1-8.21963,8.53773C228.06083,73.46006,226.41839,73.31948,224.79814,73.31948Z" fill="#5450a1"/><path d="M36.95326,141.48077a39.72235,39.72235,0,0,1-5.497-.836,9.15181,9.15181,0,0,1-6.3774-9.41814,9.0482,9.0482,0,0,1,8.412-8.39716,52.60062,52.60062,0,0,1,6.99887,0,9.01123,9.01123,0,0,1,8.34537,8.05683,9.248,9.248,0,0,1-6.65854,9.89163,6.88063,6.88063,0,0,1-1.3687.30334c-1.27992.09618-2.55985.14057-3.83976.19976Z" fill="#5450a1"/><path d="M263.32151,122.79245c1.05058,0,2.10114-.06658,3.15172,0a9.1,9.1,0,0,1,8.48594,8.30838,9.26276,9.26276,0,0,1-6.54757,9.61789,6.56943,6.56943,0,0,1-1.70162.37732,59.01733,59.01733,0,0,1-7.67952-.148,8.8863,8.8863,0,0,1-7.62773-7.21342,9.04823,9.04823,0,0,1,6.98353-10.72245q.36381-.0768.733-.12357a37.903,37.903,0,0,1,4.20227,0Z" fill="#5450a1"/><path d="M94.3203,259.263a7.61294,7.61294,0,0,1,7.37231-7.84619q.14616-.00454.29241-.00348a7.79049,7.79049,0,0,1,7.79789,7.78309v.0074a7.87929,7.87929,0,0,1-7.56855,7.73132A7.76089,7.76089,0,0,1,94.321,259.309Z" fill="#5450a1"/><path d="M94.3203,40.84059a7.73154,7.73154,0,0,1,15.46262.11838,7.8497,7.8497,0,0,1-7.63513,7.63513,7.76091,7.76091,0,0,1-7.82721-7.694Z" fill="#5450a1"/><path d="M205.7695,40.76661A7.70171,7.70171,0,0,1,190.38,41.421q-.0087-.205-.0065-.4102a7.70171,7.70171,0,1,1,15.38952-.65435Q205.7717,40.5614,205.7695,40.76661Z" fill="#5450a1"/><path d="M198.016,251.4133a7.62031,7.62031,0,0,1,7.75377,7.48452q.00252.14187-.00027.28378a7.83488,7.83488,0,0,1-7.83488,7.76089,7.70911,7.70911,0,0,1-7.51676-7.67211,7.53157,7.53157,0,0,1,7.19861-7.8504Q197.81612,251.41136,198.016,251.4133Z" fill="#5450a1"/></svg>