<svg id="Layer_1" data-name="Layer 1" xmlns="http://www.w3.org/2000/svg" xmlns:xlink="http://www.w3.org/1999/xlink" viewBox="0 0 300 300"><defs><linearGradient id="linear-gradient" x1="92.5511" y1="-232.61078" x2="223.45063" y2="-318.65241" gradientTransform="translate(0 438.07648)" gradientUnits="userSpaceOnUse"><stop offset="0" stop-color="#2c8d96"/><stop offset="0.743" stop-color="#85cbc2"/></linearGradient><linearGradient id="linear-gradient-2" x1="168.64448" y1="-336.99972" x2="24.0939" y2="-430.87411" gradientTransform="translate(0 438.07648)" gradientUnits="userSpaceOnUse"><stop offset="0" stop-color="#0d3a72"/><stop offset="0.07863" stop-color="#144881"/><stop offset="0.2735" stop-color="#2868a3"/><stop offset="0.4603" stop-color="#3881bc"/><stop offset="0.6342" stop-color="#4290cb"/><stop offset="0.7821" stop-color="#4595d1"/></linearGradient><linearGradient id="linear-gradient-3" x1="116.4604" y1="-205.75569" x2="109.59828" y2="-240.17309" gradientTransform="translate(0 438.07648)" gradientUnits="userSpaceOnUse"><stop offset="0" stop-color="#0d3a72"/><stop offset="1" stop-color="#081d23"/></linearGradient></defs><path d="M131.84213,190.26318l50.52632-22.63159C208.68425,155,215,136.05263,215,118.6842s-3.1579-30.52633-15.26316-39.4737c8.42107,8.94735-5.78947,21.05262-22.10527,27.89472L130.2633,125.52631C103.42117,135.5263,85,152.89472,85,181.3158v87.36846C89.21053,268.15793,91.3158,208.68422,131.84213,190.26318Z" fill="url(#linear-gradient)"/><path d="M119.21053,108.68421l27.89476,10.52632,30.52633-12.10527c16.3158-6.8421,30.52633-18.94737,22.10527-27.89472A84.95234,84.95234,0,0,0,176.579,67.10525L85,31.31574V63.421C85,80.78944,92.36843,99.73683,119.21053,108.68421Z" fill="url(#linear-gradient-2)"/><path d="M145,184.47369l-13.1579,5.78945c-39.4737,17.89475-42.6316,75.26331-46.31583,77.89479h0l27.36844-11.579C135,247.63166,145.52633,233.94741,145,201.31583Z" fill="url(#linear-gradient-3)"/></svg>