<?xml version="1.0" encoding="UTF-8"?>
<svg xmlns="http://www.w3.org/2000/svg" version="1.1" viewBox="0 0 300 300">
  <defs>
    <style>
      .cls-1 {
        fill: #0e1c4b;
        fill-rule: evenodd;
      }
    </style>
  </defs>
  <!-- Generator: Adobe Illustrator 28.6.0, SVG Export Plug-In . SVG Version: 1.2.0 Build 709)  -->
  <g>
    <g id="Layer_1">
      <g>
        <path class="cls-1" d="M155.6,65.7l79.4,139.9h-19l-68.6-120.8-59.1,104h9.4l-9.5,16.8h-16.1c-4,0-7.2-3.3-7.1-7.3,0-1.2.4-2.4,1-3.5l73.3-129.1c2.5-4.5,8.2-6.1,12.7-3.6,1.5.8,2.8,2.1,3.6,3.6Z"/>
        <path class="cls-1" d="M143.8,129.4c1.4-2.3,4.5-3,6.8-1.6.6.4,1.2,1,1.6,1.6l40.4,66.8c2.8,4.6-.7,10.4-6.3,10.4h-60.6l5.4-8.9h0l4.4-7.2h34.1l-21.6-35.8-31.4,51.9-9.7,16.1-9.9,16.3h-19.5l9.9-16.3,9.8-16.1,46.7-77.2Z"/>
      </g>
    </g>
  </g>
</svg>