<svg id="Layer_1" data-name="Layer 1" xmlns="http://www.w3.org/2000/svg" viewBox="0 0 300 300"><path d="M60,256.70012q0-.91325,0-1.82647.0054-52.83454.01179-105.66906c.00049-3.39911,1.29875-4.69358,4.74569-4.70092q16.21184-.03448,32.42372-.04817c5.05127-.00426,6.65952,1.14282,8.18116,5.983a46.79357,46.79357,0,0,0,75.33914,21.2969,47.991,47.991,0,0,0,14.4519-22.58709c1.02488-3.302,3.00243-4.64274,6.47769-4.64916q16.79121-.031,33.58246-.00822c3.6728.00528,5.07078,1.42018,4.7385,5.071a85.59139,85.59139,0,0,1-5.74725,23.65659A90.66027,90.66027,0,0,1,207.035,210.75229,81.79846,81.79846,0,0,1,163.37265,229.339a135.04517,135.04517,0,0,1-24.98535.0485,99.34141,99.34141,0,0,0-24.50219,1.29,111.58828,111.58828,0,0,0-32.18395,10.88216A92.31906,92.31906,0,0,0,63.28053,253.707C62.1959,254.649,61.11909,255.59854,60,256.70012Z" fill="#0090b5"/><path d="M218.42671,129.32664q-7.962.00068-15.9241.0006c-4.62553.00054-6.23915-1.16976-7.68091-5.6066A46.82274,46.82274,0,0,0,168.983,94.55574c-16.70118-7.74428-37.86978-4.05915-51.072,8.75373a47.95723,47.95723,0,0,0-12.72621,20.52288c-1.30949,4.23165-3.08279,5.49524-7.49179,5.49724q-16.14125.00731-32.28249-.005a15.60318,15.60318,0,0,1-1.5893-.06765c-2.72842-.28116-3.97377-1.66894-3.7762-4.43543a63.63741,63.63741,0,0,1,1.78424-11.12724C69.951,81.69821,89.47888,59.814,120.427,48.40037a83.12147,83.12147,0,0,1,41.48132-4.12969c33.0128,4.92865,56.50271,22.83235,70.78182,52.86079a82.80818,82.80818,0,0,1,7.217,26.51928,11.72976,11.72976,0,0,1,.06912,2.16334,3.4354,3.4354,0,0,1-3.17287,3.36321,38.56524,38.56524,0,0,1-5.49271.14281C227.01613,129.33918,222.7214,129.32621,218.42671,129.32664Z" fill="#345170"/></svg>