<svg id="Layer_1" data-name="Layer 1" xmlns="http://www.w3.org/2000/svg" xmlns:xlink="http://www.w3.org/1999/xlink" viewBox="0 0 300 300"><defs><linearGradient id="linear-gradient" x1="-70569.85925" y1="-51851.52646" x2="-70976.42328" y2="-52631.98358" gradientTransform="matrix(0.08579, 0, 0, -0.08579, 6178.56421, -4291.37404)" gradientUnits="userSpaceOnUse"><stop offset="0" stop-color="#2699da"/><stop offset="1" stop-color="#22237c"/></linearGradient><linearGradient id="linear-gradient-2" x1="-69902.88192" y1="-51842.79548" x2="-69467.27881" y2="-50928.02659" xlink:href="#linear-gradient"/></defs><path d="M154.76672,161.05942H103.20521c-.91036,0-1.82072,0-2.75636.02529a19.154,19.154,0,0,0-5.5127.88506l-.68277.25288c-.22759.10115-.42989.22759-.65748.32874a10.45565,10.45565,0,0,0-1.26438.75863c-.2023.12643-.37932.30345-.58162.45517-.177.15173-.37931.30346-.55633.48046l-.50575.531a5.28121,5.28121,0,0,0-.50575.55633,37.64843,37.64843,0,0,0-3.38854,4.82994c-1.0368,1.669-2.023,3.36325-3.00923,5.10811-.98622,1.71956-1.97244,3.43911-2.95866,5.184-1.97243,3.46441-3.97016,6.90352-5.86673,10.31735s-3.76786,6.77709-5.58857,10.0392-3.56556,6.39777-5.23454,9.38171c-1.6437,2.98394-3.21154,5.81616-4.65293,8.42079C54.223,228.17282,50.58161,234.79819,50,235.88556l3.41383-.63219.48047-.07586,33.86016-64.43293a37.09052,37.09052,0,0,1,3.18624-4.75407l.45518-.531.48046-.50576c.177-.15172.32874-.30345.50576-.45517a4.38033,4.38033,0,0,1,.531-.42989,10.87583,10.87583,0,0,1,1.13794-.73334,6.40372,6.40372,0,0,1,.58162-.30346l.63219-.25288a14.25708,14.25708,0,0,1,3.0598-.75863l-.50575.2023c-.22759.10115-.42989.2023-.65748.32874a9.2976,9.2976,0,0,0-1.26438.75863c-.2023.12644-.37932.30345-.58161.45517-.177.15173-.37932.30346-.55634.48047l-.531.531c-.177.177-.354.354-.50575.531a35.36765,35.36765,0,0,0-3.41383,4.75408c-1.01151,1.669-2.023,3.338-2.98395,5.05753-.96093,1.69427-1.94714,3.41384-2.90808,5.13339-1.94714,3.43912-3.89429,6.85295-5.79087,10.2415s-3.74257,6.72651-5.538,9.96334-3.54027,6.34719-5.184,9.30585-3.18624,5.76558-4.60235,8.34492c-5.20925,9.45759-8.82539,16.03238-9.407,17.09445l3.8943-.73335L89.04413,174.563c.73334-1.34024,1.46668-2.6552,2.22531-3.94487a36.21291,36.21291,0,0,1,3.18625-4.67822,10.40647,10.40647,0,0,1,4.2989-3.13566,14.94661,14.94661,0,0,1,3.00923-.73334l-.4299.15173c-.22758.10114-.42989.20229-.65748.30345a9.98617,9.98617,0,0,0-1.23909.73334c-.2023.12644-.37932.27817-.58161.42989-.177.15173-.37932.30346-.55634.45518-.32873.32873-.70805.65748-1.03679,1.03679a32.73728,32.73728,0,0,0-3.43912,4.67822c-1.01151,1.64369-2.023,3.31268-2.95866,5.03224-.96093,1.69427-1.89657,3.38855-2.8575,5.10811-3.81844,6.80238-7.61158,13.63-11.17714,20.02782-1.79542,3.18623-3.515,6.27133-5.15868,9.20471-1.61841,2.93336-3.13567,5.715-4.55178,8.26906-5.15867,9.38171-8.74952,15.90594-9.33114,16.94272l1.51726-.27815,1.77014-.32874.12643-.02528.48047-.07586,30.44633-58.54091c.83449-1.6184,1.71956-3.18624,2.62991-4.72879a33.18845,33.18845,0,0,1,3.21154-4.60235,10.45021,10.45021,0,0,1,4.2989-3.05981,12.74259,12.74259,0,0,1,2.93337-.70805l-.354.12644c-.22759.07586-.42989.20229-.65748.30345a12.03606,12.03606,0,0,0-1.23909.70805c-.2023.12644-.37932.27817-.58161.4299-.177.15172-.37932.30345-.55634.45517-.354.32874-.70805.65748-1.03679,1.01151a30.868,30.868,0,0,0-3.46441,4.60235c-1.01151,1.61841-1.99772,3.28739-2.93337,4.98167s-1.87129,3.36326-2.80693,5.05754C77.2095,205.69215,62.82083,231.612,61.6576,233.73615l2.17474-.40459,1.71956-.32874,29.91529-57.70641c.88507-1.71956,1.82072-3.36326,2.78164-4.98167a29.57317,29.57317,0,0,1,3.23682-4.5012,10.56517,10.56517,0,0,1,4.2989-3.00923,12.70362,12.70362,0,0,1,2.8575-.68277,11.72736,11.72736,0,0,0-4.34948,2.93337,27.5158,27.5158,0,0,0-3.46441,4.52649c-1.0115,1.6184-1.99772,3.2621-2.90808,4.93109-.93564,1.669-1.846,3.338-2.78164,5.03224C80.92678,205.237,66.68984,230.92923,65.5266,233.0281l1.41611-.25287,1.39082-.25288.60691-.10116.45518-.07586,21.29219-41.39588c1.846-3.515,3.71729-7.10582,5.61386-10.69667L98.95688,175.17c.88506-1.69428,1.79542-3.338,2.75635-4.93109a27.271,27.271,0,0,1,3.23682-4.42534,10.72176,10.72176,0,0,1,4.2989-2.93337,12.74623,12.74623,0,0,1,2.78164-.65748,11.93792,11.93792,0,0,0-4.24833,2.83222,26.60489,26.60489,0,0,0-3.48969,4.42534c-1.03679,1.59312-1.99772,3.23682-2.88279,4.88051-.91035,1.6437-1.82071,3.31269-2.75635,4.98166-14.00936,25.41406-28.06929,50.87872-29.20724,52.95231l1.26439-.22759,2.62991-.48047L94.481,190.39309c1.79543-3.43912,3.64142-6.92882,5.46213-10.4438.88507-1.669,1.77014-3.36325,2.62992-5.03224.85978-1.69427,1.77013-3.31268,2.73106-4.88051a26.754,26.754,0,0,1,3.26211-4.34948,10.88934,10.88934,0,0,1,4.27361-2.8575,5.68917,5.68917,0,0,1,.6069-.2023l.6069-.177c.42989-.07586.83449-.177,1.26438-.22759.07586,0,.12644-.02529.177-.02529a12.67522,12.67522,0,0,0-4.12188,2.70578,26.46742,26.46742,0,0,0-3.515,4.34948c-.27816.37931-.50575.78392-.75862,1.18852s-.50576.78392-.73335,1.21381c-.45517.8092-.93564,1.64369-1.39082,2.4529-.91035,1.6437-1.82071,3.2874-2.70578,4.9311-13.9082,25.26237-27.8417,50.49943-28.95435,52.52245l1.26438-.2276,1.97244-.354.177-.02528.45518-.07586,20.306-39.70161c1.97243-3.76787,3.97016-7.61158,5.96789-11.4553.85977-1.669,1.74484-3.338,2.60462-4.98167.42989-.83449.88507-1.6437,1.315-2.45291.2023-.4046.45518-.78391.68277-1.18852s.45517-.78392.70805-1.16323a24.91312,24.91312,0,0,1,3.2874-4.27361,11.33289,11.33289,0,0,1,4.27361-2.80693c.20229-.07586.4046-.12644.6069-.2023l.6069-.177.63219-.12644.30346-.05057.30345-.02529.15173-.02529a12.36858,12.36858,0,0,0-4.02074,2.60462,25.04645,25.04645,0,0,0-3.54027,4.27361c-.12643.2023-.27816.37932-.4046.58162l-.37931.58161c-.25288.4046-.50576.78392-.73335,1.18852-.45517.80921-.93564,1.61841-1.36553,2.42762-.88506,1.6184-1.79542,3.2621-2.68049,4.88052-13.78177,25.03477-27.53825,50.06954-28.62561,52.042l3.41383-.63219.48046-.07586,19.09218-37.50158c2.2506-4.2989,4.55178-8.74952,6.853-13.17485.85978-1.6437,1.71956-3.31269,2.57935-4.95638.42989-.83449.85977-1.61841,1.28967-2.42762.22758-.4046.45517-.78392.68277-1.18852l.354-.58162c.12644-.20229.25288-.37931.37932-.58161a23.22347,23.22347,0,0,1,3.28739-4.17246,11.33637,11.33637,0,0,1,4.27361-2.73106,10.75971,10.75971,0,0,1,2.52877-.55633,12.34,12.34,0,0,0-3.91959,2.50347,23.56138,23.56138,0,0,0-3.56556,4.19775l-.4046.58161c-.12644.2023-.25288.37932-.37932.58162-.25287.37931-.48046.78392-.73334,1.18852l-1.36553,2.42762c-.88507,1.6184-1.77013,3.23682-2.6552,4.82994-13.63,24.80717-27.2348,49.61437-28.29688,51.5868l3.41384-.63219.48046-.10116,17.70135-34.94753c2.57935-4.95637,5.25983-10.11506,7.915-15.27375.85978-1.64369,1.69428-3.2621,2.55406-4.9058.42989-.80921.85978-1.59312,1.26438-2.40232.22759-.37932.45517-.78392.68277-1.16324.12644-.2023.22759-.37931.354-.58161l.37932-.55633a21.75869,21.75869,0,0,1,3.31268-4.0966,10.99014,10.99014,0,0,1,6.67594-3.18625h.02529a12.81825,12.81825,0,0,0-3.81844,2.40233,22.22664,22.22664,0,0,0-3.56556,4.12188c-.55633.73334-1.0115,1.51726-1.492,2.30118-.45517.78392-.91035,1.59312-1.34024,2.40232-.85978,1.59312-1.74485,3.18625-2.62991,4.80466-3.4897,6.42307-6.9794,12.82084-10.26679,18.83929-1.6437,3.00924-3.21153,5.91732-4.72879,8.67366s-2.93337,5.33569-4.27361,7.738c-4.88052,8.82539-8.24378,14.945-8.74953,15.85536l1.23909-.2276,2.65521-.50575,16.437-32.49463c2.8575-5.56328,5.86673-11.40472,8.876-17.24618q1.25173-2.42762,2.50348-4.85523c.42989-.80921.83449-1.59312,1.26438-2.377.45517-.75862.88507-1.54254,1.39082-2.27588a22.26833,22.26833,0,0,1,3.31268-4.02074,11.99555,11.99555,0,0,1,4.24833-2.60462,12.58165,12.58165,0,0,1,2.35174-.50576,13.13536,13.13536,0,0,0-3.71728,2.27589,21.99526,21.99526,0,0,0-3.59085,4.046c-.531.73334-1.01151,1.51725-1.492,2.27588-.48047.78392-.88507,1.59312-1.34024,2.377-.85978,1.59312-1.71956,3.161-2.57935,4.75408-3.43912,6.3472-6.90352,12.69441-10.14035,18.66228-1.6184,2.98394-3.18624,5.86674-4.65292,8.5978s-2.90808,5.28513-4.223,7.66216c-4.82994,8.74952-8.16791,14.81855-8.67367,15.70362l3.41384-.63219.48046-.07586,15.1473-30.01644a2.08942,2.08942,0,0,1,.177-.32874c3.0851-6.04375,6.39777-12.4668,9.68517-18.91515.83449-1.61842,1.64369-3.21154,2.47818-4.82995.4299-.78391.80921-1.59311,1.26438-2.35174s.88507-1.51726,1.39083-2.22531a21.87307,21.87307,0,0,1,3.338-3.94488,11.79528,11.79528,0,0,1,4.24832-2.52876,11.379,11.379,0,0,1,2.27589-.48047,13.90541,13.90541,0,0,0-3.61613,2.17474,22.34557,22.34557,0,0,0-3.61613,3.94488,35.6632,35.6632,0,0,0-2.83222,4.60235c-.85978,1.56784-1.69428,3.13567-2.55406,4.72879-3.41383,6.29663-6.80237,12.59324-9.98862,18.48526-1.59312,2.95866-3.13566,5.79088-4.60235,8.49664-1.4414,2.70579-2.88279,5.23455-4.17246,7.5863-4.77937,8.67366-8.11734,14.66683-8.5978,15.5519l3.41383-.63219.48046-.07586,13.98407-27.81641c.37931-.73335.75863-1.492,1.13794-2.25061,3.05981-5.99317,6.29662-12.36566,9.55873-18.73814l2.42762-4.77936a36.41949,36.41949,0,0,1,2.62991-4.52649,20.37711,20.37711,0,0,1,3.338-3.84372,12.31723,12.31723,0,0,1,4.223-2.45291,9.25879,9.25879,0,0,1,2.14945-.42989,13.40564,13.40564,0,0,0-3.46441,2.07359,21.87691,21.87691,0,0,0-3.61613,3.869c-.25288.354-.531.70806-.78392,1.08737-.22759.37931-.48046.75863-.70805,1.13794l-.354.55634-.32874.58161-.65748,1.18852q-1.25174,2.35176-2.50348,4.7035c-1.669,3.13567-3.31268,6.24605-4.95638,9.33115-.8092,1.54254-1.64369,3.05979-2.4529,4.55177s-1.61841,2.98394-2.42762,4.45062c-3.18624,5.84144-6.14489,11.27829-8.72424,15.93122-4.75407,8.5978-8.04146,14.5404-8.52194,15.40018l3.41384-.63219.45517-.07586,13.20016-26.22329c.58161-1.16323,1.18852-2.32647,1.79542-3.515.75863-1.492,1.54255-2.98394,2.32647-4.5012s1.56783-3.0598,2.35175-4.62764c1.56783-3.13567,3.16095-6.29663,4.72879-9.48286.78392-1.59312,1.59312-3.161,2.377-4.75408l.6069-1.16323.30345-.58161.32874-.55634c.22759-.37931.42989-.73334.65748-1.11265.22759-.354.48046-.70805.73334-1.06208a20.83466,20.83466,0,0,1,3.36325-3.76786,12.11019,12.11019,0,0,1,4.223-2.377,10.88081,10.88081,0,0,1,2.0483-.4046,13.26089,13.26089,0,0,0-3.31268,1.94715,20.72045,20.72045,0,0,0-3.64142,3.79315c-.25288.354-.531.70805-.78392,1.06208-.25287.37931-.48046.73334-.708,1.11265-.50575.73334-.88507,1.54255-1.315,2.30118-.80921,1.54255-1.6437,3.11038-2.4529,4.65293-1.6437,3.11038-3.26211,6.19547-4.88052,9.25527-.8092,1.51726-1.6184,3.03452-2.42761,4.5265s-1.61841,2.95865-2.40233,4.40005c-3.13567,5.76558-6.069,11.17715-8.62309,15.7795-4.7035,8.52194-7.96561,14.414-8.42078,15.24845l.88507-.177.73334-.12644,1.79542-.32873.48046-.07586,12.2898-24.47844c.83449-1.61842,1.669-3.26211,2.52877-4.95637.75863-1.46669,1.51726-2.95866,2.27589-4.45062.78391-1.492,1.56783-3.03452,2.32646-4.57706,1.54255-3.0851,3.11038-6.246,4.65293-9.38171q1.17588-2.35176,2.35175-4.70351c.4046-.75863.75863-1.54255,1.2138-2.2506.22759-.354.42989-.73334.65748-1.08736.25288-.354.48046-.708.73334-1.0368a19.39571,19.39571,0,0,1,3.36325-3.66671,10.8801,10.8801,0,0,1,6.14491-2.70578,13.41109,13.41109,0,0,0-3.18625,1.846,21.11641,21.11641,0,0,0-3.66671,3.692c-.25287.354-.531.708-.78392,1.06208s-.48046.73334-.708,1.11265-.48046.73335-.68277,1.11266l-.63219,1.16323c-.83449,1.54255-1.6184,3.05981-2.42761,4.60235-1.61841,3.0851-3.21154,6.1449-4.80466,9.17941-.4046.75863-.78391,1.51726-1.18852,2.25061s-.80921,1.492-1.2138,2.22531c-.80921,1.46668-1.59312,2.93336-2.377,4.34948-3.11038,5.715-5.99317,11.076-8.52194,15.62776-4.67821,8.44608-7.88975,14.26224-8.34492,15.09673l.88506-.15172.93565-.177,1.61841-.30345.48046-.07586,10.8484-21.7221c1.21381-2.377,2.47819-4.85523,3.79315-7.40927.73334-1.4414,1.492-2.93336,2.2506-4.42534.37931-.75863.75863-1.492,1.13794-2.25061s.75863-1.51726,1.13795-2.30117c1.51725-3.0598,3.0598-6.19547,4.57706-9.30585.75863-1.54255,1.54255-3.13567,2.30118-4.65293l.58161-1.13794c.177-.37931.42989-.73334.63219-1.08737.22759-.354.4299-.73334.65748-1.06208.25288-.354.48047-.68277.73334-1.03679a19.067,19.067,0,0,1,3.38855-3.59085,12.64485,12.64485,0,0,1,4.17246-2.2506,7.66815,7.66815,0,0,1,1.82071-.32874,13.38088,13.38088,0,0,0-3.03452,1.71956,20.80754,20.80754,0,0,0-3.692,3.61613,21.269,21.269,0,0,0-1.492,2.12416c-.22759.37931-.48047.73334-.708,1.11265l-.6322,1.13795c-.42989.78392-.8092,1.51726-1.2138,2.30118l-1.18852,2.27588c-1.59312,3.0598-3.161,6.09432-4.7288,9.10356-.37931.75863-.78391,1.492-1.16323,2.2506-.37931.73335-.78392,1.46668-1.18852,2.2-.78392,1.46668-1.56784,2.90808-2.32647,4.32418-3.08509,5.66444-5.91731,10.97485-8.42078,15.476-4.60236,8.3702-7.81388,14.1358-8.26906,14.945l3.43912-.63219c1.315-2.52877,3.76785-7.207,6.87824-13.20016,2.40233-4.577,5.10811-9.938,8.04147-15.70362.73334-1.4414,1.46668-2.90808,2.22531-4.37476.37931-.73335.75863-1.492,1.13794-2.22531.37932-.75863.73334-1.51726,1.11266-2.27589,1.492-3.03451,3.00923-6.14489,4.52649-9.23l1.13794-2.32646c.37931-.78392.75863-1.54255,1.13794-2.30118l.58162-1.11266c.20229-.37931.42989-.708.63219-1.08736a22.80814,22.80814,0,0,1,1.39082-2.07359,20.30792,20.30792,0,0,1,3.38854-3.515,12.36409,12.36409,0,0,1,1.51726-1.0368,8.477,8.477,0,0,1,2.80693-1.18852,5.17864,5.17864,0,0,1,.6069-.12644,20.64174,20.64174,0,0,1,3.74257-.37931c.85978-.30346,1.74485-.91036,2.60463-1.21381A1.47725,1.47725,0,0,0,154.76672,161.05942Z" fill="url(#linear-gradient)"/><path d="M249.41839,98.169a5.96115,5.96115,0,0,0-.30346-.70806c-.05058-.12643-.10115-.22758-.15172-.354a1.88589,1.88589,0,0,1-.177-.30345l-.37932-.6069c-.12644-.177-.27816-.354-.40459-.53105a12.83672,12.83672,0,0,0-2.90808-2.60463c-.75863-.45517-1.16323-.68276-1.16323-.68276s-2.93336-1.28967-2.95866-1.28967l-1.97243-.85978L182.305,64.13186c-.30345-.15172-.73334.73335-.48047.88507.85979.48047,9.28057,5.10811,14.591,8.26906,3.692,2.17474,6.49893,4.72879,7.1564,6.92882a5.16681,5.16681,0,0,1,.2023,1.54254,8.01135,8.01135,0,0,1-.15172,1.846,16.53779,16.53779,0,0,1-1.21381,3.36326c-.55633,1.18852-1.2391,2.40233-1.94715,3.71728-5.63914,10.51966-12.6691,23.69453-20.17954,37.70388-3.76786,7.00469-7.51043,14.00936-11.12656,20.53358-.88507,1.64369-1.77014,3.23681-2.62992,4.80465-.2023.4046-.4299.78392-.63219,1.16323-.2276.37932-.45518.73334-.68277,1.11266a15.16438,15.16438,0,0,1-1.56784,1.99772,11.20228,11.20228,0,0,1-1.79542,1.51726,13.73614,13.73614,0,0,1-6.52421,1.54255c-.85978.30345-1.74484.91035-2.60462,1.2138h42.02807c1.6437.02529,3.43911.02529,5.361-.02529a59.20714,59.20714,0,0,0,8.34493-.73334,26.76636,26.76636,0,0,0,4.45062-1.13794,18.64578,18.64578,0,0,0,4.32418-2.14945,15.74234,15.74234,0,0,0,3.71729-3.38855c.25287-.32873.531-.65748.78391-1.0115.22759-.354.48047-.68277.73335-1.0368.22759-.354.48047-.708.70805-1.06208s.45517-.70805.68277-1.08737c.93564-1.4414,1.79541-2.90808,2.68048-4.37476q1.28969-2.238,2.57934-4.47591c3.38855-5.99318,6.62537-12.0875,9.65989-17.77722s5.86674-11.02541,8.3955-15.476c.32874-.55632.63219-1.08737.93565-1.59312l.22759-.37931c.07586-.15173.177-.30345.25288-.42989a3.80556,3.80556,0,0,1,.25287-.42989,3.58358,3.58358,0,0,0,.2023-.45518A10.11564,10.11564,0,0,0,250,101.58287,9.21781,9.21781,0,0,0,249.41839,98.169Zm-89.67,62.941a10.4062,10.4062,0,0,0,3.66671-2.07359h.02528c.2023-.177.4046-.37932.60691-.58162a19.01182,19.01182,0,0,0,3.11038-4.32419c.88507-1.54254,1.82071-3.13566,2.75636-4.75407,3.76786-6.44835,7.63687-13.37717,11.55646-20.306,7.81388-13.85762,15.62776-27.69,21.4945-38.0832a30.72705,30.72705,0,0,0,3.56555-7.66215,10.56016,10.56016,0,0,0,.27816-1.99773v-.50575c.05057.15173.12643.30345.177.45518a4.9513,4.9513,0,0,1,.15172,1.26438,6.10574,6.10574,0,0,1-.177,1.46669,15.67119,15.67119,0,0,1-1.18853,3.338c-.531,1.16323-1.2138,2.40232-1.92185,3.692-5.56328,10.41851-12.99786,24.32672-20.43242,38.20964-3.74257,6.92881-7.43457,13.88292-11.02541,20.33127-.88506,1.6184-1.77013,3.21153-2.62992,4.75407a16.52842,16.52842,0,0,1-3.0598,4.07131,10.4378,10.4378,0,0,1-4.14718,2.32647,17.03636,17.03636,0,0,1-3.31267.531C159.41964,161.21114,159.57136,161.16057,159.74838,161.11Zm2.78164.15172a1.61211,1.61211,0,0,1,.177-.05058,10.606,10.606,0,0,0,4.42534-2.35175,16.5289,16.5289,0,0,0,3.28739-4.14717c.88507-1.54255,1.82071-3.11038,2.73106-4.70351,3.76787-6.37249,7.5863-13.25072,11.4806-20.10368,7.738-13.73119,15.45075-27.43709,21.26691-37.72917a30.20909,30.20909,0,0,0,3.515-7.61158,10.53359,10.53359,0,0,0,.25287-1.97244v-.50575c.05058.15173.12644.30345.177.45518a4.9513,4.9513,0,0,1,.15172,1.26438,7.60738,7.60738,0,0,1-.15172,1.46668,15.17148,15.17148,0,0,1-1.13795,3.31269c-.531,1.16323-1.18852,2.377-1.87129,3.66671-5.56328,10.31736-12.84612,24.12441-20.20483,37.8809-3.66671,6.87824-7.384,13.75648-10.899,20.15426-.91035,1.59311-1.79542,3.13566-2.68049,4.65292a14.50075,14.50075,0,0,1-3.26211,3.81844,10.74571,10.74571,0,0,1-4.24832,2.07359A21.03213,21.03213,0,0,1,162.53,161.26172Zm3.338,0a11.07094,11.07094,0,0,0,4.27362-2.023,15.7206,15.7206,0,0,0,3.48969-3.91958c.91035-1.51726,1.846-3.05981,2.78165-4.62764,3.6667-6.3472,7.53571-13.12429,11.35416-19.92666,7.66215-13.57947,15.24844-27.26009,21.03932-37.40043a28.53122,28.53122,0,0,0,3.43912-7.58629,10.54277,10.54277,0,0,0,.25287-1.94715v-.48047a3.20109,3.20109,0,0,1,.15172.45518,6.03623,6.03623,0,0,1,.02528,2.70578,15.11792,15.11792,0,0,1-1.08736,3.28739c-.50576,1.16324-1.16323,2.35176-1.846,3.61614-2.78164,5.1081-5.91731,11.10127-9.33115,17.499s-7.03,13.22544-10.64609,20.0531c-3.64143,6.82767-7.30814,13.63-10.82311,19.952-.45517.78392-.91035,1.54254-1.34024,2.32646-.2276.37932-.42989.75863-.65747,1.13795a6.39955,6.39955,0,0,1-.32874.55633l-.354.531a13.63305,13.63305,0,0,1-3.41384,3.59085,11.8,11.8,0,0,1-4.32418,1.82071A20.33563,20.33563,0,0,1,165.868,161.26172Zm3.41384,0a12.26646,12.26646,0,0,0,3.8943-1.669,13.76857,13.76857,0,0,0,3.66671-3.692l.37931-.55633c.12644-.177.2276-.37931.354-.55633l.68277-1.138c.45517-.75863.93564-1.54254,1.4161-2.30117,3.66671-6.27134,7.48514-12.99785,11.27828-19.72437,3.79315-6.7518,7.561-13.5036,11.10129-19.82551s6.82766-12.23922,9.68516-17.27147a27.52035,27.52035,0,0,0,3.36326-7.53572,9.47625,9.47625,0,0,0,.22759-2.377,3.20067,3.20067,0,0,1,.15172.45518,5.56927,5.56927,0,0,1,.05058,2.68049,23.93727,23.93727,0,0,1-2.8828,6.82766q-1.02416,1.89657-2.12417,3.94488c-.73334,1.36553-1.46668,2.78164-2.2506,4.24832-1.54254,2.90808-3.161,5.96789-4.82994,9.15413-3.36325,6.3472-6.9541,13.12429-10.54495,19.87609-3.61613,6.7518-7.23226,13.5036-10.77253,19.74965-.45518.75863-.91035,1.54255-1.34024,2.30118-.2276.37931-.4299.75863-.68277,1.11266s-.48048.708-.73335,1.03679a13.08473,13.08473,0,0,1-3.59085,3.31268A12.92632,12.92632,0,0,1,171.406,160.933,20.551,20.551,0,0,1,169.28183,161.26172Zm3.36325,0a12.35883,12.35883,0,0,0,3.48969-1.36554,13.40618,13.40618,0,0,0,3.869-3.41383c.25288-.354.531-.708.78391-1.06208s.45518-.73334.70805-1.11266c.45518-.75863.93565-1.51726,1.4161-2.27589,3.692-6.17018,7.45986-12.84612,11.22773-19.52206,3.74256-6.67594,7.48513-13.37717,10.97484-19.64851,1.74485-3.13566,3.43911-6.17018,5.03225-9.02769q1.21382-2.16208,2.35175-4.17246t2.2-3.869a26.15169,26.15169,0,0,0,3.31268-7.51043,10.34035,10.34035,0,0,0,.2023-2.32646c.05058.15172.10116.27816.15172.45518a5.74926,5.74926,0,0,1,.07586,2.6552A13.50092,13.50092,0,0,1,217.4042,92.277a38.98242,38.98242,0,0,1-1.79542,3.54027c-.68277,1.26438-1.39082,2.57934-2.12416,3.91958-.70806,1.36554-1.46668,2.75636-2.22531,4.19776-1.51726,2.88279-3.11038,5.9173-4.77938,9.07826-3.31266,6.24606-6.85293,12.94729-10.3932,19.64851-3.56555,6.67594-7.13112,13.40246-10.69667,19.52207-.45517.75863-.91035,1.51726-1.34024,2.2506-.2023.37931-.48047.70805-.70805,1.06208l-.37932.50576c-.12644.177-.27816.32873-.40459.48046a12.40054,12.40054,0,0,1-3.74257,3.0851,14.26376,14.26376,0,0,1-4.40006,1.44139C173.80832,161.13528,173.22669,161.18586,172.64508,161.26172Zm3.38855,0a13.81957,13.81957,0,0,0,3.0598-1.08737,13.02246,13.02246,0,0,0,4.02074-3.161c.15172-.15172.30346-.32873.4299-.48046l.40459-.531a10.4828,10.4828,0,0,0,.75863-1.08737c.48047-.73334.93565-1.492,1.4161-2.2506,3.71729-6.09432,7.43458-12.71968,11.15185-19.31976,3.692-6.62536,7.384-13.25072,10.84841-19.47149,1.71955-3.11038,3.38855-6.11961,4.98167-8.95182.78391-1.41611,1.56783-2.80693,2.32646-4.14717.75863-1.315,1.492-2.60463,2.2-3.84373a25.04036,25.04036,0,0,0,3.26211-7.45985,9.76815,9.76815,0,0,0,.177-2.2506c.05058.15173.10116.27816.15172.42989a5.98532,5.98532,0,0,1,.10116,2.62991,13.4235,13.4235,0,0,1-.98623,3.18625,37.882,37.882,0,0,1-1.77013,3.48969c-1.36554,2.47819-2.78164,5.184-4.2989,8.04148-1.492,2.8575-3.0851,5.86673-4.7288,9.0024-3.26211,6.246-6.7518,12.8967-10.29207,19.52206s-7.05526,13.276-10.62081,19.31976a20.71756,20.71756,0,0,1-2.98394,4.12188,13.05267,13.05267,0,0,1-3.89431,2.80693,17.66535,17.66535,0,0,1-4.42533,1.28968A11.38216,11.38216,0,0,1,176.03363,161.26172Zm3.2874,0a13.53492,13.53492,0,0,0,2.70578-.88507,13.28966,13.28966,0,0,0,4.17246-2.88279c.30345-.32874.60691-.63219.88507-.96093.27815-.354.531-.68277.8092-1.0368s.48048-.73334.73335-1.08736c.2276-.37932.50575-.73334.73335-1.11266,1.89657-2.98394,3.692-6.14489,5.56328-9.35643q2.769-4.8173,5.538-9.761c3.66671-6.5495,7.30814-13.12429,10.722-19.29447,1.69428-3.08509,3.36326-6.069,4.93109-8.876s3.0598-5.48742,4.45062-7.915a23.99,23.99,0,0,0,3.21154-7.40928,10.73741,10.73741,0,0,0,.15172-2.2c.05058.12644.10115.27817.15172.42989a6.08276,6.08276,0,0,1,.20229,1.21381,6.5957,6.5957,0,0,1-.07585,1.39082,12.99008,12.99008,0,0,1-.93565,3.161c-.2276.55632-.50575,1.11265-.80921,1.69427s-.60691,1.13794-.96093,1.77013c-1.36554,2.47819-2.75636,5.1334-4.24832,7.9909-1.492,2.83222-3.03452,5.81616-4.65293,8.92654-3.23682,6.19547-6.67595,12.79555-10.16564,19.37034-1.74485,3.28739-3.515,6.57479-5.25983,9.78632-1.77013,3.21153-3.48969,6.37249-5.3104,9.33114a19.29938,19.29938,0,0,1-3.11038,3.94488,12.84873,12.84873,0,0,1-4.02074,2.57934,19.99482,19.99482,0,0,1-4.42534,1.13794A4.30421,4.30421,0,0,0,179.321,161.26172Zm3.46441-.02529a18.14881,18.14881,0,0,0,2.2-.65748,13.87484,13.87484,0,0,0,4.27362-2.60462,19.75,19.75,0,0,0,3.338-4.02074c1.92185-2.95865,3.71728-6.069,5.56328-9.25528,1.82071-3.18624,3.66671-6.42306,5.48742-9.65988,3.64143-6.49893,7.23226-13.02314,10.62081-19.11746q2.54142-4.58971,4.85523-8.80011c1.54254-2.78164,3.00924-5.43684,4.40006-7.83917a22.52823,22.52823,0,0,0,3.161-7.3587,11.98649,11.98649,0,0,0,.15172-1.89658v-.22758l.15172.37931a6.11482,6.11482,0,0,1,.15172,2.57934,12.527,12.527,0,0,1-.91035,3.11038,16.52027,16.52027,0,0,1-.78391,1.669c-.15172.27816-.30346.55633-.45518.85978-.177.30345-.32873.6069-.50575.91035-1.34024,2.4529-2.73106,5.10811-4.19774,7.915s-3.00924,5.76558-4.60236,8.85067c-3.18624,6.1449-6.60007,12.66912-10.0392,19.19333-1.71956,3.2621-3.46441,6.49893-5.20925,9.68516-.88507,1.59312-1.74485,3.161-2.62992,4.70351-.22759.37931-.42989.75863-.65747,1.16323l-.68277,1.13794c-.2276.37932-.45518.75863-.65747,1.11266-.2276.37931-.48048.708-.70806,1.08736a24.57919,24.57919,0,0,1-1.492,2.023l-.83449.91035c-.27816.27817-.60691.531-.91035.80921a13.62314,13.62314,0,0,1-4.12188,2.32647,20.03879,20.03879,0,0,1-4.42534,1.03679A1.30307,1.30307,0,0,0,182.78544,161.23643Zm5.10809-.50575a14.434,14.434,0,0,0,4.37476-2.35175c.32873-.27816.65747-.531.98622-.83449.30346-.30345.60691-.6069.91035-.93564a21.67916,21.67916,0,0,0,1.61842-2.07359c.25287-.354.50575-.70805.73335-1.08737s.45517-.73334.70805-1.11265c.22759-.37932.48047-.75863.708-1.11266l.68277-1.13794c.93564-1.51726,1.82071-3.0851,2.75636-4.65293,1.82071-3.13566,3.64142-6.3472,5.43684-9.584,3.61613-6.44835,7.1564-12.89671,10.49437-18.96574,1.669-3.03452,3.2874-5.9426,4.80466-8.72424,1.54254-2.75635,2.98394-5.38627,4.34948-7.76331a21.41055,21.41055,0,0,0,3.11037-7.30812,9.128,9.128,0,0,0,.10116-2.023,1.98107,1.98107,0,0,1,.12644.354,5.97122,5.97122,0,0,1,.177,2.55405,12.11659,12.11659,0,0,1-.85979,3.0851c-.2276.531-.48047,1.08737-.78391,1.64369l-.45518.8345c-.15172.30345-.32873.6069-.50575.91035-1.34024,2.42762-2.70578,5.05753-4.14718,7.83917s-2.95866,5.715-4.55178,8.77482c-3.13567,6.069-6.49892,12.568-9.91276,19.01631-1.71955,3.21153-3.43911,6.44835-5.15868,9.584L202.3075,148.011c-.42989.75862-.88506,1.54254-1.315,2.30117-.88507,1.51726-1.77013,3.00923-2.73106,4.37476a15.98438,15.98438,0,0,1-3.41383,3.48969,14.5995,14.5995,0,0,1-4.19775,2.12417,24.0241,24.0241,0,0,1-4.47591.96092C186.7303,161.11,187.31192,160.933,187.89353,160.73068Zm2.93338.15172a14.56527,14.56527,0,0,0,4.42533-2.12416,16.5526,16.5526,0,0,0,3.692-3.59085c1.03679-1.41611,1.97244-2.88279,2.8828-4.40005.45518-.75863.91035-1.51726,1.39082-2.27589.45518-.75863.91035-1.54254,1.36554-2.32646,1.82072-3.11038,3.61613-6.29663,5.41156-9.48287,3.56556-6.37249,7.08055-12.77026,10.36794-18.78872,1.6437-3.00923,3.23682-5.892,4.75407-8.64837s2.95866-5.3357,4.2989-7.68745c.177-.30345.32874-.58161.50576-.85978.177-.30345.354-.6069.50575-.88506q.49311-.91036.91035-1.82071a14.37549,14.37549,0,0,0,1.11266-3.692,8.37606,8.37606,0,0,0,.07586-1.94715c.05058.10115.07586.2023.12644.32874a5.81223,5.81223,0,0,1,.2276,2.52876,10.5345,10.5345,0,0,1-.83449,3.03452,32.627,32.627,0,0,1-1.71956,3.338c-1.315,2.40233-2.68049,5.007-4.0966,7.76331s-2.93336,5.66443-4.47592,8.69895c-3.11038,6.01845-6.42307,12.44152-9.78632,18.83929-1.69428,3.18625-3.38855,6.3725-5.13339,9.48287-.85979,1.56784-1.74486,3.0851-2.60463,4.57707-.45517.73334-.91035,1.46668-1.34024,2.2-.22759.354-.48047.70805-.708,1.03679l-.354.531c-.12644.177-.25288.32874-.37932.48047l-.40459.48046a3.47006,3.47006,0,0,1-.4046.45518c-.27816.30345-.58161.58161-.85979.85977-.30345.25288-.63219.50576-.93564.78392-.30346.25288-.65747.45518-.98623.68277a16.41232,16.41232,0,0,1-4.24832,1.92187,26.76582,26.76582,0,0,1-4.0966.83448A9.98236,9.98236,0,0,0,190.82691,160.8824Zm3.48969.12644c-.354.05058-.73335.10115-1.08737.177-.12644.02528-.22759.02528-.354.05057.30345-.07586.58161-.12643.88507-.20229a18.17579,18.17579,0,0,0,4.47591-1.89658,9.388,9.388,0,0,0,1.03679-.70805c.32874-.25288.65747-.531,1.01151-.78392.30345-.30345.60691-.58161.93564-.88507a3.88736,3.88736,0,0,0,.4299-.48046l.42989-.48046c.12644-.177.27816-.32874.42989-.50576l.37932-.531.75863-1.06208c.48047-.73334.93564-1.46668,1.4161-2.2.91035-1.492,1.846-3.00923,2.73106-4.55178,1.82071-3.0598,3.59085-6.22076,5.361-9.38172,3.54028-6.32191,7.00469-12.66911,10.2415-18.61171,1.61842-2.98393,3.18624-5.84144,4.67822-8.57251s2.90808-5.28511,4.24832-7.61158a33.96571,33.96571,0,0,0,1.92185-3.54027,13.375,13.375,0,0,0,1.08737-3.692,10.97061,10.97061,0,0,0,.07586-1.82071c.02528.10115.07586.177.10116.27817a6.53708,6.53708,0,0,1,.25287,2.50347,10.0572,10.0572,0,0,1-.78391,2.98395,12.76457,12.76457,0,0,1-.75863,1.56783l-.45517.83449c-.15172.27817-.32874.58162-.48047.88507-2.57935,4.75408-5.41157,10.34265-8.47137,16.31053s-6.32191,12.34037-9.68516,18.66228c-.83449,1.56784-1.669,3.161-2.52877,4.7288-.42989.78392-.85978,1.56783-1.26438,2.35174-.42989.78392-.85979,1.54255-1.28966,2.30118-.4299.78392-.85979,1.51726-1.315,2.27589-.4299.75863-.85979,1.51726-1.315,2.22531s-.88507,1.46668-1.36554,2.14945c-.25288.354-.48048.68277-.70805,1.01151-.27816.30345-.531.63219-.78392.93564a15.77646,15.77646,0,0,1-3.71728,3.03452,17.4516,17.4516,0,0,1-4.2989,1.74485C195.78328,160.73068,195.02465,160.85712,194.3166,161.00884Zm2.023.2023c.10116-.02528.22759-.05057.32874-.07586a18.04806,18.04806,0,0,0,4.50119-1.69427,17.2571,17.2571,0,0,0,3.99545-3.0851c.27816-.32873.58161-.63219.85978-.96092.25288-.354.50576-.68277.75863-1.0368.531-.68277.96093-1.4414,1.46668-2.14945.48048-.73334.93565-1.46668,1.39083-2.22531s.91034-1.492,1.36553-2.2506.91035-1.51726,1.34025-2.30118.88506-1.54254,1.34024-2.32646c.88507-1.54255,1.77013-3.11038,2.6552-4.67822,3.515-6.24605,6.92882-12.54267,10.14034-18.43469s6.17019-11.43,8.8254-16.03237c.177-.27816.32873-.55632.50575-.83449s.32874-.58162.50575-.85978a13.30429,13.30429,0,0,0,.91035-1.79542,13.147,13.147,0,0,0,1.06209-3.66671,8.07462,8.07462,0,0,0,.02528-1.74485c.02528.07587.07586.177.10116.25288a6.38049,6.38049,0,0,1,.27815,2.47819,10.01378,10.01378,0,0,1-.75863,2.95865c-.10115.25288-.22759.50575-.354.75863s-.27816.50575-.4046.78392c-.30345.55633-.63219,1.13794-.96092,1.71956-2.554,4.7035-5.33569,10.2415-8.37021,16.15881s-6.246,12.23922-9.55873,18.48527c-1.64369,3.13566-3.338,6.246-5.05753,9.28057-.88506,1.492-1.71955,3.00923-2.62992,4.42534a21.1897,21.1897,0,0,1-3.00923,3.91958c-.30346.27817-.58162.58161-.88507.83449s-.63219.50575-.93565.73334a16.66916,16.66916,0,0,1-2.023,1.23909,19.81563,19.81563,0,0,1-4.32418,1.59312C198.3879,160.85712,197.35111,161.05942,196.33961,161.21114Zm3.48969-.02528a19.99691,19.99691,0,0,0,4.27362-1.492,20.48092,20.48092,0,0,0,2.14945-1.2391c.32874-.25287.68277-.50575,1.01151-.75863s.63219-.55633.96092-.83449a21.527,21.527,0,0,0,3.23682-3.99544c.48047-.70805.96093-1.4414,1.4161-2.17474s.91035-1.46668,1.36554-2.22531c1.79542-3.00923,3.56555-6.09432,5.28512-9.17941,3.46442-6.19548,6.85295-12.44153,10.01391-18.283s6.09431-11.32886,8.72424-15.90593l.98622-1.669a7.611,7.611,0,0,0,.48047-.88507c.15172-.30345.30346-.6069.42989-.88507a12.22631,12.22631,0,0,0,1.01151-3.66671,11.94615,11.94615,0,0,0,.02528-1.64369.50819.50819,0,0,0,.10116.2023,6.14868,6.14868,0,0,1,.32873,2.42761,9.37078,9.37078,0,0,1-.70805,2.90808c-.12643.25288-.22759.50576-.354.75863s-.27816.50576-.4046.75863c-.30345.55633-.63219,1.138-.96092,1.71956-2.50349,4.67822-5.25983,10.14035-8.24377,16.03237-2.98394,5.86674-6.17019,12.11278-9.43229,18.30826-1.6437,3.11037-3.31268,6.17018-5.03225,9.17941-.42989.73334-.85978,1.46668-1.315,2.2-.42989.73334-.91035,1.4414-1.36554,2.14945-.22759.354-.48047.68277-.708,1.0115l-.354.50576c-.12644.15172-.2276.32873-.37932.48046-.27815.30345-.531.6069-.8092.91036-.27816.27816-.58162.55633-.88507.83449a16.07373,16.07373,0,0,1-3.94487,2.57934,23.45966,23.45966,0,0,1-4.32418,1.4414C201.52358,160.90769,200.66379,161.05942,199.8293,161.18586Zm6.04376-.50576c-.177.02529-.354.07586-.55634.10115-.70805.15173-1.39082.27817-2.07359.37932a23.3204,23.3204,0,0,0,3.76787-1.21381,17.82212,17.82212,0,0,0,4.19774-2.60462c.30346-.27817.63219-.55633.93565-.85978.27816-.30346.58161-.63219.88507-.93565.15172-.15172.27815-.32873.40459-.48046l.4046-.50575c.25288-.354.531-.68277.75863-1.0368.48047-.708.96093-1.41611,1.4161-2.14945l1.36554-2.2c1.79542-2.95865,3.56555-6.01845,5.25983-9.07826,3.43911-6.11961,6.77708-12.31509,9.88746-18.106,3.13568-5.79087,6.01846-11.22771,8.62308-15.7542.32874-.55633.65748-1.11266.96093-1.6437.177-.30345.32874-.58162.50575-.88507.15172-.30345.30346-.6069.4299-.88507a11.47231,11.47231,0,0,0,.98622-3.6667,7.60457,7.60457,0,0,0,0-1.51726l.07586.15172a6.08037,6.08037,0,0,1,.354,2.40233,8.71493,8.71493,0,0,1-.68277,2.83222,3.91943,3.91943,0,0,1-.354.73334c-.12644.25287-.25288.48046-.4046.75863-.30345.55632-.63219,1.11265-.96092,1.69427-2.47819,4.62764-5.20925,10.06448-8.14263,15.88064s-6.069,12.01163-9.33115,18.15654c-1.61841,3.0598-3.28739,6.11961-5.00695,9.053-.85978,1.46668-1.74485,2.90808-2.68048,4.24832a16.74468,16.74468,0,0,1-3.2874,3.515,16.23588,16.23588,0,0,1-4.02074,2.35175c-.708.32874-1.4414.531-2.14945.78392-.354.10115-.73335.2023-1.08736.30346A2.12156,2.12156,0,0,1,205.87306,160.6801Zm40.91541-56.442c-.05058.12644-.10116.25288-.15172.354-.07586.12644-.12644.22759-.2023.354s-.12644.22758-.2023.354-.15172.27817-.2276.4046c-.30345.55633-.63219,1.11266-.93564,1.69428-2.45291,4.57706-5.13339,9.96333-8.04147,15.72892s-5.99318,11.91048-9.20471,17.97952c-.78391,1.51725-1.6437,3.00922-2.4529,4.52648-.83449,1.492-1.669,2.98394-2.55405,4.4-.2276.354-.42989.73334-.65747,1.08737s-.45518.708-.68277,1.03679c-.2276.354-.45518.68277-.68277,1.0368-.2276.32873-.48047.65748-.73335.96092a15.118,15.118,0,0,1-3.43911,3.2874,18.75242,18.75242,0,0,1-4.09661,2.17474,25.15285,25.15285,0,0,1-4.32418,1.2138c-.531.10115-1.06208.2023-1.56784.27817.32874-.07586.65748-.15173.98623-.25288a21.43072,21.43072,0,0,0,2.25061-.75863,16.56428,16.56428,0,0,0,4.27361-2.377,17.90923,17.90923,0,0,0,3.56556-3.61613c1.0115-1.36553,1.94715-2.80693,2.83222-4.27361,1.82071-2.90808,3.54027-5.94259,5.25982-8.97711,3.41384-6.069,6.70123-12.18865,9.78633-17.92894s5.94259-11.10128,8.49664-15.60248c.32874-.55633.65747-1.08737.96093-1.61841.15172-.25287.32873-.58161.48047-.85978a9.698,9.698,0,0,0,.45517-.88506,10.11564,10.11564,0,0,0,.96093-3.66671,12.30057,12.30057,0,0,0,0-1.36553c0,.02529.02528.05057.05058.10115a5.86844,5.86844,0,0,1,.4046,2.377A6.89355,6.89355,0,0,1,246.78847,104.23807Z" fill="url(#linear-gradient-2)"/></svg>