<svg id="Layer_1" data-name="Layer 1" xmlns="http://www.w3.org/2000/svg" viewBox="0 0 300 300"><rect x="110.16405" y="130.49384" width="15.19818" height="71.60445" fill="#fd6a20"/><path d="M99.90255,174.49143c-.80549-16.421-17.62922-28.86941-34.33395-22.91062-4.69563,1.68417-11.86266,3.09375-16.82372,2.72766h0c0,1.70249-.04575,3.17616,0,4.64988.16475,5.17156-.02743,10.334,0,15.50565.07324,13.858-.00916,27.71608,0,41.57416,0,1.62014-.06408,3.24024,0,4.94279H63.58236l.74141-20.21961c1.3364.13732,2.21508.26542,3.09381.32034,3.167.21056,6.37065.79633,9.50111.53091C89.95294,200.49591,100.589,188.34034,99.90255,174.49143Zm-25.739,15.06631a13.45991,13.45991,0,1,1,13.45533-13.46449A13.46932,13.46932,0,0,1,74.16354,189.55774Z" fill="#fd6a20"/><path d="M87.61631,104.83373A136.61192,136.61192,0,0,0,65.5575,120.41317h0C77.86362,105.44605,94.167,92.94806,112.30938,86.2898A114.25106,114.25106,0,0,1,157.1646,79.133c24.96785,1.13669,47.86558,8.49029,67.72316,24.21275,5.3931,4.27007,10.00506,9.25964,14.88569,14.37681l-9.51237,6.46361c-22.24966-22.32589-49.30467-34.04794-81.17677-34.608a118.634,118.634,0,0,0-61.468,15.25555" fill="#fd6a20"/><path d="M185.5505,153.00235v48.9628l-11.77373.16745v-5.96293a67.77276,67.77276,0,0,1-7.51894,4.38722c-6.38272,3.67126-12.97859,4.09287-19.52326.44154-4.83973-2.70012-7.099-7.48944-7.30462-12.53172-.47087-11.54887-.149-23.13006-.149-35.18924h14.38807v4.70244c.02623,7.16258-.0419,14.3262.06331,21.48739a21.7946,21.7946,0,0,0,.85584,6.28572c2.05495,6.38291,8.53289,7.8565,13.34461,3.15134.7562-.73947,1.37888-1.61546,2.12048-2.49623.7904.20016,1.383-33.26488,1.383-33.26488Z" fill="#fd6a20"/><path d="M210.49675,152.94114v7.81614c3.79509-5.20146,10.46174-10.14234,18.11207-8.35739v12.86775c-1.46464.10318-2.78795.21514-4.11344.28661-6.18983.33381-10.237,4.29184-10.35354,10.455,0,0-.03253,13.99863-.06022,20.99811-.0059,1.4912.085,3.2367,0,5.11061h-14.5874s.00481-3.5011,0-5.11728c-.03135-10.4993,0-31.49779,0-31.49779V152.94114Z" fill="#fd6a20"/><circle cx="54.55223" cy="136.03482" r="9.55223" fill="#fd6a20"/><circle cx="245.44777" cy="136.03482" r="9.55223" fill="#fd6a20"/><path d="M252.77683,154.14637v48.321H238.05729v-48.321h.05343a11.92308,11.92308,0,0,0,14.599,0Z" fill="#fd6a20"/></svg>