<svg id="Layer_1" data-name="Layer 1" xmlns="http://www.w3.org/2000/svg" viewBox="0 0 300 300"><path d="M190.46685,119.91259H200.8852c.24153.31322.13021.66183.13041.98268.00677,11.37719.02731,22.75444-.00479,34.13155a30.238,30.238,0,0,1-2.89769,13.34909,20.70759,20.70759,0,0,1-12.8779,11.04288,32.79324,32.79324,0,0,1-18.7668.35785c-8.68452-2.35923-13.83152-8.18664-15.9174-16.83529a35.40413,35.40413,0,0,1-.92547-8.291q-.018-17.01978-.005-34.03958l0-.67409h10.53568a1.77263,1.77263,0,0,1,.10931,1.06382q.01021,16.9278.00947,33.85558a19.58752,19.58752,0,0,0,1.72721,8.39366c2.48952,5.31734,6.88721,7.65476,12.584,7.87507a17.648,17.648,0,0,0,6.70547-.88152c4.95114-1.77337,7.55989-5.49919,8.643-10.46654a24.40331,24.40331,0,0,0,.52994-5.20192q.0066-16.74369.00225-33.48739Z" fill="#c05a28"/><path d="M211.46168,171.15988l6.35988-7.55122a47.21748,47.21748,0,0,0,4.84065,3.63165,25.27811,25.27811,0,0,0,14.71081,4.16294c2.99239-.09321,5.86448-.66722,8.10426-2.89679a6.58724,6.58724,0,0,0-1.22605-10.34435,27.71616,27.71616,0,0,0-7.79211-2.93211,91.7706,91.7706,0,0,1-11.4584-3.32508,22.68529,22.68529,0,0,1-6.2139-3.51151c-3.36677-2.79817-4.71013-6.50785-4.915-10.7692-.46294-9.62784,5.865-16.11758,14.35816-17.85138a32.5976,32.5976,0,0,1,27.74066,6.65941,1.82057,1.82057,0,0,1,.18619.23712c-1.8488,2.60753-3.71725,5.24273-5.63145,7.94249a40.88275,40.88275,0,0,0-5.88516-3.61214,22.7486,22.7486,0,0,0-12.08991-2.46662,10.54328,10.54328,0,0,0-5.903,2.28651c-2.93918,2.39835-3.06361,7.94337.50124,10.20623a29.79617,29.79617,0,0,0,8.61308,3.32965,77.8059,77.8059,0,0,1,11.58172,3.51951,19.23359,19.23359,0,0,1,7.715,5.4734c2.48494,3.13928,3.09492,6.78912,2.89648,10.65179-.45022,8.7632-6.46026,14.62881-15.269,16.19167-11.536,2.04669-21.78261-1.01468-30.71632-8.54892C211.80781,171.50664,211.66215,171.3515,211.46168,171.15988Z" fill="#c05a28"/><path d="M99.2587,119.91652h10.53521v50.36636h31.50238v9.56078H99.2587Z" fill="#c05a28"/><path d="M52.17128,179.88788H41.9628V160.43405H25v-9.86133H41.88949V133.75186H52.12506V150.499H69.11677v9.89142H52.17128Z" fill="#333f49"/><path d="M73.96254,159.286V148.31093a9.54366,9.54366,0,0,0,3.51192-5.80143c1.01646-6.0839-1.65136-11.02651-8.26035-12.5a20.11433,20.11433,0,0,0-4.3824-.44571q-10.90869-.00642-21.81738-.00563a1.79077,1.79077,0,0,1-1.03229-.13114v-9.40752c.2206-.2094.4788-.12931.71253-.12916,8.07.005,16.14131-.06971,24.20951.05533a23.47662,23.47662,0,0,1,14.51437,4.73367c4.658,3.64045,6.78838,8.57159,7.03288,14.36926a19.37845,19.37845,0,0,1-4.03231,13.426A20.97125,20.97125,0,0,1,73.96254,159.286Z" fill="#c05a28"/><path d="M275,126.58345v6.97138c-.17985.25589-.41983.08317-.7234.12681v-5.43193l-.1754-.06655c-.77428,1.14513-1.54856,2.29027-2.40751,3.56065l-2.39691-3.56482-.16958.06255v5.29616c-.274.22865-.47692.10413-.727.14725v-7.0887a.99549.99549,0,0,1,.78021-.01275l2.52574,3.81979c.89206-1.34964,1.71-2.58711,2.50762-3.79392A.95082.95082,0,0,1,275,126.58345Z" fill="#c05a28"/><path d="M264.5462,133.665h-.77743v-6.37651h-2.19359a.53784.53784,0,0,1-.12121-.74155h5.31618c.25231.18976.09361.41622.11618.69186H264.5462Z" fill="#c05a28"/></svg>