<svg id="Layer_1" data-name="Layer 1" xmlns="http://www.w3.org/2000/svg" viewBox="0 0 300 300"><title>ELAB_Mark_Light</title><path d="M87.18292,146.77621a8.3417,8.3417,0,0,1,.87967-.85245,2.107,2.107,0,0,1,2.6997.22419,2.20361,2.20361,0,0,1,.09831,2.71188,2.09617,2.09617,0,0,1-2.80562.34467,7.70783,7.70783,0,0,1-.87206-.85819Z" fill="#b8813c"/><path d="M144.42133,253.54334a2.44946,2.44946,0,0,1-.50335-2.31771c1.36139-1.23736,2.13524-1.05242,2.943.91172l-1.18163,1.406Z" fill="#b8813c"/><path d="M157.01542,150.879a6.72142,6.72142,0,0,1-6.92238,7.103,6.82255,6.82255,0,0,1-6.97784-6.926,6.92113,6.92113,0,0,1,6.9556-7.09317C153.42307,143.891,157.219,146.69555,157.01542,150.879Z" fill="#b8813c"/><path d="M157.29408,165.74745a6.54857,6.54857,0,0,1,6.71865-6.72309,6.76132,6.76132,0,0,1,6.76005,6.79212,6.85027,6.85027,0,0,1-6.91764,6.68934C160.64489,172.52786,157.02283,169.67686,157.29408,165.74745Z" fill="#b8813c"/><path d="M129.3489,136.19008a6.73269,6.73269,0,1,1,6.59843,6.74938A6.66818,6.66818,0,0,1,129.3489,136.19008Z" fill="#b8813c"/><path d="M173.8926,189.45038a6.03344,6.03344,0,0,1-6.18733-5.91491,6.09669,6.09669,0,1,1,12.19071-.02256A5.95515,5.95515,0,0,1,173.8926,189.45038Z" fill="#b8813c"/><path d="M132.34743,118.55551a6.0911,6.0911,0,1,1-6.03216-6.15845A6.049,6.049,0,0,1,132.34743,118.55551Z" fill="#b8813c"/><path d="M168.16664,131.57774a5.08526,5.08526,0,1,1,5.06324-5.08026A5.03956,5.03956,0,0,1,168.16664,131.57774Z" fill="#b8813c"/><path d="M131.78481,180.39006a4.78268,4.78268,0,0,1-4.94157-4.92815,5.01976,5.01976,0,1,1,10.039.00029A4.781,4.781,0,0,1,131.78481,180.39006Z" fill="#b8813c"/><path d="M154.30155,116.59645a4.67633,4.67633,0,0,1-4.81132-4.69047,4.79367,4.79367,0,1,1,9.58647-.05472A4.71537,4.71537,0,0,1,154.30155,116.59645Z" fill="#b8813c"/><path d="M182.75591,203.231a4.65152,4.65152,0,0,1-4.80657,4.71531,4.88494,4.88494,0,0,1-4.777-4.67374,4.96447,4.96447,0,0,1,4.87865-4.92784A4.85956,4.85956,0,0,1,182.75591,203.231Z" fill="#b8813c"/><path d="M140.996,190.21782a4.74157,4.74157,0,0,1,4.76492-4.78068,4.78639,4.78639,0,1,1,.01627,9.57265A4.79933,4.79933,0,0,1,140.996,190.21782Z" fill="#b8813c"/><path d="M122.0714,103.45452a4.6217,4.6217,0,0,1-4.85389-4.66,4.76877,4.76877,0,0,1,4.78684-4.78236,4.72153,4.72153,0,1,1,.067,9.44236Z" fill="#b8813c"/><path d="M113.26207,160.58454a4.73434,4.73434,0,0,1,9.46785.12579,4.7709,4.7709,0,0,1-4.81976,4.75024A4.64707,4.64707,0,0,1,113.26207,160.58454Z" fill="#b8813c"/><path d="M182.08878,136.71446c2.88741-.19724,4.8167,2.5687,4.7661,4.7374a4.68667,4.68667,0,0,1-4.81349,4.70495,4.77351,4.77351,0,0,1-4.78505-4.77135A4.65146,4.65146,0,0,1,182.08878,136.71446Z" fill="#b8813c"/><path d="M148.52211,94.38315a3.85946,3.85946,0,0,1-4.19918,4.00074,4.21109,4.21109,0,1,1,.01344-8.42123A4.08151,4.08151,0,0,1,148.52211,94.38315Z" fill="#b8813c"/><path d="M103.82774,143.04261a4.13324,4.13324,0,0,1,4.15315-4.34594,4.34317,4.34317,0,0,1,4.31785,4.41939,4.12947,4.12947,0,0,1-4.19284,4.14826A4.17143,4.17143,0,0,1,103.82774,143.04261Z" fill="#b8813c"/><path d="M187.81081,159.01465a4.14683,4.14683,0,0,1,4.3087-4.22648,4.28342,4.28342,0,0,1-.12357,8.565A4.17893,4.17893,0,0,1,187.81081,159.01465Z" fill="#b8813c"/><path d="M155.63976,212.09893a4.24883,4.24883,0,0,1-4.22822-4.17787,4.29741,4.29741,0,0,1,8.5946-.00947A4.25374,4.25374,0,0,1,155.63976,212.09893Z" fill="#b8813c"/><path d="M107.27506,123.05268a3.4455,3.4455,0,1,1-6.88924.08023,3.44536,3.44536,0,1,1,6.88924-.08023Z" fill="#b8813c"/><path d="M140.24549,79.54168a3.42442,3.42442,0,0,1,.03291-6.84871,3.42463,3.42463,0,1,1-.03291,6.84871Z" fill="#b8813c"/><path d="M156.4381,225.29272a3.38523,3.38523,0,0,1,3.368-3.39192,3.38067,3.38067,0,0,1,.02258,6.76084A3.38411,3.38411,0,0,1,156.4381,225.29272Z" fill="#b8813c"/><path d="M192.89072,178.87261a3.33289,3.33289,0,0,1,3.35042-3.3894A3.24767,3.24767,0,0,1,199.475,178.789a3.29311,3.29311,0,1,1-6.58424.08364Z" fill="#b8813c"/><path d="M182.77548,105.02234a2.61835,2.61835,0,0,1-2.826-2.81766,2.82181,2.82181,0,0,1,3.03092-3.01847,2.95733,2.95733,0,0,1,2.82285,2.9768A2.82443,2.82443,0,0,1,182.77548,105.02234Z" fill="#b8813c"/><path d="M117.20689,202.67638a2.8214,2.8214,0,0,1-2.94124-2.94638,2.92658,2.92658,0,0,1,2.98658-2.95089,2.99635,2.99635,0,0,1,2.88658,2.92457A2.86521,2.86521,0,0,1,117.20689,202.67638Z" fill="#b8813c"/><path d="M168.84068,90.262a2.75771,2.75771,0,0,1-2.868-2.85046,2.887,2.887,0,0,1,2.87216-2.742,2.963,2.963,0,0,1,2.85,2.95677A2.59928,2.59928,0,0,1,168.84068,90.262Z" fill="#b8813c"/><path d="M199.46884,116.95348a2.59891,2.59891,0,0,1-2.71625,2.78032,2.79131,2.79131,0,1,1,.01856-5.5794A2.601,2.601,0,0,1,199.46884,116.95348Z" fill="#b8813c"/><path d="M175.42192,220.563a2.74556,2.74556,0,0,1,2.80142,2.73906,2.84,2.84,0,0,1-5.67964.05581A2.71815,2.71815,0,0,1,175.42192,220.563Z" fill="#b8813c"/><path d="M106.06133,185.15789a2.58932,2.58932,0,0,1-2.77327,2.71962,2.79046,2.79046,0,0,1-2.82629-2.738,2.82292,2.82292,0,0,1,2.91608-2.83639A2.69432,2.69432,0,0,1,106.06133,185.15789Z" fill="#b8813c"/><path d="M124.59,81.47046a2.65885,2.65885,0,0,1-2.74431-2.77317,2.79974,2.79974,0,1,1,5.59527.1409A2.575,2.575,0,0,1,124.59,81.47046Z" fill="#b8813c"/><path d="M131.25955,211.77763a2.68806,2.68806,0,0,1,2.74573,2.78722,2.79388,2.79388,0,1,1-5.586-.094A2.68963,2.68963,0,0,1,131.25955,211.77763Z" fill="#b8813c"/><path d="M93.32862,164.97925a2.49926,2.49926,0,1,1,.1275,4.9966,2.50954,2.50954,0,0,1-2.681-2.45691A2.39474,2.39474,0,0,1,93.32862,164.97925Z" fill="#b8813c"/><path d="M158.99287,72.2832a2.57037,2.57037,0,1,1,.08144-5.13987,2.57039,2.57039,0,0,1-.08144,5.13987Z" fill="#b8813c"/><path d="M141.06481,234.7099a2.50021,2.50021,0,1,1,.02927-4.997,2.53776,2.53776,0,0,1,2.53462,2.44216A2.46568,2.46568,0,0,1,141.06481,234.7099Z" fill="#b8813c"/><path d="M209.20836,134.56638a2.5174,2.5174,0,1,1-5.03206.15472,2.51811,2.51811,0,1,1,5.03206-.15472Z" fill="#b8813c"/><path d="M159.162,240.68858a2.00661,2.00661,0,0,1-4.00656-.22677,2.00668,2.00668,0,1,1,4.00656.22677Z" fill="#b8813c"/><path d="M208.70355,154.35805a2.05873,2.05873,0,0,1,4.11252.04183,2.05637,2.05637,0,0,1-4.11252-.04183Z" fill="#b8813c"/><path d="M106.25688,105.247a1.95979,1.95979,0,0,1-1.77-2.3,1.83885,1.83885,0,0,1,2.16672-1.70126,1.914,1.914,0,0,1,1.83524,2.08035A2.10965,2.10965,0,0,1,106.25688,105.247Z" fill="#b8813c"/><path d="M142.86659,62.57458a2.032,2.032,0,0,1-2.02979-1.94625,1.99608,1.99608,0,0,1,2.05232-2.06065,1.97227,1.97227,0,0,1,2.0362,1.91933A2.06967,2.06967,0,0,1,142.86659,62.57458Z" fill="#b8813c"/><path d="M192.70153,200.70118c-1.16736-1.043-1.41718-2.05742-.78357-3.02211a2.028,2.028,0,0,1,3.631,1.62952C195.23531,200.43358,194.46863,200.82378,192.70153,200.70118Z" fill="#b8813c"/><path d="M154.74827,46.45666c1.77319.59346,1.99787,1.27825.86952,2.81005a4.52381,4.52381,0,0,1-.7013.15321,4.81219,4.81219,0,0,1-.7376-.04835C152.80172,48.10283,152.99285,47.18171,154.74827,46.45666Z" fill="#b8813c"/><path d="M92.671,126.20874c.82883,1.06238.93187,1.63554.39781,2.25329a1.4279,1.4279,0,0,1-1.83551.4013,1.45424,1.45424,0,0,1-.794-1.69886C90.657,126.31166,91.19406,126.06955,92.671,126.20874Z" fill="#b8813c"/><path d="M206.80074,175.17331c-.12441-1.51743.09724-2.03251.91578-2.24514.9352-.24293,1.47392.15914,1.95239,1.4572C209.03278,176.10836,208.28523,176.32937,206.80074,175.17331Z" fill="#b8813c"/></svg>