<svg id="Layer_1" data-name="Layer 1" xmlns="http://www.w3.org/2000/svg" xmlns:xlink="http://www.w3.org/1999/xlink" viewBox="0 0 300 300"><defs><linearGradient id="linear-gradient" x1="153.84218" y1="-4312.57206" x2="153.84218" y2="-4400.77661" gradientTransform="matrix(1, 0, 0, -1, 0, -4268.68288)" gradientUnits="userSpaceOnUse"><stop offset="0.07704" stop-color="#1c398b"/><stop offset="0.8523" stop-color="#73b5e4"/></linearGradient><linearGradient id="linear-gradient-2" x1="145.00321" y1="-4524.74569" x2="145.00321" y2="-4436.64828" xlink:href="#linear-gradient"/><linearGradient id="linear-gradient-3" x1="90.88354" y1="-4537.74668" x2="90.88354" y2="-4394.0581" xlink:href="#linear-gradient"/><linearGradient id="linear-gradient-4" x1="209.11646" y1="-4302.79382" x2="209.11646" y2="-4444.64009" xlink:href="#linear-gradient"/></defs><path d="M131.06426,115.82329a6.56432,6.56432,0,0,1,2.77109.9237S159.237,131.52611,159.237,131.988c5.08032-3.69478,9.23694-7.38956,12.008-11.54619L143.996,104.2771c-3.23293-1.84739-4.15662-5.54217-1.84738-8.31325a6.20947,6.20947,0,0,1,6.46586-2.77109,6.56423,6.56423,0,0,1,2.77108.9237l25.86346,15.241c1.84739-6.92771,1.38554-13.85542,0-20.78313-2.77109-13.85542-11.08434-26.78715-23.09237-36.0241a67.80507,67.80507,0,0,0-24.93976,52.6506,89.68524,89.68524,0,0,0,.9237,11.08434C130.14056,115.82329,130.60241,115.82329,131.06426,115.82329Z" fill="url(#linear-gradient)"/><path d="M168.012,184.1767a6.56432,6.56432,0,0,1-2.77108-.9237s-25.40161-14.77912-25.40161-15.241c-5.08032,3.69478-9.237,7.38956-12.008,11.54619l27.249,16.16465c3.23294,1.8474,4.15663,5.54218,1.84739,8.31325a6.20944,6.20944,0,0,1-6.46586,2.77108,6.56418,6.56418,0,0,1-2.77109-.9237l-25.86346-15.241c-1.84738,6.92771-1.38553,13.85542,0,20.78314,2.77109,13.85542,11.08434,26.3253,22.63053,36.02409a67.80507,67.80507,0,0,0,24.93975-52.65061,89.68732,89.68732,0,0,0-.92369-11.08434C169.39759,184.1767,168.93574,184.1767,168.012,184.1767Z" fill="url(#linear-gradient-2)"/><path d="M216.506,169.39759a74.58076,74.58076,0,0,1-15.241,2.77108c0,1.84739.46184,3.69478.46184,5.54218a95.78986,95.78986,0,0,1-2.77108,23.09237c-3.69477,15.241-12.008,30.48192-25.4016,41.1044h0c-.46185.46184-.9237.46184-1.38554.9237-4.15663,2.30924-9.237.46184-11.54619-3.69477s-.46185-9.237,3.69478-11.54619c11.08434-6.004,20.78313-16.6265,26.78715-30.02008a99.134,99.134,0,0,0,6.46587-20.78313,18.94514,18.94514,0,0,0,.46184-5.08033h-1.8474a64.82712,64.82712,0,0,1-33.71486-9.23694,28.251,28.251,0,0,1,2.30924,5.54217l7.38956,4.15662c3.23294,1.84739,4.15662,5.54218,1.84739,8.31325a5.30561,5.30561,0,0,1-5.08033,2.77109,89.68524,89.68524,0,0,1,.9237,11.08434,67.805,67.805,0,0,1-24.93975,52.65059h4.15662a68.00176,68.00176,0,0,0,67.89156-67.89157C217.42972,176.78715,216.96788,173.09237,216.506,169.39759Z" fill="#1c398b"/><path d="M82.57028,130.60241a74.581,74.581,0,0,1,15.241-2.77109c0-1.84739-.46185-3.69477-.46185-5.54217a95.78886,95.78886,0,0,1,2.77109-23.09237c3.69478-15.241,12.008-30.48193,25.40161-41.10442h0c.46185-.46185.9237-.46185,1.38554-.92369,4.15662-2.30924,9.23694-.46185,11.54618,3.69478s.46185,9.23695-3.69477,11.54618c-11.08434,6.004-20.78314,16.62651-26.78715,30.02008a99.13153,99.13153,0,0,0-6.46586,20.78314,18.94463,18.94463,0,0,0-.46185,5.08032h1.84739a64.82713,64.82713,0,0,1,33.71486,9.237,28.25147,28.25147,0,0,1-2.30923-5.54217l-7.38956-4.15663c-3.23294-1.84739-4.15663-5.54217-1.84739-8.31325a5.30558,5.30558,0,0,1,5.08032-2.77108,89.6854,89.6854,0,0,1-.9237-11.08434,67.80507,67.80507,0,0,1,24.93976-52.6506H150a66.4648,66.4648,0,0,0-68.35343,66.96787A82.45146,82.45146,0,0,0,82.57028,130.60241Z" fill="#1c398b"/><path d="M103.35342,200.80322c-1.38555-12.93173,2.30923-25.40161,10.16064-36.0241h0c9.6988-12.008,26.3253-21.70683,33.253-25.86345l-12.93172-7.38956c.9237,1.84738,1.38554,3.69477,2.30923,5.54217a68.12085,68.12085,0,0,0-33.71486-9.23695h-1.84738a70.58879,70.58879,0,0,0,.46184,17.08836,53.88989,53.88989,0,0,1-3.69478-17.08836,67.76923,67.76923,0,0,0,5.54217,135.32129,66.46342,66.46342,0,0,0,42.02811-14.77912c-6.92771-2.30924-10.16064-3.69478-15.70281-7.38956C112.59037,229.8996,104.739,215.58234,103.35342,200.80322Z" fill="url(#linear-gradient-3)"/><path d="M196.64659,36.84738A66.46341,66.46341,0,0,0,154.61847,51.6265c6.92771,2.30924,10.16065,4.15663,16.16466,7.38956,16.62651,10.62249,24.47792,25.40161,25.86346,40.18072,1.38554,12.93173-2.30924,25.40161-10.16065,36.0241h0c-9.6988,12.008-26.3253,21.70683-33.253,25.86346l12.46989,7.38956c-.9237-1.84739-1.38554-3.69478-2.30924-5.54217a68.12085,68.12085,0,0,0,33.71486,9.23694h1.84739a70.58869,70.58869,0,0,0-.46184-17.08835,53.88922,53.88922,0,0,1,3.69478,17.08835C237.28916,169.39759,265,140.3012,265,104.739,264.07632,67.32931,234.05624,36.84738,196.64659,36.84738Z" fill="url(#linear-gradient-4)"/><path d="M134.759,71.94779c-11.08434,6.004-20.78314,16.6265-26.78716,30.02008A99.132,99.132,0,0,0,101.506,122.751a59.63611,59.63611,0,0,0,0,22.16867,61.545,61.545,0,0,1-4.15662-22.63052,95.78936,95.78936,0,0,1,2.77108-23.09237c3.69478-15.241,12.008-30.48193,25.40161-41.10442h0c.46185-.46185.9237-.46185,1.38554-.92369,4.15662-2.30924,9.23695-.46185,11.54618,3.69478A7.91584,7.91584,0,0,1,134.759,71.94779Z" fill="#fff"/><path d="M164.77912,228.0522c11.08433-6.004,20.78314-16.6265,26.78715-30.02008a99.13282,99.13282,0,0,0,6.46587-20.78313,59.63611,59.63611,0,0,0,0-22.16867,61.54524,61.54524,0,0,1,4.15664,22.63052,95.78978,95.78978,0,0,1-2.77108,23.09236c-3.69478,15.241-12.008,30.48192-25.40161,41.10442h0c-.46185.46184-.9237.46184-1.38554.9237-4.15662,2.30924-9.23694.46184-11.54618-3.69477C158.77511,235.44177,160.62249,229.8996,164.77912,228.0522Z" fill="#fff"/><path d="M152.77108,161.54619l19.85944,12.008c3.23293,1.84739,4.15662,5.54217,1.84739,8.31325a6.20949,6.20949,0,0,1-6.46586,2.77109,6.56418,6.56418,0,0,1-2.77109-.9237s-25.40161-14.77912-25.40161-15.241c-5.08032,3.69477-9.237,7.38956-12.008,11.54618l27.249,16.16466c3.23294,1.8474,4.15663,5.54217,1.84739,8.31325a6.20943,6.20943,0,0,1-6.46586,2.77108,6.56418,6.56418,0,0,1-2.77109-.9237l-25.86345-15.241c-1.84739,6.92771-1.38554,13.85542,0,20.78313,2.77108,14.31727,11.54618,27.71085,24.01606,36.9478-8.31325-2.30924-11.54619-4.15664-18.012-7.85141-16.62651-10.62249-24.47791-25.40161-25.86346-40.18073-1.38554-12.93173,2.30924-25.40161,10.16065-36.0241h0c9.6988-12.008,26.3253-21.70683,33.253-25.86345l-19.85944-12.008c-3.23293-1.84738-4.15662-5.54217-1.84739-8.31325a6.20947,6.20947,0,0,1,6.46586-2.77108,6.56432,6.56432,0,0,1,2.77109.9237s25.40161,14.77912,25.40161,15.241c5.08032-3.69478,9.23695-7.38956,12.008-11.54619l-27.249-16.16466c-3.23294-1.84738-4.15663-5.54217-1.84739-8.31325a6.20947,6.20947,0,0,1,6.46586-2.77109,6.56432,6.56432,0,0,1,2.77109.9237l25.86345,15.241c1.84739-6.92771,1.38554-13.85542,0-20.78313-2.77108-14.31727-11.54618-27.71085-24.01606-36.94779,8.31325,2.30923,11.54619,4.15662,18.01205,7.8514,16.62651,10.62249,24.47792,25.40161,25.86346,40.18072,1.38554,12.93173-2.30924,25.40161-10.16065,36.0241h0C175.86345,147.69076,159.6988,157.38955,152.77108,161.54619Z" fill="#fff"/></svg>