<svg id="Layer_1" data-name="Layer 1" xmlns="http://www.w3.org/2000/svg" viewBox="0 0 300 300"><defs><style>.cls-1{fill:#878787;}.cls-2{fill:#1c7cbf;}.cls-3{fill:#8fd5e2;}</style></defs><title>PRTG</title><path class="cls-1" d="M59.09,159.51A17.07,17.07,0,0,0,55,155a15.79,15.79,0,0,0-5.51-2.83,17,17,0,0,0-8.29-.42,10.07,10.07,0,0,0-5.31,2.66l-1.83,1.82c-.53-.11-.5-.48-.5-.81,0-.72,0-1.44,0-2.15a.94.94,0,0,0-.39-.95,17,17,0,0,0-2.37,0,.67.67,0,0,0-.33.5c.13,14.65,0,29.3.07,43.93a5.65,5.65,0,0,0,3,0v-15.5a.7.7,0,0,1,1,.27,10.13,10.13,0,0,0,4,3,16.08,16.08,0,0,0,11.58.24,17.17,17.17,0,0,0,5.36-3.11,15.72,15.72,0,0,0,4.94-6.87,16.71,16.71,0,0,0,1-8.64A18.65,18.65,0,0,0,59.09,159.51Zm-1.37,14a13.73,13.73,0,0,1-5.83,7.13,13.26,13.26,0,0,1-8.58,2,14.78,14.78,0,0,1-4.9-1.32,13.94,13.94,0,0,1-4.52-3.43,1.9,1.9,0,0,1-.32-1.36v-8h0c0-2.59,0-5.18,0-7.77a2.49,2.49,0,0,1,.7-1.84,13.44,13.44,0,0,1,10.26-4.46,15.17,15.17,0,0,1,6.69,1.62,12,12,0,0,1,3,2.25,13.63,13.63,0,0,1,3.84,6.39A14.35,14.35,0,0,1,57.72,173.48Z"/><path class="cls-1" d="M150.41,152.46c-4.19,0-8.38,0-12.55,0-.61-.29-.57-.82-.57-1.33,0-2.18,0-4.37,0-6.55a1.59,1.59,0,0,0-.25-1.2c-.72-.22-1.53.11-2.22-.25a1.59,1.59,0,0,0-.63,1.49c0,2.15,0,4.3,0,6.44,0,.41.07.83-.31,1.17-.82.48-1.89-.23-2.75.51.11.9-.36,1.84.12,2.71.93.22,1.84,0,2.66.2a2.89,2.89,0,0,1,.3,1.93c0,5.46,0,10.92,0,16.37a11.39,11.39,0,0,0,14.83,11.09,3.57,3.57,0,0,0,2.32-1.33,7.5,7.5,0,0,0-1.15-2,2.18,2.18,0,0,0-1.6.23,2.91,2.91,0,0,1-.66.28c-2.13.32-4.21.44-6.23-.72a8,8,0,0,1-4.41-7.2c-.06-5.87,0-11.74,0-17.6a1.26,1.26,0,0,1,.49-1.17,21.3,21.3,0,0,0,2.67.05h9.92c.53,0,1.1.09,1.49-.39v-2.22C151.49,152.32,151,152.46,150.41,152.46Z"/><path class="cls-1" d="M224.63,153.59a6,6,0,0,1-.36,1.88.69.69,0,0,1-.71-.26c-.48-.44-.93-.91-1.44-1.3a13.15,13.15,0,0,0-9.23-2.61,15.36,15.36,0,0,0-5,.94,18.06,18.06,0,0,0-6,3.62c-.66.65-1.21,1.38-1.83,2a11.26,11.26,0,0,0-1.81,2.71,17.44,17.44,0,0,0-1.82,8.39,18,18,0,0,0,2.2,8.19,16.92,16.92,0,0,0,6.25,6.32,18,18,0,0,0,7.32,2.37,14.25,14.25,0,0,0,6.16-.71,10.92,10.92,0,0,0,4.58-2.8c.3-.32.64-.74,1.19-.52.28.32.16.66.09,1A14,14,0,0,1,220.4,190a13,13,0,0,1-3.76,2.57,12,12,0,0,1-4.92,1.24h-4a1.51,1.51,0,0,0-1.55.73,14.86,14.86,0,0,0,.06,2.1,1.7,1.7,0,0,0,1.39.37l5.22,0a12,12,0,0,0,2.53-.34,16.47,16.47,0,0,0,7.46-4.25,16.72,16.72,0,0,0,4.91-9.66,26.73,26.73,0,0,0,.2-4.9q0-11.66,0-23.32a1.41,1.41,0,0,0-.24-1A5.66,5.66,0,0,0,224.63,153.59Zm-23.52,8.68a13.8,13.8,0,0,1,6.57-6.47,14.39,14.39,0,0,1,8.47-1.14,13.46,13.46,0,0,1,6.28,2.78,18,18,0,0,1,1.58,1.44,2.51,2.51,0,0,1,.76,1.93c0,2.56,0,5.11,0,8.53.05,1.73-.11,4.32.07,6.91a2.49,2.49,0,0,1-.74,1.95,14.62,14.62,0,0,1-4.83,3.37,13.63,13.63,0,0,1-10.65.17,13.37,13.37,0,0,1-8.42-9.33A14,14,0,0,1,201.11,162.27Z"/><path class="cls-1" d="M269.49,162.39a5.78,5.78,0,0,0-1-2.63,17.29,17.29,0,0,0-6.26-6.28,15.05,15.05,0,0,0-5.77-2,18.9,18.9,0,0,0-7.88.47,17.46,17.46,0,0,0-12.34,16.51,16.18,16.18,0,0,0,.54,4,12.73,12.73,0,0,0,1.07,3.28c.46.87.94,1.73,1.49,2.56a16.3,16.3,0,0,0,4.93,4.82,18.14,18.14,0,0,0,9.91,2.71c.89,0,1.75-.28,2.63-.37a16.73,16.73,0,0,0,4.81-1.61.9.9,0,0,0,.44-1.37,7.92,7.92,0,0,1-.7-1.24.94.94,0,0,0-.77-.53,4,4,0,0,0-.53.17,15.47,15.47,0,0,1-5.78,1.51,12.77,12.77,0,0,1-4.45-.47,15,15,0,0,1-5.59-3.07,14,14,0,0,1-3.37-4.55,14.61,14.61,0,0,1-1.18-4.42c-.1-.68.14-1,.79-1.24a13.8,13.8,0,0,1,2.21-.38c1.54-.32,3.07-.63,4.62-.83,2.61-.33,5.15-1,7.75-1.33,2.05-.3,4.09-.75,6.14-1.09,1-.16,2-.43,3-.55,1.66-.21,3.27-.66,4.89-.78A1.48,1.48,0,0,0,269.49,162.39Zm-29.36,1.88a14.13,14.13,0,0,1,18.14-9,13.76,13.76,0,0,1,6.41,4.56c.31.38.32.43.4,1.13-.14.22-.27.35-.44.37-8.16,1.21-16.24,2.9-24.32,4.19A1,1,0,0,1,240.13,164.27Z"/><path class="cls-1" d="M96.43,156.14a16.22,16.22,0,0,0-8-4.42,17.63,17.63,0,0,0-9.28.32,17,17,0,0,0-9.94,8A17.81,17.81,0,0,0,67,167.72a16.36,16.36,0,0,0,.37,4.67,14.26,14.26,0,0,0,1.32,3.85,19.6,19.6,0,0,0,4.1,5.29,16.37,16.37,0,0,0,7.07,3.74,15.86,15.86,0,0,0,8.07.2,16.22,16.22,0,0,0,7.55-3.8,3.29,3.29,0,0,1,1.15-.79c.23-.32.37-.56.55-.76a16.42,16.42,0,0,0,3.77-7,18.71,18.71,0,0,0,.31-7.91A16.07,16.07,0,0,0,96.43,156.14ZM72.36,175.62a13.57,13.57,0,0,1-1.84-7,13,13,0,0,1,1.41-6.31,13.51,13.51,0,0,1,4.81-5.42,13.81,13.81,0,0,1,13.06-1.07A14,14,0,0,1,94.38,159a13,13,0,0,1,2.93,4.94,20.53,20.53,0,0,1,.76,3.28,13.34,13.34,0,0,1-.18,3.46,11.93,11.93,0,0,1-2.2,5.87,13.94,13.94,0,0,1-6.41,5,16.11,16.11,0,0,1-6.82.74A12.78,12.78,0,0,1,76.33,180,12.47,12.47,0,0,1,72.36,175.62Z"/><path class="cls-1" d="M187.55,152.28c-.79,0-1.66-.1-2.53,0-.77,1.07,0,2.37-.54,3.43a.81.81,0,0,1-.28,0c-.3-.12-.45-.41-.66-.62a11.47,11.47,0,0,0-5.45-3.24,18.74,18.74,0,0,0-6.38-.45,17.44,17.44,0,0,0-9.55,4.46,15.3,15.3,0,0,0-2.77,3.25,17.93,17.93,0,0,0-2.75,9.18,16.37,16.37,0,0,0,2.65,9.48,16.76,16.76,0,0,0,5.43,5.46,18.33,18.33,0,0,0,6.66,2.44,13.79,13.79,0,0,0,10.34-2.12,9.65,9.65,0,0,0,1.82-1.62c.26-.28.46-.71,1.07-.57.2,1.08-.1,2.21.17,3.28a3,3,0,0,0,3.17.05,2.78,2.78,0,0,0,.1-1.11c0-2.86,0-5.73,0-8.59q0-10.78,0-21.58A1.13,1.13,0,0,0,187.55,152.28Zm-1.25.6a2,2,0,0,0-.64.15A2,2,0,0,1,186.3,152.88Zm-2.52,25.77a13.74,13.74,0,0,1-5.84,3.42,14.64,14.64,0,0,1-6.87.26,13.35,13.35,0,0,1-6.59-3.29,14.45,14.45,0,0,1-3.9-6,15.05,15.05,0,0,1-.36-7.87,13,13,0,0,1,2.71-5.44,13.87,13.87,0,0,1,4-3.45,12.67,12.67,0,0,1,4.89-1.65,14.13,14.13,0,0,1,6.95.68,14.46,14.46,0,0,1,5.56,3.72,2.31,2.31,0,0,1,.53,1.7v7.87h0c0,2.66,0,5.32,0,8A2.69,2.69,0,0,1,183.78,178.65Z"/><path class="cls-1" d="M127.49,151.73c-.24-.34-.47-.52-.76-.46a20.32,20.32,0,0,0-2.81.46,30.2,30.2,0,0,0-4,1.68,15.82,15.82,0,0,0-5.59,4.81c-.17.23-.32.45-.67.34-.37-.26-.27-.66-.27-1,0-1.39,0-2.79,0-4.19,0-.83-.31-1.1-1.15-1.06a6.27,6.27,0,0,0-1.83.09,2.25,2.25,0,0,0-.51,1.82,9.89,9.89,0,0,1,.08,1.63v28.55a2.52,2.52,0,0,0,3.3.22,2.41,2.41,0,0,0,.14-1.19V174.2c0-1.94,0-3.88,0-5.83a12.8,12.8,0,0,1,1.51-6.19,13.14,13.14,0,0,1,6.59-6.26,15.52,15.52,0,0,1,4.9-1.25,1.45,1.45,0,0,0,1.2-.43C127.87,153.39,127.42,152.56,127.49,151.73Z"/><path class="cls-2" d="M266,131.33s-30.18-24-77.32-28-91.87,26.94-91.87,26.94,51.46-27.48,84.06-21.55a147.61,147.61,0,0,1,56.3,23.7Z"/><path class="cls-3" d="M31.59,131.33s30.18-24,77.32-28,91.87,26.94,91.87,26.94-51.46-27.48-84-21.55a147.61,147.61,0,0,0-56.31,23.7Z"/></svg>