<svg id="Layer_1" data-name="Layer 1" xmlns="http://www.w3.org/2000/svg" viewBox="0 0 300 300"><defs><style>.cls-1{fill:#50b580;}.cls-2{fill:#5dc0c9;}</style></defs><path id="Layer" class="cls-1" d="M233.19,53.81H234c-28.66,30.09-56.93,60.55-85.47,90.74-14.68-15.94-29.82-31.46-44.3-47.57,14.88,10,29.4,20.45,44.22,30.5Q190.78,90.63,233.19,53.81Z"/><path id="Layer-2" data-name="Layer" class="cls-1" d="M72.56,239q39.42-42.12,78.9-84.18c14.79,15.9,30,31.43,44.44,47.61q-22.14-15.22-44.22-30.57c-28.5,24.74-56.85,49.66-85.44,74.3C68,243.5,70.42,241.38,72.56,239Z"/><path id="Layer-3" data-name="Layer" class="cls-2" d="M56.54,62.06C63,67.66,68.77,74,74.68,80.12c23.5,23.42,46.59,47.27,70.07,70.73-16.66,14-33.18,28.25-50.13,41.92,10.91-14.21,22-28.31,32.94-42.49C103.91,120.85,80.14,91.52,56.54,62.06Z"/><path id="Layer-4" data-name="Layer" class="cls-2" d="M155.34,148.44c16.66-13.9,33.12-28,49.89-41.81-10.63,14.37-22,28.23-32.7,42.52q35.46,44,70.93,88c-4.82-3.88-8.93-8.53-13.19-13Q192.64,186.45,155.34,148.44Z"/></svg>