<svg id="Layer_1" data-name="Layer 1" xmlns="http://www.w3.org/2000/svg" viewBox="0 0 300 300"><title>PRLD_Mark_Light</title><path d="M84.20456,91.06425a1.34258,1.34258,0,0,0,.58585.43135C84.59729,91.354,84.39772,91.2059,84.20456,91.06425Zm0,0a1.34258,1.34258,0,0,0,.58585.43135C84.59729,91.354,84.39772,91.2059,84.20456,91.06425Zm0,0a1.34258,1.34258,0,0,0,.58585.43135C84.59729,91.354,84.39772,91.2059,84.20456,91.06425Zm0,0a1.34258,1.34258,0,0,0,.58585.43135C84.59729,91.354,84.39772,91.2059,84.20456,91.06425Zm0,0a1.34258,1.34258,0,0,0,.58585.43135C84.59729,91.354,84.39772,91.2059,84.20456,91.06425Zm0,0a1.34258,1.34258,0,0,0,.58585.43135C84.59729,91.354,84.39772,91.2059,84.20456,91.06425Zm0,0a1.34258,1.34258,0,0,0,.58585.43135C84.59729,91.354,84.39772,91.2059,84.20456,91.06425Zm0,0a1.34258,1.34258,0,0,0,.58585.43135C84.59729,91.354,84.39772,91.2059,84.20456,91.06425Zm0,0a1.34258,1.34258,0,0,0,.58585.43135C84.59729,91.354,84.39772,91.2059,84.20456,91.06425Zm0,0a1.34258,1.34258,0,0,0,.58585.43135C84.59729,91.354,84.39772,91.2059,84.20456,91.06425Zm0,0a1.34258,1.34258,0,0,0,.58585.43135C84.59729,91.354,84.39772,91.2059,84.20456,91.06425Zm0,0a1.34258,1.34258,0,0,0,.58585.43135C84.59729,91.354,84.39772,91.2059,84.20456,91.06425Zm0,0a1.34258,1.34258,0,0,0,.58585.43135C84.59729,91.354,84.39772,91.2059,84.20456,91.06425Zm0,0a1.34258,1.34258,0,0,0,.58585.43135C84.59729,91.354,84.39772,91.2059,84.20456,91.06425Zm139.151,36.96532a1.37414,1.37414,0,0,0,.43132-.14809C223.64525,127.933,223.49719,127.97806,223.35554,128.02957ZM84.20456,91.06425a1.34258,1.34258,0,0,0,.58585.43135C84.59729,91.354,84.39772,91.2059,84.20456,91.06425Zm139.151,36.96532a1.37414,1.37414,0,0,0,.43132-.14809C223.64525,127.933,223.49719,127.97806,223.35554,128.02957ZM84.20456,91.06425a1.34258,1.34258,0,0,0,.58585.43135C84.59729,91.354,84.39772,91.2059,84.20456,91.06425Zm139.151,36.96532a1.37414,1.37414,0,0,0,.43132-.14809C223.64525,127.933,223.49719,127.97806,223.35554,128.02957ZM84.20456,91.06425a1.34258,1.34258,0,0,0,.58585.43135C84.59729,91.354,84.39772,91.2059,84.20456,91.06425Zm139.151,36.96532a1.37414,1.37414,0,0,0,.43132-.14809C223.64525,127.933,223.49719,127.97806,223.35554,128.02957ZM84.20456,91.06425a1.34258,1.34258,0,0,0,.58585.43135C84.59729,91.354,84.39772,91.2059,84.20456,91.06425Zm139.151,36.96532a1.37414,1.37414,0,0,0,.43132-.14809C223.64525,127.933,223.49719,127.97806,223.35554,128.02957ZM84.20456,91.06425a1.34258,1.34258,0,0,0,.58585.43135C84.59729,91.354,84.39772,91.2059,84.20456,91.06425Zm139.151,36.96532a1.37414,1.37414,0,0,0,.43132-.14809C223.64525,127.933,223.49719,127.97806,223.35554,128.02957ZM84.20456,91.06425a1.34258,1.34258,0,0,0,.58585.43135C84.59729,91.354,84.39772,91.2059,84.20456,91.06425Zm139.151,36.96532a1.37414,1.37414,0,0,0,.43132-.14809C223.64525,127.933,223.49719,127.97806,223.35554,128.02957ZM84.20456,91.06425a1.34258,1.34258,0,0,0,.58585.43135C84.59729,91.354,84.39772,91.2059,84.20456,91.06425Zm139.151,36.96532a1.37414,1.37414,0,0,0,.43132-.14809C223.64525,127.933,223.49719,127.97806,223.35554,128.02957ZM84.20456,91.06425a1.34258,1.34258,0,0,0,.58585.43135C84.59729,91.354,84.39772,91.2059,84.20456,91.06425Zm139.151,36.96532a1.37414,1.37414,0,0,0,.43132-.14809C223.64525,127.933,223.49719,127.97806,223.35554,128.02957ZM84.20456,91.06425a1.34258,1.34258,0,0,0,.58585.43135C84.59729,91.354,84.39772,91.2059,84.20456,91.06425Zm139.151,36.96532a1.37414,1.37414,0,0,0,.43132-.14809C223.64525,127.933,223.49719,127.97806,223.35554,128.02957ZM84.20456,91.06425a1.34258,1.34258,0,0,0,.58585.43135C84.59729,91.354,84.39772,91.2059,84.20456,91.06425Zm139.151,36.96532a1.37414,1.37414,0,0,0,.43132-.14809C223.64525,127.933,223.49719,127.97806,223.35554,128.02957ZM84.20456,91.06425a1.34258,1.34258,0,0,0,.58585.43135C84.59729,91.354,84.39772,91.2059,84.20456,91.06425Zm139.151,36.96532a1.37414,1.37414,0,0,0,.43132-.14809C223.64525,127.933,223.49719,127.97806,223.35554,128.02957ZM84.20456,91.06425a1.34258,1.34258,0,0,0,.58585.43135C84.59729,91.354,84.39772,91.2059,84.20456,91.06425Zm139.151,36.96532a1.37414,1.37414,0,0,0,.43132-.14809C223.64525,127.933,223.49719,127.97806,223.35554,128.02957ZM84.20456,91.06425a1.34258,1.34258,0,0,0,.58585.43135C84.59729,91.354,84.39772,91.2059,84.20456,91.06425Zm139.151,36.96532a1.37414,1.37414,0,0,0,.43132-.14809C223.64525,127.933,223.49719,127.97806,223.35554,128.02957ZM84.20456,91.06425a1.34258,1.34258,0,0,0,.58585.43135C84.59729,91.354,84.39772,91.2059,84.20456,91.06425Zm139.151,36.96532a1.37414,1.37414,0,0,0,.43132-.14809C223.64525,127.933,223.49719,127.97806,223.35554,128.02957ZM84.20456,91.06425a1.34258,1.34258,0,0,0,.58585.43135C84.59729,91.354,84.39772,91.2059,84.20456,91.06425Zm139.151,36.96532a1.37414,1.37414,0,0,0,.43132-.14809C223.64525,127.933,223.49719,127.97806,223.35554,128.02957ZM84.20456,91.06425a1.34258,1.34258,0,0,0,.58585.43135C84.59729,91.354,84.39772,91.2059,84.20456,91.06425Zm139.151,36.96532a1.37414,1.37414,0,0,0,.43132-.14809C223.64525,127.933,223.49719,127.97806,223.35554,128.02957ZM84.20456,91.06425a1.34258,1.34258,0,0,0,.58585.43135C84.59729,91.354,84.39772,91.2059,84.20456,91.06425Zm139.151,36.96532a1.37414,1.37414,0,0,0,.43132-.14809C223.64525,127.933,223.49719,127.97806,223.35554,128.02957ZM84.20456,91.06425a1.34258,1.34258,0,0,0,.58585.43135C84.59729,91.354,84.39772,91.2059,84.20456,91.06425Zm139.151,36.96532a1.37414,1.37414,0,0,0,.43132-.14809C223.64525,127.933,223.49719,127.97806,223.35554,128.02957ZM84.20456,91.06425a1.34258,1.34258,0,0,0,.58585.43135C84.59729,91.354,84.39772,91.2059,84.20456,91.06425Zm139.151,36.96532a1.37414,1.37414,0,0,0,.43132-.14809C223.64525,127.933,223.49719,127.97806,223.35554,128.02957ZM84.20456,91.06425a1.34258,1.34258,0,0,0,.58585.43135C84.59729,91.354,84.39772,91.2059,84.20456,91.06425Zm139.151,36.96532a1.37414,1.37414,0,0,0,.43132-.14809C223.64525,127.933,223.49719,127.97806,223.35554,128.02957ZM84.20456,91.06425a1.34258,1.34258,0,0,0,.58585.43135C84.59729,91.354,84.39772,91.2059,84.20456,91.06425Zm139.151,36.96532a1.37414,1.37414,0,0,0,.43132-.14809C223.64525,127.933,223.49719,127.97806,223.35554,128.02957ZM84.20456,91.06425a1.34258,1.34258,0,0,0,.58585.43135C84.59729,91.354,84.39772,91.2059,84.20456,91.06425Zm139.151,36.96532a1.37414,1.37414,0,0,0,.43132-.14809C223.64525,127.933,223.49719,127.97806,223.35554,128.02957ZM84.20456,91.06425a1.34258,1.34258,0,0,0,.58585.43135C84.59729,91.354,84.39772,91.2059,84.20456,91.06425Zm139.151,36.96532a1.37414,1.37414,0,0,0,.43132-.14809C223.64525,127.933,223.49719,127.97806,223.35554,128.02957ZM84.20456,91.06425a1.34258,1.34258,0,0,0,.58585.43135C84.59729,91.354,84.39772,91.2059,84.20456,91.06425Zm139.151,36.96532a1.37414,1.37414,0,0,0,.43132-.14809C223.64525,127.933,223.49719,127.97806,223.35554,128.02957Zm31.30012,6.56643a28.20539,28.20539,0,0,0-8.15656-3.68879c-8.6201-2.68451-17.517-4.06864-26.356-5.72313-3.09654-.57937-6.32183-.6824-9.61149-2.0987,1.37123-2.44632,2.51068-4.73814,3.88836-6.88187,4.854-7.57719,9.80461-15.09642,14.6844-22.66072a25.25332,25.25332,0,0,0,3.77893-8.45271c.985-4.66734-.91414-6.93342-5.69091-6.99778-3.33473-.04507-6.47633,1.01713-9.77887,1.7961-.07085-1.83473.86263-3.21885,1.1974-4.75747a20.57241,20.57241,0,0,0,.77253-5.06647c-.12232-3.65017-1.87339-5.29822-5.49782-4.99566a19.91179,19.91179,0,0,0-6.99778,2.221c-7.075,3.42487-13.41616,8.00851-19.7895,12.55352-4.08793,2.9163-7.75743,6.44415-12.61788,8.71668a18.929,18.929,0,0,1-2.74892-6.34116c-1.7961-5.95488-2.736-12.09643-3.8948-18.1994-1.11371-5.884-2.03434-11.84532-4.45488-17.3818-2.53646-5.79394-6.50855-6.28321-10.442-1.37116-1.30042,1.61579-2.3884,3.40549-3.70168,5.31111-.98494-1.44849-1.75748-2.72322-2.66521-3.8884a27.37968,27.37968,0,0,0-3.1609-3.62451c-3.23818-2.92266-6.53429-2.42058-8.85829,1.2811a25.44333,25.44333,0,0,0-2.76176,7.16524c-2.20172,8.29173-2.05363,16.76377-2.05363,25.23577,0,3.81755-.19312,7.66088-1.912,11.29816a35.48808,35.48808,0,0,1-8.72952-4.49995c-7.72525-5.01495-15.341-10.20374-23.54909-14.42687-3.63088-1.867-7.27464-3.71457-11.35612-4.3326-4.25532-.64377-6.46348,1.40345-6.5858,5.67161-.09654,3.24463,1.30043,6.16089,1.97638,9.34112-1.81544-.10943-3.39909-.29611-4.98278-.29611-6.92053.01285-9.54068,3.64372-7.3454,10.24881a36.48862,36.48862,0,0,0,2.1695,4.99567,93.12168,93.12168,0,0,0,7.15873,11.05352c3.54073,5.04718,7.40336,9.88831,10.59,15.37324-.92059.32833-1.60943.64377-2.324.8176-6.23814,1.5064-12.50846,2.88408-18.72082,4.49995-6.7403,1.7446-13.51273,3.55363-19.24231,7.76387-4.72529,3.47634-4.78321,7.71236-.26392,11.42693,1.63516,1.34545,3.47633,2.44632,5.27888,3.70168-1.84762,1.339-3.71453,2.59437-5.4656,3.99782-2.00856,1.60943-4.2875,3.33473-3.83685,6.24455.48283,3.13516,3.42482,3.83044,5.942,4.73818a25.2028,25.2028,0,0,0,3.10942.76608,118.002,118.002,0,0,0,16.26161,1.94416c6.08364.43776,12.09647,1.24892,17.80027,4.6416-3.96561,7.19735-7.90552,14.16295-11.66512,21.22509C70.724,199.1662,67.02877,205.26269,65.503,212.254c-1.236,5.67806,1.26825,7.87974,6.91409,6.57291,3.33477-.77254,6.30254-2.49784,9.82394-3.67595-.36051,1.71246-.71457,3.14161-.95921,4.59009-.62444,3.70168-1.17811,7.38407-.40558,11.16944,1.1266,5.51712,4.47422,8.3368,10.04285,8.36257a17.48918,17.48918,0,0,0,8.5428-2.45276c6.0772-3.32832,10.62221-8.221,14.34323-13.98916,2.58152-3.99779,5.20808-7.97629,8.99989-11.266,2.80683,4.61586,3.03862,9.58575,3.86263,14.40118,1.53217,8.9999,3.3605,17.94188,8.38834,25.77655,5.98062,9.32178,12.40543,8.22737,17.929,3.64372,4.52573,2.35623,7.17806,1.66094,9.95271-2.7038a24.78577,24.78577,0,0,0,1.88624-3.70812c2.99351-7.19735,4.08148-14.8325,4.98278-22.49979.63732-5.48493,1.06223-11.0149,3-16.4097a22.89938,22.89938,0,0,1,5.89051,2.99351,108.6182,108.6182,0,0,1,12.708,9.83039c4.854,4.24246,9.80461,8.3819,15.80455,10.91191,7.35189,3.103,11.58787-.14165,10.77031-8.06-.34122-3.27676-1.42275-6.38619-2.36267-9.84323,4.14588.74676,7.91841,2.09225,11.89046,1.96349,5.0214-.17383,6.99134-2.81972,5.69735-7.648a33.3216,33.3216,0,0,0-3.92054-8.42053c-3.86906-6.43771-8.38834-12.42476-12.79171-18.502a35.48988,35.48988,0,0,1-5.57507-9.85612c7.00422-1.30683,13.75737-2.41414,20.44615-3.84974,7.1201-1.53217,14.23375-3.28965,20.43327-7.36473,4.15877-2.72958,4.34545-6.27032.573-9.46343-1.77681-1.50644-3.824-2.68451-5.82611-4.06864,3.08364-1.68667,6.2832-3.01284,8.75526-5.4656C258.37667,140.17107,258.17066,137.09383,254.65566,134.596Zm-7.79605-1.51929c2.99995,1.07509,6.18662,1.83477,8.16945,4.68667q-10.81536,2.70382-21.63071,5.427-4.32612-1.48714-8.63939-2.98066c.95921-.96566,2.28538-1.06868,3.48922-1.442Q237.54746,135.89963,246.85961,133.07671Zm-2.49139-.70169q-10.84436,3.43773-21.69507,6.869l-.17383.05792a24.3413,24.3413,0,0,1-6.71452-2.8519c1.21673-.41843,2.40129-.882,3.62443-1.25532,5.41413-1.64164,10.83467-3.25751,16.24876-4.88623A30.98661,30.98661,0,0,1,244.36822,132.375Zm-20.58136-4.49354a47.75179,47.75179,0,0,1,9.206,1.81544c-.58586.23174-1.15882.48927-1.75108.68884-5.52356,1.85406-11.29816,2.87123-16.71229,5.09865a6.4893,6.4893,0,0,1-3.63728-3.17379q6.2381-2.134,12.46338-4.281A1.37414,1.37414,0,0,0,223.78686,127.88148Zm-2.90982-.57937c-3.38623,1.80255-7.20379,2.36263-10.73808,3.75315-1.16526-1.78321-.84978-3.63083-.18672-5.736C213.60241,125.98235,217.23328,126.64545,220.877,127.30211Zm-11.99344-5.015c-3.49567-1.49355-4.47421-3.412-4.236-8.15656l12.18657-5.54285C214.31058,113.2357,210.963,117.39447,208.8836,122.28711Zm9.32178-15.7273q-6.73059,2.926-13.44193,5.85189a24.30962,24.30962,0,0,1,1.84118-7.01067q8.00532-3.19632,16.01056-6.39264a.75688.75688,0,0,0,.39273.40558A43.7619,43.7619,0,0,1,218.20538,106.55981Zm6.37975-9.71448q-8.69091,3.47634-17.3818,6.95916a30.89834,30.89834,0,0,1,3.11586-7.545q9.88831-4.5096,19.7895-9.01923A37.55868,37.55868,0,0,1,224.58513,96.84533Zm6.22529-11.55568q-9.17373,4.22957-18.3539,8.46555c-.34763-.05147-.69529-.10943-1.04935-.16094q1.30361-2.90657,2.60082-5.80034A102.866,102.866,0,0,0,225.96925,80.191C230.81042,79.83049,231.80825,80.8798,230.81042,85.28965Zm-9.50206-4.34545c.00644.09654.01289.18668.01289.27681l-6.41841,4.545a7.96689,7.96689,0,0,1,1.39056-3.47638C217.84487,81.87123,219.57661,81.40769,221.30836,80.9442Zm-4.957-13.52563c1.75107,1.26821,1.22962,3.103.95921,4.69952a34.52,34.52,0,0,1-2.81972,8.79393c-2.41414.93343-4.78321,1.85406-7.16516,2.7682C209.73978,77.93136,213.51231,72.93569,216.35132,67.41857Zm-2.16306-.50216c.927,1.191-.23175,1.90558-.6824,2.72318-2.77464,4.96989-5.60081,9.914-8.40764,14.87108q-3.39912,1.52575-6.80465,3.05147c-.03218-1.36479.824-2.39481,1.37767-3.515,2.33689-4.77036,4.73815-9.5085,7.11366-14.25953C208.93507,68.00439,211.52948,67.37995,214.18826,66.91641Zm-9.20591,3.6695q-4.413,8.92266-8.839,17.84534-3.09972,1.4002-6.20592,2.80038c-.27686-.27037-.55367-.53434-.83693-.79826q3.44739-7.11688,6.8819-14.22731A41.36556,41.36556,0,0,1,204.98235,70.58591Zm-12.01922,7.60937.11591.71458q-3.31224,6.97206-6.618,13.93764a8.72293,8.72293,0,0,1-5.25315,1.12016q2.3272-5.28211,4.6609-10.56426A43.88914,43.88914,0,0,1,192.96313,78.19528Zm-9.61149,7.08792q-1.7671,4.15232-3.52785,8.31106c-1.96349-.251-3.148-1.51929-4.28109-3.11583C178.253,88.67589,180.80234,86.98277,183.35164,85.2832Zm-11.208,3.73386c-2.62015.721-4.33257-.38624-5.65233-2.43343q1.323-2.8873,2.63949-5.77464C170.12217,83.50639,171.10716,86.20379,172.14362,89.01706Zm-3.5987-10.33895v.00645q-1.545,3.30252-3.08364,6.61153a12.21232,12.21232,0,0,1-2.27253-4.43559q1.8251-5.65872,3.65665-11.31105Q167.69512,74.10738,168.54492,78.67811Zm-2.31111-12.74664v.00644c-1.30687,4.35189-2.279,8.80033-4.01712,13.017-.77253-1.86047-1.54507-3.70813-2.3176-5.56215q2.31761-7.82184,4.63516-15.65009Q165.384,61.83712,166.23381,65.93147Zm-2.324-10.90548q-2.47208,8.02459-4.95056,16.05564c-.76609-1.7897-1.53862-3.58581-2.30471-5.38191,1.68023-6.41841,2.36907-13.0492,4.397-19.3904A27.9674,27.9674,0,0,1,163.90977,55.026Zm-8.2531-9.74669c1.15233-1.10082,2.45916-2.24675,4.0493-.5343-1.42919,6.12226-2.26609,12.37325-4.10726,18.39893-1.67379-3.30255-3.34762-6.59865-5.11154-10.075A23.94388,23.94388,0,0,1,155.65667,45.2793ZM148.18891,52.805c-1.33906,3.03213-2.64589,6.01279-3.95917,8.987-2.24035-6.05146-3.37979-12.35392-4.51284-18.66934C144.15249,44.8995,145.68463,49.15481,148.18891,52.805Zm-10.01063-9.30253q2.45275,10.67053,4.90553,21.341v.00645q-1.31328,3.44739-2.62015,6.8819h-.00644V71.7254q-2.96457-11.21125-5.92266-22.40965C135.2298,47.05611,135.835,44.73856,138.17828,43.50249Zm-6.25743,19.72513a42.4095,42.4095,0,0,1,1.90554-11.266q2.93563,10.92156,5.86474,21.84313a31.8655,31.8655,0,0,1-2.81328,8.118q-2.48173-9.34759-4.957-18.68867Zm-.10947,6.515a2.54042,2.54042,0,0,1,.57941.14165q1.71883,7.0686,3.43772,14.14361c-1.088,2.427-2.65878,4.22313-5.86474,4.40985C131.90152,82.19311,131.57319,75.94209,131.81138,69.74258ZM126.6033,90.02779c-1.73818,2.0987-3.94631,2.56864-6.44414,2.27893q-1.632-3.83362-3.25748-7.67373C120.05613,86.39047,123.21062,88.14154,126.6033,90.02779ZM105.81593,77.60947l.25753-.0644q4.21025,2.70389,8.41408,5.40769,1.97958,4.6448,3.94632,9.2896a15.76075,15.76075,0,0,1-5.3948-1.2618Q109.302,84.29823,105.552,77.603Zm-11.3046-6.51495v-.02578a33.44124,33.44124,0,0,1,8.32394,4.55146c.03863.39269.18672.676.63092.66955,1.84762,5.06647,5.35618,9.2252,7.60293,14.07281a44.34841,44.34841,0,0,1-9.51494-3.75319c-.45065-1.06864-.87552-2.15021-1.35835-3.19952-1.867-4.12015-4.35834-7.957-5.71024-12.31533Zm-2.427-1.35839q3.795,8.07292,7.58359,16.14577a28.70792,28.70792,0,0,1-6.54713-2.46565Q89.0071,75.18891,84.887,66.96148A18.534,18.534,0,0,1,92.08434,69.73613ZM79.44712,71.043c-.28326-3.08364.721-4.13943,3.87547-4.31327q3.95923,8.02461,7.91841,16.05564c-2.96137-.77253-5.9227-1.54506-8.92269-2.324A26.45568,26.45568,0,0,1,79.44712,71.043Zm1.30039,11.11149q1.85411,3.67914,3.69528,7.3454a91.31674,91.31674,0,0,1-12.89474-7.7188C74.62529,80.99571,77.63813,81.47209,80.74751,82.15449ZM68.85709,88.27675c-.48927-2.05363-1.21673-4.15233,1.133-5.62659q7.09755,4.20065,14.19513,8.40764l.0193.00645a1.34258,1.34258,0,0,0,.58585.43135c.2897.10943.57937.21886.86263.32829q2.47207,3.515,4.93775,7.02356c.15449.206.309.41843.46349.62444.07081.19957.14165.39273.21246.58585v.03863c-1.46137-.03218-2.51717-1.02362-3.70168-1.66094C81.314,95.075,75.08878,91.663,68.85709,88.27675Zm.65666,1.97634c1.04931.50216,2.12443.95925,3.14156,1.50644q10.22632,5.52358,20.42042,11.07286A19.575,19.575,0,0,1,96.7066,111.549c-1.53217.0708-2.5236-1.0558-3.70167-1.7253-6.32828-3.57936-12.19946-7.92481-18.77237-11.09215A29.63716,29.63716,0,0,1,69.51375,90.25309Zm6.92053,11.76814q-.38628-.57936-.77253-1.15878c.103.06437.19957.13517.30255.206.00645,0,.00645,0,.01289.00644.309.206.61159.40554.92059.61155a.482.482,0,0,0-.12876.0644,1.00149,1.00149,0,0,0,.42491.13517q9.62756,5.82292,19.25515,11.65227a4.19207,4.19207,0,0,1-1.8605,3.47633q-6.51819-4.11365-13.03636-8.22736C79.38272,106.88169,77.97286,104.40319,76.43428,102.02123ZM84.2754,112.946c.16739-.1545.34118-.309.50856-.4635q4.26819,2.79077,8.53641,5.58792a8.84793,8.84793,0,0,1-4.25532,2.31116C87.44274,117.86441,85.85905,115.40521,84.2754,112.946Zm3.78537,10.21023c1.45489,2.43987,1.78322,4.61582-.55367,6.57931q-4.384-2.07612-8.76171-4.15233C81.81619,124.7785,84.887,123.98023,88.06077,123.15623Zm-12.27026,3h.00641a78.73513,78.73513,0,0,1,10.6351,4.65445c-1.236.79831-2.47206,1.59013-3.70813,2.3884H82.711c.00641,0,.00641-.00644.01285-.00644-4.648-1.86692-9.54068-3.08365-14.04707-5.31111Q72.23043,127.02209,75.79051,126.15618Zm-9.5729,2.36263q7.32935,2.81008,14.65222,5.62658a24.19569,24.19569,0,0,1-5.4849,2.90337Q66.8485,134.01665,58.325,130.9909A31.41918,31.41918,0,0,1,66.21761,128.51881ZM56.29068,131.699q8.53643,3.15771,17.05992,6.309a19.53956,19.53956,0,0,1-5.60081,2.68452q-9.84-2.37554-19.67363-4.751A20.542,20.542,0,0,1,56.29068,131.699Zm-9.61149,11.3175c-1.96993-2.1888-2.12443-4.32612.46994-6.21236q9.50208,2.44308,18.99123,4.89264c-3.92054,2.11154-7.84112,4.22313-11.79384,6.34756A19.72411,19.72411,0,0,1,46.67919,143.01653Zm1.37768,18.93331a4.35241,4.35241,0,0,1-3.77248-2.98066c2.015-4.15877,6.19306-6.03857,9.90759-8.59436q8.0246,3.177,15.99772,6.33472c-.8176.24463-1.62231.52789-2.45276.721Q57.90657,159.69982,48.05687,161.94984Zm14.87753,2.84545A72.3223,72.3223,0,0,1,50.40661,162.864c1.1266-.32188,2.2339-.69528,3.37339-.95921q9.45375-2.21139,18.92038-4.38408a28.65559,28.65559,0,0,1,6.22529,2.49139q-7.986,2.39481-15.97194,4.78321Zm15.238,1.5901Q72.9,165.6998,67.62106,165.01415q6.78853-2.0858,13.56421-4.17162c1.64809.83045,3.37339,1.54507,4.51284,3.103h-.00645q-3.75634,1.21674-7.51279,2.43988Zm2.485.882c1.79611-1.24892,3.92054-1.37124,5.98062-1.74459a5.97556,5.97556,0,0,1-.33478,3.972C84.417,168.74805,82.53721,168.01414,80.65741,167.26735Zm6.53425,5.59436a9.06616,9.06616,0,0,1,4.13944,4.66094c-2.897,1.3519-5.58148,3.15445-8.69735,4.03C84.1209,178.72,85.608,175.881,87.19166,172.86171Zm-5.62655,10.81538q5.18558-2.38519,10.37113-4.76392a7.12036,7.12036,0,0,1,1.00428,4.21669q-7.6383,3.81435-15.2831,7.6287A32.74746,32.74746,0,0,1,81.56511,183.67709Zm-5.09865,9.16728q8.266-3.98816,16.52558-7.97632a8.20908,8.20908,0,0,1-.5279,3.972q-9.26061,5.22423-18.52129,10.45483c-.28966-.03219-.58581-.06437-.87551-.09655A27.68612,27.68612,0,0,1,76.46646,192.84437Zm-4.63515,9.20591Q81.87414,196.40122,91.917,190.765a19.70769,19.70769,0,0,1-3.26392,7.78964q-10.24558,5.77461-20.48478,11.56209A23.79258,23.79258,0,0,1,71.83131,202.05028Zm-3.44416,15.193c-2.02789-1.62872-1.294-3.412-.83049-5.163q10.11045-5.74568,20.2337-11.48489c-1.51929,3.7532-3.03858,7.51279-4.706,11.65223C78.55227,214.44931,73.95574,217.44926,68.38715,217.24325Zm16.532-3.74675c2.27893-1.24247,4.68663-2.56219,7.09432-3.87547a142.95346,142.95346,0,0,1-9.05141,14.13077c-.06436-.46354-.13516-.927-.206-1.397A38.065,38.065,0,0,1,84.91917,213.4965Zm-2.4721,13.73808c1.46782-2.20813,3.045-4.35834,4.38408-6.64372,2.29826-3.92054,5.36906-7.37762,7.01711-11.68441.45705.03218.59226-.27685.66951-.64377a26.25094,26.25094,0,0,1,7.6287-3.29614c.2446.04507.48924.09014.72743.13521-5.68447,10.08787-11.89042,19.8603-18.08994,29.63277C82.74322,232.62293,82.45352,229.97705,82.44707,227.23458Zm10.236,9.90763a6.963,6.963,0,0,1-6.77248-1.24891c.5987-1.01717,1.17811-2.03434,1.78326-3.03862q8.64262-14.25309,17.29166-28.49969h-.01289c.00645,0,.00645-.00644.01289-.00644,2.0343-1.03006,4.17807-.74035,6.32183-.573-.46994.95921-.89485,1.93776-1.4163,2.86479q-8.59435,15.24768-17.20153,30.4954Zm1.88624-.54078q9.23167-16.32921,18.45689-32.65846a7.52094,7.52094,0,0,1,4.06863,1.69312c-2.71028,7.01067-6.26387,13.67367-8.54284,20.85814C104.79236,231.11009,100.58852,235.10788,94.56928,236.60143ZM113.21285,219.857c-.19313-.01284-.3798-.01929-.57293-.01929q2.839-6.721,5.67806-13.44193a8.79264,8.79264,0,0,1,3.3862,3.39268C118.29221,212.77548,116.00039,216.52223,113.21285,219.857Zm11.18873-9.56c1.93776-1.25536,3.68239-2.70384,6.11582-1.40986-1.088,3.26392-1.53218,6.73385-3.02569,9.87546A39.79344,39.79344,0,0,0,124.40158,210.297Zm3.6695,11.51706q1.883-6.15122,3.75964-12.296a10.02463,10.02463,0,0,1,4.40336,5.20812c-2.53645,5.33685-3.84329,11.17585-6.58575,16.43544A47.5259,47.5259,0,0,1,128.07108,221.814Zm2.24035,12.0707q3.44733-8.81644,6.88831-17.63288a28.73347,28.73347,0,0,1,2.52361,6.32827q-3.68882,9.13506-7.37118,18.28306A21.51122,21.51122,0,0,1,130.31143,233.88474Zm2.71025,8.99345q3.7564-9.12546,7.51923-18.25088a84.84152,84.84152,0,0,1,3.46993,12.54708q-3.59222,6.7596-7.17805,13.52563A20.85223,20.85223,0,0,1,133.02168,242.87819Zm4.57719,8.83255q3.515-6.3347,7.02356-12.663c1.89269,4.97637,3.39909,10.133,6.7467,14.38829C147.16533,258.56043,141.40358,257.80078,137.59887,251.71074Zm22.19723,1.83473c-1.71245,1.66094-3.46993,1.81544-5.4592.14165a37.50183,37.50183,0,0,0,4.78966-9.99777q1.65129,2.9549,3.30254,5.91625A11.246,11.246,0,0,1,159.7961,253.54547Zm3.46349-5.90981q-1.81544-2.926-3.63087-5.84544.589-4.84755,1.18451-9.70163,2.43348,3.91095,4.87335,7.82827A36.07813,36.07813,0,0,1,163.25959,247.63566Zm2.90337-10.075q-2.67481-4.0557-5.34328-8.11149c-.251-4.31327-.37336-8.6201.74035-12.85612q3.06111,5.54292,6.13511,11.07931Q166.92262,232.61649,166.163,237.56064Zm1.706-12.57926q-2.868-5.147-5.74886-10.30033c1.56435-5.02784,3.39908-6.24458,8.72308-5.40124C169.3239,214.43,168.80245,219.74108,167.869,224.98138Zm3.74675-17.87752c-7.7832-.4442-10.67372,1.912-12.14794,9.74025-1.01073,5.324-.66311,10.68662-.71458,16.03635-.07084,7.25526-2.37551,14.78094-6.03857,19.12639-3.90125-5.43983-5.65232-11.68441-7.35829-17.929a115.28472,115.28472,0,0,0-5.02785-15.55352,47.743,47.743,0,0,0-2.85193-5.74886c-3.88192-6.42482-7.40977-7.51279-14.27883-4.43555-6.93338-8.59436-15.61143-7.69951-24.695-4.191-4.2038,1.62227-8.0278,4.00423-12.52134,6.56647a73.18115,73.18115,0,0,1,5.43342-12.9527,30.08936,30.08936,0,0,0,3.5987-13.19729,16.22215,16.22215,0,0,0-6.84973-13.71875c1.28754-6.39908.2897-8.56858-5.50423-11.40115-6.93342-3.38624-14.369-5.51067-21.50839-8.38835-1.36479-.54719-2.74243-1.07508-4.4227-1.73818,2.6974-2.26605,5.69739-3.40554,8.49133-4.86046,5.691-2.97422,11.45911-5.78749,17.15006-8.74882a36.96163,36.96163,0,0,0,5.1566-3.251c3.618-2.71029,4.12655-4.78325,2.68451-9.9012.54723-1.01072,1.69957-1.17166,2.59442-1.67382,5.51711-3.12227,7.10721-7.25527,4.93126-13.24236-1.59009-4.36475-4.191-8.17586-6.84328-11.94838-2.58153-3.6759-5.18234-7.3454-6.85613-11.56209q-.21247-1.1202.9077-.90774C91.73668,84.81971,98.11,87.58147,104.567,90.14366c5.163,2.05363,10.34539,4.088,16.04278,4.17166a9.2141,9.2141,0,0,0,8.23381-3.85622c5.71024.41847,8.25959-3.46989,10.04281-8.07931,3.07724-7.98273,5.45919-16.223,9.01278-24.02551.42491-.93348.54079-2.09226,1.706-2.68452,3.83688,7.08148,6.70807,14.575,9.869,21.93971a80.28776,80.28776,0,0,0,3.73386,7.80249c2.72314,4.81539,4.60938,5.80038,10.08787,5.76816,5.27893,5.43343,8.42053,6.02572,15.399,2.92275,7.80894-3.47638,15.46982-7.29393,23.54269-10.15228.676-.18668.91418.05152.721.721-2.70381,6.5214-5.472,13.01706-8.07287,19.57708a40.88026,40.88026,0,0,0-1.86051,6.80466c-1.10082,5.40765-.54074,10.30673,4.7253,13.37109-.36051,8.40119,1.2682,11.38185,9.0707,14.73591,6.77892,2.90985,13.78315,5.29177,20.68434,7.91837,1.18456.45064,2.33689.985,3.92058,1.65449-6.59864,2.736-12.84322,5.2596-19.0234,7.91837a64.87052,64.87052,0,0,0-7.73814,3.8884c-5.0858,3.03213-6.36045,5.43983-6.3669,11.36252a1.86166,1.86166,0,0,1-.40557.32833c-8.20163,3.56648-9.914,7.35829-7.19091,16.00412,1.84762,5.85834,5.00855,11.105,7.73813,16.56424,1.18452,2.37552,2.61371,4.6609,3.19952,7.30678a.43115.43115,0,0,1-.6695.09014c-6.457-2.29827-12.59215-5.33688-18.856-8.08576-1.66739-.72746-3.34117-1.44848-5.05362-2.04718C179.16713,199.3207,176.32168,200.267,171.61572,207.10386Zm2.23386,1.0558c1.5-4.397,3.84333-5.90337,8.221-5.3304q-1.31327,4.104-2.62659,8.21448C177.577,210.07808,175.70365,209.11887,173.84958,208.15966Zm6.86262,3.74675q1.35188-4.37445,2.70384-8.75527a18.89517,18.89517,0,0,1,7.1201,2.53646q-1.39055,5.69733-2.78754,11.40115Q184.23361,214.49114,180.7122,211.90641Zm8.23381,6.11581q1.4292-5.86154,2.85834-11.72307a29.87023,29.87023,0,0,1,6.32827,2.75536q-.75324,7.84112-1.50644,15.68223Q192.7829,221.37629,188.946,218.02222Zm20.09209,14.18225h-.00645a28.88456,28.88456,0,0,1-10.96339-6.52781q.67591-8.00532,1.36479-15.99771,3.853,1.61268,7.71236,3.21885.94632,9.65655,1.89269,19.30026Zm7.08791-3.81111c-.1352,3.70168-1.93131,4.99566-5.67805,4.25531q-.956-9.57928-1.90558-19.15858c1.50644.48283,3.0064.95922,4.4871,1.42916C214.69038,219.387,216.30625,223.69384,216.126,228.39336Zm3.83685-13.5707c-1.77037-.37335-3.50852-.90125-5.3304-1.37763-1.39056-3.07725-2.74247-6.08364-4.09437-9.09a.829.829,0,0,0,.42487-.412c6.59865,3.64372,13.31317,7.08792,19.65433,11.18229C227.01216,216.88918,223.49075,215.563,219.96286,214.82266Zm11.55569-1.21669q-11.24985-6.15123-22.49334-12.30248a23.09086,23.09086,0,0,1-3.09009-5.8583q11.48166,4.89588,22.95683,9.79176C230.37906,207.83133,232.03356,210.38067,231.51855,213.606Zm-3.81111-10.39047q-11.30785-4.80894-22.61566-9.61793a22.46556,22.46556,0,0,1-3.05791-8.47844c1.47422.58581,2.9227,1.22958,4.41626,1.75748,4.67378,1.63516,8.942,4.33256,13.86684,5.324A60.89764,60.89764,0,0,1,227.70744,203.2155Zm-8.95487-13.03635h-.01929l.03218.03863c-1.236.058-2.221-.65666-3.3154-1.06224-4.59008-1.7253-8.93553-4.08148-13.66727-5.45271a5.99212,5.99212,0,0,1,.39269-4.92486q6.05468,2.57833,12.09647,5.16949A22.88024,22.88024,0,0,1,218.75257,190.17915Zm-6.296-9.01923c-.32189.05152-.64377.09659-.95922.14806a50.532,50.532,0,0,1-8.49133-3.824c1.37768-1.98278,3.54074-2.62011,5.75531-3.46989C210.023,176.454,211.23978,178.81019,212.45652,181.15992Zm-1.88625-9.63722a5.91611,5.91611,0,0,1,.78538-5.51067,42.44222,42.44222,0,0,1,7.7124,3.93342C216.25478,170.46691,213.44146,170.98836,210.57027,171.5227Zm10.81534-2.02789q-4.41306-2.41414-8.81322-4.84117a9.43551,9.43551,0,0,1,4.06219-2.87763q6.45057,3.06111,12.90759,6.12226A40.90712,40.90712,0,0,1,221.38561,169.49481Zm10.24237-1.96349q-6.8368-3.32187-13.66724-6.63728,3.39914-1.54507,6.80466-3.09653,8.5847,3.34113,17.18224,6.68234A43.64317,43.64317,0,0,1,231.628,167.53132Zm12.296-3.74031q-8.71025-3.34119-17.42043-6.68234,3.06111-1.265,6.10938-2.53,9.222,2.77143,18.45044,5.54285A15.36673,15.36673,0,0,1,243.924,163.791Zm7.3454-9.46988c1.39057,1.22318,2.63948,2.633,1.17811,4.648-5.89692-1.68027-11.86468-3.13516-17.62-5.29182,3.00639-1.294,6.01279-2.588,8.884-3.824A26.51168,26.51168,0,0,1,251.26942,154.32113Zm-.251-10.31321c-2.2532,1.38412-4.66093,2.51072-6.99782,3.75319-2.98062-1.31972-5.78749-2.56864-8.60076-3.81111l19.95043-4.69307C255.01617,141.83842,252.87885,142.862,251.01838,144.00792Zm-27.66284-15.97835a1.37414,1.37414,0,0,0,.43132-.14809C223.64525,127.933,223.49719,127.97806,223.35554,128.02957ZM84.20456,91.06425a1.34258,1.34258,0,0,0,.58585.43135C84.59729,91.354,84.39772,91.2059,84.20456,91.06425Zm139.151,36.96532a1.37414,1.37414,0,0,0,.43132-.14809C223.64525,127.933,223.49719,127.97806,223.35554,128.02957ZM84.20456,91.06425a1.34258,1.34258,0,0,0,.58585.43135C84.59729,91.354,84.39772,91.2059,84.20456,91.06425Zm139.151,36.96532a1.37414,1.37414,0,0,0,.43132-.14809C223.64525,127.933,223.49719,127.97806,223.35554,128.02957ZM84.20456,91.06425a1.34258,1.34258,0,0,0,.58585.43135C84.59729,91.354,84.39772,91.2059,84.20456,91.06425Zm139.151,36.96532a1.37414,1.37414,0,0,0,.43132-.14809C223.64525,127.933,223.49719,127.97806,223.35554,128.02957ZM84.20456,91.06425a1.34258,1.34258,0,0,0,.58585.43135C84.59729,91.354,84.39772,91.2059,84.20456,91.06425Zm139.151,36.96532a1.37414,1.37414,0,0,0,.43132-.14809C223.64525,127.933,223.49719,127.97806,223.35554,128.02957ZM84.20456,91.06425a1.34258,1.34258,0,0,0,.58585.43135C84.59729,91.354,84.39772,91.2059,84.20456,91.06425Zm139.151,36.96532a1.37414,1.37414,0,0,0,.43132-.14809C223.64525,127.933,223.49719,127.97806,223.35554,128.02957ZM84.20456,91.06425a1.34258,1.34258,0,0,0,.58585.43135C84.59729,91.354,84.39772,91.2059,84.20456,91.06425Zm139.151,36.96532a1.37414,1.37414,0,0,0,.43132-.14809C223.64525,127.933,223.49719,127.97806,223.35554,128.02957ZM84.20456,91.06425a1.34258,1.34258,0,0,0,.58585.43135C84.59729,91.354,84.39772,91.2059,84.20456,91.06425Zm139.151,36.96532a1.37414,1.37414,0,0,0,.43132-.14809C223.64525,127.933,223.49719,127.97806,223.35554,128.02957ZM84.20456,91.06425a1.34258,1.34258,0,0,0,.58585.43135C84.59729,91.354,84.39772,91.2059,84.20456,91.06425Zm139.151,36.96532a1.37414,1.37414,0,0,0,.43132-.14809C223.64525,127.933,223.49719,127.97806,223.35554,128.02957ZM84.20456,91.06425a1.34258,1.34258,0,0,0,.58585.43135C84.59729,91.354,84.39772,91.2059,84.20456,91.06425Zm139.151,36.96532a1.37414,1.37414,0,0,0,.43132-.14809C223.64525,127.933,223.49719,127.97806,223.35554,128.02957ZM84.20456,91.06425a1.34258,1.34258,0,0,0,.58585.43135C84.59729,91.354,84.39772,91.2059,84.20456,91.06425Zm139.151,36.96532a1.37414,1.37414,0,0,0,.43132-.14809C223.64525,127.933,223.49719,127.97806,223.35554,128.02957ZM84.20456,91.06425a1.34258,1.34258,0,0,0,.58585.43135C84.59729,91.354,84.39772,91.2059,84.20456,91.06425Zm139.151,36.96532a1.37414,1.37414,0,0,0,.43132-.14809C223.64525,127.933,223.49719,127.97806,223.35554,128.02957ZM84.20456,91.06425a1.34258,1.34258,0,0,0,.58585.43135C84.59729,91.354,84.39772,91.2059,84.20456,91.06425Zm139.151,36.96532a1.37414,1.37414,0,0,0,.43132-.14809C223.64525,127.933,223.49719,127.97806,223.35554,128.02957ZM84.20456,91.06425a1.34258,1.34258,0,0,0,.58585.43135C84.59729,91.354,84.39772,91.2059,84.20456,91.06425Zm139.151,36.96532a1.37414,1.37414,0,0,0,.43132-.14809C223.64525,127.933,223.49719,127.97806,223.35554,128.02957ZM84.20456,91.06425a1.34258,1.34258,0,0,0,.58585.43135C84.59729,91.354,84.39772,91.2059,84.20456,91.06425Zm139.151,36.96532a1.37414,1.37414,0,0,0,.43132-.14809C223.64525,127.933,223.49719,127.97806,223.35554,128.02957ZM84.20456,91.06425a1.34258,1.34258,0,0,0,.58585.43135C84.59729,91.354,84.39772,91.2059,84.20456,91.06425Zm139.151,36.96532a1.37414,1.37414,0,0,0,.43132-.14809C223.64525,127.933,223.49719,127.97806,223.35554,128.02957ZM84.20456,91.06425a1.34258,1.34258,0,0,0,.58585.43135C84.59729,91.354,84.39772,91.2059,84.20456,91.06425Zm139.151,36.96532a1.37414,1.37414,0,0,0,.43132-.14809C223.64525,127.933,223.49719,127.97806,223.35554,128.02957ZM84.20456,91.06425a1.34258,1.34258,0,0,0,.58585.43135C84.59729,91.354,84.39772,91.2059,84.20456,91.06425Zm139.151,36.96532a1.37414,1.37414,0,0,0,.43132-.14809C223.64525,127.933,223.49719,127.97806,223.35554,128.02957ZM84.20456,91.06425a1.34258,1.34258,0,0,0,.58585.43135C84.59729,91.354,84.39772,91.2059,84.20456,91.06425Zm139.151,36.96532a1.37414,1.37414,0,0,0,.43132-.14809C223.64525,127.933,223.49719,127.97806,223.35554,128.02957ZM84.20456,91.06425a1.34258,1.34258,0,0,0,.58585.43135C84.59729,91.354,84.39772,91.2059,84.20456,91.06425Zm139.151,36.96532a1.37414,1.37414,0,0,0,.43132-.14809C223.64525,127.933,223.49719,127.97806,223.35554,128.02957ZM84.20456,91.06425a1.34258,1.34258,0,0,0,.58585.43135C84.59729,91.354,84.39772,91.2059,84.20456,91.06425Zm139.151,36.96532a1.37414,1.37414,0,0,0,.43132-.14809C223.64525,127.933,223.49719,127.97806,223.35554,128.02957ZM84.20456,91.06425a1.34258,1.34258,0,0,0,.58585.43135C84.59729,91.354,84.39772,91.2059,84.20456,91.06425Zm139.151,36.96532a1.37414,1.37414,0,0,0,.43132-.14809C223.64525,127.933,223.49719,127.97806,223.35554,128.02957ZM84.20456,91.06425a1.34258,1.34258,0,0,0,.58585.43135C84.59729,91.354,84.39772,91.2059,84.20456,91.06425Zm139.151,36.96532a1.37414,1.37414,0,0,0,.43132-.14809C223.64525,127.933,223.49719,127.97806,223.35554,128.02957ZM84.20456,91.06425a1.34258,1.34258,0,0,0,.58585.43135C84.59729,91.354,84.39772,91.2059,84.20456,91.06425Zm139.151,36.96532a1.37414,1.37414,0,0,0,.43132-.14809C223.64525,127.933,223.49719,127.97806,223.35554,128.02957ZM84.20456,91.06425a1.34258,1.34258,0,0,0,.58585.43135C84.59729,91.354,84.39772,91.2059,84.20456,91.06425Zm139.151,36.96532a1.37414,1.37414,0,0,0,.43132-.14809C223.64525,127.933,223.49719,127.97806,223.35554,128.02957ZM84.20456,91.06425a1.34258,1.34258,0,0,0,.58585.43135C84.59729,91.354,84.39772,91.2059,84.20456,91.06425Zm0,0a1.34258,1.34258,0,0,0,.58585.43135C84.59729,91.354,84.39772,91.2059,84.20456,91.06425Zm0,0a1.34258,1.34258,0,0,0,.58585.43135C84.59729,91.354,84.39772,91.2059,84.20456,91.06425Zm0,0a1.34258,1.34258,0,0,0,.58585.43135C84.59729,91.354,84.39772,91.2059,84.20456,91.06425Zm0,0a1.34258,1.34258,0,0,0,.58585.43135C84.59729,91.354,84.39772,91.2059,84.20456,91.06425Zm0,0a1.34258,1.34258,0,0,0,.58585.43135C84.59729,91.354,84.39772,91.2059,84.20456,91.06425Zm0,0a1.34258,1.34258,0,0,0,.58585.43135C84.59729,91.354,84.39772,91.2059,84.20456,91.06425Zm0,0a1.34258,1.34258,0,0,0,.58585.43135C84.59729,91.354,84.39772,91.2059,84.20456,91.06425Zm0,0a1.34258,1.34258,0,0,0,.58585.43135C84.59729,91.354,84.39772,91.2059,84.20456,91.06425Zm0,0a1.34258,1.34258,0,0,0,.58585.43135C84.59729,91.354,84.39772,91.2059,84.20456,91.06425Zm0,0a1.34258,1.34258,0,0,0,.58585.43135C84.59729,91.354,84.39772,91.2059,84.20456,91.06425Zm0,0a1.34258,1.34258,0,0,0,.58585.43135C84.59729,91.354,84.39772,91.2059,84.20456,91.06425Zm0,0a1.34258,1.34258,0,0,0,.58585.43135C84.59729,91.354,84.39772,91.2059,84.20456,91.06425Z" fill="#253d96"/><path d="M113.02617,203.943q-9.23166,16.32921-18.45689,32.65846a1.96085,1.96085,0,0,1-1.88624.54723v-.00645l.00644-.00644q8.604-15.24768,17.20153-30.4954c.52145-.927.94636-1.90558,1.4163-2.86479h.00645C111.88668,203.83354,112.4532,203.89146,113.02617,203.943Z" fill="#9ccb49"/><path d="M104.98548,204.355q-8.64262,14.24341-17.29166,28.49969c-.60515,1.00428-1.18456,2.02145-1.78326,3.03862-.3734-.38629-.7532-.77254-1.1266-1.15878,6.19952-9.77247,12.40547-19.5449,18.08994-29.63277a.7691.7691,0,0,1,.07084-.16739.805.805,0,0,1,.5343-.45065c.49572-.03862.99788-.08365,1.49355-.12872Z" fill="#9ccc49"/><path d="M93.07573,102.83239q-10.207-5.54286-20.42042-11.07286c-1.01713-.54719-2.09225-1.00428-3.14156-1.50644-.2189-.65662-.4378-1.31972-.65666-1.97634C75.08878,91.663,81.314,95.075,87.56506,98.43543c1.18451.63732,2.24031,1.62876,3.70168,1.66094h.01289l-.01289-.03863a6.80125,6.80125,0,0,0,.57941.63733C92.25813,101.4032,92.66371,102.11781,93.07573,102.83239Z" fill="#9ccb4b"/><path d="M96.7066,111.549c-.08369.6631-.17383,1.32616-.25752,1.98927q-9.62755-5.8326-19.25515-11.65227a1.00149,1.00149,0,0,1-.42491-.13517.482.482,0,0,1,.12876-.0644c-.309-.206-.61159-.40558-.92059-.61155-.00644-.00644-.00644-.00644-.01289-.00644a1.05185,1.05185,0,0,0-.30255-.206c-.47638-.70817-.95281-1.42274-1.42919-2.13087,6.57291,3.16734,12.44409,7.51279,18.77237,11.09215C94.183,110.49323,95.17443,111.61983,96.7066,111.549Z" fill="#9ccb4b"/><path d="M231.51855,213.606a1.62587,1.62587,0,0,1-.90126,1.51929c-6.34116-4.09437-13.05568-7.53857-19.65433-11.18229a.63343.63343,0,0,1-.2897.00644.56972.56972,0,0,1-.37336-.25108,4.26608,4.26608,0,0,1-1.27469-2.39484Q220.27512,207.45476,231.51855,213.606Z" fill="#9dcb4c"/><path d="M228.892,205.237q-11.4816-4.89588-22.95683-9.79176c-.28326-.61159-.56008-1.22958-.84334-1.84762q11.30785,4.809,22.61566,9.61793c.33477.57941.676,1.15234,1.01717,1.73175C228.77608,205.04383,228.834,205.14037,228.892,205.237Z" fill="#9ccb4b"/><path d="M88.653,198.55461c-.2897.676-.573,1.35835-.86267,2.04074q-10.12005,5.74568-20.2337,11.48489c.19957-.65666.40558-1.31332.61159-1.96354Q78.41385,204.33244,88.653,198.55461Z" fill="#9ccb4b"/><path d="M72.70038,157.52069Q63.237,159.7127,53.78,161.90477c-1.13949.26393-2.24679.63733-3.37339.95921H50.4002c-.81115-.23819-1.706-.23819-2.34333-.91414q9.8497-2.25966,19.68007-4.51928c.83045-.19313,1.63516-.47639,2.45276-.721A4.67254,4.67254,0,0,1,72.70038,157.52069Z" fill="#9dcc4c"/><path d="M91.917,190.765q-10.04284,5.63944-20.08564,11.28531a2.62328,2.62328,0,0,1,.77253-2.04074,1.25234,1.25234,0,0,1,.86907-.5086,1.55625,1.55625,0,0,0,.22535-.07725h.0064a.854.854,0,0,0,.23819-.12876q9.26067-5.22419,18.52129-10.45483A2.38356,2.38356,0,0,1,91.917,190.765Z" fill="#9dcc4b"/><path d="M246.85961,133.07671q-9.30894,2.839-18.61143,5.691c-1.20384.37336-2.53.47638-3.48922,1.442l-.00645.00644c-.7532-.309-1.5-.61159-2.25319-.91418l.17383-.05792q10.8443-3.42806,21.69507-6.869C245.19867,132.60677,246.02916,132.845,246.85961,133.07671Z" fill="#9ccb4a"/><path d="M230.81042,85.28965c-.23175.65021-.47,1.30043-.70173,1.9506q-9.898,4.50966-19.7895,9.01923c.2382-.60515.48283-1.21674.72747-1.82829a1.02385,1.02385,0,0,1,.721-.48282,3.51922,3.51922,0,0,0,.68884-.19317Q221.63991,89.5257,230.81042,85.28965Z" fill="#9dcc4d"/><path d="M255.37023,139.25693,235.4198,143.95a2.63477,2.63477,0,0,1-2.02145-.75964q10.81534-2.71348,21.63071-5.427A1.33123,1.33123,0,0,1,255.37023,139.25693Z" fill="#9bca4a"/><path d="M140.45722,71.7254v.00644c-.251.68884-.50857,1.38409-.76609,2.07293q-2.93557-10.92158-5.86474-21.84313c.23819-.882.46994-1.76392.70817-2.64589Q137.49907,60.527,140.45722,71.7254Z" fill="#9ccb4a"/><path d="M144.22974,61.792v.01288q-.57942,1.5257-1.14593,3.03858-2.45274-10.68015-4.90553-21.341c.48283-.24464.87552-.85619,1.53862-.3798C140.85,49.43811,141.98939,55.74057,144.22974,61.792Z" fill="#9ecc4f"/><path d="M93.85471,208.89356c0,.00645-.00645.00645-.00645.01289-1.648,4.30679-4.71885,7.76387-7.01711,11.68441-1.33905,2.28538-2.91626,4.43559-4.38408,6.64372-.01929-.779-.04506-1.55147-.06436-2.33689v-.00645a.04861.04861,0,0,0,.01285-.02573.47723.47723,0,0,0,.12232-.23175v-.00645c.07725-.30259.01289-.66954.34766-.83689h.01285c.02578-.01289.05151-.02578.08369-.03862A142.95346,142.95346,0,0,0,92.01349,209.621a1.99444,1.99444,0,0,1,1.81544-.73391c.00644,0,.00644,0,.01289.00644Z" fill="#9dcb4d"/><path d="M206.7849,69.78764c-2.37551,4.751-4.77677,9.48917-7.11366,14.25953-.55367,1.12016-1.40985,2.15018-1.37767,3.515-.71458.2897-1.4356.5794-2.15021.86911q4.42272-8.92265,8.839-17.84534A2.35524,2.35524,0,0,1,206.7849,69.78764Z" fill="#9dcc4d"/><path d="M216.35132,67.41857c-2.839,5.51712-6.61154,10.51279-9.02567,16.26165l-.00641.00644c-.7468.27038-1.4807.54719-2.221.824,2.80683-4.957,5.633-9.90119,8.40764-14.87108.45065-.8176,1.60943-1.53218.6824-2.72318C215.0316,66.58812,215.67537,67.06451,216.35132,67.41857Z" fill="#9dcc4c"/><path d="M112.71717,220.01149a.58994.58994,0,0,1-.01933.43132v.00644h-.00644a.25354.25354,0,0,1-.03218.0901,10.95724,10.95724,0,0,0-.77254,1.25536.04877.04877,0,0,1-.01285.02578l.01285-.06441-.0064.00645c-.41847.309-.264.92059-.6824,1.22958a10.23584,10.23584,0,0,1-2.64592,3.50212c2.279-7.18447,5.83256-13.84747,8.54284-20.85814.412.25108.8176.50856,1.22318.75964q-2.839,6.721-5.67806,13.44193A1.02786,1.02786,0,0,1,112.71717,220.01149Z" fill="#9dcb4e"/><path d="M235.658,130.30851c-5.41409,1.62872-10.83463,3.24459-16.24876,4.88623-1.22314.37336-2.4077.83689-3.62443,1.25532H215.772c-.412-.32833-.824-.64377-1.24251-.96565,5.41413-2.22742,11.18873-3.24459,16.71229-5.09865.59226-.19957,1.16522-.4571,1.75108-.68884A3.633,3.633,0,0,1,235.658,130.30851Z" fill="#9ccb4c"/><path d="M161.05146,46.30932c-2.02789,6.3412-2.71673,12.972-4.397,19.3904-.35406-.85623-.70173-1.706-1.05579-2.55579,1.84117-6.02568,2.67807-12.27667,4.10726-18.39893A2.734,2.734,0,0,1,161.05146,46.30932Z" fill="#9fcc52"/><path d="M140.54091,224.62087v.00644q-3.766,9.12546-7.51923,18.25088c-.65666-.5279-.573-1.30039-.66951-2.015q3.68882-9.14474,7.37118-18.28306c.27037.68239.54719,1.35835.81112,2.0343Z" fill="#9ccb4b"/><path d="M67.74979,140.69253c-.54075.33477-1.07509.6695-1.60943,1.00428q-9.49236-2.44314-18.99123-4.89264c.309-.28971.618-.573.927-.86267Q57.90653,138.317,67.74979,140.69253Z" fill="#9ecc4f"/><path d="M210.448,232.64867a1.36388,1.36388,0,0,1-1.40986-.4442v-.00641q-.94633-9.65655-1.89269-19.30026c.4635.19956.927.39913,1.397.59229Q209.49838,223.06939,210.448,232.64867Z" fill="#9fcd51"/><path d="M101.55418,86.60937c-.63089-.24464-1.25536-.48283-1.88625-.72747q-3.795-8.07287-7.58359-16.14577.90771.40561,1.8154.81116a3.902,3.902,0,0,0,.56652.515h.00644c.00645.01289.00645.01933.01289.03222,1.3519,4.3583,3.84329,8.19518,5.71024,12.31533C100.67866,84.45916,101.10353,85.54073,101.55418,86.60937Z" fill="#9ecc4e"/><path d="M93.1208,83.41625a2.30892,2.30892,0,0,1-1.8798-.63088q-3.95922-8.03426-7.91841-16.05564l1.56436.23175Q89.01032,75.18889,93.1208,83.41625Z" fill="#9dcb4d"/><path d="M252.454,158.96918a1.853,1.853,0,0,1-1.39056,1.15233q-9.23167-2.77143-18.45044-5.54285c.74675-.30259,1.47422-.5987,2.21457-.9013,5.75531,2.15666,11.72307,3.61155,17.62,5.29182Z" fill="#9cca4d"/><path d="M220.317,192.2006c-4.92486-.99143-9.19306-3.68883-13.86684-5.324-1.49356-.5279-2.942-1.17167-4.41626-1.75748-.08369-.47-.16739-.94636-.25108-1.4163,4.73174,1.37123,9.07719,3.72741,13.66727,5.45271,1.09438.40558,2.07937,1.1202,3.3154,1.06224h.00644a2.57508,2.57508,0,0,0,.57941.573Q219.83415,191.49565,220.317,192.2006Z" fill="#9dcc4b"/><path d="M75.38493,137.04876c-.68239.32189-1.35838.63737-2.03433.95925q-8.52676-3.15771-17.05992-6.309a3.1103,3.1103,0,0,1,2.03434-.70813Q66.85171,134.02308,75.38493,137.04876Z" fill="#9ecc4f"/><path d="M137.19974,216.25186q-3.44741,8.81643-6.88831,17.63288c-.2189-.90774-.4378-1.81544-.6631-2.72318,2.74246-5.25959,4.0493-11.09859,6.58575-16.43544.32189.50857.64377,1.01073.95922,1.51929A.00631.00631,0,0,1,137.19974,216.25186Z" fill="#9ccb4b"/><path d="M195.98241,76.20606q-3.43773,7.11687-6.8819,14.22731a1.01932,1.01932,0,0,0-.206.41846c-.11591.3798-.12231.79827-.45709,1.07509-.6631.309-1.31972.618-1.97638.92058q3.30253-6.96238,6.618-13.93764a.83369.83369,0,0,0,.0901-.206c.02578-.0644.04507-.12876.0644-.19316a1.34431,1.34431,0,0,1,.32833-.77894c.02574-.01933.05792-.04507.08365-.0644C194.4245,77.17812,195.20348,76.69529,195.98241,76.20606Z" fill="#9ecc50"/><path d="M136.87785,81.92274a3.35779,3.35779,0,0,1-1.04934,2.1051q-1.71885-7.07828-3.43772-14.14361c-.01288-.06441-.02577-.12877-.04506-.19313a21.001,21.001,0,0,1-.824-2.47209c.13521-1.32617.264-2.65878.39917-3.98494Q134.40254,72.57195,136.87785,81.92274Z" fill="#9dcb4f"/><path d="M224.58513,96.84533a3.57169,3.57169,0,0,1-1.26821,1.96994.72546.72546,0,0,1-.42487.21242.68816.68816,0,0,1-.27686-.0193q-8.00526,3.19632-16.01056,6.39264c.19956-.5279.39913-1.06224.5987-1.59654Q215.89423,100.32809,224.58513,96.84533Z" fill="#9dcc4c"/><path d="M92.992,184.86805q-8.25635,3.98815-16.52558,7.97632a3.57881,3.57881,0,0,1,1.191-2.08581q7.63837-3.81435,15.2831-7.6287C92.95986,183.70927,92.97915,184.28864,92.992,184.86805Z" fill="#9ecc4d"/><path d="M243.924,163.791a2.30537,2.30537,0,0,1-1.97638.68884q-8.59437-3.34119-17.18224-6.68234c.57941-.23175,1.15878-.46353,1.73819-.68884Q235.21376,160.44986,243.924,163.791Z" fill="#9bcb4b"/><path d="M84.82259,90.43337a1.07349,1.07349,0,0,1-.28326.40557,1.21756,1.21756,0,0,1-.35407.21886q-7.09753-4.21025-14.19513-8.40764c.52146-.28966,1.04291-.57937,1.55792-.86907a91.31674,91.31674,0,0,0,12.89474,7.7188l.0064.00644C84.57151,89.82178,84.70027,90.12437,84.82259,90.43337Z" fill="#9ecc4f"/><path d="M164.53425,57.74269q-2.3176,7.82184-4.63516,15.65009c-.309-.77253-.62444-1.53862-.93988-2.31115q2.47207-8.0246,4.95056-16.05564C164.11578,55.93369,164.32179,56.835,164.53425,57.74269Z" fill="#9cca4d"/><path d="M199.43305,209.67895q-.68564,7.99565-1.36479,15.99771c-.48282-.31544-.96565-.63092-1.44208-.93992q.75324-7.84112,1.50644-15.68223C198.56394,209.26052,199.0017,209.47293,199.43305,209.67895Z" fill="#a1ce54"/><path d="M113.03906,90.98056q-.985-.309-1.96994-.618c-2.24675-4.84761-5.75531-9.00634-7.60293-14.07281,0-.00644-.00644-.01289-.00644-.01933h.01289a.02354.02354,0,0,1,.01929-.00645,1.44535,1.44535,0,0,1,1.44848.63733.71417.71417,0,0,0,.25753.29615,1.40291,1.40291,0,0,1,.25748.2189.43014.43014,0,0,1,.09658.18668Q109.29876,84.295,113.03906,90.98056Z" fill="#9dcb4c"/><path d="M81.18527,160.84253q-6.77886,2.08585-13.56421,4.17162h-.00644q-2.34654-.1062-4.68667-.21241c.00645,0,.01933-.00645.02578-.00645q7.9956-2.39481,15.97194-4.78321Z" fill="#9ccb4b"/><path d="M82.72389,133.19259c-.00644,0-.00644.00644-.01285.00644-.61159.32188-1.22962.63088-1.84121.94636q-7.31962-2.81008-14.65222-5.62658c.8176-.21242,1.6352-.42488,2.45921-.63733C73.18321,130.10894,78.07589,131.32567,82.72389,133.19259Z" fill="#9ccb4d"/><path d="M144.62243,239.04775q-3.515,6.3347-7.02356,12.663c-.25748-.34122-.50856-.676-.76608-1.01072q3.59226-6.76926,7.17805-13.52563C144.21685,237.79883,144.41642,238.42331,144.62243,239.04775Z" fill="#9ecc4e"/><path d="M218.20538,106.55981a3.40405,3.40405,0,0,1-1.37123,2.02789l-12.18657,5.54285c.03862-.573.07725-1.14589.10943-1.71885h.00644Q211.48444,109.48573,218.20538,106.55981Z" fill="#9ecc50"/><path d="M231.628,167.53132l-2.08581.367q-6.45057-3.06117-12.90759-6.12226c.4442-.29615.882-.59226,1.32616-.882Q224.79761,164.21591,231.628,167.53132Z" fill="#9ecc4e"/><path d="M94.58858,117.01463c-.42488.35411-.84334.70173-1.26821,1.05579q-4.26819-2.79075-8.53641-5.58792a.62692.62692,0,0,1-.30255.03218.61018.61018,0,0,1-.31548-.14161l-.0064-.00644c-.00645-.00645-.01289-.01933-.01934-.02574a3.27258,3.27258,0,0,0-.64377-.65666c0,.00645,0,.00645.00645.01289l-.01933-.01933a.0063.0063,0,0,0-.00641-.00644l-.01933-.0193a4.13269,4.13269,0,0,0-.54079-.573,3.818,3.818,0,0,1-1.36479-2.29182Q88.0704,112.901,94.58858,117.01463Z" fill="#9dcc4d"/><path d="M166.8454,69.54945q-1.82511,5.64906-3.65665,11.31105c-.32829-.63088-.65018-1.2618-.97206-1.89913v-.00644c1.73815-4.21669,2.71025-8.66513,4.01712-13.017C166.43982,67.1482,166.63939,68.3456,166.8454,69.54945Z" fill="#9dcb4e"/><path d="M225.96925,80.191A102.866,102.866,0,0,1,214.008,87.79392a3.20348,3.20348,0,0,1,.89485-2.02789l6.41841-4.545c.0708-.01933.14805-.03862.2253-.058a1.55664,1.55664,0,0,0,1.00428-.37981C223.58729,79.97854,224.79114,80.15237,225.96925,80.191Z" fill="#9dca52"/><path d="M167.869,224.98138c-.05792.90129-.11587,1.79611-.17383,2.691q-3.07077-5.5332-6.13511-11.07931.28-.956.56008-1.912Q164.99774,219.83769,167.869,224.98138Z" fill="#9ecc4e"/><path d="M223.78686,127.88148c-.14161.05151-.28967.09658-.43132.14809q-6.23816,2.13406-12.46338,4.281-.37662-.62763-.7532-1.25536c3.53429-1.39052,7.35185-1.9506,10.73808-3.75315C221.8491,127.49523,222.8212,127.68836,223.78686,127.88148Z" fill="#9dcc4d"/><path d="M214.272,183.94746q-6.045-2.588-12.09647-5.16949.41529-.647.83049-1.294a50.532,50.532,0,0,0,8.49133,3.824,2.44456,2.44456,0,0,0,.60515.18672,1.445,1.445,0,0,1,.84978.39269C213.39,182.56978,213.83419,183.25862,214.272,183.94746Z" fill="#9dcb51"/><path d="M191.80435,206.29915q-1.42915,5.86154-2.85834,11.72307c-.39914-.31544-.79827-.62447-1.19741-.93347q1.39056-5.707,2.78754-11.40115C190.961,205.89357,191.37948,206.09314,191.80435,206.29915Z" fill="#9ecb50"/><path d="M185.86881,83.4034q-2.32727,5.28211-4.6609,10.56426c-.46353-.12232-.927-.24464-1.38412-.3734q1.76717-4.1523,3.52785-8.31106Q184.61665,84.33688,185.86881,83.4034Z" fill="#a0cd53"/><path d="M131.83072,209.518q-1.883,6.14162-3.75964,12.296l-.57937-3.05146c1.49351-3.14161,1.93772-6.61154,3.02569-9.87546A1.33117,1.33117,0,0,1,131.83072,209.518Z" fill="#9dcb4f"/><path d="M87.5071,129.73554,86.432,130.81063a78.73513,78.73513,0,0,0-10.6351-4.65445c.99143-.19312,1.96993-.38625,2.94847-.573Q83.12945,127.65941,87.5071,129.73554Z" fill="#9dcc4e"/><path d="M166.163,237.56064c-.16094.78542-.31544,1.5708-.47638,2.35622q-2.4334-3.92055-4.87335-7.82827c0-.882,0-1.75748.00645-2.63944Q163.4849,233.50491,166.163,237.56064Z" fill="#a0ce52"/><path d="M221.38561,169.49481c-.77253.14805-1.54507.30259-2.31756.45064a42.44222,42.44222,0,0,0-7.7124-3.93342h-.00644c.412-.45709.80471-.9013,1.21674-1.35194v-.00645h.00644Q216.97578,167.07745,221.38561,169.49481Z" fill="#a1ce56"/><path d="M120.15916,92.30672c-.57941-.01929-1.14593-.03862-1.71886-.06436h-.00644q-1.97-4.6448-3.94632-9.2896l2.41414,1.68023Q118.524,88.47627,120.15916,92.30672Z" fill="#9dca52"/><path d="M91.93624,178.91317q-5.18556,2.37553-10.37113,4.76392c.35407-.70817.71458-1.4163,1.06864-2.12448,3.11587-.87551,5.80038-2.67806,8.69735-4.03A1.37994,1.37994,0,0,1,91.93624,178.91317Z" fill="#9ac94c"/><path d="M183.416,203.15114q-1.35194,4.37439-2.70384,8.75527c-.42491-.28327-.84978-.573-1.26825-.86267q1.31334-4.104,2.62659-8.21448C182.51475,202.93869,182.9654,203.04167,183.416,203.15114Z" fill="#9dcb4e"/><path d="M86.638,165.52276c-2.06008.37335-4.18451.49567-5.98062,1.74459H80.651a4.50173,4.50173,0,0,1-2.4721-.882q3.75642-1.21674,7.51279-2.43988h.00645A1.86653,1.86653,0,0,1,86.638,165.52276Z" fill="#9dc956"/><path d="M163.266,247.64211c-.28322.65662-.56008,1.31327-.8369,1.96349q-1.65123-2.95491-3.30254-5.91625v-.00645c.16738-.63732.33477-1.26176.50216-1.89268q1.81544,2.926,3.63087,5.84544v.00645C163.266,247.63566,163.266,247.64211,163.266,247.64211Z" fill="#9bc852"/><path d="M169.13078,80.809q-1.31334,2.88731-2.63949,5.77464c-.34762-.43135-.68884-.86267-1.03-1.28754q1.545-3.3122,3.08364-6.61153A2.505,2.505,0,0,1,169.13078,80.809Z" fill="#9bc851"/><path d="M85.653,91.82389c-.28326-.10943-.57293-.21886-.86263-.32829a1.34258,1.34258,0,0,1-.58585-.43135l-.0193-.00645c.09658-.09654.19313-.19312.28971-.28322.11587-.11591.23175-.23178.34762-.34121Z" fill="#95c83d"/><path d="M211.92218,212.53084c-.45065.27686-.72747.04507-.95277-.33473.2253-.03218.4442-.058.6695-.09014C211.7355,212.24758,211.832,212.38923,211.92218,212.53084Z" fill="#697ab7"/><path d="M94.51777,208.26268c-.07725.36692-.21246.676-.66951.64377h-.01933v-.01933C93.82249,208.43,94.12508,208.29486,94.51777,208.26268Z" fill="#8eba54"/><path d="M103.49193,76.264v.02578h-.02574c-.4442.0064-.59229-.27686-.63092-.66955C103.228,75.66527,103.51126,75.81333,103.49193,76.264Z" fill="#94c34f"/><path d="M84.20182,91.064q.29559.21659.591.43284Q84.49722,91.28013,84.20182,91.064Z" fill="#9ecc4f"/></svg>