<svg id="Layer_1" data-name="Layer 1" xmlns="http://www.w3.org/2000/svg" viewBox="0 0 300 300"><defs><style>.cls-1{fill:#fefefe;}.cls-2{fill:#b0353e;}.cls-3{fill:#346;}</style></defs><title>PBH</title><path class="cls-1" d="M38.13,168.33c0,1.57.45,2.32,1.57,2.78l2.14.89v.25l-12.31,0V172l2.13-.9c1.12-.46,1.57-1.21,1.57-2.78l0-15.06c0-3.85,0-4.49-1.33-5.1l-2.38-1.07v-.25H42.16c3.81,0,9.51.7,9.52,6.69s-5.73,7.22-10.91,7.23c-.84,0-1.74-.08-2.65-.11Zm0-9.35h2.69c3.35,0,5.55-2,5.55-5.14,0-3.29-2.14-5.21-5.42-5.21H38.1"/><path class="cls-1" d="M59.76,157.67h.07c1-1.92,2.68-3.82,5.52-3.82a3.84,3.84,0,0,1,4,4.13,4.11,4.11,0,0,1-.31,1.72h-4.2a3.64,3.64,0,0,0,.32-1.64,1.54,1.54,0,0,0-1.58-1.57c-1.78,0-3.84,2.4-3.84,4.83v6.81c0,2.25.49,2.82,1.47,3.21l2.17.64v.25H52.22V172l1.61-.64c1.05-.4,1.54-1,1.53-3.22V158.5c0-2.25-.49-2.82-1.54-3.21l-1.61-.64v-.25h7.55"/><path class="cls-1" d="M74.41,163c0,2.71.85,7.1,5.57,7.09A6.49,6.49,0,0,0,85.75,167s0,0,0-.07l.63.36a8,8,0,0,1-7.72,5.43c-5.52,0-9.16-3.38-9.17-9.45s4.39-9.46,9.15-9.46c5.28,0,8.18,3.38,8.19,9.16Zm5.74-1.58c1.29,0,1.81-.53,1.81-1.93,0-2.46-1.16-4.1-3.29-4.1-3.15,0-4.23,3.51-4.22,6"/><path class="cls-1" d="M102,160.23h-.25c-1.19-2.46-2.52-4.63-5.35-4.63-2,0-3.18,1.07-3.18,2.93,0,3.92,9.69,1.88,9.69,8.52,0,3.74-3.28,5.67-7.3,5.68-2.69,0-4.51-.93-5.49-.92a1.18,1.18,0,0,0-1.22.93h-.25v-7h.24C90.15,168.49,91.34,171,95,171c1.71,0,3.21-1,3.21-2.8,0-4.35-9.69-2.19-9.7-8.76,0-3.64,3-5.57,6.82-5.57,2.48,0,4.3.85,5.07.85a1.76,1.76,0,0,0,1.32-.86H102"/><path class="cls-1" d="M103.25,154.34h3.29v-3.75a30.46,30.46,0,0,0,4.61-2.29c0,.93-.13,2.79-.2,6h4.79v1.57h-4.79l0,11c0,2.28,1.08,3.14,2.24,3.14a5,5,0,0,0,3.07-1.68l.35.14c-1.18,2.39-3.07,4.18-5.9,4.18s-4.17-2.06-4.17-5V155.91h-3.29"/><path class="cls-1" d="M122.93,154.32c-.1,1.1-.2,2.18-.2,3.28v10.46c0,2.24.49,2.82,1.47,3.21l1.65.64v.25H115.23v-.25l1.64-.64c1-.4,1.47-1,1.46-3.22v-9.63c0-2.25-.49-2.82-1.47-3.21l-1.64-.64v-.25Zm-2.42-8.1a2.5,2.5,0,1,1-2.65,2.5A2.52,2.52,0,0,1,120.51,146.22Z"/><path class="cls-1" d="M147.65,154.29v.25l-1.64.65c-1,.39-1.46,1-1.46,3.21v13.17c0,5.88-4,8-8.94,8-6.64,0-8-3.2-8-4.53a5.71,5.71,0,0,1,.07-1.14h4.23a6,6,0,0,0-.1,1.35c0,1.29,1.16,2.75,3.81,2.75,3.39,0,4.51-2.29,4.51-6.22v-3.42h-.07a6.17,6.17,0,0,1-5.9,3.79c-5,0-7.94-4.31-8-9.13s3.17-9.24,8.28-9.25c2.66,0,4.4,1,5.74,3.74h.07V154.3Zm-12,15.43c2.8,0,4.65-2.57,4.65-6.78,0-4.54-1.76-6.75-4.66-6.74-2.59,0-4.3,2.5-4.29,6.75S132.67,169.72,135.64,169.72Z"/><path class="cls-1" d="M152.49,162.92c0,2.71.85,7.1,5.57,7.1a6.49,6.49,0,0,0,5.76-3.08s0,0,0-.07l.63.36a8,8,0,0,1-7.73,5.43c-5.52,0-9.16-3.38-9.17-9.45s4.4-9.46,9.15-9.46c5.28,0,8.19,3.38,8.2,9.16Zm5.73-1.57c1.3,0,1.82-.54,1.82-1.93,0-2.47-1.16-4.11-3.29-4.1-3.15,0-4.23,3.5-4.23,6"/><path class="cls-1" d="M174.81,146.7c4.34,0,10.42.2,10.43,6.05,0,3.93-3.56,5.86-7,6.08v.07c3.85.24,8.33,1.59,8.33,6.3,0,5.53-5.34,6.89-9.22,6.9H165.19v-.25c.42-.14,4-.82,4-2.39l0-20.13c0-1.56-3.61-2.24-4-2.38v-.25Zm1.49,11.63c3,0,6.22-.9,6.21-5.47,0-4.31-3.74-4.88-6.65-4.88H171.6c-.07.92-.11,1.92-.11,2.92v7.42Zm-4.79,9.32c0,1,0,2.1.11,3.17h4.93c4.06,0,7.31-1,7.31-5.47s-3.44-5.74-7.63-5.74H171.5"/><path class="cls-1" d="M193.18,157.92h.07c.8-1.93,2.45-3.93,4.72-3.93,3,0,3.78,2,3.78,3.81a4.87,4.87,0,0,1-.07.82h-2.52a3.66,3.66,0,0,0,.28-1.35,1.82,1.82,0,0,0-2-1.79c-1.92,0-4.23,3-4.22,4.68v9.6c0,1,1.08,1.36,1.78,1.61l1.4.46v.25h-8.46v-.25l1.4-.47c.69-.25,1.78-.61,1.78-1.61l0-12.38c0-1.35-.31-1.71-1.47-2.1l-1.71-.57v-.25h5.28"/><path class="cls-1" d="M213,159.11c0-2.4-.7-4.07-3.78-4.07-1.78,0-3.7.72-3.7,2.83a3,3,0,0,0,.25,1.24h-2.66a4.08,4.08,0,0,1-.11-1c0-1.82,1.75-4.18,6.19-4.19,2.06,0,5.91.82,5.91,4.49v10.78c0,1.07.32,1.78,1.12,1.78a1.57,1.57,0,0,0,1.51-1.11H218c-.31,1.25-1,2.57-2.62,2.61S213,171.45,213,169.7V169h-.07a6.44,6.44,0,0,1-5.69,3.58,4.72,4.72,0,0,1-5.15-4.6c0-4.28,3.39-5.18,7.24-5.72l3.67-.61Zm0,3.56-4.27.76c-4,.82-4.36,2.39-4.33,4.11A3.35,3.35,0,0,0,208,171c2.76,0,5-2.93,5-4.07"/><path class="cls-1" d="M222.66,158h.07a6.39,6.39,0,0,1,5.87-4c2.69,0,6,1.07,6,6v9.81c0,1,1.09,1.36,1.79,1.61l1.4.46V172h-8.46v-.25l1.4-.47c.69-.25,1.78-.6,1.77-1.6v-9.35c0-3.39-1.89-4.71-4.41-4.71a5.22,5.22,0,0,0-5.34,4.86v9.21c0,1,1.09,1.35,1.79,1.6l1.4.46V172h-8.47v-.25l1.4-.46c.7-.25,1.78-.61,1.78-1.61V157.35c0-1.36-.32-1.71-1.47-2.1l-1.72-.57v-.25h5.22"/><path class="cls-1" d="M252.21,168.23h-.07a6.52,6.52,0,0,1-6.35,4.26c-4.62,0-7.7-4-7.71-9.27,0-5.86,3.28-9.28,8-9.29a6.4,6.4,0,0,1,6,4h.07v-8.35c0-1.36-.32-1.72-1.47-2.11l-1.72-.56v-.26h5.28l0,23.08c0,1,1.09,1.36,1.79,1.61l1.39.46V172h-5.17Zm-6.29,3c4.27,0,6.36-3.68,6.36-8.11s-2.11-7.88-6.06-7.88-5.62,3.44-5.62,7.93C240.6,167,242.08,171.2,245.92,171.2Z"/><path class="cls-1" d="M269.41,159.79h-.07l-1-2c-.92-1.68-1.9-2.85-4.34-2.85-2,0-3.92,1.22-3.92,3.47,0,5.17,10.39,2.38,10.4,8.76,0,3.75-3.28,5.25-6.53,5.25-2.35,0-3.85-.81-4.62-.81-.52,0-.66.29-1.05.82h-.07V166.3h.07l.77,1.75a4.87,4.87,0,0,0,4.83,3.34c2,0,4.3-.89,4.29-3.67,0-4.93-10.17-2.21-10.18-8.91,0-3.29,2.89-4.89,5.94-4.9,2.66,0,3.81.82,4.44.82.45,0,.77-.47.94-.82h.07"/><path class="cls-2" d="M38.13,168.33c0,1.57.45,2.32,1.57,2.78l2.14.89v.25l-12.31,0V172l2.13-.9c1.12-.46,1.57-1.21,1.57-2.78l0-15.06c0-3.85,0-4.49-1.33-5.1l-2.38-1.07v-.25H42.16c3.81,0,9.51.7,9.52,6.69s-5.73,7.22-10.91,7.23c-.84,0-1.74-.08-2.65-.11Zm0-9.35h2.69c3.35,0,5.55-2,5.55-5.14,0-3.29-2.14-5.21-5.42-5.21H38.1"/><path class="cls-2" d="M59.76,157.67h.07c1-1.92,2.68-3.82,5.52-3.82a3.84,3.84,0,0,1,4,4.13,4.11,4.11,0,0,1-.31,1.72h-4.2a3.64,3.64,0,0,0,.32-1.64,1.54,1.54,0,0,0-1.58-1.57c-1.78,0-3.84,2.4-3.84,4.83v6.81c0,2.25.49,2.82,1.47,3.21l2.17.64v.25H52.22V172l1.61-.64c1.05-.4,1.54-1,1.53-3.22V158.5c0-2.25-.49-2.82-1.54-3.21l-1.61-.64v-.25h7.55"/><path class="cls-2" d="M74.41,163c0,2.71.85,7.1,5.57,7.09A6.49,6.49,0,0,0,85.75,167s0,0,0-.07l.63.36a8,8,0,0,1-7.72,5.43c-5.52,0-9.16-3.38-9.17-9.45s4.39-9.46,9.15-9.46c5.28,0,8.18,3.38,8.19,9.16Zm5.74-1.58c1.29,0,1.81-.53,1.81-1.93,0-2.46-1.16-4.1-3.29-4.1-3.15,0-4.23,3.51-4.22,6"/><path class="cls-2" d="M102,160.23h-.25c-1.19-2.46-2.52-4.63-5.35-4.63-2,0-3.18,1.07-3.18,2.93,0,3.92,9.69,1.88,9.69,8.52,0,3.74-3.28,5.67-7.3,5.68-2.69,0-4.51-.93-5.49-.92a1.18,1.18,0,0,0-1.22.93h-.25v-7h.24C90.15,168.49,91.34,171,95,171c1.71,0,3.21-1,3.21-2.8,0-4.35-9.69-2.19-9.7-8.76,0-3.64,3-5.57,6.82-5.57,2.48,0,4.3.85,5.07.85a1.76,1.76,0,0,0,1.32-.86H102"/><path class="cls-2" d="M103.25,154.34h3.29v-3.75a30.46,30.46,0,0,0,4.61-2.29c0,.93-.13,2.79-.2,6h4.79v1.57h-4.79l0,11c0,2.28,1.08,3.14,2.24,3.14a5,5,0,0,0,3.07-1.68l.35.14c-1.18,2.39-3.07,4.18-5.9,4.18s-4.17-2.06-4.17-5V155.91h-3.29"/><path class="cls-2" d="M122.93,154.32c-.1,1.1-.2,2.18-.2,3.28v10.46c0,2.24.49,2.82,1.47,3.21l1.65.64v.25H115.23v-.25l1.64-.64c1-.4,1.47-1,1.46-3.22v-9.63c0-2.25-.49-2.82-1.47-3.21l-1.64-.64v-.25Zm-2.42-8.1a2.5,2.5,0,1,1-2.65,2.5A2.52,2.52,0,0,1,120.51,146.22Z"/><path class="cls-2" d="M147.65,154.29v.25l-1.64.65c-1,.39-1.46,1-1.46,3.21v13.17c0,5.88-4,8-8.94,8-6.64,0-8-3.2-8-4.53a5.71,5.71,0,0,1,.07-1.14h4.23a6,6,0,0,0-.1,1.35c0,1.29,1.16,2.75,3.81,2.75,3.39,0,4.51-2.29,4.51-6.22v-3.42h-.07a6.17,6.17,0,0,1-5.9,3.79c-5,0-7.94-4.31-8-9.13s3.17-9.24,8.28-9.25c2.66,0,4.4,1,5.74,3.74h.07V154.3Zm-12,15.43c2.8,0,4.65-2.57,4.65-6.78,0-4.54-1.76-6.75-4.66-6.74-2.59,0-4.3,2.5-4.29,6.75S132.67,169.72,135.64,169.72Z"/><path class="cls-2" d="M152.49,162.92c0,2.71.85,7.1,5.57,7.1a6.49,6.49,0,0,0,5.76-3.08s0,0,0-.07l.63.36a8,8,0,0,1-7.73,5.43c-5.52,0-9.16-3.38-9.17-9.45s4.4-9.46,9.15-9.46c5.28,0,8.19,3.38,8.2,9.16Zm5.73-1.57c1.3,0,1.82-.54,1.82-1.93,0-2.47-1.16-4.11-3.29-4.1-3.15,0-4.23,3.5-4.23,6"/><path class="cls-3" d="M174.81,146.7c4.34,0,10.42.2,10.43,6.05,0,3.93-3.56,5.86-7,6.08v.07c3.85.24,8.33,1.59,8.33,6.3,0,5.53-5.34,6.89-9.22,6.9H165.19v-.25c.42-.14,4-.82,4-2.39l0-20.13c0-1.56-3.61-2.24-4-2.38v-.25Zm1.49,11.63c3,0,6.22-.9,6.21-5.47,0-4.31-3.74-4.88-6.65-4.88H171.6c-.07.92-.11,1.92-.11,2.92v7.42Zm-4.79,9.32c0,1,0,2.1.11,3.17h4.93c4.06,0,7.31-1,7.31-5.47s-3.44-5.74-7.63-5.74H171.5"/><path class="cls-3" d="M193.18,157.92h.07c.8-1.93,2.45-3.93,4.72-3.93,3,0,3.78,2,3.78,3.81a4.87,4.87,0,0,1-.07.82h-2.52a3.66,3.66,0,0,0,.28-1.35,1.82,1.82,0,0,0-2-1.79c-1.92,0-4.23,3-4.22,4.68v9.6c0,1,1.08,1.36,1.78,1.61l1.4.46v.25h-8.46v-.25l1.4-.47c.69-.25,1.78-.61,1.78-1.61l0-12.38c0-1.35-.31-1.71-1.47-2.1l-1.71-.57v-.25h5.28"/><path class="cls-3" d="M213,159.11c0-2.4-.7-4.07-3.78-4.07-1.78,0-3.7.72-3.7,2.83a3,3,0,0,0,.25,1.24h-2.66a4.08,4.08,0,0,1-.11-1c0-1.82,1.75-4.18,6.19-4.19,2.06,0,5.91.82,5.91,4.49v10.78c0,1.07.32,1.78,1.12,1.78a1.57,1.57,0,0,0,1.51-1.11H218c-.31,1.25-1,2.57-2.62,2.61S213,171.45,213,169.7V169h-.07a6.44,6.44,0,0,1-5.69,3.58,4.72,4.72,0,0,1-5.15-4.6c0-4.28,3.39-5.18,7.24-5.72l3.67-.61Zm0,3.56-4.27.76c-4,.82-4.36,2.39-4.33,4.11A3.35,3.35,0,0,0,208,171c2.76,0,5-2.93,5-4.07"/><path class="cls-3" d="M222.66,158h.07a6.39,6.39,0,0,1,5.87-4c2.69,0,6,1.07,6,6v9.81c0,1,1.09,1.36,1.79,1.61l1.4.46V172h-8.46v-.25l1.4-.47c.69-.25,1.78-.6,1.77-1.6v-9.35c0-3.39-1.89-4.71-4.41-4.71a5.22,5.22,0,0,0-5.34,4.86v9.21c0,1,1.09,1.35,1.79,1.6l1.4.46V172h-8.47v-.25l1.4-.46c.7-.25,1.78-.61,1.78-1.61V157.35c0-1.36-.32-1.71-1.47-2.1l-1.72-.57v-.25h5.22"/><path class="cls-3" d="M252.21,168.23h-.07a6.52,6.52,0,0,1-6.35,4.26c-4.62,0-7.7-4-7.71-9.27,0-5.86,3.28-9.28,8-9.29a6.4,6.4,0,0,1,6,4h.07v-8.35c0-1.36-.32-1.72-1.47-2.11l-1.72-.56v-.26h5.28l0,23.08c0,1,1.09,1.36,1.79,1.61l1.39.46V172h-5.17Zm-6.29,3c4.27,0,6.36-3.68,6.36-8.11s-2.11-7.88-6.06-7.88-5.62,3.44-5.62,7.93C240.6,167,242.08,171.2,245.92,171.2Z"/><path class="cls-3" d="M269.41,159.79h-.07l-1-2c-.92-1.68-1.9-2.85-4.34-2.85-2,0-3.92,1.22-3.92,3.47,0,5.17,10.39,2.38,10.4,8.76,0,3.75-3.28,5.25-6.53,5.25-2.35,0-3.85-.81-4.62-.81-.52,0-.66.29-1.05.82h-.07V166.3h.07l.77,1.75a4.87,4.87,0,0,0,4.83,3.34c2,0,4.3-.89,4.29-3.67,0-4.93-10.17-2.21-10.18-8.91,0-3.29,2.89-4.89,5.94-4.9,2.66,0,3.81.82,4.44.82.45,0,.77-.47.94-.82h.07"/><path class="cls-3" d="M58.7,151.82s-2.54.35.56-1.11C82.31,139.87,182.31,99.6,270,134.16,270,134.16,145.27,113.26,58.7,151.82Z"/></svg>