<svg id="Layer_1" data-name="Layer 1" xmlns="http://www.w3.org/2000/svg" viewBox="0 0 300 300"><defs><style>.cls-1{fill:#27a79e;}.cls-2{fill:#24a79e;}</style></defs><title>PRQR</title><path class="cls-1" d="M48.5,129.11c.07-1.11.19-3.67.25-4.37.56-6.44,3.15-12.1,6.43-17.54C63.32,93.72,74,82.52,86.13,72.59A143,143,0,0,1,110.81,56a61.84,61.84,0,0,1,39.11-6.11,179.71,179.71,0,0,1,55.77,18.19A75.81,75.81,0,0,1,225,81.87c6.75,6.88,11.21,15.17,14.84,24a150,150,0,0,1,10.64,39.94c1.08,9.22,1.69,18.46-.4,27.65a53.5,53.5,0,0,1-8.68,19.45c-11.25,15.77-24.17,30-39.62,41.75-7.29,5.56-14.89,10.55-23.6,13.69-7.21,2.61-14.64,2.93-22.13,2.36a169.84,169.84,0,0,1-33.56-5.86c-11-3.15-21.82-6.9-31.81-12.66C81,226.53,73.29,219,68.43,208.63A275.58,275.58,0,0,1,56.09,177.7a4.09,4.09,0,0,0-1.53-2.45,2.62,2.62,0,0,1-1.21-2.39c.42-4.61-1.3-8.86-2.13-13.26-1-5.32-2.35-10.58-2.44-16,0-.77-.21-1.34-.21-2.76C48.57,136,48.5,133.88,48.5,129.11Zm193.16,30.62a122.5,122.5,0,0,0-.83-15.06,155.25,155.25,0,0,0-11.43-43.19c-4.24-9.88-10.5-18.15-19.65-24.1-19-12.34-39.46-20.63-62.19-22.62-9.14-.81-18.08.15-26.55,4.13a103.49,103.49,0,0,0-18.54,11.45c-13.76,10.43-25.37,23-36,36.53-5.21,6.65-9,14-10.32,22.48-1.11,7.06-.77,14.13,0,21.18A188.26,188.26,0,0,0,69.61,202c5.18,12.6,13.38,22.67,26,28.51a148,148,0,0,0,64.22,13.93,44.81,44.81,0,0,0,22.37-5.91A85,85,0,0,0,192.33,232a196,196,0,0,0,39.94-42.53C238.78,180.11,242.41,170,241.66,159.73Z"/><path class="cls-2" d="M192.63,168a7.15,7.15,0,0,1-4.23,4.49,2.4,2.4,0,0,1-2.62-.39c-1.9-1.8-3.87-1.45-6-.49a15.56,15.56,0,0,1-17.59-3.14,13.81,13.81,0,0,1-4-9.84c0-4.43,0-8.86,0-13.29.05-9.87,7.24-15.44,16.41-15a14.46,14.46,0,0,1,14,13.65c.49,6.06.67,12.16-.55,18.18a2.56,2.56,0,0,0,1.21,3A41.71,41.71,0,0,1,192.63,168Zm-12.14-10.48c0-3,0-5.86,0-8.75a14.93,14.93,0,0,0-.51-4.88c-1.14-3.6-3.76-5.69-7.09-5.45s-5.92,2.82-6.39,6.5a61.18,61.18,0,0,0,.06,13.86,6,6,0,0,0,8.49,5.17c-1-1.31-2.79-1.85-3.44-3.5a7.16,7.16,0,0,1,2.93-3.65C176.57,155.52,178.31,157.38,180.49,157.51Z"/><path class="cls-2" d="M225.67,172.16a8.32,8.32,0,0,1-10.83-3.61c-1.67-3-3-6.18-4.5-9.27-2-4.17-2.79-4.5-7.41-3.1a1.58,1.58,0,0,0-.36,1.29c0,4.17.05,8.33.06,12.5,0,2.29-.4,2.7-2.63,2.7-4.46,0-5.48-.94-5.53-5.48-.06-6.16,0-12.31,0-18.46,0-5.16,0-10.33,0-15.49,0-2.39.37-2.81,2.73-2.74,5.42.16,10.85-.19,16.27.28a10.74,10.74,0,0,1,9.14,6.07c2.27,4.38,2.93,8.77-.17,13.1a13.63,13.63,0,0,1-2.72,2.59c-2,1.63-2.31,3-1,5.17,2.27,4,4.28,8.06,6.4,12.1A3.21,3.21,0,0,1,225.67,172.16Zm-18-34.07c-.71,0-1.76,0-2.82,0-1.35,0-2.19.54-2.26,1.92a29.4,29.4,0,0,0,.09,5.55c.13,1,.55,2.06,1.68,2.21a20.58,20.58,0,0,0,9-.31,4.8,4.8,0,0,0,2.9-5.33c-.32-2.32-1.55-3.5-4.12-3.8C210.85,138.17,209.45,138.18,207.71,138.09Z"/><path class="cls-2" d="M73.54,150.3q0-8.73,0-17.47c0-2.13.21-2.37,2.22-2.34,5.22.11,10.45-.18,15.67.31,7.53.71,11.94,5.6,11.93,13.42a12.78,12.78,0,0,1-12.08,12.85,40.76,40.76,0,0,1-6.54.11c-2.6-.22-3.35.57-3.17,3.21.21,3.24.06,6.49.11,9.73,0,2.11-.44,2.54-2.56,2.55a17.59,17.59,0,0,1-2.18-.11,3.29,3.29,0,0,1-3.14-2.82,11.7,11.7,0,0,1-.26-3Q73.54,158.54,73.54,150.3Zm13.79-11.9h-4c-.91,0-1.61.39-1.64,1.33a41.28,41.28,0,0,0,.18,7.7,1.7,1.7,0,0,0,1.6,1.51,26.3,26.3,0,0,0,8.07-.12c2.45-.54,3.54-2.31,3.5-5.23s-1.15-4.32-3.62-5A17.91,17.91,0,0,0,87.33,138.4Z"/><path class="cls-2" d="M154.14,156.93a25.33,25.33,0,0,1-1.12,8c-1.83,5.51-6.51,8.38-13.08,8.05a12,12,0,0,1-11.11-9.44,31.15,31.15,0,0,1-.13-11.63,12.66,12.66,0,0,1,24.93.29A22.76,22.76,0,0,1,154.14,156.93Zm-17.91.31c.07,1.31,0,2.65.24,3.94.37,2.45,1.92,3.72,4.5,3.89a4.26,4.26,0,0,0,4.71-3.36,16.9,16.9,0,0,0,.07-8.62,4.39,4.39,0,0,0-4.48-3.48,4.57,4.57,0,0,0-4.63,3.31C136.14,154.34,136.4,155.79,136.23,157.24Z"/><path class="cls-1" d="M114.71,143.61a10.53,10.53,0,0,1,11.56-.48c2.08,1.12,2.22,1.81.71,3.64-.8,1-1.66,1.89-2.41,2.89a2.13,2.13,0,0,1-3.08.77,5.29,5.29,0,0,0-.54-.25c-3.42-1.34-5.93.23-6.17,3.94-.12,1.91-.08,3.84-.07,5.75,0,3.57,0,7.14.11,10.71,0,1.31-.51,2-1.82,2a18.49,18.49,0,0,1-2.58-.07c-2.36-.26-3.44-1.31-3.59-3.7-.34-5.55-.13-11.1-.07-16.66,0-2.38-.05-4.75-.08-7.13,0-2.64.36-3,2.92-2.93C112.33,142.26,112.33,142.26,114.71,143.61Z"/></svg>