<svg id="Layer_1" data-name="Layer 1" xmlns="http://www.w3.org/2000/svg" viewBox="0 0 300 300"><title>PTGX_Mark_Light</title><path d="M132.15982,159.31047c-3.4385-1.46922-7.13155-2.23863-10.50782-3.89815a29.0416,29.0416,0,0,1-6.65419-4.24168c-7.08053-6.30243-6.58056-16.41308,1.12262-21.93155,5.03558-3.60745,10.87284-5.3364,16.72252-7.02665a18.31859,18.31859,0,0,0,4.51838-1.42134,74.4926,74.4926,0,0,0,12.00718-2.89963,26.14175,26.14175,0,0,0,6.01571-1.56408c7.46807-2.4614,14.83417-5.13114,20.86168-10.49727,8.86159-7.88924,8.6105-20.45856-.7279-27.713-7.62281-5.92167-16.56-8.895-25.83083-11.02336a143.18986,143.18986,0,0,1-17.54069-5.18218c-3.4827-2.11961-7.29561-3.6983-10.48346-6.29537-1.61411-1.315-3.1784-2.7026-4.66166-4.16261-.9623-.94722-2.085-2.10654-.96916-3.54867,1.17695-1.52114,2.59246-.818,3.8287.05212a47.59359,47.59359,0,0,0,12.51355,6.051,90.78814,90.78814,0,0,0,17.97483,4.22917q8.68023,1.82111,17.3597,3.64238c5.747,1.7204,11.55924,3.24042,17.04883,5.73432a50.74642,50.74642,0,0,1,10.36571,6.01786c12.81644,9.98862,11.96711,27.03278-1.81449,35.61345-8.33059,5.18679-17.64539,7.882-26.97677,10.52313a11.90326,11.90326,0,0,0-3.844,1.29453,55.71922,55.71922,0,0,0-12.15506,2.97164c-6.49364,1.61143-12.71624,3.90056-17.99806,8.117-6.93183,5.53357-6.45774,13.51271.99957,18.26312,5.15471,3.28363,10.944,4.75523,16.91105,5.65356,5.76861,1.29369,11.582,2.344,17.42952,3.2093,8.827,1.95093,17.73916,3.53719,26.394,6.22332a86.56639,86.56639,0,0,1,17.90157,7.51445c17.99724,10.41293,19.98746,33.49157,3.28471,46.66958-6.87182,5.42168-14.95583,8.26852-23.09875,10.97315a225.66426,225.66426,0,0,1-23.68088,6.22854c-.77832.16772-1.54619.384-2.31884.57779-5.30664.826-10.59392,1.75174-15.80345,3.07679-11.3103,1.90616-22.02857,5.437-31.7979,11.57715-1.44717.90957-1.45343.89959-3.61264.56242-1.64-2.00071-1.51425-3.0187.61428-4.72771a75.48509,75.48509,0,0,1,17.22107-9.91682c.35718-.15682.68688-.37622,1.02944-.56648q7.99443-2.82026,15.98872-5.64055a256.52853,256.52853,0,0,0,26.19171-8.8123c7.20707-2.91052,13.94954-6.52057,19.2487-12.40353a19.10571,19.10571,0,0,0-.46272-26.73734A45.88012,45.88012,0,0,0,182.0155,174.942a144.60205,144.60205,0,0,0-32.31561-11.44431A177.29493,177.29493,0,0,0,132.15982,159.31047Z" fill="#dd6d28"/><path d="M149.79655,231.82913q-7.99432,2.82032-15.98872,5.64055c-7.69652-1.84733-15.4507-3.468-23.01225-5.8457-7.94646-2.49874-15.94369-5.00181-22.91914-9.6651-10.01219-6.69344-15.92551-15.68715-14.31386-28.34288,1.11219-8.7337,5.92525-15.07614,13.11847-19.75394,8.45055-5.4954,17.98468-8.28594,27.64305-10.65387,5.90764-1.44836,11.88615-2.60772,17.83427-3.89728a177.09959,177.09959,0,0,1,17.54152,4.18681c-11.16271,2.885-22.08684,6.44334-32.36805,11.741a46.48547,46.48547,0,0,0-12.11107,8.55077,19.11976,19.11976,0,0,0-1.1137,26.15035c4.1343,4.98624,9.43923,8.36675,15.22107,11.06275C129.138,225.57678,139.50234,228.60823,149.79655,231.82913Z" fill="#040404"/><path d="M132.14648,61.91162a143.17891,143.17891,0,0,0,17.54084,5.18215c-.85174.22016-1.71164.41345-2.55427.66472-8.06757,2.40544-16.03269,5.05-22.76831,10.36911-8.88207,7.01416-9.58279,18.65842-1.65387,26.71634a36.12856,36.12856,0,0,0,8.97371,6.35846c5.612,2.99728,11.72595,4.62861,17.68393,6.68907a74.4926,74.4926,0,0,1-12.00718,2.89963c-8.416-2.26332-16.811-4.60322-24.74523-8.29554a35.59931,35.59931,0,0,1-10.43976-6.75466,20.59542,20.59542,0,0,1,.74826-30.50751c5.27571-4.75786,11.59753-7.66107,18.22817-9.93159C124.77911,64.06007,128.47949,63.03462,132.14648,61.91162Z" fill="#040404"/><path d="M167.67525,159.2775c-5.84748-.86534-11.66091-1.91561-17.42887-3.20942,5.43956-1.00019,10.76993-2.34479,15.60433-5.15682,8.46467-4.92362,8.886-13.58856.97842-19.39109-4.97775-3.65259-10.73176-5.57593-16.496-7.48561a55.71922,55.71922,0,0,1,12.15506-2.97164c6.84877,1.65944,13.66415,3.45658,19.77649,7.12545,6.9228,4.15536,9.48413,11.2302,6.49676,17.86581-2.06175,4.57959-5.99945,7.16489-10.3134,9.29319C174.99934,157.04884,171.23382,157.87889,167.67525,159.2775Z" fill="#040404"/><path d="M150.35358,240.54112c5.20953-1.32505,10.49681-2.25075,15.80345-3.07679,5.22492,2.56858,10.57607,4.90787,15.32955,8.33952,1.16865.84368,2.29926,1.74212,3.42086,2.64819,1.20536.97378,1.72744,2.23059.74489,3.55949-.96325,1.3028-2.35444,1.20142-3.66194.46263-1.32-.74586-2.5622-1.63059-3.88822-2.36461C169.41356,245.29994,160.02625,242.50387,150.35358,240.54112Z" fill="#040404"/><path d="M167.709,61.87963q-8.67966-1.82124-17.3597-3.64238c10.572-1.95787,20.99889-4.304,30.09973-10.51267,1.98856-1.3566,3.03166-.87478,4.00733,1.687C180.36555,55.427,173.97457,58.57137,167.709,61.87963Z" fill="#040404"/></svg>