<svg id="Layer_1" data-name="Layer 1" xmlns="http://www.w3.org/2000/svg" viewBox="0 0 300 300"><title>PLX_Mark_Light</title><path d="M106.1311,170.7476a19.6992,19.6992,0,0,1-19.352-15.95683,18.97167,18.97167,0,0,1,8.39508-19.26669,19.94521,19.94521,0,0,1,28.53562,7.18628,18.98506,18.98506,0,0,1-6.28562,24.5282A20.0738,20.0738,0,0,1,106.1311,170.7476ZM122.073,151.55214a15.92464,15.92464,0,1,0-31.84814.17c-.06453,8.30392,7.3635,15.58839,15.89887,15.59158A15.92867,15.92867,0,0,0,122.073,151.55214Z" fill="#4e4e4e"/><path d="M229.44953,133.54631c1.91874,0,3.55844-.00237,5.19815.00157.44045.00106.6615.35337.9221.62374q7.45141,7.73051,14.8944,15.46916a2.92724,2.92724,0,0,1,.274.41559,43.58948,43.58948,0,0,0,3.30132-3.34384q6.04722-6.26127,12.04323-12.57193a1.73305,1.73305,0,0,1,1.38712-.61441c1.49682.02963,2.99459.0099,4.75225.0099l-18.61647,19.39617c5.719,5.95713,11.399,11.87375,17.23663,17.95447H265.3075Q258.225,163.50921,250.84,155.81666q-7.33676,7.637-14.49635,15.08958h-5.53725c5.84932-6.09163,11.52372-12.00108,17.26865-17.984Z" fill="#5fa185"/><path d="M61.00656,170.80613H57.2585V133.69838a1.33888,1.33888,0,0,1,.27785-.06044c4.53731.06562,9.07774-.173,13.61228.19874,5.98472.49069,10.23927,4.30544,11.18742,10.08522a11.27644,11.27644,0,0,1-9.787,12.937,1.59273,1.59273,0,0,0-.97787.27425q2.55732,3.3911,5.1014,6.76314c1.70551,2.25475,3.41684,4.50509,5.19753,6.85215H77.11079L64.50495,153.92185c1.61975,0,3.01374.02157,4.4068-.00523a11.6412,11.6412,0,0,0,5.54-1.26553,8.15522,8.15522,0,0,0-2.00531-15.08437,15.75554,15.75554,0,0,0-4.19565-.5115c-2.38428-.01058-4.76865-.0029-7.24426-.0029Z" fill="#4e4e4e"/><path d="M180.78084,170.8027h-4.13137q-2.65654-6.17729-5.33294-12.40071H154.048q-2.67127,6.15219-5.38273,12.39692h-3.93654l15.854-37.131h4.24868Q172.7851,152.18629,180.78084,170.8027Zm-18.05158-32.83887-7.20874,16.91152h14.27433Z" fill="#4e4e4e"/><path d="M31.5082,155.88575v14.87567H27.778V133.74583c.1917-.18185.409-.11145.60408-.11125,3.8026.004,7.60619-.03618,11.40747.03915,3.229.064,6.36928.60991,8.88233,2.86438a10.55556,10.55556,0,0,1,3.21282,11.3321c-1.15355,4.22924-4.13971,6.66556-8.38392,7.55306-3.25926.68154-6.574.41878-9.86922.46122C32.95711,155.89317,32.28249,155.88575,31.5082,155.88575Zm.025-18.87031v15.44922c3.55032-.12307,7.05987.2662,10.53651-.26a7.44881,7.44881,0,0,0,4.58413-2.4472,7.23037,7.23037,0,0,0,1.36331-7.82634c-1.13225-2.91732-3.53417-4.34269-6.52637-4.7115A98.59565,98.59565,0,0,0,31.53315,137.01544Z" fill="#4e4e4e"/><path d="M240.87074,153.00438q-8.7083,9.04571-17.2516,17.92009h-5.20827l-.13865-.18975c5.6699-5.90107,11.33982-11.80213,17.09329-17.79016-6.14986-6.40883-12.27162-12.7884-18.46257-19.24.71786-.342,1.33969-.10641,1.9203-.20857,2.40445-.423,4.06379.55376,5.70738,2.33941,5.22281,5.67427,10.639,11.17038,15.97941,16.73643C240.6099,152.6759,240.69574,152.79353,240.87074,153.00438Z" fill="#5fa185"/><path d="M135.66235,137.03586h-8.5129v-3.35412H147.8158v3.29448h-8.3942v33.80287h-3.75925Z" fill="#4e4e4e"/><path d="M204.49935,167.404v3.35866H185.43053V133.68134h3.69892V167.404Z" fill="#4e4e4e"/><path d="M208.349,133.65912h3.667v37.09757h-3.667Z" fill="#4e4e4e"/></svg>