<svg id="Layer_1" data-name="Layer 1" xmlns="http://www.w3.org/2000/svg" viewBox="0 0 300 300"><path d="M25.15,119.51h1.06c7.12,0,14.25,0,21.37,0a18.47,18.47,0,0,1,8.07,1.7,13.51,13.51,0,0,1,7.63,9.37,18.27,18.27,0,0,1-.36,10.26c-1.75,5.23-5.59,8.15-10.83,9.33a25.82,25.82,0,0,1-5.05.51c-3.31.08-6.63,0-9.94,0H35.72c-.07,1.51,0,2.94,0,4.37s0,2.9,0,4.35V168H25.2C25,167.17,24.91,121.31,25.15,119.51Zm10.62,22.78c.31,0,.54.08.78.09,2.77,0,5.55,0,8.32,0a16.74,16.74,0,0,0,3.07-.31c2.74-.53,4.73-2,5.3-4.86a12.3,12.3,0,0,0,.11-3.43,5.6,5.6,0,0,0-3.87-5.12,12.07,12.07,0,0,0-3.62-.72c-3.14-.11-6.28-.07-9.42-.07a3,3,0,0,0-.67.14Z" fill="#22254a"/><path d="M121.85,133h9.84c-.1.34-.17.64-.28.93q-7.17,19.26-14.35,38.52a22.15,22.15,0,0,1-1.29,2.8,9.62,9.62,0,0,1-7.41,5,36.32,36.32,0,0,1-9.26-.08,42.3,42.3,0,0,1-.09-7.93c.92.08,1.85.17,2.78.24a23,23,0,0,0,2.48.1,4.08,4.08,0,0,0,4.06-4,7.38,7.38,0,0,0-.6-3.14q-5.24-14-10.46-27.94L95.6,133h10.31l7.88,23.81a.48.48,0,0,0,.16,0l.1-.05s.07-.06.08-.1a3.62,3.62,0,0,0,.13-.35q3.7-11.53,7.42-23.09a.37.37,0,0,1,0-.11S121.78,133,121.85,133Z" fill="#22254a"/><path d="M96.24,143.16H87.15c-.08-.32-.18-.63-.24-.95a4,4,0,0,0-2.61-3.07,11.66,11.66,0,0,0-6.46-.45,4.53,4.53,0,0,0-1,.37,2.8,2.8,0,0,0-.44,5A8.82,8.82,0,0,0,79,145.29c2.43.66,4.91,1.12,7.35,1.77a40.63,40.63,0,0,1,5.41,1.75c2.62,1.13,4.67,3,5.2,5.9,1,5.34-1.11,10.17-6.42,12.62a18.13,18.13,0,0,1-5.24,1.43,28.08,28.08,0,0,1-11.68-.71,12.1,12.1,0,0,1-8-6.35,11.05,11.05,0,0,1-1-4.79,59.84,59.84,0,0,1,9-.09,1.5,1.5,0,0,1,.1.32,5.74,5.74,0,0,0,4.56,5.1,9.84,9.84,0,0,0,5.86-.06,5.38,5.38,0,0,0,2.58-1.65,3.22,3.22,0,0,0-.7-4.93,6.86,6.86,0,0,0-1.9-.89c-2.83-.78-5.68-1.47-8.5-2.26q-2.62-.73-5.18-1.69a8.6,8.6,0,0,1-3.13-2.18,7.73,7.73,0,0,1-1.91-6.44c.58-5.17,3.54-8.31,8.85-9.47a28.52,28.52,0,0,1,12.67,0,12.06,12.06,0,0,1,7.38,4.67A11.18,11.18,0,0,1,96.24,143.16Z" fill="#22254a"/><path d="M156.37,157.22h7.31a14.41,14.41,0,0,1-6.42,9.29,16.16,16.16,0,0,1-7.21,2.46,18.92,18.92,0,0,1-10.53-1.62,14.47,14.47,0,0,1-7.33-7.75,22.11,22.11,0,0,1,0-17.37,15.71,15.71,0,0,1,10.54-9.58c8.76-2.44,17.21,1.69,20.44,10.52a18.4,18.4,0,0,1,1.08,8.76c0,.16-.08.32-.14.6H138.4a6.55,6.55,0,0,0,.2,3.05c.78,3.31,2.56,5.82,5.91,6.91a10.84,10.84,0,0,0,7.07-.13,7.23,7.23,0,0,0,3.94-3.42C155.82,158.4,156.07,157.83,156.37,157.22Zm0-9.84c-.38-3.66-1.73-6.65-5.06-8.34a8.56,8.56,0,0,0-9.45.94c-2.3,1.67-3.88,5.21-3.41,7.4Z" fill="#22254a"/><path d="M196.52,168.05h-5.78v-1.49q0-10.92,0-21.83a13.07,13.07,0,0,0-.15-2,6.12,6.12,0,0,0-5.12-5.35,11.59,11.59,0,0,0-6.35.57,9.29,9.29,0,0,0-5.7,7.28,13.91,13.91,0,0,0-.28,3c0,6.12,0,12.24,0,18.35v1.52c-1.93.06-3.81,0-5.78,0V133h5.32v5.31c.64-.17.76-.64,1-1a11.38,11.38,0,0,1,6.89-4.74,16.68,16.68,0,0,1,8.59.15c4.23,1.23,6.5,4.22,7.08,8.5a32.87,32.87,0,0,1,.28,4.32c0,7,0,14.06,0,21.08Z" fill="#22254a"/><path d="M230.25,144h-4.11c-.19-.6-.35-1.19-.57-1.76-1-2.61-2.44-4.82-5.15-5.87a11.42,11.42,0,0,0-12.54,2.77,15.82,15.82,0,0,0-3.86,8.31,18.53,18.53,0,0,0,1.39,10.89,11.94,11.94,0,0,0,6.39,6.45,10.42,10.42,0,0,0,14.3-7.52c.12-.53.22-1.05.35-1.71h4.19c-.13.8-.2,1.44-.35,2.07-1,4.19-3,7.65-6.92,9.82a13.32,13.32,0,0,1-5.06,1.56c-5.34.55-10.12-.69-13.94-4.65a17,17,0,0,1-4.28-8.27,23.37,23.37,0,0,1,.7-13.3c2.05-5.61,5.94-9.29,11.89-10.45a16,16,0,0,1,12.48,2.26c3.17,2.14,4.64,5.27,5.14,9A1.76,1.76,0,0,1,230.25,144Z" fill="#22254a"/><path d="M264.57,151H236.23c0,5,1.12,9.53,5,13a10.78,10.78,0,0,0,6.9,2.74,16.66,16.66,0,0,0,4.93-.37,11.18,11.18,0,0,0,7.58-6.6c.49-1,.81-2.16,1.25-3.34h2.45a15.93,15.93,0,0,1-1.6,5,13.16,13.16,0,0,1-11.24,7.45,18.68,18.68,0,0,1-6.66-.37,13.81,13.81,0,0,1-9.71-9,24.31,24.31,0,0,1-1.36-10.6,21.37,21.37,0,0,1,2.37-8.65,13.85,13.85,0,0,1,9.3-7.43c5.08-1.15,9.89-.55,14,3.05a15.85,15.85,0,0,1,4.72,8.27A20.58,20.58,0,0,1,264.57,151Zm-28.3-2.3h25.54a1.08,1.08,0,0,0,.13-.29,4.14,4.14,0,0,0,0-.61,17.12,17.12,0,0,0-1.52-6.09,12.08,12.08,0,0,0-17.25-5.49C238.45,138.94,236.88,143.47,236.27,148.68Z" fill="#22254a"/><path d="M274.34,137.89v-3.58l-.2,0-1.67,3.78c-1-1.3-1.18-2.67-1.87-3.78l-.27.07v3.48c-.26-.14-.44-.19-.44-.25-.21-1.72-.06-3.43-.1-5.16l.73-.06,1.87,4.23c.68-1.55,1.24-2.85,1.82-4.18H275c0,1.74.11,3.45-.09,5.17C274.88,137.63,274.7,137.68,274.34,137.89Z" fill="#22254a"/><path d="M267.21,133c0,1.63-.06,3.17-.09,4.7l-.27,0c-.1-.18-.27-.36-.28-.54,0-.91,0-1.81,0-2.71v-1.41l-1.91-.31c.76-.59,3.44-.62,4.47-.07-.37.1-.61.18-.86.22S267.68,133,267.21,133Z" fill="#22254a"/></svg>