<svg id="Layer_1" data-name="Layer 1" xmlns="http://www.w3.org/2000/svg" xmlns:xlink="http://www.w3.org/1999/xlink" viewBox="0 0 300 300"><defs><linearGradient id="linear-gradient" x1="287.70144" y1="150" x2="67.89912" y2="150" gradientUnits="userSpaceOnUse"><stop offset="0" stop-color="#06cbe4"/><stop offset="0.62" stop-color="#005c75"/><stop offset="1" stop-color="#005c75"/></linearGradient><linearGradient id="linear-gradient-2" x1="287.70626" y1="142.15499" x2="67.87822" y2="142.15499" xlink:href="#linear-gradient"/><linearGradient id="linear-gradient-3" x1="287.70626" y1="165.43232" x2="67.89884" y2="165.43232" xlink:href="#linear-gradient"/></defs><path d="M255.0012,181.38271v-56h32.334a115.491,115.491,0,1,0-1.388,54.94088l-.57184,1.05912Zm-140-24.49391c0,32.66256-49,32.66256-49,0V125.38271H76.349v32.88175a14.15218,14.15218,0,0,0,28.30435,0V125.38271H115.0012Zm38.78592,24.56695L136.29366,156.8888v-4.48c5.17391-.99827,14.68121-3.287,14.68121-11.2,0-2.447-1.33865-6.30608-7.27938-6.70784H129.0012v46.88175H118.58026v-55.927h28c5.32014,0,14.97427,2.59305,15.3761,14.913.21875,7.84-6.01444,13.927-13.16007,16.52l18.01715,24.56695Zm35.913-19.393-1.67986-9.11825c5.04017-.93742,14.32872-3.9809,14.32872-11.88175,0-2.37393-1.30239-6.233-7.13374-6.70784h-14.195v47.02783H171.0012v-56H198.015c5.17391,0,14.54806,2.58086,14.98616,14.84C213.47615,155.59837,200.37671,159.68879,189.70016,162.06272Zm61.11328,19.32H217.33518v-56h9.666v46.48h23.81224Z" fill-rule="evenodd" fill="url(#linear-gradient)"/><path d="M10,125.383v56H20.024V134.35232H34.21067c5.83333.476,7.14,4.34,7.14,6.71067,0,7.90533-9.296,10.93866-14.32667,11.88132l1.68,9.11868c10.752-2.37067,23.772-6.45866,23.296-21.84-.43867-12.25467-9.80933-14.84-14.98-14.84Z" fill="#005c75"/><polygon points="118.58 125.383 118.58 125.456 118.495 125.456 118.58 125.383" fill="none" fill-rule="evenodd"/><path d="M289.08534,135.267A131.13625,131.13625,0,0,1,290,149.043H265.57466V135.267Z" fill-rule="evenodd" fill="url(#linear-gradient-2)"/><path d="M289.636,159.00165H265.57466v12.936h22.30666A109.02453,109.02453,0,0,0,289.636,158.927Z" fill-rule="evenodd" fill="url(#linear-gradient-3)"/><path d="M215.296,188.383v14h9.66v-2.52h-6.85066v-3.5H224.956v-2.51066h-6.85066V190.903H224.956v-2.52Zm24.724,0h2.8v5.46933h6.496v-5.25466h2.8V202.383h-2.8v-6.02H242.82v5.80533h-2.8Zm-37.66934,0v2.52h4.088v11.48h2.772v-11.48H213.364v-2.52Zm-19.53465,0h2.87465v14H182.816Zm-10.06135,2.296H175.956a1.484,1.484,0,0,1,1.60533,1.49333c0,1.02667-.87734,2.08133-2.772,2.296V196.363c1.092,0,3.5.40135,3.42534,2.08133,0,1.568-1.596,1.89468-2.436,1.82h-3.024Zm-2.884-2.296v14h7a3.98877,3.98877,0,0,0,3.71468-3.864c0-2.22134-1.30668-3.35068-2.10933-3.5a3.56545,3.56545,0,0,0,2.10933-3.28534,3.40174,3.40174,0,0,0-3.276-3.35066Z" fill="#06cbe5"/><path d="M194.80934,199.863c2.072,0,3.752-2.03467,3.752-4.48s-1.68-4.48-3.752-4.48c-2.11868,0-3.724,2.03467-3.724,4.48S192.76534,199.863,194.80934,199.863Zm0,2.52c3.5,0,6.30932-3.136,6.30932-7s-2.80932-7-6.30932-7-6.30934,3.136-6.30934,7S191.30934,202.383,194.80934,202.383Z" fill="#06cbe5" fill-rule="evenodd"/><path d="M237.06133,200.48833a5.70761,5.70761,0,0,1-4.19067,1.89466c-3.5,0-6.23466-3.136-6.23466-7s2.80933-7,6.23466-7a5.49138,5.49138,0,0,1,4.26534,1.96933l-1.68,1.89466a3.382,3.382,0,0,0-2.66-1.344c-2.00667,0-3.612,2.03467-3.612,4.48s1.60534,4.48,3.612,4.48a3.4031,3.4031,0,0,0,2.25867-.90533l2.08133,1.53068Z" fill="#06cbe5"/></svg>