<svg id="Layer_1" data-name="Layer 1" xmlns="http://www.w3.org/2000/svg" viewBox="0 0 300 300"><title>QTTB_Mark_Light</title><path id="Layer" d="M110.98758,59.5296a99.96843,99.96843,0,0,1,31.20076-7.7411c4.78649,0,9.573.05909,14.35945,0a98.49528,98.49528,0,0,1,39.5328,11.22755c8.4502,4.72739,16.605,10.28207,23.28239,17.43225a76.28264,76.28264,0,0,1,11.70028,14.064,96.12261,96.12261,0,0,1,16.664,45.97386c.53183,2.24551,0,4.55011.35456,6.79562a11.28077,11.28077,0,0,1,0,5.4365c-.35456,2.36369.17727,4.78648-.41365,7.15018a97.15359,97.15359,0,0,1-10.8139,36.16452c-3.07281,5.43651-6.26379,10.873-10.45935,15.60039-1.95005-2.12733-4.37284-3.72282-6.32289-5.85015-2.18643-1.5955-3.9001-3.72281-6.08651-5.31831-1.53641-1.65459-3.36827-2.95462-5.02285-4.491a38.45251,38.45251,0,0,1,2.541-3.78191,76.21005,76.21005,0,0,0,13.23669-39.651c-.0591-2.60006.23636-5.20013-.29546-7.80019a71.773,71.773,0,0,0-18.08227-42.78288c-2.12733-2.89552-5.02285-4.96375-7.62291-7.32745a74.90967,74.90967,0,0,0-44.31928-16.605c-3.66372.11818-7.38654-.35456-10.99118.35455-19.50048,1.77277-38.41,11.5821-50.34669,27.18249a72.70522,72.70522,0,0,0-14.7731,36.4009c-.05909,1.83187-.53183,3.66372-.47273,5.49559.11818,3.54554-.23637,7.09109.41364,10.57753a75.30059,75.30059,0,0,0,15.77767,39.71007,72.48008,72.48008,0,0,0,26.41428,20.56414,73.67844,73.67844,0,0,0,20.85961,5.85014c2.06823.47273,4.31374.23636,6.382.70911a37.20311,37.20311,0,0,0,8.50929-.29546,64.70264,64.70264,0,0,0,15.00946-2.42279,69.12727,69.12727,0,0,0,17.96408-7.7411c1.83186-1.12276,3.54554-2.48189,5.43649-3.48645.53183.0591.82729.59092,1.24095.88639,5.02285,5.141,10.16388,10.16389,15.18673,15.24582A96.85942,96.85942,0,0,1,159.266,247.916a21.77649,21.77649,0,0,1-4.37284.29546c-4.13646-.0591-8.21383,0-12.29121,0a100.67324,100.67324,0,0,1-29.48709-6.85472,97.84087,97.84087,0,0,1-27.8325-17.07769,48.95134,48.95134,0,0,1-4.78648-4.491,95.48132,95.48132,0,0,1-25.05517-41.8374,101.815,101.815,0,0,1-3.30917-15.71857c0-1.95005-.65-3.9001-.53183-5.90924.05909-4.491,0-9.04113,0-13.53215a108.03534,108.03534,0,0,1,3.42736-19.44139,99.47993,99.47993,0,0,1,22.4551-40.18281C80.4959,80.271,83.33233,77.13909,86.6415,74.539A96.62473,96.62473,0,0,1,110.98758,59.5296Z" fill="#1b3665"/><g id="_8eb73fff" data-name="#8eb73fff"><path id="Layer-2" data-name="Layer" d="M142.83836,101.89883a47.69768,47.69768,0,0,1,36.75545,8.56839,45.68729,45.68729,0,0,1,12.82305,15.06855,32.57391,32.57391,0,0,1,3.36826,8.15475,44.53439,44.53439,0,0,1,2.541,12.70486c.7682,3.841-.05909,7.7411-.29546,11.5821-1.24094,7.20927-3.48645,14.41854-7.62291,20.505-5.141-4.78648-9.86842-10.0457-15.00946-14.83218-.47274-.59093-1.00457.05909-1.35913.41364-4.31374,5.02285-8.982,9.75024-13.35487,14.714l7.44564,7.44564a66.76484,66.76484,0,0,1,8.03656,7.80019c-2.42279,2.12733-5.43649,3.25008-8.39111,4.491a44.26018,44.26018,0,0,1-13.23669,2.89552,20.081,20.081,0,0,1-7.032.05909,45.65876,45.65876,0,0,1-17.78681-5.082,50.68624,50.68624,0,0,1-11.46392-8.50929,52.07344,52.07344,0,0,1-12.70486-24.10969c-1.24094-6.08652-2.12732-12.3503-1.24094-18.49591a54.37919,54.37919,0,0,1,5.20013-18.67319c2.3637-4.13647,4.84557-8.27294,8.332-11.523a44.55414,44.55414,0,0,1,24.99606-13.17757Z" fill="#8eb73f"/></g></svg>