<svg id="Layer_1" data-name="Layer 1" xmlns="http://www.w3.org/2000/svg" viewBox="0 0 300 300"><defs><style>.cls-1{fill:#2e94b2;}.cls-2{fill:#2f99b9;}.cls-3{fill:#2a84a0;}.cls-4{fill:#287a95;}.cls-5{fill:#2b8ba8;}.cls-6{fill:#2b91af;}.cls-7{fill:#26657c;}.cls-8{fill:#267089;}.cls-9{fill:#266981;}.cls-10{fill:#48c1bf;}.cls-11{fill:#e53037;}</style></defs><path class="cls-1" d="M53.55,187a43.16,43.16,0,0,1-4.76-15.75,2.75,2.75,0,0,0,1-3.25c-3.13-8.85,1.07-16,5.5-22.93Q79.48,107.21,104,69.61c4.62-7,8-15.66,17.85-17.59.33-.07.47-1,.71-1.57,9-1.36,17.72-4.86,27.06-3.56-.9,2-2.75,2.41-4.54,2.06-6.25-1.22-10.05,2.31-13.87,6.4-2.13,2.26-3.29,5-4.92,7.49q-13.59,20.76-27,41.62c-1.79,2.78-3.42,5.54,1.78,6.37l-5,4.81c-2.36-.2-3.58,1.55-5,3C77,132.91,68.66,149.91,66.79,170c-2.78-.27-4.42,1.26-5.87,3.42A87.39,87.39,0,0,0,53.55,187Z"/><path class="cls-1" d="M172.17,250.69c-10.8,2.33-21.64,3.87-32.66,1.57,3.4-2.41,7.27-.67,10.88-1.21,5.81.15,11.47.6,15.58-5.17,11.73-16.46,22.11-33.77,32.92-50.81,2.71-4.28-.47-4.59-3.67-4.5,3.05-2.26,6.4-4.17,8.63-7.38l1-1.21-.1.11,1.31-1.31-.12,0c5.31-1.31,7.87-5.84,10.95-9.63,8.35-10.27,12.78-22.36,15.68-35.11,4.11,2.67,6.05-.39,8.33-3,2.79-3.23,3.47-8,7.53-10.26.29,5.71,3,10.92,2,17.09-1,6.76-4.63,11.84-8,17.12-15.89,25-32,49.88-48.11,74.75-5,7.7-9.73,15.82-20.3,16.87C172.91,248.76,172.39,249.62,172.17,250.69Z"/><path class="cls-2" d="M172.17,250.69c.22-1.07.74-1.93,1.89-2.05,10.57-1,15.31-9.17,20.3-16.87C210.47,206.9,226.58,182,242.47,157c3.36-5.28,7-10.36,8-17.12.94-6.17-1.75-11.38-2-17.09l1.26,0c7.18,23.7,5.19,46.94-5,69.21C230.39,223.46,206,243.05,172.17,250.69Z"/><path class="cls-2" d="M122.57,50.45c-.24.54-.38,1.5-.71,1.57C112,54,108.63,62.57,104,69.61Q79.39,107.14,55.3,145c-4.43,6.92-8.63,14.08-5.5,22.93a2.75,2.75,0,0,1-1,3.25c-5.68-23.67-2.43-46.35,8.5-67.79C71.15,76.23,93,58.45,122.57,50.45Z"/><path class="cls-3" d="M126.15,249.94l-2.36-.37c-.35-1.67-.91-2.73-2.47-.84a59.32,59.32,0,0,1-20.62-8.37c8-12.07,16.15-24.11,24.11-36.25,1.62-2.47,3.06-5.19,2.58-8.4a124,124,0,0,0,19.37,4.9c1.25,3,3,2.51,4.92.67l8.37.05c2.16,3.3-.24,5.83-1.74,8.2-6.09,9.63-12.37,19.13-18.67,28.62C136.23,243.28,133.76,249.57,126.15,249.94Z"/><path class="cls-4" d="M214.53,69.58l1.28,1-1.29,3.82a4,4,0,0,0-3.43,2c-5.19,8-10.63,15.92-15.56,24.12-2.53,4.22-6.8,8.23-4.1,14.09a130.15,130.15,0,0,0-22.93-12.26c-.2-3.22,1.47-5.83,3.05-8.34,4.59-7.27,9.38-14.41,14-21.63,3.24-5,6.4-10,9.59-15a39.47,39.47,0,0,1,12.21,6.9c.22,1.29,1.16,1.6,2.28,1.65l2.42,1.61A2.13,2.13,0,0,0,214.53,69.58Z"/><path class="cls-5" d="M162.5,47.78a46.53,46.53,0,0,1,17,3.54c-5.26,1.62-8.37,5.46-11.13,10-5.72,9.41-11.61,18.72-17.79,27.83-2.16,3.17-2.77,6-1.38,9.46-6.44.65-13-.5-19.36,1.17a3.47,3.47,0,0,0-2.64-1.15c-1.47-.19-3.18,2-4.31-.16-.93-1.79.16-3.59,1.15-5.09,9-13.77,18.14-27.49,27.16-41.26,1-1.58,1.89-3.12,4.05-3.11C157.66,48.61,160.38,50,162.5,47.78Z"/><path class="cls-3" d="M149.19,98.61c-1.39-3.43-.78-6.29,1.38-9.46,6.18-9.11,12.07-18.42,17.79-27.83,2.76-4.54,5.87-8.38,11.13-10a45.82,45.82,0,0,1,15.7,6.08c-3.19,5-6.35,10.05-9.59,15-4.67,7.22-9.46,14.36-14,21.63-1.58,2.51-3.25,5.12-3.05,8.34l-13.25-2.93c-.8-2.59-2.06-2.68-3.71-.69Z"/><path class="cls-6" d="M155.24,49c-2.16,0-3,1.53-4.05,3.11-9,13.77-18.13,27.49-27.16,41.26-1,1.5-2.08,3.3-1.15,5.09,1.13,2.17,2.84,0,4.31.16a3.47,3.47,0,0,1,2.64,1.15c-5.12,1.64-10.22,3.37-15.37,4.92-4.77,1.43-8.37,5.38-13.43,6.13-5.2-.83-3.57-3.59-1.78-6.37q13.5-20.82,27.05-41.62c1.63-2.49,2.79-5.23,4.92-7.49,3.82-4.09,7.62-7.62,13.87-6.4,1.79.35,3.64,0,4.54-2.06l5.49.06Z"/><path class="cls-4" d="M127.39,195.71c.48,3.21-1,5.93-2.58,8.4-8,12.14-16.06,24.18-24.11,36.25a37.23,37.23,0,0,1-10.79-6.58c-.16-1.57-1.13-2.11-2.58-2l-2.25-1.64c-.14-1-.47-1.82-1.74-1.58h0l.51-5.3c2.23,0,4.09-.06,5.57-2.45,4.64-7.46,9.91-14.53,14.37-22.1,2.35-4,6.28-7.54,5.49-12.95C115.18,189.27,121,193.06,127.39,195.71Z"/><path class="cls-5" d="M126.15,249.94c7.61-.37,10.08-6.66,13.49-11.79,6.3-9.49,12.58-19,18.67-28.62,1.5-2.37,3.9-4.9,1.74-8.2l14.56-2.26c6.53,1,5.87,3.73,2.63,8.31-4.59,6.49-8.58,13.41-13,20.06-5,7.6-10.71,14.89-13.88,23.61-3.61.54-7.48-1.2-10.88,1.21A31.49,31.49,0,0,1,126.15,249.94Z"/><path class="cls-6" d="M53.55,187a87.39,87.39,0,0,1,7.37-13.54c1.45-2.16,3.09-3.69,5.87-3.42.68,4.84-1.08,9.88,1.18,14.6-.55,4.52,1.33,8.78,1.34,13.24l-6.51,7.45a12.42,12.42,0,0,1-3.33-5.73c-.18-3.09-1.14-5.78-3.78-7.65l.1.11a2.22,2.22,0,0,0-1.29-2.74Z"/><path class="cls-6" d="M249.68,122.79l-1.26,0c-4.06,2.28-4.74,7-7.53,10.26-2.28,2.62-4.22,5.68-8.33,3,.06-2,.13-4,.2-6,.15-.11.43-.25.42-.32a6,6,0,0,0-.38-.87c0-3.63,0-7.26,0-10.88,6.27-2.34,8.59-7.57,9.91-13.54a16.81,16.81,0,0,1,3.36,7.46c-2.22,2.19-.11,2.77,1.34,3.6a2.49,2.49,0,0,1,.92,2.48c-1.3,1.34-.75,2,.84,2.2C249.32,121.06,249.5,121.92,249.68,122.79Z"/><path class="cls-5" d="M242.67,104.45c-1.32,6-3.64,11.2-9.91,13.54-.16-1.31.11-2.76-1.21-3.69.79-6.44-2.7-12-3.73-18.07,2.52-2,4.75-4.21,5-7.69a10.22,10.22,0,0,1,3.55,5c-.12,1.42.3,2.46,1.88,2.69,1.29,1.72,2.61,3.44,3,5.65-.1,1.18,0,2.26,1.36,2.69Z"/><path class="cls-5" d="M62.8,205.28l6.51-7.45c2.21,2.51,2.15,6.29,4.81,8.54,1,6.88,5.68,11.71,9.69,16.88l-.51,5.3a61.25,61.25,0,0,1-15.29-16c.12-1.51-.42-2.52-2.07-2.67C64.9,208.37,63.85,206.83,62.8,205.28Z"/><path class="cls-3" d="M232.86,88.54c-.29,3.48-2.52,5.67-5,7.69a2.65,2.65,0,0,1-1.24-2.43c-3-7.09-7.38-13.33-12.06-19.37l1.29-3.82,2.51,2c.08,1.27.94,1.7,2,1.87l.14.13c.17,1,.48,1.89,1.76,1.87l-.13-.1a1.16,1.16,0,0,0,1.31,1.3l-.1-.09a1.16,1.16,0,0,0,1.31,1.3l-.1-.11c0,1.26.82,1.58,1.82,1.76l.16.18c.09,1.8.38,3.43,2.79,3.25A9.48,9.48,0,0,1,232.86,88.54Z"/><path class="cls-1" d="M155.24,49,155.12,47a13.13,13.13,0,0,1,7.38.83C160.38,50,157.66,48.61,155.24,49Z"/><path class="cls-1" d="M55.69,191.9c2.64,1.87,3.6,4.56,3.78,7.65A15.42,15.42,0,0,1,55.69,191.9Z"/><path class="cls-2" d="M247.37,115.51c-1.45-.83-3.56-1.41-1.34-3.6A4.29,4.29,0,0,1,247.37,115.51Z"/><path class="cls-5" d="M229.31,84c-2.41.18-2.7-1.45-2.79-3.25A5.6,5.6,0,0,1,229.31,84Z"/><path class="cls-5" d="M121.32,248.73c1.56-1.89,2.12-.83,2.47.84A2.44,2.44,0,0,1,121.32,248.73Z"/><path class="cls-3" d="M214.53,69.58a2.13,2.13,0,0,1-2.43-2Z"/><path class="cls-6" d="M65.94,209.92c1.65.15,2.19,1.16,2.07,2.67Z"/><path class="cls-5" d="M87.33,231.76c1.45-.09,2.42.45,2.58,2Z"/><path class="cls-6" d="M238.29,96.21c-1.58-.23-2-1.27-1.88-2.69Z"/><path class="cls-3" d="M209.68,66c-1.12,0-2.06-.36-2.28-1.65Z"/><path class="cls-5" d="M220.35,74.51c-1.09-.17-1.95-.6-2-1.87Z"/><path class="cls-5" d="M222.25,76.51c-1.28,0-1.59-.86-1.76-1.87Z"/><path class="cls-5" d="M226.36,80.57c-1-.18-1.86-.5-1.82-1.76Z"/><path class="cls-6" d="M242.66,104.55c-1.37-.43-1.46-1.51-1.36-2.69A3.16,3.16,0,0,1,242.66,104.55Z"/><path class="cls-2" d="M249.13,120.19c-1.59-.23-2.14-.86-.84-2.2Z"/><path class="cls-5" d="M83.34,228.54c1.27-.24,1.6.56,1.74,1.58Z"/><path class="cls-1" d="M54.5,189.27A2.22,2.22,0,0,1,55.79,192C54.72,191.4,54.65,190.31,54.5,189.27Z"/><path class="cls-5" d="M224.64,78.92a1.16,1.16,0,0,1-1.31-1.3Z"/><path class="cls-5" d="M223.43,77.71a1.16,1.16,0,0,1-1.31-1.3Z"/><path class="cls-7" d="M86,151.85c.2,1.17.39,2.34.59,3.51-2,6.43-5.92,11.89-9.86,17-3.07,4-3.31,10-8.72,12.22-2.26-4.72-.5-9.76-1.18-14.6C68.66,149.91,77,132.91,91.08,118.6c1.38-1.41,2.6-3.16,5-3-4,7.36-9,14.28-10.17,22.89-3,1.25-2.47,3-.68,4.9v2.31C83.32,148,82.56,150.21,86,151.85Z"/><path class="cls-6" d="M174.61,199.07c7-2.58,14.06-4.89,20.61-8.5,3.2-.09,6.38.22,3.67,4.5-10.81,17-21.19,34.35-32.92,50.81-4.11,5.77-9.77,5.32-15.58,5.17,3.17-8.72,8.87-16,13.88-23.61,4.39-6.65,8.38-13.57,13-20.06C180.48,202.8,181.14,200.07,174.61,199.07Z"/><path class="cls-7" d="M213.56,145.79l-.41-2.34c.45-4.25,2.78-7.81,5.18-10.95,4.57-6,6.63-13.74,13.22-18.2,1.32.93,1,2.38,1.21,3.69,0,3.62,0,7.25,0,10.88a3.66,3.66,0,0,0,0,1.19c-.07,2-.14,4-.2,6-2.9,12.75-7.33,24.84-15.68,35.11-3.08,3.79-5.64,8.32-10.95,9.63,6.47-9.87,9.64-20.59,8.26-32.46C216.37,146.92,215.46,146.24,213.56,145.79Z"/><path class="cls-7" d="M204.74,182.09l1.31-1.31Z"/><path class="cls-7" d="M203.85,183.19c-.1-.76.34-1.06,1-1.21Z"/><path class="cls-5" d="M146.76,200.61a7.42,7.42,0,0,1,4.92.67C149.75,203.12,148,203.64,146.76,200.61Z"/><path class="cls-8" d="M202.61,125.17l-11.18-10.5c-2.7-5.86,1.57-9.87,4.1-14.09,4.93-8.2,10.37-16.08,15.56-24.12a4,4,0,0,1,3.43-2c4.68,6,9,12.28,12.06,19.37a3.53,3.53,0,0,0-3.08,1.58c-4.86,7.61-9.73,15.21-14.53,22.86C207.26,121,205.88,123.92,202.61,125.17Z"/><path class="cls-5" d="M155.25,99.48a4.34,4.34,0,0,1-3.71-.69C153.19,96.8,154.45,96.89,155.25,99.48Z"/><path class="cls-8" d="M96.34,173.46l12.9,12.29c.79,5.41-3.14,9-5.49,12.95-4.46,7.57-9.73,14.64-14.37,22.1-1.48,2.39-3.34,2.49-5.57,2.45-4-5.17-8.64-10-9.69-16.88,3-4.7,5.69-9.58,9-14.05C87.64,186.12,90.79,179,96.34,173.46Z"/><path class="cls-9" d="M96.34,173.46c-5.55,5.49-8.7,12.66-13.25,18.86-3.28,4.47-6,9.35-9,14.05-2.66-2.25-2.6-6-4.81-8.54,0-4.46-1.89-8.72-1.34-13.24,5.41-2.2,5.65-8.24,8.72-12.22,3.94-5.12,7.91-10.58,9.86-17A68.67,68.67,0,0,0,96.34,173.46Z"/><path class="cls-5" d="M232.76,130.06a3.66,3.66,0,0,1,0-1.19,6,6,0,0,1,.38.87C233.19,129.81,232.91,130,232.76,130.06Z"/><path class="cls-9" d="M202.61,125.17c3.27-1.25,4.65-4.21,6.36-6.93,4.8-7.65,9.67-15.25,14.53-22.86a3.53,3.53,0,0,1,3.08-1.58,2.65,2.65,0,0,0,1.24,2.43c1,6.07,4.52,11.63,3.73,18.07-6.59,4.46-8.65,12.25-13.22,18.2-2.4,3.14-4.73,6.7-5.18,10.95A73.83,73.83,0,0,0,202.61,125.17Z"/><path class="cls-10" d="M146.59,159.71l4-19.86,3.33.54q-2.22,10-4.43,19.92Z"/><path class="cls-11" d="M165,145.68c-2.49-3-3.44-6.09.77-8.32a4,4,0,0,1,5.66,1.81c1.89,3.53,0,5.6-3.13,7Z"/><path class="cls-11" d="M134.89,154.22c2.81,4.55,2.33,7.67-1.39,8.51a4.22,4.22,0,0,1-5.33-2.76c-1.32-3.5.93-5.14,3.68-6.41Z"/><path class="cls-10" d="M134.89,154.22l-3-.66q1.85-8.44,3.68-16.89l2.89.77Q136.65,145.82,134.89,154.22Z"/><path class="cls-10" d="M165,145.68l3.3.51-3.75,16.89-3.14-.61Q163.23,154.08,165,145.68Z"/><path class="cls-11" d="M122.4,145.83c2,2.62,3,5.32-.31,7.57-2.41,1.63-4.67.75-6-1.65-1.78-3.3.32-5.1,3-6.45Z"/><path class="cls-11" d="M177.37,153.93c-1.56-2-2.64-4.1-.86-6.52a4,4,0,0,1,4.25-1.6,4,4,0,0,1,3.34,3.1c.71,2.89-1,4.48-3.43,5.55Z"/><path class="cls-11" d="M191.45,164c-2.69-.07-4.36-1.48-4.45-4a3.88,3.88,0,0,1,4.11-4.2,3.78,3.78,0,0,1,4,3.64C195.37,162.11,193.82,163.48,191.45,164Z"/><path class="cls-11" d="M108.34,135.93c2.68,0,4.35,1.22,4.45,3.83s-1.61,4.1-4.06,4.15a3.77,3.77,0,0,1-4-3.58C104.44,137.74,105.92,136.31,108.34,135.93Z"/><path class="cls-11" d="M146.59,159.71l2.92.6c2.07,2.55,2.64,5.14-.65,7a3.5,3.5,0,0,1-5.13-1.57C142.15,162.67,143.88,160.9,146.59,159.71Z"/><path class="cls-11" d="M153.94,140.39l-3.33-.54c-1.79-2.53-2.61-5.1.63-7a3.53,3.53,0,0,1,5.13,1.36C158.05,137.09,156.52,139,153.94,140.39Z"/><path class="cls-10" d="M177.37,153.93l3.3.53a22.31,22.31,0,0,1-.81,4c-.69,1.76.08,5.44-3,4.58-2.55-.72-.66-3.72-.38-5.7A32.51,32.51,0,0,1,177.37,153.93Z"/><path class="cls-11" d="M161.43,162.47l3.14.61c.9,2,1.33,3.93-1,5.2a2.49,2.49,0,0,1-3.25-.73C158.48,165.39,159.78,163.88,161.43,162.47Z"/><path class="cls-10" d="M122.4,145.83l-3.25-.53a12.8,12.8,0,0,1,.56-2.87c.92-2.07-.16-6.48,3.14-5.65,2.6.65.49,4.4.12,6.77A23,23,0,0,1,122.4,145.83Z"/><path class="cls-11" d="M138.42,137.44l-2.89-.77c-1.25-1.9-1.38-3.7.78-5a2.56,2.56,0,0,1,3.59.9C141.55,134.82,140,136.13,138.42,137.44Z"/><path class="cls-11" d="M100.69,131.91A2.73,2.73,0,0,1,98,134.54a2.65,2.65,0,1,1,0-5.29A2.75,2.75,0,0,1,100.69,131.91Z"/><path class="cls-11" d="M201.86,165.28c1.59.2,2.7,1,2.76,2.59a2.56,2.56,0,0,1-2.62,2.67,2.47,2.47,0,0,1-2.7-2.55A2.64,2.64,0,0,1,201.86,165.28Z"/><path class="cls-9" d="M86,151.85c-3.4-1.64-2.64-3.81-.77-6.11C85.45,147.78,85.71,149.81,86,151.85Z"/><path class="cls-9" d="M85.19,143.43c-1.79-1.91-2.32-3.65.68-4.9A8.41,8.41,0,0,1,85.19,143.43Z"/><path class="cls-9" d="M213.56,145.79c1.9.45,2.81,1.13.63,2.57Z"/></svg>