<svg id="Layer_1" data-name="Layer 1" xmlns="http://www.w3.org/2000/svg" xmlns:xlink="http://www.w3.org/1999/xlink" viewBox="0 0 300 300"><defs><style>.cls-1{fill:#010101;}.cls-2{fill:url(#linear-gradient);}.cls-3{fill:url(#linear-gradient-2);}</style><linearGradient id="linear-gradient" x1="98.52" y1="329.21" x2="252.78" y2="467.89" gradientTransform="translate(0 -236.39)" gradientUnits="userSpaceOnUse"><stop offset="0" stop-color="#f9ad42"/><stop offset="0.52" stop-color="#ab519e"/><stop offset="1" stop-color="#8f2c89"/></linearGradient><linearGradient id="linear-gradient-2" x1="96.27" y1="452.11" x2="180.17" y2="262.58" gradientTransform="translate(0 -236.39)" gradientUnits="userSpaceOnUse"><stop offset="0" stop-color="#40c3f1"/><stop offset="0.54" stop-color="#2477b6"/><stop offset="1" stop-color="#28428d"/></linearGradient></defs><title>Artboard 1</title><path class="cls-1" d="M141.06,42.29H55V257.71h84c66.18,0,106-47.71,106-110.46C245,83.6,204,42.26,141.06,42.29Z"/><path class="cls-2" d="M135.4,93a15.92,15.92,0,0,0,1.63,18,28.56,28.56,0,0,1,6.69,15.6c0,.78.11,1.49.15,2.23a138.86,138.86,0,0,0,4.46,28c1.22,4.81,2.58,9.25,3.88,13.06a2.94,2.94,0,0,1,0,1.76,2.77,2.77,0,0,1-1,1.42,2.88,2.88,0,0,1-1.94.6,3.07,3.07,0,0,1-1.89-.73,91.71,91.71,0,0,1-26.74-39.51,87.91,87.91,0,0,1-3.1-11.5,4.48,4.48,0,0,1,.22-2.61,4.74,4.74,0,0,1,1.58-2.07A11,11,0,0,0,123,112.6a10.83,10.83,0,1,0-20,.22,4.61,4.61,0,0,1,.31,2.38,4.44,4.44,0,0,1-.94,2.23l-4.45,5.66a8.64,8.64,0,0,1-6.69,3.34,8.33,8.33,0,0,0-7.58,10.83,8.32,8.32,0,0,0,16-4.61,8.52,8.52,0,0,1,0-3.76,8.25,8.25,0,0,1,1.61-3.39l3.85-5a4.47,4.47,0,0,1,4.88-1.56h0a4.88,4.88,0,0,1,2.23,1.36,4.66,4.66,0,0,1,1.18,2.22A94.11,94.11,0,0,0,130.43,161a100.53,100.53,0,0,0,14.85,15.73,3,3,0,0,1,.95,1.45,3.14,3.14,0,0,1,0,1.72A13.38,13.38,0,1,0,159,170.36a2.86,2.86,0,0,1-1.65-.52,3,3,0,0,1-1.05-1.4c-1.09-3.05-3-8.91-4-12.77A134.71,134.71,0,0,1,148.08,129a14.66,14.66,0,0,1,8.2-14A16,16,0,0,0,165,103.61,15.93,15.93,0,0,0,135.47,92.9Z"/><path class="cls-3" d="M86.2,177.93a16,16,0,0,0,16.62-7.15,28.43,28.43,0,0,1,12.86-11.14l2-.8a138,138,0,0,0,25.27-12.77c4.22-2.66,8-5.31,11.3-7.74a2.79,2.79,0,0,1,3.34,0,3,3,0,0,1,1.21,1.65,3.13,3.13,0,0,1-.11,2.05,91.39,91.39,0,0,1-29.31,37.6,88.1,88.1,0,0,1-10,6.46,4.68,4.68,0,0,1-2.56.6,4.84,4.84,0,0,1-2.46-.87,10.87,10.87,0,0,0-5.63-2,10.82,10.82,0,0,0-10.1,5.48,10.85,10.85,0,0,0-1.4,5.82,11,11,0,0,0,1.94,5.66,10.78,10.78,0,0,0,15,2.74,12,12,0,0,0,1-.76,4.58,4.58,0,0,1,2.23-1,4.63,4.63,0,0,1,2.39.23l6.68,2.38a9,9,0,0,1,3.21,2.07,8.71,8.71,0,0,1,2,3.24,8.21,8.21,0,0,0,2.9,3.83,8.42,8.42,0,0,0,4.45,1.58,8.14,8.14,0,0,0,4.66-1.23,8.21,8.21,0,0,0-2.32-15,8.48,8.48,0,0,0-4.81.29,6.28,6.28,0,0,0-1.49.74,8.66,8.66,0,0,1-7.31.69l-5.93-2.23a4.47,4.47,0,0,1-2.23-1.56,4.71,4.71,0,0,1-.89-2.5h0a4.79,4.79,0,0,1,.58-2.51,4.6,4.6,0,0,1,1.83-1.83,94.5,94.5,0,0,0,31.2-28.12,99.91,99.91,0,0,0,10.34-19,3,3,0,0,1,1.09-1.34,2.85,2.85,0,0,1,1.62-.53,13.31,13.31,0,1,0-13.08-9.18,2.73,2.73,0,0,1,0,1.74,2.82,2.82,0,0,1-1,1.42c-2.58,2-7.49,5.62-10.89,7.78a135.46,135.46,0,0,1-24.05,12.19,14.63,14.63,0,0,1-15.82-3.48,16,16,0,1,0-14.64,26.68Z"/></svg>