<svg id="Layer_1" data-name="Layer 1" xmlns="http://www.w3.org/2000/svg" viewBox="0 0 300 300"><path d="M152.33294,251.06188H255v-4.23894l-61.63415-55.4453c-1.01735,1.2293-1.86512,2.58576-2.96726,3.73025A64.09225,64.09225,0,0,1,170.39081,209.054a60.53189,60.53189,0,0,1-48.95972,0,64.09214,64.09214,0,0,1-20.00778-13.94611,67.526,67.526,0,0,1-13.52222-20.47407,61.54942,61.54942,0,0,1-4.7476-24.67058,62.77879,62.77879,0,0,1,5.00195-24.79777,65.32186,65.32186,0,0,1,13.52221-20.43168,64.43165,64.43165,0,0,1,19.62627-13.81894,60.53213,60.53213,0,0,1,48.95972,0,64.43211,64.43211,0,0,1,20.00779,13.81894,65.322,65.322,0,0,1,13.5222,20.43168,62.43947,62.43947,0,0,1,4.23894,35.47991l29.67256,26.83248.3815-.63585a73.545,73.545,0,0,0,6.65513-18.43937,87.70306,87.70306,0,0,0,2.03469-18.43937,97.49568,97.49568,0,0,0-8.01159-39.29493,101.7344,101.7344,0,0,0-53.66494-53.79215,100.55,100.55,0,0,0-78.46272,0A103.76911,103.76911,0,0,0,74.67562,78.57952a102.53956,102.53956,0,0,0-21.661,32.08876,97.49545,97.49545,0,0,0-8.01159,39.295,119.32582,119.32582,0,0,0,6.3584,39.295,85.49958,85.49958,0,0,0,19.66867,32.13116,93.59585,93.59585,0,0,0,33.318,21.66093,129.58457,129.58457,0,0,0,47.85761,8.01159" fill="#25214b"/></svg>