<svg id="Layer_1" data-name="Layer 1" xmlns="http://www.w3.org/2000/svg" viewBox="0 0 300 300"><title>RAIN_Mark_Light</title><path d="M197.59982,123.67084c.74114-27.07806-3.27117-52.34867-21.61974-73.569a44.31666,44.31666,0,0,1,18.6504,13.12348C206.75,77.18847,213.08569,93.83351,215.68485,111.782c4.358,30.09388,3.57283,60.10262-4.98152,89.47172-5.89392,20.23512-17.13377,36.81146-37.95636,43.84082-22.61914,7.63585-45.3493,6.07338-67.03826-4.01091-28.439-13.22272-31.50757-54.33841-9.66291-74.41545,12.12195-11.14105,26.58321-17.97,41.64809-23.76787,18.21862-7.01165,36.98513-12.369,55.685-17.91148C194.65857,124.60953,195.92756,124.19411,197.59982,123.67084Zm-.30106,8.91325c-21.86569,7.83875-44.81557,11.89464-65.04808,23.51326-13.86463,7.96186-22.22283,19.95537-24.84835,35.806-3.023,18.25023,6.52376,36.29058,22.85695,43.26829,16.37285,6.99466,35.113,1.51086,46.36516-13.58841a68.32211,68.32211,0,0,0,7.24541-12.29868c8.53367-18.53289,12.4011-38.15867,13.43365-58.40644C197.60381,144.9888,198.67647,139.06813,197.29876,132.58409Z" fill="#04b0ef"/></svg>