<svg id="Layer_1" data-name="Layer 1" xmlns="http://www.w3.org/2000/svg" xmlns:xlink="http://www.w3.org/1999/xlink" viewBox="0 0 300 300"><defs><linearGradient id="linear-gradient" x1="122.16945" y1="572.84212" x2="178.2512" y2="687.82682" gradientTransform="matrix(1, 0, 0, -1, 0, 779.91993)" gradientUnits="userSpaceOnUse"><stop offset="0.3681" stop-color="#fff"/><stop offset="0.408" stop-color="#fdebec"/><stop offset="0.4902" stop-color="#f7b6ba"/><stop offset="0.6071" stop-color="#ed6169"/><stop offset="0.7239" stop-color="#e30613"/></linearGradient></defs><title>Consolidated list_logos</title><polygon points="25 159.685 58.807 126.241 86.956 91.853 93.05 90.982 103.207 85.324 103.207 85.324 108.938 88.588 108.938 88.588 113.799 86.702 118.297 89.749 118.297 89.749 121.271 90.112 122.649 92.216 130.775 92.941 135.636 98.31 135.636 98.31 143.906 98.165 147.896 103.461 151.741 103.388 154.28 108.176 157.69 108.321 157.69 108.321 157.69 108.321 161.463 111.078 165.598 108.974 171.764 112.819 179.745 110.353 184.605 113.98 191.062 112.674 199.115 117.752 199.115 117.752 203.758 112.311 208.111 113.762 214.35 109.7 214.35 109.7 220.154 114.27 223.564 117.027 227.118 116.229 232.269 121.888 238.944 123.992 249.391 141.113 265.569 159.685 25 159.685" fill="url(#linear-gradient)"/><path d="M50.029,120.36419a18.77808,18.77808,0,0,1,4.57052.58039,12.14436,12.14436,0,0,1,3.77249,1.81369,8.73081,8.73081,0,0,1,2.61172,3.19211,10.09469,10.09469,0,0,1,.94313,4.57052,11.18873,11.18873,0,0,1-1.95879,6.52932,9.2304,9.2304,0,0,1-5.73129,3.55484v.14509a9.18453,9.18453,0,0,1,3.19211,1.01567,6.374,6.374,0,0,1,2.03134,1.88625,8.14441,8.14441,0,0,1,1.16077,2.68427,22.19487,22.19487,0,0,1,.43528,3.26465c0,.65293.07255,1.451.1451,2.39408,0,.94313.14509,1.88625.21764,2.90192.1451.94312.2902,1.88625.50784,2.75682a5.88649,5.88649,0,0,0,.94312,2.03134H58.87986a5.00439,5.00439,0,0,1-.50783-1.3784,11.40329,11.40329,0,0,1-.29019-1.66861c-.07255-.58038-.07255-1.16077-.1451-1.6686a10.73832,10.73832,0,0,1-.07254-1.451c-.07255-1.3784-.21765-2.75682-.36274-4.13522a11.56762,11.56762,0,0,0-1.01568-3.7,6.21166,6.21166,0,0,0-2.32153-2.61173,7.02248,7.02248,0,0,0-4.13522-.87057H35.73709V159.6126H31.9646V120.29165H50.029Zm-.29019,18.71736a9.62458,9.62458,0,0,0,3.26465-.50784,8.09494,8.09494,0,0,0,2.68427-1.52351,6.56237,6.56237,0,0,0,1.8137-2.39408,7.63993,7.63993,0,0,0,.72548-3.19211,7.84183,7.84183,0,0,0-2.10389-5.73128c-1.37841-1.37841-3.55485-2.10389-6.38422-2.10389H35.73709v15.4527H49.73883Z"/><path d="M70.63262,150.32647a12.71542,12.71542,0,0,0,1.6686,3.62739,9.07942,9.07942,0,0,0,2.90192,2.61173,7.873,7.873,0,0,0,4.20777,1.01567,8.52527,8.52527,0,0,0,5.94893-1.95879,10.27922,10.27922,0,0,0,2.97447-5.296h3.4823a13.598,13.598,0,0,1-4.06269,7.47243c-1.95879,1.74115-4.71561,2.61173-8.343,2.61173a12.9478,12.9478,0,0,1-5.80383-1.16077,10.42817,10.42817,0,0,1-3.99013-3.26465,13.25872,13.25872,0,0,1-2.249-4.78817,21.03593,21.03593,0,0,1-.72548-5.73128,20.19278,20.19278,0,0,1,.72548-5.51364,14.58049,14.58049,0,0,1,2.249-4.78817,12.173,12.173,0,0,1,3.99013-3.40974,12.03341,12.03341,0,0,1,5.80383-1.30587,11.27227,11.27227,0,0,1,5.80384,1.37841,11.73868,11.73868,0,0,1,3.91758,3.6274,14.35639,14.35639,0,0,1,2.17643,5.15091,22.77466,22.77466,0,0,1,.58039,5.87638H70.05224A15.47205,15.47205,0,0,0,70.63262,150.32647Zm17.1213-10.592a9.87773,9.87773,0,0,0-1.8137-3.1921,9.461,9.461,0,0,0-2.82936-2.249,8.60906,8.60906,0,0,0-7.545,0,9.46109,9.46109,0,0,0-2.82937,2.249,10.23423,10.23423,0,0,0-1.8137,3.26466,16.76327,16.76327,0,0,0-.87057,3.77248H88.40686A10.96984,10.96984,0,0,0,87.75392,139.73447Z"/><path d="M118.36913,159.68514V154.3166h-.1451a9.34531,9.34531,0,0,1-1.59605,2.53918,9.18827,9.18827,0,0,1-2.46662,1.95879,13.51459,13.51459,0,0,1-2.97447,1.23331,11.55934,11.55934,0,0,1-3.11956.43529,12.5157,12.5157,0,0,1-5.65874-1.16077,11.63913,11.63913,0,0,1-3.99013-3.26465,13.51272,13.51272,0,0,1-2.39408-4.78817,20.97914,20.97914,0,0,1,0-11.46255,13.5128,13.5128,0,0,1,2.39408-4.78817,11.639,11.639,0,0,1,3.99013-3.26465,12.515,12.515,0,0,1,5.65874-1.23332,14.681,14.681,0,0,1,3.11956.36274,12.20423,12.20423,0,0,1,2.82936,1.16077,8.55952,8.55952,0,0,1,2.32153,1.9588,9.08069,9.08069,0,0,1,1.59605,2.68426h.1451V120.36419h3.4823v39.32095Zm-19.00755-9.794a10.86394,10.86394,0,0,0,1.66861,3.845,8.79325,8.79325,0,0,0,2.90191,2.75682,7.89986,7.89986,0,0,0,4.20778,1.08822,9.16064,9.16064,0,0,0,4.64306-1.08822,10.4181,10.4181,0,0,0,3.11956-2.75682,10.18074,10.18074,0,0,0,1.66861-3.845,18.90929,18.90929,0,0,0,0-8.70575,12.3487,12.3487,0,0,0-1.66861-3.845,8.84276,8.84276,0,0,0-3.11956-2.75682,9.16064,9.16064,0,0,0-4.64306-1.08822,7.72525,7.72525,0,0,0-4.20778,1.08822,9.59308,9.59308,0,0,0-2.90191,2.75682,14.04047,14.04047,0,0,0-1.66861,3.845,17.83482,17.83482,0,0,0-.50783,4.35287A22.263,22.263,0,0,0,99.36158,149.89118Z"/><path d="M132.58852,120.36419v17.04875h23.36041V120.36419h3.77249v39.32095h-3.77249V140.6776H132.58852v19.00754H128.816V120.36419Z"/><path d="M170.45851,120.36419v5.58619h-3.4823v-5.58619Zm0,10.95473v28.36622h-3.4823V131.31892Z"/><path d="M180.6152,120.36419v39.32095h-3.4823V120.36419Z"/><path d="M190.84446,120.36419v39.32095h-3.48229V120.36419Z"/><path d="M48.86825,165.70662a17.03907,17.03907,0,0,1,4.35287.58038,11.74943,11.74943,0,0,1,3.55485,1.8137,8.30226,8.30226,0,0,1,2.39408,3.047,9.798,9.798,0,0,1,.87058,4.28032,8.55429,8.55429,0,0,1-.65294,3.33721,9.28561,9.28561,0,0,1-1.74115,2.82936,8.819,8.819,0,0,1-2.61172,1.95879,8.41276,8.41276,0,0,1-3.3372.87057v.07255a11.51549,11.51549,0,0,1,3.62739.72548,8.4597,8.4597,0,0,1,3.047,1.95879,8.3216,8.3216,0,0,1,2.03135,3.047,10.1411,10.1411,0,0,1,.798,4.06269,10.41331,10.41331,0,0,1-.94312,4.64306,9.271,9.271,0,0,1-2.68427,3.33721,13.75057,13.75057,0,0,1-4.13523,2.03134,19.8062,19.8062,0,0,1-5.22344.65293H31.9646V165.63407H48.86825Zm0,18.20951a12.81513,12.81513,0,0,0,3.77249-.50783,10.14506,10.14506,0,0,0,3.19211-1.596,7.1323,7.1323,0,0,0,2.17643-2.68427,7.70822,7.70822,0,0,0,.798-3.7,8.62637,8.62637,0,0,0-.798-3.845,7.70738,7.70738,0,0,0-2.10389-2.68427,8.80521,8.80521,0,0,0-3.1921-1.596,13.8138,13.8138,0,0,0-3.91759-.50783H33.12536v17.19384H48.86825Zm-.14509,19.95067a17.74718,17.74718,0,0,0,4.498-.58039,9.58516,9.58516,0,0,0,3.55485-1.74114,8.68409,8.68409,0,0,0,2.39408-2.97447,9.4706,9.4706,0,0,0,.87058-4.20778,8.7876,8.7876,0,0,0-.94313-4.35287,7.95235,7.95235,0,0,0-2.53917-2.82937,11.33239,11.33239,0,0,0-3.55485-1.596,15.38415,15.38415,0,0,0-4.13523-.50783H33.12536v18.7899Z"/><path d="M66.0621,171.22025v-5.58618h1.08822v5.58618Zm0,33.73477V176.66134h1.08822V204.955Z"/><path d="M72.59141,185.222a14.60078,14.60078,0,0,1,2.46663-4.71561,11.63907,11.63907,0,0,1,3.99014-3.26465,12.77907,12.77907,0,0,1,10.95472,0,11.63913,11.63913,0,0,1,3.99013,3.26465,14.60058,14.60058,0,0,1,2.46663,4.71561,17.94729,17.94729,0,0,1,.798,5.58619,20.381,20.381,0,0,1-.798,5.58618A14.60073,14.60073,0,0,1,93.993,201.11a11.63913,11.63913,0,0,1-3.99013,3.26465,12.77918,12.77918,0,0,1-10.95473,0A11.639,11.639,0,0,1,75.058,201.11a14.60053,14.60053,0,0,1-2.46663-4.71562,17.94689,17.94689,0,0,1-.798-5.58618A16.04025,16.04025,0,0,1,72.59141,185.222Zm1.01567,10.80964a12.27082,12.27082,0,0,0,5.87638,7.39989,11.06881,11.06881,0,0,0,5.00581,1.16077,10.2027,10.2027,0,0,0,5.0058-1.16077,9.84676,9.84676,0,0,0,3.62739-3.047,13.06832,13.06832,0,0,0,2.249-4.35288,18.64841,18.64841,0,0,0,0-10.3018,12.27082,12.27082,0,0,0-5.87638-7.39989,11.37412,11.37412,0,0,0-10.01161,0,11.4563,11.4563,0,0,0-3.6274,3.047,13.06812,13.06812,0,0,0-2.249,4.35288,17.33822,17.33822,0,0,0-.72548,5.1509A15.53193,15.53193,0,0,0,73.60708,196.03163Z"/><path d="M101.75566,214.67644V176.73389h1.08822v7.90772h.1451a11.30581,11.30581,0,0,1,1.59605-3.40975,14.90061,14.90061,0,0,1,2.46662-2.75682,10.234,10.234,0,0,1,3.26466-1.8137,11.80439,11.80439,0,0,1,3.99013-.65293,10.812,10.812,0,0,1,8.77829,4.13523,15.18182,15.18182,0,0,1,2.39408,4.71561,19.18991,19.18991,0,0,1,.798,5.87639,20.90576,20.90576,0,0,1-.798,5.65873,13.65705,13.65705,0,0,1-2.32153,4.71562,10.73774,10.73774,0,0,1-8.92339,4.35287,10.96909,10.96909,0,0,1-11.31747-8.4881h-.14509V214.6039h-1.01567Zm17.55659-11.39a11.008,11.008,0,0,0,3.40975-3.1921,14.42254,14.42254,0,0,0,1.95879-4.42542,19.20805,19.20805,0,0,0,.65293-4.93326,20.61138,20.61138,0,0,0-.65293-5.22345,13.38907,13.38907,0,0,0-2.03134-4.35287,9.65855,9.65855,0,0,0-3.40975-2.97447,10.13232,10.13232,0,0,0-4.78817-1.08822,10.64459,10.64459,0,0,0-4.8607,1.08822,11.09454,11.09454,0,0,0-3.6274,2.97447,13.742,13.742,0,0,0-2.249,4.35287,17.86109,17.86109,0,0,0-.798,5.22345c0,4.42542,1.01567,7.83517,3.11956,10.22925a10.50252,10.50252,0,0,0,8.343,3.55484A9.75547,9.75547,0,0,0,119.31225,203.28642Z"/><path d="M132.44341,165.70662v17.99187h.14509a11.19618,11.19618,0,0,1,1.23332-3.047,8.58921,8.58921,0,0,1,2.17643-2.39409,9.0682,9.0682,0,0,1,2.97447-1.596,12.46168,12.46168,0,0,1,3.77249-.58038,12.2343,12.2343,0,0,1,4.06268.65292A8.44147,8.44147,0,0,1,150,178.69268a9.78589,9.78589,0,0,1,2.10388,3.19211,11.66047,11.66047,0,0,1,.72548,4.35287v18.7899h-1.08822V186.45529a10.41412,10.41412,0,0,0-.72548-4.20777,8.19325,8.19325,0,0,0-1.95879-2.82937,8.58158,8.58158,0,0,0-2.82936-1.6686,10.79107,10.79107,0,0,0-3.40975-.50783,9.47329,9.47329,0,0,0-4.42543.94312,9.37064,9.37064,0,0,0-3.1921,2.61173,10.98077,10.98077,0,0,0-1.95879,3.77249,15.3293,15.3293,0,0,0-.65292,4.498v16.03309H131.5003v-39.321h.94311Z"/><path d="M159.64887,181.73969a8.66968,8.66968,0,0,1,2.03134-2.97446,8.48249,8.48249,0,0,1,3.33721-1.9588,12.59568,12.59568,0,0,1,4.57052-.72547,18.436,18.436,0,0,1,3.55484.36274,8.59477,8.59477,0,0,1,2.97446,1.3784,6.44853,6.44853,0,0,1,2.03135,2.53918,8.62645,8.62645,0,0,1,.798,3.845v17.91933a1.57818,1.57818,0,0,0,.36274,1.23331,1.34554,1.34554,0,0,0,.87058.50784,6.34955,6.34955,0,0,0,1.16077.14509c.43529,0,.798-.07255,1.16077-.07255v1.08822h-1.66859a3.9664,3.9664,0,0,1-2.10388-.58039,2.40065,2.40065,0,0,1-.94313-2.17643v-3.77248h-.14509a7.55435,7.55435,0,0,1-1.37841,2.61173,10.13067,10.13067,0,0,1-2.39408,2.249,14.23006,14.23006,0,0,1-3.33721,1.596,14.46,14.46,0,0,1-4.06268.58038,11.73763,11.73763,0,0,1-6.89205-1.88625,6.55349,6.55349,0,0,1-2.61173-5.65873,8.6485,8.6485,0,0,1,.87057-4.20778,6.9493,6.9493,0,0,1,2.249-2.53918,9.06335,9.06335,0,0,1,3.11956-1.23331,27.99827,27.99827,0,0,1,3.55484-.43529c1.95879-.1451,3.6274-.21765,5.0058-.29019a13.22487,13.22487,0,0,0,3.40975-.58039,3.32167,3.32167,0,0,0,2.61172-3.69993,15.8605,15.8605,0,0,0-.21765-2.61173,5.64856,5.64856,0,0,0-1.08822-2.53918,6.04666,6.04666,0,0,0-2.46662-1.88624,10.835,10.835,0,0,0-4.42542-.72548,10.26924,10.26924,0,0,0-6.96461,2.17643,8.636,8.636,0,0,0-2.75682,6.16657h-1.08822A10.68139,10.68139,0,0,1,159.64887,181.73969Zm18.06443,6.60186a3.09844,3.09844,0,0,1-1.74115,1.16078,13.75132,13.75132,0,0,1-2.61173.65292c-1.01566.1451-2.03134.21765-3.1921.29019s-2.249.07255-3.40975.14509a22.55486,22.55486,0,0,0-3.1921.43529,8.431,8.431,0,0,0-2.75682,1.08822,5.72711,5.72711,0,0,0-1.95879,2.17644,7.697,7.697,0,0,0-.72548,3.62739,6.96456,6.96456,0,0,0,.43529,2.39409,5.06794,5.06794,0,0,0,1.37841,2.10388,9.42166,9.42166,0,0,0,2.53917,1.52351,11.59722,11.59722,0,0,0,3.845.58038,11.60455,11.60455,0,0,0,8.56065-3.40974,9.72722,9.72722,0,0,0,2.17644-3.4823,11.1698,11.1698,0,0,0,.72548-4.06269v-5.22345Z"/><path d="M185.33081,204.955V176.66134H186.419v6.9646h.14511a10.73882,10.73882,0,0,1,1.23332-2.97447,10.04238,10.04238,0,0,1,2.17643-2.46662,11.541,11.541,0,0,1,3.26466-1.6686,13.64013,13.64013,0,0,1,4.42542-.58039v1.08822a9.86256,9.86256,0,0,0-5.00579.798,9.1881,9.1881,0,0,0-3.48229,2.61173,10.0835,10.0835,0,0,0-2.03134,3.91758,15.6903,15.6903,0,0,0-.65292,4.498v16.03308h-1.16082Z"/><path d="M200.63842,176.66134v6.9646h.1451a11.196,11.196,0,0,1,1.23333-3.047,9.35342,9.35342,0,0,1,2.03133-2.39408,7.76417,7.76417,0,0,1,2.68428-1.59605,8.82811,8.82811,0,0,1,3.11955-.58039,8.20091,8.20091,0,0,1,5.51364,1.66861,8.39674,8.39674,0,0,1,2.97447,4.93326h.14511a8.80523,8.80523,0,0,1,3.26465-4.78817,9.1655,9.1655,0,0,1,5.73128-1.8137,10.479,10.479,0,0,1,4.28032.798,7.35484,7.35484,0,0,1,2.75681,2.10388,7.49687,7.49687,0,0,1,1.451,3.26465,18.74825,18.74825,0,0,1,.43529,4.20778V204.955h-1.08822V186.38276a19.57944,19.57944,0,0,0-.36274-3.77248,7.041,7.041,0,0,0-1.23332-2.90192,5.68565,5.68565,0,0,0-2.39407-1.88625,9.64518,9.64518,0,0,0-3.845-.65292,8.65843,8.65843,0,0,0-3.7.798,8.23489,8.23489,0,0,0-2.82936,2.17643,8.55421,8.55421,0,0,0-1.74115,3.19211,10.81916,10.81916,0,0,0-.58037,3.77248v17.91933h-1.08822v-18.137a21.481,21.481,0,0,0-.29018-3.77249,8.95515,8.95515,0,0,0-1.16078-3.11956,5.9345,5.9345,0,0,0-2.32154-2.10389,8.40715,8.40715,0,0,0-3.845-.798,7.28949,7.28949,0,0,0-3.77249.94313,9.07919,9.07919,0,0,0-2.90192,2.61173,12.14454,12.14454,0,0,0-1.8137,3.77248,15.32941,15.32941,0,0,0-.65292,4.498V204.955h-1.08822V176.66135h.94309Z"/><path d="M243.15148,181.73969a8.67,8.67,0,0,1,2.03134-2.97446,8.48252,8.48252,0,0,1,3.3372-1.9588,12.5957,12.5957,0,0,1,4.57051-.72547,19.04988,19.04988,0,0,1,3.55484.36274,8.59482,8.59482,0,0,1,2.97447,1.3784,6.44831,6.44831,0,0,1,2.03133,2.53918,8.62617,8.62617,0,0,1,.798,3.845v17.91933a1.57821,1.57821,0,0,0,.36274,1.23331,1.34559,1.34559,0,0,0,.87059.50784,6.34955,6.34955,0,0,0,1.16077.14509c.43529,0,.798-.07255,1.16077-.07255v1.08822h-1.6686a3.9664,3.9664,0,0,1-2.10388-.58039,2.40069,2.40069,0,0,1-.94311-2.17643v-3.77248h0a7.55415,7.55415,0,0,1-1.3784,2.61173,10.13081,10.13081,0,0,1-2.39407,2.249,14.22987,14.22987,0,0,1-3.33721,1.596,14.46006,14.46006,0,0,1-4.06268.58038,11.73763,11.73763,0,0,1-6.89205-1.88625,6.55349,6.55349,0,0,1-2.61173-5.65873,8.64838,8.64838,0,0,1,.87058-4.20778,6.949,6.949,0,0,1,2.249-2.53918,9.0633,9.0633,0,0,1,3.11955-1.23331,27.99849,27.99849,0,0,1,3.55484-.43529c1.9588-.1451,3.6274-.21765,5.0058-.29019a13.225,13.225,0,0,0,3.40976-.58039,3.32166,3.32166,0,0,0,2.61173-3.69993,15.86157,15.86157,0,0,0-.21764-2.61173,5.64887,5.64887,0,0,0-1.08821-2.53918,6.04669,6.04669,0,0,0-2.46663-1.88624,10.835,10.835,0,0,0-4.42542-.72548,10.26921,10.26921,0,0,0-6.9646,2.17643,8.6359,8.6359,0,0,0-2.75681,6.16657H242.426A10.67216,10.67216,0,0,1,243.15148,181.73969Zm18.137,6.60186a3.09834,3.09834,0,0,1-1.74114,1.16078,13.75113,13.75113,0,0,1-2.61173.65292c-1.01566.1451-2.03133.21765-3.1921.29019s-2.249.07255-3.40976.14509a22.55466,22.55466,0,0,0-3.1921.43529,8.43073,8.43073,0,0,0-2.75681,1.08822,5.72721,5.72721,0,0,0-1.9588,2.17644,7.69684,7.69684,0,0,0-.72548,3.62739,6.9648,6.9648,0,0,0,.43529,2.39409,5.068,5.068,0,0,0,1.3784,2.10388,9.42172,9.42172,0,0,0,2.53918,1.52351,11.74849,11.74849,0,0,0,3.91758.58038,11.60455,11.60455,0,0,0,8.56064-3.40974,9.72735,9.72735,0,0,0,2.17644-3.4823,11.16958,11.16958,0,0,0,.72548-4.06269v-5.22345Z"/><path d="M272.46082,205.02757a2.32153,2.32153,0,1,1,2.32155-2.32153A2.387,2.387,0,0,1,272.46082,205.02757Z" fill="#fff"/><path d="M272.46082,200.60214a2.10389,2.10389,0,1,1-2.10388,2.10389,2.1054,2.1054,0,0,1,2.10388-2.10389m0-.50783a2.52338,2.52338,0,0,0-2.53917,2.53918,2.57047,2.57047,0,0,0,2.53917,2.53917A2.52338,2.52338,0,0,0,275,202.63349a2.57047,2.57047,0,0,0-2.53918-2.53918Z"/><path d="M271.51771,203.79426v-2.249h.94311c.21764,0,.4353,0,.50785.07255s.21763.14509.29019.21765a.54361.54361,0,0,1,.07255.36273,1.03109,1.03109,0,0,1-.14511.4353,1.18107,1.18107,0,0,1-.43529.21764l.21764.21765c.07255.07255.1451.21764.29018.36274l.29019.43529h-.50784l-.29019-.50783a.66279.66279,0,0,1-.21764-.36274c-.07255-.07256-.07255-.07256-.1451-.07256h-.29019v.94313h-.58035Zm.43529-1.30587h.798c.07256,0,.07256-.07255.14511-.07255,0-.07255.07255-.07255.07255-.14509s0-.1451-.07255-.1451c-.07255-.07255-.07255-.07255-.14511-.07255h-.72548v.43529Z"/></svg>