<svg id="Layer_1" data-name="Layer 1" xmlns="http://www.w3.org/2000/svg" viewBox="0 0 300 300"><rect x="62.06869" y="67.84052" width="172.48428" height="166.15839" fill="#ffb71b"/><path d="M83.36547,145.99371c1.8943.00061,3.78875-.01513,5.68273.00834a5.12183,5.12183,0,0,1,2.8918.82765,3.24445,3.24445,0,0,1,1.43283,2.482,3.66168,3.66168,0,0,1-.30839,1.96875,3.31571,3.31571,0,0,1-1.74146,1.63211c-.04632.02046-.09276.04066-.13839.06257-.00936.00451-.01532.01611-.02981.03216l2.66739,4.30742H90.94l-2.28863-3.83415H86.04341v3.84932H83.36547Zm2.68454,5.2798a.34109.34109,0,0,0,.05978.01288c.92728-.00053,1.85466.00515,2.78183-.00613a2.32438,2.32438,0,0,0,1.00177-.22325,1.39361,1.39361,0,0,0,.82759-1.3483,1.301,1.301,0,0,0-.81691-1.30764,2.26771,2.26771,0,0,0-.7828-.19319c-1.00552-.02921-2.012-.02424-3.01815-.03118a.19079.19079,0,0,0-.0531.01868Z" fill="#0b1d42"/><path d="M214.37771,157.3299h-8.44V146.00168h2.65977v9.1428h.234q2.6637,0,5.32737.00056c.073,0,.14592.00828.21888.0127Z" fill="#0b1d42"/><path d="M158.9756,157.32557h-2.95672l-5.13932-7.22314v7.21727H148.2074V146.00122h2.99447l5.10191,7.2V146.0026h2.67182Z" fill="#0b1d42"/><path d="M99.08671,145.9972h9.35315v2.17332h-6.68033v2.38128h5.61718v2.1888h-5.61545v2.40233h6.67988v2.17574H99.08671Z" fill="#0b1d42"/><path d="M134.88724,155.13987h6.67639v2.17688h-9.357V146.00431h9.36212v2.16295h-6.68312v2.388h5.61318v2.18192h-5.61157Z" fill="#0b1d42"/><path d="M189.57774,155.13671v2.18441H180.2176V145.99977h9.35922v2.17081h-6.68v2.38657h5.6163v2.18335h-5.61481v2.39619Z" fill="#0b1d42"/><path d="M173.32139,153.7538l1.84842,1.41413a5.89925,5.89925,0,1,1,.00175-7.0509l-1.84869,1.3832c-.103-.1199-.19992-.236-.3003-.34911a3.358,3.358,0,0,0-5.61569.92478,3.68181,3.68181,0,0,0,1.77322,4.89564q.06636.03108.13392.05949a3.3003,3.3003,0,0,0,3.7487-.97248C173.14855,153.96193,173.23014,153.86155,173.32139,153.7538Z" fill="#0b1d42"/><path d="M202.7505,155.138v2.17919h-8.84237V146.00276h2.65731V155.138Z" fill="#0b1d42"/><path d="M119.78194,150.63614H125.697c0,.30793.00877.61077-.00161.91295a6.165,6.165,0,0,1-.72687,2.79511,4.989,4.989,0,0,1-3.2298,2.51717,6.38383,6.38383,0,0,1-4.16982-.23808,5.29314,5.29314,0,0,1-3.095-3.32753,6.03293,6.03293,0,0,1,.25774-4.6706,5.318,5.318,0,0,1,3.812-3.01885,6.55492,6.55492,0,0,1,4.22676.43225c.18274.08306.35307.19346.54371.29925l-1.16705,1.88374c-.18861-.09489-.36733-.19588-.55461-.2771a3.83488,3.83488,0,0,0-2.65766-.20331,2.99843,2.99843,0,0,0-1.98141,1.68658,4.12215,4.12215,0,0,0,.059,3.74941,3.16082,3.16082,0,0,0,2.56844,1.73394,3.60808,3.60808,0,0,0,1.88223-.23951,2.74468,2.74468,0,0,0,1.50816-1.61325c.05732-.14658.09815-.29965.14535-.4501a.24967.24967,0,0,0,.00062-.06016h-3.33534Z" fill="#0b1d42"/><path d="M245,238.77022H55.49856a1.73,1.73,0,0,1-.27009-.19215.441.441,0,0,1-.10007-.20321A5.53864,5.53864,0,0,1,55,237.46713q.00261-87.70879.02375-175.41758a4.04157,4.04157,0,0,1,.20873-.81977H245ZM173.34233,82.07368c-26.46092-10.20015-65.933-4.0577-88.22555,29.54426a75.61107,75.61107,0,0,0,115.36052,96.274c14.27924-13.69044,21.93818-30.555,23.321-50.26149.73468-10.4698-1.66376-24.93712-4.53814-29.30107-15.20721,10.70175-32.67716,7.06263-42.87042-3.068C166.03576,114.971,162.51351,97.3441,173.34233,82.07368Zm-4.14865,19.96309A30.3366,30.3366,0,1,0,199.52709,71.697q-.13249,0-.265.00118a30.196,30.196,0,0,0-30.06852,30.323Z" fill="#0b1d42"/></svg>