<svg id="Layer_1" data-name="Layer 1" xmlns="http://www.w3.org/2000/svg" xmlns:xlink="http://www.w3.org/1999/xlink" viewBox="0 0 300 300"><defs><linearGradient id="linear-gradient" x1="58.42339" y1="14781.95449" x2="249.98966" y2="14781.95449" gradientTransform="matrix(1, 0, 0, -1, 0, 14846)" gradientUnits="userSpaceOnUse"><stop offset="0" stop-color="#a7d5d0"/><stop offset="0.2" stop-color="#a4d4cf"/><stop offset="0.36" stop-color="#9ad2ce"/><stop offset="0.5" stop-color="#8acecb"/><stop offset="0.63" stop-color="#73c8c7"/><stop offset="0.75" stop-color="#55c0c1"/><stop offset="0.87" stop-color="#31b7bb"/><stop offset="0.98" stop-color="#06acb3"/><stop offset="1" stop-color="#00aab2"/></linearGradient><linearGradient id="linear-gradient-2" x1="2360.99642" y1="15012.58037" x2="2552.56269" y2="15012.58037" gradientTransform="matrix(-1, 0, 0, 1, 2602.57303, -14776.62588)" xlink:href="#linear-gradient"/></defs><path d="M62.15564,88.17358a7.74077,7.74077,0,1,0-2.5086-10.2597A7.74078,7.74078,0,0,0,62.15564,88.17358ZM95.51,58.05363a10.05348,10.05348,0,1,0,2.724-13.66207A10.05348,10.05348,0,0,0,95.51,58.05363ZM137.76752,43.651a12.371,12.371,0,0,0,24.48841-3.53265q-.01631-.11306-.03471-.22579a12.37095,12.37095,0,0,0-24.4537,3.75844Zm44.02474,4.70639a14.6884,14.6884,0,0,0,9.981,18.21752l.01054.00307a14.68839,14.68839,0,0,0,18.218-9.98022l.00262-.009a14.6884,14.6884,0,0,0-9.981-18.21752l-.01054-.00307a14.68841,14.68841,0,0,0-18.218,9.98022ZM220.19605,70.346a17.01358,17.01358,0,1,0,24.00951-1.57079A17.01359,17.01359,0,0,0,220.19605,70.346Z" fill="url(#linear-gradient)"/><path d="M237.84436,211.82642a7.74077,7.74077,0,1,0,2.5086,10.2597A7.74078,7.74078,0,0,0,237.84436,211.82642ZM204.49,241.94637a10.05348,10.05348,0,1,0-2.724,13.66207A10.05348,10.05348,0,0,0,204.49,241.94637ZM162.23248,256.349a12.371,12.371,0,0,0-24.48841,3.53265q.01631.11306.03471.22579a12.37095,12.37095,0,0,0,24.4537-3.75844Zm-44.02474-4.70639a14.6884,14.6884,0,0,0-9.981-18.21752l-.01054-.00307a14.68839,14.68839,0,0,0-18.218,9.98022l-.00262.00895a14.6884,14.6884,0,0,0,9.981,18.21752l.01054.00307a14.68841,14.68841,0,0,0,18.218-9.98022ZM79.804,229.654a17.01358,17.01358,0,1,0-24.00951,1.57079A17.01359,17.01359,0,0,0,79.804,229.654Z" fill="url(#linear-gradient-2)"/></svg>