<svg id="Layer_1" data-name="Layer 1" xmlns="http://www.w3.org/2000/svg" viewBox="0 0 300 300"><path d="M25,112.8618c8.30885.066,16.62531-.07485,24.92453.25276,9.35812.36941,17.36363,4.00841,22.608,12.37447,6.19336,9.87988,4.68836,21.70437-3.50529,30.08573-1.6118,1.64873-3.42279,3.08858-5.5269,4.96879l11.84314,23.675-9.77044.66516-11.765-21.1603H35.29256V184.789L25,184.28321Zm10.59886,42.41456c6.09739-.315,11.79408-.07837,17.30109-1.02514,7.26287-1.24864,11.968-7.50878,12.33559-15.00351.37821-7.71112-4.197-15.1287-11.372-16.8299a35.6038,35.6038,0,0,0-18.26464.25379Z" fill="#1c178b"/><path d="M160.6789,112.8618c8.30885.066,16.62531-.07485,24.92453.25276,9.35812.36941,17.36363,4.00841,22.608,12.37447,6.19336,9.87988,4.68836,21.70437-3.50528,30.08573-1.61181,1.64873-3.42279,3.08858-5.5269,4.96879l11.84313,23.675-9.77044.66516-11.765-21.1603H170.97146V184.789l-10.29256-.50582Zm10.59886,42.41456c6.09739-.315,11.79408-.07837,17.30109-1.02514,7.26287-1.24864,11.968-7.50878,12.3356-15.00351.3782-7.71112-4.197-15.1287-11.37205-16.8299a35.6038,35.6038,0,0,0-18.26464.25379Z" fill="#1c178b"/><rect x="113.00794" y="96.82854" width="11.00099" height="106.34292" fill="#7673b8"/><path d="M265.62664,113.78738H275c-6.33764,12.08319-12.46318,23.76205-18.8681,35.97354l18.28815,34.94564H265.35c-4.34221-7.70866-8.87359-15.75323-14.152-25.12394-5.08231,9.097-9.56629,17.12319-14.10869,25.25385H227.831c6.28907-11.95334,12.27131-23.32354,18.42742-35.02426-6.19521-11.83365-12.31533-23.5237-18.76167-35.837l9.08064-.50777c4.566,8.36718,9.111,16.69578,14.58542,26.72744C256.50126,130.44809,260.91817,122.38389,265.62664,113.78738Z" fill="#1c178b"/></svg>