<svg id="Layer_1" data-name="Layer 1" xmlns="http://www.w3.org/2000/svg" viewBox="0 0 300 300"><defs><style>.cls-1{fill:#0d2133;}.cls-2{fill:#635e9d;}</style></defs><path class="cls-1" d="M53.93,138.75c1.23-10.06,8.88-17.9,19.53-20a32.18,32.18,0,0,1,6.12-.64q19.4,0,38.71,0c.75.88.43,1.8.42,2.63q-.1,43.53-.27,87.05c0,6.3-.64,12.51-2.92,18.46-5.34,13.94-17.79,21.38-32.56,19.34-7.72-1.07-15.19-3-21.36-8.14A21.1,21.1,0,0,1,54,223.39c0-3.78.06-7.56-.08-11.34-.11-2.87.48-5.79-.49-8.61V150.5C54.46,146.62,53.81,142.67,53.93,138.75Z"/><path class="cls-1" d="M181.57,118.08c-1.07-.07-2.13-.21-3.2-.21H119.49a4,4,0,0,1-.53-2.74c-.25-12.53-.65-25.07-.63-37.6,0-9.52,5.24-15.9,13.56-19.89a32.53,32.53,0,0,1,10.38-3c1.39.12,2.8.31,4-.59H151a7.85,7.85,0,0,0,4.81.42c9.27.85,17.28,3.94,22.29,12.44,2.71,4.6,3.63,9.65,3.79,14.87.38,12.12-.15,24.24-.39,36.35Z"/><path class="cls-2" d="M53.39,203.44c1,2.82.38,5.74.49,8.61.14,3.78.07,7.56.08,11.34l-.57,0Z"/><path class="cls-2" d="M53.93,138.75c-.12,3.92.53,7.87-.54,11.75V138.74A.44.44,0,0,0,53.93,138.75Z"/><path class="cls-2" d="M155.84,54.46A7.85,7.85,0,0,1,151,54h4.7A.26.26,0,0,1,155.84,54.46Z"/><path class="cls-2" d="M146.32,54c-1.25.9-2.66.71-4,.59a3.06,3.06,0,0,0,.1-.41c0-.06-.11-.12-.17-.18Z"/><path class="cls-2" d="M181.53,118.12c12.84,0,25.68-.21,38.51,0,13.94.2,22.36,7.09,25.35,20.66A49.19,49.19,0,0,1,245,162c-2.84,10.78-10.45,17.24-21.68,18.56a72.48,72.48,0,0,1-22-.27c-12-2.24-19.47-11.58-19.68-24.33-.2-11.47,0-22.94,0-34.4,0-1.17-.06-2.35-.1-3.52Z"/></svg>