<svg id="Layer_1" data-name="Layer 1" xmlns="http://www.w3.org/2000/svg" xmlns:xlink="http://www.w3.org/1999/xlink" viewBox="0 0 300 300"><defs><linearGradient id="linear-gradient" x1="85.85402" y1="2227.4789" x2="233.11809" y2="2077.18566" gradientTransform="matrix(1, 0, 0, -1, 0, 2306.20823)" gradientUnits="userSpaceOnUse"><stop offset="0" stop-color="#f9f9f9"/><stop offset="1" stop-color="#cecece"/></linearGradient></defs><path d="M236.2015,194.26047c-29.59263,56.15608-95.53524,80.03988-147.14757,53.3599C37.4416,220.82391,19.73262,153.83273,49.32525,97.67666s95.53524-79.9234,147.14758-53.24342S265.79414,138.22088,236.2015,194.377Z" fill="#a7a9a8"/><path d="M250.29877,201.71687c-29.47613,55.69-93.20512,80.15641-142.37082,54.758C58.76225,230.96,42.68437,165.25038,72.16049,109.56031c29.35961-55.69006,93.20512-80.27289,142.25431-54.758,49.2822,25.3984,65.24358,91.22451,35.884,146.79808Z" fill="url(#linear-gradient)"/><path d="M205.90984,52.7052c-19.8061,36.93253-61.9814,130.83668-72.933,210.294Z" fill="#bdbec0"/><path d="M132.97683,263.8148l73.399-211.57561a901.05529,901.05529,0,0,1-22.36923,98.5644C174.5696,180.39622,146.02554,238.4164,132.97683,263.8148Z" fill="#f9f9f9"/><path d="M214.05793,198.47753c-2.45591-.12361-4.78887-.33989-5.79281-.896-10.25735-17.16215-28.19168-38.32524-35.88451-46.79044,13.0376-6.24085,33.64508-27.9754,30.0917-45.014-3.45985-16.9305-19.27845-24.51518-43.23716-20.94681-19.1555,2.78053-49.01488,11.36934-61.49658,15.26214v.10814c1.34412,2.67239,10.25735,1.9,14.48957,1.11218l2.11649,116.984-12.4817,6.24075c-3.78494,1.79187-1.56059,3.12043,0,3.56837,15.262-3.46022,46.01816-10.47345,46.01816-11.69377,0-1.11217-10.36521-2.56424-15.60212-3.12042V165.26541l20.05082-4.557c8.24948,5.453,30.86407,30.18438,41.22928,42.00175-3.24337,1.11227-10.47307,3.67651-13.82505,5.34487-3.33691,1.56021-1.452,3.22847,0,3.78456,14.14939-2.78053,42.55755-9.02129,42.34108-11.13759C221.85937,199.03362,217.84287,198.69382,214.05793,198.47753Zm-77.6546-39.11308c-2.00787.10815-4.46378,0-4.46378-4.89683l1.34335-54.9313h.10862c-.23156-1.66836.77237-5.34487,5.1283-7.01322,5.45339-2.23982,40.88986-9.701,42.10952,21.16309C181.74189,144.6584,156.45415,157.3563,136.40333,159.36445Z" fill="#3873b2" fill-rule="evenodd"/></svg>