<svg id="Layer_1" data-name="Layer 1" xmlns="http://www.w3.org/2000/svg" viewBox="0 0 300 300"><defs><style>.cls-1{fill:#3bb34c;}.cls-2{fill:#0d9345;}.cls-3{fill:#035c28;}</style></defs><path class="cls-1" d="M49,92.89c2.17.94,2.89,3.16,4.1,4.87,11.45,16.29,22.78,32.67,34.17,49,.74,1.07,1.3,2.34,2.61,2.93-.07.24-.13.49-.2.73-7.88,11.55-16,22.93-24,34.44-4.8,7-9.62,13.94-14.62,20.77a9.3,9.3,0,0,0-1.86,3.19c-.86-1-.48-2.17-.48-3.26q0-54.78,0-109.57C48.69,95,48.87,93.92,49,92.89Z"/><path class="cls-2" d="M89.64,150.43q12,23.26,24.08,46.54,17,33,34,66c.56,1.09,1,2.22,1.78,3.8a39.92,39.92,0,0,1-7.5-3.94q-45.5-26.28-91-52.64a21.21,21.21,0,0,1-1.84-1.31,9.3,9.3,0,0,1,1.86-3.19c5-6.83,9.82-13.81,14.62-20.77C73.63,173.36,81.76,162,89.64,150.43Z"/><path class="cls-2" d="M152.2,33.6c9.66,5,18.89,10.74,28.31,16.16q33.87,19.47,67.65,39.1c.9.53,1.72,1.18,2.58,1.78-2.18,4.14-5.17,7.73-7.83,11.55q-15,21.57-30,43.11a3.14,3.14,0,0,1-3.06,1.62c-6.41-12.35-12.86-24.69-19.24-37.06Q171.8,73.37,153,36.83c-.47-.92-.79-1.92-1.18-2.88Z"/><path class="cls-3" d="M128.23,46.1Q119.77,69,111.31,91.9q-10.71,28.91-21.47,57.8c-1.31-.59-1.87-1.86-2.61-2.93-11.39-16.34-22.72-32.72-34.17-49-1.21-1.71-1.93-3.93-4.1-4.87-.56-1.83,1.08-2,2-2.57q32.19-18.82,64.41-37.6c4.11-2.38,8.06-5,12.41-7A2.92,2.92,0,0,0,128.23,46.1Z"/><path class="cls-3" d="M251,206.61c-5.69,4-11.88,7.21-17.88,10.72q-29.26,17.17-58.61,34.23c-.57.33-1.15.64-1.67.93-.86-.54-.33-1.11-.17-1.56q18.74-50.35,37.51-100.7c2-1.15,2.22,1,2.78,1.81,5,7,9.93,14.19,14.87,21.3Q239.38,190,251,206.61Z"/><path class="cls-1" d="M251,206.61Q239.39,190,227.8,173.34c-4.94-7.11-9.82-14.26-14.87-21.3-.56-.79-.76-3-2.78-1.81-.1-1.11-.19-2.21-.29-3.31a3.14,3.14,0,0,0,3.06-1.62q15-21.59,30-43.11c2.66-3.82,5.65-7.41,7.83-11.55,1,.71.5,1.76.5,2.63q0,55.13,0,110.25A6.62,6.62,0,0,1,251,206.61Z"/><path class="cls-3" d="M127.82,45.73l.39-.35c.34.24.2.48,0,.72A2.92,2.92,0,0,1,127.82,45.73Z"/><path class="cls-2" d="M151.85,34c-.25-.12-.45-.27-.28-.59s.49,0,.63.24Z"/></svg>