<svg id="Layer_1" data-name="Layer 1" xmlns="http://www.w3.org/2000/svg" viewBox="0 0 300 300"><path d="M251.09973,113.555a107.45006,107.45006,0,0,1-136.87184,137.7828l-5.73906,16.57949A124.98382,124.98382,0,0,0,267.58812,107.63377Z" fill="#417cbb"/><path d="M42.53528,149.99345A107.4478,107.4478,0,0,1,184.41741,48.19359l5.73905-16.57949A124.98382,124.98382,0,0,0,32.42361,192.39867l16.48839-5.9668a106.036,106.036,0,0,1-6.37672-36.43843" fill="#417cbb"/><path d="M46.13357,210.66343h0a6.97082,6.97082,0,0,1-1.36644,0,7.33324,7.33324,0,0,1-5.88933-8.5363l.01363-.07228A7.42433,7.42433,0,0,1,47.5,196.13361a7.33319,7.33319,0,0,1,4.55481,3.09727,7.46989,7.46989,0,0,1,1.1387,5.55686,7.33323,7.33323,0,0,1-7.24214,6.01234" fill="#417cbb"/><path d="M59.297,230.61347H57.93052a7.46988,7.46988,0,0,1-5.8757-8.65413,7.37878,7.37878,0,1,1,7.24214,8.74521" fill="#417cbb"/><path d="M76.14973,247.05631h0a7.37879,7.37879,0,1,1,6.10343-11.5692,7.69755,7.69755,0,0,1,1.18425,5.55686,7.46985,7.46985,0,0,1-7.28768,6.01234" fill="#417cbb"/><path d="M97.19292,260.62963h0a6.51492,6.51492,0,0,1-1.32089,0,7.28768,7.28768,0,1,1,1.32089,0" fill="#417cbb"/><path d="M253.78707,103.58h-1.3209a7.15106,7.15106,0,0,1-4.5548-3.05172,7.3702,7.3702,0,1,1,5.8757,2.86952" fill="#417cbb"/><path d="M240.62369,83.63h-1.36644a7.33324,7.33324,0,1,1,1.36644,0" fill="#417cbb"/><path d="M223.77091,67.18712h-1.36644a7.37878,7.37878,0,1,1,1.36644,0" fill="#417cbb"/><path d="M202.63663,53.65935a6.96772,6.96772,0,0,1-1.36644,0,7.37878,7.37878,0,1,1,7.46987-11.43255,7.151,7.151,0,0,1,1.2298,5.55686,7.37878,7.37878,0,0,1-7.33323,5.87569" fill="#417cbb"/><path d="M68.13328,126.12628c-.59213,1.913-1.09316,3.78049-1.50309,5.648A84.99265,84.99265,0,0,0,140.919,234.5306a77.432,77.432,0,0,0,12.16133.3644,84.9013,84.9013,0,0,0,24.14046-4.55481l-5.37467-15.213a70.32627,70.32627,0,0,1-19.449,3.6894,71.23892,71.23892,0,0,1-9.88393-.31884A68.59536,68.59536,0,0,1,82.43536,135.327c.31883-1.54864.68322-3.05172,1.1387-4.55481Z" fill="#417cbb"/><path d="M217.84967,163.339l15.85071,3.325a88.22644,88.22644,0,0,0,1.68528-18.67469,85.26592,85.26592,0,0,0-74.37994-82.3964,84.3536,84.3536,0,0,0-12.20687-.63768A87.26978,87.26978,0,0,0,129.031,67.68815l4.19042,15.623a71.51095,71.51095,0,0,1,15.89626-2.1863,65.31591,65.31591,0,0,1,9.88393.501,68.32206,68.32206,0,0,1,59.79405,75.89781q-.34734,2.92674-.946,5.81537" fill="#417cbb"/><path d="M116.09536,88.77689h0a6.51311,6.51311,0,0,1-2.09521-.31884,7.33323,7.33323,0,0,1-5.02046-9.07455l.01018-.035a7.561,7.561,0,0,1,9.1096-4.96474,7.37879,7.37879,0,0,1,4.55481,3.55275,7.28772,7.28772,0,0,1,.59212,5.60241,7.37879,7.37879,0,0,1-7.151,5.238" fill="#417cbb"/><path d="M97.87614,103.98993h0a6.51338,6.51338,0,0,1-2.09521-.31883,7.37878,7.37878,0,0,1-5.01028-9.10961,7.60651,7.60651,0,0,1,9.1096-5.01028,7.37878,7.37878,0,0,1-2.00411,14.43872" fill="#417cbb"/><path d="M82.43536,123.53h0a6.96906,6.96906,0,0,1-2.14076-.31884,7.24216,7.24216,0,0,1-4.55481-3.55275,7.10552,7.10552,0,0,1-.59212-5.60241,7.42433,7.42433,0,0,1,9.10961-4.96473,7.05993,7.05993,0,0,1,4.5548,3.5072A7.33324,7.33324,0,0,1,82.38981,123.53" fill="#417cbb"/><path d="M187.01365,221.68606h0a6.42237,6.42237,0,0,1-2.04967-.31884,7.24216,7.24216,0,0,1-4.5548-3.5072,7.44509,7.44509,0,1,1,6.51337,3.78048" fill="#417cbb"/><path d="M205.00513,206.51855h0a7.92509,7.92509,0,0,1-2.04967-.27329,7.4699,7.4699,0,1,1,2.04967.27329" fill="#417cbb"/><path d="M220.58255,186.88736h0a8.01643,8.01643,0,0,1-2.09521-.27329,7.37506,7.37506,0,1,1,8.65413-10.6127,7.10546,7.10546,0,0,1,.59213,5.6024,7.42433,7.42433,0,0,1-7.05994,5.32912" fill="#417cbb"/></svg>