<svg id="Layer_1" data-name="Layer 1" xmlns="http://www.w3.org/2000/svg" viewBox="0 0 300 300"><defs><style>.cls-1{fill:#c03c35;}.cls-2{fill:#c2423c;}</style></defs><path class="cls-1" d="M128.7,150.2c0,6.19,0,12.39,0,18.58a4.43,4.43,0,0,1-2.47,4.36q-16,9.12-31.92,18.39a4.72,4.72,0,0,1-5.29,0Q73,182.23,56.88,173a4.29,4.29,0,0,1-2.43-4.1q0-18.74,0-37.47a4,4,0,0,1,2.32-3.84q16.23-9.3,32.41-18.71a4.47,4.47,0,0,1,5,0q15.89,9.3,31.89,18.42a4.63,4.63,0,0,1,2.65,4.55C128.64,138,128.7,144.1,128.7,150.2Z"/><path class="cls-1" d="M245.51,83.47c0,6.1-.08,12.19,0,18.28a4.59,4.59,0,0,1-2.63,4.55q-16,9.11-31.9,18.37a4.37,4.37,0,0,1-5,.07q-16.29-9.51-32.67-18.83a3.83,3.83,0,0,1-2.11-3.64q0-18.88,0-37.75a4,4,0,0,1,2.33-3.81Q189.83,51.41,206,42a4.47,4.47,0,0,1,5,0q15.9,9.27,31.88,18.39a4.79,4.79,0,0,1,2.69,4.82C245.41,71.29,245.51,77.38,245.51,83.47Z"/><path class="cls-1" d="M132.17,150.16c0-6.09.05-12.19,0-18.28a4.36,4.36,0,0,1,2.44-4.35q16.14-9.19,32.16-18.57a4.62,4.62,0,0,1,5.26.09q15.9,9.3,31.9,18.41a4.47,4.47,0,0,1,2.51,4.35q0,18.58,0,37.17a4.29,4.29,0,0,1-2.43,4.1q-16.12,9.21-32.17,18.55a4.52,4.52,0,0,1-5,0q-16.05-9.34-32.18-18.54a4.39,4.39,0,0,1-2.46-4.35C132.23,162.56,132.17,156.36,132.17,150.16Z"/><path class="cls-1" d="M167.65,62.21v42.64L130.83,126.1,93.9,104.78c0-14.43,0-28.31,0-42.19a5.47,5.47,0,0,1,2.45-2.11Q112.17,51.35,128,42.21c1.65-1,3.11-1.51,5-.41,10.94,6.39,21.94,12.7,32.91,19.05A17.59,17.59,0,0,1,167.65,62.21Z"/><path class="cls-2" d="M92.63,216.57c0-6.09.07-12.19,0-18.28A4.34,4.34,0,0,1,95.05,194q16.13-9.18,32.13-18.57a4.66,4.66,0,0,1,5.27,0q15.88,9.29,31.88,18.41a4.63,4.63,0,0,1,2.56,4.6q-.1,18.27,0,36.55a4.83,4.83,0,0,1-2.75,4.8q-15.9,9-31.66,18.21a4.64,4.64,0,0,1-5.25.07q-16-9.36-32.17-18.54a4.39,4.39,0,0,1-2.46-4.35C92.69,229,92.63,222.76,92.63,216.57Zm69.64-18.88-32.48-18.76L97.19,197.8v37.85l32.61,18.77,32.47-18.68Z"/></svg>