<?xml version="1.0" encoding="UTF-8" standalone="no"?>
<svg
   version="1.2"
   viewBox="0 0 300 300"
   width="300"
   height="300"
   id="svg22"
   sodipodi:docname="SANA_mark.svg"
   inkscape:version="1.2.1 (9c6d41e4, 2022-07-14)"
   xmlns:inkscape="http://www.inkscape.org/namespaces/inkscape"
   xmlns:sodipodi="http://sodipodi.sourceforge.net/DTD/sodipodi-0.dtd"
   xmlns="http://www.w3.org/2000/svg"
   xmlns:svg="http://www.w3.org/2000/svg"
   xmlns:rdf="http://www.w3.org/1999/02/22-rdf-syntax-ns#"
   xmlns:cc="http://creativecommons.org/ns#"
   xmlns:dc="http://purl.org/dc/elements/1.1/">
  <sodipodi:namedview
     id="namedview24"
     pagecolor="#ffffff"
     bordercolor="#666666"
     borderopacity="1.0"
     inkscape:showpageshadow="2"
     inkscape:pageopacity="0.0"
     inkscape:pagecheckerboard="0"
     inkscape:deskcolor="#d1d1d1"
     showgrid="false"
     inkscape:zoom="0.86130168"
     inkscape:cx="450.48095"
     inkscape:cy="265.29613"
     inkscape:window-width="1440"
     inkscape:window-height="847"
     inkscape:window-x="0"
     inkscape:window-y="25"
     inkscape:window-maximized="0"
     inkscape:current-layer="svg22" />
  <title
     id="title9">SANA_BIG copy-svg</title>
  <defs
     id="defs14">
    <clipPath
       clipPathUnits="userSpaceOnUse"
       id="cp1">
      <path
         d="M -15530.81,-4195.26 H 2151.04 v 9947.42 h -17681.85 z"
         id="path11" />
    </clipPath>
  </defs>
  <style
     id="style16">
		tspan { white-space:pre }
		.shp0 { fill: #004b96 } 
	</style>
  <g
     id="Clip-Path: Clip-Path: Page 1"
     clip-path="url(#cp1)"
     transform="matrix(0.14299687,0,0,0.14299687,39.311128,39.169561)">
    <g
       id="Clip-Path: Page 1">
      <g
         id="Page 1">
        <path
           id="Path 3"
           fill-rule="evenodd"
           class="shp0"
           d="M 774.09,1549.76 C 348.44,1549.76 0.48,1202.87 0.48,775.14 0.48,348.68 348.44,0.35 774.09,0.35 c 230.97,0 448.65,102.22 594.89,281.11 -18.76,16.21 -37.56,33.7 -56.33,49.74 0,0 0,0 -18.8,14.9 -40.33,36.28 -83.25,72.6 -120.82,104.81 0,0 0,0 -4.07,4.07 -61.86,52.49 -123.57,106.29 -183.98,157.3 -22.84,18.8 -45.68,37.77 -68.52,56.56 -46.98,40.36 -88.59,74.05 -127.64,104.81 -53.61,40.36 -93.94,70.02 -134.27,95.61 -18.8,-12.14 -41.64,-20.25 -64.48,-20.25 -61.69,0 -111.43,51.22 -111.43,113.09 0,61.91 49.74,111.64 111.43,111.64 61.89,0 112.91,-49.73 112.91,-111.64 0,-14.9 -2.76,-29.66 -9.38,-43.11 0,0 0,0 0,-1.27 33.5,-35.01 69.79,-70.02 119.54,-115.68 36.26,-33.73 76.41,-68.74 123.4,-109.05 21.53,-16.04 41.81,-33.53 61.89,-51.05 0,0 0,0 6.63,-5.34 60.4,-51.22 123.57,-103.71 186.74,-154.72 0,0 0,0 6.66,-5.35 40.33,-32.24 80.66,-67.25 122.3,-99.67 0,0 0,0 17.49,-14.73 18.76,-14.72 38.84,-30.93 57.64,-46.97 99.46,134.47 151.76,293.09 151.76,459.98 0,427.73 -346.43,774.62 -773.56,774.62 z" />
      </g>
    </g>
  </g>
  <metadata
     id="metadata184">
    <rdf:RDF>
      <cc:Work
         rdf:about="">
        <dc:title>SANA_BIG copy-svg</dc:title>
      </cc:Work>
    </rdf:RDF>
  </metadata>
</svg>
