<svg id="Layer_1" data-name="Layer 1" xmlns="http://www.w3.org/2000/svg" viewBox="0 0 300 300"><path d="M197.28721,150.03083a47.4794,47.4794,0,1,0,0,.25344v-.25344Z" fill="#7c3b57"/><path d="M230.44666,245.87634a125.24544,125.24544,0,0,1-161.02383,0l41.18527-41.22752a67.12146,67.12146,0,0,0,78.611,0Z" fill="#7c3b57"/><path d="M245.18883,231.17639l-41.22755-41.22752a67.12143,67.12143,0,1,0-107.88432,0L54.80725,231.17639a124.94976,124.94976,0,0,1-29.56891-88.70674h0A126.72365,126.72365,0,0,1,56.53916,66.85771h0a123.56028,123.56028,0,0,1,10.518-10.51809h0a126.72384,126.72384,0,0,1,75.56962-31.3008h0a125.41426,125.41426,0,0,1,14.91118,0h0a126.724,126.724,0,0,1,75.61191,31.3008h0a123.56174,123.56174,0,0,1,10.518,10.51809h0a126.17519,126.17519,0,0,1,31.08979,75.86538h0a124.78079,124.78079,0,0,1-29.56891,88.70673Z" fill="#314971"/></svg>