<svg id="Layer_1" data-name="Layer 1" xmlns="http://www.w3.org/2000/svg" viewBox="0 0 300 300"><path id="Fill-1" d="M196.07075,90.28567c11.427,13.82451,42.19868,9.21688,51.15716-8.49093a27.66075,27.66075,0,0,0,.264-23.57918c-5.5936-11.82755-19.2768-16.0492-29.96011-14.33324-12.912,2.07367-24.39719,13.29559-26.04128,27.11283-.2269,1.89926-1.4309,12.01812,4.58018,19.29052" fill="#9ac851" fill-rule="evenodd"/><path id="Fill-3" d="M176.784,85.78964c.06622.42152.13971.87534.2576,1.49066.56526,2.94417,1.997,8.61125,5.52173,13.18577,6.11282,7.93375,17.03274,9.64,21.65975,10.26179,4.82647.64843,7.40887.09367,13.54349,1.69738a41.38532,41.38532,0,0,1,9.03923,3.31481c3.65478,1.91864,12.07465,6.33974,15.12217,15.94664a26.68761,26.68761,0,0,1-5.35619,25.01493c-9.46236,10.56865-24.402,7.06568-29.10252,5.96425-2.31513-.54264-16.40692-3.98989-23.70032-16.83-5.37073-9.45671-1.99212-15.30306-9.13612-24.1396-1.37843-1.70465-6.4754-8.01127-14.60376-9.90972a13.61755,13.61755,0,0,0-1.46885-.2689,49.04835,49.04835,0,0,0-11.62648-.06541,24.76815,24.76815,0,0,1-16.39723-4.51638c-8.19377-6.343-8.11624-19.024-8.10413-20.99274.10012-16.17355,12.61-26.07762,14.24925-27.33087,2.88684-2.20772,16.54258-11.93252,28.57846-5.50558,4.63671,2.47663,11.03216,8.41745,11.44318,15.48071.22125,3.78882-1.22418,8.864.08074,17.20231" fill="#428d7e" fill-rule="evenodd"/><path id="Fill-5" d="M107.17092,89.3031c.99646-10.06557,1.95013-19.69266-3.06207-27.4859A22.45662,22.45662,0,0,0,87.1601,51.69914C74.44268,50.79715,66.32482,62.351,65.049,64.167c-6.25333,8.90034-5.89641,18.634-5.7333,23.09145.15827,4.31693.51277,11.36485,4.93952,18.2117,4.17642,6.46166,9.91779,9.50354,13.35616,11.32446,6.17015,3.26879,8.01773,2.49116,16.0613,6.674,3.47793,1.808,7.23526,3.71614,10.14955,6.5626,2.47016,2.412,3.70322,5.1309,6.07,10.47013,1.34692,3.03784,1.17815,3.32208,3.75247,10.12694a82.34645,82.34645,0,0,0,3.71777,9.08445c.21641.386,3.49569,6.431,9.05295,9.81039,6.15723,3.7436,11.93333,3.2155,17.67067,3.32047,4.95727.09044,30.85886,1.14585,41.3209,16.45617,3.61844,5.29563,5.68324,12.7255,6.82667,16.83894,1.64409,5.91822.5063,5.36265,2.76167,14.00538,2.61309,10.01551,4.88057,18.19313,11.05719,23.19966,5.11958,4.15059,13.83984,6.81213,20.9669,3.50943,14.5868-6.75721,12.08756-34.41512,11.73145-37.91807-.78-7.68182-1.57706-15.534-7.23768-21.27134-6.97524-7.06892-19.55135-9.11756-33.65526-11.41573a41.20933,41.20933,0,0,1-5.15592-1.19107c-.64923-.19219-1.32834-.41748-2.07449-.69446-7.5849-2.80689-12.37665-7.68179-16.71456-12.1893-3.91319-4.065-7.857-8.16228-11.01279-14.86539-3.35437-7.12544-2.60663-10.374-6.58521-14.47132-3.56837-3.675-7.80778-4.84019-10.693-5.62428-7.17308-1.94932-9.02308.4304-18.07764-.82043-4.77237-.65974-9.13694-1.26294-13.56127-4.54868a23.60525,23.60525,0,0,1-8.18246-11.28087c-2.2053-6.71119.29231-10.36919,1.37034-21.25922" fill="#2e5f60" fill-rule="evenodd"/><path id="Fill-7" d="M107.577,170.14443c4.23779,6.77094,9.66182,10.18184,16.05888,14.20484a65.69445,65.69445,0,0,0,18.18666,8.00723c2.36035.61129,6.42291,1.057,14.51009,2.127,7.41856.98111,7.68261.8721,9.32669,1.38648,2.19157.68639,9.73611,3.04592,13.79787,10.11564,2.93771,5.11233,2.85211,10.2521,1.59321,20.413-.61532,4.96294-1.19592,9.34688-3.90591,14.36877-.95528,1.76924-5.77448,10.28521-15.67451,13.87538-3.2809,1.18945-8.49416,3.07983-13.97471.69768-5.11716-2.22387-7.6059-6.92759-8.64516-8.89145-1.9792-3.742-2.41282-7.06084-2.97647-11.70885-.94963-7.82311.41829-8.92939-.4627-14.6312a34.5286,34.5286,0,0,0-5.80355-14.40107c-4.53011-6.39787-10.24887-9.33478-13.961-11.2413-4.63024-2.3781-8.4562-3.32289-13.248-4.51315-6.87511-1.70788-9.58187-1.50116-16.04838-2.54123-10.34416-1.66346-16.42307-2.64135-22.26376-6.42774-1.64651-1.06672-15.48071-10.06718-13.97148-22.90412,1.09417-9.30328,9.938-15.60748,16.80017-17.66259,10.95867-3.28171,20.24015,3.26395,24.63218,6.36073,5.546,3.91156,8.77194,9.4236,10.24161,11.74276,3.57483,5.64205,2.89894,7.00593,5.7882,11.62325" fill="#d58439" fill-rule="evenodd"/><path id="Fill-10" d="M75.54848,203.59369c11.54411-9.89923,26.00494-5.98928,27.276-5.621,3.19046.92216,10.54765,3.04914,14.81532,10.48385,5.13736,8.94879,1.94609,18.87869,1.28394,20.94026-3.87281,12.04879-15.02608,19.01273-24.696,20.84658-2.30866.43767-18.928,3.31321-26.85444-7.94747-7.878-11.19446-2.42171-29.6153,8.1752-38.70217" fill="#384443" fill-rule="evenodd"/></svg>