<svg id="Layer_1" data-name="Layer 1" xmlns="http://www.w3.org/2000/svg" viewBox="0 0 300 300"><path d="M51.57829,99.03124c.19874-.15394-.093.20228,0,0,2.89366-6.29622,8.08083-10.072,14.17027-12.861,4.67925-2.14307,9.692-3.08283,14.70169-4.02121,8.21841-1.53942,16.52761-1.17875,24.81919-1.12046a136.063,136.063,0,0,1,20.00389,1.5448c3.8106.59314,7.63508,1.0977,11.57976,1.66016.45265,4.62492-1.66994,7.72542-4.924,10.39895-1.48077-.20418-2.94988-.42724-4.42439-.60621-4.36051-.52926-8.73125-.9818-13.083-1.57363-6.5151-.88606-13.057-.54885-19.58349-.43622A41.05853,41.05853,0,0,0,78.89,95.19684c-3.05547,1.34238-6.0771,2.93885-7.95459,5.84718-2.07044,3.20722-2.68407,6.66909-.87124,10.25564a8.94542,8.94542,0,0,0,2.95666,3.26188c5.22988,3.7406,11.29416,5.25866,17.36787,6.72605,6.99917,1.691,14.04164,3.204,21.06683,4.78761a85.01185,85.01185,0,0,1,15.03406,4.85009,34.16973,34.16973,0,0,1,8.75045,5.40107,19.53937,19.53937,0,0,1,7.13931,13.91767,21.83775,21.83775,0,0,1-4.04469,15.13756,25.08021,25.08021,0,0,1-8.11439,7.08594,49.98019,49.98019,0,0,1-17.70926,5.78621c-3.48436.46761-7.00259.68812-10.48356,1.17605-5.19588.72834-10.40938.427-15.60944.34094-3.68618-.061-7.3722-.50785-11.04493-.9052-4.54291-.49152-9.09675-.96355-13.59924-1.71994-3.6287-.60959-7.18816-1.629-10.77834-2.46662a6.77742,6.77742,0,0,1,0-6.88265c.184-1.60918,1.50684-2.55407,3.27708-3.78867,1.30657.236,2.59107.51286,3.889.69464,5.39413.75554,10.78282,1.56352,16.19214,2.193,4.01763.46755,8.05939.77322,12.09906.99293,2.82191.15346,5.65886.07378,8.48836.03876,7.01674-.08683,13.81654-1.0743,20.25319-4.1688,4.48187-2.15472,7.70089-6.65957,7.46766-11.44684a11.21088,11.21088,0,0,0-6.11807-9.57918,49.61557,49.61557,0,0,0-7.25432-3.15187c-6.79-2.50175-13.93749-3.63206-20.96047-5.22595A175.79847,175.79847,0,0,1,68.20861,129.041c-5.113-1.81721-9.95032-4.16723-13.62837-8.30975-1.32469-1.492-2.39718-3.2066-3.58476-4.81962C49.79519,107.77505,49.34823,104.42286,51.57829,99.03124Z" fill="#75777b"/><path d="M247.84214,85.16046c.36319,3.077-.332,5.401-2.82156,7.1005a27.68717,27.68717,0,0,0-2.89324,2.59314c-4.39323-.757-8.68882-1.64545-13.02686-2.2093a89.2652,89.2652,0,0,0-19.0434-.52422c-5.86334.49767-11.70681,1.4305-17.05729,4.22408a27.20576,27.20576,0,0,0-13.03721,14.38078,49.31168,49.31168,0,0,0-2.82452,11.72721,68.37615,68.37615,0,0,0-.31557,13.18523,43.91824,43.91824,0,0,0,3.379,15.07922c3.25459,7.57511,8.99328,12.44277,16.74185,15.1146a57.90042,57.90042,0,0,0,10.84164,2.14894,76.93911,76.93911,0,0,0,13.48868.38762,105.34372,105.34372,0,0,0,16.76783-1.87383c1.89486-.3704,3.80174-.67966,5.82789-1.039,4.35556,2.51872,6.09615,5.24295,6.13063,9.82779-2.26391,1.18238-4.829,1.40306-7.29892,1.87492a108.63925,108.63925,0,0,1-18.58448,2.26541c-4.67475.07774-9.35557.50816-14.01963.35515-8.913-.29241-17.73117-1.37784-26.11562-4.6865-11.30132-4.45971-19.649-11.95613-24.05695-23.45151-.616-1.60637-1.86258-2.89557-2.12408-4.6963-.45274-3.11758-1.19693-6.1972-1.55806-9.3227a69.74337,69.74337,0,0,1-.46914-8.94531c.073-5.27856.438-10.62767,2.26352-15.57015,2.08562-5.64654,4.67434-11.15967,8.72384-15.78626a40.81764,40.81764,0,0,1,11.81668-9.24656A60.59532,60.59532,0,0,1,197.08148,82.09c9.22015-1.53853,18.50109-1.30638,27.75454-.899a102.53336,102.53336,0,0,1,21.55966,3.53612C246.81237,84.83677,247.22183,84.97372,247.84214,85.16046Z" fill="#75777b"/><ellipse cx="148.26168" cy="205.36301" rx="84.43956" ry="13.74881" fill="#fff"/></svg>