<svg id="Layer_1" data-name="Layer 1" xmlns="http://www.w3.org/2000/svg" viewBox="0 0 300 300"><path d="M219.99722,145.35692a21.90434,21.90434,0,0,1,3.27116,4.44689,15.97857,15.97857,0,0,1-4.91982,5.80712c-1.387-1.85723-2.43374-3.976-4.44877-5.284a33.67853,33.67853,0,0,1,4.86748-6.33028C219.186,144.46754,219.57852,144.91223,219.99722,145.35692Z" fill="#8baf00"/><path d="M218.79344,143.97054c.39254.47085.78508.94169,1.20378,1.38638-.4187-.44469-.81124-.88938-1.23-1.36022Z" fill="#8baf00"/><path d="M218.872,143.18579l-.07851.78475-.02617.02616v-.02616C218.81961,143.709,218.84578,143.44737,218.872,143.18579Z" fill="#bccd8c"/><path d="M197.59637,147.9989c2.51224-1.04633,3.92538-.39237,4.39643,1.988a2.915,2.915,0,0,1-2.53842,2.53735C196.99447,151.97494,196.39258,150.51008,197.59637,147.9989Z" fill="#bbd732"/><path d="M190.84471,147.50189a2.22744,2.22744,0,0,1,2.43374,1.70029c.44487,1.9357-.62807,2.90355-2.35524,3.34824-1.80567-.39237-2.85244-1.36022-2.4599-3.29593A2.17755,2.17755,0,0,1,190.84471,147.50189Z" fill="#bbd732"/><path d="M184.48559,148.36511c.18318,3.03435.18318,3.03435-2.27673,4.15916a2.88389,2.88389,0,0,1-2.4599-2.485C180.377,147.31879,181.94717,146.84794,184.48559,148.36511Z" fill="#bbd732"/><path d="M176.55631,130.34212c5.80957-10.09706,5.28618-20.37723.70657-30.70971a22.66562,22.66562,0,0,1,6.647-2.58966.80619.80619,0,0,0,.49722.07847c5.39086,12.03277,5.31235,23.98706-.39254,35.86288-.28786.23542-.57572.497-.83742.73243-3.97772-.28774-7.09186,2.5635-10.91256,2.8774h-.02617C173.6777,134.52743,175.30019,132.53941,176.55631,130.34212Z" fill="#156d80"/><path d="M180.16766,90.21546c10.59854-2.95587,21.56344-3.21746,32.3975-4.34226,12.66591-1.33407,25.33181-2.485,38.02389-3.6883a31.88506,31.88506,0,0,1,3.21881-.02616c-3.42817,7.95209-6.69932,15.74723-10.12749,23.46389-6.54231,14.72706-11.6453,30.08192-19.91478,44.02423-.157.05232-.3402.10464-.49721.15695a21.90434,21.90434,0,0,0-3.27116-4.44689c-.4187-.44469-.81124-.91553-1.20378-1.38638l.07851-.78475c8.662-16.872,14.91645-34.73807,22.89807-52.29022-11.95934,1.07249-23.18594,1.96187-34.38636,3.08667-7.69375.78475-15.49218.88938-22.97658,3.139a.80619.80619,0,0,1-.49722-.07847C183.308,94.40077,181.26677,92.5697,180.16766,90.21546Z" fill="#bbd72d"/><path d="M177.73393,171.43663c-1.46548-3.11282-4.03006-5.41474-5.49554-8.44909,3.7422.91554,7.09186,3.139,11.04341,3.40056.26169.1308.49722.23543.75891.36622,5.96658,11.95429,5.73106,24.01322.73274,36.17677-.28786,0-.57573.02616-.88976.02616-2.1197-.73243-4.26558-1.4387-6.41146-2.17113-.02617-.26158-.0785-.497-.10467-.75859C182.13036,190.55827,182.20886,181.06285,177.73393,171.43663Z" fill="#91c0ae"/><path d="M177.4199,157.07579c13.21545,4.73463,25.22713,3.21746,35.74716-6.59186.26169-.05232.49721-.10464.73273-.15695,2.015,1.30791,3.0618,3.42672,4.44877,5.284a2.75815,2.75815,0,0,0-.157.6278c-9.76112,8.78915-21.0924,12.50361-34.15084,10.51559-.26169-.13079-.49722-.23542-.75891-.36622-.23552-1.36022-1.20378-2.35423-1.77951-3.53135-1.0206-2.19729-3.66369-3.21746-4.10856-5.781Z" fill="#bbd72d"/><path d="M185.97723,210.96166c-1.75334-.26159-3.63752-.28774-5.07683-1.62181.54956-2.32808,2.77394-3.89757,2.98329-6.3826.314,0,.6019-.02616.88976-.02616,18.68482,3.34825,37.68368,3.45288,56.26383,5.7548a1.83959,1.83959,0,0,0,.157-2.06649c-5.36469-12.42514-10.65087-24.92876-16.14641-37.30158-1.98886-4.49921-3.402-9.33847-6.85633-13.07909a2.75815,2.75815,0,0,1,.157-.6278,15.97857,15.97857,0,0,0,4.91982-5.80712c.157-.05231.3402-.10463.49721-.15695,11.85466,21.63283,19.65309,45.0444,30.51332,67.305-3.16648,1.22944-5.75723.02616-8.29565-.23542C225.99,214.59764,205.86584,213.94369,185.97723,210.96166Z" fill="#bccd8c"/><path d="M180.29851,209.523c-2.27672-1.02017-5.15534-.91554-6.62081-3.5052,1.28229-1.7526,2.53841-3.479,3.79453-5.23164,2.14588.73243,4.29176,1.4387,6.41146,2.17113-.20935,2.485-2.43373,4.05452-2.98329,6.3826A4.04593,4.04593,0,0,0,180.29851,209.523Z" fill="#6f9c64"/><path d="M193.77566,140.25608c-5.67872-.52317-10.93874,1.17711-16.38193,2.19728h-.02617c1.57015-3.139,4.65812-5.284,5.80956-8.73683.2617-.23543.54956-.497.83742-.73243,7.77226-.994,15.33517-.44469,22.584,2.85124a51.94766,51.94766,0,0,1,9.81346,6.0687c.73274.57548,1.33463,1.41254,2.45991,1.28175-.02617.26158-.05234.52317-.10468.78475v.02616a33.67853,33.67853,0,0,0-4.86748,6.33028c-.23552.05231-.471.10463-.73273.15695a2.79941,2.79941,0,0,0-1.3608-2.40656A31.75622,31.75622,0,0,0,193.77566,140.25608Z" fill="#bccd8c"/><polygon points="177.394 157.05 177.42 157.076 177.394 157.076 177.394 157.05" fill="#bbd732"/><path d="M177.39373,157.04963v.02616a1.21018,1.21018,0,0,1-1.43931-.86322C176.58248,156.291,177.1582,156.36952,177.39373,157.04963Z" fill="#bbd732"/><path d="M177.36756,142.45336h.02617c0,.54932-.3402.70627-.81125.70627C176.63482,142.66263,176.87034,142.40105,177.36756,142.45336Z" fill="#bdcd8e"/><path d="M175.32636,144.02285a1.09,1.09,0,0,1,1.17761-.86322C176.42546,143.83975,175.95442,144.02285,175.32636,144.02285Z" fill="#93c0af"/><path d="M172.10754,184.20183c2.51225-.3139,3.37583,1.25559,2.40757,4.39458-2.27672,1.20327-3.716.52316-4.34409-1.7526A3.13307,3.13307,0,0,1,172.10754,184.20183Z" fill="#bdcd8e"/><path d="M172.91879,93.14518c2.22438-1.02017,4.44877-2.0665,6.67315-3.08667a2.36053,2.36053,0,0,1,.57572.15695c1.09911,2.35424,3.14031,4.18531,3.7422,6.82729a22.66562,22.66562,0,0,0-6.647,2.58966,3.04483,3.04483,0,0,1-.471-.10463C176.1376,97.01659,174.04407,95.36862,172.91879,93.14518Z" fill="#045c22"/><path d="M172.70943,110.59269c1.858.6278,2.77394,1.62181,2.3029,3.34825a2.53665,2.53665,0,0,1-4.84131-.05232C169.77848,111.95292,170.85142,110.98506,172.70943,110.59269Z" fill="#1c7080"/><path d="M175.32636,144.02285c-2.40757,1.70029-4.789,3.37441-7.19654,5.07469-.314-.05231-.62806-.07847-.94209-.13079-.10468-.13079-.18319-.23542-.28786-.36621-1.33463-1.67413-2.66926-3.37441-3.97773-5.04853.02617-.13079.05234-.26159.07851-.41853a50.66808,50.66808,0,0,0,8.47883-5.80712c.26169-.23543.49722-.47085.75891-.73243h.02617c3.8207-.3139,6.93484-3.16514,10.91256-2.8774-1.15144,3.45288-4.23941,5.59785-5.80956,8.73683-.49722-.05231-.73274.20927-.78508.70627H176.504A1.09,1.09,0,0,0,175.32636,144.02285Z" fill="#03555c"/><path d="M167.44942,121.44834c-.07851-1.54334.88975-2.40656,2.48608-2.642a2.3703,2.3703,0,0,1,2.48607,2.40655,2.24936,2.24936,0,0,1-2.32906,2.58966A2.32172,2.32172,0,0,1,167.44942,121.44834Z" fill="#1c7080"/><path d="M168.26067,176.9037a2.54036,2.54036,0,0,1,3.42817-.28774,3.08018,3.08018,0,0,1,.23552,3.6883,2.54773,2.54773,0,0,1-3.21882.41853A3.098,3.098,0,0,1,168.26067,176.9037Z" fill="#bdcd8e"/><path d="M170.92993,162.04585a1.27015,1.27015,0,0,1,1.30846.94169A1.226,1.226,0,0,1,170.92993,162.04585Z" fill="#93c0af"/><path d="M170.14485,170.23336c-.83741,2.66813-2.19821,3.636-4.97215,1.88339a15.38282,15.38282,0,0,1-.13085-2.01418,6.07051,6.07051,0,0,1,.41871-1.33407C167.71111,167.30364,169.04574,168.21918,170.14485,170.23336Z" fill="#bdcd8e"/><path d="M170.014,129.45274c-.44487,1.7526-1.387,2.77277-3.11413,2.43271a2.27808,2.27808,0,0,1-1.98886-2.58966,2.2054,2.2054,0,0,1,1.93652-2.27576C168.5747,126.70613,169.56913,127.59551,170.014,129.45274Z" fill="#1c7080"/><path d="M163.31468,151.45178c1.2823-.86322,2.90479-1.151,3.873-2.485.314.05232.62806.07848.94209.13079.23552,2.85124,3.03563,3.32209,4.65812,4.89158a22.85959,22.85959,0,0,0,3.16648,2.22345,1.21018,1.21018,0,0,0,1.43931.86322c.44487,2.5635,3.088,3.58367,4.10856,5.781.57573,1.17712,1.544,2.17113,1.77951,3.53135-3.95155-.26158-7.30121-2.485-11.04341-3.40056a1.27015,1.27015,0,0,0-1.30846-.94169c-2.22439-1.70029-4.47494-3.40057-6.69932-5.10085-.57573-.70627-1.41314-.60164-2.17205-.70627,0-.654,0-1.30791.02617-1.96187C162.47727,153.309,162.896,152.36732,163.31468,151.45178Z" fill="#6da31e"/><path d="M158.94442,152.73353c1.59633-.05232,2.19822,1.02017,3.11414,1.54333v1.96187c-1.96269-.91554-4.55344-.52317-5.88807-2.79893C157.21725,153.17822,158.264,152.91664,158.94442,152.73353Z" fill="#03555c"/><path d="M152.71615,180.98437c-.28786-1.17711-.54956-2.35423-.83742-3.50519.02617-.26159.05234-.497.07851-.75859,3.76837-2.85124,5.46937-7.16734,7.77226-11.03876-.41871,4.21147-.86358,8.39678.18318,12.60825,2.48608,9.94011,7.77226,17.5783,17.45488,21.73745.02617.26159.0785.497.10467.75859-1.25612,1.7526-2.51224,3.479-3.79453,5.23164h-1.41314C161.92771,200.65533,155.62093,192.15392,152.71615,180.98437Z" fill="#bccd8c"/><path d="M151.98341,123.48868c-.05234-.26159-.13085-.52317-.18319-.78475,2.14588-13.13141,9.26391-22.78378,20.62135-29.50643a2.89951,2.89951,0,0,1,.49722-.05232c1.12528,2.22344,3.21881,3.87141,3.873,6.3826a48.82108,48.82108,0,0,0-7.64141,5.4409c-8.24331,7.69051-10.70321,17.39519-9.892,28.25084C156.82472,129.97591,155.33307,126.026,151.98341,123.48868Z" fill="#bbd72d"/><path d="M151.74789,165.02788c.78507-.3139.83741-.91554.6804-1.62181.6804-3.08666,2.48607-5.88559,2.27672-9.18152a1.41057,1.41057,0,0,0,.07851-.654l.05233-.34005c.44488.07847.88976.157,1.33464.20926,1.33463,2.27576,3.92538,1.88339,5.88807,2.79893.75891.10463,1.59632,0,2.17205.70627-1.57016-.28774-2.015.75859-2.3814,1.988-.65423,2.24961-1.41314,4.49921-2.11971,6.74881-2.30289,3.87142-4.00389,8.18752-7.77226,11.03876C151.87873,172.823,151.82639,168.92545,151.74789,165.02788Z" fill="#338b68"/><path d="M154.67884,146.06319c.13085-.28774.23552-.54932.36637-.83706a6.28921,6.28921,0,0,0,.60189.28774C155.3069,145.697,154.99287,145.88009,154.67884,146.06319Z" fill="#03555c"/><path d="M153.89376,153.83217a8.834,8.834,0,0,1,.88976-.26158,1.41057,1.41057,0,0,1-.07851.654C154.44332,154.09376,154.15545,153.963,153.89376,153.83217Z" fill="#93c0af"/><path d="M154.83585,153.23054c-.05233-2.40656-.10467-4.78695-.18318-7.16735h.02617c.314-.1831.62806-.36621.96826-.54932,2.40757-.654,4.84131-1.30791,7.24888-1.96186,1.33463,1.67412,2.66926,3.3744,4.00389,5.04853.10467.13079.18318.23542.28786.36621-.96826,1.33407-2.59075,1.62181-3.873,2.485q-.62805,1.37331-1.25612,2.82508c-.91592-.52316-1.51781-1.59565-3.11414-1.54333-.6804.18311-1.72717.44469-2.77393.70627C155.72561,153.38749,155.28073,153.309,154.83585,153.23054Z" fill="#002f0f"/><path d="M151.82639,135.2337c.39254-3.89757-1.0206-7.84745.157-11.745,3.34966,2.53734,4.84131,6.48723,7.275,9.73084,1.25613,3.29593,1.701,6.90576,3.7422,9.914a1.95954,1.95954,0,0,1-.10467.41853c-2.40757.654-4.84131,1.30791-7.24888,1.96186a6.28921,6.28921,0,0,1-.60189-.28774c-.86359-2.79893-1.75334-5.59785-2.61692-8.42294A1.2833,1.2833,0,0,0,151.82639,135.2337Z" fill="#2e912c"/><path d="M151.74789,164.97556a1.74362,1.74362,0,0,1,.6804-1.56949c.157.70627.10467,1.30791-.6804,1.62181Z" fill="#47a9af"/><path d="M151.82639,135.286v-.05232a1.2833,1.2833,0,0,1,.6019,1.56949,1.5278,1.5278,0,0,1-.62807-1.56949Z" fill="#47a9af"/><path d="M151.82639,135.2337v.05232l-.02617-.05232v-.02616A.02563.02563,0,0,1,151.82639,135.2337Z" fill="#47a9af"/><path d="M145.93832,162.33359c-.36637,2.74661-1.93652,3.21745-4.05623,2.53734a3.05,3.05,0,0,1-.65423-3.636C143.24289,159.40387,144.7607,159.90087,145.93832,162.33359Z" fill="#93c0af"/><path d="M143.13821,139.88986c-1.544-.28774-2.51224-1.1248-2.43374-2.66813a2.34978,2.34978,0,0,1,2.61693-2.40656,2.38473,2.38473,0,0,1,2.40756,2.642A2.48229,2.48229,0,0,1,143.13821,139.88986Z" fill="#47a9af"/><path d="M141.9606,146.8741c.6804-.18311,1.46547-.07848,1.91035-.78475,3.61135-.02616,7.19654-.02616,10.78172-.05232v.02616c.07851,2.3804.13085,4.76079.18318,7.16735l-.05233.34005a8.834,8.834,0,0,0-.88976.26158c-3.79453-.05231-7.5629-.10463-11.33127-.13079-3.19265-1.1248-6.38529-2.2496-9.55177-3.34824C135.54914,148.05122,138.87263,147.76347,141.9606,146.8741Z" fill="#03555c"/><path d="M138.16606,130.52523c.73274,3.06051.73274,3.06051-1.93652,4.44689-1.72717-.41853-2.931-1.4387-2.32906-3.29593C134.58088,129.58353,136.25571,129.63585,138.16606,130.52523Z" fill="#47a9af"/><path d="M138.06138,169.684c-2.172,1.17711-3.559.36621-4.29175-1.88339A3.11273,3.11273,0,0,1,135.68,165.2633a2.83357,2.83357,0,0,1,2.87862,1.17712A3.1401,3.1401,0,0,1,138.06138,169.684Z" fill="#93c0af"/><path d="M132.04246,127.33393a3.19289,3.19289,0,0,1-2.32906,2.642c-2.69543-.39238-3.11414-1.96187-2.3814-4.26379C129.79191,124.27342,131.28355,124.79659,132.04246,127.33393Z" fill="#47a9af"/><path d="M127.54135,171.0181c2.25056-1.59565,3.63753-.68011,4.68429,1.72644-.94209,2.30192-2.25055,3.08667-4.26558,2.09266A3.01434,3.01434,0,0,1,127.54135,171.0181Z" fill="#93c0af"/><path d="M151.87873,177.47918c-9.5256,9.36463-21.14473,12.68672-34.22934,11.77118a6.42777,6.42777,0,0,0-.05234-.73243c-.02617-2.40655-.05234-4.8131-.07851-7.24582.23552-.02615.49722-.07847.73274-.10463,9.892,1.7526,18.554-.88938,26.16922-7.35045,2.98329-2.51119,4.97216-5.83328,7.32739-8.84147v.05232c.0785,3.89757.13084,7.79514.20935,11.69271C151.93107,176.98217,151.9049,177.21759,151.87873,177.47918Z" fill="#43a8ae"/><path d="M149.70669,132.40862c-7.1442-10.48943-20.98772-16.27039-31.76944-13.236a.43454.43454,0,0,1-.49722-.02616c.05234-.70627.10468-1.4387.157-2.145l.07851-5.8856c9.34241-.62779,18.29228.497,26.43091,5.59786,2.77394,1.75259,5.12917,4.0022,7.69375,5.99022.05234.26158.13085.52316.18319.78475-1.17762,3.89757.23552,7.84745-.157,11.745a.02563.02563,0,0,0-.02617-.02616v.02616C151.09366,134.292,150.38709,133.35031,149.70669,132.40862Z" fill="#43a8ae"/><path d="M110.97623,178.73477c1.57016-11.8235,8.13863-20.32491,17.76891-26.81214.96826-.654,2.32906-.81091,2.74777-2.145.49721.1831.99443.36621,1.51781.57548,3.16648,1.09864,6.35912,2.22344,9.55177,3.34824-.23552,1.33407-1.43931,1.04633-2.30289,1.33407-12.27337,4.0022-21.35409,14.77938-22.00832,26.132-.23552.02616-.49722.07848-.73274.10463-2.14588-.57548-4.26558-1.151-6.38529-1.7526Z" fill="#91c0ae"/><path d="M110.21733,187.07923c.471-2.51118-.75891-5.20548.91592-7.55972,2.11971.60164,4.23941,1.17712,6.38529,1.7526.02617,2.43272.05234,4.83927.07851,7.24582-2.45991.34006-4.73663-.91554-7.1442-.96785A1.32769,1.32769,0,0,0,110.21733,187.07923Z" fill="#10807c"/><path d="M122.5692,247.08611q-5.6133-24.17016-11.04341-48.4188c-.81125-3.636-1.67483-7.32429-1.07294-11.11723,2.40757.05231,4.68429,1.30791,7.1442.96785a6.42777,6.42777,0,0,1,.05234.73243c2.95712,18.80774,8.348,37.06615,12.3257,56.13547,4.0824-3.55751,7.56291-6.5657,10.99108-9.62621,9.68261-8.6322,19.75776-16.81972,29.074-25.89661,1.07294-1.02017,2.66926-1.88339,2.22439-3.84525h1.41314c1.46547,2.58966,4.34409,2.485,6.62081,3.5052-5.73106,7.97824-13.63417,13.733-20.77836,20.22028-10.33685,9.36463-20.85688,18.49383-31.2984,27.70152a4.75923,4.75923,0,0,1-2.77393,1.67412C123.74682,255.3521,123.51129,251.11448,122.5692,247.08611Z" fill="#91c0ae"/><path d="M110.008,112.65919c.10468-9.41695,2.82628-18.38921,4.7628-27.4661,3.11414-14.43932,6.35912-28.85248,9.57794-43.26564a5.708,5.708,0,0,1,.471-1.04633c.36637.15695.75891.18311.96827.39237q22.49244,19.61865,44.88022,39.2896c3.27115,2.8774,6.5423,5.781,8.9237,9.49542-2.22438,1.02017-4.44877,2.0665-6.67315,3.08667a2.89951,2.89951,0,0,0-.49722.05232c-.96826-1.09865-1.83184-2.27577-2.87861-3.26978-12.69208-12.00661-26.30007-22.993-39.437-34.52881-.13085-.13079-.41871-.05231-.75891-.07847-2.48608,10.98644-4.99832,21.97288-7.43206,32.95932-1.701,7.55971-3.84688,15.041-4.23941,22.83609l-.07851,5.8856c-1.43931-1.36023.10468-3.53136-1.3608-4.99622C114.09037,111.40359,112.15385,112.97309,110.008,112.65919Z" fill="#156d80"/><path d="M110.37434,120.61128c2.48608.13079,4.55345-1.70029,7.06569-1.46486a.43454.43454,0,0,0,.49722.02616c1.25612,9.15536,5.8619,16.27039,13.32013,21.60666,3.82071,2.72045,8.24331,3.976,12.61357,5.31011-.44488.70627-1.23.60164-1.91035.78475-3.088.88937-6.41146,1.17712-8.94988,3.479-.52338-.20927-1.0206-.39238-1.51781-.57548-11.593-6.09486-18.31846-15.79955-21.19707-28.4078C110.322,121.10828,110.34817,120.8467,110.37434,120.61128Z" fill="#156d80"/><path d="M109.69394,114.04557a3.24608,3.24608,0,0,0-.0785-.70627c.13084-.20927.26169-.44469.39253-.68011,2.14588.3139,4.0824-1.2556,6.22828-.654,1.46548,1.46486-.07851,3.636,1.3608,4.99622-.05234.70627-.10468,1.4387-.157,2.145-2.51224-.23543-4.57961,1.59565-7.06569,1.46486-.23552-1.4387-.44487-2.90356-.6804-4.34226A1.37025,1.37025,0,0,0,109.69394,114.04557Z" fill="#00485a"/><path d="M109.69394,114.04557a1.37025,1.37025,0,0,1,0,2.22345Z" fill="#1c7080"/><path d="M103.28248,116.08591c2.015-1.09864,4.21325-1.83107,6.333-2.74661a3.24608,3.24608,0,0,1,.0785.70627V116.269c.23553,1.4387.44488,2.90356.6804,4.34226-.02617.23542-.05234.497-.0785.75858-7.19654,2.72045-13.47716,7.06271-20.01946,10.93413-9.83963,5.85943-19.57458,11.8235-29.64973,17.91835.60189.44469.86358.68012,1.15144.86322q21.74663,12.8306,43.51942,25.55655c1.72717,1.02017,3.45434,2.32808,5.67872,2.09266l.157.78474c-1.67483,2.35424-.44488,5.04854-.91592,7.55972-7.37972-2.53734-13.9482-6.67034-20.62135-10.59406q-20.883-12.2028-41.63524-24.53639c-.81124-.497-1.80567-.75858-2.25055-2.04033C65.18009,139.15743,83.68173,126.68,103.28248,116.08591Z" fill="#43a8ae"/></svg>