<svg id="Layer_1" data-name="Layer 1" xmlns="http://www.w3.org/2000/svg" viewBox="0 0 300 300"><defs><style>.cls-1{fill:#22418e;}.cls-2{fill:#44bbc2;}.cls-3{fill:#5071b7;}.cls-4{fill:#3a5ea8;}.cls-5{fill:#00abc1;}</style></defs><path class="cls-1" d="M114.68,67.79c2.8-2.82,5.63-6.45,9.86-6.91,3.8-.18,5.58,3.93,6.19,7.06,1.29,11.08.48,22.25.2,33.36-.23,5.83-.53,11.75-.77,17.62-8.61-8.16-16.69-17-25.42-25-1.84-2-3.74-3.9-5.63-5.83A192.35,192.35,0,0,1,114.68,67.79Z"/><path class="cls-1" d="M200.6,189.75c6.92,6.46,13.35,13.4,20.2,19.93A99.9,99.9,0,0,1,197.49,227C200,214.77,200.29,202.21,200.6,189.75Z"/><path class="cls-2" d="M130.73,67.94c6,22.4,12,44.82,18,67.2a8.53,8.53,0,0,1,.51,2.83c-6.52-6.12-12.56-12.73-19.12-18.82v-.23c.24-5.83.53-11.75.77-17.62C131.21,90.19,132,79,130.73,67.94Z"/><path class="cls-2" d="M151.44,136.72Q180.18,108,208.91,79.29a25.94,25.94,0,0,0-4.13,8.28,92.38,92.38,0,0,0-3.26,18.75c-.92,10.72-1,21.51-1.16,32.25H157.08a62.77,62.77,0,0,1-7-.21C150.08,137.67,151.08,137.27,151.44,136.72Z"/><path class="cls-2" d="M73.67,82.57a18,18,0,0,1,13.12-2.08A26.4,26.4,0,0,1,99,87.94c-6,8.8-12.25,17.48-18.55,26.07A165.11,165.11,0,0,1,64.8,132.78a35.19,35.19,0,0,1-7.89,5.83c-2,.26-4.34-.13-5.51-1.94-2.14-3.27-1.78-7.41-1.59-11.14a71.13,71.13,0,0,1,9-26.81C62.52,92.38,67.2,86.27,73.67,82.57Z"/><path class="cls-2" d="M129.3,138.77c6.62-.62,13.31.27,19.93-.45l.56.14A46.89,46.89,0,0,0,155,144q20.17,20.12,40.3,40.26a70.7,70.7,0,0,0,5.33,5.06v.42c-.31,12.46-.57,25-3.13,37.3a99,99,0,0,1-49.3,12.06c-6-.17-12.46-1.82-16.45-6.57-3-3.5-3.64-8.3-3.64-12.74,3.5-14.19,7.52-28.24,11.22-42.37,1-3.26,1.49-6.67,2.88-9.8,8.53,19.33,16.64,38.89,26.87,57.41,2.07,3.39,3.77,7.08,6.47,10-8.31-31.11-16.72-62.2-25-93.31-.26-.83-.54-1.66-.83-2.48a22.78,22.78,0,0,0-1.16,3.5c-2.05,8-4.32,16-6.36,24a19.38,19.38,0,0,1-1.36-2.39Q135.18,151.51,129.3,138.77Z"/><path class="cls-3" d="M208.91,79.29A11.68,11.68,0,0,1,219,75.14c4.49.53,8.36,3.23,11.54,6.29,5.49,5.4,9.4,12.21,12.42,19.24a99,99,0,0,1,7.4,37.9q-25,.12-49.92,0c.07-10.74.18-21.53,1.16-32.25a92.37,92.37,0,0,1,3.25-18.75A26.34,26.34,0,0,1,208.91,79.29Z"/><path class="cls-3" d="M99,87.94l.13.13c1.89,1.93,3.79,3.86,5.63,5.83a40.34,40.34,0,0,0,2.33,4c8.86,12.55,15.15,26.61,22.08,40.26v.46c-24.1,0-48.2.09-72.27,0a34.67,34.67,0,0,0,7.89-5.83A163.79,163.79,0,0,0,80.4,114.05C86.73,105.41,93,96.74,99,87.94Z"/><path class="cls-4" d="M104.74,93.9c8.73,8.07,16.81,16.82,25.42,25v.23c-.34,6.34-.64,12.68-1,19-6.91-13.65-13.21-27.71-22.07-40.26A37,37,0,0,1,104.74,93.9Z"/><path class="cls-4" d="M200.42,138.57q25,.1,49.92,0a100.4,100.4,0,0,1-29.54,71.1c-6.85-6.53-13.28-13.47-20.2-19.93v-.42C200.87,172.41,200.43,155.5,200.42,138.57Z"/><path class="cls-5" d="M130.14,119.15c6.56,6.09,12.6,12.7,19.12,18.82v.35c-6.62.72-13.31-.17-19.93.45,3.91,8.51,7.75,17,11.45,25.64a18.17,18.17,0,0,0,1.36,2.39c2-8,4.3-16,6.35-24a22.82,22.82,0,0,1,1.17-3.5c.29.82.57,1.65.83,2.48,8.28,31.11,16.7,62.2,25,93.31-2.71-3-4.41-6.65-6.47-10-10.23-18.52-18.35-38.08-26.88-57.41-1.38,3.13-1.9,6.54-2.88,9.8-3.69,14.13-7.72,28.18-11.21,42.37-.76-6.05-.56-12.18-.81-18.27,0-21,.87-42,1.91-62.85v-.47C129.45,131.83,129.8,125.51,130.14,119.15Z"/><path class="cls-5" d="M149.79,138.46l.38-.07a65.27,65.27,0,0,0,7,.2h43.28c0,16.93.46,33.81.19,50.76a68.85,68.85,0,0,1-5.34-5Q175.13,164.17,155,144A46.59,46.59,0,0,1,149.79,138.46Z"/></svg>