<svg id="Layer_1" data-name="Layer 1" xmlns="http://www.w3.org/2000/svg" viewBox="0 0 300 300"><defs><style>.cls-1{fill:#005895;}</style></defs><path class="cls-1" d="M79.29,58.59C81.45,56,83.14,53,85.74,50.71c6.52-5.76,14.37-7.46,22.67-7.35,17,.21,34,.39,51,.35q19.65,0,39.31-.12c4,0,8-.23,12-.26a24.2,24.2,0,0,1,4.57.41c3,.56,4.73,2.18,4.93,5.18a58.4,58.4,0,0,1-.51,15.17c-.69,3.52-2.11,4.75-5.73,5.15a57.34,57.34,0,0,1-6,.37q-46,0-92.09,0h-3.8c-.66,2.58.52,4.18,1.76,5.77,15.59,20,30.66,40.41,45.81,60.75a48.19,48.19,0,0,1,4.87,7.79,13.43,13.43,0,0,1,0,12.25,68,68,0,0,1-9.52,14,94.45,94.45,0,0,0-11.23,16.26c-6.57,12.52-17,18.8-31.2,18.92a75.33,75.33,0,0,1-17-1.93,7.5,7.5,0,0,1,1.78-3.14c10.39-14.46,20.59-29.07,31.46-43.19,4.08-5.31,4-8.54-.15-14C115.26,125.17,102.41,106.8,89.2,88.7c-3.83-5.24-6.83-11-9.91-16.65Z"/><path class="cls-1" d="M79.29,230.06h43.17l66.88.11q9.9,0,19.82,0c.82,0,1.65,0,2.47,0,7.44.37,9.89,3.31,8.85,10.67a54.47,54.47,0,0,0-.13,9.89c.12,3,.05,3.11-2,5.24-3.6,1.26-7.26.4-10.89.4q-41.76,0-83.52,0c-7.43,0-14.87-.25-22.29-.06-7.63.2-13.43-2.93-17.85-8.91-1.6-2.16-3-4.48-4.48-6.72Z"/></svg>