<svg id="Layer_1" data-name="Layer 1" xmlns="http://www.w3.org/2000/svg" viewBox="0 0 300 300"><path d="M196.77,139.39v26.19h-7.83V147.49a14.93,14.93,0,0,1,7.83-8.1Z"/><path d="M188.94,136v7.26a7.94,7.94,0,0,1,7.83-6.63h10V130H195.29c-3.35,0-6.4,2.6-6.4,5.95h.05Z"/><path d="M132.83,151.88V157c0,6.09,2.68,8.55,9.13,8.55h7.84v-6.53h-9.14a8.33,8.33,0,0,1-7.88-7.21h0Z"/><path d="M140.71,156.27v-19.7h9.67V130h-9.67v-6.9h-7.88v23.2c.89,5.86,5.82,10,7.88,10Z"/><path d="M257.13,130c-9.13.54-14.64,7.07-14.73,17.46v.27h0V148c0,10.21,5.42,17.65,14,17.65h7.75v-6.5h-5.46c-5.69-.31-8.24-3.85-8.29-11.15v-.44c0-7.17,2.6-10.62,8.24-10.88h8.55v29H275V130H257.13Z"/><path d="M238.68,146.55v-4.48A12.09,12.09,0,0,0,226.59,130H221A12.1,12.1,0,0,0,209,142.07v23.47h7.84V140.91a4.35,4.35,0,0,1,4.39-4.34h5.19a12.49,12.49,0,0,1,12.27,9.94h0Z"/><path d="M230.8,140.78v24.8h7.88V152.87c-1.61-7.21-5.91-10.89-7.88-12.09Z"/><path d="M168.29,129.67c-10.79,0-17.46,6.85-17.46,17.91v1.79c.67,10.26,7,16.21,17.33,16.21h15.09v-6.49H168.47c-6.31,0-9.31-3-9.76-9.81a26.63,26.63,0,0,1,0-4.65c.72-5.78,3.68-8.33,9.5-8.33s8.06,2.37,8.64,7.43H162v6.49h22.57l.18-1.12a15,15,0,0,0,.13-2.41,20.67,20.67,0,0,0-.18-2.91c-1.12-8.6-7.3-14.11-16.39-14.11l0,.13Z"/><path d="M115.36,130H96.74v46.89h7.83v-40.3h8.51c5.69,0,8.28,3.8,8.28,11.1v.9c-.22,6.76-2.77,10.48-8.24,10.48h-5.5v6.53h7.7c8.51,0,13.61-7.16,13.93-16.92v-1c0-10.17-5.06-17.65-14-17.65Z"/><path d="M76,129.67c-10.79,0-17.47,6.85-17.47,17.91v1.79c.68,10.26,7,16.21,17.33,16.21H90.91v-6.49H76.14c-6.32,0-9.32-3-9.76-9.81a26.63,26.63,0,0,1,0-4.65c.72-5.78,3.67-8.33,9.49-8.33s8.06,2.37,8.65,7.43H69.64v6.49H92.21l.18-1.12a13.92,13.92,0,0,0,.14-2.41,22.28,22.28,0,0,0-.18-2.91c-1.12-8.6-7.3-14.11-16.39-14.11l0,.13Z"/><path d="M44.21,144.36l-6.81-.94c-4-.54-4-2.33-4-3.18a3,3,0,0,1,2-3,10.37,10.37,0,0,1,1.53-.49h.09a2.21,2.21,0,0,0,.49-.09,17.38,17.38,0,0,1,2.1-.14H53.93V130h-14c-8.91,0-14.39,4-14.19,10.62l.11,3.82c1.25,3.4,5,5.22,9.78,5.85l7.3,1h.18c.18,0,.31.09.45.09a9.5,9.5,0,0,1,1.66.4h.13a10.89,10.89,0,0,1,7.93,9.63c.08-.14.22-.23.31-.36a10,10,0,0,0,2-6.31c0-6.05-3.58-9.36-11.24-10.48Z"/><path d="M41.17,159.09H25v6.49H41.57a21.85,21.85,0,0,0,3.54-.27h0a16,16,0,0,0,5.28-1.65s-.36-4.84-2.91-7.3c-.54,1.92-2.46,2.73-6.36,2.73Z"/></svg>