<svg id="Layer_1" data-name="Layer 1" xmlns="http://www.w3.org/2000/svg" xmlns:xlink="http://www.w3.org/1999/xlink" viewBox="0 0 300 300"><defs><style>.cls-1{fill:none;}.cls-2{clip-path:url(#clip-path);}.cls-3{fill:#fff;}.cls-4{fill:#dd2585;}.cls-5{fill:#e872a0;}.cls-6{fill:#8cba29;}.cls-7{fill:#00568a;}.cls-8{fill:#65c9f0;}.cls-9{fill:#009ede;}.cls-10{fill:#641b6c;}.cls-11{fill:#32a337;}.cls-12{fill:#00a1ed;}.cls-13{fill:#1c793b;}.cls-14{fill:#1a1818;isolation:isolate;opacity:0.5;}.cls-15{fill:url(#linear-gradient);}.cls-16{fill:url(#linear-gradient-2);}</style><clipPath id="clip-path"><path class="cls-1" d="M204.7,126.6,142.1,66.25c-1.07-13-9.94-20.62-26.81-15.8C85.53,58.92,64,85.22,64,116.12a68.83,68.83,0,0,0,29.37,55.27l29.51,35.55L159,222.72c-3.49,19.05,5.11,32.41,26.19,26.41,29.76-8.49,51.29-34.8,51.29-65.7A68.82,68.82,0,0,0,204.7,126.6Zm7.78,15.62s0,.07,0,.11Z"/></clipPath><linearGradient id="linear-gradient" x1="-904.12" y1="-26.97" x2="-901.43" y2="-26.97" gradientTransform="translate(57605.32 1001.55) scale(63.63 33.89)" gradientUnits="userSpaceOnUse"><stop offset="0" stop-color="#0072bb"/><stop offset="1" stop-color="#002b7f"/></linearGradient><linearGradient id="linear-gradient-2" x1="168.09" y1="-24.66" x2="170.78" y2="-24.66" gradientTransform="translate(57597.51 1047.98) scale(63.63 33.89)" xlink:href="#linear-gradient"/></defs><g id="Group_793" data-name="Group 793"><g id="Group_792" data-name="Group 792"><g class="cls-2"><g id="Group_791" data-name="Group 791"><rect id="Rectangle_7" data-name="Rectangle 7" class="cls-3" x="37.4" y="58.01" width="211.97" height="179.49"/><g id="Group_726" data-name="Group 726"><g id="Group_704" data-name="Group 704"><g id="Group_695" data-name="Group 695"><path id="Path_934" data-name="Path 934" class="cls-4" d="M210.92,148.9a48.48,48.48,0,0,0,3.44-5.81,4.24,4.24,0,0,0-1-5.55,5.35,5.35,0,0,0-7.27,0,4.88,4.88,0,0,0-.92,1.24h0c-.48.92-1,1.84-1.46,2.68-.49-.84-1-1.79-1.48-2.73a48.23,48.23,0,0,0-3.44-5.79,8.36,8.36,0,0,0-14.49,0,44.28,44.28,0,0,0-3.46,5.81c-.49.93-1,1.88-1.47,2.68-.49-.83-1-1.79-1.49-2.71a45.16,45.16,0,0,0-3.44-5.8,8.35,8.35,0,0,0-14.49,0,60.35,60.35,0,0,0-3.4,5.81,4.62,4.62,0,0,0,.93,5.6,5.42,5.42,0,0,0,7.26,0,18.06,18.06,0,0,0,2.45-4c.48.86,1,1.81,1.48,2.72a44.21,44.21,0,0,0,3.45,5.81,8.36,8.36,0,0,0,14.48,0,46.53,46.53,0,0,0,3.45-5.81c.5-.93,1-1.88,1.49-2.72.48.86,1,1.81,1.48,2.72a45.27,45.27,0,0,0,3.44,5.81,8.36,8.36,0,0,0,14.48,0Z"/></g><g id="Group_696" data-name="Group 696"><path id="Path_935" data-name="Path 935" class="cls-5" d="M245.09,176.21a42.85,42.85,0,0,0,5.23-1.39,3.44,3.44,0,0,0,2.65-3.55,3.84,3.84,0,0,0-3.95-3.74,4.64,4.64,0,0,0-1.23.19h0c-.81.25-1.6.5-2.34.71.22-.71.49-1.48.76-2.24a35.6,35.6,0,0,0,1.47-5,6.28,6.28,0,0,0-1.54-6,7.2,7.2,0,0,0-6.36-1.45,39.47,39.47,0,0,0-5.23,1.38c-.81.27-1.63.51-2.37.72.21-.7.49-1.48.76-2.24a34,34,0,0,0,1.46-4.93,6.27,6.27,0,0,0-1.52-6,7.24,7.24,0,0,0-6.38-1.45,52.57,52.57,0,0,0-5.2,1.41,3.76,3.76,0,0,0-2.72,3.55,3.88,3.88,0,0,0,3.95,3.73,16.23,16.23,0,0,0,3.63-.91c-.22.71-.5,1.5-.76,2.25a33.63,33.63,0,0,0-1.46,4.93,6.27,6.27,0,0,0,1.52,6,7.2,7.2,0,0,0,6.37,1.45,38,38,0,0,0,5.23-1.39c.81-.24,1.61-.5,2.37-.7-.22.69-.5,1.48-.76,2.23a31.46,31.46,0,0,0-1.46,4.94,6.2,6.2,0,0,0,1.53,6A7.21,7.21,0,0,0,245.09,176.21Z"/></g><g id="Group_697" data-name="Group 697"><path id="Path_936" data-name="Path 936" class="cls-6" d="M219.06,124.3q0-6.42-7.69-6.43t-7.69,6.43v42.38q0,6.45,7.68,6.44c5.12,0,7.69-2.14,7.68-6.44Z"/></g><g id="Group_698" data-name="Group 698"><path id="Path_937" data-name="Path 937" class="cls-7" d="M243.32,165.66q4.78-4.56-.63-9.68c-3.62-3.43-7-3.61-10.25-.59l-31.73,30q-4.8,4.54.61,9.67t10.26.59Z"/></g><g id="Group_699" data-name="Group 699"><path id="Path_938" data-name="Path 938" class="cls-8" d="M212.52,161.43a13,13,0,0,1-17.66,0,11.35,11.35,0,0,1-.64-16.05c.2-.22.42-.44.64-.64a13,13,0,0,1,17.67,0,11.33,11.33,0,0,1,.65,16C213,161,212.75,161.21,212.52,161.43Z"/></g><g id="Group_700" data-name="Group 700"><path id="Path_939" data-name="Path 939" class="cls-4" d="M233.55,198a13,13,0,0,1-17.65,0,11.35,11.35,0,0,1-.68-16c.22-.24.44-.46.68-.68a13,13,0,0,1,17.66,0,11.35,11.35,0,0,1,.65,16C234,197.55,233.78,197.78,233.55,198Z"/></g><g id="Group_701" data-name="Group 701"><path id="Path_940" data-name="Path 940" class="cls-9" d="M180.76,160.47a8.39,8.39,0,0,1-11.42,0,7.33,7.33,0,0,1-.43-10.35,4.57,4.57,0,0,1,.44-.44,8.41,8.41,0,0,1,11.42,0,7.34,7.34,0,0,1,.42,10.37C181.05,160.19,180.91,160.34,180.76,160.47Z"/></g><g id="Group_702" data-name="Group 702"><path id="Path_941" data-name="Path 941" class="cls-10" d="M210.19,183a8.41,8.41,0,0,1-11.42,0,7.32,7.32,0,0,1-.44-10.34,6.09,6.09,0,0,1,.44-.44,8.41,8.41,0,0,1,11.42,0,7.32,7.32,0,0,1,.43,10.35Z"/></g><g id="Group_703" data-name="Group 703"><path id="Path_942" data-name="Path 942" class="cls-6" d="M191.21,124.61a8.39,8.39,0,0,1-11.42,0,7.32,7.32,0,0,1-.44-10.35c.14-.15.29-.3.44-.44a8.42,8.42,0,0,1,11.43,0,7.33,7.33,0,0,1,.43,10.36C191.51,124.33,191.36,124.47,191.21,124.61Z"/></g></g><g id="Group_714" data-name="Group 714"><g id="Group_705" data-name="Group 705"><path id="Path_943" data-name="Path 943" class="cls-8" d="M200.5,194.42a48.23,48.23,0,0,0,3.44-5.79,4.24,4.24,0,0,0-1-5.56,5.34,5.34,0,0,0-7.25,0,5,5,0,0,0-.94,1.24v0c-.5.92-1,1.85-1.47,2.69-.49-.84-1-1.78-1.49-2.72a47.58,47.58,0,0,0-3.44-5.8,8.35,8.35,0,0,0-14.48,0,42.06,42.06,0,0,0-3.47,5.81c-.48.93-1,1.88-1.46,2.69-.5-.84-1-1.79-1.49-2.72a44.37,44.37,0,0,0-3.44-5.79,8.36,8.36,0,0,0-14.49,0,59.25,59.25,0,0,0-3.41,5.81,4.64,4.64,0,0,0,.94,5.6,5.42,5.42,0,0,0,7.26,0,18.06,18.06,0,0,0,2.45-4c.49.84,1,1.79,1.48,2.72a45.11,45.11,0,0,0,3.45,5.79,8.35,8.35,0,0,0,14.48,0,44.62,44.62,0,0,0,3.46-5.8c.49-.93,1-1.88,1.48-2.71.48.85,1,1.8,1.48,2.72a44,44,0,0,0,3.45,5.79,8.34,8.34,0,0,0,14.48,0Z"/></g><g id="Group_706" data-name="Group 706"><path id="Path_944" data-name="Path 944" class="cls-5" d="M244.33,227.36a39.37,39.37,0,0,0,5.22-1.39,3.43,3.43,0,0,0,2.68-3.55,3.86,3.86,0,0,0-4-3.74,4.16,4.16,0,0,0-1.22.21v0c-.79.25-1.62.49-2.35.71.22-.71.49-1.49.76-2.25a35.34,35.34,0,0,0,1.47-4.93,6.25,6.25,0,0,0-1.54-6A7.16,7.16,0,0,0,239,205a39.47,39.47,0,0,0-5.23,1.38c-.81.27-1.62.51-2.36.72.22-.72.49-1.49.75-2.25a32.45,32.45,0,0,0,1.46-4.93,6.26,6.26,0,0,0-1.51-6,7.24,7.24,0,0,0-6.38-1.44,52.94,52.94,0,0,0-5.22,1.41,3.77,3.77,0,0,0-2.71,3.55,3.9,3.9,0,0,0,3.95,3.73,15.29,15.29,0,0,0,3.64-.91c-.22.7-.5,1.48-.77,2.24a32.69,32.69,0,0,0-1.46,4.95,6.28,6.28,0,0,0,1.53,6,7.17,7.17,0,0,0,6.36,1.45,43.45,43.45,0,0,0,5.24-1.38c.8-.27,1.61-.52,2.36-.72-.21.7-.49,1.5-.77,2.25a36.52,36.52,0,0,0-1.45,4.92,6.26,6.26,0,0,0,1.53,6A7.23,7.23,0,0,0,244.33,227.36Z"/></g><g id="Group_707" data-name="Group 707"><path id="Path_945" data-name="Path 945" class="cls-4" d="M210.62,161.06c0-4.28-2.58-6.42-7.69-6.43s-7.69,2.15-7.69,6.43v42.37c0,4.28,2.57,6.45,7.68,6.45s7.7-2.17,7.69-6.45Z"/></g><g id="Group_708" data-name="Group 708"><path id="Path_946" data-name="Path 946" class="cls-6" d="M242.57,216.82q4.8-4.55-.62-9.69t-10.26-.59l-31.72,30c-3.2,3-3,6.26.59,9.69s7.07,3.61,10.28.58Z"/></g><g id="Group_709" data-name="Group 709"><path id="Path_947" data-name="Path 947" class="cls-8" d="M224,217.81a8,8,0,0,1-10.83,0,6.94,6.94,0,0,1-.41-9.81c.13-.14.27-.28.41-.41a8,8,0,0,1,10.83,0,6.93,6.93,0,0,1,.4,9.81C224.28,217.54,224.15,217.68,224,217.81Z"/></g><g id="Group_710" data-name="Group 710"><path id="Path_948" data-name="Path 948" class="cls-4" d="M232.8,249.13a13,13,0,0,1-17.66,0,11.32,11.32,0,0,1-.68-16c.22-.23.44-.46.68-.68a13,13,0,0,1,17.67,0,11.34,11.34,0,0,1,.65,16Q233.15,248.82,232.8,249.13Z"/></g><g id="Group_711" data-name="Group 711"><path id="Path_949" data-name="Path 949" class="cls-9" d="M194.17,213.23a8.4,8.4,0,0,1-11.41,0,7.35,7.35,0,0,1-.43-10.38l.41-.41a8.42,8.42,0,0,1,11.43,0,7.33,7.33,0,0,1,.43,10.36C194.46,213,194.32,213.09,194.17,213.23Z"/></g><g id="Group_712" data-name="Group 712"><path id="Path_950" data-name="Path 950" class="cls-10" d="M209.43,234.12a8.41,8.41,0,0,1-11.42,0,7.33,7.33,0,0,1-.44-10.36c.14-.15.29-.29.44-.43a8.42,8.42,0,0,1,11.43,0,7.33,7.33,0,0,1,.42,10.36Z"/></g><g id="Group_713" data-name="Group 713"><path id="Path_951" data-name="Path 951" class="cls-6" d="M190.46,175.76a8.41,8.41,0,0,1-11.42,0,7.32,7.32,0,0,1-.44-10.35A5.81,5.81,0,0,1,179,165a8.42,8.42,0,0,1,11.44,0,7.33,7.33,0,0,1,.43,10.34C190.76,175.47,190.61,175.62,190.46,175.76Z"/></g></g><g id="Group_724" data-name="Group 724"><g id="Group_715" data-name="Group 715"><path id="Path_952" data-name="Path 952" class="cls-11" d="M210.18,78.55a45,45,0,0,0,3.44-5.79,4.24,4.24,0,0,0-1-5.56,5.34,5.34,0,0,0-7.25,0,4.38,4.38,0,0,0-.93,1.25l0,0c-.49.92-1,1.85-1.46,2.68-.49-.83-1-1.78-1.5-2.72a44,44,0,0,0-3.43-5.8,8.37,8.37,0,0,0-14.49,0,47.38,47.38,0,0,0-3.45,5.82c-.49.92-1,1.88-1.47,2.69-.49-.84-1-1.79-1.49-2.72a47.58,47.58,0,0,0-3.44-5.8,8.36,8.36,0,0,0-14.49,0,61.32,61.32,0,0,0-3.41,5.81,4.65,4.65,0,0,0,.93,5.61A5.42,5.42,0,0,0,164,74a17.89,17.89,0,0,0,2.46-4c.47.83,1,1.78,1.48,2.72a45,45,0,0,0,3.44,5.79,8.35,8.35,0,0,0,14.48,0,45.29,45.29,0,0,0,3.46-5.8c.49-.93,1-1.88,1.48-2.71.49.83,1,1.78,1.48,2.72a44,44,0,0,0,3.45,5.79,8.36,8.36,0,0,0,14.48,0Z"/></g><g id="Group_716" data-name="Group 716"><path id="Path_953" data-name="Path 953" class="cls-4" d="M244.33,105.87a38.93,38.93,0,0,0,5.22-1.38,3.45,3.45,0,0,0,2.69-3.55,3.86,3.86,0,0,0-4-3.74,4.64,4.64,0,0,0-1.22.2v0c-.79.25-1.61.5-2.35.7.22-.7.49-1.47.76-2.24a32.7,32.7,0,0,0,1.47-4.92,6.26,6.26,0,0,0-1.53-6A7.17,7.17,0,0,0,239,83.46a37.79,37.79,0,0,0-5.24,1.39c-.81.25-1.61.51-2.36.7.21-.7.49-1.48.75-2.24a32.48,32.48,0,0,0,1.47-4.93,6.27,6.27,0,0,0-1.52-6,7.23,7.23,0,0,0-6.37-1.45,49,49,0,0,0-5.22,1.42,3.74,3.74,0,0,0-2.72,3.54,3.9,3.9,0,0,0,3.95,3.73,15.17,15.17,0,0,0,3.64-.91c-.22.72-.5,1.5-.76,2.26a32.7,32.7,0,0,0-1.47,4.92,6.29,6.29,0,0,0,1.53,6,7.17,7.17,0,0,0,6.36,1.45A40.78,40.78,0,0,0,236.32,92c.8-.26,1.61-.52,2.37-.73-.22.71-.5,1.49-.77,2.25a34,34,0,0,0-1.46,4.93,6.26,6.26,0,0,0,1.53,6A7.13,7.13,0,0,0,244.33,105.87Z"/></g><g id="Group_717" data-name="Group 717"><path id="Path_954" data-name="Path 954" class="cls-9" d="M218.31,54q0-6.41-7.69-6.42T202.93,54V96.35q0,6.45,7.68,6.45t7.7-6.45Z"/></g><g id="Group_718" data-name="Group 718"><path id="Path_955" data-name="Path 955" class="cls-12" d="M242.57,95.34q4.8-4.56-.62-9.69t-10.25-.58L200,115q-4.81,4.56.59,9.69c3.61,3.42,7.06,3.61,10.28.58Z"/></g><g id="Group_719" data-name="Group 719"><path id="Path_956" data-name="Path 956" class="cls-5" d="M211.76,91.1a13,13,0,0,1-17.66,0,11.33,11.33,0,0,1-.68-16c.22-.24.45-.47.68-.68a13,13,0,0,1,17.68,0,11.34,11.34,0,0,1,.62,16C212.2,90.68,212,90.89,211.76,91.1Z"/></g><g id="Group_720" data-name="Group 720"><path id="Path_957" data-name="Path 957" class="cls-6" d="M232.8,127.66a13,13,0,0,1-17.66,0,11.33,11.33,0,0,1-.67-16c.22-.23.44-.46.67-.67a13,13,0,0,1,17.68,0,11.33,11.33,0,0,1,.64,16Q233.15,127.35,232.8,127.66Z"/></g><g id="Group_721" data-name="Group 721"><path id="Path_958" data-name="Path 958" class="cls-12" d="M180,90.15a8.4,8.4,0,0,1-11.41,0,7.31,7.31,0,0,1-.44-10.34,4.67,4.67,0,0,1,.44-.45,8.42,8.42,0,0,1,11.41,0,7.34,7.34,0,0,1,.42,10.37Q180.23,90,180,90.15Z"/></g><g id="Group_722" data-name="Group 722"><path id="Path_959" data-name="Path 959" class="cls-13" d="M209.43,112.64a8.41,8.41,0,0,1-11.42,0,7.33,7.33,0,0,1-.44-10.36c.14-.15.29-.29.44-.43a8.41,8.41,0,0,1,11.42,0,7.32,7.32,0,0,1,.44,10.35A6.09,6.09,0,0,1,209.43,112.64Z"/></g><g id="Group_723" data-name="Group 723"><path id="Path_960" data-name="Path 960" class="cls-6" d="M190.45,54.3a8.42,8.42,0,0,1-11.41,0,7.34,7.34,0,0,1-.43-10.38c.14-.14.27-.28.42-.41a8.44,8.44,0,0,1,11.44,0,7.34,7.34,0,0,1,.41,10.37A5.66,5.66,0,0,1,190.45,54.3Z"/></g></g><g id="Group_725" data-name="Group 725"><path id="Path_961" data-name="Path 961" class="cls-4" d="M174,80.4q-3.84-3.63-8.18.47c-2.89,2.73-3.05,5.32-.5,7.74l25.36,23.94c2.56,2.42,5.3,2.27,8.19-.46s3.06-5.33.5-7.75Z"/></g></g><g id="Group_758" data-name="Group 758"><g id="Group_736" data-name="Group 736"><g id="Group_727" data-name="Group 727"><path id="Path_962" data-name="Path 962" class="cls-4" d="M82.3,160.24a48.23,48.23,0,0,0,3.44-5.79,4.24,4.24,0,0,0-1-5.56,5.34,5.34,0,0,0-7.25,0,4.69,4.69,0,0,0-.93,1.24h0c-.5.92-1,1.85-1.47,2.68-.49-.85-1-1.79-1.5-2.73a45,45,0,0,0-3.43-5.79,8.36,8.36,0,0,0-14.48,0,45.76,45.76,0,0,0-3.46,5.8c-.49.93-1,1.88-1.47,2.7-.49-.84-1-1.79-1.49-2.72a45.73,45.73,0,0,0-3.44-5.79,8.37,8.37,0,0,0-14.49,0,61.16,61.16,0,0,0-3.41,5.8,4.66,4.66,0,0,0,.94,5.61,5.42,5.42,0,0,0,7.26,0,18.73,18.73,0,0,0,2.46-4c.47.84,1,1.79,1.47,2.73a45.18,45.18,0,0,0,3.46,5.79,8.33,8.33,0,0,0,14.47,0,46.6,46.6,0,0,0,3.46-5.81c.49-.93,1-1.88,1.47-2.71.49.84,1,1.79,1.48,2.73a46.24,46.24,0,0,0,3.46,5.78,8.32,8.32,0,0,0,14.48,0Z"/></g><g id="Group_728" data-name="Group 728"><path id="Path_963" data-name="Path 963" class="cls-5" d="M116.46,187.55a44.5,44.5,0,0,0,5.22-1.37,3.46,3.46,0,0,0,2.67-3.56,3.86,3.86,0,0,0-4-3.74,4.21,4.21,0,0,0-1.22.2l0,0c-.78.25-1.6.5-2.34.7.22-.7.49-1.48.76-2.24A32.7,32.7,0,0,0,119,172.6a6.28,6.28,0,0,0-1.53-6,7.23,7.23,0,0,0-6.36-1.43,39.21,39.21,0,0,0-5.24,1.38c-.81.25-1.61.51-2.37.72.22-.71.51-1.49.77-2.24a35.34,35.34,0,0,0,1.47-4.93,6.27,6.27,0,0,0-1.54-6,7.23,7.23,0,0,0-6.37-1.45q-2.64.59-5.21,1.42a3.77,3.77,0,0,0-2.72,3.53,3.9,3.9,0,0,0,4,3.74,15.6,15.6,0,0,0,3.62-.9c-.22.7-.49,1.49-.76,2.24a33.75,33.75,0,0,0-1.46,4.94,6.23,6.23,0,0,0,1.53,6A7.17,7.17,0,0,0,103.2,175a41.62,41.62,0,0,0,5.24-1.37c.8-.27,1.61-.52,2.36-.72-.22.69-.5,1.48-.78,2.23a37.09,37.09,0,0,0-1.45,4.93,6.26,6.26,0,0,0,1.53,6A7.2,7.2,0,0,0,116.46,187.55Z"/></g><g id="Group_729" data-name="Group 729"><path id="Path_964" data-name="Path 964" class="cls-6" d="M90.43,135.64c0-4.27-2.56-6.42-7.69-6.42s-7.69,2.13-7.68,6.42V178c0,4.28,2.57,6.45,7.68,6.45s7.69-2.17,7.69-6.45Z"/></g><g id="Group_730" data-name="Group 730"><path id="Path_965" data-name="Path 965" class="cls-7" d="M114.69,177c3.19-3,3-6.26-.63-9.69s-7-3.61-10.24-.57l-31.73,30q-4.82,4.54.6,9.69T83,207Z"/></g><g id="Group_731" data-name="Group 731"><path id="Path_966" data-name="Path 966" class="cls-8" d="M76.6,172.94a13,13,0,0,1-17.65,0,11.32,11.32,0,0,1-.67-16c.22-.23.44-.45.67-.67a13,13,0,0,1,17.67,0,11.35,11.35,0,0,1,.64,16C77.05,172.52,76.83,172.73,76.6,172.94Z"/></g><g id="Group_732" data-name="Group 732"><path id="Path_967" data-name="Path 967" class="cls-4" d="M104.92,209.35a13,13,0,0,1-17.66,0,11.36,11.36,0,0,1-.66-16,8.36,8.36,0,0,1,.67-.66,13,13,0,0,1,17.66,0,11.34,11.34,0,0,1,.65,16A8.36,8.36,0,0,1,104.92,209.35Z"/></g><g id="Group_733" data-name="Group 733"><path id="Path_968" data-name="Path 968" class="cls-9" d="M52.15,171.82a8.39,8.39,0,0,1-11.42,0,7.32,7.32,0,0,1-.45-10.33l.45-.45a8.42,8.42,0,0,1,11.43,0,7.33,7.33,0,0,1,.42,10.35C52.44,171.54,52.3,171.68,52.15,171.82Z"/></g><g id="Group_734" data-name="Group 734"><path id="Path_969" data-name="Path 969" class="cls-10" d="M81.56,194.32a8.41,8.41,0,0,1-11.42,0A7.33,7.33,0,0,1,69.71,184c.14-.15.28-.3.43-.44a8.43,8.43,0,0,1,11.42,0A7.34,7.34,0,0,1,82,193.89,5.66,5.66,0,0,1,81.56,194.32Z"/></g><g id="Group_735" data-name="Group 735"><path id="Path_970" data-name="Path 970" class="cls-6" d="M62.58,136a8.41,8.41,0,0,1-11.42,0,7.35,7.35,0,0,1-.41-10.38c.13-.14.27-.28.41-.41a8.44,8.44,0,0,1,11.44,0A7.33,7.33,0,0,1,63,135.53,6.09,6.09,0,0,1,62.58,136Z"/></g></g><g id="Group_746" data-name="Group 746"><g id="Group_737" data-name="Group 737"><path id="Path_971" data-name="Path 971" class="cls-8" d="M71.88,205.77a48.28,48.28,0,0,0,3.43-5.8,4.25,4.25,0,0,0-1-5.56,5.18,5.18,0,0,0-8.19,1.24h0c-.49.92-1,1.86-1.46,2.69-.49-.84-1-1.78-1.49-2.72a45.85,45.85,0,0,0-3.44-5.8,8.37,8.37,0,0,0-14.49,0,45.34,45.34,0,0,0-3.45,5.81c-.5.92-1,1.88-1.47,2.69-.5-.84-1-1.79-1.49-2.71a43.46,43.46,0,0,0-3.45-5.8,8.34,8.34,0,0,0-14.48,0,61.32,61.32,0,0,0-3.41,5.81,4.64,4.64,0,0,0,.94,5.6,5.39,5.39,0,0,0,7.25,0,17.67,17.67,0,0,0,2.46-4c.48.84,1,1.79,1.49,2.71a44.48,44.48,0,0,0,3.44,5.8,8.35,8.35,0,0,0,14.48,0A46,46,0,0,0,51,200c.49-.94,1-1.88,1.47-2.71.49.84,1,1.79,1.49,2.71a47.14,47.14,0,0,0,3.45,5.8,8.36,8.36,0,0,0,11.4,3.09,8.45,8.45,0,0,0,3.08-3.09Z"/></g><g id="Group_738" data-name="Group 738"><path id="Path_972" data-name="Path 972" class="cls-5" d="M115.71,238.71a42.22,42.22,0,0,0,5.22-1.39,3.43,3.43,0,0,0,2.67-3.55,3.86,3.86,0,0,0-4-3.73,4.48,4.48,0,0,0-1.21.18h0c-.78.26-1.59.5-2.34.72.22-.72.49-1.48.76-2.26a34.81,34.81,0,0,0,1.47-4.92,6.31,6.31,0,0,0-1.53-6,7.19,7.19,0,0,0-6.37-1.43,41,41,0,0,0-5.23,1.37c-.82.27-1.63.52-2.37.72.22-.71.5-1.48.76-2.23a34.12,34.12,0,0,0,1.46-4.94,6.23,6.23,0,0,0-1.52-6,7.15,7.15,0,0,0-6.37-1.45,52,52,0,0,0-5.21,1.4,3.76,3.76,0,0,0-2.73,3.55,3.91,3.91,0,0,0,3.95,3.73,15.15,15.15,0,0,0,3.64-.9c-.22.7-.5,1.48-.76,2.24a32.91,32.91,0,0,0-1.46,4.94,6.27,6.27,0,0,0,1.52,6,7.17,7.17,0,0,0,6.36,1.44,39.21,39.21,0,0,0,5.24-1.38c.81-.26,1.62-.52,2.37-.72-.22.7-.49,1.48-.76,2.24a34.12,34.12,0,0,0-1.46,4.94,6.22,6.22,0,0,0,1.53,6A7.17,7.17,0,0,0,115.71,238.71Z"/></g><g id="Group_739" data-name="Group 739"><path id="Path_973" data-name="Path 973" class="cls-4" d="M82,172.41Q82,166,74.3,166t-7.69,6.43v42.38c0,4.27,2.56,6.44,7.68,6.44S82,219.06,82,214.79Z"/></g><g id="Group_740" data-name="Group 740"><path id="Path_974" data-name="Path 974" class="cls-6" d="M114,228.16q4.78-4.53-.64-9.68t-10.25-.58l-31.72,30q-4.82,4.54.6,9.69c3.62,3.42,7.06,3.61,10.26.58Z"/></g><g id="Group_741" data-name="Group 741"><path id="Path_975" data-name="Path 975" class="cls-8" d="M95.38,229.16a8,8,0,0,1-10.83,0,7,7,0,0,1-.39-9.85,4.68,4.68,0,0,1,.39-.38,8,8,0,0,1,10.83,0,7,7,0,0,1,.4,9.83A5,5,0,0,1,95.38,229.16Z"/></g><g id="Group_742" data-name="Group 742"><path id="Path_976" data-name="Path 976" class="cls-4" d="M104.18,260.49a13,13,0,0,1-17.67,0,11.36,11.36,0,0,1-.65-16c.21-.23.43-.44.65-.65a13,13,0,0,1,17.68,0,11.36,11.36,0,0,1,.64,16C104.62,260.07,104.4,260.28,104.18,260.49Z"/></g><g id="Group_743" data-name="Group 743"><path id="Path_977" data-name="Path 977" class="cls-9" d="M51.39,223A8.41,8.41,0,0,1,40,223a7.35,7.35,0,0,1-.4-10.38,5.29,5.29,0,0,1,.41-.41,8.41,8.41,0,0,1,11.42,0,7.33,7.33,0,0,1,.44,10.34Q51.63,222.76,51.39,223Z"/></g><g id="Group_744" data-name="Group 744"><path id="Path_978" data-name="Path 978" class="cls-10" d="M80.81,245.47a8.43,8.43,0,0,1-11.42,0A7.33,7.33,0,0,1,69,235.1c.14-.14.28-.29.43-.42a8.42,8.42,0,0,1,11.43,0,7.34,7.34,0,0,1,.4,10.38C81.09,245.2,81,245.34,80.81,245.47Z"/></g><g id="Group_745" data-name="Group 745"><path id="Path_979" data-name="Path 979" class="cls-6" d="M61.83,187.12a8.41,8.41,0,0,1-11.42,0A7.34,7.34,0,0,1,50,176.75c.13-.15.27-.28.41-.42a8.42,8.42,0,0,1,11.43,0,7.34,7.34,0,0,1,.42,10.37A5.66,5.66,0,0,1,61.83,187.12Z"/></g></g><g id="Group_756" data-name="Group 756"><g id="Group_747" data-name="Group 747"><path id="Path_980" data-name="Path 980" class="cls-11" d="M81.55,89.92A51.15,51.15,0,0,0,85,84.12a4.24,4.24,0,0,0-1-5.56,5.34,5.34,0,0,0-7.25,0,5.16,5.16,0,0,0-.93,1.24h0c-.49.92-1,1.85-1.47,2.69-.48-.85-1-1.8-1.48-2.74A43.24,43.24,0,0,0,69.38,74,8.34,8.34,0,0,0,54.9,74a44.62,44.62,0,0,0-3.46,5.8c-.49.92-1,1.89-1.46,2.69-.5-.83-1-1.79-1.49-2.72A47.34,47.34,0,0,0,45.05,74a8.34,8.34,0,0,0-14.49,0,59.93,59.93,0,0,0-3.41,5.8,4.64,4.64,0,0,0,.93,5.63,5.43,5.43,0,0,0,7.25,0,18,18,0,0,0,2.46-4c.49.85,1,1.78,1.48,2.72a48.43,48.43,0,0,0,3.45,5.8,8.37,8.37,0,0,0,14.48,0,46.71,46.71,0,0,0,3.46-5.82c.49-.92,1-1.88,1.47-2.7.5.84,1,1.8,1.49,2.72a46.29,46.29,0,0,0,3.45,5.79,8.35,8.35,0,0,0,14.48,0Z"/></g><g id="Group_748" data-name="Group 748"><path id="Path_981" data-name="Path 981" class="cls-4" d="M115.71,117.22a39.33,39.33,0,0,0,5.22-1.38,3.43,3.43,0,0,0,2.67-3.55,3.88,3.88,0,0,0-4-3.74,4.64,4.64,0,0,0-1.22.2v0c-.78.25-1.6.51-2.34.71.21-.71.49-1.48.76-2.25a35.2,35.2,0,0,0,1.47-4.92,6.29,6.29,0,0,0-1.54-6,7.17,7.17,0,0,0-6.36-1.43,41,41,0,0,0-5.23,1.37c-.82.27-1.63.52-2.38.72.22-.7.51-1.48.77-2.24A34.12,34.12,0,0,0,105,89.73a6.31,6.31,0,0,0-1.52-6,7.25,7.25,0,0,0-6.37-1.43,52,52,0,0,0-5.21,1.41,3.75,3.75,0,0,0-2.73,3.53A3.91,3.91,0,0,0,93.13,91a15.66,15.66,0,0,0,3.64-.91c-.22.71-.5,1.49-.76,2.25a32.45,32.45,0,0,0-1.46,4.93,6.27,6.27,0,0,0,1.52,6,7.16,7.16,0,0,0,6.36,1.44,37.72,37.72,0,0,0,5.24-1.37c.8-.25,1.61-.52,2.36-.73-.22.72-.48,1.5-.75,2.25a32.27,32.27,0,0,0-1.47,4.94,6.23,6.23,0,0,0,1.54,6A7.16,7.16,0,0,0,115.71,117.22Z"/></g><g id="Group_749" data-name="Group 749"><path id="Path_982" data-name="Path 982" class="cls-9" d="M89.68,65.32q0-6.42-7.7-6.43T74.3,65.32V107.7q0,6.45,7.68,6.45t7.7-6.45Z"/></g><g id="Group_750" data-name="Group 750"><path id="Path_983" data-name="Path 983" class="cls-12" d="M113.93,106.68q4.8-4.53-.63-9.68t-10.25-.58l-31.71,30q-4.82,4.56.6,9.7c3.62,3.42,7.06,3.62,10.26.58Z"/></g><g id="Group_751" data-name="Group 751"><path id="Path_984" data-name="Path 984" class="cls-5" d="M83.13,102.45a13,13,0,0,1-17.66,0,11.34,11.34,0,0,1-.66-16q.31-.34.66-.66a13,13,0,0,1,17.68,0,11.33,11.33,0,0,1,.64,16C83.58,102,83.36,102.24,83.13,102.45Z"/></g><g id="Group_752" data-name="Group 752"><path id="Path_985" data-name="Path 985" class="cls-6" d="M104.18,139a13,13,0,0,1-17.67,0,11.34,11.34,0,0,1-.66-16q.32-.34.66-.66a13,13,0,0,1,17.67,0,11.33,11.33,0,0,1,.65,16C104.62,138.58,104.41,138.8,104.18,139Z"/></g><g id="Group_753" data-name="Group 753"><path id="Path_986" data-name="Path 986" class="cls-12" d="M51.39,101.51a8.43,8.43,0,0,1-11.42,0,7.35,7.35,0,0,1-.4-10.38c.13-.14.26-.27.41-.41a8.39,8.39,0,0,1,11.42,0,7.33,7.33,0,0,1,.44,10.34Z"/></g><g id="Group_754" data-name="Group 754"><path id="Path_987" data-name="Path 987" class="cls-13" d="M80.8,124a8.41,8.41,0,0,1-11.42,0,7.33,7.33,0,0,1-.44-10.34c.14-.15.29-.3.44-.44a8.4,8.4,0,0,1,11.43,0,7.33,7.33,0,0,1,.42,10.35A5.81,5.81,0,0,1,80.8,124Z"/></g><g id="Group_755" data-name="Group 755"><path id="Path_988" data-name="Path 988" class="cls-6" d="M61.83,65.64a8.41,8.41,0,0,1-11.42,0A7.34,7.34,0,0,1,50,55.28l.42-.42a8.4,8.4,0,0,1,11.43,0,7.32,7.32,0,0,1,.42,10.35C62.12,65.36,62,65.5,61.83,65.64Z"/></g></g><g id="Group_757" data-name="Group 757"><path id="Path_989" data-name="Path 989" class="cls-4" d="M45.35,91.77q-3.85-3.64-8.2.46c-2.89,2.72-3.06,5.31-.5,7.74L62,123.9c2.57,2.42,5.31,2.29,8.2-.45s3-5.33.48-7.75Z"/></g></g><g id="Group_790" data-name="Group 790"><g id="Group_768" data-name="Group 768"><g id="Group_759" data-name="Group 759"><path id="Path_990" data-name="Path 990" class="cls-4" d="M130.65,127.28a49.79,49.79,0,0,0,3.45-5.8,4.24,4.24,0,0,0-1-5.55,5.32,5.32,0,0,0-7.25,0,5.09,5.09,0,0,0-.94,1.23h0c-.49.92-1,1.85-1.46,2.69-.49-.84-1-1.78-1.5-2.71a46.39,46.39,0,0,0-3.43-5.81,8.37,8.37,0,0,0-14.49,0,45.34,45.34,0,0,0-3.45,5.81c-.5.93-1,1.88-1.47,2.7-.5-.84-1-1.8-1.49-2.72a46.84,46.84,0,0,0-3.44-5.8,8.36,8.36,0,0,0-14.49,0,64.84,64.84,0,0,0-3.42,5.8,4.67,4.67,0,0,0,1,5.61,5.41,5.41,0,0,0,7.25,0,17.89,17.89,0,0,0,2.46-4c.48.84,1,1.79,1.47,2.71a44.55,44.55,0,0,0,3.45,5.8,8.36,8.36,0,0,0,14.48,0,45.76,45.76,0,0,0,3.46-5.8c.49-.94,1-1.88,1.48-2.71.48.84,1,1.79,1.47,2.71a49.79,49.79,0,0,0,3.45,5.8,8.36,8.36,0,0,0,14.49,0Z"/></g><g id="Group_760" data-name="Group 760"><path id="Path_991" data-name="Path 991" class="cls-5" d="M164.81,154.59A41.11,41.11,0,0,0,170,153.2a3.43,3.43,0,0,0,2.66-3.55,3.84,3.84,0,0,0-3.95-3.73h0a4.64,4.64,0,0,0-1.23.19h0c-.8.25-1.61.5-2.35.7.23-.7.5-1.48.77-2.24a33.63,33.63,0,0,0,1.46-4.93,6.26,6.26,0,0,0-1.54-6,7.15,7.15,0,0,0-6.35-1.43,37.72,37.72,0,0,0-5.24,1.37c-.8.27-1.63.52-2.36.72.22-.7.49-1.49.76-2.25a33.63,33.63,0,0,0,1.46-4.93,6.25,6.25,0,0,0-1.53-6,7.19,7.19,0,0,0-6.36-1.44A50.25,50.25,0,0,0,141,121a3.77,3.77,0,0,0-2.71,3.54,3.88,3.88,0,0,0,3.94,3.74,16.83,16.83,0,0,0,3.64-.89c-.22.7-.5,1.48-.76,2.23a33,33,0,0,0-1.47,4.94,6.28,6.28,0,0,0,1.53,6,7.17,7.17,0,0,0,6.36,1.44,39.17,39.17,0,0,0,5.24-1.37c.81-.27,1.62-.52,2.37-.73-.22.72-.5,1.5-.76,2.24a35.07,35.07,0,0,0-1.47,4.94,6.25,6.25,0,0,0,1.53,6A7.2,7.2,0,0,0,164.81,154.59Z"/></g><g id="Group_761" data-name="Group 761"><path id="Path_992" data-name="Path 992" class="cls-6" d="M138.79,102.69q0-6.42-7.7-6.43t-7.68,6.43v42.37q0,6.45,7.68,6.45t7.68-6.45Z"/></g><g id="Group_762" data-name="Group 762"><path id="Path_993" data-name="Path 993" class="cls-7" d="M163.05,144.05q4.78-4.55-.63-9.69t-10.24-.58l-31.73,30q-4.82,4.56.59,9.69t10.28.58Z"/></g><g id="Group_763" data-name="Group 763"><path id="Path_994" data-name="Path 994" class="cls-8" d="M132.23,139.8a13,13,0,0,1-17.65,0,11.32,11.32,0,0,1-.69-16c.22-.24.44-.46.68-.68a13,13,0,0,1,17.67,0,11.34,11.34,0,0,1,.64,16C132.68,139.37,132.46,139.59,132.23,139.8Z"/></g><g id="Group_764" data-name="Group 764"><path id="Path_995" data-name="Path 995" class="cls-4" d="M153.29,176.37a13,13,0,0,1-17.67,0,11.33,11.33,0,0,1-.68-16c.22-.24.44-.46.68-.68a13,13,0,0,1,17.67,0,11.36,11.36,0,0,1,.64,16C153.72,176,153.51,176.17,153.29,176.37Z"/></g><g id="Group_765" data-name="Group 765"><path id="Path_996" data-name="Path 996" class="cls-9" d="M100.5,138.86a8.41,8.41,0,0,1-11.42,0,7.33,7.33,0,0,1-.44-10.35l.44-.44a8.41,8.41,0,0,1,11.42,0,7.34,7.34,0,0,1,.42,10.37A5.55,5.55,0,0,1,100.5,138.86Z"/></g><g id="Group_766" data-name="Group 766"><path id="Path_997" data-name="Path 997" class="cls-10" d="M129.91,161.34a8.39,8.39,0,0,1-11.42,0,7.31,7.31,0,0,1-.44-10.34c.14-.15.29-.3.44-.44a8.45,8.45,0,0,1,11.43,0,7.34,7.34,0,0,1,.43,10.35Z"/></g><g id="Group_767" data-name="Group 767"><path id="Path_998" data-name="Path 998" class="cls-6" d="M110.94,103a8.41,8.41,0,0,1-11.42,0,7.34,7.34,0,0,1-.43-10.37,5.55,5.55,0,0,1,.42-.42,8.44,8.44,0,0,1,11.44,0,7.35,7.35,0,0,1,.42,10.37A5.66,5.66,0,0,1,110.94,103Z"/></g></g><g id="Group_778" data-name="Group 778"><g id="Group_769" data-name="Group 769"><path id="Path_999" data-name="Path 999" class="cls-8" d="M130.94,188.77a48.36,48.36,0,0,0,3.44-5.8,4.24,4.24,0,0,0-1-5.55,5.34,5.34,0,0,0-7.26,0,4.91,4.91,0,0,0-.93,1.24h0c-.5.92-1,1.84-1.48,2.68-.48-.84-1-1.78-1.48-2.72a45,45,0,0,0-3.44-5.79,8.35,8.35,0,0,0-14.48,0,42.55,42.55,0,0,0-3.47,5.8c-.48.93-1,1.88-1.47,2.69-.49-.83-1-1.78-1.48-2.71a45.81,45.81,0,0,0-3.45-5.79,8.36,8.36,0,0,0-14.49,0,62.34,62.34,0,0,0-3.4,5.8,4.66,4.66,0,0,0,.94,5.61,5.43,5.43,0,0,0,7.25,0,18.44,18.44,0,0,0,2.45-4c.49.85,1,1.8,1.48,2.71a45.22,45.22,0,0,0,3.45,5.8,8.36,8.36,0,0,0,11.41,3.07,8.45,8.45,0,0,0,3.07-3.07,46.6,46.6,0,0,0,3.46-5.81c.49-.92,1-1.88,1.48-2.71.48.85,1,1.8,1.48,2.71a43.46,43.46,0,0,0,3.45,5.8,8.34,8.34,0,0,0,14.48,0Z"/></g><g id="Group_770" data-name="Group 770"><path id="Path_1000" data-name="Path 1000" class="cls-5" d="M174.78,221.71a43.18,43.18,0,0,0,5.22-1.39,3.42,3.42,0,0,0,2.66-3.54,3.85,3.85,0,0,0-4-3.74,4,4,0,0,0-1.23.2v0c-.79.25-1.6.51-2.34.71.22-.71.49-1.48.76-2.24a34.94,34.94,0,0,0,1.47-4.93,6.27,6.27,0,0,0-1.54-6,7.15,7.15,0,0,0-6.36-1.45,40.82,40.82,0,0,0-5.24,1.39c-.8.25-1.61.51-2.36.7.22-.7.5-1.48.76-2.24a33.5,33.5,0,0,0,1.46-4.92,6.24,6.24,0,0,0-1.52-6,7.27,7.27,0,0,0-6.38-1.44c-1.61.27-5.2,1.42-5.2,1.42a3.71,3.71,0,0,0-2.72,3.53,3.89,3.89,0,0,0,3.94,3.74,15.66,15.66,0,0,0,3.64-.91c-.22.71-.5,1.49-.76,2.25a34,34,0,0,0-1.46,4.93,6.27,6.27,0,0,0,1.52,6,7.23,7.23,0,0,0,6.37,1.45,42.81,42.81,0,0,0,5.23-1.38c.8-.27,1.61-.51,2.37-.72-.22.7-.5,1.49-.76,2.24a32.57,32.57,0,0,0-1.46,4.94,6.2,6.2,0,0,0,1.52,6A7.23,7.23,0,0,0,174.78,221.71Z"/></g><g id="Group_771" data-name="Group 771"><path id="Path_1001" data-name="Path 1001" class="cls-4" d="M141.05,155.4q0-6.42-7.69-6.42t-7.69,6.43v42.37c0,4.3,2.57,6.45,7.68,6.45s7.69-2.17,7.69-6.45Z"/></g><g id="Group_772" data-name="Group 772"><path id="Path_1002" data-name="Path 1002" class="cls-6" d="M173,211.15q4.78-4.54-.64-9.69t-10.24-.57l-31.73,30q-4.82,4.54.6,9.69c3.64,3.43,7.07,3.6,10.27.56Z"/></g><g id="Group_773" data-name="Group 773"><path id="Path_1003" data-name="Path 1003" class="cls-8" d="M168.73,185.91a8,8,0,0,1-10.83,0,7,7,0,0,1-.39-9.84l.39-.39a8,8,0,0,1,10.84,0,6.94,6.94,0,0,1,.4,9.82C169,185.64,168.87,185.78,168.73,185.91Z"/></g><g id="Group_774" data-name="Group 774"><path id="Path_1004" data-name="Path 1004" class="cls-4" d="M163.24,234a13,13,0,0,1-17.66,0,11.32,11.32,0,0,1-.69-16c.21-.24.44-.46.67-.68a13,13,0,0,1,17.68,0,11.46,11.46,0,0,1,.34,16.13A1.08,1.08,0,0,0,163.24,234Z"/></g><g id="Group_775" data-name="Group 775"><path id="Path_1005" data-name="Path 1005" class="cls-9" d="M110.45,206A8.42,8.42,0,0,1,99,206a7.33,7.33,0,0,1-.44-10.36,6,6,0,0,1,.44-.43,8.41,8.41,0,0,1,11.42,0,7.33,7.33,0,0,1,.42,10.36Z"/></g><g id="Group_776" data-name="Group 776"><path id="Path_1006" data-name="Path 1006" class="cls-10" d="M126.6,228.74a8.4,8.4,0,0,1-11.41,0,7.32,7.32,0,0,1-.43-10.36,5.81,5.81,0,0,1,.43-.43,8.44,8.44,0,0,1,11.44,0,7.33,7.33,0,0,1,.4,10.36C126.89,228.46,126.75,228.6,126.6,228.74Z"/></g><g id="Group_777" data-name="Group 777"><path id="Path_1007" data-name="Path 1007" class="cls-6" d="M120.89,170.13a8.43,8.43,0,0,1-11.42,0,7.33,7.33,0,0,1-.43-10.36,6,6,0,0,1,.43-.44,8.45,8.45,0,0,1,11.43,0,7.35,7.35,0,0,1,.41,10.38Z"/></g></g><g id="Group_788" data-name="Group 788"><g id="Group_779" data-name="Group 779"><path id="Path_1008" data-name="Path 1008" class="cls-11" d="M140.6,72.92a49.79,49.79,0,0,0,3.45-5.8,4.25,4.25,0,0,0-1-5.56,5.34,5.34,0,0,0-7.25,0,5,5,0,0,0-.94,1.24l0,0c-.49.92-1,1.86-1.46,2.69-.49-.83-1-1.78-1.49-2.72A42.86,42.86,0,0,0,128.44,57,8.35,8.35,0,0,0,114,57a44.68,44.68,0,0,0-3.47,5.8c-.48.93-1,1.88-1.47,2.7-.49-.84-1-1.79-1.48-2.71A45.16,45.16,0,0,0,104.1,57a8.36,8.36,0,0,0-14.49,0,62.6,62.6,0,0,0-3.41,5.81,4.61,4.61,0,0,0,.94,5.61,5.39,5.39,0,0,0,7.25,0,18.2,18.2,0,0,0,2.46-4c.48.83,1,1.78,1.48,2.72a46.29,46.29,0,0,0,3.45,5.79,8.35,8.35,0,0,0,14.48,0,46.53,46.53,0,0,0,3.45-5.81c.5-.92,1-1.87,1.48-2.7.49.83,1,1.79,1.48,2.72a46.29,46.29,0,0,0,3.45,5.79,8.34,8.34,0,0,0,14.48,0Z"/></g><g id="Group_780" data-name="Group 780"><path id="Path_1009" data-name="Path 1009" class="cls-4" d="M174.78,100.23A43.18,43.18,0,0,0,180,98.84a3.41,3.41,0,0,0,2.66-3.55,3.87,3.87,0,0,0-4-3.74,4.29,4.29,0,0,0-1.23.21v0c-.79.25-1.6.49-2.34.7.22-.7.49-1.48.76-2.25a34.94,34.94,0,0,0,1.47-4.93,6.28,6.28,0,0,0-1.54-6,7.17,7.17,0,0,0-6.36-1.44,37.79,37.79,0,0,0-5.24,1.39c-.8.24-1.61.51-2.36.7.22-.7.5-1.48.76-2.23a34.12,34.12,0,0,0,1.46-4.94,6.27,6.27,0,0,0-1.52-6,7.25,7.25,0,0,0-6.38-1.45c-1.75.39-3.49.86-5.2,1.42a3.74,3.74,0,0,0-2.72,3.54A3.89,3.89,0,0,0,152.2,74a15.15,15.15,0,0,0,3.64-.9c-.22.7-.5,1.47-.76,2.24a33.63,33.63,0,0,0-1.46,4.93,6.27,6.27,0,0,0,1.52,6,7.23,7.23,0,0,0,6.37,1.45,39.47,39.47,0,0,0,5.23-1.38c.8-.27,1.61-.52,2.37-.72-.22.71-.5,1.48-.76,2.24a31.46,31.46,0,0,0-1.46,4.94,6.22,6.22,0,0,0,1.52,6A7.23,7.23,0,0,0,174.78,100.23Z"/></g><g id="Group_781" data-name="Group 781"><path id="Path_1010" data-name="Path 1010" class="cls-9" d="M148.75,48.32q0-6.42-7.7-6.44c-5.14,0-7.68,2.15-7.68,6.45V90.7q0,6.45,7.68,6.45c5.11,0,7.69-2.17,7.69-6.45Z"/></g><g id="Group_782" data-name="Group 782"><path id="Path_1011" data-name="Path 1011" class="cls-12" d="M173,89.68q4.8-4.55-.63-9.68t-10.25-.58l-31.72,30c-3.22,3-3,6.28.6,9.7s7.07,3.62,10.27.58Z"/></g><g id="Group_783" data-name="Group 783"><path id="Path_1012" data-name="Path 1012" class="cls-5" d="M142.2,85.45a13,13,0,0,1-17.66,0,11.33,11.33,0,0,1-.68-16,8.47,8.47,0,0,1,.67-.67,13,13,0,0,1,17.68,0,11.34,11.34,0,0,1,.65,16C142.64,85,142.43,85.24,142.2,85.45Z"/></g><g id="Group_784" data-name="Group 784"><path id="Path_1013" data-name="Path 1013" class="cls-6" d="M163.24,122a13,13,0,0,1-17.66,0,11.34,11.34,0,0,1-.68-16c.21-.23.44-.46.67-.67a13,13,0,0,1,17.67,0C167.4,109.7,166.84,117.1,163.24,122Z"/></g><g id="Group_785" data-name="Group 785"><path id="Path_1014" data-name="Path 1014" class="cls-12" d="M110.45,84.5A8.4,8.4,0,0,1,99,84.5a7.33,7.33,0,0,1-.43-10.36,5.81,5.81,0,0,1,.43-.43,8.42,8.42,0,0,1,11.43,0,7.34,7.34,0,0,1,.42,10.36C110.75,84.22,110.6,84.36,110.45,84.5Z"/></g><g id="Group_786" data-name="Group 786"><path id="Path_1015" data-name="Path 1015" class="cls-13" d="M139.87,107a8.41,8.41,0,0,1-11.42,0A7.34,7.34,0,0,1,128,96.64a5.66,5.66,0,0,1,.42-.43,8.4,8.4,0,0,1,11.43,0,7.34,7.34,0,0,1,.41,10.38A4.16,4.16,0,0,1,139.87,107Z"/></g><g id="Group_787" data-name="Group 787"><path id="Path_1016" data-name="Path 1016" class="cls-6" d="M120.89,48.64a8.39,8.39,0,0,1-11.42,0A7.33,7.33,0,0,1,109,38.3a6.09,6.09,0,0,1,.44-.44,8.42,8.42,0,0,1,11.43,0,7.33,7.33,0,0,1,.42,10.35C121.18,48.36,121,48.5,120.89,48.64Z"/></g></g><g id="Group_789" data-name="Group 789"><path id="Path_1017" data-name="Path 1017" class="cls-4" d="M104.41,74.74q-3.84-3.61-8.19.48T95.73,83l25.35,23.94c2.56,2.42,5.3,2.28,8.19-.46s3-5.32.5-7.73Z"/></g></g><path id="Path_1018" data-name="Path 1018" class="cls-14" d="M61.9,110.27c8.78-12.68,25.16-42.89,70.39,4.34,51.7,54,96.54,7.09,96.54,7.09L145,50.21,75.07,60.49Z"/></g></g></g><path id="Path_1020" data-name="Path 1020" class="cls-15" d="M122.66,77.26c-25.73-16.92-45.08-1-49.91,5.75,14.77-23.37,46-41,79.89-41,41.91,0,77.59,25.05,89.1,59.7,10.86,32.69-24.94,39.57-63.47,21.78C158.5,114.34,147,93.24,122.66,77.26Z"/><path id="Path_1021" data-name="Path 1021" class="cls-16" d="M177.33,222.75c25.74,16.92,45.08,1,49.92-5.77-11.48,21.79-46,41-79.89,41-41.91,0-77.59-25-89.1-59.69-10.86-32.69,24.93-39.57,63.46-21.79C141.48,185.66,153,206.77,177.33,222.75Z"/></g></svg>