<svg id="Layer_1" data-name="Layer 1" xmlns="http://www.w3.org/2000/svg" viewBox="0 0 300 300"><path d="M205.34382,204.7146c-6.186-6.70285-12.45377-13.32088-18.20469-20.40389-.71474-.87968-2.0484-2.7223-2.0484-2.7223l-1.95886-2.11123c-6.35256-7.29665-11.86156-15.13995-14.31367-24.62794a22.15734,22.15734,0,0,1,.27647-11.78616,62.63147,62.63147,0,0,1,12.16474-22.14754c4.82725-5.64567,9.60266-11.34161,14.58857-16.8459,5.82317-6.4311,12.41607-14.80849,18.33821-21.15005-9.04972,8.72141-20.429,18.2958-29.96414,26.48626-2.97207,2.55265-10.33,7.96269-10.33,7.96269a53.04581,53.04581,0,0,1-15.71488,9.58852,23.26066,23.26066,0,0,1-19.08909,0,53.04563,53.04563,0,0,1-15.71487-9.58852s-7.35791-5.41-10.33-7.96269c-9.53512-8.19046-20.91443-17.76485-29.96415-26.48626,5.92214,6.34156,12.515,14.719,18.33822,21.15005,4.9859,5.50429,9.76132,11.20023,14.58857,16.8459a62.63144,62.63144,0,0,1,12.16473,22.14754,22.15734,22.15734,0,0,1,.27647,11.78616c-2.45211,9.488-7.96111,17.33129-14.31367,24.62794l-1.95886,2.11123s-1.33366,1.84262-2.0484,2.7223c-5.75092,7.083-12.01864,13.701-18.20469,20.40389-3.82818,4.14864-7.82288,8.181-11.58352,12.36581,4.52094-4.301,11.69191-9.067,16.31024-13.25806,6.51121-5.90957,13.19365-11.62907,19.80382-17.43025l1.90231-1.6871c6.97619-5.64881,14.23042-10.80123,22.80888-13.86912a22.45577,22.45577,0,0,1,14.93887,0c8.57847,3.06789,15.83269,8.22031,22.80888,13.86912l1.90231,1.6871c6.61018,5.80118,13.29261,11.52068,19.80383,17.43025,4.61832,4.19106,11.7893,8.95705,16.31023,13.25806C213.1667,212.89564,209.172,208.86324,205.34382,204.7146Zm-50.28321-40.3648a37.6847,37.6847,0,0,0-6.42481-.55923h-.00629a37.6847,37.6847,0,0,0-6.42481.55923c-4.32929.75873-7.96583,2.30759-12.60143,4.32929,1.0242-2.62648,1.79863-4.68587,2.62961-6.72171,1.83006-4.48637,3.26111-9.07014,2.90609-13.98536a39.63624,39.63624,0,0,0-3.05846-11.8757c-.776-1.9353-1.9997-6.74527-1.9997-6.74527a37.78074,37.78074,0,0,0,18.5487,5.80747h.00629a37.78077,37.78077,0,0,0,18.54871-5.80747s-1.2237,4.81-1.99971,6.74527a39.63624,39.63624,0,0,0-3.05846,11.8757c-.355,4.91522,1.076,9.499,2.90609,13.98536.831,2.03584,1.60542,4.09523,2.62962,6.72171C163.02644,166.65739,159.3899,165.10853,155.06061,164.3498Z" fill="#228fc7"/><path d="M125.42169,190.24314c-4.22719-4.58035-8.51018-9.10272-12.44-13.94283-.48842-.60112-1.39976-1.86026-1.39976-1.86026l-1.33857-1.4427c-4.341-4.98609-8.1055-10.34575-9.78113-16.82929a15.141,15.141,0,0,1,.18893-8.054,42.79876,42.79876,0,0,1,8.31266-15.13433c3.29867-3.85792,6.5619-7.75019,9.969-11.5115,3.97922-4.39464,8.48442-10.11926,12.53126-14.45271-6.18405,5.9597-13.96,12.50228-20.47574,18.09916-2.03094,1.74433-7.0589,5.44123-7.0589,5.44123a36.2484,36.2484,0,0,1-10.73863,6.55224,15.89492,15.89492,0,0,1-13.04436,0,36.2484,36.2484,0,0,1-10.73863-6.55224s-5.028-3.6969-7.0589-5.44123c-6.51574-5.59688-14.29169-12.13946-20.47574-18.09916C45.92,111.349,50.42519,117.07362,54.4044,121.46826c3.40708,3.76131,6.67032,7.65358,9.969,11.5115a42.79863,42.79863,0,0,1,8.31267,15.13433,15.14107,15.14107,0,0,1,.18892,8.054c-1.67563,6.48354-5.44016,11.8432-9.78112,16.82929l-1.33857,1.4427s-.91135,1.25914-1.39976,1.86026c-3.92984,4.84011-8.21284,9.36248-12.44,13.94283-2.616,2.83493-5.3457,5.59044-7.9155,8.45006,3.08934-2.93906,7.98957-6.19585,11.14546-9.05977,4.44938-4.03826,9.01577-7.94663,13.53277-11.91082l1.29993-1.15287c4.76712-3.86007,9.72424-7.38093,15.58626-9.47734a15.34488,15.34488,0,0,1,10.20835,0c5.862,2.09641,10.81913,5.61727,15.58625,9.47734l1.29993,1.15287c4.517,3.96419,9.08339,7.87256,13.53277,11.91082,3.1559,2.86392,8.05612,6.12071,11.14546,9.05977C130.76738,195.83358,128.03764,193.07807,125.42169,190.24314Zm-34.36061-27.583a25.75037,25.75037,0,0,0-4.39034-.38214h-.00429a25.75057,25.75057,0,0,0-4.39035.38214,37.01751,37.01751,0,0,0-8.61108,2.95838c.69988-1.79478,1.22908-3.20205,1.79693-4.59322a21.158,21.158,0,0,0,1.98585-9.55678,27.08493,27.08493,0,0,0-2.09-8.11515c-.53027-1.32247-1.36648-4.60933-1.36648-4.60933a25.81716,25.81716,0,0,0,12.67511,3.96849h.00429a25.81713,25.81713,0,0,0,12.6751-3.96849s-.8362,3.28686-1.36648,4.60933a27.08491,27.08491,0,0,0-2.09,8.11515,21.15786,21.15786,0,0,0,1.98585,9.55678c.56784,1.39117,1.097,2.79844,1.79692,4.59322A37.01751,37.01751,0,0,0,91.06108,162.66019Z" fill="#f6a91d"/><path d="M252.0845,190.24314c-4.22718-4.58035-8.51018-9.10272-12.44-13.94283-.48841-.60112-1.39976-1.86026-1.39976-1.86026l-1.33857-1.4427c-4.341-4.98609-8.10549-10.34575-9.78112-16.82929a15.14107,15.14107,0,0,1,.18892-8.054,42.79863,42.79863,0,0,1,8.31267-15.13433c3.29866-3.85792,6.5619-7.75019,9.969-11.5115,3.97921-4.39464,8.48441-10.11926,12.53126-14.45271-6.18405,5.9597-13.96,12.50228-20.47574,18.09916-2.03094,1.74433-7.0589,5.44123-7.0589,5.44123a36.2484,36.2484,0,0,1-10.73863,6.55224,15.89492,15.89492,0,0,1-13.04436,0,36.2484,36.2484,0,0,1-10.73863-6.55224s-5.028-3.6969-7.0589-5.44123C182.496,119.51783,174.72,112.97525,168.536,107.01555c4.04684,4.33345,8.552,10.05807,12.53126,14.45271,3.40708,3.76131,6.67031,7.65358,9.969,11.5115a42.79876,42.79876,0,0,1,8.31266,15.13433,15.141,15.141,0,0,1,.18893,8.054c-1.67563,6.48354-5.44016,11.8432-9.78113,16.82929l-1.33857,1.4427s-.91134,1.25914-1.39976,1.86026c-3.92984,4.84011-8.21283,9.36248-12.44,13.94283-2.61595,2.83493-5.34569,5.59044-7.91549,8.45006,3.08934-2.93906,7.98956-6.19585,11.14546-9.05977,4.44938-4.03826,9.01576-7.94663,13.53277-11.91082l1.29993-1.15287c4.76712-3.86007,9.72423-7.38093,15.58625-9.47734a15.34488,15.34488,0,0,1,10.20835,0c5.862,2.09641,10.81914,5.61727,15.58626,9.47734l1.29993,1.15287c4.517,3.96419,9.08339,7.87256,13.53277,11.91082,3.15589,2.86392,8.05612,6.12071,11.14546,9.05977C257.4302,195.83358,254.70046,193.07807,252.0845,190.24314Zm-34.3606-27.583a25.75057,25.75057,0,0,0-4.39035-.38214h-.00429a25.75037,25.75037,0,0,0-4.39034.38214,37.01751,37.01751,0,0,0-8.61108,2.95838c.69987-1.79478,1.22908-3.20205,1.79692-4.59322a21.15786,21.15786,0,0,0,1.98585-9.55678,27.08491,27.08491,0,0,0-2.09-8.11515c-.53028-1.32247-1.36648-4.60933-1.36648-4.60933a25.81713,25.81713,0,0,0,12.6751,3.96849h.00429a25.81716,25.81716,0,0,0,12.67511-3.96849s-.83621,3.28686-1.36648,4.60933a27.08493,27.08493,0,0,0-2.09,8.11515,21.158,21.158,0,0,0,1.98585,9.55678c.56785,1.39117,1.097,2.79844,1.79693,4.59322A37.01751,37.01751,0,0,0,217.7239,162.66019Z" fill="#f6a91d"/></svg>