<svg id="Layer_1" data-name="Layer 1" xmlns="http://www.w3.org/2000/svg" viewBox="0 0 300 300"><path d="M158.18038,75.74262a60.19507,60.19507,0,0,1,81.33207-6.483L240,68.71779a60.36752,60.36752,0,0,0-88.473,0,68.52564,68.52564,0,0,0,0,93.26581l.48755-.54181a68.6988,68.6988,0,0,1,6.16587-85.67115" fill="#ea651a"/><path d="M110.60283,130.80025c0-44.57777,29.71088-81.701,69.17241-90.83968V37.79066c-48.63865,0-88.2149,41.57781-88.2149,92.86679,0,51.28766,39.57625,92.80941,88.2149,92.80941v-2.17124c-39.46153-9.10932-69.17241-46.23255-69.17241-90.63817" fill="#ea651a"/><path d="M99.87707,204.9613a115.62453,115.62453,0,0,1,1.83545-138.55754l-1.54865-2.05513c-45.484,37.609-53.54266,107.08726-17.98138,155.32023,35.56125,48.23164,101.29228,56.65637,146.80493,19.0754l-1.49126-2.02711C184.163,258.70577,130.70643,246.76863,99.87707,205.0467" fill="#ea651a"/></svg>