<svg id="Layer_1" data-name="Layer 1" xmlns="http://www.w3.org/2000/svg" viewBox="0 0 300 300"><path d="M195,185.35716H117.85714v6.42857H195ZM214.28571,172.5H105v6.42857H214.28571Zm12.85715-12.85714H98.57143v6.42857H227.14286Zm6.42857-12.85714H92.14286v6.42857H233.57143ZM227.14286,127.5H85.71429v12.85715H227.14286Zm0-19.28571H85.71429v12.85714H227.14286Zm0-19.28572H85.71429v12.85715H227.14286ZM85.71429,69.64287H218.52857L227.14286,82.5H85.71429ZM118.69285,44.3143l69.87858-.38572,12.85714,6.42858,9.64286,12.85714H105Zm37.92858-13.24286c11.12143,0,20.95715,2.82857,25.52143,6.42857H130.71429C135.6,33.64287,145.5,31.07144,156.62143,31.07144Z" fill="#dce009"/><path d="M207.85714,236.78573s-116.16428-39.6-116.16428-119.95715c0-66.98571,57.47142-85.75714,57.47142-85.75714S60,39.17144,60,116.82858C60,194.35716,156.42857,227.91429,207.85714,236.78573Z" fill="#042553"/><path d="M188.76428,43.92858S226.05,57.94287,226.05,120.81429s-62.67857,79.45715-68.85,81.45c-6.23571,2.05714-73.54285,5.52858-77.91428,66.66428C99.27858,188.76427,240,241.7357,240,118.24284,240,76.77856,205.60715,46.5,188.76428,43.92858Z" fill="#5486bc"/></svg>