<svg id="Layer_1" data-name="Layer 1" xmlns="http://www.w3.org/2000/svg" viewBox="0 0 300 300"><defs><style>.cls-1{fill:#006fba;}.cls-2{fill:#3f454f;}</style></defs><path id="Layer" class="cls-1" d="M149.48,61.5H169a130.93,130.93,0,0,1,39.4,9.56c20.5,8.59,39,23.41,49.52,43.28,4.85,8.73,7.48,18.49,8.79,28.33v14.68c-1.1,6.58-2.28,13.23-4.77,19.46a83.49,83.49,0,0,1-19.88,29.64c-17.38,17.52-41.21,27.63-65.44,31-27.78,3.53-57.07-1.46-81.17-16.07-13.3-8.17-25.28-19.11-33-32.83,4.15,4.37,8,9.15,12.67,13,15.51,13.37,35.46,21.06,55.68,23.34,26.39,2.7,54.23-3.32,75.83-19.18,11.78-8.52,21.4-20.29,26.6-33.93a60.38,60.38,0,0,0,3-32.83c-1.8-11-7.13-21.19-13.92-30a89.28,89.28,0,0,0-25-20.84c-24-13.65-53.32-17-80.12-10.67a99.48,99.48,0,0,0-43.43,22c-4.22,3.6-7.48,8-11.35,12C71,96,84.93,84.08,100.24,75.7a128.15,128.15,0,0,1,49.24-14.2Z"/><path id="Layer-2" data-name="Layer" class="cls-2" d="M49.34,129.3a19.35,19.35,0,0,1,18,31.72,19.09,19.09,0,0,1-19.25,6.16,18.87,18.87,0,0,1-14.75-17.72c-.83-9.49,6.58-18.84,16-20.16Z"/></svg>