<svg id="Layer_1" data-name="Layer 1" xmlns="http://www.w3.org/2000/svg" viewBox="0 0 300 300"><polygon points="184.241 92.898 192.166 103.262 218.176 115.658 243.578 114.439 184.241 92.898" fill="#788085"/><polygon points="190.947 151.626 196.84 136.385 219.192 119.519 245 118.096 190.947 151.626" fill="#4a535d"/><polygon points="136.487 74.813 140.957 82.738 159.246 91.882 178.957 90.053 136.487 74.813" fill="#fb7735"/><polygon points="132.626 119.722 139.332 108.139 159.246 94.727 179.16 92.898 132.626 119.722" fill="#fb3808"/><polygon points="132.219 123.176 137.706 135.369 160.059 151.219 184.647 151.016 132.219 123.176" fill="#e64e59"/><polygon points="126.326 192.064 135.064 174.385 160.059 155.69 185.053 155.487 126.326 192.064" fill="#ca0029"/><polygon points="100.722 61.807 103.364 68.107 116.775 75.016 132.626 73.187 100.722 61.807" fill="#39a7b4"/><polygon points="91.374 97.979 98.487 88.631 116.369 77.251 132.422 75.626 91.374 97.979" fill="#118497"/><polygon points="90.765 100.62 93.203 109.968 108.647 121.348 127.749 120.332 90.765 100.62" fill="#fcb54b"/><polygon points="77.15 152.642 86.294 139.433 108.037 124.802 127.342 123.786 77.15 152.642" fill="#f29709"/><polygon points="76.134 156.706 78.572 171.54 96.455 191.658 120.23 192.674 76.134 156.706" fill="#417585"/><polygon points="55 238.193 67.396 217.668 95.438 196.941 119.62 198.16 55 238.193" fill="#09465c"/></svg>