<svg id="Layer_1" data-name="Layer 1" xmlns="http://www.w3.org/2000/svg" viewBox="0 0 300 300"><defs><style>.cls-1{fill:#61b8e9;}.cls-2{fill:#0c3289;}</style></defs><title>SYBX</title><path class="cls-1" d="M238.43,151.59h28.84V132.4l1.23-.07v20.38h-30v11.6H222.58v3.21c-1,.19-54.6.18-55.49,0V161.1h-6.88c0-1.11,0,0,0-1.18H176V148.8H151.18c0,1.72,0,0,0,1.7l-1.13.05c0-.72,0-.72,0-1.77h-29.8v5.85h17.91v4.45h4.23v1.11H133v7.27c-.74.24-47.19.29-48.38.07v-5.7H59.66V156.4H31.5V132.76h1v22.47H59.59v-4.89c1.17,0,0,0,1.16,0v4.9H85.63v5.31h24.11V148.77H89.55V132.4c1,0,0,0,1,0v15.14h19.23V136.66h9.29v-4.25h1.09v4.17H134v-4.1c.5,0,.54,0,1.11,0v4.14h16.09v10.93H176v-6.71H164.23v-8.37h1v7.17h12v7.94h15.13v12.25h14.48V150.3h1.08V161H192.58a4.21,4.21,0,0,0-.09,2.08h28.76V151.66h15.9V132.53h1.28ZM85.72,166.36h46v-7.29h5.2V155.8H119.08v-7H111v13H85.72ZM134,137.82H120.26v9.74h29.79v-4.22H134Zm34.4,28.52h52.85v-2H191.13v-3.29H168.4Zm22.71-6.5V148.79H177.35v11.05Zm46-7H222.64v10.31h14.49Zm-152.6,3.66H60.87v4.07H84.53ZM119,147.56v-9.73h-8v9.73Zm31.05-9.73H135.19v4.3h14.88Z"/><path class="cls-2" d="M157.81,159.78a6.68,6.68,0,0,1-6.7,6.62,6.61,6.61,0,0,1-6.6-6.6,6.65,6.65,0,1,1,13.3,0Z"/></svg>