<svg xmlns="http://www.w3.org/2000/svg" viewBox="0 0 300 300"><g id="v5a"><path d="M25.62277,150.77437h0a2.09992,2.09992,0,0,1,2.9614-.22222q.05385.04633.10447.09623a2.09991,2.09991,0,0,1,.26589,2.95779q-.03723.04459-.0769.08708l-.126.126h0a2.0999,2.0999,0,0,1-2.96811.09776q-.05047-.04725-.09775-.09776a2.0999,2.0999,0,0,1-.13819-2.9665Q25.58415,150.81259,25.62277,150.77437Z" fill="#0f2c6f"/><path d="M50.67471,128.95629h0a2.87689,2.87689,0,0,1,4.01084.441,2.8139,2.8139,0,0,1-.42568,3.9566l-.0153.01224-.147.105h0a2.87687,2.87687,0,0,1-3.98983-.693A2.81388,2.81388,0,0,1,50.67471,128.95629Z" fill="#0f2c6f"/><path d="M66.991,118.30974h0a3.63285,3.63285,0,0,1,4.89279,1.44894,3.54886,3.54886,0,0,1-1.43277,4.81l-.03717.01982-.231.105h0a3.61184,3.61184,0,0,1-4.7668-1.76393A3.56984,3.56984,0,0,1,66.991,118.30974Z" fill="#0f2c6f"/><path d="M87.48616,109.57411h0a4.19982,4.19982,0,0,1,5.27489,2.72993q.01992.06267.03788.126a4.1998,4.1998,0,0,1-2.81293,5.2311l-.06394.01868h-.21a4.20287,4.20287,0,0,1-2.22591-8.10566Z" fill="#0f2c6f"/><path d="M113.46207,104.57632h0a4.8508,4.8508,0,0,1,5.31034,4.34289l.00243.02493a4.82979,4.82979,0,0,1-4.3888,5.22877h-.273a4.80981,4.80981,0,0,1-.651-9.59659Z" fill="#0f2c6f"/><path d="M141.49588,105.37429h0a5.61184,5.61184,0,0,1-1.74293,11.08753l-.546-.105h0a5.60676,5.60676,0,0,1-4.06853-6.80578l.0157-.06093A5.69076,5.69076,0,0,1,141.49588,105.37429Z" fill="#0f2c6f"/><path d="M166.40083,114.29891h0a6.29972,6.29972,0,0,1,2.6392,8.50928q-.03772.07167-.0773.14235a6.46773,6.46773,0,0,1-8.67265,2.62489l-.588-.357h0a6.29973,6.29973,0,0,1-1.72061-8.74144q.04063-.06057.08268-.12019A6.50972,6.50972,0,0,1,166.40083,114.29891Z" fill="#0f2c6f"/><path d="M186.959,130.30023h0a6.88772,6.88772,0,0,1,.06612,9.74047q-.03284.03329-.06612.06612a7.05571,7.05571,0,0,1-9.91159,0l-.294-.315h0a6.88771,6.88771,0,0,1,.48241-9.72874l.06357-.05685A7.07671,7.07671,0,0,1,186.959,130.30023Z" fill="#0f2c6f"/><path d="M203.52727,149.28344h0a7.34968,7.34968,0,0,1-.96711,10.34893q-.09269.07686-.18785.15062a7.51768,7.51768,0,0,1-10.49956-1.13395l-.273-.357h0a7.34969,7.34969,0,0,1,1.70386-10.25342q.04035-.02885.08106-.05714A7.55968,7.55968,0,0,1,203.52727,149.28344Z" fill="#0f2c6f"/><path d="M218.35264,168.05664h0a7.58067,7.58067,0,0,1-.74875,10.69453q-.04529.03936-.09122.078a7.76966,7.76966,0,0,1-10.87754-.819h0a7.58068,7.58068,0,0,1,.88519-10.68409q.04014-.034.08077-.06745A7.76967,7.76967,0,0,1,218.35264,168.05664Z" fill="#0f2c6f"/><path d="M233.85,180.17313h0a7.76968,7.76968,0,0,1,5.3593,9.59237l-.02554.08822a7.87467,7.87467,0,0,1-9.76458,5.27078h-.189a7.76967,7.76967,0,0,1-5.28233-9.635q.01588-.05442.03255-.10862a7.87467,7.87467,0,0,1,9.82757-5.20778Z" fill="#0f2c6f"/><path d="M250.2713,176.89727h0a7.91666,7.91666,0,0,1,10.94055,1.88992,7.72766,7.72766,0,0,1-1.82691,10.77255h0a7.91668,7.91668,0,0,1-10.96154-1.74293,7.72766,7.72766,0,0,1,1.683-10.79822q.04028-.02942.08094-.05832Z" fill="#0f2c6f"/><path d="M259.6789,162.34488h0a7.68567,7.68567,0,0,1,15.28735,1.59594h0a7.68938,7.68938,0,1,1-15.30834-1.46994h0Z" fill="#479cd7"/><path d="M254.15612,145.16761h0a7.2237,7.2237,0,0,1,1.25627-10.13831q.04361-.034.08767-.06726a7.41268,7.41268,0,0,1,10.10057,1.071h0a7.22371,7.22371,0,0,1-.80637,10.184q-.03759.032-.07559.06359a7.41269,7.41269,0,0,1-10.35255-.861Z" fill="#479cd7"/><path d="M238.23879,137.062h0a6.79679,6.79679,0,0,1,.441-13.58643h0a6.76331,6.76331,0,0,1-.294,13.52343h0Z" fill="#479cd7"/><path d="M221.35551,144.47464h0a6.46772,6.46772,0,0,1-9.07161-.357,6.29973,6.29973,0,0,1,.147-8.77763h0a6.46774,6.46774,0,0,1,9.07162,0,6.29973,6.29973,0,0,1,.0788,8.90882q-.039.03975-.0788.0788Z" fill="#479cd7"/><path d="M167.61879,180.17313h0a4.19982,4.19982,0,0,1-5.52276-1.70093,4.05283,4.05283,0,0,1,1.57493-5.39677h0a4.19981,4.19981,0,0,1,5.58577,1.46994,4.03183,4.03183,0,0,1-1.42888,5.51992l-.04105.02384Z" fill="#479cd7"/><path d="M183.38911,169.67357h0a4.89278,4.89278,0,0,1-6.57272-2.09991,4.80881,4.80881,0,0,1,1.86892-6.42573h0a4.89281,4.89281,0,0,1,6.65672,1.74293,4.78779,4.78779,0,0,1-1.69678,6.55492l-.06714.0388Z" fill="#479cd7"/><path d="M138.703,190.67269h0a2.96972,2.96972,0,1,1-.84-5.87975h0a2.98276,2.98276,0,0,1,1.008,5.87975Z" fill="#479cd7"/></g></svg>