<svg id="Layer_1" data-name="Layer 1" xmlns="http://www.w3.org/2000/svg" viewBox="0 0 300 300"><defs><style>.cls-1{fill:#ed1c24;}.cls-2{fill:#fff;}</style></defs><title>TAK_Light_bg</title><g id="g12"><path id="path1196" class="cls-1" d="M149.69,109.32c-79.2,0-121.19,56.19-121.19,56.19l17.21,11.63a83.75,83.75,0,0,1,6.85-12.67,18.88,18.88,0,0,0,.28,3.17c3,23.61,26,23,26,23H221s23.25.64,26.28-23a17.38,17.38,0,0,0,.26-3.08A84.33,84.33,0,0,1,254.3,177l17.2-11.51s-42.62-56.15-121.81-56.15"/><path id="path1200" class="cls-2" d="M243.79,167.37s-3.1,18.06-23.06,18.06h-142C58.8,185.43,56,167.2,56,167.2c-.77-4.83.16-8.14,1.66-10.43,14.37-18.92,42.81-44.33,92-44.33,49.59,0,78.27,25.77,92.63,44.7,1.66,2.11,2.28,5.55,1.54,10.23"/><path id="path1204" class="cls-1" d="M108.22,147.69l2.37-5.08H80.22l-2.39,5.08H89.6L77.42,172.46h7.86l12.18-24.77Z"/><path id="path1208" class="cls-1" d="M217.9,164.24c-2.26,3.18-5.46,4.79-7.15,3.59s-1.22-4.75,1-7.93,5.47-4.8,7.15-3.59,1.23,4.75-1,7.93m-26.58-.12c-2.27,3.18-5.47,4.79-7.16,3.59s-1.23-4.75,1-7.94,5.48-4.78,7.15-3.59,1.23,4.76-1,7.94m-33-2.31a11.74,11.74,0,0,1,6.23-6.91s1.36-.46,2.08.13c0,0,1,1-.19,2.79-1.08,1.62-3.69,4.55-6.52,5.54,0,0-2.57,1.12-1.6-1.55m-46.37,2.31c-2.27,3.18-5.46,4.79-7.15,3.59s-1.23-4.75,1-7.94,5.47-4.78,7.16-3.59,1.22,4.76-1,7.94M225.47,168s-1.54.71-2.19,0-.08-1.95-.08-1.95l6.42-13.49h-6.54l-1,1.8c-3.82-3.36-11-1.62-15.46,3a14.48,14.48,0,0,0-4.23,8.63,19.27,19.27,0,0,1-3.51,1.84s-1.53.72-2.2,0-.06-1.95-.06-1.95L208,142.49h-6.54l-6,11.76c-3.82-3.36-11-1.63-15.46,3a16.94,16.94,0,0,0-2.29,3v0c0,.08-.08.17-.13.25-.14.24-.28.48-.4.71-3.56,6.16-8,7.18-8,7.18-9.34,2.8-10.41-1.78-10.41-1.78,10.47-3.87,14.4-8.45,14-12s-5.17-3.69-5.17-3.69c-7.92-.48-14.77,5.06-16.44,10.48a10.15,10.15,0,0,0-.35,4.89,17.5,17.5,0,0,1-5,2c-2.63.83-3-.42-3.27-1.18s-1.52-7.52-1.52-7.52l11.12-7.27h-6.8l-8.35,5.17c-1.88.78-1.15-1.19-1.15-1.19l6.82-13.81h-6.55l-11.06,22.41a46.23,46.23,0,0,1-5.68,3s-1.53.72-2.19,0-.07-1.95-.07-1.95l6.42-13.49h-6.54l-1,1.8c-3.82-3.36-11-1.63-15.46,3S95,168.08,98.08,171c2.43,2.34,6.82,1.9,10.76-.75,0,0,1-.85,1.53.15s2.81,3.39,8,1.34a36.3,36.3,0,0,0,4.44-2.11l-1.35,2.74H128l3.28-6.62,2.85-1.82s.88-.68,1.22.78c0,0,1.42,5.58,2,6.3s1.65,2.38,6.25,1.06a81.69,81.69,0,0,0,8.54-3c1.54,2.13,4.49,3.56,9.35,3.56a22.77,22.77,0,0,0,14.38-5.2,5.67,5.67,0,0,0,1.66,3.58c2.44,2.34,6.82,1.9,10.76-.75,0,0,1-.85,1.54.15s2.8,3.39,8,1.34a26.41,26.41,0,0,0,5-2.54,5.3,5.3,0,0,0,1.26,1.93c2.44,2.33,6.82,1.89,10.76-.76,0,0,1-.86,1.54.15s2.81,3.39,8,1.34,6.68-3.9,6.68-3.9l-1.31-2.32a19.23,19.23,0,0,1-4.27,2.36"/></g></svg>