<?xml version="1.0" encoding="utf-8"?>
<!-- Generator: Adobe Illustrator 28.3.0, SVG Export Plug-In . SVG Version: 6.00 Build 0)  -->
<svg version="1.1" id="Layer_1" xmlns="http://www.w3.org/2000/svg" xmlns:xlink="http://www.w3.org/1999/xlink" x="0px" y="0px"
	 viewBox="0 0 300 300" style="enable-background:new 0 0 300 300;" xml:space="preserve">
<style type="text/css">
	.st0{fill:#307DC1;}
</style>
<g>
	<g>
		<g>
			<path class="st0" d="M199.9,133.1c-0.5,0.7-1.1,1.4-1.6,2.1c-3.4,4.3-6.7,8.7-10.1,13c-0.4,0.5-1.4,0.5-1.8,0
				c-2.2-2.8-4.4-5.7-6.6-8.5c-1.6-2.1-3.3-4.2-4.9-6.3c-0.1-0.1-0.2-0.2-0.3-0.3c-0.1,0.2-0.1,0.3-0.1,0.5c0,8,0,16.1,0,24.1
				c0,0.1,0,0.3,0,0.4c0,0.2-0.1,0.3-0.3,0.3c-1.8,0-3.5,0-5.3,0c-0.2,0-0.3-0.1-0.3-0.3c0-0.1,0-0.2,0-0.3c0-11.5,0-23,0-34.5
				c0-0.1,0-0.1,0-0.2c0-0.3,0.1-0.4,0.4-0.4c0.9,0,1.8,0,2.7,0c0.6,0,1.2,0,1.9,0c0.2,0,0.4,0.1,0.6,0.3c2.9,3.8,5.9,7.6,8.8,11.4
				c1.3,1.8,2.7,3.5,4,5.3c0.2,0.3,0.3,0.2,0.5,0c4.2-5.5,8.5-11,12.7-16.6c0.2-0.3,0.4-0.4,0.8-0.4c1.4,0,2.9,0,4.3,0
				c0.4,0,0.5,0.1,0.5,0.5c0,11.6,0,23.2,0,34.8c0,0.4-0.1,0.5-0.5,0.5c-1.6,0-3.2,0-4.8,0c-0.6,0-0.6,0-0.6-0.6c0-5.5,0-11,0-16.5
				c0-2.6,0-5.2,0-7.8c0-0.1,0-0.3,0-0.4C200,133.2,200,133.2,199.9,133.1z"/>
			<path class="st0" d="M228,140.6c0-5.8,0-11.5,0-17.3c0-0.6,0-0.6,0.6-0.6c5.3,0,10.6,0,16,0c2.9,0,5.6,0.7,8,2.4
				c2.4,1.8,3.7,4.3,4.2,7.2c0.4,2.4,0.2,4.7-0.7,7c-1.3,3.3-3.8,5.3-7.1,6.3c-0.1,0-0.2,0.1-0.4,0.1c-0.6,0.2-0.6,0.2-0.2,0.7
				c3.1,3.6,6.2,7.3,9.3,10.9c0.2,0.3,0.5,0.6,0.7,0.9c0.1,0.1,0.2,0.1,0.1,0.2c0,0-0.1,0-0.2,0c-0.6,0-1.2,0-1.8,0
				c-1.6,0-3.3,0-4.9,0c-0.3,0-0.4-0.1-0.6-0.3c-2.4-2.9-4.8-5.8-7.2-8.7c-0.8-1-1.7-2-2.5-3c-0.2-0.2-0.3-0.2-0.5-0.2
				c-2.1,0-4.1,0-6.2,0c-0.4,0-0.5,0.1-0.4,0.5c0,2.7,0,5.4,0,8c0,1.1,0,2.1,0,3.2c0,0.5,0,0.5-0.5,0.5c-1.6,0-3.3,0-4.9,0
				c-0.5,0-0.5,0-0.5-0.5C228,152.2,228,146.4,228,140.6z M233.9,134.5c0,1.9,0,3.8,0,5.7c0,0.5,0,0.5,0.5,0.5c3.3,0,6.6,0,9.9,0
				c0.6,0,1.2,0,1.9-0.2c2.3-0.5,3.9-1.7,4.5-4c0.3-1.1,0.4-2.3,0.2-3.4c-0.3-1.9-1.3-3.3-3-4.2c-1.1-0.5-2.2-0.7-3.4-0.7
				c-3.4,0-6.7,0-10.1,0c-0.4,0-0.5,0.1-0.5,0.5C233.9,130.7,233.9,132.6,233.9,134.5z"/>
			<path class="st0" d="M145.4,122c2.9,0,5.7,0.6,8.4,1.9c3.1,1.5,5.5,3.8,7.2,6.9c1.3,2.4,2,5,2.3,7.8c0.3,3.1,0,6.1-1,9.1
				c-0.9,2.6-2.3,5-4.3,6.9c-2.5,2.5-5.6,3.9-9.1,4.5c-3.4,0.6-6.8,0.4-10.1-0.7c-2.6-0.9-4.9-2.3-6.8-4.3c-2.4-2.5-3.8-5.6-4.5-9
				c-0.3-1.5-0.4-3-0.4-4.5c0-3.2,0.6-6.3,2-9.2c1.8-3.6,4.5-6.2,8.2-7.8C140,122.4,142.6,122,145.4,122z M133.2,140.9
				c0,1.2,0.2,2.7,0.6,4.2c0.8,2.8,2.4,5.2,4.9,6.7c2.6,1.6,5.5,2.1,8.5,1.6c4.1-0.6,7.1-2.7,8.8-6.5c1.8-4.1,1.9-8.2,0.2-12.4
				c-1.2-3-3.3-5.1-6.4-6.3c-2.2-0.8-4.4-1-6.7-0.6c-3.5,0.5-6.2,2.3-8,5.3C133.7,135.3,133.2,137.9,133.2,140.9z"/>
			<path class="st0" d="M67.9,140.6c0-5.8,0-11.5,0-17.3c0-0.6,0-0.6,0.6-0.6c8.2,0,16.4,0,24.6,0c0.6,0,0.6,0,0.6,0.6
				c0,1.4,0,2.9,0,4.3c0,0.6,0,0.6-0.6,0.6c-6.2,0-12.3,0-18.5,0c-0.1,0-0.2,0-0.3,0c-0.3,0-0.4,0.1-0.4,0.4c0,2.9,0,5.7,0,8.6
				c0,0.4,0.2,0.4,0.5,0.4c5.9,0,11.9,0,17.8,0c0.8,0,0.7-0.1,0.7,0.8c0,1.4,0,2.7,0,4.1c0,0.5,0,0.5-0.5,0.5c-6,0-12,0-18,0
				c-0.6,0-0.6,0-0.6,0.6c0,2.9,0,5.8,0,8.8c0,0.6,0,0.6,0.5,0.6c6.3,0,12.6,0,18.9,0c0.1,0,0.2,0,0.4,0c0.3,0,0.4,0.1,0.4,0.4
				c0,0.6,0,1.3,0,1.9c0,0.9,0,1.8,0,2.7c0,0.3-0.1,0.4-0.4,0.4c-8.4,0-16.8,0-25.3,0c-0.4,0-0.4-0.2-0.4-0.5
				C67.9,152.1,67.9,146.4,67.9,140.6z"/>
			<path class="st0" d="M51.9,143.4c0,4.8,0,9.7,0,14.5c0,0.6,0,0.6-0.6,0.6c-1.6,0-3.2,0-4.8,0c-0.6,0-0.6,0-0.6-0.6
				c0-9.6,0-19.2,0-28.8c0-0.8,0.1-0.7-0.7-0.7c-3.4,0-6.7,0-10.1,0c-0.5,0-0.5,0-0.5-0.5c0-1.5,0-3.1,0-4.6c0-0.3,0.1-0.5,0.5-0.5
				c9.2,0,18.5,0,27.7,0c0.4,0,0.5,0,0.5,0.5c0,1.5,0,3.1,0,4.6c0,0.4,0,0.5-0.5,0.5c-3.4,0-6.9,0-10.3,0c-0.5,0-0.5,0-0.5,0.5
				C51.9,133.7,51.9,138.5,51.9,143.4z"/>
			<path class="st0" d="M100.5,140.6c0-5.7,0-11.4,0-17.1c0-0.1,0-0.2,0-0.4c0-0.3,0.1-0.4,0.4-0.4c0.7,0,1.4,0,2.2,0
				c0.9,0,1.9,0,2.8,0c0.5,0,0.5,0,0.5,0.6c0,9.6,0,19.2,0,28.7c0,1-0.1,0.8,0.8,0.8c5.7,0,11.3,0,17,0c0.6,0,0.6,0,0.6,0.6
				c0,1.5,0,3.1,0,4.6c0,0.3-0.1,0.4-0.4,0.4c-7.8,0-15.7,0-23.5,0c-0.4,0-0.4-0.2-0.4-0.5c0-5.3,0-10.6,0-16
				C100.5,141.5,100.5,141,100.5,140.6z"/>
			<path class="st0" d="M220,140.6c0,5.7,0,11.5,0,17.2c0,0.6,0,0.6-0.6,0.6c-1.6,0-3.2,0-4.8,0c-0.5,0-0.5,0-0.5-0.5
				c0-11.6,0-23.1,0-34.7c0-0.5,0-0.5,0.5-0.5c1.6,0,3.3,0,4.9,0c0.5,0,0.5,0,0.5,0.5C220,129,220,134.8,220,140.6z"/>
		</g>
		<g>
			<path class="st0" d="M74.6,178.6c-0.5,0.4-0.9,0.8-1.5,1c-2.4,0.9-4.8,0.8-7-0.6c-0.9-0.6-1.4-1.6-1.7-2.6
				c-0.5-1.8-0.5-3.6,0-5.4c0.5-1.8,1.7-3,3.6-3.5c1.9-0.5,3.8-0.5,5.6,0.2c1.6,0.6,2.5,1.8,2.7,3.6c0,0.3,0,0.4-0.3,0.4
				c-0.5,0-1,0-1.4,0c-0.2,0-0.3,0-0.3-0.2c-0.2-1.6-1.2-2.2-2.6-2.4c-0.9-0.2-1.9-0.1-2.8,0.1c-1.3,0.4-2.1,1.3-2.4,2.6
				c-0.3,1.3-0.3,2.5,0,3.8c0.4,1.8,1.5,2.7,3.3,2.9c0.9,0.1,1.8,0.1,2.7-0.3c1.4-0.6,1.8-1.6,1.9-2.8c0-0.3-0.2-0.3-0.4-0.3
				c-1.1,0-2.2,0-3.3,0c-0.5,0-0.5,0-0.5-0.5c0-0.3,0-0.5,0-0.8c0-0.4,0.1-0.5,0.5-0.5c1.7,0,3.4,0,5.2,0c0.1,0,0.2,0,0.3,0
				c0.3,0,0.4,0.1,0.4,0.4c0,2,0,4,0,6c0,0.2-0.1,0.4-0.3,0.4c-0.3,0-0.6,0-0.9,0c-0.3,0-0.3-0.1-0.4-0.3
				C74.7,179.2,74.7,178.9,74.6,178.6z"/>
			<path class="st0" d="M116.1,173.6c0-1.9,0-3.9,0-5.8c0-0.5,0-0.5,0.5-0.5c2.1,0,4.1,0,6.2,0c1.1,0,2.1,0.2,2.9,1
				c0.8,0.7,1,1.7,1,2.7c0,0.9-0.2,1.7-0.8,2.4c-0.3,0.4-0.7,0.7-1.2,0.9c-0.3,0.1-0.3,0.3-0.2,0.6c0.8,1.5,1.6,3,2.4,4.5
				c0.2,0.4,0.2,0.4-0.3,0.4c-0.5,0-0.9,0-1.4,0c-0.3,0-0.5-0.1-0.6-0.4c-0.7-1.4-1.4-2.8-2.1-4.2c-0.2-0.3-0.4-0.4-0.7-0.4
				c-1.1,0-2.2,0-3.2,0c-0.5,0-0.5,0-0.5,0.5c0,1.3,0,2.7,0,4c0,0.4-0.1,0.5-0.5,0.5c-0.4,0-0.8,0-1.2,0c-0.3,0-0.4-0.2-0.4-0.4
				C116.1,177.5,116.1,175.5,116.1,173.6z M120.7,169.1C120.7,169.1,120.7,169.1,120.7,169.1c-0.7,0-1.4,0-2.2,0
				c-0.3,0-0.4,0.1-0.4,0.4c0,1.1,0,2.1,0,3.2c0,0.3,0.1,0.4,0.4,0.4c1.4,0,2.8,0,4.2,0c1.1,0,1.8-0.9,1.8-2.1
				c0-1.1-0.7-1.8-1.8-1.9C122.1,169.1,121.4,169.1,120.7,169.1z"/>
			<path class="st0" d="M192.3,173.6c0-1.9,0-3.9,0-5.8c0-0.5,0-0.5,0.5-0.5c2.1,0,4.2,0,6.2,0c1.1,0,2.1,0.2,2.9,1
				c0.8,0.8,1.1,1.7,1.1,2.8c0,0.8-0.2,1.6-0.7,2.4c-0.3,0.4-0.7,0.8-1.2,1c-0.3,0.1-0.3,0.3-0.2,0.5c0.8,1.5,1.6,3,2.4,4.5
				c0.2,0.4,0.2,0.5-0.3,0.5c-0.5,0-0.9,0-1.4,0c-0.3,0-0.5-0.1-0.6-0.4c-0.7-1.4-1.4-2.8-2.1-4.2c-0.2-0.3-0.3-0.4-0.7-0.4
				c-1.1,0-2.2,0-3.3,0c-0.5,0-0.5,0-0.5,0.5c0,1.3,0,2.7,0,4c0,0.4-0.1,0.5-0.5,0.5c-0.4,0-0.8,0-1.2,0c-0.4,0-0.5-0.1-0.5-0.5
				C192.3,177.5,192.3,175.5,192.3,173.6z M197,169.1C197,169.1,197,169.1,197,169.1c-0.7,0-1.4,0-2.2,0c-0.3,0-0.4,0.1-0.4,0.4
				c0,1,0,2.1,0,3.1c0,0.3,0.1,0.4,0.4,0.4c1.4,0,2.8,0,4.2,0c1.1,0,1.8-0.8,1.8-2.1c0-1.2-0.7-1.9-1.8-1.9
				C198.4,169.1,197.7,169.1,197,169.1z"/>
			<path class="st0" d="M85.5,173.6c0-1.9,0-3.8,0-5.8c0-0.5,0-0.6,0.5-0.6c2.9,0,5.8,0,8.8,0c0.5,0,0.5,0,0.5,0.5
				c0,0.3,0,0.6,0,0.9c0,0.3-0.1,0.4-0.4,0.4c-1,0-2.1,0-3.1,0c-1.3,0-2.5,0-3.8,0c-0.3,0-0.4,0.1-0.4,0.4c0,0.9,0,1.7,0,2.6
				c0,0.3,0.1,0.4,0.5,0.4c2,0,4,0,5.9,0c0.5,0,0.5,0,0.5,0.5c0,0.3,0,0.6,0,1c0,0.3-0.1,0.4-0.4,0.4c-0.5,0-1,0-1.5,0
				c-1.5,0-3,0-4.5,0c-0.5,0-0.5,0-0.5,0.5c0,0.9,0,1.8,0,2.7c0,0.5,0,0.5,0.5,0.5c2.2,0,4.5,0,6.7,0c0.6,0,0.6,0,0.6,0.6
				c0,0.2,0,0.5,0,0.7c0,0.3-0.1,0.4-0.4,0.4c-1.5,0-3.1,0-4.6,0c-1.5,0-2.9,0-4.4,0c-0.5,0-0.5,0-0.5-0.5
				C85.5,177.4,85.5,175.5,85.5,173.6z"/>
			<path class="st0" d="M135.9,173.6c0-1.9,0-3.9,0-5.8c0-0.5,0-0.5,0.5-0.5c2.9,0,5.9,0,8.8,0c0.5,0,0.5,0,0.5,0.5
				c0,0.3,0,0.6,0,0.9c0,0.3-0.1,0.4-0.4,0.4c-0.7,0-1.3,0-2,0c-1.6,0-3.2,0-4.8,0c-0.4,0-0.5,0.1-0.5,0.5c0,0.8,0,1.7,0,2.5
				c0,0.3,0.1,0.4,0.4,0.4c2,0,4,0,5.9,0c0.5,0,0.5,0,0.5,0.5c0,0.3,0,0.6,0,0.9c0,0.3-0.1,0.4-0.4,0.4c-1.4,0-2.8,0-4.2,0
				c-0.6,0-1.2,0-1.9,0c-0.3,0-0.4,0.1-0.4,0.4c0,1,0,1.9,0,2.9c0,0.3,0.1,0.5,0.5,0.5c2.3,0,4.5,0,6.8,0c0.6,0,0.6,0,0.6,0.6
				c0,0.3,0,0.5,0,0.8c0,0.3-0.1,0.4-0.4,0.4c-0.9,0-1.9,0-2.8,0c-2.1,0-4.1,0-6.2,0c-0.5,0-0.5,0-0.5-0.5
				C135.9,177.4,135.9,175.5,135.9,173.6z"/>
			<path class="st0" d="M173.6,173.6c0-1.9,0-3.9,0-5.8c0-0.5,0-0.5,0.5-0.5c2.9,0,5.9,0,8.8,0c0.5,0,0.5,0,0.5,0.5
				c0,0.3,0,0.6,0,0.9c0,0.3-0.1,0.4-0.4,0.4c-1.5,0-3,0-4.5,0c-0.8,0-1.5,0-2.3,0c-0.3,0-0.5,0.1-0.5,0.4c0,0.9,0,1.7,0,2.6
				c0,0.3,0.1,0.4,0.4,0.4c2,0,4,0,5.9,0c0.5,0,0.5,0,0.5,0.5c0,0.2,0,0.4,0,0.7c0,0.6,0,0.6-0.6,0.6c-1.9,0-3.8,0-5.6,0
				c-0.6,0-0.6,0-0.6,0.6c0,0.9,0,1.8,0,2.7c0,0.3,0.1,0.4,0.4,0.4c2.3,0,4.6,0,6.9,0c0.5,0,0.5,0,0.5,0.6c0,0.2,0,0.5,0,0.7
				c0,0.5,0,0.5-0.5,0.5c-2.4,0-4.8,0-7.2,0c-0.6,0-1.2,0-1.8,0c-0.4,0-0.5-0.1-0.5-0.5C173.6,177.5,173.6,175.5,173.6,173.6z"/>
			<path class="st0" d="M217,180.1c-1.2,0-2.4-0.2-3.5-0.8c-1.2-0.7-1.8-1.7-1.8-3.1c0-0.3,0.1-0.5,0.5-0.5c0.4,0,0.9,0,1.3,0
				c0.2,0,0.3,0.1,0.3,0.3c0,0.9,0.4,1.5,1.2,1.8c1.4,0.5,2.8,0.5,4.2,0c0.6-0.2,1-0.7,1-1.3c0-0.6-0.3-1.1-0.8-1.4
				c-0.5-0.4-1.1-0.5-1.7-0.7c-1.1-0.3-2.3-0.6-3.4-1c-1-0.4-1.9-1-2.1-2.2c-0.4-1.6,0.1-2.9,1.7-3.6c1.2-0.6,2.5-0.7,3.8-0.6
				c1,0.1,2,0.3,2.8,0.8c1,0.6,1.4,1.5,1.4,2.6c0,0.3-0.1,0.4-0.4,0.4c-0.4,0-0.9,0-1.3,0c-0.2,0-0.4-0.1-0.4-0.3
				c0-0.8-0.5-1.2-1.1-1.5c-1.3-0.5-2.6-0.5-3.9,0.2c-0.9,0.4-0.9,1.5-0.1,2.1c0.3,0.2,0.6,0.4,1,0.5c0.8,0.2,1.5,0.4,2.3,0.7
				c0.6,0.2,1.2,0.3,1.8,0.6c0.2,0.1,0.4,0.1,0.5,0.2c1.2,0.6,2,1.6,1.9,3c-0.1,1.5-0.7,2.6-2.1,3.2
				C219.1,180,218.1,180.1,217,180.1z"/>
			<path class="st0" d="M50.4,167.2c0.3,0,0.6,0,1,0c0.3,0,0.4,0.1,0.5,0.3c1.5,3.9,3,7.8,4.5,11.7c0.2,0.6,0.2,0.6-0.4,0.6
				c-0.4,0-0.8,0-1.2,0c-0.3,0-0.5-0.1-0.6-0.4c-0.3-0.8-0.6-1.5-0.8-2.3c-0.1-0.3-0.2-0.4-0.5-0.4c-1.7,0-3.3,0-5,0
				c-0.3,0-0.4,0.1-0.5,0.4c-0.3,0.8-0.6,1.6-0.9,2.3c-0.1,0.2-0.2,0.3-0.5,0.3c-0.5,0-0.9,0-1.4,0c-0.3,0-0.4-0.1-0.3-0.4
				c0.6-1.6,1.2-3.2,1.9-4.7c0.9-2.4,1.9-4.8,2.8-7.1c0.1-0.3,0.2-0.4,0.5-0.4C49.8,167.3,50.1,167.2,50.4,167.2z M50.4,169.1
				c-0.1,0.1-0.2,0.1-0.2,0.2c-0.7,1.8-1.3,3.6-2,5.3c-0.1,0.3,0,0.3,0.3,0.3c1.2,0,2.4,0,3.6,0c0.3,0,0.4-0.1,0.3-0.4
				c-0.4-1.1-0.9-2.3-1.3-3.4C50.9,170.5,50.7,169.8,50.4,169.1z"/>
			<path class="st0" d="M241.1,179.9c-1.1,0-1.1,0-1.5-1c-0.2-0.6-0.4-1.1-0.6-1.7c-0.1-0.3-0.2-0.4-0.5-0.4c-1.7,0-3.3,0-5,0
				c-0.3,0-0.4,0.1-0.5,0.4c-0.3,0.8-0.6,1.5-0.8,2.3c-0.1,0.3-0.3,0.4-0.6,0.4c-0.4,0-0.8,0-1.2,0c-0.5,0-0.5,0-0.3-0.4
				c0.6-1.6,1.2-3.1,1.8-4.7c0.9-2.4,1.8-4.7,2.8-7.1c0.1-0.3,0.2-0.4,0.5-0.4c0.6,0,1.2,0,1.9,0c0.3,0,0.4,0.1,0.5,0.3
				c1.5,3.9,3,7.8,4.5,11.7c0.2,0.6,0.2,0.6-0.4,0.6C241.4,179.9,241.2,179.9,241.1,179.9z M235.9,169.2c-0.2,0.1-0.2,0.3-0.2,0.5
				c-0.6,1.7-1.2,3.3-1.8,4.9c-0.1,0.4-0.1,0.4,0.3,0.4c1.2,0,2.4,0,3.5,0c0.3,0,0.4-0.1,0.3-0.4c-0.6-1.7-1.2-3.3-1.8-5
				C236.1,169.5,236.1,169.3,235.9,169.2z"/>
			<path class="st0" d="M159.5,177.6c0.2-0.1,0.2-0.3,0.2-0.4c1.1-3.2,2.3-6.4,3.4-9.6c0.1-0.3,0.2-0.4,0.6-0.4c0.4,0,0.9,0,1.3,0
				c0.4,0,0.4,0,0.3,0.4c-0.8,2.2-1.7,4.5-2.5,6.7c-0.6,1.7-1.2,3.3-1.8,5c-0.1,0.3-0.3,0.5-0.7,0.5c-0.6,0-1.1,0-1.7,0
				c-0.3,0-0.4-0.1-0.5-0.4c-1.5-4-2.9-7.9-4.4-11.9c-0.1-0.4-0.1-0.4,0.3-0.4c0.5,0,0.9,0,1.4,0c0.3,0,0.5,0.1,0.6,0.4
				c0.8,2.2,1.6,4.3,2.3,6.5c0.4,1,0.7,2.1,1.1,3.1C159.4,177.4,159.4,177.5,159.5,177.6z"/>
			<path class="st0" d="M250.2,173.6c0-1.9,0-3.9,0-5.8c0-0.5,0-0.5,0.5-0.5c0.4,0,0.7,0,1.1,0c0.5,0,0.5,0,0.5,0.5
				c0,2.4,0,4.7,0,7.1c0,0.9,0,1.8,0,2.6c0,0.6,0,0.6,0.6,0.6c1.8,0,3.6,0,5.5,0c0.5,0,0.5,0,0.5,0.5c0,0.3,0,0.6,0,0.8
				c0,0.3-0.1,0.5-0.5,0.5c-2.6,0-5.2,0-7.8,0c-0.3,0-0.4-0.1-0.4-0.4C250.2,177.5,250.2,175.5,250.2,173.6z"/>
		</g>
		<g>
			<path class="st0" d="M263.4,122c0.2-0.7,0.4-1.2,0.6-1.8c0.1-0.5,0.5-0.3,0.8-0.3c0.3,0,0.3,0.3,0.3,0.5c0.1,0.8,0.1,1.5,0.2,2.3
				c0,0.2,0,0.4-0.3,0.4c-0.3,0-0.3-0.1-0.4-0.4c0-0.7-0.1-1.3-0.1-2c-0.2,0.6-0.4,1.3-0.6,1.9c-0.1,0.3-0.2,0.4-0.5,0.4
				c-0.2,0-0.4-0.1-0.4-0.3c-0.2-0.6-0.4-1.3-0.6-1.9c0,0.6-0.1,1.3-0.1,1.9c0,0.2,0,0.4-0.3,0.4c-0.2,0-0.4,0-0.4-0.3
				c0.1-0.8,0.1-1.6,0.2-2.4c0-0.2,0.1-0.4,0.4-0.4c0.3,0,0.6-0.1,0.8,0.3C263,120.8,263.3,121.3,263.4,122z"/>
			<path class="st0" d="M260.1,119.9c0.3,0,0.7,0,1,0c0.2,0,0.3,0.1,0.3,0.3c0,0.2-0.1,0.3-0.3,0.3c-0.7,0-0.6,0-0.6,0.7
				c0,0.5,0,1,0,1.5c0,0.2-0.1,0.4-0.3,0.4c-0.3,0-0.3-0.2-0.3-0.4c0-0.6,0-1.2,0-1.8c0-0.3-0.1-0.4-0.4-0.4c-0.1,0-0.2,0-0.3,0
				c-0.2,0-0.3-0.1-0.3-0.3c0-0.2,0.1-0.3,0.3-0.3C259.4,119.9,259.8,119.9,260.1,119.9C260.1,119.9,260.1,119.9,260.1,119.9z"/>
		</g>
	</g>
</g>
</svg>
