<svg id="Layer_1" data-name="Layer 1" xmlns="http://www.w3.org/2000/svg" viewBox="0 0 300 300"><path d="M153.06481,207.4736l.095-31.076c.02375-12.67511,2.64906-26.82322,7.51953-41.25645,5.52383-16.42893,13.471-30.39887,22.26162-40.55558l13.42351-17.39114v72.67694l-43.29968,57.6141Z" fill="#009d3b" fill-rule="evenodd"/><path d="M196.36449,77.19444l28.5101-36.9443a8.07784,8.07784,0,0,1,9.4796-2.73222,9.13512,9.13512,0,0,1,5.6426,8.68369L239.783,92.10283l-43.41846,57.76855Z" fill="#acc837" fill-rule="evenodd"/><path d="M239.783,92.10283l-.11877,26.37183c.43951,13.54229-1.80565,29.12779-7.1275,44.91525-4.87047,14.4451-11.214,27.12022-18.74537,36.84926l-17.42682,22.6774V149.88326L239.783,92.11472Z" fill="#3c7e79" fill-rule="evenodd"/><path d="M196.37636,149.85949v73.05708l-28.30812,36.82552a8.1016,8.1016,0,0,1-9.50335,2.7441,9.14694,9.14694,0,0,1-5.63073-8.69557l.14257-46.317Z" fill="#00567a" fill-rule="evenodd"/><path d="M146.92324,207.4736l-.08316-31.076c-.02374-12.67511-2.649-26.82322-7.50765-41.25645-5.5357-16.42893-13.471-30.39887-22.2735-40.55558l-13.4235-17.39114v72.67694Z" fill="#009d3b" fill-rule="evenodd"/><path d="M103.63543,77.19444l-28.5101-36.9443a8.07784,8.07784,0,0,0-9.49148-2.73222,9.147,9.147,0,0,0-5.63072,8.68369l.202,45.90122,43.41845,57.76855V77.19444Z" fill="#acc837" fill-rule="evenodd"/><path d="M60.217,92.10283l.11877,26.37183c-.43951,13.54229,1.80565,29.11592,7.1275,44.92712C72.33371,177.835,78.68908,190.522,86.20861,200.23917l17.42677,22.6655V149.87136L60.2051,92.10283Z" fill="#3c7e79" fill-rule="evenodd"/><path d="M103.63543,149.85949v73.05708l28.30812,36.82552a8.1016,8.1016,0,0,0,9.50335,2.7441,9.14694,9.14694,0,0,0,5.63073-8.69557l-.15439-46.317-43.29969-57.61412Z" fill="#00567a" fill-rule="evenodd"/></svg>