<svg id="Layer_1" data-name="Layer 1" xmlns="http://www.w3.org/2000/svg" viewBox="0 0 300 300"><defs><style>.cls-1{fill:#0778ba;}.cls-2{fill:#88bbe4;}</style></defs><path class="cls-1" d="M255.38,239.4c-.45,0-.4.43-.52.69a6.29,6.29,0,0,1-7.3,3.6,6.17,6.17,0,0,1,0-12.06,6.24,6.24,0,0,1,7.36,3.77c.12.27,0,.67.45.78Zm-11-1.88a4.65,4.65,0,0,0,9.28.62c0-.07,0-.14,0-.22a4.65,4.65,0,0,0-4.22-5l-.22,0a4.59,4.59,0,0,0-4.84,4.33c0,.11,0,.23,0,.34Z"/><path class="cls-1" d="M142.37,59.32a120.33,120.33,0,0,0,28.25,49.81l52.79-53,5.1,5.14L175.7,114.13a115.05,115.05,0,0,0,23.84,17.32,127.29,127.29,0,0,0,27.29,11H142.37Z"/><path class="cls-1" d="M97.45,182.38A119.84,119.84,0,0,0,46.28,154h84.47v83.24a128.79,128.79,0,0,0-11.07-26.54,114.91,114.91,0,0,0-17.25-23.39L49.67,240.27,44.81,235Z"/><path class="cls-2" d="M46.67,142.48a121.71,121.71,0,0,0,50.79-28.34l-52.84-53,4.87-5,53,52.93a121,121,0,0,0,28.3-49.7v83Z"/><path class="cls-2" d="M175.77,182.28l52.78,52.78-5,4.82-52.62-52.77a120.81,120.81,0,0,0-28.58,50v-83h84.33A119.34,119.34,0,0,0,175.77,182.28Z"/><path class="cls-1" d="M250.81,237.79a5.16,5.16,0,0,1,1,2.88,1.36,1.36,0,0,1-1.26.19c-.87-.66-.25-2.74-2.25-2.37-.52.65,0,1.46-.36,2.18-.3.44-.72.2-1.24.22v-6.28c1.64.12,3.42-.78,4.77.83C252,236.06,251.76,236.68,250.81,237.79Zm-2.55-.58a1.33,1.33,0,0,0,1.69-.43.6.6,0,0,0,0-.74,1.39,1.39,0,0,0-1.68-.29A1.46,1.46,0,0,0,248.26,237.21Z"/></svg>