<svg xmlns="http://www.w3.org/2000/svg" viewBox="0 0 300 300"><g id="a"><polygon points="200.5 125.207 228.526 108.873 110.317 38.898 30 84.281 30.292 140.554 59.379 156.486 59.379 101.09 111.596 71.967 200.5 125.207" fill="#2b4192"/><polygon points="269.963 78.179 205.506 39.263 178.173 55.889 243.691 96.267 243.691 123.636 152.96 174.172 131.986 162.881 132.058 197.156 153.472 210.384 269.96 146.366 270 146.401 270 78.216 269.963 78.241 269.963 78.179" fill="#3f69b1"/><polygon points="111.413 200.664 111.669 121.151 138.344 105.11 111.084 88.666 80.646 105.731 80.061 218.898 153.764 261.102 230.901 218.569 230.901 183.49 153.289 226.023 111.413 200.664" fill="#3cb4e5"/><circle cx="153.69071" cy="136.86358" r="17.68577" fill="#4cb847"/></g></svg>