<svg id="Layer_1" data-name="Layer 1" xmlns="http://www.w3.org/2000/svg" viewBox="0 0 300 300"><path d="M25,135.49866c.75125-3.157,1.63186-6.28966,2.2344-9.4747a124.08738,124.08738,0,0,1,99.95694-99.09465c43.13287-7.72319,80.639,4.39889,111.77244,34.95517,18.41316,18.07181,29.53851,40.408,34.49321,65.71521.79822,4.0771,1.01762,8.26706,1.543,12.73122-2.128.1234-3.57335.27747-5.01892.27992-11.66581.01983-23.33177.03753-34.99738-.014-2.02219-.00893-4.043-.34571-6.06424-.534-7.79968-.72677-12.96949-4.96789-15.841-12.06444-3.11433-7.69678-5.89433-15.53209-9.15064-23.16662-2.52585-5.922-5.39294-11.71716-8.43533-17.39424-1.63916-3.05865-4.20406-5.24841-9.28924-3.60643-1.46571,2.09707-3.94208,4.71423-5.33445,7.81594-3.39294,7.558-6.6398,15.2209-9.28716,23.06286-3.41866,10.12665-6.27585,20.44643-9.182,30.73727a12.25471,12.25471,0,0,0-.275,6.429c4.22561,14.32358,8.576,28.61424,13.18073,42.8205a76.20847,76.20847,0,0,0,5.71466,12.58227c1.89763,3.50551,3.74051,7.96964,8.3492,8.04917,4.64679.08016,6.608-4.32511,8.44559-7.85794,2.37791-4.57149,4.33857-9.37084,6.28962-14.149q4.91542-12.03791,9.57346-24.17991c2.686-7.02027,7.86892-10.80538,15.18528-10.92458,14.80681-.24123,29.62106-.02905,44.43217.01869.33037.00106.6599.2715,1.69914.72758-.44748,4.07661-.56826,8.469-1.45035,12.70346-8.77247,42.11154-32.03153,73.25491-71.09468,91.94961a118.72764,118.72764,0,0,1-62.07866,11.2664,123.8699,123.8699,0,0,1-71.94156-30.13487C45.87668,225.32156,32.061,200.904,26.66981,171.69344c-.45627-2.47221-1.10858-4.9084-1.66981-7.36132v-6.65388c1.8341.1405,3.66761.39285,5.50239.40238,8.51957.04427,17.04092.11582,25.55876-.01247,5.28259-.07954,8.65924,2.001,10.57007,7.09032a102.57617,102.57617,0,0,0,6.0241,12.428c1.13449,2.10424,2.65712,4.11763,6.57222,3.3988,7.33383-9.00464,8.83743-20.89135,12.62992-32.526-2.90839-8.22439-5.81707-16.76967-8.98363-25.2187-1.01525-2.70891-2.4832-5.37856-6.16516-6.49688-1.31844,1.39139-2.95676,2.6473-3.96582,4.28847-1.82989,2.97617-3.83829,6.0233-4.78745,9.32287-2.35561,8.18887-7.67965,11.12764-15.78682,10.30455a60.89359,60.89359,0,0,0-7.21938-.03038c-6.65006.12022-13.29951.2739-19.9492.41435Zm10.18351,30.998c6.16986,49.86483,54.15714,102.36306,123.08731,96.66283,57.11313-4.723,95.55973-53.03979,100.26544-91.26649-10.04615.82294-20.12425-1.41841-29.81125,1.38333-1.13867,2.69532-2.01289,4.72479-2.85594,6.76707-4.08447,9.89471-8.06486,19.83364-12.27663,29.674a44.3607,44.3607,0,0,1-10.02944,15.159c-9.07139,8.57768-21.47223,8.1141-29.2517-1.603a61.8001,61.8001,0,0,1-8.93682-14.5693,272.076,272.076,0,0,1-10.11682-28.66174c-5.07917-17.52987-9.32487-35.30054-14.42515-52.82385-2.20443-7.57388-5.52307-14.8446-8.63719-22.12455-1.11919-2.61636-2.467-5.46164-6.07633-6.46371-4.43336.97063-6.9351,4.5806-8.57656,8.41449-3.76834,8.80159-7.01427,17.826-10.46757,26.76174-.60071,1.55434-1.17845,3.11751-2.08307,5.51473-2.24325-6.51847-4.10031-11.9147-6.04428-17.56352a82.74424,82.74424,0,0,1,9.249-22.78716,40.96981,40.96981,0,0,1,7.81628-9.256c6.35258-5.51377,14.37839-5.30205,20.62376.38917a29.94764,29.94764,0,0,1,6.59935,8.1059c3.09695,6.05241,5.54337,12.43759,8.22228,18.70073.66565,1.55624,1.19284,3.17145,2.1318,5.69531.81906-2.20059,1.287-3.3574,1.68306-4.53825,2.57974-7.69215,4.91274-15.47645,7.77722-23.06109,2.9443-7.796,6.72809-15.1846,12.65736-21.28847a18.82366,18.82366,0,0,1,16.62875-5.75314,17.99473,17.99473,0,0,1,12.26644,6.91773,73.18057,73.18057,0,0,1,9.10382,14.43787c4.75835,10.39935,8.95061,21.0641,13.13144,31.71511,1.484,3.78076,3.6858,5.668,7.835,5.57346,6.66335-.15183,13.333-.0105,19.99908-.07737a20.24893,20.24893,0,0,0,3.5578-.6602C251.56424,85.58581,206.542,30.19689,135.13478,37.79438c-28.84643,3.06916-52.9087,16.01734-72.2745,37.32532a107.57273,107.57273,0,0,0-27.56649,57.55919c8.34906-.576,16.0228.83656,23.50645-.84827,1.19779-2.81707,1.95865-5.10852,3.10232-7.19059,2.30131-4.18958,4.34951-8.64072,7.34077-12.30164,4.758-5.82321,11.604-5.89058,16.95758-.58a26.03564,26.03564,0,0,1,5.25686,7.06494,140.55969,140.55969,0,0,1,6.6712,16.36973c4.93409,15.07127,9.39462,30.29808,14.41979,45.33783,1.62066,4.85045,4.22391,9.41638,6.73945,13.91083,1.51512,2.707,3.62934,5.15637,7.145,5.55916,3.62093-1.5548,5.26077-4.81892,6.55108-7.98692,3.19587-7.84639,5.97159-15.86291,8.93568-23.80378.66461-1.7805.66365-3.8862,2.43918-5.62189,2.06951,7.74333,4.01769,15.0327,6.10736,22.85143-1.91044,4.17219-3.6776,8.86527-6.14481,13.15767a45.251,45.251,0,0,1-7.37658,9.61918c-5.9277,5.83269-13.529,6.3324-20.13713,1.24774a29.41806,29.41806,0,0,1-7.73776-8.54206,162.16782,162.16782,0,0,1-8.25675-18.07505c-1.62744-3.996-2.68055-8.225-4.36247-13.519-1.23535,2.675-1.86642,4.34794-2.74391,5.8804-2.09923,3.66619-3.86268,7.6527-6.577,10.81241-5.62764,6.551-13.24526,6.32227-18.44792-.50467-2.76732-3.63124-4.72342-7.891-6.92885-11.93058-1.21928-2.23329-2.19735-4.5977-3.3719-7.08915Z" fill="#204feb"/></svg>