<svg id="Layer_1" data-name="Layer 1" xmlns="http://www.w3.org/2000/svg" viewBox="0 0 300 300"><defs><style>.cls-1{fill:#6799cc;}.cls-2{fill:#186734;}.cls-3{fill:#233f91;}</style></defs><path class="cls-1" d="M149.05,132.91c-18.87-1.35-37.76,0-57.13-.69-15,26.11-30,52.15-45.32,78.73a111.76,111.76,0,0,1-15.75-46c-4.32-40.44,8.19-75.06,38-102.85,20.72-19.34,45.6-29.79,74.05-31.17,2.51-.13,5-1.35,7.57-.34-.07.46-.15.93-.22,1.39-8.57,12-14.83,25.28-22.47,37.78-2.24,3.67-4.23,7.49-6.47,11.49,8.44,14.69,16.85,29.28,25.21,43.9,1.34,2.36,2.44,4.86,3.66,7.3Z"/><path class="cls-2" d="M149.05,132.91l1.09-.5c9.93,15.08,18.26,31.11,27.31,46.71,13.41,23.11,26.66,46.3,40,69.43C182.79,275,124.1,278.67,82.66,249Q115.84,191,149.05,132.91Z"/><path class="cls-3" d="M150.21,31.94c.07-.46.15-.93.22-1.39C204,30.36,249.21,66.31,264,112.88c10.72,33.88,7.1,66.37-10.45,98.21-2.44-4.19-4.59-7.82-6.69-11.47L151.24,33.35A12.7,12.7,0,0,0,150.21,31.94Z"/></svg>