<?xml version="1.0" encoding="utf-8"?>
<!-- Generator: Adobe Illustrator 24.2.3, SVG Export Plug-In . SVG Version: 6.00 Build 0)  -->
<svg version="1.1" id="Layer_1" xmlns="http://www.w3.org/2000/svg" xmlns:xlink="http://www.w3.org/1999/xlink" x="0px" y="0px"
	 viewBox="0 0 300 300" style="enable-background:new 0 0 300 300;" xml:space="preserve">
<style type="text/css">
	.st0{fill:#08090B;}
	.st1{fill:url(#SVGID_1_);}
	.st2{fill:url(#SVGID_2_);}
	.st3{fill:url(#SVGID_3_);}
</style>
<g>
	<path class="st0" d="M244.7,136.6c0-0.1,0.1-0.2,0.2-0.2c0,0,0,0.1,0,0.1C244.8,136.7,244.7,136.7,244.7,136.6
		C244.7,136.6,244.7,136.6,244.7,136.6z"/>
	
		<radialGradient id="SVGID_1_" cx="7548.376" cy="3059.6001" r="238.5488" fx="7310.0107" fy="3068.9595" gradientTransform="matrix(-2.550330e-02 -0.9579 -1.341 3.570000e-02 4432.0103 7328.8159)" gradientUnits="userSpaceOnUse">
		<stop  offset="0.6512" style="stop-color:#FFFFFF"/>
		<stop  offset="0.7435" style="stop-color:#00BCC5"/>
		<stop  offset="0.8677" style="stop-color:#003F4F"/>
	</radialGradient>
	<path class="st1" d="M134.5,42.6c-0.2,0.3-9.1,0.7-13.3,1c-9.8,0.7-19.4,2.4-29,4.6c-5.1,1.2-24.6,6.9-29.3,8.4
		c-5.3,1.7-10.6,3.8-16,5.3c-0.1,0-0.2,0.2-0.4,0.3c0.3,0.1,0.6,0.3,0.9,0.4c5.9,1.8,11.7,4.1,17.4,6.4c8.5,3.4,16.6,7.5,24.5,12
		c30.7,14,59.7,48.9,61.8,49c0,0.2,90.4-80.6,90.3-80.6c-0.7,0-1.2,0-1.8,0c-9.7,0.2-19.3-0.3-29-1.1c-10.4-0.9-20.8-2.1-31.2-3.2
		c-9.2-1-28.3-2.2-28.5-2.4C145.6,42.6,140.1,42.6,134.5,42.6z"/>
	
		<radialGradient id="SVGID_2_" cx="10805.2109" cy="-2843.219" r="173.5801" gradientTransform="matrix(-0.8264 0.4853 0.6651 1.1326 11029.2441 -1924.7415)" gradientUnits="userSpaceOnUse">
		<stop  offset="0.3922" style="stop-color:#FFFFFF"/>
		<stop  offset="0.569" style="stop-color:#00BCC5"/>
		<stop  offset="0.9567" style="stop-color:#003F4F"/>
	</radialGradient>
	<path class="st2" d="M143.3,257.3c-0.1-0.5-0.1-1.1-0.2-1.6c-3.4-15.5-4.9-31.1-5-46.9c0-5.9,0.2-11.9,0.7-17.8
		c0.3-3.4,4.4-39.8,10.5-58c0,0-108.7-36.2-112.7-37.5c-0.5-0.2-1-0.5-1.5-0.3c0,0.1,0,0.2,0,0.3c1,2.2,22.3,45.3,23.5,47.7
		c31.2,78.5,79.2,109.5,84.6,114.2C143.2,257.4,143.2,257.3,143.3,257.3z"/>
	
		<radialGradient id="SVGID_3_" cx="394.5243" cy="908.4261" r="224.0544" gradientTransform="matrix(0.9583 0 0 -0.9583 -301.6667 950.75)" gradientUnits="userSpaceOnUse">
		<stop  offset="0.4114" style="stop-color:#FFFFFF"/>
		<stop  offset="0.5976" style="stop-color:#00BCC5"/>
		<stop  offset="0.9203" style="stop-color:#003F4F"/>
	</radialGradient>
	<path class="st3" d="M264.9,77.3c-2.1,1.4-3.9,3.3-5.8,4.9c-11.3,9.8-23.6,17.7-36.6,25c-35,20.6-69.5,26.3-69.5,26.3
		c3,15.3,23.9,111.6,25.1,117.6c0.1,0.4,0,0.8,0.5,1.1c0.4-0.3,0.6-0.8,0.8-1.2c1.8-3.3,3.8-6.6,5.8-9.9
		c6.4-10.3,13.4-20.1,20.5-29.9c2.9-4,5.8-8,8.7-12c4.7-6.4,9.2-12.8,13.5-19.5c26.6-40.6,32.5-77.4,36.9-101.6
		C264.9,78,265.1,77.7,264.9,77.3L264.9,77.3z"/>
</g>
</svg>
