<svg id="Layer_1" data-name="Layer 1" xmlns="http://www.w3.org/2000/svg" viewBox="0 0 300 300"><path d="M122.16318,46.63645,153.56563,89.555c-1.43244,3.497-2.87567,7.0203-4.4269,10.80729l-14.40581-7.30419L91.09166,122.92372c.43,7.05848.85736,14.07445,1.29727,21.2959l-10.96522,1.45667L50,102.73174q10.15227-24.68,20.364-49.50444Z" fill="#0c68a5"/><path d="M181.71289,117.10251,162.5555,107.2506l4.23633-10.36034,51.79288-6.58273L250,133.2325c-6.77427,16.46882-13.53182,32.897-20.36658,49.51287l-51.78244,6.581-6.54279-8.911c4.59351-3.16579,9.0866-6.26238,13.677-9.426C183.89677,153.06609,182.81109,135.18727,181.71289,117.10251Z" fill="#0c68a5"/><path d="M81.87609,160.92411l11.3037-1.40276c.74364,5.85559.57845,11.53779,1.32108,17.40974l46.79865,23.96647,17.617-12.02291c2.03641,2.7678,4.04734,5.501,6.16865,8.3842q-10.14729,24.65684-20.37734,49.51474l-51.79232,6.59L61.5098,210.43237Z" fill="#0c68a5"/></svg>