<svg id="Layer_1" data-name="Layer 1" xmlns="http://www.w3.org/2000/svg" viewBox="0 0 300 300"><defs><style>.cls-1{fill:#0e73b9;}.cls-2{fill:#2ea8df;}</style></defs><title>TNXP</title><polygon class="cls-1" points="39.11 129.32 39.11 137.96 51.5 137.96 51.5 175.74 61.5 175.74 61.5 137.96 73.41 137.96 73.41 129.32 39.11 129.32"/><polygon class="cls-1" points="175 129.32 175 158.02 144.78 119.48 144.84 175.74 154.84 175.74 154.84 147.69 185.06 186.28 185.06 129.32 175 129.32"/><polygon class="cls-1" points="198.16 129.32 198.22 175.74 208.27 175.74 208.27 129.32 198.16 129.32"/><path class="cls-1" d="M242.74,151.49l15.05-22.17H246.32l-.32.49c-1.58,2.33-3.26,4.83-5.06,7.44-1.52,2.23-2.93,4.35-4.35,6.36l-10.54-14.29H214.47l1.25,1.74c1.09,1.52,2.28,3.15,3.53,4.89s2.61,3.59,4,5.43,2.77,3.75,4,5.49c1.15,1.53,2.23,3,3.21,4.46l-16.8,24.46h11.47l11.42-16.58,12.61,16.58h11.74Z"/><path class="cls-2" d="M111,145.3V117a3.26,3.26,0,1,0-6.52,0V145.3A8.32,8.32,0,1,0,116.08,153,8.44,8.44,0,0,0,111,145.3Z"/><path class="cls-2" d="M130.7,143.34a26.09,26.09,0,0,0-5.22-7.66,24,24,0,0,0-7.82-5.22,20.52,20.52,0,0,0-4.46-1.31v9.14l.43.16a14.52,14.52,0,0,1,4.73,3.26,15.27,15.27,0,0,1,3.1,4.84,16.9,16.9,0,0,1,1.09,6,16.62,16.62,0,0,1-1.09,6,14.3,14.3,0,0,1-3.1,4.84,15.07,15.07,0,0,1-4.73,3.26,14.23,14.23,0,0,1-6,1.2,15.59,15.59,0,0,1-6-1.2A14.52,14.52,0,0,1,97,163.4a15.27,15.27,0,0,1-3.1-4.84,16.62,16.62,0,0,1-1.09-6,17.1,17.1,0,0,1,1.09-6,13.58,13.58,0,0,1,3.1-4.84,15.07,15.07,0,0,1,4.73-3.26c.21-.11.43-.16.59-.27V129.1a28.17,28.17,0,0,0-4.73,1.36,22.94,22.94,0,0,0-7.82,5.22l-1.8,1.84h.17a23.43,23.43,0,0,0-3.59,5.88,23,23,0,0,0-1.85,9.24,24.55,24.55,0,0,0,1.9,9.13,21.85,21.85,0,0,0,3.59,5.87H88l1.79,1.85a23,23,0,0,0,7.83,5.22,28.39,28.39,0,0,0,20.11,0,23.69,23.69,0,0,0,7.88-5.22,25.5,25.5,0,0,0,5.22-7.67,22.82,22.82,0,0,0-.11-18.48Z"/></svg>