<svg id="Layer_1" data-name="Layer 1" xmlns="http://www.w3.org/2000/svg" viewBox="0 0 300 300"><path d="M111.37344,160.9711h.65585v2.40018h3.02493v-2.39873h.66458v5.9081h-.65752V164.0033h-3.02622v2.88115h-.66162Z" fill="#61778c"/><path d="M132.06749,167.10192h-.809l-1.78305-2.58428h-.16678v2.57869H128.642v-5.91385c.35611,0,.70746-.00849,1.05817.003a4.55621,4.55621,0,0,1,.70768.07,1.545,1.545,0,0,1,1.26058,1.7453,1.508,1.508,0,0,1-1.36558,1.44106c-.03249.00521-.06416.01548-.11156.02719Zm-2.7568-3.17919a2.857,2.857,0,0,0,1.06029-.10008.952.952,0,0,0,.6525-.89518.96556.96556,0,0,0-.54951-.99985,2.69351,2.69351,0,0,0-1.16328-.131Z" fill="#61778c"/><path d="M166.35832,161.18946c0,.18973.00012.36754,0,.54535-.00087,1.13544-.01461,2.271.00034,3.40627a2.09573,2.09573,0,0,1-2.90942,1.91718,1.88261,1.88261,0,0,1-1.25758-1.41607,3.493,3.493,0,0,1-.05721-.66922c-.00531-1.22439-.00263-2.44882-.00244-3.67323,0-.0333.00274-.06659.00461-.109h.66551v.159c0,1.14816-.00233,2.29632.002,3.44446a4.60249,4.60249,0,0,0,.04458.73424,1.2313,1.2313,0,0,0,.97317.993,1.52816,1.52816,0,0,0,1.64721-.53785,1.61612,1.61612,0,0,0,.22055-.96291c.00447-1.2244.00239-2.44882.00277-3.67323,0-.05011,0-.10022,0-.15806Z" fill="#61778c"/><path d="M141.82107,167.10005h-.7283l-.70005-1.66693h-2.53948l-.71009,1.66862h-.71937l2.73008-6.20269Zm-2.67583-4.65641-1.0128,2.36751H140.131Z" fill="#61778c"/><path d="M121.28724,161.78948v1.78024h2.32431v.60812h-2.32223v2.30823h2.38388v.61053h-3.05577V161.191h3.058v.59846Z" fill="#61778c"/><path d="M154.907,166.49235h2.38509v.60273h-3.05741V161.1876H157.29v.60381h-2.38512v1.77579h2.321v.60761H154.907Z" fill="#61778c"/><path d="M188.47747,161.67066v.80948a2.42222,2.42222,0,0,0-2.302-.7165,2.35255,2.35255,0,0,0-1.444.99015,2.46793,2.46793,0,0,0,.28927,3.14323,2.43442,2.43442,0,0,0,3.44933-.065v.792a3.05139,3.05139,0,1,1,.00743-4.95339Z" fill="#61778c"/><path d="M193.10463,165.67928l.6249-.17323c.04992.1423.087.28181.14631.41117a1.188,1.188,0,0,0,1.44786.61018,1.14785,1.14785,0,0,0,.79743-1.31949.82879.82879,0,0,0-.39028-.57154c-.24159-.1473-.49666-.27316-.74914-.40193-.27913-.14235-.5736-.2583-.84084-.41963a1.32886,1.32886,0,0,1-.71479-1.4709,1.5332,1.5332,0,0,1,1.18324-1.20994,1.71,1.71,0,0,1,1.947.80228c.0107.01775.01967.03653.03725.06941l-.50855.32711c-.1-.12125-.1855-.24312-.28895-.34728a1.08105,1.08105,0,0,0-1.46612-.00013.79335.79335,0,0,0,.099,1.25185,8.92751,8.92751,0,0,0,.80135.41075c.25759.12864.52827.23549.77276.38516a1.61532,1.61532,0,0,1,.442,2.4455,1.91656,1.91656,0,0,1-2.88621.14068A2.04152,2.04152,0,0,1,193.10463,165.67928Z" fill="#61778c"/><path d="M145.8641,161.1768a11.93672,11.93672,0,0,1,1.85136.07647,1.60669,1.60669,0,0,1,1.25244,1.80125,1.55683,1.55683,0,0,1-1.51442,1.42915c-.30172.02885-.60853.00471-.929.00471v2.61139h-.66041Zm.66634,2.75593a9.21282,9.21282,0,0,0,1.0271-.09214.92016.92016,0,0,0,.7642-.88185.96465.96465,0,0,0-.583-1.05289,3.25,3.25,0,0,0-1.20833-.11056Z" fill="#61778c"/><path d="M104.37874,161.78971H102.949v-.59876h3.52587v.60265h-1.4282v5.30126h-.66788Z" fill="#61778c"/><path d="M172.034,161.78955h-1.42967v-.5988h3.52593v.60317h-1.42838V167.095H172.034Z" fill="#61778c"/><path d="M178.26615,161.18647h.65189v5.91328h-.65189Z" fill="#61778c"/><path d="M225.359,133.31152c.09544-.006.17468-.0154.25391-.01529,3.36513.00448,6.73065-.01964,10.09521.02664a11.08982,11.08982,0,0,1,5.3409,1.3102,5.86166,5.86166,0,0,1,3.12745,5.07414,6.8633,6.8633,0,0,1-1.01212,4.26771,6.96257,6.96257,0,0,1-3.30277,2.62538,12.43964,12.43964,0,0,1-4.80788.89325c-3.16362.01021-6.32731.0038-9.491.00377-.06,0-.12-.00641-.20373-.01119Zm2.1759,1.87393v10.42643c.07527.00523.12522.01173.17516.01172,2.35734-.00028,4.71473.00665,7.072-.005a10.6228,10.6228,0,0,0,3.78491-.66287,4.83242,4.83242,0,0,0,3.34048-4.62443,4.3086,4.3086,0,0,0-2.35035-4.11429,8.93736,8.93736,0,0,0-4.30268-1.02575c-2.48784-.03482-4.97644-.01594-7.46472-.01894C227.71026,135.17225,227.63076,135.18031,227.53492,135.18545Z" fill="#61778c"/><path d="M254.532,133.31311h15.46726v1.86635H256.70611v3.5208H270V140.55H256.703v5.04676h13.29573v1.88392H254.532Z" fill="#61778c"/><path d="M61.14467,147.48918H58.97891V133.32875a1.13139,1.13139,0,0,1,.19145-.03152c4.06938.00231,8.13886-.00923,12.20806.01982a4.26418,4.26418,0,0,1,3.15722,1.29362,3.78993,3.78993,0,0,1,.9403,3.36064,3.96376,3.96376,0,0,1-3.98018,3.43118c-.59325.0267-1.18824.01459-1.78242.02171-.05742.00069-.11473.0116-.23571.0246l5.8678,6.02913H72.41311l-5.7-6.004H61.14467Zm.00121-7.8145h.303q4.57736,0,9.1547-.00416a4.695,4.695,0,0,0,.98872-.09477,2.15353,2.15353,0,0,0,1.79093-2.21873,2.01233,2.01233,0,0,0-1.73107-2.04843,5.6602,5.6602,0,0,0-1.25538-.13109c-2.971-.01074-5.942-.00573-8.913-.00574h-.33794Z" fill="#232e3f"/><path d="M142.566,146.62727l.52928-1.87625c.64145.20608,1.259.44483,1.89658.60242a21.723,21.723,0,0,0,9.0467.333,4.692,4.692,0,0,0,1.95812-.7476,2.4482,2.4482,0,0,0,.6154-.6101,1.48927,1.48927,0,0,0-.6224-2.25807,7.53449,7.53449,0,0,0-2.58818-.6653c-1.70963-.19959-3.4255-.34672-5.13405-.5545a12.01673,12.01673,0,0,1-3.86172-1.01855,3.0822,3.0822,0,0,1-.53771-5.23038,7.65882,7.65882,0,0,1,3.09446-1.28544,22.88671,22.88671,0,0,1,5.47091-.38561,19.40555,19.40555,0,0,1,5.18235.75267c.334.10336.65916.23552,1.00644.36091l-.49911,1.8329a.93112.93112,0,0,1-.1548-.03052,16.33648,16.33648,0,0,0-5.64135-1.036,19.7429,19.7429,0,0,0-5.25672.38027,5.40034,5.40034,0,0,0-1.49706.60806,1.25484,1.25484,0,0,0,.016,2.22542,4.88061,4.88061,0,0,0,2.05565.65313c1.49766.18746,3.00084.33107,4.50193.49109a18.82112,18.82112,0,0,1,4.46559.84767,6.173,6.173,0,0,1,.77213.33955,3.35542,3.35542,0,0,1,.99837,5.0736,5.2424,5.2424,0,0,1-2.60454,1.71928,13.95507,13.95507,0,0,1-4.03328.69195,24.756,24.756,0,0,1-7.13923-.59216C143.92742,147.07792,143.26546,146.84236,142.566,146.62727Z" fill="#232e3f"/><path d="M204.24309,147.87022a11.684,11.684,0,0,1-5.10915-1.21025,6.57128,6.57128,0,0,1-3.83017-6.36207,6.72284,6.72284,0,0,1,4.52687-6.49147,14.03707,14.03707,0,0,1,6.46983-.81645,11.20832,11.20832,0,0,1,4.19421,1.14641,6.5925,6.5925,0,0,1,3.81436,6.285,6.72822,6.72822,0,0,1-4.53573,6.57568A14.51592,14.51592,0,0,1,204.24309,147.87022Zm.95764-1.7803a9.50039,9.50039,0,0,0,2.98886-.52579,5.395,5.395,0,0,0,.52243-10.12464,10.50468,10.50468,0,0,0-7.38425-.17258,5.47484,5.47484,0,0,0-2.6133,1.77154,5.21232,5.21232,0,0,0-1.10716,3.66445,4.97749,4.97749,0,0,0,2.73739,4.38425A9.93538,9.93538,0,0,0,205.20073,146.08992Z" fill="#61778c"/><path d="M115.37213,147.37672H113.2087V132.79156a2.51275,2.51275,0,0,1,.46051.20179q4.536,3.25973,9.06486,6.5295,2.7676,1.99536,5.53507,3.99094c.08715.06282.1787.11957.308.20562V133.20582h2.17577v14.5593a2.35745,2.35745,0,0,1-.44676-.1918q-3.74487-2.6791-7.48211-5.36883-3.58021-2.57193-7.1603-5.14408c-.08054-.05785-.16437-.11112-.29158-.19675Z" fill="#232e3f"/><path d="M93.0795,133.07127h1.91562l9.205,14.40369h-2.70061l-1.96422-3.18666H88.47651l-1.99134,3.19712H83.86851Zm.93672,2.30612-4.356,6.99606h8.69021Z" fill="#232e3f"/><path d="M186.776,146.37845c-.58665.21954-1.15515.4675-1.7454.64712a18.82683,18.82683,0,0,1-9.51573.45843,8.96808,8.96808,0,0,1-3.90873-1.8065,6.283,6.283,0,0,1-2.31268-4.06416h2.34233a4.833,4.833,0,0,0,2.25646,3.10436,9.14335,9.14335,0,0,0,3.82646,1.19869,16.55633,16.55633,0,0,0,6.79782-.71667c.5715-.18688,1.12792-.42093,1.72848-.64773C186.41558,145.13743,186.58733,145.7283,186.776,146.37845Z" fill="#61778c"/><path d="M171.63884,139.19359h-2.3357a6.79639,6.79639,0,0,1,4.81594-5.46606,16.38258,16.38258,0,0,1,6.73185-.74993,16.736,16.736,0,0,1,5.69346,1.36137c.055.0248.10826.052.20019.09676-.17417.61326-.34353,1.20957-.5195,1.83009-.08044-.0254-.14577-.04052-.20565-.06652a16.94013,16.94013,0,0,0-7.53866-1.36743,9.56,9.56,0,0,0-4.606,1.26461A4.86082,4.86082,0,0,0,171.63884,139.19359Z" fill="#61778c"/><path d="M38.26547,135.18728H30v-1.876H48.65853v1.86629H40.4393v12.30261H38.26547Z" fill="#232e3f"/><path d="M199.64891,161.0868h-.65723v-.23727h1.5998v.23727H199.931v1.92357h-.28212Z" fill="#61778c"/><path d="M203.00015,162.06141c-.016-.30133-.03525-.66362-.032-.93292h-.00966c-.07372.25326-.16349.52256-.27246.82072l-.38155,1.04833h-.21157l-.34946-1.02912c-.10259-.30455-.18913-.58345-.25009-.83993H201.487c-.00639.2693-.02243.63159-.0417.95534l-.05767.92654h-.26608l.15066-2.16084h.35585l.36867,1.04517c.08976.26608.16349.50334.218.72773h.00966c.05446-.218.1314-.45521.22761-.72773l.38471-1.04517h.35585l.13468,2.16084h-.27252Z" fill="#61778c"/></svg>