<svg id="Layer_1" data-name="Layer 1" xmlns="http://www.w3.org/2000/svg" viewBox="0 0 300 300"><defs><style>.cls-1{fill:#51b29f;}.cls-2{fill:#49998c;}.cls-3,.cls-4{fill:#62b692;}.cls-4{fill-rule:evenodd;}.cls-5{fill:#7ec093;}.cls-6{fill:#4da48a;}.cls-7{fill:#54b5b1;}.cls-8{fill:#5cb9d2;}.cls-9{fill:#45958a;}.cls-10{fill:#4aa0c8;}.cls-11{fill:#5497c1;}.cls-12{fill:#3b808d;}.cls-13{fill:#52b2dc;}.cls-14{fill:#78c3e1;}.cls-15{fill:#408a8a;}.cls-16{fill:#88cae5;}.cls-17{fill:#4fa9d1;}.cls-18{fill:#4890bb;}.cls-19{fill:#3d7eae;}.cls-20{fill:#a0d3e9;}.cls-21{fill:#bee2f8;}.cls-22{fill:#36778c;}.cls-23{fill:#59b8bf;}</style></defs><g id="_51b29fff" data-name="#51b29fff"><path id="Layer" class="cls-1" d="M135.8,58.81A62.33,62.33,0,0,1,146,57.59L144.76,59c.41.91.82,1.82,1.24,2.72,8.95,2.41,17.91,4.84,26.91,7.06a34.59,34.59,0,0,0,6.59-6.54,93.28,93.28,0,0,1,41.29,27.54c-4.35,4.48-9,8.68-13.12,13.37l-.49-.15c-2.82-8.74-4.49-17.83-7.41-26.53a28.23,28.23,0,0,0-6.87-2.31c-5.54-1.26-11-2.9-16.47-4.38a6,6,0,0,0-3.37,0c-3.71,2.27-6.34,5.84-9.49,8.78-3.5,3.42-6.8,7.05-10.57,10.19-2.65-8.82-4.59-17.85-7.44-26.59C142.44,60.7,138.94,60.27,135.8,58.81Z"/><path id="Layer-2" data-name="Layer" class="cls-1" d="M241.46,137.42l1.19.38c1.53,8.38,1.24,17,.32,25.44l-.1,0c-6.88-2.37-14.1-3.49-21-5.9C228.22,150.47,235.08,144.18,241.46,137.42Z"/><path id="Layer-3" data-name="Layer" class="cls-1" d="M201.25,177.59l.43.27c2.51,8.73,4.44,17.62,7.25,26.25l0,.24c.91,5.43,2.65,10.68,4,16l0,.16c-3.77,2.76-7.1,6.53-11.45,8.25-4.08-1.4-8-3.09-12-4.8,5.61-7.08,12.88-12.62,18.68-19.53-3.92-1.77-8.22-2.36-12.34-3.52-4.69-1.28-9.42-2.44-14.08-3.84C188.29,190.57,194.85,184.16,201.25,177.59Z"/><path id="Layer-4" data-name="Layer" class="cls-1" d="M181.19,197.73c2,4.38,2.76,9.2,4.1,13.81.93,3.82,2.67,7.56,2.29,11.58a209.6,209.6,0,0,1-20.83-10.81C171.45,207.33,176.39,202.61,181.19,197.73Z"/></g><g id="_47988cff" data-name="#47988cff"><path id="Layer-5" data-name="Layer" class="cls-2" d="M146,57.59h4.1c-1.34,1.4-2.71,2.79-4.08,4.15-.42-.9-.83-1.81-1.24-2.72Z"/></g><g id="_62b692ff" data-name="#62b692ff"><path id="Layer-6" data-name="Layer" class="cls-3" d="M150.08,57.6A96,96,0,0,1,172,60.12l-.26.13-1,.51c.63,2.7,1.33,5.4,2.17,8.05-9-2.22-18-4.65-26.91-7.06C147.37,60.39,148.74,59,150.08,57.6Z"/><path id="Layer-7" data-name="Layer" class="cls-4" d="M194.39,150.34c9,1.82,17.74,4.83,26.74,6.71l.78.26c6.86,2.41,14.08,3.53,21,5.9-.44,3-1,6-1.51,9l-.27.22a152,152,0,0,0-12.2,11.88,78,78,0,0,1,7.74,2.57,98.9,98.9,0,0,1-4.66,9.47c-1.33-3.75-2.23-7.63-3.32-11.44-3,2.17-5.45,5-8.11,7.64-3.88,3.84-7.7,7.73-11.61,11.54-2.81-8.63-4.74-17.52-7.25-26.25C199.24,168.69,196.75,159.53,194.39,150.34Zm14.13,20.14c-2.15,2.29-4.85,4.16-6.35,7,8.72,2.11,17.34,4.65,26.08,6.76a42,42,0,0,0-1.07-5.36c-2-7-3.63-14.1-5.72-21.07C216.91,161.79,212.89,166.32,208.52,170.48Z"/></g><g id="_7dbf92ff" data-name="#7dbf92ff"><path id="Layer-8" data-name="Layer" class="cls-5" d="M120.77,62.22c4.93-1.4,9.93-3,15-3.41,3.14,1.46,6.64,1.89,9.76,3.39-5,4.81-9.87,9.74-14.77,14.67a32.87,32.87,0,0,1-5,4.5C124,75,122.3,68.64,120.77,62.22Z"/><path id="Layer-9" data-name="Layer" class="cls-5" d="M208.52,170.48c4.37-4.16,8.39-8.69,12.94-12.67,2.09,7,3.77,14.05,5.72,21.07a42,42,0,0,1,1.07,5.36c-8.74-2.11-17.36-4.65-26.08-6.76C203.67,174.64,206.37,172.77,208.52,170.48Z"/><path id="Layer-10" data-name="Layer" class="cls-5" d="M213,220.36c-1.35-5.33-3.09-10.58-4-16C214,205.67,219,207,224,208.4A88.85,88.85,0,0,1,213,220.36Z"/></g><g id="_4ea48aff" data-name="#4ea48aff"><path id="Layer-11" data-name="Layer" class="cls-6" d="M170.74,60.76l1-.51a53.39,53.39,0,0,1,7.74,2,34.59,34.59,0,0,1-6.59,6.54C172.07,66.16,171.37,63.46,170.74,60.76Z"/><path id="Layer-12" data-name="Layer" class="cls-6" d="M163.57,78.6c3.15-2.94,5.78-6.51,9.49-8.78,2.26,8.78,4.75,17.49,6.86,26.31-9-2.47-18-5.08-27.21-7.06l.29-.28C156.77,85.65,160.07,82,163.57,78.6Z"/><path id="Layer-13" data-name="Layer" class="cls-6" d="M220.79,89.81a90.66,90.66,0,0,1,13,19.51l-2.14.23c-7.64-1.76-15.2-3.85-22.74-6l-1.22-.36C211.79,98.49,216.44,94.29,220.79,89.81Z"/><path id="Layer-14" data-name="Layer" class="cls-6" d="M214.58,130.39c9,2.1,17.94,4.63,26.88,7-6.38,6.76-13.24,13.05-19.55,19.89l-.78-.26c-1.47-6-2.85-12-4.64-17.88A48.75,48.75,0,0,1,214.58,130.39Z"/></g><g id="_55b5b1ff" data-name="#55b5b1ff"><path id="Layer-15" data-name="Layer" class="cls-7" d="M100.82,71.63a86.89,86.89,0,0,1,20-9.41c1.53,6.42,3.25,12.8,5,19.15a32.87,32.87,0,0,0,5-4.5c4.9-4.93,9.78-9.86,14.77-14.67,2.85,8.74,4.79,17.77,7.44,26.59-9-2.1-17.91-4.93-27-6.84l-.32-.07c-8.67-2.8-17.61-4.63-26.35-7.2C99.81,73.66,100.3,72.63,100.82,71.63Z"/><path id="Layer-16" data-name="Layer" class="cls-7" d="M173.06,69.82a6,6,0,0,1,3.37,0c5.48,1.48,10.93,3.12,16.47,4.38a28.23,28.23,0,0,1,6.87,2.31c-6.65,6.5-13.06,13.26-19.85,19.63C177.81,87.31,175.32,78.6,173.06,69.82Z"/><path id="Layer-17" data-name="Layer" class="cls-7" d="M154.94,189.8q19.51-19.94,39.45-39.46c2.36,9.19,4.85,18.35,7.29,27.52l-.43-.27c-5.39-2.37-11.28-3.24-16.89-4.93a69.2,69.2,0,0,0-9.55-2.2c.58,4.66,2.08,9.13,3.26,13.68,1.22,4.32,2.06,8.76,3.75,12.94,4.66,1.4,9.39,2.56,14.08,3.84,4.12,1.16,8.42,1.75,12.34,3.52-5.8,6.91-13.07,12.45-18.68,19.53l-2-.85c.38-4-1.36-7.76-2.29-11.58-1.34-4.61-2.06-9.43-4.1-13.81-2.5-1.93-5.76-2.12-8.69-3C166.64,193.11,160.68,191.84,154.94,189.8Z"/></g><g id="_5bb9d1ff" data-name="#5bb9d1ff"><path id="Layer-18" data-name="Layer" class="cls-8" d="M84,84.7C89.32,80,94.56,75,100.82,71.63c-.52,1-1,2-1.49,3.05,8.74,2.57,17.68,4.4,26.35,7.2-2.24,2.21-4.35,4.54-6.5,6.83C107.51,87,95.73,86.19,84,84.7Z"/><path id="Layer-19" data-name="Layer" class="cls-8" d="M126,82c9.09,1.91,18,4.74,27,6.84l-.29.28c-1.41,1.53-2.69,3.16-4,4.76-7.16-1.57-14.4-2.78-21.65-3.92A21.53,21.53,0,0,0,126,82Z"/><path id="Layer-20" data-name="Layer" class="cls-8" d="M85.91,121.48l.44-.43v.71c1.41,9.06,4.82,17.68,6.5,26.69-9-2.11-17.76-4.79-26.72-6.86,6.45-6.7,13.38-13,19.59-19.9Z"/><path id="Layer-21" data-name="Layer" class="cls-8" d="M174.81,170.46a69.2,69.2,0,0,1,9.55,2.2c5.61,1.69,11.5,2.56,16.89,4.93-6.4,6.57-13,13-19.43,19.49-1.69-4.18-2.53-8.62-3.75-12.94C176.89,179.59,175.39,175.12,174.81,170.46Z"/><path id="Layer-22" data-name="Layer" class="cls-8" d="M92.26,183.86c2.71-2.55,5-5.51,8.15-7.61l.54,2.27a38.93,38.93,0,0,0-4.25,21.36c-5.33-1.47-10.76-2.63-16-4.39C84.47,191.54,88.4,187.74,92.26,183.86Z"/><path id="Layer-23" data-name="Layer" class="cls-8" d="M72.46,203.56c2.65-2.54,5.18-5.2,7.91-7.65,1.71,5.94,3.13,12,4.83,17.89a20.93,20.93,0,0,1,.86,5.56A94.48,94.48,0,0,1,72.46,203.56Z"/><path id="Layer-24" data-name="Layer" class="cls-8" d="M91.68,224.22c6.35.52,12.26,3.13,18.52,4.17,4.06,3.37,7.91,7.05,12.47,9.77,2.29,1.49,4.78,2.65,7,4.25A92.13,92.13,0,0,1,91.68,224.22Z"/></g><g id="_44948aff" data-name="#44948aff"><path id="Layer-25" data-name="Layer" class="cls-9" d="M179.92,96.13c6.79-6.37,13.2-13.13,19.85-19.63,2.92,8.7,4.59,17.79,7.41,26.53-8.86-2.13-17.71-4.33-26.53-6.67Z"/><path id="Layer-26" data-name="Layer" class="cls-9" d="M231.63,109.55l2.14-.23.15,0a91.11,91.11,0,0,1,8.73,28.51l-1.19-.38c-8.94-2.4-17.87-4.93-26.88-7a48.75,48.75,0,0,0,1.91,8.78c1.79,5.9,3.17,11.91,4.64,17.88-9-1.88-17.72-4.89-26.74-6.71q-19.92,19.53-39.45,39.46l-.6-.12c-.72-2.71-1.43-5.44-2.15-8.16,3.73-5.57,9-9.75,14.41-13.64a74.12,74.12,0,0,0,7.5,1.89c-.37-2.06-.86-4.07-1.42-6.07,6.71-4.46,13.47-8.9,19.58-14.18,1.34.16,2.82.21,3.75-1,4.23-4.15,8.34-8.44,12.57-12.6,8.16-8.46,16.82-16.42,24.82-25Q232.52,110.23,231.63,109.55Z"/></g><g id="_4ba0c8ff" data-name="#4ba0c8ff"><path id="Layer-27" data-name="Layer" class="cls-10" d="M125.68,81.88,126,82a21.53,21.53,0,0,1,1.06,8c-2.62-.4-5.25-.77-7.88-1.2C121.33,86.42,123.44,84.09,125.68,81.88Z"/><path id="Layer-28" data-name="Layer" class="cls-10" d="M70.24,102.41c3.15-2.28,5.63-5.29,8.68-7.67,2.17,9,4.78,17.8,7,26.74l-.18.21c-7.32-2.37-14.89-3.89-22.21-6.24A67,67,0,0,1,70.24,102.41Z"/><path id="Layer-29" data-name="Layer" class="cls-10" d="M106.37,101.64A12.47,12.47,0,0,1,109,99c7.68,1.35,15.24,3.39,22.77,5.45.31,1.4.61,2.81,1,4.2C124,106.36,115.13,104.12,106.37,101.64Z"/><path id="Layer-30" data-name="Layer" class="cls-10" d="M159.88,116.05c2.42.56,4.87,1,7.33,1.4a13,13,0,0,1,6.54,7.14c-.39,4.88-3.81,8.77-7.89,11.12a66.75,66.75,0,0,1-9.72,4.76c-5.16-2.08-10.64-3.13-16-4.46l-.48-.39c-.06-.4-.19-1.19-.26-1.59l1.64,1.05C147.34,128.76,153.77,122.56,159.88,116.05Z"/><path id="Layer-31" data-name="Layer" class="cls-10" d="M130.45,145.68c3.23-3.12,6.14-6.6,9.85-9.17.91,3.1,1.66,6.23,2.46,9.36a122.41,122.41,0,0,0-19.61,9.95l-2.4-.27Q125.54,150.52,130.45,145.68Z"/><path id="Layer-32" data-name="Layer" class="cls-10" d="M149.39,188.8c1.65.28,3.3.58,5,.88l.6.12c5.74,2,11.7,3.31,17.56,4.95,2.93.86,6.19,1.05,8.69,3-4.8,4.88-9.74,9.6-14.44,14.58-3-1.94-5.93-3.95-8.72-6.16V206c-.14-5.42-2.38-10.5-3.55-15.75a16.47,16.47,0,0,0-4.67,5.56A26.87,26.87,0,0,1,149.39,188.8Z"/></g><g id="_5497c0ff" data-name="#5497c0ff"><path id="Layer-33" data-name="Layer" class="cls-11" d="M148.71,93.83c1.31-1.6,2.59-3.23,4-4.76.45,2,1,4,1.47,5.93Q151.45,94.39,148.71,93.83Z"/><path id="Layer-34" data-name="Layer" class="cls-11" d="M106.37,101.64c8.76,2.48,17.59,4.72,26.41,7,.06.19.17.59.23.78-6.53,6.29-13,12.65-19.21,19.29q12.87,3.65,25.85,6.93l.48.39.17.5c-3.71,2.57-6.62,6.05-9.85,9.17s-6.51,6.52-9.7,9.87l-.63-.07L113,128.71l-.23-.88c-2.2-8.31-4.37-16.61-6.6-24.9Z"/><path id="Layer-35" data-name="Layer" class="cls-11" d="M133.7,109a6.68,6.68,0,0,1,2.71-3.2,164.44,164.44,0,0,1,22.74,7.6c.24.88.48,1.77.73,2.67C151.22,113.45,142.42,111.36,133.7,109Z"/></g><g id="_39808dff" data-name="#39808dff"><path id="Layer-36" data-name="Layer" class="cls-12" d="M152.71,89.07c9.16,2,18.18,4.59,27.21,7.06l.73.23c.43,2.36.82,4.73,1.1,7.12A200.91,200.91,0,0,0,154.18,95C153.67,93,153.16,91.05,152.71,89.07Z"/><path id="Layer-37" data-name="Layer" class="cls-12" d="M205,105a7,7,0,0,1,3.89-1.44c7.54,2.16,15.1,4.25,22.74,6q.88.67,1.77,1.38c-8,8.61-16.66,16.57-24.82,25-4.23,4.16-8.34,8.45-12.57,12.6-.93,1.17-2.41,1.12-3.75,1,5.92-5.42,11.44-12.3,12.05-20.61,1.14-6.16-2.27-12.11-6.77-16A64.73,64.73,0,0,1,205,105Z"/><path id="Layer-38" data-name="Layer" class="cls-12" d="M159.15,113.38a47.22,47.22,0,0,1,8.06,4.07c-2.46-.44-4.91-.84-7.33-1.4C159.63,115.15,159.39,114.26,159.15,113.38Z"/></g><g id="_51b2dcff" data-name="#51b2dcff"><path id="Layer-39" data-name="Layer" class="cls-13" d="M77.22,92.5C88,94.07,98.61,96.68,109.3,98.76L109,99a12.47,12.47,0,0,0-2.66,2.67l-.16,1.29-.47-.88a31.26,31.26,0,0,0-6.34-2c-6.86-1.64-13.6-3.72-20.48-5.27-3,2.38-5.53,5.39-8.68,7.67A52.39,52.39,0,0,1,77.22,92.5Z"/><path id="Layer-40" data-name="Layer" class="cls-13" d="M63.37,115.41l.15,0c7.32,2.35,14.89,3.87,22.21,6.24-6.21,6.94-13.14,13.2-19.59,19.9-3,3.1-6,6.31-9.32,9.1-.08-1.55-.16-3.11-.19-4.67a54.81,54.81,0,0,1,.62-7c2.75.77,5.52,1.51,8.3,2.13-1-6.36-3.24-12.45-4.67-18.74Z"/><path id="Layer-41" data-name="Layer" class="cls-13" d="M93.14,149.58c.86-.18,1.72-.35,2.59-.5,8.1,2.24,16.21,4.52,24.39,6.4l.63.07,2.4.27c-7.28,3.5-12.4,10-18,15.61-1.59,1.45-3.17,2.92-4.69,4.45-.34-1-.68-2.08-1-3.14C97.24,165.05,95.51,157.22,93.14,149.58Z"/><path id="Layer-42" data-name="Layer" class="cls-13" d="M57.36,164.5c5.3,1.12,10.83,1.95,15.68,4.47-3.91,3.92-7.74,7.93-11.81,11.66A88.35,88.35,0,0,1,57.36,164.5Z"/></g><g id="_77c3e1ff" data-name="#77c3e1ff"><path id="Layer-43" data-name="Layer" class="cls-14" d="M78.92,94.74C85.8,96.29,92.54,98.37,99.4,100a31.26,31.26,0,0,1,6.34,2c-6.56,6.25-12.64,13-19.39,19l-.44.43C83.7,112.54,81.09,103.7,78.92,94.74Z"/><path id="Layer-44" data-name="Layer" class="cls-14" d="M86.36,121.76c5.51,1.44,11,2.82,16.54,4.31,3.25.85,6.46,2.33,9.91,1.76l.23.88C106.48,135,100,141.45,93.72,148.07c.66.35,1.33.67,2,1-.87.15-1.73.32-2.59.5l-.2-.72-.08-.41C91.18,139.44,87.77,130.82,86.36,121.76Z"/><path id="Layer-45" data-name="Layer" class="cls-14" d="M56.82,150.69c3.32-2.79,6.28-6,9.32-9.1,2.23,9.3,4.83,18.51,7.24,27.77L73,169c-4.85-2.52-10.38-3.35-15.68-4.47-.38-6.14-1.72-12.36-.73-18.48C56.66,147.58,56.74,149.14,56.82,150.69Z"/><path id="Layer-46" data-name="Layer" class="cls-14" d="M149.39,188.8a32.14,32.14,0,0,1,2.8-7.28c.72,2.72,1.43,5.45,2.15,8.16C152.69,189.38,151,189.08,149.39,188.8Z"/><path id="Layer-47" data-name="Layer" class="cls-14" d="M88.7,221.73a110.39,110.39,0,0,1,10.53-10.44c2.44,6.43,6.57,11.92,11,17.1-6.26-1-12.17-3.65-18.52-4.17C90.68,223.41,89.69,222.57,88.7,221.73Z"/></g><g id="_3f8a8aff" data-name="#3f8a8aff"><path id="Layer-48" data-name="Layer" class="cls-15" d="M180.65,96.36c8.82,2.34,17.67,4.54,26.53,6.67l.49.15,1.22.36A7,7,0,0,0,205,105a64.73,64.73,0,0,0-7.46,7.89,56.92,56.92,0,0,0-15.77-9.19l0-.2C181.47,101.09,181.08,98.72,180.65,96.36Z"/></g><g id="_87cae6ff" data-name="#87cae6ff"><path id="Layer-49" data-name="Layer" class="cls-16" d="M86.35,121.05c6.75-6,12.83-12.75,19.39-19l.47.88c2.23,8.29,4.4,16.59,6.6,24.9-3.45.57-6.66-.91-9.91-1.76-5.49-1.49-11-2.87-16.54-4.31Z"/><path id="Layer-50" data-name="Layer" class="cls-16" d="M57.25,139a99.22,99.22,0,0,1,3.63-16.61c1.43,6.29,3.63,12.38,4.67,18.74C62.77,140.52,60,139.78,57.25,139Z"/><path id="Layer-51" data-name="Layer" class="cls-16" d="M93.72,148.07c6.26-6.62,12.76-13,19.32-19.36l7.08,26.77c-8.18-1.88-16.29-4.16-24.39-6.4C95.05,148.74,94.38,148.42,93.72,148.07Z"/><path id="Layer-52" data-name="Layer" class="cls-16" d="M73,169l.34.39c2.16,8.62,4.78,17.15,6.56,25.86a79.37,79.37,0,0,1-14.6-4.11c-1.47-3.45-3-6.89-4.11-10.48C65.3,176.9,69.13,172.89,73,169Z"/></g><g id="_50a9d1ff" data-name="#50a9d1ff"><path id="Layer-53" data-name="Layer" class="cls-17" d="M131.8,104.42c1.61.46,3.24.85,4.88,1.15l-.27.21a6.68,6.68,0,0,0-2.71,3.2c8.72,2.38,17.52,4.47,26.18,7.07-6.11,6.51-12.54,12.71-18.85,19L139.39,134c-1.67-8.31-4.17-16.44-6.38-24.63-.06-.19-.17-.59-.23-.78C132.41,107.23,132.11,105.82,131.8,104.42Z"/></g><g id="_478fbbff" data-name="#478fbbff"><path id="Layer-54" data-name="Layer" class="cls-18" d="M113.8,128.69c6.17-6.64,12.68-13,19.21-19.29,2.21,8.19,4.71,16.32,6.38,24.63.07.4.2,1.19.26,1.59Q126.69,132.34,113.8,128.69Z"/></g><g id="_3c7eadff" data-name="#3c7eadff"><path id="Layer-55" data-name="Layer" class="cls-19" d="M140.13,136c5.37,1.33,10.85,2.38,16,4.46-4.45,1.82-8.93,3.57-13.38,5.4-.8-3.13-1.55-6.26-2.46-9.36Z"/><path id="Layer-56" data-name="Layer" class="cls-19" d="M149.8,195.79a16.47,16.47,0,0,1,4.67-5.56c1.17,5.25,3.41,10.33,3.55,15.75A27.88,27.88,0,0,1,149.8,195.79Z"/></g><g id="_9fd3e9ff" data-name="#9fd3e9ff"><path id="Layer-57" data-name="Layer" class="cls-20" d="M66.14,141.59c9,2.07,17.77,4.75,26.72,6.86l.08.41c-6.4,6.43-13,12.72-19.21,19.3,3.64,1.87,7.74,2.44,11.64,3.55,4.67,1.1,9.24,2.68,14,3.49,0-.61.07-1.85.09-2.46.32,1.06.66,2.09,1,3.14,1.52-1.53,3.1-3,4.69-4.45-1.23,2.45-2.89,4.67-4.18,7.09l-.54-2.27c-3.11,2.1-5.44,5.06-8.15,7.61-3.86,3.88-7.79,7.68-11.57,11.63,5.25,1.76,10.68,2.92,16,4.39a38.91,38.91,0,0,0,2.53,11.41A110.39,110.39,0,0,0,88.7,221.73a22.89,22.89,0,0,1-2.64-2.37,20.93,20.93,0,0,0-.86-5.56c-1.7-5.94-3.12-12-4.83-17.89-2.73,2.45-5.26,5.11-7.91,7.65a123.5,123.5,0,0,1-7.12-12.45,79.37,79.37,0,0,0,14.6,4.11c-1.78-8.71-4.4-17.24-6.56-25.86C71,160.1,68.37,150.89,66.14,141.59Z"/></g><g id="_bde2f8ff" data-name="#bde2f8ff"><path id="Layer-58" data-name="Layer" class="cls-21" d="M73.73,168.16c6.25-6.58,12.81-12.87,19.21-19.3l.2.72c2.37,7.64,4.1,15.47,6.3,23.16,0,.61-.07,1.85-.09,2.46-4.74-.81-9.31-2.39-14-3.49C81.47,170.6,77.37,170,73.73,168.16Z"/></g><g id="_34768bff" data-name="#34768bff"><path id="Layer-59" data-name="Layer" class="cls-22" d="M166.6,167.88c2-1.4,4-2.82,6.08-4.18.56,2,1,4,1.42,6.07A74.12,74.12,0,0,1,166.6,167.88Z"/></g><g id="_59b7beff" data-name="#59b7beff"><path id="Layer-60" data-name="Layer" class="cls-23" d="M228.89,184.33a152,152,0,0,1,12.2-11.88,79.45,79.45,0,0,1-4.46,14.45A78,78,0,0,0,228.89,184.33Z"/><path id="Layer-61" data-name="Layer" class="cls-23" d="M220.54,192.57c2.66-2.59,5.07-5.47,8.11-7.64,1.09,3.81,2,7.69,3.32,11.44a79.63,79.63,0,0,1-7.93,12c-5-1.42-10-2.73-15.06-4.05l0-.24C212.84,200.3,216.66,196.41,220.54,192.57Z"/></g></svg>