<?xml version="1.0" encoding="UTF-8"?>
<svg id="Layer_1" data-name="Layer 1" xmlns="http://www.w3.org/2000/svg" version="1.1" viewBox="0 0 300 300">
  <defs>
    <style>
      .cls-1 {
        fill: #352e66;
        opacity: .8;
        stroke-width: 0px;
      }
    </style>
  </defs>
  <path class="cls-1" d="M13.5,181s27.2,0,74.3-23.8,115.5-61,151.8-25.9c0,0-28.1-19-85.1,11.1-52.1,27.5-102.7,47.3-141.1,38.7Z"/>
  <path class="cls-1" d="M78.5,180.5s39.5-13.1,60.5-23.9c21-10.7,96.8-39.9,122.9-11.2,0,0-14.8-13.8-58.4,1.4-43.7,15.2-105.6,37.8-124.9,33.7Z"/>
  <path class="cls-1" d="M177,164.6s68.6-38.4,109.5,0c0,0-22-14.9-57-9.6-35,5.2-52.4,9.6-52.4,9.6Z"/>
</svg>