<svg id="Layer_1" data-name="Layer 1" xmlns="http://www.w3.org/2000/svg" viewBox="0 0 300 300"><path d="M83.85663,63.95637a8.8517,8.8517,0,1,1,3.38761-.676A8.767,8.767,0,0,1,83.85663,63.95637Z" fill="#452b6d"/><path d="M106.509,62.1227a7.02558,7.02558,0,1,1,2.6899-.53517A6.97119,6.97119,0,0,1,106.509,62.1227Z" fill="#499788"/><path d="M193.73773,62.1227a7.03039,7.03039,0,1,1,2.68888-.538A6.94666,6.94666,0,0,1,193.73773,62.1227Z" fill="#499788"/><path d="M216.14333,63.95637a8.85179,8.85179,0,1,1,3.3876-.676A8.76691,8.76691,0,0,1,216.14333,63.95637Z" fill="#452b6d"/><path d="M82.03423,85.85757a7.03046,7.03046,0,1,1,2.68891-.538A6.94646,6.94646,0,0,1,82.03423,85.85757Z" fill="#499788"/><path d="M104.43985,87.69546a8.8584,8.8584,0,1,1,3.3876-.676A8.79157,8.79157,0,0,1,104.43985,87.69546Z" fill="#452b6d"/><path d="M217.96577,85.85757a7.0345,7.0345,0,1,1,2.68955-.538A6.94384,6.94384,0,0,1,217.96577,85.85757Z" fill="#499788"/><path d="M195.56013,87.69546a8.85826,8.85826,0,1,1,3.38762-.676A8.79165,8.79165,0,0,1,195.56013,87.69546Z" fill="#452b6d"/><path d="M106.26226,109.584a7.028,7.028,0,1,1,2.69019-.53658A6.99815,6.99815,0,0,1,106.26226,109.584Z" fill="#499788"/><path d="M83.85663,111.41342a8.85427,8.85427,0,1,1,3.38861-.676A8.78985,8.78985,0,0,1,83.85663,111.41342Z" fill="#452b6d"/><path d="M193.73773,109.584a7.03032,7.03032,0,1,1,2.68888-.538A6.94666,6.94666,0,0,1,193.73773,109.584Z" fill="#499788"/><path d="M216.14333,111.41342a8.854,8.854,0,1,1,3.38866-.676A8.78979,8.78979,0,0,1,216.14333,111.41342Z" fill="#452b6d"/><path d="M82.03423,133.31461a7.03719,7.03719,0,1,1,2.68887-.538A6.971,6.971,0,0,1,82.03423,133.31461Z" fill="#499788"/><path d="M104.43985,135.13983a8.8584,8.8584,0,1,1,3.3876-.676A8.75318,8.75318,0,0,1,104.43985,135.13983Z" fill="#452b6d"/><path d="M217.96577,133.31461a7.04091,7.04091,0,1,1,2.68953-.538A6.94245,6.94245,0,0,1,217.96577,133.31461Z" fill="#499788"/><path d="M195.56013,135.13983a8.85826,8.85826,0,1,1,3.38762-.676A8.75321,8.75321,0,0,1,195.56013,135.13983Z" fill="#452b6d"/><path d="M106.26226,157.04525a7.03456,7.03456,0,1,1,2.69023-.53658A6.95628,6.95628,0,0,1,106.26226,157.04525Z" fill="#499788"/><path d="M193.73773,157.04525a7.03457,7.03457,0,1,1,2.68853-.53658A6.93453,6.93453,0,0,1,193.73773,157.04525Z" fill="#499788"/><path d="M83.85663,158.86624a8.85427,8.85427,0,1,1,3.38861-.676A8.77613,8.77613,0,0,1,83.85663,158.86624Z" fill="#452b6d"/><path d="M216.14333,158.86624a8.854,8.854,0,1,1,3.38866-.676A8.7515,8.7515,0,0,1,216.14333,158.86624Z" fill="#452b6d"/><path d="M217.96577,180.76321a7.04508,7.04508,0,1,1,2.68856-.538A6.95779,6.95779,0,0,1,217.96577,180.76321Z" fill="#499788"/><path d="M82.03423,180.76321a7.04121,7.04121,0,1,1,2.68786-.538A6.93455,6.93455,0,0,1,82.03423,180.76321Z" fill="#499788"/><path d="M104.43985,182.59265a8.85829,8.85829,0,1,1,3.3876-.676A8.77751,8.77751,0,0,1,104.43985,182.59265Z" fill="#452b6d"/><path d="M195.56013,182.59265a8.85815,8.85815,0,1,1,3.38762-.676A8.77754,8.77754,0,0,1,195.56013,182.59265Z" fill="#452b6d"/><path d="M106.26226,204.48962a7.03875,7.03875,0,1,1,2.68922-.53658A6.944,6.944,0,0,1,106.26226,204.48962Z" fill="#499788"/><path d="M193.73773,204.48962a7.02528,7.02528,0,1,1,2.68789-.53658A6.94671,6.94671,0,0,1,193.73773,204.48962Z" fill="#499788"/><path d="M83.85663,206.31906a8.85815,8.85815,0,1,1,3.38767-.676A8.7779,8.7779,0,0,1,83.85663,206.31906Z" fill="#452b6d"/><path d="M216.14333,206.31906a8.85815,8.85815,0,1,1,3.38771-.676A8.77748,8.77748,0,0,1,216.14333,206.31906Z" fill="#452b6d"/><path d="M125.8109,228.22026a7.03026,7.03026,0,1,1,2.68692-.5394A6.94774,6.94774,0,0,1,125.8109,228.22026Z" fill="#499788"/><path d="M174.18042,228.22026a7.035,7.035,0,1,1,2.68793-.53517A6.97061,6.97061,0,0,1,174.18042,228.22026Z" fill="#499788"/><path d="M101.64781,230.04547a8.85829,8.85829,0,1,1,3.38761-.676A8.73944,8.73944,0,0,1,101.64781,230.04547Z" fill="#452b6d"/><path d="M150,230.04547a8.85824,8.85824,0,1,1,3.38762-.676A8.73958,8.73958,0,0,1,150,230.04547Z" fill="#452b6d"/><path d="M198.35217,230.04547a8.84866,8.84866,0,1,1,3.37933-.67882A8.75468,8.75468,0,0,1,198.35217,230.04547Z" fill="#452b6d"/><path d="M185.20143,253.77189a8.8584,8.8584,0,1,1,3.38767-.676A8.73969,8.73969,0,0,1,185.20143,253.77189Z" fill="#452b6d"/><path d="M112.67748,251.94667a7.03951,7.03951,0,1,1,2.68756-.5394A6.93578,6.93578,0,0,1,112.67748,251.94667Z" fill="#499788"/><path d="M161.02967,251.94667a7.03456,7.03456,0,1,1,2.69023-.53658A6.93074,6.93074,0,0,1,161.02967,251.94667Z" fill="#499788"/><path d="M136.85788,253.77189a8.84756,8.84756,0,1,1,3.385-.67742A8.74521,8.74521,0,0,1,136.85788,253.77189Z" fill="#452b6d"/></svg>