<svg id="Layer_1" data-name="Layer 1" xmlns="http://www.w3.org/2000/svg" viewBox="0 0 300 300"><defs><style>.cls-1{fill:#f16622;}</style></defs><title>QURE</title><path class="cls-1" d="M143.35,125.42h.2c.13.22.34.12.52.12h5.26a2.56,2.56,0,0,1,.61,0c1,.26,2,.44,2.95.77.6.2,1.18.49,1.76.74a12.74,12.74,0,0,1,1.79.95,17.31,17.31,0,0,1,2.28,1.73,16.13,16.13,0,0,1,3,3.44,16.43,16.43,0,0,1,1.42,3,6.57,6.57,0,0,1,.48,1.61,23.42,23.42,0,0,1,.47,3c0,.48.07,1,.1,1.5,0,.79.24,1.58.23,2.37-.08,4,.22,8-.18,12-.06.61,0,1.23-.13,1.83a8,8,0,0,1-.1,1.5c-.35.91-.36,1.87-.66,2.79a15.88,15.88,0,0,1-1.55,3.5c-.22.36-.46.71-.68,1.07s-.19.48,0,.68c1.15,1,2.14,2.11,3.22,3.14.15.14.33.25.39.46a32.33,32.33,0,0,1-4.42,4.2,1.84,1.84,0,0,0-.26-.38c-1.11-1.13-2.23-2.24-3.35-3.36a.62.62,0,0,0-.91-.09,13.5,13.5,0,0,1-1.73.9c-.67.29-1.38.5-2.06.76a1.28,1.28,0,0,1-.47.07,2.48,2.48,0,0,0-1,.21,2,2,0,0,1-.68.17,43.78,43.78,0,0,1-5,.09c-.19,0-.38-.05-.57-.05a14.52,14.52,0,0,1-2.45-.38,13.09,13.09,0,0,1-1.88-.54,13.92,13.92,0,0,1-2.17-1,15.27,15.27,0,0,1-2.25-1.42,17.72,17.72,0,0,1-3.1-3,11,11,0,0,1-1.3-1.9,15,15,0,0,1-1.1-2.41,9,9,0,0,1-.5-1.71c-.11-1.07-.43-2.11-.46-3.21s-.28-2.42-.28-3.6a109.78,109.78,0,0,1,.23-13.08,28.55,28.55,0,0,1,.36-3.32c.2-.83.37-1.68.63-2.5a11.13,11.13,0,0,1,1-2.29,15.61,15.61,0,0,1,2.31-3.14,15.42,15.42,0,0,1,1.76-1.57,14.44,14.44,0,0,1,2.58-1.71,15.64,15.64,0,0,1,2-.88,12.4,12.4,0,0,1,2.41-.72A1.6,1.6,0,0,0,143.35,125.42Zm10.77,35.35c.25-.06.3-.24.37-.42a7,7,0,0,0,.4-2.12c.07-.83.29-1.65.3-2.47,0-3.4,0-6.79,0-10.18a14.29,14.29,0,0,0-.09-2.36,18.65,18.65,0,0,1-.29-2.48,7.56,7.56,0,0,0-.53-2.09,7.34,7.34,0,0,0-1.46-2.44,7.72,7.72,0,0,0-3.25-2.2,7.52,7.52,0,0,0-2.29-.46,8.94,8.94,0,0,0-3.75.5,8.32,8.32,0,0,0-3.05,2,7.86,7.86,0,0,0-2,4.42,37.73,37.73,0,0,0-.42,5.21c0,3.51-.05,7,.09,10.54a7,7,0,0,0,.13,1.22,29.11,29.11,0,0,0,.5,3.06,9.72,9.72,0,0,0,.61,1.56,8.35,8.35,0,0,0,2.3,2.59,7.44,7.44,0,0,0,3.08,1.35,8.54,8.54,0,0,0,4.89-.35.61.61,0,0,0-.21-.77l-3.18-3.18c-.12-.12-.28-.22-.32-.39a1,1,0,0,1,.34-.51l3.49-3.48c.38-.39.44-.39.84,0l3,3C153.8,160.54,153.9,160.71,154.12,160.77Z"/><path class="cls-1" d="M268.5,151.12v7.76H247.22c-.79,0-1,.11-.87.91a9,9,0,0,0,1.29,4.06,7.28,7.28,0,0,0,2.92,2.59,8.94,8.94,0,0,0,3,.75,2.57,2.57,0,0,0,1,.09,11.75,11.75,0,0,1,1.77-.23,8.85,8.85,0,0,0,2.8-.82,10.1,10.1,0,0,0,2.45-1.69c.24-.21.42-.51.74-.65l5.13,5-.26.29a20.33,20.33,0,0,1-3.63,2.91,8.76,8.76,0,0,1-1.7.86c-.52.19-1.07.36-1.58.56a16.53,16.53,0,0,1-2.36.57c-1.18.27-2.44,0-3.65.31a.23.23,0,0,1-.14,0,5.63,5.63,0,0,0-2-.17,7.16,7.16,0,0,1-1.87-.16c-.82-.28-1.69-.34-2.51-.63a21,21,0,0,1-2.4-1,10.42,10.42,0,0,1-2.39-1.63,13.7,13.7,0,0,1-1.74-1.91,14.73,14.73,0,0,1-1.27-2.07,12.56,12.56,0,0,1-1-2.38c-.21-.66-.37-1.38-.53-2.07a19.18,19.18,0,0,1-.45-4,29.45,29.45,0,0,1,.5-7.83c.27-1.09.56-2.18.93-3.23a12,12,0,0,1,1.19-2.31,13.32,13.32,0,0,1,5-4.82,5.13,5.13,0,0,1,.86-.48c.54-.18,1.08-.36,1.61-.57a13.53,13.53,0,0,1,2-.54,10,10,0,0,1,2.26-.13c1.2.05,2.39,0,3.59.08a19.49,19.49,0,0,1,2.29.52,7.09,7.09,0,0,1,1.48.56,15.34,15.34,0,0,1,2.29,1.24,13.56,13.56,0,0,1,4,4.23,13.92,13.92,0,0,1,1.39,3,7.85,7.85,0,0,1,.54,1.94C268,150.42,268,150.94,268.5,151.12Zm-15.25,1.93H258c.49,0,1,0,1.47,0,.29,0,.51-.1.47-.49a9.61,9.61,0,0,0-.92-3.48,5.7,5.7,0,0,0-2.52-2.68,6.81,6.81,0,0,0-5-.58,6.22,6.22,0,0,0-4.47,4.2c-.3.81-.29,1.67-.57,2.48a.37.37,0,0,0,.3.5,2.6,2.6,0,0,0,.56.06Z"/><path class="cls-1" d="M31.5,163.33V139a1.53,1.53,0,0,1,.6-.12h7.49c.17,0,.35,0,.48.12a.8.8,0,0,1,.06.46q0,9.69,0,19.37a10.56,10.56,0,0,0,.66,4.42,5.48,5.48,0,0,0,1.53,2.15,8.14,8.14,0,0,0,1.71.94,4.94,4.94,0,0,0,2.33.42,6.61,6.61,0,0,0,3.1-.88,6,6,0,0,0,2.24-2.46,8,8,0,0,0,.71-3.67c.05-6.58,0-13.17,0-19.75a2.43,2.43,0,0,0,0-.47c-.09-.54,0-.65.54-.65h7.35c.15,0,.32,0,.45.11v34.82H52.65a.45.45,0,0,1-.11-.41,9.83,9.83,0,0,0,.07-1.88c0-.21,0-.4-.23-.47a.49.49,0,0,0-.57.09,15.29,15.29,0,0,1-2.14,1.6,8,8,0,0,1-2.2,1,8.86,8.86,0,0,1-2.37.51c-1.17,0-2.32.05-3.48,0-.7-.05-1.35-.3-2-.4a6.47,6.47,0,0,1-1.57-.55,10.62,10.62,0,0,1-3.46-2.61,12.2,12.2,0,0,1-1.66-2.56,16.83,16.83,0,0,1-.79-2.23,1.14,1.14,0,0,1-.07-.41c0-.56-.2-1.08-.22-1.63A.52.52,0,0,0,31.5,163.33Z"/><path class="cls-1" d="M221.72,141.4a1.06,1.06,0,0,0,.7-.38,13.05,13.05,0,0,1,4.1-2.26,13.87,13.87,0,0,1,5.42-.56,10,10,0,0,1,6.31,2.66l.32.28c.33.28.35.5.06.79l-6.08,6.18c-.29.3-.52.19-.76-.05a5.85,5.85,0,0,0-2.51-1.54,5.5,5.5,0,0,0-5.46,1.21,6.25,6.25,0,0,0-2,4.88c0,6.9,0,13.8,0,20.7a1.2,1.2,0,0,1,0,.19c0,.59-.09.68-.69.68H213.9c-1,0-1.11.26-1.11-1.09q0-16.84,0-33.68c0-.84,0-.85.88-.85h7.21c.61,0,.74.13.74.75s0,1.07,0,1.61A.62.62,0,0,0,221.72,141.4Z"/><path class="cls-1" d="M119.05,156.37v17c0,.71-.11.82-.83.82h-7.58c-.51,0-.66-.15-.68-.68,0-.28,0-.56,0-.85q0-16.64,0-33.28c0-.71.12-.82.82-.82h7.49c.65,0,.78.12.78.77Z"/><path class="cls-1" d="M113.32,124.13h2.35c0,.28.18.38.4.44a5.53,5.53,0,0,1,1.16.47,5.09,5.09,0,0,1,2.61,4.07,5.51,5.51,0,0,1-4.18,6,5.29,5.29,0,0,1-4.11-.72,6,6,0,0,1-2.2-2.63,5.73,5.73,0,0,1-.32-2.32,4.87,4.87,0,0,1,1.41-3.4,4.55,4.55,0,0,1,2.29-1.41C113,124.54,113.33,124.55,113.32,124.13Z"/><path class="cls-1" d="M79.41,138.93a.39.39,0,0,1,.13.38,13.83,13.83,0,0,0-.06,1.93.41.41,0,0,0,.26.46c.19.07.32,0,.49-.16a7.12,7.12,0,0,1,2-1.45c.25-.12.46-.3.72-.42a19,19,0,0,1,2.07-.76,16.33,16.33,0,0,1,5.57-.33,8.44,8.44,0,0,1,3.24.87,9.82,9.82,0,0,1,3.93,3.11,12.1,12.1,0,0,1,1.43,2.35,16.27,16.27,0,0,1,.53,1.58,20.66,20.66,0,0,1,.51,3.1,3.77,3.77,0,0,1,0,.47v22.69a2.09,2.09,0,0,0,0,.56c.11.43-.11.55-.47.55H92.32a.94.94,0,0,1-.53-.06c-.16-.18-.1-.38-.1-.57,0-7.27,0-14.55,0-21.83a5.18,5.18,0,0,0-2-4.05,5.89,5.89,0,0,0-3.21-1.29,7.38,7.38,0,0,0-2.54.2,4.81,4.81,0,0,0-2.29,1.32,4.63,4.63,0,0,0-1.06,1.36c-.23.51-.66,1-.58,1.59a1.06,1.06,0,0,1-.1.46,4.59,4.59,0,0,0-.27,1.43q0,10.44,0,20.88a.71.71,0,0,1-.11.51H71.16V138.93Z"/><path class="cls-1" d="M203.15,173.82H194.8a8.72,8.72,0,0,1,0-1.84c0-.12,0-.25,0-.37s0-.47-.25-.57-.38,0-.55.19a11.45,11.45,0,0,1-2.27,1.65,19.33,19.33,0,0,1-2.36.94,14.32,14.32,0,0,1-3.54.49c-.65.05-1.34-.08-2-.08a8,8,0,0,1-2.33-.5,11.53,11.53,0,0,1-2.69-1.31,11,11,0,0,1-2.79-2.83,11.84,11.84,0,0,1-1-1.85,10.45,10.45,0,0,1-.63-1.86,14,14,0,0,1-.31-2,88.67,88.67,0,0,1-.18-10.05c0-4.78,0-9.56,0-14.35V139c.16-.18.33-.13.48-.13h7.49c.57,0,.59,0,.59.58,0,7.09,0,14.17,0,21.26a5.83,5.83,0,0,0,2.3,4.84,6.32,6.32,0,0,0,2.71,1.1,10.07,10.07,0,0,0,2.69-.13,3.57,3.57,0,0,0,1.17-.46,5.58,5.58,0,0,0,2.56-2.54,6.84,6.84,0,0,0,.58-2.16,15.17,15.17,0,0,0,.08-2.52q0-9.72,0-19.42a.66.66,0,0,1,.12-.5h8.48Z"/></svg>