<svg id="Layer_1" data-name="Layer 1" xmlns="http://www.w3.org/2000/svg" viewBox="0 0 300 300"><defs><style>.cls-1{fill:#c41230;fill-rule:evenodd;}</style></defs><path id="Layer" class="cls-1" d="M38.09,190.25A81.92,81.92,0,0,1,39.8,179.6h97.67c.47.94.95,1.88,1.54,3a15.43,15.43,0,0,1,1.59,8.59H37.91A1.74,1.74,0,0,1,38.09,190.25Zm-.65,7.23H139.36a51.36,51.36,0,0,1-3.3,7.94c-.65,1.29-1.3,2.35-2.07,3.65H37.44A74.69,74.69,0,0,1,37.44,197.48ZM130.86,61.86a52.4,52.4,0,0,1,2.66,4.71H108.85c2.36-2.36,5-4.89,7.08-7.24C121.24,53.57,128,57.16,130.86,61.86Zm-78.79,82h54.24a94.77,94.77,0,0,0,10.56,11.59H47.53c.94-2.65,2-5.18,2.95-7.71.47-1.23,1-2.47,1.59-3.88ZM45,161.9h78.44a8.61,8.61,0,0,1,1.41,1.23c4.61,4.12,7.26,7.24,9.15,10.36H41.22c1.12-4.06,2.53-8,3.77-11.59Zm91.36-89.28a57.18,57.18,0,0,1,3.13,11.59H91.2c4-4.35,7.73-8.29,10.86-11.59ZM113.1,226.89H40.63a47.44,47.44,0,0,1-2.54-11.59H128.8a92.69,92.69,0,0,1-15.7,11.59Zm-69,6.11h58.48c-12.21,6.59-21.66,9.24-28.56,10-8.2.94-16.23.94-23.9-4.23A18.68,18.68,0,0,1,44.05,233ZM85.71,90.5h54.71c.47,3.88.83,8.12,1,11.59h-65C79.28,98.15,82.59,94.27,85.71,90.5ZM61.22,126.2h41.31a29.57,29.57,0,0,0,.48,11.59H54.91C56.8,134,58.86,130.14,61.22,126.2ZM71.9,108.32h39.6a12.66,12.66,0,0,0-8,10.53c0,.29-.12.76-.12,1.06H64.65c1.41-2.3,2.83-4.65,4.42-7.35Zm90.54,71.28h97.67a85.47,85.47,0,0,1,1.71,10.65,1.74,1.74,0,0,1,.18.94H159.31A16.46,16.46,0,0,1,161,182.6c.47-.94.94-2.06,1.42-3Zm100.15,17.88a69.74,69.74,0,0,1-.12,11.59H165.92c-.77-1.3-1.42-2.36-2.07-3.65a56.79,56.79,0,0,1-3.3-7.94ZM191.24,66.39H166.57c.76-1.59,1.71-3.12,2.65-4.71,2.66-4.52,9.62-8.11,14.76-2.35C186,61.51,188.7,64.21,191.24,66.39Zm58.3,81.39c1,2.36,1.89,5.06,3,7.71H183.21a83.16,83.16,0,0,0,10.56-11.59h54.06c.65,1.41,1.12,2.65,1.71,3.88Zm5.37,13.94c1.42,3.77,2.66,7.71,3.78,11.59H165.92a44,44,0,0,1,9-10.29c.47-.47.94-.83,1.41-1.3Zm-91.35-89.1h34.29c3,3.18,6.9,7.24,10.85,11.59H160.43a74.56,74.56,0,0,1,3.13-11.59Zm95.6,154.27H186.69a97.78,97.78,0,0,1-15.58-11.59h90.71A32.54,32.54,0,0,1,259.16,226.89Zm-33.05,16.29c-6.9-.77-16.17-3.47-28.56-10H256a30.94,30.94,0,0,1-6,5.59C242.34,244.12,234.14,244.12,226.11,243.18ZM159.48,90.5h54.71c3.31,3.77,6.44,7.65,9.45,11.59h-65.1c.18-3.47.47-7.71.94-11.59Zm79.38,35.7c2.24,4.06,4.25,7.82,6.14,11.59H196.9a26.77,26.77,0,0,0,.65-11.59Zm-8-13.64c1.53,2.7,2.95,5,4.36,7.35H196.55c0-.3-.18-.77-.18-1.06a12.63,12.63,0,0,0-8-10.53H228Z"/></svg>