<svg id="Layer_1" data-name="Layer 1" xmlns="http://www.w3.org/2000/svg" viewBox="0 0 300 300"><defs><style>.cls-1{fill:#75c045;}.cls-2{fill:#48484d;}.cls-3{fill:#848a94;}</style></defs><path class="cls-1" d="M194.61,52.24Q182.81,69.12,171,86q-9.25,13.2-18.6,26.36a8.7,8.7,0,0,1-2.66,3Q137.23,97.63,124.82,80C119.21,72.1,113.59,64.17,108,56.19c-.86-1.23-2.19-2.24-2.27-3.95Z"/><path class="cls-2" d="M118.52,164.38l-52.24-74-6.11-8.63h45.22l36,51.59v61.44c-1.32.16-1.7-.86-2.31-1.71Q128.85,178.69,118.52,164.38Z"/><path class="cls-2" d="M158.8,194.82q-.08-21.4-.15-42.82c0-6.36,0-12.71,0-19.29l36-51.12h45.2c-2.09,3-3.92,5.59-5.76,8.19q-25.56,36-51.1,72c-.74,1-1.34,2.2-2,3.31-4.19,4-6.86,9.16-10.3,13.73C166.67,184.14,163.3,189.9,158.8,194.82Z"/><path class="cls-3" d="M158.8,194.82c4.5-4.92,7.87-10.68,11.86-16,3.44-4.57,6.11-9.73,10.3-13.73,5.36,6.35,9.79,13.37,14.6,20.12q20.83,29.33,41.59,58.7c.81,1.13,1.56,2.31,2.57,3.81H194.67c-3.2-4.55-6.56-9.29-9.9-14.05Q172.38,216,160,198.35C159.23,197.27,158.45,196.25,158.8,194.82Z"/><path class="cls-3" d="M118.52,164.38q10.3,14.33,20.59,28.66c.61.85,1,1.87,2.31,1.71.45,1-.1,1.78-.61,2.51q-17.75,25.29-35.47,50.5H60.52c1.73-3.7,4.2-6.52,6.34-9.54Q92,202.65,117.22,167.16A5.31,5.31,0,0,0,118.52,164.38Z"/></svg>