<svg id="Layer_1" data-name="Layer 1" xmlns="http://www.w3.org/2000/svg" xmlns:xlink="http://www.w3.org/1999/xlink" viewBox="0 0 300 300"><defs><style>.cls-1{fill:#0057b7;}.cls-2{fill:url(#linear-gradient);}.cls-3{fill:#ff9800;}.cls-4{fill:url(#linear-gradient-2);}.cls-5{fill:#3cdbc0;}</style><linearGradient id="linear-gradient" x1="427.26" y1="195.54" x2="443.58" y2="258.37" gradientTransform="matrix(0.76, 0, 0, -1.32, -153.97, 397.55)" gradientUnits="userSpaceOnUse"><stop offset="0" stop-color="#f9423a"/><stop offset="0.13" stop-color="#fa562d"/><stop offset="0.35" stop-color="#fc7319"/><stop offset="0.57" stop-color="#fe870b"/><stop offset="0.79" stop-color="#ff9403"/><stop offset="1" stop-color="#ff9800"/></linearGradient><linearGradient id="linear-gradient-2" x1="417.66" y1="260.24" x2="439.88" y2="166.09" gradientTransform="matrix(0.72, 0, 0, -1.38, -176.73, 417.08)" gradientUnits="userSpaceOnUse"><stop offset="0" stop-color="#3cdbc0"/><stop offset="0.17" stop-color="#3ad7c0"/><stop offset="0.34" stop-color="#34cabf"/><stop offset="0.52" stop-color="#2bb6bd"/><stop offset="0.7" stop-color="#1e99bb"/><stop offset="0.88" stop-color="#0d74b9"/><stop offset="1" stop-color="#0057b7"/></linearGradient></defs><g id="g266"><ellipse id="Oval" class="cls-1" cx="150.01" cy="59.81" rx="12.79" ry="13.23"/><path id="path258" class="cls-2" d="M153.32,114.23l13.8,31.48L202,66.64a4.52,4.52,0,0,0-.13-4.27A4.32,4.32,0,0,0,198,60.42H179.24A4.27,4.27,0,0,0,175.31,63Z"/><path id="path260" class="cls-3" d="M163.17,232.27,90.44,63A4.59,4.59,0,0,0,86.5,60.4H67.71a4.39,4.39,0,0,0-3.83,1.93,4.52,4.52,0,0,0-.12,4.27l80.7,184.18a4.79,4.79,0,0,0,3.93,2.64h2.66a4.4,4.4,0,0,0,3.95-2.67Z"/><path id="path262" class="cls-4" d="M124.67,63a4.56,4.56,0,0,0-3.93-2.64H102a4.39,4.39,0,0,0-3.83,1.93A4.52,4.52,0,0,0,98,66.6l55.52,126.78,13.6-31.63Z"/><path id="path264" class="cls-5" d="M236.12,62.35a4.33,4.33,0,0,0-3.83-2H213.5A4.25,4.25,0,0,0,209.57,63l-56,130.38,13.34,30.48L236.22,66.62A4.47,4.47,0,0,0,236.12,62.35Z"/></g></svg>