<svg id="Layer_1" data-name="Layer 1" xmlns="http://www.w3.org/2000/svg" viewBox="0 0 300 300"><path d="M259.87568,61.68588c-.37556,2.85249-1.31306,5.57827-1.89925,8.38506-.4634,2.21865-1.12718,4.3996-1.75285,6.577-1.3512,4.70239-2.98465,9.324-4.31961,14.03061a6.49774,6.49774,0,0,1-4.35237,4.34109c-2.3786.94276-4.81088,1.77835-7.27155,2.479-3.44637.98127-6.9377,1.80184-10.42577,2.63432-8.42326,2.01032-16.98748,3.23832-25.49025,4.80985-6.68958,1.23641-13.41283,2.26585-20.12648,3.32756-5.31081.83985-10.59575,1.82043-15.88831,2.74331-7.15951,1.24843-14.27591,2.75888-21.38389,4.28238-4.01174.85987-7.99735,1.87944-11.96224,2.9164-2.63432.689-5.29013,1.42531-7.90153,2.27268-2.25322.73115-4.52379,1.4686-6.78243,2.182-2.13768.67517-4.27466,1.48486-6.38118,2.32237-2.97471,1.18267-5.92265,2.44319-8.85337,3.71114a59.35384,59.35384,0,0,0-7.22238,3.82785c-2.06895,1.25921-4.15294,2.48655-6.16187,3.84442a63.00879,63.00879,0,0,0-9.90243,8.2616,45.14574,45.14574,0,0,0-6.69369,8.72628,39.21315,39.21315,0,0,0-5.27981,15.66184,54.79954,54.79954,0,0,0,.29377,14.50315,64.24794,64.24794,0,0,0,3.75934,14.1773c1.20846,2.98265,2.31061,6.011,3.60743,8.954.54626,1.2397,1.16024,2.46888,1.80039,3.67241,1.33764,2.51489,2.59671,5.08272,4.10485,7.4932,2.36073,3.77313,4.449,7.72032,7.18389,11.26142,1.053,1.36345,1.86514,2.91016,2.8552,4.32569,1.12433,1.60753,2.33382,3.15529,3.48615,4.74365a13.20587,13.20587,0,0,1,.72047,1.2562c-2.72819,1.51458-5.81641,1.43734-8.62653,2.45208a46.90131,46.90131,0,0,1-3.84843-4.24848c-1.90206-2.12918-3.61887-4.41469-5.3723-6.66985-2.59282-3.33477-4.96825-6.814-7.247-10.3641-1.3175-2.05253-2.66659-4.08673-3.91891-6.17858-1.16025-1.9381-2.21248-3.94094-3.309-5.91708-2.02322-3.64613-3.84446-7.39573-5.56247-11.19079a139.26779,139.26779,0,0,1-5.37307-13.03547c-.5485-1.63369-1.24443-3.2161-1.83374-4.83916-1.34557-3.70586-2.49344-7.47407-3.55583-11.25482-1.38763-4.93811-2.70651-9.89888-3.74531-14.9387-.88078-4.27316-1.72706-8.55609-2.423-12.85394a161.81969,161.81969,0,0,1-2.12688-18.16342c-.32414-6.81473-.90612-13.62113-.61363-20.45322a168.6311,168.6311,0,0,1,2.374-24.26712,33.198,33.198,0,0,1,1.2968-4.68517c1.20614.4467,1.86752,1.47777,2.76714,2.20519a148.27694,148.27694,0,0,0,13.14084,9.56222c3.20962,2.05959,6.60114,3.7475,9.90893,5.5987A67.58277,67.58277,0,0,0,76.5441,93.2928c2.355.98617,4.7241,1.9474,7.12692,2.80821,1.90408.68215,3.85031,1.26679,5.80993,1.76959,3.93076,1.00856,7.88215,1.93709,11.82849,2.88426.63667.15281,1.29.239,1.93761.34312a165.74577,165.74577,0,0,0,30.00932,2.26454,171.22466,171.22466,0,0,0,19.68622-1.41586c6.85568-.94852,13.67659-2.14826,20.42871-3.75195,2.60557-.61885,5.24844-1.18242,7.83579-1.85614,4.32138-1.12525,8.53763-2.65178,12.80475-3.98831,4.59036-1.43777,9.012-3.32937,13.51381-5.00461,2.06275-.76758,4.05393-1.71283,6.05658-2.6338q3.56277-1.63846,7.14421-3.24479c2.70565-1.21866,5.28723-2.67446,7.95862-3.955,4.36078-2.09037,8.50224-4.59088,12.65428-7.04622,3.37046-1.99317,6.79946-3.944,9.961-6.24712,2.43206-1.7717,5.11318-3.19757,7.34675-5.25668a5.361,5.361,0,0,1,1.30793-.82373s.0747,1.37269.03149,2.05988h0Z" fill="#234187"/><polygon points="247.42 101.097 242.173 112.948 113.298 134.058 247.42 101.097" fill="#bcceea"/><polygon points="240.973 114.786 235.859 125.472 122.067 143.722 240.973 114.786" fill="#bcceea"/><polygon points="234.382 127.901 228.323 137.654 108.816 157.198 234.382 127.901" fill="#bcceea"/><polygon points="226.388 139.792 219.391 150 106.431 168.537 226.388 139.792" fill="#bcceea"/><polygon points="217.638 152.278 210.044 162.429 106.027 180.146 217.638 152.278" fill="#bcceea"/><polygon points="207.255 165.396 198.47 175.236 103.503 191.59 207.255 165.396" fill="#bcceea"/><polygon points="195.259 178.498 184.797 188.663 103.144 202.629 195.259 178.498" fill="#bcceea"/><polygon points="179.105 193.624 168.425 202.195 101.128 214.344 179.105 193.624" fill="#bcceea"/><polygon points="157.883 209.499 149.201 216.151 107.798 224.128 157.883 209.499" fill="#bcceea"/><polygon points="137.314 226.635 134.916 229.042 115.713 233.405 137.314 226.635" fill="#bcceea"/></svg>