<svg id="Layer_1" data-name="Layer 1" xmlns="http://www.w3.org/2000/svg" viewBox="0 0 300 300"><defs><style>.cls-1{fill:#fff;}</style></defs><title>VRNA_Light_bg</title><path d="M124.94,137.42c-1.64-2.53-3.26-5.09-4.93-7.61q-3.9-5.9-7.85-11.76c-2.48-3.7-5-7.38-7.45-11.08-2.12-3.16-4.22-6.34-6.33-9.51L93.46,90.1q-3.3-4.92-6.61-9.85a.89.89,0,0,1,.25-1.35.79.79,0,0,1,1.22.29q1.83,2.72,3.65,5.46Q96,90.8,100,97c2.67,4.09,5.32,8.19,8,12.28,2.46,3.76,4.94,7.51,7.4,11.28s5,7.7,7.52,11.55c1.81,2.77,3.61,5.54,5.43,8.31a9.41,9.41,0,0,0,.72.84l.18-.1c-.19-.46-.34-.94-.56-1.39l-6.25-12.93q-3-6.24-6-12.48l-7-14.67-7.08-14.83a1.13,1.13,0,0,1,.5-1.63,1.09,1.09,0,0,1,1.59.59c.81,1.69,1.59,3.41,2.37,5.12q2,4.38,4,8.76c1.88,4.14,3.73,8.29,5.62,12.43s3.82,8.34,5.72,12.52l8.06,17.76c.19.42.45.81.67,1.21l.2-.06c-.08-.48-.12-1-.24-1.43q-2.49-9.65-5-19.3-1.68-6.47-3.37-12.92c-.61-2.35-1.21-4.7-1.82-7.06a5.91,5.91,0,0,1-.15-.84.91.91,0,0,1,.65-1.12c.58-.17.92.21,1.09.69a17.46,17.46,0,0,1,.49,1.79q1.25,5.36,2.5,10.71t2.47,10.43q2,8.27,3.94,16.55c.15.63.35,1.25.52,1.87h.2a7.18,7.18,0,0,0,.06-.79c-.23-3.5-.45-7-.69-10.49q-.89-12.8-1.76-25.6-.86-12.19-1.73-24.39c-.3-4.23-.61-8.46-.9-12.69a1.83,1.83,0,0,1,.09-1,1.13,1.13,0,0,1,.78-.57,1.11,1.11,0,0,1,.79.56,3.28,3.28,0,0,1,.22,1.26q.9,15.09,1.77,30.18.61,10.5,1.22,21,.57,9.81,1.18,19.62c0,.31.11.62.16.93h.21a5.27,5.27,0,0,0,.16-.77q.28-4.47.55-8.92.93-14.84,1.84-29.68.66-10.35,1.33-20.69c0-.19,0-.38.06-.57a1.36,1.36,0,0,1,1.42-1.22,1.33,1.33,0,0,1,1.15,1.48c-.07,1.21-.17,2.43-.27,3.64q-.83,9.47-1.67,18.94l-1.68,19.08q-.76,8.69-1.51,17.38c0,.36,0,.73,0,1.1l.23,0c.17-.6.39-1.19.51-1.8,1.56-7.85,3.08-15.71,4.64-23.56,1.44-7.22,2.91-14.44,4.35-21.66,1.1-5.48,2.15-11,3.24-16.47.73-3.67,1.48-7.33,2.22-11,.11-.54.17-1.09.33-1.61s.46-.92,1.1-.76a1.07,1.07,0,0,1,.67,1.33c-.18.94-.39,1.86-.58,2.8-.56,2.65-1.11,5.31-1.67,8-.65,3-1.31,6.1-1.95,9.15-.53,2.5-1,5-1.56,7.49q-1.08,5.13-2.17,10.28c-.9,4.31-1.78,8.63-2.69,12.94q-1.43,6.78-2.87,13.56-1.5,7.07-3,14.13c-.08.39-.11.79-.16,1.18l.17.09a3.66,3.66,0,0,0,.52-.67q2.75-5.74,5.48-11.48c1.51-3.16,3-6.3,4.55-9.46,1.26-2.64,2.51-5.28,3.78-7.92,1.49-3.12,3-6.22,4.48-9.34l5-10.43c1.7-3.56,3.42-7.13,5.12-10.69,1.3-2.7,2.58-5.41,3.88-8.12a4.67,4.67,0,0,1,.61-1,1,1,0,0,1,1.32-.32,1.11,1.11,0,0,1,.56,1.51c-.89,1.87-1.81,3.72-2.74,5.57-1.46,3-2.95,5.88-4.42,8.82Q161.53,94.45,159,99.6c-1.71,3.4-3.4,6.81-5.11,10.21-1.5,3-3,6-4.5,8.93-1.31,2.62-2.6,5.24-3.91,7.86l-4.9,9.77q-1.23,2.46-2.45,4.92a3.56,3.56,0,0,0-.18.58l.18.1c.56-.75,1.13-1.49,1.66-2.25q6.36-9.15,12.7-18.32,5.7-8.22,11.41-16.42c.07-.1.13-.2.2-.29.47-.63,1-.78,1.45-.43s.47.88,0,1.51q-6.17,8.6-12.33,17.17c-3.44,4.78-6.9,9.53-10.35,14.3l-6.32,8.83a1,1,0,0,1-1.4.36,4,4,0,0,0-5.6,4.6,3.83,3.83,0,0,0,3.18,2.84,3.94,3.94,0,0,0,4.57-4.06c-.08-1.19-.05-1.35,1.15-1.79,5.59-2,11.15-4.18,16.73-6.26,4.93-1.84,9.87-3.65,14.8-5.5,4.57-1.71,9.12-3.45,13.7-5.16s9-3.33,13.52-5c.85-.31,1.68-.67,2.53-1a2.16,2.16,0,0,1,1-.24,1.18,1.18,0,0,1,.85.57,1.06,1.06,0,0,1-.36.94,14.23,14.23,0,0,1-2.15.93l-5.78,2.05c-2,.71-4,1.44-6,2.17L178,134.87l-9.14,3.29c-3.07,1.1-6.13,2.23-9.2,3.33l-8.94,3.22-8.07,2.9a1,1,0,0,0-.52.46,4.83,4.83,0,0,0,.85,0l10.76-2,8.78-1.59,19.54-3.58,13-2.38c4.48-.82,9-1.66,13.43-2.49l10.05-1.85a1.61,1.61,0,0,1,1.87,1.16,1.5,1.5,0,0,1-1.36,1.54l-14.82,2.4-11.78,1.88-19,3.07c-6.25,1-12.5,2.05-18.75,3.06-3.77.6-7.54,1.16-11.3,1.77a11.61,11.61,0,0,0-1.6.46l0,.21c.56,0,1.12.09,1.68.1q30.84.49,61.69,1c3.89.06,7.77.14,11.65.22a1.44,1.44,0,0,1,.76.15c.24.18.54.49.54.74a1.17,1.17,0,0,1-.52.82,2,2,0,0,1-1,.15l-49.39-1.34L146.34,151c-.36,0-.72,0-1.08.05v.22a7.47,7.47,0,0,0,.93.24c3.94.54,7.88,1.06,11.83,1.59,7,.93,13.93,1.88,20.9,2.8l15.09,2,10.35,1.35a2.25,2.25,0,0,1,.55.15c.49.18,1,.43.78,1.07a1,1,0,0,1-1.25.7c-2.92-.41-5.84-.84-8.77-1.27L183.22,158q-9.69-1.39-19.39-2.79c-5.94-.86-11.87-1.76-17.82-2.63-.6-.09-1.22-.09-1.83-.14l-.06.23c.54.19,1.06.42,1.61.56,5.79,1.56,11.6,3.09,17.39,4.65,4.76,1.28,9.51,2.59,14.27,3.87l16.7,4.48c4.07,1.09,8.13,2.22,12.2,3.32s8,2.13,12,3.21a9.34,9.34,0,0,1,1.35.46,1.24,1.24,0,0,1,.78,1.43,1.28,1.28,0,0,1-1.51.91c-.86-.2-1.7-.46-2.55-.7q-6.08-1.76-12.14-3.53l-15.43-4.51c-3.08-.89-6.18-1.74-9.27-2.64-4.42-1.28-8.82-2.59-13.23-3.87-3.21-.93-6.42-1.82-9.62-2.75-4.23-1.22-8.46-2.48-12.69-3.7-.53-.16-1.08-.24-1.62-.36l-.08.21a4.81,4.81,0,0,0,.66.45l9.24,4.17,10.08,4.58,9.83,4.43q4,1.78,7.93,3.6a3.85,3.85,0,0,1,.6.39,1,1,0,0,1,.38,1.38,1.2,1.2,0,0,1-1.37.67,2.94,2.94,0,0,1-.74-.25c-4.2-2.09-8.39-4.19-12.6-6.26-2.6-1.29-5.23-2.53-7.83-3.82-3.41-1.68-6.81-3.39-10.22-5.09l-5.9-2.9a4.48,4.48,0,0,0-.71-.22l-.13.18c.43.34.83.71,1.27,1q5.53,3.81,11.08,7.59l13.76,9.5,12.25,8.41c3.06,2.11,6.1,4.23,9.16,6.33l12.49,8.57c.37.26.75.52,1.1.8s.77.74.32,1.32-.88.47-1.37.14l-1.94-1.34q-7.71-5.43-15.41-10.86c-4.09-2.88-8.2-5.73-12.29-8.61q-8.27-5.82-16.51-11.66l-9.65-6.77c-1.54-1.08-3.06-2.19-4.6-3.28-.34-.24-.71-.43-1.07-.65l-.13.15a10.74,10.74,0,0,0,.66.85l11.67,11.68c2.92,2.94,5.83,5.89,8.76,8.82,3.26,3.28,6.54,6.54,9.8,9.81q7.37,7.4,14.71,14.79c2.87,2.89,5.77,5.75,8.65,8.62.74.74,1.47,1.5,2.19,2.25a1,1,0,0,1,.08,1.51c-.52.46-1,.2-1.37-.21l-7.19-7.36c-3.68-3.76-7.38-7.51-11.05-11.27q-7.33-7.53-14.65-15.06c-4.06-4.16-8.15-8.29-12.21-12.45-2.87-2.93-5.71-5.88-8.58-8.81a12.37,12.37,0,0,0-.93-.82l-.14.13c.65.9,1.27,1.81,1.95,2.68l10.85,13.92,9.21,11.84,11.13,14.33,4,5.13c.12.15.29.35.26.49a2.18,2.18,0,0,1-.41,1.11c-.36.34-.79.13-1.09-.27-1.58-2.06-3.17-4.11-4.74-6.18q-4.56-6-9.11-12c-2.66-3.51-5.29-7-8-10.56q-5.3-7-10.62-14c-1.12-1.48-2.22-3-3.34-4.46-.27-.35-.59-.67-.89-1l-.19.12c.49.89,1,1.8,1.47,2.68q5,8.43,10.09,16.86l9.5,15.94c2.7,4.51,5.42,9,8.12,13.53,1.9,3.19,3.77,6.4,5.66,9.59.7,1.19,1.43,2.36,2.13,3.54.12.21.3.47.25.65a1.6,1.6,0,0,1-.53,1,1,1,0,0,1-1-.25,23.89,23.89,0,0,1-1.49-2.35q-3.85-6.6-7.69-13.21l-9.51-16.35q-4.89-8.43-9.79-16.86-4.16-7.17-8.33-14.33a4.34,4.34,0,0,0-.35-.49l-.22.06a5,5,0,0,0,.19.87c1.65,3.9,3.32,7.79,5,11.69q2.06,4.86,4.1,9.73a1.21,1.21,0,0,1-.64,1.67c-.58.27-1.2,0-1.52-.8-.58-1.41-1.1-2.84-1.63-4.27q-2-5.35-4-10.72c-.67-1.8-1.29-3.63-2-5.43-.19-.52-.47-1-.71-1.51l-.2.06c.12.66.21,1.33.37,2,1.06,4.2,2.14,8.4,3.19,12.61.89,3.55,1.73,7.12,2.62,10.68,1.09,4.41,2.22,8.82,3.32,13.23.67,2.68,1.32,5.36,2,8,1.13,4.55,2.28,9.1,3.41,13.65.71,2.85,1.39,5.69,2.09,8.54.59,2.38,1.2,4.75,1.76,7.14a1.76,1.76,0,0,1-.08,1.09,1,1,0,0,1-1.79.13,2.63,2.63,0,0,1-.41-.9q-2.28-9.81-4.53-19.63-2.06-8.91-4.13-17.82c-1.65-7.1-3.33-14.19-5-21.29q-2.23-9.57-4.44-19.14a8.34,8.34,0,0,0-.26-.85h-.24a11.16,11.16,0,0,0-.13,1.27q.12,7,.25,14.09l1,54.75c0,1.72.07,3.43.08,5.15a1.24,1.24,0,0,1-.19.8,1.27,1.27,0,0,1-.87.44c-.24,0-.54-.34-.67-.61a2.08,2.08,0,0,1-.11-.91l-.3-41.75q-.1-14.55-.23-29.1c0-.46-.07-.93-.11-1.39l-.25,0a12.43,12.43,0,0,0-.25,1.33q-1,9.76-2.07,19.54-1.18,11.2-2.4,22.39-.33,3.21-.68,6.4a2.72,2.72,0,0,1-.21,1c-.16.28-.57.67-.79.62a1.72,1.72,0,0,1-.9-.74c-.12-.17,0-.51,0-.76q1.22-10,2.45-20,1.7-13.76,3.41-27.52c.12-1,.19-2,.29-3l-.21,0a13.13,13.13,0,0,0-.52,1.36c-.92,3.75-1.81,7.5-2.74,11.25-1.08,4.39-2.2,8.78-3.28,13.17-.86,3.47-1.68,6.95-2.54,10.41-.9,3.66-1.83,7.3-2.74,10.95s-1.81,7.36-2.72,11c-1.11,4.51-2.24,9-3.35,13.53-.28,1.15-.53,2.32-.81,3.47a8.52,8.52,0,0,1-.41,1.3,1.3,1.3,0,0,1-1.48.84,1.38,1.38,0,0,1-.94-1.64c.44-1.75.91-3.5,1.38-5.25.7-2.64,1.42-5.29,2.13-7.93s1.47-5.42,2.2-8.14c.65-2.44,1.28-4.88,1.94-7.32.94-3.52,1.9-7,2.84-10.55.89-3.31,1.76-6.63,2.64-9.94q1.64-6.12,3.26-12.22c.72-2.74,1.43-5.49,2.17-8.22.69-2.55,1.4-5.1,2.1-7.65.18-.67.33-1.35.49-2l-.26-.11c-.36.59-.75,1.17-1.08,1.78q-3.54,6.48-7.06,13-3.45,6.35-6.9,12.68c-2.1,3.84-4.22,7.67-6.32,11.52s-4,7.49-6.09,11.23c-2.32,4.26-4.66,8.52-7,12.78-.71,1.29-1.4,2.59-2.11,3.88a4.69,4.69,0,0,1-.42.67c-.3.39-.67.64-1.16.31a.86.86,0,0,1-.36-1.23q.83-1.54,1.68-3.06l5-9,5.76-10.27c1.71-3.05,3.41-6.11,5.13-9.16,2.09-3.71,4.19-7.42,6.27-11.14,1.68-3,3.34-6,5-9l6.21-11c.3-.55.55-1.12.83-1.69l-.19-.12c-.52.65-1.07,1.28-1.56,2q-4.4,5.91-8.76,11.83c-2.83,3.82-5.65,7.66-8.49,11.48q-4.64,6.25-9.3,12.49L91.93,207a7.37,7.37,0,0,1-.5.61c-.62.67-1.11.74-1.73.26s-.68-1-.15-1.76c.74-1,1.53-2,2.3-3l8.45-10.9c3.19-4.1,6.39-8.18,9.58-12.28l9.41-12.13c2.1-2.71,4.22-5.4,6.32-8.12a3.67,3.67,0,0,0,.66-1.36c-1,1-2,1.91-2.91,2.89-3,3.11-6,6.24-8.94,9.35l-16,16.56Q91.79,194.05,85.13,201q-6.1,6.36-12.25,12.7c-.25.26-.5.52-.77.75a.9.9,0,0,1-1.34,0,.82.82,0,0,1,.06-1.27l4.4-4.48,9.42-9.58,10-10.19q7.57-7.73,15.16-15.45,7.36-7.5,14.76-14.95c.57-.57,1.09-1.17,1.64-1.75l-.14-.18a4.83,4.83,0,0,0-.74.41l-7.29,5.65-8.8,6.82-9.94,7.7a2.62,2.62,0,0,1-.6.37.86.86,0,0,1-1.12-.35.72.72,0,0,1,.16-1.07c.86-.69,1.72-1.37,2.6-2l14.93-11q3.45-2.56,6.86-5.15a.66.66,0,0,0,.29-.46c-.16.08-.34.14-.5.23l-9.89,6.14q-5.78,3.57-11.53,7.16c-4.81,3-9.6,6-14.41,9L71,189.4c-2.7,1.69-5.39,3.41-8.1,5.1-.21.14-.5.32-.71.27a1.55,1.55,0,0,1-1-.53,1,1,0,0,1,.26-1c1-.75,2.14-1.43,3.23-2.1l9.51-5.8,9-5.5,9.39-5.73c5.41-3.29,10.83-6.56,16.23-9.86,4.2-2.58,8.38-5.19,12.57-7.78a.47.47,0,0,0,.23-.4c-.91.42-1.84.81-2.74,1.27-4.2,2.13-8.39,4.29-12.59,6.44q-7.33,3.75-14.68,7.49c-3.35,1.71-6.73,3.38-10.08,5.08-3.9,2-7.79,4-11.71,5.95a1.89,1.89,0,0,1-1.34.1,1.2,1.2,0,0,1-.06-2.18c1-.6,2.07-1.08,3.12-1.58q4.28-2.07,8.56-4.11c2.21-1.05,4.43-2.08,6.64-3.14,2.71-1.29,5.4-2.61,8.1-3.91l6.45-3.07,8.24-3.93,13.28-6.34c.59-.28,1.16-.6,1.73-.9l-.08-.25a6.19,6.19,0,0,0-1,.16q-7.56,2.28-15.11,4.59l-13.07,4L84.63,164.9l-12.92,3.91c-3,.92-6.07,1.81-9.1,2.72L54.34,174l-5.88,1.77c-.68.2-1.18,0-1.36-.55s.21-1,.74-1.16c1.66-.52,3.34-1,5-1.49l9.39-2.75c3-.87,6-1.7,9-2.57L82.53,164c2.24-.66,4.48-1.3,6.73-1.95l11.18-3.23q8.24-2.39,16.48-4.77c2.53-.74,5.06-1.52,7.59-2.29a.69.69,0,0,0,.42-.34c-.5,0-1,0-1.5,0l-31.5,3.25Q80.59,155.81,69.25,157c-5.08.52-10.15,1-15.23,1.51-1.06.11-2.12.26-3.19.38a4.7,4.7,0,0,1-1.06,0,.79.79,0,0,1-.8-.84.8.8,0,0,1,.74-.9c1.09-.15,2.17-.28,3.27-.38,5.67-.51,11.34-1,17-1.51q14.74-1.36,29.47-2.74,11.78-1.08,23.57-2.11c.34,0,.68-.13,1-.19l0-.25a9.09,9.09,0,0,0-1-.18l-15.34-1.09-15.83-1.1-27.17-1.86c-.67-.05-1.33-.06-2-.11a2.06,2.06,0,0,1-.7-.12c-.47-.18-.87-.48-.77-1.05s.55-.75,1.08-.72c.76,0,1.52.11,2.28.17Q78,145,91.39,146.07l28.5,2.34c1.07.09,2.13.2,3.2.27a4.65,4.65,0,0,0,.83-.07l0-.18c-.75-.21-1.5-.45-2.27-.62-4.92-1.11-9.86-2.2-14.78-3.32s-9.75-2.24-14.63-3.35c-3.87-.87-7.76-1.71-11.64-2.59-4.78-1.08-9.56-2.2-14.34-3.28-4.07-.92-8.14-1.81-12.21-2.72l-7.38-1.67c-.79-.19-1.31-.83-1.18-1.38s.84-1,1.72-.82c3.66.89,7.31,1.8,11,2.68s7.41,1.76,11.11,2.66,7.22,1.77,10.83,2.65c2.78.68,5.56,1.34,8.33,2l8.69,2.07,11,2.69,11.25,2.73c.56.14,1.14.21,1.7.32l.07-.21a3.65,3.65,0,0,0-.69-.4c-3.57-1.25-7.15-2.47-10.71-3.75-4-1.45-8-3-12.07-4.43-3-1.11-6.1-2.18-9.14-3.28-1.17-.41-2.32-.86-3.48-1.29l-.07,0c-.87-.38-1.17-.8-1-1.34s.66-.66,1.58-.32l7.68,2.89,8.56,3.19,12,4.55c2.89,1.09,5.8,2.16,8.7,3.24a1,1,0,0,0,.68,0,5.55,5.55,0,0,0-.63-.45q-4.26-2.18-8.54-4.33L107.23,137,99,132.89l-10.28-5.15-12.63-6.35q-5.72-2.88-11.41-5.78l-5.93-3a2.53,2.53,0,0,1-.6-.38c-.6-.53-.68-.93-.3-1.48a1.11,1.11,0,0,1,1.6-.43c1.51.77,3,1.55,4.5,2.34,2.44,1.29,4.88,2.59,7.32,3.87L82,122.18c4,2.12,8,4.22,12.08,6.34,3,1.56,5.91,3.16,8.88,4.71,3.54,1.86,7.1,3.69,10.64,5.54,2.89,1.52,5.76,3.07,8.64,4.59.79.42,1.6.79,2.4,1.18l.14-.23c-.75-.56-1.47-1.14-2.24-1.67q-4.87-3.39-9.76-6.74l-12.36-8.52c-3-2.1-6-4.22-9.09-6.32-3.56-2.47-7.14-4.91-10.7-7.37Q77.32,111.37,74,109c-.49-.35-.83-.77-.45-1.38s.84-.55,1.49-.09q4.84,3.4,9.67,6.85,6.3,4.45,12.58,8.93l11.17,8,15.84,11.26a6.07,6.07,0,0,0,.83.46l.13-.17c-.45-.44-.87-.91-1.34-1.33q-7.39-6.63-14.81-13.24c-4.89-4.39-9.76-8.81-14.65-13.2s-10-9-15-13.45q-6-5.37-12-10.76a3.15,3.15,0,0,1-.58-.63A1,1,0,0,1,67,88.79a1,1,0,0,1,1.48-.16q1,.84,2,1.74,9.84,9.15,19.67,18.31,8.08,7.51,16.17,15L122.8,139l3.56,3.3a.84.84,0,0,0,.63.21c-.23-.34-.44-.7-.7-1l-12.17-14.68c-.24-.29-.48-.59-.71-.89a1,1,0,0,1,0-1.41c.38-.36.94-.27,1.36.27,1.51,1.9,3,3.82,4.5,5.74s3.2,4.14,4.82,6.19a7.21,7.21,0,0,0,.82.74l0,0Z"/><path d="M149.92,141.06c-.57-.58-.36-.95,0-1.3l6.87-6.67,8.55-8.32,14.76-14.33a3.78,3.78,0,0,1,.43-.38c.79-.61,1.36-.59,1.92.08a1.3,1.3,0,0,1-.25,1.9c-.92.86-1.87,1.7-2.8,2.55l-7.64,6.89-12.19,11-8.79,8A9.83,9.83,0,0,1,149.92,141.06Z"/><path d="M187,115.94a3,3,0,0,1,.36-1q5.17-5.67,10.38-11.3l3.13-3.42a8.53,8.53,0,0,1,.62-.59,1.26,1.26,0,0,1,1.69,0,1.19,1.19,0,0,1,.18,1.67,26,26,0,0,1-2,2q-6.63,6.24-13.29,12.44a3.49,3.49,0,0,1-.78.44Z"/><path d="M254.5,67a1.65,1.65,0,0,1-1,1.33l-6.89,2.92q-5.79,2.46-11.58,4.89c-.41.18-1,.6-1.24,0s.39-.76.78-1q6.94-3.6,13.91-7.17l3.74-1.92c1-.5,1.72-.34,2.15.46A2.33,2.33,0,0,1,254.5,67Z"/><path d="M192.2,70.87c1,.3,1.22.61,1,1.38-.49,1.94-1,3.87-1.55,5.8q-1.05,3.92-2.12,7.85c-.83,3.1-1.68,6.2-2.52,9.3-.21.78-.4,1.57-.64,2.34a4.64,4.64,0,0,1-.49.83c-.69-.3-.57-.76-.47-1.16.5-2.15,1-4.3,1.55-6.45.72-3,1.43-6.07,2.14-9.11.77-3.26,1.53-6.53,2.34-9.79C191.56,71.48,192,71.17,192.2,70.87Z"/><path d="M211.71,81.56a2.35,2.35,0,0,1,0-.92c1.27-2.76,2.57-5.51,3.86-8.27.86-1.85,1.7-3.71,2.56-5.57.31-.66.62-1.34,1-2a1.27,1.27,0,1,1,2.19,1.25c-1.73,3-3.5,6-5.24,9.07C215,77,214,78.88,212.9,80.72a6.1,6.1,0,0,1-.86,1Z"/><polygon class="cls-1" points="124.94 137.42 124.92 137.45 124.95 137.41 124.94 137.42"/></svg>