<svg id="Layer_1" data-name="Layer 1" xmlns="http://www.w3.org/2000/svg" viewBox="0 0 300 300"><defs><style>.cls-1{fill:#853995;}.cls-2{fill:#2aace3;}.cls-3{fill:#642975;}</style></defs><path class="cls-1" d="M136.45,216q-28.71-49.44-57.4-98.88c-6.59-11.36-13-22.8-19.6-34.27,19.86-8.17,40.9-.57,52.75,19.22,11.43,19.07,22.24,38.51,33.38,57.75,1.36,2.34,3.12,4.44,4.69,6.66,5.66,4.92,12.73,2,19,3.42-1.21,2.31-4.26.74-5.4,2.82-5.91,10.67-11.77,21.39-18.4,31.62C142.87,208.43,142.69,214.7,136.45,216Z"/><path class="cls-2" d="M169.3,169.93c-6.3-1.43-13.37,1.5-19-3.42,12.28-21.11,24.39-42.32,36.88-63.3C198.56,84,213.1,77.36,234.94,80.59c1.91.28,3.84.46,5.61,2.53q-20.94,36.47-42.07,73.26c-1.24.08-2.17.55-2.38,1.92l.12-.1C188.09,164.05,179.8,169.54,169.3,169.93Z"/><path class="cls-3" d="M169.3,169.93c10.5-.39,18.79-5.88,26.92-11.73-.12,1,.06,2.22-.41,3C180.89,187.32,165.9,213.36,150,241.1L136.45,216c6.24-1.33,6.42-7.6,9.05-11.66,6.63-10.23,12.49-21,18.4-31.62C165,170.67,168.09,172.24,169.3,169.93Z"/><path class="cls-2" d="M131.51,82a11.32,11.32,0,0,1-11.45-11.39,11.51,11.51,0,0,1,23-.26A12.13,12.13,0,0,1,131.51,82Z"/><path class="cls-3" d="M151.49,92.26c7.58,0,10,4.85,9.7,11.24-.26,6.2-6.17,10.57-12.64,10.13-6.77-.46-9.76-4.57-9.59-13.21,3,1.14,4.55,4.89,9.13,4.72,3.47-.54,6-3,6.62-7.1C154.69,95.35,152.61,94.08,151.49,92.26Z"/><path class="cls-1" d="M157.72,72c-1.77-5.83,1.53-9.3,6-11.6,4.3-2.2,8.81-2.39,12.38,1.88C171.29,74.55,169.56,75.46,157.72,72Z"/><path class="cls-3" d="M157.72,72c11.84,3.43,13.57,2.52,18.41-9.72,4.79,3.67,4.53,8.48,2.26,13.13a10.54,10.54,0,0,1-11.46,6.12C161.71,80.8,157.72,78.17,157.72,72Z"/><path class="cls-1" d="M151.49,92.26c1.12,1.82,3.2,3.09,3.22,5.78-.65,4.11-3.15,6.56-6.62,7.1-4.58.17-6.1-3.58-9.13-4.72C140.89,94.26,144.22,90.23,151.49,92.26Z"/><path class="cls-3" d="M196.1,158.3c.21-1.37,1.14-1.84,2.38-1.92C197.84,157.21,197.71,158.67,196.1,158.3Z"/></svg>