<?xml version="1.0" encoding="UTF-8"?>
<svg id="Layer_1" xmlns="http://www.w3.org/2000/svg" viewBox="0 0 300 300">
  <defs>
    <style>
      .cls-1 {
        fill: #010101;
      }

      .cls-2 {
        fill: #efc918;
      }

      .cls-3 {
        fill: #713f97;
      }
    </style>
  </defs>
  <g id="prefix_Group_10711">
    <path id="prefix_Path_1829" class="cls-1" d="M104.13,165.54c-5.32-15.86-2.02-33.35,8.72-46.18,12.84-16.34,35.14-26.6,59.64-27.43,16.85-.77,33.55,3.45,48.02,12.13-25.73-38.7-77.77-49.56-116.84-24.4-12.57,15.39-17.59,35.6-13.69,55.09,2.14,11.27,7,21.84,14.16,30.8"/>
  </g>
  <g id="prefix_Group_10712">
    <path id="prefix_Path_1830" class="cls-2" d="M193.3,106.01c-10.92-3.7-22.57-4.71-33.97-2.95,1.74.34,3.46.77,5.15,1.3,14.18,4.49,25.58,15.13,31.04,28.96,8.01,19.15,6.01,43.47-5.33,65.05-7.66,14.97-19.59,27.34-34.28,35.52,46.32-2.72,81.67-42.48,78.94-88.81,0-.04,0-.08,0-.12-7.37-18.52-22.59-32.8-41.54-38.96"/>
  </g>
  <g id="prefix_Group_10713">
    <path id="prefix_Path_1831" class="cls-3" d="M185.77,182.41c-1.19,1.3-2.44,2.54-3.76,3.71-11.24,9.79-26.26,14.04-40.96,11.59-20.66-3.02-40.65-17.19-53.5-37.94-9-14.17-13.56-30.7-13.1-47.47-13.18,25.14-12.53,55.29,1.72,79.84,8.09,14.15,20.12,25.64,34.64,33.06,19.7,3.24,39.83-2.39,54.99-15.4,8.79-7.39,15.65-16.8,19.99-27.43"/>
  </g>
  <g>
    <g id="prefix_Group_10714">
      <path id="prefix_Path_1832" class="cls-1" d="M149.82,115.03c-19.39.14-34.99,15.97-34.85,35.35.14,19.39,15.97,34.99,35.35,34.85,19.29-.14,34.85-15.81,34.85-35.1-.09-19.45-15.91-35.15-35.35-35.1M149.82,188.63c-21.26-.17-38.36-17.55-38.18-38.81.17-21.26,17.55-38.36,38.81-38.18,21.14.17,38.18,17.36,38.18,38.49-.09,21.35-17.46,38.58-38.81,38.51"/>
    </g>
    <path id="prefix_Path_1833" class="cls-1" d="M182.43,134h-65.15v-3.4h65.15v3.4Z"/>
    <path id="prefix_Path_1834" class="cls-1" d="M187.03,152.08h-74.35v-3.4h74.35v3.4Z"/>
    <path id="prefix_Path_1835" class="cls-1" d="M182.16,170.15h-64.61v-3.4h64.61v3.4Z"/>
    <path id="prefix_Path_1836" class="cls-1" d="M151.55,186.94h-3.42v-73.65h3.42v73.65Z"/>
    <g id="prefix_Group_10715">
      <path id="prefix_Path_1837" class="cls-1" d="M149.82,115.03c-8.98,0-16.63,16.08-16.63,35.1s7.62,35.1,16.63,35.1,16.63-16.08,16.63-35.1-7.62-35.1-16.63-35.1M149.82,188.63c-11.25,0-20.05-16.91-20.05-38.5s8.8-38.5,20.05-38.5,20.06,16.91,20.06,38.5-8.81,38.51-20.06,38.51"/>
    </g>
  </g>
</svg>