<svg id="Layer_1" data-name="Layer 1" xmlns="http://www.w3.org/2000/svg" viewBox="0 0 300 300"><path d="M149.95193,168.05825C192.81722,143.28808,235.68267,118.51787,280,92.90857c-1.35225,6.66207-4.89166,10.64491-7.3902,14.996q-25.88421,45.07394-52.08845,89.96353c-1.90512,3.25869-2.19325,8.38272-7.72329,8.50024a66.61592,66.61592,0,0,0-5.83032-4.38091Q178.49789,184.95924,149.95193,168.05825Z" fill="#ec4b2f"/><path d="M85.12884,206.35927a4.681,4.681,0,0,1-3.917-2.6606C60.29127,167.63438,39.42463,131.539,20,93.698l127.93472,74.23629c-2.68733,3.9748-7.21051,5.2737-11.046,7.57927C119.67469,185.86133,101.63952,194.833,85.12884,206.35927Z" fill="#ec4b2f"/><path d="M85.12884,206.35927c16.51068-11.52624,34.54585-20.49794,51.75993-30.84569,3.83544-2.30557,8.35862-3.60447,11.046-7.5793a2.55384,2.55384,0,0,1,2.01721.124q28.51725,16.94909,57.01581,33.92914a66.61592,66.61592,0,0,1,5.83032,4.38091Q148.96329,207.77193,85.12884,206.35927Z" fill="#737c79"/></svg>