<svg id="Layer_1" data-name="Layer 1" xmlns="http://www.w3.org/2000/svg" viewBox="0 0 300 300"><defs><style>.cls-1{fill:#1a86ea;fill-rule:evenodd;}</style></defs><path class="cls-1" d="M211.53,84.74c-3.73,4.79-6.8,14.65-6.8,14.65s-35.82,106-39.22,115.87c-5.79,17-12.59,20.78-23.17,20.78s-17.38-4.45-23.51-21.5L72.48,85.8C68.69,75.55,64.29,73.15,51,72.15a1.45,1.45,0,0,1-1.34-1.4A2.24,2.24,0,0,1,51,69.08c7.52.34,20.44.67,32,.67s29.3-.33,37.16-.67a1.54,1.54,0,1,1,.33,3.07c-11.92,1-18.38,5.46-16,12.25l46,131.53c1.67,4.4,7.8,4.4,9.19,0,10.2-31,35.43-106.29,39.16-117.21C202.34,88.14,210.53,64,231.64,64a18.9,18.9,0,0,1,18.72,18.72,18.67,18.67,0,0,1-37.16,2.73c-.33-1.34-1.34-1.68-1.67-.67Z"/></svg>