<svg id="Layer_1" data-name="Layer 1" xmlns="http://www.w3.org/2000/svg" viewBox="0 0 300 300"><path d="M214.788,149.85564c.18218,36.274-28.99329,66.03238-64.84125,66.13658-35.595.10346-64.53847-28.9533-64.73456-64.98791-.19962-36.67873,28.43152-66.21029,64.3894-66.41442C185.2275,84.38762,214.60693,113.80283,214.788,149.85564Zm-65.02947,29.57679a29.30111,29.30111,0,0,0,29.4118-29.48553c.09207-16.10108-12.91257-29.48268-28.79924-29.63409a29.56175,29.56175,0,0,0-.61256,59.11962Z" fill="#ee4925"/><path d="M133.30923,243.60818a19.776,19.776,0,1,1-39.54883-.20733,19.93942,19.93942,0,0,1,19.96467-19.97795C124.84981,223.5397,133.35915,232.31027,133.30923,243.60818Z" fill="#3aa4db"/><path d="M185.66109,76.5568c-11.149.34539-19.60586-10.26839-19.27843-20.49326.34109-10.65159,9.48816-19.65042,19.98289-19.57,10.94974.08392,20.05723,9.64477,19.774,20.75846A19.67943,19.67943,0,0,1,185.66109,76.5568Z" fill="#3aa4db"/><path d="M149.79655,170.118c-10.94046-.02908-19.38849-8.58377-19.45081-19.69635a19.44329,19.44329,0,0,1,19.73689-19.97235c10.97418.01116,19.31309,8.53255,19.33455,19.7576C169.4393,161.79025,161.20316,170.14833,149.79655,170.118Z" fill="#ee4925"/></svg>