<svg id="Layer_1" data-name="Layer 1" xmlns="http://www.w3.org/2000/svg" viewBox="0 0 300 300"><title>VTVT_Mark_Light</title><path d="M143.25,84.21429C138.05357,72.10714,123.91071,66,111.69643,64.66071a64.24853,64.24853,0,0,0-15.375.16072A35.42076,35.42076,0,0,0,75.96428,75c-9.85714,9.75-12.91071,23.25-11.25,37.01787C66.53571,126.75,73.17857,140.73215,85.92858,148.5a36.42851,36.42851,0,0,0,21.69642,5.35714,38.89287,38.89287,0,0,0,28.82144-16.33928,57.268,57.268,0,0,0,9.58929-22.82143A51.08735,51.08735,0,0,0,143.25,84.21429Zm-37.17858,33.64285c-.10714.16072-.21429.16072-.32142.10715q-4.79048-13.33119-9.53572-26.67857c-1.01786-2.67857-2.51785-4.76785-5.67857-4.98215A5.8929,5.8929,0,0,0,86.25,87.69643c-3.75,3.10715-2.14285,7.39286-.80357,11.14286L97.60715,131.625c.91071,2.46428,2.89286,5.14285,5.46429,5.73214,4.125,1.07143,7.92857-.375,9.64285-4.28571.26785-.42857.42857-.91072.64286-1.33929L126.75,98.19643c1.5-3.85714,2.46428-8.03572-1.60714-10.71429a5.553,5.553,0,0,0-6.75.21429c-1.60714,1.17857-2.35715,3.48214-3.05357,5.51786l-.53572,1.71429-7.23214,18.96429-.48215,1.33928a12.14917,12.14917,0,0,1-1.07143,2.67858Zm50.03572,10.07143c1.92857,14.89286,8.41071,28.76786,22.5,35.19642a46.125,46.125,0,0,0,34.66072.64287c12.32143-5.30357,19.23215-16.71428,21.42858-30A76.39373,76.39373,0,0,0,235.33929,112.5c-1.125-11.35714-5.46429-23.03571-15.91072-28.39286a54.80356,54.80356,0,0,0-44.83928-.91071c-10.44644,4.82143-16.33929,14.03571-18.32143,25.28571A60.75563,60.75563,0,0,0,156.10714,127.92857Zm47.46429,14.78571V112.5H213c4.44644,0,9.26786-3,6.42858-7.82142-1.33929-2.30358-3.53572-2.89287-6.10714-2.89287H180.10714c-8.41072,0-8.78571,10.5-.32144,10.71429h10.66072v29.67858a9.14344,9.14344,0,0,0,1.23214,5.03571A6.558,6.558,0,0,0,197.41071,150a6.21623,6.21623,0,0,0,3.96429-1.44643C203.25,147.05358,203.51787,144.96429,203.57143,142.71428ZM160.5,162.85714a33.10716,33.10716,0,0,1,19.82143,25.5,55.41927,55.41927,0,0,1-.16071,14.25c-2.35714,16.01787-10.71429,35.08928-26.73214,41.25-15.58929,5.89284-35.67857,1.60713-45.375-12.69643a42.32161,42.32161,0,0,1-3.375-6.21428,67.49989,67.49989,0,0,1-6.32143-31.28572,47.20248,47.20248,0,0,1,2.46428-13.76785,31.2857,31.2857,0,0,1,23.14285-20.57143,60.47753,60.47753,0,0,1,22.60714-.64286A49.68062,49.68062,0,0,1,160.5,162.85714Zm-21.21429,48.2143h.16072l.10715-.10715a18.411,18.411,0,0,0,1.125-2.83928l.53572-1.39285,6.96428-18.42856.69642-1.92857c1.01786-3.10716,2.08929-6.42858,5.89286-6.75a6.2976,6.2976,0,0,1,6.21429,3.42857,6.50191,6.50191,0,0,1,.53572,3.53572,13.23558,13.23558,0,0,1-.91072,3.75q-7.10169,17.90214-14.25,35.78572a8.03569,8.03569,0,0,1-8.08929,4.71429c-4.01785-.48215-6.05356-3.16072-7.33929-6.69643l-12.16071-32.83929c-1.39286-3.69642-2.57143-7.60714,1.01786-10.44644a5.96189,5.96189,0,0,1,6.96428-.64285c1.5.75,2.46428,2.73214,3,4.28571Q134.48765,197.79656,139.28571,211.07144Z" fill="#1a429a" fill-rule="evenodd"/></svg>