<svg id="Layer_1" data-name="Layer 1" xmlns="http://www.w3.org/2000/svg" viewBox="0 0 300 300"><path d="M134.59966,164.05155c.34189.62458.00735,1.08316-.3713,1.67327-8.05533-2.81934-16.65572-2.05362-24.81586-4.19179-25.1525-6.59065-41.56177-22.36609-49.8831-46.77876A144.29191,144.29191,0,0,1,52.908,82.89906c-1.277-12.30766-1.82292-24.65735-2.45348-37.00372-.09717-1.90264-.97787-3.82252.00919-5.72725a2.31559,2.31559,0,0,0,.75572,1.50779c7.54776,7.92769,14.49232,16.37431,21.40286,24.848Q85.56284,82.39166,97.18466,99.2485c7.4826,10.8383,14.673,21.87339,21.12354,33.35745,4.43452,7.89487,8.77679,15.84494,12.51187,24.11621C131.94268,159.20814,132.544,162.02407,134.59966,164.05155Z" fill="#f7995c"/><path d="M139.10272,170.58174l-.63615-1.77239c5.41322.77518,10.29706-.9866,15.299-1.80815,28.03976-4.60547,50.60055,4.17236,67.33064,27.31684,8.39819,11.61809,14.0047,24.633,19.06031,37.91714,3.01976,7.93476,5.92586,15.91276,8.84941,23.8836a5.68936,5.68936,0,0,1,.6935,2.60461,4.772,4.772,0,0,1-1.15038-.33422,528.51659,528.51659,0,0,1-57.36424-39.33331c-8.9593-7.04662-17.65973-14.40364-25.99692-22.166q-9.974-9.28627-19.24441-19.30183C143.73464,175.19954,142.06177,172.24966,139.10272,170.58174Z" fill="#686f9a"/><path d="M134.59966,164.05155c-2.05563-2.02748-2.657-4.84341-3.77959-7.32939-3.73508-8.27127-8.07735-16.22134-12.51187-24.11621-6.45056-11.48406-13.64094-22.51915-21.12354-33.35745Q85.555,82.40329,72.62228,66.52391c-6.91054-8.47372-13.8551-16.92034-21.40286-24.848a2.31559,2.31559,0,0,1-.75572-1.50779c8.963,3.34779,17.67494,7.29473,26.42408,11.14318C87.93093,56.16878,98.75,61.44932,108.42147,68.80557c15.66957,11.91849,25.59178,27.35215,28.86546,46.84015a93.15121,93.15121,0,0,1-.58364,31.7585C135.73366,152.92086,134.68331,158.4246,134.59966,164.05155Z" fill="#ed7623"/><path d="M139.10272,170.58174c2.959,1.66792,4.63192,4.6178,6.84077,7.00634q9.26342,10.01691,19.24441,19.30183c8.33719,7.76231,17.03762,15.11933,25.99692,22.166a528.51659,528.51659,0,0,0,57.36424,39.33331,4.772,4.772,0,0,0,1.15038.33422.84708.84708,0,0,1,.16282,1.10852c-4.05017-.37419-8.21184-.68487-12.3551-1.15646-9.34931-1.06414-18.7344-1.83991-28.02247-3.409-14.30352-2.41637-27.90571-6.63175-39.641-15.54451-13.28512-10.08983-21.151-23.66353-25.48987-39.52906-2.11767-7.74348-2.67056-15.72549-3.93654-23.59908C140.09211,174.57168,139.54685,172.5848,139.10272,170.58174Z" fill="#01215c"/><path d="M143.98214,161.3097a1.59846,1.59846,0,0,1-1.96276-.01632c.79054-2.49945-.02956-5.00319-.31039-7.49372-1.24513-11.04211.55309-21.33409,7.00583-30.58235,4.30106-6.16443,10.162-10.53857,16.64829-14.13365,8.50329-4.713,17.72088-7.6103,26.99516-10.32678,4.026-1.17924,7.96863-2.66194,12.11691-3.41042a8.99316,8.99316,0,0,1-.79229,1.79008c-10.06578,13.74059-20.59531,27.09521-32.66382,39.1766-7.51206,7.52-15.014,15.03615-23.4717,21.54144C146.281,158.82859,144.36834,159.35456,143.98214,161.3097Z" fill="#8dc5ea"/><path d="M131.44067,171.91744c.22665-.23.516-.1527.55323.08388.8001,5.08059,3.38778,9.61,4.44045,14.62646,3.24468,15.46222-.99163,28.6217-11.92185,39.85518-7.80387,8.02039-17.22032,13.81754-26.696,19.54416-3.31454,2.00311-6.67479,3.93088-10.01416,5.89306a8.70191,8.70191,0,0,1,.27673-1.1846,340.00971,340.00971,0,0,1,19.58652-42.57715,265.17333,265.17333,0,0,1,18.294-28.99632c1.57042-2.14384,3.85-3.86392,4.46786-6.65751l-.01016.03305A.89084.89084,0,0,0,131.44067,171.91744Z" fill="#fcbc50"/><path d="M130.42739,172.5046c-.61786,2.79359-2.89744,4.51367-4.46786,6.65751a265.17333,265.17333,0,0,0-18.294,28.99632A340.00971,340.00971,0,0,0,88.079,250.73558a8.70191,8.70191,0,0,0-.27673,1.1846c-.56339.56254-.90222.27649-.93467-.34549-.69385-13.30085-2.55325-26.62.17772-39.89181,3.57027-17.35063,14.442-28.38053,30.59772-34.68054C121.8493,175.36209,126.163,173.99639,130.42739,172.5046Z" fill="#f4a802"/><path d="M143.98214,161.30969c.3862-1.95513,2.29889-2.4811,3.56523-3.45511,8.45773-6.50529,15.95964-14.0214,23.4717-21.54144,12.06851-12.08139,22.598-25.436,32.66382-39.1766a8.99316,8.99316,0,0,0,.79229-1.79008l.89824-.394c-.10242,2.996-.957,5.71491-1.45319,8.47809-1.52579,8.497-3.02917,17.00639-6.0159,25.1547-6.63649,18.10546-19.59706,28.44157-38.6719,31.118C154.17356,160.413,149.06688,160.78344,143.98214,161.30969Z" fill="#5fb3e3"/><path d="M131.44067,171.91744a.89084.89084,0,0,1-1.02344.62021C130.57835,172.035,131.04248,172.03043,131.44067,171.91744Z" fill="#e8aa3b"/></svg>