<svg id="Layer_1" data-name="Layer 1" xmlns="http://www.w3.org/2000/svg" viewBox="0 0 300 300"><path d="M50.9729,162.07658a52.71452,52.71452,0,0,0,21.79084,7.495c7.64686.86462,15.04409-1.2688,22.98036-1.82466-7.93724,13.00113-21.31371,15.39133-36.09019,6.88186a19.71742,19.71742,0,0,0-5.34022,5.3266c-.07745,1.72244,1.07,2.24236,1.9897,2.91114,13.50474,9.81964,30.68858,7.88873,43.07706-4.75058,3.38013-3.44856,6.974-6.68761,10.42935-10.064a10.35228,10.35228,0,0,1,8.57976-3.19993c5.83555.50849,11.54355,1.32337,16.9411,3.83233,5.16148,2.39925,7.51121,6.31616,7.32137,11.919a139.24735,139.24735,0,0,1-8.15332,42.43384c-2.29069,6.401-4.77368,12.74242-8.22272,18.05648a6.91872,6.91872,0,0,1-3.9826.71288c-14.7135.01025-29.42748.07987-44.14038-.01486-13.54374-.08719-23.86045-8.01381-27.32354-20.66291a18.56888,18.56888,0,0,1-.60043-4.94026q-.03332-26.028-.01194-52.056A2.19414,2.19414,0,0,1,50.9729,162.07658Zm56.44249,28.416c10.40682,1.8576,22.09319-7.45414,16.52546-18.09486C113.21161,169.52656,106.022,177.24485,107.41539,190.49261Z" fill="#6b859d"/><path d="M184.4292,241.74613c-7.023-9.87169-12.76461-20.19236-15.12721-31.66526-2.92481-14.20308,1.11372-27.129,12.52155-36.46323,18.3854-15.04359,42.63813-18.14439,64.52408-5.385a8.08183,8.08183,0,0,1,3.39458,3.032c0,3.45374.00018,7.44343,0,11.43311-.00054,10.343.10619,20.68733-.02649,31.0286-.21073,16.42527-11.8658,27.92806-28.28671,28.00813C209.23222,241.79389,197.035,241.74613,184.4292,241.74613Zm17.45673-71.22582c.95417,11.94906,12.91617,14.50476,22.78443,8.2865C220.62717,166.96364,211.34972,163.4783,201.88593,170.52031Z" fill="#1e4c6d"/><path d="M117.32685,74.8865c-12.48413-15.505-27.91167-13.68261-43.895-8.66193-.72007,1.86937.18815,3.184.66341,4.5561.42773,1.2349.49,2.64371,1.7585,3.73329,3.251-.6928,6.60823-1.543,10.013-2.10721a25.88016,25.88016,0,0,1,22.26233,6.51751,49.44393,49.44393,0,0,1,9.081,10.62172c4.56526,7.17438,8.11624,14.88582,11.80362,22.50794-.49385.27646-.87275.63008-1.021.55133-8.61-4.57326-18.12055-5.46532-27.533-6.7953a47.9938,47.9938,0,0,1-20.07309-7.2529c-4.34-2.868-7.68644-6.4555-7.81763-12.19984-3.48341-1.32393-7.11953-1.66074-10.8967-2.52458-1.62295,7.07323.50859,12.94623,4.93746,18.12728,4.89523,5.72661,11.27,9.25615,18.22136,11.94354,7.40424,2.86248,15.177,3.9908,22.96475,4.80416,13.51637,1.41162,22.49526,8.442,27.42532,20.91267a92.00033,92.00033,0,0,1,5.13579,17.47916c-8.19265-2.78045-16.20883-4.48451-24.51528-4.15421a158.422,158.422,0,0,0-24.75616,3.2494c.30052-4.31454.46036-8.21807.52563-12.11173.06138-3.66187,3.56827-6.59507,7.87922-7.109a35.04166,35.04166,0,0,1,4.27114-.02768c1.227-1.20272,1.24079-2.61084,1.60823-3.85185.36884-1.24566.50715-2.55929.81644-4.2183-7.01308-2.29176-12.85313-.21646-18.74459,4.089-6.649-8.64678-15.76649-12.09521-26.71538-11.72086-1.3806,2.83612-.05135,5.55737-.45737,8.53992,8.05452.49284,15.50728,1.502,19.65879,9.17638,3.25311,6.0136,2.82651,12.12561.68408,18.24863-11.99552,2.55513-25.392-3.86589-30.47109-13.79533v-3.34967c0-18.0115.39335-36.03441-.1304-54.03074a27.36322,27.36322,0,0,1,27.81118-27.874q13.78772.04568,27.57571.00005a19.09942,19.09942,0,0,1,10.45054,2.98221C120.54764,64.12118,121.28579,69.68846,117.32685,74.8865ZM106.96367,97.88086c.84008-6.47345-.67183-11.00654-4.98641-13.8967-4.93954-3.30879-10.37254-3.53155-16.03807-2.40471C87.99346,97.04567,95.81178,103.01185,106.96367,97.88086Zm.85907,50.22479c9.00969,1.87809,14.36714-3.72864,13.16594-13.68072C111.18221,132.66506,104.22357,140.82211,107.82274,148.10565ZM58.6759,137.364c.10272,10.51574,6.3859,15.69072,14.3478,12.08466C74.20278,140.38666,69.38243,136.19913,58.6759,137.364Z" fill="#1e4c6d"/><path d="M155.01369,153.64587c-2.89368-6.38753-5.74549-11.61115-6.95755-17.4983-2.45995-11.94841-3.97439-23.99833-3.34289-36.231a77.22307,77.22307,0,0,1,2.47954-15.75324c2.91728-11.06022,10.45-18.72491,18.83034-25.91108h32.89565a44.88723,44.88723,0,0,1,10.56205,14.73237c1.70955,3.82845,1.4463,7.84273.26164,11.75233-2.61787,8.63932-8.18691,15.0596-15.65957,20.61369-6.74854-7.25336-9.72794-15.2224-7.59208-24.93625-2.32652-1.715-5.26516-1.62189-8.38323-2.65949-3.519,12.31225.41705,22.6075,7.993,32.468C169.37241,119.8102,161.54441,135.64346,155.01369,153.64587Zm40.58-58.83628c9.80413-3.36173,11.69926-11.37046,4.98582-20.04692C190.77328,77.8791,188.15813,87.86216,195.59373,94.80959Zm-42.043,3.743c8.69145.10676,12.17975-10.6534,6.49925-17.47625C150.80684,85.03091,148.63,90.70511,153.55068,98.55262ZM174.345,111.72287c3.25434-7.45935-.34155-12.45833-9.14734-13.15006C163.79585,108.18908,166.26318,111.85805,174.345,111.72287Z" fill="#3a617f"/><path d="M249.65169,103.98634c.02332,6.00619-.16691,12.02339.14318,18.01479.2155,4.164-1.60647,7.01354-4.56914,9.46416a54.4896,54.4896,0,0,1-12.5064,7.29795c-9.903,4.49093-20.274,7.71172-30.6278,10.93-13.85182,4.30556-26.22316,10.792-35.333,22.46729-.16279.20863-.5861.21485-.91778.32552a9.82236,9.82236,0,0,1,.37309-4.906,95.8123,95.8123,0,0,1,9.23174-23.666,26.42128,26.42128,0,0,1,13.99052-12.24051c8.29517-3.39189,17.08626-4.43675,25.83734-5.72288,2.97237-.43684,5.95838-.83419,8.89428-1.45589,11.75323-2.48882,19.48561-9.68524,23.961-20.6227Zm-49.23116,33.4409c-10.75136-2.83057-16.65294.82512-16.2284,9.78463C192.26009,151.2201,197.57126,148.10865,200.42053,137.42724Z" fill="#0e334c"/><path d="M220.53279,58.78594c17.04095-3.066,31.9302,14.21171,28.66405,32.8114l-10.93411,1.35158c-.52533,11.826-7.863,17.75929-18.16807,21.11727-5.08059,1.65556-10.20693,2.99447-16.30905,2.78842,4.0153-3.95048,8.04211-7.10869,11.10537-11.20644,4.10324-5.48895,8.17493-10.99579,9.94459-17.73965,2.4118-9.19081,2.06472-18.13451-2.97329-26.52757C221.43981,60.67716,221.10929,59.91843,220.53279,58.78594Z" fill="#3a617f"/><path d="M132.468,98.40438c-3.30239-5.77737-6.17405-10.80123-9.11436-15.94515,7.14685-7.06633,8.055-15.02186,3.099-23.96117h22.016a58.14042,58.14042,0,0,0-11.50034,18.74582C134.4805,83.81335,133.79,90.7588,132.468,98.40438Z" fill="#1e4c6d"/><path d="M249.61824,139.51758v16.84451L235.494,150.58041A165.42123,165.42123,0,0,0,249.61824,139.51758Z" fill="#3a617f"/><path d="M249.65169,103.98634l-1.52292-.11431c-.35678-1.58221.51014-2.79612,1.37852-4.36924A6.27171,6.27171,0,0,1,249.65169,103.98634Z" fill="#6b859d"/><path d="M107.41539,190.49261c-1.39336-13.24776,5.79622-20.96605,16.52546-18.09486C129.50858,183.03847,117.82221,192.35021,107.41539,190.49261Z" fill="#c3d72c"/><path d="M201.88593,170.52031c9.46379-7.042,18.74124-3.55667,22.78443,8.2865C214.8021,185.02507,202.8401,182.46937,201.88593,170.52031Z" fill="#c3d72c"/><path d="M106.96367,97.88086c-11.15189,5.131-18.97021-.83519-21.02448-16.30141,5.66553-1.12684,11.09853-.90408,16.03807,2.40471C106.29184,86.87432,107.80375,91.40741,106.96367,97.88086Z" fill="#c3d72c"/><path d="M107.82274,148.10565c-3.59917-7.28354,3.35947-15.44059,13.16594-13.68072C122.18988,144.377,116.83243,149.98374,107.82274,148.10565Z" fill="#c3d72c"/><path d="M58.6759,137.364c10.70653-1.16485,15.52688,3.02268,14.3478,12.08466C65.0618,153.0547,58.77862,147.87972,58.6759,137.364Z" fill="#c3d72c"/><path d="M195.59373,94.80959c-7.4356-6.94743-4.82045-16.93049,4.98582-20.04692C207.293,83.43913,205.39786,91.44786,195.59373,94.80959Z" fill="#c3d72c"/><path d="M153.55068,98.55262c-4.9207-7.84751-2.74384-13.52171,6.49925-17.47625C165.73043,87.89922,162.24213,98.65938,153.55068,98.55262Z" fill="#c3d72c"/><path d="M174.345,111.72287c-8.08186.13518-10.54919-3.53379-9.14734-13.15006C174.00349,99.26454,177.59938,104.26352,174.345,111.72287Z" fill="#c3d72c"/><path d="M200.42053,137.42724c-2.84927,10.68141-8.16044,13.79286-16.2284,9.78463C183.76759,138.25236,189.66917,134.59667,200.42053,137.42724Z" fill="#c3d72c"/></svg>