<svg id="Layer_1" data-name="Layer 1" xmlns="http://www.w3.org/2000/svg" viewBox="0 0 300 300"><defs><style>.cls-1{fill:#68a2b9;}.cls-2{fill:#b92454;}</style></defs><path class="cls-1" d="M161.08,73.22H125.57l-29.16,40.9-28-40.9H32.89L78,133.53,29.67,195.92H64.13L95.28,154l32.47,41.94h34.37l-48.38-62.39Z"/><path class="cls-2" d="M230.86,96.32a17.13,17.13,0,0,0-8.15,4.55,17.38,17.38,0,0,0-5,12.4,17.62,17.62,0,0,0,.28,3.22,17.25,17.25,0,0,0,17.23,14.3,16.42,16.42,0,0,0,12.4-5.12,17.52,17.52,0,0,0-12.4-29.92,20.51,20.51,0,0,0-4.35.57Z"/><path class="cls-1" d="M235.21,86.29a16.32,16.32,0,0,1,2,.18l8.43-13.25H213.34l-63.81,93.64L172,195.92h49v30.86h30.11V195.92h21.49V170.17H251.12V138.83H221v31.34H183.8l27.84-43.65a27.3,27.3,0,0,1,4.45-32.38,26.14,26.14,0,0,1,19.12-7.86Z"/></svg>