<svg id="Layer_1" data-name="Layer 1" xmlns="http://www.w3.org/2000/svg" viewBox="0 0 300 300"><path id="Layer" d="M211.033,36.26309h.34292a16.99138,16.99138,0,0,1,13.83133,8.45883c2.6291,4.97241,1.3717,11.08792-1.42885,15.71741-4.7438,6.91566-9.54476,13.83132-14.28856,20.747q20.57553,26.14806,41.151,52.239a15.07115,15.07115,0,0,1,3.94364,7.08712c1.20024,4.57233-.34293,9.37329-2.80055,13.20263-12.51677,19.20382-25.7194,38.00756-38.6934,56.86845a11.85694,11.85694,0,0,1-9.03036,5.31534c-4.17225.22861-8.23021-1.54317-11.65946-3.82934-3.82933-2.51478-6.85851-6.45842-7.48721-11.03076-.45723-3.2578-.45723-7.03,1.77179-9.6019q16.28895-22.80455,32.52075-45.55192Q200.631,122.05158,181.99871,98.21827c-14.80294-.05715-29.60589-.05715-44.40883-.17146a18.31923,18.31923,0,0,1-10.17345-5.65827,17.75883,17.75883,0,0,1-4.11511-11.43085,14.77144,14.77144,0,0,1,3.25779-10.2306c2.40048-2.85771,6.0012-4.34372,9.60191-5.08673,2.85772-.6287,5.71543-.40008,8.57314-.40008q17.88927.22862,35.77854.40008Q188.4,54.26667,196.28727,42.95013a11.37453,11.37453,0,0,1,2.57194-2.40048,21.97358,21.97358,0,0,1,12.17384-4.28656Z" fill="#20acab"/><path id="Layer-2" data-name="Layer" d="M92.83809,84.72988a13.96629,13.96629,0,0,1,10.28776.80016c4.6295,1.94324,8.91606,5.201,10.97361,9.88768a15.929,15.929,0,0,1,.40008,11.37369c-2.05755,3.14348-4.34372,6.1155-6.45843,9.14467L80.8357,154.1151q18.57513,23.83332,37.2074,47.66663c14.74579.05716,29.49159.05716,44.29453.17146a17.49665,17.49665,0,0,1,9.71622,5.08672,16.84654,16.84654,0,0,1,4.62949,11.54516c.17147,3.715-.6287,7.65867-3.14348,10.57354-2.28617,2.80055-5.77258,4.34372-9.259,5.14388-3.88649.85731-7.88729.34292-11.83093.40008q-16.46042-.17147-32.92084-.34293c-5.42965,7.71582-10.745,15.4888-16.17464,23.20462a21.768,21.768,0,0,1-14.46,6.17265h-.28578a17.54832,17.54832,0,0,1-12.17384-6.05835,12.94463,12.94463,0,0,1-3.02918-9.4876,20.1268,20.1268,0,0,1,3.14348-9.08752q6.97283-10.11632,13.94564-20.28975Q69.83352,192.57989,49.17226,166.289A14.89928,14.89928,0,0,1,45,156.6299v-.91448c.17146-4.68664,2.62909-8.80174,5.25819-12.57393C62.20342,125.08076,74.60589,107.3058,86.894,89.47368A12.77394,12.77394,0,0,1,92.83809,84.72988Z" fill="#1e4757"/></svg>