<svg id="Layer_1" data-name="Layer 1" xmlns="http://www.w3.org/2000/svg" viewBox="0 0 300 300"><title>XENE_Light_BG</title><path d="M68.74839,216.63389H82.73417V171.04011c10.43913,0,20.52511,0,30.6111,0,9.926,0,19.85193,0,29.98851,0v-41.246H82.74162V84.8487C66.27737,77.978,63.37711,65.53131,65.70251,56.10529,68.18314,46.05013,75.92636,38.20354,88.338,37.83447c12.21282-.3632,21.02267,8.40426,23.41579,18.56327,2.68876,11.41391-2.85467,21.09805-16.89754,28.45331v34.7366H204.2002V82.7916H189.57653V40.46641h41.96682V82.99834h-15.187V129.683H155.59691v41.31932c20.00027.09156,40.00905-.00143,60.48284.05339v42.13118c7.86967,2.953,14.05307,7.4171,17.12423,15.22985a24.12656,24.12656,0,0,1,.7705,16.08414,24.44336,24.44336,0,0,1-24.3406,17.67048,24.81688,24.81688,0,0,1-23.10591-18.721q-4.51455-18.95207,17.68038-30.22982v-32.007H94.81235v35.545h14.21783V258.0336H68.74839Zm141.905,4.85484c-8.36947-.68091-16.35956,6.92431-16.4445,15.742a16.18677,16.18677,0,0,0,16.27266,16.48459,16.474,16.474,0,0,0,16.29118-16.09357A16.12863,16.12863,0,0,0,210.65338,221.48873ZM197.435,48.12778V74.62452h26.30129V48.12778Z" fill="#57585d"/></svg>