<svg xmlns="http://www.w3.org/2000/svg" viewBox="0 0 300 300"><g id="Xeris_BIOPHARMA" data-name="Xeris BIOPHARMA"><path d="M161.75665,230.69051,108.741,186.65207a27.04,27.04,0,0,1-3.50612-38.028l41.41849-49.89484a25.79539,25.79539,0,0,0-6.58842,2.77407l-76.865,45.61813a27.07844,27.07844,0,0,0-9.43957,36.98768l45.61814,76.865a27.07842,27.07842,0,0,0,36.98768,9.43957l76.865-45.61814a27.03258,27.03258,0,0,0,12.56039-29.0122l-26.007,31.32394A27.0486,27.0486,0,0,1,161.75665,230.69051Z" fill="#b2f6ea"/><path d="M240.27841,136.14076l-15.41154-12.79157-6.704,18.68649A26.821,26.821,0,0,1,204.44658,157.216L222.63219,187.885a26.42239,26.42239,0,0,1,3.12085,7.97547l17.993-21.69174A27.00091,27.00091,0,0,0,240.27841,136.14076Z" fill="#a6ebdf"/><path d="M204.48512,157.17751a26.79565,26.79565,0,0,1-20.80557,1.11734l-26.31519-9.43957a27.06191,27.06191,0,0,1-16.2977-34.52183l5.58669-15.6427h0l-41.41849,49.93336a27.11006,27.11006,0,0,0,3.50612,38.028l53.01567,44.03845a27.11006,27.11006,0,0,0,38.028-3.50612l26.007-31.324a26.422,26.422,0,0,0-3.12084-7.97546Z" fill="#64d8c7"/><path d="M187.26274,92.10232l37.60413,31.24688,2.73555-7.62871a27.09379,27.09379,0,0,0-16.2977-34.52183L184.98954,71.7591a27.09379,27.09379,0,0,0-34.52183,16.29769l-3.81435,10.67249,2.58143-3.12083A27.11651,27.11651,0,0,1,187.26274,92.10232Z" fill="#59c1c0"/><path d="M177.0526,110.98144,204.48512,157.216a26.82108,26.82108,0,0,0,13.71627-15.18036l6.704-18.68649L187.30127,92.1023a27.11005,27.11005,0,0,0-38.028,3.50612l-2.58143,3.12084h0A27.06848,27.06848,0,0,1,177.0526,110.98144Z" fill="#4eacad"/><path d="M146.65335,98.72927l-5.58668,15.6427a27.09379,27.09379,0,0,0,16.29769,34.52183l26.31519,9.43957a26.96577,26.96577,0,0,0,20.80557-1.11734l-27.43252-46.2346A27.1005,27.1005,0,0,0,146.65335,98.72927Z" fill="#479e9f"/><circle cx="185.76074" cy="44.55182" r="18.72432" fill="#7d328a"/></g></svg>