<svg id="Layer_1" data-name="Layer 1" xmlns="http://www.w3.org/2000/svg" viewBox="0 0 300 300"><path d="M30.144,200.38444H25v-2.43665H38.10375v2.43665h-5.144v13.212H30.144Z"/><path d="M45.46784,197.94779h2.86983V204.608h7.14749v-6.66017H58.355v15.64868H55.48516V207.0446H48.33767v6.55187H45.46784Z"/><path d="M68.31817,197.94779h9.36755v2.43665H71.188v4.11523h5.25233v2.43664H71.188v4.22353h6.87676v2.43664H68.31817Z"/><path d="M88.51527,197.94779H93.551a6.95622,6.95622,0,0,1,3.14057.43318,4.82035,4.82035,0,0,1-.1083,8.55533v.05416a4.28512,4.28512,0,0,1,.54148.75806l3.19471,5.84795H97.12476l-3.08642-5.84795H91.331v5.84795H88.46112V197.94779ZM93.93,205.25773a2.30428,2.30428,0,0,0,2.4908-2.4908c0-1.51614-.64977-2.43665-2.86983-2.43665H91.3851v4.8733H93.93Z"/><path d="M118.51311,209.5354h-5.46893l-1.29954,4.00693h-2.924l5.52306-15.64868h2.97813l5.52306,15.64868h-3.03227Zm-2.76154-8.88023s-.379,1.51614-.64977,2.43665l-1.40785,4.16937h4.11523l-1.40784-4.16937c-.27074-.92051-.64977-2.43665-.64977-2.43665Z"/><path d="M132.48321,197.94779h6.06454a5.11879,5.11879,0,0,1,0,10.23391H135.353v5.41477h-2.86983Zm5.46892,7.74312a2.68157,2.68157,0,0,0,0-5.36062h-2.70738v5.36062Z"/><path d="M153.43838,197.94779h9.36756v2.43665h-6.55188v4.11523h5.25233v2.43664h-5.25233v4.22353h6.87676v2.43664h-9.74659V197.94779Z"/><path d="M173.25645,197.94779h2.86982v10.01733a3.46944,3.46944,0,0,0,6.9309,0V197.94779H185.927v10.01733c0,3.5196-2.54495,5.90209-6.28113,5.90209-3.79034,0-6.33529-2.38249-6.33529-5.90209V197.94779Z"/><path d="M198.48927,200.38444h-5.144v-2.43665H206.449v2.43665h-5.144v13.212h-2.86982v-13.212Z"/><path d="M215.05847,197.94779h2.86983v15.64868h-2.86983Z"/><path d="M235.85119,197.67705a8.28554,8.28554,0,0,1,5.79381,2.11176l-1.35369,2.11176a6.85406,6.85406,0,0,0-4.27766-1.67859,5.11537,5.11537,0,0,0-5.25234,5.36062,5.26562,5.26562,0,0,0,5.25234,5.57722,6.7588,6.7588,0,0,0,4.5484-2.00346l1.51613,2.05761a8.44657,8.44657,0,0,1-6.17284,2.54494,7.88124,7.88124,0,0,1-8.068-8.17631A7.773,7.773,0,0,1,235.85119,197.67705Z"/><path d="M251.4999,209.5354a6.16485,6.16485,0,0,0,3.89864,1.67859c1.19125,0,2.27421-.59563,2.27421-1.89517,0-2.81568-7.36409-2.32836-7.36409-7.1475,0-2.59909,2.27421-4.5484,5.25233-4.5484a6.58029,6.58029,0,0,1,4.65671,1.67858l-1.24539,2.32835a5.80679,5.80679,0,0,0-3.46545-1.35369,2.12958,2.12958,0,0,0-2.3825,1.89517c0,2.76154,7.36409,2.11176,7.36409,7.09335,0,2.4908-1.89517,4.60256-5.144,4.60256a7.7217,7.7217,0,0,1-5.41477-2.11176Z"/><rect x="193.45354" y="92.52219" width="68.11782" height="9.85488" fill="#ff8b00"/><rect x="108.54992" y="112.71929" width="11.26273" height="69.57981"/><path d="M114.12714,91.33094a5.95625,5.95625,0,1,0,5.95625,5.95625A5.97372,5.97372,0,0,0,114.12714,91.33094Z"/><path d="M89.76067,139.41411a5.95625,5.95625,0,1,0,5.95624,5.95625A5.97372,5.97372,0,0,0,89.76067,139.41411Z"/><path d="M86.40351,112.44855H73.029L58.2467,135.56962c-.48733.81222-1.02881,1.67858-1.40784,2.3825-.43318-.70392-.92051-1.62443-1.40784-2.3825L40.59454,112.44855H27.2742l22.41716,33.355L25.21659,181.97421H38.59108l16.67749-25.82846c.59563-.86636,1.1371-1.78687,1.57029-2.49079.43318.75806.97466,1.62443,1.57028,2.49079l16.35261,25.34114.32489.48732H88.407L63.93221,145.80354Z"/><path d="M226.26706,119.81264c14.1867,0,25.287,11.42517,25.287,26.045,0,14.99891-11.10029,26.749-25.287,26.749s-25.287-11.75005-25.287-26.749c0-14.61988,11.10028-26.045,25.287-26.045m0-10.61295c-20.143,0-35.89995,16.08187-35.89995,36.60385,0,20.901,15.757,37.30778,35.89993,37.30778S262.167,166.70456,262.167,145.80354c0-20.522-15.757-36.60385-35.89991-36.60385Z" fill="#ff8b00"/><path d="M156.03747,182.51569l.9205-.16244V172.011l-1.24539.16244c-.16245,0-1.13711.1083-2.16591.1083-3.19471,0-6.44358-1.083-6.44358-9.09682V86.13276H135.84037v79.10981c0,14.51159,9.04266,17.54386,16.62334,17.54386A20.8342,20.8342,0,0,0,156.03747,182.51569Z"/><path d="M173.094,103.18929a5.95625,5.95625,0,1,0-5.95625-5.95625A5.97371,5.97371,0,0,0,173.094,103.18929Z" fill="#e82000"/><rect x="167.57094" y="112.71929" width="11.26272" height="69.57981" fill="#e82000"/><path d="M275,201.2508a4.11669,4.11669,0,1,1-4.11523-4.00693A4.03407,4.03407,0,0,1,275,201.2508Zm-7.20166,0a3.08857,3.08857,0,0,0,3.14056,3.19471,3.03343,3.03343,0,0,0,3.03228-3.19471,3.09048,3.09048,0,1,0-6.17284,0Zm2.43665,2.11176h-.92052v-4.00693a10.33955,10.33955,0,0,1,1.51613-.10829,2.76706,2.76706,0,0,1,1.40785.27074,1.09112,1.09112,0,0,1,.379.86636,1.02067,1.02067,0,0,1-.81222.92051v.05415a1.3233,1.3233,0,0,1,.75807.97466,5.925,5.925,0,0,0,.27073,1.02881h-1.0288a3.27259,3.27259,0,0,1-.32489-.97466.70551.70551,0,0,0-.81221-.64977H270.235Zm.05415-2.2742h.43318c.48732,0,.92052-.16245.92052-.59563,0-.379-.27074-.59563-.86637-.59563-.27074,0-.43318,0-.48733.05415Z"/></svg>