<svg id="Layer_1" data-name="Layer 1" xmlns="http://www.w3.org/2000/svg" viewBox="0 0 300 300"><path d="M232.37162,48.73212c-.53449.41781-1.87977,1.56091-2.98939,2.54016-1.10961.97907-2.81363,2.60934-3.78609,3.62266-.97246,1.01309-2.55222,2.75789-3.511,3.87715s-2.543,3.09995-3.52067,4.40163-2.47137,3.43166-3.31916,4.73335-2.05955,3.26781-2.693,4.36922c-.633,1.1014-1.78446,3.27235-2.55786,4.82436-.7738,1.552-1.87134,3.92774-2.4392,5.2795-.56828,1.35172-1.46875,3.68652-2.002,5.18845s-1.34288,4.04168-1.79974,5.64355c-.45688,1.60228-1.08588,4.05677-1.39757,5.45514-.31208,1.398-.79992,3.93772-1.08427,5.64335-.28474,1.706-.6467,4.28963-.80436,5.74149-.15805,1.45186-.3692,3.99121-.46933,5.64335-.10055,1.65215-.183,4.57517-.1834,6.49557l-.0008,3.4917-1.957-2.01249c-1.07663-1.1068-2.78588-2.6958-3.799-3.53152-1.01269-.83533-2.65115-2.06-3.64092-2.72154a47.70855,47.70855,0,0,0-4.31013-2.45047,42.63628,42.63628,0,0,0-4.46014-1.89747c-1.0722-.35673-2.687-.808-3.58823-1.00343-.90088-.19466-2.53934-.45165-3.64091-.57029a29.44211,29.44211,0,0,0-4.09618-.10457c-1.15143.06113-2.87195.24413-3.82309.407-.95115.16247-2.67167.56586-3.8231.89645a42.95417,42.95417,0,0,0-4.09618,1.45306c-1.10116.46814-2.96766,1.39757-4.14725,2.06478-1.17959.66681-3.059,1.86811-4.17621,2.66925A16.97842,16.97842,0,0,0,148.169,120.52a9.62474,9.62474,0,0,0,2.57353.77982c1.44543.32858,3.88182.958,5.41452,1.39837,1.53229.44039,3.93289,1.1824,5.33488,1.64853,1.40158.46612,4.105,1.46393,6.00772,2.2168,1.9023.75328,4.76983,2.00083,6.3717,2.77261,1.60188.77218,3.89429,1.96223,5.094,2.64432,1.1993.68249,3.14061,1.8842,4.31375,2.67005s2.9363,2.07765,3.918,2.87075c.98131.7931,2.40382,2.04346,3.16071,2.77944.7569.73518,1.89545,1.94734,2.5305,2.69339a36.909,36.909,0,0,1,2.23811,3.00386c.596.90611,1.40843,2.2908,1.80457,3.07666a29.907,29.907,0,0,1,1.33846,3.27694,30.53589,30.53589,0,0,1,.92621,3.57737,26.14441,26.14441,0,0,1,.30124,4.36925,36.352,36.352,0,0,1-.31049,4.61579c-.1669,1.08668-.55178,2.96163-.85463,4.16615-.30365,1.20493-.82286,2.90211-1.15506,3.772-.3318.8695-.94914,2.27189-1.37182,3.11566-.42228.84377-1.19407,2.18946-1.71408,2.9906-.52041.80114-1.57935,2.21078-2.35314,3.13256a29.8169,29.8169,0,0,1-3.03483,3.04247c-.89565.75126-2.24335,1.78084-2.99461,2.288-.75127.50675-2.20635,1.3658-3.23351,1.90875s-2.80962,1.3481-3.961,1.78928c-1.15143.44079-2.87194,1.01792-3.82309,1.28255-.95115.26424-2.50758.63825-3.45913.8309-.95115.193-2.83535.50071-4.18707.68411a56.6241,56.6241,0,0,1-8.10105.33381c-3.42977,0-6.5008-.09371-7.82839-.2393-1.2017-.13112-3.2496-.40058-4.55144-.59844-1.30145-.19747-3.39076-.56426-4.64234-.81481-1.25157-.251-3.37508-.7388-4.71915-1.08467a20.81087,20.81087,0,0,0-2.5116-.56064,12.14838,12.14838,0,0,0,1.80618,1.15908c1.03118.60005,2.73481,1.54718,3.7861,2.1042,1.05169.55741,2.93589,1.4776,4.18747,2.04547,1.25157.56747,3.58622,1.54678,5.18849,2.17657,1.60188.62942,4.1006,1.52627,5.55246,1.99239,1.45186.46572,3.74548,1.12448,5.0976,1.46312,1.35172.33864,3.31756.78023,4.36886.98091,1.05169.20069,2.93589.50915,4.18747.68572a52.13272,52.13272,0,0,0,7.28182.32979,60.24825,60.24825,0,0,0,6.64518-.22763c.90088-.1303,2.4577-.40137,3.45873-.60206,1.00142-.20068,2.67005-.61131,3.70768-.91253,1.038-.30082,2.74084-.87674,3.78408-1.27973s2.77422-1.18159,3.84723-1.73016,2.97491-1.6835,4.22648-2.52165c1.25157-.83853,3.09476-2.21438,4.09618-3.05775s2.62944-2.37647,3.61839-3.40684c.98856-1.03079,2.48868-2.74205,3.33365-3.803s2.21882-2.95279,3.05334-4.20436,2.10781-3.33285,2.82931-4.625c.72191-1.2922,1.6799-3.13577,2.12913-4.09617.44882-.9608,1.21015-2.73,1.69074-3.93169.481-1.2013,1.1635-3.08551,1.517-4.18707.35311-1.10116.84658-2.82167,1.09674-3.82309.24975-1.001.582-2.47581.73759-3.27695.15525-.80073.42591-2.4392.60085-3.64091a51.91846,51.91846,0,0,0,.32376-7.5553,54.55674,54.55674,0,0,0-.32617-7.828c-.18218-1.35172-.5361-3.52267-.78585-4.82452-.25015-1.30145-.7364-3.4905-1.08065-4.86433s-1.116-4.08613-1.7157-6.02824c-.59965-1.94131-1.38389-4.3403-1.743-5.33046-.35914-.98975-1.04888-3.11084-1.5327-4.71271a42.97718,42.97718,0,0,1-1.10317-4.3765,14.03333,14.03333,0,0,1,.07642-4.27836c.16529-1.548.50674-5.27214.75892-8.276.25257-3.00386.62217-6.89532.82125-8.64741.19907-1.75225.57068-4.61957.82606-6.37182.255-1.75221.74766-4.61953,1.09432-6.37178.34708-1.75224.966-4.49666,1.37584-6.09874s1.06939-3.89589,1.46593-5.09743c.39614-1.20151,1.077-3.05554,1.51219-4.11983.43555-1.06444,1.23951-2.82578,1.78646-3.91407.547-1.08849,1.50455-2.75717,2.12833-3.7084.62337-.95122,1.47317-2.13911,1.88782-2.63975.415-.50064.86589-1.05371,1.00142-1.22884.13593-.17514.20349-.31859.15-.31859a8.1142,8.1142,0,0,0-1.069.7597ZM151.04733,60.00549c-1.53953.07991-3.99724.27907-5.46157.44235-1.46473.16349-4.097.538-5.84926.83219-1.75189.29419-4.82412.94045-6.82656,1.43581-2.00284.49557-4.93713,1.3179-6.52091,1.82726s-4.32823,1.50446-6.09862,2.211-4.69381,2.00493-6.496,2.88534c-1.80256.8802-4.30088,2.19009-5.55246,2.91064-1.252.72074-3.66866,2.23268-5.37067,3.36011-1.702,1.12726-4.078,2.81017-5.27951,3.73972s-3.24963,2.6117-4.55128,3.738c-1.30169,1.12618-3.80488,3.51069-5.56259,5.29889-1.75788,1.78808-4.04663,4.27514-5.08614,5.52672s-2.61464,3.24678-3.50031,4.4336c-.88568,1.18723-2.23124,3.09838-2.99,4.2478-.75895,1.149-1.9514,3.04529-2.65011,4.21361-.69854,1.16833-2.18716,3.96748-3.30807,6.22048-1.1207,2.2526-2.55053,5.39-3.17716,6.97134s-1.57617,4.20276-2.11014,5.82554-1.3055,4.26107-1.71438,5.86335c-.40889,1.60187-.94831,3.947-1.19881,5.211s-.62335,3.44827-.82852,4.85348c-.20535,1.40481-.495,3.9345-.64373,5.62083C60.10923,149.5021,60,152.83656,60,155.9289s.10923,6.4268.27053,8.2543c.14874,1.68633.43838,4.22608.64355,5.64375s.61806,3.80661.91754,5.30834c.29947,1.50214.87548,4.00046,1.28,5.55245.4047,1.552,1.17989,4.15611,1.72275,5.78654.54306,1.63082,1.48754,4.21119,2.099,5.73464s1.87567,4.32662,2.80941,6.22893c.93357,1.9023,2.37,4.60614,3.19172,6.00773.82181,1.402,2.38141,3.8597,3.46608,5.46158s2.67324,3.81384,3.53015,4.9154c.85712,1.10156,2.396,2.98215,3.41984,4.17983,1.02386,1.19728,3.13658,3.45027,4.69494,5.0063,1.55819,1.556,3.81107,3.66706,5.00642,4.691,1.19515,1.02394,3.07429,2.56428,4.17569,3.42333,1.10144.85945,3.51813,2.57514,5.37056,3.81345s4.47382,2.88561,5.82553,3.66061,3.9325,2.1231,5.73465,2.99542c1.80216.87272,4.506,2.08127,6.00773,2.68534,1.50213.60447,4.0825,1.54678,5.73465,2.09414,1.65214.54776,4.47824,1.36941,6.2808,1.82588,1.80216.45646,4.34191,1.0348,5.64336,1.285,1.30185.25015,3.55484.61895,5.0067.81924,1.45186.20069,3.7865.46009,5.18849.57632,1.64169.13674,5.04291.18138,9.55775.12588,4.99022-.06154,7.69043-.17294,9.37555-.38771,1.30145-.16529,3.35859-.4609,4.57075-.65595,1.21256-.19546,3.21983-.56667,4.46055-.82487,1.24072-.2586,3.3429-.7553,4.67169-1.104,1.3288-.34908,3.55807-1.00222,4.954-1.45146,1.396-.44964,3.58582-1.21457,4.86635-1.6996,1.28013-.48543,3.47481-1.38953,4.87641-2.00967,1.402-.61975,3.573-1.66381,4.82452-2.32017,1.25158-.65595,3.13578-1.68713,4.18707-2.2912,1.05128-.60367,2.97652-1.79251,4.27837-2.64109,1.30145-.84859,3.43379-2.33786,4.73765-3.30872,1.30426-.97126,3.39317-2.61979,4.64234-3.66343,1.24916-1.04406,3.64212-3.23994,5.31719-4.87962,1.67547-1.64007,3.95341-4.02579,5.06261-5.30231s2.66725-3.15629,3.46235-4.17782a18.5953,18.5953,0,0,0,1.44583-2.00485c0-.08124-1.49529,1.34126-3.32238,3.16111-1.82749,1.81945-4.34271,4.15811-5.58987,5.19653-1.24675,1.038-3.172,2.56066-4.278,3.38312s-3.07626,2.18985-4.37771,3.03925c-1.30185.849-3.22706,2.037-4.27837,2.6407-1.05128.60328-3.07786,1.6803-4.50358,2.39376s-3.71974,1.77924-5.09761,2.36843-3.84924,1.5331-5.49173,2.09735c-1.6429.56426-4.173,1.35091-5.62325,1.74867-1.44985.39775-3.58743.92339-4.75052,1.16833-1.1627.24493-3.09717.61091-4.29847.81279-1.20171.2019-3.30952.49508-4.68416.65194-1.37505.15685-4.16053.36437-6.19032.4617-2.38169.1134-4.99906.1134-7.38035,0-2.02979-.09733-4.81488-.30646-6.18951-.46492s-3.68716-.48985-5.139-.7368c-1.45186-.24652-4.12192-.81361-5.93373-1.25921-1.81141-.446-4.47382-1.18884-5.91643-1.65094s-3.97472-1.37383-5.62687-2.02616c-1.65214-.65274-4.31455-1.81945-5.91683-2.59324-1.60188-.77379-4.01856-2.04226-5.37028-2.81966-1.35172-.777-3.60472-2.16814-5.00671-3.09114-1.40158-.923-3.44987-2.36158-4.551-3.1969-1.10156-.83492-3.02678-2.38451-4.27836-3.44345s-3.5468-3.1961-5.10082-4.74971c-1.55361-1.554-3.69158-3.84924-4.7512-5.10081s-2.60494-3.17681-3.434-4.27837c-.829-1.10116-2.264-3.14945-3.18878-4.551-.92465-1.402-2.19139-3.43821-2.81472-4.52489-.62334-1.0871-1.86458-3.46074-2.75826-5.275s-2.19-4.73443-2.88095-6.48913c-.6907-1.75511-1.63791-4.41952-2.10488-5.92126-.467-1.50214-1.1748-4.07044-1.57291-5.7073-.39816-1.63727-.95924-4.38173-1.24688-6.09862-.28763-1.71729-.65631-4.39218-.81943-5.94418-.16293-1.552-.34354-4.66526-.40121-6.91786-.06266-2.4388-.01806-5.38555.11011-7.28222.11832-1.75228.37632-4.45573.57347-6.00772.197-1.552.68233-4.41913,1.07847-6.3717s1.08592-4.8197,1.5327-6.3717c.44694-1.552,1.11194-3.68194,1.47809-4.73363.3659-1.05129,1.0362-2.85345,1.48954-4.00488s1.59109-3.67872,2.52849-5.616c.93739-1.93689,2.29313-4.551,3.01275-5.80945.71966-1.258,2.05609-3.40725,2.97-4.77626s2.37671-3.43661,3.25088-4.59448,2.38105-3.03523,3.34905-4.17178c.96764-1.137,3.1575-3.45994,4.86554-5.16275,1.70805-1.70323,4.12594-3.94846,5.37269-4.98982,1.24715-1.04132,3.17238-2.56621,4.27837-3.3885,1.106-.82254,3.07585-2.1901,4.3777-3.03918,1.30144-.84908,3.22667-2.03735,4.278-2.64086,1.05129-.6033,3.1406-1.71146,4.64233-2.46225,1.50214-.75094,3.55-1.71472,4.55144-2.14163,1.00143-.42707,2.88563-1.17589,4.18707-1.66393,1.30185-.48808,3.55445-1.24615,5.00631-1.68472s3.66383-1.04735,4.91541-1.35321c1.252-.30565,3.41006-.76514,4.79637-1.02129,1.3863-.256,3.844-.62936,5.46157-.82981,1.61715-.2004,4.71352-.45876,6.88005-.57383a64.52145,64.52145,0,0,1,7.84688.00221c2.14883.11651,5.20981.37339,6.80163.5711,1.59222.19771,4.00045.56453,5.35217.815s3.60471.73784,5.00631,1.08282c1.402.34483,3.774,1.00786,5.27173,1.473,1.49812.46532,4.07848,1.38015,5.73465,2.033,1.65657.653,3.13457,1.227,3.28458,1.27583.16651.054.13111-.03241-.09088-.22156-.20029-.17056-2.08449-1.1524-4.18707-2.18169-2.103-1.02933-5.0795-2.37558-6.615-2.99168s-4.1569-1.56961-5.82594-2.11907c-1.66824-.54961-4.6721-1.40525-6.67454-1.90153s-5.07467-1.14291-6.827-1.43726c-1.75228-.2942-4.292-.66142-5.64375-.81578-1.35172-.15456-4.05516-.36357-6.00733-.4646-1.95257-.10122-4.32863-.17241-5.27978-.15837S152.58648,59.92554,151.04733,60.00549ZM179.44709,75.647a17.06458,17.06458,0,0,0-2.36641.5507,21.54889,21.54889,0,0,0-2.66322,1.14038A11.55048,11.55048,0,0,0,171.231,79.8254a19.20142,19.20142,0,0,0-2.34027,2.777,19.93734,19.93734,0,0,0-1.05812,2.15073,16.76391,16.76391,0,0,0-.70583,2.32643,19.70947,19.70947,0,0,0-.2602,3.21959,14.60779,14.60779,0,0,0,.34909,3.45913,18.03214,18.03214,0,0,0,.83049,2.53693,17.07714,17.07714,0,0,0,1.14258,2.07886,20.03721,20.03721,0,0,0,1.64893,2.064,16.18319,16.18319,0,0,0,2.46494,2.03944,18.37939,18.37939,0,0,0,2.72717,1.46634,18.808,18.808,0,0,0,2.4577.74805,18.01264,18.01264,0,0,0,2.9922.25941,18.773,18.773,0,0,0,3.12573-.27429,17.60345,17.60345,0,0,0,2.61133-.80033,17.82958,17.82958,0,0,0,2.32419-1.19849,17.39,17.39,0,0,0,2.13555-1.70242,18.30136,18.30136,0,0,0,1.881-2.148,16.81227,16.81227,0,0,0,1.35895-2.34952,20.04412,20.04412,0,0,0,.9222-2.61174,12.998,12.998,0,0,0,.36477-3.56731,13.05008,13.05008,0,0,0-.38126-3.64083,19.7684,19.7684,0,0,0-1.079-2.91281,16.82545,16.82545,0,0,0-1.704-2.709,17.57357,17.57357,0,0,0-2.23933-2.24105,18.37272,18.37272,0,0,0-2.68534-1.719,16.99663,16.99663,0,0,0-2.816-1.079,17.34492,17.34492,0,0,0-5.85128-.35062ZM211.452,127.43584a15.80541,15.80541,0,0,1,1.27248,2.39014c.226.58878.48945,1.26767.58557,1.50817.12106.30243.23326.37885.364.24814a5.137,5.137,0,0,0,.29037-1.66622l.10135-1.4768.74766.00242a5.80307,5.80307,0,0,1,1.15746.11221c.33944.09089.41023.23809.415.86226.00441.61292.041.69175.19626.4251a10.87541,10.87541,0,0,1,1.56125-1.41727c1.06336-.845,1.42572-1.04365,1.61555-.8864a6.90437,6.90437,0,0,1,.81884,1.221l.5743,1.01751-.77379.64309a4.70452,4.70452,0,0,0-1.21015,1.62962c-.40058.9053-.41264,1.01349-.148,1.30586.27148.3.3515.25619,1.328-.7203a10.35562,10.35562,0,0,1,1.443-1.25519c.374-.20029.4436-.14559.94834.73759l.545.954-1.17676,1.17074a5.2664,5.2664,0,0,0-1.174,1.46151,6.69525,6.69525,0,0,0,.27308,1.18481,8.02167,8.02167,0,0,1,.27108,1.92844,23.66617,23.66617,0,0,0,.20108,2.52889,11.7483,11.7483,0,0,1-.006,3.2496,17.1421,17.1421,0,0,1-.623,2.95118,12.83046,12.83046,0,0,1-1.08065,2.23571,6.975,6.975,0,0,1-1.42693,1.59141,5.58059,5.58059,0,0,1-1.48966.74806,4.033,4.033,0,0,1-1.83192.00161,9.41585,9.41585,0,0,1-2.08168-.67325,12.61977,12.61977,0,0,1-2.05151-1.37183,15.51936,15.51936,0,0,1-2.00243-2.11746,20.40625,20.40625,0,0,1-1.72173-2.86351,20.07747,20.07747,0,0,1-1.1088-2.82167,13.04582,13.04582,0,0,1-.32255-3.09476,5.68273,5.68273,0,0,1,.38972-2.78428,10.31883,10.31883,0,0,1,.76856-1.39515,3.79075,3.79075,0,0,1,1.2355-.93507,11.72564,11.72564,0,0,0,1.50052-.87312c.3507-.25337.66641-.479.7014-.50192a5.90745,5.90745,0,0,0-.33864-1.25157,11.85765,11.85765,0,0,0-1.17476-2.362l-.77218-1.15143,1.00785-1.00746c.55419-.5542,1.08266-.9616,1.174-.9049A11.12459,11.12459,0,0,1,211.452,127.43584Z" fill="#1b4592" fill-rule="evenodd"/><path d="M211.85655,128.09943c-.13553-.23608-.27389-.4617-.40418-.66a11.64563,11.64563,0,0,0-1.028-1.42251c-.09249-.05389-.61975.35432-1.174.90691l-1.00785,1.00907.77177,1.149a11.93842,11.93842,0,0,1,.74885,1.34166,9.16234,9.16234,0,0,1,.42671,1.01992l.22923.73518a1.77483,1.77483,0,0,1,.10859.51559l-.70179.50433a11.64534,11.64534,0,0,1-1.50013.86951,3.83464,3.83464,0,0,0-1.23589.93949,7.607,7.607,0,0,0-.45205.7569c-.11422.21476-.22562.44-.31531.63866a3.7244,3.7244,0,0,0-.35712,1.39032c-.02816.35432-.0362.7943-.03339,1.38993.00121.57993.02815,1.13816.07762,1.64249a9.49837,9.49837,0,0,0,.24573,1.45467,19.92819,19.92819,0,0,0,1.1084,2.82329,20.74614,20.74614,0,0,0,1.72172,2.86108,15.46977,15.46977,0,0,0,2.002,2.11465,12.48781,12.48781,0,0,0,2.05151,1.37424,9.16764,9.16764,0,0,0,2.08128.67083,6.50244,6.50244,0,0,0,.87514.10216,3.1949,3.1949,0,0,0,.95678-.10216,5.32176,5.32176,0,0,0,1.24272-.58476l.24814-.16127a4.23464,4.23464,0,0,0,.51117-.45607,7.73418,7.73418,0,0,0,.91536-1.13817,12.81712,12.81712,0,0,0,1.08025-2.23289,17.06726,17.06726,0,0,0,.62257-2.952,11.74983,11.74983,0,0,0,.00643-3.24758,23.71419,23.71419,0,0,1-.20108-2.53332,8.025,8.025,0,0,0-.27108-1.92723,6.76129,6.76129,0,0,1-.27388-1.186,5.37349,5.37349,0,0,1,1.17436-1.45991l1.17676-1.17033-.545-.95517c-.50433-.88037-.5743-.93426-.94874-.73558a10.207,10.207,0,0,0-1.44221,1.256c-.97689.97689-1.05611,1.01992-1.32719.71949-.26584-.2952-.25377-.40258.1476-1.30466a4.89788,4.89788,0,0,1,.746-1.17516,3.77536,3.77536,0,0,1,.4641-.45648l.773-.64389-.57431-1.01469a6.83263,6.83263,0,0,0-.81843-1.22383c-.18942-.15564-.55178.043-1.61554.88559-.39212.31129-.769.63343-1.05612.89646a3.55108,3.55108,0,0,0-.50473.52082c-.0752.12869-.12226.177-.15162.12347a1.72557,1.72557,0,0,1-.04544-.54777c-.004-.62257-.07521-.773-.41465-.85864a5.43933,5.43933,0,0,0-1.15706-.11261l-.74846-.00563-.101,1.47639a5.218,5.218,0,0,1-.28956,1.669c-.07642.07521-.14639.08044-.21475.01086a.77067.77067,0,0,1-.15042-.263l-.58516-1.50293A14.17092,14.17092,0,0,0,211.85655,128.09943Z" fill="#1b4592"/><path d="M145.31349,87.272c-1.48685.44875-3.94456,1.30262-5.46157,1.89744-1.517.59522-4.15088,1.77-5.85288,2.61094-1.70242.84135-4.16294,2.179-5.46841,2.97329-1.30547.7939-3.22586,2.04789-4.2675,2.78629s-2.71068,2-3.70968,2.80317c-.99861.80355-2.74768,2.31172-3.88624,3.35175-1.139,1.03963-3.00708,2.92785-4.15168,4.19552-1.1442,1.26766-2.78387,3.20616-3.64373,4.30772-.85986,1.10116-2.32861,3.14945-3.26447,4.551-.93587,1.402-2.29764,3.614-3.02558,4.91541-.72795,1.30185-1.873,3.55445-2.5443,5.00631s-1.64446,3.77846-2.16259,5.17039c-.51828,1.39194-1.25994,3.61719-1.64828,4.94477-.3883,1.328-.95232,3.548-1.25343,4.93351s-.71253,3.62523-.91406,4.97694c-.20174,1.35172-.46388,3.68476-.58256,5.18448-.13617,1.71971-.17679,4.44285-.10995,7.37311a70.42239,70.42239,0,0,0,.4839,7.46844c.20789,1.552.62442,4.027.92553,5.50058.30131,1.47358.87313,3.83034,1.27072,5.23756.39759,1.40682,1.08793,3.5649,1.53394,4.79516s1.22906,3.2158,1.7399,4.41149c.511,1.19566,1.5294,3.32962,2.26378,4.74167.734,1.412,1.99118,3.624,2.79352,4.91541s2.31413,3.49492,3.35939,4.8965c1.04526,1.402,2.67931,3.44988,3.63166,4.55144s2.85989,3.09235,4.239,4.42394c1.37947,1.33162,3.583,3.28337,4.89691,4.33708s3.33124,2.55464,4.48267,3.33566,2.87195,1.89225,3.8231,2.469c.95115.57713,2.71269,1.56569,3.914,2.19709,1.20171.631,3.217,1.59625,4.47905,2.14522,1.26163.549,3.32883,1.373,4.59327,1.83152,1.26445.45807,3.45068,1.15867,4.8575,1.55643,1.40721.39735,3.764.96965,5.23715,1.27088,1.47358.30164,4.031.73035,5.68317.95316a55.38283,55.38283,0,0,0,8.8294.41142,63.93627,63.93627,0,0,0,8.46544-.32174c1.45186-.18058,3.74547-.53209,5.0976-.78144,1.35171-.249,3.44062-.70019,4.64233-1.003,1.20131-.30283,3.20857-.88077,4.46015-1.28455s3.42254-1.18562,4.82413-1.73741c1.402-.55178,3.85809-1.65738,5.45795-2.4569,1.60026-.79953,4.058-2.14843,5.46158-2.997,1.404-.849,3.48648-2.21279,4.62745-3.03082,1.14179-.81842,3.08269-2.3282,4.31376-3.35537,1.23106-1.02756,3.2512-2.87073,4.4895-4.09618,1.23791-1.22583,2.98858-3.09275,3.89027-4.14926.90127-1.05652,2.26264-2.74446,3.02477-3.75112.76253-1.00665,1.99721-2.76375,2.74405-3.90474.74645-1.141,1.82308-2.88562,2.39215-3.877.56868-.99136,1.43738-2.6053,1.93-3.58741.49268-.98171,1.38229-2.92262,1.97711-4.31255.59442-1.38992,1.48886-3.74869,1.98715-5.242.4987-1.49328,1.24071-4.06642,1.64933-5.71856.40821-1.65215.9065-3.96989,1.10679-5.15028.20068-1.18039.485-3.31032.63222-4.73323s.32175-3.8979.3881-5.49978c.06878-1.66983.03056-4.35-.08969-6.2808-.11583-1.85243-.376-4.55587-.57914-6.00773-.20269-1.45186-.57229-3.62281-.82164-4.82411-.249-1.2017-.66078-2.96324-.91456-3.9144s-.74766-2.61737-1.09714-3.70245a9.20969,9.20969,0,0,0-.7207-1.88822,11.56743,11.56743,0,0,0,.3688,2.064c.24935,1.0887.61774,2.96244.818,4.16415.20029,1.2013.452,2.96284.559,3.914.10738.95115.24613,3.24517.30888,5.0972.07039,2.0704.02855,4.52369-.10859,6.36686-.12266,1.64934-.41786,4.24459-.65635,5.76763-.23849,1.52264-.71628,3.94174-1.06215,5.3755-.34547,1.43376-.93185,3.54881-1.30306,4.70065-.37121,1.15143-1.081,3.11728-1.57814,4.36885-.49669,1.252-1.46151,3.42294-2.144,4.82452-.6825,1.402-1.88419,3.61557-2.67046,4.91984-.78666,1.30386-2.08247,3.30026-2.88,4.436-.79751,1.13534-2.28236,3.05857-3.29946,4.27353-1.01751,1.215-3.10924,3.43943-4.64877,4.94316s-3.622,3.39278-4.62785,4.19793-2.61979,2.01491-3.58622,2.689c-.96683.674-2.64231,1.768-3.72376,2.43077-1.08146.66319-3.03161,1.75067-4.33306,2.41709-1.30185.666-3.36542,1.63164-4.58563,2.14562-1.22062.514-3.33928,1.30869-4.7079,1.766s-3.64372,1.12208-5.05576,1.478c-1.41165.35553-3.71733.83894-5.12294,1.07462-1.406.23568-3.49814.53288-4.64957.66117-1.15144.12789-4.1006.23407-6.55388.23568-2.475.00161-5.392-.10175-6.55389-.23286-1.15144-.1295-3.24557-.42873-4.654-.66479-1.40842-.23568-3.57937-.68572-4.82452-.999s-3.39156-.93827-4.77022-1.38791c-1.37826-.44923-3.48206-1.21861-4.67491-1.70885-1.19245-.49025-3.22948-1.42291-4.5257-2.07243-1.29662-.64991-3.08429-1.6083-3.97271-2.12992-.888-.52162-2.59807-1.61073-3.79977-2.4199-1.20131-.80918-3.20857-2.28758-4.46014-3.28459-1.25158-.9974-3.63167-3.16915-5.289-4.82653s-3.82913-4.03745-4.82653-5.289c-.997-1.25157-2.475-3.25844-3.28458-4.46015-.80918-1.20171-1.89788-2.911-2.4191-3.799-.52122-.88761-1.43054-2.576-2.01973-3.75231-.58959-1.176-1.48846-3.12815-1.99762-4.33869-.50916-1.20975-1.28777-3.28982-1.73016-4.62183-.4428-1.33161-1.05854-3.40483-1.36861-4.60614-.31008-1.2017-.76012-3.24959-1.00062-4.55144-.2401-1.30145-.57672-3.59546-.74765-5.0972a65.711,65.711,0,0,1-.31732-6.91825c-.00362-2.30287.0917-5.129.21155-6.2804.12025-1.15184.42872-3.36341.68571-4.91542.25659-1.552.74926-3.92806,1.09513-5.27978s.99257-3.54721,1.43778-4.87922c.44481-1.332,1.22584-3.41327,1.7354-4.625.51-1.21176,1.34126-3.03041,1.8476-4.04109s1.29421-2.49309,1.75068-3.29423c.45607-.80113,1.42813-2.38129,2.16009-3.51141.73157-1.13012,1.96384-2.89125,2.73843-3.914.77419-1.02274,2.2349-2.80157,3.24638-3.953s2.77462-2.985,3.91881-4.07446c1.14379-1.0899,2.93992-2.66885,3.99121-3.5094,1.05129-.84015,2.63748-2.04587,3.52468-2.6793.88721-.633,2.44363-1.67185,3.45873-2.3089,1.0155-.63665,3.23874-1.8645,4.94115-2.728,1.702-.86428,4.3029-2.04547,5.7801-2.62533,1.4768-.57986,2.68533-1.08487,2.68533-1.1222,0-.03712-.10255-.0635-.22763-.05843s-1.44422.37631-2.93107.82506Z" fill="#3070b3" fill-rule="evenodd"/></svg>