<svg id="Layer_1" data-name="Layer 1" xmlns="http://www.w3.org/2000/svg" xmlns:xlink="http://www.w3.org/1999/xlink" viewBox="0 0 300 300"><defs><linearGradient id="linear-gradient" x1="178.24687" y1="75.73383" x2="119.44028" y2="225.8223" gradientUnits="userSpaceOnUse"><stop offset="0" stop-color="#fff"/><stop offset="1" stop-color="#d9d9d9"/></linearGradient><linearGradient id="linear-gradient-2" x1="177.30733" y1="66.81236" x2="115.86761" y2="241.47671" gradientUnits="userSpaceOnUse"><stop offset="0" stop-color="#d9d9d9"/><stop offset="1" stop-color="#fff"/></linearGradient></defs><path d="M122.68471,100.73719c-4.01794-5.79153-7.19243-12.08311-10.72609-18.15955q-15.276-26.26851-30.38108-52.63629c-.35528-.61654-.62768-1.28076-.8806-1.80282.36754-.96315,1.06845-.77763,1.61093-.7775q43.969.01094,87.938.05508a45.3152,45.3152,0,0,1-3.56124,6.99691c-2.003,3.65412-4.49431,7.05444-5.82747,11.06107a.85517.85517,0,0,0-.60873.85256l-.04085.07593a2.63766,2.63766,0,0,0-1.47113,2.82388l-.02443.03791c-1.32165.18581-1.4119,1.12965-1.33993,2.17336l-.764,1.50854c-.744.20982-.773.805-.76634,1.41946l-.00661.03521c-.819.11547-1.353.44278-1.04145,1.39871a1.99209,1.99209,0,0,0-.47272,1.46168l-1.36658,1.4786a1.76786,1.76786,0,0,0-1.53279.73521c-1.42016,2.09518-2.88735,4.15873-4.28867,6.26616-.1678.25235-.0402.70083-.04951,1.0584q-10.72184,16.04008-21.44569,32.07881c-.64432.96327-.94617,2.33186-2.53793,2.21886l-.24091-.04872-.07239-.23471Z" fill="#2eaddf"/><path d="M177.06129,200.29581c2.1392,1.4333,2.78261,3.88976,4.001,5.93543q18.22916,30.60582,36.37892,61.25878a11.60715,11.60715,0,0,1,1.94525,4.377H129.61557a3.23456,3.23456,0,0,1,.70659-2.68628c1.713-2.91448,3.2234-5.95147,5.00792-8.81945,2.73339-4.39295,4.71776-9.22243,7.8625-13.36983a69.39709,69.39709,0,0,0,9.70553-14.494,1.73935,1.73935,0,0,0,.10283-.62145l.663-.80217.01349-.01119a.83635.83635,0,0,0,.68925-.74837l.00983-.01216a.851.851,0,0,0,.65987-.74508l.041-.0423a.63953.63953,0,0,0,.6332-.70168l.05718-.09319a1.77121,1.77121,0,0,0,1.41587-2.09209c1.08042-1.42787,2.216-2.81772,3.23184-4.29,4.68617-6.7916,9.33276-13.61045,14.01131-20.40731A2.96489,2.96489,0,0,1,177.06129,200.29581Z" fill="#2eaee0"/><path d="M151.48816,231.84305q10.118-18.0586,20.23736-36.11649c.51541-.91953.809-2.133,2.30417-1.8198.92617,2.16967,2.7523,3.91294,3.0316,6.389a2.96489,2.96489,0,0,0-2.63446,1.63469c-4.67855,6.79686-9.32514,13.61571-14.01131,20.40731-1.01588,1.47231-2.15142,2.86216-3.23184,4.29-1.46089.02907-1.352,1.11894-1.41587,2.09209l-.0572.09319-.63318.70168-.041.0423a.89356.89356,0,0,0-.65987.74508l-.00983.01216a.86455.86455,0,0,0-.68925.74837l-.01349.01119a.75962.75962,0,0,0-.663.80217,1.73958,1.73958,0,0,1-.10284.62145C152.33048,232.48942,151.76242,232.48224,151.48816,231.84305Z" fill="#366c81"/><path d="M147.90861,67.6698c-4.09253,7.446-8.16319,14.904-12.28559,22.33345q-3.88764,7.00635-7.91363,13.93566c-.552.95445-.72657,2.50463-2.48267,2.0916-.5536-1.71128-2.15352-2.9721-2.127-4.93314,1.59176.113,1.89361-1.25559,2.53793-2.21886q10.72668-16.03683,21.44569-32.07881A1.30534,1.30534,0,0,1,147.90861,67.6698Z" fill="#397085"/><path d="M122.68471,100.73719l.10175.07675Z" fill="#397085"/><path d="M147.90861,67.6698a1.30534,1.30534,0,0,0-.82523-.8701c.00931-.35757-.11829-.806.04951-1.0584,1.40132-2.10743,2.86851-4.171,4.28867-6.26616a1.76786,1.76786,0,0,1,1.53279-.73521A37.50666,37.50666,0,0,1,147.90861,67.6698Z" fill="#4c90ab"/><path d="M160.20753,46.40258a3.3031,3.3031,0,0,0,.05481.67417,2.17664,2.17664,0,0,1-1.52594,2.14971A2.63766,2.63766,0,0,1,160.20753,46.40258Z" fill="#d3d3d3"/><path d="M158.712,49.26437c.01347,1.00769.22506,2.13733-1.33993,2.17336C157.30007,50.394,157.39032,49.45018,158.712,49.26437Z" fill="#d3d3d3"/><path d="M156.60805,52.94627c.4289.22619.6153.54951.34479,1.17473l-1.11113.24473C155.835,53.75126,155.86409,53.15609,156.60805,52.94627Z" fill="#d3d3d3"/><path d="M155.83509,54.40094l-.05242,1.44817-.989-.04946C154.48211,54.84372,155.01613,54.51641,155.83509,54.40094Z" fill="#d7dddf"/><path d="M154.79365,55.79965l.989.04946c.05681,1.033-.47086,1.462-1.46175,1.41222A1.99209,1.99209,0,0,1,154.79365,55.79965Z" fill="#d3d3d3"/><path d="M160.85711,45.47409a.8549.8549,0,0,1-.60873.85256A.85517.85517,0,0,1,160.85711,45.47409Z" fill="#d3d3d3"/><path d="M151.48815,231.84305c.27427.63919.84233.64637,1.41.65447a69.39709,69.39709,0,0,1-9.70553,14.494c.96442-3.668,3.40533-6.58679,5.03893-9.91517.36694-.74762.72883-1.49771,1.093-2.24664Q150.40637,233.33639,151.48815,231.84305Z" fill="#417e94"/><path d="M155.76781,228.71993c.06383-.97315-.045-2.063,1.41589-2.09209A1.77124,1.77124,0,0,1,155.76781,228.71993Z" fill="#417e94"/><path d="M155.07743,229.5148l.63318-.70168A.6395.6395,0,0,1,155.07743,229.5148Z" fill="#417e94"/><path d="M154.37652,230.30218a.89356.89356,0,0,1,.65987-.74508A.851.851,0,0,1,154.37652,230.30218Z" fill="#417e94"/><path d="M153.67744,231.06271a.86455.86455,0,0,1,.68925-.74837A.83635.83635,0,0,1,153.67744,231.06271Z" fill="#417e94"/><path d="M153.00094,231.87607a.75964.75964,0,0,1,.663-.80217Z" fill="#417e94"/><path d="M158.003,59.48183c-.47512-.04439-.95339-.082-1.23742-.59257.21772-1.25149,1.24878-.72811,1.97419-.87149Z" fill="#e1e1e1"/><polygon points="170.461 27.347 80 185.671 127.899 272.653 220 109.982 170.461 27.347" fill="url(#linear-gradient)"/><polygon points="169.347 37.768 211.633 109.94 128.015 262.232 84.458 190.06 169.347 37.768" fill="url(#linear-gradient-2)"/></svg>