<?xml version="1.0" encoding="UTF-8"?>
<svg id="Layer_1" xmlns="http://www.w3.org/2000/svg" viewBox="0 0 300 300">
  <defs>
    <style>
      .cls-1 {
        fill: #f16522;
      }
    </style>
  </defs>
  <g id="g34">
    <g id="g32">
      <g id="g30">
        <g id="g28">
          <g id="g26">
            <path id="path12" class="cls-1" d="M123.71,174.49l6.39,8.94c-4.11,4.11-18.89,17.35-40.84,17.35-30.88.26-32.89-22.71-63.54-22.71h-9.18l-1.54-9.18,34.7-35.47h-26.79l2.04-10.96h44.19l-1.78,9.95-33.98,34.44c25.77,0,32.15,23.22,57.67,23.22,15.57.26,28.33-10.72,32.66-15.57Z"/>
            <path id="path14" class="cls-1" d="M100.5,121.16c-18.89,0-32.15,16.34-32.15,35.21,0,13.28,8.68,22.97,22.71,22.97,18.89,0,32.15-16.32,32.15-34.96.26-12.5-7.66-23.22-22.71-23.22ZM93.09,169.13c-6.63,0-10.96-5.36-10.96-13.01,0-10.47,6.13-24.51,16.84-24.51,8.22,0,10.72,7.15,10.72,12.76-.01,10.98-6.65,24.75-16.6,24.75Z"/>
            <path id="path16" class="cls-1" d="M179.6,136.98c0-9.18-6.85-15.56-17.82-15.56-19.19,0-31.65,18.37-31.65,34.95,0,13.53,7.4,22.97,22.96,22.97,6.79.05,13.51-1.43,19.65-4.33l-1.54-9.7c-4.74,2.41-9.99,3.64-15.31,3.58-5.36,0-9.18-2.04-11.49-5.62-1.21-2.45-1.74-5.18-1.52-7.91,21.64.26,36.7-4.08,36.7-18.38ZM159.95,131.11c4.34,0,7.15,2.3,7.15,5.62,0,6.63-8.69,8.68-22.46,8.42,1.25-6.63,6.89-14.03,15.31-14.03h0Z"/>
            <path id="path18" class="cls-1" d="M271.23,131.11c3.65-.08,7.25.8,10.46,2.55l3.32-9.64c-2.55-1.54-7.4-2.81-13.02-2.81-13.01,0-22.45,7.66-22.45,18.38,0,6.37,4.59,10.96,10.96,14.54,5.36,2.74,7.4,5.1,7.4,8.68s-3.32,6.63-8.68,6.85c-4.66-.24-9.2-1.55-13.27-3.84l-3.32,9.7c3.07,2.3,8.94,4.11,15.57,4.11,13.27,0,23.74-6.85,23.74-19.19,0-7.14-5.36-11.73-11.49-15.08-4.61-2.3-7.15-4.59-7.15-7.66-.51-3.8,2.81-6.61,7.92-6.61Z"/>
            <path id="path20" class="cls-1" d="M232.23,107.38c-.17-4.33,3.19-7.97,7.52-8.15.13,0,.26,0,.39,0,3.88-.07,7.08,3.03,7.15,6.91,0,.16,0,.33,0,.49.04,4.34-3.45,7.88-7.79,7.92-.14,0-.29,0-.43,0-3.74.04-6.8-2.97-6.84-6.7,0-.15,0-.3.01-.45Z"/>
            <polygon id="polygon22" class="cls-1" points="219.67 178.07 232.93 178.07 243.66 122.44 230.38 122.44 219.67 178.07"/>
            <path id="path24" class="cls-1" d="M205.63,168.63c-3.82,0-5.87-2.55-4.85-7.4l5.62-28.58h12.5l2.04-10.21h-12.5l2.81-14.29-13.79,4.11-2.04,10.21h-7.91l-2.04,10.21h7.91l-5.87,29.34c-2.04,10.47,3.32,17.1,15.57,17.1,2.92-.18,5.83-.6,8.68-1.27l.51-10.47c-2.14.74-4.37,1.16-6.63,1.25Z"/>
          </g>
        </g>
      </g>
    </g>
  </g>
</svg>