<svg id="Layer_1" data-name="Layer 1" xmlns="http://www.w3.org/2000/svg" viewBox="0 0 300 300"><path d="M54.97236,129.185a15.04461,15.04461,0,0,1,3.01376-.07455c0,1.00863.00172,1.944-.00027,2.87943q-.02412,11.29326-.0465,22.58651c-.00356,4.46263,1.118,8.51724,4.39888,11.75587a14.70122,14.70122,0,0,0,10.58788,4.23017,14.75128,14.75128,0,0,0,10.80054-4.02761,14.24753,14.24753,0,0,0,4.38684-9.10089c.10863-1.08006.11868-2.17317.12-3.26036q.01407-11.83824.00957-23.67649a2.30965,2.30965,0,0,1,.15454-1.28488,10.52923,10.52923,0,0,1,2.91847-.08934,2.51627,2.51627,0,0,1,.22916,1.57487q.01128,22.31579.00077,44.63157a20.30271,20.30271,0,0,1-1.85716,8.96957,16.30716,16.30716,0,0,1-11.08424,9.07871,19.07753,19.07753,0,0,1-14.73794-1.76132A17.14757,17.14757,0,0,1,55.50994,179.735a16.51582,16.51582,0,0,1,3.26735-.08593,16.61227,16.61227,0,0,0,2.47707,5.368,13.80763,13.80763,0,0,0,9.43145,5.63386,15.50153,15.50153,0,0,0,12.227-2.87673,13.3161,13.3161,0,0,0,5.13353-9.40593c.4396-4.04956.15867-8.13193.177-12.49026-.71069.8888-1.207,1.57563-1.76993,2.20281-3.78315,4.21517-8.6249,5.81788-14.15686,5.63829a17.938,17.938,0,0,1-10.05913-3.28091,17.325,17.325,0,0,1-7.0828-11.1926,20.73183,20.73183,0,0,1-.31649-4.05841q-.00291-12.31449-.00017-24.629A3.27358,3.27358,0,0,1,54.97236,129.185Z" fill="#1876b5"/><path d="M182.84076,159.226a18.82352,18.82352,0,0,1,3.26565.00459,15.883,15.883,0,0,1-1.84455,4.22829c-3.66091,6.34416-9.22567,9.61591-16.48679,10.18945a22.00075,22.00075,0,0,1-11.90639-2.075,21.68921,21.68921,0,0,1-12.46255-18.06112,22.54235,22.54235,0,0,1,8.09084-20.487A20.70164,20.70164,0,0,1,179.882,134.236a23.23789,23.23789,0,0,1,5.37936,8.20173l-37.53488,15.81188a18.327,18.327,0,0,0,5.48883,7.8692c6.05468,5.22318,16.03724,5.96748,22.77271,1.67142a17.39648,17.39648,0,0,0,6.08777-6.99624C182.32278,160.31105,182.55207,159.81908,182.84076,159.226Zm-2.05064-18.34854a3.06473,3.06473,0,0,0-.06967-.44262,1.94409,1.94409,0,0,0-.17826-.3639c-3.49616-5.45944-8.35193-8.71176-14.94183-8.98286a17.28706,17.28706,0,0,0-13.9717,6.04141,20.1317,20.1317,0,0,0-5.14016,11.86021,15.47716,15.47716,0,0,0,.4182,6.05142Z" fill="#1a77b5"/><path d="M289.823,172.73786a16.52022,16.52022,0,0,1-3.0329-.07942v-9.81967a5.00947,5.00947,0,0,0-1.15528,1.47368,19.97377,19.97377,0,0,1-13.38335,9.00922c-9.05957,1.586-16.38274-1.56454-21.6675-8.99514a23.48073,23.48073,0,0,1,6.5212-33.09389,20.97686,20.97686,0,0,1,27.20421,4.28318,23.6822,23.6822,0,0,1,5.683,15.75521c-.0293,6.66791-.00422,13.33606-.01081,20.00409A3.001,3.001,0,0,1,289.823,172.73786ZM286.79059,152.441c.00356-5.92829-1.3136-9.90937-3.86841-13.47245a17.91881,17.91881,0,0,0-27.63181-2.13594,20.45415,20.45415,0,0,0-1.49139,26.52825,17.86554,17.86554,0,0,0,22.05373,5.434C283.15672,165.15666,286.53859,158.95049,286.79059,152.441Z" fill="#1a77b5"/><path d="M266.46333,105.72277a16.90136,16.90136,0,0,1,.04935,3.198,26.107,26.107,0,0,1-4.35736.87986,42.92207,42.92207,0,0,0-11.42235,3.31214,31.03709,31.03709,0,0,0-14.43025,13.04049,32.5202,32.5202,0,0,0-3.61367,10.14628,66.62142,66.62142,0,0,0-1.02886,12.83486,86.86613,86.86613,0,0,1-.24426,9.37377,45.96042,45.96042,0,0,1-4.18716,16.0353,27.91062,27.91062,0,0,1-5.60449,7.95425,38.35857,38.35857,0,0,1-14.94308,9.0806,63.18569,63.18569,0,0,1-11.52321,2.43584c-.56463.0705-1.10992.46547-1.78261.12939a10.29821,10.29821,0,0,1-.04345-2.97343,1.60572,1.60572,0,0,1,1.05856-.40491,69.22611,69.22611,0,0,0,9.28381-1.89076c8.63654-2.636,15.6274-7.3869,20.02919-15.47933a35.59856,35.59856,0,0,0,3.6896-11.40634,73.541,73.541,0,0,0,.73336-13.2764,65.3672,65.3672,0,0,1,.38-8.8216c.79123-6.716,2.63408-13.08584,6.58686-18.70384a32.84,32.84,0,0,1,8.15126-7.86369,37.45163,37.45163,0,0,1,11.9785-5.54117A74.637,74.637,0,0,1,266.46333,105.72277Z" fill="#90c34b"/><path d="M49.16485,114.25791v2.92875L13.78208,169.45852H49.9874c.41,1.11447.13529,2.10169.24,3.19088H10v-3.29729l35.31054-52.13357H11.08066a6.8205,6.8205,0,0,1-.02126-3.124c.35623.31461.784.14605,1.17306.14646Q30.69865,114.26069,49.16485,114.25791Z" fill="#1a77b5"/><path d="M123.80924,159.46512c1.25985-2.85472,2.21031-5.82582,3.28646-8.74931q6.72666-18.2738,13.44571-36.601a16.55728,16.55728,0,0,1,3.48695-.11073c-7.22555,19.65119-14.40056,39.165-21.57763,58.68428a22.63894,22.63894,0,0,1-3.4562.02336c-7.19821-19.49294-14.3995-38.99419-21.65924-58.65377a22.67961,22.67961,0,0,1,3.427-.0328c.72951,1.95668,1.47369,3.93422,2.20477,5.91658q7.81746,21.19746,15.6306,42.39651a28.45659,28.45659,0,0,0,1.41848,3.65974,5.91117,5.91117,0,0,0,.68828,2.00167,5.66171,5.66171,0,0,0,.70112-1.96243l-.01343-.00219A46.145,46.145,0,0,0,123.80924,159.46512Z" fill="#1a77b5"/><path d="M214.93089,128.22982c.0441.39962.0859.61892.08921.83881.00946.62924.00334,1.25871.00334,1.88557a2.75584,2.75584,0,0,1-1.64953.161,20.55891,20.55891,0,0,0-6.58367.77712c-5.08228,1.56317-8.02174,5.02551-9.14167,10.14739a27.18229,27.18229,0,0,0-.427,5.81795q-.01449,11.77029-.00053,23.54061a1.97608,1.97608,0,0,1-.20644,1.28041,13.39281,13.39281,0,0,1-2.64724.06488c-.40064-.29981-.30469-.64269-.30464-.944.0016-8.84475-.01563-17.68965.03013-26.5342a18.09244,18.09244,0,0,1,2.67467-9.56719,15.712,15.712,0,0,1,11.14276-7.25648A29.47445,29.47445,0,0,1,214.93089,128.22982Z" fill="#1876b5"/><path d="M49.16485,114.25791q-18.4662-.00423-36.93239-.01693c-.389-.00041-.81683.16815-1.17306-.14646a2.6524,2.6524,0,0,1,1.20789-.10115q17.838-.00636,35.67607.01287C48.34563,114.00686,48.85544,113.72076,49.16485,114.25791Z" fill="#626263"/></svg>