<svg id="Layer_1" data-name="Layer 1" xmlns="http://www.w3.org/2000/svg" xmlns:xlink="http://www.w3.org/1999/xlink" viewBox="0 0 300 300"><defs><linearGradient id="linear-gradient" x1="219.95426" y1="221.99938" x2="66.29171" y2="104.82291" gradientUnits="userSpaceOnUse"><stop offset="0" stop-color="#297bc7"/><stop offset="1" stop-color="#75d1ee"/></linearGradient><linearGradient id="linear-gradient-2" x1="242.95711" y1="191.83397" x2="89.29456" y2="74.65751" xlink:href="#linear-gradient"/><linearGradient id="linear-gradient-3" x1="254.04474" y1="177.29391" x2="100.38219" y2="60.11744" xlink:href="#linear-gradient"/><linearGradient id="linear-gradient-4" x1="201.24494" y1="246.53436" x2="47.58239" y2="129.3579" xlink:href="#linear-gradient"/><linearGradient id="linear-gradient-5" x1="197.35104" y1="251.64073" x2="43.68849" y2="134.46426" xlink:href="#linear-gradient"/><linearGradient id="linear-gradient-6" x1="291.81691" y1="127.76034" x2="138.15436" y2="10.58387" xlink:href="#linear-gradient"/><linearGradient id="linear-gradient-7" x1="294.81683" y1="123.82631" x2="141.15428" y2="6.64985" xlink:href="#linear-gradient"/><linearGradient id="linear-gradient-8" x1="200.60332" y1="247.37577" x2="46.94077" y2="130.19931" xlink:href="#linear-gradient"/><linearGradient id="linear-gradient-9" x1="200.50436" y1="247.50553" x2="46.84182" y2="130.32907" xlink:href="#linear-gradient"/><linearGradient id="linear-gradient-10" x1="199.52813" y1="248.78575" x2="45.86558" y2="131.60928" xlink:href="#linear-gradient"/><linearGradient id="linear-gradient-11" x1="292.99973" y1="126.20922" x2="139.33718" y2="9.03276" xlink:href="#linear-gradient"/><linearGradient id="linear-gradient-12" x1="292.1271" y1="127.35357" x2="138.46455" y2="10.1771" xlink:href="#linear-gradient"/><linearGradient id="linear-gradient-13" x1="284.50409" y1="137.3502" x2="130.84154" y2="20.17374" xlink:href="#linear-gradient"/><linearGradient id="linear-gradient-14" x1="284.75279" y1="137.02407" x2="131.09024" y2="19.8476" xlink:href="#linear-gradient"/></defs><path d="M124.64618,130.13143c7.2419-10.41675,5.37518-23.79869-3.16287-30.91253-7.73167-6.44224-20.78594-7.65523-28.58681-1.62149-4.43737,3.43216-7.87161,7.61265-9.19791,13.34009-1.622,7.00686.19251,13.17435,4.07052,18.84815C75.29236,142.19658,77.10806,158.54685,86.759,167.904a27.72752,27.72752,0,0,0,37.92079.4C134.9056,158.973,136.84963,143.13709,124.64618,130.13143ZM106.13594,108.703a7.31836,7.31836,0,1,1-7.55424,7.02083A7.38775,7.38775,0,0,1,106.13594,108.703Zm-.4488,51.69224A11.45018,11.45018,0,0,1,94.665,149.23857a11.21533,11.21533,0,0,1,22.41918-.03276C117.15225,155.115,111.692,160.47571,105.68714,160.39525Z" fill="url(#linear-gradient)"/><path d="M212.94518,109.26933c-2.43264,1.85821-8.02546,8.71891-9.78046,11.99789,11.59461,10.85424,10.31972,24.87169,4.444,33.16127a26.24424,26.24424,0,0,1-13.16561,10.182c-8.30069,2.80946-16.02077,1.09176-23.73891-2.98476-5.851,7.24562-11.56523,14.32153-17.279,21.3974l.48823.62125c4.63838-2.03772,9.27676-4.0754,13.81116-6.0676,25.63385,10.88091,47.46893-2.2703,56.01316-19.39707C232.12921,141.35865,227.4023,119.38209,212.94518,109.26933Z" fill="url(#linear-gradient-2)"/><path d="M160.82241,165.45122c3.09445-3.83544,6.2059-7.69185,9.53306-11.81587a25.12389,25.12389,0,0,1-3.256-35.64615c8.47929-10.116,22.64107-12.34,35.21793-4.7746q8.67045-10.7418,17.3923-21.5469c-5.16411,1.3453-9.552,3.72049-14.495,5.33309-26.63273-10.39693-48.53507,2.8097-56.704,21.7253C140.61283,137.01406,148.128,157.90293,160.82241,165.45122Z" fill="url(#linear-gradient-3)"/><path d="M35,108.52524H45.81955v65.32713H60.98523V93.73959H35Z" fill="url(#linear-gradient-4)"/><path d="M139.9893,201.6259c3.93252-4.1315,8.21681-4.33556,15.17845-.60478,1.702-1.84821,3.44235-3.73773,5.15831-5.60141-5.68288-6.83354-16.59868-7.09481-23.13278-2.34852-7.39922,5.37493-11.774,14.32235-5.81392,25.83844.00966,3.29058-1.63749,5.97439-1.78748,9.508a109.31733,109.31733,0,0,0,10.46778-11.52343C135.88979,210.30509,135.91955,205.90145,139.9893,201.6259Z" fill="url(#linear-gradient-5)"/><path d="M237.65089,81.06449a10.09706,10.09706,0,0,1,5.6651-3.32837c3.58809-.715,6.686.45929,9.58718,2.77718,1.93244-2.06807,3.6855-3.94446,5.40726-5.78745-6.10965-6.943-16.03778-6.882-22.22474-3.08116-9.07382,5.57445-11.2494,14.18053-6.79,27.04312-.52225,2.60481-1.06923,5.33135-1.61584,8.05783,3.75393-3.32716,7.36946-6.52776,10.25323-10.64C234.00984,90.11821,233.96771,85.19014,237.65089,81.06449Z" fill="url(#linear-gradient-6)"/><path d="M262.28586,80.89276c.034-2.8181,1.75113-5.44312,1.60965-8.84343a117.54689,117.54689,0,0,0-10.26019,10.96939c4.09913,6.69848,4.19577,10.67366.4059,15.10818a10.21586,10.21586,0,0,1-5.23138,3.3132c-3.851,1.0298-7.15144-.42769-10.31624-2.57438-1.76466,2.05831-3.3662,3.92687-4.9256,5.7458,4.16832,6.38217,15.9941,7.22039,22.655,2.66889C263.69025,102.17805,268.18676,93.03837,262.28586,80.89276Z" fill="url(#linear-gradient-7)"/><path d="M164.27133,201.47113c.02629-2.82076,1.7867-5.35507,1.5424-8.79912-3.68551,3.98973-7.24576,7.387-10.11523,11.30469,4.11343,6.36222,4.01988,11.3703-.14458,15.57066-3.77595,3.80824-8.58868,3.89691-14.8201.15255-1.7233,1.86227-3.47714,3.75813-5.20083,5.62127,4.909,6.73883,16.25348,6.78034,21.9785,3.22056C164.58213,224.1452,170.92372,214.6926,164.27133,201.47113Z" fill="url(#linear-gradient-8)"/><path d="M174.22962,229.35918c2.22351-2.82235,5.03809-2.0009,7.73515-1.2328,1.85009-2.11422,3.55639-4.06409,5.2623-6.014l-.29689-.77429c-2.20071,1.65353-4.05158.12641-5.99947-.33443a11.87923,11.87923,0,0,0-13.35,6.56038,10.25853,10.25853,0,0,0,3.24521,13.12628c1.28107-1.44281,2.56137-2.88455,3.89231-4.38306C173.3382,234.00187,172.31767,231.78666,174.22962,229.35918Z" fill="url(#linear-gradient-9)"/><path d="M187.80653,224.50563a25.13056,25.13056,0,0,0-3.79143,4.64974c1.898,2.08541,2.2587,4.42906.49094,6.73283-2.11953,2.7623-4.98861,2.25029-7.84416,1.30616-1.74225,1.95306-3.39172,3.80244-5.04157,5.65181,1.79443-.44682,3.23786.32732,4.834.85522a11.68756,11.68756,0,0,0,14.10264-5.60566C193.22693,233.32731,192.19171,228.13629,187.80653,224.50563Z" fill="url(#linear-gradient-10)"/><path d="M206.08135,75.54435c1.13843-1.38656,2.2873-2.78577,3.37355-4.10864-2.62864-6.51656-.45-10.24454,7.82406-8.79777a25.74116,25.74116,0,0,0,4.77329-6.16338c-1.71673,1.36124-3.04728.42329-4.49613-.08142a11.73877,11.73877,0,0,0-15.006,6.659A9.8909,9.8909,0,0,0,206.08135,75.54435Z" fill="url(#linear-gradient-11)"/><path d="M219.28213,63.802c1.17748,2.42482,2.12727,4.74092.12138,7.047-2.12262,2.43975-4.68284,2.554-7.67214,1.07532-1.35722,2.23971-3.53861,3.55248-4.667,5.79629a17.30476,17.30476,0,0,1,5.13551,1.12452,11.83435,11.83435,0,0,0,13.49109-5.55c2.54475-4.44254,1.716-11.11454-2.62786-13.793C221.43761,60.58794,220.53731,62.32332,219.28213,63.802Z" fill="url(#linear-gradient-12)"/><path d="M207.0064,77.79966c-.13685.1326-.27794.26954-.52418.50853C206.92522,78.21319,207.24955,78.20478,207.0064,77.79966Z" fill="url(#linear-gradient-13)"/><path d="M207.0064,77.79966l.02783-.02672c.00889-.01836.02088-.03416.03015-.05238-.03633,0-.07112-.00348-.10746-.00294C206.979,77.74869,206.99016,77.77241,207.0064,77.79966Z" fill="url(#linear-gradient-14)"/></svg>