<svg id="Layer_1" data-name="Layer 1" xmlns="http://www.w3.org/2000/svg" viewBox="0 0 300 300"><title>FDMT_Mark_Light</title><polyline points="149.871 46.605 242.552 103.66 242.552 196.082 150.129 253.395" fill="#004987"/><polyline points="150.129 253.395 57.448 196.082 57.448 103.66 149.871 46.605" fill="#004987"/><polygon points="149.871 119.408 105.209 119.408 127.669 83.006 149.871 46.605 172.331 83.006 194.792 119.408 149.871 119.408" fill="#004987"/><polygon points="150.129 253.395 149.871 211.572 242.552 196.082 150.129 253.395" fill="#006199"/><polygon points="242.552 103.66 194.792 119.408 149.871 46.605 242.552 103.66" fill="#006199"/><polygon points="57.448 103.66 105.467 119.408 150.129 46.605 57.448 103.66" fill="#006199"/><polygon points="194.792 119.408 242.552 103.66 242.552 196.082 194.792 119.408" fill="#004987"/><polygon points="105.467 119.408 57.448 103.66 57.448 196.082 105.467 119.408" fill="#004987"/><polygon points="150.129 253.395 150.129 211.572 57.448 196.082 150.129 253.395" fill="#004987"/><polygon points="194.792 119.408 149.871 211.572 242.552 196.082 194.792 119.408" fill="#266fa2"/><polygon points="105.467 119.408 150.129 211.572 57.448 196.082 105.467 119.408" fill="#266fa2"/><polygon points="149.871 119.408 105.209 119.408 127.669 165.361 149.871 211.572 172.331 165.361 194.792 119.408 149.871 119.408" fill="#5f8db6"/></svg>