<svg id="Layer_1" data-name="Layer 1" xmlns="http://www.w3.org/2000/svg" viewBox="0 0 300 300"><path d="M91.72034,138.38177,99.893,143.479,38.66014,238.94687H146.88582v9.60994a1.97392,1.97392,0,0,1-1.23269.15247q-57.65715.00723-115.31431.00127c-3.51936-.0004-5.71166-2.385-5.28626-5.68225a5.67341,5.67341,0,0,1,.99932-2.32489q6.68878-10.46514,13.38774-20.92378,18.71148-29.23255,37.42391-58.4645,6.96583-10.881,13.9425-21.755A3.49087,3.49087,0,0,1,91.72034,138.38177Z" fill="#036fb6"/><path d="M201.49645,181.65058c-.18124,6.72559-.69244,13.40488-2.84887,19.85108-1.88408,5.63205-4.7959,10.56132-9.56663,14.2697a18.71212,18.71212,0,0,1-9.62536,3.82317,25.785,25.785,0,0,1-12.3062-1.21054c-4.85315-1.87441-8.28661-5.383-10.95849-9.69512a38.43,38.43,0,0,1-4.99689-13.92578,73.38144,73.38144,0,0,1-1.138-13.41746c.10034-7.36051.88856-14.62091,3.60893-21.55645a25.48154,25.48154,0,0,1,8.54289-11.76089,22.8447,22.8447,0,0,1,15.55312-4.147,21.57727,21.57727,0,0,1,13.87677,6.06559,26.23514,26.23514,0,0,1,6.19444,9.73252A52.72155,52.72155,0,0,1,201.242,175.8373C201.35591,177.77277,201.54754,179.70437,201.49645,181.65058Zm-11.84036.08548a66.57575,66.57575,0,0,0-.98668-12.22685,28.37291,28.37291,0,0,0-3.71728-10.02783,10.83817,10.83817,0,0,0-18.09047-.37989,27.86033,27.86033,0,0,0-4.06339,10.93139,67.974,67.974,0,0,0-.78657,15.69665,48.4381,48.4381,0,0,0,1.92886,12.439,23.081,23.081,0,0,0,4.27206,7.925c3.37148,4.062,11.44141,4.16675,14.92445.22734a21.72006,21.72006,0,0,0,4.42368-7.993C189.3108,192.79819,189.50749,187.08762,189.65609,181.73606Z" fill="#046b37"/><path d="M159.69193,248.71707v-9.66114h101.82c-12.8905-20.91326-25.62364-41.5712-38.42714-62.34327,2.81425-1.71208,5.5424-3.37176,8.343-5.07553,1.9788,3.20349,3.91566,6.33228,5.846,9.46514q16.48263,26.751,32.96182,53.504,1.97037,3.1989,3.92189,6.40936a4.90621,4.90621,0,0,1-4.17325,7.696c-.23681.00646-.47389.0021-.71086.0021q-54.09836.00172-108.19668.00335C160.65762,248.71709,160.2386,248.71707,159.69193,248.71707Z" fill="#083772"/><path d="M206.6043,130.75613l-8.33973,4.80842c-16.06592-23.23147-32.07483-46.3805-48.19658-69.69272-14.93171,23.28665-29.80188,46.47731-44.74611,69.78347l-8.007-5.59875c2.00079-3.153,3.94893-6.22441,5.89844-9.295q14.90574-23.4772,29.81265-46.95369,6.35316-10.00351,12.71254-20.003a4.94911,4.94911,0,0,1,8.55447-.15633c3.09875,4.58625,6.23091,9.14992,9.34537,13.72559q10.942,16.07561,21.88051,32.15362,10.10448,14.84046,20.21052,29.67985A5.00314,5.00314,0,0,1,206.6043,130.75613Z" fill="#046b37"/><path d="M119.8725,145.044h13.84829c-5.79228,8.9231-11.46752,17.66594-17.21377,26.51814a6.92864,6.92864,0,0,0,2.271-.24565c7.2906-.8422,13.83537.84894,19.32616,5.82935a21.14624,21.14624,0,0,1,6.69815,12.3735,28.54284,28.54284,0,0,1-.64513,13.35428c-2.7357,8.87811-8.77033,14.3011-17.81153,16.23218-6.65234,1.42083-13.2118.98294-19.35271-2.19528-7.57186-3.91882-11.93193-10.13511-12.798-18.67407-.75455-7.43974,1.24-14.2162,5.03469-20.56144,4.58864-7.67292,9.51133-15.13541,14.244-22.71747,1.82857-2.92954,3.68774-5.84,5.53982-8.75485A3.86969,3.86969,0,0,1,119.8725,145.044Zm-14.0013,50.41611c-.014,8.96992,6.71577,13.93506,14.16669,13.76a13.2689,13.2689,0,0,0,13.40656-13.70626c-.00479-8.22709-5.70747-13.87581-13.9841-13.85179C111.53333,181.68508,105.84781,187.458,105.8712,195.46008Z" fill="#046b37"/><path d="M225.19823,154.97322a11.22581,11.22581,0,1,1-22.45043-.21392,11.28344,11.28344,0,0,1,11.27031-11.1102C220.16959,143.59886,225.47728,149.021,225.19823,154.97322Zm-11.27945,4.7774a4.86528,4.86528,0,1,0-4.79157-4.89813A4.775,4.775,0,0,0,213.91878,159.75062Z" fill="#046b37"/></svg>