<?xml version="1.0" encoding="UTF-8"?>
<svg xmlns="http://www.w3.org/2000/svg" version="1.1" viewBox="0 0 300 300">
  <defs>
    <style>
      .cls-1 {
        fill: #2f6e89;
      }

      .cls-2 {
        fill: #e8af46;
      }

      .cls-3 {
        fill: #edcc80;
      }

      .cls-4 {
        fill: #306f8a;
      }

      .cls-5 {
        fill: #f3f3f1;
      }
    </style>
  </defs>
  <!-- Generator: Adobe Illustrator 28.6.0, SVG Export Plug-In . SVG Version: 1.2.0 Build 709)  -->
  <g>
    <g id="Layer_1">
      <g>
        <g>
          <path class="cls-4" d="M27.4,226.6h-12.4l67.4-122.3h9.1l57.7,92.3c9.4-14.6,18.8-29.2,28.2-43.7h4.6l26,41.6h.1v-41.5c.2-.1.4-.2.7-.1,9.1,0,18.2,0,27.3,0,5.9,0,11.7.9,17.1,3,3,1.2,5.8,2.9,8.2,5.2,2.9,2.8,4.9,6.5,5.6,10.5.9,4.1.8,8.3-.3,12.3-1.5,4.9-4.8,9.1-9.3,11.7-4.1,2.4-8.6,4.1-13.3,4.9-4.3.8-8.6,1.2-12.9,1.2-19,0-37.9,0-56.9,0h-.7v-4.9h29.7l-23.6-37.6c-9.2,14.2-18.5,28.2-27.5,42.4l-83.4.2v-9.8h65.3l-47.2-75.2-59.6,109.9ZM213.5,197.2h.7c5.5,0,11,0,16.5,0,3.6,0,7.2-.2,10.7-.7,3.9-.5,7.8-1.7,11.3-3.5,3.5-1.7,6.3-4.5,8-7.9,1.3-2.8,1.8-6,1.6-9.1,0-2.8-.8-5.6-2.1-8.2-2.1-3.7-5.4-6.5-9.3-7.9-4.5-1.7-9.4-2.6-14.2-2.6-7.5-.1-15.1,0-22.6,0-.2,0-.4,0-.6,0v39.8Z"/>
          <path class="cls-4" d="M277.4,201.5h-5.3v-48.6h5.3v48.6Z"/>
        </g>
        <g>
          <path class="cls-2" d="M263.6,82.1c1.8,1.7,3.6,3.6,5.2,5.6,2.2,2.7,4.2,5.5,6,8.4,3.2,5.2,5.7,10.8,7.4,16.7,1.2,4.2,2.1,8.4,2.6,12.7.4,2.3.2,4.6-.7,6.8-2.5,5.8-9.2,8.5-15,6.1-3.6-1.5-6.2-4.8-6.8-8.6-.1-1.1-.2-2.3-.2-3.4,0-2.7-.3-5.4-.7-8-.7-4.2-1.9-8.3-3.6-12.2-1.3-2.9-2.8-5.7-4.6-8.4-1.8-2.7-3.9-5.2-6.2-7.5-3-3.1-6.3-5.7-9.9-8-5.5-3.5-11.6-6-18-7.4-2.6-.6-5.3-1-8-1.2-2.5-.2-5.1-.2-7.6,0-2.9.2-5.8.6-8.7,1.2-3.4.7-6.8,1.8-10,3.1-9.1,3.8-17.1,9.7-23.3,17.3-6.1,7.4-10.3,16.1-12.3,25.4-.6,2.7-.9,5.4-1.2,8.1,0,.3,0,.5-.2.8h0s0,0,0,0c0-1,0-2,0-3,0-4.7.5-9.4,1.6-13.9,2.4-10.1,7.1-19.5,13.9-27.4,5.5-6.4,12.2-11.7,19.7-15.6,5.8-3,11.9-5.1,18.3-6.4,3.2-.6,6.4-.9,9.6-1.2.7,0,1.4-.1,2.1,0-.1,1.2-.6,2.4-.8,3.6,0,.6-.2,1.3-.3,2,2.2,0,4.4.1,6.6.5,1.5.2,3,.3,4.4.6,1.4.3,2.8.6,4.2.9,4.5,1.1,8.9,2.8,13,4.9,3.8,1.9,7.4,4.2,10.7,6.9.4.4.8.8,1.3,1.1,2.2,1.8,4.2,3.7,6.1,5.8.2.2.4.4.7.5.2-.1.3-.3.4-.4,1.3-1.5,2.5-3,3.5-4.7.4-.5.6-1,.7-1.6Z"/>
          <path class="cls-5" d="M250.9,81.4c-3.3-2.6-6.9-4.9-10.7-6.9-4.1-2.1-8.5-3.7-13-4.9,0-.7,0-1.5.2-2.2.3-1.4.7-2.7,1.3-4,5,1,9.9,2.6,14.5,4.7,4.3,1.9,8.4,4.3,12.2,7.1,0,.1,0,.3-.1.4-.6,1.5-1.5,2.8-2.5,4.1-.5.7-1.1,1.2-1.8,1.7Z"/>
          <path class="cls-3" d="M228.7,63.5c-.6,1.3-1,2.6-1.3,4-.2.7-.2,1.4-.2,2.2-1.4-.3-2.8-.6-4.2-.9-1.5-.3-2.9-.4-4.4-.6-2.2-.3-4.4-.5-6.6-.5.1-.7.2-1.4.3-2,.1-1.2.6-2.4.8-3.6,3.6,0,7.1.1,10.7.6,1.7.2,3.3.5,5,.9Z"/>
          <path class="cls-3" d="M250.9,81.4c.7-.5,1.3-1,1.8-1.7,1.1-1.2,1.9-2.6,2.5-4.1,0-.1,0-.3.1-.4.9.5,1.7,1.1,2.4,1.8,1.9,1.5,3.7,3,5.4,4.7.1.1.2.3.4.4-.1.6-.4,1.1-.7,1.6-1,1.7-2.2,3.3-3.5,4.7-.1.1-.3.3-.4.4-.2-.1-.5-.3-.7-.5-1.9-2.1-3.9-4-6.1-5.8-.5-.3-.9-.7-1.3-1.1Z"/>
        </g>
        <g>
          <path class="cls-1" d="M128.9,234.9v2.6h-2c0-.5,0-21.3,0-21.8h2v8.8c2.7-3.5,7.7-4.2,11.2-1.5.5.4.9.8,1.3,1.2,2.8,3.3,2.6,8.1-.4,11.3-1.1,1.1-2.4,1.9-3.9,2.3-3,.8-6.3-.4-8.1-2.9h-.1ZM135,236c3.5,0,6.3-2.8,6.3-6.3h0c0-3.5-2.7-6.4-6.2-6.5-3.5,0-6.3,2.9-6.3,6.5,0,3.4,2.8,6.2,6.2,6.3Z"/>
          <path class="cls-1" d="M281.2,229.8h-14.1c-.1,2.4,1.3,4.7,3.5,5.7,3.7,1.4,6.4,0,8.4-3.3.5.2.9.5,1.3.7.1,0,.2.1.3.2-1.5,3.6-5.4,5.6-10,4.5-4-1-6.5-5.5-5.5-9.9.9-4.4,5.2-7.2,9.6-6.3,3.9.8,6.7,4.4,6.5,8.4h0ZM267.4,228h11.6c-.6-2.9-3.2-4.9-6.2-4.7-2.7.1-4.9,2-5.4,4.7Z"/>
          <path class="cls-1" d="M224.6,229.8h-14.1c0,2.5,1.4,4.8,3.7,5.8,1.5.6,3.2.5,4.8,0,1.5-.7,2.7-1.8,3.4-3.3l1.7.9c-1.4,3.5-5.2,5.6-9.8,4.5-4.3-1.2-6.8-5.5-5.8-9.8.9-4.4,5.1-7.3,9.5-6.4,4,.8,6.7,4.3,6.5,8.4h0ZM210.8,228h11.5c-.6-3-3.4-5-6.4-4.6-2.6.2-4.7,2.1-5.1,4.6h0Z"/>
          <path class="cls-1" d="M168.6,229.7c0,4.5-3.5,8.2-8,8.3,0,0-.2,0-.2,0-4.6,0-8.3-3.8-8.3-8.4,0-4.6,3.7-8.2,8.3-8.3,4.5,0,8.2,3.6,8.2,8.1,0,0,0,.2,0,.2ZM160.4,236c3.4,0,6.1-2.7,6.2-6,0,0,0-.1,0-.2.2-3.4-2.5-6.3-5.9-6.4s-6.3,2.5-6.4,5.9c0,.2,0,.3,0,.5-.1,3.3,2.5,6.2,5.8,6.3,0,0,.2,0,.3,0h0Z"/>
          <path class="cls-1" d="M230.4,237.5h-2v-15.7h2v2.4c.4-.4.8-.7,1.2-1.1,2-2,5.1-2.4,7.6-1.1,1.7,1,2.7,2.8,2.8,4.8.3,3.5,0,7,.1,10.5,0,0,0,0,0,.1h-1.9c-.2-.2,0-.4,0-.6,0-2.5,0-5.1,0-7.6,0-1,0-2-.2-3-.7-3.3-4-3.6-6-2.6-1.9.8-3.1,2.6-3.2,4.7-.3,2.8,0,5.6-.1,8.4,0,.2,0,.5,0,.7Z"/>
          <path class="cls-1" d="M197.7,233.3l1.6,1c-.5.9-1.3,1.7-2.2,2.2-3.1,2-7,2-10.1,0-2.6-1.5-4.1-4.4-3.8-7.4.1-3.2,2.2-6.1,5.2-7.2,3.2-1.4,6.8-.9,9.5,1.3.6.5,1,1,1.4,1.7l-1.6,1c-.4-.5-.9-1-1.4-1.4-3.1-2.4-9.2-1.8-10.7,3.2-1,3.4,1,6.9,4.4,7.9.3,0,.6.2.9.2,2.4.4,4.9-.5,6.5-2.4,0,0,.1-.1.2-.2,0,0,0,0,.1,0Z"/>
          <path class="cls-1" d="M260.2,233.3l1.6,1.1c-.4.7-.9,1.3-1.6,1.8-3.3,2.7-9.8,2.8-13-1.6-2.2-3.2-2-7.5.6-10.4,3.4-3.5,8.8-3.8,12.6-.8.6.5,1,1,1.4,1.7l-1.6,1c-.8-1.2-2-2-3.4-2.4-3.4-.9-6.7.1-8.3,3.3-1.5,3.2-.1,7,3.1,8.5.6.3,1.2.5,1.9.5,2.5.4,5-.5,6.6-2.4,0,0,.1-.2.2-.3Z"/>
          <path class="cls-1" d="M180.4,223.5l-1.3,1.4c-.4-.3-.7-.6-1.1-.8-.8-.6-1.7-.8-2.7-.7-.8.1-1.5.7-1.8,1.6-.2.8,0,1.6.7,2.2.6.6,1.3,1,2.1,1.4.8.4,1.6.9,2.4,1.5,1.4,1,2,2.9,1.5,4.5-.4,1.8-1.8,3.1-3.6,3.4-2.2.4-4.4-.4-5.8-2.1l1.3-1.5c.7.8,1.5,1.3,2.5,1.6,1,.3,2.2,0,2.9-.7,1-.9,1.1-2.4.2-3.4,0-.1-.2-.2-.3-.3-.9-.6-1.8-1.2-2.7-1.6-.8-.4-1.5-.9-2.1-1.5-1.1-1.1-1.5-2.8-.9-4.3.5-1.4,1.7-2.5,3.2-2.7,2.1-.4,3.7.7,5.3,2.1Z"/>
          <path class="cls-1" d="M202.8,237.5v-15.7h2v15.7h-2Z"/>
          <path class="cls-4" d="M148.7,237.5h-2v-15.7h2v15.7Z"/>
          <path class="cls-1" d="M147.7,215.3c.9,0,1.7.7,1.7,1.6,0,0,0,0,0,0,0,.9-.8,1.7-1.7,1.7-.9,0-1.7-.8-1.7-1.7,0,0,0,0,0,0,0-.9.7-1.7,1.7-1.7,0,0,0,0,0,0Z"/>
          <path class="cls-1" d="M203.8,215.3c.9,0,1.6.6,1.7,1.5,0,0,0,0,0,.1,0,.9-.7,1.7-1.7,1.7-.9,0-1.7-.8-1.7-1.7,0-.9.7-1.7,1.6-1.7,0,0,0,0,0,0Z"/>
        </g>
      </g>
    </g>
  </g>
</svg>