<svg id="Layer_1" data-name="Layer 1" xmlns="http://www.w3.org/2000/svg" viewBox="0 0 300 300"><defs><style>.cls-1{fill:#2b66ac;}.cls-2{fill:#62a750;}</style></defs><path class="cls-1" d="M75.73,54.41c-.68-2.15,2-3.07,3.7-2.44,1.22,0,1.37,1.51,1.95,2.29C79.87,55.62,77.1,56.4,75.73,54.41Z"/><path class="cls-1" d="M69,59.76c2-1.9,5.11-1.17,6.87.78C74.86,63.81,67.89,63.86,69,59.76Z"/><path class="cls-1" d="M61.36,66.63c2.63-1.9,6.82-1.9,8.72,1-.19,4.72-7.7,4.82-9.6,1C60.68,68.14,61.12,67.12,61.36,66.63Z"/><path class="cls-1" d="M56.68,74.23c3.56-1.41,8.53-.73,10.14,3.22-2.29,4.72-10.09,5.06-12.86.68C53.42,76.23,55.13,74.82,56.68,74.23Z"/><path class="cls-1" d="M54.05,85.34c3.76-.78,8.43-.93,11.26,2.14A3,3,0,0,1,64.87,92c-2.92,2.58-7.11,2.2-10.67,1.71-1.7-.88-4.38-1.8-4.19-4.19C49.82,87.24,52.25,86.07,54.05,85.34Z"/><path class="cls-1" d="M57.85,100.83c.83-3.36,4.53-4.72,7.7-4.68,3.17-.14,7.06.64,8.48,3.8.58,3-2.73,4.53-5.17,5C64.92,105.85,59.51,105.07,57.85,100.83Z"/><path class="cls-1" d="M78.12,103.9c3.31-.44,7.7,0,9.4,3.26.49,2.39-2.19,3.9-4.14,4.39-3.12.48-6.77.68-9.35-1.51a2.79,2.79,0,0,1-.88-3.36C74.22,105,76.22,104.24,78.12,103.9Z"/><path class="cls-1" d="M90,109.6c2.19-4,9.2-4.09,11.4.05C99.21,113.69,92.15,113.74,90,109.6Z"/><path class="cls-1" d="M169.56,111.26c1.8-5.27,10.86-5.31,12.91-.25-.3.49-.88,1.41-1.17,1.9C177.64,115,172.09,115.1,169.56,111.26Z"/><path class="cls-1" d="M185.54,111.94c-.3-2.58,2.63-3.71,4.67-4.29,3.8-.68,8.82-.29,10.82,3.61-.93,2.58-3.61,3.55-6,4.18-3.32,0-7.7-.14-9.45-3.5Z"/><path class="cls-1" d="M105,109.45c2.73-1.22,6.29-1.12,7.89,1.76-1.65,3.6-7.3,3.75-9.06.19Z"/><path class="cls-1" d="M203.46,112.81c1.37-4.87,7.5-5.65,11.65-4.53,2.58.49,5.74,2.88,4.23,5.8-3.8,4.73-13.05,4.43-15.88-1.27Z"/><path class="cls-1" d="M130.73,110.57a5.15,5.15,0,0,1,7.55,1.32c-.24.49-.78,1.46-1,2-2.1,1-4.73,1.41-6.58-.25A1.9,1.9,0,0,1,130.73,110.57Z"/><path class="cls-1" d="M161.37,108.72a6.83,6.83,0,0,1,5.07,1.71,2,2,0,0,1-1.12,2.63c-2.49,1.36-6,1.26-7.94-1-.64-2.43,2.19-3,4-3.31Z"/><path class="cls-1" d="M143.06,112c1.75-3.61,8.76-3.9,9.79.19C150.75,115.44,145.2,115,143.06,112Z"/><path class="cls-1" d="M223.48,114.28c3.66-1.37,8.19-1.17,11.26,1.36a3.32,3.32,0,0,1-.34,5.31c-4,2.87-10.33,2.78-13.74-.88-1.85-2.34.44-5.16,2.82-5.79Z"/><path class="cls-1" d="M174.53,120.56a36.84,36.84,0,0,1,3.75-.29c1.51,5.84,1.51,11.93,2.77,17.88,1.61,7.74,4,15.78,9.55,21.72A18.63,18.63,0,0,0,207,165.38c10.67-1.61,20.22-7.07,28.94-13.11,2-1.26,4.82-2.92,6.91-.87.29,1.94-1.36,3.26-2.63,4.38-9,7.06-20.12,11.69-27.13,21.05-7,9.06-1.41,23.38,8.72,27.42,5.21,2.58,11.74,2.19,16.27,6.09-2.88,4-8,5.26-11.4,8.72a10.39,10.39,0,0,0,2.05,5.6c3.5,4.73,7.45,9,11.35,13.45,1.8,2.14,4.19,4.09,4.62,7a8,8,0,0,1-6.18-1.41C229.72,238,221.83,230.9,213,225.2c-4.48-2-12.08.92-11.4,6.62.15,5.41.24,10.77,0,16.13a67.72,67.72,0,0,1,.39,10.47c.1,1.32-.93,2.24-1.61,3.22h-1.22c-2.92-2.93-4.28-6.87-5.74-10.57a160.55,160.55,0,0,0-6.87-15.59c-.78-1.61-1.85-3.31-3.71-3.75-5.74-.73-10.81,3-16.41,3.07a8.13,8.13,0,0,1-.54-6c5.51-26.55,9.11-53.53,8.77-80.67.2-9.21-.39-18.41-.19-27.62Z"/><path class="cls-1" d="M235.37,123.82a12,12,0,0,1,8.72-.48c1.9.53,4.38,2.48,3.12,4.72-2.19,2.92-6.33,3.07-9.65,2.58-1.8-.53-3.89-1.46-4.53-3.41C232.64,125.67,234.15,124.46,235.37,123.82Z"/><path class="cls-1" d="M197,129.57c4.19-2.09,9.26-1.36,13.3.83,4.24,2.09,8.67,5.12,10.47,9.74,1.9,4.39-.29,9.55-3.75,12.47-4,3.37-8.76,6.29-14.07,6.63a9.41,9.41,0,0,1-8.68-3.9c-3.31-4.87-3.75-11.06-2.87-16.71C192.16,135.13,193.67,131.33,197,129.57Z"/><path class="cls-1" d="M243.36,134.1c2-1.41,5.41-1.12,6.62,1.17.3,3.12-3.75,3.7-5.94,2.88-1.7-.39-2.34-3.22-.68-4.05Z"/><path class="cls-1" d="M241,144.24c1.07-2.54,3.95-2.49,6.19-2,.34.53,1,1.51,1.36,2A4.58,4.58,0,0,1,241,144.24Z"/><path class="cls-2" d="M61.65,39.5c2.1-1.46,5.56-1.8,6.92.73-.29.34-.88.92-1.22,1.27-.84.26-1.7.53-2.58.82q-1.26-.52-2.58-1C62,40.86,61.8,39.94,61.65,39.5Z"/><path class="cls-2" d="M73,41.89a5.7,5.7,0,0,1,7,0c-.1.49-.24,1.51-.29,2a7.09,7.09,0,0,1-6.48,0C73.15,43.4,73.05,42.37,73,41.89Z"/><path class="cls-2" d="M84.31,45.05a8.13,8.13,0,0,1,9.25,0c0,1.32.1,3-1.51,3.41C89.32,49.78,83.38,49.39,84.31,45.05Z"/><path class="cls-2" d="M94.73,51c2.14-5.22,11.06-5.07,13.2,0C105.3,55.77,97.31,55.82,94.73,51Z"/><path class="cls-2" d="M108.42,57.28c2.63-4.82,9.89-5.31,13.83-2,1.71,1.27,1.08,4-.73,4.92C117.48,62.83,110.37,62.35,108.42,57.28Z"/><path class="cls-2" d="M118.11,66.19a7.92,7.92,0,0,1,6.82-4.28c3.51-.29,8,.09,10,3.46.68,2.68-2.24,4.19-4.38,4.72C126.2,71.36,120.31,70.68,118.11,66.19Z"/><path class="cls-2" d="M129.42,73.16a12,12,0,0,1,11.35,1.61c1.65,1.31.87,3.9-.83,4.82-4,2.49-10,2.34-13.59-.92-2.15-2.39.87-4.88,3.07-5.51Z"/><path class="cls-2" d="M131.46,83.78c3.56-.73,9.6-.34,10.13,4.19-1.55,3-5.35,3.75-8.47,3.56-2.24-.3-4.92-.93-6-3.17-.83-2.63,2.24-4.14,4.38-4.58Z"/><path class="cls-2" d="M126.83,95.33c3.27-2.54,8.82-2.34,11.31,1.26l-.59,2A9.09,9.09,0,0,1,126,98.39C126.25,97.37,125.66,95.91,126.83,95.33Z"/><path class="cls-2" d="M123,102.93c2.73-.69,7.7-.83,8.19,2.72a8,8,0,0,1-10.77,0C120.31,104,121.77,103.41,123,102.93Z"/><path class="cls-2" d="M117,110.23a7.41,7.41,0,0,1,6.48,0c.34.44,1,1.37,1.32,1.85l-1.37,1.81c-2.68,1.12-6,.92-7.79-1.66Z"/><path class="cls-2" d="M107.69,119.29c0-4.14,8.13-4.14,8.52,0C113.78,121.29,109.93,121.78,107.69,119.29Z"/><path class="cls-2" d="M167.8,121c.34-2.24,3.95-1.66,3.66.53-.2,15.4-1.32,30.74-2.63,46-1.61,17.39-3.46,34.83-7.75,51.78A237.15,237.15,0,0,1,149,256.62a9.66,9.66,0,0,1-4.29,5l-2.09-1.37c-.39-4.58,1.9-8.76,2.48-13.25,1-6.77,2.34-14,0-20.7-1.21-3.56-5.6-4.77-8.77-3.26-8.52,3.7-14.9,10.76-21.33,17.19-3.56,3.46-6.29,7.7-10.09,11-1,.88-2.29.49-3.41.3a12.35,12.35,0,0,1,1.12-4.15c3.9-7.3,8.58-14.12,13.06-21a80,80,0,0,0,10.23-23.14c1-4.77-1.07-9.55-3.51-13.59C115.53,179,105.45,171.08,96,163c-1.85-1.75-4.78-3.36-4.39-6.33,1.27-.1,2.68-.54,3.8.34,5.36,3.46,10.14,7.74,15.79,10.76,7.6,4.19,16.66,7,25.28,4.68,6.87-1.8,12.08-7.16,16.08-12.81,7.84-11.6,12-25.19,15.29-38.63Z"/><path class="cls-2" d="M101.36,125a7.25,7.25,0,0,1,7.11-1.12,1.92,1.92,0,0,1,1.07,2.58C107.2,128.55,102.38,128.4,101.36,125Z"/><path class="cls-2" d="M95.85,131.08a6.84,6.84,0,0,1,6.14.1c.1.49.19,1.46.29,1.95a5.63,5.63,0,0,1-6.82,0C95.56,132.59,95.75,131.62,95.85,131.08Z"/><path class="cls-2" d="M119.28,144.14c3-4.63,8-7.46,13.11-9.21,4.48-1.7,10.08-.39,12.86,3.61,2.82,4.57,3.31,10.27,2.43,15.44-.87,3.26-1.94,6.77-4.58,9.06-1.41,1.27-3.31,1.7-5,2.29-6.58-.05-12.67-3.51-17.2-8a10.69,10.69,0,0,1-1.61-13.15Z"/><path class="cls-2" d="M90.54,139.17c1.61-1.37,3.75-1.22,5.7-.83l1.07,1.95a16.6,16.6,0,0,1-3.5,1.75c-.91-.32-1.82-.63-2.73-.92-.15-.49-.39-1.46-.54-2Z"/><path class="cls-2" d="M88.3,149.16c.78-3.51,6-3.41,7.11-.2A5.36,5.36,0,0,1,88.3,149.16Z"/></svg>