<svg id="Layer_1" data-name="Layer 1" xmlns="http://www.w3.org/2000/svg" xmlns:xlink="http://www.w3.org/1999/xlink" viewBox="0 0 300 300"><defs><style>.cls-1{fill:#614dd2;}.cls-2{fill:#7890b0;}.cls-3{fill:url(#linear-gradient);}.cls-4{fill:url(#linear-gradient-2);}</style><linearGradient id="linear-gradient" x1="268.26" y1="-6190.3" x2="288.03" y2="-6170.52" gradientTransform="translate(0 6343.18)" gradientUnits="userSpaceOnUse"><stop offset="0" stop-color="#fff" stop-opacity="0"/><stop offset="0.03" stop-color="#cfc9f1" stop-opacity="0.19"/><stop offset="0.06" stop-color="#a89de6" stop-opacity="0.38"/><stop offset="0.09" stop-color="#897add" stop-opacity="0.55"/><stop offset="0.11" stop-color="#7361d7" stop-opacity="0.72"/><stop offset="0.14" stop-color="#6652d3" stop-opacity="0.88"/><stop offset="0.16" stop-color="#614dd2"/></linearGradient><linearGradient id="linear-gradient-2" x1="268.09" y1="15596.08" x2="288.23" y2="15616.22" gradientTransform="matrix(1, 0, 0, -1, 0, 15743.7)" gradientUnits="userSpaceOnUse"><stop offset="0" stop-color="#fff" stop-opacity="0"/><stop offset="0.03" stop-color="#cfc9f1" stop-opacity="0.19"/><stop offset="0.06" stop-color="#a89de6" stop-opacity="0.38"/><stop offset="0.09" stop-color="#897add" stop-opacity="0.55"/><stop offset="0.12" stop-color="#7361d7" stop-opacity="0.72"/><stop offset="0.14" stop-color="#6652d3" stop-opacity="0.88"/><stop offset="0.16" stop-color="#614dd2"/></linearGradient></defs><path class="cls-1" d="M109.57,147.74a12.19,12.19,0,0,0,1.48-3.11,11.87,11.87,0,0,0-1.06-9.49,12.11,12.11,0,0,0-4.3-4.29,11.45,11.45,0,0,0-6-1.6H68.67v41.49h37a11.45,11.45,0,0,0,6-1.6,12.11,12.11,0,0,0,4.29-4.3,11.79,11.79,0,0,0-6.34-17.1Zm-9.84-12.57a5.93,5.93,0,0,1,0,11.86H74.6V135.17Zm10.11,27.89a5.7,5.7,0,0,1-4.18,1.75H74.6V153h31.06a5.9,5.9,0,0,1,4.18,10.1Z"/><rect class="cls-1" x="124.45" y="129.25" width="5.93" height="41.49"/><polygon class="cls-1" points="161.44 164.34 143 129.25 136.25 129.25 158.06 170.74 164.82 170.74 186.63 129.25 179.87 129.25 161.44 164.34"/><path class="cls-1" d="M22.66,130.85a20.38,20.38,0,0,0-6.61,4.47A21.11,21.11,0,0,0,11.6,142a20.27,20.27,0,0,0-1.6,8v20.75h5.93V153.17H52v17.57h5.92V129.25H30.69A20.2,20.2,0,0,0,22.66,130.85ZM52,146.78H16.26a14.38,14.38,0,0,1,1.65-4.26,14.91,14.91,0,0,1,5.37-5.36,14.39,14.39,0,0,1,7.41-2H52v11.61Z"/><path class="cls-1" d="M237.19,142a21.11,21.11,0,0,0-4.45-6.64,20.49,20.49,0,0,0-6.61-4.47,20.23,20.23,0,0,0-8-1.6H190.89v41.49h5.93V153.17h36v17.57h5.93V150A20.45,20.45,0,0,0,237.19,142Zm-19.09-6.79a14.39,14.39,0,0,1,7.41,2,14.81,14.81,0,0,1,5.36,5.36,14.14,14.14,0,0,1,1.66,4.26H196.82V135.17Z"/><polygon class="cls-2" points="265.81 154.3 249.99 170.75 242.4 170.75 262.05 150.34 242.4 129.25 249.99 129.25 269.74 150.44 265.81 154.3"/><polygon class="cls-3" points="282.41 170.69 266.35 154.91 270.12 151.03 290 170.69 282.41 170.69"/><polygon class="cls-4" points="290 129.25 270.12 149.65 266.35 145.77 282.41 129.25 290 129.25"/></svg>