<svg id="Layer_1" data-name="Layer 1" xmlns="http://www.w3.org/2000/svg" viewBox="0 0 300 300"><defs><style>.cls-1{fill:#ff472e;}</style></defs><title>ABSI</title><path class="cls-1" d="M135.35,156.23c-12.42,0-23.83,3.52-31.29,9.67-6.19,5.09-9,11.26-8.12,17.85.38,2.9,1.55,11.74,13.11,17.29,5.67,2.72,12.83,4.16,20.71,4.16,11.08,0,22-2.83,30.07-7.76a64.12,64.12,0,0,0,20.85-21.57l1.48-2.45L180,171.57a58.41,58.41,0,0,0-18.92-10.76,78.56,78.56,0,0,0-25.72-4.58m-5.49,75.41c-11.85,0-23-2.33-32.13-6.72C82,217.36,72.11,204,69.89,187.24c-2.08-15.69,4.31-30.93,17.53-41.82,12.22-10.06,29.19-15.61,47.77-15.61a105,105,0,0,1,34.45,6,86.42,86.42,0,0,1,16.41,7.69l5,3,.1-5.83c.13-8.65-1.62-24.66-14.88-34.74-9.61-7.3-22.4-11.16-37-11.16a90.86,90.86,0,0,0-33.21,6.4L95.29,77a117.25,117.25,0,0,1,43.84-8.63c20.48,0,38.79,5.69,52.94,16.45,17.23,13.09,26.42,34.64,25.22,59.11a95.25,95.25,0,0,1-4.3,23.83l-.46,1.5.83,1.32C227.54,193,230,212.85,230.5,227.78H203.69a98.22,98.22,0,0,0-3.91-24.31l-1.77-5.9-4,4.68A86.42,86.42,0,0,1,173.52,220c-12.19,7.49-27.7,11.62-43.66,11.62"/></svg>