<svg id="Layer_1" data-name="Layer 1" xmlns="http://www.w3.org/2000/svg" viewBox="0 0 300 300"><title>ABVC_Mark_Light</title><rect x="24.15001" y="160.42518" width="62.925" height="10.48751" fill="#07b"/><rect x="87.075" y="160.42518" width="62.92499" height="10.48751" fill="#0b9444"/><rect x="150" y="160.42518" width="62.92499" height="10.48751" fill="#39b54a"/><rect x="212.92499" y="160.42518" width="62.925" height="10.48751" fill="#16a7de"/><path d="M97.36462,94.82884h15.73126c7.32145,0,14.64292.09894,21.96438,0,6.53-.09894,11.279,2.77029,14.04929,8.50872s1.97877,11.279-2.17665,16.22595c-.19788.19787-.29682.49469-.69257.89044,3.8586,4.25437,5.34268,9.30023,3.66073,14.93975-1.87983,5.93632-5.93632,10.09174-12.26839,10.38856-9.89387.49469-19.78774.29682-29.6816.29682H97.36463C97.36462,128.86374,97.36462,111.94523,97.36462,94.82884Zm8.50873,42.54363h29.088c4.45224,0,7.12358-2.57241,7.12358-6.431s-2.67134-6.431-7.12358-6.431h-29.088C105.87335,128.96268,105.87335,133.01916,105.87335,137.37247Zm-.09894-21.37076H135.1592c4.25437,0,6.92571-2.47347,6.92571-6.23314,0-3.95755-2.67134-6.431-7.02465-6.431h-27.1092c-.69257,0-1.48408-.29682-2.17665.39575Z" fill="#040404"/><path d="M83.01852,145.88119h-8.014v-8.21192H45.125c-2.27559,2.57242-4.74906,5.34269-7.22253,8.21192h-11.279C41.66215,128.56692,56.404,111.64841,71.04694,94.82883H83.01852Zm-8.113-42.44469c-7.51934,8.60766-14.64293,16.81958-21.96439,25.22936H74.90555Z" fill="#040404"/><path d="M223.61037,94.92778c-9.49812,17.21533-18.89729,34.13383-28.19752,50.95341H181.95718c-9.30023-16.81958-18.60047-33.73809-28.09857-50.85448h11.08112c7.81615,13.85141,15.73125,27.90071,23.74529,42.34574,8.014-14.24716,15.92913-28.29645,23.84422-42.44469C216.091,94.92778,219.65282,94.92778,223.61037,94.92778Z" fill="#040404"/><path d="M273.17864,137.96609V146.178h-5.14482c-8.2119-.19788-16.42383.79151-24.5368-.39575-12.961-1.87983-21.66756-13.25778-21.07394-26.91132a25.22081,25.22081,0,0,1,23.64634-23.84422c8.90448-.39575,17.809-.09894,27.01024-.09894v8.50873H258.041c-4.15543,0-8.40978-.29682-12.56522.29682a17.00645,17.00645,0,0,0,2.27558,33.837c7.51934.09894,15.03869,0,22.558,0C271.101,137.66929,272.09034,137.37247,273.17864,137.96609Z" fill="#040404"/><path d="M44.72925,194.658c2.86923,1.2862,3.95755,3.265,3.166,6.03526a5.36051,5.36051,0,0,1-5.6395,4.25437c-5.14482.09894-10.19069,0-15.43444,0V185.35773c5.34269-.099,10.68538-.59364,16.02807.29682C46.708,186.34711,47.69741,190.99723,44.72925,194.658Zm-14.34611,2.27559a9.279,9.279,0,0,0,.19788,4.35329H41.86c1.2862,0,2.5724-.29681,2.5724-1.97877s-1.18726-2.27559-2.67134-2.27559C37.90248,196.93355,34.24175,196.93355,30.38314,196.93355Zm-.09894-3.8586H40.77171c1.38514,0,2.27558-.4947,2.27558-1.87983s-.89045-1.97878-2.17665-1.97878H30.38314C30.2842,190.50254,30.2842,191.59087,30.2842,193.075Z" fill="#040404"/><path d="M219.8507,185.5556H224.204c2.07772,4.15542,4.25437,8.40979,6.62889,12.961,2.2756-4.45224,4.45224-8.7066,6.62889-12.961h4.3533v19.293a7.13022,7.13022,0,0,1-3.265.099V192.58025c-.19788-.09894-.39575-.09894-.59364-.19787q-2.67135,5.19427-5.34268,10.38856a5.88375,5.88375,0,0,1-3.46286.09894c-1.7809-3.46285-3.5618-6.9257-5.34268-10.4875-.09894,0-.29682.09894-.39575.09894v12.26839c-1.18726.59364-2.27559.29682-3.46285.29682C219.8507,198.51657,219.8507,192.08556,219.8507,185.5556Z" fill="#040404"/><path d="M84.99729,205.14546c-7.4204.4947-11.08113-5.24375-10.98219-9.89387,0-5.93632,4.65011-10.19068,11.08113-10.19068,6.33207,0,11.08113,4.25436,10.98219,10.19068C96.07843,200.59428,91.923,205.64016,84.99729,205.14546Zm.19788-16.72064c-4.45224,0-7.4204,2.67134-7.51934,6.72783,0,4.05649,2.96816,6.92571,7.32147,7.02465,4.25436,0,7.22252-2.67134,7.32146-6.72783C92.41769,191.1951,89.64741,188.42482,85.19517,188.42482Z" fill="#040404"/><path d="M151.38514,204.84864a7.243,7.243,0,0,1-3.5618-.09894v-7.9151h-10.4875v7.81615a6.69281,6.69281,0,0,1-3.66073.19788V185.75346c.98938-.59364,2.07772-.19787,3.46285-.29682v7.9151H147.7244v-7.61828a8.86744,8.86744,0,0,1,3.56179-.29682C151.38514,191.98662,151.38514,198.31868,151.38514,204.84864Z" fill="#040404"/><path d="M196.20436,204.94759h-3.36391v-19.293c3.85861,0,7.71722-.19788,11.4769.09894a4.78593,4.78593,0,0,1,4.45224,4.45224,5.04213,5.04213,0,0,1-3.5618,5.73845c-.4947.19787-1.08833.39575-1.87983.69257,2.07772,2.67134,4.05649,5.34268,6.23314,8.21191h-4.45224c-1.97878-2.67134-4.05649-5.44163-6.1342-8.31084h-2.77028C196.20436,199.30807,196.20436,202.07836,196.20436,204.94759Zm.099-11.77371h6.431c1.38514,0,2.47347-.69257,2.47347-2.17665.09894-1.583-1.08833-2.17665-2.37453-2.27559-2.17664-.099-4.35329,0-6.52995,0Z" fill="#040404"/><path d="M182.64977,204.94759h-3.85861c-.69256-1.38514-1.38513-2.86922-2.17664-4.3533h-9.2013c-.69257,1.48408-1.38514,2.86922-2.17665,4.45224H161.378c2.96816-6.53,5.83737-12.862,8.7066-19.19409,1.18726-.4947,2.2756-.19788,3.66073-.19788Q178.19753,195.00423,182.64977,204.94759Zm-7.4204-7.81617c-1.08834-2.47346-2.07772-4.65011-3.166-7.12358-.98939,2.57241-2.27559,4.65012-2.77028,7.12358Z" fill="#040404"/><path d="M273.07972,204.94759h-3.8586c-.69258-1.38514-1.38513-2.86922-2.07772-4.3533h-9.20128c-.69258,1.28621-1.38514,2.77029-2.07772,4.3533h-3.8586c2.96816-6.53,5.83737-12.862,8.70659-19.1941a7.60109,7.60109,0,0,1,3.66074-.19787C267.1434,191.88767,270.11156,198.31868,273.07972,204.94759ZM262.49327,189.9089c-1.18727,2.77028-2.07771,4.848-2.96816,7.02465h6.03527C264.571,194.658,263.68055,192.58025,262.49327,189.9089Z" fill="#040404"/><path d="M106.86274,185.5556c3.66072,0,7.02464-.09894,10.48749,0,3.46285.19788,5.63951,2.27559,5.63951,5.24375.099,2.96816-2.27559,5.34269-5.6395,5.63951-2.27559.19787-4.55118,0-7.02464,0v8.31084a8.22373,8.22373,0,0,1-3.46286.09894Zm3.66073,7.61828h6.33208c1.38514,0,2.47346-.59364,2.57241-2.07772.09894-1.682-1.18726-2.27559-2.5724-2.37452-2.07772-.099-4.05649,0-6.23314,0C110.52347,190.10679,110.52347,191.49192,110.52347,193.17388Z" fill="#040404"/><path d="M63.13184,204.94759h-3.265v-19.1941a4.59214,4.59214,0,0,1,3.265-.19787Z" fill="#040404"/></svg>