<svg id="Layer_1" data-name="Layer 1" xmlns="http://www.w3.org/2000/svg" xmlns:xlink="http://www.w3.org/1999/xlink" viewBox="0 0 300 300"><defs><linearGradient id="linear-gradient" x1="127.14858" y1="102.38832" x2="127.14858" y2="231.51158" gradientUnits="userSpaceOnUse"><stop offset="0" stop-color="#38538c"/><stop offset="1" stop-color="#273f71"/></linearGradient><linearGradient id="linear-gradient-2" x1="144.70005" y1="112.69331" x2="204.58189" y2="210.53596" gradientUnits="userSpaceOnUse"><stop offset="0" stop-color="#de7254"/><stop offset="0.99973" stop-color="#c95c3d"/></linearGradient></defs><path d="M90.19,209.23033H197.74981c5.529,8.74551,11.028,17.44345,16.54735,26.17356-1.3196.42772-170.30611.62255-174.29716.22973L127.82869,98.569l16.46844,26.05779C126.31207,152.74873,108.35435,180.82795,90.19,209.23033Z" fill="url(#linear-gradient)"/><path d="M136.54433,92.042c-.73272-1.07593-1.46545-2.15185-2.24908-3.30251,1.31011-2.02334,2.56059-3.9546,3.811-5.88587l.04336.03667-.079-.00038q4.75218-7.43564,9.50434-14.87127l.04116.02987-.07558.0061,2.53022-3.90092,4.1791,6.37756-.0506.05512.01068-.09107q7.23288,11.28855,14.46529,22.57743,8.25044,12.88569,16.49692,25.77391,7.32333,11.41827,14.67184,22.82037,10.26309,16,20.50733,32.01205,10.00308,15.606,20.01508,31.20624,9.57489,14.945,19.13143,29.90171c.13956.21822.25761.4502.50212.88069H226.98072l-31.5688-50.02644H149.271V159.99554c3.26672-.17865,6.50732-.05628,9.7426-.07983,3.31471-.02413,6.62967-.01421,9.94454-.01631,3.23676-.002,6.47354-.00044,9.96824-.00044a11.86651,11.86651,0,0,0-.5565-1.24623q-10.45941-16.623-20.933-33.237-10.17741-16.14406-20.35979-32.285c-.22223-.35263-.37873-.74667-.56587-1.1214Zm.95261-6.38524.03806.03775-.06163.02957Z" fill="url(#linear-gradient-2)"/></svg>