<svg id="Layer_1" data-name="Layer 1" xmlns="http://www.w3.org/2000/svg" viewBox="0 0 300 300"><path d="M158.895,108.30167a7.73474,7.73474,0,0,0,.82924-10.60362,7.02971,7.02971,0,0,0-10.20157-.85432,3.43387,3.43387,0,0,0-.4272.42716,7.72781,7.72781,0,0,0-.402,10.17646A7.0676,7.0676,0,0,0,158.895,108.30167Z" fill="#e65c2f"/><path d="M144.92432,112.02047a7.00777,7.00777,0,0,0-8.81954,1.13072,7.34937,7.34937,0,0,0-1.10559,1.4825,7.65255,7.65255,0,0,0,2.5127,10.30208,7.07869,7.07869,0,0,0,9.92514-2.61321A7.71235,7.71235,0,0,0,144.92432,112.02047Z" fill="#e65c2f"/><path d="M128.7928,132.62465a7.66711,7.66711,0,0,0-1.9599,3.76906,7.50738,7.50738,0,0,0,5.60328,8.895,7.2497,7.2497,0,0,0,8.56833-5.82948,7.50035,7.50035,0,0,0-5.60328-8.895A7.08928,7.08928,0,0,0,128.7928,132.62465Z" fill="#e65c2f"/><path d="M245.00539,186.14551a7.08454,7.08454,0,0,0-9.79953.402,3.67225,3.67225,0,0,0-.40205.47741,7.71245,7.71245,0,0,0,.85432,10.60362,7.05107,7.05107,0,0,0,10.20157-.87945A7.71244,7.71244,0,0,0,245.00539,186.14551Z" fill="#e65c2f"/><path d="M221.3106,198.96005a7.56085,7.56085,0,0,0-2.48763,10.30208,7.08156,7.08156,0,0,0,9.92522,2.5881,7.68168,7.68168,0,0,0,2.48755-10.32722A7.09433,7.09433,0,0,0,221.3106,198.96005Z" fill="#e65c2f"/><path d="M125.90321,159.73724a7.30582,7.30582,0,0,0,8.09091,6.533,7.48527,7.48527,0,0,0,6.30684-8.39244,7.30583,7.30583,0,0,0-8.09092-6.533,7.18334,7.18334,0,0,0-4.22132,2.1358A7.69486,7.69486,0,0,0,125.90321,159.73724Z" fill="#e65c2f"/><path d="M193.41957,214.84059a7.48526,7.48526,0,0,0-6.30692-8.39243,7.07355,7.07355,0,0,0-6.00532,2.16092,7.58142,7.58142,0,0,0-2.06044,4.39724,7.48527,7.48527,0,0,0,6.30692,8.39244A7.30554,7.30554,0,0,0,193.41957,214.84059Z" fill="#e65c2f"/><path d="M207.79224,220.39342a7.54648,7.54648,0,0,0,5.60328-8.9201,7.24474,7.24474,0,0,0-8.56825-5.80435,6.938,6.938,0,0,0-3.6183,2.03529,7.6748,7.6748,0,0,0-1.95991,6.88481A7.22635,7.22635,0,0,0,207.79224,220.39342Z" fill="#e65c2f"/><path d="M254.25212,140.01225a7.56149,7.56149,0,0,0,4.87466-9.37239,7.193,7.193,0,0,0-9.0206-5.05053,7.01874,7.01874,0,0,0-3.04035,1.88453,7.78251,7.78251,0,0,0-1.83431,7.48785A7.25221,7.25221,0,0,0,254.25212,140.01225Z" fill="#e65c2f"/><path d="M239.12567,107.92476a6.89743,6.89743,0,0,0-.90461.80407,7.7576,7.7576,0,0,0-.75378,9.699,7.08259,7.08259,0,0,0,10.101,1.73376,7.717,7.717,0,0,0,1.65839-10.5031A7.08261,7.08261,0,0,0,239.12567,107.92476Z" fill="#e65c2f"/><path d="M224.90375,105.41231a7.06711,7.06711,0,0,0,10.101-1.75889,7.69748,7.69748,0,0,0-1.68347-10.50311,7.03963,7.03963,0,0,0-9.32219.80407,7.1735,7.1735,0,0,0-.77893.95482A7.74647,7.74647,0,0,0,224.90375,105.41231Z" fill="#e65c2f"/><path d="M261.91584,153.80725a7.40241,7.40241,0,0,0-6.935-7.81451,7.10821,7.10821,0,0,0-5.4023,2.21118,7.64669,7.64669,0,0,0-2.11074,5.02541,7.23583,7.23583,0,1,0,14.448.57792Z" fill="#e65c2f"/><path d="M166.33262,86.51677a7.77743,7.77743,0,0,0-1.63325,8.06578,7.15736,7.15736,0,0,0,9.37234,4.2716,7.63183,7.63183,0,0,0,4.12087-9.74929,7.15737,7.15737,0,0,0-9.37241-4.27148A7.504,7.504,0,0,0,166.33262,86.51677Z" fill="#e65c2f"/><path d="M213.11916,82.9238a7.08544,7.08544,0,0,0-7.18637,1.88453,7.42246,7.42246,0,0,0-1.80915,3.19119,7.569,7.569,0,0,0,4.8998,9.34726,7.20093,7.20093,0,0,0,8.99553-5.07566A7.56908,7.56908,0,0,0,213.11916,82.9238Z" fill="#e65c2f"/><path d="M247.97036,180.96908a7.15251,7.15251,0,0,0,9.37242-4.29672,7.63183,7.63183,0,0,0-4.12087-9.74929,7.0603,7.0603,0,0,0-7.7391,1.6835,7.70493,7.70493,0,0,0,2.48755,12.36251Z" fill="#e65c2f"/><path d="M183.8964,87.87363a7.24893,7.24893,0,1,0,6.93508-7.83964,7.09014,7.09014,0,0,0-4.82442,2.18608A7.69059,7.69059,0,0,0,183.8964,87.87363Z" fill="#e65c2f"/><path d="M119.79728,179.3107a6.222,6.222,0,0,0,4.04549-7.68888,5.92146,5.92146,0,0,0-7.41251-4.19621,6.19007,6.19007,0,0,0-2.186,1.2061,6.38248,6.38248,0,0,0-1.85937,6.48277A5.95935,5.95935,0,0,0,119.79728,179.3107Z" fill="#0b3a60"/><path d="M236.31145,213.15733c-.1759.12564-.32666.25127-.47742.37691a6.3568,6.3568,0,0,0-1.03022,8.24166,5.82772,5.82772,0,0,0,8.2919,1.583,6.35847,6.35847,0,0,0,1.53279-8.61858A5.86042,5.86042,0,0,0,236.31145,213.15733Z" fill="#0b3a60"/><path d="M141.18042,97.17039a6.38789,6.38789,0,0,0-.201-8.76934,5.83774,5.83774,0,0,0-7.99046-.25127c-.15076.12563-.30152.30152-.45227.45228a6.38722,6.38722,0,0,0,.20106,8.76934A5.81007,5.81007,0,0,0,141.18042,97.17039Z" fill="#0b3a60"/><path d="M265.65982,188.03029a5.80971,5.80971,0,0,0-6.98531.55279,5.9599,5.9599,0,0,0-1.23128,1.4825,6.33719,6.33719,0,0,0,1.95991,8.51807,5.82489,5.82489,0,0,0,8.19144-2.0353A6.34156,6.34156,0,0,0,265.65982,188.03029Z" fill="#0b3a60"/><path d="M152.93986,86.79292a6.334,6.334,0,0,0,1.53279-8.61853,5.83344,5.83344,0,0,0-8.292-1.60813c-.17584.12564-.32659.25127-.5025.402a6.36029,6.36029,0,0,0-1.05537,8.2165A5.86219,5.86219,0,0,0,152.93986,86.79292Z" fill="#0b3a60"/><path d="M166.48337,79.15475a6.28794,6.28794,0,0,0,3.24141-8.09091,5.889,5.889,0,0,0-7.7894-3.367,5.66853,5.66853,0,0,0-1.583,1.00509,6.3777,6.3777,0,0,0-1.6584,7.08582A5.88066,5.88066,0,0,0,166.48337,79.15475Z" fill="#0b3a60"/><path d="M122.83771,101.86965a5.87551,5.87551,0,0,0-1.20613,1.48249,6.31324,6.31324,0,0,0,1.95991,8.51807,5.82491,5.82491,0,0,0,8.19144-2.03529,6.31324,6.31324,0,0,0-1.95991-8.51807A5.8097,5.8097,0,0,0,122.83771,101.86965Z" fill="#0b3a60"/><path d="M248.52316,202.3022a3.84235,3.84235,0,0,0-.45227.45229,6.38729,6.38729,0,0,0,.201,8.76933,5.81142,5.81142,0,0,0,8.44273-.22614,6.38722,6.38722,0,0,0-.20106-8.76934A5.86328,5.86328,0,0,0,248.52316,202.3022Z" fill="#0b3a60"/><path d="M222.79309,220.82083a6.057,6.057,0,0,0-1.583,1.00509,6.33785,6.33785,0,0,0-1.63324,7.08582,5.88886,5.88886,0,0,0,7.78932,3.367,6.25429,6.25429,0,0,0,3.21634-8.09092A5.8582,5.8582,0,0,0,222.79309,220.82083Z" fill="#0b3a60"/><path d="M115.576,162.501a6.11924,6.11924,0,0,0,5.50283-6.63354,6.02657,6.02657,0,0,0-6.40736-5.70384,5.77556,5.77556,0,0,0-3.41732,1.45711,6.29151,6.29151,0,0,0-2.08551,5.2013A6.02339,6.02339,0,0,0,115.576,162.501Z" fill="#0b3a60"/><path d="M207.99322,225.34344a5.93086,5.93086,0,0,0-2.78906,1.35686,6.30773,6.30773,0,0,0-2.01021,5.85461,5.97171,5.97171,0,0,0,6.93509,4.97516,6.20517,6.20517,0,0,0,4.79927-7.21147A5.95917,5.95917,0,0,0,207.99322,225.34344Z" fill="#0b3a60"/><path d="M114.797,145.16329a6.03,6.03,0,0,0,6.709-5.32693,6.16331,6.16331,0,0,0-5.12594-6.96019,5.72919,5.72919,0,0,0-4.64852,1.43224,6.21077,6.21077,0,0,0-2.03529,3.8947A6.12683,6.12683,0,0,0,114.797,145.16329Z" fill="#0b3a60"/><path d="M121.506,116.3677a5.69621,5.69621,0,0,0-5.85465,1.13072,6.30042,6.30042,0,0,0,1.85945,10.55336,5.90277,5.90277,0,0,0,7.6135-3.76906A6.25794,6.25794,0,0,0,121.506,116.3677Z" fill="#0b3a60"/><path d="M192.64064,226.57493a5.7716,5.7716,0,0,0-4.02035,1.48248,6.24193,6.24193,0,0,0-2.11066,4.548,5.974,5.974,0,1,0,6.131-6.03049Z" fill="#0b3a60"/><path d="M177.36335,224.48938a5.78336,5.78336,0,0,0-5.25154,1.30661,6.2789,6.2789,0,0,0,2.48755,10.72924,5.96244,5.96244,0,0,0,7.18637-4.57312A6.26221,6.26221,0,0,0,177.36335,224.48938Z" fill="#0b3a60"/><path d="M270.18266,138.8564a6.32251,6.32251,0,0,0-2.08551,5.20131,6.04345,6.04345,0,0,0,6.40737,5.70384,6.12375,6.12375,0,0,0,5.47767-6.65867,6.04339,6.04339,0,0,0-6.40736-5.70384A5.77186,5.77186,0,0,0,270.18266,138.8564Z" fill="#0b3a60"/><path d="M259.42829,113.50322a5.85245,5.85245,0,0,0,8.09091,2.48758,6.3297,6.3297,0,0,0,2.3871-8.41756,5.86521,5.86521,0,0,0-9.12113-1.7589A6.43689,6.43689,0,0,0,259.42829,113.50322Z" fill="#0b3a60"/><path d="M269.3535,120.61417a5.87342,5.87342,0,0,0-2.186,1.23123,6.38269,6.38269,0,0,0-1.85945,6.48278,5.94033,5.94033,0,0,0,7.41251,4.19621,6.22187,6.22187,0,0,0,4.04541-7.68888A5.91756,5.91756,0,0,0,269.3535,120.61417Z" fill="#0b3a60"/><path d="M274.37891,154.737a5.81686,5.81686,0,0,0-4.64852,1.43224,6.431,6.431,0,0,0-2.06043,3.89469,6.16329,6.16329,0,0,0,5.12594,6.96019,5.993,5.993,0,0,0,6.6838-5.32693A6.12684,6.12684,0,0,0,274.37891,154.737Z" fill="#0b3a60"/><path d="M271.6903,171.84821a5.80519,5.80519,0,0,0-5.85457,1.13072,6.30034,6.30034,0,0,0,1.85938,10.55336,5.92212,5.92212,0,0,0,7.61349-3.769A6.23475,6.23475,0,0,0,271.6903,171.84821Z" fill="#0b3a60"/><path d="M196.63583,73.42533a6.20025,6.20025,0,0,0,.32666-12.38764,5.77162,5.77162,0,0,0-4.02034,1.4825,6.2419,6.2419,0,0,0-2.11067,4.548A6.08123,6.08123,0,0,0,196.63583,73.42533Z" fill="#0b3a60"/><path d="M259.10162,101.01508a6.37039,6.37039,0,0,0,.67848-8.74422,5.82224,5.82224,0,0,0-8.41757-.70355,6.3703,6.3703,0,0,0-.6784,8.74421A5.82548,5.82548,0,0,0,259.10162,101.01508Z" fill="#0b3a60"/><path d="M181.25809,74.657a6.2053,6.2053,0,0,0,4.79927-7.21147,5.97171,5.97171,0,0,0-6.93509-4.97514,5.74341,5.74341,0,0,0-2.78914,1.382A6.34414,6.34414,0,0,0,174.323,69.6818,5.99517,5.99517,0,0,0,181.25809,74.657Z" fill="#0b3a60"/><path d="M211.913,75.536a5.95092,5.95092,0,0,0,7.18637-4.57313,6.18111,6.18111,0,0,0-4.39723-7.46273,5.851,5.851,0,0,0-5.2767,1.30661A6.27891,6.27891,0,0,0,211.913,75.536Z" fill="#0b3a60"/><path d="M239.55279,89.25562a5.82,5.82,0,0,0,8.36735-1.13072,6.35841,6.35841,0,0,0-1.08053-8.694,5.81529,5.81529,0,0,0-7.513.17589,5.25546,5.25546,0,0,0-.85431.95483A6.35847,6.35847,0,0,0,239.55279,89.25562Z" fill="#0b3a60"/><path d="M226.41139,80.88811a5.8773,5.8773,0,0,0,7.96523-2.91474,6.30791,6.30791,0,0,0-2.81422-8.26679,5.7976,5.7976,0,0,0-6.43251.87944,6.14858,6.14858,0,0,0-1.50764,2.03529A6.29806,6.29806,0,0,0,226.41139,80.88811Z" fill="#0b3a60"/><path d="M150.50253,203.18139a3.42767,3.42767,0,0,0,.42719-.42716,7.7278,7.7278,0,0,0,.40205-10.17645,7.02972,7.02972,0,0,0-10.20158-.85432,7.73472,7.73472,0,0,0-.82923,10.60361A7.07106,7.07106,0,0,0,150.50253,203.18139Z" fill="#e65c2f"/><path d="M155.10082,187.97978a7.03977,7.03977,0,0,0,8.81954-1.13072,6.51469,6.51469,0,0,0,1.1056-1.48249,7.67628,7.67628,0,0,0-2.5127-10.30209,7.07868,7.07868,0,0,0-9.92514,2.61322A7.68824,7.68824,0,0,0,155.10082,187.97978Z" fill="#e65c2f"/><path d="M171.23234,167.37535a7.66714,7.66714,0,0,0,1.95991-3.769,7.4877,7.4877,0,0,0-5.60328-8.895,7.24973,7.24973,0,0,0-8.56833,5.82947,7.48768,7.48768,0,0,0,5.60335,8.895A7.10879,7.10879,0,0,0,171.23234,167.37535Z" fill="#e65c2f"/><path d="M55.0198,113.85525a7.06155,7.06155,0,0,0,9.79953-.42716c.15075-.15076.2764-.30153.402-.45229a7.71244,7.71244,0,0,0-.85431-10.60361,7.05112,7.05112,0,0,0-10.20161.87944A7.71244,7.71244,0,0,0,55.0198,113.85525Z" fill="#e65c2f"/><path d="M81.20217,90.71324A7.08151,7.08151,0,0,0,71.277,88.12515a7.68165,7.68165,0,0,0-2.48759,10.32722,7.08151,7.08151,0,0,0,9.92517,2.58808,7.57572,7.57572,0,0,0,2.48759-10.32721Z" fill="#e65c2f"/><path d="M174.122,140.26377a7.29656,7.29656,0,0,0-8.06583-6.533,7.48526,7.48526,0,0,0-6.30684,8.39243,7.16921,7.16921,0,0,0,12.31224,4.39724A7.76438,7.76438,0,0,0,174.122,140.26377Z" fill="#e65c2f"/><path d="M106.60558,85.15966a7.4853,7.4853,0,0,0,6.30691,8.39243,7.1482,7.1482,0,0,0,6.0054-2.16092,7.58127,7.58127,0,0,0,2.06036-4.39724,7.48519,7.48519,0,0,0-6.30683-8.3923A7.30554,7.30554,0,0,0,106.60558,85.15966Z" fill="#e65c2f"/><path d="M92.20783,79.60688a7.54655,7.54655,0,0,0-5.60336,8.92006,7.24484,7.24484,0,0,0,8.56833,5.80434A6.93823,6.93823,0,0,0,98.7911,92.296a7.75756,7.75756,0,0,0,1.98506-6.88481A7.23888,7.23888,0,0,0,92.20783,79.60688Z" fill="#e65c2f"/><path d="M49.89386,174.41092a7.16933,7.16933,0,0,0,3.04039-1.88452,7.692,7.692,0,0,0,1.83426-7.46274,7.20767,7.20767,0,0,0-9.0206-5.07565,7.58248,7.58248,0,0,0-4.87465,9.37238A7.21374,7.21374,0,0,0,49.89386,174.41092Z" fill="#e65c2f"/><path d="M60.89952,192.07549a6.89508,6.89508,0,0,0,.90457-.80406,7.72474,7.72474,0,0,0,.75382-9.699,7.08265,7.08265,0,0,0-10.10108-1.73378,7.71706,7.71706,0,0,0-1.6584,10.50311A7.08265,7.08265,0,0,0,60.89952,192.07549Z" fill="#e65c2f"/><path d="M75.09628,194.5882a7.06015,7.06015,0,0,0-10.101,1.75888,7.70137,7.70137,0,0,0,1.6835,10.50311,7.03954,7.03954,0,0,0,9.32212-.80407,7.1713,7.1713,0,0,0,.77893-.95482A7.6974,7.6974,0,0,0,75.09628,194.5882Z" fill="#e65c2f"/><path d="M50.44665,151.822a7.52545,7.52545,0,0,0,2.11067-5.0254A7.24794,7.24794,0,1,0,45.0192,154.008,7.01732,7.01732,0,0,0,50.44665,151.822Z" fill="#e65c2f"/><path d="M133.69253,213.484a7.71559,7.71559,0,0,0,1.63332-8.06579,7.15743,7.15743,0,0,0-9.37242-4.27159,7.63183,7.63183,0,0,0-4.12087,9.74928,7.15744,7.15744,0,0,0,9.37242,4.2716A7.77278,7.77278,0,0,0,133.69253,213.484Z" fill="#e65c2f"/><path d="M91.0017,202.65423a7.20087,7.20087,0,0,0-8.99548,5.07566,7.56894,7.56894,0,0,0,4.8998,9.34726,7.03047,7.03047,0,0,0,7.18634-1.90966,7.42211,7.42211,0,0,0,1.80915-3.19113A7.55275,7.55275,0,0,0,91.0017,202.65423Z" fill="#e65c2f"/><path d="M52.05478,119.03117a7.16118,7.16118,0,0,0-9.37237,4.29672,7.63182,7.63182,0,0,0,4.12083,9.7493,7.06035,7.06035,0,0,0,7.73914-1.68352,7.32566,7.32566,0,0,0,1.63324-2.61321A7.65418,7.65418,0,0,0,52.05478,119.03117Z" fill="#e65c2f"/><path d="M116.12875,212.10149a7.24893,7.24893,0,1,0-6.93509,7.83964,7.14075,7.14075,0,0,0,4.82443-2.186A7.614,7.614,0,0,0,116.12875,212.10149Z" fill="#e65c2f"/><path d="M183.59488,132.5749a5.87389,5.87389,0,0,0,2.186-1.23123,6.35507,6.35507,0,0,0,1.85938-6.45765,5.90621,5.90621,0,0,0-7.38736-4.19621,6.222,6.222,0,0,0-4.04541,7.68887A5.88553,5.88553,0,0,0,183.59488,132.5749Z" fill="#0b3a60"/><path d="M63.68862,86.84342c.17587-.12563.32666-.25127.50253-.3769a6.35685,6.35685,0,0,0,1.03022-8.24165,5.82775,5.82775,0,0,0-8.29193-1.583,6.35841,6.35841,0,0,0-1.53275,8.61855A5.83159,5.83159,0,0,0,63.68862,86.84342Z" fill="#0b3a60"/><path d="M158.84473,202.82987a6.38722,6.38722,0,0,0,.20106,8.76934,5.83764,5.83764,0,0,0,7.99038.25127l.45227-.45229a6.38731,6.38731,0,0,0-.201-8.76935A5.81016,5.81016,0,0,0,158.84473,202.82987Z" fill="#0b3a60"/><path d="M34.36536,111.94559a5.80972,5.80972,0,0,0,6.98532-.55279,5.8773,5.8773,0,0,0,1.20608-1.4825,6.33716,6.33716,0,0,0-1.9599-8.51807,5.82488,5.82488,0,0,0-8.19141,2.03529A6.31321,6.31321,0,0,0,34.36536,111.94559Z" fill="#0b3a60"/><path d="M147.08529,213.20759a6.35846,6.35846,0,0,0-1.53279,8.61857,5.83343,5.83343,0,0,0,8.292,1.60813c.17591-.12564.32666-.25151.5025-.40229a6.36,6.36,0,0,0,1.05537-8.21628A5.8661,5.8661,0,0,0,147.08529,213.20759Z" fill="#0b3a60"/><path d="M133.54177,220.846a6.2879,6.2879,0,0,0-3.24133,8.09091,5.88887,5.88887,0,0,0,7.78932,3.367,5.66813,5.66813,0,0,0,1.583-1.00509,6.388,6.388,0,0,0,1.65839-7.08582A5.88891,5.88891,0,0,0,133.54177,220.846Z" fill="#0b3a60"/><path d="M177.18752,198.13136a5.87724,5.87724,0,0,0,1.20605-1.4825,6.31323,6.31323,0,0,0-1.95991-8.51806,5.82492,5.82492,0,0,0-8.19144,2.03528,6.31332,6.31332,0,0,0,1.95991,8.51808A5.80983,5.80983,0,0,0,177.18752,198.13136Z" fill="#0b3a60"/><path d="M51.502,97.69856l.4523-.45229a6.38726,6.38726,0,0,0-.201-8.76934,5.83141,5.83141,0,0,0-8.44269.201,6.38726,6.38726,0,0,0,.201,8.76934A5.83833,5.83833,0,0,0,51.502,97.69856Z" fill="#0b3a60"/><path d="M77.23209,79.1799a5.66972,5.66972,0,0,0,1.583-1.00508A6.33794,6.33794,0,0,0,80.44835,71.089a5.88893,5.88893,0,0,0-7.7894-3.367,6.25427,6.25427,0,0,0-3.21625,8.09091A5.8501,5.8501,0,0,0,77.23209,79.1799Z" fill="#0b3a60"/><path d="M184.44919,137.49929a6.11926,6.11926,0,0,0-5.50283,6.63355,6.0266,6.0266,0,0,0,6.40745,5.70384,5.77578,5.77578,0,0,0,3.41724-1.45738,6.29127,6.29127,0,0,0,2.08551-5.20129A6.02316,6.02316,0,0,0,184.44919,137.49929Z" fill="#0b3a60"/><path d="M92.00677,74.657a5.93067,5.93067,0,0,0,2.78914-1.35686,6.30768,6.30768,0,0,0,2.01014-5.85461,5.97165,5.97165,0,0,0-6.935-4.97514,6.20521,6.20521,0,0,0-4.79931,7.21145A5.9717,5.9717,0,0,0,92.00677,74.657Z" fill="#0b3a60"/><path d="M190.32891,161.79715a6.16319,6.16319,0,0,0-5.12594-6.9602,6.0299,6.0299,0,0,0-6.70887,5.32694,6.16319,6.16319,0,0,0,5.12594,6.9602,5.72907,5.72907,0,0,0,4.64844-1.43225A6.121,6.121,0,0,0,190.32891,161.79715Z" fill="#0b3a60"/><path d="M178.51925,183.6328a5.69612,5.69612,0,0,0,5.85457-1.13071,6.30035,6.30035,0,0,0-1.85938-10.55337,5.91207,5.91207,0,0,0-7.61349,3.76906A6.25636,6.25636,0,0,0,178.51925,183.6328Z" fill="#0b3a60"/><path d="M107.38451,73.42561a5.77162,5.77162,0,0,0,4.02034-1.4825,6.33588,6.33588,0,0,0,2.11067-4.548,5.974,5.974,0,1,0-6.131,6.0305Z" fill="#0b3a60"/><path d="M122.6618,75.51123a5.7834,5.7834,0,0,0,5.25154-1.30661,6.27891,6.27891,0,0,0-2.48755-10.72925,5.95092,5.95092,0,0,0-7.18638,4.57312A6.24158,6.24158,0,0,0,122.6618,75.51123Z" fill="#0b3a60"/><path d="M29.81737,161.14385a6.32252,6.32252,0,0,0,2.08555-5.2013,6.04346,6.04346,0,0,0-6.4074-5.70384,6.109,6.109,0,0,0-5.47772,6.65866,6.04347,6.04347,0,0,0,6.40741,5.70384A5.63987,5.63987,0,0,0,29.81737,161.14385Z" fill="#0b3a60"/><path d="M40.57174,186.497a5.85244,5.85244,0,0,0-8.09091-2.48759,6.30634,6.30634,0,0,0-2.38706,8.39244,5.86508,5.86508,0,0,0,9.12109,1.75889A6.35839,6.35839,0,0,0,40.57174,186.497Z" fill="#0b3a60"/><path d="M30.67168,179.38633a5.87356,5.87356,0,0,0,2.186-1.23122,6.38258,6.38258,0,0,0,1.85942-6.48278,5.94031,5.94031,0,0,0-7.41247-4.19622,6.23321,6.23321,0,0,0-4.04546,7.68888A5.91759,5.91759,0,0,0,30.67168,179.38633Z" fill="#0b3a60"/><path d="M25.64627,145.2638a5.81669,5.81669,0,0,0,4.64848-1.43224,6.27564,6.27564,0,0,0,2.03533-3.89469,6.16325,6.16325,0,0,0-5.12594-6.96019,5.993,5.993,0,0,0-6.68381,5.32693A6.14466,6.14466,0,0,0,25.64627,145.2638Z" fill="#0b3a60"/><path d="M28.30973,128.152a5.80519,5.80519,0,0,0,5.85461-1.13071A6.30037,6.30037,0,0,0,32.30492,116.468a5.92213,5.92213,0,0,0-7.61349,3.76906A6.27836,6.27836,0,0,0,28.30973,128.152Z" fill="#0b3a60"/><path d="M103.38932,226.57468a6.20025,6.20025,0,0,0-.32659,12.38763,5.77154,5.77154,0,0,0,4.02027-1.48251,6.25823,6.25823,0,0,0-3.69368-10.90512Z" fill="#0b3a60"/><path d="M40.89837,198.98543a6.3703,6.3703,0,0,0-.6784,8.74421,5.82218,5.82218,0,0,0,8.41753.70356A6.37032,6.37032,0,0,0,49.316,199.689,5.82225,5.82225,0,0,0,40.89837,198.98543Z" fill="#0b3a60"/><path d="M118.76714,225.36857a6.19184,6.19184,0,0,0-4.79928,7.21147,5.97164,5.97164,0,0,0,6.935,4.97514,5.74347,5.74347,0,0,0,2.78915-1.382,6.34418,6.34418,0,0,0,2.01013-5.82948A5.95908,5.95908,0,0,0,118.76714,225.36857Z" fill="#0b3a60"/><path d="M88.11211,224.46451a5.95086,5.95086,0,0,0-7.18634,4.57312,6.23229,6.23229,0,0,0,4.39724,7.48785,5.85087,5.85087,0,0,0,5.27665-1.3066,6.1784,6.1784,0,0,0,1.93483-3.26652A6.256,6.256,0,0,0,88.11211,224.46451Z" fill="#0b3a60"/><path d="M60.47236,210.74463a5.81991,5.81991,0,0,0-8.36731,1.13072,6.35833,6.35833,0,0,0,1.08044,8.694,5.7852,5.7852,0,0,0,7.513-.17588,6.05277,6.05277,0,0,0,.85431-.9297A6.38643,6.38643,0,0,0,60.47236,210.74463Z" fill="#0b3a60"/><path d="M73.58868,219.11219a5.87732,5.87732,0,0,0-7.96527,2.91475,6.30788,6.30788,0,0,0,2.81422,8.26678,5.79762,5.79762,0,0,0,6.43252-.87945,6.149,6.149,0,0,0,1.50763-2.03528A6.29815,6.29815,0,0,0,73.58868,219.11219Z" fill="#0b3a60"/></svg>