<?xml version="1.0" encoding="utf-8"?>
<!-- Generator: Adobe Illustrator 28.3.0, SVG Export Plug-In . SVG Version: 6.00 Build 0)  -->
<svg version="1.1" id="Layer_1" xmlns="http://www.w3.org/2000/svg" xmlns:xlink="http://www.w3.org/1999/xlink" x="0px" y="0px"
	 viewBox="0 0 300 300" style="enable-background:new 0 0 300 300;" xml:space="preserve">
<style type="text/css">
	.st0{fill:#727272;}
	.st1{fill:#082E6E;}
</style>
<g>
	<path class="st0" d="M180,230.6c-9.4,5.5-17.7,10.7-26.3,15.1c-2.2,1.1-6.1,0.7-8.4-0.6c-29.3-16.6-58.4-33.4-87.4-50.6
		c-2.6-1.6-4.9-6.1-5-9.2c-0.4-32.9-0.2-65.9-0.4-98.8c0-4.8,1.9-7.5,5.8-9.8C87,60.3,115.5,44,143.9,27.3c4.6-2.7,8-2.6,12.5,0
		c28.6,16.8,57.4,33.2,85.9,50.1c2.5,1.5,4.8,5.5,4.9,8.4c0.3,33.4,0.3,66.9,0,100.3c0,2.8-1.9,6.7-4.2,8.2
		c-5.9,4-12.4,7.1-19.5,10.9c-2.9-6.5-6-12.4-8.1-18.6c-0.5-1.5,1.7-4,2.7-6c1.6-3.2,4.7-6.3,4.7-9.4c0.4-23.7,0.1-47.3,0.3-71
		c0-4.8-1.8-7.4-5.8-9.7c-20.6-11.6-41.1-23.4-61.5-35.4c-4-2.4-7.2-2.6-11.3-0.1c-20.8,12.3-41.9,24.2-62.6,36.5
		c-2.1,1.3-4.1,4.7-4.1,7.1c-0.4,24.7-0.5,49.4-0.2,74.1c0,2.7,2.2,6.5,4.5,7.9c21,12.5,42.1,24.7,63.5,36.5
		c2.5,1.4,6.8,0.9,9.7-0.2c4.9-2,9.3-5.2,14.9-8.3C173.5,216,176.6,222.9,180,230.6z"/>
	<path class="st1" d="M242.8,274.5c-11,0-20.4,0.4-29.8-0.3c-2.3-0.2-5-3.8-6.2-6.5c-15.7-35.5-31.2-71-46.8-106.5
		c-3.1-7-6.2-14-10.1-22.7c-8.7,19.3-16.6,37.2-24.9,55.7c-9-5.2-17.4-10-26.3-15.2c16.8-39,33.5-77.5,50.1-116
		c0.8,0,1.7,0.1,2.5,0.1C181.6,133.2,211.9,203.2,242.8,274.5z"/>
	<path class="st1" d="M57.4,274.5c8.2-19,15.9-36.7,23.9-55.1c8.2,4.7,15.8,8.9,23,13.5c1.1,0.7,1.7,4.1,1.1,5.6
		c-4.5,10.9-9.3,21.6-14.3,32.3c-0.7,1.6-2.7,3.5-4.2,3.6C77.5,274.7,68.2,274.5,57.4,274.5z"/>
</g>
</svg>
