<svg id="Layer_1" data-name="Layer 1" xmlns="http://www.w3.org/2000/svg" viewBox="0 0 300 300"><title>ABOS_Mark_Light</title><path d="M165.26837,106.74192,97.12758,211.96332h99.63354Z" fill="#33467a"/><path d="M68.93344,211.96332H97.12759l68.14474-105.21549Z" fill="#8085ab"/><path d="M148.46527,211.9574H77.32808l176.487-123.92072Z" fill="#a2c373"/><path d="M196.98038,211.9574H126.37254L253.81505,88.03668Z" fill="#6ea92f"/><path d="M46.185,211.95542H98.214l9.40792-74.73009Z" fill="#7ebde1"/><path d="M107.616,137.22731,98.208,211.9574h52.02506Z" fill="#3c8dcd"/><path d="M126.37452,211.9574h-29.245l17.79664-27.4811,10.441-16.12166,24.86,43.60276Z" fill="#57618f"/><path d="M102.87347,174.89456,68.93541,211.9574H98.208Z" fill="#609dd5"/><path d="M103.075,173.27487l-4.60817,36.61251,16.45745-25.413,10.441-16.12164-7.35568-12.83886Z" fill="#3c8dcd"/><path d="M141.41179,196.49151l-12.62752-22.14408,45.61156-37.12012,5.79921,19.37681Z" fill="#33467a"/><path d="M196.98038,211.9574H126.37254l53.8225-55.35131Z" fill="#033068"/></svg>