<svg id="Layer_1" data-name="Layer 1" xmlns="http://www.w3.org/2000/svg" viewBox="0 0 300 300"><title>ACXP_Mark_Light</title><path d="M81.28816,177.17529l-4.17288-11.94194H55.54759l-4.17288,11.94194H38.94985l21.14571-55.27893H72.708l21.05194,55.27893Zm-15.0505-42.36644L58.5952,156.54064H74.11456L66.519,134.80885Zm42.479,21.39421v1.18153q0,12.19518,8.9084,12.19512a7.74134,7.74134,0,0,0,5.29814-1.7301,5.82019,5.82019,0,0,0,1.96923-4.59955h11.20582l.09377.211A12.289,12.289,0,0,1,131.0345,173.905q-5.34507,4.19868-13.40947,4.19867-10.03371,0-15.63658-5.67559t-5.60291-15.04346v-1.13934q0-9.36792,5.60291-15.08566t15.63658-5.71778q8.48646,0,13.62046,4.32526a13.68,13.68,0,0,1,4.9465,11.41446l-.04689.211H124.8924a7.46907,7.46907,0,0,0-1.96923-5.338,6.93454,6.93454,0,0,0-5.29814-2.08879Q108.71659,143.96573,108.71663,156.20306Zm49.5588,21.85837q-7.40806,0-11.36992-4.21976t-3.96189-12.87028V136.15917h12.23731v24.89661q0,4.43077,1.641,6.41405a6.196,6.196,0,0,0,5.06372,1.98329q5.767,0,8.48642-3.37581V136.15917h12.33109v41.10051H172.20065l-1.07838-5.90767Q166.71494,178.06148,158.27543,178.06143Zm45.99544-.88614H191.98666V136.07478h11.44025l.51575,6.07646q3.5165-6.83605,10.08055-6.836a12.35343,12.35343,0,0,1,3.282.46417l-1.31281,9.832-4.50109-.12659q-5.2044,0-7.22048,3.92438Z" fill="#104684" fill-rule="evenodd"/><path d="M232.54329,136.07478l6.8454,13.08127H239.67l6.98605-13.08127h13.92523L246.84361,156.414l14.20654,20.76125H247.17181L239.67,163.54545l-7.45492,13.62984H218.28986L232.49641,156.414l-13.78457-20.33927Z" fill="#d40808" fill-rule="evenodd"/></svg>