<svg id="Layer_1" data-name="Layer 1" xmlns="http://www.w3.org/2000/svg" xmlns:xlink="http://www.w3.org/1999/xlink" viewBox="0 0 300 300"><defs><style>.cls-1{fill:#fff;}.cls-1,.cls-3,.cls-5{fill-rule:evenodd;}.cls-2{mask:url(#mask);}.cls-3{fill:#c2000b;}.cls-4{mask:url(#mask-2);}.cls-5{fill:#423c99;}</style><mask id="mask" x="150" y="55.98" width="108.77" height="188.02" maskUnits="userSpaceOnUse"><g id="prefix_d" data-name="prefix  d"><path id="prefix_c" data-name="prefix  c" class="cls-1" d="M150,56H258.76V244H150Z"/></g></mask><mask id="mask-2" x="41.24" y="55.99" width="108.76" height="188.03" maskUnits="userSpaceOnUse"><g id="prefix_f" data-name="prefix  f"><path id="prefix_e" data-name="prefix  e" class="cls-1" d="M41.24,56H150V244H41.24Z"/></g></mask></defs><g class="cls-2"><path class="cls-3" d="M234.83,219.66a108.32,108.32,0,0,0,12-17.24A53.53,53.53,0,0,1,204,156H184.14a73.3,73.3,0,0,0,50.69,63.71M257,130.73c.6,0,1.15.13,1.73.18a106,106,0,0,0-5.46-19.48,38.88,38.88,0,0,0-34.72,32.62h20.13A19.3,19.3,0,0,1,257,130.73m-3.73,57.84a106,106,0,0,0,5.46-19.48c-.58,0-1.14.17-1.73.17A19.29,19.29,0,0,1,238.71,156H218.58a38.89,38.89,0,0,0,34.72,32.62m-83.81-32.63H150A107.85,107.85,0,0,0,160.07,196l.81,1.73.35.65A108,108,0,0,0,205.1,244a108.15,108.15,0,0,0,18.38-12.93,87.93,87.93,0,0,1-54-75.13m54-87A107.64,107.64,0,0,0,205.1,56a108.15,108.15,0,0,0-43.91,45.68l-.29.57c-.3.59-.57,1.19-.86,1.79a108,108,0,0,0-10,40h19.48a87.94,87.94,0,0,1,54-75.13m23.37,28.66a107.57,107.57,0,0,0-12-17.25,73.32,73.32,0,0,0-50.69,63.72H204a53.52,53.52,0,0,1,42.9-46.47"/></g><g class="cls-4"><path class="cls-5" d="M61.29,144.05H81.42A38.88,38.88,0,0,0,46.7,111.43a106,106,0,0,0-5.46,19.48c.58,0,1.14-.18,1.73-.18a19.3,19.3,0,0,1,18.32,13.32m69.23,0H150A107.86,107.86,0,0,0,140,104c-.28-.6-.56-1.2-.85-1.79-.09-.19-.19-.38-.29-.57A108.13,108.13,0,0,0,94.9,56,107,107,0,0,0,76.52,68.92a87.91,87.91,0,0,1,54,75.13m-34.47,0h19.81A73.29,73.29,0,0,0,65.17,80.33a108.86,108.86,0,0,0-12,17.25,53.52,53.52,0,0,1,42.91,46.47m19.81,11.89H96.05a53.53,53.53,0,0,1-42.91,46.48,108.32,108.32,0,0,0,12,17.24,73.31,73.31,0,0,0,50.69-63.72M76.52,231.08A108.2,108.2,0,0,0,94.9,244a108.17,108.17,0,0,0,43.88-45.62l.33-.66c.29-.57.55-1.15.83-1.72A108,108,0,0,0,150,156H130.52a88,88,0,0,1-54,75.13M81.42,156H61.29A19.29,19.29,0,0,1,43,169.26c-.59,0-1.15-.12-1.73-.17a105.18,105.18,0,0,0,5.46,19.48,38.9,38.9,0,0,0,34.73-32.63"/></g></svg>