<svg id="Layer_1" data-name="Layer 1" xmlns="http://www.w3.org/2000/svg" viewBox="0 0 300 300"><title>ADIL_Mark_Light</title><path d="M177.85948,150.778c4.67488-3.54158,9.34976-7.08315,14.1663-10.76639a2.10138,2.10138,0,0,0-1.84162,0c-23.941,10.19974-47.88208,20.54114-71.82312,30.74087-15.86626,6.79982-31.59084,13.458-47.45709,20.11613-1.98329.85-2.40827,1.55829-1.275,3.68323A107.52836,107.52836,0,0,0,83.22862,213.818c4.67488,5.09987,4.53322,5.09987,9.91641,1.13331Q135.43142,183.07719,177.85948,150.778Z" fill="#c4a727"/><path d="M186.07593,132.78684h0l1.7-.56666h0c.56665-.14166,1.275-.14166,1.41663-.99164a2.91747,2.91747,0,0,0-2.125.425,4.87894,4.87894,0,0,0-2.83326.56665c-19.26616,3.68324-38.39065,7.36648-57.65682,11.04971-10.48306,1.98329-20.82445,4.10823-31.30751,6.09151-11.333,2.26661-22.66608,4.53321-33.99911,6.65815-1.13331.28333-2.26661.28333-2.12495,1.98329a99.52079,99.52079,0,0,0,6.37484,28.19093c.56666,1.41663.99165,2.40826,2.97493,1.41663l73.09808-33.99911C156.46837,146.66981,171.343,139.72833,186.07593,132.78684Z" fill="#c4a727"/><path d="M62.12084,151.91134c23.79938-5.66652,47.74042-11.19138,71.53979-16.8579,17.14122-3.96656,34.14077-8.07479,51.282-12.04135a.52041.52041,0,0,1,.425-.14166l-.425.28333a2.8698,2.8698,0,0,0,2.97492-.85c-.425-.425-.85-.28332-1.41663-.14166-12.183-.425-24.366,0-36.549-.56665-13.7413-.56666-27.62427,0-41.36558-.56666s-27.48261.14167-41.08226-.56665a2.98033,2.98033,0,0,0-3.39991,2.26661,102.54174,102.54174,0,0,0-4.95819,27.05762C59.00426,152.33633,59.9959,152.478,62.12084,151.91134Z" fill="#c4a727"/><path d="M195.42568,150.06972c.85-.56665,1.7-1.1333,1.55829-2.40827a4.37455,4.37455,0,0,0-2.2666,1.55829h0a2.01336,2.01336,0,0,0-.85.28333c-15.44126,11.04971-31.02419,21.95776-46.46545,33.00746-17.5662,12.32468-35.13241,24.791-52.69862,37.1157-3.25825,2.40827-3.25825,2.40827,0,4.95821a101.22693,101.22693,0,0,0,22.24109,12.608,2.76813,2.76813,0,0,0,3.8249-.85q22.52441-26.13682,45.33214-51.9903C175.73454,172.73579,185.65094,161.40275,195.42568,150.06972Z" fill="#c4a727"/><path d="M70.3373,115.64562c16.4329-.28332,32.72414-.70831,49.157-.99164,17.99119-.28333,36.26571-.56665,54.39858-.85,3.39991,0,6.94148-.28333,10.3414-.425h0a1.79677,1.79677,0,0,1,.14166-.85,25.90581,25.90581,0,0,0-3.54158-.85c-13.7413-3.11658-27.62427-6.23317-41.36558-9.34975-17.5662-3.96657-35.13241-8.07479-52.69862-12.183a3.16211,3.16211,0,0,0-3.68324,1.275,96.78148,96.78148,0,0,0-14.59128,21.3911C66.93738,115.64562,66.93738,115.64562,70.3373,115.64562Z" fill="#c4a727"/><path d="M203.21714,156.01957h0c.99164-.56666,1.275-1.55829,1.7-2.83326a4.70159,4.70159,0,0,0-2.40826,2.2666h0l-2.54994,2.54994c-8.21646,8.92477-16.57456,17.84953-24.791,26.7743q-24.64935,26.5618-49.2987,52.98195c-1.55829,1.7-.85,1.84162.85,2.2666a109.74094,109.74094,0,0,0,26.20765,3.25824,3.722,3.722,0,0,0,3.68324-2.2666c11.4747-20.82445,22.9494-41.50724,34.42409-62.3317C195.14236,171.31916,199.67557,163.95269,203.21714,156.01957Z" fill="#c4a727"/><path d="M168.08474,100.771c5.52485,1.1333,11.19137,1.98328,16.71623,3.11659h0c.70831.70831,1.55829.425,2.40827.56665h0c.70831.425,1.275.85,2.12494,0l-1.55829-.70832h0c-.56665-.28332-.99164-.70831-1.7-.56665-.56666-.28333-1.13331-.70831-1.7-.99164-22.94942-10.62472-45.75715-21.39111-68.70655-32.15749a3.52565,3.52565,0,0,0-3.54157.14166A108.11838,108.11838,0,0,0,96.12,79.66323a67.21232,67.21232,0,0,0-6.94149,5.66652c.85.28333,1.41663.425,1.84162.56665Q129.69408,93.3337,168.08474,100.771Z" fill="#c4a727"/><path d="M212.00025,160.83611h0a6.872,6.872,0,0,0,1.13331-2.97492h0c.425-.425.85-.99164.14166-1.275-.56665-.14166-.70831.56665-.85,1.13331h0l-.99164,1.84162h0l-49.44037,82.58951a4.81934,4.81934,0,0,0,1.41663.14166,83.49656,83.49656,0,0,0,24.791-7.36647c1.13331-.425,1.275-1.275,1.55829-2.12495,3.8249-12.183,7.50814-24.50768,11.333-36.6907C204.77544,184.49382,208.317,172.59413,212.00025,160.83611Z" fill="#c4a727"/><path d="M125.30252,67.90521c7.36648,3.11658,14.733,6.23317,21.95776,9.34975,14.16629,5.94984,28.19093,11.89969,42.21556,17.9912h0a2.76921,2.76921,0,0,0,2.6916.85,1.99672,1.99672,0,0,0-1.55829-1.41663h0c-12.183-9.34975-24.5077-18.41618-36.40738-28.04926-4.67487-3.8249-9.20809-5.24153-15.15793-4.10823-5.52486,1.13331-11.04971,1.7-16.43291,3.8249A6.42042,6.42042,0,0,0,125.30252,67.90521Z" fill="#c4a727"/><path d="M232.96636,177.694l-1.7-15.72458h-.70831c-1.13331,10.05806-2.26661,20.11613-3.25826,30.03255h0a29.46564,29.46564,0,0,0-.99163,8.64144h0c.14166.425,0,1.69995.70831.56665,3.39992-5.52486,8.07479-10.48306,6.65816-17.70787A38.2969,38.2969,0,0,1,232.96636,177.694Z" fill="#c4a727"/><path d="M198.11728,76.405l6.65815,6.23317A7.00124,7.00124,0,0,0,198.11728,76.405Z" fill="#c4a727"/><path d="M239.90785,160.55278v3.82489C240.4745,163.24437,241.74946,161.82774,239.90785,160.55278Z" fill="#c4a727"/><path d="M220.5,162.53606h0q-11.26221,33.14913-22.52441,66.86491c.56665-.14166.99163-.28332,1.55829-.425a86.0706,86.0706,0,0,0,17.14121-14.1663,7.22427,7.22427,0,0,0,1.55829-4.39155c.28333-4.39155.56666-8.64144.85-13.033.70831-10.76638,1.41663-21.53276,2.12494-32.44081h0c.85-1.41663.425-2.83326.425-4.53321A2.49771,2.49771,0,0,0,220.5,162.53606Zm.56665,2.40827Z" fill="#c4a727"/><path d="M162.13489,63.797h0L196.559,88.30467l.425-.56665a3.08449,3.08449,0,0,0-.70831-1.1333c-5.09988-6.23317-10.3414-12.46634-15.58293-18.69951a3.46317,3.46317,0,0,0-1.55829-1.275c-4.95821-1.55829-9.91642-3.25825-15.15794-3.54157h0a5.89848,5.89848,0,0,0-3.8249-.425l1.98328,1.1333Z" fill="#c4a727"/></svg>