<svg id="Layer_1" data-name="Layer 1" xmlns="http://www.w3.org/2000/svg" viewBox="0 0 300 300"><title>ADTX_Mark_Light</title><path d="M169.71769,183.56244a59.52717,59.52717,0,0,0-7.67767-31.7577c-1.047-2.09394-2.44289-3.83886-3.48985-5.93274-4.18782-6.97971-3.83884-13.95942.349-20.59013,4.18781-6.28175,10.12058-9.4226,17.79825-8.37563,8.37566,1.047,13.95942,5.58379,16.40231,13.61041,1.74493,5.93275,1.047,11.51654-2.79189,16.40231a58.28487,58.28487,0,0,0-9.77161,22.335c-1.39595,7.32872-.698,14.65738-1.047,21.9861,0,1.047.698,1.39592,1.74493,1.74493,8.02668,2.79189,11.86552,8.72464,12.56348,17.10027s-4.18782,16.75131-13.95942,19.54321c-8.02668,2.44289-15.00639,0-20.24118-6.63071-4.8858-6.28175-5.58376-13.26146-2.0939-20.59012.698-1.39592.698-2.09393-.349-3.48985q-7.85218-8.89912-15.70435-17.79829a20.53,20.53,0,0,0-16.05333-7.32871c-9.4226,0-16.75131-5.58379-19.1942-14.30843a2.30731,2.30731,0,0,0-2.44289-2.09394,30.01855,30.01855,0,0,0-5.58376-.349c-1.39595,0-1.74493,1.047-2.09391,1.74493A19.30763,19.30763,0,1,1,75.1426,130.86555c3.14087-.698,6.63073-1.047,9.42261-2.09393a16.53886,16.53886,0,0,0,6.28174-4.18781c6.28173-7.32872,12.21449-15.00639,13.95942-24.778a78.879,78.879,0,0,0,.349-9.07364c-.349-11.16753,6.63073-19.89217,17.79825-20.93913a18.79619,18.79619,0,0,1,20.59015,16.75131c1.39595,9.4226-4.53682,18.49625-13.61044,20.59013-12.21449,2.79189-20.59015,9.7716-27.56986,19.54321-3.48985,5.23478-5.58376,10.46956-5.23478,16.75131q0,3.14091,3.14087,3.14085h1.047c3.48987.698,5.58377,0,7.67768-3.48986,4.18782-7.32871,13.26146-10.12055,21.28811-7.67767a18.75362,18.75362,0,0,1,13.61044,18.49625c0,3.14084-.698,6.6307.349,9.7716a25.33778,25.33778,0,0,0,5.93275,10.81857c4.8858,5.58379,10.12058,11.16753,15.00638,16.75132,1.047,1.047,1.74493,1.74493,3.14088,1.047,1.39595-.349,1.39595-1.74493,1.39595-2.7919C169.71769,188.09926,169.71769,186.00538,169.71769,183.56244Z" fill="#2b97d1"/><path d="M75.84059,229.97752a16.01049,16.01049,0,0,1-16.05333-16.05335,16.05333,16.05333,0,1,1,32.10665,0A15.39149,15.39149,0,0,1,75.84059,229.97752Z" fill="#2e3e71"/><path d="M239.5148,150.05986a14.31267,14.31267,0,0,1-14.65739,14.65739A14.74583,14.74583,0,0,1,210.2,150.05986a14.37238,14.37238,0,0,1,14.3084-14.30842A14.11693,14.11693,0,0,1,239.5148,150.05986Z" fill="#2e3e71"/><path d="M239.5148,84.79958A14.44955,14.44955,0,0,1,224.85741,99.108C215.7838,99.108,210.2,91.08133,210.2,84.45063s5.23479-14.65738,14.65738-14.65738A14.355,14.355,0,0,1,239.5148,84.79958Z" fill="#2e3e71"/><path d="M189.26088,82.35664a12.97981,12.97981,0,0,1-12.56348,12.5635c-7.67767-.349-12.56347-5.93274-12.56347-12.5635s5.58376-12.21449,12.56347-12.56347C183.67711,69.7932,189.60986,75.37693,189.26088,82.35664Z" fill="#2e3e71"/><path d="M112.48406,217.763c0-6.6307,5.58377-12.5635,12.2145-12.21449,8.02667.349,11.86551,5.93274,12.21449,12.21449a12.21981,12.21981,0,0,1-12.56347,12.21449C117.71885,230.32653,111.7861,224.04478,112.48406,217.763Z" fill="#2e3e71"/><path d="M239.5148,218.461a11.27239,11.27239,0,0,1-11.86552,11.51653,11.69231,11.69231,0,0,1,0-23.382A11.76757,11.76757,0,0,1,239.5148,218.461Z" fill="#2e3e71"/><path d="M70.25682,90.73233A10.28269,10.28269,0,0,1,59.78726,80.26276,10.49936,10.49936,0,0,1,70.25682,69.7932,10.36429,10.36429,0,0,1,80.72639,80.61177,10.20853,10.20853,0,0,1,70.25682,90.73233Z" fill="#2e3e71"/></svg>