<svg id="Layer_1" data-name="Layer 1" xmlns="http://www.w3.org/2000/svg" viewBox="0 0 300 300"><title>ANL_Mark_Light</title><path d="M236.40508,134.9535h0c-.15646-.60339-.33522-1.22915-.514-1.8326s-.13409-.514-.2235-.78222l-.53638-1.78785a2.38978,2.38978,0,0,0-.24583-.73748c-.62576-1.87727-1.31856-3.77691-2.05607-5.63181l-.40225-1.00571c-.2235-.49167-.42463-1.00571-.6481-1.51969l-.514-1.11742c-.20113-.46931-.42463-.93867-.6481-1.408s-.71517-1.51968-1.11743-2.23485c-.17879-.38-.37992-.75984-.58105-1.1398l-.78221-1.45264c-.20113-.38-.40226-.75985-.62576-1.11743s-.58105-1.028-.89392-1.54206l-.55872-.961c-.49167-.80455-.98334-1.6091-1.49735-2.41365l-.35758-.514-1.31856-1.96669-.55871-.80455c-.42463-.58105-.82689-1.16213-1.27389-1.72085a7.47853,7.47853,0,0,1-.53638-.7375c-.60342-.80455-1.2068-1.6091-1.85493-2.39132l-1.8326-2.23485L216.202,97.095c-.40225-.514-.78221-.98334-1.13976-1.475l-.73751-.98335c-.33521-.42462-.64809-.87159-.961-1.29622l-.75984-1.00567q-.42467-.64815-.87159-1.20681l-.73751-1.05039c-.26817-.37992-.55871-.75984-.82689-1.16213l-.6928-1.00568L208.69291,86.77l-.67046-1.00568-.73751-1.09509c-.2235-.33522-.447-.67047-.64809-1.00568s-.46934-.71517-.71517-1.05039-.40226-.67046-.62576-.98334-.42463-.6928-.64809-1.028l-.60342-.98334-.60342-.98334-.58105-.961-.58106-.961-.53637-.9163c-.1788-.31287-.35759-.62575-.55872-.93863l-.49167-.87159-.53638-.93864-.46933-.82688-.49167-.9163-.447-.80455-.46933-.8716-.40226-.75984c-.15645-.29054-.29054-.58105-.447-.84926l-.35759-.7375c-.15645-.26817-.29054-.53638-.42463-.80455s-.24583-.46934-.35758-.71517-.24584-.514-.37992-.75984l-.33522-.67047-.33521-.7375c-.11175-.20113-.2235-.42463-.31288-.62576l-.33522-.71517-.26817-.581-.29054-.67047a5.71839,5.71839,0,0,1-.24583-.53637l-.29055-.62576c0-.17879-.15645-.33522-.2235-.514s-.17879-.37992-.24583-.58105l-.20113-.447-.2235-.55872a3.17343,3.17343,0,0,1-.17879-.40225l-.20113-.514a2.72914,2.72914,0,0,1-.15646-.37992c0-.15646-.13408-.31288-.17879-.447l-.13409-.31288-.15645-.42462v-.26818l-.13409-.37992a.93877.93877,0,0,1,0-.2235l-.13408-.35758a.31321.31321,0,0,0,0-.13409,1.88105,1.88105,0,0,1,0-.26817.31284.31284,0,0,1,0-.13408,1.698,1.698,0,0,1,0-.24584h0v-.17879a44.6976,44.6976,0,0,0-11.666,11.733l-1.36326.87156a1.361,1.361,0,0,1-.15646.2235,46.93194,46.93194,0,0,0-3.978,44.69712,24.1628,24.1628,0,0,0,1.58677,3.30761,46.9311,46.9311,0,0,0,8.76063,11.68832l.9163,1.18447c27.46636,34.12623,1.16213,77.90705-35.46716,77.90705S87.005,160.90021,114.47134,126.774c.62576-.78221,3.9557-4.02271,4.6485-4.84967A46.932,46.932,0,0,0,113.121,55.82412q-1.07553-.89654-2.203-1.7277c-.60342-.46933-1.07273-.80455-1.36327-.98334l-.26817-.20113h0c-.49167,1.45264-7.48678,21.85689-27.891,47.20015-.62576.78221-1.25152,1.58676-1.85494,2.39131l-.53637.71517L77.7303,104.9841l-.53638.75985c-.49167.6928-.93863,1.3856-1.408,2.10077l-.2905.2905-1.51969,2.436-.514.89393c-.33521.53634-.64809,1.09505-.961,1.63147l-.55871,1.028c-.31288.55872-.60342,1.11743-.89393,1.67614l-.46934.9163c-.40225.78222-.78221,1.56443-1.16213,2.36894-.20113.40226-.37992.80452-.55872,1.20685l-.60342,1.36322c-.20113.42463-.37992.87163-.58105,1.31856l-.514,1.27389c-.1788.447-.37993.9163-.53638,1.36323s-.581,1.51968-.84926,2.23485-.33521,1.00571-.514,1.51969l-.35758,1.09505-.46934,1.56443a4.86565,4.86565,0,0,1-.31287,1.07276c-.08938.35758-.31288,1.05038-.447,1.58673h0a89.24293,89.24293,0,0,0,166.98841,61.05628A88.344,88.344,0,0,0,236.40508,134.9535Z" fill="#00ddc8"/></svg>