<svg id="Layer_1" data-name="Layer 1" xmlns="http://www.w3.org/2000/svg" viewBox="0 0 300 300"><defs><style>.cls-1{fill:#21a39a;}.cls-2{fill:#f2cd56;}.cls-3{fill:#fefefe;}</style></defs><title>ADVM_Light_bg</title><path class="cls-1" d="M119.76,89.66q-4,8.91-8,17.85Q86.69,163.6,61.6,219.68c-1.15,2.57-2.9,4.4-5.85,4.66a6.14,6.14,0,0,1-6.65-7.93,33.75,33.75,0,0,1,2.29-5.36q29.48-64.45,59-128.88c.22-.48.46-1,.69-1.45,2.86-6.12,8.62-6.57,13.2-5.1,2.57.82,4.12,2.86,5.21,5.24q9,19.65,18,39.32c3.61,7.88,7.24,15.75,10.81,23.65.48,1.06.91,1.28,2,.89q26.41-9.28,52.85-18.48a8.85,8.85,0,0,1,5-.6,6.78,6.78,0,0,1,.86,13c-2.46.94-5,1.76-7.45,2.62q-22.69,7.92-45.42,15.79c-1.24.43-1.43.81-.88,2Q177.69,186,190,212.87c.76,1.64,1.66,3.2,1.54,5.1-.33,5.34-5.52,8-10.38,5.33-3.45-1.93-6.82-4-10.22-6q-33.57-19.77-67.16-39.53c-2.2-1.29-4-2.82-4.25-5.55-.36-3.53,1.33-6.16,5-7.49,4.67-1.71,9.35-3.37,14-5.05q13.49-4.84,27-9.66c1.05-.37,1.33-.72.83-1.84q-13-28.77-25.87-57.58C120.32,90.27,120.28,89.84,119.76,89.66Zm49.65,110.73.16.17c.16-.11.1-.21,0-.31a8.25,8.25,0,0,0-.31-1Q161.12,181.15,153,163c-.41-.94-.84-.91-1.65-.62q-9.4,3.42-18.84,6.79c-3.27,1.17-6.54,2.36-9.86,3.56a2.62,2.62,0,0,0,1.25,1q17.76,10.47,35.53,20.92C162.74,196.58,166,198.68,169.41,200.39Z"/><path class="cls-2" d="M232,123.14a9.73,9.73,0,0,1,9.87-9.92,9.93,9.93,0,1,1,0,19.85A9.88,9.88,0,0,1,232,123.14Z"/><path class="cls-3" d="M169.54,200.25c.13.1.19.2,0,.31l-.16-.17A.86.86,0,0,0,169.54,200.25Z"/></svg>