<svg id="Layer_1" data-name="Layer 1" xmlns="http://www.w3.org/2000/svg" xmlns:xlink="http://www.w3.org/1999/xlink" viewBox="0 0 300 300"><defs><linearGradient id="linear-gradient" x1="92.51855" y1="-4981.37381" x2="221.19523" y2="-4860.22213" gradientTransform="matrix(1, 0, 0, -1, 0, -4786.09304)" gradientUnits="userSpaceOnUse"><stop offset="0" stop-color="#fff"/><stop offset="0.7304" stop-color="#4ab84b"/></linearGradient></defs><title>ALRN_Mark_Light</title><path d="M245.0777,74.61607s-57.91321-4.86133-112.09236,41.77923C87.04932,155.92,59.22,225.52859,59.22,225.52859s24.79982-56.8564,76.37217-98.98791,89.89934-36.84746,89.89934-36.84746,1.47954,16.20443-13.9499,32.3384C211.612,122.03163,239.79365,106.24993,245.0777,74.61607Z" fill="url(#linear-gradient)"/><path d="M222.03924,142.95648A20.75,20.75,0,1,1,201.678,122.10209,20.777,20.777,0,0,1,222.03924,142.95648Zm-2.7477-.07046a18.002,18.002,0,1,0-17.96577,17.89532A18.07294,18.07294,0,0,0,219.29154,142.886Z" fill="#1f66b0"/><path d="M228.66192,122.66572c6.69314,10.35674,13.38627,20.643,20.57259,31.70431v-30.6475c.98635-1.26818,1.76135-.91591,2.67724-.70454v39.73608c-.21135.07045-.49318.21136-.70454.28181-6.69313-10.35674-13.38626-20.643-20.57258-31.70431v30.99977c-1.12727.9159-1.97271.9159-2.74771.28181V122.94753A4.64878,4.64878,0,0,0,228.66192,122.66572Z" fill="#1f66b0"/><path d="M151.72612,122.80662c6.2-.49317,11.97718-.49317,17.33169,2.6068,4.15679,2.39543,6.9045,5.70678,6.975,10.63856.07045,5.07269-2.74771,8.52494-6.975,10.99084-.70454.42272-1.62044.49317-2.18408,1.62044,3.24089,4.2977,6.62268,8.7363,9.86357,13.10445a2.34236,2.34236,0,0,1-2.18408,1.76135c-3.5227-4.65-7.18631-9.37038-10.77947-14.16126-3.1.21136-6.1295.35227-9.37039.56364V162.4018a1.9328,1.9328,0,0,1-2.7477.21136C151.72612,149.43825,151.72612,136.26335,151.72612,122.80662Zm2.88862,24.02483c4.65.35227,8.94766-.1409,12.89309-2.25453,3.38179-1.8318,5.91813-4.50905,5.84768-8.52494s-2.53635-6.69313-5.98859-8.45448a21.31652,21.31652,0,0,0-12.75218-2.11362Z" fill="#1f66b0"/><path d="M127.63084,122.66572h13.31581c1.47954.07045,2.95907.1409,4.22724.21136.70454,1.05681.42273,1.6909-.35227,2.74771H125.09449v13.24535h15.64079c1.40909.98636,1.19772,1.83181.775,3.1H125.30586V160.0768h19.37485c1.05682.98635,1.19772,1.76135.63409,2.81816H122.13542V128.16112c.14091-1.69089.21136-3.38179.35227-5.49541Z" fill="#1f66b0"/><path d="M64.22222,122.66572c5.07269,13.1749,10.07493,26.34981,15.07716,39.24289-.49318,1.33862-1.40908,1.05681-2.325,1.47954-1.47953-3.73407-2.81816-7.32722-4.22724-10.84992H54.85183c-1.33862,3.45224-2.67725,6.975-4.01587,10.35674-.91591.63408-1.62045.28181-2.74771-.49317,5.00223-13.10446,10.07492-26.34981,15.14761-39.59517A2.56764,2.56764,0,0,1,64.22222,122.66572Zm-.42272,6.55222c-2.74771,7.04541-5.2136,13.45673-7.8204,20.14986H71.61989C68.94264,142.60421,66.47675,136.26335,63.7995,129.21794Z" fill="#1f66b0"/><path d="M115.65366,160.28816c.98636.91591.63409,1.6909.56363,2.67726H94.65836V123.2998c.70454-.775,1.47953-.56363,2.74771-.21136V159.795C103.81738,160.49953,109.87643,160.00635,115.65366,160.28816Z" fill="#1f66b0"/><path d="M87.47205,162.75405a2.24391,2.24391,0,0,1-2.39544-.07045V123.44071c.70454-.91591,1.47954-.70454,2.39544-.35227Z" fill="#1f66b0"/></svg>