<?xml version="1.0" encoding="UTF-8"?>
<svg xmlns="http://www.w3.org/2000/svg" version="1.1" viewBox="0 0 300 300">
  <defs>
    <style>
      .cls-1 {
        fill: #021f8c;
      }
    </style>
  </defs>
  <!-- Generator: Adobe Illustrator 28.6.0, SVG Export Plug-In . SVG Version: 1.2.0 Build 709)  -->
  <g>
    <g id="Layer_1">
      <g>
        <path class="cls-1" d="M84.3,79.8c-1.6,3.3-3.4,6.4-4.7,9.8-4.1,10.6-4.8,22.1-2,33.1,0,.2.1.3.2.6h86.7c3.5,0,5.6,2.1,5.4,5.3-.2,2.4-2.1,4.3-4.5,4.4h-84.6c6.7,16.1,18.3,28.4,30.3,40.2h83.6c2.2-.1,4.3,1.3,4.9,3.5.7,2-.2,4.3-2.1,5.4-1,.5-2.2.8-3.3.8h-71.5c.6.5,1,.8,1.3,1.1,8.2,6.2,16.5,12.3,24.6,18.8,5.7,4.6,10.7,10.1,14.7,16.3,7.8,12.2,8.6,25.1,3.2,38.4-1.7,4.3-4.2,8.2-6.3,12.3-.2.3-.4.7-.7,1-.5-5.5-2-10.8-4.5-15.8-4.5-9.3-10.3-18-17.2-25.7-9.8-11.4-21.1-21.3-32.8-30.8-11.5-9.2-21.3-20.4-28.9-33-5.7-9.6-9.4-20.3-10.7-31.4-.7-6.8-.2-13.7,1.3-20.3,2.5-10.9,7.6-20.4,14.1-29.3,1.1-1.5,2.4-2.9,3.6-4.4h0Z"/>
        <path class="cls-1" d="M215.6,220.9c.1-.5.3-1.1.5-1.6,4.8-7.9,7.4-16.9,7.8-26.2.5-11.7-2.7-22.6-8.1-32.8-.3-.6-.6-1.2-1-1.8,0-.2-.2-.3-.4-.6h-98.8c-.7,0-1.4,0-2.1-.2-2.5-.8-4-3.4-3.2-6,.6-1.9,2.2-3.3,4.2-3.4h93.7c-1.5-1.9-2.8-3.5-4-5.1-10.4-12.6-22.6-23.7-36.2-32.9-3.5-2.4-6.9-5-10.4-7.6h-54.9c-2.7.1-4.9-1.9-5.1-4.6s1.9-4.9,4.6-5.1c.2,0,.3,0,.5,0h43.8c-1.2-1.3-2.1-2.3-3.1-3.3-5.4-6-9.8-12.5-12.1-20.4-2.5-9.3-1.3-18.3,2.2-27,1.9-4.6,4.3-9,7.1-13.1.5,5.7,2.1,11.3,4.7,16.4,3.9,8,8.7,15.5,14.5,22.3,10,11.8,21.2,22.6,33.3,32.2,12.7,10.3,23.9,22.1,31.9,36.5,5.5,9.6,8.9,20.2,9.8,31.2.4,5.2,0,10.4-.9,15.6-2.4,13.6-9.1,25.1-17.4,35.9-.3.4-.6.9-.9,1.3h0Z"/>
      </g>
    </g>
  </g>
</svg>