<svg id="Layer_1" data-name="Layer 1" xmlns="http://www.w3.org/2000/svg" viewBox="0 0 300 300"><title>AKAN_Mark_Light</title><path d="M149.91806,240.01336c-49.03314-.28733-91.31047-39.76-89.88293-92.93055a89.36876,89.36876,0,0,1,89.93975-87.09606c49.82987-.07735,90.926,39.57075,90.0101,91.96072C239.14768,199.84606,200.69394,239.51185,149.91806,240.01336Zm62.24476-90.08782c0-17.29375-.05169-34.5878.05341-51.88092.01653-2.7284-.70795-4.90356-2.76216-6.57045-5.03929-4.089-9.89791-8.45923-15.25851-12.08087a73.13243,73.13243,0,0,0-32.7568-12.091,88.88044,88.88044,0,0,0-25.80612.52328,81.549,81.549,0,0,0-19.13878,5.76127A88.0817,88.0817,0,0,0,90.5776,91.37376a14.95555,14.95555,0,0,0-4.86089,11.75909c.2229,32.2513.13446,64.50494.07608,96.75768a8.243,8.243,0,0,0,2.38344,5.97609,85.93626,85.93626,0,0,0,15.88119,13.7107,80.40379,80.40379,0,0,0,32.52789,12.80206,74.99341,74.99341,0,0,0,22.39215.52553c8.64521-1.23775,16.97988-3.14859,24.91018-6.7771A83.01,83.01,0,0,0,210.17,207.64408a7.1864,7.1864,0,0,0,2.03286-5.31863C212.13172,184.859,212.16276,167.39224,212.16282,149.92554Zm7.10655-45.89349c-1.11345,3.49224-.74855,90.2987.29889,91.7194C239.2223,167.20292,236.95967,128.42239,219.26937,104.03205ZM78.46581,193.09738c1.37287-3.64036,1.07877-84.06216-.26968-85.792C62.59754,135.8686,62.621,164.15553,78.46581,193.09738Z" fill="#0e2841"/><path d="M150.07333,108.4117q-21.71059,49.9455-43.48077,100.02788H98.59131c17.27573-39.78863,34.42146-79.27787,51.6333-118.91933,2.7607,3.61612,50.4941,116.84836,50.162,118.77413-5.50638,1.31978-6.55376.84605-8.68082-4.1503-5.66171-13.29914-11.26609-26.6227-16.9496-39.9125-5.08091-11.88091-10.23709-23.72963-15.70508-36.39148-6.4235,13.68809-11.756,27.28682-17.57354,40.66483-5.81739,13.37741-11.52231,26.80376-17.20582,40.044h-7.77265c.94117-2.39472,1.69951-4.45748,2.55474-6.47928q10.65883-25.19758,21.36042-50.377,6.70419-15.69442,13.62626-31.29535c1.24566-2.81186-.40063-4.99414-1.18517-7.3611a40.27067,40.27067,0,0,0-2.04521-4.4094Z" fill="#0e2841"/></svg>