<?xml version="1.0" encoding="UTF-8"?>
<svg xmlns="http://www.w3.org/2000/svg" version="1.1" viewBox="0 0 300 300">
  <defs>
    <style>
      .cls-1 {
        fill: #ec2026;
      }

      .cls-2 {
        fill: #a72024;
      }
    </style>
  </defs>
  <!-- Generator: Adobe Illustrator 28.6.0, SVG Export Plug-In . SVG Version: 1.2.0 Build 709)  -->
  <g>
    <g id="Layer_1">
      <g>
        <path class="cls-2" d="M65,222.9c11.4-19.9,22.9-39.8,34.4-59.9,16.3-28.2,32.6-56.5,48.9-84.8.3-.5.7-1.1,1.4-2.2,9.3,16.3,18.6,32,27.8,48.1-3.8,6.6-7.6,13.3-11.8,20.3-5.4-9.3-10.6-18.2-16.1-27.8-18.4,32-36.7,63.5-55,95.2-10,3.1-19.8,7.2-29.1,11.9,0-.4-.3-.8-.4-.9Z"/>
        <path class="cls-1" d="M235,223.6c-1.4.9-2.3-.3-3.1-.8-7.9-4.1-16-7.6-24.5-10.2-1.8-.4-3.3-1.5-4.2-3.1-10.6-18.3-21.1-36.7-31.7-55.1-.3-.4-.4-.9-.5-1.4,3.8-6.5,7.6-13,11.6-20,17.6,30.7,34.9,60.7,52.4,90.6h0Z"/>
        <path class="cls-1" d="M138.6,153.3c3.7-6.4,7.2-12.5,11-19.1,14.4,24.9,28.4,49.2,42.8,74.1-8.5-1.4-16.1-2.8-24-3.5-9.9-17.1-19.8-34.1-29.8-51.5Z"/>
        <path class="cls-2" d="M106.7,208.5c9.2-15.8,17.7-30.9,26.7-46.3,3.9,6.6,7.5,12.7,11,19.1-4.5,7.9-9.1,15.7-13.5,23.4-8,.8-15.7,2-24.1,3.8Z"/>
      </g>
    </g>
  </g>
</svg>