<?xml version="1.0" encoding="UTF-8"?>
<svg xmlns="http://www.w3.org/2000/svg" version="1.1" viewBox="0 0 300 300">
  <defs>
    <style>
      .cls-1 {
        fill: #01b5af;
      }
    </style>
  </defs>
  <!-- Generator: Adobe Illustrator 28.6.0, SVG Export Plug-In . SVG Version: 1.2.0 Build 709)  -->
  <g>
    <g id="Layer_1">
      <g>
        <path class="cls-1" d="M185.2,176.7c-.1,2.4-.2,4.9-.3,7.2h-11.5c-.1-.6-.2-67.5-.1-69.2.5-.1,10.9-.2,12.2-.1.1.2.2.5.1.7v21.5c0,2-.1,4.2-.3,6.2,0,.3,0,.7-.1,1.1.2-.2.4-.4.5-.7.9-1.7,2.2-3.2,3.7-4.5,2-1.7,4.5-2.9,7.2-3.3,3.2-.6,6.5-.4,9.6.4,4.8,1.3,8.7,4.7,10.7,9.2,1.3,2.6,2.1,5.5,2.5,8.5.4,2.9.5,5.8.3,8.8-.2,4.4-1.2,8.7-3.3,12.5-2.3,4.6-6.5,7.9-11.6,9.1-3.4.8-6.8.7-10.2-.1-3.8-.9-6.9-3.3-9-6.6-.1-.2-.3-.5-.5-.7ZM207,160.1c0-1.5-.1-3-.4-4.5-.3-2-1-3.9-2-5.6-.9-1.6-2.4-2.9-4.2-3.6-3.3-1.3-7-.8-9.7,1.4-1.7,1.4-3.1,3.4-3.8,5.5-1.5,4.5-1.6,9.4-.1,13.9.6,1.9,1.6,3.7,3.2,5.1,3.5,3.4,8.9,3.6,12.5.4,1.3-1.2,2.3-2.6,3.1-4.3.9-2.6,1.4-5.5,1.4-8.4h0Z"/>
        <path class="cls-1" d="M40.1,119.9h14.5c8.6,21.3,17.1,42.7,25.7,64.1h-14.2c-1.8-4.8-3.7-9.7-5.6-14.6h-26.2c.1-.1,0,0,0-.1h0c0-.1.1-.2.1-.2,7.3-3.4,14.7-6.8,21.9-10.2h.1c0-.4-.1-.7-.2-.9-2.6-7.2-5.3-14.5-7.9-21.7-.4-1.1-.7-2.2-1-3.4,0-.2,0-.4-.2-.6-.2,0-.2.2-.2.3-.8,3.2-1.8,6.3-3,9.3-3.2,8.9-6.4,17.7-9.7,26.6-1.8,5-3.8,10-5.6,15,0,.2-.1.3-.3.5h-13.2c8.4-21.4,16.7-42.8,25.1-64.1Z"/>
        <path class="cls-1" d="M82.6,114.7h12.1c.2.2.1.4.1.6v33.3c0,2.2-.1,4.4-.2,6.6v.7c.1.1.2,0,.2-.1,2.4-3.6,5-6.9,7.7-10.2,2.3-3,4.7-5.9,7.1-8.9.1-.1.2-.3.3-.4h14.4c-1.1,1.5-2.3,2.9-3.5,4.3-1.1,1.4-2.3,2.9-3.6,4.3-1.2,1.4-2.3,2.9-3.6,4.3-1.2,1.4-2.3,2.9-3.6,4.3-1.2,1.4-2.3,2.9-3.6,4.3,6.6,8.8,13.2,17.4,20,26.3h-15.6c-.2-.1-.3-.3-.4-.5-4.2-5.8-8.2-11.7-12.4-17.5-1.2-1.7-2.3-3.5-3.4-5.4-.1-.1-.1-.2-.2-.4.2,7.9,0,15.9.1,23.7-.6.2-11.3.2-12.3.1l.2-69.4Z"/>
        <path class="cls-1" d="M167.7,164.1h-31.9c-.1.7,0,1.3.2,2,.9,4.9,4.7,8.7,9.6,9.6,4.3.9,8.8.5,12.7-1.2,1.9-.8,3.8-1.7,5.6-2.7.2-.1.4-.2.7-.4.1,3.6.2,7.1.2,10.6-1.5.7-3.1,1.2-4.6,1.7-4.7,1.3-9.5,1.9-14.4,1.6-3.1-.1-6-.8-8.9-1.9-5.8-2.3-10.2-7.1-12-13-.8-2.3-1.2-4.9-1.4-7.3-.3-3.8,0-7.5.9-11.2.8-3.2,2.2-6.1,4.3-8.7,2.4-3.2,5.8-5.4,9.6-6.6,4.8-1.5,9.9-1.7,14.7-.4,6.6,1.7,11,6.1,13.2,12.4,1.2,3.5,1.7,7.1,1.6,10.8.1,1.4,0,3.1-.2,4.8ZM156.2,155.4c.1-.1.1-.2.1-.3,0-1.8-.4-3.7-1-5.5-1.3-3.6-4.7-5.9-8.5-5.8-3.8-.3-7.3,1.7-9.2,5-1.1,2-1.8,4.3-2,6.6.5.1,19.9.1,20.6,0h0Z"/>
        <path class="cls-1" d="M284.9,183.9h-10.9c-.1-2.2-.1-4.5-.2-6.7-.3,0-.3.2-.4.4-2.5,3.8-6.5,6.3-11,6.8-3.3.6-6.6.4-9.8-.6-5.3-1.4-9.2-5.9-9.9-11.3-.4-2.2-.3-4.6.3-6.8.9-3.4,3.1-6.1,6.1-7.7,2.2-1.2,4.7-2.1,7.2-2.6,4.4-.8,8.8-1.1,13.1-.8,1.2.1,2.4.2,3.7.2.2-.2.2-.3.2-.5,0-1.5-.2-3.2-.8-4.6-.9-2.5-3.2-4.4-5.8-4.9-2.5-.6-5.3-.6-7.8-.1-3.8.7-7.3,2.2-10.4,4.5-.1.1-.3.2-.5.2-.1-3.5-.2-6.9-.4-10.3.2-.2.4-.4.7-.4,3.7-1.5,7.5-2.4,11.4-2.9,2.9-.3,5.8-.3,8.7,0,3.4.3,6.6,1.4,9.5,3.2,3.3,2,5.5,5.4,6,9.3.4,2.6.6,5.3.6,7.9.1,5.8,0,11.6.1,17.4.1,3.3.2,6.4.4,9.7,0,.2-.1.5-.1.7ZM273.3,162.5c-.3-.1-.7-.2-1.1-.2-2.4-.2-4.8-.1-7.2.2-1.8.2-3.6.5-5.2,1.1-1.3.5-2.5,1.2-3.6,2.2-2.3,2.4-2.6,7.8,2,9.8,1.8.8,4,.9,5.9.5,3.2-.6,5.8-2.6,7.4-5.5,1.4-2.4,2-5.3,1.7-8.1Z"/>
        <path class="cls-1" d="M237.5,183.9h-12.2v-47.6h12.2v47.6ZM237.7,116.1c.1.6.1,10.4,0,11.5-.5.2-11.6.2-12.6,0v-11.5h12.6Z"/>
      </g>
    </g>
  </g>
</svg>