<svg id="Layer_1" data-name="Layer 1" xmlns="http://www.w3.org/2000/svg" viewBox="0 0 300 300"><title>TCRT_Mark_Light</title><path d="M71.42633,156.479c10.89918-3.08819,21.83521-6.02762,32.96442-8.19092a3.19592,3.19592,0,0,0,.64439-.31626c1.10053-19.77678,9.08181-36.20123,24.69228-48.62083a61.39546,61.39546,0,0,1,40.97739-13.61707c33.2517.90827,60.40273,27.29279,62.225,61.44209,6.7835,1.36358,13.598,2.75772,20.34607,4.45607,6.30709,1.58742,12.5688,3.32673,18.77459,5.2704,2.99423.9378,4.15377,2.61436,3.39328,4.91911-.71472,2.16568-2.956,3.09612-5.70724,2.19781q-14.34721-4.68471-29.04527-8.09758c-2.54655-.58809-5.10394-1.1284-7.82157-1.727-2.11463,21.41611-11.75819,38.3484-29.82318,50.07174a60.69952,60.69952,0,0,1-42.73364,9.34787c-33.72014-4.81246-52.36834-32.70331-54.48587-55.45193l28.132-3.156c2.20543,12.20532,8.54121,21.45909,19.69134,27.06871a33.62374,33.62374,0,0,0,24.10669,2.5064,35.34948,35.34948,0,0,0,26.63032-34.94207,66.74281,66.74281,0,0,0-8.90207-1.10051,351.74424,351.74424,0,0,0-62.58409-.18449A360.82266,360.82266,0,0,0,72.31764,158.9423a8.15936,8.15936,0,0,0-.92458.36342,104.55719,104.55719,0,0,0-14.03258,4.06942,140.881,140.881,0,0,0-16.27479,5.56024c-.76241.22679-1.52832.44264-2.28665.6824-2.84825.90046-5.47094,2.42383-8.41886,3.04986.18766-.90639,1.07208-.89016,1.67114-1.179,2.635-1.27048,5.30745-2.46319,7.96632-3.68409q8.70363-3.36519,17.40731-6.73057Q64.42566,158.77626,71.42633,156.479Zm132.21008-13.3641c-2.079-13.86268-15.95114-29.52714-36.24558-28.59114-19.586.90333-31.51948,17.00913-32.88445,29.19389A341.09288,341.09288,0,0,1,203.63641,143.11487Z" fill="#ed5e2c"/><path d="M28.39445,173.44456c.09735.28818-.09962.40612-.30195.52087q-1.3724.51328-2.74381,1.02732l-.07151-.14989q1.13785-.69969,2.27586-1.39884Q27.97378,173.44485,28.39445,173.44456Z" fill="#ed5e2c"/><path d="M24.32966,175.25018l.31523,0c-.09085.0335-.18121.06861-.27394.09557A.71.71,0,0,1,24.32966,175.25018Z" fill="#ed5e2c"/><path d="M30.41581,172.64445a.9117.9117,0,0,1-1.25118.41811A.90752.90752,0,0,1,30.41581,172.64445Z" fill="#ed5e2c"/><path d="M29.20366,173.03981c-.05758.58207-.47833.45206-.84386.43029C28.48274,173.01611,28.83946,173.02067,29.20366,173.03981Z" fill="#ed5e2c"/></svg>