<?xml version="1.0" encoding="UTF-8" standalone="no"?>
<svg
   xml:space="preserve"
   id="Layer_1"
   x="0"
   y="0"
   version="1.1"
   viewBox="0 0 299.99999 299.99999"
   sodipodi:docname="mark_light.svg"
   width="300"
   height="300"
   inkscape:export-filename="mark_light.png"
   inkscape:export-xdpi="96"
   inkscape:export-ydpi="96"
   inkscape:version="1.2.1 (9c6d41e4, 2022-07-14)"
   xmlns:inkscape="http://www.inkscape.org/namespaces/inkscape"
   xmlns:sodipodi="http://sodipodi.sourceforge.net/DTD/sodipodi-0.dtd"
   xmlns="http://www.w3.org/2000/svg"
   xmlns:svg="http://www.w3.org/2000/svg"><defs
     id="defs2181" /><sodipodi:namedview
     id="namedview2179"
     pagecolor="#ffffff"
     bordercolor="#666666"
     borderopacity="1.0"
     inkscape:showpageshadow="2"
     inkscape:pageopacity="0.0"
     inkscape:pagecheckerboard="0"
     inkscape:deskcolor="#d1d1d1"
     showgrid="false"
     inkscape:zoom="1.620167"
     inkscape:cx="113.25993"
     inkscape:cy="155.23091"
     inkscape:window-width="1440"
     inkscape:window-height="847"
     inkscape:window-x="0"
     inkscape:window-y="25"
     inkscape:window-maximized="0"
     inkscape:current-layer="Layer_1" /><style
     id="style2166">.st0{fill:#3e007a}</style><g
     id="g2282"
     transform="matrix(2.4154148,0,0,2.4154148,-203.2676,73.419913)"><g
       class="logomark"
       id="g2172"
       transform="matrix(0.35784867,0,0,0.35784867,4.1726782,5.8331131)"><path
         d="m 417.6,129.5 c -20.8,0.7 -34.8,-9 -45.7,-24.3 -5.2,5.6 -9.8,11.5 -15.4,16.2 -33.3,28.1 -85.4,12.2 -97.9,-29.7 -8,-26.8 0.8,-55.1 22.7,-71.8 12.4,-9.5 26.9,-11.6 42.1,-10.3 24.4,2.2 40.4,16.1 51.3,37 13.6,25.9 27.1,51.7 40.6,77.6 0.8,1.5 1.3,3 2.3,5.3 z M 278.8,72.6 c -1.4,26.6 21.3,39.4 39.4,39.5 21.2,0.1 38.2,-18.2 38.6,-40.1 0.4,-27 -20.8,-39.3 -39.1,-39.5 -22.4,0 -39.6,18.8 -38.9,40.1 z"
         class="st0"
         id="path2168" /><path
         d="m 376.5,14.8 c 20,-0.2 34.2,9.2 45.3,25 1.9,-2.5 3.4,-4.6 5,-6.7 C 454.7,-3 513.5,2.4 532.6,43.9 548.8,79 530,121.5 489.7,130.7 462.4,136.9 435.9,125.5 422.3,101.3 406.9,73.9 392.4,46 377.5,18.2 c -0.4,-0.8 -0.5,-1.8 -1,-3.4 z m 139.2,55.5 c -0.2,-22.9 -17,-39.2 -40.2,-39 -22.2,0.2 -39.4,18 -39.5,40.4 -0.2,26.6 22.9,38.7 40.4,38.5 22.1,-0.3 39.5,-17.9 39.3,-39.9 z"
         style="fill:#9c7cb8"
         id="path2170" /></g></g></svg>
