<svg id="Layer_1" data-name="Layer 1" xmlns="http://www.w3.org/2000/svg" viewBox="0 0 300 300"><defs><style>.cls-1{fill:#f14249;}.cls-2{fill:#201500;}</style></defs><path class="cls-1" d="M31.29,179.17c-9.08-4.41-10.3-20.84-2.45-36.8,7.6-15.7,21.34-24.78,30.42-20.36,5.39,2.7,8.34,9.81,8.34,18.41,1-10.55-1.72-19.14-8.34-22.33-10.31-4.91-25.52,5.15-34.1,22.81s-7.36,36.06,2.94,41c6.38,3.19,15,.25,22.57-6.87-6.87,5.15-14.23,6.87-19.38,4.16Z"/><path class="cls-2" d="M43.06,151.7l8.34-12,1.22,12Zm-3.68,5.15h14l.49,5.15-2.46.24-2,4.91H64.15l1.23-4.91L63.91,162l-.5-2-3.66-30.42H52.39L31.54,160l-2,2.2-1.47.25-2,4.91H36.93l1.23-4.91L36,162.24l3.44-5.39Zm36.8-24-2-.25,1.23-5.15,13.25-.25-3,7.85L77.9,160l-.49,2.2,2.21.25-1.47,4.91h-13l2.7-7.36,7.85-25Zm19.63,21.34H94.58L90.42,167.4H80.12l2.7-7.36,8.1-25,.49-2.2-2.21-.25,1.47-4.91,13.25-.24-3,7.85-5.4,17.17h1.22a20.13,20.13,0,0,0,4.42-2.94,8.84,8.84,0,0,0,4.16-6.38,4.07,4.07,0,0,0-.49-3.44l10.06-.24a4.18,4.18,0,0,1,.24,1.72c-.49,4.66-6.38,8.83-10.3,11.28l4.66,10.06,1.72.24-1.47,4.91h-9.32l-4.66-13.49Z"/><path class="cls-2" d="M123.29,152.68c.73-2.7,3.43-8.35,6.62-8.35,1.72,0,2.21,1.23,2,2.95a5.93,5.93,0,0,1-3.19,4.42,10.65,10.65,0,0,1-5.39,1Zm16.43,5.88a31.32,31.32,0,0,1-13,3.68c-2.94,0-5.15-1.22-4.66-4.41,7.11.24,18.15-4.42,19.14-12.76a4.72,4.72,0,0,0-2-4.66,8.16,8.16,0,0,0-5.39-1.47,21.16,21.16,0,0,0-14.47,6.38A22.47,22.47,0,0,0,112,158.81c-.73,6.62,4.91,9.32,10.55,9.32a41.17,41.17,0,0,0,15.21-3.19Zm14.22-7.11h.74c2.45-4.91,8.83-12.51,14.72-12.51a2.49,2.49,0,0,1,2.21.73L167,148.75a3.17,3.17,0,0,0-2.46-1c-4.41,0-9.32,6.38-11.77,9.81l-3.44,9.82H139l3-8.1,4.16-13.49.24-1.23-2-.24,1.25-4.91,13-.25L154,151.46Zm26,0h.73a33.06,33.06,0,0,1,5.4-7.61c2.21-2.2,6.38-4.9,9.32-4.9a4.1,4.1,0,0,1,4.25,3.94h0a4.49,4.49,0,0,1-.08,1c-.25,1-.74,2.45-1,3.44l-1.48,4.16h.74a35.46,35.46,0,0,1,5.64-7.85,15.16,15.16,0,0,1,9.57-4.91,4.5,4.5,0,0,1,4.25,4.73,3.74,3.74,0,0,1-.09.66c-.24,1.23-.49,2.21-.73,3.44l-3.93,12.27-.49,2.21,2.21.24-1.23,4.91H200.57l2.7-7.36,3.19-9.32c.74-2.7.74-3.44-.25-3.44-2.2,0-7.85,7.36-9.32,9.32l-1,.74-3.44,10.3H182.9l2.45-7.36,3.19-9.32c1-3.19.25-3.44,0-3.44-2.2,0-7.85,7.36-9.32,9.33l-.49.48-3.43,10.3h-9.57l2.7-7.36,4.16-13.24.49-2.21-2.21-.25,1.48-4.9,12.27-.25L180,151.44Zm46.86,1.23c.73-2.7,3.43-8.35,6.62-8.35,1.72,0,2.21,1.23,2.21,2.95a6,6,0,0,1-3.19,4.42A11.19,11.19,0,0,1,226.82,152.68Zm16.68,5.88a31.41,31.41,0,0,1-13,3.68c-2.94,0-5.15-1.22-4.66-4.41,7.12.24,18.16-4.42,19.14-12.76a4.73,4.73,0,0,0-2-4.66,8.17,8.17,0,0,0-5.4-1.47,21.07,21.07,0,0,0-14.46,6.38,24.09,24.09,0,0,0-7.62,13.49c-.73,6.62,4.91,9.32,10.8,9.32a41.17,41.17,0,0,0,15.21-3.19l2-6.38Zm21.83-14.23a7.3,7.3,0,0,0-2.45-.73,3.21,3.21,0,0,0-3.44,2.45c-.24,2,1.72,3.44,2.95,4.42,2.45,2.21,5.4,4.41,4.9,8.34a10.35,10.35,0,0,1-4.9,7.11,17.18,17.18,0,0,1-9.08,2.21,36.34,36.34,0,0,1-10.55-1.72l2.7-7.6,4.91.25-.49,2.94a7.56,7.56,0,0,0,4.16,1A3.59,3.59,0,0,0,258,160c.24-2-1.48-3.19-2.46-4.17-2.21-2.21-5.15-4.66-4.66-8.34a9.55,9.55,0,0,1,5.15-7.11,19.3,19.3,0,0,1,9.08-1.72,44.84,44.84,0,0,1,8.09.74l-2.69,7.6-4.91-.24-.25-2.46Zm12-5.15a3.19,3.19,0,1,0,3.19,3.2A3.25,3.25,0,0,0,277.35,139.18Zm0,.49a2.65,2.65,0,0,1,2.46,2.46,2.32,2.32,0,0,1-2.18,2.45h-.28a2.63,2.63,0,0,1-2.45-2.45A2.46,2.46,0,0,1,277.35,139.67Zm-.73,3h.24c.49,0,.74.24.74.49,0,.49.24.73.24,1h.74a3.62,3.62,0,0,0-.25-1c0-.49-.24-.74-.49-.74a.79.79,0,0,0,.74-.73.92.92,0,0,0-.25-.74c-.24-.25-.49-.25-1.22-.25h-1.23v3.43h.74v-1.46Zm0-1.47h.49c.49,0,.73.24.73.49s-.24.49-.73.49h-.25v-1Z"/></svg>