<svg id="Layer_1" data-name="Layer 1" xmlns="http://www.w3.org/2000/svg" viewBox="0 0 300 300"><title>ALLR_Mark_Light</title><path d="M166.0483,183.70651a36.19442,36.19442,0,0,1-1.28387,4.76865c-1.10045,3.8516-2.0175,7.8866-3.30136,11.73817a63.07086,63.07086,0,0,1-11.92159,20.72523,66.97768,66.97768,0,0,1-17.60727,14.48931,70.13806,70.13806,0,0,1-16.87364,6.60274c-7.88659,1.83409-15.95659,3.8516-23.84318,5.68569-5.68568,1.28386-11.37136,2.75114-17.057,4.035-.36682,0-.55023.18342-.917,0a22.17471,22.17471,0,0,1,.917-3.30137c2.56772-8.62023,4.952-17.42387,7.51977-26.04409,1.65068-5.31885,2.93454-10.82112,4.76863-15.95658a65.32492,65.32492,0,0,1,11.37137-20.35842,66.32562,66.32562,0,0,1,18.70772-15.58977,61.00958,61.00958,0,0,1,15.77318-6.05251c3.66818-.917,7.33637-1.83409,10.82114-2.75114h.36682a.95283.95283,0,0,0,.36682.73363c.36682.55023.917.73362,1.46727,1.28386,1.65068,1.46728,3.118,3.118,4.76863,4.58522s3.118,2.93456,4.58523,4.40181c2.38432,2.2009,4.58523,4.40181,6.96955,6.60274,1.28386,1.28386,2.75113,2.56772,4.035,3.8516C165.86488,183.52309,165.86488,183.70651,166.0483,183.70651Z" fill="#4c5f71"/><path d="M143.30557,161.88082h-.36682c-2.56773-2.56772-5.31886-5.31886-7.88659-7.8866a64.78,64.78,0,0,1-18.1575-34.29749,62.19294,62.19294,0,0,1-.91705-15.40637,83.17823,83.17823,0,0,1,2.56773-15.03954c3.85159-13.38887,7.88659-26.77772,11.73818-40.16659,0-.36681.18341-.55023.36682-.917.36682,0,.55023.36682.73364.55024,9.35386,9.72068,18.70772,19.44136,28.245,29.162a75.7984,75.7984,0,0,1,8.62023,10.0875,62.46649,62.46649,0,0,1,10.2709,24.3934,60.71243,60.71243,0,0,1,1.10045,16.3234,73.00265,73.00265,0,0,1-1.46727,10.82113c-1.28386,4.952-2.75113,9.72068-4.035,14.67272h-.36682c-8.07,2.01751-16.14,4.21842-24.02659,6.2359A40.48859,40.48859,0,0,0,143.30557,161.88082Z" fill="#f4af23"/><path d="M173.75147,163.71491a36.19442,36.19442,0,0,1,1.28387-4.76865,35.87871,35.87871,0,0,1,2.38431-7.51978,35.35855,35.35855,0,0,1,6.41932-9.90408,36.7199,36.7199,0,0,1,15.77318-10.45432c2.75114-.917,5.50227-1.46727,8.25341-2.2009,6.0525-1.46728,12.105-3.11795,18.1575-4.58523.18341,0,.55023-.18342.73364,0-.55023,2.01752-1.10045,3.85161-1.65068,5.6857-1.65069,6.23589-3.48478,12.47182-5.13546,18.70772a35.95846,35.95846,0,0,1-8.43682,15.03954,37.20479,37.20479,0,0,1-13.20545,9.17045,51.2829,51.2829,0,0,1-7.51977,2.38433,27.85758,27.85758,0,0,0-3.66819,1.10046h-.1834c0-.36681-.36682-.55023-.55023-.917l-.55022-.55024c-1.46728-1.46728-2.93455-2.93455-4.58523-4.4018-2.20091-2.01752-4.40182-4.21842-6.60273-6.41932C174.30171,164.08175,174.11829,163.71491,173.75147,163.71491Z" fill="#4c5f71"/><path d="M186.95693,176.18673h0c2.01749,1.83409,3.85159,3.66818,5.50227,5.31885a37.41976,37.41976,0,0,1,8.62023,36.86524c-2.0175,7.33636-4.035,14.67273-6.23591,21.82567a1.39031,1.39031,0,0,1-.36682.73362,2.53191,2.53191,0,0,1-.73364-.55023c-5.68568-5.86908-11.55477-11.55478-17.24045-17.42386a37.06435,37.06435,0,0,1-10.0875-20.35842,39.801,39.801,0,0,1,.917-15.40635c.55023-2.20091,1.10046-4.21842,1.8341-6.41932,2.75113-.73363,5.31886-1.46728,8.07-2.2009A93.78753,93.78753,0,0,0,186.95693,176.18673Z" fill="#f4af23"/><path d="M143.30557,161.88082a65.59911,65.59911,0,0,1,6.41932-1.65067c8.07-2.01752,16.14-4.21842,24.02658-6.2359h.36682c-.1834,1.28386-.73364,2.56771-.917,3.8516-2.20091,7.8866-4.21841,15.58977-6.41932,23.47637-.18341.73362-.55023,1.65067-.73364,2.38432-.18341,0-.18341-.18342-.36682-.18342-1.28387-1.28386-2.75114-2.56771-4.035-3.8516-2.20091-2.2009-4.58523-4.40181-6.96955-6.60274-1.65068-1.46728-3.118-3.118-4.58522-4.40181-1.65068-1.46727-3.118-3.11794-4.76864-4.58522-.36682-.36681-.917-.73363-1.46727-1.28386C143.67239,162.43105,143.30557,162.24766,143.30557,161.88082Z" fill="#303550"/><path d="M186.95693,176.18673c-3.118.917-6.41932,1.83409-9.53728,2.56772-2.75113.73362-5.31886,1.46727-8.07,2.2009a29.31827,29.31827,0,0,1,.917-3.8516c1.10045-4.40181,2.20091-8.80364,3.48477-13.02206,0-.18342.18341-.18342.18341-.36681.36682,0,.55022.36681.73364.55023,2.20091,2.20091,4.40182,4.21842,6.60272,6.41932,1.46727,1.46728,2.93454,2.93456,4.58523,4.40181l.55022.55023A.5857.5857,0,0,1,186.95693,176.18673Z" fill="#303550"/></svg>