<svg id="Layer_1" data-name="Layer 1" xmlns="http://www.w3.org/2000/svg" viewBox="0 0 300 300"><title>ALLO_Mark_Light</title><path d="M143.01433,161.79779c-6.1601.29593-11.95118-5.11938-11.89784-11.85776a11.85153,11.85153,0,1,1,23.70271.12563C154.8178,157.179,148.65443,162.10458,143.01433,161.79779Z" fill="#106970"/><path d="M143.09088,164.9497a7.03579,7.03579,0,0,1,7.05592,7.20677,7.16421,7.16421,0,0,1-7.18255,7.10509,7.15625,7.15625,0,1,1,.12663-14.31186Z" fill="#be282e"/><path d="M142.9998,135.0226c-3.76283.26-7.20927-3.29755-7.1899-7.03416a7.17335,7.17335,0,1,1,14.34607-.0519A7.07358,7.07358,0,0,1,142.9998,135.0226Z" fill="#be282e"/><path d="M123.84654,131.85958a7.132,7.132,0,1,1-.08791,14.26209,7.15969,7.15969,0,0,1-7.04577-7.19572C116.69918,135.40713,119.80628,131.662,123.84654,131.85958Z" fill="#be282e"/><path d="M169.23038,138.912a7.023,7.023,0,0,1-7.221,7.21927,7.1465,7.1465,0,0,1,.08134-14.29271A7.0661,7.0661,0,0,1,169.23038,138.912Z" fill="#be282e"/><path d="M162.16523,153.97973c3.53819-.3338,7.19875,3.16182,7.08724,7.09529a7.16312,7.16312,0,1,1-14.32437-.13069A6.97563,6.97563,0,0,1,162.16523,153.97973Z" fill="#be282e"/><path d="M116.78133,161.02506c-.31611-3.752,3.33768-7.22916,7.071-7.08041,4.02816.1605,7.30724,3.09664,7.17855,7.05854a7.08071,7.08071,0,0,1-7.2653,7.23152A6.91,6.91,0,0,1,116.78133,161.02506Z" fill="#be282e"/><path d="M169.67625,170.32016a6.22033,6.22033,0,1,1-.35913,12.4349,6.22066,6.22066,0,1,1,.35913-12.4349Z" fill="#126a71"/><path d="M100.5357,140.18736a6.21312,6.21312,0,1,1,6.09919,6.42161A6.22422,6.22422,0,0,1,100.5357,140.18736Z" fill="#126a71"/><path d="M112.95843,159.71225a6.03759,6.03759,0,0,1-6.21952,6.257,6.11406,6.11406,0,0,1-6.23061-6.26633,6.34793,6.34793,0,0,1,6.23538-6.31253A6.2747,6.2747,0,0,1,112.95843,159.71225Z" fill="#126a71"/><path d="M152.65979,192.45727a6.2119,6.2119,0,1,1,.058-12.42277,6.21235,6.21235,0,1,1-.058,12.42277Z" fill="#126a71"/><path d="M116.27891,129.64218c-3.22625.26718-6.24047-2.97758-6.06814-6.34365a6.24929,6.24929,0,1,1,12.49392.34158C122.6462,126.42761,120.15568,129.99,116.27891,129.64218Z" fill="#126a71"/><path d="M133.31009,180.0345a6.21689,6.21689,0,0,1,6.26815,6.25152,6.31682,6.31682,0,0,1-6.359,6.18805,6.223,6.223,0,0,1-6.22828-6.28819A6.12419,6.12419,0,0,1,133.31009,180.0345Z" fill="#126a71"/><path d="M152.61711,119.94026c-2.85993.3004-6.26437-2.42089-6.2282-6.24575a6.29912,6.29912,0,0,1,12.59719.142A6.14241,6.14241,0,0,1,152.61711,119.94026Z" fill="#126a71"/><path d="M173.01019,159.63816a6.10658,6.10658,0,0,1,6.0858-6.21847,6.29684,6.29684,0,1,1,.05137,12.593A6.23771,6.23771,0,0,1,173.01019,159.63816Z" fill="#126a71"/><path d="M173.01976,140.37467a6.01063,6.01063,0,0,1,6.11915-6.34534,6.22834,6.22834,0,0,1,6.33975,6.19353,6.32,6.32,0,0,1-6.18487,6.36985A6.14388,6.14388,0,0,1,173.01976,140.37467Z" fill="#126a71"/><path d="M133.17858,119.94027c-2.77124.32464-6.26185-2.41064-6.19822-6.26924a6.26071,6.26071,0,0,1,6.37286-6.15475,6.3928,6.3928,0,0,1,6.22437,6.14747A6.18044,6.18044,0,0,1,133.17858,119.94027Z" fill="#126a71"/><path d="M169.48977,129.64225a5.94076,5.94076,0,0,1-6.19715-6.17568,6.18613,6.18613,0,0,1,6.22441-6.24833,6.2687,6.2687,0,0,1,6.2576,6.26261A6.1337,6.1337,0,0,1,169.48977,129.64225Z" fill="#126a71"/><path d="M122.659,176.56152c.30236,2.8199-2.61776,6.25195-6.23838,6.24028a6.26537,6.26537,0,1,1,.05509-12.5306C119.91269,170.283,122.97339,173.56221,122.659,176.56152Z" fill="#106970"/><path d="M137.0146,199.98939a5.88223,5.88223,0,0,1,6.034-5.93387,5.96725,5.96725,0,1,1-.06429,11.93429A5.8842,5.8842,0,0,1,137.0146,199.98939Z" fill="#be282e"/><path d="M187.07622,150.00671a5.9093,5.9093,0,0,1,5.96971-6.01273,5.99231,5.99231,0,0,1-.00272,11.98421A5.82885,5.82885,0,0,1,187.07622,150.00671Z" fill="#be282e"/><path d="M105.58569,125.00126a5.97291,5.97291,0,0,1-5.98194,6.0143,6.1074,6.1074,0,0,1-5.94481-6.11869,5.92071,5.92071,0,0,1,5.95278-5.84211A5.78357,5.78357,0,0,1,105.58569,125.00126Z" fill="#be282e"/><path d="M118.03616,187.40724a5.81191,5.81191,0,0,1,5.86806,6.04887,5.96656,5.96656,0,0,1-5.93312,5.85683,6.12411,6.12411,0,0,1-6.05167-6.01645A6.02023,6.02023,0,0,1,118.03616,187.40724Z" fill="#be282e"/><path d="M92.88637,155.97785a5.95287,5.95287,0,0,1-5.91974-6.08686,5.98577,5.98577,0,0,1,11.9708.124A5.99958,5.99958,0,0,1,92.88637,155.97785Z" fill="#be282e"/><path d="M142.89207,105.91671a5.833,5.833,0,0,1-5.87728-6.06616,5.98439,5.98439,0,0,1,11.96706.17164A5.88311,5.88311,0,0,1,142.89207,105.91671Z" fill="#be282e"/><path d="M168.07319,187.40724a5.76179,5.76179,0,0,1,5.85365,6.05237,5.96064,5.96064,0,0,1-5.93243,5.85786,6.05415,6.05415,0,0,1-6.01672-6.03168A5.92272,5.92272,0,0,1,168.07319,187.40724Z" fill="#be282e"/><path d="M99.73737,169.11489c3.17574-.22526,6.0499,2.91269,5.88026,6.043a5.97092,5.97092,0,0,1-11.94064-.16934A5.81335,5.81335,0,0,1,99.73737,169.11489Z" fill="#be282e"/><path d="M192.17983,125.03953a5.82023,5.82023,0,0,1-5.97731,5.95545,5.97736,5.97736,0,0,1,.06893-11.95412A5.81765,5.81765,0,0,1,192.17983,125.03953Z" fill="#be282e"/><path d="M167.91027,112.56694a5.85305,5.85305,0,0,1-5.929-5.85016,5.98043,5.98043,0,0,1,11.95995-.05847C174.02134,109.96848,171.03763,112.89678,167.91027,112.56694Z" fill="#be282e"/><path d="M192.17977,175.0162a5.87583,5.87583,0,0,1-5.98331,6.00846,5.9702,5.9702,0,1,1,.165-11.9392C189.44656,168.99159,192.45975,171.93378,192.17977,175.0162Z" fill="#be282e"/><path d="M117.92638,112.56688a5.87854,5.87854,0,1,1,.05975-11.75381,5.76189,5.76189,0,0,1,5.91574,6.00279C123.95122,109.98494,120.89378,112.9151,117.92638,112.56688Z" fill="#be282e"/><path d="M180.09182,107.89183a4.96515,4.96515,0,0,1,5.00194-5.03232,5.02024,5.02024,0,1,1,.00571,10.04042A4.93071,4.93071,0,0,1,180.09182,107.89183Z" fill="#126a71"/><path d="M100.94433,102.85957a5.02108,5.02108,0,1,1-.16659,10.04052,5.0211,5.0211,0,0,1,.16659-10.04052Z" fill="#126a71"/><path d="M85.51636,129.58486a4.944,4.944,0,0,1,4.93288,5.087,5.02113,5.02113,0,1,1-4.93288-5.087Z" fill="#126a71"/><path d="M184.88069,197.11361a4.90557,4.90557,0,0,1-4.78822-5.20462,5.00644,5.00644,0,0,1,5.02183-4.83592,5.058,5.058,0,0,1,5.01841,5.25242A4.99468,4.99468,0,0,1,184.88069,197.11361Z" fill="#126a71"/><path d="M163.40693,207.64061a5.02109,5.02109,0,1,1-10.04026-.19247,5.02109,5.02109,0,0,1,10.04026.19247Z" fill="#126a71"/><path d="M95.87887,192.05515a4.97163,4.97163,0,0,1,5.04618-4.982,5.16743,5.16743,0,0,1,4.99388,5.11028,5.0837,5.0837,0,0,1-5.12265,4.94525C98.07478,197.15724,95.60366,194.6236,95.87887,192.05515Z" fill="#126a71"/><path d="M122.60283,207.57476c-.22922-3.01738,2.73766-5.15,4.92934-5.0615a5.03274,5.03274,0,1,1,.065,10.06526A4.91657,4.91657,0,0,1,122.60283,207.57476Z" fill="#126a71"/><path d="M158.31114,97.43069a4.8795,4.8795,0,0,1-4.93464-5.04621,4.93383,4.93383,0,0,1,5.0883-4.94634,4.997,4.997,0,1,1-.15366,9.99255Z" fill="#126a71"/><path d="M200.50243,129.58484a5.0703,5.0703,0,0,1,5.0745,5.03544,5.19307,5.19307,0,0,1-4.94541,5.00547,5.02089,5.02089,0,1,1-.12909-10.04091Z" fill="#126a71"/><path d="M85.35956,170.38878a4.942,4.942,0,0,1-4.95081-5.09507,5.13717,5.13717,0,0,1,5.011-4.92,5.0633,5.0633,0,0,1,5.02972,5.069A4.91379,4.91379,0,0,1,85.35956,170.38878Z" fill="#126a71"/><path d="M127.52521,97.43128A4.77709,4.77709,0,0,1,122.6033,92.373a4.94241,4.94241,0,0,1,5.104-4.957,5.191,5.191,0,0,1,4.91142,5.044A4.94674,4.94674,0,0,1,127.52521,97.43128Z" fill="#126a71"/><path d="M200.47133,170.38983a4.92514,4.92514,0,0,1-4.93461-5.06669,5.00786,5.00786,0,0,1,4.92191-4.95068,5.15535,5.15535,0,0,1,5.11312,5.03629A5.01769,5.01769,0,0,1,200.47133,170.38983Z" fill="#126a71"/><path d="M206.92637,115.81211a4.38227,4.38227,0,0,1-4.48517,4.33131,4.52905,4.52905,0,0,1,.194-9.05535A4.423,4.423,0,0,1,206.92637,115.81211Z" fill="#be282e"/><path d="M87.78682,115.55c.23332,2.17073-1.35362,4.45014-4.40772,4.56758a4.51073,4.51073,0,0,1-4.4505-4.43611,4.61605,4.61605,0,0,1,4.513-4.59373A4.37139,4.37139,0,0,1,87.78682,115.55Z" fill="#be282e"/><path d="M177.29466,86.06636a4.35954,4.35954,0,0,1,4.57782,4.40792,4.51269,4.51269,0,0,1-9.025-.056A4.36982,4.36982,0,0,1,177.29466,86.06636Z" fill="#be282e"/><path d="M216.1871,150.0888a4.3892,4.3892,0,0,1-4.42529,4.35763,4.45025,4.45025,0,1,1-.03624-8.90043A4.40857,4.40857,0,0,1,216.1871,150.0888Z" fill="#be282e"/><path d="M138.56659,81.20686a4.271,4.271,0,0,1,4.34242-4.40133,4.40527,4.40527,0,0,1,4.53788,4.458,4.46509,4.46509,0,0,1-4.40289,4.42208A4.3041,4.3041,0,0,1,138.56659,81.20686Z" fill="#be282e"/><path d="M177.24982,205.2061a4.32735,4.32735,0,0,1,4.61975,4.348,4.51117,4.51117,0,0,1-9.0222.03482A4.36878,4.36878,0,0,1,177.24982,205.2061Z" fill="#be282e"/><path d="M113.00881,90.526a4.37261,4.37261,0,0,1-4.4469,4.39832,4.59717,4.59717,0,0,1-4.48011-4.4456,4.47772,4.47772,0,0,1,4.61911-4.43983A4.32776,4.32776,0,0,1,113.00881,90.526Z" fill="#be282e"/><path d="M87.78684,184.34553a4.31089,4.31089,0,0,1-4.28322,4.5477,4.54834,4.54834,0,0,1-4.57456-4.53574,4.42133,4.42133,0,0,1,4.46228-4.38976C85.7339,179.90569,88.03133,181.96211,87.78684,184.34553Z" fill="#be282e"/><path d="M142.80564,223.16737c-2.22489.179-4.44472-2.27095-4.27166-4.53735a4.46076,4.46076,0,0,1,4.527-4.31916,4.51869,4.51869,0,0,1,4.39056,4.49271A4.373,4.373,0,0,1,142.80564,223.16737Z" fill="#be282e"/><path d="M202.59521,179.98308a4.22268,4.22268,0,0,1,4.331,4.43849,4.39341,4.39341,0,0,1-4.36891,4.4877,4.58286,4.58286,0,0,1-4.48886-4.4275A4.37133,4.37133,0,0,1,202.59521,179.98308Z" fill="#be282e"/><path d="M69.8244,149.92553c-.241-2.1893,1.96695-4.44414,4.40676-4.39089a4.5432,4.5432,0,0,1,4.45074,4.42812,4.44607,4.44607,0,0,1-4.58719,4.46353A4.25843,4.25843,0,0,1,69.8244,149.92553Z" fill="#be282e"/><path d="M113.00867,209.51826a4.32625,4.32625,0,0,1-4.31418,4.52594,4.44989,4.44989,0,1,1-.12507-8.8968A4.4304,4.4304,0,0,1,113.00867,209.51826Z" fill="#be282e"/><path d="M216.97057,133.08031a2.9122,2.9122,0,1,1,.00712-5.82234,2.92094,2.92094,0,0,1,2.96,2.92215A2.87611,2.87611,0,0,1,216.97057,133.08031Z" fill="#126a71"/><path d="M162.81761,78.99931a2.94949,2.94949,0,0,1-2.90539-2.979,2.84271,2.84271,0,0,1,2.881-2.96494,2.94293,2.94293,0,0,1,2.9409,2.94561A2.9999,2.9999,0,0,1,162.81761,78.99931Z" fill="#126a71"/><path d="M123.25127,79.02c-2.43235-.66021-3.22447-1.63872-2.95062-3.57254a2.86962,2.86962,0,0,1,2.84228-2.392,2.97711,2.97711,0,0,1,2.91032,2.3532C126.40318,77.01661,125.47591,78.24957,123.25127,79.02Z" fill="#126a71"/><path d="M213.96724,169.77918c.727-2.24867,1.88529-3.16174,3.53749-2.85916a2.99851,2.99851,0,0,1,2.43062,3.04525,2.923,2.923,0,0,1-2.52345,2.73177C215.56777,172.90408,214.6489,172.14562,213.96724,169.77918Z" fill="#126a71"/><path d="M91.57294,94.68611c.033.43092.089.815.08437,1.19836-.00463.38177-.07012.7628-.102,1.07625-1.56729,2.05234-3.194,2.38684-4.73637,1.02711a2.87947,2.87947,0,0,1-.06426-4.27007C88.2857,92.3147,89.91693,92.60617,91.57294,94.68611Z" fill="#126a71"/><path d="M200.13856,204.27885c-.66127,2.12909-1.86754,3.11765-3.46569,2.84015a3.04986,3.04986,0,0,1-2.47884-3.01143,2.84491,2.84491,0,0,1,2.46289-2.766C198.62973,201.10933,199.537,201.87473,200.13856,204.27885Z" fill="#126a71"/><path d="M200.17074,95.79751c-.66006,2.20367-1.73024,3.15536-3.27878,2.98874a3.0603,3.0603,0,0,1-2.69774-3.01533,3.12124,3.12124,0,0,1,2.63944-2.8934C198.3406,92.66961,199.48742,93.64969,200.17074,95.79751Z" fill="#126a71"/><path d="M68.98305,127.2575a2.81972,2.81972,0,0,1,2.88568,2.93167,2.7713,2.7713,0,0,1-2.91,2.89156,2.91166,2.91166,0,1,1,.02428-5.82323Z" fill="#126a71"/><path d="M87.67552,201.42556c2.41241-.1819,3.57762.39674,3.92951,1.90486a2.89741,2.89741,0,0,1-1.81681,3.58087,2.81059,2.81059,0,0,1-3.58308-1.357C85.41154,204.0474,85.80731,202.8813,87.67552,201.42556Z" fill="#126a71"/><path d="M71.86751,169.83914a2.75523,2.75523,0,0,1-2.91169,2.87745,2.83644,2.83644,0,0,1-2.90639-2.90232,2.92075,2.92075,0,0,1,2.9333-2.92136A2.87555,2.87555,0,0,1,71.86751,169.83914Z" fill="#126a71"/><path d="M165.73459,224.01222a2.94684,2.94684,0,0,1-2.9346,2.93113,2.85045,2.85045,0,0,1-2.88787-2.93325,2.75884,2.75884,0,0,1,2.89545-2.889A2.81707,2.81707,0,0,1,165.73459,224.01222Z" fill="#126a71"/><path d="M126.099,223.96411a2.94073,2.94073,0,0,1-2.88245,2.97931,2.83137,2.83137,0,0,1-2.94185-2.86724,2.71826,2.71826,0,0,1,2.81893-2.95535A2.919,2.919,0,0,1,126.099,223.96411Z" fill="#126a71"/><path d="M233.951,104.19463a8.84749,8.84749,0,1,1-8.81806-8.60757A8.64959,8.64959,0,0,1,233.951,104.19463Zm-15.48423,0a6.67006,6.67006,0,0,0,6.71852,6.87665,6.592,6.592,0,0,0,6.56119-6.82323,6.64494,6.64494,0,1,0-13.27971-.05342Zm5.30147,4.5132h-1.99457v-8.60757a17.3734,17.3734,0,0,1,3.30691-.26284,5.36041,5.36041,0,0,1,2.99171.63039,2.38658,2.38658,0,0,1,.83981,1.889,2.20761,2.20761,0,0,1-1.7846,1.9959v.10471a2.53874,2.53874,0,0,1,1.57465,2.09847,6.56578,6.56578,0,0,0,.62986,2.15189h-2.15189a7.34293,7.34293,0,0,1-.68248-2.09847c-.15734-.94452-.68249-1.3655-1.78461-1.3655h-.94479Zm.05262-4.88075h.94452c1.10239,0,1.99483-.36756,1.99483-1.25866,0-.78853-.57751-1.31421-1.83723-1.31421a4.695,4.695,0,0,0-1.10212.10684Z" fill="#106970"/></svg>