<svg xmlns="http://www.w3.org/2000/svg" viewBox="0 0 300 300"><g id="svg56"><path id="path32" d="M247.06617,150.33743c0,53.43177-43.61978,96.90658-97.23488,96.90658a97.00965,97.00965,0,0,1-96.89746-96.90658c0-53.81024,43.463-97.58144,96.89746-97.58144C203.44639,52.756,247.06617,96.53084,247.06617,150.33743ZM149.83129,24.83129C80.99624,24.83129,25,81.13487,25,150.33743,25,220.338,79.83256,275.16871,149.83129,275.16871,220.01693,275.16871,275,220.34254,275,150.33743c0-69.20712-56.15032-125.50614-125.16871-125.50614" fill="#500ba7"/><path id="path48" d="M247.06617,150.33743c0,53.43177-43.61978,96.90658-97.23488,96.90658a97.00965,97.00965,0,0,1-96.89746-96.90658c0-53.81024,43.463-97.58144,96.89746-97.58144,53.6151,0,97.23488,43.77485,97.23488,97.58144" fill="#f09c4f"/></g></svg>