<svg id="Layer_1" data-name="Layer 1" xmlns="http://www.w3.org/2000/svg" xmlns:xlink="http://www.w3.org/1999/xlink" viewBox="0 0 300 300"><defs><linearGradient id="linear-gradient" x1="25" y1="8078" x2="275" y2="8078" gradientTransform="matrix(1, 0, 0, -1, 0, 8228)" gradientUnits="userSpaceOnUse"><stop offset="0" stop-color="#72cbde"/><stop offset="1" stop-color="#316cd5"/></linearGradient></defs><path d="M200.52441,250.54827a9.6748,9.6748,0,0,1-6.94607-2.64612L178.40448,232.7283a9.799,9.799,0,0,1-2.8942-6.94608,9.67492,9.67492,0,0,1,2.8942-6.94607l16.53827-16.53827a11.94892,11.94892,0,0,0,3.55574-8.59991V156.94166a12.07293,12.07293,0,0,0-3.55574-8.5999l-16.53827-16.53827a9.79894,9.79894,0,0,1-.03441-13.85773l.03441-.03442,15.17386-15.17386a9.79894,9.79894,0,0,1,13.85774-.03442l.03441.03442,15.17386,15.17386a9.79894,9.79894,0,0,1,.03441,13.85773l-.03441.03442-16.53827,16.53827a12.11425,12.11425,0,0,0-3.473,8.5999v36.839a11.99026,11.99026,0,0,0,3.59707,8.59989l16.53827,16.53827a9.84028,9.84028,0,0,1,.01725,13.91624l-.01725.01725-15.29789,15.04984A9.75753,9.75753,0,0,1,200.52441,250.54827Zm-101.00749,0a9.79892,9.79892,0,0,1-7.02877-2.64612L77.31429,232.7283a9.923,9.923,0,0,1-2.85285-6.94608,9.79893,9.79893,0,0,1,2.85285-6.94607l16.53827-16.53827a12.15566,12.15566,0,0,0,3.55573-8.59991V156.94166a12.4037,12.4037,0,0,0-3.55573-8.5999L77.31429,131.80349a9.88162,9.88162,0,0,1,0-13.89215L92.5295,102.73748a9.67486,9.67486,0,0,1,6.94608-2.8942,9.79889,9.79889,0,0,1,6.94607,2.8942l15.17386,15.17386a9.8816,9.8816,0,0,1,0,13.89215l-16.53827,16.53827a12.40373,12.40373,0,0,0-3.473,8.5999v36.839a12.11423,12.11423,0,0,0,3.55573,8.59989l16.53827,16.53827a9.923,9.923,0,0,1,0,13.93349l-15.25656,15.04984A9.75755,9.75755,0,0,1,99.51692,250.54827Zm50.44173-50.31768a9.79892,9.79892,0,0,1-6.98742-2.85284l-15.17386-15.17388a9.75757,9.75757,0,0,1-2.85286-6.94607,9.63356,9.63356,0,0,1,2.85286-6.94608l16.53827-16.53827a12.15564,12.15564,0,0,0,3.55573-8.5999V106.41724a12.4037,12.4037,0,0,0-3.55573-8.5999L127.79737,81.27907a9.88162,9.88162,0,0,1,0-13.89215L142.97123,52.3371a9.84028,9.84028,0,0,1,13.91624-.01727l.01726.01727L172.0786,67.511a9.88164,9.88164,0,0,1,0,13.89215L155.54033,97.94138a12.40366,12.40366,0,0,0-3.55573,8.5999v36.839a12.11427,12.11427,0,0,0,3.55573,8.5999l16.53827,16.53827a9.923,9.923,0,0,1,0,13.93349l-15.17386,15.17385A9.75767,9.75767,0,0,1,149.95865,200.23059Zm101.09019-1.15767a12.40379,12.40379,0,0,1-8.88933-3.67976l-11.246-11.246a12.40372,12.40372,0,0,1-.28074-17.53925q.13812-.1426.28074-.28074l11.246-11.246a12.61043,12.61043,0,0,1,17.82,0l11.246,11.246a12.4037,12.4037,0,0,1,.28075,17.53924q-.13812.14262-.28075.28075l-11.246,11.246A12.40368,12.40368,0,0,1,251.04884,199.07292Zm-202.09768,0a12.40372,12.40372,0,0,1-8.93067-3.67976l-11.246-11.246a12.40371,12.40371,0,0,1-.28075-17.53925q.13812-.1426.28075-.28074l11.246-11.246a12.61043,12.61043,0,0,1,17.82,0l11.28737,11.246a12.69313,12.69313,0,0,1,0,17.82l-11.28737,11.246A12.40386,12.40386,0,0,1,48.95116,199.07292Z" fill="url(#linear-gradient)"/></svg>