<svg id="Layer_1" data-name="Layer 1" xmlns="http://www.w3.org/2000/svg" viewBox="0 0 300 300"><path d="M133,186.08Q73.38,191.5,42.28,157q19.88,53.54,89.83,59.78c24.87,2,39.88-1.25,44.79-11C187.79,184.13,142.44,185.2,133,186.08Z" fill="#f58d31" fill-rule="evenodd"/><path d="M230.08,190.28c7.81-32.21-7.63-49.66-45.56-57.11C162.88,128.91,82.28,144.43,95.46,106c7-20.37,34.6-29.21,73.31-29,57.88,4.22,90.58,32.1,91.23,71.06q-19.31-62.6-108.16-53c-6.18.66-36.26,6.73-24.56,16.52,8.77,1.55,21.22-1.62,27.73-2,1.8-.12,3.61-.19,5.36-.25,23.5-.74,52.75,2.89,70.79,19.53q29.23,27-1.06,61.43Z" fill="#30afe4" fill-rule="evenodd"/><path d="M216,170C226.45,192,206.56,228.27,169,245c19.73-19,27.86-37,25.79-53.89-4.56-37.2-71.06-17.77-95.76-20.41Q44,164.74,40,128.87,38.68,85.69,95.57,65.12c18.2-8.28,38-10.24,59.62-10.06q60.56.48,92.29,39.41Q187.72,50.78,121.82,69.29c-2.86.8-5.73,1.7-8.62,2.68C67,88.67,53.38,123,89.81,143.24c17.1,9,45.57,6.47,64.72,6s51.61.23,61.45,20.86Z" fill="#dd4096" fill-rule="evenodd"/></svg>