<?xml version="1.0" encoding="utf-8"?>
<!-- Generator: Adobe Illustrator 28.3.0, SVG Export Plug-In . SVG Version: 6.00 Build 0)  -->
<svg version="1.1" id="Layer_1" xmlns="http://www.w3.org/2000/svg" xmlns:xlink="http://www.w3.org/1999/xlink" x="0px" y="0px"
	 viewBox="0 0 300 300" style="enable-background:new 0 0 300 300;" xml:space="preserve">
<style type="text/css">
	.st0{fill:#EEA89A;}
	.st1{fill:#D1725F;}
	.st2{fill:#BC383D;}
</style>
<g>
	<path class="st0" d="M133.4,208c0,20.6,4.4,40.2,12.3,57.9h79.8c38.9,0,63.3-42.1,43.8-75.9L207.4,82.9
		C163.3,107.2,133.4,154.1,133.4,208L133.4,208z"/>
	<path class="st1" d="M72,155.3c59.9,0,108.5-48.6,108.5-108.5c0-0.9,0-1.7-0.1-2.6c-23-17.4-58.4-12.3-74.2,15.2l-54.3,94.1
		C58.4,154.7,65.1,155.3,72,155.3L72,155.3z"/>
	<path class="st2" d="M130,255.7c0-48.3-36.1-88.2-82.7-94.2L30.8,190c-19.5,33.7,4.9,75.9,43.8,75.9h54.9
		C129.8,262.5,130,259.1,130,255.7z"/>
</g>
</svg>
