<svg id="Layer_1" data-name="Layer 1" xmlns="http://www.w3.org/2000/svg" viewBox="0 0 300 300"><path d="M259.79788,240.03065c1.41553,4.89333-4.93008,5.62723-8.88034,6.18563a48.65962,48.65962,0,0,1-6.76309.05878q-25.5216-.00636-51.04318-.01c-4.605.00113-8.69291-.801-10.02762-6.12728a28.86909,28.86909,0,0,1,3.97858-8.9064c5.12261-8.574,10.20572-17.175,15.10187-25.87943a12.72076,12.72076,0,0,0-.05378-12.21691,13.3728,13.3728,0,0,0-7.79611-5.16674,11.86442,11.86442,0,0,0-12.47905,6.51336c-7.353,12.88327-14.77691,25.72727-22.002,38.68212a24.69141,24.69141,0,0,1-22.659,12.99984c-28.81671.32454-57.63934.10229-86.45957.15392-2.48171.00467-4.72347-.9553-6.89675-1.11057a9.773,9.773,0,0,1-3.54929-3.41952,10.15985,10.15985,0,0,1,1.12256-7.452c4.02689-6.83911,7.96948-13.72787,11.97467-20.57985,5.29877-9.06543,10.66769-18.09018,15.93044-27.1764,7.24453-12.508,14.4058-25.06417,21.62557-37.58653,6.26127-10.86,12.45241-21.76223,18.86587-32.53178,5.06345-8.50264,10.32741-16.90589,15.2357-25.48012,3.91953-6.84688,11.32653-20.88451,11.32653-20.88451s5.95832-10.05016,8.96531-14.99959a6.50914,6.50914,0,0,1,4.22863-1.38235,5.08846,5.08846,0,0,1,4.31357,1.23954A122.48994,122.48994,0,0,1,167.3967,78.19894a20.50762,20.50762,0,0,1-1.07325,19.39966c-6.75141,11.98992-13.532,23.96492-20.44918,35.85941-8.37854,14.407-17.06284,28.638-25.30709,43.12054-3.57614,6.28233-7.3937,12.41746-10.92716,18.71924a12.54461,12.54461,0,0,0,2.10686,15.21668,12.09154,12.09154,0,0,0,14.50515.35906,22.02773,22.02773,0,0,0,5.43265-7.424c11.18589-19.28733,22.19949-38.67476,33.38826-57.9604,4.48026-7.72247,9.0654-15.37753,13.26227-23.26525a10.32578,10.32578,0,0,1,4.90426-5.321,4.17736,4.17736,0,0,1,4.98428,0,12.55139,12.55139,0,0,1,4.58653,4.97822c5.4257,9.533,10.93045,19.02086,16.36023,28.55167" fill="#e38524"/></svg>