<svg id="Layer_1" data-name="Layer 1" xmlns="http://www.w3.org/2000/svg" viewBox="0 0 300 300"><defs><style>.cls-1{fill:#01c1e0;}.cls-2{fill:#582878;}.cls-3{fill:#572878;}.cls-4{fill:#fbfbfc;}.cls-5{fill:#a9e0f0;}</style></defs><title>ALZN_Light_bg</title><path class="cls-1" d="M204.45,227.72v12a3.77,3.77,0,0,1-2.64.55h-67c-.59,0-1.17-.11-1.75-.16V217.5H101.39c-4.65,0-5.55-.88-5.55-5.41,0-8.54,0-17.08,0-25.61,0-1,.35-2.17-.64-3.36h-13L98,151.38c-1.12-5.71-2.34-11.26-2.06-17l6.32,0c.32,1.41-.26,2.93.39,4.29,3.92.61,61.7.43,64-.27v-4l7.16,0c.66,1.35-.17,2.94.85,4.57h11.57v13.54h10.56V138.89H218v-4.48h6.35c.11,21.36-9,38.23-25.26,51.64v41.42Z"/><path class="cls-2" d="M204.45,227.72l-5.41-.24V186.06c16.24-13.41,25.37-30.28,25.26-51.64a46.54,46.54,0,0,0-1.36-13.72C212.49,75,159.11,55.09,121.71,83.2c-16.89,12.7-25.34,30-25.77,51.2-.28,5.72.94,11.27,2.06,17L82.14,183.12h13c1,1.19.64,2.32.64,3.36,0,8.53,0,17.07,0,25.61,0,4.53.9,5.41,5.55,5.41h31.69v22.64h-10.3v-11.4c-1.18-1-2.2-.65-3.15-.66-6.48,0-13,0-19.45,0C91,228,85.33,222.28,85.29,213.11c0-6.36,0-12.72,0-19.4H65l21.87-43.66c-7.54-38.23,13.78-72.66,46-85.17a74.93,74.93,0,0,1,76.81,126v36.81Z"/><path class="cls-3" d="M218,134.41v4.48H196.78v13.66H186.22V139H174.65c-1-1.63-.19-3.22-.85-4.57.11-1.93.21-3.86.34-6.12h12.05V114.53h10.69v13.56h9.79c-.95-18.39-18.42-41.86-46.72-41.67-28.95.2-45.55,24.42-46.26,41.87h52.95v10.15c-2.29.7-60.07.88-64,.27-.65-1.36-.07-2.88-.39-4.29a49.59,49.59,0,0,1,1.4-12.52c5.68-23.44,20-39,43.56-44.46,23.24-5.35,43,1.92,58.23,20.44C214.11,108.41,217.88,120.83,218,134.41Z"/><path class="cls-4" d="M166.64,134.41v-6.12H113.69C114.4,110.84,131,86.62,160,86.42c28.3-.19,45.77,23.28,46.72,41.67h-9.79V114.53H186.19v13.79H174.14c-.13,2.26-.23,4.19-.34,6.12ZM156,117.12c1.61,3.83,3.39,5,6.38,4.26a4.78,4.78,0,0,0,3.56-5.06,4.64,4.64,0,0,0-4.36-4.32C158.42,111.73,157.24,112.8,156,117.12Zm.05-15.34c1.48,3.84,3.4,5.1,6.49,4.23a4.79,4.79,0,0,0,3.35-5.51c-.6-3-3.4-4.61-6.63-3.64A6.12,6.12,0,0,0,156.06,101.78Zm-9.31-5c-4-.28-6,.82-6.63,3.49a4.92,4.92,0,0,0,8.83,3.83C150.54,101.43,150,99.53,146.75,96.82Zm-.05,24.5c4.31-3.51,4.2-6.22-.25-9.24-4.32-.19-6.52,1.48-6.4,4.84C140.17,120.12,142.35,121.6,146.7,121.32Zm-22.51-6.41a10.74,10.74,0,0,0,.13,3.89,7.35,7.35,0,0,0,2.74,2.55c2.45.35,4.61.07,5.91-2.29a4.56,4.56,0,0,0-.2-5c-1.49-2.2-3.67-2.34-6-1.85A8.24,8.24,0,0,0,124.19,114.91Z"/><path class="cls-5" d="M218,134.41c-.07-13.58-3.84-26-12.5-36.53-15.21-18.52-35-25.79-58.23-20.44-23.52,5.42-37.88,21-43.56,44.46a49.59,49.59,0,0,0-1.4,12.52l-6.32,0c.43-21.18,8.88-38.5,25.77-51.2,37.4-28.11,90.78-8.24,101.23,37.5a46.54,46.54,0,0,1,1.36,13.72Z"/><path class="cls-5" d="M156,117.12c1.23-4.32,2.41-5.39,5.58-5.12a4.64,4.64,0,0,1,4.36,4.32,4.78,4.78,0,0,1-3.56,5.06C159.4,122.1,157.62,121,156,117.12Z"/><path class="cls-5" d="M156.06,101.78a6.12,6.12,0,0,1,3.21-4.92c3.23-1,6,.69,6.63,3.64a4.79,4.79,0,0,1-3.35,5.51C159.46,106.88,157.54,105.62,156.06,101.78Z"/><path class="cls-5" d="M146.75,96.82c3.24,2.71,3.79,4.61,2.2,7.32a4.92,4.92,0,0,1-8.83-3.83C140.71,97.64,142.76,96.54,146.75,96.82Z"/><path class="cls-5" d="M146.7,121.32c-4.35.28-6.53-1.2-6.65-4.4-.12-3.36,2.08-5,6.4-4.84C150.9,115.1,151,117.81,146.7,121.32Z"/><path class="cls-5" d="M124.19,114.91a8.24,8.24,0,0,1,2.62-2.72c2.29-.49,4.47-.35,6,1.85a4.56,4.56,0,0,1,.2,5c-1.3,2.36-3.46,2.64-5.91,2.29a7.35,7.35,0,0,1-2.74-2.55A10.74,10.74,0,0,1,124.19,114.91Z"/></svg>