<?xml version="1.0" encoding="UTF-8"?>
<svg xmlns="http://www.w3.org/2000/svg" version="1.1" viewBox="0 0 300 300">
  <defs>
    <style>
      .cls-1 {
        fill: #25355b;
      }
    </style>
  </defs>
  <!-- Generator: Adobe Illustrator 28.6.0, SVG Export Plug-In . SVG Version: 1.2.0 Build 709)  -->
  <g>
    <g id="Layer_1">
      <path class="cls-1" d="M172.2,215.4c-.6-1.2-.7-2.5-.2-3.7,2.9-1.2,5.8-.5,8.7-1.1,7.1-1.5,9.4-4.7,6.5-11.4-3.3-7.4-7.3-14.5-11.1-21.6-10.3-19.4-20.5-38.8-30.8-58.3-.4-.7-.5-1.6-1.8-2.2l-13.5,29.2c8.7,1,16.9.3,25,.6.8,1,.6,2,.4,3.5h-26.9c-1.6,1.9-2.8,4-3.5,6.4h26.7c.9,1.1,1.2,2.5.6,3.8h-28.8c-1.6,1.9-2.7,4.1-3.5,6.5h28.7c.9,1.2,1.1,2.8.5,4.1h-31.1c-1.4,1.9-2.4,4-2.9,6.2h30.8c.8,1.1,1,2.6.4,3.9h-32.4c-1.6,1.8-2.9,3.9-3.7,6.2h32.7c.9,1.2,1.1,2.8.5,4.2h-34.6c-1.9,2.7-3.3,5.7-4.1,8.9-1.2,4.8.8,7.9,5.8,9.4,3.1.7,6.3,1,9.5,1,1.2,1.2,1,2.6.7,4.4h-44.5c-.9-1.4-.9-3.1,0-4.5,11-1,18.3-7.8,22.9-18.8h-33.2c-.8-1.2-.9-2.8-.4-4.1h35.7c1.5-1.8,2.5-4.1,2.9-6.4h-38.2c-.9-1.2-1.1-2.9-.4-4.2h40.9c1.4-1.8,2.4-3.9,2.9-6.1h-43.6c-1.1-1-1.2-2.7-.3-3.8h45.6c1.7-1.8,2.9-4,3.3-6.4h-48.4c-.8-1.2-1-2.7-.5-4.1h50.5c1.7-1.6,2.9-3.7,3.4-6.1h-53.4c-1.2-1.2-1.2-2.2-.9-3.9h56.3l18.8-38.5-3.5-6.2c7-5.3,13.6-11.3,19.5-17.8,2.1,0,2.3,1.6,2.9,2.7,19.9,37.8,39.8,75.6,59.6,113.3,3.1,6.1,9.3,9.9,16.2,10v5h-62.8Z"/>
    </g>
  </g>
</svg>