<svg id="Layer_1" data-name="Layer 1" xmlns="http://www.w3.org/2000/svg" xmlns:xlink="http://www.w3.org/1999/xlink" viewBox="0 0 300 300"><defs><style>.cls-1{fill:#fff;fill-rule:evenodd;}.cls-2{fill:#6cacde;}.cls-3{mask:url(#mask);}.cls-4{fill:#055faa;}</style><mask id="mask" x="43.75" y="49.4" width="213.82" height="201.2" maskUnits="userSpaceOnUse"><g id="b"><path id="a" class="cls-1" d="M43.76,49.41H257.57V250.6H43.76Z"/></g></mask></defs><path class="cls-2" d="M187.68,161.31a42.36,42.36,0,1,1-42.36-42,42.18,42.18,0,0,1,42.36,42"/><g class="cls-3"><path class="cls-4" d="M171.89,189.93c-4.28,13.88-13.57,28-29.92,27.32a31.36,31.36,0,0,1-7-1.19c-.46-8.93,2.83-18,6.44-26,7.3-16.16,20.56-25.7,36.22-31a155.32,155.32,0,0,1-5.74,30.89m78.41-45c-2.81-3.6-9.49-13.85-14.64-14.56a289.7,289.7,0,0,0-33.63-3c-.06-12.68-1.17-25.4-5-37.25C193.11,77.79,184.38,67,175.18,58c-6.77-6.62-13.53-10.55-23-7.63C139.6,54.25,129.61,66.29,122,76.21c-10.15,13.18-18,28.06-25.75,42.7-18.52,35-37.11,69.45-52.29,106-1.5,3.62,6.94,12.07,8.87,14.36.51.6,12.08,12.71,12.73,11.15,16.87-40.66,37.59-79.34,58.7-118,8.87-16.23,18.68-32.34,32.18-45.22,4.48-4.27,13.05-11.42,21-12.61a126,126,0,0,1,1.92,14.21,273.71,273.71,0,0,1,.27,36.34l-.14,3.2c-14.49,1.77-28.44,6-40.62,14.11-13.64,9.13-21.54,23.61-24.71,39.34-3.8,18.87,7.15,34.06,20.24,46.9,10.3,10.09,24.88,17.59,39.52,12.38,11.33-4,16.87-16.7,20.1-27.19,5.88-19.09,6.3-40,7.22-59.92,18.69-2,38.3-.41,54.31,1.81,3.23.46-4.6-10.14-5.17-10.88"/></g><path class="cls-2" d="M141.41,190.06a87.46,87.46,0,0,0-4.68,12.37,42.64,42.64,0,0,0,8.59.87,41.92,41.92,0,0,0,42.05-47c-19.84,4.47-37.17,14.35-46,33.77"/></svg>