<svg id="Layer_1" data-name="Layer 1" xmlns="http://www.w3.org/2000/svg" viewBox="0 0 300 300"><defs><style>.cls-1{fill:#285da4;}</style></defs><g id="_265ca3ff" data-name="#265ca3ff"><path id="Layer" class="cls-1" d="M193.74,58.18h60.14v183H193.74c0-6.15.07-12.29-.06-18.44a94.44,94.44,0,0,1-49.13,18.62,52,52,0,0,1-9.66.42c6.5-18.47,13.32-36.82,19.92-55.25,1.16-3.1,2.18-6.26,3.47-9.32,20.38,0,40.75.13,61.12-.07C207.51,167.55,195,158.77,183,149.37c-3.78-2.84-7.51-5.73-11.37-8.46,7-20.68,14.55-41.18,21.59-61.86-4.37,2.76-8.56,5.79-12.92,8.56-.85.63-2,.4-2.94.48q-40.89-.06-81.76,0c-4.23-3-8.35-6.06-12.64-8.94.79,3,2,5.93,3,8.91-5,0-10,0-15.09,0A89,89,0,0,1,80.79,79a4.75,4.75,0,0,1,2.77-.6H193.72c0-6.74,0-13.47,0-20.21Z"/><path id="Layer-2" data-name="Layer" class="cls-1" d="M112.38,62.51a87.86,87.86,0,0,1,15-2.8l.69-.41c5.41,0,10.83,0,16.25,0,6.56.19,13,1.74,19.33,3.24-13.6.46-27.21.08-40.8.2C119.35,62.71,115.86,62.86,112.38,62.51Z"/><path id="Layer-3" data-name="Layer" class="cls-1" d="M87.41,74.14a70.61,70.61,0,0,1,15-8,41.23,41.23,0,0,1,6.19-.18h62.76a9.37,9.37,0,0,1,4.44,1.14,121,121,0,0,1,12.39,6.9c-33.59.19-67.19,0-100.8.09Z"/><path id="Layer-4" data-name="Layer" class="cls-1" d="M67.61,91.83c6.6.24,13.28-.37,19.82.29C89,95.29,90,98.7,91.22,102c-10.36.2-20.72.05-31.08.09q3.51-5.3,7.47-10.25Z"/><path id="Layer-5" data-name="Layer" class="cls-1" d="M101.52,92c24-.22,48-.1,72-.06-5,3.62-10.36,6.59-15.36,10.17-14.1.05-28.22,0-42.32,0-4.86-3.22-9.75-6.45-14.28-10.14Z"/><path id="Layer-6" data-name="Layer" class="cls-1" d="M57.89,105.82c11.53.09,23.07-.12,34.59.09,1.73,3.39,2.63,7.12,4.07,10.63-14.57,0-29.14,0-43.7,0,1.7-3.55,3.21-7.2,5-10.69Z"/><path id="Layer-7" data-name="Layer" class="cls-1" d="M121.05,105.92c10.25-.14,20.5-.19,30.75,0q-8,5.58-16.19,10.8-7.23-5.46-14.56-10.83Z"/><path id="Layer-8" data-name="Layer" class="cls-1" d="M51.48,120.35c15.51-.1,31,0,46.54,0,1.16,3.78,2.77,7.41,4,11.17-17.9.07-35.79,0-53.69,0,1-3.74,1.9-7.49,3.13-11.15Z"/><path id="Layer-9" data-name="Layer" class="cls-1" d="M47.85,135.29c16.22,0,32.44,0,48.67,0a50,50,0,0,1,6.92.17c.48,1,.77,2,1.17,3a101.63,101.63,0,0,1-9.8,7c-1.33.78-3,.4-4.4.5-14.53,0-29.06,0-43.59,0A45.81,45.81,0,0,1,47.85,135.29Z"/><path id="Layer-10" data-name="Layer" class="cls-1" d="M47,160.94c-.18-3.73,0-7.49-.85-11.14,14.08,0,28.17-.11,42.24.06-5.1,4-10.57,7.41-15.84,11.13-8.52-.05-17,0-25.55-.05Z"/><path id="Layer-11" data-name="Layer" class="cls-1" d="M47.73,164.75c6.16,0,12.34-.05,18.51,0-5.31,3.87-10.61,7.77-16.07,11.44a103.93,103.93,0,0,1-2.44-11.47Z"/><path id="Layer-12" data-name="Layer" class="cls-1" d="M50.35,176.67c21.56,0,43.11,0,64.67,0a102.86,102.86,0,0,1,3,10.17c-21.26,0-42.53.14-63.78-.06-1.85-3.06-2.55-6.74-3.86-10.07Z"/><path id="Layer-13" data-name="Layer" class="cls-1" d="M55.94,190.67c21.11-.09,42.22,0,63.33,0,1,3.1,1.93,6.23,2.81,9.38l.58,1.31q-30.3,0-60.61,0a82.74,82.74,0,0,1-6.11-10.66Z"/><path id="Layer-14" data-name="Layer" class="cls-1" d="M64.8,205.13c19.66-.06,39.31,0,59,0,1,3.77,2,7.53,3.42,11.19q-26.16,0-52.3,0A86.79,86.79,0,0,1,64.8,205.13Z"/><path id="Layer-15" data-name="Layer" class="cls-1" d="M79.05,220.1c15.24-.08,30.48,0,45.71,0a22.45,22.45,0,0,1,3.38.17c1.25,3.44,2.05,7,3.28,10.48-11.67.15-23.33,0-35,.08-2.33.19-4.21-1.4-6.12-2.48-3.88-2.54-7.87-5-11.25-8.21Z"/><path id="Layer-16" data-name="Layer" class="cls-1" d="M102.66,234.64c10-.2,19.94,0,29.91-.11a67.27,67.27,0,0,1,1.9,7.29c-5.51-1-11.17-1.11-16.66-2.38A119.52,119.52,0,0,1,102.66,234.64Z"/></g></svg>