<svg id="Layer_1" data-name="Layer 1" xmlns="http://www.w3.org/2000/svg" viewBox="0 0 300 300"><defs><style>.cls-1{fill:#0093c8;}.cls-2{fill:#55575b;}.cls-3{fill:#939497;}.cls-4{fill:#2fb2d8;}</style></defs><path class="cls-1" d="M191.79,135c-3.23,3.46-7.28,5.95-10.84,9.06-8.52,7.44-16.16,15.56-22.06,25.28a144.07,144.07,0,0,0-9.79,20.37c0-3.88.1-7.76,0-11.64-.55-17.63-5.91-33.48-17.43-47.07a123.72,123.72,0,0,0-21.39-20.15,29,29,0,0,1-2.53-2.31c0-1.33,1.12-1.91,1.87-2.72,2.86-3.1,6.19-5.77,8.78-9.14A60.09,60.09,0,0,1,132,108.24a71.29,71.29,0,0,1,12.13,18,81.08,81.08,0,0,1,6.4,21.88c.47,3.24-.19,6.63,1.5,9.89a55.4,55.4,0,0,1,12-19.81,125.26,125.26,0,0,1,12.75-11.24c1.13-.92,1.85-2.61,3.67-2.64C184.33,127.72,187.11,132.39,191.79,135Z"/><path class="cls-2" d="M210.58,150.69c-2.76,2.43-5.4,5-8.32,7.26a121.29,121.29,0,0,0-18.61,18.19,131.36,131.36,0,0,0-20,30.71,95.77,95.77,0,0,0-7.61,25c-.79,5-1.4,10.1-2.13,15.46-1.42-1.93-1.4-3.93-1.7-5.92a113.79,113.79,0,0,1-1.34-27,96.5,96.5,0,0,1,10.39-36.53A94.46,94.46,0,0,1,185,148.24c3.78-3.14,7.43-6.44,11.74-8.87C200.4,144.33,205.61,147.36,210.58,150.69Z"/><path class="cls-2" d="M102,112.56c3.74.93,6.21,3.85,9,6.13,10.68,8.89,19.77,19.17,25.75,31.87a69.5,69.5,0,0,1,6.12,21.32c1.63,13.28.13,26.27-3,39.17-.45,1.87-.85,3.75-1.31,5.62a7.79,7.79,0,0,1-.8,1.33,125.81,125.81,0,0,0-1.34-18.27,94.14,94.14,0,0,0-6.42-25,103.28,103.28,0,0,0-17.66-28.51A146.41,146.41,0,0,0,89.47,125a1.51,1.51,0,0,1-.61-1.27A85.17,85.17,0,0,0,102,112.56Z"/><path class="cls-3" d="M102,112.56a85.17,85.17,0,0,1-13.18,11.16c-3-.89-5.06-3.21-7.18-5.17C71.42,109,62.74,98.37,58.38,84.73a15.52,15.52,0,0,1-.79-6.56l8.24-8.6c1.89,3.08,3.58,6.1,5.51,9a161.62,161.62,0,0,0,28.31,31.24C100.57,110.56,101.67,111.27,102,112.56Z"/><path class="cls-4" d="M118.38,96.7c-2.59,3.37-5.92,6-8.78,9.14-.75.81-1.87,1.39-1.87,2.72-3.91-1.62-6.62-4.86-9.68-7.53A123.62,123.62,0,0,1,83.54,86a119.23,119.23,0,0,1-12.4-18c-.54-1-1.27-1.91-1-3.39,2.74-4.2,6.76-7.5,10.57-11.47C83.18,57.49,85.24,61.7,88,65.5a123.24,123.24,0,0,0,21.16,23C112.3,91.14,115.31,94,118.38,96.7Z"/><path class="cls-4" d="M191.79,135c-4.68-2.63-7.46-7.3-11.4-10.73,3.45-3.73,7.56-6.73,11.33-10.09a98.51,98.51,0,0,0,17.67-20.94c1.7-2.68,3.07-5.58,4.58-8.39a4.54,4.54,0,0,1,2.47-2.59c3.67,3.77,7,8,11.12,11.64a92.92,92.92,0,0,1-14.18,22.36,115.47,115.47,0,0,1-18.83,17.48A4.92,4.92,0,0,1,191.79,135Z"/><path class="cls-3" d="M210.58,150.69c-5-3.33-10.18-6.36-13.82-11.32a203.09,203.09,0,0,0,15.5-13.84,97.07,97.07,0,0,0,17.94-24.76c.3-.61.31-1.5,1.58-1.86a64.68,64.68,0,0,1,8.22,9.41,51.75,51.75,0,0,1-8.54,21.92,89.68,89.68,0,0,1-20,20.3C211.28,150.71,210.89,150.65,210.58,150.69Z"/></svg>