<svg id="Layer_1" data-name="Layer 1" xmlns="http://www.w3.org/2000/svg" viewBox="0 0 300 300"><defs><style>.cls-1{fill:#0869b5;}.cls-2{fill:#0868b3;}.cls-3{fill:#0969b4;}.cls-4{fill:#126eb8;}.cls-5{fill:#0960a7;}.cls-6{fill:#0866b0;}.cls-7{fill:#4684c4;}.cls-8{fill:#4b86c5;}.cls-9{fill:#588bc8;}.cls-10{fill:#367dc0;}.cls-11{fill:#2375bc;}.cls-12{fill:#136eb8;}.cls-13{fill:#0963ab;}.cls-14{fill:#1971b9;}.cls-15{fill:#a0bee2;}.cls-16{fill:#156fb8;}.cls-17{fill:#337cc0;}.cls-18{fill:#0963ac;}.cls-19{fill:#2176bd;}.cls-20{fill:#4d87c5;}.cls-21{fill:#1d74bc;}.cls-22{fill:#0a64ad;}.cls-23{fill:#7096ce;}.cls-24{fill:#2b78be;}.cls-25{fill:#7fabd9;}.cls-26{fill:#7397cf;}.cls-27{fill:#2074bb;}.cls-28{fill:#0962a9;}.cls-29{fill:#377dc0;}.cls-30{fill:#bfcde8;}.cls-31{fill:#1871ba;}.cls-32{fill:#7296ce;}.cls-33{fill:#6d94cd;}.cls-34{fill:#146eb8;}.cls-35{fill:#2c79be;}.cls-36{fill:#a3b7de;}.cls-37{fill:#5f8eca;}.cls-38{fill:#6792cc;}.cls-39{fill:#1971ba;}.cls-40{fill:#1c73bb;}.cls-41{fill:#cad6ee;}.cls-42{fill:#3e80c2;}.cls-43{fill:#106bb6;}.cls-44{fill:#608fca;}.cls-45{fill:#3280c3;}.cls-46{fill:#87a2d4;}.cls-47{fill:#438ac7;}.cls-48{fill:#0967b2;}.cls-49{fill:#548ac7;}.cls-50{fill:#8ba4d5;}.cls-51{fill:#4985c5;}.cls-52{fill:#cfd9ed;}.cls-53{fill:#6591cb;}.cls-54{fill:#3c85c5;}.cls-55{fill:#2c7dc1;}.cls-56{fill:#829dd2;}.cls-57{fill:#afc0e2;}.cls-58{fill:#839ed3;}.cls-59{fill:#0866b2;}.cls-60{fill:#2576bc;}.cls-61{fill:#5292cc;}.cls-62{fill:#0b68b4;}.cls-63{fill:#679ed2;}.cls-64{fill:#488dc9;}.cls-65{fill:#5a96ce;}.cls-66{fill:#558ac8;}.cls-67{fill:#a6b9df;}.cls-68{fill:#74a5d5;}.cls-69{fill:#5d8eca;}.cls-70{fill:#5d98cf;}.cls-71{fill:#357dc0;}.cls-72{fill:#7a9ad0;}.cls-73{fill:#98aeda;}.cls-74{fill:#9bb1db;}.cls-75{fill:#c1cfe9;}.cls-76{fill:#1670b9;}.cls-77{fill:#6aa0d3;}.cls-78{fill:#4182c3;}.cls-79{fill:#839fd3;}.cls-80{fill:#73a5d5;}.cls-81{fill:#b5c5e4;}.cls-82{fill:#cdd8ed;}.cls-83{fill:#90a8d7;}.cls-84{fill:#4784c4;}.cls-85{fill:#92a9d8;}.cls-86{fill:#a8bbdf;}.cls-87{fill:#a8c3e5;}.cls-88{fill:#8aa4d5;}.cls-89{fill:#558ac7;}.cls-90{fill:#d1dbee;}.cls-91{fill:#94abd8;}.cls-92{fill:#c1cee9;}.cls-93{fill:#7d9cd1;}.cls-94{fill:#88a2d4;}.cls-95{fill:#6491cb;}.cls-96{fill:#dce3f2;}.cls-97{fill:#86a0d4;}.cls-98{fill:#9bb0db;}.cls-99{fill:#99bae0;}.cls-100{fill:#b8cce9;}.cls-101{fill:#96add9;}.cls-102{fill:#c6d3ed;}.cls-103{fill:#cfd9f0;}.cls-104{fill:#a1b5dd;}.cls-105{fill:#89a3d5;}.cls-106{fill:#9fbee2;}.cls-107{fill:#92b6de;}.cls-108{fill:#84aeda;}.cls-109{fill:#568bc8;}.cls-110{fill:#bfd0eb;}.cls-111{fill:#4e87c6;}.cls-112{fill:#92aad8;}.cls-113{fill:#97add9;}.cls-114{fill:#8da6d6;}.cls-115{fill:#b1c7e7;}.cls-116{fill:#3a7fc1;}.cls-117{fill:#5192cc;}.cls-118{fill:#3d80c2;}.cls-119{fill:#4a85c5;}.cls-120{fill:#4f88c6;}.cls-121{fill:#307bbf;}.cls-122{fill:#2a78bd;}.cls-123{fill:#1e73bb;}.cls-124{fill:#4a86c5;}.cls-125{fill:#8cb3dd;}</style></defs><path class="cls-1" d="M83,82.52A7,7,0,0,1,85.19,79c2-.81,2.8.85,3.72,2,6.88,8.75,13.59,17.64,20.35,26.49q24,31.44,48.12,62.85c13.8,18.09,27.8,36,41.42,54.27.56.75,1.55,1.32,1.11,2.5h0c-.31.33-.81.23-1.16.48a6.58,6.58,0,0,1-3.54.68c-2.84-2.34-4.6-5.55-6.82-8.38-5.71-7.3-11.39-14.62-16.83-22.12-1-4-3.14-7.25-5.62-10.45Q140.73,154.72,115.68,122a29.39,29.39,0,0,0-9.25-8.34c-.36-1.92-1.73-3.24-2.83-4.7C97.84,101.37,92,93.86,86.25,86.21,85.26,84.88,84,83.83,83,82.52Z"/><path class="cls-2" d="M70.79,143.06a5.3,5.3,0,0,1,1.7-2.32c1.91-.85,2.35,1,3.08,1.9,4.57,5.48,8.88,11.17,13.28,16.8q22,28.19,44,56.41c.91,1.17,2.76,2.19,1.83,4.24a3.72,3.72,0,0,1-2.38,1.06c-3.85-3.26-6.42-7.59-9.53-11.45-5.27-6.54-10.38-13.21-15.56-19.83a4.25,4.25,0,0,0-1.42-1.44c-2.59-4.37-5.44-8.54-9.36-11.86-2.21-4-5.45-7.27-8.17-10.91C82.59,158,76.44,150.74,70.79,143.06Z"/><path class="cls-3" d="M159.24,92.31a2.55,2.55,0,0,1,1.15-1.62c1.7-.76,2.57.48,3.38,1.55,6.87,9,13.94,17.87,20.92,26.8,11.85,15.16,23.64,30.37,35.57,45.47,1.19,1.51,3.21,2.75,2.68,5.22a3.91,3.91,0,0,1-2.41,1c-2.47-1.54-3.77-4.13-5.5-6.32q-9.67-12.27-19.3-24.6c-.52-.67-.9-1.52-1.8-1.84a50.88,50.88,0,0,0-8.74-11.33c-.64-1.9-2.21-3.14-3.39-4.64C174.87,113.08,168,104.15,161,95.31A6.51,6.51,0,0,1,159.24,92.31Z"/><path class="cls-4" d="M199.91,227.08c-6.95-9.16-13.84-18.36-20.85-27.47-12.83-16.67-25.77-33.26-38.59-50-9.67-12.6-19.18-25.31-28.81-37.94q-11.88-15.57-23.86-31A3.52,3.52,0,0,0,85.19,79l.93-1.16a.53.53,0,0,1,.41-.4l.08-.09c1.51-.26,2,1,2.68,1.87,11.2,14.71,22.5,29.33,33.69,44,4.92,6.46,9.91,12.87,14.79,19.35a14.76,14.76,0,0,0,1.87,2.44,7.4,7.4,0,0,1,.7.89,17.61,17.61,0,0,0,1.09,1.48,9.56,9.56,0,0,1,.67.87,15.9,15.9,0,0,0,1,1.44,7.36,7.36,0,0,1,.63.84c.26.39.51.78.8,1.14s.77.9,1.11,1.38a14.47,14.47,0,0,0,1.61,2,7.3,7.3,0,0,1,.7.88,14.29,14.29,0,0,0,1.1,1.49c.24.28.46.58.67.88a14.77,14.77,0,0,0,1.11,1.49c.24.28.46.58.67.88a12.65,12.65,0,0,0,1.63,2,7.43,7.43,0,0,1,.69.88A16,16,0,0,0,155,165c.24.28.46.58.68.89a13.6,13.6,0,0,0,1.12,1.5,10.45,10.45,0,0,1,.7.91c.48.77,1.1,1.44,1.63,2.17a14.73,14.73,0,0,0,1.68,2.1,8.89,8.89,0,0,1,.71.91A17.72,17.72,0,0,0,162.6,175a8.37,8.37,0,0,1,.68.89,14.28,14.28,0,0,0,1.11,1.48,9.77,9.77,0,0,1,.69.9c.54.88,1.27,1.61,1.89,2.43,4.1,5.43,8.38,10.72,12.32,16.27,6.46,9,13.41,17.6,20.05,26.44.78,1,2.06,2,1.15,3.55Z"/><path class="cls-5" d="M215.18,171.78c-10,.57-18.48-6-19.42-15.1-.53-3-.13-5.94-.22-8.9,1.69-.26,2.46.71,3.16,1.6,5.21,6.56,10.45,13.09,15.47,19.79C214.73,169.93,215.49,170.66,215.18,171.78Z"/><path class="cls-5" d="M122.71,221.87c-7.67-.63-14.52-7.47-15.13-15.11a59.74,59.74,0,0,1-.18-8.54c1.78-.4,2.37.63,3,1.44q7.53,9.39,14.79,19c.69.91,2.21,1.88.88,3.42A10.67,10.67,0,0,1,122.71,221.87Z"/><path class="cls-6" d="M171.56,197.75c3.41,2,5,5.65,7.29,8.6,5.29,6.72,10.45,13.55,15.64,20.35a7.85,7.85,0,0,1,.72,1.55,14.53,14.53,0,0,1-8.28-.55c.75-1.1-.09-1.82-.64-2.57-3.81-5.15-7.77-10.17-11.63-15.28-.57-.75-1.12-2.08-2.44-.82Z"/><path class="cls-5" d="M85,171.34c-12-2.88-18.1-10.87-16.65-21.84a11.44,11.44,0,0,0,.39-1.26h0c1.19-.37,1.85.45,2.43,1.19,5.13,6.5,10.35,12.93,15.27,19.59.55.75,2,1.87,0,2.83l-.6-.12A1.7,1.7,0,0,0,85,171.34Z"/><path class="cls-6" d="M83,82.52c2.19,0,2.87,1.91,3.86,3.19q9.36,12,18.38,24.2c.68.92,3.15,1.81,1.24,3.78L100,111.28c-5.93-7.82-11.82-15.68-17.94-23.36a4.35,4.35,0,0,1-.71-1.26A8.92,8.92,0,0,1,83,82.52Z"/><path class="cls-5" d="M174.4,121.42l-1-.25c-.26-.12-.46-.36-.77-.38l-.22,0-.17-.14c-.37-.34-.9-.24-1.31-.49-10.42-2.88-15.83-10.85-14.41-21.24.19-.39.18-.84.4-1.22h0c1.4-.36,1.88.83,2.49,1.61,5.12,6.42,10.23,12.85,15.18,19.4C175.22,119.56,176.69,120.72,174.4,121.42Z"/><path class="cls-7" d="M91.7,73.58l1.12-.51c1.54-.58,2.37.43,3.15,1.45q9.72,12.63,19.39,25.3c.15.2.28.41.41.61s.24.39.35.59.28.57.42.84l.32.49.36.43s.18.2.19.2a3.62,3.62,0,0,1,.36.42,2.39,2.39,0,0,1,.31.45c.1.15.19.31.27.46l.3.44.35.4s.18.2.19.2a2.3,2.3,0,0,1,.35.41,2,2,0,0,1,.3.45,3.47,3.47,0,0,1,.27.46c.11.14.2.29.31.43l.35.41s.18.2.18.19a2.78,2.78,0,0,1,.36.41,2.71,2.71,0,0,1,.3.45c.1.15.18.3.27.46l.3.43.35.4.18.2a3.48,3.48,0,0,1,.39.38s.18.19.19.19a2.86,2.86,0,0,1,.36.41,2.21,2.21,0,0,1,.3.45c.1.15.19.31.28.47s.19.29.3.44l.35.4.18.2a2.71,2.71,0,0,1,.36.4,2.21,2.21,0,0,1,.3.45,4.39,4.39,0,0,1,.27.47l.3.43.35.4s.18.2.19.2a2.3,2.3,0,0,1,.35.41,2,2,0,0,1,.3.45,3.47,3.47,0,0,1,.27.46c.11.14.2.29.3.43l.36.41s.18.2.18.19a3.52,3.52,0,0,1,.36.41,2.71,2.71,0,0,1,.3.45c.1.15.18.3.27.46l.3.43.35.4.18.2a3.48,3.48,0,0,1,.39.38s.18.19.19.19a2.86,2.86,0,0,1,.36.41,2.21,2.21,0,0,1,.3.45c.1.15.19.31.28.47s.19.29.3.44l.35.4.18.2a3.42,3.42,0,0,1,.36.4,2.21,2.21,0,0,1,.3.45,4.39,4.39,0,0,1,.27.47l.3.43c.12.13.23.27.35.41,0,0,.18.19.19.19a2.86,2.86,0,0,1,.36.41,3.52,3.52,0,0,1,.3.45c.09.14.18.3.27.46l.29.43.35.4s.18.2.19.19a4.68,4.68,0,0,1,.38.39,1.7,1.7,0,0,1,.19.19,2.41,2.41,0,0,1,.37.41,2.21,2.21,0,0,1,.3.45,4.39,4.39,0,0,1,.27.47l.3.44.35.4s.18.2.19.2a2.35,2.35,0,0,1,.36.41,2.47,2.47,0,0,1,.31.46c.1.15.19.31.28.47l.33.46c.14.14.26.28.39.42s.14.15.22.22a6,6,0,0,1,.41.47,5.3,5.3,0,0,1,.39.54,9.12,9.12,0,0,0,1.17,1.31c5.13,6.2,9.84,12.73,14.77,19.07a5,5,0,0,1,.38.63,4.32,4.32,0,0,1,.3.61c.14.28.26.57.4.86l.33.49.4.45.21.21c.14.15.27.3.4.46s.25.34.36.51.35.51.54.75a6.26,6.26,0,0,1,.41.49,4.52,4.52,0,0,1,.4.49,5.41,5.41,0,0,1,.36.52c.18.26.35.52.53.77s.25.31.38.47l.39.44.2.22a5.2,5.2,0,0,1,.38.44,3.08,3.08,0,0,1,.32.48,5.5,5.5,0,0,1,.28.48l.3.45c.12.14.23.28.35.41s.18.21.19.2a2.86,2.86,0,0,1,.36.42,2.77,2.77,0,0,1,.31.45c.1.16.19.32.28.48l.32.45c.14.13.26.28.39.42s.19.21.2.21a5.34,5.34,0,0,1,.39.44c.12.16.23.32.34.49s.33.49.51.73.25.3.37.45a5.34,5.34,0,0,1,.39.44s.19.22.2.21a3.25,3.25,0,0,1,.38.44,2.59,2.59,0,0,1,.32.47c.1.16.19.33.28.49l.33.47.39.44.21.23a2.87,2.87,0,0,1,.37.54,1.7,1.7,0,0,1,.09.67.91.91,0,0,1-.74.71,3.82,3.82,0,0,1-2-1.19c-6.4-7.9-12.4-16.11-18.63-24.15-18.93-24.42-37.41-49.19-56.46-73.52a13.64,13.64,0,0,0-1.56-1.75A1.73,1.73,0,0,1,91.7,73.58Z"/><path class="cls-8" d="M138.85,217.22l-.62.52c-4.57-5.35-8.72-11-13.06-16.57Q101.23,170.59,77.33,140a3.56,3.56,0,0,1-1.12-2,1.21,1.21,0,0,1,.3-.77h0c1.41-.7,2.18.29,2.92,1.16s1.55,2,2.44,2.91a4.36,4.36,0,0,1,.48.65,20.66,20.66,0,0,0,3.68,4.7,5.26,5.26,0,0,1,.49.65c3.08,4.46,6.62,8.56,10,12.79a5.47,5.47,0,0,1,.44.63c.14.19.26.4.39.61a2.9,2.9,0,0,0,.19.29c.14.19.27.38.39.58a5.43,5.43,0,0,1,.35.57,7.32,7.32,0,0,0,.73,1.05l.66.69c.22.23.44.46.65.7a6.28,6.28,0,0,1,.59.77c.24.36.48.73.74,1.08a9.68,9.68,0,0,1,.61.82c.27.38.53.75.82,1.11s.46.51.69.76.46.49.69.75a6.9,6.9,0,0,1,.61.79c.19.26.36.54.55.81l.61.75a8.47,8.47,0,0,1,.58.76c.18.26.34.53.52.79s.37.48.57.71.42.44.62.67a5.22,5.22,0,0,1,.54.7c.16.24.31.49.46.74s.23.3.34.45.26.27.38.41.2.21.21.2.28.26.41.4.2.22.2.21a2.84,2.84,0,0,1,.37.47,5,5,0,0,1,.29.5c.11.17.21.34.32.5l.19.24c.13.15.25.31.37.47a5.62,5.62,0,0,1,.35.5c.17.25.33.5.51.74s.25.31.37.46.27.3.4.45l.2.21c.14.14.28.28.41.43l.21.22a4.49,4.49,0,0,1,.41.46c.15.16.28.33.41.49a13,13,0,0,0,1,1c3.4,3.6,5.91,7.94,9.49,11.37,4.5,5.25,8.54,10.85,12.83,16.25.53.67,1.18,1.35.84,2.35h0a1.65,1.65,0,0,0-.59.64l0,0A1.23,1.23,0,0,0,138.85,217.22Z"/><path class="cls-9" d="M131.74,118.38q13.13,16.88,26.23,33.74c7.53,9.73,15,19.5,22.54,29.22a52,52,0,0,0,3.61,3.82c2.61,3.39,5.37,6.66,7.86,10.15.6.84,1.54,1.58,1.09,2.84-.72.69-1.29.09-1.9-.22a8.27,8.27,0,0,1-.66-.51,6.76,6.76,0,0,1-.64-.54C186,192,182.22,187,178.44,182.09a35.82,35.82,0,0,0-2.48-2.88c-11.62-15.4-23.29-30.76-35.15-46-2.63-3.73-5.5-7.28-8.26-10.91-.64-.85-1.42-1.62-1.39-2.8A1.57,1.57,0,0,1,131.74,118.38Z"/><path class="cls-10" d="M76.5,137.77Q95,161.42,113.55,185.08q11.57,14.79,23.13,29.58a6.15,6.15,0,0,1,1.55,3.08l-1.21,1c-3.13-3-5.48-6.61-8.14-10-1.87-2.36-4-4.56-5.39-7.3-2.22-4.17-5.47-7.58-8.35-11.26-9.49-12.14-19-24.31-28.49-36.42-3.92-5-7.69-10.07-11.71-15,0-.13-.09-.26-.13-.39l1-.72A.48.48,0,0,1,76.5,137.77Z"/><path class="cls-11" d="M87.46,76.53l.59-.54a1.15,1.15,0,0,0,.77-.57h0c1.25-.35,1.71.68,2.27,1.4,4,5.19,8.13,10.34,12,15.66.33.5.59,1.05,1,1.53l.41.53c.15.16.29.33.44.5l.22.24a4.11,4.11,0,0,1,.42.5,4.21,4.21,0,0,1,.38.53c.18.26.36.53.56.79s.28.33.42.49.28.34.41.52a4,4,0,0,1,.37.54l.58.81c.16.17.3.34.45.52s.3.36.44.54.29.39.42.59a15.4,15.4,0,0,0,1.14,1.42,5.32,5.32,0,0,1,.44.59,10,10,0,0,0,1.06,1.45c.17.17.33.35.48.53a9.7,9.7,0,0,1,.84,1.11c.19.27.37.56.57.83s.28.34.42.52a5.3,5.3,0,0,1,.42.52,5.36,5.36,0,0,1,.38.55c.19.27.37.54.57.8l.43.51c.15.17.29.34.42.52s.26.36.38.55a8.46,8.46,0,0,0,1,1.3,5.23,5.23,0,0,1,.45.49,5.05,5.05,0,0,1,.43.51c.14.18.27.37.39.56.24.37.49.74.76,1.1.14.18.26.37.38.56a7.79,7.79,0,0,0,1,1.35c.33.33.65.67.95,1a4.73,4.73,0,0,1,.43.57,9.06,9.06,0,0,0,1,1.41,5.91,5.91,0,0,1,.48.52c.16.17.31.36.45.54a5.45,5.45,0,0,1,.4.58,12.85,12.85,0,0,0,1.29,1.65,4.73,4.73,0,0,1,.43.57,12,12,0,0,0,1.3,1.71,6.46,6.46,0,0,1,.44.59,8.89,8.89,0,0,0,1.07,1.45c.17.17.33.36.49.54a5,5,0,0,1,.46.57,6.51,6.51,0,0,1,.43.6,14.18,14.18,0,0,0,.87,1.17,9.77,9.77,0,0,1,.69.9c.54.87,1.26,1.61,1.88,2.43,2.61,3.57,5.5,6.93,8,10.57.59.84,1.53,1.57,1,2.81-.94.62-1.58-.15-2.32-.48-1.71-1.25-2.65-3.19-4.15-4.63-6.3-8.81-13.08-17.26-19.63-25.88q-11.41-15-23-29.95C92.15,83,89.64,79.88,87.46,76.53Z"/><path class="cls-12" d="M222.94,169.73c-2.64-4.71-6.34-8.62-9.59-12.87-7.17-9.35-14.55-18.53-21.81-27.82Q177.25,110.74,163,92.4a3.53,3.53,0,0,0-2.61-1.71l1.08-1.24c1.3-.35,2,.52,2.68,1.35,9.69,12.33,19.38,24.67,28.95,37.09a12.9,12.9,0,0,0,1.6,2.22c.17.2.31.41.46.62a8.69,8.69,0,0,0,1.12,1.51,6.91,6.91,0,0,1,.51.57,5.76,5.76,0,0,1,.5.59,7.07,7.07,0,0,1,.44.63,17.59,17.59,0,0,0,2.56,3.38,6.77,6.77,0,0,1,.52.56,6.66,6.66,0,0,1,.49.59c.16.2.3.41.44.62a9.87,9.87,0,0,0,1.76,2c6.78,8.4,13.36,17,20,25.46a2.15,2.15,0,0,1,.57,2.4Z"/><path class="cls-13" d="M172.22,209c.07-.67.13-1.33.27-2.76,6,6.95,11,13.94,16.43,21.2l-2,.23C178.55,226,172.16,217.85,172.22,209Z"/><path class="cls-14" d="M87.46,76.53c4,3.32,6.62,7.86,9.77,11.9,12.12,15.57,24,31.3,36,47,1.57,2.06,3.51,3.9,4.42,6.43a.89.89,0,0,1,.25.94l-.25.23c-4-4.11-7.2-8.92-10.71-13.45C114.76,113.87,102.73,98,90.64,82.26c-1.3-1.69-2.21-3.69-4-5Z"/><path class="cls-15" d="M80,207.7a8,8,0,0,1-1.78,4.69c-3.5-4.81-6-10.19-9-15.29-1.83-3.1-3.54-6.27-5.32-9.4-.51-.88-1.36-1.72-.91-2.93A12.85,12.85,0,0,1,68.84,186c3.68,3.72,5.4,8.67,8,13.07,1.25,2.13,3.11,4,3.34,6.7C80.22,206.42,80.5,207.08,80,207.7Z"/><path class="cls-16" d="M134.71,220.09c-2.14-4.42-5.64-7.88-8.56-11.73-6.6-8.69-13.44-17.19-20.17-25.76Q91.37,164,76.75,145.38c-1.29-1.65-2.25-3.64-4.26-4.64l.53-.61c1.78-.92,2.46.61,3.25,1.58,5.15,6.23,9.93,12.75,15,19.07,8.25,10.36,16.23,20.92,24.53,31.23,6.5,8.29,13,16.55,19.42,24.9.56.73,1.5,1.42.68,2.55h0a2.08,2.08,0,0,1-.59.43Z"/><path class="cls-17" d="M205.19,224.12l-.59.47a13,13,0,0,1-3.35-3.26c-11.38-15.17-23.07-30.11-34.48-45.25-.6-.79-1.34-1.43-1.92-2.22-6.3-8.78-13.19-17.11-19.55-25.84-2.91-4-5.92-7.92-8.91-11.86-.14-.2-.29-.41-.45-.6l-.25-.27c-.16-.16-.32-.35-.47-.53a3.78,3.78,0,0,1-.4-.56,3,3,0,0,0-.7-1.12l-.48-.48c-.15-.17-.3-.35-.44-.53a2.8,2.8,0,0,1-.32-.62,8,8,0,0,0-1.14-1.39,1.67,1.67,0,0,1-.36-.65,1.38,1.38,0,0,1,.22-1.08,1.21,1.21,0,0,1,1.39.2,5.48,5.48,0,0,1,.8.72,6.24,6.24,0,0,1,.64.82c.2.28.38.56.57.83l.62.78a6.57,6.57,0,0,1,.6.79c.19.27.37.54.57.81l.63.77a7.9,7.9,0,0,1,.61.79,11.76,11.76,0,0,0,1,1.33c.24.24.46.49.68.74a6.76,6.76,0,0,1,.61.8c.2.27.37.55.56.83s.41.51.62.77a6.57,6.57,0,0,1,.6.79l.56.81.64.78a8.71,8.71,0,0,1,.64.83c.29.4.59.79.91,1.16,4.21,5.14,8,10.61,12.22,15.73a5.26,5.26,0,0,1,.49.65,13.26,13.26,0,0,0,2,2.48,4.58,4.58,0,0,1,.5.66c6.22,8.61,12.84,16.93,19.26,25.4,8.3,11,16.75,21.79,25.05,32.74C205,222.16,206,222.87,205.19,224.12Z"/><path class="cls-11" d="M141.73,146l1.77,1.18c1.26-.39,1.7.6,2.27,1.35,6.32,8.37,12.75,16.65,19.1,25,12.29,16.09,24.66,32.11,36.86,48.26.69.92,1.88,1.48,2,2.8a1.3,1.3,0,0,1-.28.78l-.63.42c-1.51-.5-2.25-1.86-3.11-3-10.79-14.25-21.78-28.36-32.59-42.6a40.33,40.33,0,0,0-3.92-4.73c-1.08-.82-1.57-2.16-2.64-3a5.78,5.78,0,0,1-.52-.59,8,8,0,0,0-1.37-1.89,4.17,4.17,0,0,1-.49-.62,73,73,0,0,0-5.32-6.95,5.17,5.17,0,0,1-.52-.62c-2.25-3.2-4.57-6.35-7.1-9.35a5.25,5.25,0,0,1-.53-.62c-.74-1.37-1.87-2.46-2.69-3.77C141.61,147.38,141,146.79,141.73,146Z"/><path class="cls-13" d="M126.45,221.78c-5.71-8-11.94-15.53-18-23.24l-.88.06v8.16c-1-4.54-.16-9.16-.63-13.73,1.31-.9,2,.14,2.65.94,6.44,8.23,12.93,16.43,19.3,24.72.71.93,1.48,1.92.52,3.16l0,0A3.59,3.59,0,0,1,126.45,221.78Z"/><path class="cls-18" d="M215.18,171.78,196.65,148l-.89.22v8.46c-1.09-4.69-.14-9.48-.7-14.19,1.59-.5,2.33.73,3.07,1.67q9.31,11.72,18.44,23.56c.72.93,1.47,1.86,1.28,3.08-.27.78-1,.68-1.47.94Z"/><path class="cls-19" d="M69.45,220.54a3.51,3.51,0,0,1-2.24.76c-1-.21-1.38-1-1.81-1.78-5.5-9.86-11.13-19.65-16.65-29.5a4,4,0,0,1,2-1.69c1.52-.76,2.12.44,2.68,1.39C58.7,198.77,63.71,208,69,217.07,69.53,218.07,70.53,219.21,69.45,220.54Z"/><path class="cls-18" d="M174.4,121.42c.62-.34.86-.79.36-1.4-6.1-7.3-11.5-15.16-17.82-22.28a3.1,3.1,0,0,1,.7-2.29c1.82-1.75,2.59.19,3.35,1.14,3.68,4.66,7.39,9.3,11,14,2.25,2.94,4.54,5.84,6.8,8.77a5.77,5.77,0,0,1,1.35,2.23c.24,1.12.12,2-1.4,1.48A15.11,15.11,0,0,1,174.4,121.42Z"/><path class="cls-6" d="M178.75,123.08c2.12-.61.63-1.76.17-2.36Q169.53,108.53,160,96.45c-.56-.71-1.14-1.73-2.37-1a3.61,3.61,0,0,1,1.12-2.35c.21-.22.51-.38.5-.75l0,0c4.41,4.53,7.89,9.82,11.89,14.69,4.43,5.4,8.71,10.93,12.92,16.5.6.81,2.25,1.57,1.14,3.13h0a1.25,1.25,0,0,0-.76-.57.4.4,0,0,1-.43-.21,2.73,2.73,0,0,1-.58-.43h0a1.19,1.19,0,0,0-.87-.53Z"/><path class="cls-18" d="M86.49,171.85c.62-2.53-1.63-3.68-2.76-5.2C79.55,161,75.1,155.48,70.7,150a14,14,0,0,0-2-1.72,5,5,0,0,1,.84-2.83c1.6-.79,2.39.49,3.12,1.4Q82.37,159,91.86,171.33c.64.83,1.35,1.77.5,2.91l-.6-.19-.67-.4a.47.47,0,0,1-.5-.15,2.09,2.09,0,0,0-.78-.41l-1-.25a5.32,5.32,0,0,1-.66-.37A2,2,0,0,1,86.49,171.85Z"/><path class="cls-6" d="M216.38,171.74l1.2-.93c-1.86-3.7-4.67-6.45-7-9.55-4.14-5.63-8.57-11-12.92-16.52a6,6,0,0,0-2.64-2.25c-.37-1.51-.75-3-1.13-4.53,1.31-.9,1.72.5,2.17,1.06q11.86,15,23.59,30.15a10.49,10.49,0,0,1,.84,1.55h0c-.36.26-.84.2-1.21.46A5.72,5.72,0,0,1,216.38,171.74Z"/><path class="cls-19" d="M246.32,119.49a5.11,5.11,0,0,1-2.91,1.16c-6.12-10.5-11.87-21.2-18.11-31.63a4.83,4.83,0,0,1,2.22-1.8c1.76-.24,2.37,1.16,3,2.28,5,9,10.08,18,15.26,27A3.26,3.26,0,0,1,246.32,119.49Z"/><path class="cls-20" d="M131.74,119.55c2.25,4.33,5.84,7.7,8.53,11.72a3.37,3.37,0,0,1,.88,1.79.47.47,0,0,1,.21.43c0,.16-.06.24-.11.24a.51.51,0,0,1-.69-.08c-.18-.21-.4-.39-.59-.59s-.39-.39-.59-.58-.23-.87-.58-1.18h0l-.59-.59c-.19-.2-.39-.39-.59-.58s-.23-.87-.59-1.18h0l-.59-.59c-.19-.2-.38-.39-.58-.58l-.59-.59h0c-.34-.32-.23-.87-.59-1.18h0c-.19-.2-.39-.39-.59-.59s-.38-.39-.58-.58h0c-.34-.32-.24-.87-.59-1.18h0l-.59-.59c-.19-.2-.39-.39-.59-.58s-.23-.87-.58-1.18h0l-.59-.59h0c-.19-.2-.39-.39-.59-.58s-.39-.4-.59-.59h0c-.34-.32-.23-.87-.58-1.18h0l-.59-.58c-.19-.2-.39-.4-.59-.59h0c-.34-.32-.23-.87-.59-1.18h0l-.59-.59c-.19-.2-.38-.39-.58-.58h0c-.34-.32-.24-.87-.59-1.18h0c-.19-.2-.39-.39-.59-.59s-.39-.39-.59-.58-.23-.87-.58-1.18h0l-.59-.59h0c-.19-.2-.39-.39-.59-.58s-.39-.4-.59-.59h0c-.34-.32-.23-.87-.58-1.18h0l-.59-.59-.59-.58h0c-.34-.32-.23-.87-.59-1.18h0l-.58-.59-.59-.58h0c-.34-.32-.23-.87-.59-1.18h0c-.19-.2-.39-.39-.59-.59h0c-.19-.2-.39-.39-.59-.58s-.23-.87-.58-1.18h0c-.19-.2-.41-.38-.59-.59q-10-12.93-20-25.87c-.68-.89-1.29-1.71-2.5-1.8a2.15,2.15,0,0,1,1.71-.65c1.54-.24,2.28.87,3,1.86,9.53,12.48,19.27,24.79,28.46,37.53C127.9,114.41,130.1,116.78,131.74,119.55Z"/><path class="cls-6" d="M92.36,174.24c-.84-3.38-3.59-5.49-5.52-8.11-4.51-6.11-9.28-12-14-18-.89-1.13-1.68-2.43-3.28-2.74l1.2-2.35c2.34.77,3.16,3.05,4.51,4.73,6.83,8.56,13.56,17.21,20.29,25.84.65.83,1.93,1.57.87,2.94h0a1.2,1.2,0,0,0-.78-.55Z"/><path class="cls-6" d="M129.42,221.85c.22-1.93-1.34-3-2.29-4.24-6-7.78-12.11-15.45-18.14-23.19-.57-.72-1-1.44-2-1.39a5.34,5.34,0,0,1-.55-2.75,5.71,5.71,0,0,0-.45-1.38.44.44,0,0,1-.13-.47c1.43-.66,1.85.73,2.37,1.39q12,15.06,23.77,30.24a3.42,3.42,0,0,1,.37,1.09l-.22.13-.25,0c-.39.25-.89.19-1.27.44Z"/><path class="cls-21" d="M225.3,89c2.89,1.8,3.8,5,5.4,7.72,4.33,7.25,8.4,14.66,12.58,22a1.73,1.73,0,0,1,.13,1.91,4,4,0,0,1-2.36.56c-3.86-6-7.25-12.25-10.7-18.47-2.23-4-4.76-7.83-6.73-12A3.64,3.64,0,0,1,225.3,89Z"/><path class="cls-22" d="M81.36,86.66c3.37,1.91,4.81,5.52,7.17,8.3,3.64,4.3,6.9,8.92,10.29,13.43.63.84,1.39,1.68,1.19,2.89l-.62-.12c-.27-.11-.47-.35-.78-.36a8.86,8.86,0,0,1-4-1.19C91.22,104.05,86.84,99.22,83,94c-.6-.83-1.2-.83-1.88-.14C80.2,91.41,80.78,89,81.36,86.66Z"/><path class="cls-23" d="M121.67,97.81c.19,1.76.39,3.51.58,5.27-1,.15-1.4-.59-1.85-1.17-7.51-9.55-14.73-19.3-22.19-28.89a1.91,1.91,0,0,1-.28-.82,1.16,1.16,0,0,1,.32-.76l2.36,0c1.63.71,2.36,2.34,3.58,3.47a6.74,6.74,0,0,1,.47.62,12.34,12.34,0,0,0,1.39,1.84,5.61,5.61,0,0,1,.47.62,39.5,39.5,0,0,0,5.75,7c3.45,3.43,6,7.58,9,11.41C121.5,96.76,121.37,97.35,121.67,97.81Z"/><path class="cls-11" d="M192.86,128.36c-5.6-6.32-10.51-13.2-15.76-19.8-4.59-5.77-9-11.65-13.62-17.45a12.59,12.59,0,0,0-2-1.66l1.26-1.14c1.48-.35,2.05.82,2.75,1.7,5.42,6.76,10.64,13.68,16,20.47,6.39,8.59,13.15,16.9,19.68,25.39a5.82,5.82,0,0,1,1.48,2.8,1.76,1.76,0,0,1-.23.81c-.71.47-1-.11-1.34-.54h0l-.59-.59c-1.24-1.52-2.37-3.11-3.53-4.7h0l-.58-.59c-.53-.83-1.23-1.53-1.77-2.35S193.4,129.18,192.86,128.36Z"/><path class="cls-24" d="M203.44,224.74q-16.6-21.69-33.2-43.37c-2-2.53-4.26-4.79-5.59-7.76a.37.37,0,0,1,.59,0c3.84,3.38,6.45,7.78,9.54,11.75,9.86,12.67,19.3,25.67,29.42,38.15a3.84,3.84,0,0,1,.4,1.08.39.39,0,0,1-.4.22A.6.6,0,0,1,203.44,224.74Z"/><path class="cls-25" d="M63,184.77q7.54,13.1,15.06,26.2a4,4,0,0,1,.21,1.42h0a1.55,1.55,0,0,0-.49.72l-.66,1.07c-3-1.76-3.79-5.07-5.4-7.75-3.68-6.15-7-12.5-10.62-18.72-.52-.9-1.28-1.8-.45-2.92a1,1,0,0,1,.52-.07,1.07,1.07,0,0,1,1.28,0A2,2,0,0,1,63,184.77Z"/><path class="cls-26" d="M211.69,214.79a5.17,5.17,0,0,1-1.2,2.9c-6.82-9.14-13.81-18.15-20.75-27.2-.72-1-1.88-1.8-1.57-3.29l3.52,1.15a9.38,9.38,0,0,1,3.37,2.76c5,6.76,10.23,13.36,15.31,20.07C211.16,212.22,212.28,213.22,211.69,214.79Z"/><path class="cls-27" d="M115.29,192.42c-5.22-6.54-10.48-13-15.64-19.62-8.12-10.35-16.17-20.75-24.27-31.11A3.1,3.1,0,0,0,73,140.13,2,2,0,0,1,74.2,139a.57.57,0,0,1,.74-.1c4.42,4.31,7.72,9.54,11.53,14.35q14.44,18.22,28.68,36.64c.12.24.24.48.35.73a3.49,3.49,0,0,1,.2.77A1.27,1.27,0,0,1,115.29,192.42Z"/><path class="cls-28" d="M81.14,93.83l.21-2.32c3.21,2.31,4.86,5.55,7.05,8.32,1.92,2.44,3.88,4.86,5.67,7.39.43.6,1.86,1.27.56,2.39l-.27,0-.24-.14c-.34-.3-.87-.18-1.2-.51A17.68,17.68,0,0,1,81.78,96.65c-.5-.49-.06-1.26-.51-1.77Z"/><path class="cls-29" d="M205.19,224.12c-2.45-4.33-5.81-8-8.79-11.93q-16.83-22.24-33.83-44.36c-1.17-1.54-2.74-2.79-3.21-4.8,1.3-.4,1.6.72,2.21,1.42,3.36,3.89,6,8.33,9.62,12a6,6,0,0,1,.49.64,53.28,53.28,0,0,0,5.69,7.25c1.22,1.43,2.3,3,3.56,4.37,2.51,3.37,4.93,6.81,7.7,10,5.17,7.23,10.84,14.08,16.12,21.23.78,1.07,1.93,2.07,1.06,3.64Z"/><path class="cls-30" d="M174.63,83.76a12.83,12.83,0,0,1,7.06,1.71A54.61,54.61,0,0,1,192.27,99c.92,2.9.55,5.87.54,8.82-.31.07-.68,0-.76-.25-2-6.39-7.19-10.56-10.81-15.81C179.28,88.88,176.82,86.43,174.63,83.76Z"/><path class="cls-31" d="M223.62,90.76c3,2.27,4,5.87,5.88,8.89,3.74,6.16,7.16,12.52,10.7,18.8a4.74,4.74,0,0,1,.85,2.76l-2.35.12c-2.49-2.9-4-6.38-5.89-9.66-3.15-5.58-6.34-11.14-9.5-16.71a16.08,16.08,0,0,1-1-2.42Z"/><path class="cls-32" d="M104.73,164.21a.79.79,0,0,1,0,.48c.24.39.18.88.43,1.27.23,1,.47,2,.7,2.95-1.23.38-1.77-.56-2.36-1.3Q91.06,151.88,78.79,136a2,2,0,0,1,1.69-.64c1.38-.5,2.23.32,3,1.25,6.77,8.36,13.21,17,19.92,25.37C104,162.64,104.15,163.54,104.73,164.21Z"/><path class="cls-33" d="M193.32,115.43l.87,3.5c-1.07.56-1.68-.22-2.19-.88-1.78-2.34-3.84-4.44-5.4-6.94a13.17,13.17,0,0,0-1.3-2.08c-5.44-7.09-11-14.09-16.57-21.09a3.79,3.79,0,0,1-1.24-2.55l1.26-.53a1.21,1.21,0,0,1,1.2-.17c1.85,1.21,2.94,3.11,4.26,4.79,5.44,6.92,10.78,13.92,16.33,20.76a27.83,27.83,0,0,1,2.38,4h0C193.16,114.58,193.11,115.05,193.32,115.43Z"/><path class="cls-17" d="M202.26,138.94c-3.55-5.49-7.93-10.35-11.78-15.61-3.1-4.22-6.87-7.94-9.38-12.6l.26-.19h.33a2.16,2.16,0,0,1,.57.28l.24.2a4.57,4.57,0,0,1,.45.43l.21.22a5.72,5.72,0,0,1,.4.46,4.2,4.2,0,0,1,.33.49c.11.16.2.33.29.49l.33.47.37.42s.19.2.2.2a5.14,5.14,0,0,1,.41.4s.19.21.2.2a2.48,2.48,0,0,1,.35.45,3.43,3.43,0,0,1,.28.49l.29.48s.16.23.17.22l.38.42s.19.22.2.21a3.23,3.23,0,0,1,.38.45,3.3,3.3,0,0,1,.34.49l.34.51c.14.16.27.32.42.47l.52.43.29.22a4.67,4.67,0,0,1,.6.48c9.16,11.47,18.15,23.06,27.18,34.62,2.54,3.24,5,6.52,7.61,9.7.83,1,1.63,2,.77,3.41l-.63.48c-4.77-5.13-8.8-10.86-13.11-16.36C208.72,147.69,205.09,143.61,202.26,138.94Z"/><path class="cls-29" d="M132.92,129l-1.18-.59c-1.8.22-2.16-1.41-2.92-2.4Q109.92,101.32,91,76.68c-.48-.63-1-1.17-1.53-1.78l1-.64a1.59,1.59,0,0,1,.92-.24,1.88,1.88,0,0,1,.62.2,2.2,2.2,0,0,1,.51.4,3.92,3.92,0,0,1,.39.52c.18.26.35.53.53.78l.41.49.43.46.22.23c.15.15.28.31.42.48a6.18,6.18,0,0,1,.36.53c.19.26.35.53.55.79s.27.33.42.49l.42.5c.13.17.25.36.37.54s.36.54.56.79l.41.5a6.54,6.54,0,0,1,.41.51,6.18,6.18,0,0,1,.36.53c.17.26.34.52.53.77s.26.32.38.48a4.14,4.14,0,0,1,.37.46,3.82,3.82,0,0,1,.33.49c.1.16.19.33.28.5s.21.31.31.46.25.29.37.43.2.21.2.2A5.44,5.44,0,0,1,102,87l.21.22a4.38,4.38,0,0,1,.41.45,4.59,4.59,0,0,1,.35.51c.18.25.35.52.54.77l.41.48c.15.16.28.33.42.5s.25.35.37.53.36.54.56.8.28.33.42.5.28.34.41.51.26.36.38.55.37.54.57.8.29.34.42.51a5.3,5.3,0,0,1,.42.52,4,4,0,0,1,.38.54,8.68,8.68,0,0,0,1,1.31l.45.5c.15.16.3.33.44.51a5.44,5.44,0,0,1,.39.55c.18.27.36.55.56.81s.29.34.42.51.29.34.42.52a4.7,4.7,0,0,1,.37.54c.18.27.37.54.57.8s.28.34.41.5.28.34.41.51a6.3,6.3,0,0,1,.37.53c.17.27.35.53.54.79s.27.32.4.48.28.31.42.47l.22.24a4.81,4.81,0,0,1,.42.48,4.6,4.6,0,0,1,.37.53c.18.26.35.53.54.79l.42.5c.15.16.29.33.43.5a5.14,5.14,0,0,1,.37.54c.19.27.37.54.58.81s.29.34.43.51.3.36.44.54a4.49,4.49,0,0,1,.4.57c.31.49.71.91,1.06,1.37.15.17.29.36.42.54a13,13,0,0,0,.71,1.11l.41.49.42.47c.08.08.14.16.22.23a6.4,6.4,0,0,1,.42.49,5,5,0,0,1,.37.53c.18.26.35.53.54.79l.42.49c.15.16.29.33.42.5a4.7,4.7,0,0,1,.37.54c.18.27.37.54.56.8s.28.33.42.5a5.08,5.08,0,0,1,.41.51,4,4,0,0,1,.37.54c.19.27.37.54.57.8s.28.33.41.5a6.4,6.4,0,0,1,.41.5c.13.17.25.35.37.53s.34.54.52.79l.41.49.42.46.22.23a5.61,5.61,0,0,1,.78,1c.18.26.34.52.53.78s.26.33.4.49a3.9,3.9,0,0,1,.4.51,1.91,1.91,0,0,1,.22.62,1.43,1.43,0,0,1-.12.64Z"/><path class="cls-34" d="M222.34,92.54c2.78,2.94,4.22,6.71,6.23,10.12,3.1,5.28,6.07,10.64,9.06,16a20.92,20.92,0,0,1,1.07,2.69l-2.36,0c-1.61-.8-2.25-2.41-3-3.84-3.54-6.52-7.3-12.9-11-19.35a14,14,0,0,1-1.25-3.22l.58-1.17a1.62,1.62,0,0,0,.49-.81A.29.29,0,0,1,222.34,92.54Z"/><path class="cls-34" d="M44.88,195.38l.61-1.22a5.24,5.24,0,0,1,.44-.61l0,0c1.42-.78,2,.39,2.52,1.24,4.7,8,9.2,16.1,13.74,24.19a3,3,0,0,1,.45,2.55c-.64.87-1.58.45-2.41.49-1.47-.64-2-2.08-2.73-3.32-3.87-6.66-7.59-13.41-11.4-20.1A8.48,8.48,0,0,1,44.88,195.38Z"/><path class="cls-35" d="M89.48,74.9c3.52,1.41,4.82,4.94,6.9,7.62,11.74,15.08,23.27,30.34,34.87,45.54.11.14.33.2.49.3v1.18c-.66.34-.85-.25-1.17-.59h0l-.59-.59c-.52-.83-1.22-1.53-1.76-2.35h0c-.53-.83-1.22-1.53-1.77-2.35h0c-.52-.83-1.22-1.53-1.76-2.35h0c-.19-.2-.39-.39-.59-.59h0c-.52-.83-1.22-1.53-1.76-2.35h0a7.05,7.05,0,0,0-1.2-1.52,7.16,7.16,0,0,1-1.15-1.42h0c-.43-.56-.73-1.21-1.18-1.76h0l-.58-.59h0c-.53-.83-1.22-1.53-1.77-2.35h0c-.19-.2-.38-.39-.58-.58h0c-.43-.57-.73-1.22-1.18-1.77h0l-.59-.59h0c-.43-.56-.72-1.21-1.17-1.76h0c-.19-.2-.39-.39-.59-.59h0c-.52-.83-1.22-1.53-1.76-2.35h0c-.52-.83-1.22-1.53-1.77-2.35h0c-.19-.2-.38-.39-.58-.58h0c-.43-.57-.73-1.22-1.18-1.77h0c-.19-.2-.39-.39-.59-.59h0c-.43-.56-.72-1.21-1.17-1.76h0c-.19-.2-.39-.39-.59-.59h0c-.19-.2-.39-.39-.59-.58-.43-.57-.73-1.21-1.17-1.77-4.31-5.48-8.62-11-12.94-16.45a12.66,12.66,0,0,0-1.21-1.22Z"/><path class="cls-36" d="M174.63,83.76c3.65,1.36,5,5,7.32,7.62,2.61,3,4.86,6.26,7.39,9.31a14.84,14.84,0,0,1,3.47,7.11l0,3-.4.13-.35-.23a2.92,2.92,0,0,1-.43-.72c-1.29-3.46-4-5.92-6.18-8.76-3.65-4.78-7.39-9.51-11.07-14.28a4.94,4.94,0,0,0-2.69-2.07,1.61,1.61,0,0,1-.59-.57C172.16,83.39,173.43,83.83,174.63,83.76Z"/><path class="cls-37" d="M78.79,136c2.16.49,2.88,2.53,4,4,7.38,9.3,14.63,18.71,21.93,28.07a6.36,6.36,0,0,0,1.15.88l5.49,8.76c-1,.71-1.37-.22-2-.64a4.41,4.41,0,0,1-.42-.64,17.56,17.56,0,0,0-2-2.27c-.14-.21-.27-.42-.39-.64a11.51,11.51,0,0,0-1.38-1.73q-.21-.31-.39-.63a11.79,11.79,0,0,0-1.92-2.19,3,3,0,0,1-.46-.55,4.57,4.57,0,0,0-1.18-1.71c-.14-.17-.28-.36-.41-.55a5.25,5.25,0,0,0-.43-.53,5.34,5.34,0,0,1-.41-.56,11.28,11.28,0,0,0-1.42-1.59,2.34,2.34,0,0,1-.39-.64,10.35,10.35,0,0,0-2.09-2.7c-3.6-4.18-6.88-8.61-10.29-12.93h0c-1.42-1.73-2.78-3.5-4.12-5.29h0c-1.38-1.78-2.74-3.57-4.16-5.32Z"/><path class="cls-38" d="M203.42,131.41l4.16,2.77c.26.32.66.48.93.79,4.06,4,7.11,8.76,10.64,13.17,3.29,4.1,6.61,8.19,9.72,12.43.55.76,1.4,1.41,1.07,2.54a2.49,2.49,0,0,1-1.19,1.73,3.24,3.24,0,0,1-2.13-1.44c-3.23-4.15-6.61-8.19-9.69-12.47-3.35-5.37-7.62-10.05-11.4-15.1C204.57,134.55,202.72,133.54,203.42,131.41Z"/><path class="cls-39" d="M60,221.73a3,3,0,0,0,2.13-.34c-.37-2.62-2.19-4.62-3.41-6.86-3.44-6.33-7-12.58-10.61-18.82-.49-.87-.91-2-2.21-2.14l.73-1.17a5.29,5.29,0,0,1,.47-.59h0a1.79,1.79,0,0,0,.57-.65h0c1-.23,1.37.58,1.74,1.22,5.31,9.08,10.47,18.25,15.58,27.45a2,2,0,0,1,.35,1.92,9.63,9.63,0,0,1-6.55.07A.91.91,0,0,1,60,221.73Z"/><path class="cls-40" d="M65.33,221.77q-7-12.3-14.08-24.6c-1.16-2-2.39-4-3.59-6L48.75,190c2.33.69,2.58,3.08,3.55,4.73,5.11,8.77,10,17.69,14.91,26.55l0,0c-.39.21-.86.17-1.24.43Z"/><path class="cls-41" d="M80,207.7c-.46-4.23-3.59-7.17-5.31-10.8s-3.91-7.28-5.89-10.91C77.79,189.46,82.42,199.54,80,207.7Z"/><path class="cls-42" d="M225.81,167.84c-.51-3.43-3.38-5.35-5.27-7.82-10.29-13.38-20.78-26.61-31.21-39.88a8.07,8.07,0,0,0-.58-.59h0c-.2-.2-.39-.4-.59-.59h0c-.34-.32-.23-.86-.59-1.17h0c-.19-.2-.39-.4-.59-.59h0c-.19-.2-.38-.4-.58-.59h0c-.2-.19-.38-.41-.59-.59v-.59c-.21-.18-.38-.4-.59-.58s-.39-.4-.59-.59h0l-.58-.59h0c-.35-.32-.24-.86-.59-1.17h0c-.19-.2-.39-.4-.59-.59h0c-.19-.2-.39-.4-.59-.59h0l-.58-.59h0c-.67-.82-1.86-1.38-1.41-2.76,2.41-.74,2.65,1.7,3.9,2.65.19.19.37.4.55.6a7.43,7.43,0,0,1,.52.62c5.13,6.66,10.42,13.17,15.45,19.9.16.2.3.42.44.63s.27.41.4.63a6.82,6.82,0,0,0,1,1.47c.27.27.52.54.77.82a9.31,9.31,0,0,1,.74.92c7.1,8.87,13.83,18,21.07,26.78.87,1,2.2,2,1.87,3.74Z"/><path class="cls-43" d="M221.1,94.87c4.48,6.35,7.74,13.41,11.73,20,1.25,2.08,2.35,4.25,3.51,6.37l-1.19-.07c-.54-.38-1.28,0-1.8-.47a1.9,1.9,0,0,1-1.77-.58c-.12-1.72-1.09-3.09-1.93-4.49-2.92-4.91-5.51-10-8.48-14.89-.57-.94-.66-2-1.18-3a2.7,2.7,0,0,1,.59-1.79,1.57,1.57,0,0,0,.41-.86A.19.19,0,0,1,221.1,94.87Z"/><path class="cls-44" d="M140,216l-14.13-18.24c-3.37-4.35-6.7-8.72-10.21-13-1.06-1.5-2.41-2.77-3.4-4.32-.45-.7-1.29-1.31-.45-2.26l4.72,4.64c4.56,3.65,7.52,8.68,11.11,13.14q6.15,7.65,12.11,15.46a7.82,7.82,0,0,1,1.56,2.8A2.73,2.73,0,0,1,140,216Z"/><path class="cls-45" d="M246.32,119.49q-4.56-8.26-9.12-16.53c-2.29-4.15-4.56-8.32-6.93-12.42-.71-1.24-1.31-2.65-2.75-3.32a4,4,0,0,1,2.31-1.31c1.68.75,2.2,2.45,3,3.85,4.68,8.56,9.52,17,14.38,25.47.57,1,1.5,1.88,1,3.2v0a7.79,7.79,0,0,0-.65.48Z"/><path class="cls-46" d="M104.73,164.21c-3.41-2.84-5.7-6.62-8.44-10-4.65-5.75-9.1-11.67-13.62-17.52a3.12,3.12,0,0,0-2.19-1.34,2.28,2.28,0,0,1,1.84-.54c2-.63,2.87.84,3.8,2,2.17,2.78,4.31,5.57,6.56,8.29,3.61,5.08,7.78,9.75,11.33,14.88.12.24.23.49.33.73a2.51,2.51,0,0,0,.3,1.14Z"/><path class="cls-9" d="M131.74,119.55c-3.67-3.4-6.25-7.67-9.28-11.59-8.69-11.24-17.27-22.57-25.93-33.84a11.32,11.32,0,0,0-2-1.69,2.31,2.31,0,0,1,1.92-.52c3.31,2,4.93,5.42,7.19,8.29,5.08,6.4,9.88,13,15,19.39a69.36,69.36,0,0,1,4.9,7.61h0c.32.33.21.89.62,1.18l0,0,.46.6a.42.42,0,0,1,.17.39,1.19,1.19,0,0,0,.58.8l0,0a3.79,3.79,0,0,0,.55.65h0a2.43,2.43,0,0,1,.47.54.41.41,0,0,1,.18.38,1.12,1.12,0,0,0,.6.8l0,0a2.12,2.12,0,0,0,.58.65v0a6,6,0,0,1,.5.63l.06.08a.68.68,0,0,1,.39.44.63.63,0,0,1,.26.47,1.4,1.4,0,0,0,.59.74l0,0c.15.24.37.42.53.64l0,0a1.23,1.23,0,0,1,.43.5.47.47,0,0,1,.22.42,1.22,1.22,0,0,0,.59.78l0,0a2.63,2.63,0,0,0,.56.64h0Z"/><path class="cls-47" d="M248.16,118.43q-7.26-12.66-14.5-25.32c-1.34-2.36-2.55-4.8-3.83-7.2l1.1-.52a.76.76,0,0,1,.83,0c3,3.15,4.54,7.22,6.67,10.9,3.25,5.63,6.5,11.27,9.64,17,.74,1.35,2.18,2.65,1.18,4.51Z"/><path class="cls-43" d="M60,221.73l-1.23.11a3,3,0,0,1-2.3-.51c-4.41-7.4-8.55-15-12.83-22.45a4.23,4.23,0,0,1,.69-2.37l.39-.69a.38.38,0,0,1,.15-.44c4.49,6.74,8,14.05,12.15,21C58.08,218.12,59,219.94,60,221.73Z"/><path class="cls-48" d="M50.52,218.32a15.86,15.86,0,0,1-7-11c-.33-.61-.08-1.34-.41-1.95v-3.54c1.53-.72,2.09.51,2.67,1.45q4.19,6.85,7.83,14c.4.78,1.83,2-.17,2.83a.45.45,0,0,1-.46-.17,3.22,3.22,0,0,0-.7-.45.47.47,0,0,1-.48-.21,1.65,1.65,0,0,1-.56-.42h0A2.24,2.24,0,0,0,50.52,218.32Z"/><path class="cls-9" d="M123.53,107.2q-5.9-7.67-11.79-15.35c-2.11-2.74-4.2-5.5-6.3-8.25q-4.48-5.85-9-11.69h0a1.65,1.65,0,0,1,1.82,0l24,31.14C122.68,104.46,123.1,105.83,123.53,107.2Z"/><path class="cls-49" d="M217.54,150.69l11.21,14.15v0a1.21,1.21,0,0,0-.56.73l-.56.59c-3.9-3.83-7-8.32-10.34-12.62-4.42-5.69-8.95-11.3-13.29-17.06a7.8,7.8,0,0,0-1.6-2.1,6.75,6.75,0,0,1-.53-.54,4.71,4.71,0,0,1-.4-.65,7.44,7.44,0,0,0-.38-.68c-2.6-3.54-5.86-6.59-7.73-10.65a1.38,1.38,0,0,1,.77-.29,2.52,2.52,0,0,1,1.83,1.31q7.54,10,15.34,19.79C213.4,145.31,215.42,148.05,217.54,150.69Z"/><path class="cls-50" d="M171.07,84.26l.63.09c2.1,1.08,3.07,3.17,4.45,4.91,2.17,2.74,4.46,5.39,6.43,8.28.14.2.27.4.39.61a2.82,2.82,0,0,0,.18.29c.13.18.25.37.38.54l.21.26c.14.15.27.32.4.49a4.72,4.72,0,0,1,.35.52l.32.52c.12.16.24.33.37.49l.42.46c.08.07.15.15.22.22a4.69,4.69,0,0,1,.43.47,5.17,5.17,0,0,1,.54.78c.12.17.23.34.34.51s.11.17.18.25l.38.46.2.22c.13.14.26.3.38.45a2.8,2.8,0,0,1,.33.49c.1.15.2.32.29.49l.32.46.38.42a1.89,1.89,0,0,0,.2.2c.15.13.28.27.42.41l.2.21a2.28,2.28,0,0,1,.36.46,3.68,3.68,0,0,1,.3.5c.11.16.21.33.31.5,0,0,.17.24.17.23a2.62,2.62,0,0,1,.3.51l.12.27a1.36,1.36,0,0,0,.31.5h0a1.91,1.91,0,0,1,.49.57c.05,1,.1,2,.16,2.93-3.66-4.52-7.39-9-11-13.56-4.07-5.21-8-10.51-12-15.77-.22-.12-.29-.24-.21-.35a.29.29,0,0,1,.22-.16Z"/><path class="cls-51" d="M207.59,221.88l-.59.6c-4.38-4.78-8-10.18-12-15.24-2.29-2.88-4.52-5.81-6.64-8.81a6.88,6.88,0,0,1-.54-.54,11.89,11.89,0,0,0-1.28-1.73l-.45-.52c-.16-.17-.31-.35-.46-.52s-.27-.37-.39-.56-.35-.56-.55-.83-.28-.35-.43-.51l-.42-.51a4.91,4.91,0,0,1-.38-.55c-.19-.27-.36-.56-.56-.82l-.44-.52c-.16-.17-.3-.35-.45-.52a4.7,4.7,0,0,1-.4-.59,8.6,8.6,0,0,0-1.64-2c-2.4-3.58-5.56-6.6-7.53-10.48a1.62,1.62,0,0,1,.29-1.15c2.22-.23,2.24,2.06,3.42,3a6,6,0,0,0,.46.53c.16.16.31.33.46.5l.22.24c.16.16.29.33.43.5a6.18,6.18,0,0,1,.36.53,3.11,3.11,0,0,0,.32.56c.14.17.28.34.43.5l.5.5.26.26a3.92,3.92,0,0,1,.45.62c8.64,11.5,17.86,22.54,26.35,34.16.69.94,1.55,1.79,1.51,3.09A1.91,1.91,0,0,1,207.59,221.88Z"/><path class="cls-27" d="M163.48,174.79c3.55,3.23,6,7.34,8.93,11.09,9.85,12.66,19.6,25.41,29.37,38.13a18.08,18.08,0,0,1,1,1.76l-1.15.62c-5.73-6.83-10.9-14.09-16.37-21.12-1.91-2.45-3.78-4.92-5.76-7.3-1.52-3.22-4.07-5.7-6.14-8.54-2.19-3-4.52-5.89-6.68-8.9a4.15,4.15,0,0,0-.46-.56l-.45-.5-.22-.24a4.66,4.66,0,0,1-.39-.49l-.17-.25a4.14,4.14,0,0,0-.37-.46,1.55,1.55,0,0,1-.36-.45l-.32-.49a4.06,4.06,0,0,1-.36-.46,3.84,3.84,0,0,1-.32-.5,2.32,2.32,0,0,1-.22-.57A.81.81,0,0,1,163.48,174.79Z"/><path class="cls-52" d="M131.15,186.55c6.41,1.31,9.61,6.14,12.29,11.42a10.16,10.16,0,0,1,1.19,6.22c-1.1.16-1.53-.73-2-1.38-3.59-4.51-7.09-9.08-10.64-13.62C131.34,188.43,130.68,187.64,131.15,186.55Z"/><path class="cls-53" d="M188.17,187.2c7,9,13.93,18,20.84,27.09.74,1,1.7,2,1.48,3.4l-.46.79c-2.06-.8-2.94-2.79-4.14-4.36-6.48-8.5-12.87-17.08-19.3-25.63-.46-.61-1.13-1.11-.89-2a.63.63,0,0,1,.78,0,1,1,0,0,1,.52.15,6.12,6.12,0,0,0,.69.43A.82.82,0,0,1,188.17,187.2Z"/><path class="cls-54" d="M71.82,219.31a.7.7,0,0,1-.52.21,2.75,2.75,0,0,1-2-1.62C64,208.24,58.49,198.7,53.1,189.08c-.4-.72-.72-1.4-.17-2.17l1.08-.48c1.58.29,2.18,1.62,2.79,2.81,4.25,8.26,9.3,16.06,13.68,24.24.9,1.67,2.37,3.2,1.91,5.38h0A2.22,2.22,0,0,1,71.82,219.31Z"/><path class="cls-55" d="M52.93,186.91c2.61,4.85,5.17,9.73,7.85,14.54,2.83,5.07,5.78,10.07,8.69,15.1.59,1,1.22,2,1.83,3v0a3.85,3.85,0,0,0-.67.47l-1.18.57c-.9-4.16-3.75-7.33-5.67-11-3.47-6.58-7.34-13-11-19.43-.48-.85-.83-1.81-2-1.81A4.36,4.36,0,0,1,52.93,186.91Z"/><path class="cls-56" d="M211.69,214.79c-2-4.27-5.45-7.51-8.16-11.27-3.76-5.2-7.88-10.13-11.84-15.17l2.95.64c3.67,2.17,5.42,6,8.07,9.12,3,4.58,6.79,8.57,9.76,13.17a1.49,1.49,0,0,1-.17,1.2C212.27,213.3,212.37,214.15,211.69,214.79Z"/><path class="cls-57" d="M214.6,135.45a5.74,5.74,0,0,1,3.53.54c4.08,3,6.34,7.64,9.63,11.37,1.22,1.39,2.16,3,3.44,4.38a5.33,5.33,0,0,1,1.07,5.44l0,0c-1.35.38-2-.64-2.6-1.45-4.64-6.15-9.59-12.07-14.29-18.18C214.88,136.92,214.26,136.35,214.6,135.45Z"/><path class="cls-57" d="M131.15,186.55c3.66,5.55,8.09,10.52,12,15.84.46.62,1,1.2,1.44,1.8-.08,1,.32,2.09-.51,3a3.73,3.73,0,0,1-2.48-1.87c-4.18-5.84-8.91-11.25-13.11-17.06-.49-.68-1.32-1.24-.9-2.28L130,186c.34.3.87.2,1.19.55Z"/><path class="cls-37" d="M185.8,186.55,210,218.47a.56.56,0,0,1-.17.39,1.08,1.08,0,0,1-.76.29c-2.59-1.09-3.64-3.65-5.28-5.62-3.48-4.18-6.54-8.68-10-12.89a3.13,3.13,0,0,1-1-2.35c-1.6-3.58-4.57-6.19-6.73-9.37-.81-1.18-2-2.15-2-3.76l1.67.91c.17.1.23.2.18.31S185.86,186.55,185.8,186.55Z"/><path class="cls-58" d="M229.94,163.11Q219.62,150,209.31,136.83a17.22,17.22,0,0,1-1.18-2,.54.54,0,0,1,.78-.08l1,.17c2.69,1.33,4,4,5.72,6.18,4.7,6,9.47,11.93,14.06,18,.67.88,1.35,1.71.84,2.91Z"/><path class="cls-59" d="M229.23,119.18l-.54-.32c-.22-.16-.44-.31-.67-.45a16.25,16.25,0,0,1-8.16-11.7c-.53-.74,0-1.67-.46-2.43v-2.93c1.64-.2,2.16,1.1,2.74,2.17,2.18,4,4.56,8,6.76,12C229.53,116.63,230.49,117.83,229.23,119.18Z"/><path class="cls-60" d="M202.26,138.94c3.7,3.24,6.21,7.46,9.23,11.26,4.31,5.41,8.52,10.89,12.8,16.33a3,3,0,0,1,.89,1.79h0a2.26,2.26,0,0,1-.56.46l-.53.26c-2.69-4.53-6.31-8.36-9.41-12.59-3.79-5.16-7.87-10.11-11.82-15.16-.28-.56-1-1-.59-1.76Z"/><path class="cls-61" d="M249.25,117.73c-1.1-3.7-3.42-6.78-5.23-10.11-4-7.42-8.24-14.76-12.38-22.13-.16-.12-.21-.22-.15-.33s.11-.16.17-.16l1.07-.21c1.71.56,2.11,2.25,2.86,3.53,4.75,8.16,9.24,16.47,14,24.61.63,1.09,1.71,2.26.89,3.77Z"/><path class="cls-62" d="M229.23,119.18c.38-2.31-1.32-3.82-2.35-5.48-2.52-4.1-4.1-8.78-7.48-12.35l0-.63c.33-.59.06-1.32.41-1.91l.16-1c3.49,4.34,5.55,9.52,8.46,14.2,1.48,2.39,2.76,4.89,4.14,7.36,0,.66-.55.67-1,.78A3.56,3.56,0,0,1,229.23,119.18Z"/><path class="cls-63" d="M75.87,215.82a2,2,0,0,1-1.15,1.2c-3.9-5.71-6.89-11.93-10.38-17.88q-3.09-5.28-6.07-10.63c-.56-1-1.38-1.95-.65-3.22,1.68-.46,2.42.59,3.16,1.84,5.06,8.48,9.68,17.21,14.7,25.71C76,213.73,76.56,214.72,75.87,215.82Z"/><path class="cls-64" d="M72.39,218.86c-4.51-8.5-9.16-16.91-14.21-25.11-1.47-2.39-2.2-5.21-4.17-7.32l.05,0c.31,0,.46-.28.69-.41l.58-.13.4.11c2.82,2.76,4,6.54,6.06,9.79,1.59,2.52,2.94,5.19,4.67,7.63,2.59,3.74,4.48,7.88,6.8,11.77.49.82,1,1.68.41,2.69Z"/><path class="cls-26" d="M141.31,214.22c-3.56-3.45-6.18-7.66-9.31-11.46-5.11-6.21-10-12.6-15-18.92a5.72,5.72,0,0,1-.51-1l1.74,1a1.23,1.23,0,0,1,.53.4h0c.32.33.86.22,1.17.58h0c4.5,3.86,7.49,9,11.17,13.51,3.32,4.09,6.62,8.21,9.75,12.46.63.85,1.48,1.63.84,2.85Z"/><path class="cls-65" d="M73.67,217.9c-2.08-4.41-4.59-8.58-7.06-12.77a14.27,14.27,0,0,1-.68-1.55Q61.75,196.3,57.61,189c-.61-1.09-1-2.32-2.21-3l-.07-.11a1.92,1.92,0,0,1,1.71-.58c.25-.21.46-.19.63.09,2.36,5.22,5.54,10,8.3,15s5.56,9.77,8.3,14.68a7.13,7.13,0,0,1,.45,2Z"/><path class="cls-66" d="M194,121.9h-.59c-3.12-2.41-5-5.87-7.53-8.8a19.25,19.25,0,0,0-2.22-2.72c-5.86-7.1-11.57-14.34-17.19-21.64-.53-.68-1.28-1.21-1.38-2.17l1.13-.62c2-.12,2.48,1.71,3.35,2.8,4.74,6,9.67,11.85,14.11,18.1a17.69,17.69,0,0,0,2.2,2.84,2.53,2.53,0,0,1,.43.68c2,3,4.39,5.8,6.71,8.6C193.73,119.78,195,120.5,194,121.9Z"/><path class="cls-67" d="M85.32,134.3h2.35c2.11.91,3,3,4.32,4.63,4.13,5.27,8.39,10.45,12.33,15.87a12.6,12.6,0,0,1,.07,2.53.74.74,0,0,1-.49.6c-1.33-.09-2-1.11-2.67-2-3.42-4.43-6.85-8.86-10.41-13.19-1.24-1.88-2.75-3.56-4.08-5.37C86.09,136.45,85,135.69,85.32,134.3Z"/><path class="cls-68" d="M57.67,185.42l-.62-.09c1.09-.85,2.36-.54,3.59-.54,2.91,5.35,5.78,10.73,8.76,16.05,2.5,4.48,5.13,8.89,7.71,13.34h0a1.47,1.47,0,0,0-.55.73l-.69.92c-1.54-4.56-4.35-8.45-6.66-12.61-2.87-5.19-5.89-10.3-8.84-15.45C59.74,186.65,59.25,185.42,57.67,185.42Z"/><path class="cls-69" d="M194,121.9c-1.51-3.77-4.79-6.26-6.95-9.56-.47-.71-1.29-1.2-1.28-2.19.66-.35.86.24,1.17.58,2.62,2.55,4.18,6,7.21,8.2a64.48,64.48,0,0,0,8.64,11.92.87.87,0,0,1,.5.48l.09.08c2.58,4.56,6.36,8.21,9.36,12.46,1.6,2.26,3.71,4.17,4.76,6.82-3.72-3.44-6.45-7.72-9.62-11.62-4.22-5.2-8.21-10.59-12.33-15.87A9.36,9.36,0,0,0,194,121.9Z"/><path class="cls-70" d="M250.49,116.7c-2.72-6.09-6.48-11.63-9.58-17.53-2.56-4.88-5.44-9.59-8.18-14.38h0a2.13,2.13,0,0,1,2.93,1.12c5.43,9.56,11.11,19,16.16,28.76a1.09,1.09,0,0,1-.17.84Z"/><path class="cls-62" d="M53.44,220.11c.82-.65.15-1.26-.14-1.77-2.84-5.16-5.72-10.3-8.58-15.45a1.91,1.91,0,0,0-1.61-1.07,4.78,4.78,0,0,1,.54-2.94c2.21,1,2.6,3.25,3.65,5,2.9,5,5.74,9.93,8.61,14.9a3.89,3.89,0,0,1,.57,2.51l-.55-.15c-.37-.35-.9-.25-1.3-.5A1.24,1.24,0,0,1,53.44,220.11Z"/><path class="cls-71" d="M180.52,107.79c.39,1,.78,2,1.18,2.94h-.6c-3.82-3.74-6.6-8.34-10-12.39-2.82-3.3-4.93-7.2-8.32-10l.61-.55a2.08,2.08,0,0,0,.73-.52h0c.8-.28,1.29.21,1.72.74,4.86,6,9.71,12,14.33,18.24C180.48,106.69,180.85,107.16,180.52,107.79Z"/><path class="cls-11" d="M115.29,192.42v-1.18c1.42-.11,2,1.06,2.63,1.93,1.94,2.78,4.22,5.3,6.18,8.06,3.68,4.76,7.37,9.51,11,14.28a7.89,7.89,0,0,1,1.9,3.23l-1.16.72c-2.52-4.51-6.1-8.22-9.14-12.33C123,202.14,119.11,197.31,115.29,192.42Z"/><path class="cls-72" d="M121.16,96.63c-3.21-2.56-5-6.29-7.58-9.36a5.93,5.93,0,0,0-1.82-1.81c-1.8-2.66-3.93-5.08-5.87-7.64h0c-.53-.83-1.23-1.53-1.77-2.35h0c-.7-1.4-2.54-2.15-2.34-4.08l1.77,0a5.84,5.84,0,0,1,2.38,2.06c4.69,6.18,9.36,12.39,14.17,18.48a7.77,7.77,0,0,1,1.33,2.57C121.38,95.24,121.67,96,121.16,96.63Z"/><path class="cls-73" d="M143.55,209.55a1.92,1.92,0,0,1-.59,1.69l-.36-.21c-5.41-7-10.91-14-16.33-21-1-1.23-2.57-2.22-2.16-4.19a3.19,3.19,0,0,1,1.68-.07c4.1,3,6.41,7.49,9.61,11.24,2.58,3,4.86,6.3,7.37,9.39C143.55,207.34,144.12,208.28,143.55,209.55Z"/><path class="cls-74" d="M214.6,135.45q7.83,10,15.68,20a16.32,16.32,0,0,0,1.95,1.75,2.14,2.14,0,0,1-.49,1.81c-1.35.47-2-.58-2.6-1.38-5-6.46-10.11-12.88-15.11-19.36-.6-.78-1.64-1.51-1.19-2.8Z"/><path class="cls-75" d="M232.27,157.18v-2.6c-4.85-6.38-9.49-12.49-14.14-18.59a4.9,4.9,0,0,1,2.93.62c.19.19.4.38.6.56h0a70.24,70.24,0,0,1,10.57,13.53h0c.51.49,0,1.28.56,1.77C232.62,154,233.33,155.7,232.27,157.18Z"/><path class="cls-76" d="M179.93,197.71c5.81,6.77,11,14,16.42,21.12,1.87,2.44,4.2,4.58,5.32,7.56l-1.18.57c-1.64-3.92-4.74-6.84-7.18-10.2-4.47-6.14-9.23-12.06-13.84-18.09a7.29,7.29,0,0,1-.71-1.55C179.42,196.77,179.61,197.37,179.93,197.71Z"/><path class="cls-77" d="M251.63,114.85c-3.77-5.13-6.36-10.95-9.63-16.37-2.37-3.92-4.61-7.93-6.84-11.93-.56-1-1.13-1.82-2.41-1.75.47-.6,1.15-.51,1.78-.56a1.39,1.39,0,0,1,1.28-.11c2.82,3.4,4.48,7.5,6.74,11.24,3.12,5.15,5.9,10.51,8.87,15.75.65,1.14,1.65,2.28.84,3.78v0A.4.4,0,0,1,251.63,114.85Z"/><path class="cls-78" d="M188.16,197.71c4.18,4.36,7.57,9.37,11.16,14.19,2.61,3.49,5.84,6.53,7.68,10.58l-1.19,1.13c-1.41-4.17-4.78-7-7.25-10.44-3.17-4.41-6.6-8.63-9.88-13a5,5,0,0,1-.52-1.33A.78.78,0,0,1,188.16,197.71Z"/><path class="cls-51" d="M180.52,107.79c-5.42-6.9-10.57-14-16.44-20.55l1-.67c3.3,2.4,5.14,6,7.65,9.1,3.87,4.73,7.52,9.64,11.27,14.48a.79.79,0,0,1,0,1.17C182.58,110.43,182.2,108.46,180.52,107.79Z"/><path class="cls-79" d="M121.15,94.29c-6.23-7.34-11.89-15.12-17.6-22.86a2.76,2.76,0,0,1,2.34.48c2.39,1.66,3.64,4.29,5.45,6.44,3.14,3.72,5.84,7.79,9,11.48a5.8,5.8,0,0,1,1.07,2.37C121.38,92.9,121.68,93.65,121.15,94.29Z"/><path class="cls-80" d="M252.26,114.9c-1.66-4.81-4.9-8.77-7.11-13.28-2.88-5.9-6.91-11.16-9.4-17.27.32-.41.74-.35,1.18-.24,2.28,1.73,3,4.48,4.33,6.8,4.19,7.2,8.53,14.33,12.19,21.83l.11.41A2.75,2.75,0,0,1,252.26,114.9Z"/><path class="cls-81" d="M104.12,154.81c-4.39-3.74-7.2-8.78-10.88-13.11-2-2.35-3.72-4.93-5.57-7.4.83,0,1.7-.24,2.36.51,2.66,1.59,4.12,4.31,6,6.62,2.43,3,4.79,6.08,7.13,9.16C104.14,151.88,104.83,153.17,104.12,154.81Z"/><path class="cls-82" d="M92.37,135.42c5.48,1.79,11.34,9.11,11.76,14.68-1.37.46-1.95-.67-2.56-1.43-2.91-3.71-5.82-7.43-8.75-11.12A1.89,1.89,0,0,1,92.37,135.42Z"/><path class="cls-83" d="M212.3,212.48l-.06-1.25a19.84,19.84,0,0,0-2.66-3.89,68,68,0,0,0-4.14-5.71,5.47,5.47,0,0,1-.51-.56,5.27,5.27,0,0,1-.49-.57,3.33,3.33,0,0,1-.25-.28c-.18-.18-.34-.37-.51-.57a5.62,5.62,0,0,1-.43-.65c-1.61-2.4-3.43-4.64-5.13-7-.53-.73-1.5-1.32-1.14-2.48a5.82,5.82,0,0,1,3,1,20.78,20.78,0,0,1,5,5.63c2.51,3.71,5.79,6.86,7.76,10.94C212.76,208.9,213.28,210.75,212.3,212.48Z"/><path class="cls-84" d="M204,136q7.62,9.67,15.25,19.35c2.8,3.58,5.57,7.19,8.35,10.79l-.6.59q-11.34-14.47-22.7-28.94a2.87,2.87,0,0,1-.89-1.79l.29-.22Z"/><path class="cls-85" d="M121.15,94.29V91.93c-2.31-4.66-6-8.34-8.94-12.54-1.51-2.15-4-3.76-4-6.83a6.43,6.43,0,0,1,2.93,1.24A67.63,67.63,0,0,1,120.65,86c1.56,3.82,1,7.82,1,11.78l-.51-1.18C121.16,95.85,121.15,95.07,121.15,94.29Z"/><path class="cls-86" d="M143.55,209.55c-.56-3.41-3.44-5.28-5.29-7.81-3.94-5.39-8.26-10.51-12.43-15.75a.42.42,0,0,1,.69-.07l1.11,0,16.49,21.21C144.07,208,144.27,208.88,143.55,209.55Z"/><path class="cls-87" d="M242.21,84.36l1.78.53c3.19,2.57,4.53,6.35,6.35,9.81,1.41,4.13,4.5,7.4,6,11.51,0,.14,0,.27.07.41l-.1,1.16a.8.8,0,0,1-.79.13c-2.52-1.84-3.21-4.92-4.89-7.33A24.17,24.17,0,0,0,248.75,98c-2.23-3.62-4.26-7.34-6.38-11C241.87,86.15,241.41,85.29,242.21,84.36Z"/><path class="cls-88" d="M108.24,72.56c3.39,5.8,8.24,10.54,11.88,16.17a4.85,4.85,0,0,1,1,3.2q-7-8.88-13.92-17.79a20.57,20.57,0,0,1-1.34-2.23A3.64,3.64,0,0,1,108.24,72.56Z"/><path class="cls-89" d="M192.86,198.29q7.47,9.63,14.95,19.23a10.7,10.7,0,0,0,1.5,1.34.48.48,0,0,1,.18.45c0,.16-.08.24-.13.24a2.62,2.62,0,0,1-1.2,1.68l-.27-.31c-2.42-4.33-5.85-7.92-8.72-11.92-2.42-3.37-5.09-6.56-7.57-9.9-.44-.6-1.22-1.09-.5-2Z"/><path class="cls-90" d="M232.24,150.69a91,91,0,0,1-10.57-13.53C227.78,139.65,231.09,144.32,232.24,150.69Z"/><path class="cls-91" d="M212.84,135.43c5.58,7.21,11.14,14.42,16.75,21.6a16.6,16.6,0,0,0,2.15,1.94c-.07.65,0,1.33-.62,1.8-3.09-2.45-4.9-6-7.37-8.94-3.79-4.54-7.34-9.26-11-13.93-.55-.7-1.4-1.39-1.12-2.52Z"/><path class="cls-92" d="M92.37,135.42a95,95,0,0,0,11.76,14.68c1.07,2.5.44,5.11.52,7.68a.31.31,0,0,1-.51-.05c0-1,0-1.94,0-2.92-.16-3.79-3.39-5.71-5.27-8.42-2.76-4-5.86-7.73-8.82-11.58l1.17,0c.31.35.85.23,1.17.58Z"/><path class="cls-73" d="M212.74,207.09c-3.6-3.44-6.13-7.75-9.21-11.62-1.26-1.59-2.8-3-3.58-4.94a5.13,5.13,0,0,1,3.52,1.78A55.17,55.17,0,0,1,211.73,203,8.21,8.21,0,0,1,212.74,207.09Z"/><path class="cls-93" d="M141.75,213.61c-2-3.8-5.05-6.86-7.6-10.26-4.68-6.22-9.77-12.12-14.16-18.56l1.21.44c3.77,2.51,5.78,6.54,8.59,9.87,3.9,4.64,7.45,9.56,11.22,14.31.69.86,1.69,1.69,1.36,3.06Z"/><path class="cls-94" d="M211.66,135.38l19.46,25.39-.58,1.24c-1.74-3.63-4.62-6.44-7-9.6-4.42-5.92-9.07-11.67-13.62-17.49Z"/><path class="cls-95" d="M183.46,107.21q-7.82-10-15.65-19.95A9.42,9.42,0,0,0,166.26,86l1.23-.56q9,11.24,18,22.48a3.38,3.38,0,0,1,.34,1.1l-.37.15A4.62,4.62,0,0,1,183.46,107.21Z"/><path class="cls-96" d="M192.27,99a154.91,154.91,0,0,1-10.58-13.51C186.77,87.16,191.89,93.69,192.27,99Z"/><path class="cls-97" d="M142.37,212.47q-10.59-13.62-21.17-27.23l1.69.19a5.29,5.29,0,0,1,.58.58c5.91,7.6,11.77,15.23,17.8,22.74a14.63,14.63,0,0,1,1.58,2.45l.11,0C142.76,211.65,142.56,212.06,142.37,212.47Z"/><path class="cls-98" d="M120.65,86a66.08,66.08,0,0,1-9.48-12.23C115.92,76.65,119.54,80.36,120.65,86Z"/><path class="cls-99" d="M242.21,84.36c.81,3.1,2.89,5.56,4.28,8.38.84,1.73,1.85,3.38,2.79,5.06a.76.76,0,0,1,0,1.14c-1.4.38-1.9-.67-2.38-1.59A18.62,18.62,0,0,0,244.67,94c-1.37-2.23-2.63-4.52-4-6.77-.49-.84-1-1.68-.51-2.71l.32-.29Z"/><path class="cls-100" d="M249.86,94.87l-5.87-10a6.58,6.58,0,0,1,3.53,1.73c1.33,1.43,2,3.25,2.87,4.93a16.65,16.65,0,0,0,2,3.87,7.8,7.8,0,0,1,.38.7,16.22,16.22,0,0,0,1.37,2.44,3.1,3.1,0,0,1,.28.79,1.56,1.56,0,0,1-.52,1.53C251.57,99.56,251.24,96.86,249.86,94.87Z"/><path class="cls-101" d="M85.32,134.3c1.82,2.82,4.58,5,5.88,8.16.37.94,1.63,1.39,1.42,2.64l-.25.31c-2.72-2.13-4.41-5.13-6.53-7.76-1-1.21-1.79-2.59-3.52-2.86C83.22,134,84.29,134.3,85.32,134.3Z"/><path class="cls-102" d="M249.86,91.93c-.92-1.71-2.23-3.24-2.34-5.31a3,3,0,0,1,2.36,1.76,55.26,55.26,0,0,1,7,12.36v2.35c-2.42-.34-1.83-2.82-2.91-4.11-.72-.9-1-2-1.77-2.94h0A25,25,0,0,0,249.86,91.93Z"/><path class="cls-103" d="M256.89,100.74a60.57,60.57,0,0,1-7-12.36c3.72,1.85,4.81,5.59,6.33,9A14.36,14.36,0,0,1,256.89,100.74Z"/><path class="cls-104" d="M211.73,203a51.48,51.48,0,0,1-8.26-10.67C207.6,194.8,210.58,198.18,211.73,203Z"/><path class="cls-105" d="M197,189.55c2.55,3.17,5.23,6.24,7.05,9.92-1.1.37-1.24-.69-1.77-1.18l-7.62-9.3Z"/><path class="cls-106" d="M249.27,99V97.8c2.1,1.29,2.57,3.73,3.79,5.61.92,1.41,1.8,2.9,2.67,4.38a.83.83,0,0,1,0,1.2l-.56,1.22c-2.3-1.91-3-4.86-4.6-7.2a33,33,0,0,1-1.34-3.64C249.26,99.24,249.26,99.11,249.27,99Z"/><path class="cls-107" d="M251,102.51a39.43,39.43,0,0,1,4.15,7.7l-.58,1.18c-2.77-.86-2.84-3.68-4.1-5.64-.08-1.67-1.94-2.68-1.67-4.48a1.33,1.33,0,0,1,.44-.65C250.5,100.66,250.33,102,251,102.51Z"/><path class="cls-108" d="M251,105.44c1.3,1.92,1.85,4.29,3.57,6a2.38,2.38,0,0,1-1.05,1.76l-.19-.07c-1.07-3.23-3.87-5.67-4.23-9.22C250.81,103.14,250.43,104.89,251,105.44Z"/><path class="cls-109" d="M111.81,178.18c.17,2.1,2.23,2.95,3.06,4.64.31.65,1,1.12,1,2l-.3.22-.29-.22h0a8.21,8.21,0,0,0-.59-.59h0c-.19-.2-.39-.4-.59-.59h0l-.58-.59h0c-.44-.56-.73-1.21-1.18-1.76h0l-.59-.59h0c-.19-.19-.37-.41-.58-.59,0-.19,0-.39,0-.58-.19-.2-.38-.4-.58-.59h0c-.19-.2-.39-.39-.59-.59h0c-.19-.2-.39-.39-.59-.58h0a.82.82,0,0,1,0-1.18l2,1.12Z"/><path class="cls-110" d="M254,99c1.68.86,1.57,3,2.91,4.11-.12,1.18.44,2.47-.53,3.53h-.07c-.54-2-2.28-3.62-2.31-5.87Z"/><path class="cls-111" d="M77.63,136.56a11.66,11.66,0,0,1,4.16,5.32c-2.3-.95-2.49-4.27-5.27-4.69Z"/><path class="cls-32" d="M101.78,71.39c.39,1.59,2.15,2.39,2.34,4.08-1.71-.89-2.45-2.62-3.51-4.08Z"/><path class="cls-99" d="M236.93,84.3l-1.18,0-1.22-.11a7.73,7.73,0,0,1,6,0l-.09.11a2.57,2.57,0,0,1-1.76.69A2.52,2.52,0,0,1,236.93,84.3Z"/><path class="cls-57" d="M122.94,185.93a2.73,2.73,0,0,0,0-.5c1.23,0,2.51-.37,3.63.49l-.69.07H124.1A.78.78,0,0,1,122.94,185.93Z"/><path class="cls-67" d="M104.14,157.73l.51.05c0,1,0,1.95,0,2.92-.18.26-.35.25-.51,0h0a3.41,3.41,0,0,1-.57-1.24,1.78,1.78,0,0,1,.55-1.69Z"/><path class="cls-62" d="M219.4,104.28c.72.7.44,1.6.46,2.43A3.2,3.2,0,0,1,219.4,104.28Z"/><path class="cls-32" d="M98.25,71.94l-1.82,0a1.94,1.94,0,0,1,1.82-.46Z"/><path class="cls-34" d="M233.35,120.74c.65,0,1.31-.11,1.8.47A2,2,0,0,1,233.35,120.74Z"/><path class="cls-22" d="M81.27,94.88c.61.47.51,1.13.51,1.77A2,2,0,0,1,81.27,94.88Z"/><path class="cls-43" d="M219.83,98.81c.06.68.18,1.37-.41,1.91A2.29,2.29,0,0,1,219.83,98.81Z"/><path class="cls-90" d="M232.8,152.46c-.64-.45-.56-1.12-.56-1.77C232.9,151.13,232.82,151.81,232.8,152.46Z"/><path class="cls-62" d="M43.12,205.36c.6.55.46,1.26.41,1.95A2.42,2.42,0,0,1,43.12,205.36Z"/><path class="cls-46" d="M105.2,166a1.25,1.25,0,0,1-.43-1.27A1.33,1.33,0,0,1,105.2,166Z"/><path class="cls-112" d="M170,84.39c0,.17,0,.34,0,.51l-1.19,0A1.21,1.21,0,0,1,170,84.39Z"/><path class="cls-113" d="M104.13,160.68l.51,0v1.15Z"/><path class="cls-18" d="M68.78,148.24a1.23,1.23,0,0,1-.39,1.26A1.21,1.21,0,0,1,68.78,148.24Z"/><path class="cls-18" d="M157,97.73l-.4,1.22A1.19,1.19,0,0,1,157,97.73Z"/><path class="cls-18" d="M171,120.19a1.27,1.27,0,0,1,1.31.49A1.35,1.35,0,0,1,171,120.19Z"/><path class="cls-94" d="M208.91,134.75l-.78.08-.55-.65Z"/><path class="cls-3" d="M219.32,171.17a1.28,1.28,0,0,1,1.21-.46A1.2,1.2,0,0,1,219.32,171.17Z"/><path class="cls-82" d="M92.37,135.42a1.25,1.25,0,0,1-1.17-.58A1.21,1.21,0,0,1,92.37,135.42Z"/><path class="cls-114" d="M193.32,115.43a1.16,1.16,0,0,1-.41-1.21A1.13,1.13,0,0,1,193.32,115.43Z"/><path class="cls-15" d="M62.44,184.75l-1.28,0A.75.75,0,0,1,62.44,184.75Z"/><path class="cls-93" d="M120,184.79a1.3,1.3,0,0,1-1.17-.58Z"/><path class="cls-52" d="M131.15,186.55,130,186A1.15,1.15,0,0,1,131.15,186.55Z"/><path class="cls-2" d="M106,188.9a1.35,1.35,0,0,1,.45,1.38A1.51,1.51,0,0,1,106,188.9Z"/><path class="cls-22" d="M92.92,109a1.33,1.33,0,0,1,1.2.51A1.19,1.19,0,0,1,92.92,109Z"/><path class="cls-115" d="M255.75,109v-1.2h.52A1.22,1.22,0,0,1,255.75,109Z"/><path class="cls-9" d="M124.15,108.37a1.17,1.17,0,0,1-.62-1.18Z"/><path class="cls-116" d="M91.78,74.3l-1.27,0,1.19-.68.11.19a.32.32,0,0,1,.11.36C91.87,74.24,91.83,74.3,91.78,74.3Z"/><path class="cls-38" d="M203.33,131.33l-.5-.48Z"/><path class="cls-90" d="M221.66,137.17l-.6-.56Z"/><path class="cls-111" d="M76.5,137.77l-.68-.06.69-.52C76.51,137.38,76.5,137.58,76.5,137.77Z"/><path class="cls-10" d="M74.73,139l-.53,0,.61-.53,0,0A.37.37,0,0,1,74.73,139Z"/><path class="cls-3" d="M184.45,126.07l.76.57Z"/><path class="cls-3" d="M183.44,125.43l.58.43Z"/><path class="cls-3" d="M182.58,124.91l.87.53Z"/><path class="cls-18" d="M172.67,120.79l.77.38Z"/><path class="cls-47" d="M247.52,118.89l.64-.48Z"/><path class="cls-62" d="M228,118.41l.67.45Z"/><path class="cls-38" d="M228.19,165.55l.56-.73Z"/><path class="cls-9" d="M131.74,118.37l-.56-.64Z"/><path class="cls-17" d="M224.61,168.78l.56-.46Z"/><path class="cls-9" d="M131.21,117.77l-.59-.78Z"/><path class="cls-35" d="M88.82,75.42l-.77.57Z"/><path class="cls-18" d="M85,171.34l.85.39Z"/><path class="cls-6" d="M88.15,172.47l.66.37Z"/><path class="cls-6" d="M89.81,173.09l.78.41Z"/><path class="cls-6" d="M91.09,173.65l.67.4Z"/><path class="cls-14" d="M86.53,77.39a.93.93,0,0,1-.41.4Z"/><path class="cls-9" d="M130.4,116.57l-.43-.5Z"/><path class="cls-9" d="M129.94,116l-.53-.64Z"/><path class="cls-2" d="M95.69,176l.78.55Z"/><path class="cls-80" d="M251.63,114.85l.62,0-.58.64C251.66,115.3,251.64,115.07,251.63,114.85Z"/><path class="cls-70" d="M231.66,85c0,.16,0,.33,0,.49l-.71-.1Z"/><path class="cls-9" d="M129.44,115.42l-.59-.74Z"/><path class="cls-93" d="M118.8,184.2l-.53-.4Z"/><path class="cls-51" d="M164.07,87.24l-.73.52Z"/><path class="cls-9" d="M128.59,114.21l-.39-.44Z"/><path class="cls-3" d="M159.26,92.35l-.5.75Z"/><path class="cls-9" d="M128.14,113.69l-.5-.63Z"/><path class="cls-31" d="M222.17,92.89l-.49.81Z"/><path class="cls-9" d="M127.65,113.08l-.58-.65Z"/><path class="cls-117" d="M54.75,186l-.69.41Z"/><path class="cls-9" d="M127.11,112.47l-.6-.8Z"/><path class="cls-114" d="M192.76,111.3l-.49-.57a4.36,4.36,0,0,1,.51,0A1.1,1.1,0,0,1,192.76,111.3Z"/><path class="cls-26" d="M185.8,186.55c0-.16,0-.32,0-.49l.69.44Z"/><path class="cls-9" d="M126.33,111.29l-.47-.54Z"/><path class="cls-6" d="M98.61,110.8l.78.36Z"/><path class="cls-26" d="M187.69,187.08l-.69-.43Z"/><path class="cls-9" d="M125.85,110.74l-.55-.65Z"/><path class="cls-9" d="M125.33,110.13l-.58-.8Z"/><path class="cls-34" d="M221,95.17l-.41.86Z"/><path class="cls-9" d="M124.58,108.94l-.46-.6Z"/><path class="cls-40" d="M47.68,191.17l-.57.65Z"/><path class="cls-40" d="M47.11,191.81c-.15.2-.31.39-.47.59C46.8,192.2,47,192,47.11,191.81Z"/><path class="cls-39" d="M45.93,193.55l-.44.61Z"/><path class="cls-34" d="M44.73,195.82l-.39.69Z"/><path class="cls-15" d="M77.77,213.11l.49-.72Z"/><path class="cls-25" d="M76.56,214.9c.18-.24.36-.49.55-.73C76.92,214.41,76.74,214.66,76.56,214.9Z"/><path class="cls-14" d="M179.93,197.71l-1.17-.59q-6-7.68-12-15.36a3.39,3.39,0,0,1-.33-1.09.79.79,0,0,1,0-1.18c4.33,5.62,8.68,11.24,13,16.88A5.26,5.26,0,0,1,179.93,197.71Z"/><path class="cls-14" d="M152.9,163a2.78,2.78,0,0,1-1.76-2.35l.36-.14c.71.18,1,.82,1.4,1.32h0a.93.93,0,0,1,.25.94Z"/><path class="cls-14" d="M166.42,179.49v1.18a2.81,2.81,0,0,1-1.77-2.36l.3-.23.29.23h0a29357347553081.84,29357347553081.84,0,0,1,1.18,1.18Z"/><path class="cls-14" d="M158.78,170.67a2.79,2.79,0,0,1-1.77-2.35l.37-.15c.71.19,1,.83,1.4,1.33h0a.91.91,0,0,1,.24.94Z"/><path class="cls-14" d="M160.54,173a2.78,2.78,0,0,1-1.76-2.35c1.1-.37,1.23.7,1.76,1.18h0a.94.94,0,0,1,.25.94Z"/><path class="cls-14" d="M147,155.4a2.82,2.82,0,0,1-1.76-2.36l.39-.14c.9.46,1.65,1,1.64,2.17Z"/><path class="cls-14" d="M139.38,145.4a2.79,2.79,0,0,1-1.76-2.35c1.38,0,1.87.84,2,2Z"/><path class="cls-14" d="M164.06,177.73a1.82,1.82,0,0,1-1.17-1.77l.29-.22.3.22c.18.22.39.39.58.59a1,1,0,0,1,.25.94Z"/><path class="cls-14" d="M141.15,147.76A1.82,1.82,0,0,1,140,146l.39-.14a1.47,1.47,0,0,1,1,1.59A4,4,0,0,0,141.15,147.76Z"/><path class="cls-14" d="M142.91,150.11a1.83,1.83,0,0,1-1.18-1.77l.39-.14a1.47,1.47,0,0,1,1,1.59Z"/><path class="cls-14" d="M148.79,157.75a1.82,1.82,0,0,1-1.18-1.77l.39-.14a1.47,1.47,0,0,1,1.05,1.59A4,4,0,0,0,148.79,157.75Z"/><path class="cls-14" d="M150.55,160.1a1.83,1.83,0,0,1-1.18-1.77l.39-.14a1.47,1.47,0,0,1,1.05,1.59C150.72,159.88,150.64,160,150.55,160.1Z"/><path class="cls-14" d="M154.66,165.39a1.82,1.82,0,0,1-1.17-1.77l.39-.14a1.49,1.49,0,0,1,1.05,1.59Z"/><path class="cls-14" d="M156.43,167.74a1.82,1.82,0,0,1-1.18-1.77l.39-.14a1.47,1.47,0,0,1,1.05,1.59A4,4,0,0,0,156.43,167.74Z"/><path class="cls-14" d="M162.3,175.38a1.82,1.82,0,0,1-1.17-1.77l.38-.14a1.49,1.49,0,0,1,1.06,1.59Z"/><path class="cls-14" d="M145.26,153l-1.18-1.17.26-.24a.76.76,0,0,1,.92.24h0A.79.79,0,0,1,145.26,153Z"/><path class="cls-14" d="M144.08,151.87a1.25,1.25,0,0,1-.58-1.18l.38-.11c.61.34.66.78.21,1.29Z"/><path class="cls-14" d="M140,146l-.59-.59c.57-.17.75,0,.59.59Z"/><path class="cls-14" d="M141.73,148.34l-.58-.58c.56-.18.74,0,.58.58Z"/><path class="cls-14" d="M143.5,150.69l-.59-.58h0C143.47,149.93,143.65,150.15,143.5,150.69Z"/><path class="cls-14" d="M147.61,156l-.59-.58c.57-.18.75,0,.59.58Z"/><path class="cls-14" d="M149.37,158.33l-.58-.58c.56-.18.74,0,.58.58Z"/><path class="cls-14" d="M151.14,160.68l-.59-.58C151.11,159.92,151.29,160.14,151.14,160.68Z"/><path class="cls-14" d="M153.49,163.62l-.59-.59c.56-.17.74,0,.59.59Z"/><path class="cls-14" d="M155.25,166l-.59-.58c.57-.18.75,0,.59.58Z"/><path class="cls-14" d="M157,168.32l-.58-.58c.56-.18.74,0,.58.58Z"/><path class="cls-14" d="M161.13,173.61l-.59-.59c.56-.17.74,0,.59.59Z"/><path class="cls-14" d="M162.89,176l-.59-.58c.55-.16.79,0,.59.58Z"/><path class="cls-14" d="M164.65,178.31l-.59-.58h0c.19-.28.39-.28.58,0a.35.35,0,0,1,.14.39c0,.13-.09.19-.14.19Z"/><path class="cls-118" d="M91.78,74.3c0-.18,0-.36,0-.53,2.37.21,3,2.49,4.06,3.9,9.93,12.74,19.64,25.64,29.47,38.46q19,24.78,38.08,49.52c2,2.63,4,5.31,5.93,8,.31,1.32,2.77,1.56,1.77,3.53-3.22-2.56-5-6.33-7.62-9.35-1.39-1.58-2.35-3.52-4.14-4.76-.64-1.09-1.69-1.86-2.35-2.93q-6-8-12.17-16a3.42,3.42,0,0,1-.67-.88,6.21,6.21,0,0,0-.34-.61,5,5,0,0,0-.41-.53,4.91,4.91,0,0,1-.4-.53,6.6,6.6,0,0,0-.59-.8l-.38-.53a4,4,0,0,0-.41-.51,5,5,0,0,1-.39-.52,6.41,6.41,0,0,0-.58-.79c-.13-.17-.25-.35-.38-.53a4.72,4.72,0,0,0-.41-.5,4.82,4.82,0,0,1-.38-.51,4.41,4.41,0,0,0-.59-.76c-.15-.14-.3-.3-.44-.45a3.77,3.77,0,0,1-.37-.52l-.18-.26-.42-.48a6.28,6.28,0,0,1-.38-.52,8.5,8.5,0,0,0-.57-.77c-.13-.18-.26-.35-.38-.53a6.4,6.4,0,0,0-.41-.5,5.17,5.17,0,0,1-.39-.53,7.48,7.48,0,0,0-.59-.8l-.39-.55c-.14-.19-.29-.36-.45-.54a3.37,3.37,0,0,1-.36-.61,4.27,4.27,0,0,0-.66-1.27c-.19-.2-.39-.4-.59-.59-.43-.56-.73-1.21-1.17-1.77h0l-.59-.58c-.19-.2-.39-.4-.59-.59h0c-.43-.56-.73-1.21-1.17-1.76l-.59-.59h0c-.43-.56-.73-1.21-1.18-1.76-.19-.2-.39-.4-.59-.59-.43-.56-.72-1.21-1.17-1.76h0c-.19-.2-.39-.4-.59-.59-.43-.56-.73-1.21-1.17-1.77h0l-.59-.58c-.19-.2-.39-.4-.59-.59h0c-.43-.56-.73-1.21-1.17-1.76-.53-.84-1.23-1.54-1.77-2.35l-.58-.59c-.44-.56-.73-1.21-1.18-1.76h0c-.19-.2-.39-.4-.59-.59-.43-.56-.73-1.21-1.17-1.77h0l-.59-.58c-.19-.2-.39-.4-.59-.59h0c-.43-.56-.73-1.21-1.17-1.76-.2-.2-.39-.4-.59-.59-.43-.56-.73-1.21-1.18-1.76-.19-.2-.38-.4-.58-.59-.44-.56-.73-1.21-1.18-1.76h0l-.59-.58c-.52-.83-1.22-1.53-1.76-2.35-.19-.2-.39-.4-.59-.59h0c-.43-.56-.73-1.21-1.17-1.76-.2-.2-.39-.4-.59-.59-.43-.56-.73-1.21-1.18-1.76-.19-.2-.38-.4-.58-.59-.44-.56-.73-1.21-1.18-1.77h0c-.19-.2-.39-.39-.59-.58s-.38-.4-.58-.59h0c-.2-.2-.39-.4-.59-.59h0c-.34-.32-.23-.86-.59-1.17-.19-.2-.39-.4-.59-.59h0c-.43-.56-.73-1.21-1.17-1.76-.19-.2-.39-.4-.59-.59-.43-.56-.73-1.21-1.18-1.76-.19-.2-.38-.4-.58-.59-.43-.56-.73-1.21-1.18-1.77h0c-.19-.2-.39-.39-.59-.58s-.38-.4-.58-.59h0c-.44-.56-.73-1.21-1.18-1.76A5.48,5.48,0,0,0,91.78,74.3Z"/><path class="cls-111" d="M176.41,180.08,172.88,176l-.35-.05a2.38,2.38,0,0,1-.6-.39l-.23-.27a1.63,1.63,0,0,1-.26-.66,1.4,1.4,0,0,0-.32-1l-.59-.59-.59-.58c-.34-.32-.23-.87-.59-1.18l-.58-.59-.59-.58c-.43-.56-.73-1.21-1.18-1.77-.19-.2-.38-.39-.58-.58l-.59-.59h0c-.34-.32-.23-.87-.59-1.18-.19-.2-.39-.39-.59-.58l-.58-.59h0c-.35-.32-.24-.87-.59-1.18l-.59-.59-.59-.58c-.43-.56-.73-1.21-1.17-1.77l-.59-.58c-.43-.57-.73-1.22-1.18-1.77l-.58-.58-.59-.59h0c-.34-.32-.23-.87-.59-1.18a8.07,8.07,0,0,0-.59-.58q-7.63-10-15.28-20c-.28-.55-.94-1-.58-1.76v-.59c2.73,1.86,4.23,4.8,6.17,7.3,9.29,11.94,18.37,24,27.52,36.1.58.77,1,1.62,1.57,2.44A.8.8,0,0,1,176.41,180.08Z"/><path class="cls-78" d="M171.12,177.14c.07-1.51-1.84-2-1.77-3.53l1.77,1.18.31.11a3,3,0,0,1,.49.46c.11.2.22.4.32.6a3.87,3.87,0,0,0,.64,1.18c2.49,3.56,5.46,6.79,7.64,10.58a.88.88,0,0,1,.25.93l-.25.24c-1.72-.9-2.48-2.63-3.53-4.11C175,182.27,173.15,179.63,171.12,177.14Z"/><path class="cls-119" d="M141.15,133.65c.19.59.39,1.18.58,1.76a1.8,1.8,0,0,1-1.17-1.76Z"/><path class="cls-51" d="M159.36,158.33a1.81,1.81,0,0,1,1.18,1.77A1.83,1.83,0,0,1,159.36,158.33Z"/><path class="cls-51" d="M161.13,160.68a1.82,1.82,0,0,1,1.17,1.77A1.81,1.81,0,0,1,161.13,160.68Z"/><path class="cls-51" d="M167,168.32a1.81,1.81,0,0,1,1.18,1.77A1.82,1.82,0,0,1,167,168.32Z"/><path class="cls-119" d="M117.64,103.68a1.26,1.26,0,0,1,.59,1.18A1.28,1.28,0,0,1,117.64,103.68Z"/><path class="cls-119" d="M131.16,121.31a1.25,1.25,0,0,1,.58,1.18A1.27,1.27,0,0,1,131.16,121.31Z"/><path class="cls-119" d="M134.68,126a1.27,1.27,0,0,1,.59,1.18A1.27,1.27,0,0,1,134.68,126Z"/><path class="cls-51" d="M163.48,163.62a1.29,1.29,0,0,1,.59,1.18A1.25,1.25,0,0,1,163.48,163.62Z"/><path class="cls-51" d="M165.24,166a1.27,1.27,0,0,1,.59,1.18A1.27,1.27,0,0,1,165.24,166Z"/><path class="cls-51" d="M157.6,156a1.27,1.27,0,0,1,.59,1.18A1.27,1.27,0,0,1,157.6,156Z"/><path class="cls-119" d="M128.81,118.37a1.26,1.26,0,0,1,.58,1.18A1.26,1.26,0,0,1,128.81,118.37Z"/><path class="cls-119" d="M137,129a1.26,1.26,0,0,1,.59,1.18A1.28,1.28,0,0,1,137,129Z"/><path class="cls-119" d="M132.92,123.66a1.28,1.28,0,0,1,.59,1.18A1.25,1.25,0,0,1,132.92,123.66Z"/><path class="cls-119" d="M115.88,101.33a1.25,1.25,0,0,1,.58,1.18A1.27,1.27,0,0,1,115.88,101.33Z"/><path class="cls-119" d="M138.8,131.3a1.25,1.25,0,0,1,.58,1.18A1.27,1.27,0,0,1,138.8,131.3Z"/><path class="cls-51" d="M169.35,171.26a1.25,1.25,0,0,1,.59,1.18A1.29,1.29,0,0,1,169.35,171.26Z"/><path class="cls-119" d="M127,116a1.27,1.27,0,0,1,.59,1.18A1.27,1.27,0,0,1,127,116Z"/><path class="cls-51" d="M171.12,173.61a1.29,1.29,0,0,1,.59,1.18l-.3.23-.29-.23Z"/><path class="cls-119" d="M125.28,113.67a1.26,1.26,0,0,1,.59,1.18A1.26,1.26,0,0,1,125.28,113.67Z"/><path class="cls-119" d="M123.52,111.32a1.25,1.25,0,0,1,.58,1.18A1.27,1.27,0,0,1,123.52,111.32Z"/><path class="cls-119" d="M121.17,108.38a1.26,1.26,0,0,1,.58,1.18A1.26,1.26,0,0,1,121.17,108.38Z"/><path class="cls-119" d="M119.4,106a1.25,1.25,0,0,1,.59,1.18A1.27,1.27,0,0,1,119.4,106Z"/><path class="cls-119" d="M116.46,102.51l.59.58Z"/><path class="cls-119" d="M117.05,103.09l.59.59Z"/><path class="cls-119" d="M138.21,130.71l.59.59Z"/><path class="cls-119" d="M140,133.06l.59.59Z"/><path class="cls-119" d="M137.62,130.13l.59.58Z"/><path class="cls-119" d="M136.44,128.36l.59.59Z"/><path class="cls-119" d="M135.86,127.78l.58.58Z"/><path class="cls-119" d="M135.27,127.19l.59.59Z"/><path class="cls-119" d="M134.09,125.42l.59.59Z"/><path class="cls-119" d="M133.51,124.84l.58.58Z"/><path class="cls-119" d="M132.33,123.07l.59.59Z"/><path class="cls-119" d="M131.74,122.49l.59.58Z"/><path class="cls-119" d="M139.38,132.48l.59.58Z"/><path class="cls-119" d="M130.57,120.72l.59.59Z"/><path class="cls-119" d="M130,120.14l.59.58Z"/><path class="cls-51" d="M157,155.4l.59.58Z"/><path class="cls-51" d="M158.19,157.16l.59.59Z"/><path class="cls-119" d="M129.39,119.55l.59.59Z"/><path class="cls-51" d="M158.78,157.75l.58.58Z"/><path class="cls-51" d="M160.54,160.1l.59.58Z"/><path class="cls-51" d="M162.3,162.45l.59.58Z"/><path class="cls-51" d="M162.89,163l.59.59Z"/><path class="cls-51" d="M164.07,164.8l.58.59Z"/><path class="cls-51" d="M164.65,165.39l.59.58Z"/><path class="cls-51" d="M165.83,167.15l.59.59Z"/><path class="cls-51" d="M166.42,167.74l.58.58Z"/><path class="cls-119" d="M128.22,117.79l.59.58Z"/><path class="cls-51" d="M168.18,170.09l.59.58Z"/><path class="cls-119" d="M127.63,117.2l.59.59Z"/><path class="cls-51" d="M168.77,170.67l.58.59Z"/><path class="cls-51" d="M169.94,172.44l.59.58Z"/><path class="cls-51" d="M170.53,173l.59.59Z"/><path class="cls-119" d="M126.45,115.43l.59.59Z"/><path class="cls-119" d="M125.87,114.85l.58.58Z"/><path class="cls-119" d="M124.69,113.08l.59.59Z"/><path class="cls-119" d="M124.1,112.5l.59.58Z"/><path class="cls-119" d="M122.93,110.73l.59.59Z"/><path class="cls-119" d="M122.34,110.15l.59.58Z"/><path class="cls-119" d="M121.75,109.56l.59.59Z"/><path class="cls-119" d="M120,107.21l.59.58Z"/><path class="cls-119" d="M118.82,105.44l.58.59Z"/><path class="cls-119" d="M118.23,104.86l.59.58Z"/><path class="cls-119" d="M115.29,100.74l.59.59Z"/><path class="cls-119" d="M120.58,107.79l.59.59Z"/><path class="cls-109" d="M115.88,184.78a59.76,59.76,0,0,1,10,12.93c-4-3.33-6.37-8.08-10-11.76a.78.78,0,0,1,0-1.17Z"/><path class="cls-111" d="M85.91,147.17c3.56,2.9,5.62,7.06,8.69,10.38a26.61,26.61,0,0,1,1.88,2.55c.19.13.25.26.19.39s-.13.19-.19.19A69.43,69.43,0,0,1,85.91,147.17Z"/><path class="cls-111" d="M81.79,141.88a11.74,11.74,0,0,1,4.12,5.29A9.89,9.89,0,0,1,81.79,141.88Z"/><path class="cls-109" d="M96.48,160.68v-.58c1.1.73,2.2,1.45,2.36,2.93a.79.79,0,0,1-1.18,0v-.58c-.21-.19-.38-.4-.59-.59h0c-.2-.19-.37-.41-.58-.59C96.48,161.08,96.48,160.88,96.48,160.68Z"/><path class="cls-111" d="M112.35,181.25a1.83,1.83,0,0,1,1.18,1.76A1.79,1.79,0,0,1,112.35,181.25Z"/><path class="cls-111" d="M103,169.5a1.82,1.82,0,0,1-1.18-1.76l.35-.15a1.79,1.79,0,0,1,.83.73h0a.94.94,0,0,1,.25.94Z"/><path class="cls-111" d="M97.66,163h1.18a1,1,0,0,1,.24.94l-.25.24Z"/><path class="cls-111" d="M101.19,167.15a1.24,1.24,0,0,1-.59-1.18l.29-.23.3.23a.94.94,0,0,1,.24.94Z"/><path class="cls-111" d="M107.06,174.79a1.29,1.29,0,0,1-.59-1.18l.3-.22.29.22a.94.94,0,0,1,.25.94Z"/><path class="cls-111" d="M109.41,176.55v1.18a1.3,1.3,0,0,1-.59-1.18l.3-.22Z"/><path class="cls-111" d="M115.88,184.78V186a1.24,1.24,0,0,1-.59-1.17Z"/><path class="cls-111" d="M105.3,172.44a1.27,1.27,0,0,1-.59-1.18L105,171l.3.22h0a.94.94,0,0,1,.25.94Z"/><path class="cls-111" d="M96.49,161.27l.58.59Z"/><path class="cls-111" d="M97.07,161.86l.59.59Z"/><path class="cls-111" d="M99.42,164.8l-.59-.59h0a.49.49,0,0,1,.67.19Z"/><path class="cls-111" d="M100,165.39l-.59-.59h0a.53.53,0,0,1,.7.19Z"/><path class="cls-111" d="M100.6,166l-.59-.58h0c.2-.28.39-.29.59,0h0a.39.39,0,0,1,.14.4c0,.13-.1.19-.14.19Z"/><path class="cls-111" d="M101.77,167.74l-.58-.59h0c.56-.17.74,0,.58.59Z"/><path class="cls-111" d="M103.54,170.09l-.59-.59h0a.49.49,0,0,1,.67.19Z"/><path class="cls-111" d="M104.12,170.67l-.58-.58h0a.49.49,0,0,1,.67.19Z"/><path class="cls-111" d="M104.71,171.26l-.59-.59h0c.55-.15.8,0,.59.59Z"/><path class="cls-111" d="M105.89,173l-.59-.59h0a.5.5,0,0,1,.68.19Z"/><path class="cls-111" d="M106.47,173.61l-.58-.58h0c.54-.15.79,0,.58.59Z"/><path class="cls-111" d="M107.65,175.38l-.59-.59h0a.5.5,0,0,1,.68.19Z"/><path class="cls-111" d="M108.24,176l-.59-.58h0a.52.52,0,0,1,.68.2Z"/><path class="cls-111" d="M108.82,176.55l-.58-.59h0c.54-.15.79,0,.59.59Z"/><path class="cls-111" d="M109.41,177.73l.59.58Z"/><path class="cls-111" d="M110,178.31l.59.59Z"/><path class="cls-111" d="M110.59,178.9l.58.59Z"/><path class="cls-111" d="M111.18,180.07l.58.59Z"/><path class="cls-111" d="M111.76,180.66l.59.59Z"/><path class="cls-111" d="M113.53,183l.58.59Z"/><path class="cls-111" d="M114.11,183.6l.59.59Z"/><path class="cls-111" d="M114.7,184.19l.59.59Z"/><path class="cls-120" d="M176.41,180.08V178.9c3.92,3.53,6.44,8.18,9.85,12.13,1.51,1.75,2.84,3.66,4.25,5.5a5.48,5.48,0,0,0,.59.59c2.24,4.33,5.75,7.75,8.53,11.71,2.39,3.41,5,6.67,7.59,10a2.87,2.87,0,0,1,.86,2.36,2.39,2.39,0,0,1-.53.06c-3.82-6-8.45-11.42-12.71-17.1-5.13-6.86-10.33-13.67-15.5-20.51-.2-.18-.38-.4-.58-.59l-.59-.58c-.34-.32-.23-.87-.59-1.18l-.59-.59A7.93,7.93,0,0,0,176.41,180.08Z"/><path class="cls-89" d="M191.1,197.12l-.59-.59Z"/><path class="cls-121" d="M74.73,139a2.1,2.1,0,0,1,.11-.51c3.45,2.07,5.23,5.66,7.62,8.64,9.06,11.33,17.89,22.85,26.81,34.3q7.08,9.12,14.14,18.25a6.93,6.93,0,0,1,.69,1.57c-2.69-2-4.29-5-6.37-7.53a9.07,9.07,0,0,0-2.44-2.46h0a6.57,6.57,0,0,0-.59-.59c-2.44-4.45-5.93-8.14-9-12.13-9.59-12.52-19.36-24.9-29.07-37.33C76,140.43,75.37,139.71,74.73,139Z"/><path class="cls-35" d="M165.24,173.61h-.59c-4.45-4.47-7.79-9.83-11.75-14.7-3.16-3.89-5.82-8.19-9.4-11.74-2.22-4.36-5.69-7.82-8.52-11.73a3.12,3.12,0,0,1-.89-1.79l.35-.14a1.74,1.74,0,0,1,.83.73h0l.59.59c.18.2.4.38.58.58q14.15,18.43,28.28,36.87A5,5,0,0,1,165.24,173.61Z"/><path class="cls-14" d="M143.5,150.69l-.59-.58a1.81,1.81,0,0,0-1.18-1.77l-.58-.58A1.82,1.82,0,0,0,140,146l-.59-.59a2.8,2.8,0,0,0-1.76-2.35v-1.17c1.94.8,2.28,3.21,4.11,4.11.53,2.35,3,3.53,3.53,5.88h-1.17A1.3,1.3,0,0,0,143.5,150.69Z"/><path class="cls-35" d="M126.45,123.66a2.81,2.81,0,0,1,1.77,2.35A2.83,2.83,0,0,1,126.45,123.66Z"/><path class="cls-122" d="M110.59,103.09a2.8,2.8,0,0,1,1.76,2.35A2.78,2.78,0,0,1,110.59,103.09Z"/><path class="cls-35" d="M134.09,133.65a2.82,2.82,0,0,1-1.76-2.35l.35-.14c.39.11.59.44.83.73l.58.59a.78.78,0,0,1,0,1.17Z"/><path class="cls-122" d="M108.82,100.74a2.81,2.81,0,0,1,1.77,2.35A2.8,2.8,0,0,1,108.82,100.74Z"/><path class="cls-35" d="M128.22,126a2.8,2.8,0,0,1,1.76,2.35A2.8,2.8,0,0,1,128.22,126Z"/><path class="cls-35" d="M122.34,118.37a2.8,2.8,0,0,1,1.76,2.35A2.79,2.79,0,0,1,122.34,118.37Z"/><path class="cls-122" d="M116.46,110.73a2.81,2.81,0,0,1,1.77,2.35A2.8,2.8,0,0,1,116.46,110.73Z"/><path class="cls-35" d="M124.69,121.31a2.8,2.8,0,0,1,1.76,2.35A2.82,2.82,0,0,1,124.69,121.31Z"/><path class="cls-122" d="M114.7,108.38a1.82,1.82,0,0,1,1.18,1.77A1.82,1.82,0,0,1,114.7,108.38Z"/><path class="cls-122" d="M118.81,113.67a1.8,1.8,0,0,1,1.18,1.76A1.82,1.82,0,0,1,118.81,113.67Z"/><path class="cls-122" d="M120,115.43l1.18,1.18q.27.19.18.39c-.06.13-.12.2-.18.2A1.81,1.81,0,0,1,120,115.43Z"/><path class="cls-35" d="M121.17,117.2v-.59a1.8,1.8,0,0,1,1.17,1.76Z"/><path class="cls-122" d="M103,93.1a1.81,1.81,0,0,1,1.17,1.77A1.81,1.81,0,0,1,103,93.1Z"/><path class="cls-35" d="M130.57,129l1.17.59a.94.94,0,0,1,.25.94l-.25.23A1.8,1.8,0,0,1,130.57,129Z"/><path class="cls-122" d="M112.94,106a1.81,1.81,0,0,1,1.17,1.76A1.8,1.8,0,0,1,112.94,106Z"/><path class="cls-122" d="M105.3,96a1.81,1.81,0,0,1,1.17,1.76A1.8,1.8,0,0,1,105.3,96Z"/><path class="cls-122" d="M107.06,98.39a1.82,1.82,0,0,1,1.18,1.77A1.83,1.83,0,0,1,107.06,98.39Z"/><path class="cls-35" d="M132.33,131.3l-.59-.59h0c.57-.17.75,0,.59.59Z"/><path class="cls-35" d="M130,128.36l.59.59Z"/><path class="cls-35" d="M124.1,120.72l.59.59Z"/><path class="cls-122" d="M118.23,113.08l.58.59Z"/><path class="cls-122" d="M104.12,94.87l.59.58Z"/><path class="cls-122" d="M104.71,95.45l.59.59Z"/><path class="cls-122" d="M115.88,110.15l.58.58Z"/><path class="cls-122" d="M106.47,97.8l.59.59Z"/><path class="cls-122" d="M114.11,107.79l.59.59Z"/><path class="cls-122" d="M112.35,105.44l.59.59Z"/><path class="cls-122" d="M108.24,100.16l.58.58Z"/><path class="cls-123" d="M197,133.65a10.28,10.28,0,0,1,3.53,4.7A8.38,8.38,0,0,1,197,133.65Z"/><path class="cls-123" d="M194.62,130.71a2.81,2.81,0,0,1,1.77,2.35A2.79,2.79,0,0,1,194.62,130.71Z"/><path class="cls-123" d="M192.86,128.36a2.8,2.8,0,0,1,1.76,2.35A2.81,2.81,0,0,1,192.86,128.36Z"/><path class="cls-123" d="M202.26,139.53l.59,1.76a2.8,2.8,0,0,1-1.76-2.35Z"/><path class="cls-123" d="M200.5,138.35l.59.59Z"/><path class="cls-123" d="M196.39,133.06l.58.59Z"/><path class="cls-29" d="M144.67,143.64A122.88,122.88,0,0,1,157,160.1c-3.66-3.39-6.14-7.74-9.27-11.55-1.3-1.58-2.44-3.27-3.66-4.91l.3-.22Z"/><path class="cls-29" d="M157,160.1c1.1.73,2.2,1.45,2.35,2.93C158.27,162.3,157.17,161.58,157,160.1Z"/><path class="cls-35" d="M132.33,131.3l-.59-.59v-1.17a2.81,2.81,0,0,1,1.77,2.35Z"/><path class="cls-35" d="M134.09,133.65v-1.17a1.79,1.79,0,0,1,1.18,1.76Z"/><path class="cls-29" d="M138.8,136.59a1.79,1.79,0,0,1-1.18-1.76l.29-.23.3.23a8.07,8.07,0,0,0,.59.58.94.94,0,0,1,.24.94Z"/><path class="cls-29" d="M144.08,143.64a1.25,1.25,0,0,1-.58-1.17l.29-.23.29.23a.79.79,0,0,1,0,1.17Z"/><path class="cls-29" d="M140.56,138.94a1.26,1.26,0,0,1-.59-1.17l.29-.23.3.23a.92.92,0,0,1,.25.93Z"/><path class="cls-29" d="M134.68,131.3a1.28,1.28,0,0,1-.59-1.17l.3-.23.29.23a.92.92,0,0,1,.25.93Z"/><path class="cls-29" d="M142.32,141.29a1.28,1.28,0,0,1-.59-1.17l.3-.23.29.23a.92.92,0,0,1,.25.93Z"/><path class="cls-29" d="M136.44,133.65a1.25,1.25,0,0,1-.58-1.17l.29-.23.29.23a.92.92,0,0,1,.25.93Z"/><path class="cls-29" d="M134.09,130.13l-.58-.59.29-.23.29.23a.35.35,0,0,1,.14.39c0,.13-.09.2-.14.2Z"/><path class="cls-29" d="M133.51,129.54l-.59-.59h0C133.47,128.79,133.71,129,133.51,129.54Z"/><path class="cls-29" d="M139.38,137.18l-.58-.59a.52.52,0,0,1,.69.19Z"/><path class="cls-29" d="M140,137.77l-.59-.59c.2-.28.4-.28.59,0a.37.37,0,0,1,.14.39c-.05.13-.09.2-.14.2Z"/><path class="cls-29" d="M137,134.24l-.59-.59h0a.52.52,0,0,1,.69.19Z"/><path class="cls-29" d="M141.15,139.53l-.59-.59h0a.51.51,0,0,1,.69.19Z"/><path class="cls-29" d="M141.73,140.12l-.58-.59c.19-.28.39-.28.58,0a.35.35,0,0,1,.14.39c0,.13-.09.2-.14.2Z"/><path class="cls-29" d="M142.91,141.88l-.59-.59h0a.52.52,0,0,1,.7.19Z"/><path class="cls-29" d="M143.5,142.47l-.59-.59c.2-.28.39-.28.59,0a.36.36,0,0,1,.13.39c0,.13-.09.2-.13.2Z"/><path class="cls-29" d="M135.86,132.48l-.59-.59.29-.23.3.23a.36.36,0,0,1,.13.39c0,.13-.09.2-.13.2Z"/><path class="cls-35" d="M135.86,134.83l-.59-.59Z"/><path class="cls-29" d="M137.62,134.83l-.59-.59c.2-.28.39-.28.59,0a.37.37,0,0,1,.14.39C137.71,134.76,137.67,134.83,137.62,134.83Z"/><path class="cls-35" d="M134.09,132.48l-.58-.59Z"/><path class="cls-35" d="M136.44,135.41l-.58-.58Z"/><path class="cls-29" d="M135.27,131.89l-.59-.59h0C135.23,131.14,135.47,131.3,135.27,131.89Z"/><path class="cls-14" d="M151.14,160.68l-.59-.58a1.81,1.81,0,0,0-1.18-1.77l-.58-.58a1.83,1.83,0,0,0-1.18-1.77l-.59-.58a2.8,2.8,0,0,0-1.76-2.36v-1.17a39.77,39.77,0,0,1,7.64,10Z"/><path class="cls-14" d="M157,168.32l-.58-.58a1.83,1.83,0,0,0-1.18-1.77l-.59-.58a1.81,1.81,0,0,0-1.17-1.77l-.59-.59v-1.17a24,24,0,0,1,5.88,7.64Z"/><path class="cls-14" d="M162.89,176l-.59-.58a1.81,1.81,0,0,0-1.17-1.77l-.59-.59v-1.17c1.34.62,2,2,2.94,2.94V176Z"/><path class="cls-14" d="M160.54,171.85l-1.76-1.18V169.5A2.82,2.82,0,0,1,160.54,171.85Z"/><path class="cls-32" d="M105.89,77.82a20.83,20.83,0,0,1,5.87,7.64A26.05,26.05,0,0,1,105.89,77.82Z"/><path class="cls-32" d="M104.12,75.47a2.81,2.81,0,0,1,1.77,2.35A2.8,2.8,0,0,1,104.12,75.47Z"/><path class="cls-11" d="M114.7,190.65l.59.59Z"/><path class="cls-78" d="M188.16,197.71v1.17a39.77,39.77,0,0,1-7.64-10h0c1.1-.37,1.23.7,1.76,1.18h0c.19.2.39.39.59.58.43.57.73,1.22,1.18,1.77h0l.58.59c.43.56.73,1.21,1.18,1.76h0l.59.59h0c.52.83,1.21,1.53,1.76,2.35Z"/><path class="cls-118" d="M171.12,177.14a23.83,23.83,0,0,1,5.87,7.64A23.83,23.83,0,0,1,171.12,177.14Z"/><path class="cls-95" d="M187,110.73l-1.17-.58h0a.79.79,0,0,1,0-1.18h0A1.8,1.8,0,0,1,187,110.73Z"/><path class="cls-71" d="M187.57,117.79a1.26,1.26,0,0,1,.59,1.17A1.26,1.26,0,0,1,187.57,117.79Z"/><path class="cls-71" d="M183.46,112.5a1.28,1.28,0,0,1,.59,1.17A1.24,1.24,0,0,1,183.46,112.5Z"/><path class="cls-71" d="M188.75,119.55l.58.59Z"/><path class="cls-71" d="M188.16,119l.59.59Z"/><path class="cls-71" d="M186.4,116.61l.58.59Z"/><path class="cls-71" d="M185.81,116l.59.59Z"/><path class="cls-71" d="M185.22,114.85l.59.58Z"/><path class="cls-71" d="M184.63,114.26l.59.59Z"/><path class="cls-71" d="M184.05,113.67l.58.59Z"/><path class="cls-71" d="M182.87,111.91l.59.59Z"/><path class="cls-71" d="M182.28,111.32l.59.59Z"/><path class="cls-71" d="M181.7,110.73l.58.59Z"/><path class="cls-71" d="M187,117.2l.59.59Z"/><path class="cls-116" d="M119.4,110.15a2.8,2.8,0,0,1,1.77,2.35A2.81,2.81,0,0,1,119.4,110.15Z"/><path class="cls-116" d="M107.65,94.87a2.78,2.78,0,0,1,1.76,2.35A2.82,2.82,0,0,1,107.65,94.87Z"/><path class="cls-116" d="M92.37,74.89a1.82,1.82,0,0,1,1.18,1.76A1.79,1.79,0,0,1,92.37,74.89Z"/><path class="cls-116" d="M115.88,105.44a1.82,1.82,0,0,1,1.17,1.77A1.81,1.81,0,0,1,115.88,105.44Z"/><path class="cls-116" d="M94.72,77.82a1.83,1.83,0,0,1,1.18,1.77A1.81,1.81,0,0,1,94.72,77.82Z"/><path class="cls-116" d="M117.64,107.8a1.82,1.82,0,0,1,1.18,1.76A1.8,1.8,0,0,1,117.64,107.8Z"/><path class="cls-116" d="M96.48,80.18a1.79,1.79,0,0,1,1.18,1.76A1.83,1.83,0,0,1,96.48,80.18Z"/><path class="cls-116" d="M98.25,82.53a1.8,1.8,0,0,1,1.17,1.76A1.81,1.81,0,0,1,98.25,82.53Z"/><path class="cls-116" d="M121.17,112.5a1.8,1.8,0,0,1,1.17,1.76A1.8,1.8,0,0,1,121.17,112.5Z"/><path class="cls-116" d="M123.52,115.43a1.82,1.82,0,0,1,1.17,1.77A1.81,1.81,0,0,1,123.52,115.43Z"/><path class="cls-116" d="M127,120.14a1.81,1.81,0,0,1,1.18,1.76A1.82,1.82,0,0,1,127,120.14Z"/><path class="cls-116" d="M128.81,122.49a1.8,1.8,0,0,1,1.17,1.76A1.8,1.8,0,0,1,128.81,122.49Z"/><path class="cls-116" d="M102.36,87.81a1.83,1.83,0,0,1,1.18,1.77A1.81,1.81,0,0,1,102.36,87.81Z"/><path class="cls-116" d="M104.12,90.17a1.79,1.79,0,0,1,1.18,1.76A1.82,1.82,0,0,1,104.12,90.17Z"/><path class="cls-116" d="M131.16,125.42a1.82,1.82,0,0,1,1.17,1.77A1.81,1.81,0,0,1,131.16,125.42Z"/><path class="cls-116" d="M105.89,92.52a1.8,1.8,0,0,1,1.17,1.76A1.81,1.81,0,0,1,105.89,92.52Z"/><path class="cls-116" d="M133.51,129.54l-.59-.59v-1.17a1.8,1.8,0,0,1,1.17,1.76Z"/><path class="cls-116" d="M110,97.81a1.82,1.82,0,0,1,1.18,1.76A1.8,1.8,0,0,1,110,97.81Z"/><path class="cls-116" d="M125.28,117.79a1.8,1.8,0,0,1,1.17,1.76A1.81,1.81,0,0,1,125.28,117.79Z"/><path class="cls-116" d="M111.76,100.16a1.79,1.79,0,0,1,1.18,1.76A1.82,1.82,0,0,1,111.76,100.16Z"/><path class="cls-116" d="M113.53,102.51a1.8,1.8,0,0,1,1.17,1.76A1.8,1.8,0,0,1,113.53,102.51Z"/><path class="cls-116" d="M100,84.88a1.26,1.26,0,0,1,.59,1.17A1.26,1.26,0,0,1,100,84.88Z"/><path class="cls-116" d="M114.7,104.27l.59.59Z"/><path class="cls-116" d="M132.33,127.19l.59.59Z"/><path class="cls-116" d="M130.57,124.84l.59.58Z"/><path class="cls-116" d="M130,124.25l.59.59Z"/><path class="cls-116" d="M128.22,121.9l.59.59Z"/><path class="cls-116" d="M126.45,119.55l.59.59Z"/><path class="cls-116" d="M91.78,74.3l.59.59Z"/><path class="cls-116" d="M124.69,117.2l.59.59Z"/><path class="cls-116" d="M93.55,76.65l.58.59Z"/><path class="cls-116" d="M94.13,77.24l.59.58Z"/><path class="cls-116" d="M95.9,79.59l.58.59Z"/><path class="cls-116" d="M97.66,81.94l.59.59Z"/><path class="cls-116" d="M99.42,84.29l.59.59Z"/><path class="cls-116" d="M122.93,114.85l.59.58Z"/><path class="cls-116" d="M100.6,86.05l.59.59Z"/><path class="cls-116" d="M101.19,86.64l.58.59Z"/><path class="cls-116" d="M122.34,114.26l.59.59Z"/><path class="cls-116" d="M101.77,87.23l.59.58Z"/><path class="cls-116" d="M105.3,91.93l.59.59Z"/><path class="cls-116" d="M107.06,94.28l.59.59Z"/><path class="cls-116" d="M118.82,109.56l.58.59Z"/><path class="cls-116" d="M109.41,97.22l.59.58Z"/><path class="cls-116" d="M117.05,107.21l.59.59Z"/><path class="cls-116" d="M111.18,99.57l.58.59Z"/><path class="cls-116" d="M103.54,89.58l.58.59Z"/><path class="cls-116" d="M112.94,101.92l.59.59Z"/><path class="cls-116" d="M115.29,104.86l.59.58Z"/><path class="cls-112" d="M190.51,109v-.59c-.21-.18-.38-.4-.59-.58h0l-.59-.59c-.19-.2-.38-.4-.58-.59h0c-.34-.32-.24-.86-.59-1.18h0c-.19-.2-.39-.39-.59-.58s-.39-.4-.59-.59h0c-.19-.19-.37-.41-.58-.59l-.59-1.17c-.21-.19-.38-.41-.59-.59s-.39-.4-.59-.59h0c-.34-.32-.23-.86-.59-1.17h0c-.19-.2-.38-.4-.58-.59h0l-.59-.59h0c-.2-.19-.37-.41-.59-.59l-10.58-14a2.52,2.52,0,0,1,2.54,1.07c5.58,7.2,11.18,14.37,16.72,21.59.69.89,1.54,1.82,1.31,3.14a.38.38,0,0,1-.59,0h0a8.07,8.07,0,0,0-.58-.59h0C190.9,109.36,190.72,109.15,190.51,109Z"/><path class="cls-114" d="M191.68,110.15h.59c0,.19,0,.39,0,.58Z"/><path class="cls-109" d="M108.83,176.55l-.59-.59-.59-.59-.59-.58v-1.18c1.1.73,2.2,1.46,2.35,2.94h-.58Z"/><path class="cls-109" d="M104.71,171.26l-.59-.59-.58-.58-.59-.59v-1.18c1.09.73,2.2,1.46,2.35,2.94h-.59Z"/><path class="cls-109" d="M100.6,165.38H100l-.59-.59-.58-.59V163A2.82,2.82,0,0,1,100.6,165.38Z"/><path class="cls-109" d="M106.47,173.61l-.58-.59-.59-.58v-1.18a2.8,2.8,0,0,1,1.76,2.35Z"/><path class="cls-109" d="M101.77,167.74l-.58-.59V166a2.82,2.82,0,0,1,1.76,2.35Z"/><path class="cls-109" d="M100.6,166v-.59l.59.59h-.59Z"/><path class="cls-124" d="M184.05,111.32v-1.17l9.4,11.75,8.23,11.16a.35.35,0,0,1-.59,0h0c-.18-.21-.41-.37-.59-.58q-7.44-9.39-14.88-18.78a13.44,13.44,0,0,1-1-1.79c-.2-.19-.37-.41-.58-.59Z"/><path class="cls-84" d="M201.09,133.06h.59a5.39,5.39,0,0,0,.58.59.94.94,0,0,1,.25.94l-.25.24A1.81,1.81,0,0,1,201.09,133.06Z"/><path class="cls-84" d="M203.44,136l-.59-.58.41-.1a.46.46,0,0,1,.26.42c0,.17,0,.26-.08.26Z"/><path class="cls-84" d="M200.5,132.48l.59.58Z"/><path class="cls-51" d="M184.05,111.32l.58.59Z"/><path class="cls-84" d="M202.85,135.42l-.59-.59h0c.57-.17.75,0,.59.58Z"/><path class="cls-101" d="M104.12,159.51v1.17a113,113,0,0,1-11.76-15.27h0c2.16.07,2.55,2.13,3.57,3.36C98.79,152.24,101.81,155.61,104.12,159.51Z"/><path class="cls-124" d="M202.85,135.41l-.59-.58v-1.18A2.83,2.83,0,0,1,204,136h-.59Z"/><path class="cls-124" d="M202.26,133.65l-.58-.59Z"/><path class="cls-114" d="M184,100.16a1.24,1.24,0,0,1,.59,1.17A1.28,1.28,0,0,1,184,100.16Z"/><path class="cls-114" d="M188.16,105.44a1.3,1.3,0,0,1,.59,1.18A1.24,1.24,0,0,1,188.16,105.44Z"/><path class="cls-114" d="M186.4,103.68l.58.59Z"/><path class="cls-114" d="M187,104.27l.59.59Z"/><path class="cls-114" d="M185.22,101.92l.59.59Z"/><path class="cls-114" d="M191.1,109.56l.58.59Z"/><path class="cls-114" d="M190.51,109l.59.59Z"/><path class="cls-114" d="M182.28,98.39l.59.59Z"/><path class="cls-114" d="M189.92,107.8l.59.58Z"/><path class="cls-114" d="M189.33,107.21l.59.59Z"/><path class="cls-114" d="M182.87,99l.59.59Z"/><path class="cls-114" d="M188.75,106.62l.58.59Z"/><path class="cls-114" d="M183.46,99.57l.58.59Z"/><path class="cls-114" d="M187.57,104.86l.59.58Z"/><path class="cls-114" d="M184.63,101.33l.59.59Z"/><path class="cls-78" d="M182.28,190.07c-.58-.4-1.17-.79-1.76-1.18v-1.17A2.78,2.78,0,0,1,182.28,190.07Z"/><path class="cls-78" d="M188.16,197.71a2.8,2.8,0,0,1-1.76-2.35A2.79,2.79,0,0,1,188.16,197.71Z"/><path class="cls-7" d="M172.88,177.14a1.83,1.83,0,0,1-1.18-1.76.35.35,0,0,1,.59,0,8.07,8.07,0,0,0,.59.58Z"/><path class="cls-78" d="M184.05,192.42a1.81,1.81,0,0,1-1.18-1.77A1.84,1.84,0,0,1,184.05,192.42Z"/><path class="cls-78" d="M185.81,194.77a1.82,1.82,0,0,1-1.18-1.76A1.79,1.79,0,0,1,185.81,194.77Z"/><path class="cls-111" d="M177.58,181.25a1.27,1.27,0,0,1,.59,1.18A1.27,1.27,0,0,1,177.58,181.25Z"/><path class="cls-111" d="M176.41,180.08l.58.58Z"/><path class="cls-111" d="M177,180.66l.59.59Z"/><path class="cls-111" d="M178.17,182.43l.59.58Z"/><path class="cls-111" d="M178.76,183l.58.59Z"/><path class="cls-78" d="M182.87,190.65l-.59-.58Z"/><path class="cls-78" d="M184.63,193l-.58-.59Z"/><path class="cls-78" d="M186.4,195.36l-.59-.59Z"/><path class="cls-14" d="M164.65,177.73h-.58v-1.18A1.24,1.24,0,0,1,164.65,177.73Z"/><path class="cls-14" d="M164.06,176.55l-.58-.59Z"/><path class="cls-14" d="M164.65,178.31v-.58l.59.58Z"/><path class="cls-14" d="M165.83,178.9l-.59-.59Z"/><path class="cls-14" d="M166.42,179.49l-.59-.59Z"/><path class="cls-94" d="M202.26,198.29l1.77,1.18h0c.17.21.39.39.58.59h0l.59.58c1.53,2.18,3.14,4.31,4.7,6.47a4.41,4.41,0,0,1,2.34,4.12A63,63,0,0,1,202.26,198.29Z"/><path class="cls-117" d="M55.4,186c2.37.32,2.35,2.63,3.21,4.1,2.58,4.41,5.59,8.59,7.32,13.46-3.49-3.81-5.25-8.69-8-13C57,189.11,56.25,187.55,55.4,186Z"/><path class="cls-69" d="M185.81,109v1.18c-1.1-.73-2.2-1.46-2.35-2.94Z"/><path class="cls-113" d="M104.12,159.51c-3.26-4.13-6.51-8.26-9.8-12.36a15.58,15.58,0,0,0-1.95-1.75l-1.17-2.94c4,3.84,7,8.55,10.48,12.82a9.51,9.51,0,0,0,2.43,2.47C104.11,158.34,104.12,158.92,104.12,159.51Z"/><path class="cls-114" d="M122.94,185.93l1.16,0q9,11.53,18.11,23.07a2.72,2.72,0,0,1,.65,2.15C139.5,208,137,204,134.13,200.39,130.36,195.6,126.66,190.75,122.94,185.93Z"/><path class="cls-25" d="M236.93,84.3h1.76a83,83,0,0,1,7,11.89,12.57,12.57,0,0,0,1.85,3.83,5.73,5.73,0,0,1,.38.62c.27.51.49,1,.71,1.57a3.2,3.2,0,0,0,.32.57,2.39,2.39,0,0,1,.28.58l0,.32c.36,2.38,2.18,4,3.07,6.15.45,1,1.17,2,1,3.25-2.46-2.47-3.51-5.78-5.18-8.71C244.39,97.71,240.28,91.22,236.93,84.3Z"/><path class="cls-105" d="M209.9,207.11a16.35,16.35,0,0,1-4.7-6.47A16.35,16.35,0,0,1,209.9,207.11Z"/><path class="cls-105" d="M204.61,200.06l-.58-.59Z"/><path class="cls-105" d="M205.2,200.64l-.59-.58Z"/><path class="cls-115" d="M254,100.74c1,1.87,2.52,3.53,2.31,5.87-2.51-3.71-5.1-7.38-6.43-11.74C251.89,96.36,252,99.19,254,100.74Z"/><path class="cls-125" d="M245.16,96.63c-1.84-4.28-5.07-7.82-6.47-12.33l1.74,0c.78,3.53,3.52,6.06,4.73,9.37.65,1.42,2,2.47,2.1,4.18a1,1,0,0,1-.38.66C245.71,98.44,245.86,97.15,245.16,96.63Z"/><path class="cls-107" d="M246.93,98.39c.25-1.88-1.78-2.91-1.77-4.7,2.17,1.15,1.88,4.2,4.11,5.29h0a1.39,1.39,0,0,1,0,1.76h0C247.7,100.75,247.33,99.56,246.93,98.39Z"/><path class="cls-110" d="M249.86,91.93A5.18,5.18,0,0,1,252.21,96,8,8,0,0,1,249.86,91.93Z"/><path class="cls-110" d="M252.21,96A3.69,3.69,0,0,1,254,99,3.69,3.69,0,0,1,252.21,96Z"/><path class="cls-99" d="M249.28,100.74V99a6.57,6.57,0,0,1,1.77,3.53Z"/><path class="cls-125" d="M246.93,98.39c1.14.42,1.49,1.64,2.34,2.35-.42,2,2.2,2.76,1.77,4.7l-1.76-1.76h0c-.17-.21-.39-.39-.58-.59h0a8.5,8.5,0,0,0-1.18-2.35h0c-.33-.75-1.3-1.34-.59-2.35Z"/><path class="cls-116" d="M135.27,131.89l-.59-.59v-1.17a1.81,1.81,0,0,1,1.18,1.76Z"/><path class="cls-116" d="M137.62,134.24H137l-.58-.59v-1.17A1.79,1.79,0,0,1,137.62,134.24Z"/><path class="cls-116" d="M140,137.18h-.59l-.58-.59v-1.18A1.82,1.82,0,0,1,140,137.18Z"/><path class="cls-116" d="M141.73,139.53h-.58l-.59-.59v-1.17A1.8,1.8,0,0,1,141.73,139.53Z"/><path class="cls-116" d="M143.5,141.88h-.59l-.59-.59v-1.17A1.81,1.81,0,0,1,143.5,141.88Z"/><path class="cls-116" d="M144.09,143.64v-1.17a1.24,1.24,0,0,1,.59,1.17Z"/><path class="cls-116" d="M134.09,130.13v-.59l.59.59Z"/><path class="cls-116" d="M140,137.77v-.59l.59.59Z"/><path class="cls-116" d="M141.73,140.12v-.59l.59.59Z"/><path class="cls-116" d="M143.5,142.47v-.59l.58.59Z"/><path class="cls-116" d="M135.86,132.48v-.59l.58.59Z"/><path class="cls-116" d="M137.62,134.83v-.59l.59.59Z"/><path class="cls-116" d="M138.8,135.41l-.59-.58Z"/><path class="cls-51" d="M172.29,175.38h-.59a.38.38,0,0,1-.13-.4c0-.13.09-.19.13-.19h0Z"/><path class="cls-51" d="M172.88,176l-.59-.58Z"/><path class="cls-7" d="M171.7,174.79v.59l-.58-.59Z"/><path class="cls-108" d="M246.92,98.39c.2.79.4,1.57.59,2.35-1.47-1-1.93-2.53-2.35-4.11Z"/><path class="cls-108" d="M247.51,100.74a2.09,2.09,0,0,1,1.18,2.35A3.26,3.26,0,0,1,247.51,100.74Z"/><path class="cls-108" d="M248.69,103.09l.58.59Z"/></svg>