<svg id="Layer_1" data-name="Layer 1" xmlns="http://www.w3.org/2000/svg" viewBox="0 0 300 300"><defs><style>.cls-1{fill:#3f599a;}</style></defs><path class="cls-1" d="M144.49,228.68s-27.21,19.91-19.25-16.12,23.85-66.75,28.67-84.75c0,0,20.72-49.59-18.38-10.72,0,0-38.3,42.89-64.83,72.37-9.39,10.38-.85,23.07,5.21,29.81a100.42,100.42,0,0,0,170.84-90.6C218.87,159.11,173.71,206.69,144.49,228.68Zm-42.89-57a13.25,13.25,0,1,1,13.26,13.24h0a13.26,13.26,0,0,1-13.27-13.24h0Z"/><path class="cls-1" d="M124.53,120.55S169,75.23,195.48,61.2A100.41,100.41,0,0,0,53.54,117.58c-2.88,10.61-9,42.31,20.11,42.31C89.08,159.89,112.81,134.26,124.53,120.55Z"/><path class="cls-1" d="M201.21,151.31c5.85.8,22.84-10.45,38.73-22.63,7.36-6.12,2.71-14.37.64-19a100.58,100.58,0,0,0-27-36.2c-1.17,7.66-4.44,19.1-11.52,35.88C202,109.33,185.86,149.17,201.21,151.31Z"/></svg>