<svg id="Layer_1" data-name="Layer 1" xmlns="http://www.w3.org/2000/svg" xmlns:xlink="http://www.w3.org/1999/xlink" viewBox="0 0 300 300"><defs><linearGradient id="linear-gradient" x1="144.04169" y1="150.19196" x2="250" y2="150.19196" gradientUnits="userSpaceOnUse"><stop offset="0" stop-color="#2a538f"/><stop offset="0.08197" stop-color="#2a528d"/><stop offset="0.94938" stop-color="#1e2d59"/></linearGradient><linearGradient id="linear-gradient-2" x1="142.20496" y1="121.63177" x2="142.39944" y2="121.63177" xlink:href="#linear-gradient"/><linearGradient id="linear-gradient-3" x1="86.7022" y1="231.29409" x2="125.68799" y2="71.88553" gradientUnits="userSpaceOnUse"><stop offset="0.17727" stop-color="#2a538f"/><stop offset="1" stop-color="#1e2d59"/></linearGradient><linearGradient id="linear-gradient-4" x1="96.7216" y1="205.2682" x2="96.72194" y2="205.2682" gradientUnits="userSpaceOnUse"><stop offset="0" stop-color="#1e2d59"/><stop offset="1" stop-color="#2a538f"/></linearGradient><linearGradient id="linear-gradient-5" x1="81.56538" y1="214.59409" x2="169.67197" y2="214.59409" xlink:href="#linear-gradient-4"/></defs><path d="M247.53342,228.16827l-.07094-.00935.07179-.00017a6.69221,6.69221,0,0,0-.895-1.94967c-.11262-.27985-.21265-.56557-.34008-.8387q-4.99593-10.717-10.00156-21.42959c-1.67212-3.56564-3.24573-7.17816-5.05088-10.68111a.54016.54016,0,0,0-.25042-.52355.32733.32733,0,0,0-.17114-.34585c.00867.00059.01361.00306.02279.00349a1.1252,1.1252,0,0,0-.34534-.72285.6195.6195,0,0,0-.252-.53571l.00527.00043a1.20168,1.20168,0,0,0-.33735-.74105.241.241,0,0,0-.13915-.29541,8.25844,8.25844,0,0,0-1.06955-2.23794,16.00464,16.00464,0,0,0-1.814-3.78527l-.02348-.02246a18.242,18.242,0,0,0-1.68691-3.841c-.12981-.31855-.24651-.64323-.39128-.9548-2.30514-4.95749-4.59955-9.92008-6.92783-14.86677-1.25413-2.6646-2.40465-5.37887-3.80168-7.97559l-.00051.00748a2.1891,2.1891,0,0,0-.5466-1.15835l-.03334-.1076a1.97039,1.97039,0,0,0-.49914-1.0579.31.31,0,0,0-.17488-.337l.02143-.01037a1.05418,1.05418,0,0,0-.34126-.70873.60582.60582,0,0,0-.26913-.54761l.0165.00935a5.33805,5.33805,0,0,0-.82883-1.79324l-.08761-.254a1.51165,1.51165,0,0,0-.41356-.80595,2.13948,2.13948,0,0,0-.5255-1.1324.10216.10216,0,0,0-.05819-.15286.39.39,0,0,0-.20363-.3877.08111.08111,0,0,0-.04712-.13032,4.20527,4.20527,0,0,0-.74377-1.583l.00272.00026a2.0762,2.0762,0,0,0-.52329-1.1103.129.129,0,0,0-.05835-.1782,6.49288,6.49288,0,0,0-.97479-1.99024.35394.35394,0,0,0-.10463-.35623,6.31115,6.31115,0,0,0-.93719-1.94533.10154.10154,0,0,0-.05852-.14554,1.41052,1.41052,0,0,0-.45508-.92877.08308.08308,0,0,0-.04066-.11552.31389.31389,0,0,0-.16791-.34415l.01242-.00332a4.71362,4.71362,0,0,0-.84294-1.78167,19.27482,19.27482,0,0,0-1.59676-3.43874,1.74248,1.74248,0,0,0-.3086-.84192c-1.5452-3.33216-3.087-6.66618-4.6613-9.98464-1.29411-2.72763-2.45586-5.51838-3.89662-8.17609l-.00017.00128a1.73136,1.73136,0,0,0-.51172-1.06113l.02024-.00289a9.62236,9.62236,0,0,0-1.09591-2.36034,1.11062,1.11062,0,0,0-.31456-.71561,1.35545,1.35545,0,0,0-.41543-.81692.79375.79375,0,0,0-.30367-.641l-.02705-.10513a4.379,4.379,0,0,0-.76095-1.59514,1.6715,1.6715,0,0,0-.49352-1.0499l.00732.002a.58933.58933,0,0,0-.26743-.543l.0148-.00382a2.99267,2.99267,0,0,0-.61311-1.34192.63938.63938,0,0,0-.097-.1338,3.2249,3.2249,0,0,0-.64119-1.43581.11789.11789,0,0,0-.05869-.16961.41083.41083,0,0,0-.2021-.381.08669.08669,0,0,0-.048-.13933.28312.28312,0,0,0-.175-.30894l.006.00034a.98341.98341,0,0,0-.328-.73594q-.04619-.13716-.09255-.2744a.23043.23043,0,0,0-.15736-.26165,22.415,22.415,0,0,0-1.83492-3.92536,2.36779,2.36779,0,0,0-.36236-.96357q-4.92831-10.60149-9.87839-21.1927c-1.2327-2.6213-2.35941-5.2939-3.73977-7.8452q-.18448.01914-.36933.03811a.90326.90326,0,0,1-.057.2528c-2.59553,4.58594-5.0815,9.23126-7.576,13.87215-1.0442,1.94261-2.13944,3.85732-3.18092,5.80256-2.54824,4.75989-5.1584,9.48678-7.7575,14.21945-1.016,1.85024-1.95877,3.74283-3.13141,5.50443a22.6486,22.6486,0,0,1-1.87456,3.662c-1.17009,2.05369-2.19422,4.18165-3.33386,6.24955a6.10728,6.10728,0,0,0-1.02532,1.92287c.37631.06.40268.39672.52908.65922q1.14194,2.36885,2.29067,4.73446l.081.2431a.25252.25252,0,0,0,.16859.28419.45057.45057,0,0,0,.24089.42164l.00493.08506a1.91992,1.91992,0,0,0,.509,1.07406l-.00494-.00145a.56488.56488,0,0,0,.27662.54847l-.019-.009a8.11692,8.11692,0,0,0,1.08179,2.32461l-.00459-.00042a1.81534,1.81534,0,0,0,.50049,1.05457l-.00476-.00153a1.80973,1.80973,0,0,0,.51666,1.07763l-.02212.00459a1.97714,1.97714,0,0,0,.56889,1.14568l.0051.09161a6.54131,6.54131,0,0,0,.83767,1.82565.22747.22747,0,0,0,.13389.28929c.16365.39987.311.80714.493,1.19842,2.13927,4.59845,4.2702,9.20081,6.43158,13.78879,1.29224,2.74269,2.47305,5.53853,3.901,8.21683.86387,2.13382,1.85635,4.2081,2.90226,6.25763a1.42559,1.42559,0,0,0,.40386.816,8.56446,8.56446,0,0,0,1.09983,2.34069l-.00306-.00136a7.63767,7.63767,0,0,0,1.03876,2.21437.07547.07547,0,0,0,.04134.11807,1.46048,1.46048,0,0,0,.47191.95174l.01446.09118a14.74139,14.74139,0,0,0,1.33579,2.87274l.096.27671c-.02909.13516.04848.20516.15583.257a6.77525,6.77525,0,0,0,.99963,2.10405l-.00715-.00221a.61341.61341,0,0,0,.26692.55247l-.01106.01309c.13712.36245.25178.73527.41459,1.08572,2.42813,5.22449,4.8418,10.45587,7.30379,15.66454,1.34906,2.85411,2.57716,5.76632,4.07337,8.55052a1.80154,1.80154,0,0,0,.50968,1.05543c.839,2.22228,1.91658,4.33535,2.9681,6.46033a4.537,4.537,0,0,0,.697,1.429,1.66648,1.66648,0,0,0,.3712.911.25969.25969,0,0,0,.16332.29244,3.84365,3.84365,0,0,0,.59032,1.27148,9.23472,9.23472,0,0,0,.8717,1.89208,2.648,2.648,0,0,0,.57535,1.16244l.03334.09509.09186.24864a1.72584,1.72584,0,0,0,.4071.80535l.09833.24718a.27542.27542,0,0,0,.16417.31132.59935.59935,0,0,0,.26777.52806l-.00953.01046c1.4775,3.51376,3.12818,6.94739,4.80251,10.37013a1.56615,1.56615,0,0,0,.43109.90334.11031.11031,0,0,0,.06685.14239,14.65356,14.65356,0,0,0,1.49332,3.185l-.00136.00494c.20517.7071.79361.401,1.20463.4014q25.00493.02577,50.00986.01216A1.54141,1.54141,0,0,0,250,233.2354C249.11673,231.52586,248.49868,229.76588,247.53342,228.16827Z" fill="url(#linear-gradient)"/><path d="M142.20575,121.78543a.2795.2795,0,0,0,.19292-.30732A.29628.29628,0,0,0,142.20575,121.78543Z" fill="url(#linear-gradient-2)"/><path d="M170.92655,66.61172q-24.638-.0245-49.2758-.00629a3.85133,3.85133,0,0,0-1.41915.08574c-.43789.20091-.51989.663-.71893,1.02463q-2.25682,4.1-4.47655,8.22023-2.49567,4.63014-4.96685,9.27371a3.868,3.868,0,0,0-.73475,1.31469l-.09952.23826.00579-.00111a14.83286,14.83286,0,0,0-1.56052,2.86151.61692.61692,0,0,0-.2858.53027.229.229,0,0,0-.17693.27534.1386.1386,0,0,0-.07485.18441.7289.7289,0,0,0-.29891.54915.28763.28763,0,0,0-.1776.30775.08363.08363,0,0,0-.056.12912,1.65272,1.65272,0,0,0-.50781.91942.59279.59279,0,0,0-.27356.50645,1.95748,1.95748,0,0,0-.54557,1.018h.00714a5.61045,5.61045,0,0,0-1.01307,1.84981,1.39668,1.39668,0,0,0-.45881.79948.13754.13754,0,0,0-.07894.17573,1.45415,1.45415,0,0,0-.48348.86813.08386.08386,0,0,0-.05274.11976.43549.43549,0,0,0-.22524.4043l-.04559.09637a.44831.44831,0,0,0-.22643.41135,6.51364,6.51364,0,0,0-1.10255,2.02138l.0461.04431-.0461-.04431a2.4,2.4,0,0,0-.58165.99937,7.54227,7.54227,0,0,0-.98976,1.88885l.00324.0074a3.22677,3.22677,0,0,0-.73305,1.34149l.00085-.00026a3.94287,3.94287,0,0,0-.83326,1.535.9116.9116,0,0,0-.329.535c-.50951.90793-1.034,1.80787-1.52615,2.72516-2.13451,3.97887-4.39014,7.89258-6.42019,11.92759a.07451.07451,0,0,0-.04219.11168,1.6026,1.6026,0,0,0-.50508.91491.59337.59337,0,0,0-.27509.51564.65728.65728,0,0,0-.29652.526.23207.23207,0,0,0-.163.28376.189.189,0,0,0-.09747.21163l.01309-.00255a9.55742,9.55742,0,0,0-1.29563,2.35838.2693.2693,0,0,0-.17863.29363.122.122,0,0,0-.067.16876.38563.38563,0,0,0-.21537.35717.07768.07768,0,0,0-.04866.12028.46256.46256,0,0,0-.23153.40667l-.03334.09918a.46656.46656,0,0,0-.2397.41067,1.92011,1.92011,0,0,0-.54949,1.02277.67087.67087,0,0,0-.29635.53137c-.19105.07749-.22065.23944-.21929.41782a1.133,1.133,0,0,0-.36746.61932,3.79367,3.79367,0,0,0-.69,1.31231.58851.58851,0,0,0-.26488.50211.27134.27134,0,0,0-.17811.29644.10727.10727,0,0,0-.06482.15659.37844.37844,0,0,0-.21129.36755l-.13167.2283c-.20636.32816-.43126.64629-.61635.986-2.28251,4.18956-4.57131,8.37572-6.83188,12.57711C74.989,149.60161,73.7645,151.6,72.821,153.746l-.0017.02169a1.38039,1.38039,0,0,0-.49692.86422,1.22349,1.22349,0,0,0-.42361.78213,6.37014,6.37014,0,0,0-1.00558,1.83015.118.118,0,0,0-.066.1617.728.728,0,0,0-.30978.57833,2.90754,2.90754,0,0,0-.72421,1.29436,2.16476,2.16476,0,0,0-.607,1.11378.3426.3426,0,0,0-.09067.12819q-.07273.14838-.14563.29669a32.35876,32.35876,0,0,0-2.3053,4.24315.24973.24973,0,0,0-.18.28716,1.13465,1.13465,0,0,0-.36338.74071,1.66762,1.66762,0,0,0-.55136,1.01885.90819.90819,0,0,0-.36014.57586c-1.56954,2.8451-3.17156,5.673-4.69891,8.54057-1.26178,2.36876-2.65405,4.66862-3.78025,7.10909a.2389.2389,0,0,0-.17131.28121,7.512,7.512,0,0,0-.96237,1.77657,1.25794,1.25794,0,0,0-.40778.77515.28355.28355,0,0,0-.18458.2989.18769.18769,0,0,0-.08183.20508.32389.32389,0,0,0-.20194.32043,2.94527,2.94527,0,0,0-.62519,1.18574c-1.47852,2.3913-2.72516,4.90645-4.07558,7.36512.3137.38915.55289.69571.80212.99384Q63.93629,212.25,77.0793,227.95783c1.47512,1.75982,2.8536,3.60469,4.48608,5.23053a24.23566,24.23566,0,0,0,1.80907-3.11116c1.34259-2.409,2.55215-4.894,3.94663-7.27156,1.72315-2.93815,3.09789-6.0665,4.95527-8.92784a.7837.7837,0,0,1,.516-.79311c.00969-.57611.53247-.974.53928-1.55107q.124-.00332.2477-.00715a137.94286,137.94286,0,0,0,1.0573-2.08057,8.19026,8.19026,0,0,0,.78255-1.82242,4.763,4.763,0,0,0,1.30278-2.35532,8.74244,8.74244,0,0,0,1.73387-2.795c1.14219-2.25742,2.47458-4.41378,3.52967-6.71466a59.71108,59.71108,0,0,0,2.865-5.28948,5.88694,5.88694,0,0,0,1.03178-1.89174,3.69378,3.69378,0,0,0,.82475-1.5242l-.00528-.00527a.591.591,0,0,0,.285-.52176l-.002-.0023a4.57829,4.57829,0,0,0,.91423-1.616.85114.85114,0,0,0,.27033-.52,1.01806,1.01806,0,0,0,.34143-.66543,1.52191,1.52191,0,0,0,.49335-.90172l.034-.10573a5.87958,5.87958,0,0,0,1.06853-1.93291.3164.3164,0,0,0,.1919-.32629.56261.56261,0,0,0,.27168-.50246,1.42976,1.42976,0,0,0,.44248-.78544l.10837-.24719a.23376.23376,0,0,0,.173-.27525.15093.15093,0,0,0,.08047-.18841,12.40849,12.40849,0,0,0,1.39924-2.55266l-.00153-.04823a2.91849,2.91849,0,0,0,.73883-1.32847l-.01378.00051a.60133.60133,0,0,0,.29636-.52423l.0182.002c.5107-.89663,1.04046-1.783,1.52853-2.69182,1.63044-3.03589,3.3769-6.00986,4.88111-9.11328a4.482,4.482,0,0,0,.8312-1.54019l-.002.00119a1.37039,1.37039,0,0,0,.45372-.80807.10132.10132,0,0,0,.06226-.14963.39433.39433,0,0,0,.21588-.36873.08271.08271,0,0,0,.05189-.12878,3.57168,3.57168,0,0,0,.77592-1.42213,1.86539,1.86539,0,0,0,.55476-1.02l-.00306.00008c.21367-.11347.256-.32935.3137-.53622a.24587.24587,0,0,0,.14784-.2898,1.44614,1.44614,0,0,0,.44844-.78289.185.185,0,0,0,.09169-.21759,3.7482,3.7482,0,0,0,.74972-1.348.07948.07948,0,0,0,.05121-.12513,10.04172,10.04172,0,0,0,1.32932-2.44233l-.00425-.00026a.61.61,0,0,0,.28955-.52346l-.00732.00145a5.58259,5.58259,0,0,0,1.00865-1.84165.63432.63432,0,0,0,.279-.527l-.00238.00068a13.43652,13.43652,0,0,0,1.56647-2.85726l-.00646-.00043a1.87491,1.87491,0,0,0,.55595-1.01936l.009.00136a51.0154,51.0154,0,0,0,2.52459-4.51049c1.76466-3.264,3.63157-6.47369,5.26217-9.80942a1.43665,1.43665,0,0,0,.4874-.8785.08478.08478,0,0,0,.04916-.11492,18.52825,18.52825,0,0,0,1.89021-3.44383l-.09288-.0689.09918.05945a10.26728,10.26728,0,0,0,1.28339-2.33958l-.00017-.00009a.36893.36893,0,0,0,.18169-.34151,1.80928,1.80928,0,0,0,.544-1.02532l-.00493-.00043a.29627.29627,0,0,1,.19275-.30485l.01565-.0353a1.04054,1.04054,0,0,0,.35759-.66985,9.30935,9.30935,0,0,0,1.18438-2.15968.14578.14578,0,0,0,.0854-.16511,6.10728,6.10728,0,0,1,1.02532-1.92287c1.13964-2.0679,2.16377-4.19586,3.33386-6.24955a22.6486,22.6486,0,0,0,1.87456-3.662c1.17264-1.7616,2.11545-3.65419,3.13141-5.50443,2.5991-4.73267,5.20926-9.45956,7.7575-14.21945,1.04148-1.94524,2.13672-3.85995,3.18092-5.80256,2.49448-4.64089,4.98045-9.28621,7.576-13.87215a.90326.90326,0,0,0,.057-.2528q.18476-.01914.36933-.03811C171.98878,66.31682,171.3988,66.61215,170.92655,66.61172Zm-64.064,24.5639a.30233.30233,0,0,1-.04678.17828A.30823.30823,0,0,0,106.8625,91.17562Zm-.05342,1.72485a.24217.24217,0,0,0-.06056-.31345A.242.242,0,0,1,106.80908,92.90047Z" fill="url(#linear-gradient-3)"/><polygon points="96.722 205.268 96.722 205.268 96.722 205.268 96.722 205.268" fill="url(#linear-gradient-4)"/><path d="M169.36909,232.593a3.83994,3.83994,0,0,0-.4612-1.20531q-6.80517-15.04789-13.61578-30.09324c-.81794-1.80685-1.64081-3.61132-2.43306-5.35463h-5.99369q-8.04561-.03012-16.091-.05657c-1.2526-.00272-2.5052.0387-3.75779.0598-.47685-.01914-.95353-.05461-1.43021-.055q-11.02534-.00843-22.051-.01259a4.10846,4.10846,0,0,1-1.5498-.117c-1.05509,2.30088-2.38748,4.45724-3.52967,6.71466a8.74244,8.74244,0,0,1-1.73387,2.795,4.763,4.763,0,0,1-1.30278,2.35532,8.19026,8.19026,0,0,1-.78255,1.82242,137.94286,137.94286,0,0,1-1.0573,2.08057q-.12377.00383-.2477.00715c-.00681.577-.52959.975-.53928,1.55107a.7837.7837,0,0,0-.516.79311c-1.85738,2.86134-3.23212,5.98969-4.95527,8.92784-1.39448,2.37753-2.604,4.86256-3.94663,7.27156a24.23566,24.23566,0,0,1-1.80907,3.11116c.11858.24881.32119.21274.52976.15575l.25416-.00221a2.63054,2.63054,0,0,0,1.0556.001h0l.25024.001h0q6.40761.11675,12.81486-.00366a2.33754,2.33754,0,0,0,1.28151-.00025l.80757-.00128a.95554.95554,0,0,0,.76078-.00025,32.7564,32.7564,0,0,0,3.9422-.00247c.38822.0273.77661.07843,1.16482.07834q32.18394-.005,64.36805-.02509c.28342-.00017.60257.12265.85877-.11671A.652.652,0,0,0,169.36909,232.593Z" fill="url(#linear-gradient-5)"/></svg>