<svg id="Layer_1" data-name="Layer 1" xmlns="http://www.w3.org/2000/svg" viewBox="0 0 300 300"><title>ANNX_Mark_Light</title><path d="M37.59438,159.28861H21.73815l-3.53706,12.104H10.26625l12.83023-40.73667a2.60909,2.60909,0,0,1,2.78392-2.04423h7.55827a2.60908,2.60908,0,0,1,2.79737,2.04423l12.83024,40.72322h-7.8676Zm-1.85594-6.38822-4.27675-14.79377c-.5783-2.23251-.88763-3.40257-.928-3.5774H28.85261l-.98177,3.6312-4.27675,14.79377Z" fill="#d7282f"/><path d="M88.91532,128.61171V168.528a2.52839,2.52839,0,0,1-2.85116,2.85116H79.93147a3.36222,3.36222,0,0,1-3.22774-2.367l-12.0233-26.21188a36.31237,36.31237,0,0,1-2.54184-6.37477H61.372a47.70274,47.70274,0,0,1,.36312,6.442v28.51164H54.15V131.46287a2.54184,2.54184,0,0,1,2.905-2.85116h6.01165a3.10666,3.10666,0,0,1,1.95008.538,4.734,4.734,0,0,1,1.27765,1.80215L77.941,156.424c.121.29588.56485,1.2642,1.34489,2.91841s1.34489,2.93186,1.66767,3.83293h.75314c-.21519-2.59563-.30933-4.90884-.30933-6.93962v-27.624Z" fill="#d7282f"/><path d="M133.2294,128.61171V168.528a2.52839,2.52839,0,0,1-2.85117,2.85116h-6.14614a3.34877,3.34877,0,0,1-3.21428-2.367l-12.0233-26.21188a36.31237,36.31237,0,0,1-2.54184-6.37477h-.69934a47.70436,47.70436,0,0,1,.36311,6.442v28.51164H98.45058V131.46287a2.55529,2.55529,0,0,1,2.91841-2.85116h6.01165a3.13359,3.13359,0,0,1,1.95009.538,4.882,4.882,0,0,1,1.34489,1.80215L122.32236,156.424c.121.29588.55141,1.2642,1.34489,2.91841s1.34489,2.93186,1.66766,3.83293h.59174c-.20173-2.59563-.30933-4.90884-.30933-6.93962v-27.624Z" fill="#d7282f"/><path d="M170.039,165.112l.37657,5.89061q-5.64854.51107-18.82844.49761a9.75049,9.75049,0,0,1-6.72445-2.16527,7.74661,7.74661,0,0,1-2.50149-5.95786V136.60034a7.73314,7.73314,0,0,1,2.50149-5.9444,9.69666,9.69666,0,0,1,6.72445-2.16527q13.19334,0,18.82844.49761l-.37657,5.9444H153.30858a3.07984,3.07984,0,0,0-2.3939.80694,4.2499,4.2499,0,0,0-.71279,2.82426v7.50448h17.48355v5.94441H150.20189v9.5487a4.24982,4.24982,0,0,0,.71279,2.78392,3.07976,3.07976,0,0,0,2.3939.80694Z" fill="#d7282f"/><path d="M193.17108,152.01277h-1.18351l-9.5756,19.36639H174.235L185.58591,149.323l-10.53048-20.71128h8.06933l8.74177,17.84667h1.34489l8.74177-17.84667h8.17693L199.53239,149.323,210.937,171.32537h-8.24417Z" fill="#d7282f"/><path d="M230.46483,127.80477q9.89836,0,13.812,4.77436t3.87328,17.48355q0,12.6285-3.87328,17.48355t-13.812,4.63986q-9.858,0-13.73132-4.7609t-3.87327-17.42976q0-12.64194,3.87329-17.4163T230.46483,127.80477Zm0,6.6303c-3.6043,0-6.06544,1.10281-7.41033,3.32188s-2.01733,6.28063-2.01733,12.23848.67244,10.03287,2.01733,12.23849,3.806,3.30843,7.41033,3.30843,6.11924-1.10281,7.46413-3.30843,2.01733-6.29408,2.01733-12.23848-.67244-10.03287-2.01733-12.23849S234.096,134.43507,230.46483,134.43507Z" fill="#d7282f"/><path d="M289.70717,128.61171V168.528a2.51494,2.51494,0,0,1-2.85116,2.85116h-6.13269a3.36222,3.36222,0,0,1-3.22772-2.367l-12.02331-26.21188a38.72,38.72,0,0,1-2.54184-6.37477h-.73969a45.33676,45.33676,0,0,1,.37657,6.442v28.51163h-7.62552V131.46287a2.55529,2.55529,0,0,1,2.91841-2.85116h6.01165a3.17393,3.17393,0,0,1,1.92318.538,4.72056,4.72056,0,0,1,1.34489,1.8156l11.66018,25.47219c.121.29588.55141,1.2642,1.34489,2.91841s1.34489,2.93186,1.68111,3.83293h.73969c-.20172-2.59563-.30932-4.90884-.30932-6.93962V128.61171Z" fill="#d7282f"/></svg>