<?xml version="1.0" encoding="UTF-8"?>
<svg xmlns="http://www.w3.org/2000/svg" version="1.1" viewBox="0 0 300 300">
  <defs>
    <style>
      .cls-1 {
        fill: #306bb3;
      }

      .cls-2 {
        fill: #245390;
      }
    </style>
  </defs>
  <!-- Generator: Adobe Illustrator 28.6.0, SVG Export Plug-In . SVG Version: 1.2.0 Build 709)  -->
  <g>
    <g id="Layer_1">
      <g>
        <path class="cls-1" d="M285,177.1c0,14.9-12.1,27-27,27-14.6,0-26.5-11.6-27-26.2h0c0-.3,0-.6,0-.8s0-.7,0-1h0c.6-15,13.1-26.6,28-26,14.5.6,26,12.5,26,27Z"/>
        <path class="cls-2" d="M258,150.1c-14.5,0-26.4,11.5-27,26-.4-14.6-12.4-26.2-27-26.2,14.5,0,26.4-11.5,27-25.9.4,14.6,12.4,26.2,27,26.2Z"/>
        <path class="cls-1" d="M231,122.9c0,.3,0,.7,0,1h0c-.5,15-13.1,26.7-28.1,26.2-15-.5-26.7-13.1-26.2-28.1.5-15,13.1-26.7,28.1-26.2,14.2.5,25.7,11.9,26.2,26.2h0c0,.3,0,.6,0,.8Z"/>
        <path class="cls-1" d="M177,176.9c0,14.9-12.1,27-27,27-14.6,0-26.5-11.5-27-26.1,0-.3,0-.6,0-.9s0-.6,0-.9c.5-14.9,13-26.6,27.9-26.1,14.6.5,26.1,12.4,26.1,27Z"/>
        <path class="cls-2" d="M204,149.9c-14.9,0-27,12.1-27,27h0c0-14.9-12.1-27-27-27,14.9,0,27-12.1,27-27,0,14.9,12.1,27,27,27h0Z"/>
        <path class="cls-2" d="M150,149.9c-14.6,0-26.5,11.5-27,26.1-.5-14.5-12.4-26.1-27-26.1,14.6,0,26.5-11.5,27-26.1.5,14.5,12.4,26.1,27,26.1Z"/>
        <path class="cls-1" d="M123,122.9c0,.3,0,.6,0,.9-.5,14.9-13,26.6-27.9,26.1-14.9-.5-26.6-13-26.1-27.9.5-14.9,13-26.6,27.9-26.1,14.2.5,25.6,11.9,26.1,26.1,0,.3,0,.6,0,.9Z"/>
        <path class="cls-1" d="M69,176.9c0,14.9-12.1,27-27,27-14.9,0-27-12.1-27-27,0-14.9,12.1-27,27-27,14.9,0,27,12.1,27,27h0Z"/>
        <path class="cls-2" d="M96,149.9c-14.9,0-27,12.1-27,27h0c0-14.9-12.1-27-27-27,14.9,0,27-12.1,27-27,0,14.9,12.1,27,27,27h0Z"/>
      </g>
    </g>
  </g>
</svg>