<svg id="Layer_1" data-name="Layer 1" xmlns="http://www.w3.org/2000/svg" viewBox="0 0 300 300"><title>APRE_Mark_Light</title><path d="M263.83247,234.85943H20.36022c.79021-1.05483,1.60648-2.09127,2.36658-3.16737a80.8509,80.8509,0,0,0,14.13985-34.12322,64.84593,64.84593,0,0,0-.21888-22.51473c-2.37891-12.60007-7.582-24.01565-14.60684-34.659-.81315-1.232-1.68816-2.42319-2.52915-3.62568.16894-.72438.3333-1.42485.49563-2.12579q6.03095-26.04139,12.06116-52.083,2.0164-8.70936,4.02666-17.42014H277.88588a1.201,1.201,0,0,1-.07238.58763q-1.0896,4.95162-2.18223,9.90258-6.1759,28.034-12.35154,56.06812c-.33911,1.53927-.67993,3.07816-1.014,4.5901a61.696,61.696,0,0,1,10.56369,15.08017,69.19726,69.19726,0,0,1,7.54508,32.46839,91.1469,91.1469,0,0,1-3.21251,23.29812,82.58513,82.58513,0,0,1-11.41672,25.05265C265.12684,233.0918,264.471,233.96968,263.83247,234.85943ZM88.01406,109.10923v54.22533h5.07613V142.20174c.10458.03017.13041.02962.142.0422.12195.13195.243.26478.36171.39967a19.82446,19.82446,0,0,0,18.52989,6.98709c8.42342-1.13979,15.07011-8.21484,16.67615-15.55911,1.4034-6.41761.55239-12.46815-3.56313-17.74882-5.464-7.01093-12.65184-9.58146-21.33175-7.66173a17.789,17.789,0,0,0-9.94877,6.53967c-.25724.31415-.5071.63434-.7604.95172l-.14878-.05643v-6.98677Zm76.83946,20.25438h35.69737a22.27683,22.27683,0,0,0-.38178-4.54135A19.80809,19.80809,0,0,0,188.906,109.906a21.11173,21.11173,0,0,0-12.61688-1.57677,17.42328,17.42328,0,0,0-9.295,4.29143,21.14674,21.14674,0,0,0-7.23327,19.29364,20.53437,20.53437,0,0,0,9.15569,14.92688,19.33716,19.33716,0,0,0,10.71692,3.00462c7.11263.16169,12.97634-2.34017,17.29514-8.11983a23.059,23.059,0,0,0,2.32462-3.84081l-4.30912-2.26427c-.35414.55183-.698,1.06377-1.01809,1.59013a15.81133,15.81133,0,0,1-10.44656,7.54008,14.72487,14.72487,0,0,1-17.11181-8.287A17.66577,17.66577,0,0,1,164.85352,129.36361Zm84.82672,19.42346V109.1143h-5.05287v7.14221c-.23278-.28947-.34592-.4258-.45439-.56574a18.4607,18.4607,0,0,0-16.97748-7.56449c-7.86473.63614-13.39458,4.83825-16.89538,11.70256a21.45253,21.45253,0,0,0,3.37524,23.32443,20.12478,20.12478,0,0,0,28.895,1.12393c.67588-.66721,1.41942-1.26593,2.08392-1.8543v6.36417ZM76.366,148.79341V109.1123H71.29466v6.81628a.85711.85711,0,0,1-.59294-.45858,18.98981,18.98981,0,0,0-22.7143-5.98625c-14.26954,6.0253-16.02835,22.202-9.19019,31.65857a19.93422,19.93422,0,0,0,21.17618,8.204,19.68593,19.68593,0,0,0,10.524-6.32628c.19427-.21272.335-.50746.78175-.57083.14507,2.11254-.00462,4.21656.09312,6.3442Zm78.11172-35.08954c.88433-1.43035,1.75306-2.83544,2.6363-4.264-.1881-.12653-.31146-.22731-.44965-.29981a8.7086,8.7086,0,0,0-8.51089.025,16.17083,16.17083,0,0,0-5.39235,4.94835c-.129.17309-.20709.41258-.53283.513v-5.50941h-5.162v39.668h5.1106a1.55639,1.55639,0,0,0,.08141-.75211c.036-6.08293-.09965-12.16725.10128-18.24861a32.08263,32.08263,0,0,1,1.123-9.02156,11.93017,11.93017,0,0,1,3.835-6.03447,6.45339,6.45339,0,0,1,5.64272-1.519C153.44355,113.32316,153.90828,113.51575,154.47767,113.70387Zm-8.33106,88.43941V191.35923c.22815.24421.36273.3858.49464.52985a10.26558,10.26558,0,0,0,12.61041,2.11476,10.90312,10.90312,0,0,0,1.98607-17.35692c-3.9296-3.61717-10.7532-3.91368-14.55924.779a1.2549,1.2549,0,0,1-.575.52887v-3.46251a8.355,8.355,0,0,0-2.5517.04357v27.60748Zm43.36772-17.321a4.55044,4.55044,0,0,0-.04152-1.47233,10.39665,10.39665,0,0,0-15.26577-8.31341c-6.614,3.38213-7.8537,12.97388-1.61191,18.14513,3.69151,3.05836,10.05036,2.7883,13.62163-.42158a11.09953,11.09953,0,0,0,2.66212-3.61662l-2.219-1.1566a8.827,8.827,0,0,1-4.58806,4.26158,8.21758,8.21758,0,0,1-6.26164-.04485,7.775,7.775,0,0,1-4.50262-7.38132Zm-88.49841-.01454a9.539,9.539,0,0,0-.30652-3.00371c-1.02382-3.84389-3.37081-6.51672-7.25132-7.50641-3.91181-.99765-7.56631-.36341-10.40475,2.76728a10.5978,10.5978,0,0,0-2.17809,11.66066,9.60134,9.60134,0,0,0,9.06888,6.53527,10.2127,10.2127,0,0,0,9.96223-5.21028,2.29682,2.29682,0,0,0,.4261-.93271l-2.16689-1.13a8.74362,8.74362,0,0,1-4.667,4.29268,8.18333,8.18333,0,0,1-6.31552-.137c-2.72636-1.25358-4.83779-4.81618-4.33821-7.3358Zm34.01-6.76974a10.21625,10.21625,0,0,0-14.85121-1.64071,10.924,10.924,0,0,0-1.49847,14.7961,10.30072,10.30072,0,0,0,16.24919.24657l.12863.084v3.19024h2.55518V174.48277h-2.58332ZM60.3791,194.71213c0-.34046,0-.63591,0-.93139q-.00046-3.81341-.00062-7.62683a28.4492,28.4492,0,0,1,.22262-3.59284,7.28221,7.28221,0,0,1,5.789-6.13337c3.13093-.54548,5.50641.978,6.17112,3.98707a14.67008,14.67008,0,0,1,.26524,3.10588c.01568,3.44289.01321,6.88586.02237,10.32879a2.021,2.021,0,0,0,.07748.8604h2.51082c.01646-.21153.04192-.387.042-.56237.00189-3.363.01571-6.72609-.00589-10.089a19.2148,19.2148,0,0,0-.55669-5.05879,6.98865,6.98865,0,0,0-6.07977-5.05091A9.01885,9.01885,0,0,0,60.9013,177.37c-.13554.15528-.21778.37961-.54255.44375V166.67706a7.34735,7.34735,0,0,0-2.57423.04609v27.989ZM257.925,178.65449a7.9359,7.9359,0,0,0-2.1862-2.50484,12.34082,12.34082,0,0,0-14.89086.52295,10.639,10.639,0,0,0-1.74861,14.03666c2.47328,3.39333,5.92142,4.74073,10.03789,4.55092a11.0356,11.0356,0,0,0,7.7564-3.291,5.09692,5.09692,0,0,0,1.01672-1.34443l-2.04658-1.33122c-.11968.12721-.20381.21046-.281.29967a9.06061,9.06061,0,0,1-8.73866,3.10273,8.22552,8.22552,0,0,1-6.07567-11.78092c2.91656-5.65841,10.55076-5.64112,14.05323-2.11408.36108.36365.70488.74451,1.07124,1.13279Zm-48.78841-4.19574c0,.33145.00175.6087-.00028.88593-.02811,3.84186.07746,7.68462-.08236,11.52565a5.73215,5.73215,0,0,1-1.753,4.25979,6.397,6.397,0,0,1-5.65654,1.47164A5.46211,5.46211,0,0,1,196.857,187.706a14.62866,14.62866,0,0,1-.15018-2.03392c-.02074-3.4821-.018-6.96435-.0296-10.44652-.00083-.25146.074-.52084-.09054-.74188h-2.53958c0,.23352,0,.41136,0,.58922.00039,3.28219-.00551,6.56441.00423,9.84658a21.146,21.146,0,0,0,.37138,3.87859,7.64489,7.64489,0,0,0,6.4672,6.31639,12.37782,12.37782,0,0,0,4.06415.006,7.44841,7.44841,0,0,0,6.10415-4.88942,13.16572,13.16572,0,0,0,.7514-4.65889c.03787-3.54194.02212-7.08446.02554-10.62675a.58149.58149,0,0,0-.12128-.48663Zm51.84573,17.92662a7.57008,7.57008,0,0,0,5.72849,2.883,5.969,5.969,0,0,0,6.13937-3.98248,5.56986,5.56986,0,0,0-2.37526-6.74574c-1.18018-.802-2.47329-1.39465-3.68584-2.13264a5.99817,5.99817,0,0,1-2.06725-1.79118,2.5511,2.5511,0,0,1,.3004-3.25214,3.57758,3.57758,0,0,1,4.4306-.44692,10.35563,10.35563,0,0,1,1.8121,1.29533l1.854-1.54721a8.26669,8.26669,0,0,0-5.32982-2.74923,5.39411,5.39411,0,0,0-3.81156,9.64884,15.30923,15.30923,0,0,0,2.68229,1.69919,12.78511,12.78511,0,0,1,3.03192,1.92064,3.00154,3.00154,0,0,1,.16912,4.26387,4.239,4.239,0,0,1-5.7733.36,16.27471,16.27471,0,0,1-1.46228-1.29518C262.07547,191.14,261.55261,191.73567,260.98236,192.38537Zm-207.203-17.97221h-4.1158v-7.47895h-2.623v7.5005h-3.493v2.2941h3.49876v17.96228h2.665V176.6973h4.068Zm168.74472,20.30193V176.69743h4.03806v-2.29275h-4.07688v-7.4736h-2.64617v7.51872h-3.49833v2.28282h3.54239v17.98247Zm-114.92858-.00346c0-.30684-.00061-.5629.00008-.819.009-3.30073-.05472-6.6024.09848-9.9014A11.397,11.397,0,0,1,108.837,178.946a3.95376,3.95376,0,0,1,4.86661-2.20427c.03419.00842.07633-.01544.17827-.03878l1.31222-2.13251c-3.44031-1.63333-5.57854.16668-7.61,2.73041v-2.81929H104.947v20.23009ZM230.219,174.46445v20.24749h2.52284V174.46445Zm1.2427-4.07434a2.11919,2.11919,0,0,0,2.14533-2.12245,2.14468,2.14468,0,1,0-4.2886-.065A2.12329,2.12329,0,0,0,231.46173,170.39011Z" fill="#0356a2"/><path d="M88.01406,109.10923h5.03309V116.096l.14878.05643c.2533-.31738.50316-.63757.7604-.95172a17.789,17.789,0,0,1,9.94877-6.53967c8.67991-1.91973,15.86774.6508,21.33175,7.66173,4.11552,5.28067,4.96653,11.33121,3.56313,17.74882-1.606,7.34427-8.25273,14.41932-16.67615,15.55911a19.82446,19.82446,0,0,1-18.52989-6.98709c-.11868-.13489-.23976-.26772-.36171-.39967-.01163-.01258-.03746-.012-.142-.0422v21.13282H88.01406Zm4.67036,19.89155c.03572.62017.0598,1.15967.09882,1.69808C93.605,142.0387,105.11,147.45749,113.72861,144.23a16.29094,16.29094,0,0,0,8.27337-23.3798,15.5685,15.5685,0,0,0-20.19582-6.419C95.753,117.33922,92.8758,122.41738,92.68442,129.00078Z" fill="#c4c8cb"/><path d="M164.85352,129.36361a17.66577,17.66577,0,0,0,1.51413,7.10042,14.72487,14.72487,0,0,0,17.11181,8.287A15.81133,15.81133,0,0,0,193.926,137.211c.32011-.52636.66395-1.0383,1.01809-1.59013l4.30912,2.26427a23.059,23.059,0,0,1-2.32462,3.84081c-4.3188,5.77966-10.18251,8.28152-17.29514,8.11983a19.33716,19.33716,0,0,1-10.71692-3.00462,20.53437,20.53437,0,0,1-9.15569-14.92688,21.14674,21.14674,0,0,1,7.23327-19.29364,17.42328,17.42328,0,0,1,9.295-4.29143A21.11173,21.11173,0,0,1,188.906,109.906a19.80809,19.80809,0,0,1,11.26308,14.91629,22.27683,22.27683,0,0,1,.38178,4.54135Zm30.05928-4.45853c-.78816-2.99479-1.90177-5.751-4.21971-7.83986a15.59059,15.59059,0,0,0-11.21375-4.0942,14.17322,14.17322,0,0,0-10.0149,4.26693,17.21229,17.21229,0,0,0-4.09111,7.66713Z" fill="#c4c8cb"/><path d="M249.68024,148.78707h-5.026V142.4229c-.6645.58837-1.408,1.18709-2.08392,1.8543a20.12478,20.12478,0,0,1-28.895-1.12393,21.45253,21.45253,0,0,1-3.37524-23.32443c3.5008-6.86431,9.03065-11.06642,16.89538-11.70256a18.4607,18.4607,0,0,1,16.97748,7.56449c.10847.13994.22161.27627.45439.56574V109.1143h5.05287Zm-36.20912-19.83669a15.90445,15.90445,0,0,0,2.309,8.34285,15.67,15.67,0,0,0,26.57155.96511,16.49231,16.49231,0,0,0,2.52358-11.06359,15.56245,15.56245,0,0,0-19.90751-13.59923A15.85144,15.85144,0,0,0,213.47112,128.95038Z" fill="#c4c8cb"/><path d="M76.366,148.79341H71.37232c-.09774-2.12764.052-4.23166-.09312-6.3442-.44674.06337-.58748.35811-.78175.57083a19.68593,19.68593,0,0,1-10.524,6.32628,19.93422,19.93422,0,0,1-21.17618-8.204c-6.83816-9.4566-5.07935-25.63327,9.19019-31.65857A18.98981,18.98981,0,0,1,70.70172,115.47a.85711.85711,0,0,0,.59294.45858V109.1123H76.366ZM55.82009,112.98009a15.06685,15.06685,0,0,0-11.58347,5.29864,16.01826,16.01826,0,0,0-1.8285,18.88887,15.60927,15.60927,0,0,0,24.4568,3.65861c3.48341-3.19707,4.85855-7.32974,4.80657-11.99317A15.67555,15.67555,0,0,0,55.82009,112.98009Z" fill="#c4c8cb"/><path d="M154.47767,113.70387c-.56939-.18812-1.03412-.38071-1.51739-.49461a6.45339,6.45339,0,0,0-5.64272,1.519,11.93017,11.93017,0,0,0-3.835,6.03447,32.08263,32.08263,0,0,0-1.123,9.02156c-.20093,6.08136-.06524,12.16568-.10128,18.24861a1.55639,1.55639,0,0,1-.08141.75211h-5.1106v-39.668h5.162v5.50941c.32574-.10039.40379-.33988.53283-.513a16.17083,16.17083,0,0,1,5.39235-4.94835,8.7086,8.7086,0,0,1,8.51089-.025c.13819.0725.26155.17328.44965.29981C156.23073,110.86843,155.362,112.27352,154.47767,113.70387Z" fill="#c4c8cb"/><path d="M146.14661,202.14328H143.5518V174.5358a8.355,8.355,0,0,1,2.5517-.04357v3.46251a1.2549,1.2549,0,0,0,.575-.52887c3.806-4.69263,10.62964-4.39612,14.55924-.779a10.90312,10.90312,0,0,1-1.98607,17.35692,10.26558,10.26558,0,0,1-12.61041-2.11476c-.13191-.144-.26649-.28564-.49464-.52985Zm-.16292-17.481a7.89173,7.89173,0,0,0,7.9518,8.17144,8.20278,8.20278,0,0,0,.07824-16.40033A7.95292,7.95292,0,0,0,145.98369,184.6623Z" fill="#c4c8cb"/><path d="M189.51433,184.82229H171.30752a7.775,7.775,0,0,0,4.50262,7.38132,8.21758,8.21758,0,0,0,6.26164.04485,8.827,8.827,0,0,0,4.58806-4.26158l2.219,1.1566a11.09953,11.09953,0,0,1-2.66212,3.61662c-3.57127,3.20988-9.93012,3.47994-13.62163.42158-6.24179-5.17125-5.002-14.763,1.61191-18.14513A10.39665,10.39665,0,0,1,189.47281,183.35,4.55044,4.55044,0,0,1,189.51433,184.82229Zm-17.91063-2.34856h14.97023c-.65531-3.9154-4.0413-6.01112-7.54486-6.03046A7.33484,7.33484,0,0,0,171.6037,182.47373Z" fill="#c4c8cb"/><path d="M101.01592,184.80775H82.84485c-.49958,2.51962,1.61185,6.08222,4.33821,7.3358a8.18333,8.18333,0,0,0,6.31552.137,8.74362,8.74362,0,0,0,4.667-4.29268l2.16689,1.13a2.29682,2.29682,0,0,1-.4261.93271,10.2127,10.2127,0,0,1-9.96223,5.21028,9.60134,9.60134,0,0,1-9.06888-6.53527,10.5978,10.5978,0,0,1,2.17809-11.66066c2.83844-3.13069,6.49294-3.76493,10.40475-2.76728,3.88051.98969,6.2275,3.66252,7.25132,7.50641A9.539,9.539,0,0,1,101.01592,184.80775Zm-2.91448-2.32228A7.52941,7.52941,0,0,0,90.32818,176.44c-3.67755.15733-7.04117,2.96822-7.20036,6.04549Z" fill="#c4c8cb"/><path d="M135.02589,178.038v-3.55524h2.58332V194.7142H135.054V191.524l-.12863-.084a10.30072,10.30072,0,0,1-16.24919-.24657,10.924,10.924,0,0,1,1.49847-14.7961A10.21625,10.21625,0,0,1,135.02589,178.038Zm-15.86357,6.54443a8.12794,8.12794,0,0,0,8.01394,8.24657,8.20121,8.20121,0,0,0,.01943-16.39769A8.07435,8.07435,0,0,0,119.16232,184.58244Z" fill="#c4c8cb"/><path d="M60.3791,194.71213H57.78452v-27.989a7.34735,7.34735,0,0,1,2.57423-.04609v11.13666c.32477-.06414.407-.28847.54255-.44375a9.01885,9.01885,0,0,1,7.93544-3.42116,6.98865,6.98865,0,0,1,6.07977,5.05091,19.2148,19.2148,0,0,1,.55669,5.05879c.0216,3.36287.00778,6.726.00589,10.089-.00009.17542-.02555.35084-.042.56237H72.92626a2.021,2.021,0,0,1-.07748-.8604c-.00916-3.44293-.00669-6.8859-.02237-10.32879a14.67008,14.67008,0,0,0-.26524-3.10588c-.66471-3.00909-3.04019-4.53255-6.17112-3.98707a7.28221,7.28221,0,0,0-5.789,6.13337,28.4492,28.4492,0,0,0-.22262,3.59284q-.00113,3.8134.00062,7.62683C60.37913,194.07622,60.3791,194.37167,60.3791,194.71213Z" fill="#c4c8cb"/><path d="M257.925,178.65449l-2.03215,1.27925c-.36636-.38828-.71016-.76914-1.07124-1.13279-3.50247-3.527-11.13667-3.54433-14.05323,2.11408a8.22552,8.22552,0,0,0,6.07567,11.78092,9.06061,9.06061,0,0,0,8.73866-3.10273c.07724-.08921.16137-.17246.281-.29967l2.04658,1.33122a5.09692,5.09692,0,0,1-1.01672,1.34443,11.0356,11.0356,0,0,1-7.7564,3.291c-4.11647.18981-7.56461-1.15759-10.03789-4.55092A10.639,10.639,0,0,1,240.848,176.6726a12.34082,12.34082,0,0,1,14.89086-.52295A7.9359,7.9359,0,0,1,257.925,178.65449Z" fill="#c4c8cb"/><path d="M209.13663,174.45875h2.57727a.58149.58149,0,0,1,.12128.48663c-.00342,3.54229.01233,7.08481-.02554,10.62675a13.16572,13.16572,0,0,1-.7514,4.65889,7.44841,7.44841,0,0,1-6.10415,4.88942,12.37782,12.37782,0,0,1-4.06415-.006,7.64489,7.64489,0,0,1-6.4672-6.31639,21.146,21.146,0,0,1-.37138-3.87859c-.00974-3.28217-.00384-6.56439-.00423-9.84658,0-.17786,0-.3557,0-.58922h2.53958c.16457.221.08971.49042.09054.74188.01161,3.48217.00886,6.96442.0296,10.44652a14.62866,14.62866,0,0,0,.15018,2.03392,5.46211,5.46211,0,0,0,4.78738,4.89576,6.397,6.397,0,0,0,5.65654-1.47164,5.73215,5.73215,0,0,0,1.753-4.25979c.15982-3.841.05425-7.68379.08236-11.52565C209.13838,175.06745,209.13663,174.7902,209.13663,174.45875Z" fill="#c4c8cb"/><path d="M260.98236,192.38537c.57025-.6497,1.09311-1.24541,1.643-1.87184a16.27471,16.27471,0,0,0,1.46228,1.29518,4.239,4.239,0,0,0,5.7733-.36,3.00154,3.00154,0,0,0-.16912-4.26387,12.78511,12.78511,0,0,0-3.03192-1.92064,15.30923,15.30923,0,0,1-2.68229-1.69919,5.39411,5.39411,0,0,1,3.81156-9.64884,8.26669,8.26669,0,0,1,5.32982,2.74923l-1.854,1.54721a10.35563,10.35563,0,0,0-1.8121-1.29533,3.57758,3.57758,0,0,0-4.4306.44692,2.5511,2.5511,0,0,0-.3004,3.25214,5.99817,5.99817,0,0,0,2.06725,1.79118c1.21255.738,2.50566,1.33063,3.68584,2.13264a5.56986,5.56986,0,0,1,2.37526,6.74574,5.969,5.969,0,0,1-6.13937,3.98248A7.57008,7.57008,0,0,1,260.98236,192.38537Z" fill="#c4c8cb"/><path d="M53.77939,174.41316v2.28414h-4.068v17.99379h-2.665V176.72881H43.54765v-2.2941h3.493v-7.5005h2.623v7.47895Z" fill="#c4c8cb"/><path d="M222.52411,194.71509h-2.64093V176.73262h-3.54239V174.4498h3.49833v-7.51872h2.64617v7.4736h4.07688v2.29275h-4.03806Z" fill="#c4c8cb"/><path d="M107.59553,194.71163H104.947V174.48154h2.63714v2.81929c2.03149-2.56373,4.16972-4.36374,7.61-2.73041l-1.31222,2.13251c-.10194.02334-.14408.0472-.17827.03878A3.95376,3.95376,0,0,0,108.837,178.946a11.397,11.397,0,0,0-1.14295,5.04529c-.1532,3.299-.08953,6.60067-.09848,9.9014C107.59492,194.14873,107.59553,194.40479,107.59553,194.71163Z" fill="#c4c8cb"/><path d="M230.219,174.46445h2.52284v20.24749H230.219Z" fill="#c4c8cb"/><path d="M231.46173,170.39011a2.12329,2.12329,0,0,1-2.14327-2.1874,2.14468,2.14468,0,1,1,4.2886.065A2.11919,2.11919,0,0,1,231.46173,170.39011Z" fill="#c4c8cb"/><path d="M92.68442,129.00078c.19138-6.5834,3.0686-11.66156,9.12174-14.56961a15.5685,15.5685,0,0,1,20.19582,6.419,16.29094,16.29094,0,0,1-8.27337,23.3798c-8.61857,3.2275-20.12363-2.19129-20.94537-13.53113C92.74422,130.16045,92.72014,129.621,92.68442,129.00078Z" fill="#0356a2"/><path d="M194.9128,124.90508H165.37333a17.21229,17.21229,0,0,1,4.09111-7.66713,14.17322,14.17322,0,0,1,10.0149-4.26693,15.59059,15.59059,0,0,1,11.21375,4.0942C193.011,119.15406,194.12464,121.91029,194.9128,124.90508Z" fill="#0356a2"/><path d="M213.47112,128.95038a15.85144,15.85144,0,0,1,11.49662-15.35486,15.56245,15.56245,0,0,1,19.90751,13.59923,16.49231,16.49231,0,0,1-2.52358,11.06359,15.67,15.67,0,0,1-26.57155-.96511A15.90445,15.90445,0,0,1,213.47112,128.95038Z" fill="#0356a2"/><path d="M55.82009,112.98009a15.67555,15.67555,0,0,1,15.8514,15.853c.052,4.66343-1.32316,8.7961-4.80657,11.99317a15.60927,15.60927,0,0,1-24.4568-3.65861,16.01826,16.01826,0,0,1,1.8285-18.88887A15.06685,15.06685,0,0,1,55.82009,112.98009Z" fill="#0356a2"/><path d="M145.98369,184.6623a7.95292,7.95292,0,0,1,8.03-8.22889,8.20278,8.20278,0,0,1-.07824,16.40033A7.89173,7.89173,0,0,1,145.98369,184.6623Z" fill="#0356a2"/><path d="M171.6037,182.47373a7.33484,7.33484,0,0,1,7.42537-6.03046c3.50356.01934,6.88955,2.11506,7.54486,6.03046Z" fill="#0356a2"/><path d="M98.10144,182.48547H83.12782c.15919-3.07727,3.52281-5.88816,7.20036-6.04549A7.52941,7.52941,0,0,1,98.10144,182.48547Z" fill="#0356a2"/><path d="M119.16232,184.58244a8.07435,8.07435,0,0,1,8.03337-8.15112,8.20121,8.20121,0,0,1-.01943,16.39769A8.12794,8.12794,0,0,1,119.16232,184.58244Z" fill="#0356a2"/></svg>