<svg id="Layer_1" data-name="Layer 1" xmlns="http://www.w3.org/2000/svg" viewBox="0 0 300 300"><path d="M275,150.53691C191.147,138.65752,138.46264,181.03623,99.04342,249.066c-6.04285-17.80508-6.29054-34.45445-1.09527-51.1624,7.79425-25.06617,24.1409-43.57524,45.27839-58.3216,3.54146-2.47068,7.07433-4.96138,5.14827-10.91788-7.14959-3.85707-14.7471-.23312-22.1443.35475-7.91562.62906-15.73637,2.61172-23.753,2.103-7.05871-.44795-12.09932-6.19212-12.03079-14.24683,19.82821-7.56734,42.15161-5.74736,62.24445-13.36327.54815-8.51863-4.78172-9.41082-10.02256-8.85093-11.40168,1.21809-22.73207,3.11408-34.08393,4.78518-6.95469,1.0238-13.88583,2.20957-20.84413,3.20666-11.47708,1.64458-21.774-.8971-31.02465-8.1898-7.90667-6.23318-16.285-11.86411-24.32807-17.92949-3.12639-2.35766-6.52-4.68809-7.3878-9.17056,2.13585-4.272,6.452-5.3478,10.386-6.32,49.51324-12.23634,99.10563-14.4252,148.74867-.65361A108.87227,108.87227,0,0,1,210.75425,71.174c8.71648,5.14864,10.38644,10.78378,4.9943,19.8733C208.83528,102.701,198.852,111.69178,189.186,120.933c-.82079.78471-1.69749,1.51094-3.72213,3.304,10.26653-1.3633,19.06268-2.77033,27.91107-3.65317,15.20587-1.51716,29.96661-.02628,43.63029,7.60107C265.7699,133.07743,271.41473,140.34266,275,150.53691Z" fill="#8cbb76"/></svg>