<svg id="Layer_1" data-name="Layer 1" xmlns="http://www.w3.org/2000/svg" viewBox="0 0 300 300"><path d="M232.05352,141.26115v29.39462h-6.01441V153.05388l-.29854-.09943c-3.09528,6.16085-6.19057,12.3217-9.40708,18.7238-3.19159-6.36349-6.288-12.53719-9.38442-18.71091l-.18321.0308V170.665h-6.10764V141.28154h6.86438c2.86748,5.79773,5.7744,11.67516,8.80956,17.8119,3.00016-6.05938,5.91547-11.94743,8.82923-17.83229Z" fill="#050505"/><path d="M111.04657,156.06433a15.099,15.099,0,0,1,15.62465-15.42468c8.631.048,15.03053,6.71757,14.96978,15.6015a15.298,15.298,0,0,1-30.59443-.17682Zm24.39921-.02505c-.2056-4.5113-1.99866-7.69168-6.01869-9.23-5.57182-2.132-11.26606,1.56479-12.07679,7.84988a9.334,9.334,0,0,0,4.07833,9.53085,8.413,8.413,0,0,0,9.27922.37087C134.12436,162.66968,135.426,159.50937,135.44578,156.03928Z" fill="#050505"/><path d="M162.63411,158.429c2.195,4.023,4.39894,8.0623,6.67442,12.23276h-6.92692c-2.59722-4.9352-5.25181-9.97938-7.98534-15.17359a19.68549,19.68549,0,0,0,2.69734-.24457,4.2,4.2,0,0,0,3.48456-4.7301,4.1017,4.1017,0,0,0-3.83569-4.16878c-1.37574-.139-2.777-.02548-4.27775-.02548v24.37355h-6.06914V141.40444c.083-.06163.14818-.15236.213-.1521,4.02675.01608,8.06356-.30442,12.077.198a9.13881,9.13881,0,0,1,7.0904,13.6133,6.7579,6.7579,0,0,1-1.34986,1.83844C163.86919,157.41916,163.27,157.89071,162.63411,158.429Z" fill="#050505"/><path d="M171.84227,141.26069h6.041v3.70289q0,6.81349-.003,13.627a12.28543,12.28543,0,0,0,.40507,3.4c.72541,2.555,2.64985,3.83153,5.50546,3.67345a5.04,5.04,0,0,0,4.78029-4.17964,17.79939,17.79939,0,0,0,.23648-3.29675c-.00563-5.60136-.0026-11.20273-.0026-16.89112h5.99565c.26742.35409.12719.79269.128,1.19826.01078,5.34888.00182,10.6978.01089,16.04669a20.43933,20.43933,0,0,1-.38611,4.04713c-.895,4.48255-3.53995,7.4161-8.00951,8.3667-4.823,1.02576-9.22043.13775-12.5659-3.83744a10.04676,10.04676,0,0,1-2.10711-6.5451C171.78762,154.17123,171.84227,147.768,171.84227,141.26069Z" fill="#050505"/><path d="M63.01524,170.723H56.34361l-7.20937-21.83853-.28487-.02969q-3.63591,10.93788-7.26687,21.86092H35.096l10.19928-29.45689h7.64611C56.28385,151.03489,59.62348,160.80271,63.01524,170.723Z" fill="#da1e37"/><path d="M66.24616,141.18087c4.06157.15968,8.01607-.25718,11.94605.22749,5.65116.69693,8.76061,4.45222,8.395,10.001-.36632,5.55978-4.152,9.11127-9.88989,9.13913l-2.3632-4.83094c.6448-.08011,1.20678-.15264,1.76943-.21938,2.66025-.31558,4.19081-1.87009,4.27089-4.34a4.36177,4.36177,0,0,0-4.08612-4.7876,31.74233,31.74233,0,0,0-4.0282-.02913v24.36462h-6.014Z" fill="#050505"/><path d="M96.62518,146.20133H89.65161v-4.92368h20.05525v4.8812h-6.94714v24.536H96.62518Z" fill="#050505"/><path d="M264.84057,152.96482v2.94361H238.8329v-2.94361Z" fill="#050505"/><path d="M264.846,159.30066v2.94744H238.83108v-2.94744Z" fill="#050505"/><path d="M252.97671,131.30424a12.871,12.871,0,0,1,.03906-2.98249H264.7876a12.19318,12.19318,0,0,1,.05013,2.98249Z" fill="#050505"/><path d="M264.80393,143.88886H253.07928a11.41877,11.41877,0,0,1-.14444-3.00982h11.86909Z" fill="#050505"/><path d="M252.95845,137.63428V134.645h11.89768v2.98927Z" fill="#da1e37"/><path d="M238.81629,143.81973v-2.93614h11.86306v2.93614Z" fill="#050505"/><path d="M238.79629,131.29873v-2.94311h11.84256v2.94311Z" fill="#050505"/><path d="M264.84089,146.869v2.912H253.04034a13.49991,13.49991,0,0,1-.1136-2.912Z" fill="#050505"/><path d="M238.79234,137.59132v-2.917h11.832a13.00547,13.00547,0,0,1,.10041,2.917Z" fill="#da1e37"/><path d="M250.66575,146.878v2.86608H238.81542V146.878Z" fill="#050505"/></svg>