<svg id="Layer_1" data-name="Layer 1" xmlns="http://www.w3.org/2000/svg" viewBox="0 0 300 300"><defs><style>.cls-1{fill:#5a74b8;}.cls-2{fill:#1e4489;}.cls-3{fill:#9ab6df;}</style></defs><path id="Arc_3_Vertically_Centered_Right_66_Tint" data-name="Arc 3, Vertically Centered, Right, 66% Tint" class="cls-1" d="M211.68,221.82l28.42-38.73a47.86,47.86,0,0,1,0-77.37L211.79,67a96,96,0,0,0-.11,154.84"/><path id="Arc_2_Bottom_Left_100_" data-name="Arc 2, Bottom Left, 100%" class="cls-2" d="M96.42,149.61l-47.69,5.26a96,96,0,0,0,134,77.37l-19.26-43.89a47.2,47.2,0,0,1-19.26,4.1,48.2,48.2,0,0,1-47.79-42.84"/><path id="Arc_1_Top_Left_33_Tint" data-name="Arc 1, Top Left, 33% Tint" class="cls-3" d="M163.47,100.45l19.37-43.89a94.67,94.67,0,0,0-38.63-8.11,95.81,95.81,0,0,0-95.48,85.48l47.69,5.26A48,48,0,0,1,144.1,96.35a47.34,47.34,0,0,1,19.37,4.1"/></svg>