<svg id="Layer_1" data-name="Layer 1" xmlns="http://www.w3.org/2000/svg" xmlns:xlink="http://www.w3.org/1999/xlink" viewBox="0 0 300 300"><defs><linearGradient id="linear-gradient" x1="149.01591" y1="242.14396" x2="149.01591" y2="77.86184" gradientUnits="userSpaceOnUse"><stop offset="0" stop-color="#c8c8c8"/><stop offset="1" stop-color="#f2f2f2"/></linearGradient></defs><path d="M250,117.18253a1.76333,1.76333,0,0,1-1.57691,1.1306c-3.73142.67-7.47531,1.2857-11.18168,2.07566-3.7507.79942-7.48189,1.70886-11.18562,2.70391-3.024.81243-6.01349,1.76659-8.98453,2.75885-3.38659,1.13105-6.74833,2.33994-10.0983,3.57607a150.26647,150.26647,0,0,0-15.93508,7.14091,158.50975,158.50975,0,0,0-17.14425,10.00952c-2.77632,1.879-5.508,3.82417-8.24349,5.76259a6.89975,6.89975,0,0,0-.934.958c9.818,29.09616,19.58857,58.05178,29.37837,87.06436a7.82937,7.82937,0,0,0,1.34647.25233q7.4162.01743,14.83249-.006c.3967-.00065.795-.06068,1.1896-.03889.41548.023.82739.11106,1.33607.18445v4.84251a8.39928,8.39928,0,0,1-.94667.1q-34.32995.00625-68.65987.00207c-.78431,0-1.56863,0-2.35892,0a10.89952,10.89952,0,0,1-.22012-4.78855c.446-.582,1.10541-.4356,1.70288-.431,4.54835.03488,9.09649.1048,13.64486.12513,2.02917.00905,4.05867-.07759,6.08822-.10432a8.02354,8.02354,0,0,1,1.02658.11254c.691-.39372.54926-.94831.3559-1.51285-.78527-2.29248-1.576-4.58311-2.35634-6.87726q-1.95792-5.75643-3.90628-11.51613c-1.34581-3.96092-2.70374-7.91775-4.0422-11.88114-1.69214-5.01069-3.357-10.03062-5.05823-15.03821-1.30367-3.83733-2.65889-7.6572-3.96538-11.49358-.76588-2.249-1.47719-4.51649-2.22331-6.77228-.11814-.35714-.29061-.69634-.43643-1.04021-1.19926.49236-7.45914,7.70591-11.05056,12.47973-3.34163,4.44175-6.59715,8.93678-9.62244,13.6033q-4.574,7.05549-8.543,14.45834A158.41169,158.41169,0,0,0,105.06,230.05611c-2.07889,5.13113-3.97245,10.33723-5.99557,15.63705H52.0821a43.48711,43.48711,0,0,1-.083-5.04646H68.71232a10.60489,10.60489,0,0,0,.76018-1.44328c1.26235-3.70875,2.48264-7.43174,3.74193-11.14154,1.5016-4.42365,3.04242-8.834,4.54113-13.25864,1.25793-3.71377,2.46581-7.44446,3.72155-11.159,1.28508-3.80135,2.61888-7.58626,3.89946-11.38909,1.46166-4.34054,2.88193-8.695,4.33272-13.0392.628-1.88054,1.2901-3.74968,1.93186-5.62565q1.06931-3.12579,2.12894-6.25487,1.60582-4.75794,3.20066-9.51959c1.10851-3.30077,2.2039-6.606,3.32639-9.902,1.29227-3.79456,2.62009-7.577,3.90925-11.37264.86373-2.543,1.66989-5.10562,2.53221-7.64916,1.54192-4.54817,3.117-9.08511,4.65854-13.63343,1.06005-3.12778,2.07408-6.27112,3.132-9.39963,1.04314-3.08479,2.12878-6.15522,3.17186-9.24,1.28248-3.79278,2.52779-7.59809,3.81292-11.38995.86214-2.54375,1.776-5.07,2.64787-7.61046q1.65129-4.81164,3.2719-9.63378,1.33359-3.93888,2.65776-7.88094c.32176-.95964.608-1.93142.94351-2.886a2.328,2.328,0,0,1,.6739-.9499c1.94587,4.86069,3.47843,9.79684,5.17589,14.6736,1.70946,4.91124,3.31126,9.8598,4.97505,14.787q2.49276,7.38219,5.01371,14.75489,2.50581,7.38,5.00562,14.762,2.50224,7.38651,5,14.77455c1.6607,4.91469,3.31716,9.8308,5.00737,14.84078a6.80607,6.80607,0,0,0,.973-.32681c4.46831-2.40307,8.87421-4.92978,13.40886-7.2a182.02335,182.02335,0,0,1,19.66673-8.49248c2.48589-.89747,4.94746-1.868,7.45784-2.69035,2.88579-.94526,5.80758-1.78309,8.72462-2.63016,2.45508-.71294,4.90937-1.44027,7.39364-2.03825,3.17233-.7636,6.367-1.44046,9.566-2.08566,2.72324-.54922,5.46033-1.03671,8.20248-1.483,1.91317-.31135,3.84479-.51021,5.76895-.75319,1.6628-.21,3.32533-.42329,4.99076-.61073A1.80091,1.80091,0,0,1,250,117.18253Zm-129.458-4.37095c-.32711.69688-.55929,1.09716-.70941,1.5261-1.32444,3.78451-2.63054,7.57541-3.94954,11.36183-1.23185,3.53623-2.48331,7.06566-3.70665,10.60482-1.12193,3.2458-2.21141,6.50279-3.32744,9.75064-.75808,2.20614-1.53731,4.405-2.30711,6.60714-.76961,2.20159-1.53265,4.40551-2.31027,6.60428-1.48229,4.19131-2.993,8.37272-4.45421,12.5713-1.34506,3.86471-2.62343,7.75256-3.96276,11.6193-1.48359,4.28319-3.00647,8.55277-4.50579,12.83053q-2.032,5.79757-4.04915,11.60031-1.15044,3.308-2.27884,6.62357c-.13884.40643-.27983.82975.19369,1.23368a6.8835,6.8835,0,0,0,.4684-.515c1.3014-1.7775,2.53494-3.6087,3.90763-5.32918,2.8033-3.51357,5.63375-7.00785,8.54076-10.43579,2.877-3.39255,5.74362-6.80751,8.82829-10.00719,4.25434-4.413,8.67891-8.66416,13.08581-12.92765a192.41034,192.41034,0,0,1,15.97329-13.68,10.37217,10.37217,0,0,0,1.12451-1.1824C131.58313,145.38334,126.11817,129.26148,120.542,112.81158Z"/><path d="M248.03182,115.21435a1.7633,1.7633,0,0,1-1.57691,1.1306c-3.73141.67005-7.47531,1.2857-11.18167,2.07566-3.75071.79942-7.4819,1.70887-11.18563,2.70391-3.024.81244-6.01349,1.7666-8.98453,2.75885-3.38658,1.13105-6.74833,2.33994-10.0983,3.57607a150.26945,150.26945,0,0,0-15.93507,7.14091,158.50989,158.50989,0,0,0-17.14426,10.00952c-2.77632,1.879-5.50805,3.82417-8.24349,5.76259a6.9004,6.9004,0,0,0-.934.95806c9.818,29.09615,19.58857,58.05177,29.37837,87.06435a7.82859,7.82859,0,0,0,1.34647.25233q7.41619.01745,14.83249-.006c.3967-.00065.795-.06068,1.1896-.03888.41549.02294.82739.11106,1.33607.18444v4.84251a8.39664,8.39664,0,0,1-.94667.1q-34.32995.00626-68.65987.00207c-.78431,0-1.56862,0-2.35892,0a10.89958,10.89958,0,0,1-.22011-4.78856c.446-.582,1.1054-.4356,1.70287-.431,4.54835.03488,9.09649.10481,13.64486.12513,2.02918.00905,4.05868-.07759,6.08822-.10432a8.02155,8.02155,0,0,1,1.02658.11255c.691-.39372.54926-.94832.3559-1.51285-.78527-2.29249-1.576-4.58311-2.35633-6.87726q-1.95794-5.75645-3.90629-11.51614c-1.34581-3.96092-2.70373-7.91774-4.0422-11.88114-1.69214-5.01068-3.357-10.03062-5.05822-15.0382-1.30367-3.83733-2.6589-7.6572-3.96539-11.49359-.76588-2.249-1.47719-4.51649-2.22331-6.77227-.11813-.35715-.2906-.69635-.43642-1.04022-1.19927.49237-7.45915,7.70591-11.05057,12.47973-3.34163,4.44175-6.59715,8.93678-9.62243,13.6033q-4.574,7.05549-8.543,14.45834a158.41311,158.41311,0,0,0-7.1678,15.03317c-2.07889,5.13112-3.97245,10.33723-5.99557,15.637H50.11393a43.485,43.485,0,0,1-.083-5.04647h16.7132a10.6053,10.6053,0,0,0,.76017-1.44328c1.26235-3.70875,2.48264-7.43174,3.74193-11.14154,1.5016-4.42364,3.04242-8.834,4.54113-13.25863,1.25794-3.71378,2.46581-7.44447,3.72155-11.159,1.28508-3.80134,2.61889-7.58626,3.89946-11.38909,1.46166-4.34054,2.88193-8.695,4.33273-13.0392.628-1.88053,1.2901-3.74968,1.93186-5.62565q1.06929-3.12578,2.12894-6.25487,1.60581-4.75794,3.20066-9.51958c1.10851-3.30078,2.20389-6.606,3.32638-9.902,1.29227-3.79456,2.6201-7.57705,3.90925-11.37264.86373-2.54305,1.66989-5.10562,2.53221-7.64916,1.54193-4.54817,3.117-9.08511,4.65854-13.63342,1.06-3.12779,2.07408-6.27113,3.132-9.39964,1.04314-3.08478,2.12877-6.15522,3.17186-9.24,1.28247-3.79277,2.52778-7.59809,3.81292-11.38995.86213-2.54375,1.776-5.06995,2.64787-7.61046q1.65128-4.81164,3.2719-9.63378,1.33359-3.93888,2.65775-7.88094c.32177-.95963.608-1.93142.94352-2.88605a2.328,2.328,0,0,1,.67389-.94989c1.94587,4.86069,3.47843,9.79683,5.1759,14.6736,1.70946,4.91123,3.31125,9.85979,4.975,14.787q2.49275,7.38219,5.01371,14.75489,2.50581,7.38,5.00561,14.762,2.50225,7.38649,5,14.77454c1.66071,4.91469,3.31717,9.8308,5.00737,14.84078a6.80481,6.80481,0,0,0,.973-.32681c4.46831-2.40307,8.87421-4.92978,13.40886-7.2a182.02351,182.02351,0,0,1,19.66674-8.49248c2.48589-.89747,4.94745-1.868,7.45783-2.69035,2.88579-.94526,5.80758-1.78309,8.72462-2.63016,2.45508-.71293,4.90937-1.44026,7.39364-2.03824,3.17233-.76361,6.367-1.44047,9.566-2.08567,2.72324-.54921,5.46033-1.03671,8.20249-1.483,1.91316-.31135,3.84479-.51021,5.76894-.75319,1.6628-.21,3.32533-.42329,4.99076-.61073A1.80091,1.80091,0,0,1,248.03182,115.21435Zm-129.458-4.37094c-.32711.69687-.55929,1.09715-.7094,1.52609-1.32444,3.78451-2.63055,7.57541-3.94954,11.36183-1.23185,3.53624-2.48332,7.06567-3.70665,10.60482-1.12194,3.2458-2.21142,6.50279-3.32745,9.75064-.75808,2.20614-1.53731,4.405-2.30711,6.60714-.76961,2.20159-1.53265,4.40552-2.31027,6.60429-1.48229,4.1913-2.993,8.37271-4.45421,12.57129-1.34506,3.86471-2.62342,7.75257-3.96276,11.61931-1.48359,4.28318-3.00647,8.55277-4.50579,12.83053q-2.032,5.79756-4.04915,11.6003-1.15043,3.308-2.27883,6.62357c-.13885.40643-.27984.82976.19368,1.23368a6.88354,6.88354,0,0,0,.4684-.515c1.30141-1.77751,2.53494-3.6087,3.90763-5.32918,2.8033-3.51357,5.63376-7.00785,8.54076-10.4358,2.877-3.39255,5.74362-6.80751,8.8283-10.00719,4.25433-4.413,8.6789-8.66416,13.0858-12.92764a192.41018,192.41018,0,0,1,15.97329-13.68,10.37227,10.37227,0,0,0,1.12452-1.1824C129.615,143.41516,124.15,127.29331,118.57384,110.84341Z" fill="url(#linear-gradient)"/></svg>