<svg id="Layer_1" data-name="Layer 1" xmlns="http://www.w3.org/2000/svg" xmlns:xlink="http://www.w3.org/1999/xlink" viewBox="0 0 300 300"><defs><style>.cls-1{fill:#91c450;}.cls-2{fill:#91c552;}.cls-3{fill:url(#linear-gradient);}</style><linearGradient id="linear-gradient" x1="-1591.5" y1="115" x2="-1591.07" y2="115" gradientTransform="matrix(14.94, 0, 0, -12.95, 23351.15, 1573.83)" gradientUnits="userSpaceOnUse"><stop offset="0" stop-color="#91c450"/><stop offset="0.18" stop-color="#7eba52"/><stop offset="0.55" stop-color="#479946"/><stop offset="1" stop-color="#0d703d"/></linearGradient></defs><path class="cls-1" d="M149.6,255.36a30.94,30.94,0,0,0,30.94-30.94h0a30.94,30.94,0,0,0-61.88,0h0a30.94,30.94,0,0,0,30.94,30.94Z"/><path class="cls-2" d="M211.24,44.71h0a30.89,30.89,0,0,0-22,9.28l-63.12,63.37h0a31,31,0,0,1-37.51,2.1l17.83,17.82c1.3,1.3,16.58,16.77,22.15,22.16a31,31,0,0,0,43.32-.5l61.2-61.2a30.94,30.94,0,0,0-21.41-53Z"/><path class="cls-3" d="M88.34,119.34a31,31,0,0,0,37.13-2.11h0l23.82-23.76h0L109.87,54.05A30.35,30.35,0,0,0,89,44.65h0A31,31,0,0,0,57.64,75.21v.38h0a30.66,30.66,0,0,0,9.28,22Z"/></svg>