<svg id="Layer_1" data-name="Layer 1" xmlns="http://www.w3.org/2000/svg" viewBox="0 0 300 300"><title>ARWR_Mark_Light</title><circle cx="133.32153" cy="149.52351" r="22.91872" fill="#4ca950"/><path d="M253.36115,225.768v7.26137H179.38588l1.36151-1.3615c12.48049-6.80754,24.28022-18.60727,33.13-32.44928,13.61508-20.87646,19.51494-44.92976,23.14563-59.90635l.68076-.90767s1.13459,48.56045,2.49609,76.01753C241.78832,219.8681,245.87285,222.818,253.36115,225.768ZM191.41254,67.6061c.22691,20.64955-1.36151,45.38361-6.12679,65.80623-4.08452,17.47269-9.30364,27.91091-14.29583,35.17229-7.03446,10.21131-14.06892,15.43042-21.33029,17.92653a39.01448,39.01448,0,0,1-16.3381,3.40377,40.61833,40.61833,0,1,1,40.3914-44.70285l.45384.45384c5.89987-17.01885,8.84981-41.07216,9.30364-67.62156-10.89207-8.6229-32.22236-15.65736-52.8719-15.65736-22.6918,0-44.47593,10.43823-60.13327,26.54941s-23.82639,37.44147-23.82639,60.814c0,23.14564,9.30363,44.70285,25.41481,61.26786,16.565,17.01885,36.08,26.5494,59.45253,26.5494C196.85856,239.61,234.75388,172.44222,237.25,73.506V67.6061Z" fill="#4681cf"/><path d="M134.45612,237.11386h-2.723c-22.238,0-42.20675-8.8498-59.2256-26.32248-16.3381-17.01886-25.41482-38.57607-25.41482-61.041,0-23.59948,8.169-44.47594,23.59947-60.3602,16.3381-16.79193,38.12223-26.5494,59.90636-26.5494,19.288,0,40.84524,6.3537,52.19114,15.65734-.45383,26.54941-3.63068,49.24121-8.8498,65.57931a41.2556,41.2556,0,1,0-40.84524,46.74511,41.6287,41.6287,0,0,0,16.565-3.40377c8.169-3.17685,15.20351-8.8498,21.55721-18.15344,6.12679-8.84981,10.66515-20.1957,14.29583-35.17229,5.673-23.8264,6.35372-51.05656,6.1268-65.3524h44.70286v5.21912C234.07312,174.25757,195.04323,237.11386,134.45612,237.11386Z" fill="none" stroke="#4681cf" stroke-miterlimit="10" stroke-width="0.25"/><path d="M180.74739,232.34859l.45384-.45383c12.02665-6.58063,23.8264-18.15344,33.35695-32.44928C228.17326,178.569,234.3,154.51572,237.47689,140.67372c.22692,9.9844,1.36151,49.922,2.26918,73.74836,1.58842,5.89986,6.35371,8.8498,13.16125,11.57281v6.35371Z" fill="none" stroke="#4681cf" stroke-miterlimit="10" stroke-width="0.25"/></svg>