<svg id="Layer_1" data-name="Layer 1" xmlns="http://www.w3.org/2000/svg" viewBox="0 0 300 300"><path d="M31.093,163.1652c2.07877-4.20243,3.7448-8.58431,5.57775-12.89278q8.76756-20.60867,17.46178-41.24854c.14349-.33907.3165-.66563.49241-1.0328H67.089l23.58023,55.33367H77.621c-1.67563-4.31642-3.3849-8.71949-5.09675-13.12924H48.52986l-4.98356,13.2498H31.093Zm29.27856-44.07115-8.0067,21.055H68.56152a1.75782,1.75782,0,0,0-.046-.43463C65.83752,132.92363,63.15409,126.135,60.37157,119.09405Z" fill="#2b0288"/><path d="M268.907,187.815c-.56757,2.94892-2.62417,4.05245-5.34744,4.11887-3.44689.084-6.8974.02031-10.39471.02031-.37189-1.02831-.10282-2.02769-.19013-3.18869,2.408,0,4.68222.00923,6.95629-.00406,1.07176-.00626,2.14484-.02889,3.2144-.093a1.7072,1.7072,0,0,0,1.82062-1.86482,1.72822,1.72822,0,0,0-1.82889-1.86714c-2.187-.13877-4.38177.10063-6.569-.167-2.78943-.34129-4.1762-1.76344-4.236-4.425-.08-3.55989,1.07758-5.33883,3.9858-5.67959,3.84426-.45045,7.70975-.09129,11.63825-.20185v3.22968c-2.69115,0-5.33412-.00433-7.97706.00292a13.29763,13.29763,0,0,0-2.09388.077,1.88844,1.88844,0,0,0-1.67654,2.2c.06209,1.2147.81388,1.70727,1.95445,1.71281,1.63307.00793,3.26694-.02541,4.89894.01715a17.15149,17.15149,0,0,1,2.638.26834c1.98227.36361,2.81615,1.7975,3.20686,3.60309Z" fill="#68696d"/><path d="M77.03116,192.29672a1.48489,1.48489,0,0,0-.37738-.16721c-3.63211-.49309-5.64834-2.65652-6.21137-6.1806A15.2858,15.2858,0,0,1,70.6326,179.43a6.45944,6.45944,0,0,1,4.61709-4.80152,13.07753,13.07753,0,0,1,7.03369-.09282,6.45182,6.45182,0,0,1,4.87633,4.87352,13.99217,13.99217,0,0,1,.40683,5.40182c-.58305,4.89571-2.49436,6.78962-7.45416,7.4857Zm6.5097-9.075a10.70675,10.70675,0,0,0-.32676-2.90776,4.50115,4.50115,0,0,0-8.55163-.08539,10.76046,10.76046,0,0,0-.20773,4.9777c.45865,2.74175,1.86425,4.01384,4.48235,4.00557,2.55878-.00809,4.09267-1.37218,4.48814-4.03807C83.5205,184.53146,83.50527,183.8728,83.54086,183.22168Z" fill="#68696d"/><path d="M207.12282,107.96608l-.12029-.2628H218.207c-.08253.09639-.16505.19278-.24623.28946Q212.54309,107.97971,207.12282,107.96608Z" fill="#68696d"/><path d="M135.42346,107.96458l-.12927-.26129h10.92432a.313.313,0,0,0-.32691.29625Q140.65833,107.98247,135.42346,107.96458Z" fill="#68696d"/><path d="M268.68106,142.47048a.26.26,0,0,1,.22593-.03347v1.12045l-.11282.02726L268.69,143.534Q268.68529,143.003,268.68106,142.47048Z" fill="#68696d"/><path d="M268.68106,142.47048q.00433.53215.00889,1.06349c-.14558,7.78444-2.93135,14.26859-10.10971,17.87473-7.75742,3.897-15.86033,3.9068-23.47641-.37611-7.77006-4.3695-10.05369-11.74248-9.469-20.17595.45694-6.59106,3.17565-12.03284,8.928-15.63884,8.09891-5.077,20.56421-4.29166,27.55375,1.79463C266.77869,131.072,268.61813,136.41482,268.68106,142.47048Zm-31.80822.62678a25.15953,25.15953,0,0,0,.39471,3.9813c1.02762,4.85034,4.268,7.817,8.9847,8.19144,4.65618.36967,8.48385-1.90254,10.0798-6.156a16.72733,16.72733,0,0,0-.04189-12.30485c-2.54683-6.47767-11.39353-8.18381-16.25965-3.18622C237.47818,136.24425,236.93127,139.5767,236.87284,143.09726Z" fill="#2b0288"/><path d="M197.48121,154.80641v8.38738c-.10821.07625-.18435.177-.25854.17552-6.99011-.136-14.01211.58486-20.96533-.4853-8.43474-1.29819-13.70183-6.98267-14.64933-15.4455a32.5083,32.5083,0,0,1,.50956-11.39672c1.79437-7.39454,6.61759-11.52377,13.95116-12.92658a46.17991,46.17991,0,0,1,8.92287-.526c4.10279.01775,8.2057.00444,12.42162.00444v8.44017c-.39425.33081-.9289.14149-1.41668.1446-4.854.031-9.70824.0227-14.562.06885a16.77061,16.77061,0,0,0-3.05364.31576c-3.43217.67373-5.16066,3.14233-4.95386,7.14889h24.03377v8.61369h-23.9234c-.6742,3.7517,1.3211,6.58574,4.92528,7.1837a45.46146,45.46146,0,0,0,7.26254.29188C189.59226,154.82063,193.45946,154.80641,197.48121,154.80641Z" fill="#2b0288"/><path d="M135.42346,107.96458q5.23446.01769,10.46814.035c.35347.4573.18365.99072.18566,1.48661.01565,3.87226.00866,7.74462.00866,11.617v1.45859h11.23834v8.23462H146.3954c-.14712.18322-.25375.254-.25374.32481.00138,6.01553-.12648,12.03547.06634,18.0451.13833,4.31144,2.08247,5.94311,6.40843,6.00465,1.57549.02241,3.15158.00361,4.80721.00361,0,2.52612.00148,4.90078-.00207,7.27544-.00041.27037-.02912.54071-.05322.95845-4.4251-.14407-8.81594.41892-13.145-.35785-5.48295-.98381-8.81775-5.15667-8.91008-11.07837-.10107-6.4831-.05121-12.96855-.06685-19.453-.00121-.504-.00016-1.008-.00016-1.67651h-7.506V122.595h7.506c0-4.48195-.00627-8.80957.00857-13.13712C135.25656,108.9606,135.09107,108.42991,135.42346,107.96458Z" fill="#2b0288"/><path d="M94.60632,122.75431c.15564-.069.23721-.13715.31816-.13642,6.951.06276,13.90973-.31067,20.85177.19732,5.42349.39688,7.9717,3.04293,8.243,8.49705.13656,2.74485.02382,5.5021.02382,8.36241H113.72483c0-1.72943.00459-3.48068-.001-5.23191-.00948-2.95637-.70892-3.7212-3.64587-3.89877-1.30233-.07875-2.60982-.07382-3.91508-.10144-.225-.00476-.45051.0177-.80139.0331v32.84147H94.60632Z" fill="#2b0288"/><path d="M207.1228,107.96608q5.41962.01347,10.83793.02666c.326.30218.19583.70012.196,1.05675q.00954,26.73268.00346,53.46535c0,.22824-.02825.45647-.04986.784h-11.074c-.34843-.39179-.17269-.92819-.173-1.4162q-.01479-26.17284.00423-52.34565C206.868,109.015,206.62415,108.41993,207.1228,107.96608Z" fill="#2b0288"/><path d="M45.1165,183.18868a4.333,4.333,0,0,1,2.40127,3.83689c.03619,2.74976-1.17106,4.358-3.89119,4.73124-3.7986.52123-7.6243.09639-11.54645.241V174.46923c4.02535.12767,8.02829-.30268,12.00412.26835a3.73611,3.73611,0,0,1,3.197,2.96727,4.55,4.55,0,0,1-1.22439,4.74937C45.78414,182.70371,45.47361,182.91183,45.1165,183.18868Zm-9.23082,5.544c2.00175,0,3.89981.0435,5.79462-.01624a1.69747,1.69747,0,0,0,1.77791-1.89558A1.75948,1.75948,0,0,0,41.63412,184.81c-1.89069-.07719-3.78684-.0206-5.74844-.0206Zm-.01158-7.14089c2.02018,0,3.88017.062,5.73336-.02351a1.72791,1.72791,0,0,0,1.81148-1.884c.00634-1.0334-.4572-1.83523-1.45883-1.89426-2.01845-.11894-4.04883-.03541-6.086-.03541Z" fill="#68696d"/><path d="M193.47939,174.53827h3.66609v17.36967h-4.21091c-2.31736-4.05978-4.6672-8.17644-7.19464-12.60423v12.55191a24.1505,24.1505,0,0,1-3.831.11324V174.5761h4.72046c2.20163,3.85247,4.43882,7.76716,6.85,11.98631Z" fill="#68696d"/><path d="M96.69081,191.97631a11.96083,11.96083,0,0,1-.02987-3.03626,4.79053,4.79053,0,0,1,2.0892-.16687c2.65726-.048,5.31576-.03921,7.97236-.1072a1.65974,1.65974,0,0,0,1.78939-1.87192,1.68151,1.68151,0,0,0-1.80311-1.85858c-2.14026-.12862-4.28633.09156-6.42677-.15363-3.02293-.34625-4.40865-1.833-4.445-4.8538-.03848-3.195,1.33192-4.995,4.33136-5.29806,3.75294-.37924,7.52405-.08077,11.33989-.15591a12.94954,12.94954,0,0,1,.12711,2.9511c-.49041.42024-.97708.25617-1.42084.25917-2.7053.0183-5.41118-.01586-8.116.02357-1.56353.0228-2.36059.82184-2.325,2.18015.03258,1.24222.71179,1.76153,2.30585,1.80524a50.68252,50.68252,0,0,1,6.5653.1668c2.67054.42132,3.72782,1.70225,3.844,4.61718.10934,2.74389-1.14531,4.63567-3.49741,5.18966a10.16556,10.16556,0,0,1-2.21429.29579C103.4313,191.99379,100.08521,191.97631,96.69081,191.97631Z" fill="#68696d"/><path d="M243.32663,174.49407v3.12887c-2.13352,0-4.22084-.03876-6.30611.0102-2.39216.05617-3.59043,1.29477-3.64433,3.82654h9.92673v3.20222h-9.88973c-.25556,2.557.66972,3.76173,2.9897,4.09139,2.26309.32161,4.552-.03025,6.89541.21834v3.02781c-3.19776-.192-6.41124.43-9.55411-.48918a6.1265,6.1265,0,0,1-4.29726-4.58716,13.97736,13.97736,0,0,1,.07273-7.45853,6.26782,6.26782,0,0,1,5.69135-4.83A74.456,74.456,0,0,1,243.32663,174.49407Z" fill="#68696d"/><path d="M171.9381,174.502v3.1205c-2.09278,0-4.171-.03546-6.24747.00933-2.38288.05141-3.501,1.17007-3.73658,3.7792h9.93463v3.27345h-9.88024c-.206,2.522.74462,3.74335,3.03956,4.06874,2.25914.32031,4.54386-.01861,6.8741.207v2.98553c-3.13866-.06795-6.31124.45567-9.40011-.39273-2.88768-.79314-4.288-3.00531-4.71533-5.83454a14.5975,14.5975,0,0,1,.29343-6.10375,6.344,6.344,0,0,1,5.72084-4.97586A69.47785,69.47785,0,0,1,171.9381,174.502Z" fill="#68696d"/><path d="M135.1159,188.95451v3.03274c-3.11694-.11026-6.19849.365-9.20337-.35556-2.76167-.66225-4.26948-2.68045-4.86314-5.39527a14.306,14.306,0,0,1,.04518-5.96775c.70072-3.42707,2.673-5.211,6.17982-5.6685a11.29006,11.29006,0,0,1,1.38913-.115c2.092-.01223,4.18409-.00534,6.29962-.00534a7.92748,7.92748,0,0,1,.18479,3.01971c-1.76295,0-3.46364-.001-5.16432.00022-3.51777.00247-4.85941,1.28359-5.04685,4.84366a12.49276,12.49276,0,0,0,.23088,3.88784,3.09864,3.09864,0,0,0,2.81343,2.49954C130.2989,189.05737,132.632,188.74424,135.1159,188.95451Z" fill="#68696d"/><path d="M220.66492,174.47756v3.022c-1.86063,0-3.66346-.00618-5.46621.00139-2.94012.01235-4.2621,1.20931-4.59589,4.10032a14.5981,14.5981,0,0,0,.02265,4.02856,3.21719,3.21719,0,0,0,3.16518,3.12252c2.25742.31566,4.54007.00411,6.87028.18857v3.0034c-3.13375-.06379-6.299.43837-9.39184-.38568a6.19309,6.19309,0,0,1-4.51657-4.87132,14.15025,14.15025,0,0,1,.08845-7.05277,6.34336,6.34336,0,0,1,5.83353-5.01486C215.314,174.30705,217.957,174.55533,220.66492,174.47756Z" fill="#68696d"/><path d="M144.64572,174.543h3.73333v17.35916h-3.73333Z" fill="#68696d"/><path d="M60.92453,191.89958H57.22872V174.57807a15.82856,15.82856,0,0,1,3.69581-.009Z" fill="#68696d"/></svg>