<?xml version="1.0" encoding="utf-8"?>
<!-- Generator: Adobe Illustrator 28.3.0, SVG Export Plug-In . SVG Version: 6.00 Build 0)  -->
<svg version="1.1" id="Layer_1" xmlns="http://www.w3.org/2000/svg" xmlns:xlink="http://www.w3.org/1999/xlink" x="0px" y="0px"
	 viewBox="0 0 300 300" style="enable-background:new 0 0 300 300;" xml:space="preserve">
<style type="text/css">
	.st0{fill:#C63663;}
</style>
<g>
	<path class="st0" d="M172.3,90.7c5.5-6.6,8.2-13.7,8.5-21.6c0-0.3,0-0.5,0-1.1c0-3-0.5-6.3-1.4-9.9c-0.5-1.6-0.8-3.3-1.6-4.9
		c-0.3-0.5-0.5-1.1-0.5-1.4c-2.2-4.7-5.2-8.2-8.8-11.2c-1.4-1.1-2.7-2.2-4.1-3c-5.2-3.3-11.2-4.9-17.8-4.9c-7.1,0-13.7,2.2-19.5,6
		c-0.3,0-0.3,0.3-0.5,0.3c-0.5,0.3-0.8,0.5-1.4,1.1c-9.9,7.9-14.5,20-12.9,32.1c0,0.5,0.3,1.1,0.3,1.6s0.3,0.8,0.3,1.4
		c0.3,1.4,0.8,2.7,1.4,4.1c0.3,0.5,0.3,1.1,0.5,1.6c1.4,3.6,3.6,7.1,6.3,10.4c9.6,11.5,9.9,23.3,1.1,32.3c-9,9-20.5,8.5-32.1-1.4
		c-11-9.6-23.3-11.5-36.4-6c-13.4,5.8-20.5,16.7-20.8,31.2c-0.3,15.1,6.3,26.6,20.3,32.6c13.2,5.8,26,4.1,37.3-5.8
		c12.1-10.4,21.6-10.7,33.4-0.3c13.7,12.3,34,12.1,46.9-0.3c13.4-12.6,14.2-34,2.5-48.5C161.9,112.6,161.9,103.6,172.3,90.7z
		 M163.3,165.5c-9.3,9.6-22.5,9.3-34.2-0.5c-14.5-12.3-30.4-11.8-45.8,1.4c-9,7.7-20.5,8.5-29.6,1.9c-9.3-6.6-12.6-17.8-8.8-28.5
		c4.1-10.4,14.2-17.3,25.5-14.8c5.2,1.1,10.4,4.4,14.8,7.9c11,8.5,22.7,10.4,35.1,4.7c12.3-5.8,18.1-16.2,18.4-29.6
		c0-2.5,0-4.7-0.5-6.8c-1.4-6.6-5.2-12.3-9.6-17.8c-11.2-13.7-5.2-33.7,11.2-38.6c9.9-3,20.3,0.8,26,9.3c6.6,9.6,6.3,20.5-1.6,29.6
		c-4.9,5.5-8.2,11.2-9.6,17.5c-1.1,4.4-0.8,9,0.5,14.2c1.4,5.5,4.7,11,8.2,15.6C172.6,142.7,172.9,155.6,163.3,165.5z"/>
	<path class="st0" d="M148.2,197.5c-19.5,0-34.5,15.1-35.1,34.5c-0.3,19.5,15.1,35.3,34,35.3c19.5,0,35.3-15.6,35.1-35.3
		C182.2,213.2,166.9,197.5,148.2,197.5z M147.9,257c-12.9,0-23.8-11-23.8-24.1c0-13.4,10.7-24.4,23.6-24.4c12.9,0,24.1,11,24.1,24.1
		C172.1,244.9,160.6,256.7,147.9,257z"/>
	<path class="st0" d="M233.2,115.1c-19.5,0-34.5,15.1-35.1,34.5c-0.3,19.5,15.1,35.3,34,35.3c19.5,0,35.3-15.6,35.1-35.3
		C267.4,131,252.1,115.3,233.2,115.1z M233.2,174.5c-12.9,0-23.8-11-23.8-24.1c0-13.4,10.7-24.4,23.6-24.4c12.9,0,24.1,11,24.1,24.1
		C257,162.7,245.5,174.5,233.2,174.5z"/>
</g>
</svg>
