<svg id="Layer_1" data-name="Layer 1" xmlns="http://www.w3.org/2000/svg" viewBox="0 0 300 300"><defs><style>.cls-1{fill:#e4ad3b;fill-rule:evenodd;}</style></defs><path id="Layer" class="cls-1" d="M229.22,154.6c.05.4.08.82.1,1.22s0,.84,0,1.26a11.43,11.43,0,0,1-.16,1.31,16.93,16.93,0,0,1-.7,2.74c-.87,2.15-1.9,4.23-2.94,6.3a14.37,14.37,0,0,1-1.15,1.79,21,21,0,0,1-1.42,1.84c-1.13,1.28-2.22,2.58-3.46,3.75-2.6,2.46-5.25,4.87-8,7.13-3.26,2.62-6.63,5.1-10.06,7.49-8,5.61-16.2,11-24.29,16.5l13.33,7.88c3.19,1.87,6.34,3.82,9.5,5.73.46.28.92.57,1.37.88a16.16,16.16,0,0,1,1.32,1c.48.42.93.89,1.37,1.36a9.6,9.6,0,0,1,.64.79,9.74,9.74,0,0,1,.56.86,5.88,5.88,0,0,1,.44.91,7,7,0,0,1,.28,1,5.87,5.87,0,0,1,.1,1,4.62,4.62,0,0,1-.11,1.05,6,6,0,0,1-.35,1.09,6.41,6.41,0,0,1-.64,1.11,8.26,8.26,0,0,1-1,1.13,16.34,16.34,0,0,1-1.38,1.11c-.55.39-1.12.76-1.69,1.09a19.63,19.63,0,0,1-2,1c-3,1.3-6.12,2.49-9.18,3.74a96.65,96.65,0,0,1-12.06,3.6c-5.74,1.51-11.52,2.85-17.31,4.12-4.92,1.07-9.84,2.12-14.81,2.89-4.25.67-8.54,1.11-12.83,1.45a17.24,17.24,0,0,1-3.73-.14c-2.52-.34-5-.84-7.5-1.39a12.22,12.22,0,0,1-2-.71,21,21,0,0,1-1.92-.91,15.44,15.44,0,0,1-1.77-1.11,11.33,11.33,0,0,1-2.9-3,6.31,6.31,0,0,1-.54-.9,9.57,9.57,0,0,1-.45-1,10.17,10.17,0,0,1-.36-1.06,10.46,10.46,0,0,1-.24-1.14,8,8,0,0,1-.13-1.2c0-.43,0-.87,0-1.3,0-.16,0-.33,0-.49a13.51,13.51,0,0,1,.13-1.44,15.44,15.44,0,0,1,.54-2.33,26,26,0,0,1,1.21-3.18,35,35,0,0,1,2.15-3.94,51.6,51.6,0,0,1,3.33-4.69,69.75,69.75,0,0,1,4.81-5.35,80.31,80.31,0,0,1,6.55-6c6-4.82,12.32-9.33,18.49-14l-17.76-10c-7.9-4.44-15.89-8.72-23.89-13s-16-8.36-24-12.54l-1-.5-.1-.05.07,0c.2.11.82.43.61.33-.57-.31-1.17-.59-1.74-.92-1.3-.76-2.61-1.53-3.87-2.37a20.91,20.91,0,0,1-2.09-1.55c-.65-.53-1.26-1.11-1.86-1.7a9.16,9.16,0,0,1-.76-.89,8,8,0,0,1-.62-.9,6.07,6.07,0,0,1-.41-.9,3.57,3.57,0,0,1-.21-.9,11.31,11.31,0,0,1,0-1.84,16.53,16.53,0,0,1,.38-2c.18-.68.4-1.35.64-2a18.52,18.52,0,0,1,.84-2.06c1.27-2.54,2.57-5.07,4-7.55.8-1.42,1.66-2.81,2.59-4.15,3.69-5.36,7.29-10.81,11.28-16,9-11.62,18.31-23,27.66-34.31,2.35-2.85,4.87-5.59,7.47-8.24q7.29-7.44,14.91-14.58a44.58,44.58,0,0,1,4-3.16c.77-.58,1.58-1.12,2.39-1.63s1.56-.95,2.37-1.35a18.51,18.51,0,0,1,2.26-.93,17.11,17.11,0,0,1,2.21-.58,18.43,18.43,0,0,1,2.11-.27,19,19,0,0,1,2,0,9.33,9.33,0,0,1,1.17.08,13.94,13.94,0,0,1,1.54.3,16.59,16.59,0,0,1,1.79.64,8.89,8.89,0,0,1,1,.5,10.43,10.43,0,0,1,1,.64c.34.26.68.52,1,.81s.68.64,1,1a13.62,13.62,0,0,1,1,1.18c.34.45.68.92,1,1.4s.64,1.07.93,1.63.61,1.25.87,1.89.57,1.43.81,2.15a23.65,23.65,0,0,1,.75,2.44c.81,3.63,1.69,7.26,2.26,10.93q1.13,7.08,1.69,14.22c.53,6.83.81,13.68,1,20.53.13,4.62,0,9.23,0,13.85l24.27,8.43c3.61,1.25,7,3.08,10.48,4.61a69.07,69.07,0,0,1,8.26,4.65A35.13,35.13,0,0,1,223,143.6a15.85,15.85,0,0,1,1.41,1.31,12.49,12.49,0,0,1,1.11,1.3,27.66,27.66,0,0,1,1.6,2.44A19.37,19.37,0,0,1,228.3,151a19.7,19.7,0,0,1,.74,2.37A9.8,9.8,0,0,1,229.22,154.6Zm-99.54-54.51c-3.43,3.55-6.8,7.17-10.19,10.77l1.2,0,3.71.29,15.31,2.52,16.41,3.77-1.38-14.73c-.25-2.77-.47-5.54-.79-8.3-.23-2.13-.53-4.26-.86-6.38-.14-.87-.3-1.73-.51-2.58a14.9,14.9,0,0,0-.57-1.75,3.51,3.51,0,0,0-.33-.6,3.1,3.1,0,0,0-.35-.46,3.15,3.15,0,0,0-.37-.36,2.45,2.45,0,0,0-.37-.26,2.59,2.59,0,0,0-.38-.17,1.8,1.8,0,0,0-.39-.08,3.84,3.84,0,0,0-.76,0,3.26,3.26,0,0,0-.69.22,4.48,4.48,0,0,0-.62.31,8.5,8.5,0,0,0-.77.57c-.34.25-.67.51-1,.78-.9.79-1.83,1.54-2.67,2.38Q136.45,93,129.68,100.09Zm68.75,59.76a1.75,1.75,0,0,0,0-.46,1.7,1.7,0,0,0,0-.45,4.22,4.22,0,0,0-.24-.86,4,4,0,0,0-.44-.81,5.1,5.1,0,0,0-.58-.74,16.74,16.74,0,0,0-1.32-1.21,8.21,8.21,0,0,0-1-.73c-3.09-1.83-6.13-3.75-9.3-5.4s-6.66-3.11-10-4.65l-1.46,14a55.07,55.07,0,0,1-1.46,7.16c-.42,1.74-1,3.47-1.52,5.18a23.61,23.61,0,0,1-1,2.4,22.31,22.31,0,0,1-1.09,2.05A14.17,14.17,0,0,1,168,177a8.89,8.89,0,0,1-1,1.12,14.31,14.31,0,0,1-1.35,1.12,7.91,7.91,0,0,1-.81.52c-.3.16-.6.31-.9.44a8.2,8.2,0,0,1-1,.35,10.48,10.48,0,0,1-1.11.25,10.24,10.24,0,0,1-1.22.11,9.81,9.81,0,0,1-1.33,0,11.8,11.8,0,0,1-1.45-.22,14.16,14.16,0,0,1-1.55-.41,15.14,15.14,0,0,1-1.54-.58,13.35,13.35,0,0,1-1.56-.78,28.08,28.08,0,0,1-3.05-2,62.49,62.49,0,0,1-5.52-4.88,80.8,80.8,0,0,1-5.52-6.32c-2-2.5-3.92-5.09-5.75-7.73-3.89-5.63-7.78-11.26-11.42-17.07-3.15-5.06-6-10.33-8.93-15.49l-.09-.2-1.36-3.26L111,120,99.74,131.52c-4.18,4.27-8.39,8.48-12.55,12.76a18.9,18.9,0,0,0-1.44,1.65,18.18,18.18,0,0,0-1,1.59,4.94,4.94,0,0,0-.39.84,4.61,4.61,0,0,0-.22.83,2.55,2.55,0,0,0,0,.78,3.51,3.51,0,0,0,.21.72,3.87,3.87,0,0,0,.33.64,4.44,4.44,0,0,0,.42.55c.26.27.53.53.8.79.12.1.26.18.38.28.4.31.78.65,1.19.94,1.3.92,2.58,1.89,3.94,2.73,7.22,4.41,14.53,8.68,21.79,13L145.33,188l7.55,4.33,17.76-11.42c3.05-2,6.14-3.87,9.14-5.93,4.35-3,8.59-6.09,12.89-9.14a36.61,36.61,0,0,0,3.5-3,18.2,18.2,0,0,0,1.47-1.57,3.84,3.84,0,0,0,.5-.76A4.17,4.17,0,0,0,198.43,159.85ZM177.6,213.1l-5.8-3.69L156.49,219.8c-3.62,2.45-7,5.21-10.52,7.82l-1.7,1.5-.39.42.84,0,27-2.12c6.92-.54,13.84-1,20.77-1.54a1.57,1.57,0,0,0,.37-.05l.26-.07a1,1,0,0,0,.17-.12.28.28,0,0,0,.09-.13,1,1,0,0,0,0-.24.12.12,0,0,0,0-.1c-.34-.46-.68-.92-1.06-1.34a18.51,18.51,0,0,0-1.5-1.44c-1.19-1-2.39-2-3.65-2.9-1.75-1.27-3.57-2.45-5.37-3.64C180.45,214.88,179,214,177.6,213.1Zm-58.21-92.53-.07.26v.69l.16,1,.26,1,1.13,3.33,5.27,10.44a73.91,73.91,0,0,0,4,6.62c2.33,3.62,4.8,7.16,7.19,10.74,1.74,2.6,3.8,5,5.78,7.4,1.1,1.34,2.26,2.63,3.45,3.89.54.57,1.12,1.11,1.72,1.64s1.1.94,1.68,1.37A17.3,17.3,0,0,0,151.6,170a16.19,16.19,0,0,0,1.57.75,5.94,5.94,0,0,0,.75.23,5.88,5.88,0,0,0,.73.14,4.1,4.1,0,0,0,.7,0,4.93,4.93,0,0,0,.66-.07,3.58,3.58,0,0,0,.54-.14l.45-.2a3.77,3.77,0,0,0,.39-.26,2,2,0,0,0,.34-.3,5.14,5.14,0,0,0,.5-.72,3.88,3.88,0,0,0,.32-.82,5.1,5.1,0,0,0,.19-.88,6.86,6.86,0,0,0,.09-.9c0-.53.09-1.06.08-1.59-.11-4.23-.2-8.46-.42-12.68-.29-5.4-.74-10.8-1.1-16.2l-.61-.27L150,133.18l-10.37-4.42-15.64-6.68-2-.9-1.48-.57-.58-.17-.19,0h-.13l-.09,0Z"/></svg>