<svg id="Layer_1" data-name="Layer 1" xmlns="http://www.w3.org/2000/svg" xmlns:xlink="http://www.w3.org/1999/xlink" viewBox="0 0 300 300"><defs><style>.cls-1{fill:#fff;}.cls-1,.cls-2,.cls-3,.cls-5{fill-rule:evenodd;}.cls-2{fill:#ccf5f0;}.cls-3{fill:#66decf;}.cls-4{mask:url(#mask);}.cls-5{fill:#00c9ad;}</style><mask id="mask" x="9.35" y="17.26" width="140.65" height="217.73" maskUnits="userSpaceOnUse"><g id="mask-2"><polygon id="path-1" class="cls-1" points="9.35 17.26 150 17.26 150 234.99 9.35 234.99 9.35 17.26"/></g></mask></defs><path id="Fill-1" class="cls-2" d="M150,263.37A122.93,122.93,0,0,1,52.55,235a122.9,122.9,0,0,0,193.7,1A122.95,122.95,0,0,1,150,263.37"/><path id="Fill-3" class="cls-2" d="M290.65,140.94c0-68.31-55.16-123.68-123.19-123.68A124.05,124.05,0,0,0,150,18.5,123,123,0,0,1,229.8,65a124,124,0,0,1,16.45,171,123.61,123.61,0,0,0,44.4-95.07"/><path id="Fill-5" class="cls-3" d="M229.8,65a123.51,123.51,0,0,1,25.94,75.93c0,62.35-46,113.92-105.74,122.43A122.95,122.95,0,0,0,246.25,236,124,124,0,0,0,229.8,65"/><g class="cls-4"><path id="Fill-7" class="cls-2" d="M71,64A123,123,0,0,1,150,18.5a124,124,0,0,0-17.45-1.24c-68,0-123.2,55.37-123.2,123.68A123.59,123.59,0,0,0,52.55,235,124,124,0,0,1,71,64"/></g><path id="Fill-10" class="cls-3" d="M150,263.37C90.23,254.86,44.26,203.29,44.26,140.94A123.46,123.46,0,0,1,71,64,124,124,0,0,0,52.55,235,122.93,122.93,0,0,0,150,263.37"/><path id="Fill-12" class="cls-3" d="M71,64A122.79,122.79,0,0,1,229.8,65,123,123,0,0,0,150,18.5,123,123,0,0,0,71,64"/><path id="Fill-14" class="cls-5" d="M71,64a123.46,123.46,0,0,0-26.75,76.95c0,62.35,46,113.92,105.74,122.43,59.77-8.51,105.74-60.08,105.74-122.43A123.46,123.46,0,0,0,229.8,65,122.79,122.79,0,0,0,71,64m154.9,86A75.91,75.91,0,1,1,150,73.8,76.06,76.06,0,0,1,225.91,150"/></svg>