<svg id="Layer_1" data-name="Layer 1" xmlns="http://www.w3.org/2000/svg" viewBox="0 0 300 300"><title>ATOS_Mark_Light</title><rect x="65.41015" y="54.23858" width="160.69439" height="202.51686" fill="#fdfdfe"/><path d="M226.559,54.03429V256.97638H163.07212a47.26652,47.26652,0,0,1-5.68938-6.98866c-6.96869-10.069-12.2642-21.04222-17.24057-32.178-5.99157-13.40756-11.268-27.09968-16.07878-40.973-.12526-.36121-.27211-.71494-.479-1.25537l-6.36154,2.11879c10.03979,27.55046,20.07059,54.87,36.78236,79.25387H64.37692V54.16156h99.08141c-.31217.64176-1.00469.75606-1.5367,1.03057-17.62043,9.09233-34.416,19.47625-49.77073,32.07425C99.315,97.79775,87.77531,109.533,79.102,123.84056c-6.078,10.0263-10.21652,20.75484-11.418,32.48716a68.38656,68.38656,0,0,0,5.8427,34.83824,93.61459,93.61459,0,0,0,6.48215,12.15815c.70095,1.12038,1.45668,2.20645,2.30669,3.48829,1.83937-1.27066,3.58213-2.47456,5.37783-3.715-1.51259-2.49021-3.00826-4.81167-4.36564-7.21142-6.08933-10.76554-9.633-22.248-9.28382-34.7168.3505-12.5162,4.5557-23.84767,11.08051-34.38918,8.35886-13.5046,19.38665-24.592,31.64267-34.50839,18.92933-15.31574,39.76-27.53878,61.85008-37.67548a4.12156,4.12156,0,0,1,1.55537-.52724c5.52042-.0383,11.04121-.02375,16.81206-.02375a3.69988,3.69988,0,0,1-1.74011,1.20083c-20.27986,10.32663-39.74541,21.96861-57.74064,35.95881-13.26269,10.31093-25.5007,21.66876-35.26668,35.46267-6.0683,8.57115-10.82214,17.7818-13.20044,28.09577a54.591,54.591,0,0,0,3.6216,35.8675c7.35245,16.06588,19.73144,27.73346,33.73067,38.23978,1.33822-1.82323,2.5982-3.53985,3.92737-5.35073-3.47425-2.63837-6.78372-5.22564-9.938-8.00325-7.6596-6.745-14.45783-14.22185-19.432-23.20472-8.83317-15.95193-8.7617-32.13712-1.09325-48.4701,5.12833-10.92276,12.503-20.229,20.88531-28.78534,13.81314-14.1,29.637-25.63867,46.28434-36.098a403.80454,403.80454,0,0,1,44.50017-24.166,7.87835,7.87835,0,0,1,3.5159-.7739C218.84768,54.06229,222.65725,54.03429,226.559,54.03429ZM193.75362,198.53653a2.404,2.404,0,0,0-1.4496-.05729,23.21272,23.21272,0,0,1-7.10978-.18365c-3.94088-.79577-5.82941-3.04777-5.88975-7.05361a13.04284,13.04284,0,0,1,.26291-3.304q3.15122-12.98808,6.28163-25.98117c.61657-2.55735,1.21142-5.11992,1.83185-7.74625a55.71358,55.71358,0,0,0-6.4067-1.455c-2.75628,11.28554-5.58515,22.38435-8.13883,33.54618-1.12974,4.93793-.79227,9.81342,2.61208,14.03714,3.92947,4.87516,12.86262,5.85808,18.86453,4.32045C194.3232,202.59942,194.03333,200.53175,193.75362,198.53653Zm-9.60868-66.25364c-7.09513-6.08018-15.322-8.97062-24.14257-10.34527a85.10744,85.10744,0,0,0-26.37454.13211l1.18551,6.40752c.63673-.02818,1.07743-.01562,1.50924-.0716a82.89557,82.89557,0,0,1,19.22413-.2975c6.83365.70483,13.42341,2.28422,19.4241,5.77547,1.66484.96863,3.2146,2.13526,4.911,3.274Zm-10.31749,11.56577a53.78523,53.78523,0,0,1-7.23419,4.73162c-4.53045,2.39338-9.26687,4.06433-14.486,3.35894-6.29212-.8504-10.61066-4.64552-13.98367-9.75165-.32286-.48876-.46-1.137-1.16905-1.45548-1.84107.86642-3.72194,1.75156-5.557,2.61512a4.28323,4.28323,0,0,0,.94211,2.10464c5.04337,7.8767,11.82947,13.05763,21.52366,13.2478,9.1824.18015,16.7195-4.05721,23.7309-9.47035.06708-.05178.05673-.204.10307-.39316Zm23.33269,73.14724c-10.58238,3.57887-19.40042,3.61557-27.962.103l-3.29168,5.3935c6.07253,5.50675,29.07514,4.642,34.13042.00644C199.08519,220.67844,198.11855,218.8293,197.16014,216.9959Zm-21.11991,26.33636h15.20718v-6.50164H176.04023Z" fill="#7d5697"/><path d="M193.75362,198.53653c.27971,1.99522.56958,4.06289.85834,6.12278-6.00191,1.53763-14.93506.55471-18.86453-4.32045-3.40435-4.22372-3.74182-9.09921-2.61208-14.03714,2.55368-11.16183,5.38255-22.26064,8.13883-33.54618a55.71358,55.71358,0,0,1,6.4067,1.455c-.62043,2.62633-1.21528,5.1889-1.83185,7.74625q-3.13242,12.99261-6.28163,25.98117a13.04284,13.04284,0,0,0-.26291,3.304c.06034,4.00584,1.94887,6.25784,5.88975,7.05361a23.21272,23.21272,0,0,0,7.10978.18365A2.404,2.404,0,0,1,193.75362,198.53653Z" fill="#fdfdfe"/><path d="M184.14494,132.28289l-4.26318,4.87473c-1.69635-1.13874-3.24611-2.30537-4.911-3.274-6.00069-3.49125-12.59045-5.07064-19.4241-5.77547a82.89557,82.89557,0,0,0-19.22413.2975c-.43181.056-.87251.04342-1.50924.0716l-1.18551-6.40752a85.10744,85.10744,0,0,1,26.37454-.13211C168.823,123.31227,177.04981,126.20271,184.14494,132.28289Z" fill="#fdfdfe"/><path d="M173.82745,143.84866l3.86987,4.98748c-.04634.18919-.036.34138-.10307.39316-7.0114,5.41314-14.5485,9.6505-23.7309,9.47035-9.69419-.19017-16.48029-5.3711-21.52366-13.2478a4.28323,4.28323,0,0,1-.94211-2.10464c1.835-.86356,3.71591-1.7487,5.557-2.61512.70908.31851.84619.96672,1.16905,1.45548,3.373,5.10613,7.69155,8.90125,13.98367,9.75165,5.21911.70539,9.95553-.96556,14.486-3.35894A53.78523,53.78523,0,0,0,173.82745,143.84866Z" fill="#fdfdfe"/><path d="M197.16014,216.9959c.95841,1.8334,1.925,3.68254,2.8767,5.503-5.05528,4.63557-28.05789,5.50031-34.13042-.00644l3.29168-5.3935C177.75972,220.61147,186.57776,220.57477,197.16014,216.9959Z" fill="#fdfdfe"/><path d="M176.04023,243.33226v-6.50164h15.20718v6.50164Z" fill="#fdfdfe"/></svg>