<svg id="Layer_1" data-name="Layer 1" xmlns="http://www.w3.org/2000/svg" xmlns:xlink="http://www.w3.org/1999/xlink" viewBox="0 0 300 300"><defs><linearGradient id="linear-gradient" x1="149.0956" y1="95.79371" x2="187.56417" y2="152.48424" gradientUnits="userSpaceOnUse"><stop offset="0" stop-color="#43ab71"/><stop offset="1" stop-color="#1e502e"/></linearGradient><linearGradient id="linear-gradient-2" x1="147.25265" y1="97.04428" x2="185.72123" y2="153.73482" xlink:href="#linear-gradient"/><linearGradient id="linear-gradient-3" x1="145.33428" y1="98.34604" x2="183.80285" y2="155.03657" xlink:href="#linear-gradient"/><linearGradient id="linear-gradient-4" x1="147.11083" y1="57.40655" x2="196.20888" y2="148.51634" xlink:href="#linear-gradient"/><linearGradient id="linear-gradient-5" x1="125.82738" y1="90.24445" x2="167.33295" y2="156.04596" xlink:href="#linear-gradient"/><linearGradient id="linear-gradient-6" x1="-5337.28761" y1="-4181.17496" x2="-5298.81904" y2="-4124.48442" gradientTransform="translate(1066.78534 -6489.27241) rotate(-119.67252)" xlink:href="#linear-gradient"/><linearGradient id="linear-gradient-7" x1="-5339.13056" y1="-4179.92439" x2="-5300.66198" y2="-4123.23385" gradientTransform="translate(1066.78534 -6489.27241) rotate(-119.67252)" xlink:href="#linear-gradient"/><linearGradient id="linear-gradient-8" x1="-5341.04893" y1="-4178.62263" x2="-5302.58036" y2="-4121.9321" gradientTransform="translate(1066.78534 -6489.27241) rotate(-119.67252)" xlink:href="#linear-gradient"/><linearGradient id="linear-gradient-9" x1="-5339.27238" y1="-4219.56212" x2="-5290.17433" y2="-4128.45233" gradientTransform="translate(1066.78534 -6489.27241) rotate(-119.67252)" xlink:href="#linear-gradient"/><linearGradient id="linear-gradient-10" x1="-5360.55583" y1="-4186.72422" x2="-5319.05026" y2="-4120.92271" gradientTransform="translate(1066.78534 -6489.27241) rotate(-119.67252)" xlink:href="#linear-gradient"/><linearGradient id="linear-gradient-11" x1="1114.81887" y1="-6640.61759" x2="1153.28744" y2="-6583.92706" gradientTransform="translate(-5041.49432 -3981.39688) rotate(119.04395)" xlink:href="#linear-gradient"/><linearGradient id="linear-gradient-12" x1="1112.97592" y1="-6639.36702" x2="1151.4445" y2="-6582.67649" gradientTransform="translate(-5041.49432 -3981.39688) rotate(119.04395)" xlink:href="#linear-gradient"/><linearGradient id="linear-gradient-13" x1="1111.05755" y1="-6638.06527" x2="1149.52612" y2="-6581.37473" gradientTransform="translate(-5041.49432 -3981.39688) rotate(119.04395)" xlink:href="#linear-gradient"/><linearGradient id="linear-gradient-14" x1="1112.8341" y1="-6679.00475" x2="1161.93215" y2="-6587.89497" gradientTransform="translate(-5041.49432 -3981.39688) rotate(119.04395)" xlink:href="#linear-gradient"/><linearGradient id="linear-gradient-15" x1="1091.55066" y1="-6646.16685" x2="1133.05623" y2="-6580.36534" gradientTransform="translate(-5041.49432 -3981.39688) rotate(119.04395)" xlink:href="#linear-gradient"/></defs><path d="M58.81224,210.67364c.09228.55727-.089.92313-.69429.99241A.8587.8587,0,0,1,58.81224,210.67364Z" fill="#43ab71"/><path d="M57.58109,212.83967c.06258.53013-.13161.86686-.69634.92449A.79888.79888,0,0,1,57.58109,212.83967Z" fill="#43ab71"/><path d="M143.59293,90.58215a2.61973,2.61973,0,0,1-2.23231-1.24207l-6.31318-9.86167a2.62244,2.62244,0,0,1,4.45951-2.76072l6.31317,9.86167a2.62243,2.62243,0,0,1-2.22719,4.00279Z" fill="url(#linear-gradient)"/><path d="M185.45261,157.95851a2.62079,2.62079,0,0,1-2.23231-1.24207l-11.172-17.48378a2.62244,2.62244,0,0,1,4.4595-2.76073l11.172,17.48378a2.62244,2.62244,0,0,1-2.22719,4.0028Zm-21.12256-33.68818a2.62077,2.62077,0,0,1-2.23231-1.24207L150.94,105.14359a2.62244,2.62244,0,1,1,4.4595-2.76072l11.15777,17.88466a2.62243,2.62243,0,0,1-2.22719,4.0028Z" fill="url(#linear-gradient-2)"/><path d="M200.97277,183.58011a2.62077,2.62077,0,0,1-2.23231-1.24207l-5.54282-9.412a2.62244,2.62244,0,0,1,4.4595-2.76073l5.54282,9.412a2.62243,2.62243,0,0,1-2.22719,4.00279Z" fill="url(#linear-gradient-3)"/><path d="M219.15139,190.25571a4.36713,4.36713,0,0,1-3.77658-2.16488L144.37108,66.72735a4.37034,4.37034,0,0,1,7.54462-4.41341l71.00373,121.36349a4.37228,4.37228,0,0,1-3.768,6.57828Z" fill="url(#linear-gradient-4)"/><path d="M186.33513,188.80961a4.36774,4.36774,0,0,1-3.65963-1.97536L124.96491,98.795a4.37075,4.37075,0,0,1,7.31071-4.79243l57.71059,88.0393a4.3719,4.3719,0,0,1-3.65108,6.76779Z" fill="url(#linear-gradient-5)"/><path d="M74.26906,225.3498a2.61975,2.61975,0,0,1,.02589,2.55447l-5.44321,10.36726a2.62244,2.62244,0,1,1-4.60635-2.50805l5.44321-10.36726a2.62244,2.62244,0,0,1,4.58046-.04642Z" fill="url(#linear-gradient-6)"/><path d="M112.088,155.6251a2.62078,2.62078,0,0,1,.02589,2.55446l-9.66052,18.36218a2.62244,2.62244,0,0,1-4.60635-2.508l9.66052-18.36219a2.62243,2.62243,0,0,1,4.58046-.04641ZM93.27393,190.6549a2.6208,2.6208,0,0,1,.02589,2.55447L83.284,211.75767a2.62244,2.62244,0,1,1-4.60634-2.508l10.01586-18.5483a2.62244,2.62244,0,0,1,4.58046-.04642Z" fill="url(#linear-gradient-7)"/><path d="M126.66668,129.45634a2.62078,2.62078,0,0,1,.02589,2.55446l-5.43389,9.47534a2.62244,2.62244,0,0,1-4.60635-2.508l5.43389-9.47534a2.62243,2.62243,0,0,1,4.58046-.04641Z" fill="url(#linear-gradient-8)"/><path d="M123.46772,110.3568a4.36711,4.36711,0,0,1-.01143,4.35306l-70.29915,121.773a4.37033,4.37033,0,1,1-7.56957-4.37046l70.29915-121.773a4.37228,4.37228,0,0,1,7.581.01741Z" fill="url(#linear-gradient-9)"/><path d="M138.45668,139.58572a4.36774,4.36774,0,0,1,.09534,4.15762l-47.92546,93.7261a4.37075,4.37075,0,1,1-7.7831-3.9796l47.92546-93.7261a4.37191,4.37191,0,0,1,7.68776-.178Z" fill="url(#linear-gradient-10)"/><path d="M230.05454,214.83955a2.61975,2.61975,0,0,1,2.16962-1.3486l11.68646-.73163a2.62244,2.62244,0,0,1,.24856,5.239l-11.68646.73163a2.62242,2.62242,0,0,1-2.41818-3.89039Z" fill="url(#linear-gradient-11)"/><path d="M150.82887,218.72537a2.62079,2.62079,0,0,1,2.16962-1.34859l20.70892-1.279a2.62244,2.62244,0,0,1,.24856,5.239l-20.70892,1.279a2.62244,2.62244,0,0,1-2.41818-3.8904Zm39.7064-2.1114a2.62079,2.62079,0,0,1,2.16962-1.34859l21.0525-1.072a2.62244,2.62244,0,0,1,.24856,5.239l-21.0525,1.072a2.62243,2.62243,0,0,1-2.41818-3.8904Z" fill="url(#linear-gradient-12)"/><path d="M120.89451,219.85505a2.62079,2.62079,0,0,1,2.16962-1.34859l10.91938-.27644a2.62244,2.62244,0,1,1,.24856,5.239l-10.91938.27644a2.62242,2.62242,0,0,1-2.41818-3.89039Z" fill="url(#linear-gradient-13)"/><path d="M106.233,232.50679a4.36712,4.36712,0,0,1,3.72609-2.25066l140.57265-3.15525a4.37033,4.37033,0,0,1,.19564,8.73848l-140.57265,3.15526a4.37228,4.37228,0,0,1-3.92173-6.48783Z" fill="url(#linear-gradient-14)"/><path d="M123.42892,204.5193a4.36777,4.36777,0,0,1,3.50363-2.24042l104.98551-7.712a4.37075,4.37075,0,1,1,.64056,8.718l-104.98551,7.712a4.37192,4.37192,0,0,1-4.14419-6.47759Z" fill="url(#linear-gradient-15)"/></svg>