<svg id="Layer_1" data-name="Layer 1" xmlns="http://www.w3.org/2000/svg" xmlns:xlink="http://www.w3.org/1999/xlink" viewBox="0 0 300 300"><defs><linearGradient id="linear-gradient" x1="259.41588" y1="189.06309" x2="179.29091" y2="72.88188" gradientUnits="userSpaceOnUse"><stop offset="0" stop-color="#f58320"/><stop offset="0.99961" stop-color="#e56224"/></linearGradient><linearGradient id="linear-gradient-2" x1="72.39218" y1="168.53374" x2="102.43904" y2="75.72232" gradientUnits="userSpaceOnUse"><stop offset="0" stop-color="#0facaf"/><stop offset="0.99915" stop-color="#37c1cd"/></linearGradient><linearGradient id="linear-gradient-3" x1="86.96612" y1="218.2126" x2="211.98351" y2="218.2126" gradientUnits="userSpaceOnUse"><stop offset="0" stop-color="#b3be33"/><stop offset="0.99899" stop-color="#8ca540"/></linearGradient></defs><path d="M149.7617,95.50555s37.8307-43.32226,62.5427-53.39011l62.54269,107.69547s-34.77984,21.051-77.797,27.45777c0,0-9.76276-27.15268-19.83061-43.62734S157.38886,103.74288,149.7617,95.50555Z" fill="url(#linear-gradient)"/><path d="M86.91392,41.20018l125.39048.91526S177.606,62.81768,149.7617,95.50555C149.7617,95.50555,118.62916,60.12468,86.91392,41.20018Z" fill="#306297"/><path d="M102.50854,177.02344S46.075,165.92221,25,149.55493L86.99567,41.54363s35.62058,19.59474,62.67763,53.6453c0,0-18.63353,22.03114-27.86709,38.98749S105.82869,166.29946,102.50854,177.02344Z" fill="url(#linear-gradient-2)"/><path d="M86.9026,258.60389,25,149.55493s43.80854,21.5216,77.50854,27.46851C102.50854,177.02344,86.12815,220.65214,86.9026,258.60389Z" fill="#008d98"/><path d="M196.54628,177.62538s18.60283,54.42347,14.96584,80.85861l-124.53836.31583s-.84074-40.6457,15.11938-81.10307c0,0,28.3963,5.12154,47.6977,4.63986S185.599,180.112,196.54628,177.62538Z" fill="url(#linear-gradient-3)"/><path d="M275,150.35028,211.51212,258.484s1.37225-33.00874-14.96584-80.85861C196.54628,177.62538,240.08373,168.65282,275,150.35028Z" fill="#e74528"/></svg>