<svg id="Layer_1" data-name="Layer 1" xmlns="http://www.w3.org/2000/svg" viewBox="0 0 300 300"><path d="M170.53886,120.94165,145.31462,69.61873l-.70628-1.47982a5.38115,5.38115,0,0,0-4.80942-2.95964H56.2226a5.31388,5.31388,0,0,0-4.74215,2.99327l-25.3924,51.65925-.57175,1.17713a5.54931,5.54931,0,0,0,0,4.67489l25.25787,51.28928.73991,1.44619a5.24663,5.24663,0,0,0,4.77579,2.95965h83.60994a5.3812,5.3812,0,0,0,4.74216-2.99328l25.32513-51.592.57174-1.17713A5.20857,5.20857,0,0,0,170.53886,120.94165Zm-16.41258,2.82512-20.17939,41.46865a1.1435,1.1435,0,0,1-1.009.60538H63.319a1.07623,1.07623,0,0,1-.97533-.60538L41.828,123.76677a1.14353,1.14353,0,0,1,0-.94171L62.34369,81.35641A1.07623,1.07623,0,0,1,63.319,80.751h69.31621a1.14351,1.14351,0,0,1,1.009.60538l20.17939,41.46865A.9417.9417,0,0,1,154.12628,123.76677Z" fill="#f2ae6e"/><path d="M274.46271,174.18161l-25.22424-51.35655-.73991-1.47982a5.31391,5.31391,0,0,0-4.87668-2.89238h-83.509a5.38118,5.38118,0,0,0-4.74216,2.99328l-25.35876,51.8274-.57175,1.17712a5.24663,5.24663,0,0,0,0,4.64127l25.19061,51.28928.73992,1.47982a5.34756,5.34756,0,0,0,4.80942,2.95965h83.60994a5.31394,5.31394,0,0,0,4.74217-2.99328L273.891,180l.57174-1.17712A5.28021,5.28021,0,0,0,274.46271,174.18161Zm-16.41256,2.85874-20.38119,41.435a1.07625,1.07625,0,0,1-.97534.60538H167.24289a1.14351,1.14351,0,0,1-1.009-.60538l-20.34756-41.435a1.009,1.009,0,0,1,0-.97534l20.38119-41.435a1.17712,1.17712,0,0,1,1.009-.639h69.4171a1.10989,1.10989,0,0,1,.97534.639l20.38119,41.435A1.24441,1.24441,0,0,1,258.05015,177.04035Z" fill="#f2ae6e"/></svg>