<?xml version="1.0" encoding="UTF-8"?>
<svg id="Layer_1" xmlns="http://www.w3.org/2000/svg" viewBox="0 0 300 300">
  <defs>
    <style>
      .cls-1 {
        fill-rule: evenodd;
      }

      .cls-1, .cls-2 {
        fill: #164768;
      }

      .cls-3 {
        fill: #fff;
      }

      .cls-4 {
        fill: #fd8b00;
      }

      .cls-5 {
        fill: #134769;
      }
    </style>
  </defs>
  <g id="Clip-Path:_Page_1">
    <g id="Page_1">
      <path id="Path_8" class="cls-3" d="M174.43,98.96l-1.79.89,1.79.11v-1.01Z"/>
      <path id="Path_9" class="cls-4" d="M179.91,91.58l31.75-28.17c.34-.34.45-.78.67-1.34,0-.45-.22-1.01-.56-1.34-.34-.34-.89-.56-1.12-.67-.56,0-1.01.11-1.34.56l-31.08,27.61,1.68,3.13v.22ZM39.04,212.78c-12.86,3.35-22.25,14.2-24.04,27.17,13.3-2.24,23.81-11.63,26.83-24.71l69.65-62.39-2.8-2.57-69.65,62.5Z"/>
      <path id="Path_10" class="cls-2" d="M153.63,103.43c-1.34-.89-5.48-3.13-7.38-3.02v2.35c-.56-2.35-1.57-4.36-1.12-5.03.34-1.23,2.12-.67,2.46-1.79.67-2.24,2.01-4.36,1.34-6.71.89-1.57.34-3.13,0-4.81v-.67c0,.11,0,.34.11.56,0-.11.11-.45.11-.45,0,0-.11-.56-.89-1.57-.11-.11-.34-.34-.45-.34-.22,0-.34-.11-.56-.11h-.11c-.56,0-1.01-.11-1.79-.11l1.57-.34c-1.23-.89-2.68-1.23-4.02-1.01-2.01.34-4.14,1.01-5.48,2.46-1.34,1.34-2.01,3.13-1.79,5.03v.11c-.11.34-.11.67-.11,1.12,0,.34-.34.45-.11,1.01l.56,1.01c0,.11.34.34.45.45l.67-1.01-1.12,1.34-.67,2.01c0,.22,0,.34.11.56.56.34,1.01.45,1.34.45.22,1.01.22,2.01-.11,3.02-.34,1.01-.89,1.57-1.45,2.35,0,0-.34.11-.56.34l3.02,1.34-5.14-1.01c-2.68.34-7.49.34-9.73,5.48l-2.35,4.14c-1.57,2.24-4.02,5.03-5.81,10.62h3.8l-4.36,1.34c-1.12,2.46-2.57,6.82-2.01,19.79v1.79l-1.34.67-.56.78-.89.56-.34,1.01-.67,1.01v1.79l.56.45,2.8,2.57.11.11,3.69-3.35-.11-.34-1.34-3.58,3.02-2.8h-2.35l1.34-.89c.34-1.79,1.57-5.03,2.35-7.38.45-1.57.89-3.35.89-5.03v-4.7s5.48-3.58,8.16-8.16l2.68-3.13-2.35,4.7c.45,3.35,1.79,7.49,2.68,10.84l4.81-2.68,23.14-20.46c-1.45-1.45-3.02-2.35-4.7-2.68h0Z"/>
      <path id="Path_11" class="cls-1" d="M193.21,217.14c16.99.56,64.96,2.24,65.18,3.24,0,.67-26.27,1.79-45.84,2.01h-4.25c-7.49,0-32.09.11-41.48.11h-27.5c-28.73,0-64.96-.34-97.49-.67l1.34-3.8c12.52-.11,22.25-.34,27.06-.45,7.83-.11,12.41-.45,17.33-.56l-31.53-12.3,15.32-13.64,40.58,3.13c.34,2.35.67,5.7.89,7.16.11,0,.11-.11.11-.11,1.23-5.03,4.92-26.16,7.71-29.63,0-.11.11-.45.34-.56.11-.11,1.01,2.8,1.12,2.8,0-.11-.45-3.24-.45-3.47-.11-.89-.11-2.8.11-4.7h-.11c1.34-7.27,2.46-20.68,7.16-28.51l24.48-22.02,6.48-5.81,3.02,3.8s0,.11.11.34l1.12,3.8-.34-4.25c2.57-5.14,6.37-12.63,6.37-12.86l3.47-4.58.22-3.8v-.34l3.69-3.24.11.11,1.57,3.13v.11l.89,1.68-.89.89-.34,1.01-1.34.67-.89,1.23-2.01,1.57-.56.22c-3.02,17.11-6.26,22.25-8.05,24.6-.22,1.01-.89,1.57-1.57,1.57q-.34,0-1.01-.34c-.89-.34-1.12-.45-2.24-1.12-2.8-1.79-6.26-5.37-7.71-6.93-.11,4.02-2.35,11.29-3.02,14.98l-2.35,2.8,2.8-1.57s5.48,19.23,5.48,30.97c0,0,0,5.7-1.12,7.49l.89,5.81c1.34,3.8,1.57,11.96,1.57,18.78l127.34-9.5-117.39,34.99,25.6-4.25ZM153.07,200.7v-.45c-.11-1.12-.34-2.35-.45-3.35-1.34-7.16-4.36-13.42-4.7-23.48l2.68,2.01c-3.24-3.35-4.7-6.82-5.7-10.29-1.57-3.58-4.25-9.39-4.58-10.84l-1.34,1.01c-.45,1.12-2.35,4.36-3.58,6.71-2.24,4.47-4.58,8.5-7.6,10.96,0,.11-1.12,1.12-1.12,1.34.11,0,1.34-.89,1.34-.67-1.23,12.63-2.57,13.3-5.93,20.68l28.62,2.46s2.24,3.02,2.35,3.91h0ZM153.07,200.7h0Z"/>
      <path id="Path_12" class="cls-4" d="M174.2,91.81l-16.1,14.31-27.61,24.48-13.75,12.41h.11l-3.02,2.8,1.34,3.58,13.64-12.3,24.48-22.02,6.48-5.81,10.17-8.94v-.11h.22l3.8-4.58v-3.8h.22Z"/>
      <path id="Path_13" class="cls-5" d="M170.07,100.19v.11l.22-.11h-.22Z"/>
    </g>
  </g>
</svg>