<svg id="Layer_1" data-name="Layer 1" xmlns="http://www.w3.org/2000/svg" viewBox="0 0 300 300"><defs><style>.cls-1{fill:#fff;}.cls-2{fill:#ed1c24;}</style></defs><path class="cls-1" d="M201.85,47.86H98.15a50.76,50.76,0,0,0-50.9,50.6V201.54a50.75,50.75,0,0,0,50.9,50.6h103.7a50.75,50.75,0,0,0,50.9-50.6V98.46A50.76,50.76,0,0,0,201.85,47.86Z"/><path class="cls-2" d="M78.52,68.5c21.51,18.42,46.9,29,69.73,29,24.26,0,53.2-11.57,73.78-29.47L232.2,57.89a50.84,50.84,0,0,0-30.38-10.06H98.15a50.91,50.91,0,0,0-30.33,10Z"/><path class="cls-2" d="M201.06,150a89,89,0,0,0,7.25,33.45,144.7,144.7,0,0,0-18.62-9.15,93.33,93.33,0,0,1-3.4-24.3c0-18.76,6.3-36.25,13.88-50.52a125.51,125.51,0,0,1-51.92,12.71c-19.9,0-41.26-6.81-60.92-19.08-4-2.6-8-5.33-11.79-8.32,0,0-5.23-4.05-8-6.49L57.39,68.24a49.93,49.93,0,0,0-10.14,30.2v103.1a50,50,0,0,0,10.06,30.12L68,221.06c19.37-22.48,31-49,31-71.06a88.79,88.79,0,0,0-7.45-33.58,139,139,0,0,0,18.77,9.23A94.1,94.1,0,0,1,113.68,150a108.31,108.31,0,0,1-13.31,49.38,113.3,113.3,0,0,1,49-12.55c26,0,52.14,11.95,71.25,25.39q2,1.41,3.84,2.89s5.23,4,8,6.49l10.12,10.06a49.93,49.93,0,0,0,10.14-30.2v-103a50,50,0,0,0-10.09-30.12L232,78.92C212.62,101.4,201.06,127.94,201.06,150Z"/><path class="cls-2" d="M221.48,231.5c-17.23-14.55-45-29.94-72.11-29.94-22.85,0-49.55,11.36-71.4,30.39l-10.2,10.13a51,51,0,0,0,30.41,10.09H201.85a50.85,50.85,0,0,0,30.3-10Z"/><path class="cls-1" d="M128.77,171.08s8.55-9.88,8.55-21.08-8.55-21.1-8.55-21.1,10,8.47,21.23,8.47c10.88,0,21.23-8.47,21.23-8.47s-8.52,9.9-8.52,21.1,8.52,21.08,8.52,21.08-10-8.47-21.23-8.47C139.12,162.61,128.77,171.08,128.77,171.08Z"/></svg>