<svg id="Layer_1" data-name="Layer 1" xmlns="http://www.w3.org/2000/svg" viewBox="0 0 300 300"><path d="M136.09981,129.26828c-7.92333,7.30178-16.71435,13.36114-15.57757,25.71338-1.02332.52-1.50058-.51443-1.872-1.19338-7.81325-14.28464-7.28494-24.70375,5.22733-33.705,11.71786-8.42979,25.20476-13.07712,38.355-18.44939,13.40515-5.47646,27.13562-10.27975,39.72286-17.51285,16.33906-9.389,31.30125-20.56049,43.01972-36.806a34.77972,34.77972,0,0,1-4.70724,19.18037c-5.1768,9.08512-12.63151,16.01652-21.14342,21.88045-10.82336,7.4563-22.77382,12.7482-34.78995,17.89662q-14.78562,6.33507-29.5897,12.61624c2.77353,6.77942,7.83483,7.58937,15.05955,2.60365,1.55847,8.84084-3.11949,16.40341-11.75221,18.999C148.77185,143.28155,140.36039,139.1578,136.09981,129.26828Z" fill="#e3144f"/><path d="M114.14707,118.79059c1.63837-13.89628-10.776-27.61657-26.24236-28.837-5.41528-.42734-10.81544-.95554-16.25635-.91314-5.294.04124-10.58858.00895-15.51826.00895-1.41013-.77148-1.19186-1.669-.96044-2.73391a20.32409,20.32409,0,0,1,2.18258-.2379c12.14861-.07986,24.29048-.22244,36.41935-1.11755a11.19655,11.19655,0,0,0,9.18438-5.32421c6.27086-9.13673,15.22776-13.54847,26.25849-12.669,13.31774,1.06172,23.92487,13.51886,24.55326,28.48733C139.63743,100.94109,125.05243,106.01336,114.14707,118.79059Z" fill="#101720"/><path d="M125.57292,154.92069a26.41366,26.41366,0,0,1,9.82984-14.91415c10.30336,9.3468,20.822,10.963,31.03111,4.87585,8.12078-4.842,14.00355-14.20547,9.80513-27.48162,20.44537-8.53879,40.8954-17.23409,58.23889-31.726-3.97611,7.78919-10.56153,13.27957-16.68578,19.19622-6.1428,5.93459-13.26374,10.59183-20.07811,15.86793,5.52485.58634,10.27432-2.2824,16.11813-3.27781a49.84191,49.84191,0,0,1-10.97521,10.04017,21.6178,21.6178,0,0,1-3.26805,2.077,47.7674,47.7674,0,0,0-19.19843,15.73164c-9.644,13.38223-24.69353,15.9908-39.88542,9.05242-4.24132-1.93709-8.14289-3.39786-12.09077.3867A2.4063,2.4063,0,0,1,125.57292,154.92069Z" fill="#e3144f"/><path d="M190.077,252.68505c-1.72621-7.49424-3.3279-15.01987-5.20884-22.475a125.13306,125.13306,0,0,0-11.17549-29.21257,25.26263,25.26263,0,0,0-14.18561-12.42577c-11.63786-4.16708-21.89015-10.47989-29.714-20.288-.56082-.703-1.09606-1.42641-1.62732-2.11957,3.97493-4.768,8.73332-6.05755,14.07411-3.71642,9.31073,4.08136,18.67267,4.704,28.33189.53017,4.326,8.4715,6.77227,17.55172,9.69328,26.471,5.28708,16.144,7.9071,32.88515,11.28947,49.45171C192.48353,243.4507,192.41582,248.16149,190.077,252.68505Z" fill="#101720"/></svg>