<?xml version="1.0" encoding="UTF-8"?>
<svg xmlns="http://www.w3.org/2000/svg" version="1.1" viewBox="0 0 300 300">
  <defs>
    <style>
      .cls-1 {
        fill: #567bfd;
      }
    </style>
  </defs>
  <!-- Generator: Adobe Illustrator 28.6.0, SVG Export Plug-In . SVG Version: 1.2.0 Build 709)  -->
  <g>
    <g id="Layer_1">
      <g>
        <path class="cls-1" d="M233.3,66.7c-26.6-26.6-63-37.8-97.7-33.6,7,7.8,13.1,16.3,18.1,25.3l5.2,9.4c18.1,2,35.6,9.9,49.5,23.7,13.8,13.8,21.7,31.4,23.7,49.5l9.4,5.2c9.1,5,17.6,11.1,25.3,18.1,4.2-34.8-6.9-71.1-33.6-97.7h0Z"/>
        <path class="cls-1" d="M257.4,184.4c-7.9-7.9-16.7-14.5-26.1-19.7-25.9-14.4-56.1-18.3-84.4-11.6,6.6-28.2,2.8-58.5-11.6-84.4-5.2-9.4-11.8-18.1-19.7-26.1-1.3-1.4-2.7-2.7-4.1-4-12,4.1-23.4,10.2-33.7,18.3-3.8,3-7.5,6.2-11.1,9.8-38,38-44.6,95.8-19.7,140.6,4.3,7.7,9.5,15.1,15.7,21.9,1.3,1.4,2.6,2.8,4,4.1,1.4,1.3,2.7,2.7,4.1,3.9,6.8,6.2,14.2,11.4,21.9,15.7,44.8,24.9,102.6,18.3,140.6-19.7,3.5-3.5,6.8-7.2,9.7-11.1,8.1-10.3,14.1-21.8,18.3-33.7-1.3-1.4-2.6-2.8-4-4.1h0ZM90.7,184.4c-3.4,3.4-7.1,6.5-11,9.2-19.8-31.9-15.9-74.4,11.8-102.1,3.4-3.5,7.1-6.5,11-9.2,19.8,31.9,15.9,74.4-11.8,102.1ZM208.5,208.5c-27.7,27.7-70.2,31.6-102.1,11.8,2.7-3.8,5.8-7.5,9.2-11,27.7-27.7,70.2-31.6,102.1-11.8-2.7,3.8-5.8,7.5-9.2,11ZM198.7,127.3c7.2-7.2,7.2-18.8,0-26-7.2-7.2-18.8-7.2-26,0-7.2,7.2-7.2,18.8,0,26,7.2,7.2,18.8,7.2,26,0Z"/>
      </g>
    </g>
  </g>
</svg>