<svg id="Layer_1" data-name="Layer 1" xmlns="http://www.w3.org/2000/svg" viewBox="0 0 300 300"><path d="M91.08,144a9.06,9.06,0,0,0,4.5-8.4c0-6.72-4.5-10.37-12.68-10.37H65v11.47l5.67,5.74,1.41,1.52-1.41,1.77L65,151.43v12.72h18.2c9.32,0,13.68-4.64,13.68-11.41,0-4.18-1.53-7.22-5.78-8.82Zm-19-2.3v-9.39h10.4c2.58,0,5.52.25,5.52,4,0,4.11-3.68,4.71-6.09,4.71H75.29l-3.23,3v-2.26Zm10.45,15.4H72.06V144l3.19,3.15H83.5c2.41,0,6.27.53,6.27,4.89s-4,5-7.26,5Zm17.89-31.87h7.08v7.08h-7.08Zm0,10.62h7.08v28.34h-7.08ZM117,149.63c0,6.09,2.55,9.1,6.87,9.1,3.9,0,5.32-2.84,6-5.21H137a12.69,12.69,0,0,1-13.18,10.63c-8.67,0-14.16-5.74-14.16-14.6s6.12-13.74,14.16-13.74A12.71,12.71,0,0,1,137,146.44h-7.23c-.67-2.45-2.12-5.24-6-5.24S117,143.5,117,149.63Zm48.45-13.82-13.88,39H139.36v-7.08h7.08l1.67-3.61-10.45-28.27H145l6.7,19.48,6.48-19.48Zm7.3,13.82c0,6.09,2.52,9.1,6.87,9.1,3.9,0,5.31-2.84,6-5.21h7.23a12.69,12.69,0,0,1-13.18,10.63c-8.68,0-14.17-5.74-14.17-14.6s6.24-13.74,14.17-13.74a12.71,12.71,0,0,1,13.18,10.63h-7.23c-.67-2.45-2.12-5-6-5-3.4,0-6.87,2.06-6.87,8.15ZM196,125.19h7.08v39H196Zm25.07,10.62c-7.79,0-14.45,4.89-14.45,14,0,8.61,5.24,14.35,14.45,14.35,7.23,0,12.4-4,13.67-10.63h-7.22c-.71,2.45-2.66,5.24-6.45,5.24s-6.55-2.3-7.08-7.33H235c.53-10.2-6-15.58-13.81-15.62Zm-7,10.63c.71-4.22,4-5.24,7-5.17s6.34,1.7,6.62,5.17Z"/></svg>