<?xml version="1.0" encoding="UTF-8"?>
<svg id="Layer_1" xmlns="http://www.w3.org/2000/svg" xmlns:xlink="http://www.w3.org/1999/xlink" viewBox="0 0 300 300">
  <defs>
    <style>
      .cls-1 {
        fill: #2b519a;
      }

      .cls-2 {
        fill: url(#linear-gradient);
      }
    </style>
    <linearGradient id="linear-gradient" x1="136.39" y1="-6225.48" x2="136.39" y2="-6356.24" gradientTransform="translate(0 -6140.86) scale(1 -1)" gradientUnits="userSpaceOnUse">
      <stop offset="0" stop-color="#294e95"/>
      <stop offset="1" stop-color="#000204"/>
    </linearGradient>
  </defs>
  <path class="cls-2" d="M92.56,84.62h15.17c-.09,4.58,4.49,15.04,23.19,20.4-4.79,2.09-10.98,5.45-13.51,6.84-8.28-2.79-24.84-12.12-24.84-27.24ZM141.86,129.03l13.16-6.28c8.41,3.14,25.19,12.99,25.19,27.37s-9.5,20.44-14.25,21.66l-7.58-8.72c2.18-1.39,6.54-5.8,6.54-11.99,0-7.71-10.59-15.78-23.06-22.05ZM107.73,215.38h-15.17c0-18.18,16.34-26.63,24.67-29.94.87.57,1.87,1.44,3.05,2.44,2.18,1.83,4.79,4.05,7.85,5.71-18.65,6.41-20.49,16.3-20.4,21.79ZM164.91,84.62h15.3c-.61,10.2-6.35,19.39-15.26,24.41-11.81,6.19-29.81,15.26-37.31,19.05-6.76,2.83-19.83,10.55-18.22,18.39,1.57,7.85,9.2,18.52,18.22,25.32,35.22,15.39,52.48,24.32,52.48,43.59h-15.17c.26-3.53-1.7-11.81-11.9-16.65-10.2-4.79-30.86-14.91-39.88-19.31-6.89-2.92-20.62-13.03-20.62-30.07,0-18.18,14.51-24.93,26.89-30.68,2.14-.96,4.18-1.92,6.1-2.92,10.46-5.36,24.58-11.81,30.29-14.38,5.81-3.54,9.28-9.93,9.07-16.74ZM114.48,87.37c0-1.53,1.39-2.75,3.18-2.75h37.48c1.74,0,3.14,1.22,3.14,2.75s-1.39,2.7-3.18,2.7h-37.48c-1.74,0-3.14-1.22-3.14-2.75v.04ZM123.24,93.34c-1.83,0-3.31,1.22-3.31,2.75s1.48,2.7,3.31,2.7h26.28c1.83,0,3.31-1.22,3.31-2.75s-1.48-2.7-3.31-2.7h-26.28ZM114.48,152.75c0,1.48,1.39,2.7,3.18,2.7h37.48c1.74,0,3.14-1.22,3.14-2.75s-1.39-2.7-3.18-2.7h-37.48c-1.74,0-3.14,1.22-3.14,2.75ZM123.24,145.64c-1.83,0-3.31-1.22-3.31-2.75s1.48-2.7,3.31-2.7h26.28c1.83,0,3.31,1.22,3.31,2.75s-1.48,2.7-3.31,2.7h-26.28ZM114.48,212.68c0,1.48,1.39,2.7,3.18,2.7h37.48c1.74,0,3.14-1.22,3.14-2.7s-1.39-2.75-3.18-2.75h-37.48c-1.74,0-3.14,1.22-3.14,2.75ZM123.24,206.66c-1.83,0-3.31-1.22-3.31-2.75s1.48-2.7,3.31-2.7h26.28c1.83,0,3.31,1.22,3.31,2.75s-1.48,2.7-3.31,2.7h-26.28Z"/>
  <path class="cls-1" d="M65.54,95.52c12.64,25.59,29.07,67.82,169.46,75.71-74.79,6.19-178.36,12.07-169.46-75.71Z"/>
</svg>