<svg id="Layer_1" data-name="Layer 1" xmlns="http://www.w3.org/2000/svg" viewBox="0 0 300 300"><path d="M26.92026,167.39515V132.275c.26306-.27614.60227-.1563.90445-.15691q6.05757-.01217,12.11519-.00524a14.50587,14.50587,0,0,1,4.58793.71545,6.133,6.133,0,0,1,4.41472,6.0117,9.08709,9.08709,0,0,1-6.27773,9.06034c-.24411.08988-.58471.01273-.69631.4367a22.99924,22.99924,0,0,1,3.90675,1.2495,6.72813,6.72813,0,0,1,4.236,6.38683c.2813,6.06219-2.57826,9.27444-8.13769,10.8992a13.98124,13.98124,0,0,1-4.02046.5302C34.31652,167.38023,30.67972,167.39515,26.92026,167.39515Zm4.52948-1.95047c1.89034,0,3.68468.0816,5.4692-.01611,4.4131-.24164,8.76339-3.49493,8.218-8.7362-.32962-3.16747-1.91175-5.38935-4.94108-6.3363a15.05611,15.05611,0,0,0-3.15465-.62531,33.26654,33.26654,0,0,0-5.59143-.27127Zm.00839-17.99693c1.39913,0,2.67812.06187,3.94894-.01364a11.049,11.049,0,0,0,6.31511-1.85142,6.72681,6.72681,0,0,0,2.61132-6.33125c-.203-2.2547-1.6958-3.63643-3.71468-4.42-2.98086-1.15687-6.09267-.70617-9.16069-.77934Z" fill="#0c0a0a"/><path d="M84.17349,168.10709a17.28971,17.28971,0,0,1-7.86751-1.49968c-5.38877-2.4355-8.2695-6.69323-8.83687-12.53835a15.64678,15.64678,0,0,1,11.5515-16.97389,20.08109,20.08109,0,0,1,13.57259,1.0163A12.51566,12.51566,0,0,1,99.657,145.8208a17.3524,17.3524,0,0,1,.302,11.963c-2.12388,5.74268-6.51691,8.86531-12.39176,10.08188A13.57634,13.57634,0,0,1,84.17349,168.10709Zm12.12416-17.07017a12.87782,12.87782,0,0,0-5.54283-10.86241c-4.8264-3.31762-11.54354-2.65538-14.83131,1.67429-3.78309,4.982-5.02324,10.60483-2.964,16.67874a11.52282,11.52282,0,0,0,10.66076,7.88215c4.61011.27127,8.54192-2.137,10.73779-6.58787A20.06734,20.06734,0,0,0,96.29765,151.03692Z" fill="#0c0a0a"/><path d="M196.83485,167.38228v-30.056c.18028-.23822.437-.17132.6661-.17145,4.7183-.0027,9.4367-.015,14.1549.00729a14.109,14.109,0,0,1,5.48669,1.08263,10.68866,10.68866,0,0,1,6.205,6.75119,18.94344,18.94344,0,0,1-.117,12.5803,14.15176,14.15176,0,0,1-13.197,9.77743C205.68175,167.50182,201.32076,167.38228,196.83485,167.38228Zm4.19025-28.09089v25.96275a29.396,29.396,0,0,0,10.05009-.46383,10.139,10.139,0,0,0,7.814-7.44792,24.28244,24.28244,0,0,0,.87864-9.129c-.29572-3.23151-1.59779-5.902-4.66593-7.45447C210.60071,138.48136,205.87341,138.60078,201.0251,139.29139Z" fill="#c72628"/><path d="M179.97169,152.6572c3.914,4.95614,7.69422,9.743,11.61855,14.71222a14.21487,14.21487,0,0,0-5.1531.039l-11.32882-14.40279h-1.372v14.39187a8.6546,8.6546,0,0,0-4.02438-.01585V137.24873c.18563-.21548.52836-.09019.83055-.091q5.036-.01361,10.072-.00544a11.31519,11.31519,0,0,1,3.75606.65012c5.44449,1.90207,5.33486,8.47706,2.89641,11.19721a11.29184,11.29184,0,0,1-6.62767,3.51957C180.49294,152.54656,180.34764,152.57925,179.97169,152.6572Zm-6.182-13.82516v12.40821a14.98014,14.98014,0,0,0,6.9487-.90938,6.26647,6.26647,0,0,0,3.97716-5.63744c.18944-2.59961-1.93694-5.06091-4.87887-5.63251A40.37755,40.37755,0,0,0,173.78973,138.832Z" fill="#c72628"/><path d="M135.29066,133.97314c-.41244,1.36134-.81423,2.68755-1.21289,4.00343-.69845.03411-.97636-.48216-1.353-.79459a14.64989,14.64989,0,0,0-9.548-3.61142,13.63458,13.63458,0,0,0-13.16964,10.445,21.13038,21.13038,0,0,0,.83973,13.751c2.50559,6.09848,8.179,8.70508,14.212,8.08722a17.64388,17.64388,0,0,0,8.83538-3.39141c.12485-.09218.23514-.22322.458-.17349.15329.98984-.26729,1.93494-.23045,2.9511a21.36629,21.36629,0,0,1-12.68849,3.32005c-7.17469-.50225-12.66414-3.81428-15.72331-10.44339-3.66014-7.93143-1.59315-18.03562,6.01938-23.17215a18.331,18.331,0,0,1,8.80843-3.16491,31.04126,31.04126,0,0,1,12.90134,1.28284A7.1863,7.1863,0,0,1,135.29066,133.97314Z" fill="#c72628"/><path d="M252.82555,136.96124a2.147,2.147,0,0,1,1.1337.05349q6.63279,15.07737,13.36189,30.3737a28.3649,28.3649,0,0,0-4.82988.02425c-1.62082-4.03532-3.20877-7.98878-4.8075-11.96914H247.0279c-1.46557,3.92817-2.93833,7.87557-4.43833,11.896a30.31456,30.31456,0,0,0-3.47666.03567C243.70769,157.18422,248.2572,147.09364,252.82555,136.96124Zm-.29816,5.72576c-1.53448,3.71739-2.9719,7.19964-4.43314,10.73958h8.85932C255.49373,149.88448,254.06885,146.42717,252.52739,142.687Z" fill="#c72628"/><path d="M150.56089,137.01787a1.59553,1.59553,0,0,1,1.15675-.006q6.64293,15.09986,13.36066,30.36985a27.04631,27.04631,0,0,0-4.82358.03782c-1.62057-4.03423-3.20824-7.98657-4.80892-11.97131H144.787q-2.21066,5.92-4.45679,11.93508a27.30539,27.30539,0,0,0-3.4416-.04159Q143.76388,152.093,150.56089,137.01787Zm-.27293,5.6761c-1.5222,3.68247-2.96189,7.16534-4.42223,10.69813h8.83572C153.2329,149.83238,151.80765,146.37765,150.288,142.694Z" fill="#c72628"/><path d="M57.88894,137.13175a6.87091,6.87091,0,0,0,3.68537-.01733v30.263a7.22414,7.22414,0,0,0-3.68537.03594Z" fill="#0c0a0a"/><path d="M234.6464,167.38343a7.6232,7.6232,0,0,0-3.701-.013V137.22176a8.36747,8.36747,0,0,0,3.701-.08583Z" fill="#c72628"/><path d="M266.68464,144.356a6.43556,6.43556,0,0,1-6.47815-6.28707,6.55708,6.55708,0,0,1,6.25848-6.67724,6.42344,6.42344,0,0,1,6.61465,6.53866A6.23541,6.23541,0,0,1,266.68464,144.356Zm-5.24871-6.55277c.11774,3.94855,2.95418,5.627,5.19038,5.57846a5.63286,5.63286,0,0,0,5.35948-5.51612,5.37278,5.37278,0,0,0-5.37568-5.26933A5.30077,5.30077,0,0,0,261.43593,137.80321Z" fill="#0c0a0a"/><path d="M266.98593,137.9898c.851,1.13448,1.95129,2.06405,2.76849,3.27928a2.12179,2.12179,0,0,1-1.25358.09813c-.94737-1.091-1.90137-2.18975-2.98518-3.43792-.36512,1.22378-.05724,2.29419-.24629,3.30162-.29435.266-.60475.17165-.97228.11788v-6.77957a16.64714,16.64714,0,0,1,3.379-.00628,1.5996,1.5996,0,0,1,1.51166,1.3261,1.56049,1.56049,0,0,1-.99094,1.62315A9.24933,9.24933,0,0,1,266.98593,137.9898Zm-1.62519-.58882a4.90242,4.90242,0,0,0,1.87146-.18588,1.2388,1.2388,0,0,0,.80853-1.31343,1.02522,1.02522,0,0,0-1.19194-.89881,3.31619,3.31619,0,0,0-1.488.11538Z" fill="#0c0a0a"/></svg>