<svg id="Layer_1" data-name="Layer 1" xmlns="http://www.w3.org/2000/svg" viewBox="0 0 300 300"><defs><style>.cls-1{fill:#061a38;}.cls-2{fill:#435876;}.cls-3{fill:#73839b;}.cls-4{fill:#adb6c7;}.cls-5{fill:#fff;}.cls-6{fill:#7ac89c;}.cls-7{fill:#cae7d4;}.cls-8{fill:#95d1ad;}.cls-9{fill:#b1dcbf;}</style></defs><path class="cls-1" d="M184.4,170.88a51.49,51.49,0,0,1,.31-5.62L103.6,144.54c-5.89,17.15-22.46,27.36-41.87,27.36h-.61l88.32,88.72L203.82,206C192,199.16,184.4,186.81,184.4,170.88Z"/><path class="cls-2" d="M120.88,218.56a2.29,2.29,0,1,1,4.57.1,2.22,2.22,0,0,1-2.33,2.25,2.29,2.29,0,0,1-2.24-2.35"/><path class="cls-2" d="M138.36,218.76a2.29,2.29,0,1,1,2.24,2.35,2.23,2.23,0,0,1-2.24-2.35"/><path class="cls-2" d="M156.25,219a2.29,2.29,0,1,1,2.24,2.34,2.29,2.29,0,0,1-2.24-2.34"/><path class="cls-2" d="M174.24,219.17a2.29,2.29,0,1,1,2.24,2.35,2.29,2.29,0,0,1-2.24-2.35"/><path class="cls-3" d="M128.2,227.85a3.41,3.41,0,1,1,6.81.1,3.41,3.41,0,1,1-6.81-.1"/><path class="cls-3" d="M146.09,228.05a3.41,3.41,0,1,1,6.81.11,3.35,3.35,0,0,1-3.46,3.36,3.48,3.48,0,0,1-3.35-3.47"/><path class="cls-3" d="M164,228.26a3.4,3.4,0,1,1,3.35,3.47,3.48,3.48,0,0,1-3.35-3.47"/><path class="cls-4" d="M136.43,236.94a4,4,0,1,1,4,4,3.92,3.92,0,0,1-4-4"/><path class="cls-4" d="M154.42,237.14a4,4,0,1,1,4,4,3.85,3.85,0,0,1-4-4"/><path class="cls-5" d="M145.38,246a4,4,0,1,1,4,4,3.78,3.78,0,0,1-4-4"/><path class="cls-6" d="M149.44,39.38,91.2,97.88c9,7.45,14.74,18.68,14.74,32.47a37.18,37.18,0,0,1-.41,5.92l81,20.62c5.69-17.76,22.36-28.59,41.87-28.59a50.2,50.2,0,0,1,10.47,1.13Z"/><path class="cls-7" d="M136,62.35a4,4,0,1,0,4-4,4,4,0,0,0-4,4"/><path class="cls-7" d="M154,62.15a4,4,0,1,0,4-4,3.92,3.92,0,0,0-4,4"/><path class="cls-8" d="M120.47,80.73a2.29,2.29,0,1,0,2.24-2.35,2.42,2.42,0,0,0-2.24,2.35"/><path class="cls-8" d="M138,80.52a2.29,2.29,0,1,0,2.23-2.35A2.28,2.28,0,0,0,138,80.52"/><path class="cls-8" d="M155.84,80.32A2.29,2.29,0,1,0,158.08,78a2.42,2.42,0,0,0-2.24,2.35"/><path class="cls-8" d="M173.83,80.11a2.29,2.29,0,1,0,2.24-2.34,2.35,2.35,0,0,0-2.24,2.34"/><path class="cls-9" d="M127.79,71.44A3.41,3.41,0,1,0,131.15,68a3.5,3.5,0,0,0-3.36,3.48"/><path class="cls-9" d="M145.68,71.23A3.41,3.41,0,1,0,149,67.76a3.54,3.54,0,0,0-3.35,3.47"/><path class="cls-9" d="M163.57,71a3.41,3.41,0,1,0,3.35-3.47A3.54,3.54,0,0,0,163.57,71"/><path class="cls-5" d="M145,53.26a4,4,0,1,0,4-4,3.92,3.92,0,0,0-4,4"/></svg>