<svg id="Layer_1" data-name="Layer 1" xmlns="http://www.w3.org/2000/svg" xmlns:xlink="http://www.w3.org/1999/xlink" viewBox="0 0 300 300"><defs><radialGradient id="radial-gradient" cx="2772.34787" cy="-2098.53918" r="2.21165" gradientTransform="matrix(1.67772, 0, 0, -1.67772, -4517.02572, -3360.55626)" gradientUnits="userSpaceOnUse"><stop offset="0" stop-color="#c6d6ee"/><stop offset="1" stop-color="#6397d1"/></radialGradient><linearGradient id="linear-gradient" x1="2804.0485" y1="-2099.20925" x2="2891.7525" y2="-2082.12937" gradientTransform="matrix(1.67772, 0, 0, -1.67772, -4517.02572, -3360.55626)" gradientUnits="userSpaceOnUse"><stop offset="0" stop-color="#031b42"/><stop offset="1" stop-color="#fff"/></linearGradient><linearGradient id="linear-gradient-2" x1="2787.86446" y1="-2068.55633" x2="2799.79622" y2="-2017.00073" gradientTransform="matrix(1.67772, 0, 0, -1.67772, -4517.02572, -3360.55626)" gradientUnits="userSpaceOnUse"><stop offset="0" stop-color="#031b42"/><stop offset="0.30196" stop-color="#6b7f98"/><stop offset="1" stop-color="#fcfdfd"/></linearGradient><linearGradient id="linear-gradient-3" x1="2748.08648" y1="-2082.7247" x2="2712.92311" y2="-2048.80653" xlink:href="#linear-gradient"/><linearGradient id="linear-gradient-4" x1="2793.02743" y1="-2115.55927" x2="2798.30564" y2="-2176.79781" xlink:href="#linear-gradient"/></defs><path d="M135.953,174.39913c8.8866-2.4633,14.34327-11.10043,12.067-19.26985-2.245-8.16941-11.34987-12.81538-20.26763-10.35208-8.8866,2.43211-14.31206,11.10043-12.067,19.26985S127.03524,176.86243,135.953,174.39913Z" fill-rule="evenodd" fill="url(#radial-gradient)"/><path d="M259.149,68.94506c-47.36391,29.15421-79.91686,60.89645-72.24632,89.45822C193.70014,183.847,226.56492,206.67144,270,223.66508c-35.95167-21.016-62.48666-45.68013-68.91-68.72289-7.38988-26.535,18.33443-57.18591,58.059-85.99714Z" fill-rule="evenodd" fill="url(#linear-gradient)"/><path d="M171.74875,112.16189C192.23468,106.487,222.106,83.7872,254.7525,48.83333L241.84358,60.77564c-28.87357,25.13187-43.1233,33.17657-72.27753,41.50188C139.35167,110.91466,111.88123,75.18125,95.5736,43.096h-.24946c14.71743,44.93179,35.60867,80.3222,76.42456,69.06586Z" fill-rule="evenodd" fill="url(#linear-gradient-2)"/><path d="M74.37057,143.53c33.64425-9.29193,29.3101-31.96051,20.82887-62.70495C93.04794,72.9674,88.52671,65.484,83.91194,58.8736a79.07683,79.07683,0,0,1,6.85981,15.71521c7.57695,31.1498,8.82422,52.85176-23.82227,63.42211C56.84682,140.786,43.68845,140.53658,30,137.97974c16.15172,6.205,32.3035,8.88658,44.37052,5.55022Z" fill-rule="evenodd" fill="url(#linear-gradient-3)"/><path d="M180.60414,191.23685c15.71519,4.45888,37.66663,24.53943,61.333,52.25932-23.07391-20.92244-44.52644-36.13876-58.18372-40.09874-35.35922-10.19618-60.67821,15.77758-77.29763,53.50654C120.95491,213.71832,141.93974,180.29231,180.60414,191.23685Z" fill-rule="evenodd" fill="url(#linear-gradient-4)"/></svg>