<svg id="Layer_1" data-name="Layer 1" xmlns="http://www.w3.org/2000/svg" xmlns:xlink="http://www.w3.org/1999/xlink" viewBox="0 0 300 300"><defs><mask id="mask" x="10" y="71.80665" width="90.70926" height="141.54129" maskUnits="userSpaceOnUse"><g id="mask-2" data-name="mask"><g id="b"><path id="a" d="M10,71.80665h90.703V213.34794H10Z" fill="#fff" fill-rule="evenodd"/></g></g></mask></defs><title>BHVN_Mark_Light</title><path d="M226.65616,153.5298a10.09408,10.09408,0,0,1,9.7505-7.66041c6.28585.50486,9.96969,4.76848,10.69089,7.659H226.65616Zm9.7505-14.52463a18.07636,18.07636,0,1,0,12.92948,31.35714,3.30126,3.30126,0,0,0,.02634-4.66859l-.02634-.02634c-.939-1.15676-3.90019-1.37313-5.41616.21637a11.8234,11.8234,0,0,1-7.51332,1.80727,11.16962,11.16962,0,0,1-6.93354-3.25252A9.45358,9.45358,0,0,1,227.0182,159.67h22.96847a3.481,3.481,0,0,0,3.756-2.8905,2.03431,2.03431,0,0,0,.07071-.6505v-.36061a17.27748,17.27748,0,0,0-17.40806-16.76322Zm-67.31441,25.57759a9.335,9.335,0,0,1-6.71717,2.81837,9.09312,9.09312,0,0,1-6.71858-2.81837,10.8341,10.8341,0,0,1-2.74484-7.4412,10.58938,10.58938,0,0,1,2.74344-7.44263,8.71848,8.71848,0,0,1,6.71995-2.96262,8.9337,8.9337,0,0,1,6.71717,2.96262,10.634,10.634,0,0,1,2.81555,7.44263,10.89016,10.89016,0,0,1-2.81559,7.44116Zm10.4717,6.71858V142.90962a3.86983,3.86983,0,0,0-3.82665-3.903,3.92271,3.92271,0,0,0-3.756,3.1804,16.46406,16.46406,0,0,0-9.60626-3.18183,16.63235,16.63235,0,0,0-12.279,5.42182,18.234,18.234,0,0,0-4.91131,12.716,18.49585,18.49585,0,0,0,4.91122,12.71594,16.76943,16.76943,0,0,0,12.279,5.27475,16.41943,16.41943,0,0,0,9.60626-3.10545,3.931,3.931,0,0,0,3.756,3.10545,3.855,3.855,0,0,0,3.82665-3.83091Zm95.34137-32.29613a14.41125,14.41125,0,0,0-7.65615,2.2414,3.9087,3.9087,0,0,0-3.5396-2.2414,3.80824,3.80824,0,0,0-3.82808,3.78831v0q-.00014.02057,0,.04112v28.46663a3.80826,3.80826,0,0,0,3.78552,3.8309q.02127.00011.04254,0a3.95154,3.95154,0,0,0,3.82807-3.10545,1.45644,1.45644,0,0,0,.14283-.72546V154.03466a7.21785,7.21785,0,0,1,7.13831-7.29654q.044-.0005.08795-.00043a7.41642,7.41642,0,0,1,7.50907,7.297v17.26665a3.90367,3.90367,0,0,0,3.8295,3.83091,3.79265,3.79265,0,0,0,3.75453-3.83038V154.03466a15.12289,15.12289,0,0,0-15.09453-15.02949Zm-78.36756,33.81347c.07211.21776.14564.43554.28846.50771,0,.07071,0,.07071.07353.07071a2.248,2.248,0,0,1,.36061.50772c.07211.07071.07211.07071.14423.07071a2.37048,2.37048,0,0,0,.43414.43414.07064.07064,0,0,1,.07211.06914v.003a6.55382,6.55382,0,0,0,.65051.362h.14142v.07071a1.69945,1.69945,0,0,1,.5798.14565h.14566a2.488,2.488,0,0,0,.65051.07213,2.76358,2.76358,0,0,0,.7212-.07071h.14423a1.34041,1.34041,0,0,1,.577-.14707v-.07071h.14423a1.2914,1.2914,0,0,0,.50627-.362.07158.07158,0,0,1,.07106-.07214h.00247a2.50731,2.50731,0,0,0,.43268-.43414.06927.06927,0,0,0,.07071-.06779v-.00292c.14423-.14564.28988-.362.43554-.50772a.06926.06926,0,0,0,.07071-.06779v-.00292a1.55009,1.55009,0,0,0,.28988-.50771l11.84487-28.03251a3.74268,3.74268,0,1,0-6.91765-2.85951l-.01728.04255-8.37736,19.65231-8.30664-19.65231a3.70612,3.70612,0,0,0-4.79666-2.11255l-.0425.0168a3.66228,3.66228,0,0,0-2.18248,4.697q.03992.10923.08672.21578l11.702,28.0325Zm-73.52533-33.81349a16.45954,16.45954,0,0,0-7.7297,2.09717V128.52783a4.00937,4.00937,0,0,0-8.01817-.02265v42.6519a4.214,4.214,0,0,0,.14706,1.0111,4.09639,4.09639,0,0,0,3.82666,2.96262,3.97768,3.97768,0,0,0,4.04389-3.91037l.00056-.06337V154.83081a7.76443,7.76443,0,1,1,15.52867-.07615q.0002.03808,0,.07615v16.32906a3.973,3.973,0,1,0,7.94606.012V154.83081a15.802,15.802,0,0,0-15.745-15.82422Z" fill="#002a61" fill-rule="evenodd"/><g mask="url(#mask)"><path d="M34.53251,164.44979a9.42253,9.42253,0,0,1-6.84306,2.98384,9.29817,9.29817,0,0,1-6.84306-2.98384,10.5542,10.5542,0,0,1,.00142-14.56,9.298,9.298,0,0,1,6.8416-2.98384,9.43336,9.43336,0,0,1,6.84445,2.98384,10.558,10.558,0,0,1-.00141,14.56Zm-6.84162-25.48a17.23582,17.23582,0,0,0-9.75474,3.05879V128.344a3.96824,3.96824,0,0,0-7.93615,0v43.09452a3.96147,3.96147,0,0,0,3.93277,3.93131,3.9204,3.9204,0,0,0,3.85778-3.12948,17.76335,17.76335,0,0,0,9.90039,3.12948,17.99214,17.99214,0,0,0,17.6908-18.12646C45.38174,147.27083,37.51917,138.96982,27.69089,138.96982Zm28.89935,36.4a3.871,3.871,0,0,0,3.93131-3.80973q.001-.06079,0-.12158V143.0468a3.84522,3.84522,0,0,0-3.68264-4.00119q-.12426-.00516-.24867-.00226a3.887,3.887,0,0,0-3.93275,3.84077q-.001.08066.00144.16124v28.39312a3.91576,3.91576,0,0,0,3.90013,3.93131h0Q56.57467,175.36987,56.59024,175.36979Zm33.559-10.41091a9.53129,9.53129,0,0,1-6.69737,2.69535,9.85154,9.85154,0,0,1-6.98868-2.69535,11.7698,11.7698,0,0,1-2.6204-7.71555,11.51339,11.51339,0,0,1,2.6204-7.5699,10.58337,10.58337,0,0,1,6.98868-2.76745,10.27842,10.27842,0,0,1,6.69737,2.76745,10.94184,10.94184,0,0,1,2.83958,7.5699A11.17717,11.17717,0,0,1,90.14921,164.95888Zm5.45858-20.45413a16.093,16.093,0,0,0-12.15592-5.53493,17.00144,17.00144,0,0,0-12.52079,5.53493,18.77363,18.77363,0,0,0-5.023,12.73858,18.16351,18.16351,0,0,0,5.023,12.81211,16.99886,16.99886,0,0,0,12.5208,5.53214,16.09284,16.09284,0,0,0,12.15592-5.53214,17.61343,17.61343,0,0,0,5.09656-12.81211,18.18048,18.18048,0,0,0-5.09656-12.73856Z" fill="#10c000" fill-rule="evenodd"/></g><circle cx="56.46456" cy="131.88839" r="3.84617" fill="#002a61"/></svg>