<svg id="Layer_1" data-name="Layer 1" xmlns="http://www.w3.org/2000/svg" viewBox="0 0 300 300"><defs><style>.cls-1{fill:#19204b;}.cls-2{fill:#45b6b2;}</style></defs><path class="cls-1" d="M62.64,129.17h0c11.56,0,19,5,19,12.38a11.06,11.06,0,0,1-8,10.48A12.09,12.09,0,0,1,83,164.25c0,8.43-7.55,13.82-19.25,13.82H38.53v-48.9Zm-8.43,19h7.54a3.39,3.39,0,0,0,3.57-3.64,3.24,3.24,0,0,0-3.57-3.34H54.21Zm0,18h7.54c3,0,4.83-1.44,4.83-3.79,0-2.19-1.86-3.64-4.83-3.64H54.21Zm46-37.08h0a7.63,7.63,0,0,1-7.84,8c-4.57,0-7.69-3.34-7.69-8a7.31,7.31,0,0,1,7.69-7.73C97,121.33,100.25,124.38,100.25,129.06ZM84.72,140H100.1v38.12H84.72Zm59,19.06h0c0,11.78-8.25,19.66-21.1,19.66s-21.11-7.84-21.11-19.66,8.29-19.66,21.11-19.66S143.72,147.08,143.72,159Zm-26.64.15h0c0,4.5,2.15,7.43,5.57,7.43s5.58-2.9,5.58-7.43-2.16-7.43-5.58-7.43S117.08,154.66,117.08,159.16Zm78.7-19.92c-5.58,0-9.7,3-12.12,8.14a12.47,12.47,0,0,0-12.11-8.14,13,13,0,0,0-11.11,6.1V140H145.21v38.12h15.23V159.16c0-3.64,1.86-6.09,4.72-6.09,2.56,0,4.27,2,4.27,5.23v19.81h15.24V159.2c0-3.65,1.86-6.1,4.72-6.1,2.56,0,4.27,2.05,4.27,5.24v19.81H209v-24.3h0C209,144.89,203.47,139.24,195.78,139.24Z"/><polygon class="cls-2" points="261.47 178.07 261.47 178.07 242.52 178.07 234.38 165.44 226.54 178.07 208 178.07 224.83 153.21 209 129.17 227.4 129.17 234.38 140.69 241.37 129.17 259.91 129.17 244.53 152.47 261.47 178.07"/></svg>