<svg id="Layer_1" data-name="Layer 1" xmlns="http://www.w3.org/2000/svg" viewBox="0 0 300 300"><path d="M131.30756,275.46554a115.20911,115.20911,0,0,1-39.52935-6.69227c-21.90246-8.0376-38.65926-22.27239-50.54193-42.27363a113.63527,113.63527,0,0,1-13.72137-36.63113,143.194,143.194,0,0,1-2.30664-18.75762,159.03978,159.03978,0,0,1,.40423-21.51551,164.199,164.199,0,0,1,7.11193-37.05449A142.87409,142.87409,0,0,1,59.19984,63.12732c12.0767-14.47895,26.61123-25.645,44.36827-32.38361a93.67654,93.67654,0,0,1,21.36127-5.35693,90.59116,90.59116,0,0,1,15.94679-.76617,109.79146,109.79146,0,0,1,38.25876,9.04924,149.50874,149.50874,0,0,1,36.08689,22.25506,180.37821,180.37821,0,0,1,43.26946,51.71016,135.77838,135.77838,0,0,1,14.26708,36.4899,85.12558,85.12558,0,0,1,1.96285,25.99861,75.63516,75.63516,0,0,1-7.12837,25.59449,111.13186,111.13186,0,0,1-21.45946,30.56442c-16.13351,16.59348-35.16454,28.8376-56.57464,37.48129a159.22618,159.22618,0,0,1-34.03977,9.57034c-4.75554.7759-9.57483,1.19563-14.37833,1.63232C137.87484,275.26335,134.58606,275.30806,131.30756,275.46554Zm-.09684-11.02215q4.91718-.24722,9.8343-.49532a118.4997,118.4997,0,0,0,17.63968-2.40521A156.13655,156.13655,0,0,0,196.15593,248.74c17.77893-8.70573,33.57655-20.0563,46.61157-35.05221a93.27542,93.27542,0,0,0,16.31121-25.99436,62.57752,62.57752,0,0,0,4.93329-24.75155,85.20949,85.20949,0,0,0-2.64076-19.43994,128.76408,128.76408,0,0,0-15.48637-35.98046,172.09211,172.09211,0,0,0-31.79205-38.11081,145.62039,145.62039,0,0,0-34.11839-23.2672,101.2065,101.2065,0,0,0-38.615-10.45408,80.933,80.933,0,0,0-22.3216,1.949c-16.25206,3.63731-30.201,11.55918-42.26133,22.89627-12.08923,11.36425-21.06847,24.917-27.77311,40.019-8.16013,18.38043-12.14718,37.71025-12.92727,57.73774a127.40283,127.40283,0,0,0,1.70224,26.4411,105.33127,105.33127,0,0,0,11.6419,33.85147c10.02526,18.0097,24.45185,31.14565,43.66046,38.84343A102.06267,102.06267,0,0,0,131.21072,264.44339Z" fill="#189d02"/><path d="M45.5484,159.97477q.27611-4.44636.55229-8.89272a131.35066,131.35066,0,0,1,2.7459-19.25844A135.59863,135.59863,0,0,1,61.41037,96.66439,108.68423,108.68423,0,0,1,84.73559,66.10975a80.24593,80.24593,0,0,1,34.03365-18.61688A74.94016,74.94016,0,0,1,132.48969,45.316c14.5081-.963,28.1448,2.38466,41.22086,8.358,15.46252,7.06346,28.79126,17.14457,40.71146,29.16141a155.45962,155.45962,0,0,1,29.25211,40.47342,108.117,108.117,0,0,1,9.36877,26.69027,63.53517,63.53517,0,0,1,1.2174,18.27422,56.36633,56.36633,0,0,1-5.68174,19.47726,95.47382,95.47382,0,0,1-20.27267,27.29418,143.46419,143.46419,0,0,1-47.54007,30.13685,135.829,135.829,0,0,1-27.456,7.70554c-4.75005.79591-9.56945,1.23143-14.374,1.632a95.173,95.173,0,0,1-10.21034.30351c-13.463-.32842-26.41065-2.92915-38.49776-9.10089-14.36075-7.33263-25.11482-18.32822-32.78-32.40868a97.1,97.1,0,0,1-10.243-30.052A129.0393,129.0393,0,0,1,45.4868,162.76c-.01205-.9266-.00166-1.85352-.00166-2.78028Zm85.96443,83.96854c2.348-.14548,4.69528-.30525,7.04424-.43363a103.04092,103.04092,0,0,0,16.69034-2.45188,146.86894,146.86894,0,0,0,37.4448-13.94477,128.11893,128.11893,0,0,0,30.56726-22.181A76.54688,76.54688,0,0,0,238.7141,183.7184a45.64852,45.64852,0,0,0,4.54782-15.9694,58.15019,58.15019,0,0,0-1.61075-18.40923,104.99392,104.99392,0,0,0-11.23279-27.5574A149.28,149.28,0,0,0,196.42966,81.2956a117.45678,117.45678,0,0,0-30.357-18.82086c-10.69407-4.446-21.73764-7.07184-33.44657-6.12735a64.60639,64.60639,0,0,0-13.47148,2.49841A71.57817,71.57817,0,0,0,89.56639,76.72956a98.32037,98.32037,0,0,0-19.26923,26.90716,134.50372,134.50372,0,0,0-13.41053,50.20046,121.43955,121.43955,0,0,0,.25037,21.695,91.81967,91.81967,0,0,0,4.52077,21.157c5.94982,16.96285,16.62056,29.9475,32.63853,38.35253C105.9375,241.1502,118.42629,243.76026,131.51283,243.94331Z" fill="#189d02"/><path d="M158.78034,149.88826c-.28248-11.99674,9.81433-22.56136,22.49944-22.56416a22.56259,22.56259,0,1,1,.02215,45.12516C169.09359,172.46518,158.53,162.28031,158.78034,149.88826Z" fill="#189d02"/></svg>