<svg id="Layer_1" data-name="Layer 1" xmlns="http://www.w3.org/2000/svg" viewBox="0 0 300 300"><defs><style>.cls-1{fill:#179e75;}.cls-2{fill:#99d11e;}</style></defs><path id="path28" class="cls-1" d="M41.76,156.58a4.2,4.2,0,0,1-1.09,3.14,4.1,4.1,0,0,1-2.93,1H16.52v0H14.68v-8.48h1.84v0H38.29c2.3.22,3.47,1.65,3.47,4.24m2.57-19.75a7.52,7.52,0,0,0-2.69-1.62,11.42,11.42,0,0,0-3.9-.6H10v4.63H37.74a4.08,4.08,0,0,1,2.93,1,4.2,4.2,0,0,1,1.09,3.14,4.37,4.37,0,0,1-1.08,3.19,4,4,0,0,1-2.94,1.1H14.68v0H10v17.71H37.74a11.56,11.56,0,0,0,3.95-.6,7.72,7.72,0,0,0,2.69-1.62,6.18,6.18,0,0,0,1.55-2.38,8.48,8.48,0,0,0,.51-3v-2.63c0-3.12-3.67-5.07-5.08-5.07a.11.11,0,0,1-.1-.11.09.09,0,0,1,.1-.1c1.41,0,5.08-2,5.08-5.08v-2.64a8.34,8.34,0,0,0-.53-3,6.44,6.44,0,0,0-1.58-2.4M169,165.39h36.44v-4.64H169Zm0-13.08h36.44v-4.63H169Zm46.55-13.92c-2.8,2.5-4.21,6.46-4.21,11.76a21.39,21.39,0,0,0,1,7,10.85,10.85,0,0,0,3.13,4.69,13.27,13.27,0,0,0,5.4,2.65,32.64,32.64,0,0,0,7.93.85h18.9v-4.64H229c-4.48,0-7.8-.87-9.85-2.6s-3.11-4.45-3.11-8.05,1.05-6.29,3.13-8.12,5.39-2.74,9.89-2.74h18.63v-4.63H228.87c-6,0-10.51,1.27-13.32,3.78m-36,.85h25.86v-4.63H179.58Zm105.72-4.63v13.1l-31.69,0v17.71h4.68v-13h27v13H290V134.61ZM91.8,158.18c-2.06,1.71-5.36,2.57-9.85,2.57H80.54c-4.49,0-7.8-.87-9.85-2.6s-3.12-4.45-3.12-8.05,1.06-6.29,3.14-8.12,5.4-2.74,9.88-2.74h1.53c4.37,0,7.63,1,9.69,2.82s3.11,4.57,3.11,8.09-1,6.3-3.12,8m-9.69-23.57H80.38c-6,0-10.51,1.27-13.32,3.78s-4.22,6.46-4.22,11.76a21.37,21.37,0,0,0,1,7A10.78,10.78,0,0,0,67,161.89a13.11,13.11,0,0,0,5.39,2.65,32.58,32.58,0,0,0,7.93.85h1.83a32.75,32.75,0,0,0,7.91-.85,13.23,13.23,0,0,0,5.42-2.65,10.85,10.85,0,0,0,3.13-4.69,21.41,21.41,0,0,0,1-7c0-5.3-1.43-9.26-4.25-11.76s-7.3-3.78-13.29-3.78M52.33,165.39H57V134.61H52.33Z"/><path id="path30" class="cls-2" d="M137.3,139.24h15.85v26.15h4.68V139.24h15.85v-4.63H137.3Zm0,19.51-26.87-24.14h-4.89v30.78h4.68V140.93l27.24,24.46H142V145.13H137.3Z"/></svg>