<?xml version="1.0" encoding="UTF-8"?>
<svg id="Layer_1" xmlns="http://www.w3.org/2000/svg" viewBox="0 0 300 300">
  <defs>
    <style>
      .cls-1 {
        fill: #0f235a;
      }
    </style>
  </defs>
  <path class="cls-1" d="M157.18,112.98c1.32,1.21,2.74,2.96,4.06,5.15,3.02-7.68,9.32-17.33,18.1-26.21,12.78-13.22,26.16-21.44,33.73-21.44,3.45,0,5.48,3.02,5.48,6.14,0,4.94-1.1,14.15-8.23,21.28,2.47-3.29,2.74-7.18,2.74-8.99s0-4.72-3.29-4.72c-7.13,0-19.19,8.12-35.04,26.21-3.95,4.55-7.51,9.05-10.47,13.33,1.04,2.19,2.03,4.66,2.85,7.24,2.74,8.06,3.84,15.79,3.07,20.29l2.36,4.94-5.21,2.03.05-1.81-3.67-.11v-2.58c-3.62-2.96-7.68-10.04-10.53-18.54-.77-2.19-1.37-4.33-1.81-6.36-3.18-.64-6.38-1.21-9.6-1.7-27.42-4.17-52.1-2.3-52.1,4.5,0,3.13,6.58,6.85,13.71,10.15-15.19-3.95-27.97-9.98-27.42-15.79.66-6.8,16.01-11.63,35.81-11.63,13.16,0,25.88,2.36,38.33,6.53-.16-2.19-.11-4.11.16-5.59-.36.06-.73.07-1.1.05-2.69-.05-4.72-2.08-4.66-4.55,0-1.43,1.21-2.63,2.47-3.4.16-2.36,2.3-4,4.94-4,1.26,0,2.47.44,3.29,1.26h.55c2.63.05,4.17,2.03,4.11,4.44,0,1.75-1.1,3.24-2.69,3.84v.05ZM202.1,141.77v16.45h-10.97v13.71h10.97v31.75c0,14.2,14.04,22.92,27.42,25.83l5.48-12.67c-4.5-1.7-16.45-6.25-16.45-15.08v-29.83h10.97v-13.71h-10.97v-21.94l-16.45,5.48ZM163.71,158.23h-16.45v71.29h16.45v-42.83s1.1-14.81,12.34-14.75c4.94,0,6.85,2.74,6.85,2.74l2.74-15.25s-2.74-1.26-7.68-1.21c-5.48,0-12.12,3.78-14.26,8.55,0,0,0-8.55,0-8.55ZM174.35,174.68c-3.67,0-3.95,3.51-3.95,3.51l2.36,6.69c4.14,12.32,8.86,24.43,14.15,36.3,1.37,2.85,2.63,2.85,3.29,2.85.93,0,1.04-1.75,1.04-3.29,0-4.66-2.36-13.38-4.44-21.06l-.82-3.02c-1.91-6.66-3.98-13.28-6.2-19.85,0,0-1.75-2.14-5.48-2.14h.05ZM229.52,123.68c0,5.59-12.83,12.61-29.45,12.61-13.55,0-25.06-2.41-30.87-5.48,43.98,3.95,54.84-4.44,54.84-8.55s-13.71-7.13-27.25-6.85c1.05-.12,2.09-.27,3.13-.44,1.92-.33,3.84-.6,5.81-.6,15.35,0,23.8,3.78,23.8,9.32ZM112.71,173.96c-1.92.49-3.73.71-5.21.71-1.97,0-3.51-.66-4.39-1.65-.32-.33-.6-.7-.82-1.1-12.06.55-20.84,10.42-20.84,22.21s10.69,21.66,21.94,21.66c12.83,0,21.94-9.6,21.94-21.66,0-8.83-4.94-16.67-12.61-20.18ZM128.39,166.18c8.23,6.58,13.38,16.45,13.38,27.53,0,19.36-16.45,35.81-36.74,35.81-9.76,0-18.32-2.41-23.58-7.73v7.73h-16.45v-93.23h16.45v31.97c3.02-4.72,13.16-10.04,23.58-10.04h1.86c1.92-2.41,4.39-5.05,7.46-7.84,1.37-1.21,2.47-1.92,3.73-2.74.77-.44,1.65-.99,2.52-1.65-4.61,4.11-8.66,8.55-11.35,12.45,5.21.55,10.09,2.19,14.37,4.55,7.73-4.94,17.11-13.44,26.38-26.71-.33,6.09-7.07,17-17,26.1-1.54,1.43-3.07,2.69-4.61,3.84v-.05Z"/>
</svg>