<svg id="Layer_1" data-name="Layer 1" xmlns="http://www.w3.org/2000/svg" viewBox="0 0 300 300"><path d="M289.6543,159.47054c-1.36741.08287-2.44666.20383-3.526.20514-11.484.0139-22.968-.00024-34.45189.02333-1.11638.00229-2.23232.20535-3.59077.33906a22.29048,22.29048,0,0,0,.17053,3.11006c2.08361,10.14658,10.37667,16.03947,20.72279,14.76924,1.14484-.14054,2.295-.24361,3.43527-.41392,1.95126-.29144,2.70061.21045,2.98725,2.13743a12.96293,12.96293,0,0,1,.01189,1.75859,9.43158,9.43158,0,0,1-1.728.87981c-9.151,2.514-17.355.84639-24.24417-5.82165-3.27821-3.17295-4.90446-7.29672-5.83234-11.70969-1.48291-7.05262-.975-13.84632,2.54794-20.2713,4.11459-7.50394,10.69087-10.95122,19.03082-11.48247a23.78978,23.78978,0,0,1,11.54063,2.0154c6.50554,2.94854,10.3642,8.053,12.1225,14.7951a56.20529,56.20529,0,0,1,1.1338,7.33558A9.81737,9.81737,0,0,1,289.6543,159.47054Zm-5.48744-5.06512c.47783-4.22915-3.24145-11.00652-7.46281-13.54925-6.57448-3.96013-13.35169-4.17132-20.06416-.37316-4.53611,2.5667-8.60886,9.62633-8.20074,13.96344a16.04975,16.04975,0,0,0,2.04841.25405q15.67735.0237,31.35469-.00436A18.79545,18.79545,0,0,0,284.16686,154.40542Z" fill="#0a1f68"/><path d="M26.87569,137.94982l-.59369-3.02524a9.68284,9.68284,0,0,1,1.73567-.867c10.3295-2.59622,22.73173,1.19268,27.653,13.73639a26.88319,26.88319,0,0,1,.27188,20.04578,23.51828,23.51828,0,0,1-30.19028,13.65907c-9.23344-3.339-13.71244-10.32432-15.4179-19.50635a24.1253,24.1253,0,0,1-.31809-4.34027q-.03555-18.721-.0136-37.44209c0-.30293-.00755-.60616.00289-.90875.08912-2.58385,1.73787-3.44266,4.24949-1.98623.078,1.05644.24087,2.25019.24277,3.4442q.02866,17.994.01178,35.98811a28.26566,28.26566,0,0,0,1.15692,8.78681,18.269,18.269,0,0,0,16.28024,12.80935,21.48385,21.48385,0,0,0,8.10777-.83913,16.82023,16.82023,0,0,0,10.76656-9.14671c3.41795-7.36513,3.29027-14.72521-.719-21.79974-3.47745-6.13608-8.97185-8.99362-16.039-8.782-1.63851.04907-3.27257.23372-4.91087.30819C28.50551,138.1137,27.85286,138.01253,26.87569,137.94982Z" fill="#0a1f68"/><path d="M143.99306,158.20224c.005,8.46053-2.85745,15.62479-10.01759,20.51049-12.76124,8.70763-33.46354,3.68665-36.83747-15.36441a30.81487,30.81487,0,0,1,.65379-13.68162c3.582-13.03894,19.13223-19.76317,30.83409-15.10745,9.40158,3.74053,14.41814,10.707,15.20334,20.741.05672.72476.11376,1.44956.16133,2.17494C144.00639,157.71654,143.99306,157.95982,143.99306,158.20224Zm-24.28715,19.98045c.34184,0,.58564-.01263.8278.00184a16.33769,16.33769,0,0,0,15.7118-8.01777,21.76425,21.76425,0,0,0,1.64217-21.22121c-2.96879-6.68467-8.00839-10.87352-15.72024-11.054-1.335-.03125-2.67182.0227-4.00785.02653-5.108.01467-9.08869,2.28132-12.28986,6.10731-4.82357,5.76509-5.61618,12.32961-4.23751,19.50258C103.28451,172.12439,111.82573,179.24173,119.70591,178.18269Z" fill="#0a1f68"/><path d="M157.29415,135.27039c2.377-1.87428,4.73309-1.48,5.74135.92672,2.15335,5.14008,4.16,10.34123,6.22747,15.51711q4.011,10.0417,8.02536,20.0821c.24085.60191.51386,1.191.93472,2.16144.45078-1.00539.75906-1.63394,1.01916-2.28172q10.19234-25.38328,20.37618-50.77c.18044-.44965.34426-.90845.55994-1.34113,1.06425-2.13491,3.01147-2.65475,5.15036-1.371.50348,1.1223-.06328,2.12017-.45751,3.11577q-5.45336,13.77186-10.93984,27.5307-5.90028,14.76743-11.84586,29.51686a14.95181,14.95181,0,0,1-.82665,1.81767,3.31146,3.31146,0,0,1-3.31857,1.78979,3.01875,3.01875,0,0,1-2.821-2.16843q-5.951-14.74731-11.95734-29.4724-2.528-6.23126-5.02181-12.47624C157.81,137.019,157.58007,136.15062,157.29415,135.27039Z" fill="#0a1f68"/><path d="M217.48578,134.36251h4.68762a23.9733,23.9733,0,0,1,.33869,2.88524q-.07341,18.52767-.19895,37.05516c-.01267,2.29376-.0018,4.58765-.0018,7.14673a14.36826,14.36826,0,0,1-1.59233.5805c-2.38177.61005-3.49836-.19661-3.64717-2.59535-.02248-.36216-.01718-.7263-.01705-1.08952q.00651-20.07271.0313-40.1454C217.08887,137.01925,217.3256,135.83917,217.48578,134.36251Z" fill="#0a1f68"/><path d="M79.51987,181.29347H75.40616a22.497,22.497,0,0,1-.23322-2.24438q-.01941-20.72214.00959-41.4443a23.80184,23.80184,0,0,1,.4624-3.20308l3.83367.30451C80.10647,136.7151,80.14685,179.245,79.51987,181.29347Z" fill="#0a1f68"/></svg>