<?xml version="1.0" encoding="UTF-8"?>
<svg xmlns="http://www.w3.org/2000/svg" version="1.1" xmlns:xlink="http://www.w3.org/1999/xlink" viewBox="0 0 300 300">
  <defs>
    <style>
      .cls-1 {
        fill: url(#linear-gradient-2);
      }

      .cls-2 {
        fill: url(#linear-gradient-3);
      }

      .cls-3 {
        fill: url(#linear-gradient);
      }
    </style>
    <linearGradient id="linear-gradient" x1="165.9" y1="106" x2="235" y2="106" gradientUnits="userSpaceOnUse">
      <stop offset="0" stop-color="#253d93"/>
      <stop offset=".4" stop-color="#1462aa"/>
      <stop offset=".8" stop-color="#0584bf"/>
      <stop offset="1" stop-color="#0091c7"/>
    </linearGradient>
    <linearGradient id="linear-gradient-2" x1="102.2" y1="169.9" y2="169.9" xlink:href="#linear-gradient"/>
    <linearGradient id="linear-gradient-3" x1="65" y1="149.2" x2="178.8" y2="149.2" gradientUnits="userSpaceOnUse">
      <stop offset="0" stop-color="#253d93"/>
      <stop offset=".6" stop-color="#0b76b6"/>
      <stop offset="1" stop-color="#0091c7"/>
    </linearGradient>
  </defs>
  <!-- Generator: Adobe Illustrator 28.6.0, SVG Export Plug-In . SVG Version: 1.2.0 Build 709)  -->
  <g>
    <g id="Layer_1">
      <g>
        <path class="cls-3" d="M198.8,139.6c-6.4-12.7-15.9-22.7-28.4-30.2l-1.2-.6c-1.4-.6-3.2-1.5-3.2-2.2v-41.5c21,.8,32.4,9.9,34.4,37.2h34.6v31.9h-31.9v13l-.7-1.2c-1.8-3-3-5-3.7-6.3Z"/>
        <path class="cls-1" d="M181.3,124.7c12.1,11.9,18.8,28.3,18.6,45.3,0,15.1,12.1,29.3,27.6,32.5,2.5.5,5,.9,7.5,1.3v31.2l-6.6-1.2c-4.6-.7-9.2-1.6-13.8-2.8-26.6-7.5-48.3-33-48.7-59.6,0-1,0-1.9,0-2.9,0-19-15.2-34.4-34.2-34.5-.1,0-.2,0-.3,0-11.4,0-22,5.6-28.5,15l-.7-.3v-35.1c0-1.4,3.1-3.4,4.7-4.1,25.6-10.1,54.8-4.2,74.4,15.1h0Z"/>
        <path class="cls-2" d="M96.9,168.5v-73.8c-.2-16.4-14.2-29.3-31.9-29.8v100.3c0,6.7.3,13.7,2.3,20,10.3,32.9,37.4,50.7,72.9,47.9,14.5-1.1,28.1-7.2,38.6-17.2l-16.6-31.7v.2c-.1,0-.3.3-.3.3-9,16.8-29.9,23.1-46.7,14.1-11.2-6-18.2-17.7-18.2-30.4h0c0-.1,0,0,0,0Z"/>
      </g>
    </g>
  </g>
</svg>