<?xml version="1.0" encoding="UTF-8"?>
<svg xmlns="http://www.w3.org/2000/svg" version="1.1" viewBox="0 0 300 300">
  <defs>
    <style>
      .cls-1 {
        fill: #00263e;
      }

      .cls-1, .cls-2 {
        fill-rule: evenodd;
      }

      .cls-2 {
        fill: #007da5;
      }
    </style>
  </defs>
  <!-- Generator: Adobe Illustrator 28.6.0, SVG Export Plug-In . SVG Version: 1.2.0 Build 709)  -->
  <g>
    <g id="Layer_1">
      <g id="_9df7b592-5a97-4eff-9521-a9192d897162">
        <g id="_39eb0736-0720-49c9-a140-8bd620a01074">
          <g id="_473dae00-f1c0-43c8-9fd3-223716b815a5">
            <g id="_41932ecb-d710-4810-89ac-2fbe5ee312d6">
              <path id="_6889b8c2-8d31-46ce-81e1-547ed602995b" class="cls-2" d="M118.1,111.4c42-62.9,88.9-65.3,116.9-16.8-42.2-12.7-72.8-8.5-112.5,20.5l-1.1.8c-1.1-1.6-2.2-2.9-3.3-4.5"/>
              <path id="_92cac743-6749-409e-8b96-d16b0f78808e" class="cls-2" d="M68,226.1c-5.7-17.6-2-38.6,2-51.4,4.9-14.1,12.4-27.2,22.3-38.5,3.6,5.3,7.5,10.4,11.8,15.1-6.1,14.4-10,29.7-11.6,45.3-1.9,25.1,7.4,67.1,41.3,65-7.3,1.1-14.7,1.3-22.1.5-2.3-.4-4.5-.9-6.6-1.5l-9.1-2.4c-11.9-4.9-22.2-14.7-27.9-32.1"/>
              <path id="_57baa286-9df4-4351-9b65-094d2f97722f" class="cls-1" d="M166.2,195.7c0,0,.1.2.2.2,4.4,4.7,8.3,9.8,11.9,15.1,6.2,8.6,10.4,18.5,12.2,28.9,1.6,10.7-3,21.3-11.9,27.5-10.2,7.1-23.7,8.7-35.8,8-12.8-.5-25.3-4.4-36.1-11.5,7.7,3.7,16.3,5.2,24.9,4.3,13.3-2,21.8-13,25.9-25.1,2.5-7.7,4-15.7,4.3-23.8.9-10.6-.5-21.2-3.9-31.2,0,2.4,0,4.8-.1,7.2-6.1-5.9-12.7-11.3-19.6-16.1-6.4-4.5-12.6-9.4-18.4-14.7-17.1-15.5-32.6-35.2-37.5-58.2-2.1-9.6-1.9-19.5.7-28.9,3.5-10,8.4-19.4,14.5-28.1-4.3,4.4-8.1,9.4-11.1,14.9-1.7-7.5-1.6-15.2.3-22.6,2.3-8.7,9.5-15.3,18.4-16.8,7.9-1.3,16,1,22,6.3-12.8,7.6-24.9,17.2-32.2,30.5-.7,1.4-1.4,2.7-2.1,4.2-.3.8-.6,1.5-.9,2.3-.4,1,0,1.6.4,2.5,1.2,3.2,2.6,6.4,4.1,9.5,2.6,5.3,5.5,10.4,8.8,15.3,7.2,11,15.2,21.4,23.1,31.9,8.4,10.9,16.2,22.2,23.3,33.9,3.4,5.8,6.5,11.7,9.1,17.9,2.2,5.4,4.1,11,5.6,16.7,0,0,0-.2,0,0M89.3,75.3c-1.2,3.6-2,7.3-2.4,11.1l6.8-1.1c-.8-1.8-3.7-8.2-4.3-10M86.8,89c-.4,3.9-.2,7.8.5,11.6l11.8-4.9s-3.6-6.5-4.4-8.1l-7.8,1.4M87.5,103.6c.6,3.4,1.5,6.8,2.6,10.2l15.6-7c-.8-1.3-4.6-7.7-5.4-9l-12.9,5.9M91.5,116.2c1.3,3.7,3,7.2,5,10.6l18-8.2c-1.1-1.5-5.7-8.3-6.9-9.8l-16,7.4M97.7,129.2c2.3,3.7,4.7,7.4,7.4,10.9l17.7-10c-3.6-4.7-5.9-8.2-7-9.4l-18.1,8.6M106.8,142.2c2.7,3.7,5.7,7.2,9.1,10.3l16.1-10.4-7.8-10-17.5,10M117.9,154.6c2.8,3.1,6,6,9.3,8.6l13.3-8.7c-4.4-6.6-5.9-8.7-7.1-10.3l-15.5,10.5M129.3,165c1.5,1.3,8.6,6.4,10.1,7.6l8.4-6.2c-.9-1.5-5.3-8.6-6.2-10.1l-12.4,8.6M143.5,175.9c.7.5,4.9,3.9,5.7,4.4l4.4-3.4c-.8-1.6-3.8-6.7-4.6-8.3l-7.9,5.6c.8.6,1.7,1.2,2.5,1.8M157.2,186.7s0,0,0-.1c0,0-2.2-6-2.9-7.6l-3,2.5c1.6,1.3,5.9,5.2,5.9,5.2"/>
            </g>
          </g>
        </g>
      </g>
    </g>
  </g>
</svg>