<svg id="Layer_1" data-name="Layer 1" xmlns="http://www.w3.org/2000/svg" viewBox="0 0 300 300"><defs><style>.cls-1{fill:#0a80b2;}.cls-2{fill:#acdef7;}.cls-3{fill:#8fd8f8;}.cls-4{fill:#73ccf3;}</style></defs><path class="cls-1" d="M268.88,175.42a129.61,129.61,0,0,0-21.75-34c-15.75-18.5-61.64-56.17-61.64-56.17s20.21,50.46,25.06,73.81a61,61,0,0,1,1,13C250.45,177.13,266.63,175.67,268.88,175.42Z"/><path class="cls-2" d="M203.33,214.31c0-.28,8.16-21.67,8.36-42.2l-8.78-1.19C122.87,159.49,31,119.3,31,119.3S79.41,171,139.61,197c47.64,20.61,63.3,17.56,63.3,17.56"/><path class="cls-3" d="M268.88,175.42v.13S269.05,175.42,268.88,175.42Z"/><path class="cls-4" d="M203.33,214.31,269,175.72a.84.84,0,0,0-.05-.17v-.13c-2.25.25-18.43,1.71-57.19-3.31-.15,20.53-8.31,41.92-8.41,42.2"/></svg>