<?xml version="1.0" encoding="UTF-8"?>
<svg id="Layer_1" xmlns="http://www.w3.org/2000/svg" viewBox="0 0 300 300">
  <defs>
    <style>
      .cls-1 {
        fill: #ff4c29;
      }
    </style>
  </defs>
  <path class="cls-1" d="M233.87,164.17c-.48,3.78-1.33,7.51-2.55,11.12-8.75,27.97-31.26,49.48-59.6,56.95-4.62,1.18-9.32,1.99-14.07,2.42-4.06.34-8.14.42-12.21.23-3.1-.14-6.18-.48-9.23-1.01-4.97-.78-9.86-2.03-14.6-3.72-17.85-6.26-33.1-18.33-43.29-34.27-5.92-9.13-9.99-19.33-11.98-30.03-.82-4.11-1.26-8.28-1.33-12.47,0-.32,0-.65.05-1.14l4.85-4.85,4.95-4.94,5.1-5.1c1.65-1.65,3.27-3.31,4.95-4.93,1.63-1.75,3.36-3.4,5.18-4.95.1,5.63,1.41,11.18,3.83,16.26.23.34.48.67.76.97,1.37-1.35,2.61-2.65,3.94-3.87,1.33-1.22,2.64-2.26,4.01-3.4-.39-1.51-.85-2.99-1.16-4.49-2.97-14.43,6.32-28.53,20.74-31.51,6.21-1.28,12.67-.3,18.23,2.75.45.26.89.53,1.33.8.19.15.37.31.54.48-.32.53-.65,1.06-.99,1.59-4.17,6.29-6.31,13.71-6.14,21.25,0,1.86.37,3.72.57,5.58.09.69.2,1.38.32,2.27-8.35-1.62-16.33-1.09-23.98,2.41-4.68,2.09-8.87,5.13-12.31,8.93-3.5,3.91-6.16,8.5-7.79,13.49-4.93,15.16.34,31.78,13.11,41.34,12.41,9.35,29,9.31,39.51,3.1-.5-1.17-1.7-1.7-2.46-2.63s-1.58-1.7-2.34-2.59-1.56-1.88-2.39-2.89c-7.11,2.55-14.1,2.55-20.97-.57-5.05-2.28-9.26-6.09-12.02-10.9-5.52-9.35-4.25-21.11,1.07-28.05.31.17.65.32.95.53,4.24,2.86,9.01,4.85,14.03,5.84,2.42.44,4.87.64,7.33.59,2.52.03,5.04-.22,7.51-.76.11,0,.24.05.39.09.39.53.16,1.11.06,1.66-3.55,18.63,7.55,36.93,25.71,42.4,13.22,4.07,27.61.5,37.4-9.26,11.04-10.99,22.08-21.99,33.1-33.01.58-.58,1.27-1.06,1.9-1.59v-.09Z"/>
  <path class="cls-1" d="M235,147.3l-24.97,24.93c-.23-.36-.11-.85-.14-1.35-.24-4.78-1.39-9.48-3.4-13.83-.23-.46-.48-.91-.76-1.33-.05-.09-.22-.1-.48-.22-.76.77-1.56,1.61-2.39,2.4-.83.79-1.8,1.7-2.74,2.47s-1.78,1.46-2.73,2.24c1.28,4.05,2.12,8.06,1.66,12.26-.31,3.22-1.17,6.35-2.55,9.27-1.16,2.39-2.67,4.59-4.5,6.52-1.91,2.02-4.12,3.73-6.54,5.1-9.14,5.19-21.36,3.77-27.59-1.3.24-.42.46-.85.74-1.28,3.41-5.08,5.51-10.92,6.13-17,.38-3.54.22-7.12-.47-10.61-.1-.48-.13-.99-.19-1.55.96-.38,1.77.11,2.55.24,1.73.25,3.47.38,5.22.37,18.03.4,33.76-12.16,37.34-29.83,3.19-15.97-4.37-32.16-18.67-39.96-5.05-2.8-10.69-4.35-16.46-4.53-5.77-.24-11.51.85-16.79,3.18-.63.29-1.23.64-1.91.99.71,1.22,1.79,1.87,2.6,2.77s1.59,1.7,2.35,2.55,1.56,1.87,2.35,2.83c6.69-2.27,13.29-2.49,19.81.09,13.62,5.42,20.27,20.86,14.85,34.48-.7,1.76-1.59,3.45-2.65,5.02-.43-.21-.86-.44-1.27-.69-4.09-2.74-8.68-4.65-13.5-5.64-2.73-.51-5.52-.72-8.3-.65-2.51-.03-5,.27-7.43.91-.04-.49-.04-.99,0-1.49.51-2.47.75-4.98.7-7.5-.02-9.42-3.67-18.47-10.2-25.26-5.39-5.74-12.47-9.62-20.2-11.07-2.24-.39-4.52-.57-6.8-.53-10.03-.2-19.69,3.76-26.69,10.95-11.05,10.91-21.98,21.91-32.96,32.88-.49.49-1.01.96-1.76,1.7-.05-.51-.05-1.03,0-1.55,5.3-25.6,19.24-45.02,41.82-58.27,8.01-4.63,16.77-7.84,25.88-9.47,2.86-.53,5.74-.85,8.62-1.19,3.93-.35,7.88-.43,11.82-.23,3.55.13,7.09.53,10.58,1.19,8.54,1.49,16.79,4.32,24.45,8.38,22.56,12.21,37.01,30.73,43.35,55.57,1.32,5.06,2.07,10.25,2.23,15.47v1.56Z"/>
  <path class="cls-1" d="M150.15,186.58c-5.34-7.26-5.95-19.65-.21-28.12.27.26.51.54.72.85,4.36,7.66,4.66,16.98.8,24.91-.37.72-.8,1.46-1.31,2.36Z"/>
  <path class="cls-1" d="M158.5,149.98c7.27-5.39,20.58-5.52,28.05,0-7.3,5.45-20.71,5.46-28.05,0Z"/>
  <path class="cls-1" d="M150,141.36c-5.55-7.35-5.44-20.65,0-27.75,5.56,7.16,5.52,20.66,0,27.75Z"/>
  <path class="cls-1" d="M113.45,149.98c8.02-5.64,21.02-5.22,28.05,0-6.88,5.17-19.89,5.69-28.05,0Z"/>
</svg>