<svg id="Layer_1" data-name="Layer 1" xmlns="http://www.w3.org/2000/svg" viewBox="0 0 300 300"><defs><style>.cls-1{fill:#189ad6;}.cls-2{fill:#0b78a9;}.cls-3{fill:#0687bd;}.cls-4{fill:#0591c8;}</style></defs><path class="cls-1" d="M212.43,154.57H202c-.27.6-.48,1.1-.72,1.59a13.75,13.75,0,0,1-8.85,7.7c-6.13,1.74-11.67-1.76-12.86-8-.1-.53-.17-1.08-.28-1.78l-12.36-.57c-.62,1.44-.9,3-1.9,4.21-.33-.74-1.05-.84-1.71-1.08a63.06,63.06,0,0,1-12.7-6.28,61.57,61.57,0,0,1-10.41-8.92,10.5,10.5,0,0,1-1.9-2.42v-1.1l0,0,.24-.22.09-.08a.8.8,0,0,0,.17-.15A20.06,20.06,0,0,1,142,135l-4-9c-1.47.09-2.81.76-4.24.64a3.65,3.65,0,0,0-.46-2,47.24,47.24,0,0,1-2.31-6.42,57.56,57.56,0,0,1-2-11.79c-.16-2,0-4,0-6,4.71-2.34,9.55-2.83,14.45-.7a11.54,11.54,0,0,1,6.64,14.09,16.82,16.82,0,0,1-7,9.45c-.4.29-.82.55-1.36.9l4.27,9.17a18.63,18.63,0,0,1,12.21,1.25l5.84-8.28c-.45-.48-.83-.88-1.19-1.29a17.89,17.89,0,0,1,4.93-27.46A15.74,15.74,0,0,1,182,97.15c.45.19.9.42,1.55.72,2-3,4-6,5.9-9a5.76,5.76,0,0,0-1.26-1.43c-4.93-5.44-6.51-11.67-4.34-18.71a13.43,13.43,0,0,1,5.73-7.45,8.76,8.76,0,0,1,5.19-1.67,9.78,9.78,0,0,0,1.79-.11,11.71,11.71,0,0,1,7.57,1.75c7.34,4.26,10.91,14,7.93,21.84-1.84,4.87-5.25,8.08-10.47,9.07a13.44,13.44,0,0,1-7.36-.74l-1.27-.49-6.15,9.47a17.71,17.71,0,0,1,5,13.3,17.51,17.51,0,0,1-4.07,10.57,16.7,16.7,0,0,1-9.34,5.85,16.06,16.06,0,0,1-10.87-1.35l-5.77,8.2a17.43,17.43,0,0,1,5.66,12.44l12.27.6a3.71,3.71,0,0,0,.78-1.51,13.52,13.52,0,0,1,9.29-8,10,10,0,0,1,12.72,9c0,.34.08.67.12,1.08,2.09.27,4.14,0,6.16.22.65.57,1.57-.07,2.32.51-.72,1.44-2.73,1.34-3.51,2.91,1.34.2,2.53,0,3.7.13C211.63,154.37,212.13,154,212.43,154.57Z"/><path class="cls-2" d="M66.28,160c-2.81-3.45-3.32-7.37-2.6-11.43a20.87,20.87,0,0,1,7.73-12.95,12.78,12.78,0,0,1,4.34-2.3,8.23,8.23,0,0,1,9.71,3.39,12,12,0,0,1,2,7.53A20.64,20.64,0,0,1,82,157.77a15.06,15.06,0,0,1-5.47,3.86,9.91,9.91,0,0,1-7.3.29,5.35,5.35,0,0,0-.71-.17C66,166,63.42,170.3,60.85,174.61a11.78,11.78,0,0,1,1.73,7.56,130,130,0,0,0,13.24,1c.13-.65.23-1.22.35-1.8a13.1,13.1,0,0,1,5.2-8.46A9.13,9.13,0,0,1,94,174.53c4.61,5.55,3.42,15-2.43,19.27a9.15,9.15,0,0,1-13.3-2.2A12.85,12.85,0,0,1,76.51,188a3.45,3.45,0,0,0-.5-1.29c-.65-.08-1.34-.19-2-.24-4-.26-8-.8-12-1.25a3.7,3.7,0,0,0-.75,1.38,11.14,11.14,0,0,1-2.83,3.82c-3.16,2.65-6.77,1.82-8.45-1.94a11.73,11.73,0,0,1-.63-6.9,12.17,12.17,0,0,1,3.23-6.63c1.74-1.8,3.77-2.79,6.48-1.81C61.34,168.69,63.77,164.36,66.28,160Z"/><path class="cls-2" d="M137.05,198.17a12.16,12.16,0,0,1-4.18,3.49l-.33.22-.11.05-.07,0a15.46,15.46,0,0,1-14.11.78c-.55-.22-1.08-.5-1.8-.83l-5.91,9a5.5,5.5,0,0,0,1.18,1.32c5.09,5.54,6.74,11.93,4.33,19.1a13.4,13.4,0,0,1-13.46,9.24,14,14,0,0,1-4.93-1.15C89,235.74,84.49,224.66,88.21,216a13.39,13.39,0,0,1,11.05-8.56c2.14-.28,4.57.13,7.79,1.37,2-3.12,4.07-6.27,6.07-9.37a2.92,2.92,0,0,0-.76-1.06c-4.45-5.55-5.3-11.66-2.86-18.28a2.12,2.12,0,0,1,.25-.36,1.08,1.08,0,0,1,.69.25c1.43,1.38,3,2.6,4.5,3.9,2.07,1.78,4.26,3.4,6.47,5A126,126,0,0,0,137.05,198.17Z"/><path class="cls-3" d="M167.05,200.7a15,15,0,0,1-10.38-.68,11.64,11.64,0,0,1-6.56-14.86,17,17,0,0,1,6.73-8.72c.4-.29.81-.56,1.28-.88-.32-1.39-1.22-2.52-1.57-3.86a4.38,4.38,0,0,1,2,.36,5.8,5.8,0,0,0,2.82.53l.74,1.19c1.3-.25,2.59-.59,3.92-.73a15.27,15.27,0,0,1,8.17,1.25,11.67,11.67,0,0,1,6.48,14.27,16.84,16.84,0,0,1-8.55,10.09l-.29.19,0,.07h-.09l-.45.24-.06.07h-.08l-.43.21a2.16,2.16,0,0,1-1,.41.61.61,0,0,0-.52.22l-.34.09a.62.62,0,0,0-.56.22l-.36.08C167.59,200.45,167.27,200.41,167.05,200.7Z"/><path class="cls-3" d="M137.05,198.17a126,126,0,0,1-15.64-9.25c-2.21-1.59-4.4-3.21-6.47-5-1.51-1.3-3.07-2.52-4.5-3.9a1.08,1.08,0,0,0-.69-.25A16.46,16.46,0,0,1,120.53,170a15.27,15.27,0,0,1,11,.64l.87.38c.79-.63,1.13-1.62,1.84-2.31a.27.27,0,0,0,.15-.18,1.41,1.41,0,0,1,.55-.78,7.53,7.53,0,0,0,3.11,2.53l-2,3.12a4.34,4.34,0,0,0,1,1.13,18,18,0,0,1,.54,23.3A4,4,0,0,1,137.05,198.17Z"/><path class="cls-4" d="M138,170.23a7.53,7.53,0,0,1-3.11-2.53c.93-1.71,2.27-3.15,3.3-4.92a17.37,17.37,0,0,1-5.64-12.33l-4-.29a26.73,26.73,0,0,1-4.47-.31c.66-.11,1.36.13,2-.18a2.24,2.24,0,0,0-.82-1.55c-.52-.63-1.18-1.21-1.14-2.14h.61c.32.33.73.25,1.12.25h7.21a17.58,17.58,0,0,1,5.17-8.32V139a10.5,10.5,0,0,0,1.9,2.42,61.57,61.57,0,0,0,10.41,8.92,63.06,63.06,0,0,0,12.7,6.28c.66.24,1.38.34,1.71,1.08a1.47,1.47,0,0,1-.48.83l-.18.24a13.55,13.55,0,0,1-2.87,3.4,30.64,30.64,0,0,1-3.49,2.59c1,2.7,2.45,5.15,3.38,7.82a5.8,5.8,0,0,1-2.82-.53,4.38,4.38,0,0,0-2-.36c-1.05-1.68-1.63-3.6-2.7-5.38a17.57,17.57,0,0,1-12.06-1.19Z"/><path class="cls-4" d="M212.43,154.57c-.3-.53-.8-.2-1.19-.23-1.17-.08-2.36.07-3.7-.13.78-1.57,2.79-1.47,3.51-2.91-.75-.58-1.67.06-2.32-.51H213a4.48,4.48,0,0,0,.66-1.51,19.62,19.62,0,0,1,6.7-9.35,12.07,12.07,0,0,1,7.19-2.63,7.89,7.89,0,0,1,7.15,3.87,13.08,13.08,0,0,1,1.84,8.47A21,21,0,0,1,230,162.93a15.18,15.18,0,0,1-1.95,1.63c-3,2.12-6.23,3.09-9.95,1.76-1.19,1.6-2.36,3.2-3.54,4.79a5.52,5.52,0,0,0-2.71.55.64.64,0,0,1-.46-.63c.95-1.69,2.21-3.16,3.27-4.77l1-1.43c0-.15,0-.28-.06-.34a12.54,12.54,0,0,1-3.13-9.33C212.47,155,212.44,154.77,212.43,154.57Z"/><path class="cls-3" d="M124.16,146c0,.93.62,1.51,1.14,2.14a2.24,2.24,0,0,1,.82,1.55c-.64.31-1.34.07-2,.18h-4a6.25,6.25,0,0,0-.64,1.44c-2.07,4.44-5.36,7.39-10.3,8.21a10,10,0,0,1-11.73-9.3,14,14,0,0,1,12-14.64,9.89,9.89,0,0,1,11.09,8.92c0,.35.06.69.1,1.1C121.79,146,123,145.74,124.16,146Z"/><path class="cls-4" d="M107.37,99.21c1-1.75,2.5-3.22,3.64-4.85a.61.61,0,0,0-.2-.58c-2.17-2.28-2.25-4.87-1.11-7.62a12,12,0,0,1,2.63-3.79,24,24,0,0,1,13.59-7,12.3,12.3,0,0,1,7,.79,6,6,0,0,1,3.67,7.44,13.51,13.51,0,0,1-4.33,6.85A21.84,21.84,0,0,1,118,96.13a23,23,0,0,1-3.91-.42c-1.8,2.12-3.47,4.36-5.15,6.58a4.16,4.16,0,0,1-1,1.14c-.58-.07-.66-.48-.66-1C107.38,101.38,107.37,100.3,107.37,99.21Z"/><path class="cls-2" d="M182.2,203.7a11.38,11.38,0,0,1,4.1.61c4,1.41,5.62,4.89,4.15,8.85a11.38,11.38,0,0,1-2.58,4,23.6,23.6,0,0,1-15,7.38,11.57,11.57,0,0,1-6.13-1,6,6,0,0,1-3.46-7.28,13.17,13.17,0,0,1,3.44-6A21.84,21.84,0,0,1,182.2,203.7Z"/><path class="cls-1" d="M224.05,116.44a13.35,13.35,0,0,1-5.26,10.31,9.17,9.17,0,0,1-13-1.66c-4.44-5.57-3.24-14.78,2.48-19A9.09,9.09,0,0,1,221.53,108,13.6,13.6,0,0,1,224.05,116.44Z"/><path class="cls-3" d="M107.37,99.21c0,1.09,0,2.17,0,3.26,0,.48.08.89.66,1-.41.67-.83,1.33-1.27,2,2.3,2.84,2.08,6,.74,9a14.73,14.73,0,0,1-10.29,8.8,10.06,10.06,0,0,1-4.16.09,6.07,6.07,0,0,1-4.88-5.52c-.06-.74,0-1.48,0-2.2h-3a7.85,7.85,0,0,0-.27-3c1.38-.49,2.88-.18,4.31-.6,3.4-5.28,7.71-9,14.71-8.4C105.15,102.36,106,100.6,107.37,99.21Z"/><path class="cls-3" d="M211.4,171a.64.64,0,0,0,.46.63,5.52,5.52,0,0,1,2.71-.55l-.21.28-.24.31c-1.26,2.09-2.87,3.94-4.2,5.94,0,.15,0,.27.06.33a7.29,7.29,0,0,1,1.33,8,15.27,15.27,0,0,1-11.77,10.18,6.48,6.48,0,0,1-7.84-4.79,8.92,8.92,0,0,1,.38-5,14.81,14.81,0,0,1,11.23-9.93,10.52,10.52,0,0,1,3.95.06Z"/><path class="cls-4" d="M240.53,82.53A12.67,12.67,0,0,1,239,89.14c-2.27,3.94-6.47,4.89-10.26,2.35a10.21,10.21,0,0,1-2.76-2.72,15.17,15.17,0,0,1-2.23-13,9.61,9.61,0,0,1,1.74-3.45,6.56,6.56,0,0,1,9.31-1.46c3,2.11,4.6,5.18,5.42,8.68A10.41,10.41,0,0,1,240.53,82.53Z"/><path class="cls-2" d="M142,207.36a13,13,0,0,1,7.13,1.9c2.33,1.54,3.67,3.63,3.29,6.56a6.88,6.88,0,0,1-2,3.91,14.5,14.5,0,0,1-8.16,4.08,14.26,14.26,0,0,1-7.38-.59,9.52,9.52,0,0,1-3.78-2.36,6,6,0,0,1-1.2-6.91A9.51,9.51,0,0,1,133.2,210,15.36,15.36,0,0,1,142,207.36Z"/><path class="cls-1" d="M157.7,92.36a12.77,12.77,0,0,1-5-.9,9.39,9.39,0,0,1-2.81-1.7,6.23,6.23,0,0,1-.87-9,9.14,9.14,0,0,1,2.14-2.07,15.53,15.53,0,0,1,13.68-2.29,9.56,9.56,0,0,1,3.53,1.91,6.18,6.18,0,0,1,1.43,8.21A9.93,9.93,0,0,1,167,89.62,15.21,15.21,0,0,1,157.7,92.36Z"/><path class="cls-4" d="M129,100.53c0,2-.14,4,0,6a57.56,57.56,0,0,0,2,11.79,47.24,47.24,0,0,0,2.31,6.42,3.65,3.65,0,0,1,.46,2,11.13,11.13,0,0,1-3.31,0c-.42-.39-.95-.17-1.43-.24a11.78,11.78,0,0,1-9.77-15C120.7,106.29,124.2,102.82,129,100.53Z"/><path class="cls-2" d="M84.89,112.69a7.85,7.85,0,0,1,.27,3l-.54,0c-.52,0-1.07-.19-1.54.22l-.36,0c-.59.05-1.21-.17-1.74.24-1.35.32-2.77.32-4.11.75a19.43,19.43,0,0,1-4.63,6.74,12.14,12.14,0,0,1-4.65,2.9c-3.13,1-5-.42-4.9-3.7a9.15,9.15,0,0,1,.67-3.2,20.8,20.8,0,0,1,7.94-9.84,5.8,5.8,0,0,1,3.35-1.11,2.93,2.93,0,0,1,3,2.39,6.45,6.45,0,0,1,.13,2.36c1,.32,1.84-.3,2.73-.18.44-.07.92.13,1.3-.24A11.79,11.79,0,0,1,84.89,112.69Z"/><path class="cls-3" d="M222.18,187.12a9.17,9.17,0,0,1,.62-3.35,17.88,17.88,0,0,1,7.07-9.37,8,8,0,0,1,3.86-1.5,2.94,2.94,0,0,1,3.48,2.84,9.13,9.13,0,0,1-.73,4.68,21,21,0,0,1-7.37,9.22,7.44,7.44,0,0,1-2.82,1.31,3.14,3.14,0,0,1-4.11-3.08C222.16,187.62,222.18,187.37,222.18,187.12Z"/><path class="cls-3" d="M242.78,154.41a20,20,0,0,1,4.12-11.21,8.19,8.19,0,0,1,2.82-2.41c2.14-1,3.72-.37,4.4,1.91a12.32,12.32,0,0,1-.09,6.35,21.29,21.29,0,0,1-3.9,8.32,8.86,8.86,0,0,1-2.51,2.33,2.71,2.71,0,0,1-4.05-1.1A8.59,8.59,0,0,1,242.78,154.41Z"/><path class="cls-2" d="M45.5,154.13a20.56,20.56,0,0,1,4.91-12.41A7.23,7.23,0,0,1,52.46,140a2.69,2.69,0,0,1,3.86,1.05,6.9,6.9,0,0,1,.87,3.89,19.86,19.86,0,0,1-4,11.52,8.3,8.3,0,0,1-3,2.6c-2,.93-3.52.26-4.24-1.82A10.25,10.25,0,0,1,45.5,154.13Z"/><path class="cls-3" d="M98,83.18c2.45,0,3.56,1.29,3,3.54a6.49,6.49,0,0,1-.64,1.67,18.15,18.15,0,0,1-12.61,9.42,4.72,4.72,0,0,1-.74.11c-2.36.1-3.54-1.36-2.94-3.64a7.05,7.05,0,0,1,1-2.3,23.79,23.79,0,0,1,10.22-8.23,8.79,8.79,0,0,1,1.44-.41C97.25,83.25,97.7,83.22,98,83.18Z"/><path class="cls-2" d="M213.06,201.91c2.23,0,3.2,1.14,2.85,3.26a6,6,0,0,1-1,2.47,23.31,23.31,0,0,1-10.47,8.43,6.92,6.92,0,0,1-2.78.53c-2.24,0-3.29-1.39-2.73-3.56a9.15,9.15,0,0,1,1.14-2.6,18.85,18.85,0,0,1,11.29-8.33A7.56,7.56,0,0,1,213.06,201.91Z"/><path class="cls-3" d="M129.31,146.23h-3.42c-.39,0-.8.08-1.12-.25A18.66,18.66,0,0,1,129.31,146.23Z"/><path class="cls-1" d="M81,116.2c.53-.41,1.15-.19,1.74-.24A4,4,0,0,1,81,116.2Z"/><path class="cls-1" d="M129,126.45c.48.07,1-.15,1.43.24A2.22,2.22,0,0,1,129,126.45Z"/><path class="cls-3" d="M83.08,115.92c.47-.41,1-.21,1.54-.22A2.64,2.64,0,0,1,83.08,115.92Z"/><path class="cls-4" d="M81.82,113.07c-.38.37-.86.17-1.3.24A2.17,2.17,0,0,1,81.82,113.07Z"/><path class="cls-1" d="M167.05,200.7c.22-.29.54-.25.84-.25A1.06,1.06,0,0,1,167.05,200.7Z"/><path class="cls-1" d="M171.23,199.16l.45-.24A.51.51,0,0,1,171.23,199.16Z"/><path class="cls-1" d="M170.66,199.43l.43-.21A.46.46,0,0,1,170.66,199.43Z"/><path class="cls-1" d="M168.25,200.37a.62.62,0,0,1,.56-.22A.63.63,0,0,1,168.25,200.37Z"/><path class="cls-1" d="M169.15,200.06a.61.61,0,0,1,.52-.22A.59.59,0,0,1,169.15,200.06Z"/><path class="cls-1" d="M134.35,168.48a.27.27,0,0,1-.15.18A.15.15,0,0,1,134.35,168.48Z"/><path class="cls-1" d="M171.82,198.85l.29-.19A.27.27,0,0,1,171.82,198.85Z"/><path class="cls-4" d="M214.12,171.7l.24-.31A.3.3,0,0,1,214.12,171.7Z"/><path class="cls-4" d="M138.56,137.64l-.24.22A.26.26,0,0,1,138.56,137.64Z"/><path class="cls-4" d="M138.82,137.41a.8.8,0,0,1-.17.15A.15.15,0,0,1,138.82,137.41Z"/><path class="cls-1" d="M164.33,158.78l.18-.24A.21.21,0,0,1,164.33,158.78Z"/><polygon class="cls-4" points="132.36 201.96 132.43 201.93 132.39 202.01 132.36 201.96"/><path class="cls-4" d="M132.54,201.88l.33-.22A.3.3,0,0,1,132.54,201.88Z"/></svg>