<svg id="Layer_1" data-name="Layer 1" xmlns="http://www.w3.org/2000/svg" viewBox="0 0 300 300"><path d="M88.79646,170.13577a70.37228,70.37228,0,0,1,.04509-40.98794c7.26073-19.617,21.0123-32.79814,40.22292-40.56643a80.79992,80.79992,0,0,1,41.712.064c19.02105,7.64757,32.2033,21.15809,40.12049,39.95539a85.76282,85.76282,0,0,1,.03044,42.09729c-7.94289,18.97383-21.05119,32.721-40.51335,40.03921a72.011,72.011,0,0,1-41.005.051Q99.90564,199.65014,88.79646,170.13577Zm83.44621-20.89741c-.29179-12.23389-11.22144-22.59641-23.24572-22.03955a22.90962,22.90962,0,0,0-21.70712,22.52135c.00688,12.25371,10.514,22.70085,22.71345,22.5838C162.16714,172.18726,172.53359,161.43571,172.24267,149.23836Z" fill="#020281"/><path d="M210.897,128.60081c-7.91719-18.7973-21.09944-32.30782-40.12049-39.95539,11.445-13.38532,24.63624-25.01373,37.56205-38.59628C216.58791,69.41594,229.34869,82.88714,250,90.595,236.32641,103.73687,224.51258,117.04156,210.897,128.60081Z" fill="#ef9004"/><path d="M170.41406,210.73731c19.46216-7.31816,32.57046-21.06538,40.51335-40.03921,13.49553,11.35228,24.929,24.73964,38.68359,37.65287-19.624,8.14-32.95827,20.9757-40.71263,41.59989C195.39125,236.18777,182.90264,223.46255,170.41406,210.73731Z" fill="#ef9004"/><path d="M129.06447,88.58138c-19.21062,7.76831-32.96219,20.94945-40.22291,40.56644L51.6566,90.33813C69.79682,82.9066,83.12824,69.97187,89.888,51.78807Q109.50981,70.21628,129.06447,88.58138Z" fill="#ef9004"/><path d="M88.79646,170.13577q11.08741,29.53611,40.61263,40.65255c-12.69487,12.2836-25.38972,24.56719-38.74738,37.49214-4.00552-8.75828-8.66221-17.14546-15.65107-23.93933C68.18281,217.70376,60.0797,213.10153,50,208.69383,63.30679,195.46881,76.05163,182.8023,88.79646,170.13577Z" fill="#ef9004"/></svg>