<?xml version="1.0" encoding="UTF-8"?>
<svg xmlns="http://www.w3.org/2000/svg" version="1.1" xmlns:xlink="http://www.w3.org/1999/xlink" viewBox="0 0 300 300">
  <defs>
    <style>
      .cls-1 {
        fill: url(#linear-gradient-2);
      }

      .cls-2 {
        fill: url(#linear-gradient-3);
      }

      .cls-3 {
        fill: url(#linear-gradient);
      }
    </style>
    <linearGradient id="linear-gradient" x1="228" y1="199.3" x2="231.2" y2="199.3" gradientTransform="translate(-2450.7 -9544.7) scale(11 48.7)" gradientUnits="userSpaceOnUse">
      <stop offset="0" stop-color="#c0ccc7"/>
      <stop offset="1" stop-color="#939598"/>
    </linearGradient>
    <linearGradient id="linear-gradient-2" x1="227.5" y1="207.7" x2="230.8" y2="207.7" gradientTransform="translate(-5511.3 -5002.2) scale(24.8)" gradientUnits="userSpaceOnUse">
      <stop offset="0" stop-color="#0080bc"/>
      <stop offset=".3" stop-color="#037cba"/>
      <stop offset=".5" stop-color="#0e72b6"/>
      <stop offset=".8" stop-color="#2062b0"/>
      <stop offset="1" stop-color="#374ea8"/>
    </linearGradient>
    <linearGradient id="linear-gradient-3" x1="225.2" y1="199.3" x2="228.4" y2="199.3" gradientTransform="translate(-10148.6 -9545.2) scale(45.5 48.7)" gradientUnits="userSpaceOnUse">
      <stop offset="0" stop-color="#3fae49"/>
      <stop offset="1" stop-color="#248a2d"/>
    </linearGradient>
  </defs>
  <!-- Generator: Adobe Illustrator 28.6.0, SVG Export Plug-In . SVG Version: 1.2.0 Build 709)  -->
  <g>
    <g id="Layer_1">
      <g>
        <path class="cls-3" d="M92,104.5c-8.5,4.9-19.4,2-24.3-6.6s-2-19.4,6.6-24.3c8.5-4.9,19.4-2,24.3,6.6,4.9,8.2,2,19.4-6.6,24.3M65,211c0,9.9,7.9,17.8,17.8,17.8h0c9.9,0,17.8-7.9,17.8-17.8s-7.9-17.8-17.8-17.8h0c-9.9-.3-17.8,7.9-17.8,17.8h0"/>
        <path class="cls-1" d="M159,142.9c-8.5,4.9-19.4,2-24.3-6.6-4.9-8.5-2-19.4,6.6-24.3h0c8.5-4.9,19.4-2,24.3,6.6h0c4.6,8.5,2,19.4-6.6,24.3M203.4,142.9c8.5-4.9,11.5-15.8,6.6-24.3-4.9-8.5-15.8-11.5-24.3-6.6h0c-8.5,4.9-11.5,15.8-6.6,24.3h0c4.9,8.9,15.8,11.5,24.3,6.6M185.7,156.7c-8.5,4.9-11.5,15.8-6.6,24.3,4.9,8.5,15.8,11.5,24.3,6.6,8.5-4.9,11.5-15.8,6.6-24.3-4.9-8.5-15.8-11.5-24.3-6.6M141,156.7c-8.5,4.9-11.5,15.8-6.6,24.3h0c4.9,8.5,15.8,11.5,24.3,6.6h0c8.5-4.9,11.5-15.8,6.6-24.3-4.9-8.5-15.8-11.5-24.3-6.6"/>
        <path class="cls-2" d="M235,89c0,9.9-7.9,17.8-17.8,17.8h0c-9.9,0-17.8-7.9-17.8-17.8h0c0-9.9,7.9-17.8,17.8-17.8h0c9.5-.3,17.8,7.9,17.8,17.8h0M114.3,142.9c8.5-4.9,11.5-15.8,6.6-24.3-4.9-8.5-15.8-11.5-24.3-6.6h0c-8.5,4.9-11.5,15.8-6.6,24.3,4.6,8.5,15.8,11.5,24.3,6.6M136.7,104.5c8.5-4.9,11.5-15.8,6.6-24.3h0c-4.9-8.5-15.8-11.5-24.3-6.6h0c-8.5,4.9-11.5,15.8-6.6,24.3,4.6,8.5,15.8,11.5,24.3,6.6M181.1,104.5c8.5-4.9,11.5-15.8,6.6-24.3h0c-4.9-8.5-15.8-11.5-24.3-6.6h0c-8.5,4.9-11.5,15.8-6.6,24.3,4.9,8.5,15.8,11.5,24.3,6.6M208,195.5c-8.5,4.9-11.5,15.8-6.6,24.3h0c4.9,8.5,15.8,11.5,24.3,6.6h0c8.5-4.9,11.5-15.8,6.6-24.3-4.9-8.5-15.8-11.5-24.3-6.6M163.3,195.5c-8.5,4.9-11.5,15.8-6.6,24.3h0c4.9,8.5,15.8,11.5,24.3,6.6h0c8.5-4.9,11.5-15.8,6.6-24.3-4.9-8.5-15.8-11.5-24.3-6.6M118.6,195.5c-8.5,4.9-11.5,15.8-6.6,24.3h0c4.9,8.5,15.8,11.5,24.3,6.6h0c8.5-4.9,11.5-15.8,6.6-24.3-4.9-8.5-15.8-11.5-24.3-6.6M96.2,156.7c-8.5,4.9-11.5,15.8-6.6,24.3h0c4.9,8.5,15.8,11.5,24.3,6.6h0c8.5-4.9,11.5-15.8,6.6-24.3-4.6-8.5-15.8-11.5-24.3-6.6"/>
      </g>
    </g>
  </g>
</svg>