<?xml version="1.0" encoding="UTF-8"?>
<svg xmlns="http://www.w3.org/2000/svg" version="1.1" viewBox="0 0 300 300">
  <defs>
    <style>
      .cls-1 {
        fill: #393c41;
      }

      .cls-2 {
        fill: #721f1d;
      }
    </style>
  </defs>
  <!-- Generator: Adobe Illustrator 28.6.0, SVG Export Plug-In . SVG Version: 1.2.0 Build 709)  -->
  <g>
    <g id="Layer_1">
      <g>
        <g>
          <path class="cls-2" d="M44.3,157.3c-1.3,2.5-3.2,4.6-5.6,6.1-2.4,1.5-5.2,2.2-8.1,2.3-4.2.1-8.1-1.6-11-4.6-3-2.9-4.7-6.9-4.6-11.1-.1-8.5,6.7-15.4,15.1-15.5.2,0,.3,0,.5,0,5.8,0,11.1,3.2,13.7,8.3h-3.4c-2.3-3.6-6.3-5.6-10.6-5.4-3.3,0-6.4,1.3-8.7,3.6-5,4.9-5,13-.1,18,2.3,2.5,5.6,3.9,9,3.9,2.1,0,4.2-.6,6-1.6,1.8-.9,3.3-2.3,4.4-3.9h3.4Z"/>
          <path class="cls-2" d="M65.5,153.7c0-2.3-.9-4.4-2.5-6.1-1.5-1.6-3.6-2.6-5.9-2.5-2.3,0-4.5.9-6.1,2.5-1.6,1.6-2.6,3.8-2.6,6.1,0,2.3.8,4.5,2.3,6.2,1.5,1.7,3.6,2.7,5.9,2.8,2.4.1,4.7-.8,6.3-2.6,1.7-1.7,2.6-4.1,2.5-6.5h0ZM68.5,153.9v11.3h-3v-3.5c-4,4.7-11.1,5.4-15.8,1.4-.4-.3-.7-.6-1-1-4.4-4.7-4.3-12,.3-16.6,2.2-2.3,5.2-3.5,8.4-3.3,3,0,5.9,1.4,8,3.6,2.2,2.1,3.3,5.1,3.2,8.1h0Z"/>
          <path class="cls-2" d="M93.6,153.7c0-2.3-1-4.5-2.6-6.1-1.6-1.7-3.8-2.6-6.1-2.5-2.2,0-4.4.9-5.9,2.5-1.6,1.6-2.5,3.8-2.5,6.1-.1,2.4.8,4.8,2.5,6.5,1.6,1.8,3.9,2.7,6.3,2.6,2.3,0,4.4-1.1,5.9-2.8,1.6-1.7,2.4-3.9,2.4-6.2h0ZM96.6,153.9c0,3-1.1,6-3.3,8.2-4.5,4.6-11.8,4.7-16.4.2-2.3-2.2-3.5-5.2-3.5-8.4v-19.1h3v11.3c2-2.5,5-3.9,8.2-4,3.1-.2,6.2,1.1,8.3,3.3,2.3,2.2,3.6,5.2,3.5,8.4h0Z"/>
          <path class="cls-2" d="M121.2,153.7c0-2.3-.9-4.4-2.5-6.1-1.5-1.6-3.6-2.6-5.9-2.5-2.3,0-4.5.9-6.1,2.5-1.6,1.6-2.6,3.8-2.6,6.1,0,2.3.8,4.5,2.3,6.2,1.5,1.7,3.6,2.7,5.8,2.8,2.4.1,4.7-.8,6.3-2.6,1.7-1.7,2.6-4.1,2.6-6.5h0ZM124.2,153.9v11.3h-3v-3.5c-4,4.7-11,5.4-15.8,1.4-.4-.3-.7-.6-1-1-4.4-4.7-4.3-12,.3-16.6,2.2-2.3,5.2-3.5,8.4-3.3,3,0,5.9,1.4,8,3.6,2.1,2.2,3.3,5.1,3.1,8.1h0Z"/>
          <path class="cls-2" d="M132.3,134.8h-3v30.3h3v-30.3Z"/>
          <path class="cls-2" d="M157.9,152.2c-.4-2-1.4-3.8-2.9-5.1-3.2-2.6-7.9-2.7-11.2,0-1.6,1.3-2.7,3.1-3.1,5.2h17.2ZM160.9,154.9h-20.2c.2,2.2,1.2,4.2,2.9,5.6,1.6,1.5,3.8,2.2,6,2.2,3.3,0,6.3-1.9,7.6-4.9h3.2c-1.6,4.7-6,7.9-10.9,7.9-3.1,0-6-1.2-8.1-3.4-4.7-4.5-4.8-11.9-.4-16.5.1-.1.2-.2.3-.3,2.2-2.4,5.4-3.6,8.7-3.4,3,.2,5.8,1.5,7.8,3.7,2,2,3.2,4.7,3.2,7.5v1.7h0Z"/>
          <path class="cls-2" d="M173.7,165.6c-5.5,0-8.2-2.3-8.2-7v-23.8h3v7.8h5.2v2.8h-5.2v12.7c0,3.3,1.7,5,5.2,5v2.5Z"/>
          <path class="cls-2" d="M186.5,165.6c-5.5,0-8.2-2.3-8.2-7v-23.8h3v7.8h5.2v2.8h-5.2v12.7c0,3.3,1.7,5,5.2,5v2.5Z"/>
          <path class="cls-2" d="M207.9,153.7c0-2.3-.9-4.4-2.5-6.1-1.5-1.6-3.7-2.6-5.9-2.5-2.3,0-4.5.9-6.1,2.5-1.6,1.6-2.6,3.8-2.6,6.1,0,2.3.8,4.5,2.3,6.2,1.5,1.7,3.6,2.7,5.9,2.8,2.4.1,4.7-.8,6.3-2.6,1.7-1.7,2.6-4.1,2.5-6.5h0ZM210.9,153.9v11.3h-3v-3.5c-4,4.7-11,5.4-15.8,1.4-.4-.3-.7-.6-1-1-4.4-4.7-4.3-12,.3-16.6,2.2-2.3,5.2-3.5,8.4-3.3,3,0,5.9,1.4,8,3.6,2.1,2.2,3.3,5.1,3.1,8.1h0Z"/>
        </g>
        <g>
          <path class="cls-1" d="M238.9,156.2c0-1.7-.9-3.4-2.3-4.4-1.5-1-3.3-1.4-5.2-1.3h-5.4v11.7h5.5c2,.1,3.9-.5,5.5-1.6,1.3-1.1,2-2.7,1.8-4.4h0ZM231.5,137.7h-5.4v10.1h5.5c1.5,0,3-.5,4.2-1.4,1.1-.8,1.8-2.2,1.8-3.6,0-1.5-.7-3-1.9-3.8-1.2-.9-2.7-1.3-4.2-1.3h0ZM242.1,156.5c.1,2.4-.9,4.6-2.7,6.1-1.8,1.6-4.2,2.5-6.7,2.5h-9.6v-30.3h8.6c2.3,0,4.5.7,6.3,2.1,1.8,1.3,2.8,3.4,2.8,5.7,0,2.6-1.3,5-3.5,6.3,3,1.3,5,4.3,4.9,7.6h0Z"/>
          <path class="cls-1" d="M249.9,142.7h-3v22.4h3v-22.4Z"/>
          <path class="cls-1" d="M275.2,153.7c0-2.3-1-4.4-2.5-6.1-1.5-1.6-3.6-2.6-5.9-2.5-2.3,0-4.5.8-6.1,2.5-1.7,1.6-2.6,3.8-2.6,6.2,0,2.3.8,4.5,2.3,6.2,1.5,1.7,3.6,2.7,5.9,2.8,2.4.2,4.7-.8,6.3-2.6,1.7-1.7,2.6-4.1,2.5-6.5h0ZM278.2,153.9c0,3.2-1.3,6.2-3.5,8.4-4.4,4.5-11.5,4.5-16,.1,0,0-.2-.2-.3-.3-4.4-4.7-4.3-12,.3-16.6,2.2-2.3,5.2-3.5,8.3-3.4,3,0,5.9,1.4,7.9,3.6,2.1,2.2,3.3,5.1,3.3,8.2h0Z"/>
          <path class="cls-1" d="M250.7,138.1c0,1.2-1,2.2-2.2,2.2s-2.2-1-2.2-2.2,1-2.2,2.2-2.2h0c1.2,0,2.2,1,2.2,2.2Z"/>
          <path class="cls-1" d="M279,137.4c0-.6.1-1.1.4-1.6.3-.5.6-.9,1.1-1.2.9-.5,2.1-.5,3,0,.5.3.8.7,1.1,1.2.5,1,.5,2.2,0,3.2-.3.5-.6.9-1.1,1.2-.9.5-2.1.5-3,0-.5-.3-.8-.7-1.1-1.2-.3-.5-.4-1-.4-1.6ZM284.5,137.4c0-.5-.1-.9-.3-1.3-.2-.4-.5-.8-.9-1-.8-.5-1.8-.5-2.5,0-.4.2-.7.6-.9.9-.2.4-.3.9-.3,1.3,0,.5.1.9.3,1.3.2.4.5.8.9,1,.4.2.8.3,1.3.3.4,0,.9-.1,1.3-.4.4-.2.7-.6.9-1,.2-.4.3-.9.3-1.3h0ZM281.4,137.7v1.4h-.6v-3.6h1.2c.4,0,.7,0,1,.3.2.2.4.5.4.8,0,.3-.2.6-.5.8.2,0,.3.2.4.4,0,.2.1.4.1.6v.5c0,0,0,.2,0,.2h0c0,0-.7,0-.7,0,0-.3,0-.5,0-.8,0-.3-.1-.6-.4-.6,0,0-.1,0-.2,0h-.6ZM281.4,137.2h.6c.2,0,.3,0,.5-.1.1,0,.2-.2.2-.4,0-.2,0-.3-.1-.4-.2-.1-.3-.2-.5-.1h-.6v1Z"/>
        </g>
      </g>
    </g>
  </g>
</svg>