<svg id="Layer_1" data-name="Layer 1" xmlns="http://www.w3.org/2000/svg" viewBox="0 0 300 300"><path d="M74.63309,183.388q-6.55335-22.21129-13.04233-44.36887l-.34148.0278q-3.52312,9.80614-7.05333,19.632H46.34479c.00306-.6957,14.55541-40.9125,15.23551-42.06687l15.74922,50.1778H97.07235a16.87886,16.87886,0,0,1-3.57054,1.51676q-4.99166,1.78924-9.99718,3.53972a2.70079,2.70079,0,0,0-1.4172,1.07037c-2.17654,3.17581-4.38322,6.331-6.58923,9.48656A2.392,2.392,0,0,1,74.63309,183.388Z" fill="#e12628"/><path d="M219.41989,158.67423h-6.39233c-5.46969-6.65232-10.99312-13.37-16.51652-20.08762l-.16405.03459v20.01361h-7.72945V125.07787h6.42867q8.1777,9.97311,16.44469,20.05515l.20738-.03047a25.58055,25.58055,0,0,0,.02506-2.78343c.02552-.93159.00537-1.86443.00532-2.79673q-.00006-1.44666,0-2.89333V125.10742h7.69123Z" fill="#55595c"/><path d="M80.13572,158.55951V125.219c.25921-.26455.56565-.17354.842-.17376,4.985-.00408,9.97048-.043,14.95482.015a19.83122,19.83122,0,0,1,10.97379,3.12858,15.164,15.164,0,0,1,6.96427,11.85471,17.24573,17.24573,0,0,1-1.76454,9.81913,15.7163,15.7163,0,0,1-8.35476,7.34546,20.5913,20.5913,0,0,1-7.52766,1.47884c-5.113.061-10.227.02945-15.34062.03092A1.153,1.153,0,0,1,80.13572,158.55951Zm7.84417-27.15394v20.8493c2.52705,0,4.96643-.00158,7.4058.0009a12.10466,12.10466,0,0,0,2.39418-.22509,9.69774,9.69774,0,0,0,6.89764-4.61127,11.17493,11.17493,0,0,0,1.33684-6.407,9.55393,9.55393,0,0,0-7.94484-9.23278C94.75737,131.1137,91.40941,131.58388,87.97989,131.40557Z" fill="#e12628"/><path d="M156.668,125.08206h25.32316v6.24325H164.39605v7.22611H179.9129v6.09229H164.3983v7.7724h18.20587v6.25327H156.668Z" fill="#55595c"/><path d="M120.89751,131.40425v-6.18768c.22836-.25027.502-.16564.74793-.16578,4.79249-.00263,9.58528-.03,14.37737.01487a17.086,17.086,0,0,1,8.08349,1.91553,10.58345,10.58345,0,0,1,5.74064,7.8824,12.08669,12.08669,0,0,1-1.54636,8.80617,10.86741,10.86741,0,0,1-4.10423,3.70794c-.308.167-.61853.32936-1.01346.53937l7.47552,10.71429h-8.37569l-6.434-9.263H128.718v9.28424H120.948V143.25868c.28433-.24057.65329-.11894.99071-.11971q6.41678-.01457,12.83358-.00588a13.32606,13.32606,0,0,0,3.24672-.38644,5.21711,5.21711,0,0,0,4.12164-5.05647q.18177-4.43506-3.66765-5.76765a10.90413,10.90413,0,0,0-3.60857-.51594q-6.41673-.0073-12.83345-.00233C121.68309,131.40424,121.33526,131.40425,120.89751,131.40425Z" fill="#55595c"/><path d="M238.66447,125.06975H246.38l15.03478,33.58549h-8.18719c-.99465-2.38835-1.97942-4.75305-2.97291-7.13864H234.64131c-.98086,2.35889-1.9636,4.72224-2.96551,7.13177h-7.98905Q231.17712,141.78835,238.66447,125.06975Zm9.119,20.46316c-1.76681-4.26237-3.49107-8.42212-5.21536-12.58187l-.1928.00673-5.21319,12.57514Z" fill="#55595c"/><path d="M42.24386,125.10132v6.2147a2.02764,2.02764,0,0,1-1.17194.151q-5.98314.00848-11.96631.00351a13.02885,13.02885,0,0,0-5.71722,1.16268,9.07931,9.07931,0,0,0-5.17891,6.67018,11.45444,11.45444,0,0,0,.73777,7.3559,9.56754,9.56754,0,0,0,7.50129,5.40135,15.6776,15.6776,0,0,0,2.786.2021q6.03138-.00738,12.06276-.00418a1.59788,1.59788,0,0,1,.9169.12948v6.18576c-.28049.23158-.61441.14583-.92634.14613q-6.12792.00591-12.25585-.00093a22.15083,22.15083,0,0,1-10.36005-2.23775,15.06914,15.06914,0,0,1-8.25825-10.88179,16.90166,16.90166,0,0,1,2.368-13.19561,16.08,16.08,0,0,1,9.00809-6.4012,21.129,21.129,0,0,1,6.08119-.94151c4.56747-.03817,9.13545-.01655,13.70321-.01627C41.76256,125.04487,41.95089,125.07569,42.24386,125.10132Z" fill="#e12628"/><path d="M290,152.367v6.29409H265.42762v-33.572h7.7387V152.3536C278.82366,152.37271,284.3951,152.35256,290,152.367Z" fill="#55595c"/></svg>