<?xml version="1.0" encoding="UTF-8"?>
<svg xmlns="http://www.w3.org/2000/svg" version="1.1" viewBox="0 0 300 300">
  <defs>
    <style>
      .cls-1 {
        fill: #0099a8;
      }

      .cls-2 {
        fill: #d78036;
      }

      .cls-3 {
        fill: #386879;
      }

      .cls-4 {
        fill: #1d9a7e;
      }

      .cls-5 {
        fill: #009f96;
      }

      .cls-6 {
        fill: #799368;
      }

      .cls-7 {
        fill: #0b8593;
      }

      .cls-8 {
        fill: #203952;
      }

      .cls-9 {
        fill: #304d62;
      }

      .cls-10 {
        fill: #0196a2;
      }

      .cls-11 {
        fill: #ff7f40;
      }

      .cls-12 {
        fill: #1c354f;
      }
    </style>
  </defs>
  <!-- Generator: Adobe Illustrator 28.6.0, SVG Export Plug-In . SVG Version: 1.2.0 Build 709)  -->
  <g>
    <g id="Layer_1">
      <g>
        <path class="cls-12" d="M217.5,253l-62.7-139.8c-.6-1.2-1.7-2.3-3.5-2.3h-2.1c-1.9,0-2.9,1-3.5,2.3l-63.1,139.8c-1.2,2.7.4,5.4,3.5,5.4h8.3c1.9,0,3.1-1.2,3.5-2.3l51.3-115.3h1.7c10.2,22.6,51.3,115.3,51.3,115.3.4,1,1.7,2.3,3.5,2.3h8.3c3.1,0,4.8-2.7,3.5-5.4Z"/>
        <g>
          <circle class="cls-1" cx="150" cy="52.3" r="10.7"/>
          <circle class="cls-5" cx="181.3" cy="58.5" r="10.7"/>
          <circle class="cls-10" cx="118.7" cy="58.5" r="10.7"/>
          <circle class="cls-4" cx="208.4" cy="78.1" r="10.7"/>
          <circle class="cls-7" cx="91.6" cy="78.1" r="10.7"/>
          <circle class="cls-6" cx="224.3" cy="107.9" r="10.7"/>
          <circle class="cls-3" cx="75.7" cy="107.9" r="10.7"/>
          <circle class="cls-2" cx="224.3" cy="142.3" r="10.7"/>
          <circle class="cls-9" cx="76.8" cy="142.3" r="10.7"/>
          <circle class="cls-11" cx="207.3" cy="172.5" r="10.7"/>
          <circle class="cls-8" cx="91.6" cy="172.5" r="10.7"/>
          <circle class="cls-12" cx="150" cy="199.2" r="10.7"/>
        </g>
      </g>
    </g>
  </g>
</svg>