<?xml version="1.0" encoding="UTF-8"?>
<svg xmlns="http://www.w3.org/2000/svg" version="1.1" viewBox="0 0 300 300">
  <defs>
    <style>
      .cls-1 {
        fill: #dee61a;
      }

      .cls-2 {
        fill: #567d4c;
      }

      .cls-3 {
        fill: #ef816c;
      }
    </style>
  </defs>
  <!-- Generator: Adobe Illustrator 28.6.0, SVG Export Plug-In . SVG Version: 1.2.0 Build 709)  -->
  <g>
    <g id="Layer_1">
      <g>
        <path class="cls-1" d="M160.2,240.3c-17.5.3-32.5-3.6-46.5-11-7.1-3.7-13.7-8.5-19.5-14.1-4.6-4.5-8.9-9.3-12.7-14.5-.3-.4-.9-.9-.5-1.4.6-.8,1.2,0,1.7.3,6.3,4.4,13.2,7.4,20.5,9.6,3.6,1.1,7.4,1.7,11.1,2.3,6.6,1.1,13.2.6,19.8.7,5.7,0,11.3-1.2,16.9-2.2,9.3-1.7,17.9-5.1,26.2-9.5,6.8-3.5,13-7.9,19-12.7,3.7-2.9,7-6.2,10.3-9.5,3.6-3.6,6.8-7.5,9.7-11.7,1.5-2.2,1.6-2.3,3.9-.9,6.7,4,11.5,9.6,14,17,1.4,4.2,1.1,8.5,0,12.8-1.7,6.6-5.3,12.2-9.8,17.2-7,7.6-15.2,13.8-24.3,18.6-7,3.7-14.4,6-22.2,7.5-6.3,1.2-12.7,1.8-17.6,1.6h0Z"/>
        <path class="cls-3" d="M160.2,59.7c-17.5-.3-32.5,3.6-46.5,11-7.1,3.7-13.7,8.5-19.5,14.1-4.6,4.5-8.9,9.3-12.7,14.5-.3.4-.9.9-.5,1.4.6.8,1.2,0,1.7-.3,6.3-4.4,13.2-7.4,20.5-9.6,3.6-1.1,7.4-1.7,11.1-2.3,6.6-1.1,13.2-.6,19.8-.7,5.7,0,11.3,1.2,16.9,2.2,9.3,1.7,17.9,5.1,26.2,9.5,6.8,3.5,13,7.9,19,12.7,3.7,2.9,7,6.2,10.3,9.5,3.6,3.6,6.8,7.5,9.7,11.7,1.5,2.2,1.6,2.3,3.9.9,6.7-4,11.5-9.6,14-17,1.4-4.2,1.1-8.5,0-12.8-1.7-6.6-5.3-12.2-9.8-17.2-7-7.6-15.2-13.8-24.3-18.6-7-3.7-14.4-6-22.2-7.5-6.3-1.2-12.7-1.8-17.6-1.6Z"/>
        <path class="cls-2" d="M149.1,198.9c-.6-.2-1.3-.4-2-.6-1.4-.3-2.8-.7-4.2-1.2-6.5-2.1-12.4-5.3-17.8-9.8-5.9-4.8-10.4-10.7-13.3-17.5-3.4-8.2-5.2-16.7-3.7-25.9,1.7-10.1,5.6-19,12.4-26.6,6.1-6.7,13.5-11.3,22.1-14,0,0,0,0,.1,0,1.9-.6,3.9-1.1,5.9-1.7.3,0,.8,0,.7-.5,0-.1-.5-.2-.7-.3-5.5-1.5-11.1-2.7-16.8-3.2-8.8-.7-17.6-.2-26,2.4-11.4,3.5-21.3,9.2-28.6,18.2-7.6,8.8-12.1,19.9-12.1,32s5.8,26.1,15.3,35.3c4.2,4.3,9.3,7.9,15.2,10.8,8.8,4.3,18.2,6.4,28,6.5,4.7,0,9.3,0,13.9-.9,3.9-.7,7.7-1.6,11.5-2.5.2,0,.3-.3.5-.4-.1,0-.2-.2-.3-.3h0Z"/>
      </g>
    </g>
  </g>
</svg>