<svg id="Layer_1" data-name="Layer 1" xmlns="http://www.w3.org/2000/svg" viewBox="0 0 300 300"><path d="M184.82535,234.94088l-34.97063,33.50168L19.9903,143.52973a31.94917,31.94917,0,0,1,0-46.41368L76.38607,42.91574a35.15874,35.15874,0,0,1,48.291,0L148.12854,65.456l-37.97253,36.495a10.22455,10.22455,0,0,0,0,14.821l74.63157,71.61517a32.06882,32.06882,0,0,1,0,46.51744Z" fill="#284058"/><path d="M279.98188,143.56086l-25.29064,24.30921L148.12854,65.49229,173.418,41.18307a35.14486,35.14486,0,0,1,48.3293,0l58.23457,55.96929a31.9243,31.9243,0,0,1,0,46.44481Z" fill="#284058"/></svg>