<svg id="Layer_1" data-name="Layer 1" xmlns="http://www.w3.org/2000/svg" viewBox="0 0 300 300"><path d="M224.9,150.14c0,.93-.05,1.87-.14,2.8s-.23,1.86-.41,2.78a27.72,27.72,0,0,1-.68,2.72c-.28.9-.59,1.78-.95,2.65s-.76,1.71-1.2,2.53a27.95,27.95,0,0,1-3.12,4.67c-.59.72-1.22,1.42-1.88,2.08s-1.36,1.29-2.08,1.88a27.95,27.95,0,0,1-4.67,3.12c-.82.44-1.67.84-2.53,1.2s-1.75.67-2.65,1a27.72,27.72,0,0,1-2.72.68c-.92.18-1.85.32-2.78.41s-1.87.14-2.8.14-1.88-.05-2.81-.14-1.86-.23-2.78-.41-1.82-.41-2.72-.68-1.78-.59-2.64-1-1.71-.76-2.54-1.2a27.87,27.87,0,0,1-2.41-1.44,29,29,0,0,1-6.22-5.64c-.59-.73-1.15-1.48-1.67-2.26s-1-1.58-1.45-2.41-.84-1.67-1.2-2.53a29.29,29.29,0,0,1-1.62-5.37c-.19-.92-.32-1.85-.42-2.78s-.13-1.87-.13-2.8c0-16,12.44-29.11,28.44-29.11a28.71,28.71,0,0,1,25,15.11h-9.56c-2.33-2.56-7-7.67-15.11-7.67-11.66,0-20.66,10-20.66,21.67,0,12.22,10.11,21.22,20.66,21.22,1.56,0,13.89-.11,19.23-13.78h-20l-5.56-7.44Z" fill="#ef4d23"/><path d="M94.35,122.14H78.9l5.22,7.44L65.9,177.8h8.56l6.1-16.44h20.11l6.12,16.44h8.66Zm-10.9,31.78,7.12-21.23h.22l7,21.23Z" fill="#ef4d23"/><path d="M160.34,139.92c0-4.67-1.67-9.78-5.22-13.12-2.89-2.78-7-4.66-14.78-4.66H117.79l5.33,7.44V177.8h8.11V152h.22l18.34,25.78H159.9L144.35,157C148,157,160.34,154.69,160.34,139.92Zm-29.11,11V129.58h8.55c9.23,0,12.34,5.67,12.34,10.34,0,10.78-12,11-15.34,11Z" fill="#ef4d23"/><path d="M289.86,147.07a26.83,26.83,0,0,0-.42-2.81c-.19-.94-.41-1.85-.69-2.76a26.43,26.43,0,0,0-1-2.67,27.66,27.66,0,0,0-1.21-2.58c-.45-.85-.94-1.65-1.46-2.44s-1.1-1.55-1.7-2.29-1.24-1.43-1.91-2.11a28.89,28.89,0,0,0-6.83-5.06q-1.28-.67-2.58-1.23c-.87-.35-1.77-.68-2.67-1s-1.84-.51-2.77-.7-1.87-.32-2.81-.42-1.89-.14-2.84-.14a27,27,0,0,0-2.84.14c-.95.1-1.89.23-2.82.42a23.07,23.07,0,0,0-2.75.7,24.47,24.47,0,0,0-2.69,1c-.89.37-1.73.77-2.58,1.22s-1.65.94-2.44,1.45-1.55,1.11-2.29,1.71-1.43,1.24-2.11,1.91a25.59,25.59,0,0,0-1.91,2.11,26.87,26.87,0,0,0-1.69,2.28c-.53.79-1,1.6-1.47,2.44s-.85,1.7-1.21,2.57a26.1,26.1,0,0,0-1,2.69c-.28.91-.5,1.82-.69,2.75s-.33,1.88-.43,2.82-.13,1.9-.13,2.85,0,1.9.13,2.84.24,1.88.43,2.82a28.34,28.34,0,0,0,.69,2.75,26.1,26.1,0,0,0,1,2.69c.36.87.77,1.73,1.21,2.57s.94,1.65,1.47,2.44a29.06,29.06,0,0,0,3.6,4.39c.68.67,1.38,1.31,2.11,1.91s1.5,1.17,2.29,1.71,1.61,1,2.44,1.45a27.59,27.59,0,0,0,2.58,1.22c.87.37,1.77.68,2.69,1a27.6,27.6,0,0,0,2.75.68c.93.19,1.87.32,2.82.42s1.9.14,2.84.14,1.89-.06,2.84-.14,1.89-.23,2.81-.42,1.86-.43,2.77-.7,1.8-.6,2.67-.95,1.73-.78,2.58-1.22,1.65-.94,2.44-1.47a30.45,30.45,0,0,0,4.39-3.6c.67-.68,1.31-1.37,1.91-2.11s1.17-1.5,1.7-2.29,1-1.59,1.46-2.44a27.66,27.66,0,0,0,1.21-2.58,26.43,26.43,0,0,0,1-2.67c.28-.91.5-1.82.69-2.76a26.83,26.83,0,0,0,.42-2.81c.09-.94.14-1.9.14-2.84S290,148,289.86,147.07ZM261,171.36c-14.22,0-20.78-12.33-20.78-21.44,0-8.9,6.45-21.45,20.78-21.45,13.89,0,20.89,11.9,20.89,21.67C281.9,158.92,275.46,171.36,261,171.36Z" fill="#ef4d23"/><path d="M54.45,136.36c-1.66-1.89-6.55-7.89-15.66-7.89-11.56,0-20.67,9.56-20.67,21.33,0,12,9.67,21.56,20.56,21.56A20.1,20.1,0,0,0,53.9,164h10A29.18,29.18,0,0,1,58,171.55a28.86,28.86,0,0,1-3.78,2.92A28,28,0,0,1,50,176.73,28.46,28.46,0,0,1,40.79,179,28.25,28.25,0,0,1,36,179a28.68,28.68,0,0,1-4.71-.84,28.35,28.35,0,0,1-4.5-1.61,28.63,28.63,0,0,1-11.08-8.91,29.26,29.26,0,0,1-2.54-4,28.34,28.34,0,0,1-1.82-4.42,27.83,27.83,0,0,1-1.07-4.66A29.35,29.35,0,0,1,38.68,121a28.48,28.48,0,0,1,3.91.22,27.77,27.77,0,0,1,3.84.77,28.38,28.38,0,0,1,3.7,1.28,26.64,26.64,0,0,1,3.49,1.78,27.62,27.62,0,0,1,3.22,2.24A30,30,0,0,1,59.71,130a28.85,28.85,0,0,1,2.48,3,27.1,27.1,0,0,1,2,3.34Z" fill="#ef4d23"/></svg>