<svg id="Layer_1" data-name="Layer 1" xmlns="http://www.w3.org/2000/svg" viewBox="0 0 300 300"><defs><style>.cls-1{fill:#005281;}</style></defs><g id="Layer_1-2" data-name="Layer 1-2"><path class="cls-1" d="M64.17,213.38c5.74-5.74,40.32-36.76,49.43-41.77-3.83,0-6.24-8.42,2.56-15.31a87.65,87.65,0,0,1-30.91-19.73A80.41,80.41,0,0,1,64.13,99.8,4.92,4.92,0,0,1,65,95.56a5,5,0,0,1,3.83-2H84.71a4.93,4.93,0,0,1,3.83,1.92,6.18,6.18,0,0,0,4.93,2.41,6.28,6.28,0,1,0,0-12.55,6.18,6.18,0,0,0-4.93,2.41,5,5,0,0,1-3.83,1.91H69a5,5,0,0,1-5-5h0V61.36a5,5,0,0,1,5-5H84.71a5,5,0,0,1,3.83,1.92,6.28,6.28,0,1,0,0-7.73,5,5,0,0,1-3.83,1.91H69a5,5,0,0,1-5-4.93v-18a5,5,0,0,1,9.91,0v13h8.68a16,16,0,0,1,11-4.28,16.18,16.18,0,1,1,0,32.36,15.84,15.84,0,0,1-11-4.32H73.89V79.76h8.68a16.18,16.18,0,0,1,27.16,11.9,16.19,16.19,0,0,1-16.18,16.18,15.89,15.89,0,0,1-11-4.33H75.65A71.82,71.82,0,0,0,92.13,129.6c17.26,17.45,44.92,26.32,82.18,26.32a97.26,97.26,0,0,0,24.33-2.75l-3.22-5.82a16.18,16.18,0,1,1,18-24.17,15.9,15.9,0,0,1,2.18,11.47l5,8.07a59.29,59.29,0,0,0,8.11-7.65c.69-.8,1.3-1.49,1.8-2a5,5,0,0,1,7,7l-1.45,1.56a62.31,62.31,0,0,1-14.23,12.48,4.92,4.92,0,0,1-3.83.65,5.14,5.14,0,0,1-3.09-2.18l-9.07-14.35a5.1,5.1,0,0,1-.46-4.32,6.24,6.24,0,1,0-6.54,4.09,4.85,4.85,0,0,1,3.82,2.33l8.08,13.09a5,5,0,0,1-1.64,6.84,5.62,5.62,0,0,1-.89.43,97.58,97.58,0,0,1-33.59,5.16h-6.08a210.86,210.86,0,0,0,18.25,14.69c6,3.83,40.74,20.43,45.9,28.88s-4.36,24.64-10,25.6c-5,.95-39.25-5-50.38-6.2-8.57-1-9.64.65-11.67,5.66-2.64,6.5-5.74,30.11-6.69,32.29-1.42,3.17-2.87,3.55-6.2,3.1a128.11,128.11,0,0,1-48.24-12.32A86.54,86.54,0,0,1,63,223.1C60.34,217.67,61.53,216.25,64.17,213.38Z"/><path class="cls-1" d="M174.19,254.12a10.45,10.45,0,1,0,10.45,10.45h0A10.45,10.45,0,0,0,174.19,254.12Zm0,18.37a7.92,7.92,0,1,1,7.88-8v0a7.91,7.91,0,0,1-7.88,7.88Z"/><path class="cls-1" d="M172.47,269.77h-2.33V259.59a20.37,20.37,0,0,1,3.82-.3,6,6,0,0,1,3.52.76,2.75,2.75,0,0,1,1,2.22,2.65,2.65,0,0,1-2.11,2.37h0a3,3,0,0,1,1.88,2.49,8.47,8.47,0,0,0,.72,2.52h-2.52a8.36,8.36,0,0,1-.84-2.48c0-1.11-.81-1.61-2.11-1.61h-1Zm0-5.78h1.11c1.3,0,2.37-.42,2.37-1.49s-.69-1.53-2.18-1.53a7.06,7.06,0,0,0-1.3,0Z"/></g></svg>