<?xml version="1.0" encoding="utf-8"?>
<!-- Generator: Adobe Illustrator 28.3.0, SVG Export Plug-In . SVG Version: 6.00 Build 0)  -->
<svg version="1.1" id="Layer_1" xmlns="http://www.w3.org/2000/svg" xmlns:xlink="http://www.w3.org/1999/xlink" x="0px" y="0px"
	 viewBox="0 0 300 300" style="enable-background:new 0 0 300 300;" xml:space="preserve">
<style type="text/css">
	.st0{fill:none;stroke:#E0EBF6;stroke-width:2.342;stroke-miterlimit:9.9949;}
	.st1{fill:none;stroke:#07215C;stroke-width:0.3539;stroke-miterlimit:9.9949;}
	.st2{fill:none;stroke:#E0EBF6;stroke-width:2.2919;stroke-miterlimit:9.9949;}
	.st3{fill:none;stroke:#07215C;stroke-width:0.3539;stroke-miterlimit:10;}
	.st4{fill:#07215C;}
	.st5{font-family:'ArialMT';}
	.st6{font-size:10.5637px;}
	.st7{font-family:'AdobeGothicStd-Bold-KSCpc-EUC-H';}
	.st8{font-size:11.3577px;}
	.st9{fill:#FFFFFF;stroke:#FFFFFF;stroke-width:0.4301;stroke-miterlimit:9.9949;}
	.st10{fill:#6A9BD1;stroke:#4C7199;stroke-width:0.3571;stroke-miterlimit:10;}
	.st11{fill:#FFFFFF;}
	.st12{fill:#6A9BD1;stroke:#4C7199;stroke-width:0.3539;stroke-miterlimit:10;}
	.st13{fill:#6A9BD1;stroke:#4C7199;stroke-width:0.3462;stroke-miterlimit:10;}
</style>
<g>
	<g id="Layer_1_00000017497714001488421810000009737015821068168624_">
		<line class="st0" x1="71.6" y1="131.1" x2="263.3" y2="131.1"/>
		<line class="st1" x1="72" y1="130.9" x2="262.9" y2="130.9"/>
		<line class="st2" x1="201.5" y1="174.3" x2="201.5" y2="112.5"/>
		<line class="st3" x1="201.6" y1="113.2" x2="201.6" y2="174.3"/>
		<path class="st4" d="M65,143.5c-0.5-1.8-1.3-3.5-2.1-5.1c-0.9-1.5-1.9-2.9-3.2-4.2c-1.3-1.2-2.7-2.1-4.3-2.7c-1.7-0.6-3.5-1-5.3-1
			c-2.2-0.1-4.5,0.4-6.5,1.5c-1.8,1-3.3,2.4-4.4,4.1c-1.2,1.8-2,3.8-2.5,5.9c-0.5,2.4-0.7,4.7-0.7,7c0,2.5,0.3,4.8,1,7.2
			c0.6,2.1,1.6,4.2,3,6c1.3,1.7,3,3.1,4.9,4.1c2.1,1.1,4.5,1.6,6.8,1.5c3.5,0.1,7-1,10-2.9c3-2.1,5.6-4.8,7.5-8l1.6,1.3
			c-1.3,1.9-2.7,3.8-4.3,5.7c-1.4,1.6-2.9,3-4.6,4.2c-1.7,1.2-3.5,2-5.4,2.6c-2.1,0.6-4.4,0.9-6.6,0.9c-2.7,0-5.4-0.5-7.9-1.6
			c-2.4-1.1-4.7-2.6-6.5-4.4c-1.9-2-3.4-4.3-4.5-6.9c-2.2-5.6-2.2-11.8,0-17.4c1.1-2.6,2.6-4.8,4.5-6.8c1.9-1.9,4.1-3.4,6.5-4.4
			c2.5-1.1,5.2-1.6,7.9-1.6c1.4,0,2.9,0.1,4.3,0.3c1.3,0.2,2.6,0.4,3.8,0.6c1.2,0.2,2.5,0.4,3.5,0.6c1.2,0.2,2.2,0.3,3.4,0.4
			c0,0.9,0,1.9,0.1,3.1c0.1,1.2,0.1,2.4,0.3,3.6c0.2,1.3,0.2,2.5,0.3,3.6s0.2,2.2,0.4,3.1L65,143.5L65,143.5z"/>
		<path class="st4" d="M73.3,151.8c0.2-1.1,0.7-2.1,1.4-3.1c0.5-0.7,1.3-1.3,2-1.7c0.9-0.4,1.7-0.6,2.7-0.7c1.1-0.1,2.1-0.1,3.2-0.1
			s2.1,0.1,3.2,0.3c1.1,0.2,2,0.6,2.9,1.2c0.9,0.5,1.6,1.3,2,2.1c0.5,1,0.9,2.1,0.7,3.3v11.5c0,0.7,0.2,1.5,0.6,2.1
			c0.4,0.6,1.2,1,1.9,0.9c0.7,0,1.6-0.2,2.2-0.7c0.6-0.4,1.3-1,1.8-1.4l0.6,0.6l-1.5,1.5c-0.5,0.5-1.2,1.1-1.8,1.6
			c-0.6,0.5-1.2,1-1.9,1.3c-0.5,0.3-1.3,0.5-1.9,0.5c-0.4,0-1-0.1-1.3-0.4c-0.4-0.3-1-0.6-1.4-1c-0.4-0.3-0.9-0.7-1.2-1.2
			c-0.3-0.4-0.7-0.7-1-1.1c-1.4,1-2.9,1.8-4.5,2.5c-1.5,0.7-3.2,1.1-4.8,1.1c-0.9,0-1.7-0.1-2.6-0.4c-0.7-0.3-1.5-0.7-2.1-1.3
			c-0.6-0.5-1.2-1.2-1.5-1.9c-0.4-0.7-0.5-1.7-0.5-2.6c-0.1-1.5,0.4-3,1.4-4.1c1.1-1.1,2.4-1.8,3.7-2.4c1.7-0.5,3.4-1,5.1-1.1
			c1.9-0.2,3.8-0.3,5.9-0.3v-4.7c0.1-1.4-0.4-2.7-1.4-3.5c-1-0.9-2.4-1.3-3.6-1.3c-1.1,0-2,0.6-2.6,1.6c-0.6,1.1-1,2.4-1,3.6
			L73.3,151.8z M86.9,159.5c-1.4-0.3-2.8-0.5-4.2-0.5c-0.7,0-1.6,0.1-2.4,0.3c-0.7,0.2-1.5,0.4-2.1,0.9c-0.6,0.4-1.2,1-1.5,1.6
			c-0.4,0.7-0.6,1.5-0.6,2.4c-0.1,1.2,0.4,2.4,1.5,3c1,0.6,2.1,1,3.3,0.9c1.3,0,2.5-0.2,3.6-0.9c0.9-0.4,1.6-0.9,2.4-1.4L86.9,159.5
			L86.9,159.5L86.9,159.5z"/>
		<path class="st4" d="M99.4,169.5c1.2-0.1,2.2-0.5,3.2-1.1c0.9-0.6,1.3-1.7,1.2-2.7v-14.4c0.2-1-0.3-1.9-1.3-2.4
			c-1-0.3-1.9-0.4-3-0.4v-0.7l9.1-1.4v3.5c0.6-0.4,1.2-0.9,1.7-1.3c0.6-0.5,1.3-1.1,2-1.6c0.7-0.5,1.4-1,2.2-1.4
			c0.6-0.3,1.4-0.5,2.1-0.5c1.4-0.1,2.7,0.4,3.6,1.4c0.9,1.1,1.4,2.4,1.4,3.7l-5,2.7c0.1-0.3,0.2-0.6,0.2-0.9
			c0.1-0.4,0.1-0.9,0.1-1.2c0-0.6-0.2-1.2-0.6-1.6c-0.4-0.5-1.1-0.9-1.7-0.7c-0.6,0-1.2,0.1-1.7,0.4c-0.6,0.3-1.2,0.6-1.7,1.1
			c-0.5,0.4-1.1,0.9-1.5,1.4c-0.4,0.5-0.9,1-1.3,1.3v13c-0.1,1.1,0.3,2.1,1.2,2.7c1.1,0.5,2.4,0.9,3.5,1.1v0.7
			c-1.4-0.1-2.8-0.1-4.2-0.2c-1.4,0-2.8-0.1-4.2-0.1c-1,0-1.9,0-2.8,0.1c-0.9,0-1.8,0.1-2.8,0.2L99.4,169.5L99.4,169.5L99.4,169.5z"
			/>
		<path class="st4" d="M122.7,149v-1c1.2,0,2.4-0.3,3.4-1c1-0.6,1.8-1.4,2.5-2.4c0.7-1,1.3-2,1.8-3.2c0.4-1.2,0.9-2.2,1.3-3.4h0.9
			v9.1h8.5v1.9h-8.5v14.5c0,0.5,0,1.1,0.1,1.6c0,0.5,0.2,1,0.4,1.4c0.2,0.4,0.4,0.7,0.9,1c0.4,0.3,1,0.4,1.5,0.4
			c1.1,0,2.1-0.2,3.1-0.9c0.9-0.6,1.7-1.3,2.5-2l0.5,0.6c-0.7,0.6-1.4,1.3-2,1.9c-0.6,0.6-1.4,1.2-2.1,1.7s-1.5,1-2.4,1.3
			c-0.9,0.3-1.8,0.4-2.8,0.4c-1.4,0.2-2.8-0.4-3.5-1.6c-0.6-1.2-1-2.5-1-3.7v-16.7L122.7,149L122.7,149z"/>
		<path class="st4" d="M149.2,156.9c-0.1,1.8,0.2,3.6,0.9,5.3c0.4,1.3,1.2,2.5,2.1,3.4c0.7,0.7,1.7,1.4,2.8,1.7
			c0.9,0.3,1.8,0.5,2.7,0.5c1.6,0,3.2-0.2,4.7-0.9c1.5-0.6,2.8-1.5,4-2.7l1.1,1c-1.5,1.7-3.3,3.1-5.2,4.2c-2,1-4.2,1.5-6.4,1.4
			c-1.7,0-3.3-0.3-4.8-1.1c-1.4-0.6-2.6-1.6-3.6-2.8c-1-1.2-1.8-2.6-2.2-4c-1.1-3-1.1-6.2,0-9.2c0.5-1.5,1.3-2.8,2.2-4
			c1-1.2,2.2-2.1,3.6-2.8c1.5-0.7,3.1-1.1,4.8-1.1c2.9-0.1,5.7,0.9,7.9,2.7c2.1,2.1,3.5,5.1,3.6,8.1L149.2,156.9L149.2,156.9z
			 M161.3,155.1c-0.1-1.1-0.3-2-0.5-3c-0.2-0.9-0.5-1.6-1-2.2c-0.4-0.6-1.1-1.1-1.8-1.4c-1-0.3-1.9-0.5-2.9-0.4
			c-0.9,0-1.7,0.2-2.4,0.6c-0.7,0.4-1.4,1-1.9,1.7c-0.5,0.7-1,1.5-1.2,2.4c-0.2,0.7-0.4,1.6-0.4,2.5L161.3,155.1L161.3,155.1z"/>
		<path class="st4" d="M172.1,162.1h0.9c0.6,0.9,1.3,1.7,1.9,2.6c0.7,0.9,1.5,1.6,2.4,2.2c0.9,0.6,1.8,1.2,2.8,1.6s2.1,0.6,3.2,0.6
			c0.5,0,1.1,0,1.6-0.1c0.5-0.1,1.1-0.3,1.5-0.5c0.4-0.2,0.9-0.5,1.2-1c0.3-0.4,0.4-1,0.4-1.6c0-1-0.4-1.9-1.2-2.6
			c-0.9-0.7-1.8-1.3-2.9-1.7c-1.2-0.5-2.5-1-3.7-1.4c-1.3-0.4-2.6-1-3.7-1.6c-1.1-0.5-2-1.3-2.9-2.2c-0.7-1-1.2-2.1-1.2-3.4
			c-0.1-1.9,0.6-3.8,2.1-5.1c1.5-1.3,3.3-1.9,5.2-1.8c1.5,0,3.1,0.2,4.6,0.6s3,0.6,4.6,0.7l0.4,6.6h-0.9c-0.9-1.7-2.1-3.1-3.6-4.2
			c-0.7-0.5-1.6-1.1-2.5-1.4c-0.9-0.3-1.7-0.5-2.7-0.5c-1,0-1.9,0.2-2.8,0.6c-0.9,0.5-1.4,1.5-1.3,2.5c0,0.9,0.4,1.7,1.2,2.1
			c0.9,0.6,1.8,1.2,2.9,1.6c1.2,0.4,2.4,1,3.7,1.4c1.3,0.4,2.6,1,3.7,1.6c1.1,0.6,2,1.4,2.9,2.4c0.7,1,1.2,2.2,1.2,3.4
			c0,1.3-0.2,2.5-0.7,3.6c-0.4,0.9-1.2,1.7-1.9,2.2c-0.9,0.5-1.8,1-2.9,1.2c-1.2,0.2-2.4,0.3-3.5,0.3c-1,0-1.9-0.1-2.9-0.2
			c-1-0.1-1.8-0.3-2.6-0.5c-0.9-0.2-1.6-0.4-2.2-0.5c-0.7-0.2-1.3-0.3-1.9-0.4L172.1,162.1z"/>
		<path class="st4" d="M199.5,154.6c0-1,0-1.9-0.1-2.7c0-0.6-0.2-1.4-0.5-1.9c-0.3-0.5-0.9-1-1.4-1.3c-0.9-0.4-1.7-0.6-2.6-0.6v-0.9
			l9.5-0.6v18.3c0,0.9,0.1,1.7,0.2,2.5c0.1,0.5,0.4,1.1,0.9,1.4c0.4,0.3,1,0.5,1.5,0.6c0.7,0.1,1.5,0.2,2.4,0.2v0.7
			c-1.5-0.1-2.9-0.1-4.4-0.2c-1.5,0-3-0.1-4.4-0.1c-1,0-1.9,0-2.8,0.1c-1,0-1.8,0.1-2.8,0.2v-0.7c0.7,0,1.4-0.1,2.1-0.2
			c0.5-0.1,1.1-0.3,1.4-0.6c0.4-0.3,0.6-0.9,0.9-1.4c0.2-0.9,0.3-1.6,0.2-2.5L199.5,154.6L199.5,154.6z M201.3,128.3
			c0.9,0,1.7,0.3,2.4,1.1c1.3,1.4,1.3,3.4,0,4.8c-1.2,1.3-3.2,1.4-4.5,0.2c-0.1-0.1-0.1-0.1-0.2-0.2c-1.3-1.4-1.3-3.4,0-4.8
			C199.6,128.6,200.4,128.3,201.3,128.3L201.3,128.3L201.3,128.3z"/>
		<path class="st4" d="M214,151.8c0.2-1.1,0.7-2.1,1.4-3.1c0.5-0.7,1.3-1.3,2.1-1.7c0.9-0.4,1.7-0.6,2.7-0.7
			c1.1-0.1,2.1-0.1,3.2-0.1c1.1,0,2.1,0.1,3.2,0.3c1.1,0.2,2,0.6,2.9,1.2c0.9,0.5,1.6,1.3,2,2.1c0.5,1,0.9,2.1,0.7,3.3v11.5
			c0,0.7,0.2,1.5,0.6,2.1c0.4,0.6,1.2,1,1.9,0.9c0.7,0,1.6-0.2,2.2-0.7c0.6-0.4,1.3-1,1.8-1.4l0.6,0.6l-1.5,1.5
			c-0.5,0.5-1.2,1.1-1.8,1.6c-0.6,0.5-1.2,1-1.9,1.3c-0.5,0.3-1.3,0.5-1.9,0.5c-0.4,0-1-0.1-1.3-0.4c-0.4-0.3-1-0.6-1.4-1
			c-0.4-0.3-0.9-0.7-1.2-1.2s-0.7-0.7-1-1.1c-1.4,1-2.9,1.8-4.5,2.5c-1.5,0.7-3.2,1.1-4.9,1.2c-0.9,0-1.7-0.1-2.6-0.4
			c-0.7-0.3-1.5-0.7-2.1-1.3c-0.6-0.5-1.2-1.2-1.5-1.9c-0.4-0.7-0.5-1.7-0.5-2.6c-0.1-1.5,0.4-3,1.4-4.1c1.1-1.1,2.4-1.8,3.7-2.4
			c1.7-0.5,3.4-1,5.1-1.1c1.9-0.2,3.8-0.3,5.9-0.3v-4.7c0.1-1.4-0.4-2.7-1.4-3.5c-1-0.9-2.4-1.3-3.6-1.3c-1.1,0-2.1,0.6-2.6,1.6
			c-0.6,1.1-1,2.4-1,3.6L214,151.8z M227.5,159.5c-1.4-0.3-2.8-0.5-4.2-0.5c-0.7,0-1.6,0.1-2.4,0.3c-0.7,0.2-1.5,0.4-2.1,0.9
			c-0.6,0.4-1.2,1-1.5,1.6c-0.4,0.7-0.6,1.5-0.6,2.4c-0.1,1.2,0.4,2.4,1.5,3c1,0.6,2.1,1,3.3,0.9c1.3,0,2.5-0.2,3.6-0.9
			c0.9-0.4,1.6-0.9,2.4-1.4L227.5,159.5L227.5,159.5L227.5,159.5z"/>
		<path class="st4" d="M240.3,147.9l9.1-1.4v3.3c1.2-1,2.6-1.8,3.8-2.5c1.3-0.7,2.7-1.2,4.2-1.2c1.2,0,2.2,0.1,3.3,0.4
			c1.1,0.3,2,0.7,2.9,1.4c0.9,0.7,1.6,1.6,2,2.7c0.5,1.3,0.7,2.8,0.7,4.2v11c-0.1,1.1,0.3,2,1.2,2.7c1,0.5,2.1,0.9,3.2,1.1v0.7
			c-1.2-0.1-2.5-0.1-3.8-0.2c-1.4,0-2.8-0.1-4.2-0.1c-1,0-1.9,0-2.8,0.1c-0.9,0-1.7,0.1-2.6,0.2v-0.7c1.1-0.2,2.1-0.5,3.1-1.1
			c0.9-0.6,1.3-1.7,1.1-2.7v-10c0.1-1.7-0.3-3.5-1.4-4.9c-1.1-1.3-2.7-1.9-4.4-1.7c-0.7,0-1.5,0.1-2.1,0.3c-0.7,0.2-1.4,0.4-2,0.9
			c-0.5,0.3-1.1,0.7-1.6,1.2c-0.3,0.3-0.5,0.7-0.6,1.2v13.1c-0.1,1.1,0.3,2.1,1.2,2.7c1.1,0.5,2.4,0.9,3.5,1.1v0.7
			c-1.4-0.1-2.8-0.1-4.2-0.2c-1.4,0-2.8-0.1-4.2-0.1c-1,0-1.9,0-2.8,0.1c-0.9,0-1.8,0.1-2.8,0.2v-0.7c1.2-0.1,2.2-0.5,3.2-1.1
			c0.9-0.6,1.3-1.7,1.2-2.7v-14.4c0.2-1-0.3-1.9-1.3-2.4c-1-0.3-1.9-0.4-3-0.4L240.3,147.9L240.3,147.9L240.3,147.9z"/>
		<text transform="matrix(0.893 0 0 1 263.6748 147.2777)" class="st5 st6">®</text>
		<text transform="matrix(1 0 0 1 183.9932 184.2923)" class="st4 st7 st8">THERAPEUTICS</text>
	</g>
	<g>
		<polygon class="st9" points="199.8,126.8 201.5,121.8 203.2,126.8 207.9,124.5 205.7,129.2 210.5,130.9 205.8,132.6 208,137.3 
			203.3,135.1 201.6,140 199.8,135.1 195.1,137.3 197.3,132.7 192.4,131 197.3,129.2 195.1,124.5 		"/>
		<circle class="st10" cx="201.5" cy="130.9" r="4.2"/>
		<g>
			<circle class="st11" cx="201.5" cy="130.9" r="2.7"/>
		</g>
		<g id="star">
			<polygon class="st12" points="207.1,125.3 203.9,126.8 205.7,128.5 			"/>
			<polygon class="st13" points="209.5,130.9 206.4,129.7 206.4,132.1 			"/>
			<polygon class="st12" points="207.1,136.6 205.7,133.5 203.9,135.1 			"/>
			<polygon class="st12" points="201.5,138.9 202.7,135.6 200.3,135.6 			"/>
			<polygon class="st12" points="195.8,136.6 198.9,135.1 197.3,133.5 			"/>
			<polygon class="st12" points="193.5,130.9 196.8,132.1 196.8,129.7 			"/>
			<polygon class="st12" points="195.8,125.3 197.3,128.5 198.9,126.8 			"/>
			<polygon class="st12" points="201.5,122.9 200.3,126.2 202.7,126.2 			"/>
		</g>
	</g>
</g>
</svg>
