<svg id="Layer_1" data-name="Layer 1" xmlns="http://www.w3.org/2000/svg" viewBox="0 0 300 300"><path d="M66.66678,172.74554a23.56392,23.56392,0,1,1-.20833-30.15623l-6.35417,6.5625a13.78753,13.78753,0,1,0,.15626,17.1354Z" fill="#14a0d9"/><path d="M79.68761,118.73516H69.271v62.5H79.68761v-7.1875a20.20826,20.20826,0,0,0,15.26041,7.1875c11.71874,0,21.1979-10.46874,21.1979-23.43748s-9.47916-23.43749-21.1979-23.43749a20.219,20.219,0,0,0-15.26041,7.18749Zm0,39.06248c0,8.02083,5.83333,14.47915,13.02082,14.47915s13.02083-6.45833,13.02083-14.47916-5.83333-14.47917-13.02083-14.47917S79.68761,149.77679,79.68761,157.79764Zm75.52079-39.06248h10.41666v62.5H155.2084v-7.1875a20.20826,20.20826,0,0,1-15.26041,7.1875c-11.71874,0-21.1979-10.46874-21.1979-23.43748s9.47916-23.43749,21.1979-23.43749a20.219,20.219,0,0,1,15.26041,7.18749Zm0,39.06248c0,8.02083-5.83334,14.47915-13.02083,14.47915s-13.02082-6.45832-13.02082-14.47915,5.83333-14.47917,13.02082-14.47917S155.2084,149.7768,155.2084,157.79764Z" fill="#14a0d9" fill-rule="evenodd"/><path d="M170.83339,123.94349v57.29163H181.25V144.256l15.625,23.02083L212.5,144.256v36.97915H222.9167V123.94349h-9.94792L196.875,149.7768,180.7813,123.94349Z" fill="#0b5dbb"/><path d="M246.35418,123.94349H228.125v57.29163h18.22915a28.64581,28.64581,0,1,0,0-57.29163Zm0,10.41666h-7.81249v36.45831h7.81249a18.22915,18.22915,0,1,0,0-36.45831Z" fill="#0b5dbb" fill-rule="evenodd"/></svg>