<svg id="Layer_1" data-name="Layer 1" xmlns="http://www.w3.org/2000/svg" viewBox="0 0 300 300"><path d="M214.136,144.27068l-5.42442,1.4259v-5.05247H181.90833v9.6282a1.2282,1.2282,0,0,0,.52466.0389q12.02169.00347,24.04341.00574a14.96567,14.96567,0,0,1,4.13618.57126,4.85706,4.85706,0,0,1,3.548,3.76862,13.792,13.792,0,0,1,.41117,3.1932c.02672,1.83394.01716,3.66915-.0187,5.503a11.89475,11.89475,0,0,1-.57442,3.51615,4.52794,4.52794,0,0,1-2.96675,3.02547,13.54308,13.54308,0,0,1-4.42284.68374q-11.89055.01929-23.78112.00158a15.06475,15.06475,0,0,1-4.0526-.55265,4.83608,4.83608,0,0,1-3.59035-3.67451,13.80554,13.80554,0,0,1-.43669-3.146c-.01572-.58068-.00278-1.16213-.00278-1.78155l5.88935-1.2537v5.57991h28.19891V155.43207c-.14377-.102-.32374-.04827-.491-.04834q-11.99985-.00457-23.99969-.006a15.15385,15.15385,0,0,1-4.22142-.57879,4.75215,4.75215,0,0,1-3.45178-3.58758,13.124,13.124,0,0,1-.44832-3.36245c-.00718-1.61616-.01109-3.2327.01618-4.84852a11.62669,11.62669,0,0,1,.51964-3.21822,4.665,4.665,0,0,1,3.31471-3.28847,14.38564,14.38564,0,0,1,4.13167-.59242q10.92881-.01626,21.85763.00076a14.5,14.5,0,0,1,4.132.59086,5.01707,5.01707,0,0,1,3.63409,3.91442A14.33482,14.33482,0,0,1,214.136,144.27068Z" fill="#6e6d6f"/><path d="M64.69932,147.24421l-6.38626,1.07314v-7.76388H31.85553v25.02861h26.445v-8.64319l6.35426,1.20017c.03248.06419.056.08908.05621.11416.01188,1.65957.0449,3.31976-.01342,4.97846a13.546,13.546,0,0,1-.45869,3.09746,4.76133,4.76133,0,0,1-3.63721,3.56193,15.574,15.574,0,0,1-3.97018.51462q-11.519.01229-23.03807-.00072a14.77609,14.77609,0,0,1-4.30432-.61393,4.77419,4.77419,0,0,1-3.37261-3.45981,12.89486,12.89486,0,0,1-.48809-3.5748q-.01982-9.65475,0-19.30955a13.5139,13.5139,0,0,1,.41988-3.323,4.91759,4.91759,0,0,1,3.78927-3.80044,15.74132,15.74132,0,0,1,3.92743-.50982q11.54086-.01461,23.08174-.00065a15.74674,15.74674,0,0,1,3.96966.51777,4.80854,4.80854,0,0,1,3.67754,3.73947,12.52284,12.52284,0,0,1,.39585,2.757C64.72564,144.28076,64.69932,145.73578,64.69932,147.24421Z" fill="#1b94b4"/><path d="M261.01034,151.35949l-6.06465.8908v-6.09781H232.70947v19.86294h22.22347v-6.80661l6.00309,1.01431c.03486.06187.06079.08639.06069.11082a37.67828,37.67828,0,0,1-.14949,5.40446,6.55283,6.55283,0,0,1-.69125,2.19053,3.68777,3.68777,0,0,1-2.02108,1.7057,11.58527,11.58527,0,0,1-4.15478.68212q-10.20729.02257-20.41472.00323a14.45549,14.45549,0,0,1-3.49826-.44307,4.037,4.037,0,0,1-3.15227-3.29875,13.96909,13.96909,0,0,1-.30294-3.032q-.02023-7.42647.00066-14.853a12.71593,12.71593,0,0,1,.374-3.23926,4.07075,4.07075,0,0,1,3.16156-3.089,14.15314,14.15314,0,0,1,3.4979-.438q10.11995-.009,20.23987-.00057a14.99019,14.99019,0,0,1,3.45654.4258,4.2835,4.2835,0,0,1,3.4142,3.64678,13.73679,13.73679,0,0,1,.25218,2.60039C261.01557,149.5006,261.01034,150.402,261.01034,151.35949Z" fill="#6e6d6f"/><path d="M81.02721,153.4672H96.45092v4.16431H81.02612V166.036h25.9178v4.07949H75.0798v-27.904h31.5789v4.15489H81.02721Z" fill="#1b94b4"/><path d="M120.078,166.03609h24.449v4.25613H114.17126V142.12075H120.078Z" fill="#1b94b4"/><path d="M147.43348,150.76694a7.65053,7.65053,0,1,1,7.63273,7.66722A7.65112,7.65112,0,0,1,147.43348,150.76694Z" fill="#1b94b4"/><path d="M269.58077,142.30647c.4641-.04583,4.99953-.04331,5.41923.00237v27.81227h-5.41923Z" fill="#6e6d6f"/><path d="M143.59384,139.12917a5.73955,5.73955,0,1,1,5.76368-5.72659A5.72829,5.72829,0,0,1,143.59384,139.12917Z" fill="#1b94b4"/><path d="M150.49365,117.99677a4.54276,4.54276,0,0,1,4.6328-4.55607,4.57951,4.57951,0,1,1-.13088,9.15783A4.54323,4.54323,0,0,1,150.49365,117.99677Z" fill="#1b94b4"/><path d="M122.41319,182.44971a3.19437,3.19437,0,0,0-1.34059.20283,4.98633,4.98633,0,0,1,.32613,1.43162,2.75287,2.75287,0,0,1-2.72769,2.82032,4.92446,4.92446,0,0,1-1.30473-.06615,1.79878,1.79878,0,0,0-.73725-.03316.56955.56955,0,0,0-.49339.52912.53529.53529,0,0,0,.49717.47095c.33078.04482.66214.08521.998.09766a11.48058,11.48058,0,0,1,2.58686.34421,3.31046,3.31046,0,0,1,.91747.39335,1.85813,1.85813,0,0,1,.08146,3.1468,3.68708,3.68708,0,0,1-1.845.605,6.9527,6.9527,0,0,1-2.96867-.33144,2.48712,2.48712,0,0,1-1.0216-.64769,1.7062,1.7062,0,0,1-.11489-2.338c.13955-.18331.30392-.34776.45674-.52073-.81849-.72734-.91345-1.44134.38685-2.32067.02064-.121-.07749-.18074-.14651-.24474a2.67837,2.67837,0,0,1,1.44006-4.46068,3.89579,3.89579,0,0,1,3.10038.51973,3.70907,3.70907,0,0,1,1.90916-.42709Zm-4.10767,3.60132a1.71421,1.71421,0,0,0,.69138-.08262,1.93535,1.93535,0,0,0,1.46525-1.74444,1.7394,1.7394,0,0,0-1.22572-1.80246,2.7173,2.7173,0,0,0-1.79737.01738,1.68946,1.68946,0,0,0-1.211,1.40759,1.77776,1.77776,0,0,0,.72542,1.80079A2.29516,2.29516,0,0,0,118.30552,186.051Zm.22853,5.41762c.16,0,.32089.01038.47986-.00246a6.02112,6.02112,0,0,0,.69191-.08548,2.15413,2.15413,0,0,0,1.06994-.452.7891.7891,0,0,0-.09714-1.32386,2.5313,2.5313,0,0,0-.88987-.338c-.88447-.1848-1.78595-.22061-2.68024-.32052a.99162.99162,0,0,0-.73192.185c-.95723.67553-.89847,1.48507.15988,1.98023A4.5276,4.5276,0,0,0,118.53405,191.46865Z" fill="#989798"/><path d="M204.129,189.27971V178.43363c.07925-.08369.17177-.05767.25529-.05782,1.063-.00192,2.12683-.0272,3.18888.00482a4.6416,4.6416,0,0,1,3.83177,1.918,4.9955,4.9955,0,0,1,.87976,2.34168,7.97032,7.97032,0,0,1-.24469,3.36538,4.23622,4.23622,0,0,1-3.54145,3.14749A33.37327,33.37327,0,0,1,204.129,189.27971Zm1.03114-.95275c.82694,0,1.612.01734,2.396-.00362a3.5288,3.5288,0,0,0,3.37713-2.66482,7.29483,7.29483,0,0,0,.06523-3.49361,3.41526,3.41526,0,0,0-2.69668-2.821,16.34848,16.34848,0,0,0-3.14165-.12644Z" fill="#989798"/><path d="M158.77526,182.67117c.42611-.24729.83653-.494,1.255-.72617a4.10717,4.10717,0,0,1,1.73734-.51872,1.89407,1.89407,0,0,1,2.07267,1.93183c.04315,1.94789.01226,3.89743.01226,5.87a4.35483,4.35483,0,0,1-.99493.032.74837.74837,0,0,1-.05788-.47441q-.006-2.40157-.00235-4.80317a2.31408,2.31408,0,0,0-.14061-.94169,1.18171,1.18171,0,0,0-1.38477-.71266,6.75118,6.75118,0,0,0-2.46812,1.31163v5.59652a5.80658,5.80658,0,0,1-.989.02735,1.18044,1.18044,0,0,1-.04535-.50734q-.0043-2.42342.00069-4.84683a2.37826,2.37826,0,0,0-.11744-.77218,1.16,1.16,0,0,0-1.438-.80687,6.35276,6.35276,0,0,0-2.47117,1.348v5.56592h-1.00845v-7.59849a5.4857,5.4857,0,0,1,.99851-.04306v1.01665c.225.045.334-.09837.46568-.17332a7.43611,7.43611,0,0,1,1.9608-.93024,1.96926,1.96926,0,0,1,2.519,1.07062C158.68934,182.61025,158.72122,182.62466,158.77526,182.67117Z" fill="#989798"/><path d="M46.37374,189.24793h-.95462a.937.937,0,0,1-.0429-.448c-.00263-1.601-.00063-3.20211-.00262-4.80317a2.38375,2.38375,0,0,0-.1076-.85978,1.181,1.181,0,0,0-1.44551-.80264,6.89059,6.89059,0,0,0-2.42882,1.29445V189.215a4.38225,4.38225,0,0,1-.99861.056,1.11549,1.11549,0,0,1-.04606-.50041q-.00461-2.42342-.0002-4.84683a2.25543,2.25543,0,0,0-.145-.85362,1.14026,1.14026,0,0,0-1.39624-.74423,6.895,6.895,0,0,0-2.4858,1.32874v5.57194a6.38407,6.38407,0,0,1-1.00225.05041v-7.64736H36.283c.07781.32517-.00768.66183.05288.98906.1912.0589.29885-.092.42854-.16536a7.37976,7.37976,0,0,1,2.04463-.95185,1.93335,1.93335,0,0,1,2.41694,1.03623.64354.64354,0,0,0,.11883.1378c.42231-.24537.83192-.49241,1.25008-.72407a4.13021,4.13021,0,0,1,1.7358-.52485,1.88806,1.88806,0,0,1,2.085,1.91734c.04451,1.94889.0078,3.89963.0037,5.84959C46.41932,189.20457,46.40154,189.2156,46.37374,189.24793Z" fill="#989798"/><path d="M143.84139,183.64939v5.59378h-.97273c-.10323-.133-.04866-.29866-.04908-.45111q-.00687-2.44522-.00141-4.89049a2.14991,2.14991,0,0,0-.16915-.89243,1.13119,1.13119,0,0,0-1.35113-.68891,6.76953,6.76953,0,0,0-2.51025,1.341v5.58585h-1.00636v-7.60641a5.21711,5.21711,0,0,1,1.00795-.0271v1.05852a3.77777,3.77777,0,0,0,.803-.43115,6.12579,6.12579,0,0,1,1.79388-.769,1.92844,1.92844,0,0,1,2.28036,1.00854.372.372,0,0,0,.16508.1847c.39393-.2287.80407-.46771,1.2151-.70521a4.01609,4.01609,0,0,1,1.42979-.50954,1.96881,1.96881,0,0,1,2.426,2.09c.00818,1.55735.00208,3.11478.00209,4.67217V189.247a6.40708,6.40708,0,0,1-1.00551.00945.867.867,0,0,1-.05069-.47868q-.00509-2.40158-.00228-4.80317a2.32414,2.32414,0,0,0-.12747-.90047,1.182,1.182,0,0,0-1.40536-.74423A6.77224,6.77224,0,0,0,143.84139,183.64939Z" fill="#989798"/><path d="M77.21886,187.26605l1.74627-5.63248H79.9714c-.8131,2.54769-1.61891,5.07253-2.42845,7.609a2.9049,2.9049,0,0,1-.76013.01038l-1.76891-5.681-.1145-.00282-1.765,5.671a4.41357,4.41357,0,0,1-.71793.03233c-.80682-2.55485-1.60632-5.08652-2.41409-7.6444h1.00594l1.69719,5.42334.10405.01829c.34019-.89117.58494-1.81614.87679-2.72427.29207-.90885.578-1.81969.86608-2.72814h.814q.88347,2.82792,1.76916,5.663Z" fill="#989798"/><path d="M25,178.39787h6.32586v.97413h-5.2931v3.61544h3.94156v1.039H26.02279v4.212h5.82148v1.00623H25Z" fill="#989798"/><path d="M173.51413,110.52686a2.94216,2.94216,0,1,1-5.88416-.04124,2.94217,2.94217,0,0,1,5.88416.04124Z" fill="#1b94b4"/><path d="M51.60739,188.36127v3.85031H50.60206V181.64787a4.96367,4.96367,0,0,1,.92818-.04569c.13661.2592-.00587.53544.10107.78213.19022.0236.279-.13727.40364-.22183a3.49725,3.49725,0,0,1,2.88542-.64962,2.8054,2.8054,0,0,1,1.93319,1.50365,5.24351,5.24351,0,0,1,.12,4.6291,3.04031,3.04031,0,0,1-4.37728,1.371C52.2745,188.83068,51.97493,188.60639,51.60739,188.36127Zm-.00651-.99924a4.92878,4.92878,0,0,0,1.742,1.011,2.12976,2.12976,0,0,0,2.779-1.34928,4.70826,4.70826,0,0,0,.02967-3.20261,2.19593,2.19593,0,0,0-2.33073-1.5214,4.11378,4.11378,0,0,0-2.2199,1.16175Z" fill="#989798"/><path d="M265.551,185.509h-5.34012a2.83328,2.83328,0,0,0,1.55477,2.95737,1.93141,1.93141,0,0,0,1.82067-.28613,5.04387,5.04387,0,0,0,1.1507-1.16949,5.32083,5.32083,0,0,1,.81163.56019,3.60886,3.60886,0,0,1-4.14671,1.71245,3.21046,3.21046,0,0,1-1.993-2.00772,5.51264,5.51264,0,0,1-.07249-3.51626,3.19782,3.19782,0,0,1,3.2502-2.33154,3.32056,3.32056,0,0,1,2.86493,2.71929A4.84712,4.84712,0,0,1,265.551,185.509Zm-1.09421-.86553a2.27864,2.27864,0,0,0-2.33062-2.351,2.25075,2.25075,0,0,0-1.86263,2.351Z" fill="#989798"/><path d="M237.21232,185.51308h-5.39221a3.53756,3.53756,0,0,0,.84351,2.44766,1.93521,1.93521,0,0,0,2.58434.23,5.37559,5.37559,0,0,0,1.171-1.19649l.84039.59018a3.8389,3.8389,0,0,1-3.4058,1.852,3.05046,3.05046,0,0,1-2.72914-2.06945,5.19359,5.19359,0,0,1-.08658-3.6745,3.13624,3.13624,0,0,1,3.24956-2.25858,3.28531,3.28531,0,0,1,2.83233,2.6995A4.13039,4.13039,0,0,1,237.21232,185.51308Zm-5.29088-.87947h4.20243a2.11454,2.11454,0,1,0-4.20243,0Z" fill="#989798"/><path d="M221.89921,185.51358H216.5194a3.53314,3.53314,0,0,0,.844,2.44769,1.935,1.935,0,0,0,2.58438.229,5.401,5.401,0,0,0,1.17072-1.19577l.8383.5888a3.81818,3.81818,0,0,1-3.44829,1.85125,3.053,3.053,0,0,1-2.6855-2.06819,5.20453,5.20453,0,0,1-.0857-3.67466,3.13613,3.13613,0,0,1,3.25009-2.25778,3.28477,3.28477,0,0,1,2.8311,2.70035,6.03772,6.03772,0,0,1,.103.73373A1.79456,1.79456,0,0,1,221.89921,185.51358Zm-1.07894-.87568a2.11669,2.11669,0,1,0-4.20675,0Z" fill="#989798"/><path d="M194.19336,185.519h-5.39949a3.20054,3.20054,0,0,0,1.25355,2.75523,1.87456,1.87456,0,0,0,2.20719-.10293,5.49185,5.49185,0,0,0,1.15254-1.17377l.83488.58589a4.04242,4.04242,0,0,1-2.91243,1.8558,3.15049,3.15049,0,0,1-3.27159-2.17888,5.37044,5.37044,0,0,1,.05-3.80022,3.11945,3.11945,0,0,1,3.06178-2.02744,3.21016,3.21016,0,0,1,2.79762,2.22748,4.88022,4.88022,0,0,1,.21924.97659A7.73256,7.73256,0,0,1,194.19336,185.519Zm-1.08617-.87493a2.11423,2.11423,0,1,0-4.19924,0Z" fill="#989798"/><path d="M88.138,186.99844a7.02112,7.02112,0,0,1,.82152.60754,3.95873,3.95873,0,0,1-3.03519,1.8346,2.9626,2.9626,0,0,1-3.0039-1.91058,4.8338,4.8338,0,0,1,.25644-4.68184,2.81382,2.81382,0,0,1,2.858-1.401,3.07115,3.07115,0,0,1,2.52157,1.85327,4.50944,4.50944,0,0,1,.38174,2.20765H83.534a3.48719,3.48719,0,0,0,.86915,2.47663,1.93022,1.93022,0,0,0,2.58694.18532A5.95854,5.95854,0,0,0,88.138,186.99844Zm-.29709-2.37838a2.11191,2.11191,0,1,0-4.19829.00707C84.05383,184.68235,87.45423,184.67948,87.84092,184.62006Z" fill="#989798"/><path d="M67.3541,185.45525a4.04258,4.04258,0,0,1-1.19974,3.16837,3.25923,3.25923,0,0,1-4.67339-.342,4.49279,4.49279,0,0,1-.88618-3.53508,4.21575,4.21575,0,0,1,.665-1.91833,3.24527,3.24527,0,0,1,5.29063-.07732A4.43911,4.43911,0,0,1,67.3541,185.45525Zm-1.03083.06327a4.7928,4.7928,0,0,0-.24095-1.63136,2.30428,2.30428,0,0,0-1.98265-1.59846,2.24317,2.24317,0,0,0-2.19314,1.42564,4.33069,4.33069,0,0,0,.02028,3.47351,2.128,2.128,0,0,0,1.98978,1.39368,2.15679,2.15679,0,0,0,2.00826-1.298A3.98533,3.98533,0,0,0,66.32327,185.51852Z" fill="#989798"/><path d="M111.58422,189.25136h-.98763a.93029.93029,0,0,1-.04111-.43883q-.00377-2.35665-.00159-4.71331c0-.08728.00236-.17464-.00047-.26184a1.33591,1.33591,0,0,0-1.7534-1.41853,5.76785,5.76785,0,0,0-2.30866.96221v5.86847h-1.01643v-7.60581a1.288,1.288,0,0,1,.51654-.03305,1.0366,1.0366,0,0,1,.48117.03859c.07461.23238-.02649.48727.07805.7535a14.14541,14.14541,0,0,1,1.50123-.68458,3.59336,3.59336,0,0,1,1.748-.2684,2.13389,2.13389,0,0,1,1.77751,2.12543C111.60193,185.4509,111.58422,187.32714,111.58422,189.25136Z" fill="#989798"/><path d="M184.58688,189.24752h-.9834a.9522.9522,0,0,1-.04118-.4463q-.00412-2.37846-.00191-4.75694c-.00065-1.33736-.623-1.84928-1.93725-1.59562a6.19162,6.19162,0,0,0-2.10454.904V189.227a4.73361,4.73361,0,0,1-1.04247.03276V181.623h.98075c.124.23515-.02435.51344.11065.77882a12.66348,12.66348,0,0,1,1.50165-.68743,3.541,3.541,0,0,1,1.74856-.26266,2.09618,2.09618,0,0,1,1.758,2.04775C184.61535,185.40265,184.58688,187.30723,184.58688,189.24752Z" fill="#989798"/><path d="M246.84312,189.25068H245.864a.74234.74234,0,0,1-.04884-.43527q-.00522-2.35664-.0022-4.7133c0-.10182.004-.20387-.001-.30545a1.33517,1.33517,0,0,0-1.75042-1.38065,6.53,6.53,0,0,0-2.30929.92843v5.904h-1.01686v-7.60408a1.23469,1.23469,0,0,1,.51224-.03366,1.0719,1.0719,0,0,1,.51168.04975v.75967c.41822-.19819.77542-.383,1.14494-.53884a5.036,5.036,0,0,1,1.62912-.44836,2.10209,2.10209,0,0,1,2.30059,2.13952C246.86655,185.44812,246.84312,187.3248,246.84312,189.25068Z" fill="#989798"/><path d="M167.73517,181.62871h.98191a.69767.69767,0,0,1,.04694.42639c.00374,1.51395.00191,3.02791.00287,4.54187a2.39831,2.39831,0,0,0,.04684.56309,1.45865,1.45865,0,0,0,2.12659,1.10636,3.95236,3.95236,0,0,0,.745-.35908,8.885,8.885,0,0,0,1.11666-.828v-5.44718h1.00637v7.60014a4.86515,4.86515,0,0,1-.99884.03329v-1.11016c-.22338-.0147-.325.12777-.44587.21636a7.549,7.549,0,0,1-1.30211.79325,2.57992,2.57992,0,0,1-1.61137.24592,2.12288,2.12288,0,0,1-1.70454-2.18315c-.02466-1.44075-.00894-2.88219-.01042-4.32334C167.7348,182.48593,167.73517,182.06743,167.73517,181.62871Z" fill="#989798"/><path d="M249.8726,188.022l.9042-.65348a8.75247,8.75247,0,0,0,.81127.6891,2.66183,2.66183,0,0,0,2.23591.44917,1.418,1.418,0,0,0,.89051-.65653,1.08349,1.08349,0,0,0-.36557-1.48969,5.11563,5.11563,0,0,0-1.44572-.596,10.45789,10.45789,0,0,1-1.5703-.52276,1.85981,1.85981,0,0,1-1.20159-1.6798,1.89166,1.89166,0,0,1,1.053-1.78216,3.79563,3.79563,0,0,1,4.34034.80238c-.06372.16222-.22752.23862-.35558.34711-.12124.10272-.24558.2018-.3848.31577a2.76942,2.76942,0,0,0-1.59794-.92637,2.17614,2.17614,0,0,0-1.43887.21132.979.979,0,0,0-.55478.87759.958.958,0,0,0,.57773.8584,6.20318,6.20318,0,0,0,1.39634.48331,6.46581,6.46581,0,0,1,1.58082.61376,2.12976,2.12976,0,0,1,1.16549,2.124,2.274,2.274,0,0,1-1.79223,1.86346,4.26179,4.26179,0,0,1-3.58661-.79988C250.32576,188.39477,250.12692,188.2259,249.8726,188.022Z" fill="#989798"/><path d="M268.07432,188.012l.88976-.64565a7.35891,7.35891,0,0,0,.84138.713,2.65548,2.65548,0,0,0,2.19912.429,1.42587,1.42587,0,0,0,.89337-.65294,1.08351,1.08351,0,0,0-.35829-1.49146,5.11,5.11,0,0,0-1.44484-.598,11.308,11.308,0,0,1-1.5304-.50475,1.86362,1.86362,0,0,1-1.24665-1.73678,1.907,1.907,0,0,1,1.163-1.80343,3.89612,3.89612,0,0,1,4.16969.7601.52757.52757,0,0,1,.06124.12474,6.94276,6.94276,0,0,1-.73505.64127,2.82314,2.82314,0,0,0-1.59873-.92734,2.22545,2.22545,0,0,0-1.40147.18646.99153.99153,0,0,0-.5975.89605.97161.97161,0,0,0,.61065.88272,6.44366,6.44366,0,0,0,1.35771.46337,6.59833,6.59833,0,0,1,1.54327.591,2.14108,2.14108,0,0,1,1.20944,2.14245,2.26781,2.26781,0,0,1-1.83073,1.87472,4.17574,4.17574,0,0,1-3.21879-.58243A6.67338,6.67338,0,0,1,268.07432,188.012Z" fill="#989798"/><path d="M226.58333,181.61257h1.5803a3.86323,3.86323,0,0,1-.00036.83627h-1.58v6.79694h-1.01818V182.4969c-.48058-.09684-.94631-.00044-1.41556-.06387v-.82547h1.40276c0-.45677-.006-.87407.001-1.29115a1.99217,1.99217,0,0,1,2.71517-1.83936,3.16119,3.16119,0,0,1-.00453.90875,1.88638,1.88638,0,0,0-.95907-.00017.96237.96237,0,0,0-.67067.73382A6.22644,6.22644,0,0,0,226.58333,181.61257Z" fill="#989798"/><path d="M92.58429,181.6207h.9856v1.47844a1.202,1.202,0,0,0,.46584-.44429,3.1021,3.1021,0,0,1,2.75208-1.2074c.07679.34708-.09566.64277-.06944.97913a6.73237,6.73237,0,0,0-.67262.0582,2.64372,2.64372,0,0,0-1.91248,1.37786,4.43292,4.43292,0,0,0-.54775,2.1282c-.00959,1.07432-.00244,2.14878-.00244,3.24858a8.60272,8.60272,0,0,1-.99879.03393Z" fill="#989798"/><path d="M131.66824,178.3887h.97006v10.84683a5.21932,5.21932,0,0,1-.97006.031Z" fill="#989798"/><path d="M100.97083,189.24738H99.95259v-7.61861h1.01824Z" fill="#989798"/><path d="M99.95289,178.57087a6.95641,6.95641,0,0,1,1.01741-.011v1.16346H99.954A7.02526,7.02526,0,0,1,99.95289,178.57087Z" fill="#989798"/></svg>