<?xml version="1.0" encoding="UTF-8"?>
<svg xmlns="http://www.w3.org/2000/svg" version="1.1" xmlns:xlink="http://www.w3.org/1999/xlink" viewBox="0 0 300 300">
  <defs>
    <style>
      .cls-1 {
        fill: url(#linear-gradient-2);
      }

      .cls-2 {
        fill: #12783e;
      }

      .cls-3 {
        fill: url(#linear-gradient-3);
      }

      .cls-4 {
        fill: #10376c;
      }

      .cls-5 {
        fill: url(#linear-gradient);
      }
    </style>
    <linearGradient id="linear-gradient" x1="-1644.6" y1="-2102.2" x2="-1581.2" y2="-2094.4" gradientTransform="translate(1462.6 -1492.4) scale(.8 -.8)" gradientUnits="userSpaceOnUse">
      <stop offset="0" stop-color="#12783e"/>
      <stop offset=".4" stop-color="#12783e"/>
      <stop offset=".5" stop-color="#10376c"/>
      <stop offset="1" stop-color="#10376c"/>
    </linearGradient>
    <linearGradient id="linear-gradient-2" x1="-1671.2" y1="-2080.4" x2="-1661.2" y2="-2017.2" gradientTransform="translate(1462.6 -1492.4) scale(.8 -.8)" gradientUnits="userSpaceOnUse">
      <stop offset="0" stop-color="#12783e"/>
      <stop offset=".4" stop-color="#12783e"/>
      <stop offset=".5" stop-color="#10376c"/>
      <stop offset="1" stop-color="#10376c"/>
    </linearGradient>
    <linearGradient id="linear-gradient-3" x1="-1678.4" y1="-2091.4" x2="-1586.4" y2="-2042.5" gradientTransform="translate(1462.6 -1492.4) scale(.8 -.8)" gradientUnits="userSpaceOnUse">
      <stop offset="0" stop-color="#12783e"/>
      <stop offset=".4" stop-color="#12783e"/>
      <stop offset=".5" stop-color="#10376c"/>
      <stop offset="1" stop-color="#10376c"/>
    </linearGradient>
  </defs>
  <!-- Generator: Adobe Illustrator 28.6.0, SVG Export Plug-In . SVG Version: 1.2.0 Build 709)  -->
  <g>
    <g id="Layer_1">
      <g>
        <path class="cls-4" d="M199.8,154.5v1.7c0,30.2-24.6,54.7-55,54.7s-55-24.4-55-54.7,18.8-48.3,43.7-53.5v-25c-38.5,5.5-68.6,38.5-68.6,78.5s35.9,79.1,79.6,79.1,79.6-35.7,79.6-79.1v-1.7h-24.3Z"/>
        <path class="cls-2" d="M168.9,156.2c0,8-4,15.4-10.7,19.9-11,7.4-26,4.4-33.3-6.6-.9-1.3-1.6-2.7-2.2-4.1-3.7-8.9-1.7-19.2,5.2-26,9.4-9.4,24.7-9.3,34,0,1.1,1.1,2.1,2.3,2.9,3.5,2.6,3.9,4,8.5,4,13.3h0Z"/>
        <path class="cls-5" d="M234.8,122.9c.6,2.4-.8,4.8-3.1,5.5,0,0,0,0,0,0l-40.8,7.5c-2.7,0-4.9-2.1-5-4.8,0-2.1,1.3-4,3.3-4.7l40.8-7.5c2-.3,4.3,1.4,4.9,4Z"/>
        <path class="cls-1" d="M172.6,64.8c2.5.2,4.3,2.4,4.1,4.9,0,0,0,0,0,0l-6.1,40.6c-.3,2.3-2.6,3.7-5.5,3.5-2.5-.2-4.3-2.4-4.1-4.9,0,0,0,0,0,0l6.1-40.6c.6-2.4,3-4,5.5-3.5Z"/>
        <path class="cls-3" d="M225,73.7c-1.7-1.7-4.6-2-6.4-.6l-54.1,53.2c-1.4,1.4-1.4,4.3.6,6.3,1.7,1.7,4.6,2,6.4.6l54.1-53.2c1.4-1.7,1.2-4.6-.6-6.3Z"/>
      </g>
    </g>
  </g>
</svg>