<?xml version="1.0" encoding="UTF-8"?>
<svg xmlns="http://www.w3.org/2000/svg" version="1.1" viewBox="0 0 300 300">
  <defs>
    <style>
      .cls-1 {
        fill: #53999f;
      }

      .cls-2 {
        fill: #544293;
      }
    </style>
  </defs>
  <!-- Generator: Adobe Illustrator 28.6.0, SVG Export Plug-In . SVG Version: 1.2.0 Build 709)  -->
  <g>
    <g id="Layer_1">
      <g>
        <path class="cls-1" d="M143.4,169.7l25.5-15.2c1.1.2,1.3.9,1.6,1.5,4,6.7,8.9,12.9,14.5,18.4,4.7,4.7,10.4,8.4,16.6,10.8,8,3,16.9,3.1,25,.3,8.7-2.7,16.2-8.3,21.3-15.8,3.2-4.7,5.1-10.2,5.6-15.8.8-8.6-.8-16.5-5.7-23.6-5.3-7.9-13.3-13.6-22.5-16-12.6-3.7-26.2-1.1-36.6,7l-18.9-25c4.6-3.5,9.6-6.4,14.8-8.8,11.4-5.1,23.3-6.6,35.6-5.7,13.1.9,25.8,5.6,36.3,13.4,9.5,7.1,17.2,15.7,22.3,26.4,5.3,11.8,7.3,24.8,5.6,37.7-1.2,10.2-4.9,20-10.9,28.4-10.8,14.8-24.9,25-43,29.2-6.3,1.5-12.8,2.1-19.2,1.8-13.2-.6-25.8-5.2-36.4-13.1-9.6-7.1-17.2-16-24.1-25.5-2.4-3.3-4.8-6.7-7.3-10.3Z"/>
        <path class="cls-2" d="M156.5,130.3l-25.8,15.5c-2.2-3.2-4.3-6.4-6.5-9.4-4.4-6.2-9.7-11.6-15.8-16.1-13.2-9.7-31-10.2-44.6-1.1-7.9,5.2-13.9,11.9-16.3,21.2-3.9,15.4,1.1,29.9,14.5,39.5,14.3,10,33.3,10.1,47.6.2.5-.3,1-.6,1.8-1l18.7,24.7c-4.1,3.2-8.6,6-13.3,8.2-6.6,3.1-13.6,5.1-20.8,6-5.4.7-11,.8-16.4.3-9.6-.7-18.9-3.3-27.4-7.9-16.6-9.2-28.7-22.2-34.3-40.7-2.7-9.1-3.5-18.7-2.3-28.1,1.1-10.6,4.9-20.7,11.1-29.3,11.1-15.2,25.6-25.5,44.3-29.3,15.9-3.2,31.4-1.7,45.9,6.2,7.8,4.4,14.8,10,20.8,16.6,5,5.5,9.7,11.3,13.9,17.5,1.6,2.2,3.2,4.5,5,7Z"/>
      </g>
    </g>
  </g>
</svg>