<svg id="Layer_1" data-name="Layer 1" xmlns="http://www.w3.org/2000/svg" viewBox="0 0 300 300"><path d="M149.30964,159.33811a6.0115,6.0115,0,0,1,2.56639,1.91517q23.67575,23.62416,47.33906,47.26072a58.43524,58.43524,0,0,1,12.26241,17.29744,31.97929,31.97929,0,0,1,2.83117,12.14586,20.625,20.625,0,0,1-2.88873,11.92005,2.16162,2.16162,0,0,1-.48984.05724.59773.59773,0,0,1-.30235-.15586q-30.25974-30.15019-60.39826-60.1919c-.29158-.06784-.40435-.12749-.50056-.10756a.64305.64305,0,0,0-.29454.18215q-30.13953,30.035-60.2771,60.07184a1.50665,1.50665,0,0,1-.30926.18443c-.76952-.21319-.92786-.91346-1.22931-1.52031-2.333-4.69672-2.42164-9.67668-1.64482-14.684,1.11947-7.21591,4.71927-13.31719,9.09715-18.99986a69.575,69.575,0,0,1,6.028-6.805q23.31842-23.24057,46.58761-46.53036A20.72162,20.72162,0,0,0,149.30964,159.33811Z" fill="#35739a"/><path d="M88.86494,50.06067c2.6883,2.66613,5.25079,5.20059,7.80538,7.743q3.848,3.82963,7.68365,7.67155,3.71743,3.71251,7.43485,7.425l7.68269,7.6725q3.84134,3.83626,7.68269,7.67251t7.68266,7.67253q3.71741,3.71253,7.43545,7.42442c2.54982,2.541,5.08183,5.10087,7.7877,7.75112,3.73369-3.30239,6.96332-6.80418,10.352-10.13769,3.41235-3.35679,6.77952-6.75937,10.16652-10.14187s6.774-6.765,10.161-10.14749,6.774-6.765,10.16095-10.14755,6.77392-6.765,10.161-10.14749c3.38018-3.37555,6.76044-6.751,10.29532-10.28094a20.99886,20.99886,0,0,1,3.16377,10.35093,31.09506,31.09506,0,0,1-3.01162,14.54889,56.00836,56.00836,0,0,1-10.15982,14.974c-.70959.774-1.45339,1.51756-2.19661,2.26q-23.29325,23.26767-46.593,46.52888c-.73053.72927-1.49827,1.4214-2.39136,2.26569-.92707-.87006-1.78276-1.63116-2.59192-2.43878q-21.6918-21.64948-43.37892-43.30365a101.02685,101.02685,0,0,1-8.80562-9.48036A47.28742,47.28742,0,0,1,86.821,69.53119a25.58462,25.58462,0,0,1,.949-17.40308C88.03735,51.50108,88.4073,50.91766,88.86494,50.06067Z" fill="#35739a"/><path d="M140.44067,150.41637a5.68087,5.68087,0,0,1-1.80777,2.282Q114.98528,176.33679,91.32336,199.961a62.57221,62.57221,0,0,1-13.00986,9.936,33.0708,33.0708,0,0,1-20.439,4.51841A15.73455,15.73455,0,0,1,50,211.36275c1.42089-1.68346,3.05393-3.13341,4.57341-4.684,1.55188-1.58364,3.13417-3.13753,4.70315-4.70446l4.707-4.70071q2.22961-2.22664,4.45923-4.45334,2.3535-2.35037,4.707-4.70075l4.70694-4.70072,4.707-4.70075,4.707-4.70073q2.35346-2.35032,4.70694-4.70074,2.22962-2.22669,4.45922-4.45335,2.35347-2.35034,4.707-4.7007c1.569-1.56691,3.14341-3.12846,4.70542-4.70227,1.55256-1.56425,3.09264-3.14084,4.40947-4.4795a2.14345,2.14345,0,0,0-.8671-2.14879c-.6456-.67412-1.31578-1.32479-1.9764-1.98453q-27.37452-27.3387-54.74772-54.67869c-.90179-.90081-1.78092-1.82421-2.60154-2.6662.101-1.07261.94742-1.17177,1.52667-1.40961a21.23582,21.23582,0,0,1,8.79977-1.84545c3.26059.10019,6.55822-.12237,9.69187.97321a48.01639,48.01639,0,0,1,10.10493,4.67447,62.39,62.39,0,0,1,10.66864,8.42059q24.00643,24.02226,48.04941,48.0081A4.19034,4.19034,0,0,1,140.44067,150.41637Z" fill="#499dc7"/><path d="M250,88.9918c-3.45951,3.68614-6.90836,6.98491-10.26936,10.3678-3.3719,3.39386-6.76744,6.76429-10.15262,10.145s-6.77036,6.76138-10.15554,10.14207q-4.95393,4.94733-9.90784,9.89472-5.07777,5.071-10.15542,10.14219c-3.36841,3.36494-6.74039,6.72645-10.2626,10.2548,1.6987,1.91005,3.40228,3.483,5.02648,5.12689,1.72221,1.74309,3.46517,3.4657,5.199,5.1973l4.95393,4.94737q2.60077,2.59737,5.2016,5.19471l4.95393,4.94738,5.20161,5.19473q2.477,2.47368,4.95393,4.94733t4.95389,4.94738l5.20159,5.19475q2.477,2.47366,4.954,4.94733,2.60077,2.59737,5.20146,5.19484c1.6431,1.64191,3.28512,3.2849,4.78941,4.7892.00207,1.16692-.76143,1.43164-1.34546,1.6658a25.48428,25.48428,0,0,1-12.93671,1.824c-8.68714-1.08591-15.7591-5.28968-22.35705-10.63485a107.46381,107.46381,0,0,1-8.164-7.64626q-21.54723-21.5229-43.11765-43.02266c-.8199-.81811-1.61364-1.66237-2.35322-2.426-.01733-1.10569.81057-1.49646,1.35726-2.0432Q184.5335,124.5193,208.3223,100.78a57.35942,57.35942,0,0,1,16.99977-12.07143,31.60917,31.60917,0,0,1,15.24751-2.99508A17.38489,17.38489,0,0,1,250,88.9918Z" fill="#df653d"/></svg>