<?xml version="1.0" encoding="UTF-8"?>
<svg xmlns="http://www.w3.org/2000/svg" version="1.1" viewBox="0 0 300 300">
  <defs>
    <style>
      .cls-1 {
        fill: #28efbc;
      }

      .cls-2 {
        fill: #f70253;
      }

      .cls-3 {
        fill: #21b68f;
      }

      .cls-4 {
        fill: #85f5d6;
      }

      .cls-5 {
        fill: #187b61;
      }
    </style>
  </defs>
  <!-- Generator: Adobe Illustrator 28.6.0, SVG Export Plug-In . SVG Version: 1.2.0 Build 709)  -->
  <g>
    <g id="Layer_1">
      <g>
        <path class="cls-4" d="M65,150c0-47,38-85.1,84.9-85,47.1,0,85,37.6,85.1,84.9,0,46.9-38,85-84.9,85.1-46.9,0-85-38-85.1-84.9h0ZM150.2,85.1c-18.4.1-34.2,6.6-47.1,19.9-12,12.3-18,27.3-18.2,44.3-.2,18.1,6.3,34,19.4,46.8,13,12.7,28.7,19,46.8,18.7,35-.7,63.5-28.5,63.6-65,.1-35.5-29.1-64.9-64.6-64.6Z"/>
        <path class="cls-1" d="M150.2,85.1c35.5-.3,64.7,29.1,64.6,64.6-.1,36.6-28.6,64.3-63.6,65-18.1.4-33.9-5.9-46.8-18.7-13.1-12.8-19.6-28.7-19.4-46.8.2-16.9,6.2-32,18.1-44.3,13-13.3,28.7-19.7,47.1-19.9ZM150,194.6c24.2.8,44.9-20.3,44.7-44.6-.1-24.9-20.2-45-44.3-45-25.8,0-45.2,19.6-45.4,44.9-.2,25.1,20.4,45.3,45,44.7h0Z"/>
        <path class="cls-3" d="M150,194.6c-24.6.7-45.2-19.6-45-44.6.2-25.3,19.5-44.9,45.4-44.9s44.2,20,44.3,45c0,24.2-20.5,45.4-44.7,44.6ZM171.7,161.3c.6-.2.7-.7.9-1.1,2-4.9,2.9-9.9,1.7-15.2-3.3-14.5-16.7-22.6-30.7-19-12.4,3.2-20.5,15.6-17.9,28.9,2.3,11.8,12.2,19.4,23.9,19.9,3.9,0,7.7-.8,11.1-2.5.4.4.8.8,1.3,1.2,2.3,2.1,4.9,2.9,7.9,1.8,2.9-.9,4.9-3.5,5.1-6.5.4-3.2-1.2-5.4-3.3-7.4Z"/>
        <path class="cls-5" d="M160.7,172.2c-3.4,1.8-7.3,2.6-11.1,2.5-11.7-.5-21.6-8.2-23.9-19.9-2.6-13.3,5.4-25.7,17.9-28.9,14-3.6,27.4,4.5,30.7,19,1.2,5.2.4,10.3-1.7,15.2-.2.4-.3,1-.9,1.1-.5-.2-.9-.4-1.4-.6-5.7-2-11.1,2.1-10.6,8.2.1,1.2.9,2.2,1.1,3.4Z"/>
        <path class="cls-2" d="M160.7,172.2c-.2-1.2-1-2.1-1.1-3.3-.5-6.1,4.9-10.2,10.6-8.2.5.2.9.4,1.4.6,2.2,2,3.7,4.3,3.3,7.4-.2,3-2.3,5.6-5.1,6.5-2.9,1.1-5.6.3-7.9-1.8-.4-.4-.8-.8-1.3-1.2Z"/>
      </g>
    </g>
  </g>
</svg>