<svg id="Layer_1" data-name="Layer 1" xmlns="http://www.w3.org/2000/svg" viewBox="0 0 300 300"><path d="M143.52721,28.80611c-8.49258,13.16069-13.32942,32.33931,2.86835,55.51112a92.94377,92.94377,0,0,1,17.77256-1.01237,90.20821,90.20821,0,0,1,38.1885,9.95488L205,88.92909c-31.77688-7.59271-55.961-31.15821-61.47279-60.123" fill="#9fd25e"/><path d="M143.471,28.5249c-23.62175,7.08652-58.43571,25.59023-45.7812,73.62112a40.17714,40.17714,0,0,0,1.57478,5.23054,85.98419,85.98419,0,0,1,47.131-23.05933c-16.19777-23.17181-11.36093-42.40667-2.86835-55.51112,0-.11248-.05625-.16873-.05625-.28121" fill="#0197a6"/><path d="M143.58345,156.701c18.56-14.173,25.87144-28.06489,28.17738-39.36959a.74794.74794,0,0,0-.16873-.44993A92.58438,92.58438,0,0,0,156.238,96.1281,95.79317,95.79317,0,0,1,146.508,84.37347c-18.5037,2.92459-34.98269,11.136-47.131,23.05933,8.09889,22.66564,27.50247,35.93881,39.932,52.53027.44994-.44994,1.06861-.73115,1.57479-1.18109.84363-.73114,1.79975-1.406,2.69963-2.081M105.90113,191.4025a53.4984,53.4984,0,0,0-9.50494,27.10878,51.82784,51.82784,0,0,0,2.58714,18.05377,62.17241,62.17241,0,0,1,6.46786-8.26762,51.78846,51.78846,0,0,1,6.974-6.18665,46.37766,46.37766,0,0,1-2.81211-18.11,46.94322,46.94322,0,0,1,8.26761-24.69035,45.07951,45.07951,0,0,1,5.793-6.86156A143.09215,143.09215,0,0,0,109.7256,186.6219c-.6749.78739-1.29357,1.631-1.96848,2.41841-.61866.73116-1.29357,1.5748-1.856,2.36219" fill="#01586f"/><path d="M123.67368,172.39262a46.19874,46.19874,0,0,0-13.94808,31.49567,47.09688,47.09688,0,0,0,2.81212,18.11,146.68226,146.68226,0,0,1,15.63535-9.61743,208.97181,208.97181,0,0,0,18.84116-11.69838c.84363-.50618,1.46229-1.0686,2.30593-1.57478,2.41842-13.72311-.61867-24.40914-6.29913-33.68911q-1.26546-1.94037-2.53091-3.712c-.50618-.61866-.89987-1.29357-1.34981-1.79975-3.82448,2.75587-7.3115,5.568-10.686,8.38011-1.631,1.29354-3.20581,2.75585-4.7806,4.10566" fill="#9fd25e"/><path d="M143.021,165.47481c5.68046,9.33622,8.71755,19.85351,5.84919,33.68911.16873-.16872.28121-.16872.44994-.33745a4.69461,4.69461,0,0,1,.89988-.67492c.61866-.50618,1.34981-1.01235,2.02472-1.51855a4.43614,4.43614,0,0,1,.84363-.67491,27.7539,27.7539,0,0,0,2.75587-2.19345l.11249-.11249a6.52522,6.52522,0,0,0,1.34981-1.12484l.16873-.16872,1.18109-1.12485.16873-.16872c.33745-.225.73115-.67491,1.12484-1.01235,0-.11249.11248-.16872.16873-.28121l1.12484-1.01236c.11249-.11249.16873-.05624.28122-.28121.28121-.28121.61866-.61867.89988-.95612l.39369-.33746c.28121-.33746.56242-.61867.84363-.95613.16873-.16872.16873-.28121.3937-.44993.33745-.225.56242-.61867.84363-.84363a1.4114,1.4114,0,0,1,.3937-.44993c.28121-.33746.56242-.61867.73115-.84364.16873-.05624.28121-.28121.44994-.44993a8.40033,8.40033,0,0,1,.6749-.78739c.16873-.16872.28121-.33745.44994-.50617a8.39772,8.39772,0,0,1,.67491-.78739c.16873-.16872.28121-.44993.44994-.61867a9.54,9.54,0,0,1,.56242-.78739c.16873-.16872.28121-.44993.44994-.61867a3.58554,3.58554,0,0,1,.44994-.78738,355848.51448,355848.51448,0,0,0,1.34982-2.02475,3.501,3.501,0,0,1,.44994-.67491c.16873-.33746.28121-.50618.44994-.78739.16873-.16872.16873-.44993.39369-.61867.16873-.28121.28121-.50617.44994-.78739a3.78269,3.78269,0,0,0,.3937-.61866c.16873-.28121.28121-.50618.44994-.78739.11248-.16872.16873-.44993.28121-.61867.16873-.28121.28121-.61867.44994-.84363a4.08214,4.08214,0,0,0,.28121-.50618,6.2482,6.2482,0,0,1,.39369-.89988,1.01066,1.01066,0,0,1,.225-.50618c.16873-.33745.225-.61867.39369-.95612a1.01066,1.01066,0,0,1,.225-.50618c.16873-.28121.225-.61867.39369-.95613a2.31492,2.31492,0,0,1,.16873-.44993v-.11249a63.9945,63.9945,0,0,0,2.02473-24.29666v-.16872c-.11249,0-.11249-.11249-.05625-.16873-.16873-.61867-.11248-1.18109-.28121-1.68727-.11248,0-.11248-.11248-.05625-.16873-.16872-.61867-.225-1.18109-.39369-1.68727-.11248-.11248-.11248-.11248-.05625-.16873-.16872-.56242-.225-1.18109-.39369-1.68726v-.16873a10.31653,10.31653,0,0,0-.39369-1.79975v-.11249a11.14187,11.14187,0,0,0-.44994-1.856v-.11248c-.16873-.61867-.3937-1.23733-.56243-1.91224V129.536c-.225-.61867-.39369-1.34981-.61867-1.96848-.225-.73115-.50617-1.34981-.73115-2.081-.73115-2.081-1.51854-4.16193-2.41842-6.2429a16.4038,16.4038,0,0,0-.95611-2.081c-2.30594,11.19221-9.61743,25.08405-28.17738,39.2571-.89987.78739-1.74351,1.34981-2.75587,2.13721-.56242.44994-1.0686.73115-1.57478,1.18109a55.12785,55.12785,0,0,1,3.937,5.73673m-37.40111,62.93511a57.82364,57.82364,0,0,0-6.46786,8.26762,50.86641,50.86641,0,0,0,98.36772-7.3115,47.00953,47.00953,0,0,1-84.92582-7.14277,48.5692,48.5692,0,0,0-6.974,6.18665" fill="#0197a6"/></svg>