<svg id="Layer_1" data-name="Layer 1" xmlns="http://www.w3.org/2000/svg" viewBox="0 0 300 300"><defs><style>.cls-1{fill:#0d213d;}</style></defs><path class="cls-1" d="M248.65,227.46c-43.1,47.61-118,48.43-162.89,4.53C39.39,186.65,39.3,113.88,85.45,68.2,129.73,24.37,205.13,24.45,249.09,73l-33.56,33.24C199.61,88.26,179,80.58,154.55,84c-17.47,2.45-31.22,11.52-42.17,25-21,26-18.31,64.15,5.63,88.54,23.09,23.54,69.3,28.55,98.34-3.81Z"/><path class="cls-1" d="M197.22,149.25a29.48,29.48,0,1,1-59,.19c-.08-15.95,13.14-29.32,29.23-29.56A29.51,29.51,0,0,1,197.22,149.25Z"/></svg>