<?xml version="1.0" encoding="UTF-8"?>
<svg xmlns="http://www.w3.org/2000/svg" version="1.1" viewBox="0 0 300 300">
  <defs>
    <style>
      .cls-1 {
        fill: #636cf1;
      }

      .cls-1, .cls-2 {
        fill-rule: evenodd;
      }

      .cls-2 {
        fill: #0d1e5c;
      }
    </style>
  </defs>
  <!-- Generator: Adobe Illustrator 28.6.0, SVG Export Plug-In . SVG Version: 1.2.0 Build 709)  -->
  <g>
    <g id="Layer_1">
      <g>
        <g>
          <path class="cls-2" d="M175,37.6c-6.4,0-11.6,5.2-11.6,11.6s5.2,11.6,11.6,11.6c6.4,0,11.6-5.2,11.6-11.6h0c0-6.4-5.2-11.6-11.6-11.6"/>
          <path class="cls-2" d="M223.4,80.1c-6.4,0-11.6,5.2-11.6,11.6,0,6.4,5.2,11.6,11.6,11.6,6.4,0,11.6-5.2,11.6-11.6h0c0-6.4-5.2-11.6-11.6-11.6"/>
          <path class="cls-2" d="M175,239.1c-6.4,0-11.6,5.2-11.6,11.6,0,6.4,5.2,11.6,11.6,11.6,6.4,0,11.6-5.2,11.6-11.6,0-6.4-5.2-11.6-11.6-11.6"/>
          <path class="cls-2" d="M223.4,196.6c-6.4,0-11.6,5.2-11.6,11.6s5.2,11.6,11.6,11.6c6.4,0,11.6-5.2,11.6-11.6h0c0-6.4-5.2-11.6-11.6-11.6"/>
          <path class="cls-2" d="M161.4,149.6c0-6.4,5.2-11.6,11.6-11.6,6.4,0,11.6,5.2,11.6,11.6,0,6.4-5.2,11.6-11.6,11.6-6.4,0-11.6-5.2-11.6-11.6"/>
        </g>
        <g>
          <path class="cls-1" d="M186.4,89.3c-1.4-6.3-7.6-10.2-13.9-8.9-2.3.5-4.4,1.7-6,3.4-1.7,1.9-4,2.9-6.5,3h-.9c-5.2,0-10.1-2.6-13-7-6.6-9.9-20-12.6-30-6-9.9,6.6-12.6,20-6,30,6.6,9.9,20,12.6,30,6,2.5-1.7,4.6-3.8,6.2-6.3,2.9-4.2,7.7-6.7,12.8-6.7h.9c2.5,0,4.9,1.2,6.6,3.1,2.2,2.3,5.2,3.6,8.4,3.6,6.4,0,11.7-5.2,11.7-11.7,0-.8,0-1.7-.3-2.5M186.4,205.7c-1.4-6.3-7.6-10.2-13.8-8.9-2.3.5-4.4,1.7-6,3.4-1.7,1.9-4,2.9-6.5,3h-.9c-5.2,0-10.1-2.6-13-7-4.4-6.5-11.9-10.2-19.7-9.6-10.8,1-19.3,9.8-19.8,20.7-.5,11.9,8.8,22,20.7,22.4,7.7.3,14.9-3.5,19-9.9,2.9-4.2,7.7-6.7,12.8-6.7h.9c2.5,0,4.9,1.2,6.6,3.1,2.2,2.3,5.2,3.6,8.4,3.6,6.4,0,11.7-5.2,11.7-11.7,0-.8,0-1.7-.3-2.5"/>
          <path class="cls-1" d="M197.4,164.4c-2.1-1.4-4.9-1.1-6.7.7-4.1,4.2-9.8,6.6-15.7,6.6-6.6,0-12.9-2.9-17.1-8.1-4.2-5.2-5.9-12-4.6-18.5,2.4-11.9,14.1-19.6,26-17.2,4.2.9,8,2.9,11,5.9,1.8,1.8,4.6,2.1,6.7.7,1.4-.9,2.2-2.3,2.4-4,.2-1.5-.4-3.1-1.5-4.1-12.8-12.7-33.4-12.7-46.1,0-1,1-2,2.1-2.8,3.2-6.9,9.2-17.7,14.7-29.2,14.9h-.1c-6.2,0-12.1-3-15.9-7.9-7.2-9.5-20.7-11.5-30.2-4.3-9.5,7.2-11.5,20.7-4.3,30.2,7.2,9.5,20.7,11.5,30.2,4.3,1.8-1.3,3.4-3,4.7-4.8,3.1-4.6,8.2-7.4,13.7-7.5h1.3c11.9,0,22.9,5.3,29.3,14.2,6.2,8.5,16,13.5,26.5,13.5,8.8,0,17.3-3.5,23.4-9.9,1.1-1.1,1.6-2.6,1.4-4.1-.2-1.6-1.1-3.1-2.4-3.9"/>
        </g>
      </g>
    </g>
  </g>
</svg>