<svg id="Layer_1" data-name="Layer 1" xmlns="http://www.w3.org/2000/svg" viewBox="0 0 300 300"><path d="M250,64.54725a12.28158,12.28158,0,1,1-12.24055-11.94919A12.00722,12.00722,0,0,1,250,64.54725Zm-21.494,0a9.2578,9.2578,0,0,0,9.32626,9.54478A9.14979,9.14979,0,0,0,246.94,64.62009c0-5.31891-3.86166-9.61762-9.18057-9.61762A9.28629,9.28629,0,0,0,228.506,64.54725Zm7.3589,6.26607h-2.76861V58.86413a24.20179,24.20179,0,0,1,4.59029-.36442,7.44558,7.44558,0,0,1,4.153.87431,3.31367,3.31367,0,0,1,1.16568,2.62314,3.06013,3.06013,0,0,1-2.47725,2.76861v.1459a3.526,3.526,0,0,1,2.18588,2.9143,9.1331,9.1331,0,0,0,.87431,2.98735H240.6009a10.23913,10.23913,0,0,1-.94715-2.91451c-.21852-1.31136-.94715-1.8943-2.47725-1.8943h-1.31157Zm.07284-6.77617h1.31157c1.5301,0,2.76883-.50989,2.76883-1.74862,0-1.09284-.80147-1.82146-2.5503-1.82146a6.63316,6.63316,0,0,0-1.5301.14568Z" fill="#b5261c"/><path d="M151.692,117.31037a1.02476,1.02476,0,0,1-2.04925,0A1.02476,1.02476,0,1,1,151.692,117.31037Zm-10.08231-4.80343c-2.27876,0-4.61491,2.46728-5.54117,3.746v.60658h5.54117a7.61376,7.61376,0,0,0,6.33627,3.81161c5.02477-.35248,5.09034-3.07387,4.48377-4.41819v-2.21318a5.24988,5.24988,0,0,1,2.33614,2.21318h1.76235l.57379-2.21318h1.63941V111.5151h-2.7542c-1.95908-2.63123-7.13958-3.27061-9.5413-3.205v1.31151h.63936v1.828h-3.07387v1.72955h3.93455v1.664h-6.33627Zm4.0985,12.90207c-2.01646.13115-3.5575-1.86072-4.0985-2.7542,3.2624.95906,8.03306,0,10.08231-.63936C150.51158,123.07286,147.7574,125.34344,145.70815,125.409Zm3.93456,1.86071c-1.21317.60659-3.54931,1.95089-3.36077,3.5493,1.09019-.38525,3.36077-1.664,3.36077-3.49192Zm5.72969,2.42632c.48363,1.18856,2.59846,1.31971,3.5575,1.25414.57379-.80332-.18852-1.664-.60657-1.98368-1.86072.05738-2.33615-.8033-2.33615-1.22135,0-2.40171,2.33615-3.07387,3.54931-3.45912a.81272.81272,0,0,0,.45082-.09018c.99184-.32788.28689-2.9837-1.05741-3.07388-1.02463-.06557-3.36077,1.27873-4.35261,1.95089.60659,2.72141-1.05741,3.68045-1.92628,3.87718v2.746Zm-9.82819,59.33806-2.4673,3.68046h2.4673l.90167-2.43452Zm46.33762-.35247c-1.02462.15575-3.13944.60657-3.8116.60657l2.1722,4.287,3.49192-1.21316Zm4.9264-5.00017,3.2706,6.95106h2.4919l-3.68047-6.95106Zm-17.45141,9.09867-5.41-15.91856h3.49192c1.85252,3.07387,2.94272,11.88563,3.2624,15.91856Zm12.77912-11.85285-5.02476-3.68046,2.13942-1.31152,4.83622,4.992Zm-69.70726-10.21346V174.591l2.46728,1.541,1.09021,2.81157c.44263,1.25414.92625,3.65585-1.09021,3.2706-1.98366-.35248-1.664-3.49192-1.25414-4.96738l-2.623-2.65583v-3.87717Zm41.30466-34.41921c.13116,1.59843,2.27058,1.9509,3.328,1.89352a11.90321,11.90321,0,0,0,4.6149-13.771l-1.31152-1.40988,1.31152-5.28706-1.31152-2.45911v3.68046c-.22951,2.9755-1.6394,4.51653-2.34433,4.92639h-2.94273l.51641,3.5575c1.21316-.35248,3.68046-.89348,3.68046,0,0,.86887-1.40989,1.05741-2.4673,1.18857l-.73773.123c-.99184.16394-1.72957,2.27876,0,3.5575a1.612,1.612,0,0,1,0,2.72141c-1.85252.2213-2.27058.959-2.27058,1.27871Zm-11.68892,3.328c1.123-.99182,3.94276-3.07387,6.75434-3.07387,2.98369-.123,4.39358,2.81977,4.74605,4.29523a2.12293,2.12293,0,0,1-3.369,0c-1.59842-1.79514-6.20513-1.40988-7.68059-1.22136ZM140.80633,96.7523a27.10043,27.10043,0,0,0-11.07414,7.68059l4.41819.8033,3.64767-4.287,4.0985.67215-6.63138,8.48389v2.01646l-2.87714.8033V110.7118h-2.72141v3.39355h-1.664l.5082,3.5575-2.87715,1.98367v3.17224h5.5002v1.72957h-2.07384v2.07384h5.09033v2.40171l5.05754.67216,1.59841,3.0165-3.07387,1.43447.73773,4.9018,3.42636,4.06571v8.68062l8.48389,5.41v-3.39355h2.21319l.5082,2.205h2.082l1.24593-2.205,2.31157,2.205,5.41-12.2955-4.64771-1.53282-5.533-1.22136v1.22136l6.36907,1.53282-1.59841,1.99187c-2.50009,2.55747-4.90182-1.123-5.63955-2.59844a2.722,2.722,0,0,0-4.6067,0,8.13031,8.13031,0,0,1-2.4673,2.59844c-3.5575-2.27876-3.328-8.197-1.05741-8.13961,1.85252.13115,9.5413-1.21315,13.22175-1.81974V134.147H147.241a5.75358,5.75358,0,0,1,3.07388-3.80342h2.787v2.36895h3.328c1.82795-.0328,4.83623,1.59841,6.09037,2.45909v-12.2955a6.02808,6.02808,0,0,1,5.5002-4.54114v-.61476c-3.54931-.92627-5.14772,1.35249-5.5002,2.59844H161.266c-.47541-3.2706,2.88536-6.27889,4.6805-7.3937l5.27886-.8033a49.83773,49.83773,0,0,0-1.21315-9.03308c-1.05743-4.73786-8.96751-9.76263-13.58244-9.54131A68.11068,68.11068,0,0,0,140.80633,96.7523Zm24.45985-3.49191v-2.082h-4.287a4.43988,4.43988,0,0,0-4.31982-3.51652c-3.87718-.13116-9.41834,2.33614-9.83639,3.51652h12.2955v2.082ZM125.437,131.68791v-6.14775h1.59843l.61477,3.93456h4.48376v4.00013l3.328,4.77066h-2.59846c.19673.61478.99184,2.53287,2.59846,5.992,1.59842,3.36077.60658,4.70507,0,4.9018-2.88535.31968-4.13128-7.14778-4.328-10.89381H129.183v7.20515c-1.05741.35248-3.61488.06557-5.7297-3.5165-2.14762-3.5575.45084-8.29537,2.04925-10.24625Zm-4.3198-10.279v10.46757c.99184-1.24594,2.9755-4.31982,2.84436-5.54116A15.245,15.245,0,0,0,121.11716,121.40886Zm-6.08218,1.46727c-1.82793.45084-3.30339,2.59845-3.81161,3.59029.63938-.31968,2.1722-.80331,3.19683,0,1.05743.86068-.40984,1.82792-1.21315,2.14762a1.679,1.679,0,0,0,1.82793,2.01645l4.18866-2.01645.48363-7.01664H118.2318V126.532l-2.205-1.123Zm-3.07387-9.02489h4.18866l.93446-.99184,1.21316.99184,2.40172,4.67229-3.61488-2.94272-2.85255,1.95088h-2.27057ZM110.002,125.22047v-8.29535a14.64735,14.64735,0,0,0-1.85252,3.93455c-.41805,1.60662,1.05741,3.5575,1.85252,4.29523ZM133.7979,71.23505c1.34431-.2951,6.27072.50822,15.62348,5.7297h2.43452V74.30893a23.40927,23.40927,0,0,1,7.94289,12.13155l-7.238-6.533-3.13945,2.33615h-4.00012V79.90748l1.53282-1.02462-13.0988-7.64781Zm6.14775,9.72984c.123.80331.79511,3.5575,1.14759,4.80343,1.123-.38525,3.13945-1.664,2.7214-4.00012C143.42939,79.30089,141.06044,80.22716,139.94565,80.96489Zm-29.68133,30.001h-2.246v3.30339h2.246Zm0-8.28716h2.27057v3.29518h-2.27057Zm23.14833-35.92745h-2.21319v3.328h2.21319Zm-2.21319,14.2136h2.21319v3.328h-2.21319ZM110.3217,93.26039h-2.23777v3.328h2.23777Zm-1.11479-11.68892h2.27057v3.33617h-2.21319V81.57147Zm-5.09034,11.68892h-2.46728v3.328h2.46728Zm23.53359-2.65584-9.60688,9.41016V94.80142l3.51651-4.19687V86.57164H124.896V89.3832l1.63121.68035V86.57164h4.67229v1.27873C130.10926,87.85037,128.37969,89.6783,127.65016,90.60455ZM140.003,64.98893c-.18852.95906-1.46725,3.00831-4.86082,3.42636l-.73772-1.09021ZM158.1266,175.45167v-4.67228l-3.07388.86889v4.67228Zm-.72954-11.55776v4.06571l-3.68864-.72954.93446-3.33617ZM67.517,172.00074c.06558-.73773,1.11479-2.75419,4.41818-4.41818,1.1148-2.14762,4.1313-6.88548,7.13959-8.29537a23.16346,23.16346,0,0,1,8.93473-1.47546c2.205-.60657,7.3609-2.1476,10.24624-4.00012,2.87716-1.86072,4.25425-.73774,4.54114,0,1.40989-2.81977,5.12313-8.7462,8.74619-9.47574.60659,0,.25411-2.02465,0-3.07387-1.72955-1.6066-5.09033-5.41821-5.09033-7.97567V123.07286l-1.72956,1.27874,1.72956-5.50839c.47543-6.46743-.99183-19.68918-10.82823-20.10723a194.73028,194.73028,0,0,0,9.09867-23.72211,64.9387,64.9387,0,0,0,8.54946-2.85256h4.89361l12.5578-9.09047h10.63151c2.01647.31968,6.40186,1.85252,7.74616,5.7297,1.40988,3.746,6.68875,6.50023,9.15606,7.36091,1.27873,1.18857,4.06569,4.26244,4.54932,7.3691a9.17974,9.17974,0,0,0,4.18867,6.14775l1.0902,7.3937a14.61866,14.61866,0,0,1,4.54934,12.484c1.18036,1.28693,2.787,4.9018,0,9.32-.73773.57381-1.82793,2.246,0,4.19687.57378,1.95088,1.24594,6.75432,0,10.21347-1.34431,2.27057-3.91,7.68058-3.07388,11.04954-.60659,2.27058-2.33614,5.85267-4.29523,1.85252-2.33614,4.29523-7.00842,13.63981-7.00842,17.099h5.66412l1.3443,2.88533h1.72957v-1.92628l-1.72957-3.96736-3.45093-2.4673,3.45093-1.72955,2.81977,3.205c1.86071-.06557,5.7297.60659,7.40189,4.00015,1.69678,3.42633,3.48372,5.22148,4.22145,5.69691l1.31152,4.19685a18.29626,18.29626,0,0,0-5.533-5.54116c-2.21319-1.21316-2.85255-4.41818-2.85255-5.82807l-3.07388,1.47547c-.418,1.40987-1.47546,4.48375-1.47546,5.69691,0,1.25414-1.81973-.40985-2.81977-1.40169l-1.3443,8.41832,3.07387.99183-1.72957,9.47573-2.4591-6.46743v6.46743l2.4591,1.69678-1.3443,3.59029-2.10663-2.65583a1.67686,1.67686,0,0,0-1.09021,2.65583H149.1017c.41806-1.60661,1.95088-5.1887,5.15591-6.21332a2.58744,2.58744,0,0,0-3.97555-1.541H149.1017l3.07388-8.00027v-8.41832c-.86889-1.47546-2.81977-3.49192-4.35261,0v16.41859l-6.46743,7.75436h-2.4673l4.73788-7.75436c.31967-1.85252.13114-5.4756-3.27061-5.34444v-1.664h3.27061l2.082-8.00846-4.35261,1.37709,7.74616-8.60685-12.107,2.4591-1.53284-4.9264h8.16422c-2.53288-2.33614-8.29537-5.89364-11.17252-1.47546a5.63744,5.63744,0,0,0,0,6.43466l1.69678,3.33617-4.41819-1.40989V156.08218a29.0632,29.0632,0,0,0-8.90193-11.74631c-.73773,3.07388-2.04925,10.46757-1.123,14.95132l1.123,8.29537h-4.328c.2623-1.67219.73772-5.70512,0-8.29537a30.87168,30.87168,0,0,1,0-9.67246c-2.27057.92627-6.3035,4.26245-4.89361,9.67246,1.40988,2.01647,4.0657,7.42648,2.94272,12.71355,0,5.7297.73773,17.63994,3.68044,19.75477h-3.68044c-.541-4.80345-1.59841-15.82021-1.27874-21.39417a14.05891,14.05891,0,0,0-4.54933-11.07415c.89348,2.623,2.81976,8.77079,2.81976,12.71355l.25411,6.14775c.2869,5.47559.67216,12.066-.25411,13.607h-8.68062a120.89808,120.89808,0,0,0-2.082-13.0988c-.92625-3.45914.35248-5.86086,1.15578-6.656.18852-1.69678-.28689-5.77069-3.68046-7.75435v-8.16421l-16.45957,7.20516c-4.13128,2.94271-12.74632,8.7134-14.21359,8.7134Zm116.6105,64.48579c-3.5493,1.24593-10.43478,2.787-9.63148-1.15578.79511-3.93456,5.02477-3.19683,7.074-2.40172v-2.75419H178.0453v-2.94272H181.57c.35246-1.79516,1.81973-4.61492,4.8936-1.79516l5.79527,1.82795-5.72969,2.90993V232.929c3.13944-1.14759,9.35278-2.81977,8.86915,0C194.95571,235.81437,187.71776,236.48653,184.12748,236.48653Zm-14.63165-14.98412c-2.4345,5.82807,1.72957,7.68059,4.19687,7.93469-3.205-5.79528,11.23808-10.0823,17.95962-10.0823,5.41,0,4.22966,3.81161,2.95092,5.69691,2.55745,0,7.54943-1.14757,6.75432-5.69691-.8033-4.61491-8.80357-3.07387-12.648-1.86073l4.54932-3.93455c-.51641-4.54934-4.00832-3.07388-5.73789-1.69677-1.11478-1.50825-4.80344-1.98368-6.50022-2.04925v9.5413c-1.24594-2.72141-4.31981-7.62321-7.39368-5.79528-2.94274,1.91811-.13116,6.14775,1.664,8.00027-1.123,1.541-4.287.61478-5.79528,0Zm-25.32871,18.98426c-.95906-.28689-2.87716-1.40989-2.87716-3.42635v-5.54118c-1.664-.60657-4.68048-2.27057-4.16407-4.13128H142.954c-1.541-.95906-4.54934-3.42634-4.41818-4.89361.123-1.541,3.07387-1.60661,4.41818-1.40988,2.65582-.86889,8.09862-1.79516,8.80357,1.34431-.06557,1.02462-2.46729,3.8116-6.14775,2.55746l.8033,2.46729c2.49189-.60658,7.55764-1.40988,7.55764,0,0,1.664-1.05741,4.13128-6.0248,4.13128h-1.53284v8.902Zm-11.17252-13.771h-2.81976v1.664h2.81976Zm-9.03308,3.87719h2.88533v1.59841h-2.88533Zm2.88533-3.00831h-2.88533V229.183h2.88533v-1.59842Zm-2.88533-6.75432h2.88533v1.59842h-2.88533Zm2.40171-3.33619h-2.84436v2.664h2.84436Zm3.17223-3.48371h2.91814v2.623h-2.91814Zm-3.17223,0h-2.84436v2.623h2.84436Zm-4.18866-6.66416h4.18866V204.174h4.29523v2.27877l3.68045.89348v2.04925l-3.68045,1.40987,3.68045.8607v5.95921l-4.80345,3.5575h4.06572V223.773l-2.94272,1.21316h3.68045v4.93459l-4.80345,2.88534h6.533v1.9181l-5.47559,2.33615v5.54117h-4.287v-4.06571H120.445l5.86085-3.81161-4.19685-1.86073v-4.95918l3.58207-3.07387-5.24607-2.4673V211.60864h5.86085l-.61478-2.27876-3.58207-.60659v-1.44266Zm-22.00074,22.25485c2.1476,0,6.31169.86068,6.08217,4.00013-.25411,3.07387-3.328,3.52471-4.80344,3.328-1.21316-.67215-3.07388-3.19683-1.21316-7.3937Zm-18.3121,4.60671a1.34285,1.34285,0,1,0,0-2.62305A1.33526,1.33526,0,0,0,81.86173,234.20776Zm4.54114-6.23792a1.37339,1.37339,0,0,1-1.34431,1.63121,1.35613,1.35613,0,1,1,1.34431-1.63121Zm-4.54114,3.16405a1.34431,1.34431,0,0,0,0-2.68862A1.35039,1.35039,0,1,0,81.86173,231.13389Zm-5.00016-1.46727c-1.72958,2.90993-5.66413,8.32-7.26255,6.88548-2.01646-1.82793-1.57382-3.23782,2.84436-6.88548a62.90061,62.90061,0,0,1,5.82807-4.41818l.99183,2.205c1.95908-.2869,5.70511-1.59842,5.28707-4.00013-.48363-2.43452-2.40173-1.02462-3.27061,0-1.53284-.28689-3.68045-1.22135,0-2.81977,3.68865-1.664,5.7379,1.22136,6.2789,2.81977.60658,1.79514,2.81977,4.67229,6.8199,1.79514l-4.22965-4.61491h8.90194v2.81977l-2.01645,1.79514h2.01645v2.205H97.03438v9.09867H94.37854v-6.88548H92.78013v6.88548H90.14889v-6.88548l-3.64766,3.07387,1.05741,3.81161c-1.95088,1.72957-6.33628,5.05754-8.29536,4.451-2.40171-.8033-3.39355-4.451,0-4.451C77.8534,235.33075,75.32872,232.32244,76.86157,229.66662Zm.8033-8.42651c-2.68862-1.02463-6.75433-5.02477-1.72957-12.2955.57379.31968,1.664,1.541,1.664,4.26244,1.123.2869,3.68045.18852,4.93459-3.07387a3.78148,3.78148,0,0,1,2.43451,3.07387c.25411-1.40989,1.1148-4.26244,2.59025-4.26244s1.98368,1.60661,2.01647,2.34434c1.24593.79511,3.84439,1.9181,4.31981,0,.73773-2.34434,1.72957-5.82806,4.61491-1.15577l3.68046-1.18857V206.8052h2.01646v9.60687h-2.01646c-.47543-1.123-1.85252-3.205-3.07387-3.205-1.21317,0-1.47547,1.53284-1.47547,2.33615a9.79215,9.79215,0,0,1-3.68045-.86068c-.79511-.54921-1.85252.92625-2.205,1.72955-.93447.40986-2.65583.72954-2.1804-1.72955-1.09021-.26232-3.68046-.06559-5.50839,2.87714-.92626.38525-2.94272.92625-3.93456,0C80.19774,218.781,79.7469,221.24011,77.66487,221.24011ZM222.137,199.182H50v30.73874A18.45,18.45,0,0,0,68.44324,248.364H203.69371A18.45,18.45,0,0,0,222.137,229.92073Z" fill="#b5261c" fill-rule="evenodd"/><path d="M215.317,66.01356a12.51266,12.51266,0,0,1,.67216,4.06571v47.38685a30.54187,30.54187,0,0,0,6.14775,6.533V70.07927a18.51,18.51,0,0,0-5.54117-13.22175A64.36966,64.36966,0,0,0,215.317,66.01356Zm-11.62333-8.22978H185.92262a18.42758,18.42758,0,0,1,3.68045-6.14775h14.09064a18.22515,18.22515,0,0,1,11.43481,4.00015c-1.79514.86888-4.13128,1.95907-6.76253,3.07388A12.30413,12.30413,0,0,0,203.69371,57.78378ZM96.49338,51.636l2.205,4.869H104.051l.95906-4.869h79.31413a15.85574,15.85574,0,0,1-2.33614,6.14775H68.44324A12.3,12.3,0,0,0,56.14775,70.07927V229.92073a12.34226,12.34226,0,0,0,12.29549,12.29549H203.69371a12.3,12.3,0,0,0,12.29549-12.29549V138.56518A8.00592,8.00592,0,0,1,222.137,133.77v96.15078A18.45,18.45,0,0,1,203.69371,248.364H68.44324A18.45,18.45,0,0,1,50,229.92073V70.07927A18.45,18.45,0,0,1,68.44324,51.636Z" fill="#b5261c"/></svg>