<svg id="Layer_1" data-name="Layer 1" xmlns="http://www.w3.org/2000/svg" viewBox="0 0 300 300"><defs><style>.cls-1{fill:#060809;}.cls-2{fill:#376b81;}</style></defs><path class="cls-1" d="M222.37,224.35a75.49,75.49,0,0,1,6.55,23.11,82.49,82.49,0,0,1-19.57,5.15c-9.6,1.18-19.25,1.61-28.88.23-25.09-3.6-42.26-17.17-51.17-41a85.13,85.13,0,0,1-5-25,97.76,97.76,0,0,1,3.08-32.31,12,12,0,0,1,.37-1.16c0-.07.16-.1.6-.37L156,187.53a64.9,64.9,0,0,0,3.12,16.87c4.57,13.61,14.15,21.2,28.17,23.3A69,69,0,0,0,219.16,225c.86-.28,1.73-.54,2.6-.8C221.85,224.19,222,224.26,222.37,224.35Z"/><path class="cls-2" d="M76.43,80.89C81.59,85,86.8,89.07,91.91,93.25c21.74,17.77,43.35,35.67,64,54.66a217,217,0,0,1,18.33,18.32c5.14,6,8.72,12.75,9.66,20.69,1,8.52-1.17,16.27-5.87,23.77-.81-.92-1.48-1.61-2.07-2.36q-39.5-50.07-79-100.14Q87.39,96,77.78,83.73a7.63,7.63,0,0,1-1.72-2.47Z"/><path class="cls-2" d="M71.08,46.54c1.23-.6,1.86.47,2.61,1q23,16.65,45.58,33.77C134.5,92.9,149.65,104.54,164.21,117a131.42,131.42,0,0,1,13.13,12.28c6.57,7.36,10.09,15.91,9.77,25.85a37.68,37.68,0,0,1-4.27,16.61c-1.36-.41-1.91-1.46-2.63-2.27q-54-60.9-108-121.82c-.33-.38-.69-.74-1-1.1Z"/><path class="cls-1" d="M227,111.89c-.37,8.33-3.74,15.52-6.7,23.18-6.08-1.85-12.07-3.64-18.36-4.12a60.18,60.18,0,0,0-19,1.23c-5.84-7.7-13-14-20.39-20,.33-1.21,1.4-1.21,2.16-1.53A65.23,65.23,0,0,1,187,105.82a101.36,101.36,0,0,1,28.48,2.24A71.55,71.55,0,0,1,227,111.89Z"/><path class="cls-2" d="M71.12,46.5a1.57,1.57,0,0,1,0-.2s0,.11,0,.24Z"/><path class="cls-2" d="M75.49,80.62a1.41,1.41,0,0,1-.11-.19s0,.12.06.25Z"/><path class="cls-2" d="M75.44,80.68c.41-.32.7-.06,1,.21l-.37.37a.75.75,0,0,1-.57-.64Z"/></svg>