<svg id="Layer_1" data-name="Layer 1" xmlns="http://www.w3.org/2000/svg" viewBox="0 0 300 300"><defs><style>.cls-1{fill:#8fc740;}.cls-2{fill:#4d9b45;}</style></defs><g id="_8fc740ff" data-name="#8fc740ff"><path id="Layer" class="cls-1" d="M172.92,23.9a4.4,4.4,0,0,1,5.38,2.63,4.49,4.49,0,0,1-1.44,4.91c-2.26,2-6.68.59-6.75-2.63A4.09,4.09,0,0,1,172.92,23.9Zm-27.52.35a5.07,5.07,0,0,1,5.7,4.16,5.18,5.18,0,0,1-6,6.13A5.27,5.27,0,0,1,141,28a5.14,5.14,0,0,1,4.37-3.77Zm-28,8.37a6.42,6.42,0,0,1,8,2.9,6.92,6.92,0,0,1-.94,7.07c-2.22,2.36-6.4,2.71-8.74.32a6.49,6.49,0,0,1-1.83-6.41,6.63,6.63,0,0,1,3.47-3.88ZM94.89,46.29c4.37-1.3,9.13,2.39,9.25,6.91a7.52,7.52,0,1,1-15,.39A7.45,7.45,0,0,1,94.89,46.29Zm-19,20.27a8.81,8.81,0,0,1,7.8,1.06c4.41,2.71,5,9.66,1.33,13.23-3.4,4-10.46,3.46-13.31-.94a8.79,8.79,0,0,1,4.18-13.35ZM59,93.31a10.13,10.13,0,0,1,9.88-3A10.85,10.85,0,0,1,75.29,95c1,2.48,1.72,5.27.86,7.9a10.09,10.09,0,0,1-7.77,7.31,11.33,11.33,0,0,1-6.24-.75,10,10,0,0,1-5.74-8.8A9.71,9.71,0,0,1,59,93.31ZM58.86,117a10.88,10.88,0,0,1,13.31,10.49,11.57,11.57,0,0,1-2.81,7.39,11.23,11.23,0,0,1-7.81,3.69,11.4,11.4,0,0,1-9-4.48A11,11,0,0,1,58.86,117Zm2.07,27.74A10.22,10.22,0,0,1,72.79,155.1a10.27,10.27,0,0,1-3.51,7.78,10.06,10.06,0,0,1-9.8,2.16c-5.42-1.46-8.86-8-6.83-13.32a10.29,10.29,0,0,1,8.28-6.95Zm8,28A9.18,9.18,0,0,1,80.13,179,9.75,9.75,0,0,1,78.76,187c-3,4.52-10.38,5.07-13.93.91a8.89,8.89,0,0,1-2.42-6.41A9,9,0,0,1,69,172.81Zm16.12,24.4a8.7,8.7,0,0,1,5.31.47,8.4,8.4,0,0,1,4.68,9.15,8.89,8.89,0,0,1-3,4.95,8.58,8.58,0,0,1-7.19,1.42,8.25,8.25,0,0,1-5.93-7,8.14,8.14,0,0,1,6.17-9Zm18.42,20.46a7.31,7.31,0,0,1,9.64.79,8.63,8.63,0,0,1,1.8,6.36c-.23,0-.74-.08-1-.11.2,0,.63.15.82.19-.74,2.63-2.85,5-5.58,5.42a9.62,9.62,0,0,1-4.1-.35,8,8,0,0,1-3.39-3.14,7.15,7.15,0,0,1,1.79-9.16Zm26.43,12.85c2.3-1.18,5-.47,7.07.86,1.79,2.12,2.61,5.27,1.17,7.78-1.84,3.77-7.73,4.32-10.23,1C125.45,237.28,126.43,232.13,129.94,230.52ZM155,242.11a5,5,0,0,1,4.53-6.05,5.07,5.07,0,0,1,5.31,5.14,5.24,5.24,0,0,1-2.93,4.36,5.78,5.78,0,0,1-4.84-.23c-.86-1-1.88-1.89-2.07-3.22Z"/></g><g id="_4d9b45ff" data-name="#4d9b45ff"><path id="Layer-2" data-name="Layer" class="cls-2" d="M162.61,40.94a7.3,7.3,0,1,1-5,3.46,7.24,7.24,0,0,1,5-3.46Zm-23.07,2.32a9.19,9.19,0,0,1,5.51.59,8.3,8.3,0,1,1-5.51-.59Zm44.78,0a6.3,6.3,0,1,1-4.81,6.29,6.45,6.45,0,0,1,4.81-6.29ZM66.66,44.64a4.79,4.79,0,0,1,6.17,4.47c.27,3.26-3.43,6-6.4,4.68a4.88,4.88,0,0,1-2.93-6A4.94,4.94,0,0,1,66.66,44.64Zm138.58,7.5a5.7,5.7,0,1,1-2.81,9c-2.54-2.9-1-8.17,2.81-9Zm-87,.51A9.17,9.17,0,0,1,127.52,55a9.38,9.38,0,0,1,.86,11.86,9.11,9.11,0,0,1-16.16-2.75A9.25,9.25,0,0,1,118.23,52.65Zm106,12.92A5,5,0,0,1,230,69c1,2.83-1.21,6.4-4.26,6.4a4.84,4.84,0,0,1-5.31-3.49,5.05,5.05,0,0,1,3.79-6.33ZM102.15,67a9.08,9.08,0,0,1,8.78,3.57,8.89,8.89,0,0,1,1.76,5.82A9.07,9.07,0,0,1,108,84a9.8,9.8,0,0,1-6.13,1A9.19,9.19,0,0,1,102.15,67ZM47,73a6.16,6.16,0,0,1,8.35,5.73c.16,3.81-3.86,7.07-7.49,6A6.18,6.18,0,0,1,47,73ZM238.42,83.92a4.39,4.39,0,0,1,5.5,2.08,4.33,4.33,0,1,1-8.08,3,4.39,4.39,0,0,1,2.58-5ZM89.23,86.82a8.07,8.07,0,0,1,3.43,15.76,8,8,0,0,1-9.6-5.93A8.12,8.12,0,0,1,89.23,86.82ZM36.72,102.54c5.08-1.34,10.82,2.9,10.62,8.29.55,5.34-4.84,10-10,9a8.82,8.82,0,0,1-.63-17.28Zm44.78,6.13a7,7,0,0,1,8.59,6.2,7.08,7.08,0,0,1-3.64,6.88,7.84,7.84,0,0,1-5.07.63,7.1,7.1,0,0,1,.12-13.71Zm-1.6,24a6,6,0,0,1,2.53,11.78,6,6,0,1,1-2.53-11.78Zm-50.12,7.07a9.69,9.69,0,0,1,16.66,2.9A10,10,0,0,1,42.77,154a9.51,9.51,0,0,1-9.52.74,9.78,9.78,0,0,1-5.58-7.42v-2.91a11.23,11.23,0,0,1,2.11-4.63Zm53.79,16.06a5.19,5.19,0,0,1,5,.91c2.7,2.16,1.88,7.11-1.36,8.29-2.66,1.25-6-.63-6.64-3.42a5,5,0,0,1,3-5.78Zm-40.8,12.57a11.15,11.15,0,1,1-9.6,10.69,11.09,11.09,0,0,1,9.6-10.69Zm50.83,8.92a4.24,4.24,0,0,1,5.11,4.95c-.43,3.22-4.92,4.64-7.1,2.28-2.38-2.16-1.21-6.68,2-7.23ZM58.54,197.68a12.17,12.17,0,0,1,14.21,13.08c-.31,6.09-5.89,11.43-12,11.2a11.89,11.89,0,0,1-9-3.78,12.45,12.45,0,0,1-3.28-9.11,12.26,12.26,0,0,1,10.07-11.39Zm203.81,17.87a5.78,5.78,0,0,1,7.92-.51,6,6,0,0,1,.86,8.09,8.48,8.48,0,0,1-2.58,2c-1.68.12-3.47.35-4.95-.59A5.88,5.88,0,0,1,262.35,215.55ZM81.93,220.78a13.65,13.65,0,0,1,10.61,3.41,13.57,13.57,0,1,1-10.61-3.41ZM238.85,235a7.78,7.78,0,0,1,7.22,1.14,7.78,7.78,0,0,1-.74,13,7.41,7.41,0,0,1-5.9.82,7.67,7.67,0,0,1-5.5-5.61,7.77,7.77,0,0,1,4.92-9.35Zm-128.94,5.34a12.89,12.89,0,1,1-10.46,8.88,12.89,12.89,0,0,1,10.46-8.88Zm99.9,8.48c4.91-.94,9.87,3.23,10,8.17a8.82,8.82,0,0,1-6.56,9,8.91,8.91,0,0,1-6.21-.75,8.81,8.81,0,0,1,2.74-16.42Zm-67.42,3.62a12,12,0,0,1,10.27,19.91,11.83,11.83,0,0,1-12.53,3.38,12,12,0,0,1,2.26-23.29Zm32.71,3.3a9.55,9.55,0,0,1,9.49,2.47,10,10,0,0,1,2.81,5.15A10,10,0,0,1,178.11,275a10,10,0,0,1-8.55-4.56,10.33,10.33,0,0,1-1.37-7A9.79,9.79,0,0,1,175.1,255.74Z"/></g></svg>