<?xml version="1.0" encoding="UTF-8"?>
<svg xmlns="http://www.w3.org/2000/svg" version="1.1" viewBox="0 0 300 300">
  <defs>
    <style>
      .cls-1 {
        fill: #005db9;
      }
    </style>
  </defs>
  <!-- Generator: Adobe Illustrator 28.6.0, SVG Export Plug-In . SVG Version: 1.2.0 Build 709)  -->
  <g>
    <g id="Layer_1">
      <path class="cls-1" d="M234.4,234.9c-4.3-4.1-8.6-8.2-13-12.2-10.1-9.4-20.1-19-30.5-28.1-7.2-6.3-15-11.9-23.9-15.8-7.9-3.5-16.7-4.2-25.1-2-5.9,1.6-11.2,4.8-16.2,8.2-10.8,7.2-20.4,15.9-30.2,24.3-9.5,8.2-19.1,16.3-28.7,24.4-.5.5-1.1.8-1.8,1,.6-.6,1.1-1.2,1.7-1.8,11-11.5,22.2-23,33.1-34.7,6.7-7,12.8-14.7,18.2-22.8,3.6-5.6,6.8-11.4,8.1-17.9,1.7-7.8.6-15.9-3-22.9-4.2-8-9.3-15.4-15.3-22.2-8.2-9.5-16.6-18.8-24.9-28.2-5-5.6-10-11.2-15-16.8-.5-.6-.9-1.3-1.2-2h0c13.2,11.7,26.3,23.4,39.5,35,7.7,6.9,16,13,24.8,18.4,4.6,2.8,9.3,5.3,14.6,6.5,5.5,1.3,11.3.9,16.6-1.2,8-3.1,14.9-8,21.6-13.2,10.6-8.2,20.3-17.4,30.1-26.5,6.4-6,12.8-12.2,19.3-18.2.6-.4,1.2-.8,1.8-1h0c-13,15-26.1,30-39,45.2-5,6-9.5,12.4-13.4,19.1-4.1,7-5.9,15.1-4.9,23.1.6,4.1,1.7,8,3.5,11.7,4.5,9.9,10.7,18.7,17.5,27.1,9.4,11.4,18.9,22.7,28.4,34.1,2.2,2.6,4.3,5.3,6.4,8,.3.5.6,1,.8,1.5h0Z"/>
    </g>
  </g>
</svg>