<?xml version="1.0" encoding="UTF-8"?>
<svg xmlns="http://www.w3.org/2000/svg" version="1.1" viewBox="0 0 300 300">
  <defs>
    <style>
      .cls-1 {
        fill: #58a7db;
      }

      .cls-2 {
        fill: #15303b;
      }
    </style>
  </defs>
  <!-- Generator: Adobe Illustrator 28.6.0, SVG Export Plug-In . SVG Version: 1.2.0 Build 709)  -->
  <g>
    <g id="Layer_1">
      <g>
        <path id="Vector" class="cls-2" d="M156.4,102.8c3.4,21.1,20.4,38.1,41.5,41.5,13.9,2.2,26.9-1.5,37.1-8.7-2.9-16.9-10.8-33.1-23.8-46.1-13-13-29.2-20.9-46.1-23.8-7.3,10.2-10.9,23.2-8.7,37.1Z"/>
        <path id="Vector_2" class="cls-2" d="M197.9,155.8c-21.1,3.3-38.1,20.4-41.5,41.5-2.2,13.9,1.4,26.9,8.7,37.1,16.9-2.9,33.1-10.8,46.1-23.8,13-13,20.9-29.2,23.8-46.1-10.2-7.3-23.2-10.9-37.1-8.7Z"/>
        <path id="Vector_3" class="cls-2" d="M145.5,205.3c0-30.8-23.3-44.7-41.2-50.7-4.4-1.5-4.4-7.6,0-9.2,17.9-6.1,41.2-20,41.2-50.7,0-10.8-3.5-20.8-9.4-29.1-20.5,3.5-40,14.4-54,32.9-22.8,30.2-22.8,72.8,0,102.9,14,18.5,33.5,29.4,54,32.9,5.9-8.2,9.4-18.2,9.4-29.1Z"/>
        <path id="Vector_5" class="cls-1" d="M150,171.4c-7.7-13.1-19.9-21.3-33.2-21.5,13.4,0,25.3-8.4,33.2-21.5,7.9,13,19.8,21.5,33.2,21.5-13.3.2-25.5,8.3-33.2,21.5Z"/>
      </g>
    </g>
  </g>
</svg>