<?xml version="1.0" encoding="UTF-8"?>
<svg xmlns="http://www.w3.org/2000/svg" version="1.1" viewBox="0 0 300 300">
  <defs>
    <style>
      .cls-1 {
        fill: #2d388a;
      }

      .cls-2 {
        fill: #5bace9;
      }

      .cls-3 {
        fill: #e4503d;
      }
    </style>
  </defs>
  <!-- Generator: Adobe Illustrator 28.6.0, SVG Export Plug-In . SVG Version: 1.2.0 Build 709)  -->
  <g>
    <g id="Layer_1">
      <g>
        <path class="cls-1" d="M139.8,150c0,7.1-5.7,12.9-12.8,12.9,0,0,0,0,0,0h-22.2c-7.1,0-12.9-5.7-12.9-12.8,0,0,0,0,0,0,0-7.1,5.8-12.8,12.9-12.9h22.2c7.1,0,12.8,5.8,12.9,12.9ZM155.3,141.1l-17.5-30.2h-32.9c-20.5-.2-37.8,15.2-39.9,35.6v7.2c2.2,20.4,19.4,35.8,39.9,35.6h32.9l17.5-30.2c3.2-5.6,3.2-12.5,0-18.1h0Z"/>
        <path class="cls-3" d="M178.1,128.2c-6.2-3.5-8.4-11.3-4.9-17.5,0,0,0,0,0-.1l11.1-19.1c3.6-6.2,11.5-8.4,17.7-4.8,6.2,3.6,8.4,11.5,4.9,17.7l-11.1,19.1c-3.8,6-11.5,8.1-17.7,4.8ZM178.1,146.1h34.9l16.5-28.3c10.3-17.7,5.6-40.4-10.9-52.3-.4-.2-.4-.4-.4-.4-.2-.2-.6-.4-.8-.6-.3-.2-.6-.4-1-.6-.3-.2-.6-.4-.8-.6-.2-.2-.6-.4-.8-.6-.3-.2-.6-.4-1-.6-.2-.2-.6-.2-.8-.4-.2,0-.2-.2-.4-.2-18.8-8.2-40.9-1.2-50.8,16.7l-16.5,28.3,17.3,30.2c3,5.9,9,9.5,15.5,9.4Z"/>
        <path class="cls-2" d="M178.1,172.1c6.2-3.6,14.1-1.4,17.7,4.8,0,0,0,0,0,0l11.1,19.1c3.5,6.2,1.4,14.2-4.9,17.7-6.2,3.5-14.1,1.4-17.7-4.9l-11.1-19.1c-3.6-6.2-1.5-14,4.7-17.6,0,0,0,0,.1,0ZM162.6,163.2l-17.5,30.2,16.5,28.3c10.1,17.9,32.1,25.1,50.8,16.7.2,0,.2-.2.4-.2.2-.2.6-.2.8-.4.4-.2.6-.4,1-.6.3-.2.6-.4.8-.6.2-.2.6-.4.8-.6.3-.2.6-.4,1-.6.2-.2.6-.4.8-.6.2,0,.2-.2.4-.2,16.6-12,21.3-34.6,10.9-52.3l-16.5-28.3h-34.7c-6.5.1-12.4,3.6-15.5,9.2Z"/>
      </g>
    </g>
  </g>
</svg>