<?xml version="1.0" encoding="UTF-8"?>
<svg xmlns="http://www.w3.org/2000/svg" version="1.1" viewBox="0 0 300 300">
  <defs>
    <style>
      .cls-1 {
        fill: #405357;
      }
    </style>
  </defs>
  <!-- Generator: Adobe Illustrator 28.6.0, SVG Export Plug-In . SVG Version: 1.2.0 Build 709)  -->
  <g>
    <g id="Layer_1">
      <g>
        <path class="cls-1" d="M135.5,182.1l5.6-4.5h45.7c-5.8,5.1-10.6,10.6-19.7,10.4-29.5-.6-59-.2-88.5-.2-2.4,0-4.7,0-7.1,0l-.4-1.3,3.9-4.4h60.5Z"/>
        <path class="cls-1" d="M167.6,70.4c.8-1.7,1.5-3,2.2-4.4h34.8c.8,3.2,1.5,6.1,2.2,9-4.6,1.5-91.4,1.9-99.1.4-.2-1.2-.3-2.5-.6-4.9,10.5-.1,20.5,0,30.5,0,9.9,0,19.8,0,30.1,0Z"/>
        <path class="cls-1" d="M209.7,80.5c2.3,2.7,4.7,5.6,7.8,9.3h-102.8c-.7-.5-1.3-1-1.8-1.6-.7-1-1.4-2.1-1.9-3.3h59.7c-.2-1.7-.3-2.8-.5-4.4h39.5Z"/>
        <path class="cls-1" d="M86.7,173.4c4.5-3.6,8.2-5.4,13-5.3,17.1.2,34.2.2,51.4,0,2.9,0,5.8-1.4,8.8-2.1,3.3-.9,6.6-2.3,10-2.4,10.7-.3,21.5-.1,32.2-.1,1.9,0,3.7.3,5.4,1.1-5.7,4.1-10.2,9.5-18.3,9.5-32-.3-64-.1-95.9-.1-1.8,0-3.5-.2-6.5-.3Z"/>
        <path class="cls-1" d="M136.6,132.1c.9-2.7,1.3-4,1.8-5.6h59c.8-1.6,1.5-3,2.2-4.1h35.3c-.5,3.3-1,6-1.6,9.7-32,.2-63.8.1-96.7,0Z"/>
        <path class="cls-1" d="M126.9,103.8l-4.2-4.8h59.2c-.9-1.9-1.5-3-2.3-4.8h42.8c2,2.3,4.5,5.2,7.1,8.2-4.4,2-72.7,2.8-102.6,1.3Z"/>
        <path class="cls-1" d="M180,154.3c2.3-1.6,4.3-3.1,6.3-4.4h38l-9.5,9.7h-102.1c3.1-4.1,6.7-5.4,11.2-5.3,17.5.1,35.1,0,52.7,0,1,0,2.1,0,3.4,0Z"/>
        <path class="cls-1" d="M232.2,107.9c.8,2.9,1.6,5.8,2.8,9.9-33.2.2-65.6,0-98,0-.6-.7-1.1-1.5-1.6-2.3-.4-1-.7-1.9-1-2.9h59.4c-.5-1.9-.9-3.1-1.4-4.8h39.8Z"/>
        <path class="cls-1" d="M169.8,191.9c-3.2,3.7-5.7,6.5-8.2,9.4h-95.6c.2-1.8.3-3.1.5-4.8h59.7c1.2-1.7,2.3-3.2,3.3-4.6h40.4Z"/>
        <path class="cls-1" d="M129.7,145.6c1.5-2.1,2.4-3.6,3.5-5.1h60.2c1.3-1.7,2.4-3.1,3.4-4.5h35.2c-1.8,3.7-3.3,6.7-4.7,9.6h-97.6Z"/>
        <path class="cls-1" d="M206.9,52.3c-.8,3.8-1.3,6.5-1.9,9.5h-94.5c1-2,1.7-3.4,2.5-5h60.7c1.2-1.4,2.4-2.8,3.7-4.5h29.6Z"/>
        <path class="cls-1" d="M152.4,215.4h-86.1c-.4-1.5-.7-2.8-1.3-4.8h59.8c.9-1.9,1.5-3.3,2.3-5h31.2c-2.1,3.5-3.8,6.5-5.8,9.7Z"/>
        <path class="cls-1" d="M147,233.8l-1,9.5h-71.7c-.7-1.3-1.4-2.6-2.8-5.2,20.4-.2,39.8,0,59.7-.2.3-1.3.6-2.6,1-4.1h14.7Z"/>
        <path class="cls-1" d="M147.5,229.2h-78.4l-1.6-5h59.9c.3-1.7.5-2.8.8-4.5h22.1c-1,3.3-1.8,6-2.8,9.4Z"/>
        <path class="cls-1" d="M121.4,47.6c1.3-3.3,3.3-4.3,6-4.3,27,0,54,0,81.6,0-.4,1.6-.7,2.8-1,4.3h-86.6Z"/>
        <path class="cls-1" d="M146.1,248c.2,3.2.3,5.8.5,8.8h-65.2c-.6-.9-1.3-2-2.7-4.1h59.9c-.2-2-.4-3.2-.6-4.6h8Z"/>
      </g>
    </g>
  </g>
</svg>