<?xml version="1.0" encoding="UTF-8"?>
<svg xmlns="http://www.w3.org/2000/svg" version="1.1" viewBox="0 0 300 300">
  <defs>
    <style>
      .cls-1 {
        fill: #00205f;
      }
    </style>
  </defs>
  <!-- Generator: Adobe Illustrator 28.6.0, SVG Export Plug-In . SVG Version: 1.2.0 Build 709)  -->
  <g>
    <g id="Layer_1">
      <g>
        <path class="cls-1" d="M71.8,116.1c9-19.7,22.7-33.8,41.4-42.8,4.6-2.2,9.5-3.8,14.4-5.3,1.2-.4,3.6.6,4.3,1.6,8.8,14.8,17.3,29.7,25.9,44.6.3.4.3,1.1.5,1.9h-86.6Z"/>
        <path class="cls-1" d="M141.6,184h86.7c-3.9,9.6-9.4,17.5-16.2,24.7-10.5,11-23.1,18.7-37.8,23.1-3.2,1-5.1.7-6.8-2.5-7.8-13.9-15.9-27.8-23.9-41.6-.7-1-1.1-2.1-1.9-3.7h0Z"/>
        <path class="cls-1" d="M116.2,159c14.6,25.4,28.9,50.2,43.1,75-.1.5-.3,1-.4,1.5-7.9-.4-15.8-.3-23.5-1.5-17.1-2.8-31.9-10.6-44.5-22.5-2.4-2.2-2.9-3.8-1.1-6.8,8.8-14.9,17.4-30,26.4-45.5h0Z"/>
        <path class="cls-1" d="M184,140.9c-14.6-25.4-28.9-50.2-43.1-74.9.1-.5.3-1,.4-1.5,7.9.4,15.8.3,23.5,1.5,17.1,2.8,31.9,10.6,44.5,22.5,2.4,2.2,2.9,3.8,1.1,6.8-8.8,14.9-17.3,30-26.4,45.5Z"/>
        <path class="cls-1" d="M218.7,99.3c10.2,14.1,15.9,29,16.3,45.5.2,8.8-1.5,17.7-2.5,26.4-.1,1.2-1.8,3-2.9,3-17.7.2-35.6.1-54.4.1,14.5-25.3,28.7-49.8,43.3-75.2h.1Z"/>
        <path class="cls-1" d="M124.9,125.5c-14.6,25.4-28.8,49.9-43.2,75-7.1-9.4-11.5-19.3-14.1-30.1-3.4-13.9-3.4-27.8.3-41.6.4-1.3,1.8-3.1,2.9-3.1h54.3-.1Z"/>
        <g>
          <path d="M148,150v-1.3l3.9.2h2.4c.7,0,1.7,0,3.1-.1h1.5c1.4,0,2.4,0,3.1.2,1.1.2,1.9.6,2.6,1,.7.5,1.2,1.2,1.6,2.1.4.9.7,1.7.7,2.5,0,1.9-.6,3.5-1.8,4.6-1.2,1.2-2.7,1.8-4.5,1.8s-1.3,0-1.8-.2-1.1-.4-1.6-.7v-1.3h1.3c1,0,1.7-.2,2.4-.7.8-.7,1.3-1.8,1.3-3.2s-.1-1.9-.5-2.7c-.4-.7-.8-1.2-1.3-1.4-.7-.3-1.5-.5-2.4-.5s-1.4.1-1.8.4c0,.1-.1.3-.2.4v7.7c.1,0,.1.7.1.7v8.9l3.2.4v1.3h-.6c-.4,0-1,0-1.9-.1-1,0-2-.1-3.2-.1s-2.7,0-3.8.3h-1v-1.1l1-.3c.7-.2,1.3-.4,1.8-.7,0-.3.1-.6.1-.9v-6.3l-.2-5.2c0-2.4-.1-3.8-.1-4,0-.3-.2-.6-.4-.7-.2-.1-.5-.3-1-.4-1.2-.3-1.8-.4-2.1-.5h.1Z"/>
          <path class="cls-1" d="M148,129c.1.3.4,1.3.9,2.8.2.7.3,1.5.3,2.2h-1.5c-1-1.5-2.1-2.6-3.2-3.2-1.1-.7-2.4-1-3.8-1s-3.1.7-4.1,2c-1.4,1.8-2.1,4.3-2.1,7.5s.1,3.2.4,4c.4,1.3.9,2.3,1.5,3.1.4.6,1,1.1,1.8,1.5,1,.5,2,.7,3.1.7s2.4-.4,3.5-1.1,2.2-1.8,3.2-3.3c.4,0,1-.1,1.6-.1,0,.4-.1.8-.2,1.3,0,.1-.1.9-.4,2.1v.5c-.1,0-.4.7-.4.7-.7.5-1.6.9-2.8,1.2-1.2.2-2.7.4-4.4.4s-2.6-.1-3.8-.4c-1.2-.2-2.2-.7-3.1-1.2-1.3-.8-2.2-1.6-2.9-2.6-.7-.9-1.3-1.9-1.5-3-.4-1.1-.5-2.3-.5-3.6,0-3.2,1.1-6,3.2-8,2.1-2.1,4.9-3.2,8.2-3.2s2.7,0,3.8.2c1.2,0,2.3.2,3.4.4h-.2Z"/>
        </g>
      </g>
    </g>
  </g>
</svg>