<svg id="Layer_1" data-name="Layer 1" xmlns="http://www.w3.org/2000/svg" viewBox="0 0 300 300"><path d="M204.54709,119.19145l-15.02374,13.64616c-1.737-1.54618-3.231-2.998-4.84824-4.29683-15.52165-12.4656-36.26073-4.732-39.859,14.80268-1.51693,8.23524-.67178,16.05026,4.03126,23.12527,8.20693,12.34616,26.20492,14.33777,37.058,4.1903,1.26281-1.18072,2.44838-2.44378,3.9207-3.92033,2.3536,2.342,4.66551,4.67434,7.0134,6.97,2.38432,2.33121,4.80413,4.62621,7.14244,6.87367-8.10315,12.71523-28.739,18.739-47.477,14.33505-19.43073-4.56674-32.29661-20.00453-33.71846-41.44984-1.35153-20.38473,8.22808-38.65251,27.02894-46.40743C167.14519,99.91193,191.64064,103.08892,204.54709,119.19145Z" fill="#3528ea"/><path d="M78.53275,175.835a7.41256,7.41256,0,0,1-14.81441.11611,7.166,7.166,0,0,1,7.15491-6.97766A7.247,7.247,0,0,1,78.53275,175.835Z" fill="#ff7f00"/><path d="M184.19253,251.11437a7.335,7.335,0,0,1-7.61859,6.94531,7.04429,7.04429,0,1,1,7.61859-6.94531Z" fill="#ff7f00"/><path d="M80.023,123.17475a7.29572,7.29572,0,0,1-7.4518,7.11139,7.04408,7.04408,0,1,1,7.4518-7.11139Z" fill="#ff7f00"/><path d="M109.04066,76.604a7.34417,7.34417,0,0,1-7.6814,6.8814,7.04533,7.04533,0,1,1,7.6814-6.8814Z" fill="#ff7f00"/><path d="M239.99824,64.61389a7.32467,7.32467,0,0,1-7.579,6.9856,7.04393,7.04393,0,1,1,7.579-6.9856Z" fill="#ff7f00"/><path d="M124.09342,55.31591a7.19119,7.19119,0,0,1,7.26767,7.25114,7.36024,7.36024,0,0,1-7.75748,6.80353,7.0366,7.0366,0,1,1,.48981-14.05467Z" fill="#ff7f00"/><path d="M232.794,228.40465a7.19024,7.19024,0,0,1,7.19939,7.31763,7.388,7.388,0,0,1-7.82306,6.734,7.03772,7.03772,0,1,1,.62367-14.05165Z" fill="#ff7f00"/><path d="M131.362,237.5187a7.41259,7.41259,0,0,1-14.81477.06492,7.16789,7.16789,0,0,1,7.18018-6.95186A7.24069,7.24069,0,0,1,131.362,237.5187Z" fill="#ff7f00"/><path d="M177.80353,41.94474a7.18575,7.18575,0,0,1,7.12779,7.38781,7.39369,7.39369,0,0,1-7.89209,6.66065,7.03958,7.03958,0,1,1,.7643-14.04846Z" fill="#ff7f00"/><path d="M88.98571,200.36805a7.072,7.072,0,1,1-7.22467-6.87869A7.02164,7.02164,0,0,1,88.98571,200.36805Z" fill="#ff7f00"/><path d="M83.97461,90.97351a7.02627,7.02627,0,1,1-6.89728,7.18294A7.05956,7.05956,0,0,1,83.97461,90.97351Z" fill="#ff7f00"/><path d="M206.16141,58.96576a7.02563,7.02563,0,1,1,7.0863-7.01452A7.05283,7.05283,0,0,1,206.16141,58.96576Z" fill="#ff7f00"/><path d="M149.61306,44.9148a7.02564,7.02564,0,1,1-7.06,7.02338A7.04658,7.04658,0,0,1,149.61306,44.9148Z" fill="#ff7f00"/><path d="M213.24545,246.46264a7.072,7.072,0,1,1-7.1888-6.91563A7.0229,7.0229,0,0,1,213.24545,246.46264Z" fill="#ff7f00"/><path d="M149.39668,241.03336a7.02733,7.02733,0,1,1-6.84087,7.2383A7.06588,7.06588,0,0,1,149.39668,241.03336Z" fill="#ff7f00"/><path d="M67.30051,156.31851c-4.09253-.04165-7.34474-3.07284-7.30005-6.804.04409-3.68209,3.40413-6.62315,7.51216-6.57545,4.09353.04755,7.37925,3.10524,7.299,6.7925C74.73048,153.46322,71.42666,156.36051,67.30051,156.31851Z" fill="#ff7f00"/><path d="M107.58712,222.23459a7.08759,7.08759,0,1,1-7.18007-6.49476A6.94014,6.94014,0,0,1,107.58712,222.23459Z" fill="#ff7f00"/></svg>