<svg id="Layer_1" data-name="Layer 1" xmlns="http://www.w3.org/2000/svg" viewBox="0 0 300 300"><path d="M201.55,220.66a8.11,8.11,0,0,1-5.17-6.25c-29.8,7.81-71.81-8.47-127.76-49.57a7.35,7.35,0,0,1-3.28,3.85c57.87,50.64,95.43,72.12,118,67.44a28.63,28.63,0,0,0,6-2c5.37-2.49,9.84-6.79,13.63-13.09A11.29,11.29,0,0,1,201.55,220.66Zm-19.12,11.15c-14.35,3-35.74-5.81-65.71-27.29,30,18.91,51.3,26.74,66.45,24.82a30.43,30.43,0,0,0,9.37-2.61l.39-.19A22.19,22.19,0,0,1,182.43,231.81Zm.18-6.8c-12.51,1.57-29.79-4.13-53.46-18,26.84,12.46,49.27,16.33,67.59,11.78A26,26,0,0,1,182.61,225Z" fill="#32327b"/><path d="M164.79,76.88C85.53,93.52,44.77,111.73,40.4,132.6,38.57,141.22,43,150,53.54,158.9a8.15,8.15,0,0,1,4.19-4.5,8,8,0,0,1,6.2-.28,12,12,0,0,1,1.41.65c10.65-21.9,44.43-46.09,101-72A8.48,8.48,0,0,1,164.79,76.88Zm-112,75.46c-6.67-6.57-9.41-12.88-8.12-18.84,2.66-12.68,22.17-24.84,58.14-36.33-28.75,12-45.56,24.74-50.24,38.26A24.54,24.54,0,0,0,52.81,152.34Zm3.92-15.49c3.78-11,16.65-21.56,38.42-31.67,2.78-1.29,5.72-2.56,8.79-3.84C74.13,116.92,58.66,134.16,57.73,153A21.07,21.07,0,0,1,56.73,136.85Zm5.56,14.27c2.57-22.64,29.11-43.19,79.26-61.27C98.69,111.55,72.55,131.81,62.29,151.12Z" fill="#4a866c"/><path d="M254.19,73.51c-10.71-13.48-35.3-13.7-74.9-.56a8,8,0,0,1,1.19,7.75,7.51,7.51,0,0,1-3.19,4c25.06,24.82,33.88,65.22,26.14,120.3a7.76,7.76,0,0,1,7.24,3C255.05,136.39,269.28,92.38,254.19,73.51Zm-72.61,9.14c13.18,5.18,22.8,13.42,28.66,24.56,10,18.89,9.7,47-.76,83.73C213.87,142.58,204.48,106.26,181.58,82.65Zm34.25,101.57c8.62-34.05,8-60.55-1.71-79a54.67,54.67,0,0,0-22.23-22.48c16.39,4,27.33,11.22,33.2,21.87C234.35,121.27,231.31,147.47,215.83,184.22Zm11.74-18.5c9.17-27.88,9.5-48.47,1.36-63.28C222.23,90.29,209.78,82.21,191.1,78c22.94-.75,38.19,4.43,45.44,15.45C245.84,107.53,242.81,131.78,227.57,165.72Zm12.88-20.81c7.85-24,7.69-41.78-.23-53.85C232.16,78.81,215.88,73,191.74,73.64c30.81-8.76,50.62-7.92,59,2.57C259.8,87.57,256.34,110.57,240.45,144.91Z" fill="#cd9039"/><circle cx="172.86" cy="77.9" r="3.75"/><circle cx="61.15" cy="161.75" r="3.75"/><circle cx="204.34" cy="213.01" r="3.75"/></svg>