<svg id="Layer_1" data-name="Layer 1" xmlns="http://www.w3.org/2000/svg" viewBox="0 0 300 300"><path d="M190.90286,83.16227a14.93936,14.93936,0,0,1-14.27458,14.92566c-.22018.00958-.44042.0191-.6606.0191a14.94293,14.94293,0,0,1-6.23258-28.52047,14.7643,14.7643,0,0,1,6.23258-1.36905A14.94415,14.94415,0,0,1,190.90286,83.16227Z" fill="#53b6e2"/><path d="M226.41508,82.85805C186.92893,97.7755,108.42065,158.99216,110.31055,284.51256,112.19373,241.29369,138.06049,140.44961,226.41508,82.85805Z" fill="#9ec234"/><path d="M65,15.48744c42.31765,22.30218,123.75157,94.32021,110.91233,203.9614C178.273,182.07453,159.39419,88.95147,65,15.48744Z" fill="#4378a2"/><path d="M185.31176,84.51222a14.91176,14.91176,0,0,1-8.68348,13.57571c-.22018.00958-.44042.0191-.6606.0191a14.94293,14.94293,0,0,1-6.23258-28.52047c.21065-.01916.42125-.01916.64149-.01916A14.938,14.938,0,0,1,185.31176,84.51222Z" fill="#86cae9"/><path d="M235,66.12183a6.1337,6.1337,0,1,1-6.11366-5.967A5.99631,5.99631,0,0,1,235,66.12183Zm-10.73408,0a4.62342,4.62342,0,0,0,4.65746,4.76708,4.56972,4.56972,0,0,0,4.54784-4.73,4.60618,4.60618,0,1,0-9.2053-.037Zm3.6753,3.12868h-1.38361v-5.967a12.04874,12.04874,0,0,1,2.29318-.18221,3.71826,3.71826,0,0,1,2.07393.437,1.65442,1.65442,0,0,1,.58219,1.30954,1.53061,1.53061,0,0,1-1.237,1.38361V66.304a1.7594,1.7594,0,0,1,1.0903,1.45472,4.56765,4.56765,0,0,0,.437,1.49175h-1.49175a5.09477,5.09477,0,0,1-.47256-1.45472c-.10963-.65477-.47405-.9466-1.237-.9466h-.65477Zm.03556-3.38348h.65477c.76439,0,1.38361-.25479,1.38361-.87253,0-.54663-.40146-.91105-1.274-.91105a3.25223,3.25223,0,0,0-.76439.07407Z" fill="#4378a2"/></svg>