<svg id="Layer_1" data-name="Layer 1" xmlns="http://www.w3.org/2000/svg" viewBox="0 0 300 300"><title>AEZS_Mark_Light</title><path d="M167.84674,71.66994c-10.86826,6.79267-16.3024,16.88463-17.66094,29.30552-1.94076,17.46686-.19407,34.73964.38815,52.01244.77631,20.5721,1.16446,41.33825-5.43413,61.32812A64.94426,64.94426,0,0,1,122.627,245.95045c-12.61495,9.50973-28.33513,8.92752-40.17378-1.35852-10.86828-9.31567-13.39127-25.424-6.21044-39.00935,0,1.16447.19407,2.32891.19407,3.29929.77631,12.22682,12.22681,25.61807,23.28916,27.36477a23.99985,23.99985,0,0,0,26.97659-5.046c8.92751-8.73344,12.42089-19.98987,14.16757-31.8285,3.10522-20.18392,0-39.97972-3.68745-59.7755-2.32892-12.615-5.046-25.22991-4.65784-38.233.58223-17.66093,6.79267-32.993,20.76617-44.24939,22.12469-18.0491,56.28211-10.28605,69.86745,15.5261-8.15119-4.85191-16.30241-8.92751-26.00622-9.50974C186.47807,62.74244,176.3861,64.48913,167.84674,71.66994Z" fill="#579744"/><path d="M167.84674,71.66994c8.53936-6.98674,18.63133-8.9275,29.30552-8.34528,9.50974.58223,17.855,4.85191,26.00623,9.50974,7.763,17.07872,5.24,33.76927-3.29929,49.68354-13.1972,24.25953-34.93373,37.26263-60.74587,44.44345,3.49337-2.13485,7.18082-4.26967,10.67419-6.59858a124.67693,124.67693,0,0,0,10.286-7.37491c12.42089-9.8979,23.48323-20.76615,29.11144-36.09819,3.49338-9.31567,4.0756-18.63132.97038-28.14106-5.43414-16.69056-21.73653-24.64768-38.233-18.63132C170.56381,70.69956,169.20528,71.08772,167.84674,71.66994Z" fill="#2cace3"/><path d="M99.726,236.24661c-11.06234-1.74667-22.51285-15.138-23.28915-27.36476,0-1.16447-.19408-2.32891-.19408-3.2993,5.046-12.42086,14.94388-19.79577,26.58845-25.22991a70.02052,70.02052,0,0,1,23.67731-6.21043c-2.71707,1.55261-5.43413,2.91114-7.95713,4.46376C107.489,185.20455,97.59113,193.16169,92.157,205.19441,87.49917,215.8686,86.33471,227.125,99.726,236.24661Z" fill="#2cace3"/></svg>