<svg id="Layer_1" data-name="Layer 1" xmlns="http://www.w3.org/2000/svg" viewBox="0 0 300 300"><path d="M195.27331,98.83117a6.32519,6.32519,0,0,1-6.22849,3.64867q-16.1895-.07386-32.37949-.00158a21.56721,21.56721,0,0,0-5.96814.55717c-3.76523,1.07134-5.28036,2.79664-5.94237,7.37829-.185,1.28028.00516,2.61033-.05737,3.91368-.29147,6.07607,2.77406,7.03512,6.54789,8.13646a24.40064,24.40064,0,0,0,6.99342.86507c9.60574-.07322,19.2162-.14058,28.81779.089a42.89656,42.89656,0,0,1,16.82838,3.42082c6.61916,2.98582,10.43906,7.86694,10.54591,15.30707.046,3.20395.04413,6.41085-.03631,9.61389a15.48863,15.48863,0,0,1-8.591,14.03616,32.796,32.796,0,0,1-15.61467,3.79458c-11.74.14585-23.48247.0933-35.22394.11294-6.16754.01032-12.33548.04369-18.50254-.01135-5.22354-.04663-7.87619-4.86658-5.25544-9.43635a5.22578,5.22578,0,0,1,4.027-2.56092,17.31551,17.31551,0,0,1,2.48769-.02316q24.3737-.00026,48.74733-.02116a33.14695,33.14695,0,0,0,7.38806-.59655,9.91425,9.91425,0,0,0,6.38084-4.2704,112.78506,112.78506,0,0,0,.066-11.6107c-2.26572-4.20267-6.26869-5.16577-10.42092-5.72387a43.58722,43.58722,0,0,0-5.68361-.1954c-7.828-.01854-15.66159.17136-23.48222-.06952-5.38839-.166-10.81327-.44728-16.06938-1.95578a25.01117,25.01117,0,0,1-7.64651-3.5305,12.84112,12.84112,0,0,1-5.87643-10.74261c-.062-3.79789-.07071-7.60015.03673-11.3965.17266-6.10059,3.234-10.48022,8.42021-13.4384a26.69647,26.69647,0,0,1,12.8208-3.47514c12.568-.21834,25.14163-.15072,37.71287-.12018,3.34088.00811,4.95487,1.68664,5.147,5.00869C195.33061,96.71351,195.27331,97.90073,195.27331,98.83117Z"/><path d="M100.34322,129.537a8.06362,8.06362,0,0,1-5.86821-3.55359c-2.57163-3.31873-6.108-4.60482-10.14976-4.96837-11.827-1.06381-23.67588-.32955-35.51283-.42563-4.332-.03516-8.15267,1.57109-9.84942,6.08149a14.553,14.553,0,0,0-.9794,5.1651c.01607,5.2266-.08486,10.4554.03616,15.67924.087,3.75557.9457,7.25052,4.47192,9.46014a11.00517,11.00517,0,0,0,5.96274,1.87942c11.0348-.01129,22.07308.1579,33.103-.07591,5.29506-.11224,10.109-1.80766,13.72512-6.19974,2.48609-3.01958,4.88612-3.42986,7.80682-2.06042a6.51245,6.51245,0,0,1,2.89766,9.53618c-2.42239,4.07645-6.21363,6.44264-10.48059,8.029a22.72882,22.72882,0,0,1-7.95465,1.38181q-22.60355-.02472-45.20715-.00705A17.83822,17.83822,0,0,1,25.40909,156.34a13.30715,13.30715,0,0,1-.3095-3.52062c-.024-8.67142.22093-17.35144-.09266-26.01155-.22043-6.08729,4.837-14.01661,12.57065-16.20985a17.54587,17.54587,0,0,1,4.87393-.71625c15.06881.06061,30.13807.00235,45.207.05241a22.00057,22.00057,0,0,1,14.97266,5.32576,13.56119,13.56119,0,0,1,3.97473,5.35492,6.33546,6.33546,0,0,1-3.54733,8.207A22.81082,22.81082,0,0,1,100.34322,129.537Z"/><path d="M112.72841,209.10378c-.34049-1.79824,1.04447-2.43468,1.97362-3.21685a102.14271,102.14271,0,0,1,10.50737-7.76407,122.33693,122.33693,0,0,1,26.0972-12.92875,55.36558,55.36558,0,0,1,23.68023-2.6,59.24839,59.24839,0,0,1,16.53609,4.46425,128.25789,128.25789,0,0,1,27.79131,15.80553c1.52135,1.1162,2.91879,2.40369,4.353,3.63588.53664.461.51035.49265.7908,2.643-1.67765.78022-3.21693-.2424-4.6828-.63008-10.39546-2.74923-20.83258-5.32013-31.38086-7.39583a101.95776,101.95776,0,0,0-28.56427-1.42,152.88548,152.88548,0,0,0-21.44868,3.65481c-7.84716,1.83136-15.68252,3.70452-23.41492,5.98768A2.40437,2.40437,0,0,1,112.72841,209.10378Z" fill="#54af3a"/><path d="M240.26647,113.32535a4.64375,4.64375,0,0,1,2.27159-2.512c6.28163-1.0524,7.18-.91345,10.193,1.66556v54.99079a9.32674,9.32674,0,0,1-10.88263,1.53494,3.293,3.293,0,0,1-1.55231-2.59848,16.04645,16.04645,0,0,1-.02944-2.48524C240.26643,147.08832,240.26647,130.25574,240.26647,113.32535Z"/><path d="M274.81078,165.98175c-2.43151,3.85431-4.972,5.01548-8.006,3.65934a6.19934,6.19934,0,0,1-3.71006-7.24245,6.12486,6.12486,0,0,1,7.29954-4.12718C273.05837,158.85813,275.74415,161.41756,274.81078,165.98175Zm-8.3475,1.47086c1.41582,1.69837,3.13847.73421,4.88074.50259-1.50069-.4661-1.85188-1.92276-2.76583-2.86811-.103-.10659-.36274-.06138-.54661-.08613-.50972.70325.09436,1.68042-.6534,2.33369l-.98219.198v-6.22905c3.356-.38211,3.356-.38211,4.9193.895.58685,1.16809-1.02877,1.8557-.4743,3.24579.50839.18449.30746,1.38308,1.40272,1.40592,1.857-2.51977,1.69554-4.74049-.458-6.36a4.76609,4.76609,0,0,0-6.365.67287C263.73971,163.15393,264.09427,165.293,266.46328,167.45261Zm1.36984-4.51477c.70051.4274,1.30769.71878,2.1062-.36517C269.09835,162.46452,268.48454,161.98707,267.83312,162.93784Z"/></svg>