<svg id="Layer_1" data-name="Layer 1" xmlns="http://www.w3.org/2000/svg" viewBox="0 0 300 300"><defs><style>.cls-1{fill:#231f20;}.cls-2,.cls-3{fill:#fff;}.cls-3{fill-rule:evenodd;}</style></defs><title>CRSP_Light_bg</title><path class="cls-1" d="M215.73,152.62h-6.1v9.07h6.1a4.54,4.54,0,1,0,.32-9.07ZM63.26,192.47h180v42.81H56.68V48.66H243.32V180.29h-6.56c-6.15,0-11.4-.57-16.65-6l-6.3-6.54h-4.18v12.1h-6.56V146.57h13.26A10.57,10.57,0,0,1,227,157.05v.1a10.47,10.47,0,0,1-5.39,9.23l3.33,3.42a15.55,15.55,0,0,0,11.79,4.5V55.21H63.26Zm125.26-24.72H181.8v12.1h-6.56V146.57h13.27a10.59,10.59,0,1,1,.49,21.17h-.48Zm-.6-15.12H181.8v9.07h6.1a4.54,4.54,0,1,0,.32-9.07h-.3Zm-37.71,23.49,3.63-4.84c3,2.32,5.34,2.77,6.86,2.77,2.52,0,3.68-1.36,3.68-3.07,0-5.4-13.11-5.2-13.11-15.43a9.57,9.57,0,0,1,9.83-9.48,12.2,12.2,0,0,1,9.22,3.58l-3.88,4.94a8.34,8.34,0,0,0-5.3-2.22,2.92,2.92,0,0,0-3.06,2.76.49.49,0,0,0,0,.12c0,4.89,13.11,5,13.11,15.27,0,5.85-4.59,9.83-11.09,9.83-3.88,0-8-2-9.88-4.23Zm-3.78-29.54v33.27h-6.57V146.57Zm-32.28,6h-6.1v9.07h6.1a4.54,4.54,0,1,0,.32-9.07Zm4.39,21.67-6.31-6.54h-4.18v12.1H101.5V146.57h13.26A10.57,10.57,0,0,1,125.43,157v.11a10.49,10.49,0,0,1-5.39,9.23l3.32,3.42a15.57,15.57,0,0,0,11.8,4.5v6c-6.15,0-11.39-.61-16.63-6ZM68,163.2a17.15,17.15,0,0,1,29.49-11.9l-4.69,4.34a10.43,10.43,0,0,0-7.66-3.28,10.84,10.84,0,0,0,0,21.68,10.46,10.46,0,0,0,7.66-3.27l4.69,4.33A17.15,17.15,0,0,1,68,163.2Z"/><path class="cls-2" d="M70.51,208.88h3.91v12.47h2.89V208.88h3.94v-2.46H70.51Z"/><path class="cls-2" d="M87.61,206.42H84.75v14.93h2.86v-6.58h5.93v6.58h2.87V206.42H93.54v6H87.61Z"/><path class="cls-2" d="M103.3,208.88h6.51v-2.46h-9.37v14.93h9.62v-2.44H103.3v-4.08h5.93v-2.44H103.3Z"/><path class="cls-3" d="M113.79,221.35h2.86v-5.69h2.07l3.06,5.69h3.34l-3.45-6.18a4.21,4.21,0,0,0,2.64-4.14,4.32,4.32,0,0,0-2.12-3.88c-1-.56-2-.71-4.68-.71h-3.72v14.91Zm2.86-12.47h.84c2,0,2.34,0,3,.38a1.93,1.93,0,0,1,1,1.75c0,1.66-.91,2.19-3.69,2.19h-1.06Z"/><path class="cls-3" d="M127,221.35h2.93l.95-3.11h5.26l.91,3.11h3L135,206.42h-2.91L127,221.35Zm4.59-5.56,1.91-6.08,1.92,6.08Z"/><path class="cls-3" d="M142.71,221.35h2.91v-5.58h.87a14.76,14.76,0,0,0,3.81-.31,4.22,4.22,0,0,0,2.93-4.3,4.34,4.34,0,0,0-4-4.62h-.26a26.57,26.57,0,0,0-2.73-.11h-3.49Zm2.86-12.47h1.05c2.78,0,3.68.56,3.68,2.25s-.9,2.19-3,2.19h-1.69v-4.45Z"/><path class="cls-2" d="M159.11,208.88h6.52v-2.46h-9.38v14.93h9.62v-2.44h-6.76v-4.08H165v-2.44h-5.93Z"/><path class="cls-2" d="M168.78,215c0,2.16.11,2.88.56,3.82.88,1.77,2.81,2.78,5.33,2.78s4.5-1,5.33-2.78c.47-.94.56-1.66.56-3.82v-8.62h-2.87V215a14.35,14.35,0,0,1-.06,1.61,2.65,2.65,0,0,1-3,2.55,2.84,2.84,0,0,1-2.53-1.16c-.43-.63-.49-1.16-.49-3v-8.57h-2.89V215Z"/><path class="cls-2" d="M183.85,208.88h3.92v12.47h2.88V208.88h3.94v-2.46H183.85Z"/><path class="cls-2" d="M201.06,206.42H198.2v14.93h2.86Z"/><path class="cls-2" d="M211.12,206.15c-4,0-6.58,3.09-6.58,7.77s2.64,7.72,6.74,7.72c3.34,0,5.15-2,5.33-5.82H214c-.18,2.25-1.12,3.33-2.85,3.33-2.25,0-3.62-2-3.62-5.23s1.39-5.31,3.6-5.31c1.53,0,2.49.94,2.78,2.67h2.46c-.2-3.3-2.08-5.13-5.26-5.13Z"/><path class="cls-2" d="M229.5,208.72a4.94,4.94,0,0,0-4.7-2.57c-3,0-5.05,1.79-5.05,4.36a3.85,3.85,0,0,0,.75,2.37c.57.79,1.39,1.31,3.37,2.13l1.84.76c1.25.56,1.77,1.06,1.77,1.79,0,.95-1,1.59-2.37,1.59a2.79,2.79,0,0,1-3.07-2.88h-2.78c.14,3.51,2.15,5.37,5.82,5.37,3.27,0,5.33-1.8,5.33-4.59a3.86,3.86,0,0,0-.67-2.35,3.81,3.81,0,0,0-1-.94,6.36,6.36,0,0,0-1.26-.67c-.22-.12-.78-.34-1.69-.7l-1.44-.56c-1.34-.56-1.76-.94-1.76-1.61,0-.92.94-1.62,2.17-1.62a2.24,2.24,0,0,1,2.43,2.05.76.76,0,0,1,0,.15H230a4.67,4.67,0,0,0-.45-2.08Z"/><path class="cls-1" d="M238.63,242a5,5,0,0,1,2.31.61,4.31,4.31,0,0,1,1.75,1.74,4.71,4.71,0,0,1,0,4.68,4.35,4.35,0,0,1-1.74,1.74,4.69,4.69,0,0,1-4.67,0,4.35,4.35,0,0,1-1.74-1.74,4.75,4.75,0,0,1-.62-2.33,4.7,4.7,0,0,1,.63-2.35,4.4,4.4,0,0,1,1.76-1.74A4.92,4.92,0,0,1,238.63,242Zm0,.79a3.87,3.87,0,0,0-1.92.5,3.66,3.66,0,0,0-1.47,1.45,3.93,3.93,0,0,0,0,3.9,3.61,3.61,0,0,0,1.45,1.45,3.88,3.88,0,0,0,3.9,0,3.61,3.61,0,0,0,1.45-1.45,3.93,3.93,0,0,0,0-3.9,3.6,3.6,0,0,0-1.47-1.45A4,4,0,0,0,238.63,242.74Zm-2.06,6.51v-5.06h1.74a4.27,4.27,0,0,1,1.28.14,1.25,1.25,0,0,1,.64.49,1.3,1.3,0,0,1,.23.74,1.38,1.38,0,0,1-.39,1,1.54,1.54,0,0,1-1,.46,1.3,1.3,0,0,1,.43.27,5.18,5.18,0,0,1,.74,1l.62,1h-1l-.45-.8a4.08,4.08,0,0,0-.85-1.17,1.07,1.07,0,0,0-.65-.18h-.48v2.15Zm.81-2.85h1a1.56,1.56,0,0,0,1-.21.72.72,0,0,0,.13-1,.68.68,0,0,0-.34-.26,2.52,2.52,0,0,0-.82-.09h-.93Z"/></svg>