<svg id="Layer_1" data-name="Layer 1" xmlns="http://www.w3.org/2000/svg" viewBox="0 0 300 300"><title>CUE_Mark_Light</title><path d="M121.77845,121.51494l.097,56.34882c-.0506,1.9337-.14187,3.86731-.14556,5.80111q-.05966,31.26934-.0955,62.53877c-19.96549-5.73473-36.19713-16.87892-49.298-33.02336a94.1588,94.1588,0,0,1-18.26192-34.724c-3.6866-13.52779-5.64237-27.24637-3.24985-41.47739,2.26605-13.47883,6.18353-26.17056,13.14761-37.92516A98.23873,98.23873,0,0,1,115.75916,55.876c1.88163-.69844,3.544-2.3917,5.84734-1.76851Q121.69247,87.8112,121.77845,121.51494Z" fill="#fdcb4e"/><path d="M128.89,52.22966a87.87471,87.87471,0,0,1,40.90236-.542c36.95983,8.06249,61.82467,30.3307,75.16006,65.54429,3.18165,8.4015,4.64732,17.258,5.27287,26.64742H189.83682c-1.349-4.3774-2.34082-9.04805-4.68357-13.26809-10.53172-18.97105-33.02557-26.22635-52.56073-16.86671-.93707.449-1.86486.9173-2.797,1.37661a7.60107,7.60107,0,0,1-.90937-4.7423,127.17353,127.17353,0,0,0,.038-18.56564c-.74484-8.17959.7417-16.31484.85452-24.48668C129.8486,62.26448,128.29027,57.31266,128.89,52.22966Z" fill="#db7155"/><path d="M131.92568,185.20075c5.91505,2.09712,11.77312,4.1173,18.25618,3.97474,16.99711-.37381,28.84527-8.4426,36.27529-23.468.464-.93841.87012-1.90546,1.33355-2.84418a6.81437,6.81437,0,0,1,.74547-.93215h60.29065c-1.02192,44.307-50.43223,100.76316-119.9708,86.1859q.01293-29.02446.021-58.04894C128.877,187.78864,128.62408,185.393,131.92568,185.20075Z" fill="#5eb2b7"/><path d="M131.92568,185.20075c-3.3016.19226-3.04867,2.58789-3.04867,4.86733q-.00009,29.02446-.021,58.04894a25.04189,25.04189,0,0,1-7.22158-1.91338q.04463-31.26939.0955-62.53877c.00369-1.9338.095-3.86741.14556-5.80111Q126.90059,181.53227,131.92568,185.20075Z" fill="#5a9798"/><path d="M128.89,52.22966c-.59971,5.083.95862,10.03482.88873,15.09687-.11282,8.17184-1.59936,16.30709-.85452,24.48668a127.17353,127.17353,0,0,1-.038,18.56564,7.60107,7.60107,0,0,0,.90937,4.7423L122.586,120.6188q-.04146-33.35584-.08293-66.7117A14.40478,14.40478,0,0,1,128.89,52.22966Z" fill="#b76550"/><path d="M122.50311,53.9071q.04146,33.35585.08293,66.7117l-.80759.89614q-.086-33.70375-.172-67.4075Z" fill="#c97e61"/></svg>