<svg id="Layer_1" data-name="Layer 1" xmlns="http://www.w3.org/2000/svg" viewBox="0 0 300 300"><path d="M201.29475,146.41067h22.07539l-.07474.64827c-.43371.04225-.82914.082-1.22486.11908a8.25193,8.25193,0,0,0-3.14179.85269,3.71443,3.71443,0,0,0-1.95868,2.40253,8.54409,8.54409,0,0,0-.249,2.72783c.094,1.55111.104,3.10854.11089,4.66347q.05811,13.17739.09731,26.35487.039,10.84647.08442,21.69292c.01522,2.67681.075,5.35359.14322,8.02966a9.20462,9.20462,0,0,0,.24023,1.79136,4.5861,4.5861,0,0,0,3.08244,3.44329,17.38487,17.38487,0,0,0,4.47159.88728,1.15346,1.15346,0,0,1,1.2075.87213,4.90006,4.90006,0,0,1-.69592.10708c-3.63213.00353-7.26428-.00627-10.89641-.00194-6.19734.00737-12.39558-.03343-18.59155.06475a26.71157,26.71157,0,0,1-6.42822-.49428,17.4265,17.4265,0,0,1-10.20424-6.79516q-8.244-10.88285-16.47929-21.77228a11.61806,11.61806,0,0,0-1.202-1.35338,4.72988,4.72988,0,0,0-3.45105-1.33145c-2.73751.02439-5.47515.033-8.21269.05569-.30595.00253-.61149.0537-.97164.0874-.124.77327-.2518,1.4766-.3473,2.1843-.30369,2.25042-.55342,4.50894-.9007,6.75246a32.5437,32.5437,0,0,1-4.03621,11.847,23.76239,23.76239,0,0,1-14.54953,10.91554,37.592,37.592,0,0,1-7.91015,1.26284,39.19484,39.19484,0,0,1-5.86574-.05148c-5.58784-.48488-10.78438-2.05594-15.23818-5.61639a23.28238,23.28238,0,0,1-7.51659-10.9536,38.58564,38.58564,0,0,1-1.74815-8.07181,82.99334,82.99334,0,0,1-.53064-8.52411c-.05062-4.00168-.12858-8.00307-.16765-12.00484-.06159-6.30673-.09052-12.6138-.15508-18.92049-.02-1.9564-.09958-3.9125-.17709-5.86775a8.69631,8.69631,0,0,0-.21367-1.44938,3.16315,3.16315,0,0,0-2.19472-2.55782c-1.34188-.4146-2.71976-.71331-4.08333-1.057a1.3621,1.3621,0,0,1-1.08945-.68812l22.51806-.14736c.159.42165.03185.61949-.27137.68128-.36568.07453-.74.10639-1.11007.15976-2.83039.40819-4.18425,1.76785-4.68553,3.915a10.04161,10.04161,0,0,0-.24289,2.223c-.01556,3.6011.01024,7.20236.01524,10.80358.00448,3.22689-.02025,6.454.006,9.68064.03817,4.69343.08291,9.38716.17795,14.07967.06293,3.10634.1897,6.2122.34066,9.31572a25.99575,25.99575,0,0,0,2.64748,10.80622,19.1656,19.1656,0,0,0,10.21954,9.23308,19.69842,19.69842,0,0,0,5.19945,1.19538,35.55815,35.55815,0,0,0,4.65321.22385,21.33476,21.33476,0,0,0,10.9861-3.42969,19.37155,19.37155,0,0,0,6.68133-6.86113,19.84836,19.84836,0,0,0,2.16616-6.51361,46.47138,46.47138,0,0,0,.74853-7.37618c.06606-3.94384.16214-7.88786.16692-11.8319q.01633-13.48278-.0579-26.96557a29.60619,29.60619,0,0,0-.33809-4.11979,3.92174,3.92174,0,0,0-2.89617-3.32992c-1.20248-.3734-2.45294-.59315-3.68342-.87529-.33063-.07582-.66633-.12954-.98882-.19133.04731-.69634.16492-.87337.702-.90237.632-.03414,1.26774-.01255,1.90143.00235.48827.01148.97584.07144,1.46385.07313,5.70739.01971,11.4155-.015,17.122.06612a62.31321,62.31321,0,0,1,9.20733.65614,17.39635,17.39635,0,0,1,14.65705,13.54543,22.37392,22.37392,0,0,1-2.21441,15.46962,31.24336,31.24336,0,0,1-5.63252,7.60864c-1.024,1.05368-2.0649,2.091-3.09486,3.13894-.1973.20076-.37928.41655-.61706.67925.22415.31936.39638.6107.612.86532q8.51758,10.05659,17.04731,20.10285,2.49146,2.92912,5.06152,5.79112a16.04447,16.04447,0,0,0,13.01318,5.45016,4.31157,4.31157,0,0,0,4.24013-4.01207,60.581,60.581,0,0,0,.73232-9.36721c-.02651-14.77981.00993-29.55975.016-44.33963q.00183-4.49378-.05836-8.98744a10.0149,10.0149,0,0,0-.21687-1.88206,4.33224,4.33224,0,0,0-2.76465-3.28818,12.77434,12.77434,0,0,0-3.51184-.83411C201.5306,147.098,201.51278,147.08317,201.29475,146.41067Zm-52.43546,20.54814h-.02719c0,4.23527-.00677,8.47057.00405,12.70581a13.6368,13.6368,0,0,0,.4968,3.8374,3.427,3.427,0,0,0,2.26759,2.4228,12.73451,12.73451,0,0,0,2.51946.54553c1.17031.13749,2.35787.124,3.53058.24647a19.74983,19.74983,0,0,0,5.8448-.25608,10.91087,10.91087,0,0,0,6.95487-4.301,16.41332,16.41332,0,0,0,2.39378-4.94725,24.29918,24.29918,0,0,0,1.28121-8.2284c-.03269-.83308-.09048-1.66543-.14988-2.49718a22.72139,22.72139,0,0,0-1.91038-7.747,15.57266,15.57266,0,0,0-7.65362-8.00145,20.75475,20.75475,0,0,0-10.01474-1.76218,13.37917,13.37917,0,0,0-2.79807.45366,3.44123,3.44123,0,0,0-2.57237,2.85017,7.70113,7.70113,0,0,0-.15991,1.54144C148.85407,158.20059,148.85929,162.57971,148.85929,166.95881Z" fill="#006099"/><path d="M157.9272,126.065a41.59334,41.59334,0,0,1,2.64042-13.93992,51.89043,51.89043,0,0,1,23.08885-27.13886,54.47609,54.47609,0,0,1,18.24238-6.59046,51.03489,51.03489,0,0,1,7.36652-.85083c2.18652-.06406,4.37957-.18153,6.56132-.08511a56.17946,56.17946,0,0,1,29.37544,9.4058,52.30407,52.30407,0,0,1,18.02209,20.43621,48.42939,48.42939,0,0,1,4.56323,14.58765c.1891,1.27851.26264,2.5742.38354,3.86253a1.03928,1.03928,0,0,1-.10061.58428c-.07472-.147-.15148-.293-.22392-.44116a98.06171,98.06171,0,0,0-9.13259-15.33449A60.14756,60.14756,0,0,0,242.7552,95.29658a50.86219,50.86219,0,0,0-17.86-7.08111,54.03353,54.03353,0,0,0-9.94179-1.06009c-2.04122-.0129-4.08907-.065-6.12321.06635a52.62235,52.62235,0,0,0-30.69055,11.7145,67.65924,67.65924,0,0,0-14.12606,16.21847,101.60343,101.60343,0,0,0-5.64286,10.08944C158.25889,125.47233,158.12949,125.69193,157.9272,126.065Z" fill="#006099"/><path d="M76.10969,166.01091c-.64622.09853-.77624.08321-.87719-.39139a24.79117,24.79117,0,0,1-.36709-2.467,14.2935,14.2935,0,0,0-3.73754-8.45038,16.50108,16.50108,0,0,0-6.64881-4.21815,41.75938,41.75938,0,0,0-9.31851-2.11349,40.26227,40.26227,0,0,0-6.983-.28208,39.40822,39.40822,0,0,0-14.0872,3.05035,24.00327,24.00327,0,0,0-12.73019,13.33908,38.80987,38.80987,0,0,0-2.27576,8.65069,49.62173,49.62173,0,0,0-.66865,9.02593,35.5095,35.5095,0,0,0,7.856,22.10375,39.10341,39.10341,0,0,0,12.26068,10.22017,33.537,33.537,0,0,0,10.87161,3.492,38.6984,38.6984,0,0,0,7.58624.28821,41.06714,41.06714,0,0,0,9.345-1.55864,12.5857,12.5857,0,0,0,8.52512-8.1567c.4779-1.26008.81169-2.57445,1.22375-3.86.09983-.31146.07748-.7176.5864-.8269l.68148.40253a1.54936,1.54936,0,0,1,.02393.3726q-1.20081,5.958-2.41491,11.91332c-.06867.33634-.21435.65728-.279.99406a3.376,3.376,0,0,1-1.73175,2.25318,9.0094,9.0094,0,0,1-3.40456,1.17262c-2.67.42375-5.3371.88541-8.02108,1.19618a62.95377,62.95377,0,0,1-10.17863.3469A55.00081,55.00081,0,0,1,32.87152,218.574a37.7942,37.7942,0,0,1-12.31925-7.98239,33.9281,33.9281,0,0,1-8.45514-13.58318,40.12116,40.12116,0,0,1-1.97775-10.12618,44.13413,44.13413,0,0,1,2.807-19.38647,33.53822,33.53822,0,0,1,7.83637-11.88016,35.38933,35.38933,0,0,1,14.05347-8.35488,46.23219,46.23219,0,0,1,8.07389-1.78108,68.02561,68.02561,0,0,1,11.9752-.63149c2.3829.10065,4.77158.29526,7.13275.62552,3.64371.50965,7.26817,1.15945,10.89581,1.779a19.2326,19.2326,0,0,1,2.33567.60081,1.9283,1.9283,0,0,1,1.46583,1.99832c.003,1.26674-.01718,2.53387-.04965,3.80025-.02654,1.035-.1117,2.06881-.12518,3.10374-.02925,2.24672.01162,4.49514-.06238,6.74A6.07218,6.07218,0,0,1,76.10969,166.01091Z" fill="#006099"/><path d="M230.92954,205.09332l1.02456.21814c.20525,1.08005.37657,2.09665.5938,3.10335a13.16115,13.16115,0,0,0,4.84425,8.02531,14.31542,14.31542,0,0,0,6.2959,2.67425,18.14184,18.14184,0,0,0,8.46439-.3201,13.0597,13.0597,0,0,0,9.64934-10.371,14.18107,14.18107,0,0,0-4.03592-13.53024c-2.95223-3.04783-6.21137-5.75335-9.36548-8.57749q-3.21834-2.88166-6.35512-5.85377c-1.33429-1.26927-2.62036-2.59419-3.86337-3.95327a18.58534,18.58534,0,0,1-4.83267-10.03629,20.26484,20.26484,0,0,1,1.11194-10.52342,16.09412,16.09412,0,0,1,9.03876-9.034,19.72766,19.72766,0,0,1,7.73112-1.56088c2.53588-.01962,5.07412-.041,7.60768.04546,2.21226.07552,4.42.29293,6.62832.46562a9.3858,9.3858,0,0,1,1.12672.21838c.58606,1.58131.51808,11.6191-.06844,13.21208-.42065.02014-.46444-.31556-.57622-.60126-.39782-1.0168-.74491-2.05926-1.22165-3.03826a13.46533,13.46533,0,0,0-6.1038-6.48217,13.14051,13.14051,0,0,0-7.73454-1.19213,18.99836,18.99836,0,0,0-3.786.80141,11.244,11.244,0,0,0-7.83059,9.24755,11.03146,11.03146,0,0,0,1.9711,8.34691,31.39849,31.39849,0,0,0,4.66651,5.20218c3.86382,3.586,7.7823,7.11062,11.82846,10.49343a42.41579,42.41579,0,0,1,5.21153,4.917,22.68818,22.68818,0,0,1,5.43045,12.37342,21.52679,21.52679,0,0,1-2.923,13.75577,17.78635,17.78635,0,0,1-10.90278,8.20116,28.90967,28.90967,0,0,1-10.602.939,73.64534,73.64534,0,0,1-10.41832-1.9611,4.01938,4.01938,0,0,1-2.976-3.82219c-.06159-2.01033.03346-4.02657.095-6.03917.044-1.43785.14533-2.874.22113-4.31084C230.88946,205.84516,230.90449,205.56412,230.92954,205.09332Z" fill="#006099"/><path d="M212.99441,121.91415c-3.55734-.11885-6.40886-1.28937-8.3831-4.16412a9.702,9.702,0,0,1-1.632-4.75747,10.8058,10.8058,0,0,1,1.07917-6.024,9.09876,9.09876,0,0,1,7.63713-5.04534,10.3,10.3,0,0,1,5.47895.80612,9.43684,9.43684,0,0,1,5.70191,7.95269,9.90409,9.90409,0,0,1-2.0785,7.60776,9.373,9.373,0,0,1-6.429,3.49067C213.85589,121.84415,213.33946,121.88112,212.99441,121.91415Z" fill="#006099"/><path d="M289.99784,151.34387a6.12177,6.12177,0,1,1-6.05967-6.10512A6.0145,6.0145,0,0,1,289.99784,151.34387Zm-11.319.0326a5.21121,5.21121,0,1,0,5.15993-5.25685A5.256,5.256,0,0,0,278.67881,151.37647Z" fill="#006099"/><path d="M284.94678,151.04405c.69311,1.125,1.34451,2.18233,1.98895,3.22833a1.85192,1.85192,0,0,1-1.52508-.0811c-.30484-.64654-.63617-1.37478-.98989-2.092-.3335-.6762-.50763-.75875-1.36888-.67805a14.42978,14.42978,0,0,0-.01191,2.44013l.82466.4562a8.77049,8.77049,0,0,1-2.78507-.08274l.62895-.29229a25.75692,25.75692,0,0,0-.0151-5.8086l-.66108-.18721c.07288-.08377.12166-.18906.171-.18931,1.20873-.00618,2.41954-.043,3.62556.016a1.483,1.483,0,0,1,1.48332,1.3211,1.68869,1.68869,0,0,1-.88369,1.73036C285.25492,150.922,285.06546,150.99076,284.94678,151.04405Zm-1.88743-2.85439v2.63363a1.51348,1.51348,0,0,0,1.79494-.41695,1.61422,1.61422,0,0,0,.06968-1.77785C284.59144,148.10305,284.05768,147.96023,283.05935,148.18966Z" fill="#006099"/></svg>