<svg id="Layer_1" data-name="Layer 1" xmlns="http://www.w3.org/2000/svg" viewBox="0 0 300 300"><path d="M75.00236,188.423a160.46034,160.46034,0,0,1,17.03033-71.72245c9.49272-19.35448,21.23924-37.0784,37.05128-51.88065,13.23532-12.39006,28.03958-22.23471,45.84279-26.7732,9.90087-2.524,19.72936-2.82632,28.86176,2.89532a41.6105,41.6105,0,0,1,14.24162,15.62854c7.15535,12.94748,9.05168,26.52736,4.51976,40.76512-.70529,2.21594-1.9513,4.25425-2.84933,6.4154-2.37481,5.715-11.77662,7.5806-16.99244,1.439-3.83912-4.52052-3.76542-9.65386-3.20511-15.13149a104.95246,104.95246,0,0,0,.7772-17.62049c-.68345-10.13747-7.64485-15.008-17.65947-13.022a34.72243,34.72243,0,0,0-16.38047,9.03055c-27.88822,25.02425-45.77,56.09525-55.40521,92.085-4.42625,16.53312-6.83944,33.35752-4.81106,50.46817a82.95805,82.95805,0,0,0,4.47681,18.80015,25.16154,25.16154,0,0,0,26.62446,15.69114,70.26521,70.26521,0,0,0,26.356-9.34636,219.00567,219.00567,0,0,0,35.82857-26.15939c2.57428-2.22086,5.12229-4.48287,7.823-6.54144a9.21964,9.21964,0,0,1,4.08143-1.89649c4.95893-.67217,7.77114,2.47046,5.79368,7.011a48.29919,48.29919,0,0,1-7.26244,11.9321c-15.14855,17.80248-33.06245,32.10124-55.45611,39.5522-19.66381,6.54275-38.56969,4.60128-55.3054-8.702-9.068-7.20817-14.5593-16.9363-18.66723-27.62565C77.16383,215.51087,74.91687,197.19837,75.00236,188.423Z" fill="#2a3a90"/></svg>