<svg id="Layer_1" data-name="Layer 1" xmlns="http://www.w3.org/2000/svg" viewBox="0 0 300 300"><path d="M202.21042,66.48208a35.66811,35.66811,0,0,0-15.01819,9.58609c-1.59768,1.91722-3.19536,3.83443-4.793,6.07118a36.688,36.688,0,0,0,31.63406,56.23839,37.57989,37.57989,0,0,0,30.995-17.5745,31.99556,31.99556,0,0,0,3.19536-6.71026,37.85314,37.85314,0,0,0,1.91724-17.894,36.75718,36.75718,0,0,0-47.93044-29.71687Z" fill="#616469"/><path d="M90.69225,199.40915c-26.52151-34.82944-24.28474-82.44034,2.5563-113.75489a105.53372,105.53372,0,0,0-16.29636,9.90562C35.732,126.87444,26.785,184.71049,56.8214,224.65253c30.35594,39.942,88.192,46.97181,129.73172,15.65728a123.95984,123.95984,0,0,0,13.42051-12.46192C162.90741,245.10285,117.21377,234.23861,90.69225,199.40915Z" fill="#616469"/><path d="M264.20043,132.62607a54.24439,54.24439,0,0,1-14.69869,15.97681,63.55461,63.55461,0,0,1-17.894,9.26656c-8.947,2.87583-15.65726,9.90562-16.93543,19.17217a85.37288,85.37288,0,0,1-38.98341,60.71187C141.49849,259.482,95.8048,253.73029,68.32469,224.333A85.43526,85.43526,0,0,1,143.09617,80.8612a20.32244,20.32244,0,0,0,20.4503-9.26655l.31956-.63907a54.44362,54.44362,0,0,1,7.34934-9.58609,57.29912,57.29912,0,0,1,24.28477-15.33774c3.19537-.95861,6.39073-1.59768,9.58609-2.23675C154.28,17.91256,87.49689,29.7354,49.79163,85.3347c-19.17217,28.11919-24.92383,63.5877-15.01819,95.86087,26.202,86.27479,123.66053,112.47675,187.88728,63.90725a120.05868,120.05868,0,0,0,45.05463-118.86747C266.43722,128.15256,265.4786,130.38932,264.20043,132.62607Z" fill="#a4c654"/></svg>