<svg id="Layer_1" data-name="Layer 1" xmlns="http://www.w3.org/2000/svg" viewBox="0 0 300 300"><defs><style>.cls-1{fill:#454748;}.cls-2{fill:#112b4c;}.cls-3{fill:#a0b1c7;}.cls-4{fill:#35a5c1;}</style></defs><path class="cls-1" d="M58.18,233.13h2.09v5.25H63.6V240H60.27v12.57H58.18V240H55.31v-1.58h2.87Z"/><path class="cls-1" d="M80.45,244a5.74,5.74,0,0,0-1.22-2.33,5.93,5.93,0,0,0-2.12-1.41,7.5,7.5,0,0,0-2.77-.53,6.45,6.45,0,0,0-4.12,1.34A6,6,0,0,0,68.31,244Zm0,3.8,1.76.8a8,8,0,0,1-4.56,3.79,10.75,10.75,0,0,1-3.23.47,8.4,8.4,0,0,1-6.23-2.27,7.14,7.14,0,0,1-2.25-5.13,7,7,0,0,1,1.91-4.8A8.24,8.24,0,0,1,74.3,238a8.54,8.54,0,0,1,6.7,2.76,7.09,7.09,0,0,1,1.79,4.83H68.1a5.37,5.37,0,0,0,1.82,4,6.27,6.27,0,0,0,4.33,1.58,8,8,0,0,0,2.42-.38,6.7,6.7,0,0,0,2-1,8.93,8.93,0,0,0,1.78-2m22-6.51-1.66.9A8.16,8.16,0,0,0,90,241.4a5.11,5.11,0,0,0-1.06,6.94,6,6,0,0,0,2.48,2.12,8.17,8.17,0,0,0,3.54.75,7.62,7.62,0,0,0,5.86-2.48l1.66,1a7.58,7.58,0,0,1-3.14,2.37,11.47,11.47,0,0,1-4.48.84,9.57,9.57,0,0,1-6.41-2.14,6.5,6.5,0,0,1-2.55-5.18,6.66,6.66,0,0,1,1.19-3.81A8,8,0,0,1,90.35,239,10.67,10.67,0,0,1,95,238a10.93,10.93,0,0,1,3.12.43,8.93,8.93,0,0,1,2.55,1.12,6.48,6.48,0,0,1,1.79,1.75"/><path class="cls-1" d="M106.49,232.92h2.1v8a8.59,8.59,0,0,1,2.8-2.17,7.6,7.6,0,0,1,3.31-.72,6.33,6.33,0,0,1,3.24.8A5,5,0,0,1,120,241a10.15,10.15,0,0,1,.68,4.26v7.28h-2.1V245.8a14.91,14.91,0,0,0-.22-3.27,3.67,3.67,0,0,0-1.42-2.12,4.69,4.69,0,0,0-2.68-.7,5.59,5.59,0,0,0-3.41,1.09,5.09,5.09,0,0,0-2,2.71,15.45,15.45,0,0,0-.31,3.84v5.19h-2.09Zm18.7,5.46h2.1v2.53a8.16,8.16,0,0,1,2.78-2.17,7.61,7.61,0,0,1,3.32-.72,6.33,6.33,0,0,1,3.24.8,5,5,0,0,1,2.09,2.17,10.11,10.11,0,0,1,.68,4.25v7.29h-2.1v-6.75a14.83,14.83,0,0,0-.23-3.26,3.44,3.44,0,0,0-1.4-2.12,4.71,4.71,0,0,0-2.69-.71,5.59,5.59,0,0,0-3.41,1.09,5,5,0,0,0-2,2.7,16.11,16.11,0,0,0-.31,3.86v5.18h-2.09V238.38Zm26.4,1.42a6.52,6.52,0,0,0-4.49,1.67,5.24,5.24,0,0,0-1.88,4.06,5,5,0,0,0,.86,2.86,5.79,5.79,0,0,0,2.31,2.05,7.47,7.47,0,0,0,6.4,0,5.86,5.86,0,0,0,2.31-2.05,5.19,5.19,0,0,0,.86-2.86,5.28,5.28,0,0,0-1.89-4.06,6.51,6.51,0,0,0-4.48-1.68m0-1.77a8.62,8.62,0,0,1,6.23,2.36,6.89,6.89,0,0,1,.46,9.72,7.94,7.94,0,0,1-.59.57,9.6,9.6,0,0,1-12.24,0,6.91,6.91,0,0,1-2.37-5.18,6.82,6.82,0,0,1,2.25-5.1,8.63,8.63,0,0,1,6.25-2.38"/><path class="cls-1" d="M163.64,232.92h2.1v19.61h-2.1Zm14.16,6.88a6.52,6.52,0,0,0-4.49,1.67,5.25,5.25,0,0,0-1.88,4.06,5,5,0,0,0,.86,2.86,5.79,5.79,0,0,0,2.31,2.05,7.47,7.47,0,0,0,6.4,0,5.79,5.79,0,0,0,2.31-2.05,5.19,5.19,0,0,0,.86-2.86,5.25,5.25,0,0,0-1.89-4.06,6.51,6.51,0,0,0-4.48-1.68m0-1.77a8.65,8.65,0,0,1,6.24,2.36,6.84,6.84,0,0,1,2.25,5.11,6.92,6.92,0,0,1-2.38,5.18,9.58,9.58,0,0,1-12.23,0A6.87,6.87,0,0,1,171,241a6.47,6.47,0,0,1,.58-.59A8.67,8.67,0,0,1,177.8,238"/><path class="cls-1" d="M198,239.77a7.43,7.43,0,0,0-3.31.75,5.77,5.77,0,0,0-2.39,2.07,5.06,5.06,0,0,0-.87,2.85,4.81,4.81,0,0,0,1.8,3.84,7.86,7.86,0,0,0,9.29,0,4.93,4.93,0,0,0,1.76-4,5.16,5.16,0,0,0-.8-2.86,5.6,5.6,0,0,0-2.29-2,7.15,7.15,0,0,0-3.18-.72m6.17-1.4h2.09v11.27a11.74,11.74,0,0,1-.59,4.36,6.09,6.09,0,0,1-2.86,3,10.79,10.79,0,0,1-4.9,1.05,12.6,12.6,0,0,1-3.76-.52,8.11,8.11,0,0,1-2.72-1.37,8.39,8.39,0,0,1-1.93-2.54h2.27a5.83,5.83,0,0,0,2.4,2.08,8.89,8.89,0,0,0,3.64.68,8.66,8.66,0,0,0,3.62-.7,4.73,4.73,0,0,0,2.11-1.74,7,7,0,0,0,.63-3.39v-.72a8,8,0,0,1-2.89,2,9.81,9.81,0,0,1-3.63.7,9.66,9.66,0,0,1-4.22-1,7.59,7.59,0,0,1-3.06-2.61,6.42,6.42,0,0,1-1.08-3.6,6.52,6.52,0,0,1,1.12-3.66,7.76,7.76,0,0,1,3.11-2.68,9.24,9.24,0,0,1,4.19-1,8.84,8.84,0,0,1,3.41.65,9.39,9.39,0,0,1,3.05,2.17v-2.43Zm6.27,0h2.1v14.14h-2.1Zm1.05-5.82a1.81,1.81,0,0,1,1.22.43,1.38,1.38,0,0,1,.19,1.94l-.19.19a1.81,1.81,0,0,1-1.22.44,1.79,1.79,0,0,1-1.21-.44,1.35,1.35,0,0,1-.21-1.91,1,1,0,0,1,.21-.21,1.79,1.79,0,0,1,1.21-.44M230.64,244a5.45,5.45,0,0,0-1.22-2.33,5.72,5.72,0,0,0-2.12-1.41,7.5,7.5,0,0,0-2.77-.53,6.51,6.51,0,0,0-4.12,1.34A6,6,0,0,0,218.5,244Zm0,3.8,1.77.8a8,8,0,0,1-4.57,3.79,10.64,10.64,0,0,1-3.22.47,8.4,8.4,0,0,1-6.23-2.27,7.14,7.14,0,0,1-2.25-5.13,7,7,0,0,1,1.9-4.8A8.27,8.27,0,0,1,224.5,238a8.56,8.56,0,0,1,6.66,2.74,7.09,7.09,0,0,1,1.79,4.83H218.3a5.33,5.33,0,0,0,1.81,4,6.27,6.27,0,0,0,4.33,1.58,8,8,0,0,0,2.42-.38,6.47,6.47,0,0,0,2-1,8.93,8.93,0,0,0,1.78-2m14.41-7.9-1.35,1.21a5.19,5.19,0,0,0-3.29-1.42,2.77,2.77,0,0,0-1.75.58,1.73,1.73,0,0,0-.72,1.37,1.91,1.91,0,0,0,.6,1.32,9,9,0,0,0,2.52,1.49,9.21,9.21,0,0,1,3.18,2,3.34,3.34,0,0,1,.83,2.22,3.72,3.72,0,0,1-1.42,3,5.22,5.22,0,0,1-3.51,1.21,7.14,7.14,0,0,1-2.7-.53,5.91,5.91,0,0,1-2.12-1.47l1.32-1.3a4.88,4.88,0,0,0,3.41,1.57,3.38,3.38,0,0,0,2.14-.7,2.09,2.09,0,0,0,.89-1.65,2,2,0,0,0-.59-1.4,9.74,9.74,0,0,0-2.64-1.5,8.55,8.55,0,0,1-3-2,3.45,3.45,0,0,1,.44-4.86l0,0a4.8,4.8,0,0,1,3.21-1.06,7,7,0,0,1,4.52,1.91"/><path class="cls-2" d="M101.85,185.25a16.16,16.16,0,0,0-14.27,8.37,16.87,16.87,0,0,0,0,16.81,16.38,16.38,0,0,0,6.06,6.25,15.85,15.85,0,0,0,8.16,2.23,16.73,16.73,0,0,0,8.32-2.21,15.47,15.47,0,0,0,6.06-6,17.05,17.05,0,0,0,2.12-8.52,16.51,16.51,0,0,0-4.76-12.08,15.71,15.71,0,0,0-11.71-4.85m21.41-20.15v57.68H118v-7.15a23.08,23.08,0,0,1-7.55,6.15,21.13,21.13,0,0,1-24.26-4.33,21.55,21.55,0,0,1-6.26-15.59,21.09,21.09,0,0,1,6.32-15.38,20.56,20.56,0,0,1,15.18-6.39,19.57,19.57,0,0,1,9.28,2.18,21.1,21.1,0,0,1,7.29,6.54V165.09h5.24Zm33.88,53.59a16.17,16.17,0,0,0,14.26-8.38,17,17,0,0,0,0-16.88,16.52,16.52,0,0,0-6-6.25,15.65,15.65,0,0,0-8.11-2.24,16.57,16.57,0,0,0-8.33,2.24,15.49,15.49,0,0,0-6.07,6,17.31,17.31,0,0,0-2.12,8.54,16.62,16.62,0,0,0,4.75,12.09,15.77,15.77,0,0,0,11.7,4.86m-21.42,4.09V165.09h5.35v23.22a22.84,22.84,0,0,1,7.53-6.18,21.25,21.25,0,0,1,24.21,4.41,21.43,21.43,0,0,1,6.2,15.46,21.1,21.1,0,0,1-6.31,15.42,20.53,20.53,0,0,1-15.17,6.39,19.53,19.53,0,0,1-9.21-2.18,21.61,21.61,0,0,1-7.3-6.54v7.65Zm49.15-41.62h5.7l14,30.34,13.81-30.34h5.73l-19,41.62h-1Z"/><path class="cls-3" d="M151.51,46.8A46.17,46.17,0,1,0,197.68,93a46.17,46.17,0,0,0-46.17-46.2m0,97.2a51,51,0,1,1,51-51,51,51,0,0,1-51,51m0-83.13a32.85,32.85,0,1,0,32.85,32.85h0a32.88,32.88,0,0,0-32.85-32.84m0,70.55a37.71,37.71,0,1,1,37.71-37.71h0a37.76,37.76,0,0,1-37.71,37.71"/><path class="cls-4" d="M242.35,105.3c-16.5.1-24.74,7.58-32.72,14.81-.87.79-1.74,1.58-2.63,2.36-2.11,1.87-4.13,3.72-6.12,5.53-14.6,13.31-26.16,23.84-49.72,24-23.57-.11-35.12-10.65-49.73-24-2-1.81-4-3.67-6.12-5.54-.89-.78-1.76-1.57-2.63-2.36-8-7.23-16.23-14.71-32.72-14.81H54.75v4.86h5.18c14.64.09,21.52,6.33,29.49,13.56l2.66,2.39c2.1,1.86,4.11,3.7,6.08,5.49,14.7,13.4,27.42,25,52.61,25.22h.77c25.19-.24,37.91-11.83,52.61-25.23,2-1.79,4-3.63,6.08-5.48l2.67-2.4c8-7.22,14.85-13.47,29.48-13.55h2.87V105.3Z"/></svg>