<svg id="Layer_1" data-name="Layer 1" xmlns="http://www.w3.org/2000/svg" viewBox="0 0 300 300"><path d="M93.58382,45.13561H77.13836L61.02049,61.25347c-3.80014,3.80015-9.43484,15.06955-1.638,29.746,1.96559,3.407,8.91069,12.51428,21.09737,22.08016l8.38653-7.99341c-6.552-5.17607-20.44217-16.642-23.71816-21.425-4.12775-5.89678-2.35872-8.51757-.98279-9.89349Z" fill="#4190d8"/><polygon points="74.452 45.136 62.396 45.136 68.555 50.639 74.452 45.136" fill="#4190d8"/><path d="M96.99085,45.13561h43.17753a104.83163,104.83163,0,0,1,0,209.66325H113.0432l-11.00733-13.104h38.13251a91.72767,91.72767,0,0,0,0-183.45534H98.03916l-7.53477-6.02782,6.552-7.07613Z" fill="#4190d8"/><path d="M113.96047,77.89549h26.20791a72.07174,72.07174,0,0,1,0,144.14348H113.96047V208.935h26.20791a58.96779,58.96779,0,0,0,0-117.93558H113.96047Z" fill="#4190d8"/><path d="M110.0948,82.61291c.39312-11.2694-14.34883-23.58712-21.75256-28.239l-7.53477,7.20718c7.86238,5.6347,23.58712,18.28,23.25951,23.71816-.39311,5.43814-6.552,13.43155-9.6314,16.70754L61.0205,136.14256c-8.97621,12.84187-5.9623,24.56991-3.34151,28.82869l7.86238,13.69362,8.6486-7.66581c-.85175-.6552-3.80014-3.47255-8.71412-9.6314-4.914-6.09334-1.3104-11.466,1.11383-13.366,3.60358-3.276,13.49707-12.5798,24.24232-23.98023C104.32907,109.8036,109.7017,96.76517,110.0948,82.61291Z" fill="#4190d8"/><path d="M101.57724,114.71759a30.46675,30.46675,0,0,1,8.84517,20.049A50.45023,50.45023,0,0,1,98.23573,165.692c-5.17607,5.9623-24.701,26.339-33.8082,35.77379-1.638,1.44144-3.93119,5.30711,0,9.828s17.75586,17.8869,24.1768,24.04577l-8.51757,7.86238a124.15965,124.15965,0,0,1-20.70424-24.63542A29.94253,29.94253,0,0,1,61.47915,187.248c4.12774-5.89679,18.34553-19.13178,24.963-24.963,6.02781-5.89678,18.01793-19.45937,17.82137-26.86311a9.697,9.697,0,0,0-2.68631-4.58639c-1.70352-1.57247-5.43814-5.70022-7.07614-7.60029Z" fill="#4190d8"/><path d="M86.44216,182.07193l-8.05892,8.321a191.38412,191.38412,0,0,1,24.11127,23.78368c1.57247,2.09663,1.11384,4.58639,0,7.40374-5.17607,12.51428-23.78368,26.33895-34.52892,33.284H86.44216c16.70754-11.79355,23.194-25.74927,23.45608-38.65667a28.63211,28.63211,0,0,0-8.51757-20.76975Z" fill="#4190d8"/><polygon points="110.029 254.799 95.156 254.799 92.667 252.899 101.446 244.84 109.964 254.799 110.029 254.799" fill="#4190d8"/></svg>