<svg id="Layer_1" data-name="Layer 1" xmlns="http://www.w3.org/2000/svg" viewBox="0 0 300 300"><defs><style>.cls-1{fill:#6a1d3d;}.cls-2{fill:#392e70;}.cls-3{fill:#9c2f4a;}.cls-4{fill:#756e9b;}.cls-5{fill:#4aa0ae;}.cls-6{fill:#73b6b9;}</style></defs><path class="cls-1" d="M72.63,57.13c-.83-3.8,1.84-5.5,4.32-7.18A126.7,126.7,0,0,1,95.84,40c14.71-6.68,29.74-12.46,45.54-16A73.92,73.92,0,0,1,153.6,22a15.17,15.17,0,0,1,12.55,5.17,113,113,0,0,1,13.21,17.51C190.57,62.66,199,81.78,203,102.63c1,5,1.92,10,1.58,14.88-.73,1.69-1.78,2.61-3.53,2.51a4.36,4.36,0,0,1-2.8-1.73c-4.36-4.67-8.64-9.42-13.06-14a197.92,197.92,0,0,0-19.13-17.49c-11.17-8.94-24.11-14.4-37.67-18.48A238.18,238.18,0,0,0,77.5,59.23C75.79,59.1,74.09,59.13,72.63,57.13Z"/><path class="cls-2" d="M152,212a4.14,4.14,0,0,1,.67-4.53c4.23-2.14,9.75-2.43,15-3.71,11.3-2.78,22.5-5.85,33.25-10.34,11.77-4.92,21.74-12.57,31.07-21.08,12.83-11.7,23.71-25.09,33.66-39.26,1.28-1.82,2.2-4,4.79-4.7,3.61.78,4.25,3.6,4.39,6.77a137.48,137.48,0,0,1-.35,19.68c-1.52,15.29-3.75,30.47-7.77,45.33a74.48,74.48,0,0,1-6.15,16.23A14.8,14.8,0,0,1,250.7,224a99.42,99.42,0,0,1-20,2.85,177,177,0,0,1-58.5-6.52A82.22,82.22,0,0,1,152,212Z"/><path class="cls-3" d="M202.82,178.75c-3.33-1.52-2.93-3.83-2.06-6.3,1.78-5.13,3.6-10.24,5.3-15.39,4.17-12.65,7.62-25.51,8.46-38.84.59-9.2-.64-18.36-2.36-27.39a233.57,233.57,0,0,0-15.89-50.2c-.8-1.83-2.11-3.62-1.57-5.8.62-1.74,2.2-1.93,3.25-2.45,4,.49,7,2.48,10,4.43,19.36,12.85,37,27.66,52.08,45.43,6.61,7.79,8.31,15.47,3.78,25.24-12.58,27.11-30,50.18-54.27,67.82A17.31,17.31,0,0,1,202.82,178.75Z"/><path class="cls-4" d="M230.45,246.34c-.54,2.74-2.31,4.43-4.64,5.93-8.57,5.51-18,9.13-27.42,12.83a215.24,215.24,0,0,1-36.95,11.17A78.28,78.28,0,0,1,148.1,278a15.34,15.34,0,0,1-12.78-5.88,145.9,145.9,0,0,1-20.64-33.32c-6.14-13.43-11-27.32-13.37-42-.7-4.25-.3-8.59-1.46-12.79a5.48,5.48,0,0,1,1.3-4.71c2.57-1.52,4.22-.14,5.8,1.67,4.32,4.94,8.6,9.92,13,14.77,11.05,12.13,23,23.17,38.1,30.19,14,6.49,28.67,10.72,43.74,13.7a168.06,168.06,0,0,0,23.84,3.47A4.83,4.83,0,0,1,230.45,246.34Z"/><path class="cls-5" d="M100.27,119.4c1.08,2.38.53,4.46-.14,6.66-3.37,11-6.71,22.07-9.07,33.4a106.81,106.81,0,0,0,.07,43.29,224.73,224.73,0,0,0,17.68,52.32c2.25,4.75,2.18,4.79,1.4,8.46-2.71,1.87-5.29.72-7.85-.52-7.45-3.62-14.18-8.39-20.83-13.26a268.2,268.2,0,0,1-31-26c-5.07-5-9.64-10.48-12.78-16.67-1.42-6,.36-11.37,2.46-16.6C46.35,175.24,55,161.47,65,148.6A140.42,140.42,0,0,1,90.9,122.86C93.57,120.85,96.07,117.71,100.27,119.4Z"/><path class="cls-6" d="M29.65,169.56c-3.24-.75-4.46-3-4.58-6.11-.33-8.24.62-16.36,1.74-24.51,1.28-9.4,2.89-18.72,5.06-27.93,2.21-9.42,4.68-18.76,9.14-27.44,2.44-4.77,5.94-8.16,11.33-9.15C56.18,73.71,60,72.69,64,72.74c9,.11,18.09-.52,27.06.2,19,1.54,37.6,5.33,54.87,14,2.52,1.27,5.35,2.33,4.48,6.26-1.17,1.46-2.87,1.86-4.78,2.18a251.48,251.48,0,0,0-41.67,10.23c-11.22,3.93-21.21,10.1-30.45,17.53A225.4,225.4,0,0,0,55,140.38a229.19,229.19,0,0,0-20.91,24.91C32.82,166.94,31.68,168.65,29.65,169.56Z"/></svg>