<svg id="Layer_1" data-name="Layer 1" xmlns="http://www.w3.org/2000/svg" viewBox="0 0 300 300"><title>IRON_Mark_Light</title><path d="M56.65588,157.07289a92.02511,92.02511,0,0,1,3.1676-13.21056c10.72724-32.1549,48.18048-44.4594,72.677-23.73677a26.16326,26.16326,0,0,0,3.53059,1.918V72.454H164.109V215.86986H136.83734l-.98951-9.74009c-8.20444,3.77907-16.01314,9.56284-24.51291,10.87732-24.662,3.8141-46.4318-13.039-52.84011-39.03946a54.4469,54.4469,0,0,1-1.4718-7.71816C56.27364,164.18,56.08059,163.28364,56.65588,157.07289Zm29.38172,6.155a3.40761,3.40761,0,0,0,.017.80665c.1436,2.23752.12684,4.4991.45782,6.70854,1.674,11.1744,10.73325,20.8029,21.107,22.55619,10.49394,1.7736,19.8216-3.06567,25.36287-13.1585,6.27654-11.432,4.45995-28.26718-4.088-37.88586-9.56686-10.76512-25.75238-11.287-34.60063.03607C89.64642,148.238,87.0241,155.9743,86.0376,163.22794Z" fill="#d9001e"/><path d="M67.95159,209.78977c17.39472,16.64616,38.68823,23.278,62.12312,22.47231,46.283-1.59133,82.10807-36.53873,85.80521-82.75921,4.213-52.67006-43.06518-99.088-95.47981-93.7476-.97652.0995-1.95985.132-3.31076.21995,11.88186-6.074,34.14562-6.69956,52.95846-1.6621,46.53531,12.46067,76.50443,54.93065,73.41292,104.03518-2.80939,44.6243-38.81385,83.0012-84.57117,89.56737-34.31421,4.92406-63.31223-6.05783-87.19112-30.86934-1.79914-1.86945-2.43514-4.85855-3.61183-7.32715Z" fill="#d9001e"/></svg>