<svg id="Layer_1" data-name="Layer 1" xmlns="http://www.w3.org/2000/svg" viewBox="0 0 300 300"><path d="M160.9052,172.11275c-10.4367-3.20185-20.87311-5.87054-32.05841.30833.77984,2.42342,1.60687,4.89686,2.37244,7.389,3.60165,11.72466,2.27879,22.99293-5.205,32.6383-5.28785,6.81515-7.40314,13.22931-2.46452,21.04382-8.08674,3.74364-13.18241-.56231-18.74426-5.61855l-14.04282,2.59858v21.72342c5.02625-1.33294,9.12036-2.41866,13.8523-3.67351,8.53984,4.86667,10.25722,8.77534,8.43829,21.54123H83.43692c-1.53206-2.01-3.56929-4.68261-5.79939-7.60834-3.30783-.59626-6.64623-1.198-10.29616-1.856-3.75295-11.21958-.623-21.82288,2.90647-32.69523-2.08555-4.66574-6.906-8.7021-4.86476-15.76941,12.26287,2.60027,24.29191,2.6325,31.14921-10.47593,5.30233-10.13594,2.899-19.5276-4.85266-28.343,1.667-1.82838,3.10051-3.63243,4.76643-5.18963,9.48388-8.8649,17.31374-18.71813,22.89581-30.68994,9.4502-20.26771,38.51007-25.3447,54.9945-10.14581a31.41163,31.41163,0,0,1,5.53726,7.45758c1.36863,2.36757,2.13046,5.08337,3.27449,7.92993,9.73706,5.7968,19.60166,11.68009,29.47985,17.54059,1.78534,1.05921,3.62657,2.02488,6.05968,3.377,3.22772-10.39648,8.03349-18.7875,21.31235-17.99671V171.988l-19.63006,15.67724c-5.3991-3.36294-12.38364-7.71337-20.07785-12.50583l-8.16776,6.05489c-2.19-11.12475-10.14356-15.78156-19.59-20.06244-13.64211,3.74286-22.2992-3.91291-29.15023-16.84-1.34956,9.43868,2.19385,14.71612,8.37909,18.90294,3.55661,2.4075,8.3693,3.76351,8.91253,9.14648Z"/><path d="M112.267,66.335l-5.75277-1.7848c1.62352-4.7181,2.69726-9.761,5.04872-14.11948a40.4769,40.4769,0,0,1,8.95868-11.26536c3.54993-3.05923,8.16593-4.89043,12.3143-7.26029l-.54212-2.00436,26.98187,3.35225.57281-1.72136c2.8,1.948,6.84031,3.28529,8.16648,5.959,3.90771,7.87847,10.46761,9.39972,18.12741,9.64347,1.276.04061,2.52631.88395,4.78,1.72746-1.15343,4.72886-2.25981,9.26483-3.67088,15.05-2.52219-1.723-3.9815-2.71993-5.80452-3.96533-5.88771,2.24517-6.00591,7.4751-7.08213,12.86311l6.80916,4.10822c1.24266,5.39869-1.0497,9.99227-6.4072,14.02047-10.01335-8.1927-16.88877-18.724-23.21346-31.2136-1.8357,7.548,1.22774,12.11891,4.25652,16.82963,5.06462,7.877,10.22148,15.72718,14.68839,23.94018,2.23768,4.11427,4.35108,9.00906-.66195,14.37126H137.50383c2.47608-4.35786,5.43233-8.485,7.25148-13.06093,1.87072-4.70559,2.63188-9.84906,3.87855-14.80092l-2.08644-.87068-18.21149,31.87663c-6.96675-6.13873-10.18709-14.12918-15.08462-21.30042,2.72255-5.62608,5.38876-11.13574,8.055-16.6454l-.94778-1.16645L108.36121,86.224C105.94989,78.67714,109.502,72.96,112.267,66.335Zm43.14607-22.38021-1.13185-1.35306-4.20659,3.398,1.29279,1.53772Zm14.80825,6.20692.92992-.60322a5.64145,5.64145,0,0,0-.91947-1.93924c-.242-.22433-1.11387.22589-1.70079.37094Z"/><path d="M205.3728,270.09933H176.87174c-1.62856-2.0028-3.76139-4.62572-6.02125-7.4049l-9.1305-.914c-5.26987-7.20919-5.26987-7.20919-4.64342-18.71019-5.13709-2.1447-11.46431-3.34528-12.656-11.32238,5.129-2.67141,11.44068-4.93225,11.767-12.59926-2.95736-10.41723-3.6528-10.93735-16.69887-12.419V177.22468c24.56332-4.29888,47.57156,13.22268,49.53687,37.27636.41664,5.09919,1.7546,10.12371,2.89068,16.41547-4.42122-.53976-9.02483-1.10175-14.34079-1.75074-1.23313,2.25142-2.67206,4.87857-4.01722,7.33455,3.34579,5.0522,6.3846,9.64088,9.33736,14.09961,5.40852,2.89879,9.3737-.63749,13.27544-2.85843C205.78222,253.54024,207.35792,257.3189,205.3728,270.09933Z"/><path d="M214.07467,84.22188c-3.34165,4.03933-6.2598,6.68056-8.07733,9.93246-5.13779,9.19253-3.84272,18.05759,2.78824,26.06414,7.24891,8.75267,10.406,18.64485,9.08412,29.9185a26.84528,26.84528,0,0,1-1.31265,4.018L196.62174,142.0455c-1.27866-13.58483-3.83744-26.793-13.50372-37.19133,8.4514-15.58521,14.92774-31.39222,13.10079-48.79546,9.84044-6.55065,13.43928-6.63894,24.212-.60167C216.25291,64.53161,206.61767,72.74109,214.07467,84.22188Z"/><path d="M84.99582,142.94508V101.16846c3.02819-1.75123,6.55821-3.7927,11.69571-6.76378-.60013,16.44781.05386,31.58317-2.67725,46.51735-.6247,3.416-3.47516,6.70134-5.96779,9.44587-4.66449,5.13575-9.80018,9.84857-14.772,14.70465-3.12423,3.05147-5.59517,6.42032-4.07552,11.0304,1.65287,5.01416,5.4602,6.86691,11.0943,6.29386,2.718-1.89532,5.77022-4.02363,8.86452-6.18133,3.48324,6.69286,3.15181,8.846-1.6289,12.25293-6.47356,4.61333-16.18418,3.76039-22.11293-1.94224a18.09506,18.09506,0,0,1-1.79481-23.75183A94.63312,94.63312,0,0,1,74.50429,151.582C78.34631,148.07073,82.543,144.94482,84.99582,142.94508Z"/><path d="M84.88043,93.70846c-2.40814-6.05641-5.24936-11.987-7.09667-18.21041a70.29773,70.29773,0,0,1-3.07437-17.1582C74.379,49.513,79.09178,43.58528,87.30624,40.21776c3.17544,7.32311,6.30873,14.086,9.06359,20.99861C102.10044,75.59587,97.40386,88.3191,84.88043,93.70846Z"/><path d="M160.67567,172.36135l.9448.04436-.71527-.293Z"/></svg>