<svg xmlns="http://www.w3.org/2000/svg" viewBox="0 0 300 300"><g id="svg7794"><path id="path5645" d="M133.46685,179.23672a9.32887,9.32887,0,1,1-9.32554-9.33219,9.34214,9.34214,0,0,1,9.32554,9.33219m10.84963,58.31962V110.55555A49.12586,49.12586,0,0,0,115.46433,66.963a51.61629,51.61629,0,0,0-17.74172-4.2785c-30.81112-1.63165-54.62288,16.59207-60.97369,41.19263-4.12467,14.98095-.936,32.98347,9.379,48.1116,12.65477,18.57764,64.68373,67.83223,89.80561,89.77871a5.20731,5.20731,0,0,0,3.08866,1.02329,5.29863,5.29863,0,0,0,5.29455-5.23441" fill="#4b2a91"/><path id="path5649" d="M183.30986,171.81579a23.16668,23.16668,0,1,0,23.1768,23.17679,23.16908,23.16908,0,0,0-23.1768-23.17679" fill="#4b2a91"/><path id="path5653" d="M160.12641,224.39325a7.99866,7.99866,0,1,0,7.98853,8.00183,7.99829,7.99829,0,0,0-7.98853-8.00183" fill="#4b2a91"/><path id="path5657" d="M227.41737,115.45514A30.79088,30.79088,0,1,0,258.22155,146.266a30.79074,30.79074,0,0,0-30.80418-30.81083" fill="#4b2a91"/><path id="path5661" d="M248.84251,77.5316A16.15763,16.15763,0,1,0,265,93.696,16.16365,16.16365,0,0,0,248.84251,77.5316" fill="#4b2a91"/><path id="path5665" d="M187.04013,116.34426a29.56751,29.56751,0,1,0-29.54755-29.5675,29.58277,29.58277,0,0,0,29.54755,29.5675" fill="#4b2a91"/><path id="path5669" d="M188.17648,142.36886a17.57127,17.57127,0,1,1-17.57459-17.58153,17.5742,17.5742,0,0,1,17.57459,17.58153" fill="#4b2a91"/></g></svg>