<svg xmlns="http://www.w3.org/2000/svg" xmlns:xlink="http://www.w3.org/1999/xlink" viewBox="0 0 300 300"><defs><linearGradient id="linear-gradient" x1="-341.75671" y1="-914.99661" x2="386.44363" y2="-186.79617" gradientTransform="matrix(1, 0, 0, -1, 0, -273.21798)" gradientUnits="userSpaceOnUse"><stop offset="0" stop-color="#5bc5b2"/><stop offset="0.49" stop-color="#90df56"/><stop offset="1" stop-color="#90df56" stop-opacity="0"/></linearGradient><linearGradient id="linear-gradient-2" x1="-341.76919" y1="-914.98413" x2="386.43115" y2="-186.78369" xlink:href="#linear-gradient"/></defs><g id="uuid-7dcb1b96-5409-4f39-a1e9-31f2fa23a966"><path d="M111.21081,81.1996A20.00719,20.00719,0,0,0,82.91637,109.494L190.5153,217.093a20.016,20.016,0,0,0,28.31948-28.29444L111.23585,81.19962Z" fill="url(#linear-gradient)"/><path d="M198.07054,55.88221a20.00719,20.00719,0,1,0-28.29443,28.29444l46.03161,46.03164a20.016,20.016,0,0,0,28.31948-28.29444L198.09559,55.88222Z" fill="url(#linear-gradient-2)"/><path d="M84.16723,172.11209A20.00719,20.00719,0,1,0,55.8728,200.40653l43.73,43.73a20.016,20.016,0,0,0,28.31948-28.29444l-43.73-43.73Z" fill="url(#linear-gradient)"/></g></svg>