<svg id="Layer_1" data-name="Layer 1" xmlns="http://www.w3.org/2000/svg" viewBox="0 0 300 300"><path d="M172.77777,66.66667H155.55556v50h17.22221A17.77778,17.77778,0,0,0,190.55555,98.8889h0V84.44444a17.77779,17.77779,0,0,0-17.77778-17.77778Zm-3.33334,5.55555h-6.66667v38.88889h6.66667a13.88887,13.88887,0,0,0,13.8889-13.88887V86.11111A13.88889,13.88889,0,0,0,169.44443,72.22222ZM67.22222,66.66667H50v50H67.22222A17.77778,17.77778,0,0,0,85,98.8889h0V84.44444A17.77778,17.77778,0,0,0,67.22222,66.66667Zm-3.33333,5.55555H57.22222v38.88889h6.66667A13.88889,13.88889,0,0,0,77.77778,97.22222V86.11111A13.88889,13.88889,0,0,0,63.88889,72.22222Z" fill="#202a45" fill-rule="evenodd"/><path d="M97.55555,96.94445,82.44445,66.66667h7.83333l10.83334,23.44444,11.11111-23.44444h7.22221L104.38889,96.94445v19.72222H97.55556Z" fill="#202a45"/><path d="M110.38889,116.66667l16.3889-50h9.1111l15.3889,50h-7.16667l-4.16666-13.72222h-18l-4.16668,13.72222Zm12.77778-18.55556L131.33333,73.5l7.33333,24.61111Z" fill="#202a45" fill-rule="evenodd"/><path d="M194.44444,66.88889h7.22222v49.77778h-7.22222Zm11.11112,17.88889a17.88889,17.88889,0,0,1,35.5-3.22222h-7.77778a10.27778,10.27778,0,0,0-20.5.94444v18.33333a10.27778,10.27778,0,1,0,20.55556,0V100h7.94445a17.88889,17.88889,0,0,1-35.72222-1.22222Z" fill="#202a45"/><path d="M50,122.22222H250v16.66667H183.33333v94.44445H166.66667V138.88889H133.33333v94.44445H116.66667V138.88889H50Z" fill="#732c25"/></svg>