<svg id="Layer_1" data-name="Layer 1" xmlns="http://www.w3.org/2000/svg" viewBox="0 0 300 300"><title>EDSA_Mark_Light</title><path d="M146.86573,221.457q-.00014-3.29826.001-6.59653c.00329-1.64162.58755-2.22021,2.27593-2.24723,1.65965-.02658,3.32108-.00023,4.979-.066,5.232-.20748,10.46173-.598,15.69407-.62941a34.08586,34.08586,0,0,0,13.20588-2.79369,23.04759,23.04759,0,0,0,10.45437-8.86427,24.67348,24.67348,0,0,0,3.80593-11.75476,36.00325,36.00325,0,0,0-1.39785-14.265,22.0911,22.0911,0,0,0-8.79435-12.02909,28.65577,28.65577,0,0,0-13.8237-4.79768c-3.91113-.32776-7.82958-.58083-11.74866-.79722-4.15015-.22914-8.30494-.3744-12.45758-.55895-1.68687-.075-2.19444-.615-2.19472-2.32778q-.001-6.19266.00118-12.38534c.00093-1.8259.43676-2.25022,2.3084-2.25105,3.54478-.00157,7.11228.25511,10.62928-.05741,6.0599-.53846,12.24936-.90523,17.44222-4.68711a25.6218,25.6218,0,0,0,8.01459-9.19263c2.79336-5.52907,3.02078-11.47821,2.4167-17.36714A22.54108,22.54108,0,0,0,182.88108,95.425,20.10146,20.10146,0,0,0,170.90421,88.45c-7.1112-1.38491-14.29-1.47545-21.49-1.345a2.32167,2.32167,0,0,1-2.54409-2.4704c-.01254-4.35278.01745-8.7058-.01739-13.05833a1.733,1.733,0,0,1,1.8894-1.94137c5.45368-.152,10.90169-.63656,16.36106.18762,3.65422.55167,7.40719.51811,11.02666,1.21209a57.36314,57.36314,0,0,1,10.71186,3.07846,39.373,39.373,0,0,1,8.69179,4.91721,35.00965,35.00965,0,0,1,8.65957,9.10541,32.54335,32.54335,0,0,1,5.27038,13.95719c.4287,3.87642.02945,7.83718.21522,11.75014.131,2.75923-.76135,5.27037-1.4059,7.84375a34.5742,34.5742,0,0,1-13.4379,19.0561c-.85481.64111-1.87027,1.07076-2.71114,1.72674a9.352,9.352,0,0,0-1.346,1.63692,7.10882,7.10882,0,0,0,1.63934,1.157,44.38026,44.38026,0,0,1,11.45237,5.58011,37.73232,37.73232,0,0,1,12.73989,16.0301,45.36772,45.36772,0,0,1,3.26954,12.57421,40.94512,40.94512,0,0,1-.13646,9.96665,46.43515,46.43515,0,0,1-3.1434,12.33991,40.02583,40.02583,0,0,1-7.72461,12.26517,40.57705,40.57705,0,0,1-10.09851,8.32347,54.75844,54.75844,0,0,1-7.00975,3.20388,47.90684,47.90684,0,0,1-7.60016,2.36869,90.47187,90.47187,0,0,1-10.19535,1.35795c-4.72185.39586-9.46116.58768-14.19412.84613-3.57212.19509-7.145.38521-10.71961.52174-1.55039.0592-2.1778-.6151-2.18741-2.18418C146.85519,226.124,146.86579,223.79049,146.86573,221.457Z"/><path d="M100.54032,86.78653a15.50533,15.50533,0,0,0-.32183,2.17964q-.02078,24.16587-.00138,48.33177c.00084,2.01154.34,2.35609,2.34866,2.35654,8.751.00194,17.502-.0137,26.25293.00193a18.98507,18.98507,0,0,1,2.32406.28566v15.17531a10.54278,10.54278,0,0,1-1.86235.3429q-12.11127-.01253-24.22246-.07956c-.98673-.00428-1.97507-.08927-2.95957-.05306-1.416.05208-1.91122.62588-1.91074,2.02592q.00882,26.1176.01358,52.23521a11.20638,11.20638,0,0,0,.04632,1.47771,1.64367,1.64367,0,0,0,1.81292,1.58876q13.4541-.0207,26.90818-.03971c1.76826-.005,2.32931.55195,2.31307,2.29707-.03875,4.17211-.06242,8.34481-.03254,12.51687.01218,1.70317-.34129,2.14164-2.09245,2.1375-6.05783-.01432-12.11571-.05314-18.17347-.0408-6.32518.01287-12.65051.12646-18.97519.09109a22.82739,22.82739,0,0,1-8.69937-1.43134,3.53384,3.53384,0,0,1-2.41814-3.21636c-.32648-3.96859-.86135-7.94015-.871-11.9116q-.16253-67.10827-.14883-134.21692a14.49551,14.49551,0,0,1,.76094-4.45807c.92876-2.81786,2.89675-4.14593,5.89159-4.17774q8.9492-.09507,17.89917-.1174c8.165-.02269,16.33008-.01138,24.49512-.02521,1.96889-.00333,2.29029.28529,2.29171,2.20059.003,4.03851.01231,8.077.005,12.11554-.00343,1.90539-.39693,2.27769-2.28942,2.2749q-13.12065-.01933-26.24127-.02882C102.06426,86.6247,101.44485,86.7156,100.54032,86.78653Z" fill="#0b8a44"/></svg>