<?xml version="1.0" encoding="UTF-8"?>
<svg xmlns="http://www.w3.org/2000/svg" version="1.1" viewBox="0 0 300 300">
  <defs>
    <style>
      .cls-1 {
        fill: #bd0006;
        fill-rule: evenodd;
      }
    </style>
  </defs>
  <!-- Generator: Adobe Illustrator 28.6.0, SVG Export Plug-In . SVG Version: 1.2.0 Build 709)  -->
  <g>
    <g id="Layer_1">
      <g id="layer1">
        <path id="Layer" class="cls-1" d="M223.2,87.6h.8c3.2,0,6.5,1.1,8.6,3.6,1.7,2.1,2.6,4.8,2.5,7.5,0,3.3-.7,6.5-1.9,9.6-1.4,3.8-3.3,7.4-5.6,10.8-3.8,5.6-8.3,10.8-13.3,15.5-11.2,10.8-24.3,19.4-38.8,25.2-5.6,2.2-11.4,3.9-17.3,5-4,5.6-8.2,11-12.6,16.3-4.9,5.9-10.3,11.3-16.2,16.1,3.6,2.1,7.6,3.5,11.7,4.3,3.6.6,7.3.5,10.9-.3,6.5-1.5,12.4-5,17.6-9,6.4-4.8,12.1-10.5,17.8-16.2,2.6,2,5.2,4.1,7.8,6.1-1,1.4-2,2.7-3.1,3.9-1.3,1.4-2.6,2.8-4,4.2-2.8,2.5-5.7,5.1-8.7,7.6l-2.3,1.9c-1.1.9-2.4,1.5-3.5,2.4-3.1,2-6.3,3.8-9.6,5.4-6.3,2.9-13,4.9-20,4.9s-8.3-.5-12.4-1.7c-4.6-1.4-9-3.5-13-6.2-3.9,2.1-8,3.9-12.3,5.2-3.5,1.1-7.2,1.8-10.9,2.2-3.4.4-6.8.6-10.3.5-4.3-.2-8.6-1.3-12.4-3.3-2.1-1.1-3.9-2.6-5.3-4.5-1.6-2.2-2.5-4.8-2.5-7.6v-1.5c.2-2.6,1.3-5.2,2.9-7.2,2.3-2.8,5.3-4.8,8.7-6,3.6-1.3,7.5-2.1,11.3-2.1,7.5,0,15,1.6,21.8,4.8,3.2,1.4,6.2,3.1,9,5.1,8.3-6.8,15.4-14.9,22-23.3-9.5.5-19.3-.3-28.3-3.8-4.9-1.8-9.3-4.7-12.9-8.4-1.5-1.5-2.7-3.2-3.7-5.1-2.3-4.5-3.1-9.6-2.3-14.5,1-5.7,3.5-11.1,7.3-15.5,5.3-6.4,12.2-11.2,19.6-14.9,7.8-3.9,16.3-6.4,25-7.3,1.5,3.3,3.1,6.5,4.5,9.8-7.4.9-14.7,2.9-21.5,5.9-4.5,2-8.8,4.6-12.6,7.7-2.9,2.4-5.4,5.2-7.4,8.4-1.8,2.8-2.6,6.1-2.6,9.4.3,3.7,2,7.1,4.7,9.6,3.9,3.7,9,5.7,14.2,6.9,2.5.6,5.1.9,7.7,1.1,5.6.4,11.2.1,16.7-.7,1.1-1.7,2.4-3.4,3.6-5,4.5-6.1,9-12.2,13.6-18.2,8.2-10.4,16.7-20.5,26.5-29.4,5.4-4.7,11.2-9.2,17.7-12.2,3.8-1.8,8-2.9,12.3-3.1h.5ZM213.8,102.2c-3.1,1.9-6,4-8.8,6.5-8.7,7.7-16.6,16-23.9,25-4.6,5.6-9,11.3-13.1,17.1,3.9-1.3,7.6-2.8,11.3-4.7,3.8-1.9,7.5-4.1,11.1-6.6,8.6-5.9,16.2-13.1,22.7-21.2,2.2-2.7,4.2-5.7,5.9-8.7,1.1-1.9,1.9-4,2.4-6.1.2-.8.2-1.6-.2-2.3-.5-.6-1.3-.9-2.1-.8-1.8.3-3.6,1-5.1,1.9h-.2ZM82.9,190.9c-1.9.4-3.7,1.4-5,2.8-1.2,1.3-1.3,3.2-.5,4.7.5.8,1.2,1.4,2,1.8,1.9,1,4,1.6,6.2,1.7,3.7.2,7.4,0,11-.8,4-.9,7.9-2.3,11.6-4.2-.4-.3-.9-.7-1.4-.9-3-1.8-6.3-3.3-9.7-4.3-4.6-1.5-9.5-1.8-14.3-.9h.1Z"/>
      </g>
    </g>
  </g>
</svg>