<svg id="Layer_1" data-name="Layer 1" xmlns="http://www.w3.org/2000/svg" viewBox="0 0 300 300"><defs><style>.cls-1{fill:#a7a6a7;}.cls-2{fill:#374da0;}</style></defs><title>ENTA_Light_bg</title><path class="cls-1" d="M129.6,176.16c-4-2.43-5.36-6-3.7-9.54a5.81,5.81,0,0,1,9.08-2.2c.52-.08.09-.67.5-.85h6.41v12.2h-6.5c-.41-.2.09-.82-.4-1.17a8.75,8.75,0,0,1-2.7,1.56Zm3.66-4.81c1.46,0,2-.6,2-1.72a1.5,1.5,0,0,0-1.6-1.72,1.52,1.52,0,0,0-1.71,1.62C132,170.6,132.29,171.38,133.26,171.35Z"/><path class="cls-1" d="M71.37,176.16c-3.51-1.8-5.12-4.43-4.52-7.59.86-4.49,5.29-7.29,10-4.12l.26-.9h6.34v12.2H77.09l-.18-1.17-2.84,1.58Zm3.91-8.3a1.67,1.67,0,0,0-1.63,1.76c0,1,.51,1.8,1.75,1.73A1.56,1.56,0,0,0,77,169.51C77,168.42,76.37,167.92,75.28,167.86Z"/><path class="cls-1" d="M233.65,176.16c-3.51-1.29-4.91-3.22-4.93-6.6a6.24,6.24,0,0,1,3.26-5.75c2.28-1.28,4.66-.94,6.87.84l.09-1.09h6.25v12.21h-6.3v-1.23l-2.82,1.62Zm5.37-6.55a1.64,1.64,0,0,0-1.81-1.72,1.58,1.58,0,0,0-1.63,1.85,1.5,1.5,0,0,0,1.71,1.6A1.6,1.6,0,0,0,239,169.61Z"/><path class="cls-1" d="M181.89,176.16c-1.36-.61-2.85-.81-4.08-1.89a5.09,5.09,0,0,1-1.81-4.09c0-2.18,0-4.36,0-6.6h7c0,2.19,0,4.28,0,6.37,0,1.09.48,1.57,1.84,1.11v-7.47h6.93c0,2.7.31,5.41-.09,8s-2.72,3.77-5.21,4.31l-1,.25Z"/><path class="cls-1" d="M163.83,176.16c-1.93-.65-3.86-1.13-5.27-2.9-2.58-3.25-.75-7.62,2.28-9,3.77-1.79,7.53-1.7,10.95,1.1a5.71,5.71,0,0,1,2,5.26H164.5c-.3.94-.23,1.63.56,2s1.62-.09,2.21-.74a32.58,32.58,0,0,1,6.25-.05c-.52,2.38-2.4,3.09-4.2,3.85-.39.17-.89.09-1.17.53Zm3.46-8.19a1.53,1.53,0,0,0-1.82-1.44,1.18,1.18,0,0,0-1.15,1.44Z"/><path class="cls-1" d="M261.14,176.16l-4.51-1.31,1.75-3.63c1.66.14,3.05,1.83,4.86.83.06-.93-.51-.92-1.05-1-3.51-.62-4.59-1.52-4.53-3.7s1.84-3.66,5-4.11a15.21,15.21,0,0,1,6.86.86v.53c-.94.66-.73,2-1.61,2.72-1.33.29-2.64-1.61-4.18-.19.57.81,1.31.78,2,.91,1.45.26,2.92.52,3.79,1.93v3.49c-1.21,1.63-3,2.17-4.85,2.69Z"/><path class="cls-1" d="M221.52,176.16c-2.25-.53-4.29-1.21-5.54-3.5-1.48-2.73-.52-6.87,2.26-8.4a10,10,0,0,1,8.58-.4v4.83c-1.48-.49-2.94-1.76-4.28-.08a1.56,1.56,0,0,0,0,2c1.34,1.55,2.76.39,4.32-.16-.14,1.78-.77,3.33-.49,5l-1.65.72Z"/><path class="cls-1" d="M150.08,176.16c-2.19-.56-4.18-1.25-5.45-3.45a6.23,6.23,0,0,1,2.3-8.47c2.53-1.6,5.36-1.45,8.21-.46v4.8c-1.36-.56-2.76-1.45-4,0a1.52,1.52,0,0,0,0,2c1.23,1.46,2.6.47,4,0-.1,1.67-.2,3.21-.31,4.79l-1,.75Z"/><path class="cls-2" d="M179.47,138.81a79.45,79.45,0,0,1-.61-13.35v-1.55h10.45V151H178.79l-9.66-14.22c1,5,.49,9.58.63,14.26H159.3V123.88h10.37q4.76,7.37,9.53,14.73Z"/><path class="cls-2" d="M97.92,151H87.29l-9.47-14c.61,4.66.08,9.24.27,13.94H67.9V123.89H78.13l9.73,14.85c-.78-5-.34-9.88-.45-14.83H97.92Z"/><path class="cls-2" d="M145.14,151H133.83c-1.11-.69-.83-2.15-1.47-3.25h-8l-.84,3.22H111.86c3.5-9.11,7-18.07,10.44-27.12h12.07ZM128.56,133c-1.41,2.73-1.45,5.52-2.26,8.19h4.11C129.8,138.47,129.21,135.86,128.56,133Z"/><path class="cls-2" d="M269.24,151.06H257.76l-1.4-3.3h-8l-.84,3.23H235.9c3.53-9.15,7-18.16,10.47-27.15h12C262,132.85,265.57,141.87,269.24,151.06Zm-14.42-9.89a51.18,51.18,0,0,1-2.31-7.95c-.54,2.69-1.87,5.14-2.07,7.95Z"/><path class="cls-2" d="M51.09,131.52H42v2.39h8.21V141H42v2.58h9.43V151H30.85v-27.1H51.09Z"/><path class="cls-2" d="M204,123.87h23v8.88h-6.12V151H210V132.73H204Z"/><path class="cls-1" d="M113.67,165.78c1.22-1.61,2.46-2.74,4.4-2.74a4.62,4.62,0,0,1,4.82,4.34c.16,2.75,0,5.51,0,8.39h-6.45c-.54-2.51.42-5.19-.68-7.84-2,.94-1.07,2.52-1.21,3.71a37.66,37.66,0,0,0,0,4.13h-6.64c-.46-2.55.38-5.23-.91-7.71-1.49,2.41-.48,5.1-1,7.7H99.52V163.59h6l.16,2.14a4.33,4.33,0,0,1,4.17-2.64C111.52,163.16,113.07,163.68,113.67,165.78Z"/><path class="cls-1" d="M37.52,175.81h-7V158.06c4.9.74,10.08-1.35,14.71,1.81,2,1.35,2.7,4,1.92,6.86a5.49,5.49,0,0,1-4.88,3.76c-.76.06-1.53,0-2.29,0H37.52Zm0-12.64V166a3.75,3.75,0,0,0,3-.73,1.86,1.86,0,0,0,0-1.5A3,3,0,0,0,37.52,163.17Z"/><path class="cls-1" d="M57.89,168.25c-1.51-.42-2.15.05-2.13,1.44,0,2,0,4,0,6.1H49.15V156.94h6.57a58,58,0,0,1-.2,8.27,14.56,14.56,0,0,0,1.42-.89c2.86-2.32,7.13-1.68,7.87,3.09.42,2.7.08,5.51.08,8.37H58.27C57.85,173.3,58.52,170.7,57.89,168.25Z"/><path class="cls-1" d="M195.18,163.38v-4h6.66v4l2.3.19v4.48l-2.22.13v7.55h-6.75v-7.54h-1.61v-4.58Z"/><path class="cls-1" d="M248.27,156.89h6.63v18.88h-6.63Z"/><path class="cls-1" d="M86.06,163.53h6.66l.34,1a5.45,5.45,0,0,1,4.34-1.39V169c-.43.24-.74-.14-1.1-.25-1.94-.55-3.32.44-3.35,2.42,0,1.43,0,2.86,0,4.29a1.41,1.41,0,0,1-.13.34H86.06Z"/><path class="cls-1" d="M206.2,163.57h6.37v12.2H206.2Z"/><path class="cls-1" d="M209.53,162.48c-2.43,0-3.81-1-3.85-2.8s1.48-3.08,3.79-3.09c2.13,0,3.49,1.18,3.48,3S211.78,162.48,209.53,162.48Z"/><path class="cls-1" d="M179.47,138.81l-.27-.2Z"/></svg>