<svg xmlns="http://www.w3.org/2000/svg" viewBox="0 0 300 300"><g id="Layer_1-2" data-name="Layer 1"><path d="M57.84731,116.92766l1.034,10.53809H56.86836l-2.04313-6.9124H38.77474v18.39641H52.42539l1.3752-5.104h1.97582v14.43182H53.80755l-1.38886-5.85723H38.78335v20.63048H58.55041l3.38631-7.95305h1.97956l-2.80894,12.32859H25.00147v-2.666l6.90924-1.3049V120.88864L25,119.58626v-2.6586Z" fill="#2c4a6e"/><path d="M79.87192,139.70647v24.4056l5.98992.80365v2.50717h-18.239v-2.50713l6.13283-.80434V137.76054l-6.15-.8069v-1.6334l12.21-3.431v6.13895c.268-.1516.439-.24035.60213-.34174,2.73771-1.70173,5.46978-3.41266,8.218-5.09722a2.55351,2.55351,0,0,1,1.0544-.32167,18.62516,18.62516,0,0,1,5.61018.18256c3.93041.80423,6.215,3.09229,6.8623,7.05886a35.83664,35.83664,0,0,1,.45963,5.43122c.055,6.14989.021,12.30057.021,18.451v.71684l6.4626.80765v2.51189H90.58468v-2.51371l6.01564-.80709v-.63561c0-5.88456.02834-11.76936-.01966-17.65354a22.2352,22.2352,0,0,0-.43908-4.515c-.6465-2.97472-2.46951-4.42918-5.4948-4.70739a12.68631,12.68631,0,0,0-6.73914,1.21425C82.57331,138.44447,81.23312,139.06715,79.87192,139.70647Z" fill="#2c4a6e"/><path d="M161.04491,159.08721a142.47376,142.47376,0,0,0,7.73039-22.82049l-5.28682-.8818V132.8603H177.848v2.51947l-4.91568.88229c-.7702,2.13672-1.5199,4.26111-2.30039,6.37412a229.66155,229.66155,0,0,1-11.735,27.11406,65.76815,65.76815,0,0,1-6.392,10.3434,24.70106,24.70106,0,0,1-2.35454,2.459,1.76056,1.76056,0,0,1-1.85057.41705c-1.54218-.50548-3.08272-1.016-4.77781-1.57523,6.25068-4.01294,10.60524-9.47952,14.31444-15.60326q-6.58093-14.73593-13.18571-29.52525-2.65377-.43717-5.36618-.884v-2.51155h17.77481v2.51512l-5.99878.87663C154.37991,143.85038,157.67866,151.39162,161.04491,159.08721Z" fill="#2c4a6e"/><path d="M273.46772,157.46075,275,158.7704c-1.0361,1.22261-1.96666,2.42187-3.00359,3.52071-1.57463,1.66868-3.22093,3.26982-4.84393,4.8925a1.29808,1.29808,0,0,1-.51242.34073c-5.419,1.57867-10.697,1.41245-15.64511-1.53673a13.57861,13.57861,0,0,1-6.13173-8.51466,26.21114,26.21114,0,0,1,.59367-16.3859c2.07777-5.51511,6.19163-8.49973,12.04553-9.069a17.05728,17.05728,0,0,1,9.61878,1.65365,10.25233,10.25233,0,0,1,5.70621,6.85025,9.955,9.955,0,0,1-.38634,5.29044H249.42562c0,1.13116-.053,2.22721.01027,3.31651a19.68288,19.68288,0,0,0,2.12073,8.24966c2.59924,4.88044,7.24571,6.89335,12.52076,6.24469,3.89476-.47894,6.72482-2.66707,9.02777-5.68446C273.24133,157.76032,273.37647,157.58108,273.46772,157.46075Zm-6.17862-13.84847c-.033-.4635-.048-.86111-.09163-1.25557a9.62168,9.62168,0,0,0-2.44931-5.87381,8.82482,8.82482,0,0,0-9.66841-1.64066,8.92662,8.92662,0,0,0-4.85569,5.7163c-.32407.97617-.51262,1.99736-.77686,3.05374Z" fill="#2c4a6e"/><path d="M239.88753,155.51956l1.6611,1.08253c-.526.91119-1.03381,1.79445-1.545,2.67579-1.30318,2.24693-2.60355,4.49551-3.91931,6.73505a1.52478,1.52478,0,0,1-.51487.49949,13.89127,13.89127,0,0,1-6.42169,1.9096,20.5157,20.5157,0,0,1-9.64015-1.44486,12.54826,12.54826,0,0,1-7.0249-7.31056,25.7436,25.7436,0,0,1-.06763-18.63743c2.0104-5.26918,6.08412-8.13459,11.59082-8.97463a19.85437,19.85437,0,0,1,9.76917.78278,8.40812,8.40812,0,0,1,3.43048,2.16555,5.07578,5.07578,0,0,1,1.45432,3.19806c.05822.97869.01172,1.9636.01172,2.90749l-6.28267,1.73015a5.09058,5.09058,0,0,1-.08845-.76971,22.58219,22.58219,0,0,0,.099-3.45424c-.35273-2.73431-2.40006-4.41272-5.28419-4.52941a9.016,9.016,0,0,0-8.88518,5.78186,19.459,19.459,0,0,0-1.51333,7.8165,22.92878,22.92878,0,0,0,1.18956,7.9496c1.3573,3.7846,3.70007,6.64115,7.75347,7.64284a11.24427,11.24427,0,0,0,9.43636-1.40548,13.088,13.088,0,0,0,3.84615-4.58211C239.25885,156.72933,239.5489,156.15528,239.88753,155.51956Z" fill="#2c4a6e"/><path d="M135.54723,134.92888l.36079,8.0147h-2.3222c-.15474-1.05348-.222-2.11868-.47668-3.13695a7.1256,7.1256,0,0,0-7.64982-5.75826,6.87532,6.87532,0,0,0-5.39963,2.353c-1.69061,1.99832-1.71661,6.02876,1.19916,7.654a36.7116,36.7116,0,0,0,4.63512,1.98026c2.24.86961,4.53944,1.59484,6.74557,2.54033a9.08166,9.08166,0,0,1,4.45181,3.76091,9.92437,9.92437,0,0,1,.556,8.52083,10.48542,10.48542,0,0,1-7.35447,6.79764A20.55155,20.55155,0,0,1,114.28648,165.81a.545.545,0,0,1-.10233-.08078c-.272-3.277-.54158-6.52429-.81455-9.81283h2.19494c.21075,1.07662.35609,2.16742.64333,3.21944.78115,2.86094,2.31,5.18538,5.16615,6.31566a9.99615,9.99615,0,0,0,8.69188-.34325c3.99473-2.12548,3.8048-7.42076,1.06884-9.83732a11.15924,11.15924,0,0,0-4.08964-2.16277c-2.34286-.75491-4.70285-1.46448-7.01471-2.30566a8.48239,8.48239,0,0,1-5.21758-4.69589,9.90875,9.90875,0,0,1,5.236-13.06506,15.40078,15.40078,0,0,1,12.17686.20713C133.39288,133.72284,134.48381,134.38489,135.54723,134.92888Z" fill="#2c4a6e"/><path d="M202.62142,134.92426c.12348,2.76486.24014,5.37666.35834,8.02327h-2.3264c-.145-1.03031-.211-2.05637-.44231-3.04366a7.14943,7.14943,0,0,0-7.69043-5.85525,6.89525,6.89525,0,0,0-5.35936,2.318c-1.72456,2.00391-1.754,6.06485,1.18143,7.69575a37.051,37.051,0,0,0,4.6369,1.97634c2.24015.86938,4.53857,1.59711,6.745,2.54205a9.10508,9.10508,0,0,1,4.38768,3.66954,9.88206,9.88206,0,0,1,.62492,8.56606,10.49107,10.49107,0,0,1-7.32727,6.82938c-5.6264,1.70079-11.01387.80992-16.14493-1.835-.27723-3.33745-.54831-6.60083-.82237-9.9002h2.21107c.17372.96083.29843,1.91973.52569,2.85365a9.63376,9.63376,0,0,0,3.411,5.62668,9.74316,9.74316,0,0,0,7.10892,1.76549,7.90486,7.90486,0,0,0,4.397-1.68208,6.16721,6.16721,0,0,0,.10006-9.2087,10.82059,10.82059,0,0,0-4.0897-2.16059c-2.32523-.74785-4.66454-1.45859-6.96086-2.28768a8.5951,8.5951,0,0,1-5.07251-4.30962,9.94324,9.94324,0,0,1,5.05834-13.47614,15.54559,15.54559,0,0,1,12.12818.19681C200.43091,133.6984,201.52355,134.364,202.62142,134.92426Z" fill="#2c4a6e"/></g></svg>