<svg id="Layer_1" data-name="Layer 1" xmlns="http://www.w3.org/2000/svg" xmlns:xlink="http://www.w3.org/1999/xlink" viewBox="0 0 300 300"><defs><linearGradient id="linear-gradient" x1="50" y1="150" x2="250" y2="150" gradientUnits="userSpaceOnUse"><stop offset="0.3" stop-color="#2fa79d"/><stop offset="1" stop-color="#f9ae45"/></linearGradient></defs><path d="M247.15836,130.99377a48.97578,48.97578,0,0,0-20.00882-27.79562q-.51586-.42879-1.03173-.85714-.4123-.34138-.82548-.68254a3.203,3.203,0,0,0-2.71742-1.89283.70956.70956,0,0,0-.57787-.26167c-13.55192-9.74208-29.1075-14.93878-44.83854-19.7388q-.657-.3648-1.3132-.72938l-.22781-.12907-.10422-.19922s-.19219.01781-.197.01473c-.45913-.15261-.92266-.30829-1.38663-.464C161.96794,72.98394,149.04183,69.1576,142.29072,56.98c-2.5094-.70277-4.36221-.7595-6.157,1.45437-.25991,4.93085,3.34851,8.05089,6.77574,10.9583,8.5617,7.26214,18.73741,11.525,29.31552,14.92074a16.80335,16.80335,0,0,0,1.9346,1.015c15.33569,5.71653,30.87455,10.973,44.78621,19.889q2.67168,2.19375,5.34205,4.38618c-.30257.70057-.95741.55083-1.51945.62889l-.03123.022a20,20,0,0,0-2.09292-1.60609c-16.4844-9.58552-34.61491-14.52208-53.01236-18.69826q-.44067-.09632-.88089-.19241a.46068.46068,0,0,0-.701-.27025c-7.58274-2.246-15.253-4.24347-22.73108-6.80168-11.04867-3.77994-22.0648-7.72326-29.03493-18.1835-1.5023-2.25455-3.80412-1.96342-6.15521.14556.2498,4.83124,3.78918,7.76658,7.20585,10.44024,14.57574,11.40578,32.17411,15.25278,49.6357,19.37729,11.71275,3.53894,23.4686,6.94242,35.1167,10.68212,4.67137,1.49966,9.35726,3.25989,13.10334,6.79883-11.59885-3.34676-22.896-7.59858-34.86426-9.34826q-1.25338-.19922-2.50764-.39734-.84176-.19-1.68437-.37866c-12.15166-2.51028-24.3684-4.74416-36.43913-7.59527-18.7374-4.42576-38.18286-7.599-50.68766-24.44777-1.88931-.367-3.272-.219-4.057,1.96891a16.0346,16.0346,0,0,0,3.77026,5.64857A47.09482,47.09482,0,0,0,103.271,88.73521c22.94965,9.80761,47.61269,12.57627,71.80253,17.28217,16.41843,4.01918,32.8373,8.03858,47.42359,17.12406a2.41854,2.41854,0,0,0,1.88931,1.69053q2.12481,2.3204,4.25007,4.64059c-1.066.73576-1.87788.21615-2.83089-.38833-16.12025-10.22628-34.47989-12.89994-52.83688-15.57229a.677.677,0,0,0-.66847-.124q-.97434-.0894-1.94868-.17944a19.669,19.669,0,0,0-2.5547-.7186c-21.31014-3.08222-42.78871-5.16878-63.78881-10.11524-12.83067-3.02219-25.7669-6.09913-34.819-17-1.09814-1.32243-2.45487-1.5907-4.024-.14535.0299,2.23454,1.61972,3.68934,3.02571,5.15448,4.66961,4.86444,10.50554,7.946,16.74342,10.16955,27.04712,9.64115,55.53935,11.48978,83.66613,15.29566a12.10649,12.10649,0,0,0,2.08282.719c12.55757,1.9489,25.10678,4.03149,37.12738,8.26111,7.40111,2.60417,15.10084,4.952,20.18341,11.6725-1.11265.30433-2.012-.27068-2.94523-.71464-17.86-8.49969-37.16036-10.09985-56.4475-11.76245-5.05135-.59041-10.09654-1.24282-15.15493-1.76045-22.7755-2.33085-45.68908-3.59611-68.16729-8.26221-12.01663-2.49445-24.1872-4.91985-32.99957-14.73648a1.36032,1.36032,0,0,0-2.11228.11017c-.515,2.11316,1.33958,3.062,2.52128,4.20257,5.91552,5.71037,13.44945,8.36072,21.14346,10.334,31.06453,7.96755,63.00291,9.17893,94.74075,11.91417,5.58348.83009,11.18237,1.5665,16.74694,2.50764,15.523,2.62529,31.47353,3.95937,44.54345,14.25469l.15261.16976a1.85418,1.85418,0,0,0,1.50406,1.9157c1.24854,9.79155-.89408,13.69419-9.92811,17.96536-8.041,3.80171-16.65283,5.65452-25.3324,7.18606-7.756,1.36861-15.55117,2.51644-23.32962,3.76411q-19.465,1.68513-38.93225,3.3705c-19.24976,1.63665-38.45993,3.56466-57.27694,8.18744-7.14868,1.75628-14.15354,4.00577-20.32722,8.15666C53.68538,195.12472,50.75687,196.9595,50,200.4439c1.32155,1.07044,2.13427.61152,2.724-.10027C59.0503,192.711,68.04211,190.10438,77.037,187.77c21.25736-5.51664,43.13482-6.79927,64.86143-9.096,10.40879-1.10012,20.90466-1.40906,31.21494-3.4103a185.73971,185.73971,0,0,0,38.79152-6.16158c5.95819-1.53023,11.26857-4.5522,17.01082-6.535l-.0343.03254.02506-.00527c-.57084,1.83829-2.09117,2.79592-3.524,3.87031-9.2117,6.90482-20.11173,9.66226-30.97569,12.32075-8.523,2.08545-17.19861,3.54817-25.80649,5.28751-24.2215,2.86541-48.50281,5.448-72.20274,11.46889-10.02793,2.54766-19.85621,5.9285-27.57265,13.39316-1.66546,1.61114-3.51738,3.1981-3.66691,5.73939,2.13515,1.94714,3.40128.71421,4.5865-.79953a32.3593,32.3593,0,0,1,12.094-9.07888c14.41654-6.82808,29.98266-9.19213,45.5013-11.678,13.73619-2.20045,27.5102-4.16826,41.2675-6.23854q.93014-.08344,1.86072-.16712l.38613.03057.37338-.10335c3.83667-.553,7.69665-.98072,11.50649-1.68042,16.05033-2.94786,32.07559-6.00722,45.71811-15.88409.712-.51542,1.02513-.376,1.07879.47717q-.80019.99016-1.5995,1.98276a2.65788,2.65788,0,0,0-1.72922,1.8218l-.0154.01539a2.58251,2.58251,0,0,0-1.833,1.7477,2.369,2.369,0,0,0-1.87524,1.68965c-6.68558,3.18887-12.98372,7.09173-20.099,9.50394-9.31461,3.15764-18.96214,4.96449-28.34492,7.78482-17.2461,2.98921-34.50011,5.93444-51.44848,10.39384-10.619,2.79372-20.99218,6.20138-29.97035,12.783-4.07855,2.98987-7.931,6.27681-9.794,11.19864,1.80838,2.67322,3.717,2.70665,5.23649.5605,7.50271-10.59679,18.80338-14.92866,30.4783-18.55335,18.19428-5.6488,37.12387-8.05925,55.62907-12.34956q.84966-.21539,1.69844-.43054a4.336,4.336,0,0,0,3.00328-.82394c14.4614-2.05818,28.14657-6.62643,42.24514-13.75906-1.31495,1.60433-1.77144,2.1611-2.22618,2.71786l-.00176-.00615-.00044.00022v.00022c-15.64265,9.28074-33.0695,13.70936-50.36618,18.49046a291.62759,291.62759,0,0,0-31.9353,9.06548c-9.10923,3.21437-17.78571,7.2584-24.50252,14.47172-1.94473,2.08831-4.51,4.13287-3.66736,7.68192,2.826,2.494,4.91678,1.42534,6.68471-1.22612,2.89949-4.34835,6.9455-7.36263,11.38643-9.95977a88.96014,88.96014,0,0,1,18.59491-7.79758c7.698-2.40451,15.45047-4.63443,23.17966-6.94,2.05071-.40284,4.13089-.694,6.14773-1.22589,16.64756-4.3908,33.09589-9.32934,48.17562-17.92953a3.47482,3.47482,0,0,0,.22561-.681,3.47482,3.47482,0,0,1-.22561.681h0l-.00528.0165h0l.02683-.00506q-.65242,1.2293-1.30308,2.45927h0a.56271.56271,0,0,0-.51718.23748,2.40653,2.40653,0,0,0-1.88931,1.64215,205.24648,205.24648,0,0,1-27.11132,13.31862c-6.22777,2.39132-12.82056,3.86437-18.6666,7.23619a96.61291,96.61291,0,0,0-22.62289,9.70382c-5.09709,2.95776-9.70118,6.46987-13.0365,11.45129-1.13948,1.70175-1.935,3.37138-.84174,5.61626,2.88673,2.14812,5.368,1.68129,7.33646-1.51945,2.99756-4.873,7.42442-8.09795,12.259-10.94137,6.60862-3.88637,13.99258-6.0213,20.80878-9.42236,5.90278-1.15773,11.39127-3.59215,16.91275-5.80184,8.41041-3.36566,17.15331-6.14069,24.42952-11.86931a.83768.83768,0,0,0,.6091-.34281,22.3211,22.3211,0,0,0,10.10446-7.16891,44.70481,44.70481,0,0,0,14.92317-18.09928C251.05924,162.1335,251.59005,146.51548,247.15836,130.99377ZM225.886,112.4978a3.21574,3.21574,0,0,1,.39449.09983A3.25607,3.25607,0,0,0,225.886,112.4978Zm.97236.40768a1.39134,1.39134,0,0,1,.22913.24232h0A1.375,1.375,0,0,0,226.8584,112.90548Zm-3.34455,79.8255a3.50321,3.50321,0,0,0,1.03613-.54687,3.88657,3.88657,0,0,0,.76918-.7993,3.88657,3.88657,0,0,1-.76918.7993,3.50321,3.50321,0,0,1-1.03613.54687,4.76031,4.76031,0,0,1-1.37564.22737A4.76031,4.76031,0,0,0,223.51385,192.731Zm7.1113-26.54048a4.967,4.967,0,0,1-.49432-.97873A4.967,4.967,0,0,0,230.62515,166.1905Zm-.97632-3.75465.069.06487-.069-.06487Z" fill="url(#linear-gradient)"/></svg>