<svg id="Layer_1" data-name="Layer 1" xmlns="http://www.w3.org/2000/svg" xmlns:xlink="http://www.w3.org/1999/xlink" viewBox="0 0 300 300"><defs><linearGradient id="linear-gradient" x1="94.42117" y1="-3573.09634" x2="209.1618" y2="-3374.35779" gradientTransform="matrix(1, 0, 0, -1, -0.91, -3320.2942)" gradientUnits="userSpaceOnUse"><stop offset="0" stop-color="#094b72"/><stop offset="1" stop-color="#33b29b"/></linearGradient></defs><path d="M269.99369,130.05c5.60413,0,6.66087,2.81807,2.36972,6.40472l-46.24213,37.08337a33.08035,33.08035,0,0,1-17.90119,6.40472H188.55753V139.65711A9.95933,9.95933,0,0,1,198.70906,130.05Zm-155.9551-12.3291h51.65412a9.92735,9.92735,0,0,0,10.11889-9.732l.00059-.03518V39.10292c0-5.38-3.45851-6.94912-7.74976-3.49057l-46.21007,37.2755a23.44138,23.44138,0,0,0-7.78172,16.01181Zm-84.062,62.06178h73.94254a9.95939,9.95939,0,0,1,10.11948,9.60709v71.47674c0,5.412,3.49056,6.98115,7.78171,3.52259l46.24213-37.30752a23.313,23.313,0,0,0,7.74976-16.01181V139.65711A9.99137,9.99137,0,0,0,165.6287,130.05H91.78218a33.11234,33.11234,0,0,0-17.9012,6.40472L27.63885,173.53812C23.3477,176.99666,24.40449,179.78271,29.97657,179.78271Z" fill="url(#linear-gradient)"/></svg>