<svg id="Layer_1" data-name="Layer 1" xmlns="http://www.w3.org/2000/svg" viewBox="0 0 300 300"><defs><style>.cls-1{fill:#24a9e1;}.cls-2{fill:#7dc243;}</style></defs><path class="cls-1" d="M38.49,148.54c-.54-8-5.1-15.3-14.14-15.3-7.81,0-13.84,6.57-14.53,15.3ZM5.8,150.48v-.16c0-11.44,8-20.56,18.7-20.56,11,0,18.09,9,18.09,20.64a9.56,9.56,0,0,1-.08,1.55H9.82c.69,9.81,7.72,15.53,15.45,15.53,6.11,0,10.28-2.7,13.53-6.18l2.63,2.32c-4,4.33-8.74,7.42-16.31,7.42C14.76,171,5.8,162.77,5.8,150.48"/><path class="cls-1" d="M133.8,121.6h0a2.36,2.36,0,0,1,2.36,2.36v.15a2.36,2.36,0,1,1-4.72,0V124a2.36,2.36,0,0,1,2.36-2.36"/><path class="cls-1" d="M179.48,121.6h0a2.36,2.36,0,0,1,2.36,2.36v.15a2.36,2.36,0,1,1-4.71,0V124a2.36,2.36,0,0,1,2.35-2.36"/><rect class="cls-1" x="131.91" y="130.05" width="3.79" height="40.91"/><rect class="cls-1" x="177.59" y="130.05" width="3.79" height="40.91"/><rect class="cls-1" x="146.81" y="119.74" width="3.79" height="51.22"/><rect class="cls-1" x="162.21" y="119.74" width="3.79" height="51.22"/><path class="cls-1" d="M108.18,171a14.39,14.39,0,0,1-10.92-4.36c-5.38-5.68-5.1-14.85-5.06-15.74v-21h3.71V151c0,.08-.38,8.38,4.06,13.05a12.19,12.19,0,0,0,16.42,0c4.44-4.67,4.06-13,4.06-13.05V129.84h3.71v21c0,.89.32,10.06-5.06,15.74A14.41,14.41,0,0,1,108.18,171"/><path class="cls-1" d="M206.26,171a14.43,14.43,0,0,1-10.93-4.36c-5.37-5.68-5.1-14.85-5.06-15.74v-21H194V151c0,.08-.38,8.38,4,13.05a12.2,12.2,0,0,0,16.43,0c4.43-4.67,4.06-13,4.05-13.05V129.84h3.72v21c0,.89.31,10.06-5.06,15.74A14.41,14.41,0,0,1,206.26,171"/><path class="cls-1" d="M283.67,134.41a15.86,15.86,0,0,0-21.84,0,16.63,16.63,0,0,0-3.22,5.09,16.41,16.41,0,0,0-3.21-5.09,15.87,15.87,0,0,0-21.85,0c-5.37,5.67-5.1,14.85-5.06,15.74v21h3.72V150c0-.08-.4-8.34,4-13a12.2,12.2,0,0,1,16.44,0c4.43,4.67,4.06,13,4.06,13.05v21.16h3.75V150s0-.18,0-.46v-.25c0-2.12.38-8.44,4.06-12.33A12.19,12.19,0,0,1,281,137c4.44,4.67,4.07,13,4.06,13.05v21.16h3.71v-21c0-.89.32-10.07-5.06-15.74"/><path class="cls-1" d="M67.38,167.45c-8.6,0-15.59-7.6-15.59-16.93s7-16.93,15.59-16.93S83,141.19,83,150.52s-7,16.93-15.6,16.93M86.7,150.52c0-11.4-8.65-20.65-19.32-20.65s-19.31,9.25-19.31,20.65,8.65,20.64,19.31,20.64A18.93,18.93,0,0,0,83,162.69V180h3.66V152.1c0-.52.06-1,.06-1.58"/><path class="cls-2" d="M171.31,115.24c-6.39-2.9-12.95-5.44-19.57-7.82s-13.33-4.5-20.11-6.41a247,247,0,0,0-41.55-8.16,172.22,172.22,0,0,0-21.33-.92c-3.57.08-7.15.28-10.72.63s-7.14.87-10.69,1.54a102.23,102.23,0,0,0-10.56,2.59c-.87.28-1.75.52-2.61.82l-2.58.9c-1.71.66-3.42,1.31-5.09,2.07l-1.26.55-1.25.59-1.24.6-.62.31-.61.32-2.43,1.31-2.39,1.41a84.92,84.92,0,0,0-9,6.44,4.27,4.27,0,0,0,5.41,6.62l.16-.13,0,0A74.62,74.62,0,0,1,21,112.31l2.08-1.38,2.14-1.29.54-.33.55-.3,1.1-.6,1.1-.6,1.12-.56c1.49-.77,3-1.44,4.57-2.13l2.34-1c.78-.32,1.58-.59,2.37-.88a97,97,0,0,1,9.75-2.93c3.31-.79,6.67-1.45,10-2s6.82-.87,10.25-1.13a168.93,168.93,0,0,1,20.75-.15,244.91,244.91,0,0,1,41.35,6q10.23,2.33,20.31,5.35c6.7,2,13.37,4.24,19.9,6.81"/><path class="cls-2" d="M122.89,184.76c6.39,2.9,13,5.44,19.57,7.82s13.33,4.5,20.11,6.41a247,247,0,0,0,41.55,8.16,172.15,172.15,0,0,0,21.32.92c3.58-.08,7.15-.28,10.73-.63s7.14-.87,10.69-1.54a102.87,102.87,0,0,0,10.56-2.59c.87-.28,1.75-.52,2.6-.82l2.59-.9c1.71-.66,3.42-1.31,5.09-2.07L269,199l1.24-.6,1.24-.6.62-.31.61-.32,2.44-1.31,2.38-1.41a82.67,82.67,0,0,0,9.06-6.44,4.28,4.28,0,0,0-5.42-6.62l-.15.13,0,0a74.93,74.93,0,0,1-7.79,6.15l-2.08,1.38-2.14,1.29-.53.33-.55.3-1.1.6-1.1.6-1.13.56c-1.48.77-3,1.44-4.56,2.13l-2.34,1c-.78.32-1.58.59-2.37.88a98.62,98.62,0,0,1-9.75,2.93q-5,1.19-10.06,2c-3.39.5-6.81.87-10.24,1.13a169,169,0,0,1-20.75.15,244.91,244.91,0,0,1-41.35-6q-10.23-2.32-20.31-5.35c-6.71-2-13.37-4.24-19.9-6.81"/><path class="cls-1" d="M294.45,126.88a3.87,3.87,0,1,1-3.85-3.76A3.78,3.78,0,0,1,294.45,126.88Zm-6.76,0a2.91,2.91,0,0,0,2.93,3,3,3,0,0,0,0-6A2.91,2.91,0,0,0,287.69,126.88Zm2.31,2h-.87v-3.76a7.49,7.49,0,0,1,1.44-.11,2.36,2.36,0,0,1,1.31.27,1,1,0,0,1,.37.83,1,1,0,0,1-.78.87v0a1.15,1.15,0,0,1,.69.92,2.9,2.9,0,0,0,.27.94h-.94a3.57,3.57,0,0,1-.3-.92c-.07-.41-.29-.59-.78-.59H290v1.51Zm0-2.13h.42c.48,0,.87-.16.87-.55s-.26-.58-.81-.58a2.33,2.33,0,0,0-.48,0Z"/></svg>