<svg id="Layer_1" data-name="Layer 1" xmlns="http://www.w3.org/2000/svg" viewBox="0 0 300 300"><path d="M39.25575,172.0009H10v-44.278H38.67655v8.28132H20.327v9.04538h17.3267V153.331H20.327v10.26539H39.25575Z" fill="#005489"/><path d="M84.81537,172.0009H72.75076l-9.30417-16.94468h-3.278V172.0009H49.77994v-44.278H65.68945c4.92936,0,8.78658,1.02284,11.68258,3.14247a12.32337,12.32337,0,0,1,4.86774,10.14215c0,8.40456-5.38532,11.68259-8.62638,12.70543Zm-15.281-35.06008c-1.28163-.99819-2.9453-1.23234-5.31139-1.23234H60.107v11.36218h4.116c2.37842,0,4.04208-.25879,5.32371-1.23234a4.92935,4.92935,0,0,0,2.25519-4.498A5.01563,5.01563,0,0,0,69.53435,136.94082Z" fill="#005489"/><path d="M133.308,172.0009H122.01972l-3.14247-8.92214H103.091l-3.13014,8.92214H89.16552l16.68589-44.3396h10.77065Zm-16.80912-17.0063-5.44694-15.90951-5.59483,15.90951Z" fill="#005489"/><path d="M164.54778,169.11722a18.83015,18.83015,0,0,1-12.003,3.697c-6.40817,0-12.12624-3.33964-15.71234-6.67928l5.12653-7.56657c3.21641,3.32732,8.15809,5.5825,11.55935,5.5825s5.89058-1.602,5.89058-4.55965-3.2657-4.17764-5.18815-4.92937-5.26209-1.86083-6.7409-2.46468a17.0062,17.0062,0,0,1-5.26209-3.20408,10.94314,10.94314,0,0,1-3.46287-8.54012,12.47124,12.47124,0,0,1,4.62127-9.67387c2.46468-2.11962,6.54372-3.53681,11.67026-3.53681a21.81241,21.81241,0,0,1,14.061,5.45926l-4.4241,7.25849a15.25635,15.25635,0,0,0-9.85872-4.49805c-3.33964,0-5.77968,1.23234-5.77968,3.98046s2.46468,3.697,4.49805,4.48572,5.18815,1.93477,6.60534,2.46468A17.77037,17.77037,0,0,1,166.31,149.979a11.5963,11.5963,0,0,1,3.46288,8.54012A13.3955,13.3955,0,0,1,164.54778,169.11722Z" fill="#005489"/><polygon points="290 154.514 258.329 154.514 254.866 145.345 286.537 145.345 290 154.514" fill="#53c1b1"/><path d="M187.91293,145.34538c1.61437-5.93988,6.593-9.27952,12.71776-9.27952a16.98162,16.98162,0,0,1,11.47308,4.572l3.2041-8.62638c-1.14607-1.23234-6.08777-5.0033-15.19476-5.0033-11.46077,0-20.87584,6.72858-22.84758,18.26328Z" fill="#005489"/><path d="M212.57207,158.65466a16.34087,16.34087,0,0,1-11.94138,4.68289,12.64381,12.64381,0,0,1-12.5822-8.82356H177.21623c1.9471,11.48541,11.2759,18.26328,22.8476,18.26328,9.04537,0,13.72826-3.697,16.02042-6.03846Z" fill="#005489"/><polygon points="258.329 154.514 227.348 154.514 220.767 172.001 231.55 172.001 234.693 163.079 250.479 163.079 253.621 172.001 264.91 172.001 258.329 154.514" fill="#005489"/><polygon points="240.411 145.345 242.592 139.085 244.761 145.345 254.878 145.345 248.224 127.661 237.453 127.661 230.798 145.345 240.411 145.345" fill="#005489"/></svg>