<svg id="Layer_1" data-name="Layer 1" xmlns="http://www.w3.org/2000/svg" viewBox="0 0 300 300"><path d="M25.11771,115.77654H71.86407a91.14476,91.14476,0,0,1,.11745,10.47165c-3.85524.037-7.71788.01164-11.58006.01621q-5.86127.00693-11.72253.001H37.00644v17.82547H71.23465v10.58783H36.98749v19.07379c1.069.051,2.131.019,3.19079.02482,1.044.00571,2.088.00125,3.132.00125H62.37056q1.61073,0,3.22146,0,1.566-.00024,3.132-.00093c1.06714-.00016,2.13428,0,3.24463,0v10.458H25.16134C24.9857,183.62539,24.92818,117.0989,25.11771,115.77654Z" fill="#00629b"/><path d="M135.48471,124.96345l-6.57406,8.54867c-.57432-.49189-1.10078-.95352-1.63852-1.40162a25.46242,25.46242,0,0,0-12.62085-5.66462,30.40989,30.40989,0,0,0-4.69044-.46926c-3.00654.00545-5.94556.4385-8.48375,2.265a7.29124,7.29124,0,0,0-3.12249,5.57712,5.37993,5.37993,0,0,0,2.24918,4.80938,15.02534,15.02534,0,0,0,5.18493,2.54147c3.04648.90391,6.12347,1.70625,9.194,2.52768a70.03842,70.03842,0,0,1,10.0032,3.24372,23.98158,23.98158,0,0,1,6.86807,4.27952,15.36386,15.36386,0,0,1,4.834,8.937,20.86172,20.86172,0,0,1-1.04238,11.14474,17.923,17.923,0,0,1-7.59277,8.97553,25.84908,25.84908,0,0,1-8.63855,3.25238,42.0088,42.0088,0,0,1-10.13606.70649,39.9895,39.9895,0,0,1-14.13873-3.02653,31.06664,31.06664,0,0,1-10.58267-7.31408,1.16157,1.16157,0,0,1-.11163-.20972c2.08793-2.89781,4.192-5.81806,6.3485-8.811.21841.19546.43663.37306.63482.57073a28.55923,28.55923,0,0,0,15.219,8.07858,25.12846,25.12846,0,0,0,10.5522-.12973,11.92614,11.92614,0,0,0,5.37454-2.69174,7.64175,7.64175,0,0,0,2.34008-7.85494,7.08951,7.08951,0,0,0-2.79153-3.49744,16.44283,16.44283,0,0,0-4.82217-2.285c-3.19113-.94512-6.40306-1.82311-9.621-2.67373a64.55669,64.55669,0,0,1-9.99437-3.249,21.73326,21.73326,0,0,1-6.93249-4.64682,14.88852,14.88852,0,0,1-3.97621-7.93727,19.2723,19.2723,0,0,1-.14015-5.791,16.9765,16.9765,0,0,1,4.40236-9.48466,22.189,22.189,0,0,1,9.64869-6.05832,32.87327,32.87327,0,0,1,11.18029-1.47447,37.45287,37.45287,0,0,1,14.89277,3.23,31.48557,31.48557,0,0,1,8.2936,5.52312C135.18306,124.62194,135.29451,124.75925,135.48471,124.96345Z" fill="#00629b"/><path d="M148.60929,173.70123l6.32069-8.75348c1.47547,1.23064,2.8578,2.50867,4.36545,3.61611a27.53291,27.53291,0,0,0,12.07424,5.04179,25.36519,25.36519,0,0,0,9.93525-.2012,11.3044,11.3044,0,0,0,6.02176-3.29033,7.34822,7.34822,0,0,0,1.80172-7.119,6.32086,6.32086,0,0,0-2.55868-3.45425,17.38465,17.38465,0,0,0-5.62185-2.65873c-3.6834-1.05943-7.39457-2.02243-11.09437-3.02481a49.62758,49.62758,0,0,1-9.22392-3.29651,20.83727,20.83727,0,0,1-5.34829-3.68876,14.84716,14.84716,0,0,1-4.31786-8.33765,17.91829,17.91829,0,0,1,1.50385-11.21587,18.68379,18.68379,0,0,1,7.389-7.81628,26.37275,26.37275,0,0,1,9.79666-3.39038,39.26663,39.26663,0,0,1,10.33638-.11091,33.456,33.456,0,0,1,16.2803,6.09216c1.17412.8573,2.26731,1.82542,3.45775,2.79131-2.24806,2.92013-4.42191,5.74387-6.63695,8.62109-.43986-.37662-.84445-.71727-1.24283-1.065a26.1395,26.1395,0,0,0-11.90116-5.81909,28.32141,28.32141,0,0,0-5.84627-.6494,14.82812,14.82812,0,0,0-7.41532,1.618,7.41976,7.41976,0,0,0-4.01406,5.29642,5.40172,5.40172,0,0,0,1.54828,5.23788,13.636,13.636,0,0,0,4.69741,2.68423,80.90593,80.90593,0,0,0,8.74148,2.50964,79.826,79.826,0,0,1,11.06454,3.432,24.60318,24.60318,0,0,1,7.2093,4.39568,15.08806,15.08806,0,0,1,4.9751,9.33592,21.25331,21.25331,0,0,1-1.069,10.80252,18.14111,18.14111,0,0,1-8.51019,9.52395,27.24036,27.24036,0,0,1-9.03041,2.93687,43.576,43.576,0,0,1-8.55092.4999,38.83691,38.83691,0,0,1-17.14532-4.34247,31.0569,31.0569,0,0,1-7.54869-5.66626C148.91065,174.09078,148.79179,173.923,148.60929,173.70123Z" fill="#00629b"/><path d="M221.94619,184.23444H208.66038l26.87575-68.41856H247.005C246.81623,116.93154,222.919,182.17671,221.94619,184.23444Z" fill="#00629b"/><path d="M242.60671,132.42322c1.943-5.33333,3.8638-10.60553,5.82861-15.99859,8.87894,22.65708,17.7094,45.19046,26.56468,67.78715H261.65971C255.035,167.07245,249.00873,149.71006,242.60671,132.42322Z" fill="#00629b"/><path d="M241.89736,175.36114a8.21272,8.21272,0,0,1-8.3523-8.01458,8.28926,8.28926,0,1,1,8.3523,8.01458Z" fill="#ff5001"/><path d="M25.11771,115.77654H71.86407a91.14476,91.14476,0,0,1,.11745,10.47165c-3.85524.037-7.71788.01164-11.58006.01621q-5.86127.00693-11.72253.001H37.00644v17.82547H71.23465v10.58783H36.98749v19.07379c1.069.051,2.131.019,3.19079.02482,1.044.00571,2.088.00125,3.132.00125H62.37056q1.61073,0,3.22146,0,1.566-.00024,3.132-.00093c1.06714-.00016,2.13428,0,3.24463,0v10.458H25.16134C24.9857,183.62539,24.92818,117.0989,25.11771,115.77654Z" fill="#00629b"/><path d="M135.48471,124.96345l-6.57406,8.54867c-.57432-.49189-1.10078-.95352-1.63852-1.40162a25.46242,25.46242,0,0,0-12.62085-5.66462,30.40989,30.40989,0,0,0-4.69044-.46926c-3.00654.00545-5.94556.4385-8.48375,2.265a7.29124,7.29124,0,0,0-3.12249,5.57712,5.37993,5.37993,0,0,0,2.24918,4.80938,15.02534,15.02534,0,0,0,5.18493,2.54147c3.04648.90391,6.12347,1.70625,9.194,2.52768a70.03842,70.03842,0,0,1,10.0032,3.24372,23.98158,23.98158,0,0,1,6.86807,4.27952,15.36386,15.36386,0,0,1,4.834,8.937,20.86172,20.86172,0,0,1-1.04238,11.14474,17.923,17.923,0,0,1-7.59277,8.97553,25.84908,25.84908,0,0,1-8.63855,3.25238,42.0088,42.0088,0,0,1-10.13606.70649,39.9895,39.9895,0,0,1-14.13873-3.02653,31.06664,31.06664,0,0,1-10.58267-7.31408,1.16157,1.16157,0,0,1-.11163-.20972c2.08793-2.89781,4.192-5.81806,6.3485-8.811.21841.19546.43663.37306.63482.57073a28.55923,28.55923,0,0,0,15.219,8.07858,25.12846,25.12846,0,0,0,10.5522-.12973,11.92614,11.92614,0,0,0,5.37454-2.69174,7.64175,7.64175,0,0,0,2.34008-7.85494,7.08951,7.08951,0,0,0-2.79153-3.49744,16.44283,16.44283,0,0,0-4.82217-2.285c-3.19113-.94512-6.40306-1.82311-9.621-2.67373a64.55669,64.55669,0,0,1-9.99437-3.249,21.73326,21.73326,0,0,1-6.93249-4.64682,14.88852,14.88852,0,0,1-3.97621-7.93727,19.2723,19.2723,0,0,1-.14015-5.791,16.9765,16.9765,0,0,1,4.40236-9.48466,22.189,22.189,0,0,1,9.64869-6.05832,32.87327,32.87327,0,0,1,11.18029-1.47447,37.45287,37.45287,0,0,1,14.89277,3.23,31.48557,31.48557,0,0,1,8.2936,5.52312C135.18306,124.62194,135.29451,124.75925,135.48471,124.96345Z" fill="#00629b"/><path d="M148.60929,173.70123l6.32069-8.75348c1.47547,1.23064,2.8578,2.50867,4.36545,3.61611a27.53291,27.53291,0,0,0,12.07424,5.04179,25.36519,25.36519,0,0,0,9.93525-.2012,11.3044,11.3044,0,0,0,6.02176-3.29033,7.34822,7.34822,0,0,0,1.80172-7.119,6.32086,6.32086,0,0,0-2.55868-3.45425,17.38465,17.38465,0,0,0-5.62185-2.65873c-3.6834-1.05943-7.39457-2.02243-11.09437-3.02481a49.62758,49.62758,0,0,1-9.22392-3.29651,20.83727,20.83727,0,0,1-5.34829-3.68876,14.84716,14.84716,0,0,1-4.31786-8.33765,17.91829,17.91829,0,0,1,1.50385-11.21587,18.68379,18.68379,0,0,1,7.389-7.81628,26.37275,26.37275,0,0,1,9.79666-3.39038,39.26663,39.26663,0,0,1,10.33638-.11091,33.456,33.456,0,0,1,16.2803,6.09216c1.17412.8573,2.26731,1.82542,3.45775,2.79131-2.24806,2.92013-4.42191,5.74387-6.63695,8.62109-.43986-.37662-.84445-.71727-1.24283-1.065a26.1395,26.1395,0,0,0-11.90116-5.81909,28.32141,28.32141,0,0,0-5.84627-.6494,14.82812,14.82812,0,0,0-7.41532,1.618,7.41976,7.41976,0,0,0-4.01406,5.29642,5.40172,5.40172,0,0,0,1.54828,5.23788,13.636,13.636,0,0,0,4.69741,2.68423,80.90593,80.90593,0,0,0,8.74148,2.50964,79.826,79.826,0,0,1,11.06454,3.432,24.60318,24.60318,0,0,1,7.2093,4.39568,15.08806,15.08806,0,0,1,4.9751,9.33592,21.25331,21.25331,0,0,1-1.069,10.80252,18.14111,18.14111,0,0,1-8.51019,9.52395,27.24036,27.24036,0,0,1-9.03041,2.93687,43.576,43.576,0,0,1-8.55092.4999,38.83691,38.83691,0,0,1-17.14532-4.34247,31.0569,31.0569,0,0,1-7.54869-5.66626C148.91065,174.09078,148.79179,173.923,148.60929,173.70123Z" fill="#00629b"/><path d="M221.94619,184.23444H208.66038l26.87575-68.41856H247.005C246.81623,116.93154,222.919,182.17671,221.94619,184.23444Z" fill="#00629b"/><path d="M242.60671,132.42322c1.943-5.33333,3.8638-10.60553,5.82861-15.99859,8.87894,22.65708,17.7094,45.19046,26.56468,67.78715H261.65971C255.035,167.07245,249.00873,149.71006,242.60671,132.42322Z" fill="#00629b"/><path d="M241.89736,175.36114a8.21272,8.21272,0,0,1-8.3523-8.01458,8.28926,8.28926,0,1,1,8.3523,8.01458Z" fill="#ff5001"/></svg>