<svg id="Layer_1" data-name="Layer 1" xmlns="http://www.w3.org/2000/svg" viewBox="0 0 300 300"><title>EPRX_Mark_Light</title><path d="M87.54432,166.19841a46.455,46.455,0,0,0-11.15607-.04863c5.9285,24.3401,19.52324,42.11928,41.99959,52.1577,31.26932,13.96547,59.56927,7.529,84.36661-14.05973,5.60317,5.40444,11.06149,10.66919,16.93658,16.33592-15.85241,15.81256-35.08576,24.7372-57.54644,28.02319v26.00189H138.7633c-1.26163-8.41195.26627-17.06486-.8648-25.5462-47.35625-8.85739-76.07583-36.6323-86.58193-83.77456H25V141.9449c8.70141-1.21025,17.35947.44057,26.13456-.51962,2.61184-23.422,11.69475-43.51321,28.04129-60.18073,16.18906-16.507,36.11035-25.67629,59.19757-29.10415V25.39125h23.34819V52.20394c22.5835,3.38753,41.91076,12.23906,57.45717,27.69729l-16.862,16.358c-24.238-21.08644-52.71575-27.628-83.85669-13.63616C93.68364,93.75527,79.73246,113.8996,75.23915,140.91271c3.79976,1.43872,7.446.78914,11.06655.51943q8.66127.041,17.32254.08186h18.08613c8.20729-16.32075,20.85281-20.67852,34.76914-18.469,11.27947,1.79081,21.52723,12.76264,22.97281,23.90153,1.81118,13.95581-4.3731,26.31018-16.00777,31.97871-14.21361,6.925-25.337,3.43772-40.91809-12.94073H105.999Z" fill="#23aeaa"/><path d="M87.54432,166.19841l18.45472-.21393a24.64393,24.64393,0,0,0,.945,4.17231c8.3137,20.09389,32.06844,31.90222,53.31932,27.02113,22.81605-5.24061,40.74509-28.4029,36.75777-53.5737-4.02965-25.43819-29.70364-45.19279-56.59585-39.38467-18.13191,3.91611-33.68239,19.24148-36.79707,37.29445q-8.66127-.04091-17.32254-.08186c.71653-11.48727,5.4534-21.37753,12.37683-30.305,11.27223-14.53518,26.41557-22.57249,44.43092-25.07521,11.45761-1.59171,22.60886.59369,33.0488,5.45709,21.78552,10.14871,34.56246,27.07244,38.1739,50.9598,5.29738,35.03877-21.46276,67.04027-53.87573,72.37057-31.25936,5.1406-64.55483-14.91879-72.7461-46.182A12.93681,12.93681,0,0,1,87.54432,166.19841Z" fill="#bee7e5"/><path d="M275,142.94465v22.77007H244.61784V142.94465Z" fill="#23aeaa"/></svg>