<svg id="Layer_1" data-name="Layer 1" xmlns="http://www.w3.org/2000/svg" xmlns:xlink="http://www.w3.org/1999/xlink" viewBox="0 0 300 300"><defs><linearGradient id="linear-gradient" x1="132.65292" y1="1142.60515" x2="132.65292" y2="986.07678" gradientTransform="matrix(1, 0, 0, -1, 0, 1216.73275)" gradientUnits="userSpaceOnUse"><stop offset="0" stop-color="#26345a"/><stop offset="0.33" stop-color="#4065a8"/><stop offset="0.63" stop-color="#346352"/><stop offset="1" stop-color="#2d5e3e"/></linearGradient><linearGradient id="linear-gradient-2" x1="167.64208" y1="956.24195" x2="167.64208" y2="1111.11406" xlink:href="#linear-gradient"/></defs><path d="M170.74615,132.87278l-31.48951,3.31469-5.52446,10.68064,36.82982-3.683V132.87278Zm-2.2098,31.30536-37.014,3.683v10.31234l37.014-3.683Zm-37.014,33.51512,34.62-3.683v10.31234l-34.62,3.683Z" fill="#2d5c35"/><ellipse cx="141.09814" cy="51.84719" rx="12.15384" ry="12.33799" fill="#27355a"/><path d="M122.68323,130.84713c11.78553-34.43589,7.366-51.93,3.683-56.53376,28.17482-2.76223,25.78086,25.965,20.993,40.51281L134.46876,158.8378c-10.12818,39.22377,3.49884,65.74121,10.8648,71.81817C113.47578,212.24106,108.13544,173.56974,122.68323,130.84713Z" fill="url(#linear-gradient)"/><path d="M177.37553,204.50676c-11.41726,33.88343-7.1818,51.37761-3.683,55.79715-27.62236,2.76226-25.22844-25.7809-20.44055-40.32863l12.89044-43.275c9.75992-38.67132-3.683-65.18876-10.86479-71.08156C186.583,124.0336,191.73913,161.9683,177.37553,204.50676Z" fill="url(#linear-gradient-2)"/></svg>