<svg id="Layer_1" data-name="Layer 1" xmlns="http://www.w3.org/2000/svg" viewBox="0 0 300 300"><defs><style>.cls-1{fill:#f28b20;}.cls-2{fill:#55c9e9;}.cls-3{fill:#9a9735;}</style></defs><g id="_f28b20ff" data-name="#f28b20ff"><path id="Layer" class="cls-1" d="M113.14,59A97.54,97.54,0,0,1,190,60.42c32.14,14.27,55,47.13,57.08,82.47-15.09-.5-30.23-.33-45.32-.37a53.16,53.16,0,0,0-20.66-35,51.82,51.82,0,0,0-49.46-7.05c-22.14,8-36.9,32.37-33.41,55.87,2.66,24.29,24.31,44.61,48.59,45.6,15.58.09,31.16,0,46.74,0v45.56c-15.13,0-30.26,0-45.39,0a97.65,97.65,0,0,1-94.93-86.1A98.29,98.29,0,0,1,68,96.79,97.19,97.19,0,0,1,113.14,59Z"/></g><g id="_55c9e9ff" data-name="#55c9e9ff"><path id="Layer-2" data-name="Layer" class="cls-2" d="M202.12,150.76h45.31v45.61H202.12Z"/></g><g id="_9a9735ff" data-name="#9a9735ff"><path id="Layer-3" data-name="Layer" class="cls-3" d="M202.12,202.31h45.31V248.2H202.12Z"/></g></svg>