<svg id="Layer_1" data-name="Layer 1" xmlns="http://www.w3.org/2000/svg" viewBox="0 0 300 300"><defs><style>.cls-1{fill:#384a68;}.cls-2{fill:#009490;}</style></defs><path id="path42922" class="cls-1" d="M230,189.25a.74.74,0,0,1-.57-.27c-.43-.52-43.74-52.74-59.57-68.56C155.41,106,107.45,67,106.92,66.49a.73.73,0,0,1-.22-1,.74.74,0,0,1,1-.22l.13.11c.47.4,48.54,39.56,63,54,15.86,15.88,59.22,68.15,59.67,68.67a.73.73,0,0,1-.11,1h0a.7.7,0,0,1-.44.16Z"/><path id="path42924" class="cls-1" d="M192.29,235.07a.8.8,0,0,1-.46-.16c-.53-.45-52.8-43.8-68.66-59.67-14.48-14.48-53.64-62.54-54-63a.73.73,0,0,1,.11-1,.74.74,0,0,1,1,.1c.39.49,39.5,48.5,53.92,62.92C140,190,192.29,233.36,192.76,233.81a.73.73,0,0,1,.08,1,.67.67,0,0,1-.55.25Z"/><path id="path42926" class="cls-1" d="M111.46,231a.79.79,0,0,1-.56-.25.72.72,0,0,1,.09-1h0c.52-.45,52.75-43.76,68.57-59.58C194,155.71,233,107.76,233.5,107.23a.7.7,0,0,1,1-.11h0a.72.72,0,0,1,.1,1c-.4.47-39.55,48.54-54,63-15.88,15.86-68.15,59.23-68.67,59.68A.75.75,0,0,1,111.46,231Z"/><path id="path42928" class="cls-1" d="M65.61,193.3a.65.65,0,0,1-.46-.16.72.72,0,0,1-.09-1c.43-.52,43.8-52.8,59.67-68.67,14.48-14.48,62.54-53.63,63-54a.73.73,0,0,1,1.05,1,.69.69,0,0,1-.13.11c-.49.38-48.5,39.49-62.92,53.91-15.83,15.84-59.14,68.05-59.57,68.58a.77.77,0,0,1-.57.25Z"/><path id="path42930" class="cls-2" d="M180.06,219.52h0a.56.56,0,0,1-.49-.59c0-.51,4.79-50.76,4.79-73.14,0-20.41-4.54-64.21-4.59-64.66a.54.54,0,0,1,.48-.58.53.53,0,0,1,.59.44v0c0,.44,4.61,44.29,4.61,64.76,0,22.43-4.76,72.78-4.8,73.24a.55.55,0,0,1-.59.49Z"/><path id="path42932" class="cls-2" d="M219,119.84h0c-.5,0-50.75-4.8-73.15-4.8-20.43-.06-62.21,4.4-62.64,4.4a.54.54,0,0,1-.14-1.07h0c.41,0,42.24-4.46,62.69-4.46,22.45,0,72.78,4.76,73.26,4.82a.54.54,0,0,1,0,1.07Z"/><path id="path42934" class="cls-2" d="M145.83,185.33c-20.45,0-62.28-4.32-62.69-4.37a.52.52,0,0,1-.48-.56v0a.5.5,0,0,1,.53-.48h0c.43,0,42.19,4.37,62.59,4.37,22.4,0,67.69-4.32,68.15-4.37a.49.49,0,0,1,.57.4.19.19,0,0,1,0,.08.54.54,0,0,1-.47.59h0C213.62,181,168.28,185.33,145.83,185.33Z"/><path id="path42936" class="cls-2" d="M119.62,219.52a.53.53,0,0,1-.54-.49c0-.5-4.79-50.81-4.79-73.24,0-20.47,4.56-64.32,4.6-64.76a.54.54,0,0,1,1.07.1h0c0,.45-4.61,44.25-4.61,64.66,0,22.38,4.76,72.63,4.8,73.14a.54.54,0,0,1-.49.59Z"/><path id="path42938" class="cls-1" d="M205.16,201.82a1.11,1.11,0,0,1-1-.75c-.16-.5-16-49.43-24.92-70C171.13,112.4,150.2,75,150,74.57a1.09,1.09,0,0,1,1.89-1.06c.24.42,21.22,37.92,29.35,56.74,8.91,20.62,24.82,69.65,25,70.15a1.09,1.09,0,0,1-.68,1.37A1.33,1.33,0,0,1,205.16,201.82Z"/><path id="path42940" class="cls-1" d="M73.47,150a1.08,1.08,0,0,1-1-.57,1,1,0,0,1,.35-1.45l.06,0c.42-.24,38.62-21.69,57.5-29.8,20.62-8.91,70.36-25.06,70.88-25.25a1.09,1.09,0,0,1,.89,2L202,95c-.52.16-50.18,16.34-70.7,25.15-18.72,8.08-56.88,29.47-57.29,29.7A.91.91,0,0,1,73.47,150Z"/><path id="path42942" class="cls-1" d="M99.45,205.93a1.08,1.08,0,0,1-1-1.12,1.1,1.1,0,0,1,.73-1c.44-.13,43.36-13.6,62.08-21.68,20.52-8.92,63.48-32.4,64-32.68a1.08,1.08,0,0,1,1,1.9c-.47.25-43.52,23.84-64.13,32.68-18.79,8.18-61.87,21.71-62.3,21.85A1.12,1.12,0,0,1,99.45,205.93Z"/><path id="path42944" class="cls-1" d="M148.28,228a1.08,1.08,0,0,1-1-.59c-.22-.45-22.89-45-31.79-65.59C107.41,143,93.71,99.43,93.58,99a1.08,1.08,0,1,1,2-.66h0c.15.46,13.8,43.89,21.88,62.59,8.91,20.55,31.5,65,31.73,65.48a1.09,1.09,0,0,1-.44,1.47h0a1,1,0,0,1-.49.09Z"/><path id="path42946" class="cls-2" d="M91.84,220.44a1.34,1.34,0,0,1-.4,0,1.48,1.48,0,0,1-1-1.78c.19-.65,19.31-65.86,27.58-86.76,7.56-19.06,36.2-74.09,36.48-74.65a1.49,1.49,0,0,1,2.89.7,1.57,1.57,0,0,1-.33.64c-.28.54-28.85,55.44-36.36,74.38-8.25,20.8-27.3,85.84-27.5,86.51A1.47,1.47,0,0,1,91.84,220.44Z"/><circle id="circle42948" class="cls-2" cx="158.18" cy="53.33" r="1.75"/><circle id="circle42950" class="cls-2" cx="160.79" cy="48.37" r="1.75"/><circle id="circle42952" class="cls-2" cx="90.28" cy="224.27" r="1.75"/><circle id="circle42954" class="cls-2" cx="88.81" cy="229.56" r="1.75"/><path id="path42956" class="cls-2" d="M144.38,243.67a1.53,1.53,0,0,1-.66-.16,1.49,1.49,0,0,1-.63-1.93c.31-.61,31.07-61.05,39.31-81.81,7.52-18.94,24.38-78.47,24.54-79.08a1.49,1.49,0,1,1,3,.11,1.53,1.53,0,0,1-.19.67c-.18.6-17.08,60.29-24.64,79.35-8.29,20.9-39.11,81.46-39.42,82.07a1.5,1.5,0,0,1-1.28.78Z"/><circle id="circle42958" class="cls-2" cx="209.54" cy="76.16" r="1.75"/><circle id="circle42960" class="cls-2" cx="210.94" cy="70.84" r="1.75"/><circle id="circle42962" class="cls-2" cx="142.15" cy="246.67" r="1.75"/><circle id="circle42964" class="cls-2" cx="139.71" cy="251.63" r="1.75"/><path id="path42966" class="cls-2" d="M219,209.72h-.4c-.65-.2-65.86-19.31-86.76-27.58-19.07-7.58-74.1-36.2-74.65-36.48a1.49,1.49,0,0,1,1.34-2.56c.55.28,55.44,28.85,74.37,36.36,20.79,8.25,85.85,27.3,86.5,27.49a1.41,1.41,0,0,1-.4,2.77Z"/><circle id="circle42968" class="cls-2" cx="53.18" cy="141.24" r="1.75"/><circle id="circle42970" class="cls-2" cx="48.25" cy="138.15" r="1.75"/><circle id="circle42972" class="cls-2" cx="223.92" cy="209.52" r="1.75"/><circle id="circle42974" class="cls-2" cx="229.25" cy="210.89" r="1.75"/><path id="path42976" class="cls-2" d="M242.29,157.18a1.23,1.23,0,0,1-.65-.16c-.61-.3-61-31.06-81.83-39.3-18.92-7.52-78.45-24.38-79.06-24.54a1.44,1.44,0,0,1,.78-2.78c.6.18,60.29,17.07,79.35,24.64,20.9,8.29,81.46,39.11,82.06,39.42a1.48,1.48,0,0,1-.65,2.72Z"/><circle id="circle42978" class="cls-2" cx="76.19" cy="90.37" r="1.75"/><circle id="circle42980" class="cls-2" cx="70.79" cy="89.15" r="1.75"/><circle id="circle42982" class="cls-2" cx="246.81" cy="157.84" r="1.75"/><circle id="circle42984" class="cls-2" cx="251.75" cy="160.26" r="1.75"/></svg>