<svg id="Layer_1" data-name="Layer 1" xmlns="http://www.w3.org/2000/svg" viewBox="0 0 300 300"><path d="M274.826,169.819c-6.76985,49.96593-48.43226,96.64049-105.47742,105.177V234.69086c33.67282-9.84232,55.35831-31.39227,65.21728-64.87184Z" fill="#22375a"/><path d="M25,169.886H61.98754c10.61976,34.16854,32.88879,56.6323,68.26873,65.40686v39.10388C84.89736,270.31683,33.52593,228.93735,25,169.886Z" fill="#69bae3"/><path d="M169.87845,62.01193V25.13064c49.76736,6.185,97.112,48.83418,105.12155,105.01215H235.51676C226.68417,95.50138,204.73269,72.47228,169.87845,62.01193Z" fill="#99c357"/><path d="M61.61414,130.34281H25.1445c6.27993-50.89746,50.027-97.83054,104.8859-105.33888,1.15255,5.92912.39286,11.92783.526,17.87493.13457,6.00953.02965,12.02443.02965,18.50888-17.30145,4.10513-32.36432,11.8737-44.78771,24.34311C73.5159,98.05882,65.647,112.81881,61.61414,130.34281Z" fill="#22375a"/></svg>