<svg id="Layer_1" data-name="Layer 1" xmlns="http://www.w3.org/2000/svg" viewBox="0 0 300 300"><path d="M136.71977,148.61039l12.10528,12.63978-12.95973,12.39176L123.86681,162.284ZM123.6532,134.72587l13.17342-13.70836L149.14551,133.801l-13.35139,12.63747Zm26.3824-27.45149L162.81729,120.591,150.0356,132.839l-12.78183-12.28281Zm26.38233,27.59288-12.14084,11.6083L151.1036,133.801l12.24761-12.71164Zm0,27.41672-12.14084,11.46458-12.99544-12.49839L163.387,148.64748Zm-38.95047-14.24149,12.56814-13.24477,12.74612,13.24477L150.0356,160.075Zm12.78176,39.37734-12.49694-11.89108,12.28332-13.03152,12.4613,12.95966Zm-78.11457,28.483L123.58192,162.284l11.57121,12.03248L91.93031,215.90281h6.83585l38.096-39.66245,11.92723,12.38944-28.483,27.273h5.37619l24.53094-25.70607,24.7447,25.70607H180.37l-28.483-27.273,11.57121-12.10434,37.88234,39.51874h6.80028l-42.97364-41.4774,11.53557-12.06957,51.2338,53.40558h8.54484l-57.7492-55.54273,4.52167-4.73557-4.73528,4.52232-13.60065-13.06629,11.71362-12.17619,77.68733,80.99846H265L178.51858,132.839l1.21047-1.28182-1.24611,1.21-13.67185-13.20768,9.43485-9.82811-9.96885,9.39929-13.387-12.816,21.36223-22.359L150.0356,105.318,127.78328,83.9558l21.36223,22.359-13.35139,12.816-9.71982-9.39929,9.39929,9.82811-13.921,13.17291-1.175-1.14043,1.13928,1.1752L35,215.90281H45.68112l77.93651-81.03555,11.71362,12.17851L121.7306,160.075l-4.66407-4.45046,4.4861,4.666-57.963,55.61227Z" fill="#4f5362"/></svg>