<svg id="Layer_1" data-name="Layer 1" xmlns="http://www.w3.org/2000/svg" xmlns:xlink="http://www.w3.org/1999/xlink" viewBox="0 0 300 300"><defs><linearGradient id="linear-gradient" x1="150" y1="250.11" x2="150" y2="49.89" gradientUnits="userSpaceOnUse"><stop offset="0.01" stop-color="#700f36"/><stop offset="1" stop-color="#b71e39"/></linearGradient></defs><path d="M92.41,231.73a99.92,99.92,0,0,1-33.83-41,3.7,3.7,0,0,1-.59-2l4.74-2.38C71.48,182,80.22,177.66,89,173.39a30.06,30.06,0,0,1,27.46-.13q9.58,4.61,19.07,9.39c9.42,4.74,18.86,4.92,28.37.35,3.44-1.65,6.93-3.2,10.33-4.92a7.35,7.35,0,0,0,2.34-11.4,9.62,9.62,0,0,0-3.09-2.19L143.62,149.3l-26.29-13.37q-14.44-7.34-28.89,0L51.6,154.67c-.4.2-.83.37-1.28.57-2.24-23.68,6.75-61.18,40.58-86.08A100.14,100.14,0,0,1,201.72,64.3c36.49,22.18,50.21,60.54,48.06,90.85a5,5,0,0,1-2.16-.87l-63.3-32.21c-6.85-3.49-13.67-7.06-20.57-10.45a29.77,29.77,0,0,0-27.26-.14c-4,1.91-7.87,4-11.81,6a7.37,7.37,0,0,0,.09,13.41l27.35,13.5,59.74,29.45,28.43,14a4.82,4.82,0,0,1,1.73,1,5.89,5.89,0,0,1-.81,2.22c-14.32,30-37.48,49.26-70,56.5-27.38,6.1-53,1-76.57-14.26-.62-.39-1.19-.85-1.78-1.29A.42.42,0,0,0,92.41,231.73Z" fill="url(#linear-gradient)"/></svg>