<svg id="Layer_1" data-name="Layer 1" xmlns="http://www.w3.org/2000/svg" xmlns:xlink="http://www.w3.org/1999/xlink" viewBox="0 0 300 300"><defs><linearGradient id="linear-gradient" x1="150" y1="272.19961" x2="150" y2="87.07059" gradientUnits="userSpaceOnUse"><stop offset="0" stop-color="#61b0ae"/><stop offset="1" stop-color="#28636f"/></linearGradient></defs><path d="M219.91347,169.31914H145.0502c1.24652-6.64157,2.23281-12.69264,6.619-18.03275,7.19286-8.75722,16.4982-11.287,27.16047-11.17927,22.63944.22875,45.27977.36706,67.91967.54923.8454.0068,1.69025.08439,3.2491.16666,0,6.24582-.00686,12.41847.00152,18.59111.01482,10.89172-3.37874,21.12968-6.851,31.178-2.25948,6.53868-5.96537,12.72831-9.86074,18.51008-4.2081,6.246-8.77439,12.51673-14.31354,17.52886-6.17439,5.587-13.56013,9.85811-20.52836,14.53859-7.60445,5.10784-16.37133,7.48526-25.12071,9.41353-6.01175,1.325-12.34174,1.18634-18.52393,1.76155-13.71838,1.27638-26.816-1.75106-39.3984-6.60951-9.82594-3.79407-19.20481-8.77594-27.05443-16.0938-4.90181-4.56975-10.2334-8.784-14.53762-13.86468-6.55356-7.73593-12.3033-16.115-15.6561-25.89138-1.419-4.13756-3.73335-8.02634-4.71969-12.24361-3.754-16.05077-4.73855-32.12737-1.40764-48.5514A105.23128,105.23128,0,0,1,65.179,95.83864,81.99892,81.99892,0,0,1,85.1766,72.69717c7.029-5.42481,14.26739-10.79253,22.07409-14.9421,10.17574-5.4088,21.40562-8.05153,32.88778-9.64922,13.1561-1.83061,26.007.00888,38.841,2.39986,2.7078.50446,5.27265,1.80237,7.88671,2.77927a92.204,92.204,0,0,1,42.12443,31.09177c4.54457,6.001,8.51671,12.43549,13.0163,19.06653l-29.21044,8.51253c-3.85278-5.09408-7.13532-10.43011-11.40717-14.79879-4.16679-4.26124-9.30948-7.58019-14.09815-11.21474a25.70508,25.70508,0,0,0-5.28537-3.23973c-15.18342-6.50641-30.65584-8.35233-46.969-4.20569a76.70123,76.70123,0,0,0-20.96151,8.77686c-7.75331,4.69889-14.82161,10.63178-19.964,18.32035a118.08868,118.08868,0,0,0-9.20355,15.52737c-4.46068,9.58024-6.85746,19.89734-6.12366,30.4243a98.20358,98.20358,0,0,0,4.52163,23.90932c2.096,6.316,6.16508,12.0423,9.77661,17.767a50.6653,50.6653,0,0,0,8.319,10.37,89.6281,89.6281,0,0,0,13.25668,9.87618c14.50861,9.01524,30.35707,11.2874,47.25477,9.89424a60.30514,60.30514,0,0,0,23.26539-6.87387,73.18545,73.18545,0,0,0,16.67664-12.66489C211.87064,194.03361,216.25629,183.31167,219.91347,169.31914Z" fill="url(#linear-gradient)"/></svg>