<svg id="Layer_1" data-name="Layer 1" xmlns="http://www.w3.org/2000/svg" viewBox="0 0 300 300"><path d="M116.87745,105.981c0,1.31333.00785,2.75132-.00168,4.18918-.01834,2.76885-.01765,5.53825-.07808,8.30626-.07215,3.30467-.1983,6.60818-.30569,9.912a8.10314,8.10314,0,0,0,.1187,1.74813,2.91382,2.91382,0,0,0,2.66643,2.38546,20.42561,20.42561,0,0,0,3.09935.13144c6.59772-.00477,13.19551.0027,19.79315-.02366,5.91981-.02365,11.83944-.08732,17.75919-.12866a11.54223,11.54223,0,0,1,2.55384.18138c1.23057.26824,1.61623.864,1.42757,2.14547a6.13857,6.13857,0,0,1-.23837,1.04963A47.56731,47.56731,0,0,1,88.716,157.76736,48.00748,48.00748,0,0,1,71.80848,130.863a42.69755,42.69755,0,0,1-1.00167-13.20227A56.39976,56.39976,0,0,1,73.62,103.55435a43.58883,43.58883,0,0,1,8.83055-15.0879A48.03854,48.03854,0,0,1,96.182,78.02832a55.23469,55.23469,0,0,1,12.80648-4.8874,41.43306,41.43306,0,0,1,12.79977-.96311,42.74738,42.74738,0,0,1,18.67312,6.09552,57.1626,57.1626,0,0,1,13.35551,11.17582,8.58188,8.58188,0,0,0,1.1319,1.0599,2.413,2.413,0,0,0,2.89288.19708,11.10648,11.10648,0,0,0,1.37681-.97121c3.86718-3.056,7.89567-5.8962,11.83863-8.85081a27.50653,27.50653,0,0,0,3.44353-2.8196c.15584-.16193.31118-.326.45052-.50187a2.10422,2.10422,0,0,0,.18275-2.568,13.90859,13.90859,0,0,0-1.98058-2.46789A77.10338,77.10338,0,0,0,163.322,63.595a77.91931,77.91931,0,0,0-19.221-10.51624,19.02194,19.02194,0,0,0-2.69855-.83583,3.438,3.438,0,0,1-2.56414-1.88922c-.03692-.0789-.1009-.15122-.0357-.2771.15864-.11222.36595-.05341.558-.05343q47.593-.00448,95.18607.01538c4.07385.00424,8.14887.04038,12.22292.02462a7.83029,7.83029,0,0,1,3.193.78605c0,.86533.00284,1.71877-.00053,2.57219q-.01823,4.62684-.03993,9.25367c-.01,2.22875.01028,4.45818-.03836,6.68609-.09731,4.45661-.06747,8.91342-.0747,13.37021-.00306,1.89129-.02523,3.78363.02695,5.67368.082,2.96979.05174,5.941.14176,8.90964a16.84323,16.84323,0,0,1-.16034,3.55765,4.07226,4.07226,0,0,1-3.80124,3.67792,13.64474,13.64474,0,0,1-2.15132.15712q-8.07263-.01085-16.14525-.02071-5.57292-.008-11.14582-.01931-32.86483-.018-65.72968-.03063-9.55835-.00249-19.11668.03041c-2.20662.00409-4.41391-.01807-6.61961.03047-1.53787.03384-3.04922-.22894-4.57636-.291A4.203,4.203,0,0,0,116.87745,105.981Z" fill="#6b6e71"/><path d="M50.81519,151.95952a76.25408,76.25408,0,0,0,4.42829,7.44173,72.47795,72.47795,0,0,0,28.18982,24.4953,77.03684,77.03684,0,0,0,19.21736,6.46238,79.17057,79.17057,0,0,0,18.25356,1.43987,78.16953,78.16953,0,0,0,19.3159-3.13149A75.04585,75.04585,0,0,0,181.523,158.62865a1.61705,1.61705,0,0,1,.45823-.50088v.64273q0,11.88867-.00084,23.77735c-.00365,7.65513.014,15.31044-.03494,22.96531q-.03149,4.92975-.02827,9.8593.01,10.02936.06573,20.05864c.01216,2.88077.05288,5.76147.05855,8.64224a11.02637,11.02637,0,0,1-.31,2.80577,3.66943,3.66943,0,0,1-2.80746,2.78838,10.1058,10.1058,0,0,1-2.67038.32464c-7.40623-.025-14.81263-.03333-22.21853-.09848-2.67878-.02357-5.35732-.01288-8.0359-.03338-15.33263-.11731-30.66554-.05-45.99832-.06508-4.1203-.004-8.241-.01946-12.36079.03218-2.79093.035-5.58154-.00394-8.37188.03475-6.03254.08363-12.06569.04126-18.09816.09983-1.86749.01811-3.73489.019-5.60229.03006a11.2843,11.2843,0,0,1-2.2125-.20517,3.54425,3.54425,0,0,1-3.104-3.18108,11.8683,11.8683,0,0,1-.163-2.01556c.01718-6.46144.01983-12.92291.0485-19.38428.10053-22.6505.01643-45.30109.03751-67.95163.00067-.71717-.09671-1.43459-.15168-2.15164A4.363,4.363,0,0,1,50.81519,151.95952Z"/><path d="M249.74031,249.64194a2.1759,2.1759,0,0,1-.83914.08131c-2.79207.003-5.58418-.00614-8.37622.00364-5.51521.01935-11.03047.03607-16.54551.0792-2.63206.02058-5.26361.1017-7.8955.14972a9.81448,9.81448,0,0,1-2.14973-.15409,3.1339,3.1339,0,0,1-2.64282-2.61886,9.58427,9.58427,0,0,1-.18922-2.01149q.00922-8.98251.03394-17.965c.00343-1.48568.02077-2.97136.02121-4.457q.01138-37.62411.01969-75.24819.0014-5.67342.004-11.34685a6.22443,6.22443,0,0,1,.24932-1.73038,2.53066,2.53066,0,0,1,2.27444-1.91422,19.288,19.288,0,0,1,3.30265.021q4.52255.16965,9.04587.08178,6.24515-.11935,12.49017-.09851c3.62353.00964,7.23777.21365,10.84456.55669a1.29146,1.29146,0,0,1,.57242.16146Q249.85043,191.40216,249.74031,249.64194Z" fill="#b51e2b"/><path d="M95.49347,50.99269c-.96831.38425-1.92207.75556-2.87044,1.14017A84.71047,84.71047,0,0,0,71.22967,64.51692,76.20388,76.20388,0,0,0,53.12235,85.58816c-.45391.77368-.89015,1.55772-1.348,2.36044A8.5827,8.5827,0,0,1,50.18,87.541a1.33473,1.33473,0,0,1-.07129-.69086q-.00465-16.78288-.00521-33.56576a4.09826,4.09826,0,0,1,.34333-1.83832,2.087,2.087,0,0,1,1.66349-1.22317,5.82329,5.82329,0,0,1,.8072-.0472q7.93577-.00392,15.87151.00151c2.83556.00645,5.67145.02626,8.50643.07988q5.29537.10017,10.58934.2709c2.40327.07743,4.80468.21214,7.20691.3218A.43825.43825,0,0,1,95.49347,50.99269Z" fill="#b51e2b"/></svg>