<svg id="Layer_1" data-name="Layer 1" xmlns="http://www.w3.org/2000/svg" xmlns:xlink="http://www.w3.org/1999/xlink" viewBox="0 0 300 300"><defs><linearGradient id="linear-gradient" x1="25" y1="150" x2="275" y2="150" gradientUnits="userSpaceOnUse"><stop offset="0" stop-color="#0b4d61"/><stop offset="1" stop-color="#1b87a3"/></linearGradient></defs><title>GLMD_Mark_Light</title><path d="M134.85247,170.154a130.60235,130.60235,0,0,0-14.59315,26.24512c-3.948,9.13023-7.75076,18.323-11.78031,27.875a25.24605,25.24605,0,0,1-3.23234-.44841c-13.4622-3.46588-26.68214-7.689-39.06414-14.06382-15.79037-8.1296-28.52094-19.4735-36.01206-35.93974-4.76541-10.47485-6.00435-21.49267-4.66307-32.82711,2.5685-21.70511,14.49969-37.22266,32.53642-48.637a102.19386,102.19386,0,0,1,45.67724-15.60441c5.95359-.55916,11.94509-1.00052,17.91981-1.00681q75.22419-.07925,150.44861.0394c.84371.00054,1.68738.072,2.91052.12763-.19412,2.23331-.22827,4.36357-.58681,6.438-1.27247,7.36218-2.4854,14.74117-4.031,22.04848A89.391,89.391,0,0,1,246.75776,149.089a85.13,85.13,0,0,1-40.73251,23.37155,118.65214,118.65214,0,0,1-29.31876,3.6278,140.41181,140.41181,0,0,1-34.43144-4.15331C139.88876,171.33673,137.49058,170.78561,134.85247,170.154Zm-25.06529-9.1956c-.31244-.43049-.63016-.89347-.97314-1.337-4.35685-5.6341-8.73332-11.25324-13.05919-16.9109a27.77062,27.77062,0,0,1-1.789-3.23579h30.964c9.78088-12.87922,20.09809-24.90407,31.8561-35.64455a11.8042,11.8042,0,0,0,1.39186-2.22787c-1.73367-.15009-2.91444-.33967-4.09541-.34089q-15.70056-.01622-31.40117.02528a112.29486,112.29486,0,0,0-25.45292,2.70118c-12.00511,2.80109-23.11615,7.44988-32.60029,15.54244-16.89085,14.41249-18.67529,38.66255-4.17022,54.22422,8.42687,9.04071,18.99284,14.70706,30.33985,19.12788a6.98462,6.98462,0,0,0,1.95553.22954Zm136.05768-60.74421a8.8845,8.8845,0,0,0-1.44092-.31426,183.9223,183.9223,0,0,0-32.63444,2.44719,69.52089,69.52089,0,0,0-27.89389,10.86408c-12.58954,8.60262-22.42933,19.82581-31.19148,32.10686a13.83717,13.83717,0,0,0-.998,2.12856,21.00268,21.00268,0,0,0,2.08244.68513,107.94219,107.94219,0,0,0,39.372,1.02686A61.28819,61.28819,0,0,0,218.91878,139.107c12.93693-9.04728,21.204-21.50551,26.37947-36.19076A19.88556,19.88556,0,0,0,245.84486,100.21415Z" fill="url(#linear-gradient)"/></svg>