<svg id="Layer_1" data-name="Layer 1" xmlns="http://www.w3.org/2000/svg" viewBox="0 0 300 300"><path d="M233.78234,147.49288h-20.916c-5.026-8.12333-4.903-15.8309-.79307-24.0695h48.89034c3.55568,2.46287,3.84883,6.29452,3.85978,10.03106.06175,21.09382.44114,42.20048-.15059,63.27862-.59,21.01646-12.18735,34.75554-31.13634,42.77228-13.78423,5.83172-28.43907,7.801-43.16539,8.095-28.06078.56011-56.14627.90865-84.20234-.21911-13.5796-.54585-27.00091-2.51136-39.71627-7.8253-20.53019-8.57987-31.41225-23.66834-31.42595-46.13431q-.02748-45.079.0136-90.15789c.04779-20.77933,10.19709-34.77075,29.119-42.90045,15.46483-6.64442,31.77494-8.2461,48.32746-8.41095,13.89337-.13838,27.7893-.05887,41.6838-.00241a32.66384,32.66384,0,0,1,7.76237.64021c5.13488,1.291,8.15231,5.58371,8.17078,10.90443.02065,5.94634-2.95828,9.96721-8.68806,11.26335a52.402,52.402,0,0,1-11.19232,1.09165c-15.90825.12554-31.82526-.57332-47.725.45664a61.56486,61.56486,0,0,0-17.67922,3.92705C72.86412,84.722,65.8258,92.96025,65.89256,106.27608c.042,8.3798-.00136,16.76005-.00212,25.14009q-.00247,26.874.01877,53.74793c.00707,3.16722.24069,6.33529.41416,9.50053.55731,10.16887,5.8311,17.31217,14.56569,22.03044,9.63634,5.20536,20.23149,6.95294,30.96388,7.06747,25.47075.27185,50.94727.20758,76.41957.02265a71.36855,71.36855,0,0,0,26.24553-5.08138c11.75792-4.73083,19.0435-12.972,19.21922-26.1124C233.93377,177.89622,233.78234,163.19639,233.78234,147.49288Z"/><path d="M151.13036,185.52531a34.06494,34.06494,0,0,1-33.92172-35.05392c.49714-16.8022,12.8615-33.4191,34.65187-33.46818,19.17239-.0432,33.79095,15.36133,34.03766,34.16853C186.145,169.98477,169.99624,185.72847,151.13036,185.52531Z" fill="#50914e"/></svg>