<svg id="Layer_1" data-name="Layer 1" xmlns="http://www.w3.org/2000/svg" viewBox="0 0 300 300"><defs><style>.cls-1{fill:#ef7e02;}.cls-2{fill:#045679;}</style></defs><path class="cls-1" d="M175.55,242.57c5.9-4,11.81-8.06,17.69-12.14,1.16-.8,2.77-1.45,2.19-3.48-1.69-.22-2.74.84-3.86,1.58-4.61,3-9.16,6.15-13.76,9.19a8.56,8.56,0,0,1-3,1.72c-.23-.49-.47-1-.71-1.45,5.87-4.54,12.32-8.21,18.37-12.48a24.48,24.48,0,0,0,2.5-1.93,1.47,1.47,0,0,0,.37-2.05c-1.46-.48-2.53.57-3.65,1.29-5,3.27-10,6.59-15.06,9.86a11.22,11.22,0,0,1-3.34,1.92c-.3-.51-.59-1-.89-1.55,5.63-4.25,11.75-7.75,17.57-11.71,1.33-.9,2.93-1.62,3-3.68-1.61-1-2.72.13-3.84.84-4.77,3-9.5,6.09-14.26,9.12-1,.63-2,1.18-3,1.77l-.84-1.85c1.05-.74,2.08-1.53,3.16-2.22,3.36-2.17,6.77-4.26,10.1-6.46,1.3-.85,2.83-1.73,2.06-3.74-1.8-.45-2.89.6-4.06,1.3-3.92,2.36-7.81,4.79-11.71,7.19l-.85-2c1.56-1.79,4.75-2.15,4.92-5.47-2.19-1.1-3.58.64-5.22,1.14-.3-1.34-.6-2.67-.91-4,1.21-1.39,3.8-1.94,3-4.56a3.74,3.74,0,0,0-3.15-.05c-.25-.89-.5-1.77-.76-2.65,1.18-.78,2.32-1.59,3.52-2.31,2.31-1.4,4.69-2.69,7-4.12,1.39-.87,2.75-1.89,2-3.89-2.26-.4-2.26-.4-4,.54-2.78,1.5-5.38,3.35-8.31,4.58l-.56-3c1-.62,2-1.27,3-1.85,3.66-2.1,7.36-4.14,11-6.28,1.59-.94,3.21-2,2.46-4.37-1.73-.82-3.06-.08-4.4.66-4,2.2-8,4.38-12,6.57-.18-1.09-.35-2.17-.52-3.26,1.2-.73,2.38-1.5,3.61-2.19,3.5-2,7-3.82,10.5-5.82,1.66-.95,3.14-2.15,2.25-4.46-1.82-.91-3.25,0-4.72.7-4,2-7.71,4.53-11.89,6.16l-.72-3.43c3.5-1.92,7-3.83,10.51-5.76,1.79-1,3.47-2.06,3.1-4.45-1.5-1.87-3-1-4.53-.3-3.29,1.53-6.33,3.6-9.79,4.8-.35-1.18-.71-2.36-1.06-3.54,1.2-.7,2.42-1.37,3.61-2.09,1.53-.94,2.79-2.08,2.65-4.14-1-1.6-2.32-1.79-3.91-1.14-1.18.48-2.35,1-3.53,1.47-2.83-9.6-6.31-18.93-11.66-27.47,1.31-1.05,2.94-1.45,4.42-2.15a6.36,6.36,0,0,0,2.77-2.11,3.25,3.25,0,0,0-3-5.29,10.17,10.17,0,0,0-2.7.75c-1.88.7-3.73,1.45-5.59,2.18-1.27-1.58-2.55-3.16-3.82-4.75a9.86,9.86,0,0,1,3.14-1.49c4.24-1.7,8.47-3.4,12.71-5.07a6.37,6.37,0,0,0,3.35-2.43,3.57,3.57,0,0,0,.24-4A3.67,3.67,0,0,0,159,111.5a11.16,11.16,0,0,0-3.35,1c-6.27,2.24-12.36,5-18.75,6.92l-5.12-5c1.18-.52,2.34-1.09,3.54-1.54q10.38-3.85,20.79-7.66a16.87,16.87,0,0,0,2.6-1.06A4.66,4.66,0,0,0,161,98.5c-.79-2.07-3-3-5.6-2.21-2,.6-4,1.37-6,2.06l-27,9.19-8-5.19a11.37,11.37,0,0,1,3.57-1.47L148.4,90.81a18.67,18.67,0,0,0,3.28-1.3,4.79,4.79,0,0,0-3.16-9,28.49,28.49,0,0,0-3.39,1L99,95.77C93.83,93.59,88.34,92.71,83,91.22c7.33-2.57,14.87-4.42,22.32-6.6,9.25-2.71,18.53-5.32,27.8-8a23.76,23.76,0,0,0,2.36-.71c2.69-1.05,4-3.14,3.68-5.74a5.69,5.69,0,0,0-5.25-4.89,12.06,12.06,0,0,0-4.17.62L79,79.39a2.65,2.65,0,0,1-1.71.13c35.2-28.83,100.92-38.17,151.31,4C278.11,125,285,195.92,250.9,245.05H189.61c-1.63,0-3.31.27-4.59-.83-1.55.23-2.78,1.3-4.49.55,1.09-1.48,2.74-2.18,4.11-3.18,1.8-1.32,3.7-2.51,5.52-3.8,1-.73,2.22-1.37,2.46-3-1.21-.94-2.15-.14-3.06.48-3.32,2.23-6.62,4.51-9.94,6.74-1,.65-2,1.2-3,1.8Z"/><path class="cls-2" d="M167.45,206c.26.88.51,1.76.76,2.65-2.39,1.89-5.18,3.15-7.71,4.82-1.34.89-2.84,1.79-2.19,3.83,1.54.8,2.79.15,4-.55l6.07-3.49c.31,1.34.61,2.67.91,4-1.59,1.57-3.7,2.38-5.48,3.68-1.18.86-2.55,1.69-1.9,3.51,1.51.64,2.64.05,3.76-.61,1.3-.76,2.61-1.5,3.92-2.25l.85,2a11.11,11.11,0,0,1-2.83,2c-3.75,2.38-7.52,4.73-11.27,7.11-1.35.85-2.76,1.69-2.86,3.62,1.93,1,3.26,0,4.63-.85l12.78-8,.84,1.85c-5.53,4.2-11.6,7.59-17.36,11.44-1.65,1.1-3.42,2.07-3.81,4.22H49C16,197.81,22.18,130.22,64.77,89.71c.86-.06,1.14.72,1.62,1.18a9,9,0,0,0,8.79,2.39c2.63-.62,5.23-1.37,7.84-2.06,5.32,1.49,10.81,2.37,15.93,4.55-3.67,1.61-7.57,2.52-11.36,3.74-6.71,2.14-13.46,4.18-20.17,6.33-2.14.68-3.75,2-3.93,4.46-.15,2.07,1.3,4,3.81,5a10.18,10.18,0,0,0,7.23.07c4.91-1.63,9.81-3.26,14.73-4.85,8.37-2.72,16.63-5.76,25.1-8.14l8,5.19a10.46,10.46,0,0,1-3.22,1.38L77.26,123.53A29.63,29.63,0,0,0,74,124.8c-1.81.9-3,2.29-2.79,4.47.2,2,1.62,3,3.35,3.69a9.9,9.9,0,0,0,7.22-.35q12.88-4.76,25.8-9.47c8.06-2.93,16.13-5.8,24.19-8.69l5.12,5A9.62,9.62,0,0,1,133.4,121Q111.7,129.35,90,137.63a20.64,20.64,0,0,0-3.51,1.6,3.83,3.83,0,0,0-2,3.87c.23,1.75,1.44,2.57,3,3.13,2.28.84,4.38.24,6.49-.6q12.27-4.92,24.54-9.77c8.19-3.23,16.39-6.41,24.59-9.62,1.27,1.59,2.55,3.17,3.82,4.75-1.16.56-2.3,1.17-3.49,1.66q-17.75,7.33-35.52,14.62c-2.26.93-4.3,2-4.66,4.77.6,2.52,2.44,3.21,4.77,3.21a9.19,9.19,0,0,0,3.7-1c4.33-1.84,8.64-3.7,13-5.53L151,137.61c5.35,8.54,8.83,17.87,11.66,27.47a9.11,9.11,0,0,1-3,1.77l-30.9,15.38a19.42,19.42,0,0,0-3,1.76c-1.31,1-2.05,2.27-1,4.13,2.09,1.38,4.14.53,6.17-.49l33-16.65c.35,1.18.71,2.36,1.06,3.54-.93,1.15-2.33,1.57-3.56,2.21q-16.9,8.79-33.84,17.54a37.06,37.06,0,0,0-4,2.22c-1.28.87-2.42,1.95-1.79,3.89,1.34,1.34,3,1.07,4.53.51a22.85,22.85,0,0,0,2.85-1.41l36.52-19.25.72,3.43c-2.55,2.12-5.61,3.36-8.48,4.92q-14.85,8.1-29.75,16.09c-1.76,1-3.54,1.87-3.7,4.13,1,1.7,2.35,1.68,3.75,1.17a25.27,25.27,0,0,0,3.5-1.63q17.48-9.51,34.93-19.07c.17,1.09.34,2.17.52,3.26a12.71,12.71,0,0,1-3.24,2.08L135.9,210.22a25.09,25.09,0,0,0-3,1.84c-1,.79-1.94,1.75-1.3,3.42a3.28,3.28,0,0,0,3.56.19c1.17-.53,2.31-1.14,3.43-1.77q14.25-8,28.47-16.1l.56,3a10.82,10.82,0,0,1-3.18,2.13c-6.27,3.65-12.56,7.27-18.84,10.91-1.59.93-3.34,1.79-3.12,4.16,2,1.53,3.63.29,5.2-.61C154.3,213.62,160.87,209.79,167.45,206ZM127.9,156.71c1.67,2.32,3.13,3,5.64,2,3.92-1.59,7.76-3.37,11.55-5.26,1.91-1,3-2.59,2.28-4.85-2.49-1.87-2.84-2.05-5.17-1.1-3.8,1.56-7.56,3.24-11.3,5C129.1,153.24,127.8,154.54,127.9,156.71Zm24.48,4.71c-1.56-1.52-3.26-1.09-4.91-.34-3.29,1.51-6.56,3.09-9.83,4.65a4.83,4.83,0,0,0-3.14,3.92c.57,2.26,2.29,2.67,4.1,2.08a61.41,61.41,0,0,0,12.6-6.06A3,3,0,0,0,152.38,161.42Z"/><path class="cls-2" d="M172.36,233.05c.3.52.59,1,.89,1.55-4.78,4-10.38,6.84-15.2,10.42a8.86,8.86,0,0,1-4.1-.26Z"/><path class="cls-2" d="M174.06,238c.24.48.48,1,.71,1.45-2.21,2.28-5.13,3.57-7.57,5.47a6.57,6.57,0,0,1-3.73-.12Z"/><path class="cls-2" d="M175.55,242.57l1,1.26c-1,1.61-2.47,1.35-4.12,1.19C173.25,243.73,174.53,243.31,175.55,242.57Z"/></svg>