<svg id="Layer_1" data-name="Layer 1" xmlns="http://www.w3.org/2000/svg" viewBox="0 0 300 300"><defs><style>.cls-1{fill:#3c93d0;}.cls-2{fill:#3fc2cf;}.cls-3{fill:#078ab1;}.cls-4{fill:#39bbed;}.cls-5{fill:#0f88c9;}.cls-6{fill:#06abc7;}</style></defs><path class="cls-1" d="M79.67,168.08c-7.31,21.74-3.76,46,19.44,73.37a104.21,104.21,0,0,0,50.59,13.17,106.08,106.08,0,0,0,48.7-11.92c1.26-14,2.09-27.8,2.09-41a77.73,77.73,0,0,1-15.67,1.47c-24.25,0-51-9.41-76.09-20.07a327.06,327.06,0,0,1-29.06-15m174.75-15.47a103.49,103.49,0,0,1-7.31,35.54,105.44,105.44,0,0,0,7.31-35.54m-209-.42a104.1,104.1,0,0,0,7.11,36.17,107,107,0,0,1-7.11-36.17"/><path class="cls-2" d="M52.5,188.36a103.83,103.83,0,0,0,44.94,52.25c.63.21,1,.63,1.67.84h0A106.1,106.1,0,0,1,52.5,188.36m65-130a119.2,119.2,0,0,0-21.74,2.09,12.05,12.05,0,0,1,1.46-.84A103.14,103.14,0,0,0,59.4,97.64a104.75,104.75,0,0,0-14,54.55v-6.48c11.5,7.95,23,15.68,34.28,22.37,9.2-27.17,35.54-50.17,61.88-70.23a252.3,252.3,0,0,1,27.59-17.77c-11.71-13.38-28.22-21.74-51.63-21.74m32.4-13h0a104.34,104.34,0,0,1,51.63,13.8,102.87,102.87,0,0,0-51.63-13.8"/><path class="cls-3" d="M45.39,145.71v6.48a107,107,0,0,0,7.11,36.17,104.79,104.79,0,0,0,46.61,52.88c-23.2-27.17-26.75-51.63-19.44-73.37-11.28-6.48-22.78-14.21-34.28-22.16"/><path class="cls-4" d="M247.11,188.15A105,105,0,0,1,198.4,242.5h0a35.43,35.43,0,0,0,3.77-2.09,103.05,103.05,0,0,0,44.94-52.26m-45.57-129c.21,0,.42.21.63.41,1.25.63,2.3,1.47,3.55,2.09C193,67.54,180.64,73.81,169.14,80.29,188,101.82,194.85,136.1,199,168.92a264,264,0,0,1,1.67,32.61c22.58-4.39,41.81-19.65,53.72-53.52v4.81a104.71,104.71,0,0,0-14-55,101.56,101.56,0,0,0-38.88-38.67M149.7,45.38a105.4,105.4,0,0,0-52.26,14,.2.2,0,0,0-.21.2A106.36,106.36,0,0,1,149.7,45.38h0"/><path class="cls-5" d="M254.42,148c-11.91,33.87-31.14,49.13-53.72,53.52-.21,13.16-.83,27-2.09,41a105,105,0,0,0,48.71-54.35,108.91,108.91,0,0,0,7.31-35.54v-2.92a4.09,4.09,0,0,1-.21-1.68"/><path class="cls-6" d="M149.91,45.38A105.18,105.18,0,0,0,97.44,59.59a3.35,3.35,0,0,0-1.46.84,117.51,117.51,0,0,1,21.74-2.09c23.41,0,39.71,8.36,51.63,22,11.49-6.48,23.83-12.75,36.58-18.61a33.84,33.84,0,0,0-3.55-2.09c-.21-.2-.42-.2-.63-.41a105.71,105.71,0,0,0-51.84-13.8"/></svg>