<svg id="Layer_1" data-name="Layer 1" xmlns="http://www.w3.org/2000/svg" viewBox="0 0 300 300"><title>GOVX_Mark_Light</title><path d="M203.82978,118.27128l-24.30851,59.89361a1.77559,1.77559,0,0,1-3.29788,0l-15.37234-37.5a11.74961,11.74961,0,0,0-2.87235-3.93617H162.5a4.03511,4.03511,0,0,1,3.72341,2.5l11.75532,28.51064,20.10638-49.734a4.08559,4.08559,0,0,1,3.72341-2.55319h5.10638c-1.2234,0-2.60639,1.9149-3.08512,2.87234Zm12.65958,34.3617h6.117a3.65439,3.65439,0,0,1,2.97873,1.48936l5.74469,7.44681,5.266-7.34042a3.73537,3.73537,0,0,1,3.08511-1.59574h6.01065a11.17032,11.17032,0,0,0-4.09575,3.19149l-7.12766,9.78723,7.39362,9.57447a37.34025,37.34025,0,0,0,11.86169-2.65958,49.99977,49.99977,0,0,1-15.42554,6.2766l-6.96809-8.883-5.69149,7.71277a3.77656,3.77656,0,0,1-3.03191,1.59575h-8.35106a3.03748,3.03748,0,0,1-3.08512-2.766v-1.117a13.32165,13.32165,0,1,1,0-18.82982v-2.02127c-.15957-.6383-.63829-1.8617-1.70212-1.8617h4.3617a2.911,2.911,0,0,1,2.65957,2.81915v21.2766a2.05188,2.05188,0,0,0,1.43617,1.70212,4.9184,4.9184,0,0,0,1.80852-1.117c.58511-.63831,4.30851-5.69149,8.45744-11.43617l-8.51063-10.85107C219.04257,154.22873,217.39363,152.633,216.48936,152.633Zm-106.383-7.71277v-5.95745c0-.79787-1.06383-2.28724-4.57447-2.28724H91.80851a20.58511,20.58511,0,0,0-18.93617,21.59575c0,16.06384,14.46809,20.69149,21.70213,20.95745H112.766c-.69149-.37234-2.65958-1.59574-2.65958-3.617V159.54787c0-2.28724-1.32978-4.20213-3.67021-4.20213h-12.766c-2.34043,0-4.84042,1.91489-4.84042,4.25531v4.25532a4.23,4.23,0,0,1,3.72341-2.65958h11.8085a.41108.41108,0,0,1,.42553.37234v12.34044H93.7766c-5.21277-.37233-15.53192-3.98936-15.53192-15.6383,0-11.70213,9.89362-15.74468,14.84042-16.27659h14.30852c.90425.21277,2.766,1.17021,2.766,2.92553Zm14.09575,34.30851h17.81915a1.89637,1.89637,0,0,1-1.64894-1.117,2.95136,2.95136,0,0,1-.31914-1.17021l-.15958-.74468a3.04913,3.04913,0,0,0-2.55319-2.28724H125.42554a7.3279,7.3279,0,0,1-7.234-7.39361c0-3.45744,1.86171-8.56383,8.35106-8.56383,5.15957,0,7.44681,4.3617,7.97873,6.80851h-6.383a2.766,2.766,0,0,0-2.71276,2.766v4.734c0-1.80851,1.75532-2.234,2.60638-2.234h7.76595a3.49623,3.49623,0,0,0,3.45745-3.51064c0-11.117-8.29787-13.883-12.766-13.883-4.41489,0-13.7234,2.55319-13.7234,13.883,0,9.04256,7.60638,12.234,11.383,12.71277ZM168.617,165.93085A13.29787,13.29787,0,1,1,155.31915,152.633,13.29786,13.29786,0,0,1,168.617,165.93085Zm-5.31915,0a7.97872,7.97872,0,1,1-7.97872-7.97872A7.97873,7.97873,0,0,1,163.29787,165.93085Zm45.90426,0a7.97872,7.97872,0,1,1-7.97872-7.97872A7.97873,7.97873,0,0,1,209.20213,165.93085Zm60.47872-7.28724c0-11.64894-25.90425-24.25531-68.40426-29.78723l2.28724-5.0532C252.97873,130.29255,275,146.14362,275,154.65425c0,8.67021-10.42553,14.78724-15.58511,16.75532,10.266-7.44681,10.266-10.79787,10.266-12.71277ZM154.78723,120.82446c14.46808,0,27.55318.69148,39.25532,1.8617l-2.02129,5.10638c-11.43617-1.117-23.93617-1.75532-37.234-1.75532-69.3085,0-113.82977,16.86172-113.82977,32.60639,0,12.5532,29.734,22.5,44.68085,25.90426C67.65958,184.54787,25,170.0266,25,154.65425,25,139.22872,70.85106,120.82446,154.78723,120.82446Z" fill="#192951" fill-rule="evenodd"/></svg>