<?xml version="1.0" encoding="utf-8"?>
<!-- Generator: Adobe Illustrator 24.0.1, SVG Export Plug-In . SVG Version: 6.00 Build 0)  -->
<svg version="1.1" id="Layer_1" xmlns="http://www.w3.org/2000/svg" xmlns:xlink="http://www.w3.org/1999/xlink" x="0px" y="0px"
	 viewBox="0 0 300 300" style="enable-background:new 0 0 300 300;" xml:space="preserve">
<style type="text/css">
	.st0{fill-rule:evenodd;clip-rule:evenodd;fill:#B83948;}
</style>
<title>GILD_Light_bg</title>
<path class="st0" d="M218.3,59.7c0-0.3-0.2-0.5-0.5-0.5h-0.1c-113.4,10.8-127.8,89-90.7,113.9c-6.4,28.2-0.4,27.6-0.4,27.6
	c1.2-8.4,2.8-16.8,5-25c14.5-55,50.2-103,86.3-115.5l0,0C218.1,60.1,218.3,59.9,218.3,59.7L218.3,59.7z"/>
<path class="st0" d="M212.3,77.6c0-0.3-0.2-0.5-0.5-0.5c0,0,0,0,0,0c-0.2,0-0.4,0.1-0.5,0.3c-9.4,18.4-12.1,44.7-19.2,64.8
	c-8.2,23-22.7,38.5-45.1,37.1v56c0,0-59.9-27.1-59.9-70.6V83.1l48.9-4.5l0,0c0.3,0,0.5-0.2,0.5-0.5c0,0,0,0,0,0
	c0-0.3-0.2-0.5-0.5-0.5l0,0H81.7v87.1c0,49,65.3,76.2,65.3,76.2s65.3-27.7,65.3-76.2L212.3,77.6L212.3,77.6z"/>
</svg>
