<svg id="Layer_1" data-name="Layer 1" xmlns="http://www.w3.org/2000/svg" viewBox="0 0 300 300"><path d="M216.26,46.12,214.39,48c-3.75,3.14-8.75,4.39-13.13,2.51l-13.75-5.65a12.39,12.39,0,0,1-7.5-11.3V30.43a9,9,0,0,0-8.76-8.79H133.12a8.56,8.56,0,0,0-8.75,8.79v3.13a12.41,12.41,0,0,1-7.5,11.3l-13.76,5.65A12.48,12.48,0,0,1,90,48l-1.88-1.88a9.47,9.47,0,0,0-12.5,0l-28.13,27a8.91,8.91,0,0,0,0,12.55l1.87,1.88c3.13,3.77,4.38,8.79,2.5,13.19l-5.62,13.81A12.36,12.36,0,0,1,35,122.07H31.85a9,9,0,0,0-8.75,8.79v38.28a8.56,8.56,0,0,0,8.75,8.79H35a12.36,12.36,0,0,1,11.25,7.53l5.62,13.81a12.61,12.61,0,0,1-2.5,13.19l-1.87,1.88a9.56,9.56,0,0,0,0,12.55l26.88,27a8.83,8.83,0,0,0,12.5,0L88.74,252c3.75-3.14,8.75-4.39,13.12-2.51l13.76,5.65a12.4,12.4,0,0,1,7.5,11.3v3.13a9,9,0,0,0,8.75,8.79H170a8.56,8.56,0,0,0,8.76-8.79v-3.13a12.38,12.38,0,0,1,7.5-11.3L200,249.49A12.5,12.5,0,0,1,213.14,252l1.87,1.88a9.48,9.48,0,0,0,12.51,0l8.75-8.78-48.76-49c-6.25-6.28-20.63-20.72-39.39-1.89-5.62,5.65-9.37,13.18-15,18.83-13.13,13.18-28.75,6.91-35-5.65-3.75-7.53-2.5-8.16-6.25-15.06-4.37-6.91-11.88-11.93-14.38-20.71-1.87-8.79,2.5-11.3,2.5-15.7s-4.37-9.41-3.12-15.69c.62-5,4.38-8.16,5-10.67s.63-4.39,1.25-8.16c2.5-11.3,13.13-17,22.51-10.67,6.25,4.39,20,19.46,21.88,17.57s-13.13-15.69-17.51-22c-6.25-9.42-.62-20.72,10.63-22.6,3.75-.63,6.25-.63,8.13-1.26,2.5-1.25,5-4.39,10.62-5,6.25-1.25,11.88,3.14,15.63,3.14,4.38,0,7.5-4.39,15.63-2.51,8.75,1.88,13.75,10,20.63,14.44s6.88,3.13,15,6.27c12.5,6.28,19.38,22,5.63,35.15-5.63,5.65-13.13,8.79-18.76,15.07-18.75,18.83-3.75,33.27,1.88,39.54l48.76,49,8.75-8.78a8.93,8.93,0,0,0,0-12.56l-1.87-1.88c-3.13-3.77-4.38-8.79-2.5-13.18l5.62-13.81A12.34,12.34,0,0,1,265,179.82h3.13A9,9,0,0,0,276.9,171V132.74a8.57,8.57,0,0,0-8.75-8.79H265a12.36,12.36,0,0,1-11.25-7.53l-5.62-13.81a12.6,12.6,0,0,1,2.5-13.18l1.87-1.89a9.56,9.56,0,0,0,0-12.55L225.64,48C225,43,219.39,43,216.26,46.12Z"/></svg>