<svg id="Layer_1" data-name="Layer 1" xmlns="http://www.w3.org/2000/svg" viewBox="0 0 300 300"><path d="M87.489,155.17263l3.23086.02646,9.95426,20.88747,10.37465-1.93147L99.41291,152.76785c4.62435-2.787,8.26973-7.082,8.26973-14.51687,0-8.51374-6.30593-13.091-15.70161-13.091H74.94767v50.07114h9.88076v-43.3507h5.1153c3.92467,0,7.85522,1.93147,7.85522,7.58182,0,3.62481-2.149,8.94883-8.85476,9.01057H87.486v6.69987Z" fill="#004186"/><path d="M66.89842,152.11815v20.79633a46.39684,46.39684,0,0,1-15.587,3.0927c-16.122,0-26.31146-11.51236-26.31146-26.335,0-13.74369,10.12477-25.75877,26.579-25.75877A24.61513,24.61513,0,0,1,64.89934,127.794l-2.99862,5.97373a21.91727,21.91727,0,0,0-10.06009-2.66348c-9.98954,0-16.8511,7.27019-16.8511,18.70906,0,11.94452,7.8611,18.99717,15.92211,18.99717a14.92924,14.92924,0,0,0,6.594-1.223V152.11815Z" fill="#004186"/><rect x="116.35514" y="125.2687" width="9.74846" height="49.38029" fill="#004186"/><polygon points="162.061 131.628 146.15 131.628 146.15 147.714 157.666 147.714 157.666 154.135 146.15 154.135 146.15 174.649 136.405 174.649 136.405 125.269 162.061 125.269 162.061 131.628" fill="#004186"/><path d="M164.22141,149.23712c0-14.10236,9.85724-25.32368,23.2511-25.32368,13.39091,0,23.24522,11.22132,23.24522,25.32368,0,15.04015-8.92532,26.76712-23.24522,26.76712-14.32284.00294-23.2511-11.727-23.2511-26.76712m36.50384,0c0-9.2781-3.93056-18.762-13.25568-18.762-9.32808,0-13.25863,9.48388-13.25863,18.762,0,9.64263,3.46606,20.20249,13.25863,20.20249s13.25568-10.55692,13.25568-20.20249" fill="#004186"/><polygon points="217.418 125.269 227.166 125.269 227.166 167.132 239.963 167.132 239.963 174.649 217.418 174.649 217.418 125.269" fill="#004186"/><path d="M270.23747,133.87652a13.731,13.731,0,0,0-7.57594-2.82224c-3.957,0-6.10014,2.32834-6.10014,5.22114,0,3.24263,3.28378,5.70914,8.78127,10.29821C271.64858,151.86532,275,156.02812,275,162.09c0,6.20892-5.63271,13.40561-16.22784,13.40561-4.89481,0-10.33055-1.55223-13.81424-4.936l3.419-5.64741c2.48122,1.905,5.36518,3.95407,9.58973,3.95407,3.88938,0,7.30841-2.18723,7.30841-6.84392,0-5.42986-6.30592-9.02821-10.05715-12.13266-4.56261-3.88058-8.38731-6.91742-8.38731-13.47323,0-6.63226,6.3706-11.9945,14.88729-11.9945,5.36518,0,9.65734,2.04612,11.871,4.30391Z" fill="#004186"/></svg>