<svg id="Layer_1" data-name="Layer 1" xmlns="http://www.w3.org/2000/svg" xmlns:xlink="http://www.w3.org/1999/xlink" viewBox="0 0 300 300"><defs><radialGradient id="radial-gradient" cx="370.87" cy="-17175.42" r="248.83" gradientTransform="matrix(1.19, 0.23, -0.09, 0.46, -1858.49, 8123.83)" gradientUnits="userSpaceOnUse"><stop offset="0" stop-color="#e8a33e"/><stop offset="1" stop-color="#d34f2d"/></radialGradient></defs><path d="M240,132.19v44.49c0,14.45-11.93,26.18-32.56,26.18h-.21a2.14,2.14,0,0,0-2.14,2.14v10.28a24.67,24.67,0,0,1-24.58,24.56H104.08A44.09,44.09,0,0,1,60,195.76V104.22a44.06,44.06,0,0,1,44.06-44.06H204.37v37H107.56a10.43,10.43,0,0,0-10.43,10.43v84.88a10.43,10.43,0,0,0,10.43,10.43h89.83a7.24,7.24,0,0,0,7.23-7.25V167.19H189.69a23.47,23.47,0,0,1-23.47-23.47V132.19Z" fill="url(#radial-gradient)"/></svg>