<svg id="Layer_1" data-name="Layer 1" xmlns="http://www.w3.org/2000/svg" viewBox="0 0 300 300"><path d="M170.08,139.89H150.64a17.69,17.69,0,0,0,0,35.38h29.65A27.61,27.61,0,0,0,170.08,139.89Z" fill="#003da5"/><path d="M93,165.46C78,144.78,72.84,120.6,77.24,100.15c-19.5,26.63-23.32,58.24-7,80.79S123,212.17,151,202.31C129.7,199.14,108.07,186.26,93,165.46Z" fill="#003da5"/><path d="M191.08,235.73c54.38-13.52,60.71-72.86,27.64-92.9C229.82,166.5,219.84,211.94,191.08,235.73Z" fill="#003da5"/><path d="M191.39,93.16A84.56,84.56,0,0,1,240,130.55c-3.22-27.81-19.15-51.92-43.4-59a53.54,53.54,0,0,0-60.8,25.08C151.68,88.12,171.64,87.26,191.39,93.16Z" fill="#003da5"/><path d="M194.27,139.89H172.64a27.39,27.39,0,0,1,15.89,35.32v0h5.75a17.69,17.69,0,1,0,0-35.37h0Z" fill="#09d"/><path d="M119.38,92.55a88.83,88.83,0,0,1,61.69-30c-31.52-11.36-64.57-7.8-82.95,13.2s-16,54,.81,75.52C96.6,130.4,104.39,109.64,119.38,92.55Z" fill="#09d"/><path d="M70.22,194.48c33.89,70.32,124.54,63.77,138.06-9C170.89,226.23,102.26,225,70.22,194.48Z" fill="#09d"/></svg>