<svg id="Layer_1" data-name="Layer 1" xmlns="http://www.w3.org/2000/svg" viewBox="0 0 300 300"><defs><style>.cls-1{fill:#227e95;}.cls-2{fill:#80ada6;}</style></defs><g id="_227e95ff" data-name="#227e95ff"><path id="Layer" class="cls-1" d="M137,67.72c3.77-.57,7.59-.26,11.4-.72,3.36-.31,6.71.36,10.07.51a144.2,144.2,0,0,1,50.77,13.28c22.29,10.34,42.06,25.62,59,43.37a244.55,244.55,0,0,1,22.29,27.22,228.19,228.19,0,0,1-54.13,54.91c-4.95-13-10.37-25.78-17.18-37.82-6-10.76-13.47-20.84-22.81-29a71.93,71.93,0,0,0-20.17-12.7,66.07,66.07,0,0,0-23.74-5,79.92,79.92,0,0,0-43.34,12.4c7.37-17.9,15-35.76,22.44-53.61,1.86-4.27,3.46-8.59,5.42-12.81ZM43.11,113.31C60.19,97.77,79.74,84.7,101.42,76.46,94.3,94,86.87,111.35,79.64,128.79q-14,33.59-28.07,67.15c-.1.72-.93.26-1.24-.05A233.61,233.61,0,0,1,9.52,151.38a235.72,235.72,0,0,1,33.59-38.07Z"/></g><g id="_80ada6ff" data-name="#80ada6ff"><path id="Layer-2" data-name="Layer" class="cls-2" d="M167.78,156.68a23.62,23.62,0,0,1,5.36,4.17,69.06,69.06,0,0,1,11.1,13.43c9.08,14.15,15.58,29.79,21.15,45.64a147.44,147.44,0,0,1-43.29,12.2A140.43,140.43,0,0,1,85.21,219.2a167,167,0,0,1,7.07-21.92,111.8,111.8,0,0,1,12.18-21.46,76.9,76.9,0,0,1,10-10.85,27.63,27.63,0,0,0,7.59,19,27,27,0,0,0,36.27,2.83A27.72,27.72,0,0,0,169,165.48C169.12,162.5,168.34,159.62,167.78,156.68Z"/></g></svg>