<svg id="Layer_1" data-name="Layer 1" xmlns="http://www.w3.org/2000/svg" viewBox="0 0 300 300"><path d="M111.52559,269.11774a30.08778,30.08778,0,0,1-5.66555-1.09267,24.446,24.446,0,0,1-10.07341-5.36261c.06456.02752.11971.05509.18383.08267,2.91078-2.92923,6.226-4.04952,10.07341-2.64457,4.17787,1.52427,5.13289,5.1238,5.38083,8.98966C111.46147,269.09941,111.48882,269.1086,111.52559,269.11774Z" fill="#fbfbfb"/><path d="M122.66432,264.95809c-.93708,3.17717-5.37186,4.69225-11.12932,4.15965h-.00941c-.03677-.00914-.06412-.01833-.10089-.02752-.24794-3.86586-1.203-7.46539-5.38083-8.98966-3.84742-1.40495-7.16263-.28466-10.07341,2.64457-.06412-.02758-.11927-.05515-.18383-.08267-2.084-2.02017-3.039-4.22394-2.45166-6.22577,1.23076-4.178,8.45706-5.49113,16.81324-3.05774C118.53219,255.81228,123.88522,260.77086,122.66432,264.95809Z" fill="#fbfbfb"/><path d="M203.96591,262.57066a20.36571,20.36571,0,0,1-15.38072,6.26242,2.33164,2.33164,0,0,0,.2206-.101c-.09192-4.22394,1.49664-7.40111,5.45436-8.76929C197.99727,258.67722,201.32145,259.94441,203.96591,262.57066Z" fill="#fbfbfb"/><path d="M203.96591,262.57066c-2.64446-2.62625-5.96864-3.89344-9.70576-2.60786-3.95772,1.36818-5.54628,4.54535-5.45436,8.76929a2.33164,2.33164,0,0,1-.2206.101c-5.23376-.27546-9.62326-2.96593-11.45034-7.548-2.73638-6.841,1.62532-14.63693,10.05458-17.99771.56046-.22043,1.12047-.42241,1.68047-.59688,5.3351-1.63452,10.51417-.91826,14.08629,1.71712a11.273,11.273,0,0,1,3.89315,5.01368C208.64908,253.93907,207.41877,258.7966,203.96591,262.57066Z" fill="#fbfbfb"/><path d="M161.45714,36.74318c.68971,7.31438-6.57856,11.507-11.46612,11.39577A11.78011,11.78011,0,0,1,138.12947,36.453c-.06312-6.04858,5.82666-11.95171,11.82841-11.81533C155.87705,24.77219,162.454,30.14941,161.45714,36.74318Z" fill="#6c9ac2"/><path d="M111.379,31.88744c-.9734,9.44874-7.45631,12.0015-15.52778,6.37273h-.12868C99.00051,34.66977,104.73958,32.19043,111.379,31.88744Z" fill="#fbfbfb"/><path d="M132.73729,45.15625c0,7.346-8.92516,13.30546-19.94418,13.30546-.43177,0-.86355-.0092-1.28591-.02758a25.91758,25.91758,0,0,1-11.71667-3.1955h-.00942c-4.2514-2.43339-6.942-6.05136-6.942-10.08238a10.23307,10.23307,0,0,1,2.88344-6.89608h.12868c8.07147,5.62877,14.55438,3.076,15.52778-6.37273.46809-.02746.93619-.03665,1.41414-.03665C123.81213,31.85079,132.73729,37.81024,132.73729,45.15625Z" fill="#fff"/><ellipse cx="188.64159" cy="45.83053" rx="13.77161" ry="20.65322" transform="translate(109.34117 223.02402) rotate(-79.54524)" fill="#fff"/><path d="M273.028,128.65281a121.13714,121.13714,0,0,0-22.14834-51.72519,5.33531,5.33531,0,0,0-2.60814.62446,11.76389,11.76389,0,0,1-14.49878-16.57437,2.20074,2.20074,0,0,1,1.49664-1.2765c-4.77509-5.50951-10.7621-9.54973-16.72132-13.59006a90.9089,90.9089,0,0,0-14.54542-8.17246c-.04573.05515-.09191.10111-.13764.14695-2.77314,3.0027-5.97761,3.93015-9.65061,2.67215-4.17832-1.43253-5.4454-4.86678-5.51893-8.81531v-.00919c-7.71322-2.99351-21.70759-5.72988-30.01759-5.8951-.92722.05515-1.85489.12856-3.113.202h-.009l-.32148.02758a11.831,11.831,0,0,1,3.40668,6.593c-.62412,3.82007-2.30459,7.11645-6.45511,8.22761a8.34649,8.34649,0,0,1-9.47664-3.90257c-2.53416-4.05871-.90884-7.57557,2.06606-10.92721-.14661-.00919-.29368-.01839-.44074-.03677-1.12-.07342-2.01989-.12845-2.91975-.1928a115.683,115.683,0,0,0-30.018,5.7115c-.009.046-.009.10111-.01793.147-.9734,9.44874-7.45631,12.0015-15.52778,6.37273h-.12868a5.01081,5.01081,0,0,0-2.09342.78038A123.18352,123.18352,0,0,0,72.56445,52.54811c-2.74578,2.20382-5.63819,4.26989-7.79617,7.13483,3.0852,2.08434,3.39771,5.44528,2.77314,8.42041-1.67106,8.00713-8.56736,12.24025-16.01425,9.2834a6.10541,6.10541,0,0,0-2.30505-.48659C34.53951,96.6058,26.79849,118.83675,25.2467,143.23465A118.68607,118.68607,0,0,0,27.89115,176.962,121.19344,121.19344,0,0,0,49.2683,223.97651c3.36991-1.07434,6.68468-2.04768,10.31195-.80806,5.9229,2.02016,11.028,9.66921,6.1704,17.51106-.156.25714-.569.34894-.8631.51422,4.867,5.55541,10.91814,9.66922,17.006,13.71868a90.17891,90.17891,0,0,0,13.893,7.75005c.06456.02752.11971.05509.18383.08267,2.91078-2.92923,6.226-4.04952,10.07341-2.64457,4.17787,1.52427,5.13289,5.1238,5.38083,8.98966.03677.00919.06412.01838.10089.02752h.00941c2.24048.64279,4.26037,1.29477,6.33585,1.809,8.87942,2.20383,17.814,4.03114,27.04224,3.89338-.569-.69788-1.18413-1.37738-1.69841-2.112-2.22209-3.18636-2.18533-6.20739-.16544-9.53145,2.13959-3.51692,5.50951-3.95766,8.96237-3.36078,3.25961.56012,5.32568,2.85575,6.0054,6.21653.156.77135.39456,1.53352.57839,2.22221-.56942,2.6996-1.57959,5.04119-4.01287,6.492,8.43868.41322,16.62045-1.23962,24.765-3.14041a41.75532,41.75532,0,0,0,9.23766-2.77314,2.33164,2.33164,0,0,0,.2206-.101c-.09192-4.22394,1.49664-7.40111,5.45436-8.76929,3.73712-1.28558,7.0613-.01839,9.70576,2.60786.04618.0459.09191.0918.13809.1377a79.496,79.496,0,0,0,10.872-5.79417c7.24513-4.60044,14.38893-9.357,20.24727-15.748-2.35078-1.24886-2.60769-3.69139-2.80049-5.83093-.72545-7.86942,6.40041-14.894,15.44483-12.21274.9734.29385,1.95577.54174,2.92917.80807a98.4727,98.4727,0,0,0,10.33975-16.52853C273.76245,182.47153,277.86678,156.22793,273.028,128.65281ZM55.83371,90.5086c6.85954.16533,15.80308,5.99621,14.75614,15.28891.92767,8.503-7.41012,15.041-14.46246,14.995a15.19032,15.19032,0,0,1-15.38968-15.31637C40.609,97.80866,48.36843,90.325,55.83371,90.5086ZM55.632,210.31292c-7.98,0-15.1238-7.90613-14.90366-15.142a15.3587,15.3587,0,0,1,15.25249-15.142c6.99718-.16523,15.54571,6.30849,14.60907,15.1512C71.56326,203.5638,63.34517,210.31292,55.632,210.31292Zm.13765-43.3323c-10.16534.92745-17.18046-9.06313-17.089-16.96927a17.21979,17.21979,0,0,1,17.30913-16.905c10.19269.21129,17.43782,7.91532,17.13472,17.82329C72.83975,160.20392,64.71313,168.00906,55.7696,166.98062ZM212.258,105.72409a15.12891,15.12891,0,1,1-30.25657-.23875c.03677-8.5306,6.71247-14.97674,15.40851-14.90321A14.86105,14.86105,0,0,1,212.258,105.72409ZM188.8699,58.076a7.62329,7.62329,0,0,1,.56943-.51416,3.19068,3.19068,0,0,1,.33986-.27552,7.72341,7.72341,0,0,1,.70707-.51428,7.58439,7.58439,0,0,1,.74384-.44993c.22956-.12846.46809-.248.716-.36721q.26162-.1241.52324-.22037a5.32587,5.32587,0,0,1,.53266-.2021c.29412-.101.5878-.19291.8909-.27541.25691-.06434.52324-.11949.78957-.17453a12.33,12.33,0,0,1,2.49784-.22956c.156,0,.32148.00919.47751.01838.10985,0,.22015.00908.33045.01827.33044.01838.65192.05515.9734.10111.20176.02757.41294.06423.61515.11018.13765.02747.2753.055.4134.09181q.26161.05514.52324.13776a11.66609,11.66609,0,0,1,3.1677,1.4416c.19324.12857.386.26633.56942.404.156.1103.29413.22048.44074.33986a11.41412,11.41412,0,0,1,2.158,2.35078c.10089.13765.18383.27541.2753.42236.12868.202.24839.404.35824.61515.04619.07354.083.15615.11972.22957.10985.19279.20176.3949.29368.59688a4.1763,4.1763,0,0,1,.19279.46832c.09192.22956.17442.45913.248.69788.07353.22956.14706.46832.21118.71615.05515.22957.10088.45913.14706.69788.04574.22957.0825.46832.10985.70707a.11408.11408,0,0,1,.00942.05515c.02735.22037.04573.44075.06411.66112.01839.28471.0278.56931.0278.8631a11.83684,11.83684,0,0,1-11.88257,11.68025,11.47559,11.47559,0,0,1-11.59741-11.80871c0-.202.00942-.404.01838-.59688.00942-.22037.0278-.44994.05515-.67031.00942-.13776.0278-.26633.04574-.40409a2.316,2.316,0,0,1,.03676-.23875c.04618-.29379.10133-.57839.16545-.8631a1.85107,1.85107,0,0,1,.05515-.23876,4.99355,4.99355,0,0,1,.13765-.49589c.03676-.12846.07353-.25714.11926-.3764a6.55693,6.55693,0,0,1,.239-.67031c.009-.02757.01838-.046.02735-.07353.09191-.22956.20221-.44074.30309-.66111a1.155,1.155,0,0,1,.09192-.18361,10.65318,10.65318,0,0,1,.84472-1.39576c.12868-.18372.26633-.35824.404-.53266.09191-.11926.19279-.23875.29412-.34883a3.53655,3.53655,0,0,1,.31207-.33986C188.66814,58.278,188.769,58.177,188.8699,58.076Zm-38.91539-3.30568c5.9229.13764,12.49728,5.5187,11.50594,12.11168.68869,7.30925-6.58424,11.50572-11.46918,11.39554A11.78919,11.78919,0,0,1,138.12753,66.5881C138.063,60.537,143.95852,54.64175,149.95451,54.77032Zm.38559,35.7107c6.9788.13788,15.61969,7.19,14.55438,15.31649.22956,9.2009-6.64791,14.72879-14.47188,14.93078-8.69559.22957-15.31615-6.60228-15.417-15.54605C134.932,98.1669,142.51658,90.325,150.3401,90.481ZM91.31508,64.8527c.01838-.13776.03677-.27552.06412-.41317.0278-.16533.05515-.32147.09191-.4867q.06861-.34434.16545-.68869c.0547-.22037.12823-.44074.20176-.66111.06457-.2021.13765-.3949.21118-.58781a10.14944,10.14944,0,0,1,.45913-1.01913c.08295-.16533.17441-.32148.26633-.47751a8.06806,8.06806,0,0,1,.61516-.955c.07353-.11018.14706-.21118.22956-.31228a10.58283,10.58283,0,0,1,.89987-1.01914c.10133-.1011.21118-.21118.31251-.30309a10.71428,10.71428,0,0,1,.99133-.82634c.14707-.1103.3031-.22037.45913-.32148a11.38182,11.38182,0,0,1,2.50726-1.23961c.25691-.08261.51382-.16534.78015-.23876.06457-.01838.1381-.04584.21118-.06423h.00942a.67294.67294,0,0,0,.12823-.03676c.17486-.03677.36766-.08273.551-.11019a12.5762,12.5762,0,0,1,2.51622-.22956c.26633,0,.52325.00919.78061.02746.165.00919.33044.02758.49589.046a11.50564,11.50564,0,0,1,5.23377,1.81812,2.02524,2.02524,0,0,1,.29367.1928c.15648.11029.31251.22048.45913.33986a4.50875,4.50875,0,0,1,.40443.33055c.156.12857.31206.26622.45912.41328.12823.12846.26633.26622.39456.404.11927.12846.239.25714.35825.39479q.16544.20664.33044.41317c.10133.12868.20221.26632.29413.40408a5.53479,5.53479,0,0,1,.35779.54174c.083.12868.16545.26633.239.40409.09192.15614.17442.31217.25692.47751.08294.15614.156.32137.22956.49578a.18182.18182,0,0,1,.03676.07353c.04619.0918.0825.1928.11927.28471.03677.09169.07353.17442.10133.26622.04573.12857.09147.26622.13765.40409.06411.17441.11926.358.16544.53254a6.96211,6.96211,0,0,1,.18339.75292c.02779.11949.05515.23876.07353.35813q.06859.35814.1103.71627c.02735.19291.04573.39489.05514.58769a3.15469,3.15469,0,0,1,.02736.42236c.01838.202.01838.41317.01838.62435v.03676a11.69882,11.69882,0,1,1-23.397-.156A11.63858,11.63858,0,0,1,91.31508,64.8527Zm11.55168,25.72943a14.8519,14.8519,0,0,1,15.16012,15.16035,15.12884,15.12884,0,1,1-30.25612-.27553A14.83617,14.83617,0,0,1,102.86676,90.58213Zm0,42.29461a17.25019,17.25019,0,1,1-.248,34.49867,17.35009,17.35009,0,0,1-16.91412-17.21722A17.1438,17.1438,0,0,1,102.86676,132.87674Zm.009,47.143a15.08425,15.08425,0,0,1,15.14218,15.289,15.12445,15.12445,0,0,1-30.24715-.28465A15.15512,15.15512,0,0,1,102.87573,180.01975Zm.04618,42.50591a11.70772,11.70772,0,1,1-11.71713,11.68019A11.42358,11.42358,0,0,1,102.92191,222.52566Zm58.53854,11.7169c.009,6.79508-4.88538,11.90056-11.497,11.68932-7.25409-.22956-11.72564-5.27994-11.78079-12.03826-.03676-5.35337,4.628-11.24858,11.81756-11.38629C156.12536,222.388,162.415,228.27392,161.46045,234.24256ZM150.0648,210.267c-8.56735-.17447-15.27041-6.58385-15.22468-14.87569.05515-9.17338,6.37261-15.41742,15.38968-15.298,8.49383.11018,15.21572,6.85012,14.66468,15.17867C165.90465,202.93939,157.89729,210.4323,150.0648,210.267Zm-.01838-42.91907a17.23569,17.23569,0,1,1-.05515-34.47121c9.88018.16534,17.22619,7.2726,17.28134,17.19895C167.31879,160.07535,159.72483,167.16423,150.04642,167.348Zm58.82326,67.79448c-.00942.21123-.03677.42241-.06457.63359a11.66187,11.66187,0,0,1-.6703,2.663,7.32872,7.32872,0,0,1-.42236.955,11.03748,11.03748,0,0,1-1.18458,1.91,4.99628,4.99628,0,0,1-.33942.4316,11.87625,11.87625,0,0,1-1.53385,1.50589q-.2475.20664-.52324.41323a12.16916,12.16916,0,0,1-1.17517.753c-.33089.18366-.67031.35813-1.01958.51422-.165.06428-.33045.13776-.49589.19285a11.5205,11.5205,0,0,1-1.276.42236c-.248.06429-.48693.11938-.73487.17447-.29368.0551-.59677.101-.89987.13776a5.69326,5.69326,0,0,1-.569.0551c-.32148.02751-.643.03671-.96444.03671-.22956,0-.46809-.0092-.69765-.02752a11.504,11.504,0,0,1-3.352-.67036q-.3578-.12393-.68869-.27547c-.009,0-.009,0-.01838-.00919-.21118-.0918-.42236-.18361-.62413-.29379a9.2657,9.2657,0,0,1-1.16619-.68869c-.156-.101-.3031-.21124-.45016-.32142-.10985-.08261-.22015-.16528-.32148-.248a3.01049,3.01049,0,0,1-.321-.27546c-.16545-.13771-.33089-.28466-.48693-.44074a9.63459,9.63459,0,0,1-.87207-.96416,6.53219,6.53219,0,0,1-.43177-.56931c-.02735-.03676-.04573-.06428-.07353-.101q-.1789-.26171-.3578-.55093a11.01735,11.01735,0,0,1-.60619-1.12943c-.11926-.25714-.22956-.52341-.33044-.78974-.10133-.26627-.19325-.53254-.27575-.8172-.05515-.19285-.11029-.38571-.156-.5785-.03676-.147-.07353-.303-.10088-.45913a12.13122,12.13122,0,0,1-.248-2.60786,11.44568,11.44568,0,0,1,11.79963-11.59752,11.65843,11.65843,0,0,1,11.68932,11.80876A7.86654,7.86654,0,0,1,208.86968,235.14243Zm-11.57948-24.9305c-6.8685.61521-15.36233-5.50951-15.30718-15.03178a15.13778,15.13778,0,1,1,15.30718,15.03178Zm-.22956-42.89156A17.21727,17.21727,0,1,1,214.333,150.15819,17.00467,17.00467,0,0,1,197.06064,167.32037Zm47.36349-76.674c7.3644-.71615,15.22468,7.2634,14.87586,15.0042-.34883,7.67668-5.987,15.32568-15.22469,15.09612-8.31941-.19291-15.03188-5.85845-15.04085-15.32568A14.59413,14.59413,0,0,1,244.42413,90.64636Zm-.1928,119.62066a15.11018,15.11018,0,1,1-.20176-30.21969c7.72219.00919,15.52733,5.7115,15.16953,15.36239C259.83264,202.89343,252.43148,210.3864,244.23133,210.267Zm.12868-43.2864c-8.93457,1.203-17.52928-7.46539-17.48354-16.96008.04573-9.88958,8.88883-17.1438,17.29971-16.98765A17.37508,17.37508,0,0,1,261.366,150.02973C261.46694,159.01945,253.63445,167.8713,244.36,166.98062Z" fill="#40708e"/><path d="M144.90977,274.82165c-.56754-.70337-1.17865-1.37641-1.69508-2.11536-2.22558-3.18457-2.18121-6.20111-.16345-9.52648,2.13608-3.52034,5.50935-3.961,8.95567-3.36632,3.26625.56366,5.32831,2.86088,6.00823,6.21864.15661.77332.39506,1.5301.57667,2.22145-.56591,2.70364-1.57763,5.04246-4.01188,6.49761A20.51988,20.51988,0,0,1,144.90977,274.82165Z" fill="#6c9ac2"/><path d="M250.88344,76.92556a5.28255,5.28255,0,0,0-2.60925.62877A11.76578,11.76578,0,0,1,233.77191,60.9809a2.24586,2.24586,0,0,1,1.50051-1.28382c2.17043.73315,3.36581,2.65,4.78247,4.19114C243.87833,68.04765,247.79188,72.15283,250.88344,76.92556Z" fill="#6c9ac2"/><path d="M64.76612,59.68079c3.085,2.091,3.399,5.44446,2.7775,8.41986-1.67238,8.00637-8.56986,12.24363-16.01687,9.285a6.06424,6.06424,0,0,0-2.303-.484A104.37883,104.37883,0,0,1,63.0923,60.74707,2.75283,2.75283,0,0,1,64.76612,59.68079Z" fill="#6c9ac2"/><path d="M49.27169,223.97659c3.37073-1.07576,6.68046-2.05025,10.30993-.81051,5.92239,2.02292,11.02792,9.66763,6.172,17.51679-.15571.25171-.57151.3431-.86606.50922-1.505-.236-2.2144-1.518-3.13016-2.4707A109.44024,109.44024,0,0,1,49.27169,223.97659Z" fill="#6c9ac2"/><path d="M235.22221,241.16991c-2.35113-1.25686-2.606-3.691-2.80157-5.83006-.71982-7.875,6.3984-14.89743,15.44381-12.2152.97237.28834,1.95663.53677,2.93537.80372A93.02445,93.02445,0,0,1,235.22221,241.16991Z" fill="#6c9ac2"/><path d="M132.74185,150.14526a17.20648,17.20648,0,0,1,17.24656-17.26759c9.88311.16177,17.23105,7.27211,17.28055,17.19844.04988,9.99609-7.54164,17.08606-17.22134,17.27349A17.21663,17.21663,0,0,1,132.74185,150.14526Z" fill="#fbfbfb"/><path d="M214.33077,150.15443a17.22354,17.22354,0,1,1-17.18548-17.26818A17.08915,17.08915,0,0,1,214.33077,150.15443Z" fill="#fbfbfb"/><path d="M120.10763,150.06036a17.20227,17.20227,0,1,1-17.2375-17.18336A17.26069,17.26069,0,0,1,120.10763,150.06036Z" fill="#fbfbfb"/><path d="M244.36436,166.98018c-8.94084,1.19943-17.53675-7.46134-17.489-16.956.04981-9.89465,8.89189-17.14744,17.30057-16.98985a17.36007,17.36007,0,0,1,17.186,16.99524C261.47015,159.01722,253.63873,167.87573,244.36436,166.98018Z" fill="#6c9ac2"/><path d="M55.76734,166.98015c-10.16013.932-17.17707-9.06058-17.0886-16.96727a17.211,17.211,0,0,1,17.30943-16.90352c10.19685.20531,17.435,7.91408,17.134,17.81808C72.84031,160.20414,64.71582,168.00792,55.76734,166.98015Z" fill="#6c9ac2"/><path d="M181.99694,105.48874c.04361-8.53039,6.71642-14.98207,15.41507-14.90423a14.86616,14.86616,0,0,1,14.84815,15.14184,15.13222,15.13222,0,1,1-30.26322-.23761Z" fill="#fbfbfb"/><path d="M102.94614,210.21011a14.91753,14.91753,0,0,1-15.17181-15.1875,15.12462,15.12462,0,1,1,30.24786.28489A14.83793,14.83793,0,0,1,102.94614,210.21011Z" fill="#fbfbfb"/><path d="M197.28942,210.21363c-6.86477.61036-15.35935-5.51083-15.3075-15.02933a15.13957,15.13957,0,1,1,15.3075,15.02933Z" fill="#fbfbfb"/><path d="M102.86682,90.584a14.84656,14.84656,0,0,1,15.1601,15.15749A15.13126,15.13126,0,1,1,87.766,105.465,14.83884,14.83884,0,0,1,102.86682,90.584Z" fill="#fbfbfb"/><path d="M244.42648,90.65038c7.36607-.722,15.21987,7.25713,14.87051,15.00176-.34636,7.67806-5.981,15.32059-15.22228,15.09841-8.31645-.2-15.02732-5.86076-15.041-15.3282A14.589,14.589,0,0,1,244.42648,90.65038Z" fill="#6c9ac2"/><path d="M259.19491,195.41119c.64175,7.48443-6.76456,14.97653-14.95965,14.852a15.1067,15.1067,0,1,1-.20556-30.21269C251.74852,180.0576,259.55965,185.75665,259.19491,195.41119Z" fill="#6c9ac2"/><path d="M164.89691,195.27086c1.011,7.66886-6.99765,15.16541-14.83074,15.00046-8.569-.18045-15.27473-6.59091-15.22756-14.88091.05217-9.17144,6.37765-15.41223,15.38991-15.29622C158.72763,180.20357,165.45,186.93934,164.89691,195.27086Z" fill="#6c9ac2"/><path d="M70.588,105.79546c.92538,8.509-7.41089,15.047-14.4584,14.99675a15.18938,15.18938,0,0,1-15.39345-15.31828c-.1312-7.66226,7.62794-15.15321,15.09435-14.9685C62.69428,90.67525,71.63254,96.50918,70.588,105.79546Z" fill="#6c9ac2"/><path d="M70.58689,195.17819c.978,8.38987-7.24025,15.13563-14.95538,15.13668-7.97566.00109-15.12567-7.90616-14.9041-15.1432a15.36583,15.36583,0,0,1,15.2561-15.14582C62.97485,179.86584,71.5257,186.33657,70.58689,195.17819Z" fill="#6c9ac2"/><path d="M164.89747,105.793c.22655,9.2043-6.65223,14.73353-14.47032,14.939-8.6997.22867-15.32248-6.60376-15.4216-15.5541-.07769-7.01535,7.50693-14.8519,15.33835-14.697C157.32339,90.619,165.95666,97.67512,164.89747,105.793Z" fill="#6c9ac2"/><path d="M114.60088,66.62351A11.69623,11.69623,0,1,1,102.986,54.85771,11.37237,11.37237,0,0,1,114.60088,66.62351Z" fill="#fbfbfb"/><path d="M114.60027,234.24646a11.69564,11.69564,0,1,1-11.675-11.7201A11.46338,11.46338,0,0,1,114.60027,234.24646Z" fill="#fbfbfb"/><path d="M185.42576,66.46738A11.38647,11.38647,0,0,1,197.17824,54.85a11.62829,11.62829,0,0,1,11.7297,11.74816,11.83511,11.83511,0,0,1-11.88036,11.67714A11.47624,11.47624,0,0,1,185.42576,66.46738Z" fill="#fbfbfb"/><path d="M197.21828,222.52857a11.70914,11.70914,0,1,1-.22236,23.41646,11.70878,11.70878,0,0,1,.22236-23.41646Z" fill="#fbfbfb"/><path d="M161.45714,66.87981c.68971,7.31439-6.57856,11.507-11.46612,11.39577a11.78011,11.78011,0,0,1-11.86155-11.68594c-.06312-6.04858,5.82666-11.9517,11.82841-11.81532C155.87705,54.90883,162.454,60.28605,161.45714,66.87981Z" fill="#6c9ac2"/><path d="M161.45668,234.24446c.009,6.79646-4.87748,11.89811-11.49,11.68627-7.25873-.23254-11.73294-5.27789-11.78055-12.03454-.03771-5.35171,4.62414-11.25279,11.81061-11.38975C156.12073,222.3897,162.41569,228.27363,161.45668,234.24446Z" fill="#6c9ac2"/></svg>