<svg id="Layer_1" data-name="Layer 1" xmlns="http://www.w3.org/2000/svg" viewBox="0 0 300 300"><path d="M154.77646,182.15214c3.98778-14.78138,8.99643-23.98517,20.30046-30.254a2.281,2.281,0,0,0,0-4.01968c-11.33593-5.99762-16.30736-15.47258-20.30046-30.254V74.21624L166.474,107.18188c7.497,20.98636,17.36013,23.98517,42.43,30.22206h.20737l64.19263,10.25656a2.3395,2.3395,0,0,1,0,4.49822L209.13255,162.5748h-.20737c-25.06453,6.30069-34.933,9.14531-42.43,30.222l-11.6975,32.96564Z" fill="#a5b107"/><path d="M133.7901,192.78622c-7.5236-21.07675-17.36013-23.92668-42.42466-30.22206h-.21268L26.95483,152.29165a2.3395,2.3395,0,0,1,0-4.61519L91.14745,137.3614h.21268c25.15492-6.1784,34.90105-9.17721,42.42466-30.16357l11.72938-32.98159v43.41363c-3.98778,14.78137-8.96453,24.25633-20.30046,30.25395a2.281,2.281,0,0,0,0,4.01968c11.304,6.26347,16.31268,15.47259,20.30046,30.254v43.62631Z" fill="#a5b107"/></svg>