<svg id="Layer_1" data-name="Layer 1" xmlns="http://www.w3.org/2000/svg" viewBox="0 0 300 300"><path d="M122.61646,249.56146a19.46313,19.46313,0,0,1,.1776-38.92545c10.874-.09392,20.05409-3.88288,26.97228-12.27064,8.15662-9.88924,10.00974-21.26459,5.74677-33.19274-4.39343-12.29319-13.51978-19.51085-26.43461-21.85559a43.78356,43.78356,0,0,0-6.81922-.55058,19.45727,19.45727,0,0,1,.15671-38.90477c13.29272-.2016,23.73075-5.46827,30.65091-17.00155a32.63745,32.63745,0,0,0,4.50088-16.4911,19.60755,19.60755,0,1,1,21.18627,18.95248,58.58542,58.58542,0,0,0-11.08345,1.28656c-15.68408,4.0728-25.69674,17.95561-25.04915,34.78106.58894,15.30286,12.31678,28.52016,27.68767,31.22219a41.33236,41.33236,0,0,0,6.812.63284,19.429,19.429,0,1,1,.15066,38.85657c-19.61473.24625-33.92865,14.09567-34.71919,33.59253C142.082,241.29975,133.57126,249.78145,122.61646,249.56146Z" fill="#f14f12"/><path d="M89.20891,122.84537c.77537,11.276-10.56079,19.9136-19.49375,19.74782-10.31344-.19139-19.78937-9.70954-19.71472-19.46532a20.14186,20.14186,0,0,1,19.59631-19.90652C79.34165,103.15678,89.75982,111.61415,89.20891,122.84537Z" fill="#87a71d"/><path d="M70.2758,157.84378c9.10687-1.06214,19.44019,9.09474,19.148,19.55957-.25965,9.29959-8.62762,19.62042-19.70331,19.26487-10.96624-.35206-19.49146-7.94278-19.65717-19.6479C49.92991,167.59656,58.16844,156.75673,70.2758,157.84378Z" fill="#87a71d"/><path d="M122.80444,50.58068A19.03423,19.03423,0,0,1,142.55972,69.926c-.12631,10.69571-7.673,19.18728-19.66626,19.71353-10.182.44678-20.16941-9.97738-19.69588-20.52925C103.61936,59.71175,113.59046,49.39489,122.80444,50.58068Z" fill="#87a71d"/><path d="M229.88434,142.42786c-8.4744.76753-19.07375-8.28351-19.11548-19.32926-.04319-11.4207,9.93159-19.95666,19.80451-19.86851a20.11206,20.11206,0,0,1,19.42633,20.00362C249.94424,133.42187,240.04266,143.24273,229.88434,142.42786Z" fill="#87a71d"/><path d="M103.39117,176.46021c-.52083-9.44432,8.27286-19.48562,19.80423-19.3181,10.89806.15829,19.34038,9.67371,19.4659,19.22779.14424,10.98047-9.95542,19.91456-19.53426,19.90763C112.41775,196.26979,102.54871,186.776,103.39117,176.46021Z" fill="#87a71d"/><path d="M196.50238,230.20935c1.28942,9.02569-8.313,19.47391-19.21009,19.39a19.53848,19.53848,0,1,1-.101-39.07491C187.59542,210.44978,197.62316,219.7656,196.50238,230.20935Z" fill="#87a71d"/><path d="M210.93781,176.81664c-.98886-9.87468,9.59431-18.90674,18.35845-19.16226a19.65668,19.65668,0,0,1,20.62827,19.24479c-.06063,11.67817-8.48882,19.354-19.44124,19.77076C219.60263,197.08394,209.88762,186.97784,210.93781,176.81664Z" fill="#87a71d"/><path d="M196.50265,123.5115c1.22548,10.19968-9.9109,19.47353-19.26223,19.47972-9.19683.00608-19.79558-8.03085-19.74177-19.70114a19.74723,19.74723,0,0,1,20.07861-19.52466C188.00686,103.87741,197.66676,113.61264,196.50265,123.5115Z" fill="#87a71d"/></svg>