<svg id="Layer_1" data-name="Layer 1" xmlns="http://www.w3.org/2000/svg" xmlns:xlink="http://www.w3.org/1999/xlink" viewBox="0 0 300 300"><defs><linearGradient id="linear-gradient" x1="190.34809" y1="6278.76641" x2="235.8602" y2="6269.49671" gradientTransform="matrix(1, 0, 0, -1, 0, 6350.94555)" gradientUnits="userSpaceOnUse"><stop offset="0.33" stop-color="#366a2b"/><stop offset="0.82" stop-color="#84ad3e"/></linearGradient><linearGradient id="linear-gradient-2" x1="59.63015" y1="6207.52533" x2="47.99076" y2="6252.54958" gradientTransform="matrix(1, 0, 0, -1, 0, 6350.94555)" gradientUnits="userSpaceOnUse"><stop offset="0.33" stop-color="#1b4365"/><stop offset="0.82" stop-color="#4a809d"/></linearGradient><linearGradient id="linear-gradient-3" x1="192.77245" y1="6138.72223" x2="157.85427" y2="6108.05556" gradientTransform="matrix(1, 0, 0, -1, 0, 6350.94555)" gradientUnits="userSpaceOnUse"><stop offset="0.33" stop-color="#65230f"/><stop offset="0.82" stop-color="#803436"/></linearGradient><linearGradient id="linear-gradient-4" x1="36.93075" y1="6288.66093" x2="199.60348" y2="6261.47912" gradientTransform="matrix(1, 0, 0, -1, 0, 6350.94555)" gradientUnits="userSpaceOnUse"><stop offset="0.36" stop-color="#28486c"/><stop offset="0.65" stop-color="#357098"/><stop offset="1" stop-color="#56a4de"/></linearGradient><linearGradient id="linear-gradient-5" x1="272.76016" y1="6263.56524" x2="169.26014" y2="6138.94707" gradientTransform="matrix(1, 0, 0, -1, 0, 6350.94555)" gradientUnits="userSpaceOnUse"><stop offset="0.36" stop-color="#325b2a"/><stop offset="0.65" stop-color="#408031"/><stop offset="1" stop-color="#80af39"/></linearGradient><linearGradient id="linear-gradient-6" x1="140.25408" y1="6077.15557" x2="80.38438" y2="6230.07073" gradientTransform="matrix(1, 0, 0, -1, 0, 6350.94555)" gradientUnits="userSpaceOnUse"><stop offset="0.36" stop-color="#6c1e1c"/><stop offset="0.52" stop-color="#7d1b14"/><stop offset="1" stop-color="#992b29"/></linearGradient></defs><path d="M185.75455,89.43333l-4.87879-21.32727c6.9-2.997,25.57877-8.71212,33.17577-8.71212,18.19089,0,23.06968,15.89091,23.06968,27.87879-2.3697-4.8091-9.54848-6.8303-16.30909-6.9697C209.17274,80.02424,185.75455,89.43333,185.75455,89.43333Z" fill="url(#linear-gradient)"/><path d="M77.51515,139.89393,63.99394,157.597c-5.71515-4.80909-21.95454-20.35151-25.3-27.18181C37.02121,126.93031,35,123.44546,35,118.84546c0-11.08182,9.54848-20.49091,17.98182-24.603-3.27576,4.25152-1.95152,11.98788.90606,18.12122C58.76667,122.95758,77.44546,139.894,77.44546,139.894Z" fill="url(#linear-gradient-2)"/><path d="M181.78183,198.09092l19.86362,9.0606C199.903,214.4697,193.21213,232.8,188.61213,238.794a19.93334,19.93334,0,0,1-16.37879,8.78181,30.66676,30.66676,0,0,1-18.74849-6.9697c5.297.97575,10.59394-3.83333,14.84546-9.13031C175.50909,222.34544,181.78183,198.09089,181.78183,198.09092Z" fill="url(#linear-gradient-3)"/><path d="M195.303,85.5303c0,21.25757-19.37575,29.62122-38.33333,29.62122-35.75456,0-56.52425-34.84849-92.34849-34.84849C50.19394,80.303,41.9697,89.71212,35,101.21212c8.71212-43.5606,50.11212-62.72727,88.44544-62.72727C148.74545,38.48485,195.303,55.07273,195.303,85.5303Z" fill="url(#linear-gradient-4)"/><path d="M243.394,101.6303c7.31818-12.12727,3.48485-23.697-2.78789-35.26666C258.44849,79.46666,265,100.79394,265,120.37879c0,39.0303-30.0394,92.34848-76.24848,92.34848-18.81818,0-28.297-13.03332-28.297-28.297C160.45456,137.803,223.25153,134.94544,243.394,101.6303Z" fill="url(#linear-gradient-5)"/><path d="M141.28788,241.02425c6.9697,12.54545,19.79394,13.5212,33.10606,13.5212-7.17879,4.80909-16.44849,6.9697-24.39394,6.9697-12.82424,0-25.36969-4.53031-35.96364-10.45454-26.20606-14.77575-51.15757-49.13636-51.15757-82.8697,0-19.51514,9.75757-46.13938,32.68788-46.13938,27.73939,0,36.9394,32.2697,36.9394,54.8515,0,22.23333-1.25455,46.2091,8.78182,64.05151Z" fill="url(#linear-gradient-6)"/></svg>