<svg xmlns="http://www.w3.org/2000/svg" viewBox="0 0 300 300"><g id="Ebene_1" data-name="Ebene 1"><circle cx="150" cy="150" r="125.00001" fill="#80b384"/><circle cx="150" cy="150" r="125.00001" fill="#80b384"/><path d="M166.92247,63.7142a11.22406,11.22406,0,0,0-13,8.5c-1.00006,5,1.49994,9.5,6.00006,12a.4897.4897,0,0,1-.5.5l-1.00006,5.5a3.04141,3.04141,0,0,0,6.00006,1l1.00006-5.5v-1c4.5-.5,8.99994-4,10-8.5C176.92247,70.71419,172.92238,64.7142,166.92247,63.7142Z" fill="#fff" opacity="0.6" style="isolation:isolate"/><path d="M231.92247,71.2142a19.92126,19.92126,0,0,0-28.50006-.5c-6.49994,6.5-8,16.5-3.99994,24a1.07542,1.07542,0,0,0-1.00006,1l-7,7a5.20417,5.20417,0,0,0,0,8c2.5,2,6.00006,2.5,8,0l7-7c.5-.5.5-1,1.00006-1a19.73236,19.73236,0,0,0,23.99994-3C239.42247,92.2142,239.42247,79.21419,231.92247,71.2142Z" fill="#fff"/><path d="M221.92247,175.21419a10.62141,10.62141,0,0,0-13,2l-.5-.5-4.5-2.5a3.02078,3.02078,0,0,0-2.5,5.5l4.5,2.5h.5a11.04535,11.04535,0,0,0,5.5,12,10.88819,10.88819,0,0,0,15-4.5A11.07758,11.07758,0,0,0,221.92247,175.21419Z" fill="#fff" opacity="0.8" style="isolation:isolate"/><path d="M118.92244,210.71419c.5-.5.5-.5.5-1l3.99994-6.5c1.00006-2,.5-5-1.49994-6s-5-.5-6.00006,1.5l-3.99994,6.5c0,.5-.5.5-.5,1a15.46275,15.46275,0,0,0-17,7c-4.5,7.5-2,16.5,5.5,21s16.49994,2,21.00006-5.5C124.92235,223.21419,123.42241,215.71419,118.92244,210.71419Z" fill="#fff" opacity="0.8" style="isolation:isolate"/><path d="M98.92244,115.71419l-6.49994-3.5c-.5,0-.5,0-1.00006-.5,1.49994-6-1.00006-13-7-16a14.66713,14.66713,0,1,0-14.5,25.5,14.3323,14.3323,0,0,0,17.5-2.5,1.74583,1.74583,0,0,0,1.00006.5l6.49994,3.5a4.02186,4.02186,0,0,0,5.5-1.5A3.45434,3.45434,0,0,0,98.92244,115.71419Z" fill="#fff"/><path d="M193.42241,163.21419l-1.49994-.5a44.17563,44.17563,0,0,0-2-35.5,10.88654,10.88654,0,0,0-2.5-4c3-3,3-7.5,0-11a7.733,7.733,0,0,0-10.5-.5c-3.50006-2.5-7-5-11.00006-6.5a7.27891,7.27891,0,0,0-6.00006-8,7.01364,7.01364,0,0,0-8.50006,5,43.821,43.821,0,0,0-37.5,18c-3.50006-2-8-.5-10.5,3a7.58881,7.58881,0,0,0,3,10.5h.5c-3.50006,10.5-2.5,22.5,2.5,33a47.51716,47.51716,0,0,0,12.5,15.5l-1.00006,1.5a7.72175,7.72175,0,0,0,13.50006,7.5l1.00006-2c11.00006,3.5,23,3.5,34.5-2a42.278,42.278,0,0,0,14.5-11.5l1.49994,1a7.72175,7.72175,0,0,0,7.50015-13.5Z" fill="#fff"/></g></svg>