<svg id="Layer_1" data-name="Layer 1" xmlns="http://www.w3.org/2000/svg" viewBox="0 0 300 300"><path d="M33.73756,137.81635h3.706l9.15658,17.85727a.54138.54138,0,0,0,.11972.02006.08557.08557,0,0,0,.05825-.03385q4.58123-8.89968,9.1784-17.83719h3.67266c.16624.57762.24345,22.267.08184,24.39172-.4326.00382-.87579.0093-1.319.01123-.45034.002-.9007.00043-1.45529.00043-.00028-2.25-.00065-4.44664-.00079-6.64329q-.0002-3.31305,0-6.62609v-6.6251a.57077.57077,0,0,0-.09572.00525c-.02338.006-.056.01475-.065.03225q-4.47259,8.697-8.95228,17.41595H45.56178l-8.91817-17.41324-.15063.04464v19.75182a27.01429,27.01429,0,0,1-2.73108.0547C33.60851,161.6278,33.5881,138.5862,33.73756,137.81635Z" fill="#003b85"/><path d="M79.61654,159.79966H77.37143Q72.9155,151.09911,68.445,142.37l-.14812.04346v19.77178c-.95217.07837-1.84657.02634-2.73048.03825-.155-.58325-.17961-23.60415-.02871-24.406h3.70794c3.04754,5.942,6.11923,11.93113,9.25464,18.04445l9.247-18.03835H91.43c.16933.5742.24879,22.17625.084,24.38712-.88131.02752-1.77343.02165-2.7547-.00408-.045-2.22764-.01447-4.4246-.02-6.62085-.00558-2.20868-.00123-4.41738-.00123-6.62608v-6.62427a.51114.51114,0,0,0-.09261.00111c-.02344.00536-.05662.01358-.06546.03076Q84.10626,151.06378,79.61654,159.79966Z" fill="#003b85"/><path d="M126.73873,142.60327v19.58115h-2.79557V137.80874c.47083-.0097.93885-.023,1.407-.02794.45216-.0048.90442-.001,1.38848-.001l15.5582,19.58609.14231-.052V137.82047h2.79825v24.36112h-2.80028L126.91,142.57258Z" fill="#003b85"/><path d="M174.56982,146.72A11.27884,11.27884,0,0,0,170,139.77a13.24079,13.24079,0,0,0-8.04-2.27,12.21665,12.21665,0,0,0-3.23975.48,11.184,11.184,0,0,0-7.56005,6.29,13.52839,13.52839,0,0,0-.7002,9.55,11.11458,11.11458,0,0,0,7.47022,7.95,13.81219,13.81219,0,0,0,8.27.24,11.10291,11.10291,0,0,0,7.05957-5.38A13.53183,13.53183,0,0,0,174.56982,146.72Zm-3.67968,7.77a8.51954,8.51954,0,0,1-7.3501,5.35A9.07614,9.07614,0,0,1,156.6499,157.97a9.19913,9.19913,0,0,1-3.3501-5.87c-.11962-.69-.1499-1.4-.23-2.09a10.72467,10.72467,0,0,1,1.79-6.05,8.646,8.646,0,0,1,6.78028-3.85,9.13573,9.13573,0,0,1,6.6499,1.93,8.71651,8.71651,0,0,1,2.91992,4.29A11.42687,11.42687,0,0,1,170.89014,154.49Z" fill="#003b85"/><path d="M227.72021,146.13a11.08958,11.08958,0,0,0-7.58007-7.94,13.799,13.799,0,0,0-9.48.24,10.98965,10.98965,0,0,0-5.73,4.91A13.66847,13.66847,0,0,0,203.25,150.4a12.51408,12.51408,0,0,0,.47021,3.29,11.26842,11.26842,0,0,0,7.37989,8.04,13.73752,13.73752,0,0,0,8.33984.3,11.19883,11.19883,0,0,0,7.62012-6.35A13.52769,13.52769,0,0,0,227.72021,146.13ZM224.23,154.41a8.50878,8.50878,0,0,1-7.46,5.44,9.01272,9.01272,0,0,1-7.48975-2.47,9.31323,9.31323,0,0,1-2.68017-5.28c-.12012-.71-.1499-1.44-.22022-2.16a10.75258,10.75258,0,0,1,1.78028-5.98,8.69948,8.69948,0,0,1,6.77978-3.85,9.383,9.383,0,0,1,5.27,1.02,8.50507,8.50507,0,0,1,4.1499,4.77A11.28836,11.28836,0,0,1,224.23,154.41Z" fill="#003b85"/><path d="M246.79,152.02c.33008-.13.58984-.22.83984-.33a6.63412,6.63412,0,0,0,3.82032-3.94,7.54475,7.54475,0,0,0,.40966-3.7,6.63768,6.63768,0,0,0-4.15966-5.66,8.19179,8.19179,0,0,0-3.32032-.61H233.56006c-.18994,0-.37988.04-.58008.06v24.35h2.87012c.02-3.31-.01026-6.58.02-9.87H243.71q3.06006,4.95,6.1001,9.88h3.25976C250.96,158.79,248.8999,155.44,246.79,152.02Zm-2.71-2.19q-3.85547.015-7.72022,0c-.11963,0-.25-.01-.46-.03v-9.5a5.49818,5.49818,0,0,1,.57031-.05c2.54981-.01,5.09961-.02,7.63965,0a6.32176,6.32176,0,0,1,1.57032.21,4.81035,4.81035,0,0,1-.18018,9.19A6.13778,6.13778,0,0,1,244.08008,149.83Z" fill="#003b85"/><path d="M274.72788,137.84479V140.24c-1.21088.00106-2.41032.00254-3.60974.00305q-1.85425.0008-3.70849.00012h-7.28138v8.24h13.51614v2.46347c-.88311.02949-1.78011.00942-2.67586.01312-.88295.00364-1.76595.00079-2.64892.00079H260.2374A72.529,72.529,0,0,0,260.182,159.75H275v2.43015H257.20579V137.89236C257.77269,137.756,273.57534,137.70945,274.72788,137.84479Z" fill="#003b85"/><path d="M97.10225,137.81175h2.87352c.00811.26753.02308.53333.02316.79913q.00224,6.54766-.00016,13.09532a10.36407,10.36407,0,0,0,.40929,3.11749,6.83921,6.83921,0,0,0,5.70318,4.96078,8.586,8.586,0,0,0,4.761-.4304,6.838,6.838,0,0,0,4.41-5.65137,13.252,13.252,0,0,0,.14578-2.09651c.01271-4.3149.0064-8.62985.00641-12.94478v-.84155h2.88592c.01854.25287.04825.47037.04838.68788q.00391,6.6606.00332,13.32121a11.17807,11.17807,0,0,1-1.41659,5.84609,9.4078,9.4078,0,0,1-6.18412,4.46227,12.22752,12.22752,0,0,1-7.85339-.57175,9.21781,9.21781,0,0,1-5.65158-7.28686,13.95317,13.95317,0,0,1-.18779-2.39475c-.01736-4.46539-.00885-8.93088-.00739-13.39633C97.07122,138.29051,97.08879,138.0934,97.10225,137.81175Z" fill="#003b85"/><path d="M200.03022,141.14616l-1.6968,1.76472c-.287-.25411-.53866-.49681-.81058-.71452a9.85487,9.85487,0,0,0-6.5395-2.13249,9.0262,9.0262,0,0,0-9.08677,7.93662,11.12211,11.12211,0,0,0,1.24232,7.49185,8.59476,8.59476,0,0,0,6.71875,4.3288,10.21234,10.21234,0,0,0,6.88246-1.45307,17.35587,17.35587,0,0,0,1.4769-1.15333l1.82259,1.65281c-.32491.30374-.62666.62728-.96949.89969a12.79733,12.79733,0,0,1-9.2765,2.68284,12.28389,12.28389,0,0,1-6.1509-2.08918,11.04873,11.04873,0,0,1-4.39184-5.95083,13.865,13.865,0,0,1,.42938-9.923,11.03145,11.03145,0,0,1,7.86635-6.5605,13.43238,13.43238,0,0,1,9.42069.94367A10.09724,10.09724,0,0,1,200.03022,141.14616Z" fill="#003b85"/><path d="M27.88777,162.20182H25.12589c-.14616-.5545-.17669-23.50451-.02945-24.38014h2.79133Z" fill="#003b85"/></svg>