<svg id="Layer_1" data-name="Layer 1" xmlns="http://www.w3.org/2000/svg" xmlns:xlink="http://www.w3.org/1999/xlink" viewBox="0 0 300 300"><defs><style>.cls-1{fill:url(#linear-gradient);}.cls-2{fill:#63a2d8;}</style><linearGradient id="linear-gradient" x1="150.04" y1="242.13" x2="150.04" y2="61.39" gradientTransform="matrix(1, 0, 0, -1, 0, 302)" gradientUnits="userSpaceOnUse"><stop offset="0.15" stop-color="#928dbe"/><stop offset="0.35" stop-color="#51498a"/><stop offset="1" stop-color="#272761"/></linearGradient></defs><path class="cls-1" d="M160.93,240.61H171.5a3.43,3.43,0,0,0,3.33-3.33l2-109.08,1-2.16,15.08-18.4,2.35-2.35,10,7.83-1.77,2.94-17.23,22.13a3.24,3.24,0,0,0,.59,4.7l8.42,6.46a3.24,3.24,0,0,0,4.7-.59l42.5-54.44c1.17-1.37-.2-8-1.57-9.2l-2.55-2c-1.37-1.18-8.81-.2-10,1.17l-17.62,22.33-2.15,2.54-10.19-8,1.76-2.74,17.63-22.32c1.18-1.37.2-8.82-1.17-10l-2.55-2c-1.37-1.17-8.81-.19-10,1.18l-46,56.79-.78,44.65v3.33H141.34v-48L95.13,61.62c-1-1.57-7.44-2.35-9-1.18l-3.53,2.74c-1.37,1.18-1.37,8.42-.19,9.79l17,22.13,2,2.74-10.38,8-2.15-2.54L71.43,81c-1.17-1.37-9-2.15-10.38-1l-2,1.57c-1.37,1.18-2.54,8.42-1.37,9.79l42.11,54.05a3.38,3.38,0,0,0,4.7.59l8.42-6.46a3.39,3.39,0,0,0,.59-4.7L96.3,112.73l-2.15-2.55L104.72,102l2.16,2.54L123.72,126l.78,2V236.89a3.44,3.44,0,0,0,3.33,3.33h10.58a3.44,3.44,0,0,0,3.33-3.33v-61.3H157.6v61.69A3.19,3.19,0,0,0,160.93,240.61Z"/><path class="cls-2" d="M211.65,83.93,198,73.16l6.46-8a7.13,7.13,0,0,1,10-1.17l2.54,1.95a7.12,7.12,0,0,1,1.18,10Z"/><path class="cls-2" d="M235.74,103,222.23,92.37l6.26-8a7.13,7.13,0,0,1,10-1.17l2.55,2a7.13,7.13,0,0,1,1.17,10Z"/><path class="cls-2" d="M101.79,70.23,88.08,80.8l-6.26-8.22a6.92,6.92,0,0,1,1.37-9.79l2.54-2a6.93,6.93,0,0,1,9.8,1.37Z"/><path class="cls-2" d="M77.7,89,64,99.61l-6.27-8a6.92,6.92,0,0,1,1.37-9.79l2.55-2a6.92,6.92,0,0,1,9.79,1.37Z"/></svg>