<svg id="Layer_1" data-name="Layer 1" xmlns="http://www.w3.org/2000/svg" viewBox="0 0 300 300"><path d="M250,51.60258a116.128,116.128,0,0,0-21.50829,5.96587A58.09636,58.09636,0,0,0,211.71045,67.731c-9.72437,8.08053-16.46656,18.48853-23.17829,28.92466a21.663,21.663,0,0,1-10.11166,8.82325c-2.37476.97353-4.9358,1.01968-7.40957,1.45445a103.66149,103.66149,0,0,0-12.81168,2.90535c6.33866.40123,11.954.88123,17.87107,4.08786-8.56646,1.95015-16.76535,2.21857-24.19841,5.79242,5.72021.27624,11.496.03986,16.65416,3.64526-1.8421,1.42829-3.82415,1.40444-5.60689,1.91514A80.35239,80.35239,0,0,0,143.3249,133.318c-7.575,4.5663-12.83987,11.31921-17.42077,18.75014-8.4538,13.71332-15.22964,28.29153-22.36763,42.68476-2.19047,4.417-4.1971,8.92466-6.36869,13.35123a23.67157,23.67157,0,0,1-7.86231,9.02741c.19214-3.05568,1.3801-5.30941,2.3827-7.52326,7.72577-17.05931,15.69263-34.00043,24.64741-50.468,4.10653-7.55175,7.67253-15.39512,11.69481-22.99471,9.35637-17.67768,18.558-35.45324,29.80506-52.0477A203.71409,203.71409,0,0,1,172.587,65.27345c9.302-10.75483,21.25748-16.97283,34.95556-20.06275,11.344-2.5589,22.614-2.395,33.66,1.57831A26.29586,26.29586,0,0,1,250,51.60258Z" fill="#7c828d"/><path d="M50.00838,208.662c-.42514-21.34256,15.36813-42.12512,38.55581-46.39694a52.45179,52.45179,0,0,1,7.5686-.80588,6.89544,6.89544,0,0,1,7.33486,6.65909c.09831,3.38773-3.30211,6.78112-7.12635,6.88639-13.66769.37615-23.65113,6.96719-29.72331,19.11415a33.863,33.863,0,0,0,24.65017,48.50753c19.0482,3.27494,34.31145-9.36914,38.2015-25.11338a34.00983,34.00983,0,0,0-5.13877-28.29432c-.42695-.631-.9659-1.19471-1.33391-1.85577a6.62186,6.62186,0,0,1,2.08608-9.03591,6.459,6.459,0,0,1,8.82665,1.58855,40.36688,40.36688,0,0,1,7.46067,14.03914c5.63663,19.71685,1.38441,36.95315-13.85619,50.92017-16.63694,15.24666-43.2413,15.45259-60.4212.82565C55.67193,235.97668,50.09075,223.58054,50.00838,208.662Z" fill="#204980"/></svg>