<svg id="Layer_1" data-name="Layer 1" xmlns="http://www.w3.org/2000/svg" xmlns:xlink="http://www.w3.org/1999/xlink" viewBox="0 0 300 300"><defs><linearGradient id="linear-gradient" x1="229.24017" y1="115.12412" x2="54.73204" y2="167.31346" gradientUnits="userSpaceOnUse"><stop offset="0.16472" stop-color="#572b8f"/><stop offset="0.5" stop-color="#c2b5d4"/><stop offset="0.81068" stop-color="#572b8f"/></linearGradient><linearGradient id="linear-gradient-2" x1="133.69162" y1="155.2864" x2="215.26601" y2="155.2864" gradientUnits="userSpaceOnUse"><stop offset="0" stop-color="#e3432a"/><stop offset="1" stop-color="#572b8f"/></linearGradient><radialGradient id="radial-gradient" cx="240.09094" cy="62.82312" r="7.34534" gradientUnits="userSpaceOnUse"><stop offset="0" stop-color="#fff"/><stop offset="1" stop-color="#e3432a"/></radialGradient></defs><rect x="145.87137" y="86.45054" width="32.11031" height="7.83178" rx="1.21922" fill="#c4b2d2"/><rect x="145.87131" y="100.39151" width="43.07296" height="7.83178" rx="1.21922" fill="#c4b2d2"/><rect x="145.87132" y="111.82624" width="39.44226" height="7.83178" rx="1.21922" fill="#c4b2d2"/><path d="M178.04151,183.902h24.818a3.91589,3.91589,0,0,1,3.91589,3.91589v0a3.91588,3.91588,0,0,1-3.91588,3.91588h-24.818a3.91589,3.91589,0,0,1-3.91589-3.91589v0a3.91589,3.91589,0,0,1,3.91589-3.91589Z" fill="#c4b2d2"/><rect x="157.15107" y="196.21376" width="40.6383" height="7.83178" rx="1.21922" fill="#c4b2d2"/><rect x="169.6858" y="208.52551" width="19.01279" height="7.83178" rx="1.21922" fill="#c4b2d2"/><path d="M208.15575,151.32825c8.64321-5.77347,14.9432-10.40932,14.9432-10.40932-1.2396,3.66822-6.58854,9.13573-12.6,14.40009-9.20372,8.06611-19.96959,15.69111-19.96959,15.69111a185.583,185.583,0,0,1-17.59321,9.57767c-34.14913,16.23338-63.849,16.77732-88.25127,14.84122-29.49669-7.4716-36.08523-22.92474-34.4551-37.57939,1.95269-17.74577,15.91167-34.33652,15.91167-34.33652-14.70606,41.163,7.69215,46.138,7.69215,46.138,44.32132,14.095,80.79709,1.121,102.6862-11.343,14.29811-8.11752,22.3808-16.03023,22.3808-16.03023.22056-.22139.45853-.45853.66251-.67909,50.84187-51.91232-7.43761-66.04045-7.43761-66.04045,40.48312,1.35817,40.70368,25.33594,40.70368,25.33594.6965,18.73-12.192,34.98162-26.84751,47.32705a172.51237,172.51237,0,0,1-22.89074,16.04681,181.02544,181.02544,0,0,1-17.15127,8.98317c4.68727-.59368,11.46237-3.58282,18.74741-7.52218C192.618,161.43245,201.15926,156.01552,208.15575,151.32825Z" fill="url(#linear-gradient)"/><path d="M171.08373,65.38352s-37.31817,17.189-15.37961,38.90137l47.04352,40.03223s21.26005,21.78833,8.36832,43.50073c0,0-29.4022,45.61055-71.47,57.37143,0,0,75.62-36.63966,50.88842-74.184L171.3099,153.59012s-35.50881-24.42644-37.54434-51.56693C133.31321,96.36892,133.76556,73.978,171.08373,65.38352Z" fill="url(#linear-gradient-2)"/><circle cx="236.26224" cy="68.54847" r="13.73776" fill="url(#radial-gradient)"/><path d="M172.93616,180.5878c-34.14913,16.23338-63.849,16.77732-88.25127,14.84122-29.49669-7.4716-36.08523-22.92474-34.4551-37.57939l.56052.81507C47.29206,211.7818,159.14716,184.18721,172.93616,180.5878Z" fill="#572d86"/></svg>