<?xml version="1.0" encoding="utf-8"?>
<!-- Generator: Adobe Illustrator 28.3.0, SVG Export Plug-In . SVG Version: 6.00 Build 0)  -->
<svg version="1.1" id="Layer_1" xmlns="http://www.w3.org/2000/svg" xmlns:xlink="http://www.w3.org/1999/xlink" x="0px" y="0px"
	 viewBox="0 0 300 300" style="enable-background:new 0 0 300 300;" xml:space="preserve">
<style type="text/css">
	.st0{fill:#767561;}
</style>
<g id="Group_61">
	<g>
		<path id="Path_222_00000025405071639985656940000003422572361981018554_" class="st0" d="M255.2,114.6l-48.8-0.1l-7.2,10.2
			l-20.9,29.5l-12.8-29.9c15.3-6.1,26.2-28.3,28.8-43c4.8-27.3-14.3-41.5-39.7-41.5H70.4l-7.6,43.3H107l1.6-8.7h20.7
			c10.5,0,21.8,1.4,19.5,14.3c-2.2,12-12,14.5-22.1,14.5l-22.1,0.1l17,31.2l0,0l25.5,48.2l-64.9,77.4h50.5l32.8-43.5l17.3,43.3
			l53.6,0.1l-38.6-77.3L255.2,114.6z"/>
		<path id="Path_223_00000000931656416376974700000016195621035773082027_" class="st0" d="M61.5,90.1l-16.7,95.1H89l8.9-50.5
			l5.5-31.2l2.4-13.3H61.5V90.1z"/>
	</g>
</g>
</svg>
