<svg id="Layer_1" data-name="Layer 1" xmlns="http://www.w3.org/2000/svg" viewBox="0 0 300 300"><path d="M76.0317,185.416c-10.74308.98447-18.049-3.85129-23.19155-13.05019-8.03766-14.37756-16.36571-28.59359-24.60244-42.8598-4.03446-6.98778-4.41865-14.147-.47335-21.16366,8.77763-15.61088,17.5968-31.205,26.78032-46.5789,4.16606-6.97429,10.65668-10.54912,19.134-10.46582q25.76706.25322,51.538.00774c8.44488-.08378,14.68145,3.37006,19.09027,10.38582,1.85924,2.95858,3.61434,5.9824,5.7602,9.547,1.59585-2.67709,3.09476-4.97537,4.38018-7.38707,4.48121-8.40773,11.23267-12.67944,20.97947-12.55982q25.14474.30858,50.29548-.00655c9.22666-.12553,15.82983,3.75136,20.35655,11.53452Q256.79557,81.2454,267.448,99.70877c1.238,2.13677,2.45849,4.2855,3.76072,6.38311,4.91645,7.91906,5.07743,15.82484.3302,23.93025-7.181,12.26083-14.21124,24.60964-21.30848,36.91937-1.13059,1.96093-2.3008,3.8994-3.41092,5.87171-4.46878,7.93949-10.71828,12.99638-20.35583,12.644a9.237,9.237,0,0,0-1.63812.2024c-6.89614,13.77253-14.98621,26.667-22.45915,39.90627-2.43022,4.30546-4.94795,8.56266-7.47977,12.80979-4.02332,6.7491-10.01164,10.27236-17.86481,10.30495-17.80046.07391-35.60148-.00763-53.40212.03742-8.17373.02069-14.34905-3.50817-18.47-10.41691-6.01357-10.08176-11.82729-20.28249-17.71652-30.43808-2.7883-4.80822-5.59807-9.60489-8.31208-14.45479-1.40258-2.50634-2.87281-5.01964-3.09347-7.99658q3.83162-.0279,7.66325-.05585c.5984,5.12589,3.95934,8.95315,6.36188,13.19717,6.38151,11.2727,13.01383,22.40354,19.44049,33.65113a18.76905,18.76905,0,0,0,16.72287,9.89763c15.49717.32008,31.00869.28253,46.5081.02168,7.86974-.13248,14.21434-3.438,18.2906-10.64931,7.38824-13.07046,15.02367-26.00147,22.48243-39.03259,1.08322-1.89248,2.64535-3.7581,1.91232-6.27746-1.89819-1.30431-4.02111-.68391-6.01467-.695-11.57582-.06464-23.1543-.1675-34.72766.01258-8.748.1361-14.95988-3.75762-19.34474-11.04332-1.712-2.84468-3.433-5.684-5.40314-8.945-1.87812,3.26619-3.4035,5.94218-4.95085,8.60546-4.2587,7.33006-10.3441,11.45785-19.1209,11.37-14.055-.14062-28.11214-.07658-42.16837-.09905l-.09361-6.26719c12.574-.05517,25.14839-.19312,37.72191-.13741,8.85338.03923,15.34919-3.60723,19.53746-11.44783,1.54328-2.88907,3.39-5.61654,5.0983-8.41773,2.358.691,1.86793,4.02812,4.18,4.66722,1.87027-.61882,1.43266-3.735,4.00578-3.33854,2.61843,1.85581,3.71226,4.8506,5.10212,7.47076,4.16235,7.84686,10.7989,10.993,19.2878,11.0272q16.45808.06624,32.91648-.01437c1.60127-.007,3.31114.50266,5.08047-.77823-.27521-2.81254-1.7761-5.28786-3.18944-7.74467-6.87885-11.95763-14.08553-23.73633-20.64514-35.86469-4.13928-7.65334-9.79181-12.57011-18.48334-13.79152q-.04729-2.93138-.09462-5.86275c9.3047-1.36694,16.32895,2.54687,20.79755,10.27,10.2694,17.74889,21.31423,35.07408,30.15372,53.66554,6.33038-.89385,11.97475-3.01308,15.39719-8.92034,7.84322-13.5379,15.57471-27.14132,23.52826-40.61413,4.28035-7.25059,4.50856-14.23415.17411-21.54752C256.59732,94.9731,249.02056,82.22482,241.886,69.238c-4.38515-7.98209-11.04185-11.42631-19.67329-11.52414-14.48317-.16414-28.96956-.06507-43.45452-.038-9.094.017-15.73031,4.07207-20.02324,12.11376-1.21518,2.27634-1.86608,5.02014-4.42106,6.404-2.77569.66492-2.2642-3.1378-4.45984-3.2904-1.83746,1.04111-1.63764,3.84107-3.90407,4.48953-2.0798-1.82434-2.95256-4.40275-4.17324-6.75024-4.79166-9.21481-12.46237-13.16031-22.72871-13.01959-13.44644.18431-26.89748.08459-40.34625.03178-9.4749-.0372-16.54077,3.63005-21.22892,12.19552-7.0137,12.81439-14.337,25.46559-21.78,38.03781C31.33,115.2574,31.707,122.3094,35.877,129.46218c2.28091,3.91235,4.5833,7.81223,6.87266,11.71968,5.621,9.59379,11.16572,19.23316,16.887,28.76692,3.58654,5.97645,8.99542,8.57961,16.206,8.23895a19.12514,19.12514,0,0,1,2.41074-6.6896c8.8513-15.32834,17.61944-30.70558,26.599-45.95867,4.69965-7.983,11.68728-11.95907,21.19346-10.71565l-.145,5.88222c-.71563.9143-1.76447.917-2.78376,1.04282a17.39234,17.39234,0,0,0-13.408,8.832c-8.087,13.81126-15.988,27.731-23.96946,41.604-1.23789,2.15162-2.43136,4.30743-2.14313,6.92543-2.37276.34031-4.89921-.67352-7.25353.68908C76.23515,181.74537,76.13343,183.58068,76.0317,185.416Z" fill="#4e719b"/><path d="M174.198,120.73272a1.37314,1.37314,0,0,1-.71339.31028l-7.552-.62984-.2855-5.79873-.00409.004,7.61158-.11063a4.6156,4.6156,0,0,1,.84874.3622Q174.15067,117.80135,174.198,120.73272Z" fill="#222a37"/><path d="M145.94328,159.09956a1.72881,1.72881,0,0,1,.01909-.9866c1.01253-2.24765,3.69538-3.57024,3.57932-6.44292l.5295.01055.5231-.08265c.42988,2.24751.42341,4.78974,3.53885,5.22342q-.00207,1.80344-.00413,3.60688c-2.57312-.39646-2.13551,2.71972-4.00578,3.33854C147.81121,163.12768,148.30124,159.79056,145.94328,159.09956Z" fill="#222a37"/><path d="M154.31387,76.19364l-.27339,3.58742c-2.73466-.37856-2.04228,3.953-4.92729,3.487-1.02043-1.55785-2.07822-3.17272-3.136-4.7876a1.86162,1.86162,0,0,1-.02724-1.08766c2.26643-.64846,2.06661-3.44842,3.90407-4.48953C152.04967,73.05584,151.53818,76.85856,154.31387,76.19364Z" fill="#222a37"/><path d="M126.67609,121.04431a1.60484,1.60484,0,0,1-.77514-.33828l.145-5.88222a1.93486,1.93486,0,0,1,.78345-.37c1.97193.46365,4.102-.29326,6.34361.81392V120.648Z" fill="#222a37"/><path d="M83.58561,179.10253l.09361,6.26717.01164-.01387q-3.83162.02793-7.66325.05585l.00409.00434c.10173-1.83534.20345-3.67065.31134-5.61674,2.35432-1.3626,4.88077-.34877,7.25353-.68908Z" fill="#222a37"/><path d="M133.173,120.648v-5.38025c-2.24161-1.10718-4.37168-.35027-6.34361-.81392.702-5.23358,3.92634-9.32559,6.36932-13.74177,4.13685-7.47817,8.50662-14.8279,12.77845-22.23163,1.05777,1.61488,2.11556,3.22975,3.136,4.7876,2.885.466,2.19263-3.86553,4.92729-3.487,5.58758,6.62215,8.92293,14.63585,13.46265,21.90714,2.46408,3.94671,5.311,7.89349,5.75147,12.81957l-7.61158.11063a8.76835,8.76835,0,0,0-.43891-2.97742c-3.73926-6.74469-7.57732-13.43507-11.42722-20.1179a1.299,1.299,0,0,0-2.02748-.46756l.08449.08611c.97114-2.3176-.38781-3.70316-2.40618-5.68576-4.8009,9.89036-11.62019,18.22653-15.42936,29.15856h31.64875l.2855,5.79873q-.236.28312-.49166.54861c-10.53862.1474-21.08462-.44813-31.61712.31379Q133.496,120.96436,133.173,120.648Z" fill="#4e719b"/><path d="M154.13314,156.82136c-3.11544-.43368-3.109-2.97591-3.53885-5.22342a6.54435,6.54435,0,0,1,.44063-1.76528c3.92564-6.75938,7.9781-13.44707,11.80259-20.26247,1.47217-2.62346,3.57821-5.19049,2.60344-8.60842q.25569-.2655.49166-.54861l7.552.62984c-.21189,3.59212-1.7985,6.68168-3.55221,9.71284q-7.0742,12.22713-14.11861,24.47134C155.38887,155.96939,155.02348,156.63312,154.13314,156.82136Z" fill="#4e719b"/><path d="M126.67609,121.04431l6.49695-.39631q.32292.31635.65079.62756c.24431,3.39333,2.15976,6.12628,3.66076,8.99831,3.79275,7.2571,8.62745,13.932,12.0571,21.39617.11606,2.87268-2.56679,4.19527-3.57932,6.44292-5.36253-9.27025-10.7481-18.52733-16.07384-27.8186C128.24513,127.42727,126.74126,124.47509,126.67609,121.04431Z" fill="#4e719b"/><path d="M150.0107,147.00008c-4.90327-8.55927-9.03726-15.7757-13.475-23.52229h26.39278C159.63469,131.55749,154.34405,138.25081,150.0107,147.00008Z" fill="#4e719b"/><path d="M151.74941,91.05552c1.10446,4.67913,4.3568,8.24952,6.46074,12.41473,1.544,3.05662,3.371,5.97069,5.35607,9.44579h-27.211c4.56232-8.00383,8.86449-15.5512,13.16966-23.10392l2.30905,1.32951Z" fill="#121a28"/></svg>