<svg id="Layer_1" data-name="Layer 1" xmlns="http://www.w3.org/2000/svg" viewBox="0 0 300 300"><defs><style>.cls-1{fill:#08bce2;}.cls-2{fill:#7cc145;}.cls-3{fill:#0c7bbf;}.cls-4{fill:#fdfefe;}</style></defs><path class="cls-1" d="M206.43,39.82c6.63,12.2,7.63,25,4,38.18-4.29,15.5-13.27,28.28-23.85,39.94-12.19,13.41-25,26.24-37.24,39.61-7.45,8.13-13.5,17.28-16.87,28-3.73,11.85-2.26,23.09,4,33.68,5.43,9.24,12.91,16.67,21.51,23.09-.34.77-1.09.49-1.65.29-19.75-7-34.84-18.87-39.52-40.4-3.27-15.09.81-29.11,8.37-42.23,7.84-13.61,18.72-24.68,29.92-35.46,9.89-9.52,20.23-18.58,29.56-28.67,10.2-11,18.62-23.08,21.09-38.37C206.64,51.62,206.13,45.73,206.43,39.82Z"/><path class="cls-1" d="M119.52,63.8c-10,3-18.27,8.8-25.83,15.63a86.68,86.68,0,0,0-4.38,124.35,97.44,97.44,0,0,0,23.41,18c.81.45,1.6.94,2.7,1.59-1.62.81-2.65,0-3.66-.37-32-12.41-55.24-45.44-55.68-79.81-.5-39.41,16.79-69.17,51.8-86.79,30.77-15.48,61.89-13.23,91.46,5,1,.64,3.8.95,1.77,3.41a2.87,2.87,0,0,1-3.44-.2c-4.62-3-9.83-4.72-15.08-6.24a83.62,83.62,0,0,0-38.07-2.19c-8.46,1.47-16.34,4.44-24.19,7.65-.35-.47-.62-.26-.87.11Z"/><path class="cls-2" d="M150.11,260a86.63,86.63,0,0,0,15.62-13.07q17.11-18.47,6.67-41.42c-5-11.12-12.48-20.62-19.83-30.21l-5-6.49A89.8,89.8,0,0,1,159.33,155c4,3.48,6.87,7.49,9.9,11.34,9.36,11.93,17.92,24.27,21.3,39.5,5.48,24.71-8.67,47.45-33.39,53.17C155.06,259.52,153,260.6,150.11,260Z"/><path class="cls-3" d="M120.33,63.78c7.85-3.21,15.73-6.18,24.19-7.65a83.62,83.62,0,0,1,38.07,2.19c5.25,1.52,10.46,3.21,15.08,6.24a2.87,2.87,0,0,0,3.44.2c-.76,3.7-2.67,6.79-5,9.92a87,87,0,0,0-24-8.47c-38.46-7.07-76.9,15.93-88.94,53.12-6.21,19.18-5.25,38,1.66,56.76a1.66,1.66,0,0,1-.49,1.67C67.12,148.25,72,108.06,95.64,82.33c7-7.55,15.23-13.25,23.88-18.53l-.06.09Z"/><path class="cls-3" d="M204.45,209c9-7.77,16.94-16.36,22.47-27,16.91-32.56,11.27-68.77-15.24-95.72.89-3.8,1.85-7.88,2.95-12.56,13.27,14.12,24.14,29.2,27.56,48.19,6.25,34.7-4.22,63.3-32.78,84.7-1.48,1.1-2.84,2.65-5,2.33Z"/><path class="cls-2" d="M140.43,130.86l-9.9,11.3c-10.3-14-13.8-40.28-.13-56.06C126.72,103.15,130.82,117.68,140.43,130.86Z"/><path class="cls-2" d="M158.39,89.32c5.88,0,9.84,3.82,9.88,9.62,0,6.19-3.74,10.19-9.72,10.28a9.73,9.73,0,0,1-10.2-9.93C148.3,93.25,152.23,89.35,158.39,89.32Z"/><path class="cls-3" d="M84.32,177.76a1.66,1.66,0,0,0,.49-1.67c1,2.3,2.11,4.59,3.16,6.88l-.41.2Z"/><path class="cls-3" d="M204.39,208.9c.07.9-.62.81-1.17.91l.08,0,1.15-.88Z"/><path class="cls-4" d="M120.33,63.78l-.87.11C119.71,63.52,120,63.31,120.33,63.78Z"/></svg>