<svg xmlns="http://www.w3.org/2000/svg" viewBox="0 0 300 300"><g id="Calque_1" data-name="Calque 1"><path d="M110.59129,57.44568c-22.261,3.14307-41.23532,18.3809-43.19162,34.634-1.51127,12.57226,7.09275,18.39481,7.46361,18.63123a4.92818,4.92818,0,0,1,2.65167,4.15366c.01391,2.60995-2.08147,5.563-5.6093,7.88548-.955.62119-23.65642,15.53452-26.49816,35.39424-3.18478,22.39549,12.55371,42.08832,38.27306,47.90158a79.05441,79.05441,0,0,0,18.34845,1.61326c24.94517-1.00133,39.177,2.24372,43.56249,9.84641,4.87222,8.15434,13.61531,16.17425,20.81468,19.0948,31.04587,12.92922,66.04142,6.24441,81.40905-15.40007,7.08348-10.08284,9.00734-21.76965,5.42386-32.90482-4.13048-12.79941-15.08485-23.58225-30.05844-29.59949h0c-12.41928-4.96029-22.29815-5.06691-33.31277-3.66227-8.86826,1.01524-18.90474-1.03842-19.87362-8.08946a31.90632,31.90632,0,0,0-4.54307-11.93715c-7.5517-12.13649-21.00939-18.69612-21.57959-18.96037-2.749-1.27021-4.37155-3.10134-4.61725-5.12718-.26888-2.34572,1.29338-5.04374,4.30665-7.35236.40795-.306,10.361-7.96892,10.361-20.73588,0-7.051-3.106-13.263-8.97489-17.99612C136.67223,58.22913,124.15561,55.49865,110.59129,57.44568ZM85.2799,199.565c-22.00608-4.92784-35.53794-21.63985-32.84455-40.54923,2.42451-16.92527,23.318-30.71672,23.52662-30.83263,5.53049-3.66227,8.67819-8.502,8.6411-13.33252-.03245-3.85233-2.05829-7.25036-5.70665-9.58217-.153-.07881-5.4795-3.88942-4.45036-12.461,1.62253-13.42524,17.96368-26.08557,37.21147-28.81605,11.33913-1.62716,22.05244.57947,28.65843,5.89209a16.28232,16.28232,0,0,1,6.50864,12.957c0,9.56363-7.68149,15.54843-7.75567,15.61333-4.91393,3.75963-7.41262,8.5623-6.861,13.21663.5053,4.31591,3.50466,7.98282,8.44176,10.28218.09735.03708,12.17822,5.97089,18.66832,16.36433a25.60913,25.60913,0,0,1,3.653,9.54972c1.35365,9.83249,12.79941,15.49279,27.81936,13.7451,10.157-1.30264,18.63587-1.23311,29.57633,3.18479h0c13.04047,5.206,22.55309,14.4961,26.08093,25.39948,2.9669,9.23912,1.349,18.965-4.56162,27.379-13.467,19.02527-44.67508,24.62531-72.61033,13.008-5.84572-2.41524-13.36034-9.41064-17.47227-16.25307-5.84573-10.16165-21.75111-14.38948-50.05259-13.29544A67.90176,67.90176,0,0,1,85.2799,199.565Z"/><path d="M64.17768,150c0,44.179,38.50484,80.07858,85.82232,80.07858,47.32675,0,85.82232-35.90416,85.82232-80.07858S197.33138,69.92142,150,69.92142C102.68252,69.92142,64.17768,105.82559,64.17768,150Zm3.04571,0c0-42.59361,37.13265-77.24148,82.77661-77.24148,45.65323,0,82.78589,34.64787,82.78589,77.24148S195.6486,227.24148,150,227.24148C104.356,227.24148,67.22339,192.59361,67.22339,150Z"/><path d="M64.173,149.9977c0,44.128,38.50021,80.07857,85.82233,80.07857,47.32675,0,85.83159-35.95053,85.83159-80.07859,0-44.17441-38.50484-80.07395-85.83159-80.07395C102.67325,69.92374,64.173,105.82327,64.173,149.9977Zm3.04107,0c0-42.59361,37.13266-77.24149,82.78126-77.24149,45.65323,0,82.78589,34.64788,82.78589,77.24149,0,42.589-37.1373,77.23684-82.78589,77.23684S67.21411,192.58665,67.21411,149.9977Z"/></g></svg>