<svg id="Layer_1" data-name="Layer 1" xmlns="http://www.w3.org/2000/svg" viewBox="0 0 300 300"><defs><style>.cls-1{fill:#254277;}.cls-2{fill:#1376b9;}</style></defs><title>TIL_Light_bg</title><path class="cls-1" d="M173.07,191.35v-53a1.14,1.14,0,0,1,.82-.14c3.83,0,7.66-.07,11.48.11a23.73,23.73,0,0,1,9.46,1.94,12.88,12.88,0,0,1,6,17.36,13.29,13.29,0,0,1-3.38,4c-.16.15-.4.23-.47.52a5.39,5.39,0,0,0,1.39.83c5.66,3.18,8,8.05,7.53,14.45a14.88,14.88,0,0,1-12.09,13.4,27.36,27.36,0,0,1-4.87.5H173.07Zm10.06-9.84a34.21,34.21,0,0,0,8.35-.45c1.8-.46,3.38-1.26,4.13-3.08a6.56,6.56,0,0,0-3.05-8.44,14.77,14.77,0,0,0-6.07-1.29,19.85,19.85,0,0,0-3.36,0Zm.07-22.42a16.25,16.25,0,0,0,5.48-.43,5.06,5.06,0,0,0,3.71-4.41A4.9,4.9,0,0,0,190,149c-2.15-1.26-4.54-1-6.87-1C183,149,183.06,158.41,183.2,159.09Z"/><path class="cls-1" d="M271,171.72a20.43,20.43,0,1,1-40.86-.14c.06-11.78,10.05-20.52,20.26-20.42A20.52,20.52,0,0,1,271,171.72Zm-9.86.14a15.88,15.88,0,0,0-.2-2.42A10.46,10.46,0,0,0,241.2,166a13,13,0,0,0-.91,8.89,10.35,10.35,0,0,0,15.38,6.91C259.53,179.61,261,176,261.14,171.86Z"/><path class="cls-2" d="M50.52,191.07h-5V152.15h5v6.74a37.4,37.4,0,0,1,2.79-3,16.77,16.77,0,0,1,14.7-4.4,13.39,13.39,0,0,1,10.65,10.38,41.08,41.08,0,0,1,.79,7.42c.19,7,0,14.1.08,21.15a1.22,1.22,0,0,1-.1.69h-4.8c-.23-.28-.13-.6-.13-.88,0-6.18,0-12.35,0-18.52a56.32,56.32,0,0,0-.44-7.45c-.59-4.24-3.27-7.41-7.15-8.2a12.38,12.38,0,0,0-10.36,2.26,14.28,14.28,0,0,0-5.81,11c-.44,6.92-.12,13.85-.22,20.77C50.51,190.4,50.52,190.7,50.52,191.07Z"/><path class="cls-1" d="M223.27,191.31h-9.66V152.12h9.66Z"/><path class="cls-2" d="M86.73,186.67l3.18-3.62c.43.5.78,1,1.19,1.36a9.87,9.87,0,0,0,7.39,3.05c3.48-.13,7.26-3.22,6.66-7.39a6.06,6.06,0,0,0-2.44-4,33,33,0,0,0-5-3.06,33.8,33.8,0,0,1-5.06-3.13,10.36,10.36,0,0,1-4.21-8.9,10.16,10.16,0,0,1,7.39-9.35,13,13,0,0,1,10.4,1.73,21.82,21.82,0,0,1,3.7,2.85l-3.38,3.19c-.49-.39-1.14-1-1.85-1.48a9.81,9.81,0,0,0-6-2.14,6,6,0,0,0-5.4,3.7,5.59,5.59,0,0,0,1.83,6,28,28,0,0,0,5.45,3.48,34.69,34.69,0,0,1,5.82,3.77c4.88,4,4.62,11.55.56,15.69A11.86,11.86,0,0,1,97.13,192a14.73,14.73,0,0,1-9.79-4.48A2,2,0,0,1,86.73,186.67Z"/><path class="cls-2" d="M123.29,156.4h-6.78v-4.29h6.74V137.83h5.14v14.22h7.84v4.35H128.4v34.65h-5.11Z"/><path class="cls-2" d="M29,138.51h5.17v52.57H29Z"/><path class="cls-2" d="M157.87,137.15h4.91v53.92h-4.91Z"/><path class="cls-2" d="M148.13,191.07h-5V152.14h5Z"/><path class="cls-2" d="M212.17,142.16c-.3-3,2.49-6.35,6.17-6.34a6.48,6.48,0,0,1,.11,13C215,148.77,211.84,145.43,212.17,142.16Z"/><path class="cls-2" d="M210.85,121.21a5.94,5.94,0,0,1-5.95,5.94,6.1,6.1,0,0,1-5.87-6.3,5.91,5.91,0,1,1,11.82.36Z"/><path class="cls-2" d="M176.34,113.45a5.64,5.64,0,0,1,5.65-5.74,5.87,5.87,0,1,1-5.65,5.74Z"/><path class="cls-2" d="M154.74,121.54a5.08,5.08,0,0,1,5.1-5.22,5.19,5.19,0,0,1,5.12,5.17,5.11,5.11,0,1,1-10.22.05Z"/><path class="cls-2" d="M145.58,144.39a4.09,4.09,0,1,1,4.25-4.09A4.13,4.13,0,0,1,145.58,144.39Z"/></svg>