<?xml version="1.0" encoding="UTF-8"?>
<svg xmlns="http://www.w3.org/2000/svg" version="1.1" viewBox="0 0 300 300">
  <defs>
    <style>
      .cls-1 {
        fill: #98a4af;
      }

      .cls-2 {
        fill: #d3461e;
      }
    </style>
  </defs>
  <!-- Generator: Adobe Illustrator 28.6.0, SVG Export Plug-In . SVG Version: 1.2.0 Build 709)  -->
  <g>
    <g id="Layer_1">
      <g>
        <g>
          <path class="cls-2" d="M20.3,185.6h-5.3v-2h13v2h-5.3v14.1h-2.4s0-14.1,0-14.1Z"/>
          <path class="cls-2" d="M40,183.6h2.4v6.7h8.1v-6.7h2.4v16.1h-2.4v-7.4h-8.1v7.4h-2.4s0-16.1,0-16.1Z"/>
          <path class="cls-2" d="M67.1,183.6h9.5v2h-7.1v4.7h6.5v2h-6.5v5.3h7.1v2h-9.5v-16.1h0Z"/>
          <path class="cls-2" d="M89.8,183.6h4.2c.8,0,1.7,0,2.5.1.8,0,1.5.3,2.1.6.6.3,1.1.8,1.5,1.3.4.6.6,1.3.6,2.3s0,.9-.3,1.4c-.2.4-.4.8-.7,1.1s-.7.6-1.1.8c-.4.2-.9.4-1.4.4h0c.4.2.7.4.9.6.2.2.5.6.8,1.1l3.2,6.4h-2.8l-2.6-5.6c-.2-.4-.4-.7-.6-.9-.2-.2-.4-.4-.6-.5-.2,0-.5-.2-.7-.2-.3,0-.6,0-.9,0h-1.5v7.2h-2.4v-16.1h0ZM92.2,190.5h2.1c1.2,0,2.1-.2,2.7-.7.6-.4,1-1.1,1-1.8s-.3-1.3-.9-1.8c-.6-.4-1.4-.6-2.5-.6h-2.3v4.9Z"/>
          <path class="cls-2" d="M119.7,183.6h2.6l7.2,16.1h-2.7l-1.7-4.1h-8.3l-1.7,4.1h-2.6l7.3-16.1h0ZM120.9,185.7l-3.4,8h6.8l-3.4-8h0Z"/>
          <path class="cls-2" d="M141.2,183.6h4.5c.9,0,1.7,0,2.5.2s1.4.4,2,.8,1,.9,1.4,1.5.5,1.4.5,2.3-.2,1.7-.5,2.3c-.3.6-.8,1.1-1.3,1.5-.6.4-1.2.7-1.9.8-.7.2-1.5.3-2.2.3h-2.4v6.5h-2.4v-16.1h0ZM143.6,191.2h2.4c.4,0,.8,0,1.2-.1s.8-.3,1.1-.5c.3-.2.6-.5.8-.9.2-.4.3-.8.3-1.4s-.1-.9-.4-1.3-.6-.6-.9-.9c-.4-.2-.8-.4-1.2-.5-.4,0-.8-.1-1.2-.1h-2.1v5.6h0Z"/>
          <path class="cls-2" d="M164.5,183.6h9.5v2h-7.1v4.7h6.5v2h-6.5v5.3h7.1v2h-9.5v-16.1h0Z"/>
          <path class="cls-2" d="M200.6,193c0,2.3-.6,4-1.7,5.2s-2.8,1.8-4.9,1.8-3.7-.6-4.9-1.8c-1.1-1.2-1.7-2.9-1.7-5.2v-9.5h2.4v9.2c0,.8,0,1.5.2,2.1.1.6.4,1.2.7,1.7.3.5.8.8,1.3,1.1.5.3,1.2.4,2,.4s1.4-.1,2-.4c.5-.3,1-.6,1.3-1.1.3-.5.6-1,.7-1.7.1-.6.2-1.3.2-2.1v-9.2h2.4v9.5h0Z"/>
          <path class="cls-2" d="M216.4,185.6h-5.3v-2h13v2h-5.3v14.1h-2.4v-14.1Z"/>
          <path class="cls-2" d="M236,183.6h2.4v16.1h-2.4v-16.1Z"/>
          <path class="cls-2" d="M262.6,186.2c-1.1-.6-2.2-.9-3.5-.9s-1.9.2-2.7.5c-.8.3-1.5.8-2.1,1.3-.6.6-1,1.2-1.3,2-.3.8-.5,1.6-.5,2.5s.2,1.8.5,2.6.8,1.4,1.4,2c.6.6,1.3,1,2,1.3.8.3,1.6.4,2.5.4s.6,0,1,0c.4,0,.7,0,1-.2s.6-.1,1-.2c.3,0,.6-.2.8-.3v2.2c-.5.3-1.2.4-1.9.5s-1.3,0-1.8,0c-1.3,0-2.6-.2-3.7-.6-1.1-.4-2-1-2.8-1.7s-1.4-1.6-1.8-2.7c-.4-1-.6-2.2-.6-3.5s.2-2.4.7-3.4c.4-1,1.1-1.9,1.9-2.6.8-.7,1.8-1.3,2.8-1.7,1.1-.4,2.3-.6,3.6-.6s1.3,0,2,.1,1.3.3,1.9.5l-.2,2.2h0Z"/>
          <path class="cls-2" d="M282.9,186c-.3-.1-.6-.2-.8-.3-.3,0-.5-.2-.7-.2-.2,0-.5-.1-.8-.1-.3,0-.5,0-.8,0s-.7,0-1,.1c-.4,0-.7.2-1,.4-.3.2-.5.4-.7.7-.2.3-.3.6-.3,1s.2,1,.5,1.3c.4.3.8.6,1.3.9s1.1.6,1.8.8,1.2.6,1.8,1,1,.9,1.3,1.5c.4.6.5,1.3.5,2.2s-.2,1.6-.5,2.2-.8,1.1-1.3,1.5-1.2.7-2,.8c-.8.2-1.5.3-2.4.3s-1.2,0-1.8-.2-1.1-.3-1.7-.5l.2-2.2c.2,0,.5.2.7.3s.6.2.9.3c.3,0,.6.1,1,.2.3,0,.7,0,1,0s.7,0,1.1-.1c.4,0,.8-.3,1.1-.5.3-.2.6-.5.8-.8.2-.3.3-.7.3-1.2s-.2-1.1-.5-1.5c-.4-.4-.8-.7-1.4-1-.5-.3-1.1-.6-1.8-.8-.6-.3-1.2-.6-1.8-.9-.5-.4-1-.8-1.3-1.3s-.5-1.2-.5-2.1.1-1.3.4-1.9c.3-.6.7-1,1.2-1.4s1.1-.6,1.7-.8,1.4-.3,2.1-.3,1.2,0,1.8.1,1.2.2,1.8.4l-.3,2.1h0Z"/>
        </g>
        <g>
          <g>
            <rect class="cls-2" x="175.6" y="128" width="12.7" height="6.1"/>
            <rect class="cls-2" x="198.6" y="103.8" width="12.8" height="4.9"/>
            <rect class="cls-2" x="198.6" y="110.8" width="12.8" height="1.3"/>
            <rect class="cls-2" x="198.6" y="159.5" width="12.8" height="4.5"/>
          </g>
          <g>
            <rect class="cls-1" x="175.6" y="123" width="12.7" height="2.8"/>
            <rect class="cls-1" x="175.6" y="136.3" width="12.7" height="2.7"/>
            <rect class="cls-1" x="175.6" y="110.8" width="12.7" height="4"/>
            <rect class="cls-1" x="175.6" y="164" width="12.7" height="3.6"/>
            <rect class="cls-1" x="175.6" y="100" width="12.7" height="2.4"/>
            <rect class="cls-1" x="175.6" y="119.9" width="12.7" height="1.1"/>
            <rect class="cls-1" x="175.6" y="144.2" width="12.7" height="1.2"/>
            <rect class="cls-1" x="175.6" y="106.8" width="12.7" height="1.9"/>
            <rect class="cls-1" x="175.6" y="147.2" width="12.7" height="3.9"/>
            <rect class="cls-1" x="175.6" y="156.9" width="12.7" height="1.4"/>
            <rect class="cls-1" x="198.6" y="156.3" width="12.7" height="1.4"/>
            <rect class="cls-1" x="198.6" y="149.2" width="12.8" height="3"/>
            <rect class="cls-1" x="198.6" y="115.4" width="12.8" height="2.7"/>
            <rect class="cls-1" x="198.6" y="100" width="12.8" height="1.2"/>
            <rect class="cls-1" x="198.6" y="146.1" width="12.8" height="1.1"/>
            <rect class="cls-1" x="198.6" y="138.9" width="12.8" height="4.1"/>
            <rect class="cls-1" x="198.6" y="119.9" width="12.8" height="3.1"/>
            <rect class="cls-1" x="198.6" y="166.5" width="12.8" height="1.1"/>
            <rect class="cls-1" x="198.6" y="133" width="12.8" height="3.3"/>
            <rect class="cls-1" x="198.6" y="126.3" width="12.8" height="1.3"/>
          </g>
        </g>
        <g>
          <path class="cls-1" d="M15.1,167.6h11.9v-60.5h-11.9v60.5h0Z"/>
          <path class="cls-1" d="M68.9,167.6h11.3v-28.2c0-11.1-5.5-17.4-15.1-17.4s-11.2,2.3-14.6,7.1h0c0,0-.4,0-.4,0v-6.1h-10.7v44.5h11.3v-21.8c0-2.1.3-6.2,2-9.7,1.8-3.6,4.6-5.4,8.5-5.4,7.8,0,7.8,7.9,7.8,13.1v23.8h0Z"/>
          <path class="cls-1" d="M86.5,131.2h8.6v23c0,9,5.3,14.4,14,14.4s6-.3,8.5-1l-.3-8.8c-1.2.7-3.1,1.1-5.2,1.1-3.8,0-5.7-2.5-5.7-7.6v-21.1h10.4v-8.2h-10.4v-12.7l-11.3,3.6v9h-8.6v8.2h0Z"/>
          <path class="cls-1" d="M284.5,157.7c0-3.3-.2-6.7-.2-11.2v-5.7c0-6.7-1.5-11.3-4.5-14.3-3-3-7.9-4.4-14.7-4.4s-11,1.3-15.4,3.3l.3,9.6c4.1-3,9.1-4.7,13.7-4.7,7.3,0,10.3,2.9,10.3,9.8v.2h-6.6c-6.5,0-11.4.8-15,2.6-5,2.5-7.6,6.7-7.6,12.7s5.3,13.2,15.5,13.2,11.2-3.1,13.7-7.7h0c0,0,.4,0,.4,0v.2c0,.3,0,.8,0,1.3,0,1.5.1,3.5.4,5.3h10c-.3-3.7-.4-6.7-.5-9.8h0ZM271.4,156.3c-1.8,2.4-4.6,4-8.2,4s-7.4-1.7-7.4-5.5c0-6.9,7.8-7.8,13-7.8h5c0,3.5-.5,6.7-2.4,9.2h0Z"/>
          <path class="cls-1" d="M153.8,155.1c-.2.5-.4,1.3-1.4,2.3-2.5,2.8-6.4,2.9-7.4,2.9-4.3,0-10.7-2.3-11.4-12.2h31.4c0-2.6.9-16.1-8.8-23.2-4.8-3.4-9.6-3.5-11.9-3.5-14.3,0-22,11-22,24.4s4.1,15.4,7.3,18.2c5.4,4.8,12.9,5.1,15,5.1,6.6,0,10.7-2.2,12.8-3.8,2.5-1.9,4.7-4.7,5.8-7.6.4-1.2.7-2.2.8-2.7h-.8s-9.5,0-9.5,0h0ZM133.6,140.6c1.3-6.1,5.2-10.7,10.6-10.7s9,4.6,9.8,10.7v.4c0,0-20.4,0-20.4,0v-.4c0,0,0,0,0,0Z"/>
          <path class="cls-1" d="M223.7,167.6h11.3v-43.2h-11.3v43.2ZM223.7,120.3h11.2v-7.1h-11.2v7.1Z"/>
        </g>
      </g>
    </g>
  </g>
</svg>