<svg id="Layer_1" data-name="Layer 1" xmlns="http://www.w3.org/2000/svg" xmlns:xlink="http://www.w3.org/1999/xlink" viewBox="0 0 300 300"><defs><linearGradient id="linear-gradient" x1="207.91095" y1="166.70252" x2="207.91095" y2="140.29443" gradientUnits="userSpaceOnUse"><stop offset="0" stop-color="#637dfd"/><stop offset="0.99975" stop-color="#ad10c3"/></linearGradient><linearGradient id="linear-gradient-2" x1="204.54511" y1="166.70252" x2="204.54511" y2="140.29443" xlink:href="#linear-gradient"/><linearGradient id="linear-gradient-3" x1="224.81174" y1="166.70252" x2="224.81174" y2="140.29443" xlink:href="#linear-gradient"/><linearGradient id="linear-gradient-4" x1="228.17757" y1="166.70252" x2="228.17757" y2="140.29443" xlink:href="#linear-gradient"/></defs><title>IVVD_Mark_Light</title><polygon points="200.571 133.67 202.146 131.998 215.251 146.059 215.251 168.002 213.031 168.002 213.103 146.775 200.571 133.67" fill="url(#linear-gradient)"/><polygon points="199.067 134.816 211.527 148.279 210.024 149.797 197.563 136.463 199.067 134.816" fill="url(#linear-gradient-2)"/><polygon points="232.152 133.67 230.577 131.998 217.471 146.059 217.471 168.002 219.691 168.002 219.62 146.775 232.152 133.67" fill="url(#linear-gradient-3)"/><polygon points="233.656 134.816 221.195 148.279 222.699 149.797 235.16 136.463 233.656 134.816" fill="url(#linear-gradient-4)"/><path d="M272.04765,150.93738c-.26857,1.462-.44656,2.94776-.82086,4.38212a15.84183,15.84183,0,0,1-15.32016,12.29c-4.57279.127-9.15164.03569-13.72778.0389a4.90268,4.90268,0,0,1-.547-.06544V132.49376a3.6233,3.6233,0,0,1,.649-.11424c4.57612.0004,9.15449-.07991,13.72788.03589,8.84895.22406,15.01425,6.08323,15.842,14.9057a4.85659,4.85659,0,0,0,.197.76446Zm-23.78812,11.26917c2.61834,0,5.18948.148,7.73706-.0342a8.88535,8.88535,0,0,0,8.07947-6.148,16.71321,16.71321,0,0,0,.40966-11.07157c-1.18678-3.89125-3.73868-6.50259-7.84979-7.0075a75.087,75.087,0,0,0-8.20641-.16787c-.05073-.00061-.10248.08036-.17.13685Z" fill="#252262"/><path d="M27.95235,132.40064h6.54777v35.24018H27.95235Z" fill="#252262"/><path d="M80.57727,167.61423H72.76286l-15.72431-27.9813v27.95714H51.20577V132.45554H59.53c5.0851,8.85653,10.212,17.78581,15.27308,26.6006V132.45321h5.77418Z" fill="#252262"/><path d="M113.49255,167.60905h-7.82588l-12.485-35.16089h7.10841l9.44537,29.13417c3.23394-9.55665,6.54718-19.34765,9.86551-29.15367h6.79128C122.07745,144.196,117.78888,155.892,113.49255,167.60905Z" fill="#252262"/><path d="M157.72957,132.42295H164.836c3.18255,9.8133,6.366,19.62928,9.455,29.15432,3.21535-9.50029,6.53338-19.304,9.86234-29.14h6.79311l-12.90025,35.182h-7.81643C166.08234,155.9415,161.93368,144.26028,157.72957,132.42295Z" fill="#252262"/><path d="M138.72271,132.44043h6.49582v35.11914h-6.49582Z" fill="#252262"/></svg>