<svg id="Layer_1" data-name="Layer 1" xmlns="http://www.w3.org/2000/svg" viewBox="0 0 300 300"><path d="M225,150.968c0,44.2544-24.87568,80.12982-55.5676,80.12982-30.689,0-55.56469-35.87543-55.56469-80.12983,0-44.2515,24.87568-80.124,55.56469-80.124C200.12432,70.844,225,106.71654,225,150.968Zm-10.16968,6.77688c0-36.543-18.42385-66.17262-41.14893-66.17262-22.728,0-41.15184,29.62966-41.15184,66.17262,0,36.55167,18.42385,66.17844,41.15184,66.17844s41.14893-29.62676,41.14893-66.17844Z" fill="#32477a"/><path d="M98.11108,150.97094c0,44.2544,13.73372,80.12692,8.61986,80.12692S75,194.94962,75,150.69813c0-44.2544,26.61707-79.85412,31.73094-79.85412,5.11677,0-8.61986,35.87253-8.61986,80.12693Z" fill="#32477a"/><path d="M93.59509,266.31158a7.66646,7.66646,0,0,1-.58627,3.08516,5.96282,5.96282,0,0,1-1.78492,2.30733,8.23019,8.23019,0,0,1-3.07354,1.457,17.46165,17.46165,0,0,1-4.42892.49629q-.84023,0-1.95035-.02613t-2.26961-.07547c-.772-.03193-1.53532-.07546-2.28412-.12769s-1.40181-.10159-1.96486-.15383V247.435c.52822-.05224,1.1-.09577,1.72107-.1393s1.2538-.07836,1.901-.10159q.97083-.04355,1.95035-.06386c.653-.01453,1.27992-.02613,1.87489-.02613a20.20574,20.20574,0,0,1,3.953.357,9.97257,9.97257,0,0,1,3.06193,1.09706,5.302,5.302,0,0,1,1.96487,1.92424,5.536,5.536,0,0,1,.68784,2.821,6.66157,6.66157,0,0,1-.3831,2.348,5.598,5.598,0,0,1-1.03322,1.7588,5.54141,5.54141,0,0,1-1.51791,1.21317,7.52087,7.52087,0,0,1-1.811.69944v.07547a9.30424,9.30424,0,0,1,2.71656.981,6.62133,6.62133,0,0,1,1.86328,1.544,5.73549,5.73549,0,0,1,1.05934,2.0142A8.35115,8.35115,0,0,1,93.59509,266.31158Zm-6.63177-12.39575a5.10739,5.10739,0,0,0-.33087-1.96487,3.06077,3.06077,0,0,0-.981-1.28572,4.07792,4.07792,0,0,0-1.59336-.714,9.69121,9.69121,0,0,0-2.168-.21766c-.238,0-.47308.0058-.70236.0145a4.18131,4.18131,0,0,0-.60078.061v8.4167h1.7588a10.64284,10.64284,0,0,0,1.83716-.16543,4.85334,4.85334,0,0,0,1.45406-.447,2.124,2.124,0,0,0,.47308-.36859,2.27088,2.27088,0,0,0,.43244-.66462,4.5781,4.5781,0,0,0,.30474-1.071A9.48479,9.48479,0,0,0,86.96332,253.91583Zm1.19865,12.091a4.78993,4.78993,0,0,0-1.51791-3.85138,6.5804,6.5804,0,0,0-4.3999-1.30023H80.584V270.8798q.23073.02611.38311.05224c.10158.0174.21186.03193.33086.04063s.27282.0116.45856.0116h.76621c.32506,0,.67624-.0116,1.05935-.04063.3831-.02323.7604-.061,1.1348-.11319a9.47187,9.47187,0,0,0,1.02161-.19156,3.07834,3.07834,0,0,0,.74009-.267,2.99164,2.99164,0,0,0,.58627-.43245,2.53608,2.53608,0,0,0,.54853-.78071,5.15456,5.15456,0,0,0,.39472-1.2625A9.89819,9.89819,0,0,0,88.162,266.00683Z" fill="#32477a"/><path d="M103.2888,273.37869H97.95726V247.25792h5.33154Z" fill="#32477a"/><path d="M134.58729,260.21383a17.73892,17.73892,0,0,1-.83,5.61306,11.32135,11.32135,0,0,1-2.48728,4.2606,10.90238,10.90238,0,0,1-4.13289,2.70495,16.11785,16.11785,0,0,1-5.764.94324,15.34374,15.34374,0,0,1-5.764-.96937,10.28348,10.28348,0,0,1-3.95294-2.74268,11.05137,11.05137,0,0,1-2.28412-4.2577,19.76737,19.76737,0,0,1-.72558-5.54922,18.703,18.703,0,0,1,.7517-5.50859,10.96856,10.96856,0,0,1,2.30734-4.17353,10.07472,10.07472,0,0,1,3.96745-2.63818,16.16072,16.16072,0,0,1,5.75238-.91714,16.41913,16.41913,0,0,1,5.75237.91714,10.86106,10.86106,0,0,1,4.10677,2.63818,11.1211,11.1211,0,0,1,2.47567,4.17353A17.06159,17.06159,0,0,1,134.58729,260.21383Zm-5.61306.02611a19.34225,19.34225,0,0,0-.43245-4.2867,9.14565,9.14565,0,0,0-1.35247-3.21286,6.05956,6.05956,0,0,0-2.348-2.02581,7.70131,7.70131,0,0,0-3.41892-.70235,13.86588,13.86588,0,0,0-3.22736.357,6.22476,6.22476,0,0,0-2.35958,1.0216,4.64127,4.64127,0,0,0-1.2625,2.86748,35.554,35.554,0,0,0-.39471,5.98455,23.33123,23.33123,0,0,0,.357,4.2606,9.8008,9.8008,0,0,0,1.187,3.29122,5.72583,5.72583,0,0,0,2.20576,2.1274,7.07756,7.07756,0,0,0,3.445.75461,13.91936,13.91936,0,0,0,3.506-.36859,8.09251,8.09251,0,0,0,2.33346-.98388,2.27963,2.27963,0,0,0,.76621-1.1377,11.22444,11.22444,0,0,0,.54853-2.07806,27.40806,27.40806,0,0,0,.33087-2.73978C128.93361,262.35866,128.97423,261.3109,128.97423,260.23994Z" fill="#32477a"/><path d="M145.29971,273.37869V249.27212l-8.03649-.1277.2554-1.8865h19.3613l-.2554,1.811-7.78109.20316v24.10657Z" fill="#32477a"/><path d="M174.48243,273.37869h-13.9543V247.25792h13.39125l-.25541,1.8865-9.59213.1277v9.25837l9.02908.10159-.25541,1.65722-8.77368.20316v10.86625l10.66309.20316Z" fill="#32477a"/><path d="M188.99687,273.73568a10.745,10.745,0,0,1-4.79462-.96937,8.39037,8.39037,0,0,1-3.20124-2.72818,11.78234,11.78234,0,0,1-1.79943-4.249,25.20724,25.20724,0,0,1-.56015-5.54632,16.1292,16.1292,0,0,1,1.07095-6.26027,11.545,11.545,0,0,1,2.792-4.10967,10.37549,10.37549,0,0,1,3.86587-2.24349,14.28126,14.28126,0,0,1,4.28672-.67334q.79232,0,1.75879.05223c.64431.03483,1.27411.07546,1.88651.1277s1.187.10739,1.72106.16833c.53983.061.95777.1219,1.26541.18866l-.94325,3.11127q-.50935-.1524-1.42794-.357c-.61239-.13642-1.27121-.2583-1.97647-.37149-.70816-.10739-1.39891-.20316-2.081-.27863a15.33694,15.33694,0,0,0-1.70947-.11609,12.46239,12.46239,0,0,0-2.62658.24089,5.09956,5.09956,0,0,0-2.04032.98388,5.39417,5.39417,0,0,0-1.60788,3.36668,34.51237,34.51237,0,0,0-.45857,6.17321q0,5.63772,1.64561,8.556a5.61117,5.61117,0,0,0,5.29091,2.92264c.67914,0,1.3873-.02613,2.11578-.07547s1.457-.1277,2.18253-.22929c.71978-.10159,1.43084-.22929,2.1274-.38311a19.05922,19.05922,0,0,0,1.96486-.53692v1.35248a15.62372,15.62372,0,0,1-2.02872.80394c-.72268.22639-1.46277.42375-2.21737.58336a22.81906,22.81906,0,0,1-2.28411.37149A20.28265,20.28265,0,0,1,188.99687,273.73568Z" fill="#32477a"/><path d="M220.42306,273.37869V261.23544H206.06243v12.14325h-3.54662V247.25792h3.54662v12.06489h14.36062V247.25792h3.54662v26.12077Z" fill="#32477a"/><path d="M131.78076,47.9506c4.80622-9.26707,4.931-18.72859.27282-21.1288S119.72167,29.994,114.91544,39.2669c-4.80622,9.27-4.931,18.7315-.27281,21.1317,4.66111,2.39731,12.329-3.17512,17.13813-12.448Z" fill="#6c1431"/></svg>