<svg id="Layer_1" data-name="Layer 1" xmlns="http://www.w3.org/2000/svg" viewBox="0 0 300 300"><defs><style>.cls-1{fill:#99c13c;}.cls-2{fill:#7a9e3f;}.cls-3{fill:#bed63a;}</style></defs><g id="Layer"><path id="Layer-2" data-name="Layer" class="cls-1" d="M61.42,197.29A175,175,0,0,1,39.24,108a198.42,198.42,0,0,1,66.53,67.59A175.38,175.38,0,0,1,128,264.94c-27.46-17.07-50.76-39.38-66.53-67.65Z"/><path id="Layer-3" data-name="Layer" class="cls-2" d="M84.16,159.67A241.49,241.49,0,0,1,78.31,28c33.87,30.54,60.13,68.15,74.77,112.29A241.49,241.49,0,0,1,158.93,272,260.27,260.27,0,0,1,84.16,159.67Z"/><path id="Layer-4" data-name="Layer" class="cls-3" d="M198,162.65c11.12-34.08,31-63.48,57.24-87.64,8.16,33.51,7.6,68.22-3.52,102.3s-30.91,63.48-57.24,87.63A185.56,185.56,0,0,1,198,162.65Z"/></g></svg>