<svg id="Layer_1" data-name="Layer 1" xmlns="http://www.w3.org/2000/svg" viewBox="0 0 300 300"><path d="M215.71835,138.4615a11.73252,11.73252,0,1,1-11.97585,11.78541A11.80912,11.80912,0,0,1,215.71835,138.4615Z" fill="#f7b017"/><path d="M207.98649,196.39512a11.66683,11.66683,0,0,1-11.70994,12.0044A11.83521,11.83521,0,0,1,184.48989,196.424a11.74831,11.74831,0,1,1,23.4966-.02888Z" fill="#f7b017"/><path d="M161.72373,84.01377a11.89067,11.89067,0,1,1-11.74082-11.75146A11.95562,11.95562,0,0,1,161.72373,84.01377Z" fill="#f7b017"/><path d="M207.98632,103.08973c.31877,5.33869-3.76655,11.48376-11.51156,11.82541-6.679.29462-12.05343-5.315-11.98478-12.10019a11.749,11.749,0,0,1,23.49634.27478Z" fill="#f7b017"/><path d="M102.219,184.65735c5.61536-.01343,11.63638,4.11881,11.80968,12.002.14055,6.39244-5.71407,11.85348-12.11909,11.7415a11.99248,11.99248,0,0,1-11.59779-11.874A11.86933,11.86933,0,0,1,102.219,184.65735Z" fill="#f7b017"/><path d="M149.6055,227.84578A11.5557,11.5557,0,0,1,137.947,216.23416a11.896,11.896,0,1,1,23.79159.13051C161.72777,222.1245,156.57624,228.49629,149.6055,227.84578Z" fill="#f7b017"/><path d="M102.17038,91.22807c5.50828-.08971,11.61707,3.92278,11.86252,11.93063.19083,6.22579-5.47467,11.72058-11.732,11.80322a12.01171,12.01171,0,0,1-11.989-11.84474A11.781,11.781,0,0,1,102.17038,91.22807Z" fill="#f7b017"/><path d="M72.30261,150.13064a11.38826,11.38826,0,0,1,11.8848-11.66913,11.73146,11.73146,0,1,1-.10621,23.46263A11.43917,11.43917,0,0,1,72.30261,150.13064Z" fill="#f7b017"/><path d="M243.35577,72.10719a9.11557,9.11557,0,1,1-.031,18.23112,9.46965,9.46965,0,0,1-9.12938-9.011A9.15891,9.15891,0,0,1,243.35577,72.10719Z" fill="#f18725"/><path d="M185.73829,48.59487a9.054,9.054,0,0,1,.15565-18.1073,9.22351,9.22351,0,0,1,9.01439,8.99939A8.9486,8.9486,0,0,1,185.73829,48.59487Z" fill="#f18725"/><path d="M113.62474,48.59467a9.11908,9.11908,0,0,1-9.13695-9.21991,9.13332,9.13332,0,0,1,18.26217.38989A9.05947,9.05947,0,0,1,113.62474,48.59467Z" fill="#f18725"/><path d="M48.29135,219.24959a8.96179,8.96179,0,1,1,8.748,9.12358A8.8413,8.8413,0,0,1,48.29135,219.24959Z" fill="#f18725"/><path d="M265.88462,159.20388a8.73491,8.73491,0,0,1-9.01568-8.85294,9.06839,9.06839,0,1,1,9.01568,8.85294Z" fill="#f18725"/><path d="M253.97719,219.43513a8.76326,8.76326,0,0,1-9.209,8.94422c-5.08469-.08342-8.66813-3.85073-8.65357-9.09747a8.76436,8.76436,0,0,1,8.78745-9.01669A8.911,8.911,0,0,1,253.97719,219.43513Z" fill="#f18725"/><path d="M34.12414,158.49458c-5.361.02638-9.16125-3.71129-9.12387-8.97355a8.68289,8.68289,0,0,1,8.91357-8.84963,8.99357,8.99357,0,0,1,9.25678,9.01131A8.89909,8.89909,0,0,1,34.12414,158.49458Z" fill="#f18725"/><path d="M123.6496,260.30025a8.81787,8.81787,0,0,1-8.68761,9.211,9.09866,9.09866,0,1,1,8.68761-9.211Z" fill="#f18725"/><path d="M195.85514,260.51454a8.95727,8.95727,0,0,1-8.97764,8.8983,9.12062,9.12062,0,1,1,8.97764-8.8983Z" fill="#f18725"/><path d="M47.58423,81.31869a8.971,8.971,0,1,1,17.93757-.096,8.9694,8.9694,0,1,1-17.93757.096Z" fill="#f18725"/></svg>