<svg id="Layer_1" data-name="Layer 1" xmlns="http://www.w3.org/2000/svg" viewBox="0 0 300 300"><defs><style>.cls-1{fill:#003b5c;}.cls-2{fill:#d50032;}.cls-3{fill:#426da9;}</style></defs><path class="cls-1" d="M150.12,37.19a12.41,12.41,0,1,0-12.41-12.4A12.4,12.4,0,0,0,150.12,37.19Z"/><path class="cls-1" d="M167.78,37.4a1.66,1.66,0,0,0-2.31.21A19,19,0,0,1,150.12,45a19.63,19.63,0,0,1-15.35-7.36,1.65,1.65,0,0,0-2.53,2.11,22.7,22.7,0,0,0,16.19,8.62v237.6a1.69,1.69,0,0,0,3.37,0V48.34A22.68,22.68,0,0,0,168,39.72,1.67,1.67,0,0,0,167.78,37.4Z"/><path class="cls-2" d="M126.36,46.86c-6.94,9-14.51,17.67-20,27.55C100.91,84.08,98,95.23,99.44,106c1.26,10.72,6.1,20.82,12.41,29.86a150.23,150.23,0,0,0,10.51,13c1.89,2.11,3.79,4,5.68,6.1l6.1,6.1A225.4,225.4,0,0,1,156,188c6.31,9.67,12,20.19,14.93,31.54A60.83,60.83,0,0,1,173,236.94a58.79,58.79,0,0,1-2.53,17.25c-3.36,11.14-9,21.23-16,30.49,5.68-9.89,10.52-20.19,12.83-31.12a66.83,66.83,0,0,0-1.47-32.81,105.76,105.76,0,0,0-15.14-29.43,209.27,209.27,0,0,0-21.45-25.87l-5.89-6.09c-1.89-2.11-4-4.21-5.88-6.31l-3-3.37-2.73-3.36c-.84-1-1.89-2.31-2.73-3.57s-1.69-2.32-2.53-3.58a84.57,84.57,0,0,1-8.2-15.56,54.58,54.58,0,0,1-4.2-17.24,45.75,45.75,0,0,1,1.89-17.66,61,61,0,0,1,7.36-16C110,62.84,118.16,54.85,126.36,46.86Z"/><path class="cls-3" d="M173.88,46.86c8,8,16.19,16,22.7,25.87a61,61,0,0,1,7.36,16,50,50,0,0,1,1.9,17.66,54.6,54.6,0,0,1-4.21,17.24,99.64,99.64,0,0,1-8.2,15.56c-.84,1.26-1.68,2.31-2.52,3.58a38.7,38.7,0,0,1-2.74,3.57l-2.73,3.36-2.94,3.37c-1.9,2.31-4,4.2-5.89,6.31l-5.89,6.09a208.3,208.3,0,0,0-21.44,25.87,105.5,105.5,0,0,0-15.14,29.43,66.6,66.6,0,0,0-1.48,32.81c2.32,10.93,7.15,21.23,12.83,31.12-6.73-9.05-12.62-19.14-16-30.49A60.16,60.16,0,0,1,127,236.94a81,81,0,0,1,2.1-17.45C132,208.14,137.71,197.62,144,188A226.46,226.46,0,0,1,165.89,161l6.09-6.1c1.9-2.1,4-4,5.68-6.1a128,128,0,0,0,10.51-13c6.31-9,11.15-19.14,12.41-29.86,1.47-10.72-1.47-21.87-6.94-31.54C188.59,64.53,181,55.91,173.88,46.86Z"/></svg>