<?xml version="1.0" encoding="UTF-8"?>
<svg xmlns="http://www.w3.org/2000/svg" version="1.1" viewBox="0 0 300 300">
  <defs>
    <style>
      .cls-1 {
        fill: #eb1700;
        fill-rule: evenodd;
      }
    </style>
  </defs>
  <!-- Generator: Adobe Illustrator 28.6.0, SVG Export Plug-In . SVG Version: 1.2.0 Build 709)  -->
  <g>
    <g id="Layer_1">
      <g>
        <path id="Layer" class="cls-1" d="M110.8,163.3c0,13-6.5,22.9-22.9,22.9s-22.9-9.9-22.9-22.9v-4.2l12.2-3.1v9.5c0,9,3.2,14.3,10.7,14.3s10.6-4.9,10.6-13.3v-51.2h12.3v48Z"/>
        <path id="path460" class="cls-1" d="M147.2,113.8c11.8,0,18.5,6,18.5,13.5s-3.2,9-10.7,13.1l.2.4c3.8-1.5,7.8-2.3,11.9-2.4,7.9,0,12.9,5.1,12.9,12.6s-3.1,13-8.4,19.3l12.6,13.9v.5h-15.5l-6-6.5c-7.3,5.2-15.4,8-22.3,8-12,0-19.8-8.5-19.8-18.7s4.4-15.2,14.1-19.9v-.2c-5.8-6.2-8-11.4-8-16.5,0-9.5,6.7-17.2,20.3-17.2h0ZM171.8,156.3c0-8-4.9-12.7-12.9-12.7-3.3,0-6.5.6-9.6,1.9l19.4,21.4c2.1-3.2,3.2-6.9,3.2-10.6h0ZM156.2,128.5c0-6.2-3.6-9.5-9.3-9.5s-9.4,3.3-9.4,9,1,5.7,4.8,9.8l4.2,4.8c6.8-3.1,9.6-8.4,9.6-14h0ZM160,175l-22.3-24.5c-3.7,2.7-6,7.4-6,12.6,0,8.2,5.8,15.9,15.3,15.9,4.2,0,8.9-1.6,13.1-4h0Z"/>
        <path id="path462" class="cls-1" d="M235,163.3c0,13-6.4,22.9-22.9,22.9s-22.9-9.9-22.9-22.9v-4.3l12.3-3v9.5c0,9,3.2,14.2,10.6,14.2s10.7-4.9,10.7-13.3v-51.2h12.2v48.1Z"/>
      </g>
    </g>
  </g>
</svg>