<svg id="Layer_1" data-name="Layer 1" xmlns="http://www.w3.org/2000/svg" viewBox="0 0 300 300"><path d="M275,149.74767l-100.13668-13.1229,38.71691-50.79112-50.83055,38.60126L149.95794,24.88432l-13.13077,99.97377L85.99662,86.25682l38.71692,50.79112L25,149.74767,125.13668,162.952,86.41977,213.23591l50.83055-38.60126,12.70762,100.481,13.21489-100.05783,50.83055,38.60126-38.71426-50.28388Zm-121.23112,9.14107-3.811,17.60934L146.231,158.88874l-15.08093,9.73506,9.743-15.15192-17.61987-3.72426,17.61987-3.72424-9.743-14.81549,15.08093,9.81918,3.72687-18.2848,3.811,17.60934,15.16505-9.14372-9.743,15.15191,17.53836,3.7269L159.19095,153.811l9.743,15.15192Z" fill="#7e756b" fill-rule="evenodd"/></svg>