<svg id="Layer_1" data-name="Layer 1" xmlns="http://www.w3.org/2000/svg" viewBox="0 0 300 300"><path d="M145.05616,150.36285A11.70194,11.70194,0,1,1,156.7581,162.0648a11.73049,11.73049,0,0,1-11.70194-11.70195" fill="#1d3f63"/><rect x="45" y="84.59612" width="15.33045" height="123.55076" fill="#1d3f63"/><path d="M157.57452,205.96976q24.62851-19.4579,42.90713-34.01728C216.26566,159.2527,249.37583,147.27862,255,152.1771c0,0-58.3283,46.89849-87.17495,70.66524l-10.25054,8.527Q125.054,203.88338,94.892,180.02592L60.33045,152.72138v-.45356c1.905-1.72354,4.62635-4.08207,8.07344-7.16631l.27214-.27214.18142-.09071.18143-.18142c21.86177-19.594,82.63931-75.92657,82.63931-75.92657,4.08207,6.25918-12.42764,37.37365-27.21382,51.2527-11.88338,11.24838-20.22895,18.959-34.28942,32.203,3.90065,3.17494,12.0648,9.797,24.67386,19.9568,12.1555,9.70626,26.39742,20.95465,42.72571,33.92656" fill="#b2cc56"/></svg>