<svg id="Layer_1" data-name="Layer 1" xmlns="http://www.w3.org/2000/svg" viewBox="0 0 300 300"><defs><style>.cls-1{fill:#02a1dc;}</style></defs><path class="cls-1" d="M253.75,150.15c-.08,57.11-46.63,103.44-103.87,103.35A103.76,103.76,0,0,1,46.25,149.28c.13-56.8,47-102.92,104.51-102.78C207.53,46.64,253.82,93.22,253.75,150.15ZM150,248.53c54.75,0,99.11-44,99.13-98.32S205,51.5,150.94,51.47c-55.28,0-99.7,43.4-99.71,97.49C51.23,204.7,94.69,248.54,150,248.53Z"/><path class="cls-1" d="M142.57,122.94v11.48l-12.14,10.5,14.14,40.83,1-.16V91.73c10.13.26,19.81-1.19,29.32.82,8.59,1.82,13,8.22,13.09,17.11,0,3.29-.08,6.58,0,9.87.22,7.24.4,14.44-6.58,19.13,8.51,24.11,16.81,47.62,25.22,71.46-2.81,1.06-5.31.43-8.49.56-8-22.64-16.13-45.39-24.17-68H154.47v67.75H143.66L123,150.67c-7.24,20.79-14,40.26-20.73,59.6-2.88.73-5.4.5-8.78.19Q114,151,134.31,92.34c2.9-1,5.4-.78,8.74-.13l-13.74,40.15.8.78Zm36.14-19.12-22.54,19V111.35l12.54-11.1H154.28v33.49c6.42,0,12.24.56,18.05-.4,3.54-.59,6.79-2.41,7.19-5.85C180.38,120,180.89,112.35,178.71,103.82Z"/><path class="cls-1" d="M93.4,215.45h113c-2.31,5-6,7.6-11,7.63q-45.35.21-90.7,0C99.82,223.09,96,220.81,93.4,215.45Z"/><path class="cls-1" d="M145.82,89.55V68.07c5.51-1,10.87-.39,16.14-.35,1.26,2.09.89,4,.5,6-2.26,1.61-5,0-7.61,1.31-1.21,4.41.1,9.18-.77,14C151.6,90.43,148.94,89.79,145.82,89.55Z"/><path class="cls-1" d="M134.76,89.41V75.7c-2.73-2-5.51-.6-8-1.58-1.12-1.84-.6-3.79-.36-6.14h16.41V89.2C140.23,90.27,137.75,89.93,134.76,89.41Z"/></svg>