<svg id="Layer_1" data-name="Layer 1" xmlns="http://www.w3.org/2000/svg" viewBox="0 0 300 300"><defs><style>.cls-1{fill:#5ac1a7;}.cls-1,.cls-2,.cls-3,.cls-4{fill-rule:evenodd;}.cls-2{fill:#40c3da;}.cls-3{fill:#11948f;}.cls-4{fill:#1a9ad7;}</style></defs><path id="Layer" class="cls-1" d="M135.6,203.68a39.72,39.72,0,0,1-79.43,0,38.61,38.61,0,0,1,.94-8.63,40.37,40.37,0,0,1,7.45-15.72,35.89,35.89,0,0,1,6.1-6.22C74.76,169,84.5,160,84.5,149.82c0-9.85-9.56-18.65-13.84-22.93a27.3,27.3,0,0,1-3-2.7A39.69,39.69,0,1,1,135.6,96.26a40.28,40.28,0,0,1-.94,8.8,42.29,42.29,0,0,1-2.93,8.33,37.56,37.56,0,0,1-4.7,7.45,36.63,36.63,0,0,1-6.16,6.28c-4.46,4.34-13.9,13-13.9,22.7,0,10.21,10,19.19,14.26,23.29.86.75,1.7,1.51,2.52,2.29l.12.12h-.06a39.5,39.5,0,0,1,11.79,28.16Z"/><path id="Layer-2" data-name="Layer" class="cls-2" d="M90.25,164.49v-.06s31.56-3.75,50.8-23S164.7,91.28,164.7,91.28h.05a39.7,39.7,0,1,1,44,44.41s-31,4-50.27,23.17-23.41,51.27-23.41,51.27a39.7,39.7,0,1,1-44.82-45.64Z"/><path id="Layer-3" data-name="Layer" class="cls-3" d="M135.6,203.68a38.37,38.37,0,0,1-.59,6.45c-.08.59-.17,1.17-.29,1.76s-.26,1.15-.41,1.7-.32,1.16-.47,1.7-.33,1.16-.53,1.7h-.06a37.78,37.78,0,0,1-2.29,5.23,32.57,32.57,0,0,1-1.82,3.1c-.66,1-1.36,2-2.11,2.94s-1.52,1.84-2.34,2.7a32.2,32.2,0,0,1-2.58,2.52,5.5,5.5,0,0,1-.47.41c-.65.53-1.29,1-1.94,1.52-.31.24-.65.47-1,.71a20.64,20.64,0,0,1-1.76,1.17l-1.35.82-.82.47a129026422287498.12,129026422287498.12,0,0,1-1.64.82c-.31.16-.61.3-.88.41s-.57.26-.88.42l-.82.35c-.31.11-.63.21-.94.29s-.57.24-.88.35l-1.58.53c-.71.2-1.41.37-2.12.53l-1.52.35c-.82.18-1.64.24-2.47.35a9.53,9.53,0,0,1-1.29.18,30.49,30.49,0,0,1-3.87.23,39.7,39.7,0,0,1-39.71-39.71c0-1.1.06-2.19.17-3.29l.06-.64a5.55,5.55,0,0,1,.06-.82c0-.28.08-.53.12-.77l.11-.82c0-.27.08-.53.12-.76l.12-.53c.19-1,.43-2,.7-3l.06-.24c.08-.27.16-.52.24-.76s.15-.53.23-.76.18-.55.29-.82.16-.49.24-.76l.18-.42a39.45,39.45,0,0,1,12.31-16.66,39.87,39.87,0,0,1,19.07-8.15v-.06a109.6,109.6,0,0,0,19.59-4.75c3.29,5.87,8.57,10.74,11.39,13.43.86.75,1.7,1.51,2.52,2.29l.12.12h-.06a39.5,39.5,0,0,1,11.79,28.16Z"/><path id="Layer-4" data-name="Layer" class="cls-4" d="M204.12,243.39a39.69,39.69,0,1,1,39.71-39.71,39.67,39.67,0,0,1-39.71,39.71Z"/></svg>