<svg id="Layer_1" data-name="Layer 1" xmlns="http://www.w3.org/2000/svg" viewBox="0 0 300 300"><path d="M100.0231,155.58782l-2.68325-.77342c16.96309-34.95267,35.24685-72.32179,52.15157-107.154.98239-.26856,1.40385-.09208,1.571.3188,1.22677,3.01449,2.87861,5.82177,4.04851,8.88841.82641,2.16626,2.3388,4.1702,3.3259,6.35131,4.08515,9.0264,8.67111,17.81165,12.92513,26.75754,3.12412,6.56971,6.36869,13.094,9.55278,19.64048,6.35962,13.075,12.83982,26.092,18.97828,39.27467,2.69681,5.79181,5.63627,11.471,8.4595,17.20436a2.92068,2.92068,0,0,1,.52937,1.66281c-3.67274.38569-7.20367-.74159-10.80227-1.10475-9.05085-.91338-18.06183-2.22-27.0897-3.362-.50144-.06343-1.028-.11788-1.35319.42271-3.36614-7.18613-6.79325-14.34477-10.06911-21.57174-1.34015-2.95666-2.59909-5.9825-3.87379-8.94894-1.20542-2.80509-2.86346-5.56756-4.32692-8.3462-.54751-1.03978-1.06683-2.09444-1.61956-3.18262-.84131.50319-.97381,1.37533-1.35343,2.07577-3.4553,6.37568-6.04433,13.16072-9.31,19.62992-2.12087,4.20157-3.99952,8.52556-5.95995,12.80689a6.5388,6.5388,0,0,1-1.59428,2.47936,37.6032,37.6032,0,0,1-4.29159-.08776c-6.82343-.89234-13.68809-1.347-20.526-2.062C104.49071,156.27505,102.16234,156.50834,100.0231,155.58782Z" fill="#3071a9"/><path d="M100.0231,155.58782c2.13924.92052,4.46761.68723,6.689.91953,6.8379.715,13.70256,1.16969,20.526,2.062a37.6032,37.6032,0,0,0,4.29159.08776c.4491.92437-.18782,1.62555-.53087,2.35738q-15.60315,33.286-31.23078,66.56062c-3.883,8.27354-7.762,16.54895-11.67408,24.89021H50C65.78027,219.921,81.74821,186.96983,97.33985,154.8144Z" fill="#0e1c36"/><path d="M169.63673,163.7147c.32523-.54059.85175-.48614,1.35319-.42271,9.02787,1.142,18.03885,2.44862,27.0897,3.362,3.5986.36316,7.12953,1.49044,10.80227,1.10475,1.99992,2.24518,2.88371,5.10371,4.16487,7.72764q13.63029,27.91735,27.13788,55.89458c3.04886,6.28738,6.10853,12.56975,9.13057,18.87.31392.65455.872,1.2781.62226,2.21671H211.42932c-1.80036-3.754-3.6715-7.60057-5.4962-11.469q-18.05251-38.2722-36.08367-76.55444A4.74093,4.74093,0,0,1,169.63673,163.7147Z" fill="#0e1c36"/></svg>