<?xml version="1.0" encoding="utf-8"?>
<!-- Generator: Adobe Illustrator 28.3.0, SVG Export Plug-In . SVG Version: 6.00 Build 0)  -->
<svg version="1.1" id="Layer_1" xmlns="http://www.w3.org/2000/svg" xmlns:xlink="http://www.w3.org/1999/xlink" x="0px" y="0px"
	 viewBox="0 0 300 300" style="enable-background:new 0 0 300 300;" xml:space="preserve">
<style type="text/css">
	.st0{fill-rule:evenodd;clip-rule:evenodd;fill:#3B465C;}
</style>
<g id="Group_217" transform="translate(459.581 566.396)">
	<g>
		<path id="Path_7434_00000060014275953354508450000005042249110136610947_" class="st0" d="M-286.6-486.7c0,0.5,0,0.5,0,1.1
			c-0.5,0.5-1.1,0.5-2.1,1.1c-0.5,0-1.1,0-1.1,0c0,0.5,0,0.5,0,1.1c1.6,0.5,2.1,0.5,3.2,0.5h1.1h2.1h1.1c0.5,0-1.6,0.5-1.1,0.5h1.6
			c0.5,0,1.6,0.5,2.1,0.5c0.5,0,1.1,2.7,1.6,2.7s0.5,0,1.1,0.5c0.5,0,1.1,0,1.1,0.5c0,0,0,0.5,0,1.1c-0.5,0-0.5-0.5-0.5,0
			c1.1,1.1,2.1,2.1,3.2,3.2c0.5,0,0.5,0.5,1.1,0.5s-1.1,0-0.5,0.5c0.5,0,1.6,0.5,2.1,0.5c0.5,0,1.6,0.5,2.1,0.5
			c0.5,0.5,1.6,0.5,2.1,1.1c1.1,0.5,2.1,1.1,3.2,1.6c0.5,0,1.1,0.5,1.1,1.1c1.1,2.7,2.7,4.8,4.3,7l2.1,1.6c1.6,1.1,3.2,2.7,4.8,4.3
			c0.5,0.5,1.6,1.1,2.1,1.6c0,0,0,0.5,0.5,0.5c0,0,0.5,0.5,0.5,1.1v1.6l-0.5,1.1v0.5v0.5c0,0,0,0.5,0.5,0.5c0,0,0,0.5,0.5,0.5
			l0.5,0.5c1.1,1.1,1.6,2.1,2.1,3.8c0,0,0.5,0.5,0.5,1.1c0,0.5,0,0.5,0.5,1.1l0.5,0.5c0.5,1.1-0.5,2.1,0,3.2c0,0,0,0.5,0.5,0.5
			c0.5,0.5,0.5,1.1,0.5,1.6v1.6l1.1,2.1v1.6c0,1.6,0.5,2.7,0.5,4.3v1.1c0,0.5,0.5,1.1,1.1,1.6l0.5,2.1c0.5,0.5,0.5,1.6,1.1,2.1v0.5
			c-0.5,0.5-1.1,0.5-1.1,1.1c0,0.5,0,1.1,0,1.6c0,0.5,0,1.6,0,2.1v2.1l-1.1,1.1v1.1c0,1.6-0.5,3.2-0.5,4.8v1.1c0,0.5,0,1.6-0.5,2.1
			l0.5,3.8c0,0.5-0.5,1.1-0.5,1.6c0,0.5-0.5,0.5-0.5,1.1l0.5,2.1c0,0.5,0,0.5-0.5,1.1v0.5v0.5c0,0.5,0,0.5,0,0.5
			c0,1.1-1.6,1.6-1.6,2.7v0.5c0,0.5-0.5,0.5-0.5,1.1c0,0.5,0,0.5,0,1.1v0.5c0,0.5,0,1.1-0.5,1.6c0,0.5-0.5,1.1-1.1,1.6
			c-1.1,1.6-2.1,3.2-2.7,5.4c0,0.5-0.5,1.1-1.1,1.6c-0.5,1.1-1.1,2.1-1.6,2.7c0,0.5,0,0.5-0.5,1.1c0,0.5-0.5,0.5-0.5,0.5l-0.5,0.5
			c0,0-0.5,0-0.5,0.5c-0.5,0.5-0.5,1.1-1.1,1.6c-0.5,0.5-1.1,1.1-1.6,1.1l-0.5-0.5c-0.5,0.5-1.1,1.1-1.6,1.6l-1.1,1.1
			c-0.5,0.5-1.1,1.1-1.6,1.6c-0.5,0.5-1.1,1.6-1.6,2.1c-0.5,0.5-1.1,1.1-1.6,1.6c-0.5,0.5-1.1,1.1-1.6,2.1c-0.5,0.5-1.6,1.1-2.1,1.6
			c-1.1,1.1-2.1,1.6-3.2,2.7c-0.5,0.5-0.5,0.5-1.1,0.5c-0.5,0.5-1.1,1.1-1.6,1.1c-1.1,0.5-2.1,1.6-3.2,2.1h-0.5
			c-0.5,0-0.5,0.5-1.1,0.5h-0.5c-0.5,0-0.5,0.5-1.1,0.5c-0.5,0.5-1.1,0.5-2.1,1.1c-0.5,0-0.5,0.5-1.1,0.5l-2.7,1.1
			c-0.5,0.5-1.1,0.5-2.1,1.1c-0.5,0-1.1,0-1.6,0.5l-2.1,1.1h-1.6c-0.5,0-1.1,0.5-2.1,1.1l-4.3,0.5l-3.2,1.1c-0.5,0-1.6,0-2.1-0.5
			h-1.6l-2.1-0.5h-1.1c-0.5,0-1.1,0-1.6,0c-0.5,0-1.1-0.5-1.6-0.5c-0.5,0-0.5,0.5-1.1,0.5c-0.5,1.1-1.1,1.1-1.1,1.1
			c-0.5,0-1.1-0.5-1.1-0.5c-0.5,0-1.1,0-1.1,0h-1.1c-0.5,0-1.1,0-1.6,0c-1.1,0-2.1-1.1-3.2-1.6c-0.5,0-0.5,0-0.5,0s-0.5,0-1.1-0.5
			c-0.5,0-0.5,0-1.1,0c-1.1-0.5-2.7-0.5-3.8-1.1c-0.5,0-1.1-0.5-2.1-0.5c-1.6-0.5-2.1-2.1-3.8-2.7c-0.5-0.5-1.6-0.5-2.1-0.5
			c-1.1-0.5-2.1-1.1-3.2-1.6c-0.5,0-0.5,0-1.1,0c-0.5-0.5-1.1-0.5-2.1-1.1l0.5-0.5c-1.1-0.5-2.1-1.1-2.7-1.6l-1.1-0.5
			c-0.5-0.5-1.6-1.1-2.1-1.6l-0.5-0.5c-0.5-0.5-1.6-0.5-2.1-1.1c-0.5,0-0.5-0.5-0.5-0.5h-0.5c-0.5-0.5-1.1-0.5-1.6-1.1h-0.5
			c-0.5-0.5-1.1-0.5-1.6-1.1c-0.5-0.5-1.1-0.5-1.6-1.1c-1.1-1.1-2.7-1.1-3.8-2.1l-3.2-2.7c-1.6-1.6-3.2-3.2-4.8-4.8
			c0-2.1-1.6-3.2-0.5-3.8c1.6-0.5,8.6,5.9,9.1,5.9c0.5,0,0,0,0.5,0v0.5h0.5c0.5,0,0.5,0.5,1.1,1.1c0.5,0.5,1.1,1.6,1.6,2.1
			c0.5,0.5,1.6,1.1,2.1,1.6c0,0.5,1.1,1.1,1.6,1.1c0.5,0,0.5,0.5,1.1,0.5l0.5,0.5c0.5,0,1.1,0,1.6,0l5.4,3.8
			c0.5,0.5,1.1,0.5,1.6,0.5l0,0l0.5,0.5c0.5,0,0.5,0.5,1.1,0.5c0,0,0,0,0.5,0c0,0,0,0,0-0.5l0,0c0,0,0-0.5-0.5-0.5l-1.1-0.5
			c-0.5,0-0.5,0-1.1-0.5l-0.5-0.5l-3.2-2.7l-1.6-1.6c-0.5-0.5-1.1-1.1-1.6-1.6c-0.5-0.5-1.1-0.5-1.1-1.1l-0.5-0.5
			c-0.5-0.5-1.1-1.1-1.6-1.6l-0.5-0.5c-0.5-0.5-0.5-0.5-1.1-1.1l-0.5-0.5l-0.5-0.5l-0.5,0.5c-0.5-0.5-1.1-1.1-1.6-1.6
			c0,0,0-0.5-0.5-0.5c-1.1-1.1-2.1-2.1-2.7-2.7l-0.5-1.1c-0.5-0.5-1.6-1.6-2.1-2.1c-0.5-0.5-0.5-1.1-1.1-1.6
			c-0.5-0.5-1.1-1.1-1.6-2.1v-0.5l-0.5-0.5c0,0,0-0.5-0.5-0.5c-0.5,0-0.5-1.1-0.5-1.1c0-0.5,0-0.5-0.5-1.1c0,0,0,0-0.5-0.5
			c0,0,0-0.5-0.5-0.5c-2.7-4.3-4.8-9.1-6.4-13.9v-1.6l-1.1-2.1l-0.5-2.7v-1.6l-0.5-3.8l-1.1-7l0.5-2.1l-0.5-2.7l0.5-2.1v-1.6
			c0-2.1,0.5-4.3,0.5-6.4c0-0.5,0-1.6,0-2.1c0-0.5,0.5-0.5,0.5-1.1v-2.1c0-0.5,0.5-0.5,0.5-1.1v-0.5v-0.5v-1.1
			c1.1-3.2,2.1-6.4,3.2-9.1c0-0.5,0-1.1,0.5-1.6c0,0,0,0-0.5,0h-0.5c-0.5,0-0.5,0.5-1.1,0.5h-0.5v-0.5c0-1.1,0.5-1.6,1.1-2.1
			c0.5,0,0.5,0,1.1,0c0,0,0.5,0,0.5,0.5l0,0c0.5-0.5,1.1-1.1,1.6-1.6l0.5-1.1c1.1-1.1,1.6-2.7,2.1-3.8c0.5-1.1,0.5-1.6,0.5-2.7
			s-0.5-1.6-0.5-2.1c0-0.5,0.5-1.1,0.5-1.6c0.5-0.5,1.1-1.1,1.6-1.1c0.5,0,1.1,0,1.6-0.5c0.5-0.5,1.1-1.6,1.1-2.7
			c1.1,0,1.6-1.1,2.1-1.6c1.6-1.6,2.7-3.2,4.3-4.8c0-0.5,0-1.1-1.1-1.1c-0.5,0-1.6,0-1.6,0.5c-0.5,0-0.5,0.5-1.1,0.5
			c0,0-0.5,0.5-0.5,1.1c-0.5,0.5-1.1,1.1-2.1,1.6l0,0c0,0,0,0,0-0.5l0.5-1.1c0,0,0.5-0.5,1.1-0.5l0.5-0.5c0,0,0,0,0.5,0v-0.5
			c0-0.5,0.5-0.5,0.5-1.1c0-0.5,0.5-0.5,1.1-1.1l0.5-0.5c0.5-0.5,1.1-1.6,1.6-2.1c0.5-0.5,0.5-0.5,1.1-1.1l0.5-1.6
			c0,0,0.5,0,0.5-0.5c0-0.5,0-0.5,0-1.1c-0.5-0.5-1.1,1.1-2.1,1.1c-0.5,0-1.1,0-1.6,0c-1.1,0.5-2.1,2.7-2.1,3.2
			c-0.5,1.1-1.1,2.1-2.1,2.7l-1.1,1.6c-0.5,0.5-1.6,1.1-2.1,1.6c-0.5,0-1.1,0-1.1-0.5c0,0,0-0.5,0.5-0.5c0-0.5,0.5-0.5,0.5-1.1
			l1.1-1.6c1.6-1.6,2.7-3.2,3.8-4.8c0.5-0.5,1.1-1.6,1.1-2.7c0,0,0-0.5-0.5-0.5h-0.5l-0.5,0.5c-0.5,0.5-1.1,1.1-1.6,1.6
			c-0.5,0.5-1.1,0.5-1.1,1.1v0.5c-0.5,0.5-1.1,1.1-1.1,1.1l-0.5,0.5c0,0.5-0.5,0.5-0.5,1.1l-0.5,0.5c-1.1,1.1-1.6,1.6-2.7,2.1
			c-1.1,0.5-1.1,2.1-2.1,2.7l0,0c0-0.5,0.5-1.6,0.5-2.1c0-0.5,0.5-0.5,1.1-1.1c0.5-1.1,1.1-1.6,1.6-2.1c0.5-0.5,0.5-0.5,1.1-0.5
			l0.5-0.5l0.5-0.5l0.5-0.5c-0.5,0,0-0.5,0-0.5c0.5-0.5,1.1-1.1,1.1-1.1c0.5-0.5,0.5-1.1,1.1-1.6l0.5-1.1c0-0.5,0.5-1.1,0-1.1
			c-0.5-0.5-1.1,0-1.6,0.5s-1.6,0-2.1,0.5c-0.5,0.5-1.6,1.6-2.7,2.7c-0.5,0.5-1.1,0.5-1.6,0.5l-0.5-0.5c0.5-0.5,0.5-1.6,1.1-2.1
			c2.1-1.6,3.8-3.8,4.8-5.9c0.5-0.5,1.1-1.6,1.6-2.1l0.5-0.5v-0.5c0-0.5,0.5-1.1,0.5-1.6c0.5-0.5,1.1-0.5,1.1-1.1l0.5-0.5l1.1-1.1
			c0.5-0.5,1.1-0.5,1.1-1.1h-0.5l-0.5,0.5c-0.5,0.5-1.1,0.5-1.6,0.5c-0.5,0-0.5,0.5-1.1,0.5c-0.5,0.5-1.1,1.1-1.6,1.1
			c0,0-0.5,0-0.5,0.5c-0.5,0.5-0.5,0.5-1.1,1.1l0,0c-0.5,0-0.5,0.5-1.1,0.5l-0.5-0.5c-0.5,0-1.1,0.5-1.1,0.5c-0.5,0-0.5,0-1.1,0.5
			c-1.1,0.5-1.6,1.1-1.6,1.6c-1.1,0.5-1.6,1.1-2.1,1.6l-0.5,0.5c0,0-0.5,0.5-1.1,1.1c0,0,0,0.5-0.5,0.5c0,0,0,0-0.5,0
			c0,0.5-0.5,1.1-0.5,1.1s-0.5,0-0.5,0.5c0,0.5,0,0.5-0.5,0.5c-1.1,1.1-1.6,1.6-2.7,2.1l0,0v-0.5c0-0.5,0-0.5,0.5-1.1
			c0-0.5,1.1-0.5,1.1-1.1l0.5-0.5c0.5-0.5,0.5-0.5,1.1-1.1v-0.5c0,0,0.5,0,0.5-0.5c0,0,0-0.5,0.5-0.5h0.5l0.5-0.5h0.5
			c0.5,0,0.5-0.5,0.5-0.5l0.5-0.5c0-0.5,0.5-1.1,0.5-1.6c0.5-0.5,2.1-1.6,2.1-2.1c0,0,0,0-0.5,0c-0.5,0-0.5,0.5-0.5,0.5h-0.5
			l-0.5,0.5c-0.5,0.5-1.1,0.5-1.6,1.1c-0.5,0.5-0.5,0.5-0.5,1.1c0,0,0,0-0.5,0c0,0,0,0.5-0.5,0.5c0,0.5-0.5,0.5-1.1,1.1
			c0,0,0,0.5-0.5,0.5c-0.5,0.5-1.1,1.1-2.1,2.1l-0.5,1.1c-1.1,0.5-1.6,1.1-2.1,1.6l-1.1,1.1c-0.5,1.1-1.1,1.6-1.6,2.7
			c-1.1,1.1-2.1,2.7-3.2,3.8l-1.1,1.6c-0.5,0.5-1.6,0.5-2.1,1.1c-0.5,0-0.5,1.1-0.5,1.1c-1.1,0.5-1.6,1.1-2.1,1.6
			c-0.5,0.5-0.5,1.1-1.6,1.1v-0.5c0.5-1.1,0.5-2.1,1.1-2.7c0-0.5,0.5-0.5,0.5-1.1c0-0.5-0.5-1.6-0.5-2.7c0,0,0,0,0.5-0.5
			c0-0.5,0.5-0.5,0.5-1.1l0.5-0.5c1.1-1.6,2.1-3.8,3.8-4.8l3.2-4.3c0.5-0.5,1.1-1.1,2.1-1.6c0.5-0.5,1.1-1.6,1.6-2.1
			c1.1-0.5,2.1-1.6,2.7-2.1l0.5-0.5c0.5-0.5,1.6-1.6,2.1-2.1c0.5-0.5,0.5-0.5,0.5-1.1c0.5-0.5,1.1-1.1,1.6-1.6
			c0.5-0.5,0-1.6,0.5-2.1c0.5-0.5,1.1-1.1,1.6-1.1c1.1-1.1,2.7-2.1,4.3-2.7c1.1-1.6,2.7-1.6,2.7-2.7l-0.5-0.5c-1.1,0-1.6,0-2.1,0.5
			l-0.5,0.5h-1.1c-2.1,1.1-3.8,2.1-5.4,3.8c-0.5,0.5-1.6,0.5-2.1,1.1c-0.5,0.5-1.1,1.1-1.6,1.1c-0.5,0.5-1.1,1.1-1.6,1.6
			c-0.5,0-1.1,0.5-1.6,1.1c-0.5,0-0.5,0.5-1.1,0.5l-0.5,0.5c0,0-0.5,0-0.5,0.5c0,0,0,0.5-0.5,0.5c0,0.5-0.5,0.5-1.1,1.1
			c-0.5,0-1.1,0.5-1.6,1.1c-0.5,0.5-1.6,1.1-2.1,1.6c-0.5,0.5-1.1,1.1-1.6,1.6c-0.5,0.5-1.6,0.5-2.1,1.6c-1.1,0.5-1.1,2.1-1.6,3.2
			c-1.1,0.5-2.1,1.1-2.7,1.6c-0.5,0.5-0.5,2.7-1.1,3.2c-0.5,0.5-1.1,1.6-2.1,2.7c-1.1,0.5-1.6,1.6-2.1,2.7l-0.5,0.5
			c-0.5,0.5-0.5,1.1-1.1,1.6c0,0.5,0,0.5,0,1.1c-0.5,1.1-2.1,1.1-2.7,2.1c0,0.5,0,1.1-0.5,1.6c0,0.5-0.5,0.5-0.5,1.1
			c-0.5,0.5-0.5,1.1-1.1,1.6c-0.5,0.5-1.1,1.1-1.1,1.6c-0.5,0.5-0.5,1.1-1.1,2.1c-0.5,0.5-0.5,1.1-0.5,1.6c0,0.5,0,1.1,0,1.6
			c-0.5,1.6-1.6,2.1-2.1,3.2c0,0.5,0,0.5,0,1.1c0,1.1,0,1.6-0.5,2.7c-0.5,0.5-0.5,1.6-1.1,2.1c0,0.5,0,0.5-0.5,1.1
			c0,0.5-0.5,0.5-0.5,1.1v0.5l-0.5,0.5c-0.5,1.1-0.5,2.1-0.5,3.2v0.5c0,1.1-1.1,1.6-1.6,2.7v0.5c0,0.5,0,1.1,0,1.6
			c0,0.5,0,1.1,0,1.6v0.5c0,0.5-0.5,1.1-0.5,2.1c0,0.5-0.5,0.5-0.5,1.1c0,1.1,0,2.1,0,3.2c0,0.5,0,0.5,0,1.1v0.5
			c0,2.1-0.5,4.8-0.5,7v1.1c0,0.5,0,1.6,0,2.1v2.1c0,0.5,0,1.6-0.5,2.1l0.5,2.7c0,0.5,0,1.6,0,2.1l0.5,5.9l0.5,3.2
			c0.5,0.5,1.1,1.1,1.1,1.6c0.5,1.1-0.5,2.7,0,3.8c0,0.5,0.5,1.1,0.5,1.6v3.2c0,0.5,0.5,1.1,1.1,1.6l0.5,3.2
			c0.5,1.1,1.6,2.7,2.7,3.8l0.5,1.1l0.5,0.5c-0.5,0.5,0,1.6,0,2.1c0.5,1.1,1.1,1.6,1.1,2.7l0.5,1.6c0.5,1.1,1.1,2.7,1.6,3.8v1.1
			c0.5,1.6,1.1,2.7,1.6,4.3c0.5,0.5,0,1.6,0,2.1c0.5,0.5,1.1,1.1,1.6,1.6l0.5,0.5c0,0,0,0.5,0.5,1.1c0,0,0.5,0.5,0.5,1.1
			c0,0.5,0,0.5,0.5,1.1c0,0,0,0,0.5,0.5l0.5-0.5c0.5,0.5,1.1,1.1,1.6,2.1c0.5,1.1,0,2.1,0.5,2.7c0.5,0.5,1.1,0,1.6,0.5
			c0.5,0.5,0,1.1,0,1.6c0.5,0.5,0.5,1.1,1.1,1.1c1.1,0,2.1,0.5,3.2,1.6c0.5,0.5,1.1,1.6,1.6,2.1c0,0.5,0.5,0.5,0.5,1.1
			c1.6,1.6,2.7,3.2,4.3,4.8c1.1,1.1,2.7,2.7,3.8,3.8c0.5,0.5,1.6,1.1,2.1,1.6v0.5l-0.5,1.1c0,0.5,0.5,0.5,0.5,0.5
			c1.1,0,2.1-0.5,2.1,0v0.5c-0.5,0.5-0.5,1.1-0.5,1.6c0.5,0.5,0.5,0.5,1.6,0.5c0-0.5,0.5-1.1,1.1-0.5c0.5,0,0.5,0.5,0.5,1.1
			c-0.5,0,0,0.5-0.5,0.5l0,0c0,0.5,0.5,1.1,0.5,1.1l0.5,0.5h1.6c0.5,0,0.5,0,1.1,0l1.6,1.6c1.1,0.5,2.7,1.1,3.8,2.1l0.5,0.5
			c0.5,0.5,0.5,0.5,0.5,1.1c0.5,0.5,1.1,1.1,2.1,1.6c2.7,1.1,5.4,2.7,8,3.8l2.1,1.6c0.5,0.5,1.1,1.1,1.6,1.1s0.5,0,1.6,0
			c0.5,0,1.1,0,1.6,0.5c1.6,0.5,3.2,1.6,4.3,2.1c0.5,0,0.5,0.5,1.1,0.5c0.5,0,0.5,0,0.5,0s0.5,0,1.1,0.5h1.1h0.5
			c0.5,0,1.1,0,1.6,0.5c1.1,0.5,2.1,1.1,3.2,1.6h0.5h0.5h1.6c0.5,0,1.6,0.5,2.1,0.5c0.5,0,1.6,0,2.1,0c0.5,0,1.6,0.5,2.1,0.5
			c0.5,0,0.5,0,1.1,0c0.5,0.5,1.6,0.5,2.1,1.1h0.5l0.5,0.5c0.5,0,1.6,0,2.1-0.5c1.1-0.5,1.6,0,2.7,0s1.6-1.1,2.7-0.5
			c1.1,0,1.6,0.5,2.7,1.1c0.5,0,0.5,0.5,1.1,0c0.5,0,7.5-1.1,8-1.1c0.5,0,7.5,0,7.5,0.5c1.6,0,4.8-2.1,5.4-2.1
			c2.7,0,5.4-0.5,7.5-2.1c0.5,0,6.4-0.5,7-0.5c1.1,0,4.8-5.9,3.2-5.4c-4.8,2.1-10.2,3.2-15.5,2.7l-3.2,0.5l-2.1-0.5l-2.7,0.5
			c-0.5,0-7,0.5-7.5,0.5c-0.5,0-8.6,0-9.1,0l-0.5-0.5c-0.5,0-0.5,0-1.1-0.5c0,0-0.5,0-0.5-0.5c-0.5,0-1.1,0.5-2.1,0.5
			c-0.5,0-1.6-0.5-2.7-0.5s-2.1-0.5-3.2-0.5c-0.5,0-0.5-0.5-1.1-0.5h-0.5h-1.1h-0.5c-0.5,0-0.5-1.1-1.1-1.1c0,0,0-0.5,0-1.1v-0.5
			l0.5-0.5c1.6,0,2.7,0,4.3,0c1.6,0,2.7,0,4.3,0.5c1.1,0,1.6,0.5,2.7,0.5h1.1c1.6,0,3.2,0.5,4.3,0.5h1.1c0.5,0,1.6,0,2.1,0.5h1.6
			c0.5,0,1.6,0,2.1,0l2.7-0.5c0.5,0,1.6,0,2.1,0h2.1l3.8-0.5l8-1.1l3.8-0.5c0.5,0,1.1-0.5,1.6-1.1l2.1-0.5h0.5
			c0.5,0,1.1-0.5,1.6-1.1h1.6c2.1-1.1,4.3-1.6,6.4-2.7c0.5-0.5,1.6-0.5,2.1-1.1c0.5,0,1.1,0,1.6-0.5c0.5,0,0.5-0.5,1.1-0.5l2.7-1.1
			c1.1-0.5,1.6-2.1,3.2-2.7c0.5,0,0.5,0,1.1-0.5c0,0,0,0,0.5-0.5c0,0,0.5,0,0.5-0.5c0,0,0.5-0.5,1.1-0.5c0.5,0,0.5,0,1.1-0.5
			c0,0,0,0,0.5-0.5h0.5c0,0,0,0,0.5-0.5c0.5-0.5,1.1-0.5,1.1-1.1c0,0,0.5,0,0.5-0.5c0.5-0.5,1.1-1.1,2.1-1.6h0.5
			c0.5-0.5,1.1-1.1,1.6-1.6c0.5-0.5,1.6-1.1,2.1-1.6c0.5-0.5,1.1-1.1,1.6-1.6l1.1-0.5c0.5,0,0.5-0.5,1.1-1.1c0,0,0.5,0,0.5-0.5
			c0.5-0.5,0.5-0.5,1.1-1.1c0.5-0.5,1.1-0.5,1.6-1.1c0.5-0.5,0.5-1.1,0.5-1.6v-1.1c0-0.5,0-0.5,0.5-1.1c0.5-0.5,1.1-1.6,1.6-2.1h1.1
			c0,0,0,0,0-0.5s-0.5-0.5-0.5-1.1v-0.5c0-0.5,0.5-0.5,1.1-1.1l0.5-0.5c0.5-0.5,1.1-1.1,1.6-2.1l3.2-4.3c0,0,0-0.5,0.5-0.5
			c0,0,0.5,0,0.5-0.5c0.5-0.5,0.5-0.5,1.1-1.1c0,0,0.5,0,0.5-0.5c0.5-0.5,0.5-1.1,1.1-1.6c0.5-0.5,1.6-1.1,2.1-1.6
			c0.5-1.6,0.5-2.7,1.1-4.3c0-0.5,0.5-0.5,0.5-1.1c0-1.1,0.5-1.6,0.5-2.7c0.5-0.5,0.5-1.1,1.1-2.1c0-0.5,0-1.1,0.5-1.6
			c0.5-1.1,1.1-1.6,1.6-2.7c0.5-1.1,0.5-2.7,1.1-3.8c0.5-0.5,1.1-1.6,1.1-2.1c0.5-1.1,0.5-1.6,1.1-2.7v-1.6c0.5-0.5,0.5-1.1,1.1-1.6
			l0.5-0.5c0,0,0,0,0-0.5c0-0.5,0.5-1.1,0.5-1.6s0-0.5,0-1.1s0.5-1.6,0-2.7c0-0.5-1.1-1.6-0.5-2.1c0-0.5,0.5-1.1,1.1-1.6
			c0,0,0-0.5,0.5-0.5c0.5,0,0.5,0,1.1,0l0,0c0,1.1,1.1,1.6,0.5,2.7c0,1.1-0.5,2.1-0.5,3.2l0.5,2.7c0,0.5,0,1.6-0.5,2.1
			c0,0.5,0,1.1,0,1.6c0,0.5,0,1.1,0,1.6c0.5,0,0.5,0,1.1,0c0-1.6,0.5-2.7,1.1-4.3c0-0.5,0-1.6,0-2.1c0-1.6,0.5-3.2,0.5-4.3v-1.1
			l0.5-2.1v-1.1c0-0.5,0-1.6,0.5-2.1v-1.6l0.5-2.1v-1.6c0-0.5,0-1.6,0.5-2.1c0-0.5,0-1.1,0-1.6h1.1l0.5,2.7c0,0.5,0,1.6-0.5,2.1v2.1
			c0,0.5,0,1.6-0.5,2.1v1.1c0,0.5,0,1.6-0.5,2.1l0.5,2.1c0,0.5,0,1.6,0,2.1l0.5,2.1c0.5,1.1,0.5,2.1,0.5,2.7c0,1.6-0.5,3.2-1.1,4.8
			v1.6c0,0.5,0,0.5-0.5,1.1c0,0.5,0,0.5,0,1.1c0,0.5-0.5,0.5-0.5,0.5s0,0.5-0.5,0.5c-0.5,0-0.5,0.5-0.5,0.5c0,0.5,0,1.1-0.5,1.6
			c-0.5,1.1-1.1,2.1-1.1,3.8c0,0.5,0,1.1,0.5,1.6c0,0.5,0,1.1,0,1.6c-0.5,0.5-0.5,1.1-1.1,1.6c-0.5,0-0.5,0.5-1.1,0.5
			c-0.5,0.5-0.5,1.6-1.1,2.1l-0.5,1.1l-0.5,0.5c0,0.5-0.5,1.1-0.5,1.1l-0.5,0.5c0,0.5,0,1.1-0.5,1.1c0,0.5-0.5,1.1-1.1,1.6
			c0,0.5,0,1.1-0.5,1.1l-0.5,0.5v0.5c0,0.5-0.5,0.5-0.5,1.1v0.5c-0.5,0.5-1.1,1.6-1.1,2.1c-0.5,0.5-0.5,1.1-1.1,1.6
			c0,0.5-0.5,0.5-0.5,1.1c-0.5,0.5-0.5,1.6-1.1,2.1c-0.5,1.1-1.6,2.1-2.1,3.2c-0.5,1.1-1.1,1.6-1.1,2.7l-2.1,2.7l-1.6,2.1
			c-1.1,1.1-2.1,2.1-2.7,3.2c0,0-5.4,6.4-5.4,7c0,0.5,0,1.1-0.5,1.6c-0.5,1.1-7,5.4-7.5,5.9c0,0.5-0.5,0.5-0.5,1.1c0,0,0,0,0,0.5
			h0.5h0.5c0.5,0,3.2-1.1,3.8-1.1c0,0,5.4-3.8,5.9-3.8c0,0,0.5-0.5,0.5-1.1l0.5-0.5c0.5-0.5,0.5-1.1,1.1-1.1
			c0.5-0.5,1.1-1.1,1.6-1.6c0,0,0-0.5,0.5-0.5c1.1-1.1,6.4-8,7-9.1l1.6-1.6l0.5-0.5c0.5-0.5,0.5-0.5,0.5-1.1
			c0.5-1.1,1.1-1.6,1.6-2.7c0.5-1.1,1.6-1.6,1.6-2.7c0-0.5,0.5-1.1,0.5-1.6c0-0.5,0.5-0.5,0.5-1.1c0-0.5,0-0.5,0-1.1
			c0.5-1.1,1.6-1.6,2.1-2.1v-0.5c0-0.5,0.5-1.6,1.1-2.1c0-0.5,0-0.5,0.5-1.1c0.5-1.1,1.6-1.1,2.1-2.1c0-0.5,0.5-1.1,0.5-1.6
			c0-0.5,0.5-0.5,0.5-1.1c0.5-0.5,0.5-1.1,0.5-1.1c0-1.1,0.5-1.6,0.5-2.7c0-0.5,0.5-1.1,0.5-1.1v-0.5c0-0.5,0.5-0.5,0.5-1.1
			c0-0.5,0-0.5,0.5-1.1c0-0.5,0.5-0.5,0.5-1.1c0-0.5,0-0.5,0-0.5l0,0c0-0.5,0.5-0.5,0.5-1.1c0.5-0.5,1.1-1.6,1.1-2.1
			c0.5-1.1,0-2.7,0-3.8s3.2-4.3,3.2-3.8c0.5,0.5,0.5,0.5,1.1,0c0-0.5,0.5-1.1,0.5-1.1v-1.1c0,0,0-0.5,0.5-0.5c0-0.5,0-0.5,0.5-1.1
			c0.5-0.5,1.1-1.1,1.6-1.6c0-0.5,0-1.1,0-1.6c0-1.1,0.5-2.1,0.5-3.2v-1.6l0.5-2.1v-1.6l0.5-2.1v-1.6c0-1.1,0-2.1,0.5-3.2
			c0-1.1-0.5-2.1-1.1-2.7v-0.5c0-2.1,1.1-3.2,1.1-5.4v-1.1c-0.5-1.6-0.5-3.2-0.5-4.3c0-0.5,0.5-1.1,1.1-1.6c0,0,0.5,0,0.5-0.5
			c0.5-0.5-0.5-2.7-0.5-3.2c0-0.5,1.1-1.6,0.5-2.1c0-0.5-0.5-0.5-0.5-1.1c0,0,0-0.5-0.5-0.5c-0.5-0.5-1.1-1.1-1.6-2.1
			c-0.5-1.1-0.5-2.1-0.5-3.2v-1.1l-1.1-2.1v-1.6c-0.5-1.1-1.1-2.1-1.1-3.8c0.5,0,0.5,0,1.1,0c0,0.5,1.1,0,0.5-0.5l-0.5-2.1l-1.1-2.1
			v-1.1l-1.1-2.1v-1.1c-0.5-2.1-1.6-3.8-2.7-5.9c-0.5-0.5,0-1.6-0.5-2.1c-0.5-1.1-1.1-1.6-1.6-2.1c-0.5-1.1-0.5-2.1-1.1-3.2
			c-0.5-0.5-0.5-1.1-1.1-1.6c-0.5,0-0.5-0.5-1.1-0.5c-0.5-0.5-1.1-0.5-1.1-1.1v-1.1c0-0.5-0.5-1.1-0.5-1.6c-0.5-1.1,0-1.6-0.5-2.7
			c-0.5-1.1-1.6-1.6-2.1-2.1c-0.5-0.5-0.5-1.1-1.1-1.6c-3.2,2.1-3.8,1.1-4.3,0.5c-0.5-0.5-0.5-1.1-1.1-1.6c-0.5-0.5-1.1-1.1-1.6-2.1
			c-0.5-0.5-0.5-0.5-0.5-1.1l-0.5-0.5c0,0,0-0.5-0.5-0.5c0,0-0.5,0-0.5-0.5c-0.5-0.5-0.5-0.5-0.5-0.5s-0.5-0.5-1.1-1.1
			c-1.6-1.6-2.7-3.2-4.3-4.8c-1.1-1.1-2.7-1.1-3.8-2.1c0-0.5-0.5-0.5-0.5-1.1l-1.6-1.1c-1.1-0.5-2.1-1.6-2.7-2.1
			c-0.5,0-0.5-0.5-1.1-0.5c-0.5-0.5-1.1-1.1-1.6-1.6l-1.1-0.5c-0.5-0.5-1.6-0.5-2.1-1.1c-0.5-0.5-1.1-0.5-1.6-1.1
			c-1.6-0.5-2.7-1.6-4.3-2.1c-0.5,0-0.5-0.5-1.1-0.5s-1.1-0.5-1.1-0.5l0,0h-0.5c-0.5,0-0.5-0.5-1.1-0.5s-0.5,0-1.1,0
			s-1.1-2.1-1.1-2.1c-0.5,0-0.5,0-1.1,0s-1.1-0.5-1.6-1.1c-0.5,0-1.6-0.5-2.1-0.5c-1.1-0.5-2.7-1.1-3.8-1.1
			c-1.6-0.5-3.2-1.1-4.8-1.6h-0.5h-0.5c-0.5,0-0.5,0-1.1,0c-0.5,0-1.6-0.5-2.1-1.1h-0.5h-0.5h-1.6c-1.1-0.5,0-1.1-1.6-1.1h-1.6
			c-0.5,0-1.6-0.5-2.1-0.5h-1.6c-0.5,0-1.6-0.5-2.7-0.5h-1.1c-1.1,0-1.6-0.5-2.7-0.5c-0.5,0-0.5-0.5-1.1-0.5h-0.5h-0.5
			c0,0,2.7-0.5,2.1-0.5c-0.5,0-0.5-0.5-1.1-0.5h-0.5h-0.5h-1.6h-0.5c-0.5,0-1.1,0-2.1,0c-0.5,0-1.6,0-2.1-0.5l-4.3,0.5l-1.6-2.1
			l-2.1,0.5l-2.1-1.1l-3.8,0.5l-2.1-0.5l-2.1,0.5c-0.5,0-0.5,1.1-1.6,1.1l-3.8,0.5l-2.1,0.5l-2.1,1.1h-1.1c-0.5,0.5-1.1,0.5-2.1,1.1
			l-1.1,0.5c0,0-0.5,0.5-1.6,1.1c-0.5,0.5-1.1,0.5-1.6,1.1c-0.5,0.5-1.1,1.1-1.6,1.6c0,0,0,0,0,0.5c-0.5,0.5-1.6,0.5-2.1,1.1
			c0,0.5-0.5,0.5-0.5,1.1c-1.1,0.5,0.5,0.5-0.5,1.1c-0.5,0.5-1.1,1.1-1.1,1.6l-0.5,0.5c-0.5,0.5-0.5,1.6-1.1,2.1
			c-0.5,0.5-1.1,1.6-1.1,2.1c0,0.5,0,0.5,0,1.1c0,0.5-0.5,0.5-0.5,1.1c0,0.5,0,1.1,0,1.6v1.1c0,1.1-1.6,2.1-2.1,2.7
			c0,0-0.5,0-0.5,0.5v0.5c0.5,0,0.5,0,1.1,0c0.5,0,1.1,0.5,1.1,1.1l0.5,3.8c0.5,1.1,1.1,1.6,1.1,2.7c0,0.5,0.5,0.5,0.5,1.1
			c0,0.5,0,1.1,0.5,1.1c0.5,0.5,1.1,0.5,1.1,0.5c0.5,0.5,1.1,1.1,2.1,1.6c0.5,0,1.1,0,2.1,0.5c0.5,0,1.1,0,1.6,0.5
			c0.5,0-2.1,1.1-1.6,1.1c0.5,0,0.5,0,1.1,0c0.5,0,0.5,0.5,1.1,0.5c1.1,0.5,2.1,1.1,3.2,1.1c0.5,0,1.6,0,2.1,0l2.1,0.5h1.1
			c0.5,0,1.6,0,2.1,0l2.1-0.5h1.6c0.5,0,1.1-0.5,1.6-0.5h0.5c0.5-0.5,1.1-1.1,1.6-1.1c1.1-0.5,2.1-0.5,3.2-0.5h1.1
			c0.5,0,0.5-0.5,1.1-1.1l1.1-0.5c0.5,0,0.5,0.5,1.1,0.5c0.5,0-1.6,0.5-1.1,1.1c0.5,0,0.5,0.5,1.1,0.5h0.5c1.1,0.5,2.7,0.5,3.8,0.5
			c0.5,0,1.1,0,1.6,0c0.5,0,1.6,0,2.1,0c0.5-0.5,1.6-0.5,2.1-0.5c0.5,0,0.5,0,1.1,0.5c0.5,0,1.1,0,1.6,0c0.5,0,0.5,0,1.1,0
			c0.5-0.5,1.1-1.1,1.6-1.6c1.1,0,1.6,0,2.7,0C-288.2-486.2-287.7-486.2-286.6-486.7z"/>
	</g>
</g>
</svg>
