<svg id="Layer_1" data-name="Layer 1" xmlns="http://www.w3.org/2000/svg" viewBox="0 0 300 300"><defs><style>.cls-1{fill:#89c540;}.cls-2{fill:#144576;}.cls-3{fill:#8ac640;}.cls-4{fill:#134574;}</style></defs><path class="cls-1" d="M58.94,206.49l33.69,29.22V219.07l-14.5-12.58,6.3-5.47-9.6-8.32Z"/><path class="cls-2" d="M124.75,211.55,52.3,148.68l66.33-57.57.75,25.45-38.81,33,9.67,8.37,41.89-35.68-1.67-58L33.1,148.68l91.65,79.53L140,215V198.34Z"/><path class="cls-3" d="M207.29,235.78,241,206.52,150.4,127.14l-57,49.43,9.59,8.32,47.32-41.06,71.54,62.65L207.3,219.13Z"/><path class="cls-4" d="M169.55,64.22l-1.68,58,41.82,35.62,9.59-8.36-38.66-32.92.75-25.45,66.33,57.57-32,27.79,9.55,8.36,41.67-36.15Z"/><path class="cls-4" d="M175.24,211.55,160,198.29V215l15.61,12.94,31-26.93-9.55-8.36Z"/></svg>