<svg id="Layer_1" data-name="Layer 1" xmlns="http://www.w3.org/2000/svg" viewBox="0 0 300 300"><defs><style>.cls-1{fill:#f9b23b;}.cls-2{fill:#2f74ba;}.cls-3{fill:#e75427;}.cls-4{fill:#3fabe1;}.cls-5{fill:#b2b2b0;}.cls-6,.cls-7{fill:#2b2b2a;}.cls-7{fill-rule:evenodd;}</style></defs><g id="_f9b23cff" data-name="#f9b23cff"><path id="Layer" class="cls-1" d="M60.46,125.49h3c.72.26,1.5.23,2.23.43a18.88,18.88,0,0,1,2.65.82A24.79,24.79,0,0,1,74,129.88a38.67,38.67,0,0,1,3.45,2.93c1.33,1.33,2.66,2.66,3.89,4.08s2.42,2.8,3.68,4.16c1.77,1.81,3.32,3.82,5,5.74v.42c-1.37,1.46-2.64,3-4,4.52a18.81,18.81,0,0,1-1.35,1.47c-.69-.66-1.28-1.43-1.93-2.14-1.81-2.13-3.72-4.19-5.55-6.32-.67-.75-1.28-1.56-2-2.28q-2.58-3-5.22-6a49.63,49.63,0,0,0-3.67-3.86,26.16,26.16,0,0,0-5.71-3.91A48,48,0,0,0,56,126.76a1.27,1.27,0,0,1,.06-.18,20.83,20.83,0,0,1,4.4-1.09Z"/><path id="Layer-2" data-name="Layer" class="cls-1" d="M24.16,151.18c.51-.19,1-.4,1.54-.55-.44.21-.89.38-1.34.56a3.67,3.67,0,0,0,1.08.64c-.41-.15-.81-.31-1.21-.48a1.22,1.22,0,0,0-.07-.17Z"/><path id="Layer-3" data-name="Layer" class="cls-1" d="M92.24,160.29A52,52,0,0,0,97,155.13a16.82,16.82,0,0,1,1.9,1.78l5.14,5.14a55.57,55.57,0,0,0,11.54,9.07,13.53,13.53,0,0,0,3,1.41,12.08,12.08,0,0,0,3,.33H281.5v1.65H117.93a49.29,49.29,0,0,1-7.17-.68,20.43,20.43,0,0,1-6.48-2.76,32.56,32.56,0,0,1-4.39-3.34c-.85-.75-1.71-1.48-2.5-2.28-1.73-1.71-3.45-3.42-5.15-5.16Z"/></g><g id="_2d73b9ff" data-name="#2d73b9ff"><path id="Layer-4" data-name="Layer" class="cls-2" d="M18.5,129.53A17,17,0,0,1,32.58,126a26.16,26.16,0,0,1,9.58,4.45q-2.32,2.93-4.67,5.83a32.7,32.7,0,0,0-5.88-4.6,20.32,20.32,0,0,0-8.08-2.81,19.07,19.07,0,0,0-5,.69Z"/><path id="Layer-5" data-name="Layer" class="cls-2" d="M49.1,137.35c.08-.17.28,0,.35.08,2.31,2.71,4.65,5.39,7,8.07,1.44,1.66,2.89,3.3,4.37,4.93,1.89,2.12,3.71,4.3,5.74,6.28a26.7,26.7,0,0,0,7,5.18c1.57.76,3.31,1.13,4.87,1.91.11,0,.28.24,0,.25a19,19,0,0,1-8,1.42,18.34,18.34,0,0,1-3-.55,22.81,22.81,0,0,1-9.6-5.89,57.57,57.57,0,0,1-4-4.28c-3.2-3.62-6.25-7.37-9.56-10.88,1.54-2.19,3.15-4.34,4.72-6.52Z"/></g><g id="_e85329ff" data-name="#e85329ff"><path id="Layer-6" data-name="Layer" class="cls-3" d="M48.1,127.65A10.13,10.13,0,0,1,53,127c1.46.26,2.8.93,4.24,1.27l0,.15a32.61,32.61,0,0,0-4.38,3.27,34.7,34.7,0,0,0-6.68,7.67c-.72.9-1.35,1.86-2.1,2.73-1.78,2.25-3.35,4.68-5.3,6.79a13.48,13.48,0,0,1-4.78,3.41,12.61,12.61,0,0,1-8.62-.49,3.47,3.47,0,0,1-1.08-.64c.45-.18.9-.35,1.34-.55.66-.3,1.35-.54,2-.9A14.3,14.3,0,0,0,32,146.17a58.14,58.14,0,0,0,3.59-5.08,54.93,54.93,0,0,1,8.61-10.88,11,11,0,0,1,3.94-2.56Z"/></g><g id="_40abe1ff" data-name="#40abe1ff"><path id="Layer-7" data-name="Layer" class="cls-4" d="M119,127.52c6.16,0,12.33,0,18.49,0h104c13.35,0,26.71,0,40.06,0v1.61c-12.95,0-25.89,0-38.84,0q-60.82,0-121.66,0c-.8,0-1.6-.05-2.4,0a5.8,5.8,0,0,0-2.82,1.43,46.06,46.06,0,0,0-4.32,4.73c-1.51,1.61-2.87,3.34-4.27,5-2.88,3.54-5.7,7.12-8.55,10.68-1.53,1.9-3,3.82-4.7,5.62a22.63,22.63,0,0,1-4,3.46A17.41,17.41,0,0,1,83.48,163a11.06,11.06,0,0,1-6.86-.72c.56-.45,1.17-.81,1.74-1.23a37.59,37.59,0,0,0,8.28-8c.92-1,1.87-2.05,2.76-3.12,3.22-3.85,6.15-7.94,9.49-11.69a51.7,51.7,0,0,1,5-4.84,31.14,31.14,0,0,1,5.14-3.55,20.39,20.39,0,0,1,9.94-2.24Z"/></g><g id="_b2b1afff" data-name="#b2b1afff"><path id="Layer-8" data-name="Layer" class="cls-5" d="M121,129.12q60.83,0,121.66,0c13,0,25.89,0,38.84,0v0c-7,0-14,0-20.95,0H129C126.32,129.13,123.66,129.18,121,129.12Z"/><path id="Layer-9" data-name="Layer" class="cls-5" d="M59.33,129.29a11.44,11.44,0,0,1,1.46.69c0,.75,0,1.51,0,2.26v15.18a12.16,12.16,0,0,1,0,1.35c-.49-.49-.91-1-1.39-1.52-.05-3.5,0-7,0-10.48,0-2.49,0-5,0-7.48Z"/><path id="Layer-10" data-name="Layer" class="cls-5" d="M55.49,131a10,10,0,0,1,1.43-1c0,4.8,0,9.6,0,14.41-.47-.44-.86-.95-1.29-1.41-.25-.25-.16-.64-.18-1,0-3.31,0-6.62,0-9.93a4.51,4.51,0,0,1,0-1.1Z"/><path id="Layer-11" data-name="Layer" class="cls-5" d="M24.08,130.07c.5.07,1,.15,1.49.26v17.59a9.37,9.37,0,0,1,0,1.3,9,9,0,0,1-1.43.51c0-6.56,0-13.11,0-19.66Z"/><path id="Layer-12" data-name="Layer" class="cls-5" d="M28,132.36c0-.45,0-.89,0-1.33.46.18.92.37,1.38.54,0,.18,0,.36,0,.54,0,4.7,0,9.39,0,14.09a4.3,4.3,0,0,1,0,1,5.53,5.53,0,0,1-1.39.95c0-5.25,0-10.49,0-15.74Z"/><path id="Layer-13" data-name="Layer" class="cls-5" d="M63.65,131.83A8.44,8.44,0,0,1,65.11,133c0,6.9,0,13.8,0,20.71-.48-.54-1-1-1.43-1.62a5,5,0,0,1,0-.95c0-6.43,0-12.85,0-19.28Z"/><path id="Layer-14" data-name="Layer" class="cls-5" d="M32.28,133.2a13.33,13.33,0,0,1,1.48,1c0,2.57,0,5.14,0,7.71a1,1,0,0,1-.28.63c-.38.53-.78,1.06-1.17,1.58C32.26,140.48,32.3,136.84,32.28,133.2Z"/><path id="Layer-15" data-name="Layer" class="cls-5" d="M51.15,134.86c.48-.46.94-.94,1.42-1.39,0,2,0,4,0,5.94a13,13,0,0,1-1.18-1.27c-.12-.15-.28-.3-.26-.51,0-.93,0-1.85,0-2.78Z"/><path id="Layer-16" data-name="Layer" class="cls-5" d="M67.91,135.75c.53.49,1,1.07,1.46,1.6,0,6.83,0,13.67,0,20.5a15.88,15.88,0,0,1-1.45-1.27q0-10.41,0-20.83Z"/><path id="Layer-17" data-name="Layer" class="cls-5" d="M72.25,140.91a21.39,21.39,0,0,1,1.42,1.73c0,6.13,0,12.28,0,18.41a7.53,7.53,0,0,1-1.43-.76q0-9.69,0-19.38Z"/><path id="Layer-18" data-name="Layer" class="cls-5" d="M76,144.8c.42.54.86,1,1.3,1.58a.78.78,0,0,1,.14.56v13.12c0,.14,0,.35-.13.43-.42.31-.87.57-1.3.87,0-5.52,0-11,0-16.56Z"/><path id="Layer-19" data-name="Layer" class="cls-5" d="M80.22,149.84a14.94,14.94,0,0,1,1.4,1.57,10.2,10.2,0,0,1,.06,1.66c0,1.29,0,2.59,0,3.88a8.49,8.49,0,0,1-1.43,1.25c0-2.79,0-5.58,0-8.36Z"/></g><g id="_2b2b29ff" data-name="#2b2b29ff"><path id="Layer-20" data-name="Layer" class="cls-6" d="M137.82,134.93a2.73,2.73,0,0,1,2.46-.7,2.51,2.51,0,0,1,1.93,1.56,5.6,5.6,0,0,1,.31,2.07c0,3.28,0,6.56,0,9.83l9.84-10.8a21.16,21.16,0,0,1,2.19-2.25,2.81,2.81,0,0,1,2.26-.38,2.44,2.44,0,0,1,1.92,2.13,3.53,3.53,0,0,1-1.12,2.76c-1.94,1.94-3.91,3.86-5.84,5.81a9.18,9.18,0,0,0-.91,1c2.69,4.11,5.43,8.18,8.11,12.29a6,6,0,0,1,1.19,3.3,2.41,2.41,0,0,1-1.91,2.21,4,4,0,0,1-2.23-.21,4.06,4.06,0,0,1-1.66-1.65c-1.37-2.45-2.9-4.79-4.36-7.19-1-1.6-2-3.24-3-4.83-1.53,1.46-3,3-4.48,4.5,0,2,0,4.05,0,6.07a3.55,3.55,0,0,1-1.06,2.79,2.73,2.73,0,0,1-4-.64,6,6,0,0,1-.5-3V137.75a4.21,4.21,0,0,1,.83-2.81Z"/><path id="Layer-21" data-name="Layer" class="cls-6" d="M259.63,134.29a2.6,2.6,0,0,1,2.5.53,3.51,3.51,0,0,1,.87,2.57v23.27a3.61,3.61,0,0,1-.73,2.34,2.45,2.45,0,0,1-3.66,0,4.22,4.22,0,0,1-.69-2.9q0-11.28,0-22.55a4,4,0,0,1,.54-2.33,2.21,2.21,0,0,1,1.17-.89Z"/><path id="Layer-22" data-name="Layer" class="cls-6" d="M223.28,135.89a2.47,2.47,0,0,1,4.37.73,8,8,0,0,1,.19,1.61c0,1.45,0,2.89,0,4.33a10.61,10.61,0,0,1,2.93.19,1.89,1.89,0,0,1,.48,3.17,6.61,6.61,0,0,1-3.41.53c0,3.39,0,6.78,0,10.16.07.91-.09,2,.62,2.7a2.41,2.41,0,0,0,2.05.22c.73-.12,1.56-.43,2.23,0a2,2,0,0,1,.13,3.08,5.74,5.74,0,0,1-3.32,1.1,8.54,8.54,0,0,1-4.53-.63,3.88,3.88,0,0,1-1.9-2.56,17.87,17.87,0,0,1-.36-3.57V146.46a3.83,3.83,0,0,1-2.14-.4,1.93,1.93,0,0,1-.1-3,3.56,3.56,0,0,1,2.24-.49c0-1.69,0-3.37,0-5.06a3.9,3.9,0,0,1,.47-1.6Z"/><path id="Layer-23" data-name="Layer" class="cls-7" d="M237.29,143.93a10.41,10.41,0,0,1,5.74-1.84,18.28,18.28,0,0,1,5,.38,6.47,6.47,0,0,1,2.82,1.4,5.12,5.12,0,0,1,1.33,2.1,13,13,0,0,1,.61,4.52c0,1.75,0,3.51,0,5.26a12.22,12.22,0,0,0,.56,4.07,4.71,4.71,0,0,1,.31,2.31,2.46,2.46,0,0,1-2.78,1.61,2.56,2.56,0,0,1-1-.67,10.44,10.44,0,0,1-1.66-2.26,12,12,0,0,1-5.75,2.86,8,8,0,0,1-5.19-.75,5.84,5.84,0,0,1-2.9-4.34,6,6,0,0,1,.65-3.65,5.79,5.79,0,0,1,2.3-2.25,10.51,10.51,0,0,1,3.06-1c2.51-.54,5-1.08,7.49-1.86a5.9,5.9,0,0,0-.87-3.16,3.79,3.79,0,0,0-2.81-.89,5.15,5.15,0,0,0-3.5.95,13.09,13.09,0,0,0-2,2.73,1.62,1.62,0,0,1-1.43.43,2,2,0,0,1-1.78-1.15,3,3,0,0,1-.1-1.81,5.23,5.23,0,0,1,2-3Zm4.34,10.77a4,4,0,0,0-1.69,1,2.66,2.66,0,0,0-.44,2.48,2.91,2.91,0,0,0,2.33,2,5.44,5.44,0,0,0,3.36-.6,4.32,4.32,0,0,0,2.16-2.31,12.18,12.18,0,0,0,.46-4.21c-2,.72-4.13,1-6.18,1.6Z"/><path id="Layer-24" data-name="Layer" class="cls-6" d="M166.12,142.29a2.5,2.5,0,0,1,2.69.46,4.93,4.93,0,0,1,.79,2.59,8.79,8.79,0,0,1,1.75-2.35,4,4,0,0,1,3-.88,6.12,6.12,0,0,1,3.43,1.3,2.33,2.33,0,0,1,.82,2.08,2.35,2.35,0,0,1-1.22,1.77,2.14,2.14,0,0,1-1.7,0,5.81,5.81,0,0,0-3-.45,2.67,2.67,0,0,0-1.8,1.44,10.17,10.17,0,0,0-.94,3.81c-.21,2.25-.12,4.52-.14,6.79a18,18,0,0,1-.11,2.84,2.62,2.62,0,0,1-1.45,1.94,2.51,2.51,0,0,1-2.7-.48,3.6,3.6,0,0,1-.84-2.57c0-3.72,0-7.44,0-11.16,0-1.56-.06-3.12.06-4.67a2.79,2.79,0,0,1,1.42-2.43Z"/><path id="Layer-25" data-name="Layer" class="cls-6" d="M179.69,145.12a2.56,2.56,0,0,1,1.83-2.94,2.14,2.14,0,0,1,2.21.61,8,8,0,0,1,1.21,2.7q2,6.25,4.09,12.51c1.36-4,2.66-8,4-12.06a15.05,15.05,0,0,1,1.21-3,2.12,2.12,0,0,1,3.06-.42,2.24,2.24,0,0,1,.82,2.41,32.63,32.63,0,0,1-1.28,4c-1.81,5-3.6,9.94-5.41,14.91-.4,1.1-.77,2.21-1.23,3.29a8.3,8.3,0,0,1-1.74,2.8,5.82,5.82,0,0,1-3.86,1.6,11.85,11.85,0,0,1-3.94-.32,1.92,1.92,0,0,1-1.31-1,2.16,2.16,0,0,1,.53-2.62,3,3,0,0,1,2.27-.18,2.59,2.59,0,0,0,2.76-.77,18,18,0,0,0,1.51-3.38c-1.9-5-3.77-10-5.66-15a27.92,27.92,0,0,1-1.09-3.11Z"/><path id="Layer-26" data-name="Layer" class="cls-6" d="M206.92,142.19a12.75,12.75,0,0,1,6.79,1,6.31,6.31,0,0,1,2.35,1.94,3,3,0,0,1,.41,2.93,2.32,2.32,0,0,1-3,.85,8.51,8.51,0,0,1-2-2.08,3.63,3.63,0,0,0-1.95-1.19,4.14,4.14,0,0,0-4,1,1.71,1.71,0,0,0,.11,2.12,4.92,4.92,0,0,0,2.16,1.15c2.28.72,4.7,1.07,6.81,2.25a5.72,5.72,0,0,1,2.85,3.17,6.76,6.76,0,0,1-.19,3.93,5.87,5.87,0,0,1-3.06,3.42,12,12,0,0,1-5.37,1.06,10.38,10.38,0,0,1-6.2-1.68,5.16,5.16,0,0,1-2.34-3.89,2.14,2.14,0,0,1,1.5-2.22,2.07,2.07,0,0,1,1.82.33,9.86,9.86,0,0,1,1.23,1.82,4.55,4.55,0,0,0,2.5,1.94,7.41,7.41,0,0,0,2.61.19,3.47,3.47,0,0,0,2.43-1.32,2.17,2.17,0,0,0,.12-2.07,2.51,2.51,0,0,0-1.36-1.24,38.84,38.84,0,0,0-4.63-1.45c-1.86-.6-3.82-1.33-5.06-2.93a5.41,5.41,0,0,1,.15-6.31,7.51,7.51,0,0,1,5.29-2.77Z"/></g></svg>