<svg id="Layer_1" data-name="Layer 1" xmlns="http://www.w3.org/2000/svg" viewBox="0 0 300 300"><path d="M184.45,131.59a4.35,4.35,0,0,0,5.7,2.31l37.57-15.84a4.35,4.35,0,1,0-3.4-8l-37.57,15.83a4.35,4.35,0,0,0-2.3,5.7" fill="#33c325" fill-rule="evenodd"/><path d="M168.41,115.55a4.36,4.36,0,0,0,5.71-2.31L190,75.69a4.36,4.36,0,1,0-8-3.41L166.1,109.83a4.36,4.36,0,0,0,2.31,5.72" fill="#33c325" fill-rule="evenodd"/><path d="M227.72,181.94,190.15,166.1a4.35,4.35,0,0,0-3.4,8l37.57,15.83a4.35,4.35,0,1,0,3.4-8" fill="#33c325" fill-rule="evenodd"/><path d="M174.12,186.76a4.36,4.36,0,1,0-8,3.41l15.82,37.55a4.36,4.36,0,1,0,8-3.41l-15.83-37.55" fill="#33c325" fill-rule="evenodd"/><path d="M72.28,118.06l37.57,15.84a4.35,4.35,0,0,0,3.4-8L75.67,110.06a4.34,4.34,0,1,0-3.39,8" fill="#33c325" fill-rule="evenodd"/><path d="M125.88,113.24a4.36,4.36,0,1,0,8-3.41L118.08,72.28a4.36,4.36,0,1,0-8,3.41l15.83,37.55" fill="#33c325" fill-rule="evenodd"/><path d="M115.55,168.41a4.36,4.36,0,0,0-5.7-2.31L72.28,181.94a4.34,4.34,0,1,0,3.39,8l37.58-15.83a4.36,4.36,0,0,0,2.3-5.7" fill="#33c325" fill-rule="evenodd"/><path d="M131.59,184.45a4.36,4.36,0,0,0-5.71,2.31l-15.83,37.55a4.36,4.36,0,1,0,8,3.41l15.82-37.55a4.36,4.36,0,0,0-2.31-5.72" fill="#33c325" fill-rule="evenodd"/><path d="M150,203.35a4.4,4.4,0,0,0-4.39,4.39v52.87a4.39,4.39,0,0,0,8.78,0V207.74a4.4,4.4,0,0,0-4.39-4.39" fill="#33c325" fill-rule="evenodd"/><path d="M150,160.06a5.77,5.77,0,0,0-5.76,5.76v17.55a5.76,5.76,0,0,0,11.52,0V165.82a5.77,5.77,0,0,0-5.76-5.76" fill="#33c325" fill-rule="evenodd"/><path d="M150,96.65a4.4,4.4,0,0,0,4.39-4.39V39.39a4.39,4.39,0,1,0-8.78,0V92.26A4.4,4.4,0,0,0,150,96.65" fill="#33c325" fill-rule="evenodd"/><path d="M150,110.87a5.77,5.77,0,0,0-5.76,5.76v17.55a5.76,5.76,0,0,0,11.52,0V116.63a5.77,5.77,0,0,0-5.76-5.76" fill="#33c325" fill-rule="evenodd"/><path d="M96.65,150a4.4,4.4,0,0,0-4.39-4.39H39.39a4.39,4.39,0,0,0,0,8.78H92.26A4.4,4.4,0,0,0,96.65,150" fill="#33c325" fill-rule="evenodd"/><path d="M134.18,144.24H116.63a5.76,5.76,0,0,0,0,11.52h17.55a5.76,5.76,0,0,0,0-11.52" fill="#33c325" fill-rule="evenodd"/><path d="M260.61,145.61H207.74a4.39,4.39,0,0,0,0,8.78h52.87a4.39,4.39,0,0,0,0-8.78" fill="#33c325" fill-rule="evenodd"/><path d="M174.6,155.76h8.77a5.76,5.76,0,0,0,0-11.52H165.82a5.76,5.76,0,0,0,0,11.52h8.78" fill="#33c325" fill-rule="evenodd"/></svg>