<?xml version="1.0" encoding="UTF-8"?>
<svg id="Layer_1" xmlns="http://www.w3.org/2000/svg" version="1.1" viewBox="0 0 300 300">
  <!-- Generator: Adobe Illustrator 29.1.0, SVG Export Plug-In . SVG Version: 2.1.0 Build 142)  -->
  <defs>
    <style>
      .st0 {
        fill: #8d8d97;
      }
    </style>
  </defs>
  <path class="st0" d="M84.3,219.4c17.8-2.2,35.5-5.6,52.9-10.2,16.9-4,33.1-10.4,48.1-19.1,5.2-3.1,9.9-7,13.9-11.4,9.6-10.1,10.7-25.6,2.8-37-6.9-10.3-16-18.9-26.7-25.1-.6-.3-1.2-.8-1.6-1.4l4.6,2c1.6.7,3.2,1.3,4.7,2,13.7,5.8,26.5,13.5,38.1,22.8,3.4,2.9,6.6,6.2,9.2,9.7,6.5,8.8,5.8,17.9.8,26.9-5.1,8.8-12.7,15.9-21.7,20.5-14,7.3-29.1,12.3-44.8,14.8-15.4,2.9-31,4.6-46.6,5.3-10.2.5-20.3.3-30.5.5-.7,0-1.8-.1-3.3-.3Z"/>
  <path class="st0" d="M169.6,80.4c-7.2,1.9-14.3,3.6-21.2,5.6-16,4.7-31.8,9.9-45.9,19.1-5.1,3.1-9.4,7.4-12.3,12.6-3.1,5.4-2.2,12.1,2.3,16.4,4.9,4.9,10.9,8.6,17.5,10.8,12.4,4.6,25.4,7.8,38.5,9.5l5.2.8c-6.4.7-12.9.9-19.4.5-7.7-.2-15.5-.8-23.1-1.9-9.5-1-18.8-3.7-27.4-7.8-6.2-2.6-10.8-7.9-12.7-14.3-1.7-7.2.6-14.8,6-19.9,6.5-6.3,14.3-11.2,22.8-14.3,18.2-7.2,37.1-12.2,56.5-15,4.4-.8,8.9-1.4,13.3-2.1Z"/>
  <path class="st0" d="M157.1,177.1c-7.5,4.1-15.6,7.1-24,8.8-12.1,2.6-24.3,4.2-36.6,4.8-6.5.4-12.9.7-19.4.6-4.1.3-8.2,0-12.2-.5,6.8,0,13.4-.9,20-1.6,6.6-.8,13.7-1.8,20.4-3.2,6.7-1.2,13.3-2.9,19.8-5.1,6.6-2.1,12.8-5.1,18.6-9l13.4,5.1Z"/>
</svg>