<svg id="Layer_1" data-name="Layer 1" xmlns="http://www.w3.org/2000/svg" viewBox="0 0 300 300"><defs><style>.cls-1{fill:#74dd48;}.cls-2{fill:#058348;}.cls-3{fill:#002d05;}</style></defs><path class="cls-1" d="M146.27,39.28H62.59A11,11,0,0,0,51.65,50.22V190a11.24,11.24,0,0,0,16.91,9.7l81.32-47V43A3.57,3.57,0,0,0,146.27,39.28Z"/><path class="cls-2" d="M237,102.57,150,152.8v93.87a11.25,11.25,0,0,0,16.91,9.7l67.88-39.17a27.26,27.26,0,0,0,13.56-23.5V109A7.57,7.57,0,0,0,237,102.57Z"/><path class="cls-3" d="M150,246.67V152.8l-81.31,47a11.28,11.28,0,0,1-16.54-6.71,28,28,0,0,0,13.68,19.65l74.35,42.89a27.79,27.79,0,0,0,24.24,1.86A11.19,11.19,0,0,1,150,246.67Z"/></svg>