<?xml version="1.0" encoding="UTF-8"?>
<svg id="Layer_1" data-name="Layer 1" xmlns="http://www.w3.org/2000/svg" version="1.1" viewBox="0 0 300 300">
  <defs>
    <style>
      .cls-1 {
        fill: #000;
        stroke-width: 0px;
      }
    </style>
  </defs>
  <path class="cls-1" d="M247.7,82.2c1.7,8.7-1.1,19.7-10.3,27s-20.5,8.2-28.3,6.4c21,30.7,19.5,71.7-5.9,101.3-30.3,35.3-83.4,39.3-118.6,9.1h0c-4.1-3.5-10.1-3-13.5,1s-3,10.1,1,13.5h0c49.9,42.9,125.2,37.1,168.1-12.8,36.6-42.7,39-101.7,7.5-145.4h0Z"/>
  <path class="cls-1" d="M231.4,97.3c11.3-12.5,6.2-28.9-4.1-37.7-49.9-42.9-125.2-37.1-168.1,12.8-38.9,45.3-37.8,111.5,0,155.3.2-2.9,2.1-7.3,4.1-9.4,2.9-3,5.9-4.2,9.8-4.3-24.4-30.9-24.3-75.8,2.3-106.8,30.3-35.3,83.4-39.3,118.6-9.1,0,0,20.7,16,37.3-.9h0Z"/>
</svg>