<svg id="Layer_1" data-name="Layer 1" xmlns="http://www.w3.org/2000/svg" viewBox="0 0 300 300"><polygon points="115.911 43.552 10 150 115.397 256.448 149.649 222.71 80.607 152.36 43.481 150.514 133.317 62.22 115.911 43.552" fill="#3f61aa"/><polygon points="150 80.093 80.607 152.36 43.481 150.514 133.318 62.22 150 80.093" fill="#39b2e2"/><polygon points="184.089 256.448 290 150 184.603 43.552 150.351 77.29 219.393 147.64 256.519 149.486 166.683 237.78 184.089 256.448" fill="#39b2e2"/><polygon points="150 219.907 219.393 147.64 256.519 149.486 166.682 237.78 150 219.907" fill="#fff"/><polyline points="149.999 80.094 133.317 62.22 115.911 43.552" fill="none"/><polyline points="119.232 150.91 151.385 118.758 183.537 150.91" fill="#39b2e2"/><polyline points="119.232 150.91 151.385 183.063 183.537 150.91" fill="#3f61aa"/></svg>