<svg id="Layer_1" data-name="Layer 1" xmlns="http://www.w3.org/2000/svg" viewBox="0 0 300 300"><path d="M199.82,64.81a18.86,18.86,0,0,1,6.32-.58c14.78.07,29.64-.07,44.42.07a9.88,9.88,0,0,1,9.4,9.62c.22,5.1-4,10-9.26,10H202.55a9.7,9.7,0,0,1-9.26-8.54,9.86,9.86,0,0,1,6.53-10.62Z" fill="#009ff5"/><path d="M126,102.12c15-.14,30,0,45-.07,3.45-.07,7.18.5,9.48,3.16,4,4.16,3.37,11.62-1.37,14.85-2.94,2.3-6.74,1.94-10.26,1.94h-41c-2.87.07-6-.43-8.18-2.58a10,10,0,0,1-.93-13.71A9.78,9.78,0,0,1,126,102.12Z" fill="#009ff5"/><path d="M202.77,102.12c15-.14,30,0,45-.07,3.09-.07,6.46.36,8.83,2.51a10,10,0,0,1,.43,14.57c-2.15,2.37-5.46,3-8.54,2.87-15.07,0-30.21.07-45.28,0a9.95,9.95,0,0,1-.43-19.88Z" fill="#009ff5"/><path d="M123.9,140.37a19.05,19.05,0,0,1,4-.28c15.28.07,30.57,0,45.92.07,5.1,0,9.41,4.81,9.33,9.83a9.88,9.88,0,0,1-10,9.83c-15.58.07-31.15,0-46.72,0a9.87,9.87,0,0,1-2.51-19.45Z" fill="#009ff5"/><path d="M202.05,140.16c15.93-.15,31.93,0,47.94,0a9.68,9.68,0,0,1,10,9.11c.5,5.24-3.95,10.48-9.33,10.55-15.57.07-31.14,0-46.72.07a10,10,0,0,1-9.33-15,9.62,9.62,0,0,1,7.47-4.73Z" fill="#009ff5"/><path d="M124.54,178.12a26.68,26.68,0,0,1,4.09-.14c14.86,0,29.71-.07,44.57,0a9.79,9.79,0,0,1,9.83,8.61c.86,5.45-3.59,11.12-9.19,11.12H126.48a9.58,9.58,0,0,1-9.54-6.67c-2-5.46,1.72-12.06,7.6-12.92Z" fill="#009ff5"/><path d="M200,216.37a17.29,17.29,0,0,1,5.45-.57c14.78.07,29.64,0,44.49.07a9.9,9.9,0,0,1,10,11c-.36,5-5,8.9-10,8.83-15.28.07-30.64,0-45.93,0-4.3.21-8.75-2.37-10.12-6.6A10,10,0,0,1,200,216.37Z" fill="#009ff5"/><path id="Layer" d="M47.83,140.3c16.14-.43,32.36-.07,48.58-.21a9.74,9.74,0,0,1,10.19,8.46c1,5.6-3.73,11.42-9.47,11.27q-23.76.08-47.51,0a9.77,9.77,0,0,1-9.47-8.47A9.67,9.67,0,0,1,47.83,140.3Z" fill="#1867d1"/><path id="Layer-2" data-name="Layer" d="M200.68,178.26a19.15,19.15,0,0,1,4-.28H250a9.78,9.78,0,0,1,8.39,4.52,9.93,9.93,0,0,1-2.22,13.2,9.76,9.76,0,0,1-6.32,2H203.27a9.66,9.66,0,0,1-9.33-6.1,10,10,0,0,1,6.74-13.35Z" fill="#ff9100"/></svg>