<svg id="Layer_1" data-name="Layer 1" xmlns="http://www.w3.org/2000/svg" viewBox="0 0 300 300"><path d="M154.1149,272.77777a10.63969,10.63969,0,0,1-10.78133-10.92507,10.94127,10.94127,0,0,1,11.00685-10.79828,10.86226,10.86226,0,0,1-.22552,21.72335Z" fill="#315b82"/><path d="M274.99967,142.88274a10.91829,10.91829,0,0,1-10.96768,10.825,11.07039,11.07039,0,0,1-10.80031-11.08523,11.19768,11.19768,0,0,1,11.06359-10.86086A10.98565,10.98565,0,0,1,274.99967,142.88274Z" fill="#315b82"/><path d="M240.42458,201.14026a10.88021,10.88021,0,1,1,21.75708-.3642,10.88076,10.88076,0,1,1-21.75708.3642Z" fill="#315b82"/><path d="M60.24113,206.415c.35148,6.44237-5.74233,10.94162-10.89155,10.79274A11.11679,11.11679,0,0,1,38.5018,206.1933a11.2425,11.2425,0,0,1,11.0805-10.81049C56.09814,195.57766,60.70953,201.08137,60.24113,206.415Z" fill="#51af47"/><path d="M215.06225,46.69916a10.87813,10.87813,0,0,1-21.75585-.11831,10.87818,10.87818,0,1,1,21.75585.11831Z" fill="#315b82"/><path d="M95.76046,62.45847c-5.17882.48357-10.943-4.10918-10.90892-10.731a10.88685,10.88685,0,1,1,21.77288-.07736C106.7608,56.85094,102.13122,62.8712,95.76046,62.45847Z" fill="#51af47"/><path d="M257.34639,86.42A11.044,11.044,0,0,1,246.49547,97.4071,11.17849,11.17849,0,0,1,235.574,86.43743,11.00144,11.00144,0,0,1,246.48121,75.569C252.34817,75.54066,257.68973,80.72557,257.34639,86.42Z" fill="#315b82"/><path d="M35.84811,159.58394c-6.09141.419-10.961-5.19153-10.84612-10.803a11.05948,11.05948,0,0,1,10.9041-10.93563c6.72188.02984,11.00553,6.35758,10.91772,10.9946C46.73278,153.64728,42.58341,159.98708,35.84811,159.58394Z" fill="#51af47"/><path d="M52.75465,103.13877a10.96565,10.96565,0,0,1-10.84247-10.952,10.87483,10.87483,0,0,1,21.74931.04145A10.99677,10.99677,0,0,1,52.75465,103.13877Z" fill="#51af47"/><path d="M142.45141,38.14551c-.456-5.24448,4.03025-10.95757,10.77493-10.92345a10.76429,10.76429,0,0,1,10.889,10.95821A10.88077,10.88077,0,0,1,153.34972,48.98C148.47837,49.17224,142.11229,44.95568,142.45141,38.14551Z" fill="#51af47"/><path d="M210.34375,254.52205a10.88554,10.88554,0,0,1-.03678-21.76912,11.093,11.093,0,0,1,11.04549,10.8972A10.97554,10.97554,0,0,1,210.34375,254.52205Z" fill="#315b82"/><path d="M90.08982,260.12627a10.87721,10.87721,0,1,1-.02812-21.75434,11.1852,11.1852,0,0,1,10.89111,11.06278C101.08068,254.65428,95.635,260.48613,90.08982,260.12627Z" fill="#51af47"/><path d="M131.58337,255.97862c-4.60238.36816-9.29579-3.75269-9.359-9.34224a9.40576,9.40576,0,1,1,18.81038.07A9.23662,9.23662,0,0,1,131.58337,255.97862Z" fill="#315b82"/><path d="M259.48654,166.41289a9.288,9.288,0,0,1-9.54784,9.18432,9.64088,9.64088,0,0,1-9.18014-9.67781,9.51481,9.51481,0,0,1,9.67032-9.13983A9.24123,9.24123,0,0,1,259.48654,166.41289Z" fill="#315b82"/><path d="M78.49586,93.25505a9.40624,9.40624,0,0,1,.238-18.80819c4.9506-.01561,9.52061,4.41074,9.42011,9.36347C88.04882,88.99257,83.76463,93.48938,78.49586,93.25505Z" fill="#51af47"/><path d="M183.064,252.48492a9.23417,9.23417,0,0,1-9.34071-9.36584,9.402,9.402,0,1,1,18.80322.16631A9.22008,9.22008,0,0,1,183.064,252.48492Z" fill="#315b82"/><path d="M182.70251,56.4165c.22254,5.17893-4.25954,9.29574-9.27215,9.36175a9.70266,9.70266,0,0,1-9.51876-9.29065,9.71342,9.71342,0,0,1,9.26253-9.51431A9.21465,9.21465,0,0,1,182.70251,56.4165Z" fill="#51af47"/><path d="M91.03676,223.3919a9.4113,9.4113,0,1,1-9.24381-9.48277A9.42483,9.42483,0,0,1,91.03676,223.3919Z" fill="#51af47"/><path d="M54.09554,119.34031a9.20519,9.20519,0,0,1,9.47286,9.22629,9.74442,9.74442,0,0,1-9.36478,9.53955,9.73222,9.73222,0,0,1-9.45291-9.43983A9.18137,9.18137,0,0,1,54.09554,119.34031Z" fill="#51af47"/><path d="M226.38437,70.696a9.21337,9.21337,0,0,1-9.37479,9.30679,9.37285,9.37285,0,1,1,.08454-18.745C223.21263,61.48,226.63388,66.29745,226.38437,70.696Z" fill="#315b82"/><path d="M227.25067,204.5076c4.98042-.14053,9.08914,3.49582,9.41641,9.31049.26949,4.78792-4.63845,9.5908-9.45943,9.40058a9.70529,9.70529,0,0,1-9.40247-9.4556C217.78114,208.89048,222.27858,204.19245,227.25067,204.5076Z" fill="#315b82"/><path d="M113.0199,57.48487a9.40417,9.40417,0,1,1,18.80688-.19765,9.40437,9.40437,0,0,1-18.80688.19765Z" fill="#51af47"/><path d="M45.9981,179.51272c-.4117-5.30243,4.33753-9.27726,9.30372-9.29515a9.40379,9.40379,0,1,1-9.30372,9.29515Z" fill="#51af47"/><path d="M246.03493,122.97608c-4.12161.4313-9.33991-3.32118-9.42183-9.28891a9.60668,9.60668,0,0,1,9.3429-9.51128c5.0023-.06093,9.20666,4.31447,9.35826,9.45117C255.46279,118.66,250.85833,123.37978,246.03493,122.97608Z" fill="#315b82"/><path d="M153.90511,233.7385a7.68636,7.68636,0,0,1,7.53147-7.98852,8.154,8.154,0,0,1,8.28924,7.73765,8.329,8.329,0,0,1-7.65749,8.07222A7.99235,7.99235,0,0,1,153.90511,233.7385Z" fill="#315b82"/><path d="M139.0937,63.352c5.79016-.51849,9.6032,1.834,10.29342,6.43964a8.2058,8.2058,0,0,1-7.90687,9.19464c-4.9806-1.18016-7.47471-3.35569-7.82721-7.18327C133.26948,67.63806,135.53335,65.02934,139.0937,63.352Z" fill="#51af47"/><path d="M236.46745,127.21724a8.03189,8.03189,0,0,1,7.7863,7.90036,8.13347,8.13347,0,0,1-8.21979,7.91174,8.04424,8.04424,0,0,1-7.51621-8.17683A7.71126,7.71126,0,0,1,236.46745,127.21724Z" fill="#315b82"/><path d="M76.77867,160.52734c-1.27606,5.417-4.4834,8.325-8.6831,7.8729a7.94679,7.94679,0,0,1-.26047-15.78661C72.28021,152.06253,75.4514,154.86857,76.77867,160.52734Z" fill="#51af47"/><path d="M83.87036,192.024a7.928,7.928,0,0,1,.03392,15.85454,7.92786,7.92786,0,1,1-.03392-15.85454Z" fill="#51af47"/><path d="M102.23816,78.08057a8.33226,8.33226,0,0,1,7.78833,8.01377,7.939,7.939,0,1,1-15.87474-.30568A8.30466,8.30466,0,0,1,102.23816,78.08057Z" fill="#51af47"/><path d="M118.83363,219.23a7.84177,7.84177,0,0,1,8.02155,7.57052,7.91766,7.91766,0,0,1-15.83444.16415A7.709,7.709,0,0,1,118.83363,219.23Z" fill="#315b82"/><path d="M226.98767,94.36533a7.87876,7.87876,0,1,1-7.46884-8.0831A7.75823,7.75823,0,0,1,226.98767,94.36533Z" fill="#315b82"/><path d="M223.15223,180.21748c.62637-6.0879,5.04521-8.54151,8.98657-8.06992a7.82584,7.82584,0,0,1,.30164,15.49336C227.6573,188.2904,224.61563,185.86948,223.15223,180.21748Z" fill="#315b82"/><path d="M75.23611,110.972a7.84011,7.84011,0,0,1,8.08086,7.55694,7.97812,7.97812,0,0,1-7.53379,8.2124c-4.12433.42423-8.346-3.59376-8.29807-7.83576A7.905,7.905,0,0,1,75.23611,110.972Z" fill="#51af47"/><path d="M183.01078,69.681a8.26938,8.26938,0,0,1,8.03316,8.82964,8.11171,8.11171,0,0,1-7.92142,7.04439,8.20333,8.20333,0,0,1-7.89326-7.10261C174.69636,74.37277,177.63881,71.056,183.01078,69.681Z" fill="#51af47"/><path d="M211.6166,215.85589a7.56832,7.56832,0,0,1-7.743,7.723,7.70166,7.70166,0,0,1-7.81915-7.69989,7.78139,7.78139,0,1,1,15.56211-.02309Z" fill="#315b82"/><path d="M218.538,114.63766a6.30353,6.30353,0,1,1-6.21441-6.32229A6.44518,6.44518,0,0,1,218.538,114.63766Z" fill="#315b82"/><path d="M114.66254,96.44038c1.36446-4.64586,3.96566-6.78577,7.32431-6.17086a6.39785,6.39785,0,0,1,5.60264,6.23066,6.93334,6.93334,0,0,1-5.837,6.48107C118.497,103.37393,115.833,100.962,114.66254,96.44038Z" fill="#51af47"/><path d="M115.43229,199.0457a6.41677,6.41677,0,0,1-.04555,12.83343c-3.24164.09012-6.438-3.24423-6.3681-6.64309A6.58734,6.58734,0,0,1,115.43229,199.0457Z" fill="#315b82"/><path d="M146.33618,89.52374a6.95491,6.95491,0,0,1,6.37648-6.41552c4.43141,1.11936,6.795,3.63114,6.54571,6.956a7.00728,7.00728,0,0,1-6.02429,5.96525C149.97023,96.33041,147.47385,93.976,146.33618,89.52374Z" fill="#51af47"/><path d="M203.38058,184.50126c1.33562-4.588,3.9465-6.78221,7.26857-6.23475a6.84194,6.84194,0,0,1,5.68036,6.23767,6.95651,6.95651,0,0,1-5.81456,6.48724C207.256,191.41646,204.61967,189.06925,203.38058,184.50126Z" fill="#315b82"/><path d="M220.27856,156.0112a6.42712,6.42712,0,0,1-6.4529-6.43062,6.50378,6.50378,0,0,1,6.36172-6.18936,6.58906,6.58906,0,0,1,6.48228,6.45747A6.40773,6.40773,0,0,1,220.27856,156.0112Z" fill="#315b82"/><path d="M176.988,208.69021a5.98874,5.98874,0,0,1,6.14965-6.18979,6.30165,6.30165,0,1,1-.22588,12.59249A5.97439,5.97439,0,0,1,176.988,208.69021Z" fill="#315b82"/><path d="M153.54685,217.53c-1.20206,4.66923-3.69333,6.77464-7.36166,6.22146a6.72261,6.72261,0,0,1-5.54319-6.29968,6.87521,6.87521,0,0,1,5.94007-6.34847C149.89545,210.77719,152.437,213.1224,153.54685,217.53Z" fill="#315b82"/><path d="M97.05631,186.66453c-5.24833.78768-7.66163-.38639-8.79559-4.17546a6.11556,6.11556,0,0,1,3.54244-7.43211,6.223,6.223,0,0,1,7.88832,2.496C101.67724,180.8517,100.98777,183.34659,97.05631,186.66453Z" fill="#51af47"/><path d="M183.661,92.95388a7.40577,7.40577,0,0,1,5.65074,3.55475c1.1025,4.98885-.37659,8.158-4.2888,9.18917a6.33867,6.33867,0,0,1-7.48169-4.67034C176.48091,97.19989,178.65516,94.312,183.661,92.95388Z" fill="#51af47"/><path d="M80.85685,149.35761c1.21733-4.553,3.82333-6.93376,7.05947-6.57248,2.91285.3252,5.84505,3.21784,5.85831,6.05594a6.57532,6.57532,0,0,1-5.54571,6.6619C84.95881,156.06627,82.21,153.79684,80.85685,149.35761Z" fill="#51af47"/><path d="M90.73622,118.34594c.53164-3.73476,2.63073-5.8707,6.33211-6.42126a6.60159,6.60159,0,0,1,6.54453,6.789c.00074,2.7975-2.916,5.68487-5.91278,5.99428A6.848,6.848,0,0,1,90.73622,118.34594Z" fill="#51af47"/></svg>