<svg id="Layer_1" data-name="Layer 1" xmlns="http://www.w3.org/2000/svg" viewBox="0 0 300 300"><defs><style>.cls-1{fill:#4c4c4b;}</style></defs><title>LPCN</title><path class="cls-1" d="M193.58,129.2h5.6q11.65,17.25,23.37,34.62l.26-.08V129.23h4.11v42h-4.16l-24.83-36.71-.24.06v36.64h-4.11Z"/><path class="cls-1" d="M117.84,172c-9.31.05-18.22-6.6-20.91-16a21.67,21.67,0,0,1,10.7-24.8c8.17-4.19,16.17-3.71,23.74,1.43a20.45,20.45,0,0,1,9.09,14.73,21.8,21.8,0,0,1-13.85,23.1A23.1,23.1,0,0,1,117.84,172ZM100.3,150.33c-.1,9.51,8.13,17.62,18,17.7a18,18,0,0,0,18.14-17.28c.37-10.1-8.08-18.15-17.72-18.31A18,18,0,0,0,100.3,150.33Z"/><path class="cls-1" d="M183.12,139.89h-4.56a17.78,17.78,0,0,0-16-7.39,16.82,16.82,0,0,0-12,6.12c-6.74,7.74-5.55,18.19,1.43,24.62,7.82,7.2,19.65,6.33,26.74-2.88h4.49a19.13,19.13,0,0,1-4.85,6.16,21.8,21.8,0,1,1-2.84-34.73A19.56,19.56,0,0,1,183.12,139.89Z"/><path class="cls-1" d="M71.21,133V171.2H67.15V129.25a4.68,4.68,0,0,1,.71-.08c4.71,0,9.42,0,14.13.14a13.58,13.58,0,0,1,9.17,3.49,11.36,11.36,0,0,1,3.56,6.86,12.12,12.12,0,0,1-2.55,9.93,12.42,12.42,0,0,1-7.66,4.26c-.73.13-1.48.2-2.18.29l-3.55-3.64h.91a14.81,14.81,0,0,0,6.53-1.29,8.41,8.41,0,0,0,4.42-8.9,8.6,8.6,0,0,0-7.56-7.18,18.88,18.88,0,0,0-3-.25c-2.65,0-5.3,0-8,0C71.87,132.9,71.62,132.92,71.21,133Z"/><path class="cls-1" d="M34.5,129.23h4.13V167.5H56.05v3.69H34.5Z"/><path class="cls-1" d="M63,171.21H59v-42h4Z"/><path class="cls-1" d="M185.53,129.23h3.92v42h-3.92Z"/><path class="cls-1" d="M256.82,129.26v3.56H230.87v-3.56Z"/><path class="cls-1" d="M230.85,171.19V167.6h25.94v3.59Z"/><path class="cls-1" d="M251.4,148.25v3.59H230.87v-3.59Z"/><path class="cls-1" d="M262.38,128a3.08,3.08,0,0,1,3.12,3.11,3.14,3.14,0,0,1-3.14,3.05,3.08,3.08,0,1,1,0-6.16Zm2.4,3.1a2.44,2.44,0,1,0-4.88-.05,2.52,2.52,0,0,0,2.46,2.54A2.48,2.48,0,0,0,264.78,131.09Z"/><path class="cls-1" d="M263.79,132.67l-.71-.1c-.21-.59-.22-1.35-1.21-1.1l-.12,1.15-.49,0v-3c.8,0,1.63-.35,2.2.34.2.25,0,.81,0,1.22h-.19Zm-1.9-1.59,1.09-.39c-.19-.75-.55-.82-1.09-.58Z"/></svg>