<svg id="Layer_1" data-name="Layer 1" xmlns="http://www.w3.org/2000/svg" viewBox="0 0 300 300"><path d="M54.58505,205.15924a111.389,111.389,0,0,0,88.43878,54.86357V234.13508L73.77088,194.12082V114.09227L51.29981,101.14842A111.43474,111.43474,0,0,0,54.58505,205.15924Z" fill="#12366c"/><path d="M156.95326,260.02284a110.18706,110.18706,0,0,0,91.724-158.94012L226.2719,114.02658v80.02854L156.95326,234.2008Z" fill="#6a9dc8"/><path d="M149.98854,39.97716a111.31785,111.31785,0,0,0-91.724,49.14726l22.40537,12.94386L149.98854,62.054l69.31866,40.01428,22.40537-12.94386A111.22924,111.22924,0,0,0,149.98854,39.97716Z" fill="#c8061e"/><path d="M111.48548,135.9063l-23.85087-13.798v63.99656l55.45492,31.99828V190.44136a41.09822,41.09822,0,0,1-34.10083-40.4085A38.36063,38.36063,0,0,1,111.48548,135.9063Z" fill="#12366c"/><path d="M149.98854,109.033a40.90461,40.90461,0,0,1,31.60405,14.84931l23.85088-13.798L149.98854,78.086,94.53362,110.08428l23.85088,13.798A40.90461,40.90461,0,0,1,149.98854,109.033Z" fill="#c8061e"/><path d="M156.95326,218.16882l55.45491-31.99829V122.10827l-23.85088,13.798a40.44816,40.44816,0,0,1,2.56249,14.19225,41.1077,41.1077,0,0,1-34.10084,40.4085v27.66177Z" fill="#6a9dc8"/></svg>