<svg id="Layer_1" data-name="Layer 1" xmlns="http://www.w3.org/2000/svg" viewBox="0 0 300 300"><path d="M250,66.64139c-4.281,7.7281-8.44706,15.52262-12.86819,23.16967a193.06085,193.06085,0,0,1-27.16388,38.282,49.59963,49.59963,0,0,1-37.2475,16.34583c-9.5992-.02694-19.21071-.39-28.81734.39124a60.34842,60.34842,0,0,0-30.77391,11.8547,20.10252,20.10252,0,0,0,5.15051,2.97806,310.60908,310.60908,0,0,1,29.94082,17.84169c13.57063,9.19162,17.63993,21.7709,15.10912,37.26134a111.85248,111.85248,0,0,1-6.12987,22.81564c-.26076.6664-.34436,1.44958-1.26549,1.93407-2.25454-15.35813-12.74137-23.57155-25.41528-29.8903-7.63989-3.809-15.88205-6.27077-23.4-10.34284a43.11583,43.11583,0,0,1-17.46059-14.62869,7.70736,7.70736,0,0,1-1.284-6.28125c8.81731-36.44393,27.79457-66.01395,59.065-87.17247a151.62726,151.62726,0,0,1,64.86952-23.93659,200.16944,200.16944,0,0,1,37.69089-1.26337Z" fill="#7905e2"/><path d="M96.971,146.274c-6.58658-14.172-18.55229-22.31062-29.45592-31.46676-2.692-2.26058-5.27019-4.65814-7.98947-6.88458a26.35706,26.35706,0,0,1-9.40823-22.765,70.49529,70.49529,0,0,1,5.74582-24.67328C58.997,75.17371,69.9984,82.74089,79.67806,91.35983c3.02507,2.69362,6.03114,5.41308,9.14382,8.00308,10.22579,8.50852,12.6938,19.78332,11.469,32.29889A53.83572,53.83572,0,0,1,96.971,146.274Z" fill="#de107c"/><path d="M148.18817,177.50461a310.61168,310.61168,0,0,0-29.94091-17.84169,20.10264,20.10264,0,0,1-5.15056-2.97806c-9.9426,5.3908-19.3895,16.5707-24.94177,23.98023a8.93069,8.93069,0,0,0,1.47131,3.98865,43.1155,43.1155,0,0,0,17.46059,14.62869c7.51786,4.07211,15.76,6.5338,23.4,10.34288,12.67391,6.31876,23.16074,14.53213,25.41527,29.8903.92113-.48449,1.00469-1.26766,1.2655-1.93407a111.849,111.849,0,0,0,6.12991-22.81568C165.82823,199.2756,161.7588,186.69646,148.18817,177.50461Z" fill="#4e00a2"/></svg>