<svg id="Layer_1" data-name="Layer 1" xmlns="http://www.w3.org/2000/svg" viewBox="0 0 300 300"><rect x="11.70814" y="95.24757" width="276.58355" height="109.50487" rx="21.44427" fill="#1559a8"/><path d="M266.84742,96.95587a19.794,19.794,0,0,1,19.736,19.736v66.61634a19.794,19.794,0,0,1-19.736,19.736H33.15258a19.794,19.794,0,0,1-19.736-19.736V116.69183a19.794,19.794,0,0,1,19.736-19.736H266.84742m0-3.41661H33.15258A23.17883,23.17883,0,0,0,10,116.69183v66.61634a23.17883,23.17883,0,0,0,23.15258,23.15257H266.84742A23.17883,23.17883,0,0,0,290,183.30817V116.69183a23.17883,23.17883,0,0,0-23.15258-23.15257Z" fill="#fff"/><path d="M227.50668,158.68492h33.51049v7.42666H215.5848V119.10115h44.21226v7.36852H227.49875v12.08058h30.9556v7.18147H227.50668Z" fill="#fff"/><path d="M102.61229,166.11l18.91578-23.78024-18.022-23.22833h13.70962l12.74278,18.58669,12.69033-18.60116h13.83709c-6.16636,7.7844-12.27307,15.49352-18.41138,23.24253l19.08689,23.75795H143.13767l-13.24116-18.51086c-4.43523,6.19963-8.84083,12.35786-13.25885,18.53342Z" fill="#fff"/><path d="M189.47321,166.10255h-10.259V126.6247h-18.1464v-7.53377h46.4955v7.4866H189.47321Z" fill="#fff"/><path d="M46.5541,158.60458H77.09681v7.48916H34.67949V119.10107H46.5541Z" fill="#fff"/><path d="M97.48642,166.11587H85.64024v-47.019H97.48642Z" fill="#fff"/><path d="M40.815,180.228c.20965.09479.36837.16247.52359.23736a2.26054,2.26054,0,0,1,.83008,3.44259,2.4289,2.4289,0,0,1-2.00784,1.07868c-1.53137.02167-3.06327.00615-4.62074.00615v-8.84957c.08933-.007.17857-.0199.26782-.02,1.185-.00111,2.37006-.01007,3.55482.00568a4.50625,4.50625,0,0,1,1.06667.12929,2.233,2.233,0,0,1,1.64387,2.60953,1.605,1.605,0,0,1-.75683,1.07678C41.17181,180.03678,41.01759,180.11418,40.815,180.228Zm-3.7216.73533v2.72073c.91538,0,1.8067.00138,2.698-.00238a.97343.97343,0,0,0,.23713-.0527,1.24585,1.24585,0,0,0,1.00409-1.31484,1.22565,1.22565,0,0,0-1.01617-1.26656,2.15473,2.15473,0,0,0-.48-.06848c-.67279-.0114-1.34576-.01166-2.01867-.01565C37.38177,180.96264,37.24578,180.96333,37.09342,180.96333Zm-.024-1.32341c.84368,0,1.65259.00349,2.4614-.004a1.03385,1.03385,0,0,0,.33447-.08833.98441.98441,0,0,0,.68194-.94957,1.056,1.056,0,0,0-1.07637-1.15409c-.4859-.0328-.97509-.01819-1.46284-.02233-.29906-.00253-.59817-.00047-.911-.00047-.01169.11462-.02632.19252-.02654.27046C37.06866,178.33645,37.06946,178.98136,37.06946,179.63992Z" fill="#ffbc00"/><path d="M162.47536,185.00063h-1.52527V180.934h-4.07953v4.05953h-1.54265v-8.84284h1.53391V179.595h4.06741v-3.45031h1.54613Z" fill="#ffbc00"/><path d="M135.1669,184.31838c-.167.14463-.27663.24286-.38968.337a2.25086,2.25086,0,0,1-3.5336-.72415,4.01808,4.01808,0,0,1-.04412-3.55707,2.3158,2.3158,0,0,1,3.58489-.82321c.1078.08474.21176.17431.361.29752l.03838-.5812H136.594c.00582.11635.01524.21742.01526.31849q.00084,2.74227-.00083,5.48454c-.00008.15036-.00637.30073-.01022.45108a2.01371,2.01371,0,0,1-1.47968,1.97017,3.70867,3.70867,0,0,1-3.00833-.14361,1.81091,1.81091,0,0,1-.98482-1.48349h1.43431c.014.01414.041.02821.04461.04678.11786.6084.4908.86887,1.31521.83273a1.14453,1.14453,0,0,0,1.19883-.99364,8.29876,8.29876,0,0,0,.04791-1.00336C135.17052,184.62559,135.1669,184.50391,135.1669,184.31838Zm-.00358-2.11353a3.02576,3.02576,0,0,0-.2881-1.41256,1.18,1.18,0,0,0-.99283-.71572,1.21485,1.21485,0,0,0-1.169.60978,3.014,3.014,0,0,0,.031,2.91268,1.2162,1.2162,0,0,0,2.155-.11944A2.51439,2.51439,0,0,0,135.16332,182.20485Z" fill="#ffbc00"/><path d="M207.18764,185.86181h1.45425c.0241.07565.04809.15059.07184.2256a.799.799,0,0,0,.65489.59988,2.75246,2.75246,0,0,0,.72462.04372,1.13121,1.13121,0,0,0,1.109-1.12691c.0301-.40151.00555-.80708.00555-1.26254-.11627.098-.21115.17129-.29854.25256a2.29077,2.29077,0,0,1-3.67841-.79273,4.23336,4.23336,0,0,1-.02645-3.31112,2.32443,2.32443,0,0,1,3.70209-.88932c.08756.07178.17435.14448.3029.25109l.03166-.60425h1.407c.008.11458.02106.2139.0211.31322q.00109,2.79433-.00318,5.58866a4.84091,4.84091,0,0,1-.06151.82941,1.74122,1.74122,0,0,1-.87711,1.23844,3.63258,3.63258,0,0,1-3.62363.08659A1.73672,1.73672,0,0,1,207.18764,185.86181Zm4.03594-3.65553a3.03141,3.03141,0,0,0-.28756-1.4127,1.18048,1.18048,0,0,0-.992-.71692,1.21482,1.21482,0,0,0-1.16973.60844,3.01422,3.01422,0,0,0,.02952,2.91275,1.21625,1.21625,0,0,0,2.15507-.117A2.51239,2.51239,0,0,0,211.22358,182.20628Z" fill="#ffbc00"/><path d="M187.84077,185.00275h-1.2782v-.82339c-.17891.179-.29482.302-.41815.4172a2.18121,2.18121,0,0,1-3.51506-.6113,3.91751,3.91751,0,0,1-.10664-3.51492,2.19637,2.19637,0,0,1,2.14889-1.42665,2.10128,2.10128,0,0,1,1.35375.56034c.11261.09657.22116.19784.38044.34083v-3.795h1.435Zm-1.36071-2.86863a2.83546,2.83546,0,0,0-.30545-1.37071,1.19276,1.19276,0,0,0-1.082-.69045,1.1309,1.1309,0,0,0-1.08982.671,3.05186,3.05186,0,0,0-.00389,2.769,1.14283,1.14283,0,0,0,1.05437.67452,1.18173,1.18173,0,0,0,1.10276-.65481A2.64965,2.64965,0,0,0,186.48006,182.13412Z" fill="#ffbc00"/><path d="M91.6242,184.99679H90.22063v-.3862c0-.94862.00433-1.89727-.00287-2.84583a4.13215,4.13215,0,0,0-.06418-.79242.986.986,0,0,0-.88507-.88962,1.14159,1.14159,0,0,0-1.28513.6721,3.19952,3.19952,0,0,0-.18982,1.04545c-.02528.92479-.00857,1.85073-.00858,2.77621v.40824H86.38238v-8.86241h1.40023v3.81529l.087.04553a5.33207,5.33207,0,0,1,.38932-.4264,2.10844,2.10844,0,0,1,3.031.25374,1.976,1.976,0,0,1,.36333,1.14083c.0134,1.31859.005,2.63739.00384,3.95611A.37354.37354,0,0,1,91.6242,184.99679Z" fill="#ffbc00"/><path d="M139.90917,179.25738h1.65621c.53127,1.25247,1.06679,2.515,1.60231,3.77749l.07067.01424L144.587,179.262h1.614c-.25806.68129-.50578,1.33944-.75653,1.99645q-.90252,2.36475-1.80842,4.72822a4.8235,4.8235,0,0,1-.21107.4748,2.26054,2.26054,0,0,1-2.19,1.32065c-.22957-.00316-.45921-.00046-.71083-.00046v-1.37031c.23691-.02229.47488-.04974.71362-.066a.92447.92447,0,0,0,.83848-.58142c.13917-.31632.25627-.64228.38141-.9597C141.60975,182.95876,140.77091,181.133,139.90917,179.25738Z" fill="#ffbc00"/><path d="M73.172,182.43263H69.01676a1.49711,1.49711,0,0,0,.89934,1.71035c.70562.2194,1.2469-.061,1.63551-.85558H73.056a1.84569,1.84569,0,0,1-.64832,1.23293,3.2703,3.2703,0,0,1-3.88753.11853,2.85567,2.85567,0,0,1-1.0462-2.35717,3.95474,3.95474,0,0,1,.29317-1.52343,2.81235,2.81235,0,0,1,5.40152.95915A6.82731,6.82731,0,0,1,73.172,182.43263Zm-1.4987-1.0446c-.08016-.89419-.56179-1.35321-1.35552-1.32218a1.275,1.275,0,0,0-1.23118,1.32218Z" fill="#ffbc00"/><path d="M57.38976,182.16046a2.84688,2.84688,0,0,1-1.13887,2.513,3.51161,3.51161,0,0,1-3.69262.05159,2.59149,2.59149,0,0,1-1.06346-1.49624,3.95176,3.95176,0,0,1-.06156-1.956,2.69417,2.69417,0,0,1,2.69511-2.21942,4.406,4.406,0,0,1,1.13985.09017,2.70214,2.70214,0,0,1,2.12043,2.6354C57.397,181.90561,57.38976,182.03328,57.38976,182.16046Zm-1.45246.0102a10.16667,10.16667,0,0,0-.23836-1.187,1.41983,1.41983,0,0,0-2.64309-.0151,3.30613,3.30613,0,0,0-.005,2.30639,1.419,1.419,0,0,0,2.6433.01735A9.162,9.162,0,0,0,55.9373,182.17066Z" fill="#ffbc00"/><path d="M111.42442,182.15518a2.8521,2.8521,0,0,1-1.1641,2.536,3.51971,3.51971,0,0,1-3.66456.0367,2.58967,2.58967,0,0,1-1.06624-1.49409,3.95088,3.95088,0,0,1-.06454-1.95588,2.69208,2.69208,0,0,1,2.69112-2.22377,4.3679,4.3679,0,0,1,1.17323.09832,2.70141,2.70141,0,0,1,2.09423,2.65585C111.43011,181.92359,111.42442,182.03955,111.42442,182.15518Zm-1.45408.01625a10.18414,10.18414,0,0,0-.23821-1.18711,1.41979,1.41979,0,0,0-2.643-.01635,3.30562,3.30562,0,0,0-.00542,2.30639,1.41894,1.41894,0,0,0,2.64326.01856A9.15789,9.15789,0,0,0,109.97034,182.17143Z" fill="#ffbc00"/><path d="M126.70162,182.1613A2.84661,2.84661,0,0,1,125.562,184.674a3.51393,3.51393,0,0,1-3.69269.05074A2.60148,2.60148,0,0,1,120.796,183.195a4.00247,4.00247,0,0,1-.00452-2.12587,2.69687,2.69687,0,0,1,2.64958-2.01578,4.42407,4.42407,0,0,1,1.13982.09043,2.70194,2.70194,0,0,1,2.11968,2.636C126.70887,181.90646,126.70162,182.03412,126.70162,182.1613Zm-1.487.09606c-.02466-.31807-.03206-.53819-.06191-.75525a2.42318,2.42318,0,0,0-.11114-.43512,1.424,1.424,0,0,0-2.70694-.02061,3.39682,3.39682,0,0,0-.02439,2.08,1.42709,1.42709,0,0,0,2.76078-.01045A6.74745,6.74745,0,0,0,125.21462,182.25736Z" fill="#ffbc00"/><path d="M172.31132,182.16136a2.84665,2.84665,0,0,1-1.13967,2.51266,3.51392,3.51392,0,0,1-3.6927.05066,2.60158,2.60158,0,0,1-1.07331-1.52969,4.0023,4.0023,0,0,1-.00451-2.12588,2.69687,2.69687,0,0,1,2.64963-2.01572,4.42448,4.42448,0,0,1,1.13982.09044,2.702,2.702,0,0,1,2.11964,2.636C172.31856,181.90652,172.31132,182.03418,172.31132,182.16136Zm-1.45436.01421a10.376,10.376,0,0,0-.22743-1.16139,1.41817,1.41817,0,0,0-2.65323-.043,3.30405,3.30405,0,0,0-.00295,2.30643,1.419,1.419,0,0,0,2.64345.01223A9.05643,9.05643,0,0,0,170.857,182.17557Z" fill="#ffbc00"/><path d="M216.36477,183.35912h1.3254a.937.937,0,0,0,.70826.75454,2.05549,2.05549,0,0,0,1.52176-.13443.55143.55143,0,0,0,.30608-.54246.47888.47888,0,0,0-.36873-.45532c-.36635-.1047-.74372-.17063-1.1151-.25856-.34921-.08268-.70384-.1513-1.04328-.26429a1.51732,1.51732,0,0,1-1.13227-1.27729,1.7155,1.7155,0,0,1,.669-1.62337,2.37333,2.37333,0,0,1,1.38554-.502,3.36649,3.36649,0,0,1,2.11358.42,1.80413,1.80413,0,0,1,.811,1.43575H220.2747c-.018-.01886-.04143-.03226-.04679-.05084-.10065-.34889-.257-.66275-.649-.7431a1.67582,1.67582,0,0,0-1.34461.15553.51935.51935,0,0,0,.11574.95358c.33553.11915.7001.15462,1.04747.24385a10.01827,10.01827,0,0,1,1.33238.37855,1.69331,1.69331,0,0,1,.2167,2.91194,3.01475,3.01475,0,0,1-1.27578.42313,4.37612,4.37612,0,0,1-2.02836-.18426A1.851,1.851,0,0,1,216.36477,183.35912Z" fill="#ffbc00"/><path d="M97.12867,185.002H95.73194v-5.73271H97.115v.66332l.06615.02563c.12747-.12515.25541-.24983.38232-.37553a2.19486,2.19486,0,0,1,2.78289-.09178,1.88208,1.88208,0,0,1,.64479,1.41166c.02633,1.35171.00867,2.70428.00867,4.08322H99.56434v-.3609c0-.94858.00486-1.89721-.00309-2.84573a4.25448,4.25448,0,0,0-.06936-.82637.97868.97868,0,0,0-.8651-.86918,1.21382,1.21382,0,0,0-1.27393.59115,2.18023,2.18023,0,0,0-.223,1.10939c-.0033.94858-.00113,1.89717-.00116,2.84575Z" fill="#ffbc00"/><path d="M201.72519,184.98845c0-.31606.00066-.60371-.00012-.89136-.00241-.89069-.00308-1.7814-.01037-2.67206a2.12684,2.12684,0,0,0-.0516-.44631,1.00515,1.00515,0,0,0-.88276-.89553,1.147,1.147,0,0,0-1.29038.66383,3.16027,3.16027,0,0,0-.19173,1.0447c-.02539.93633-.00869,1.87379-.0087,2.8108v.39112h-1.39939v-5.72679h1.39208v.74544c.2157-.20619.36414-.36246.52727-.50166a2.121,2.121,0,0,1,2.9815.29389,1.81636,1.81636,0,0,1,.357,1.03607c.01908,1.37436.00762,2.74914.00762,4.14786Z" fill="#ffbc00"/><path d="M248.80534,184.99694h-1.42662v-.386c0-.94858.00435-1.8972-.00285-2.84573a4.136,4.136,0,0,0-.06411-.7924.9862.9862,0,0,0-.88457-.89011,1.14683,1.14683,0,0,0-1.28694.67022,3.03615,3.03615,0,0,0-.18859,1.01072c-.02467.93637-.0086,1.87381-.00864,2.81082l0,.40924h-1.40183v-5.7192h1.38591v.65645l.06641.04226c.0984-.09758.20043-.19182.29461-.29329a2.15517,2.15517,0,0,1,2.44132-.44276,1.6995,1.6995,0,0,1,1.06263,1.586C248.83715,182.19724,248.80534,183.58377,248.80534,184.99694Z" fill="#ffbc00"/><path d="M257.69621,181.04778h-1.46783c-.01731-.04761-.0373-.09829-.05427-.14994a1.08746,1.08746,0,0,0-.977-.81525,1.26132,1.26132,0,0,0-1.312.59891,2.87252,2.87252,0,0,0-.29995,1.94871,2.69362,2.69362,0,0,0,.23773.79077,1.25683,1.25683,0,0,0,1.25221.76767,1.135,1.135,0,0,0,1.0854-.82461c.01682-.043.03771-.08449.06355-.14185h1.44756a2.41954,2.41954,0,0,1-1.65513,1.868,3.0125,3.0125,0,0,1-3.9767-3.30082,2.80406,2.80406,0,0,1,1.37087-2.3261,3.18048,3.18048,0,0,1,3.25543.01146A1.98291,1.98291,0,0,1,257.69621,181.04778Z" fill="#ffbc00"/><path d="M81.04283,183.22018H82.513a2.25935,2.25935,0,0,1-.97781,1.51288,3.044,3.044,0,0,1-4.37677-1.12489,3.57509,3.57509,0,0,1-.08548-2.77119,2.4964,2.4964,0,0,1,1.2205-1.41647,3.2267,3.2267,0,0,1,3.16758.041,2.01066,2.01066,0,0,1,1.05281,1.57677h-1.471c-.01289-.03439-.03-.0747-.0433-.11624a1.10122,1.10122,0,0,0-1.02926-.84311,1.22634,1.22634,0,0,0-1.305.67146,3.00669,3.00669,0,0,0-.02148,2.67894,1.23778,1.23778,0,0,0,1.25738.75906,1.14033,1.14033,0,0,0,1.08034-.83244C80.99816,183.31337,81.01907,183.27247,81.04283,183.22018Z" fill="#ffbc00"/><path d="M62.0199,180.27474H61.275a1.53445,1.53445,0,0,1-.02881-.192c-.00257-.264-.00116-.52811-.00116-.83015h.76407v-1.99321h1.426v1.9801h1.37966v1.03016H63.4696c-.01167.11994-.02759.2085-.02779.2971q-.00277,1.23154.00006,2.46309a1.8518,1.8518,0,0,0,.02291.31053.50639.50639,0,0,0,.53242.49056c.26284.01989.52842.004.81356.004v1.20153c-.609-.02789-1.21275-.0126-1.803-.09405a1.03623,1.03623,0,0,1-.9763-1.1467c-.017-1.02891-.009-2.05823-.01147-3.08737C62.01963,180.58288,62.0199,180.45743,62.0199,180.27474Z" fill="#ffbc00"/><path d="M237.54453,176.14061h1.5129v8.85367h-1.5129Z" fill="#ffbc00"/><path d="M115.692,176.14056h1.376v8.85353h-1.376Z" fill="#ffbc00"/><path d="M176.75067,176.13815h1.38115v8.84636h-1.38115Z" fill="#ffbc00"/><path d="M193.18551,185.00205h-1.36915v-5.733h1.36915Z" fill="#ffbc00"/><path d="M46.377,179.26445h1.38314v5.72144H46.377Z" fill="#ffbc00"/><path d="M227.72077,183.60381a3.76171,3.76171,0,0,1-.59549,2.81968h-.69042a1.92116,1.92116,0,0,0,.55429-1.4076h-.70661v-1.41208Z" fill="#ffbc00"/><path d="M262.51862,183.60768h1.41617v1.38606h-1.41617Z" fill="#ffbc00"/><path d="M191.80995,176.55476h1.3812v1.39507h-1.3812Z" fill="#ffbc00"/><path d="M46.2285,177.943V176.5609h1.38V177.943Z" fill="#ffbc00"/><path d="M263.93479,118.85658h4.2968v.47579H266.362v5.42822h-.55754v-5.42822h-1.86963Z" fill="#fff"/><path d="M269.00233,124.76059v-5.904h.85282l1.93519,5.207h.01635l1.90233-5.207h.84464v5.904h-.5577v-5.2644h-.01635l-1.93519,5.2644h-.52467l-1.94354-5.2644h-.01635v5.2644Z" fill="#fff"/></svg>