<svg id="Layer_1" data-name="Layer 1" xmlns="http://www.w3.org/2000/svg" viewBox="0 0 300 300"><path d="M93.95546,259.52376C45.33851,215.19634,30.946,158.29055,25,97.49889c5.999,9.99678,11.00983,20.77961,18.18156,29.84335,21.73161,27.46433,49.77656,39.34321,85.24889,34.34158,49.43017-6.96972,97.59738-4.65884,140.36346,25.80958,1.79478,1.27871,3.13026,3.2056,6.20609,6.43132-6.63832,3.629-12.71848,1.85536-18.3502,1.85869-27.61258.01639-55.1347.06243-82.13382,7.59581C141.702,212.53509,113.76925,228.64064,93.95546,259.52376Z" fill="#7dbd36"/><path d="M51.26,84.65749c.2028-24.19774,19.4881-43.96706,43.098-44.17954,24.3367-.219,46.275,20.68369,46.52514,44.329.24941,23.57779-21.34207,45.12161-45.464,45.36387C70.74015,130.41865,51.04666,110.12118,51.26,84.65749Z" fill="#7dbd36"/></svg>