<svg id="Layer_1" data-name="Layer 1" xmlns="http://www.w3.org/2000/svg" viewBox="0 0 300 300"><path d="M151.27235,141.36061c0,3.32673.0121,6.46924-.0063,9.61157a14.82121,14.82121,0,0,1-.17417,3.47591,3.68791,3.68791,0,0,1-7.304-.24226,8.4653,8.4653,0,0,1-.12213-1.58117c.00585-8.47043-.12531-16.94525.13038-25.40842a15.76319,15.76319,0,0,1,2.09038-6.84586,9.29935,9.29935,0,0,1,8.71809-4.85954c14.04316.04668,28.09143.23865,42.128-.067,8.00466-.17431,13.6325,7.0255,12.38611,14.93041a16.329,16.329,0,0,1-1.65389,4.7649,3.22209,3.22209,0,0,1-4.51621,1.72009,3.62132,3.62132,0,0,1-2.362-4.32748c.18552-.92355.66715-1.789.84508-2.71309.54626-2.83723-.97031-5.16346-3.61174-5.1749-14.88877-.0645-29.778-.03114-44.64671-.03114-3.12077,2.21372-1.46367,5.25474-1.96177,8.29855,1.40166.10644,2.51583.25852,3.63081.26455,6.27676.034,12.5561-.07084,18.83.07187a53.05359,53.05359,0,0,1,19.60437,3.76643,29.78735,29.78735,0,0,1,14.67652,12.65944,11.42232,11.42232,0,0,1,1.0138,1.97318,4.05124,4.05124,0,0,1-.9769,4.66822c-1.54392,1.371-3.22972.88875-4.68029-.16543a13.425,13.425,0,0,1-2.66168-2.69586c-6.25119-8.13358-14.57472-12.083-24.78352-12.20535-7.12662-.08538-14.25424-.09473-21.38148-.11577C153.55563,141.1297,152.62769,141.26015,151.27235,141.36061Z" fill="#146d5e"/><path d="M243.5999,121.9816a52.811,52.811,0,0,0-4.06873,4.71082c-5.80342,8.73656-11.49254,17.54829-17.29132,26.28795a9.8041,9.8041,0,0,1-3.21521,3.39188,5.71085,5.71085,0,0,1-4.10167.09393c-1.60039-.57065-1.7871-2.31322-1.437-3.81976a10.35832,10.35832,0,0,1,1.41919-3.15272c6.52073-10.16469,13.03129-20.33652,19.6495-30.43836,4.83386-7.37824,13.109-7.37422,17.91953-.032q9.92846,15.15362,19.72633,30.39188a12.469,12.469,0,0,1,1.39413,2.83619,3.4509,3.4509,0,0,1-1.40405,4.18418,3.34265,3.34265,0,0,1-4.41588-.12817,21.16212,21.16212,0,0,1-3.42554-4.12835c-5.53368-8.40662-10.963-16.88141-16.51605-25.27519A54.61331,54.61331,0,0,0,243.5999,121.9816Z" fill="#146d5e"/><path d="M57.068,157.64112c-6.16985.00206-12.34438-.14972-18.50844.03822-8.88413.27087-13.22107-5.83424-13.42458-12.5611-.24961-8.25057-.08371-16.51416-.04655-24.7719a3.88624,3.88624,0,0,1,.60885-2.40731c.85633-.95192,2.07628-2.24634,3.10011-2.20912a5.28888,5.28888,0,0,1,3.446,2.18153c.65814.906.64408,2.40912.65315,3.65015.05339,7.30485.00812,14.61035.034,21.9155.01418,4.0024,1.10763,5.1,5.09776,5.1055,12.87156.01783,25.74318-.00452,38.61475.01376,3.41166.00485,4.87137,1.16006,5.12792,3.90485.30249,3.23631-1.38141,5.0839-4.91712,5.119C70.25919,157.68577,63.66337,157.63905,57.068,157.64112Z" fill="#146d5e"/><path d="M104.65933,141.91718c-6.568.38179-12.8988-2.13682-18.39793-6.641-4.2593-3.48865-8.21529-7.34414-12.30546-11.03727a3.17546,3.17546,0,0,1-.22291-.22675c-2.257-2.492-2.62034-5.47283-.865-7.09185,1.64-1.51268,4.31583-1.01931,6.84224,1.22684,3.88018,3.44974,7.59037,7.12161,11.7013,10.27487,9.2662,7.10754,19.09738,7.19334,28.47513.23611,3.5572-2.639,6.63574-5.91588,9.9444-8.88882a27.37336,27.37336,0,0,1,3.37986-2.86575c1.60066-1.02226,3.41244-1.39658,5.00765.04935,1.59555,1.44625,1.15153,3.29464.61261,5.0253a4.34153,4.34153,0,0,1-1.27063,1.79326c-4.73237,4.23615-9.28265,8.71459-14.31522,12.567C117.57327,140.68031,112.51937,141.92269,104.65933,141.91718Z" fill="#146d5e"/><path d="M249.567,144.46938a5.4134,5.4134,0,0,1-5.78614,5.71079,5.70039,5.70039,0,0,1-5.837-5.796,6.22066,6.22066,0,0,1,5.92744-5.9071A5.84716,5.84716,0,0,1,249.567,144.46938Z" fill="#52ab29"/><path d="M105.54181,157.21127a5.45417,5.45417,0,0,1-5.79035-5.71949,5.63857,5.63857,0,0,1,5.78892-5.82407,5.9873,5.9873,0,0,1,5.92291,5.8196A5.78952,5.78952,0,0,1,105.54181,157.21127Z" fill="#52ab29"/><path d="M274.79567,172.00112v2.584h-.41655q-5.06092,0-10.12185.0022a3.41586,3.41586,0,0,0-.7297.05437,1.74905,1.74905,0,0,0,.52822,3.41394q3.27281.00783,6.54567.00133a4.49278,4.49278,0,0,1,2.6299.73778,4.02747,4.02747,0,0,1,1.74942,3.896,3.84966,3.84966,0,0,1-2.08646,3.25891,4.28512,4.28512,0,0,1-2.02064.51407c-1.38348.0144-2.76719.00769-4.15082.00816q-3.27284.00113-6.54567.0002h-.35943v-2.58209h.41081c3.3633,0,6.72662.00375,10.08989-.006a2.97057,2.97057,0,0,0,.96836-.14258,1.66675,1.66675,0,0,0,1.02148-1.68419,1.70728,1.70728,0,0,0-1.81812-1.82088q-3.25686-.0092-6.51376.00028a4.505,4.505,0,0,1-2.65776-.74425,3.84,3.84,0,0,1-1.68372-3.00543,4.114,4.114,0,0,1,.77756-2.88708,3.9099,3.9099,0,0,1,2.66384-1.53133,6.95629,6.95629,0,0,1,1.01721-.06454q5.1567-.00674,10.31342-.00274Z" fill="#646669"/><path d="M101.187,181.97872l3.72055,4.471h-3.52061l-3.20235-4.06165H93.077v-2.33945c.11761-.00522.23012-.01451.34263-.01457,1.78821-.00092,3.57645.00377,5.36462-.00505a3.67446,3.67446,0,0,0,.88354-.09952,2.54406,2.54406,0,0,0,1.88559-2.69307,2.5036,2.5036,0,0,0-1.77815-2.51593,3.44842,3.44842,0,0,0-.9426-.12919c-2.28844-.01069-4.57695-.00607-6.86544-.00538-.07362,0-.14725.01-.26206.01828v11.85221H89.03929v-14.4339c.08343-.00675.17387-.02043.26432-.02046q4.78986-.00156,9.57972.00023a5.60254,5.60254,0,0,1,3.12135.86513,4.73689,4.73689,0,0,1,2.1529,3.28542,5.32123,5.32123,0,0,1-.89186,4.17892,4.78893,4.78893,0,0,1-1.791,1.50056C101.3897,181.87477,101.30528,181.91848,101.187,181.97872Z" fill="#646669"/><path d="M140.67558,174.58508v11.86751h-2.65885V172.0171c.10666-.00545.20958-.01529.3125-.01532q4.55019-.00122,9.10037-.00125a5.69978,5.69978,0,0,1,3.48329,1.03874,4.79928,4.79928,0,0,1,1.949,3.27665,5.55155,5.55155,0,0,1-.43632,3.295,4.83,4.83,0,0,1-3.39174,2.70366,6.82879,6.82879,0,0,1-1.5159.18371c-1.756.02181-3.51233.00862-5.26854.00811-.05262,0-.10525-.00693-.18681-.01267v-2.39657h.35194c1.69236,0,3.38488.0132,5.07692-.00985a3.319,3.319,0,0,0,1.17945-.21758,2.50742,2.50742,0,0,0,1.56272-2.29054,2.90731,2.90731,0,0,0-.18374-1.34626,2.44626,2.44626,0,0,0-2.13814-1.6222,4.72909,4.72909,0,0,0-.54188-.02459q-3.16124-.00243-6.32245-.00106Z" fill="#646669"/><path d="M180.88465,172.01416h2.69793v.37067q0,3.74414.0002,7.48825a4.25826,4.25826,0,0,0,.54241,2.262,3.31656,3.31656,0,0,0,2.75613,1.71082,38.62964,38.62964,0,0,0,3.9554.00207,3.52269,3.52269,0,0,0,3.258-3.21051c.03078-.30591.0455-.6147.046-.92219q.0055-3.64852.00206-7.297v-.397h2.68242c.00507.10592.01422.20845.01425.311q.00117,3.88752-.00033,7.775a6.514,6.514,0,0,1-.84683,3.38644,5.791,5.791,0,0,1-3.87521,2.77318,9.2422,9.2422,0,0,1-1.73795.19649c-1.01.03087-2.02158.01263-3.03247.00763a6.69093,6.69093,0,0,1-4.04563-1.23785,5.675,5.675,0,0,1-2.28822-3.73084,9.717,9.717,0,0,1-.12264-1.61665c-.01232-2.496-.00544-4.99214-.00544-7.48822Z" fill="#646669"/><path d="M115.218,186.46411h-2.9322a2.31021,2.31021,0,0,1,.09894-.2348q3.77852-6.69686,7.55675-13.39385a1.60558,1.60558,0,0,1,1.45319-.84941,1.83965,1.83965,0,0,1,1.8902,1.09327c2.43255,4.36694,4.90138,8.71374,7.3575,13.0676.05131.09095.09881.184.163.304h-2.90959l-1.48393-2.65054h-8.1419l1.17864-2.18162h5.73728l-3.63785-6.54615C119.42027,178.90164,117.32339,182.67522,115.218,186.46411Z" fill="#646669"/><path d="M253.0937,183.88991v2.55265a1.50651,1.50651,0,0,1-.20781.02808c-2.3203.00047-4.64109.02811-6.96074-.01123a7.29518,7.29518,0,0,1-4.75212-1.7456,6.65818,6.65818,0,0,1-2.23988-3.93641,7.80044,7.80044,0,0,1,.34392-4.29385,6.59411,6.59411,0,0,1,3.40422-3.7087,7.859,7.859,0,0,1,3.457-.77162c2.23515-.005,4.4703-.00184,6.70546-.00208.07264,0,.14528,0,.23876,0v2.58392c-.13626,0-.26167,0-.38709,0q-3.20905,0-6.4181-.00077a5.173,5.173,0,0,0-2.12126.37151,4.25835,4.25835,0,0,0-2.60306,3.44844,4.88591,4.88591,0,0,0,.57634,3.32316,4.2133,4.2133,0,0,0,3.46712,2.12986c.61343.05184,1.23359.03029,1.85072.03147q2.61831.005,5.23664.00116Z" fill="#646669"/><path d="M33.5875,186.45838H30.89623V174.59119H25.16686v-2.57235H39.268v2.56795H33.5875Z" fill="#646669"/><path d="M217.28561,172.02473V174.574h-5.67607v11.8729h-2.70007V174.58923h-5.72773v-2.5645Z" fill="#646669"/><path d="M58.0572,180.311H50.60772v-2.432h7.42716v-5.85954h2.68386v14.4279H58.0572Z" fill="#646669"/><path d="M49.11814,186.46211H46.46008V172.0225h2.65806Z" fill="#646669"/><path d="M227.81485,186.46163h-2.6591V172.022h2.6591Z" fill="#646669"/><path d="M68.21867,172.00965H81.67193V174.578H70.92574v9.30117H81.70409v2.57142H68.21867Z" fill="#646669"/><path d="M72.3607,180.2111v-2.13766h9.15142v2.13766Z" fill="#646669"/><path d="M173.59449,183.87637v2.57256h-13.4896V172.02325h13.44938v2.55155H162.81193v9.30157Z" fill="#646669"/><path d="M173.40746,178.08325v2.1298h-9.162v-2.1298Z" fill="#646669"/></svg>