<svg id="Layer_1" data-name="Layer 1" xmlns="http://www.w3.org/2000/svg" xmlns:xlink="http://www.w3.org/1999/xlink" viewBox="0 0 300 300"><defs><linearGradient id="linear-gradient" x1="-2147.3497" y1="18250.90199" x2="-2147.3497" y2="18069.75674" gradientTransform="matrix(0.75, 0, 0, -0.75, 1721.44831, 13772.91529)" gradientUnits="userSpaceOnUse"><stop offset="0" stop-color="#333"/><stop offset="0.19" stop-color="#333"/><stop offset="1" stop-color="#fff"/></linearGradient><clipPath id="clip-path"><path d="M157.28384,142.92989a70.42376,70.42376,0,0,0-40.10555-58.1911,70.51846,70.51846,0,0,1,43.81542,53.91607A16.07206,16.07206,0,0,0,157.28384,142.92989Zm-.768,17.1291a70.64585,70.64585,0,0,1-95.63744,53.74217,70.65714,70.65714,0,0,0,99.46323-48.53968A15.79063,15.79063,0,0,1,156.51579,160.059Z" fill="none"/></clipPath><mask id="mask" x="60.87835" y="84.73879" width="100.11537" height="138.35148" maskUnits="userSpaceOnUse"><rect x="60.87835" y="84.73879" width="100.11537" height="138.35148" fill="url(#linear-gradient)"/></mask><linearGradient id="linear-gradient-2" x1="-2147.34971" y1="18250.90199" x2="-2147.34971" y2="18069.75674" gradientTransform="matrix(0.75, 0, 0, -0.75, 1721.44831, 13772.91529)" gradientUnits="userSpaceOnUse"><stop offset="0" stop-color="#89878d"/><stop offset="0.19" stop-color="#89878d"/><stop offset="1" stop-color="#89878d"/></linearGradient></defs><path d="M33.17037,171.68851a2.68186,2.68186,0,0,1,2.71717,2.71718v38.0405a2.71718,2.71718,0,1,1-5.43435,0v-38.0405A2.68186,2.68186,0,0,1,33.17037,171.68851Z" fill="#e49010"/><path d="M139.14034,153.91454c0-7.24581,10.86871-7.24581,10.86871,0v2.94179c0,7.24581-10.86871,7.24581-10.86871,0Zm-5.43436.39851a9.76577,9.76577,0,0,1,9.79633-9.79633h2.14477a9.76577,9.76577,0,0,1,9.79633,9.79633v2.14477a9.76577,9.76577,0,0,1-9.79633,9.79633h-2.14477a9.76577,9.76577,0,0,1-9.79633-9.79633Zm-13.04971-6.2024h-3.25336v5.97054h3.25336C124.64872,154.08119,124.64872,148.11065,120.65627,148.11065Zm-8.68772-2.52154v19.59266a1.07,1.07,0,0,0,1.07238,1.07238h3.28959a1.07,1.07,0,0,0,1.07239-1.07238V157.82c1.52887-.47822,4.95613.16665,6.3111,6.96323l.14492.65211a1.10172,1.10172,0,0,0,1.10135.81878h3.84753a1.10868,1.10868,0,0,0,1.05064-1.47089l-2.34763-5.86186a4.24717,4.24717,0,0,0-2.89108-2.5143c1.52886-.59416,4.362-2.55053,4.362-5.86186,0-4.18808-3.05773-6.02852-6.26038-6.02852h-9.6804A1.07,1.07,0,0,0,111.96855,145.58911Zm-5.43436,1.21729c-.36953-.81878-2.00709-2.28968-5.659-2.28968-4.86918,0-10.58612,3.65189-10.58612,11.23826,0,7.61533,5.80389,10.49917,10.52816,10.49917,4.13011,0,5.43436-1.52887,5.71694-2.181V161.2473a.64643.64643,0,0,0-.87674-.54344,9.59107,9.59107,0,0,1-4.18808,1.42018c-2.43459.10869-5.80389-1.58683-5.80389-6.68064,0-5.83288,4.07214-6.68063,5.15177-6.68063a7.06071,7.06071,0,0,1,4.41269,1.355.60932.60932,0,0,0,.93472-.39128l.36953-2.71718Zm-32.43949,10.818,2.92006-8.49209,2.99977,8.49209Zm-7.6081,7.15887,6.78932-19.55645a1.07311,1.07311,0,0,1,1.07963-.71009h5.43436a1.10047,1.10047,0,0,1,1.10136.71009l7.27479,19.55645a1.09255,1.09255,0,0,1-1.02165,1.47089H83.86205a1.11057,1.11057,0,0,1-1.02166-.71008l-1.355-3.65189H72.85567l-1.36222,3.65189a1.10005,1.10005,0,0,1-.99267.71008H67.501A1.09161,1.09161,0,0,1,66.4866,164.78326ZM30.45319,140.15475v25.027a1.07,1.07,0,0,0,1.07237,1.07238h3.28961a1.07,1.07,0,0,0,1.07237-1.07238V144.51672l7.86895,21.02735a1.10331,1.10331,0,0,0,1.0434.71008h3.91274a1.13226,1.13226,0,0,0,1.04339-.71008L57.625,144.51672v20.66505a1.07,1.07,0,0,0,1.07238,1.07238H61.987a1.07,1.07,0,0,0,1.07238-1.07238v-25.027a1.07,1.07,0,0,0-1.07238-1.07239H55.02373a1.65,1.65,0,0,0-1.52887,1.07239l-6.7386,17.94787-6.50674-17.94787a1.66487,1.66487,0,0,0-1.52887-1.07239H31.52556A1.07,1.07,0,0,0,30.45319,140.15475Z" fill="#e49010" fill-rule="evenodd"/><path d="M267.92011,144.51672c-2.4853,0-7.5791,1.07239-7.753,6.08648-.16664,4.18808,3.1447,5.49232,5.74593,6.50675l1.30424.56516c.8188.26085,2.46358,1.18831,2.34766,2.49256a2.682,2.682,0,0,1-2.99978,2.29692h-.14489a12.616,12.616,0,0,1-5.34743-1.21729.60637.60637,0,0,0-.90573.56516v2.37664a.42587.42587,0,0,0,.17392.36954,10.2796,10.2796,0,0,0,6.50673,1.63755c4.362-.1087,8.09357-2.71718,8.15153-6.50674.058-3.70985-3.3693-5.5503-5.77491-6.427-2.37662-.93472-3.78955-1.61583-3.90548-3.25338-.11595-1.07962.99266-1.84043,2.99975-1.84043a9.79745,9.79745,0,0,1,4.333,1.18831.53772.53772,0,0,0,.76081-.53619v-2.52154a.41661.41661,0,0,0-.19561-.42026,9.5672,9.5672,0,0,0-5.23875-1.36221Zm-36.3957,1.07239a1.07,1.07,0,0,1,1.07238-1.07239h3.28961a1.07,1.07,0,0,1,1.07237,1.07239v19.59266a1.07,1.07,0,0,1-1.07237,1.07238h-3.28961a1.07,1.07,0,0,1-1.07238-1.07238Zm-27.17178,19.59266V145.58911a1.07,1.07,0,0,1,1.07238-1.07239h6.00677a1.58525,1.58525,0,0,1,1.355.87675l7.86895,14.238V145.58911a1.07,1.07,0,0,1,1.07238-1.07239h3.28961a1.07,1.07,0,0,1,1.07237,1.07239v19.59266a1.07,1.07,0,0,1-1.07237,1.07238h-6.14446a1.603,1.603,0,0,1-1.41293-.87674L209.787,151.48v13.70182a1.07,1.07,0,0,1-1.07238,1.07238H205.425A1.07,1.07,0,0,1,204.35263,165.18177Zm-18.25945-20.66505h11.7527a1.07,1.07,0,0,1,1.07239,1.07239v1.64479a1.07,1.07,0,0,1-1.07239,1.07239h-7.41971v4.84019h7.41971a1.10138,1.10138,0,0,1,1.07239,1.10861v1.60857a1.10138,1.10138,0,0,1-1.07239,1.10861h-7.41971V162.182h7.41971a1.07,1.07,0,0,1,1.07239,1.07238v1.92738a1.07,1.07,0,0,1-1.07239,1.07238h-11.7527a1.095,1.095,0,0,1-1.10136-1.07238V145.58911A1.095,1.095,0,0,1,186.09318,144.51672Zm70.36408,2.28968c-.36231-.81878-2.00709-2.28968-5.63-2.28968-4.89818,0-10.61511,3.65189-10.61511,11.23826,0,7.61533,5.89084,10.49917,10.61511,10.49917,3.90548,0,5.26769-1.36221,5.63-2.06505l.058-.22462V161.2473a.64645.64645,0,0,0-.87676-.54344,9.56569,9.56569,0,0,1-4.15907,1.42018c-2.46358.10869-5.83288-1.58683-5.83288-6.68064,0-5.83288,4.07939-6.68063,5.18075-6.68063a7.06309,7.06309,0,0,1,4.391,1.355.59762.59762,0,0,0,.92745-.39128l.36955-2.71718v-.20288Zm-76.7259-4.6663a12.18744,12.18744,0,0,0-8.15154-3.05774c-5.38363-.058-13.41923,3.19541-13.41923,13.5859a13.05819,13.05819,0,0,0,13.41923,13.58589,16.511,16.511,0,0,0,7.94866-1.95637.94772.94772,0,0,0,.36954-.76081v-11.4049a1.10139,1.10139,0,0,0-1.07239-1.10861h-8.55a1.10754,1.10754,0,0,0-1.07963,1.10861v2.181a1.07616,1.07616,0,0,0,1.07963,1.07239h4.18807v5.43435a3.76086,3.76086,0,0,1-2.88384.93471c-1.42017,0-7.98487-.56516-7.98487-9.08624,0-8.15154,6.50674-9.14421,7.98487-9.14421h.16666c1.36221,0,3.536,0,7.39073,2.181a.54387.54387,0,0,0,.81877-.47822v-2.71718a.45332.45332,0,0,0-.1739-.36953Z" fill="#cd5d10"/><path d="M89.15874,79.84063a2.7468,2.7468,0,0,1,.53619,3.82579L46.75626,140.86484,25.555,113.27279a2.74044,2.74044,0,0,1,4.362-3.31858l16.83926,21.91133L85.333,80.37682A2.7468,2.7468,0,0,1,89.15874,79.84063Z" fill="#89878d"/><g clip-path="url(#clip-path)"><g mask="url(#mask)"><rect x="60.87835" y="84.73879" width="100.11536" height="138.35148" fill="url(#linear-gradient-2)"/></g></g></svg>