<svg id="Layer_1" data-name="Layer 1" xmlns="http://www.w3.org/2000/svg" viewBox="0 0 300 300"><defs><style>.cls-1{fill:#f27040;}</style></defs><path class="cls-1" d="M249.67,143.7c1.6,38.07-12.95,68.3-44.58,89.14-28.78,19-59.91,21-93.34,8.93,27.9-10.13,52.17-24.43,74.86-41.43S229.91,164.11,249.67,143.7Z"/><path class="cls-1" d="M117.3,56.15c-14.75,48.25-30.59,94.54-56.28,137-10.29-14.71-15-47.33-6.21-73.22C65.24,89.08,86,68.35,117.3,56.15Z"/><path class="cls-1" d="M131.47,52.63a93.75,93.75,0,0,1,38.26.09C165.09,77.66,93.25,186.35,68.08,206.38a25.47,25.47,0,0,1-4.38-6.8C94.79,154.35,113.77,103.83,131.47,52.63Z"/><path class="cls-1" d="M78.08,218.83,72,211.93c46.85-44.68,80-99.12,111.28-155.32,8.81,2.62,16.71,6.93,24.82,12.48C171.83,125.08,133.45,178.93,78.08,218.83Z"/><path class="cls-1" d="M232.73,94.24C193.16,148,151,198.22,90.94,228.87A10.69,10.69,0,0,1,86,226.05c-1.14-.93-2.23-1.93-3.69-3.21,56.4-38.23,97-90.77,135.39-145.8A79.71,79.71,0,0,1,232.73,94.24Z"/><path class="cls-1" d="M104.29,237.91a30,30,0,0,1-8.49-4.73c59.74-28.91,103.31-75.83,144.13-126.57A78.82,78.82,0,0,1,247.14,126C207.09,173,163.11,214.87,104.29,237.91Z"/></svg>