<svg id="Layer_1" data-name="Layer 1" xmlns="http://www.w3.org/2000/svg" viewBox="0 0 300 300"><path d="M174.36863,270.407l-4.55127.06692A120.47476,120.47476,0,1,1,171.13223,29.528q1.652.009,3.30333.06334C114.73363,32.06771,67.01224,85.00967,67.01224,149.99911s47.72139,117.93141,107.42332,120.40782Z" fill="#005d8d"/><path d="M180.59316,231.05187h-3.07879c-45.91427,0-83.12758-36.27628-83.12758-81.05275,0-44.84338,37.21331-81.11967,83.12758-81.11967h3.07879c-41.29607,1.67327-74.29277,37.34717-74.29277,81.11967S139.29709,229.44552,180.59316,231.05187Z" fill="#005d8d"/><path d="M250,149.99912a66.06029,66.06029,0,0,1-66.44621,65.67218q-1.44754-.00846-2.89371-.08037c32.59511-1.47248,58.63106-30.25255,58.63106-65.59181s-26.03593-64.11934-58.63106-65.5918h2.81107A66.0603,66.0603,0,0,1,250,149.99579Z" fill="#005d8d"/><path d="M227.37751,148.32586v-2.47643A47.92217,47.92217,0,0,0,179.86027,97.5257l-.00335,0a47.92218,47.92218,0,0,0-47.47537,48.36487q.01162,1.25207.08864,2.50225c1.27168-23.02406,22.0201-41.363,47.45365-41.363S226.10584,125.36873,227.37751,148.32586Z" fill="#005d8d"/><path d="M178.11672,184.60214h1.53939c-17.06725-.87011-30.65413-16.0633-30.65413-34.603,0-18.60666,13.58688-33.73293,30.65413-34.5361h-1.53939a34.80383,34.80383,0,0,0-35.07152,34.53406v.002a34.80382,34.80382,0,0,0,35.003,34.60348Z" fill="#005d8d"/></svg>