<svg id="Layer_1" data-name="Layer 1" xmlns="http://www.w3.org/2000/svg" xmlns:xlink="http://www.w3.org/1999/xlink" viewBox="0 0 300 300"><defs><linearGradient id="linear-gradient" x1="236.54668" y1="117.81874" x2="91.6828" y2="-47.64471" gradientTransform="matrix(1, 0, 0, -1, 0, 168.97413)" gradientUnits="userSpaceOnUse"><stop offset="0" stop-color="#c6d277"/><stop offset="1" stop-color="#6f954f"/></linearGradient></defs><path d="M250,49.99725H155.06851c-4.66658,0-12.59975-.06667-18.39964.46665C114.536,52.59719,94.203,64.3303,78.93665,80.46332A103.66473,103.66473,0,0,0,50.5372,139.39551c-3.33327,31.33273,9.13316,61.33215,29.39943,81.66508a99.13144,99.13144,0,0,0,80.99843,28.33279,102.5979,102.5979,0,0,0,58.66552-28.59946c15.9997-15.333,27.66614-35.79929,29.73275-57.99887A188.04051,188.04051,0,0,0,250,143.0621ZM152.60189,63.33032h84.065v71.93194q.04924,3.96645,0,7.93319v.06666a176.49287,176.49287,0,0,1-.6,18.19965c-1.73329,18.26632-11.86643,35.7993-25.99951,49.399-14.26639,13.66639-32.53271,23.39953-50.599,25.33284a85.39839,85.39839,0,0,1-69.79865-24.86619A89.19825,89.19825,0,0,1,63.337,149.99531a85.02907,85.02907,0,0,1,.46665-9.19982,90.59822,90.59822,0,0,1,25.13285-50.799c13.53308-14.26639,30.93273-24.46619,49.06572-26.19949a133.47056,133.47056,0,0,1,14.59972-.4ZM76.80336,153.46191A74.08307,74.08307,0,0,0,98.20294,202.261a71.99865,71.99865,0,0,0,59.33218,20.66625A77.065,77.065,0,0,0,204.66755,198.261c10.53314-11.33312,18.6663-27.33279,18.6663-39.6659V76.6634l-60.53216.06666H151.46857l-9.86647-.06666c-12.53308,0-28.46612,7.66651-39.59923,18.19964-13.46641,12.73308-23.46622,30.19942-25.06619,47.33242a80.59088,80.59088,0,0,0-.2,11.33311Z" fill="url(#linear-gradient)"/></svg>