<svg id="Layer_1" data-name="Layer 1" xmlns="http://www.w3.org/2000/svg" viewBox="0 0 300 300"><defs><style>.cls-1,.cls-2{fill:#5167c3;}.cls-1{fill-rule:evenodd;}</style></defs><g id="_5167c3ff" data-name="#5167c3ff"><path id="Layer" class="cls-1" d="M149.78,11.68H150c39.87,22.89,79.66,46.05,119.44,69.11,0,46.14-.09,92.19,0,138.33q-59.64,34.69-119.35,69.2h-.43c-39.79-23-79.66-45.79-119.18-69.2V80.62C70.3,57.64,109.91,34.48,149.78,11.68ZM44.54,89V211c35.17,20.29,70.25,40.93,105.59,61,34.91-20.55,70.08-40.59,105.07-61V89Q202.58,58.46,150,28,97.21,58.42,44.54,89Z"/><path id="Layer-2" data-name="Layer" class="cls-2" d="M56.72,95.8C86.5,78.63,116.09,61.28,146,44.2c-17.67,31-35.6,62-53.27,93Q74.65,116.52,56.72,95.8Z"/><path id="Layer-3" data-name="Layer" class="cls-2" d="M132.46,93.72Q141.2,67.83,150,41.94c29.69,17.26,59.55,34.43,89.14,51.69q-53.4.14-106.72.09Z"/><path id="Layer-4" data-name="Layer" class="cls-2" d="M189.56,106.72c17.94-3.55,35.78-7.11,53.63-10.58q.09,51.78,0,103.55-26.77-46.56-53.63-93Z"/><path id="Layer-5" data-name="Layer" class="cls-2" d="M56.55,100.13c17.67,31.14,35.78,62.1,53.62,93.15-17.84,3.55-35.77,7.11-53.62,10.58Z"/><path id="Layer-6" data-name="Layer" class="cls-2" d="M153.87,255.8q26.52-46.44,53.28-93c12,13.78,23.94,27.49,35.95,41.36Q198.45,230,153.87,255.8Z"/><path id="Layer-7" data-name="Layer" class="cls-2" d="M60,206.2q53.67.26,107.34,0c-5.84,17.26-11.76,34.6-17.67,51.86C119.84,240.8,90,223.37,60,206.2Z"/></g></svg>