<?xml version="1.0" encoding="UTF-8"?>
<svg xmlns="http://www.w3.org/2000/svg" version="1.1" viewBox="0 0 300 300">
  <defs>
    <style>
      .cls-1 {
        fill: #007a73;
      }
    </style>
  </defs>
  <!-- Generator: Adobe Illustrator 28.6.0, SVG Export Plug-In . SVG Version: 1.2.0 Build 709)  -->
  <g>
    <g id="Layer_1">
      <path id="path13366" class="cls-1" d="M107.5,107.5c0-23.5,19-42.5,42.5-42.5,23.5,0,42.5,19,42.5,42.5h-85ZM107.5,192.5c0-23.5,19-42.5,42.5-42.5h0c-23.5,0-42.5-19-42.5-42.5-23.5,0-42.5,19-42.5,42.5s19,42.5,42.5,42.5M107.5,192.5c0,23.5,19,42.5,42.5,42.5s42.5-19,42.5-42.5h-85ZM150,150c23.5,0,42.5,19,42.5,42.5h0c23.5,0,42.5-19,42.5-42.5s-19-42.5-42.5-42.5c0,23.5-19,42.5-42.5,42.5h0"/>
    </g>
  </g>
</svg>