<svg id="Layer_1" data-name="Layer 1" xmlns="http://www.w3.org/2000/svg" viewBox="0 0 300 300"><path d="M250,109.21a16.82,16.82,0,0,0-33.63,0v39.2a16.82,16.82,0,1,0,33.63,0Z" fill="#19332d"/><path d="M83.63,151.59a16.82,16.82,0,1,0-33.63,0v39.2a16.82,16.82,0,1,0,33.63,0Z" fill="#19332d"/><path d="M194.53,87.25a16.82,16.82,0,0,0-33.63,0v95.8a16.82,16.82,0,0,0,33.63,0Z" fill="#19332d"/><path d="M120.61,100.22A16.83,16.83,0,0,1,139.1,117V212c0,8.78-6.44,16.64-15.18,17.48a16.82,16.82,0,0,1-18.49-16.73v-95C105.43,108.92,111.87,101.06,120.61,100.22Z" fill="#19332d"/></svg>