<svg id="Layer_1" data-name="Layer 1" xmlns="http://www.w3.org/2000/svg" xmlns:xlink="http://www.w3.org/1999/xlink" viewBox="0 0 300 300"><defs><style>.cls-1{fill:url(#linear-gradient);}.cls-2{fill:url(#linear-gradient-2);}.cls-3{fill:url(#linear-gradient-3);}.cls-4{fill:url(#linear-gradient-4);}.cls-5{fill:url(#linear-gradient-5);}.cls-6{fill:url(#linear-gradient-6);}.cls-7{fill:url(#linear-gradient-7);}.cls-8{fill:url(#linear-gradient-8);}.cls-9{fill:url(#linear-gradient-9);}.cls-10{fill:url(#linear-gradient-12);}.cls-11{fill:url(#linear-gradient-14);}.cls-12{fill:url(#linear-gradient-16);}</style><linearGradient id="linear-gradient" x1="102.82" y1="172.51" x2="283.98" y2="172.51" gradientTransform="matrix(1, 0, 0, -1, -65.9, 254.04)" gradientUnits="userSpaceOnUse"><stop offset="0" stop-color="#503291"/><stop offset="0.22" stop-color="#7d62a8"/><stop offset="0.48" stop-color="#ad95c0"/><stop offset="0.7" stop-color="#d0bbd1"/><stop offset="0.89" stop-color="#e5d2dc"/><stop offset="1" stop-color="#eddae0"/></linearGradient><linearGradient id="linear-gradient-2" x1="102.82" y1="138.29" x2="283.98" y2="138.29" xlink:href="#linear-gradient"/><linearGradient id="linear-gradient-3" x1="102.82" y1="104.08" x2="283.98" y2="104.08" xlink:href="#linear-gradient"/><linearGradient id="linear-gradient-4" x1="102.82" y1="69.87" x2="283.98" y2="69.87" xlink:href="#linear-gradient"/><linearGradient id="linear-gradient-5" x1="102.82" y1="35.65" x2="283.98" y2="35.65" xlink:href="#linear-gradient"/><linearGradient id="linear-gradient-6" x1="102.82" y1="155.41" x2="283.98" y2="155.41" xlink:href="#linear-gradient"/><linearGradient id="linear-gradient-7" x1="102.82" y1="121.19" x2="283.98" y2="121.19" xlink:href="#linear-gradient"/><linearGradient id="linear-gradient-8" x1="102.82" y1="86.97" x2="283.98" y2="86.97" xlink:href="#linear-gradient"/><linearGradient id="linear-gradient-9" x1="102.82" y1="52.75" x2="283.98" y2="52.75" xlink:href="#linear-gradient"/><linearGradient id="linear-gradient-12" x1="102.82" y1="104.08" x2="283.98" y2="104.08" xlink:href="#linear-gradient"/><linearGradient id="linear-gradient-14" x1="102.82" y1="69.86" x2="283.98" y2="69.86" xlink:href="#linear-gradient"/><linearGradient id="linear-gradient-16" x1="232.09" y1="53.88" x2="312.73" y2="193.54" gradientTransform="matrix(1, 0, 0, -1, -65.9, 254.04)" gradientUnits="userSpaceOnUse"><stop offset="0" stop-color="#21bece"/><stop offset="1" stop-color="#c8eff3"/></linearGradient></defs><path class="cls-1" d="M62.87,79.48,39.78,69.23a2.23,2.23,0,0,0-3.07,2V91.79A2.22,2.22,0,0,0,38.94,94a2.17,2.17,0,0,0,.84-.16L62.87,83.58a2.29,2.29,0,0,0,1-3.12A2.35,2.35,0,0,0,62.87,79.48Z"/><path class="cls-2" d="M62.87,113.7,39.78,103.45a2.23,2.23,0,0,0-3.07,2V126a2.22,2.22,0,0,0,2.23,2.21,2.17,2.17,0,0,0,.84-.16L62.87,117.8a2.29,2.29,0,0,0,1-3.12A2.35,2.35,0,0,0,62.87,113.7Z"/><path class="cls-3" d="M62.87,147.9,39.78,137.65a2.23,2.23,0,0,0-3.07,2v20.51a2.19,2.19,0,0,0,2.17,2.22,2.12,2.12,0,0,0,.9-.17L62.87,152a2.33,2.33,0,0,0,.93-3.17A2.38,2.38,0,0,0,62.87,147.9Z"/><path class="cls-4" d="M62.87,182.12,39.78,171.87A2.2,2.2,0,0,0,36.89,173a2,2,0,0,0-.18.89v20.51a2.19,2.19,0,0,0,2.17,2.22,2.12,2.12,0,0,0,.9-.17l23.09-10.26a2.33,2.33,0,0,0,.93-3.17A2.38,2.38,0,0,0,62.87,182.12Z"/><path class="cls-5" d="M62.87,216.34,39.78,206.09a2.2,2.2,0,0,0-2.89,1.16,2,2,0,0,0-.18.89v20.51a2.19,2.19,0,0,0,2.17,2.22,2.12,2.12,0,0,0,.9-.17l23.09-10.26a2.33,2.33,0,0,0,.93-3.17A2.38,2.38,0,0,0,62.87,216.34Z"/><path class="cls-6" d="M101.43,96.58,78.37,86.33a2.22,2.22,0,0,0-2.9,1.16,2.28,2.28,0,0,0-.18.89v20.51a2.21,2.21,0,0,0,2.18,2.22,2.12,2.12,0,0,0,.9-.17l23.06-10.26a2.31,2.31,0,0,0,0-4.1Z"/><path class="cls-7" d="M101.43,130.8,78.37,120.55a2.22,2.22,0,0,0-2.9,1.16,2.28,2.28,0,0,0-.18.89v20.51a2.21,2.21,0,0,0,2.18,2.22,2.12,2.12,0,0,0,.9-.17l23.06-10.26a2.31,2.31,0,0,0,0-4.1Z"/><path class="cls-8" d="M101.43,165,78.37,154.77a2.22,2.22,0,0,0-2.9,1.16,2.28,2.28,0,0,0-.18.89v20.51a2.21,2.21,0,0,0,2.18,2.22,2.12,2.12,0,0,0,.9-.17l23.06-10.26a2.31,2.31,0,0,0,0-4.1Z"/><path class="cls-9" d="M101.43,199.24,78.37,189a2.24,2.24,0,0,0-2.91,1.21,2.21,2.21,0,0,0-.17.84v20.51a2.22,2.22,0,0,0,2.23,2.21,2.25,2.25,0,0,0,.85-.16l23.06-10.26a2.31,2.31,0,0,0,0-4.1Z"/><path class="cls-2" d="M140,113.7l-23.08-10.25a2.22,2.22,0,0,0-2.89,1.19,2.31,2.31,0,0,0-.17.86V126a2.23,2.23,0,0,0,3.06,2L140,117.8a2.31,2.31,0,0,0,0-4.1Z"/><path class="cls-7" d="M178.6,130.8l-23.08-10.25a2.22,2.22,0,0,0-2.9,1.16,2.11,2.11,0,0,0-.17.89v20.51a2.19,2.19,0,0,0,2.17,2.22,2.12,2.12,0,0,0,.9-.17L178.6,134.9a2.33,2.33,0,0,0,.94-3.17A2.4,2.4,0,0,0,178.6,130.8Z"/><path class="cls-10" d="M140,147.9l-23.08-10.25a2.22,2.22,0,0,0-2.89,1.19,2.31,2.31,0,0,0-.17.86v20.51a2.17,2.17,0,0,0,2.13,2.22,2.26,2.26,0,0,0,.93-.17L140,152a2.32,2.32,0,0,0,.93-3.17A2.38,2.38,0,0,0,140,147.9Z"/><path class="cls-3" d="M217.17,147.9l-23.06-10.25a2.24,2.24,0,0,0-2.91,1.21,2.21,2.21,0,0,0-.17.84v20.51a2.2,2.2,0,0,0,2.18,2.22,2.15,2.15,0,0,0,.9-.17L217.17,152a2.31,2.31,0,0,0,0-4.1Z"/><path class="cls-11" d="M140,182.12l-23.08-10.25a2.22,2.22,0,0,0-2.89,1.19,2.31,2.31,0,0,0-.17.86v20.51a2.17,2.17,0,0,0,2.13,2.22,2.26,2.26,0,0,0,.93-.17L140,186.22a2.32,2.32,0,0,0,.93-3.17A2.38,2.38,0,0,0,140,182.12Z"/><path class="cls-8" d="M178.6,165l-23.08-10.25a2.22,2.22,0,0,0-2.9,1.16,2.11,2.11,0,0,0-.17.89v20.51a2.19,2.19,0,0,0,2.17,2.22,2.12,2.12,0,0,0,.9-.17l23.08-10.26a2.33,2.33,0,0,0,.94-3.17A2.4,2.4,0,0,0,178.6,165Z"/><path class="cls-12" d="M263.29,208.2v20.51a2.19,2.19,0,0,1-2.17,2.22,2.12,2.12,0,0,1-.9-.17l-23.09-10.25a2.33,2.33,0,0,1-.93-3.18,2.29,2.29,0,0,1,.93-.92l23.09-10.26a2.21,2.21,0,0,1,2.89,1.16A2,2,0,0,1,263.29,208.2Zm-3.07-36.31-23.09,10.25a2.33,2.33,0,0,0-.93,3.18,2.29,2.29,0,0,0,.93.92l23.09,10.26a2.21,2.21,0,0,0,2.89-1.16,2,2,0,0,0,.18-.89V173.94a2.19,2.19,0,0,0-2.17-2.22,2.12,2.12,0,0,0-.9.17Zm0-34.22-23.09,10.25a2.33,2.33,0,0,0-.93,3.18,2.29,2.29,0,0,0,.93.92l23.09,10.26a2.21,2.21,0,0,0,2.89-1.16,2,2,0,0,0,.18-.89V139.72a2.22,2.22,0,0,0-2.23-2.21,2.17,2.17,0,0,0-.84.16Zm0-34.22L237.13,113.7a2.31,2.31,0,0,0-1,3.13,2.27,2.27,0,0,0,1,1l23.09,10.26a2.23,2.23,0,0,0,3.07-2V105.5a2.22,2.22,0,0,0-2.23-2.21,2.17,2.17,0,0,0-.84.16Zm0-34.22L237.13,79.48a2.31,2.31,0,0,0-1,3.13,2.27,2.27,0,0,0,1,1l23.09,10.26a2.23,2.23,0,0,0,3.07-2V71.28a2.22,2.22,0,0,0-2.23-2.21,2.17,2.17,0,0,0-.84.16ZM221.63,189l-23.06,10.25a2.32,2.32,0,0,0-1.14,3.08,2.36,2.36,0,0,0,1.14,1.13l23.06,10.25a2.24,2.24,0,0,0,2.91-1.21,2.21,2.21,0,0,0,.17-.84v-20.5a2.24,2.24,0,0,0-3.08-2.16Zm0-34.2L198.57,165a2.32,2.32,0,0,0,0,4.11l23.06,10.25a2.23,2.23,0,0,0,2.9-1.16,2.28,2.28,0,0,0,.18-.89V156.84a2.2,2.2,0,0,0-2.18-2.22,2.12,2.12,0,0,0-.9.17Zm0-34.22-23.06,10.25a2.32,2.32,0,0,0,0,4.11l23.06,10.25a2.23,2.23,0,0,0,2.9-1.16,2.28,2.28,0,0,0,.18-.89V122.62a2.2,2.2,0,0,0-2.18-2.22,2.12,2.12,0,0,0-.9.17Zm0-34.22L198.57,96.6a2.32,2.32,0,0,0,0,4.11L221.63,111a2.23,2.23,0,0,0,2.9-1.16,2.28,2.28,0,0,0,.18-.89V88.4a2.2,2.2,0,0,0-2.18-2.22,2.12,2.12,0,0,0-.9.17ZM183,171.89,160,182.14a2.33,2.33,0,0,0-.93,3.18,2.29,2.29,0,0,0,.93.92L183,196.5a2.23,2.23,0,0,0,2.9-1.16,2.28,2.28,0,0,0,.18-.89V173.94a2.19,2.19,0,0,0-2.18-2.22A2.15,2.15,0,0,0,183,171.89Zm-38.56-17.1L121.4,165a2.34,2.34,0,0,0-.94,3.18,2.4,2.4,0,0,0,.94.93l23.08,10.25a2.23,2.23,0,0,0,2.9-1.16,2.11,2.11,0,0,0,.17-.89V156.84a2.19,2.19,0,0,0-2.17-2.22A2.12,2.12,0,0,0,144.48,154.79ZM183,137.67,160,147.92a2.33,2.33,0,0,0-.93,3.18,2.29,2.29,0,0,0,.93.92L183,162.28a2.23,2.23,0,0,0,2.9-1.16,2.28,2.28,0,0,0,.18-.89V139.72a2.22,2.22,0,0,0-2.23-2.21A2.25,2.25,0,0,0,183,137.67Zm-77.15,0L82.83,147.92a2.31,2.31,0,0,0-1,3.13,2.24,2.24,0,0,0,1,1l23.06,10.26a2.23,2.23,0,0,0,2.9-1.16,2.28,2.28,0,0,0,.18-.89V139.72a2.22,2.22,0,0,0-2.23-2.21A2.25,2.25,0,0,0,105.89,137.67ZM183,103.45,160,113.7a2.31,2.31,0,0,0-1,3.13,2.24,2.24,0,0,0,1,1L183,128.06a2.24,2.24,0,0,0,2.91-1.21,2.21,2.21,0,0,0,.17-.84V105.5a2.22,2.22,0,0,0-2.23-2.21A2.25,2.25,0,0,0,183,103.45Zm-38.56,17.12L121.4,130.82a2.34,2.34,0,0,0-.94,3.18,2.4,2.4,0,0,0,.94.93l23.08,10.25a2.23,2.23,0,0,0,2.9-1.16,2.11,2.11,0,0,0,.17-.89V122.62a2.19,2.19,0,0,0-2.17-2.22A2.12,2.12,0,0,0,144.48,120.57Z"/></svg>