<svg id="Layer_1" data-name="Layer 1" xmlns="http://www.w3.org/2000/svg" viewBox="0 0 300 300"><path d="M217.52212,268.58668c-34.95028,0-47.9737-29.38652-47.9737-47.90078V173.72579c0-24.00508,0-36.55452-4.86373-46.00488a28.01565,28.01565,0,0,0-53.23119,11.90046c0,9.69829,4.49184,18.95906,12.73174,24.14363,9.03472,6.61379,19.34552,7.77321,27.58542,8.53157,5.57834.51773,8.88889,4.28037,9.02743,9.01283l.0875,2.97511H125.88426c-33.27314,0-59.29808-10.44207-75.20181-30.21782-14.20471-17.56629-19.17053-43.4454-13.20572-67.15151a73.08571,73.08571,0,0,1,37.37121-46.4278c21.73729-11.06918,47.63827-12.06817,69.27347-2.68344,42.00889,18.22986,46.54448,58.45222,46.54448,74.91014v96.70576c0,13.74532,10.66082,24.90928,24.40615,24.90928s24.253-10.88687,24.253-24.63219c0-10.57331-7.569-22.05813-19.68825-24.61031a90.96114,90.96114,0,0,0-10.79937-.72919c-5.94293-.16772-9.47952-4.37517-9.47952-10.20872v-1.84486h18.14236c29.299,0,47.49973,18.30278,47.49973,47.84245C264.99268,254.96531,239.398,268.58668,217.52212,268.58668Z" fill="#104970"/></svg>