<svg id="Layer_1" data-name="Layer 1" xmlns="http://www.w3.org/2000/svg" viewBox="0 0 300 300"><path id="Vector" d="M10,198.94627V103.54309H24.93547l29.883,75.15684,29.88327-75.15684H99.6369v95.40318H87.68368V127.397L58.90839,198.94627h-8.338L21.95321,127.397v71.54929Z" fill="#221f20"/><path id="Vector_2" data-name="Vector 2" d="M139.29465,198.94627V103.54309h41.20323q14.15048,0,22.641,7.70032,8.48993,7.54238,8.4959,20.27094a26.10705,26.10705,0,0,1-4.09006,14.29535,23.78548,23.78548,0,0,1-11.47837,9.10915,27.37214,27.37214,0,0,1,8.1801,8.76927A22.70464,22.70464,0,0,1,207.3868,175.129l.63272,18.4856a8.62149,8.62149,0,0,0,1.72837,4.22694l.63332,1.09279H198.428l-.31638-.63159c-1.36372-2.29523-2.04529-4.081-2.04529-5.33167l-.63275-17.89035q0-6.90525-6.13478-11.29548a22.49646,22.49646,0,0,0-13.52369-4.081H151.24786v39.23005H139.29465Zm11.95321-49.89372h29.25q8.65523,0,13.99852-4.74891a16.83651,16.83651,0,0,0,5.18513-12.82575c0-5.28333-1.72838-9.33993-5.18513-12.5099q-5.34954-4.755-13.99852-4.74891h-29.25Z" fill="#221f20"/><path id="Vector_3" data-name="Vector 3" d="M210.83105,198.94627l31.13686-95.40318h15.41l31.13687,95.40318H276.56152L266.97,170.3926H232.37638l-9.59211,28.55367Zm25.00207-39.23006h27.6801l-13.84006-41.27048Z" fill="#221f20"/><path id="Vector_4" data-name="Vector 4" d="M113.07539,198.94627V103.54309H125.0286v95.40318Z" fill="#221f20"/><path id="Vector_20" data-name="Vector 20" d="M284.92451,101.05373v.65586h-1.266v3.30359h-.79121v-3.30359h-1.266v-.65586Zm4.2968,3.95945-.146-2.33194c-.0125-.30364-.0125-.68015-.02442-1.10525h-.04885c-.09712.35222-.21923.81375-.34079,1.17812l-.71849,2.19835h-.81506l-.71851-2.25908c-.07269-.30364-.19481-.77731-.28-1.11739h-.04829c0,.36437-.0125.74088-.02443,1.10525l-.146,2.33194h-.75486l.29195-3.95945h1.18084L287.31,102.997c.0852.30364.15848.59514.2681,1.00808h.01193c.09712-.36436.19481-.70444.28-.99593l.68159-1.95544h1.14449L290,105.01318h-.77869Z" fill="#221f20"/></svg>