<svg id="Layer_1" data-name="Layer 1" xmlns="http://www.w3.org/2000/svg" viewBox="0 0 300 300"><path d="M148.56472,127.784c2.54274-1.43634,4.92112-3.0067,7.48034-4.18392,8.45422-3.88884,17.08577-4.32367,25.6184-.38519,9.10591,4.20309,13.95507,11.5037,14.0939,21.54061.1831,13.239.0454,26.48249.04456,39.72405,0,.14589-.01425.29177-.0264.52464a27.54808,27.54808,0,0,1-14.33814.00151V183.8683c0-11.64548.0375-23.29119-.0367-34.93619a24.09829,24.09829,0,0,0-.81706-5.85027,11.01237,11.01237,0,0,0-9.54088-8.66274,18.78431,18.78431,0,0,0-15.88532,4.61868c.197,1.81766.38883,3.57082.57483,5.32459a6.7278,6.7278,0,0,1,.028.70794q.002,19.50765.00121,39.0153v.90624a27.31877,27.31877,0,0,1-14.351.00875V183.868c0-11.29079.0396-22.58185-.03385-33.87217a30.18322,30.18322,0,0,0-.7571-6.65911,11.12316,11.12316,0,0,0-10.04685-8.99711,25.38636,25.38636,0,0,0-14.75263,2.741,3.0648,3.0648,0,0,0-.33905.23766v47.67188a27.67991,27.67991,0,0,1-14.34412.03339V130.6869a35.93516,35.93516,0,0,1,11.54566-6.94893,44.03735,44.03735,0,0,1,17.65567-3.18393c6.899.223,13.10028,2.31393,18.17742,7.19325C148.57777,127.807,148.65667,127.8492,148.56472,127.784Z" fill="#18314b"/><path d="M33.9103,191.05236a12.88412,12.88412,0,1,1,12.82549,12.88426A12.92739,12.92739,0,0,1,33.9103,191.05236Z" fill="#004c8b"/><path d="M146.00708,263.09469a12.87463,12.87463,0,1,1,12.83918,12.86415A12.92817,12.92817,0,0,1,146.00708,263.09469Z" fill="#004c8b"/><path d="M269.99465,182.90691c-.22491,7.56392-5.98451,12.95062-13.62761,12.74525-6.809-.18293-12.29231-6.28982-12.09714-13.47282a12.87075,12.87075,0,0,1,25.72475.72757Z" fill="#004c8b"/><path d="M93.46638,62.22057A12.84422,12.84422,0,0,1,67.778,62.19178a12.84422,12.84422,0,1,1,25.68842.02879Z" fill="#004c8b"/><path d="M226.49262,54.56672a12.8472,12.8472,0,1,1-12.82047-12.83541A12.734,12.734,0,0,1,226.49262,54.56672Z" fill="#004c8b"/><path d="M42.76458,133.88609a12.77557,12.77557,0,1,1,12.82079-12.7284A12.80351,12.80351,0,0,1,42.76458,133.88609Z" fill="#007eb0"/><path d="M253.12063,100.13235a12.76957,12.76957,0,1,1-12.77665,12.763A12.7697,12.7697,0,0,1,253.12063,100.13235Z" fill="#007eb0"/><path d="M236.90236,237.69469a12.76861,12.76861,0,1,1-12.54544-12.83681A12.777,12.777,0,0,1,236.90236,237.69469Z" fill="#007eb0"/><path d="M103.87819,245.32179a12.76231,12.76231,0,1,1-25.52443-.08829,12.7623,12.7623,0,1,1,25.52443.08829Z" fill="#007eb0"/><path d="M145.87645,24.04094a12.766,12.766,0,1,1,.01915,25.53194,12.766,12.766,0,1,1-.01915-25.53194Z" fill="#007eb0"/><path d="M225.65386,105.04051a12.01245,12.01245,0,1,1,12.00062-11.94815A11.95958,11.95958,0,0,1,225.65386,105.04051Z" fill="#d81a5c"/><path d="M182.23274,247.98006a10.4371,10.4371,0,1,1,10.47216-10.4342A10.41738,10.41738,0,0,1,182.23274,247.98006Z" fill="#004c8b"/><path d="M82.08323,96.74629a10.43865,10.43865,0,1,1-10.29281-10.528A10.41587,10.41587,0,0,1,82.08323,96.74629Z" fill="#004c8b"/><path d="M86.19393,207.28549A10.44481,10.44481,0,1,1,75.7353,196.83208,10.43614,10.43614,0,0,1,86.19393,207.28549Z" fill="#004c8b"/><path d="M233.75714,151.25784a10.445,10.445,0,1,1,20.88963.13224,10.445,10.445,0,0,1-20.88963-.13224Z" fill="#004c8b"/><path d="M175.61154,48.14126A10.437,10.437,0,1,1,165.147,58.55567,10.34587,10.34587,0,0,1,175.61154,48.14126Z" fill="#004c8b"/><path d="M228.20784,217.62735a10.36387,10.36387,0,1,1,10.45644-9.90663A10.40519,10.40519,0,0,1,228.20784,217.62735Z" fill="#007eb0"/><path d="M127.79013,60.73139a10.38284,10.38284,0,1,1-20.7656-.05386,10.38284,10.38284,0,0,1,20.7656.05386Z" fill="#007eb0"/><path d="M113.74917,239.707a10.358,10.358,0,1,1,20.71578.07518,10.358,10.358,0,0,1-20.71578-.07518Z" fill="#007eb0"/><path d="M55.72219,162.99337a10.36485,10.36485,0,1,1,10.36886-10.2357A10.31694,10.31694,0,0,1,55.72219,162.99337Z" fill="#007eb0"/><path d="M154.50035,221.25279a8.77909,8.77909,0,0,1,8.801,8.76466,8.82446,8.82446,0,1,1-17.64888.03505A8.76282,8.76282,0,0,1,154.50035,221.25279Z" fill="#004c8b"/><path d="M193.67092,89.76743a8.81179,8.81179,0,0,1-.07673-17.62339,8.90717,8.90717,0,0,1,8.8651,8.83978A8.7951,8.7951,0,0,1,193.67092,89.76743Z" fill="#004c8b"/><path d="M74.35676,187.32009a8.76789,8.76789,0,1,1,8.78909-8.74292A8.7509,8.7509,0,0,1,74.35676,187.32009Z" fill="#004c8b"/><path d="M107.301,86.46369a8.76808,8.76808,0,1,1-8.70575-8.86283A8.73609,8.73609,0,0,1,107.301,86.46369Z" fill="#004c8b"/><path d="M228.43687,184.15882a8.77872,8.77872,0,1,1,8.82774-8.80823A8.766,8.766,0,0,1,228.43687,184.15882Z" fill="#004c8b"/><path d="M71.44132,137.25581a8.71306,8.71306,0,1,1,.06486-17.42595,8.71305,8.71305,0,1,1-.06486,17.426Z" fill="#007eb0"/><path d="M201.17129,203.183a8.69633,8.69633,0,1,1-8.76828,8.64181A8.50635,8.50635,0,0,1,201.17129,203.183Z" fill="#007eb0"/><path d="M234.244,125.46115a8.5219,8.5219,0,0,1-8.73885,8.62384,8.70862,8.70862,0,1,1,8.73885-8.62384Z" fill="#007eb0"/><path d="M97.272,217.28971c.21546-5.02217,3.8558-8.72452,8.78723-8.70263a8.7245,8.7245,0,0,1-.03571,17.44894C100.79951,226.00479,97.46171,222.05068,97.272,217.28971Z" fill="#007eb0"/><path d="M153.8901,68.27729a8.61446,8.61446,0,0,1-8.83168,8.6732,8.70587,8.70587,0,1,1,8.83168-8.6732Z" fill="#007eb0"/></svg>