<svg id="Layer_1" data-name="Layer 1" xmlns="http://www.w3.org/2000/svg" xmlns:xlink="http://www.w3.org/1999/xlink" viewBox="0 0 300 300"><defs><style>.cls-1{fill:none;}.cls-2{fill:#163e66;}.cls-3{fill:#fff;}.cls-4{clip-path:url(#clip-path);}.cls-5{fill:url(#linear-gradient);}</style><clipPath id="clip-path"><path class="cls-1" d="M220.91,59.26S240,60.69,240,88.73c0,11.84-5.15,35.26-11.21,63.28-3.76,17.44-7,33.64-5.41,48.81a63,63,0,0,0,3.78,17.42,63.89,63.89,0,0,0,8.48,15.67s-15.51-3.28-29.87-23.23c-10-13.85-12.42-32-11.49-54.29.85-20.72,7.7-56.27,7.7-70.9,0-21.78-17.19-26.21-17.19-26.21Z"/></clipPath><linearGradient id="linear-gradient" x1="-414.34" y1="155.42" x2="-407.47" y2="155.42" gradientTransform="matrix(1, 0, 0, -1, 0, 302)" gradientUnits="userSpaceOnUse"><stop offset="0" stop-color="#7fa2c6"/><stop offset="0.2" stop-color="#7ca1c7"/><stop offset="0.5" stop-color="#7da2c7"/><stop offset="0.6" stop-color="#84a7ca"/><stop offset="0.7" stop-color="#90afcf"/><stop offset="0.7" stop-color="#a1bbd6"/><stop offset="0.8" stop-color="#b7cbe0"/><stop offset="0.8" stop-color="#d2dfeb"/><stop offset="0.9" stop-color="#f2f5f9"/><stop offset="0.9" stop-color="#fff"/><stop offset="0.9" stop-color="#f6f8fb"/><stop offset="0.9" stop-color="#cad9e8"/><stop offset="0.9" stop-color="#a8c0da"/><stop offset="1" stop-color="#8fafcf"/><stop offset="1" stop-color="#81a4c9"/><stop offset="1" stop-color="#7ca1c7"/></linearGradient></defs><path id="Path_18" data-name="Path 18" class="cls-2" d="M295.43,150a145.44,145.44,0,1,1-11-55.68,145.46,145.46,0,0,1,11,55.68Z"/><path id="Path_19" data-name="Path 19" class="cls-3" d="M61.1,59.29H98.65s18.64,1.39,18.64,29.44c0,12.91-12.1,51.1-14.72,78.25-.43,3.43-.71,6.9-.82,10.38s-.19,7-.08,10.47.44,7,.82,10.47,1,6.92,1.72,10.3a65.73,65.73,0,0,0,1.72,7.28,61.93,61.93,0,0,0,2.53,7,60.11,60.11,0,0,0,3.19,6.79,64.18,64.18,0,0,0,3.85,6.37,61.06,61.06,0,0,1-8.18-4.17,77.25,77.25,0,0,1-7.61-5.23,80,80,0,0,1-13-12.84c-9.9-13.57-17.92-28-17.92-57.24C68.79,135.82,77,99.6,77,85,77,63.21,61.1,59.29,61.1,59.29Z"/><path id="Path_20" data-name="Path 20" class="cls-3" d="M122.45,59.29H160s19.79,1.39,19.79,29.44c0,12.91-8.59,50.94-12.27,78.33a115,115,0,0,0-1,16,124.26,124.26,0,0,0,1.23,16.11,109.49,109.49,0,0,0,3.43,15.7A114.56,114.56,0,0,0,176.67,230q2,4.59,4.26,8.92t4.9,8.5q2.63,4.17,5.57,8.1t6.13,7.68c2.21,2.46-29.61-13.16-46.62-33.69a91.93,91.93,0,0,1-16.52-31.48A100.17,100.17,0,0,1,131,180.47a92.4,92.4,0,0,1,.16-17.91c1.72-21.42,8.91-59.85,8.91-74.41a29.22,29.22,0,0,0-1-8.91,30.19,30.19,0,0,0-3.51-8.18,33.22,33.22,0,0,0-5.73-6.87,32.72,32.72,0,0,0-7.44-4.9Z"/><g id="Group_2" data-name="Group 2"><g class="cls-4"><g id="Clip-Path:_Group_1" data-name="Clip-Path: Group_1"><g id="Group_1" data-name="Group 1"><path id="Rectangle_3" data-name="Rectangle 3" class="cls-5" d="M184.77,59.29H240V233.87H184.77Z"/></g></g></g></g></svg>