<svg id="Layer_1" data-name="Layer 1" xmlns="http://www.w3.org/2000/svg" viewBox="0 0 300 300"><title>MNPR_Mark_Light</title><path d="M50,243.102c4.53112-9.19687,9.49777-17.8149,14.24334-26.548,9.8458-18.11886,19.835-36.16109,29.5411-54.35385,2.42051-4.53693,5.64508-6.37116,10.71736-6.238,11.30589.29678,22.621.24018,33.9321.35079,1.03508.01012,2.12124-.27191,3.21726.397v86.392Zm85.521-80.98542c-10.67426,0-20.92014-.02819-31.16568.0186-2.775.01266-4.48,1.74549-5.73339,4.03363q-6.507,11.8784-13.02936,23.74842c-5.1909,9.45911-10.40522,18.9055-15.56439,28.38181-3.29626,6.05454-6.511,12.15325-9.83763,18.37309H135.521Z" fill="#0b0a0e"/><path d="M250,243.16432H157.12211V156.74456h45.71783Zm-87.12-80.9628v74.51285h76.43045a7.77577,7.77577,0,0,0-.38653-1.248Q220.03875,200.89158,201.144,166.322a9.429,9.429,0,0,0-3.76575-4.12047Z" fill="#0b0a0e"/><path d="M198.89741,143.74542H103.29l47.76-86.90974C167.12817,86.03988,182.94456,114.76872,198.89741,143.74542Zm-80.87109-5.71592q33.95208.05685,67.90417.1014c.76743.00077,1.69854.29423,2.14749-.72509-1.76651-4.20878-4.21329-8.05924-6.39113-12.05064C172.946,109.33554,164.23419,93.29976,155.38468,77.34c-1.31781-2.37662-2.245-5.07224-4.6481-7.40782l-37.11546,67.705C115.2791,138.36447,116.66578,138.07005,118.02632,138.0295Z" fill="#0b0a0e"/><path d="M135.521,162.11654v74.55555H60.1905c3.32665-6.21984,6.54137-12.31855,9.83763-18.37309,5.15917-9.47631,10.37349-18.9227,15.56439-28.38181q6.51588-11.87355,13.02936-23.74842c1.25344-2.28814,2.95837-4.021,5.73339-4.03363C114.60081,162.08835,124.84669,162.11654,135.521,162.11654Z" fill="#971314"/><path d="M162.88,162.20152h34.49823A9.429,9.429,0,0,1,201.144,166.322q18.87973,34.57774,37.77994,69.14437a7.77577,7.77577,0,0,1,.38653,1.248H162.88Z" fill="#971314"/><path d="M118.02632,138.0295c-1.36054.04055-2.74722.335-4.4052-.39234l37.11546-67.705c2.40311,2.33558,3.33029,5.0312,4.6481,7.40782,8.84951,15.95975,17.56136,31.99553,26.30217,48.01516,2.17784,3.9914,4.62462,7.84186,6.39113,12.05064q-33.18794.00247-66.37584.03085C120.47588,137.43873,119.09584,136.90243,118.02632,138.0295Z" fill="#51397f"/><path d="M118.02632,138.0295c1.06952-1.12707,2.44956-.59077,3.67582-.59284q33.18784-.05581,66.37584-.03085c-.44895,1.01932-1.38006.72586-2.14749.72509Q151.9784,138.09677,118.02632,138.0295Z" fill="#533b80"/></svg>