<svg id="Layer_1" data-name="Layer 1" xmlns="http://www.w3.org/2000/svg" viewBox="0 0 300 300"><title>MLEC_Mark_Light</title><path d="M10,150.03315a50.7265,50.7265,0,0,1,41.893-49.72147,50.2154,50.2154,0,0,1,36.1732,7.21575c2.2078,1.37367,4.32856,3.02,6.72058,3.94a20.20942,20.20942,0,0,0,20.10482-2.70124,47.74535,47.74535,0,0,1,20.72805-8.50625c14.05108-2.267,26.83609.91138,38.37669,9.24085,6.42612,4.63805,16.71616,4.54453,23.07293-.10546a50.58894,50.58894,0,0,1,79.57028,30.69038c5.60467,27.17266-12.51968,54.30094-39.79451,59.45816a49.68354,49.68354,0,0,1-39.61174-8.79132,20.91586,20.91586,0,0,0-23.61246.05065,49.71621,49.71621,0,0,1-33.92445,9.53739,49.19587,49.19587,0,0,1-25.0937-9.26375,20.96311,20.96311,0,0,0-24.53291-.0276C60.16573,212.47143,18.045,195.68363,11.08205,159.527,10.48151,156.40857,10.3496,153.19991,10,150.03315Zm61.71247-.00532c-.33318-.5219-.57155-.88348-.79825-1.25222-2.791-4.53981-5.60862-9.06356-8.35775-13.62855-1.34806-2.23848-3.24862-2.768-5.81762-2.16244-1.8538.43692-2.70245,1.98823-2.70293,4.53228q-.00243,13.06352.00244,26.127a11.82342,11.82342,0,0,0,.08012,1.84416,3.69152,3.69152,0,0,0,4.63183,2.9526c1.95658-.52877,2.9244-1.8795,2.928-4.15066q.01193-7.62026-.00071-15.24055-.00014-.663,0-1.32595a4.91914,4.91914,0,0,1,1.13359,1.30716c1.81773,2.79634,3.64325,5.58773,5.44338,8.39536a3.789,3.789,0,0,0,4.08868,2.03288,4.31444,4.31444,0,0,0,2.76554-2.28444q2.88726-4.4154,5.75539-8.84328c.17636-.27083.37176-.5293.55831-.7935a2.97588,2.97588,0,0,1,.18329,1.19453c.00135,5.1891-.00741,10.37824.00909,15.5673a3.97508,3.97508,0,0,0,2.661,4.07143c2.68276.88281,5.1032-1.01116,5.109-4.05635q.02574-13.55334.00534-27.10678c-.00086-2.19632-.9819-3.715-2.71384-4.24428a4.65791,4.65791,0,0,0-5.61829,1.91055c-1.1021,1.74807-2.16812,3.51883-3.25268,5.278C75.81022,143.38818,73.81318,146.62308,71.71247,150.02783Zm86.78931,4.75439c.01624-7.89821-6.239-14.00956-14.37082-14.04014-8.37241-.03148-14.84747,6.03483-14.87238,13.93353a13.97346,13.97346,0,0,0,14.32373,14.17518C152.13731,168.87859,158.48511,162.89283,158.50178,154.78222Zm-33.51569-.13949c-.03516-7.90568-6.34717-13.91048-14.618-13.90658-8.307.00393-14.67111,6.21522-14.64187,14.2902.02842,7.85314,6.43031,13.8783,14.697,13.83212C118.76012,168.8119,125.02193,162.69939,124.98609,154.64273Zm60.71952,2.81358c.55214,0,1.02,0,1.488,0,4.42717-.00029,8.85436.01024,13.28148-.005,2.5835-.00889,3.9479-1.41866,3.93017-4.00319a12.8899,12.8899,0,0,0-16.01988-12.37443c-5.51427,1.29194-9.2468,5.50172-10.21334,11.51921a13.81121,13.81121,0,0,0,6.45261,14.36289c5.05468,2.92211,12.12993,2.47954,16.51552-1.0331a3.158,3.158,0,0,0,.83961-4.40859c-.98669-1.389-2.795-1.55276-4.45912-.5303a12.12339,12.12339,0,0,1-3.02226,1.42677C190.21956,163.59626,186.68836,161.62914,185.70561,157.45631Zm37.4443,11.36039c.47153,0,.94551.03164,1.41414-.00509a12.51633,12.51633,0,0,0,8.26934-3.653,3.13254,3.13254,0,0,0,.25193-4.17875,3.182,3.182,0,0,0-4.08737-.9022,12.384,12.384,0,0,0-1.2685.83767,6.96345,6.96345,0,0,1-10.35412-2.36,8.89728,8.89728,0,0,1-.77288-4.87757,6.55161,6.55161,0,0,1,7.96445-6.127,11.12808,11.12808,0,0,1,3.38956,1.612c2.2331,1.37157,5.02188.41309,5.54355-2.02412a3.58567,3.58567,0,0,0-1.76742-3.89451,14.59953,14.59953,0,0,0-11.85338-2.13115,13.86012,13.86012,0,0,0-10.87185,15.2563A13.72111,13.72111,0,0,0,223.14991,168.8167Zm-51.019-18.93214q0-7.23876.00135-14.47754a3.96383,3.96383,0,0,0-1.5317-3.43414,3.65041,3.65041,0,0,0-3.8992-.45649,3.6901,3.6901,0,0,0-2.27486,3.53782c-.03419,2.46688-.018,4.93449-.01853,7.40179q-.00247,10.88535.00018,21.77071a4.02719,4.02719,0,0,0,2.56934,4.12919,3.86265,3.86265,0,0,0,5.14831-3.885C172.14609,159.60887,172.13128,154.74669,172.13086,149.88456Z"/><path d="M290,119.5266l-1.13329-.38279v-3.04036c-.62668.74518-1.122,1.3342-1.72256,2.04829-.56421-.75047-.966-1.28488-1.52668-2.03065-.05163,1.18036-.094,2.14839-.13891,3.17465h-1.09894v-5.739l1.05257-.08006c.58859.916,1.14964,1.78925,1.78908,2.78451.61983-.97831,1.17088-1.84812,1.7201-2.715H290Z"/><path d="M280.57943,119.555v-4.79143l-1.80573-.20057v-1.015h4.65648l.14237,1.00629-1.78765.18619v4.36381Z"/><path d="M71.71247,150.02783c2.10071-3.40475,4.09775-6.63965,6.09286-9.87575,1.08456-1.75914,2.15058-3.5299,3.25268-5.278a4.65791,4.65791,0,0,1,5.61829-1.91055c1.73194.52927,2.713,2.048,2.71384,4.24428q.00541,13.5534-.00534,27.10678c-.00578,3.04519-2.42622,4.93916-5.109,4.05635a3.97508,3.97508,0,0,1-2.661-4.07143c-.0165-5.18906-.00774-10.3782-.00909-15.5673a2.97588,2.97588,0,0,0-.18329-1.19453c-.18655.2642-.382.52267-.55831.7935q-2.879,4.42083-5.75539,8.84328a4.31444,4.31444,0,0,1-2.76554,2.28444,3.789,3.789,0,0,1-4.08868-2.03288c-1.80013-2.80763-3.62565-5.599-5.44338-8.39536a4.91914,4.91914,0,0,0-1.13359-1.30716q0,.663,0,1.32595.00178,7.62027.00071,15.24055c-.00357,2.27116-.97139,3.62189-2.928,4.15066a3.69152,3.69152,0,0,1-4.63183-2.9526,11.82342,11.82342,0,0,1-.08012-1.84416q-.00682-13.06351-.00244-26.127c.00048-2.544.84913-4.09536,2.70293-4.53228,2.569-.60551,4.46956-.076,5.81762,2.16244,2.74913,4.565,5.56679,9.08874,8.35775,13.62855C71.14092,149.14435,71.37929,149.50593,71.71247,150.02783Z" fill="#fff"/><path d="M158.50178,154.78222c-.01667,8.11061-6.36447,14.09637-14.91947,14.06857a13.97346,13.97346,0,0,1-14.32373-14.17518c.02491-7.8987,6.5-13.965,14.87238-13.93353C152.26274,140.77266,158.518,146.884,158.50178,154.78222Zm-21.65051-.04857a7.16428,7.16428,0,0,0,7.06624,7.53237c4.08426.01766,7.02078-3.07053,7.01783-7.38025-.00294-4.26148-3.10356-7.56113-7.07976-7.53417C139.71219,147.3797,136.86522,150.3802,136.85127,154.73365Z" fill="#fff"/><path d="M124.98609,154.64273c.03584,8.05666-6.226,14.16917-14.56293,14.21574-8.26666.04618-14.66855-5.979-14.697-13.83212-.02924-8.075,6.3349-14.28627,14.64187-14.2902C118.63892,140.73225,124.95093,146.73705,124.98609,154.64273Zm-7.55645.26a7.2423,7.2423,0,0,0-7.1874-7.56251c-4.04052.04167-6.90347,3.097-6.91434,7.37892-.01085,4.26976,3.03955,7.533,7.05631,7.54854C114.47407,162.28352,117.423,159.20081,117.42964,154.90269Z" fill="#fff"/><path d="M185.70561,157.45631c.98275,4.17283,4.51395,6.13995,8.79276,4.95426a12.12339,12.12339,0,0,0,3.02226-1.42677c1.66413-1.02246,3.47243-.85869,4.45912.5303a3.158,3.158,0,0,1-.83961,4.40859c-4.38559,3.51264-11.46084,3.95521-16.51552,1.0331A13.81121,13.81121,0,0,1,178.172,152.5929c.96654-6.01749,4.69907-10.22727,10.21334-11.51921a12.8899,12.8899,0,0,1,16.01988,12.37443c.01773,2.58453-1.34667,3.9943-3.93017,4.00319-4.42712.01523-8.85431.0047-13.28148.005C186.72566,157.45633,186.25775,157.45631,185.70561,157.45631Zm-.00734-4.87086h11.2243a5.60158,5.60158,0,0,0-5.4376-5.69215A5.81918,5.81918,0,0,0,185.69827,152.58545Z" fill="#fff"/><path d="M223.14991,168.8167a13.72111,13.72111,0,0,1-14.14255-12.44733,13.86012,13.86012,0,0,1,10.87185-15.2563,14.59953,14.59953,0,0,1,11.85338,2.13115A3.58567,3.58567,0,0,1,233.5,147.13873c-.52167,2.43721-3.31045,3.39569-5.54355,2.02412a11.12808,11.12808,0,0,0-3.38956-1.612,6.55161,6.55161,0,0,0-7.96445,6.127,8.89728,8.89728,0,0,0,.77288,4.87757,6.96345,6.96345,0,0,0,10.35412,2.36,12.384,12.384,0,0,1,1.2685-.83767,3.182,3.182,0,0,1,4.08737.9022,3.13254,3.13254,0,0,1-.25193,4.17875,12.51633,12.51633,0,0,1-8.26934,3.653C224.09542,168.84834,223.62144,168.8167,223.14991,168.8167Z" fill="#fff"/><path d="M172.13107,149.88456c.00021,4.86213.015,9.72431-.00532,14.58636a3.86265,3.86265,0,0,1-5.14831,3.885,4.02719,4.02719,0,0,1-2.56934-4.12919q-.00529-10.88535-.00018-21.77071c.00056-2.4673-.01566-4.93491.01853-7.40179a3.6901,3.6901,0,0,1,2.27486-3.53782,3.65041,3.65041,0,0,1,3.8992.45649,3.96383,3.96383,0,0,1,1.5317,3.43414Q172.12707,142.6458,172.13107,149.88456Z" fill="#fff"/><path d="M136.85127,154.73365c.01395-4.35345,2.86092-7.35395,7.00431-7.38205,3.9762-.027,7.07682,3.27269,7.07976,7.53417.00295,4.30972-2.93357,7.39791-7.01783,7.38025A7.16428,7.16428,0,0,1,136.85127,154.73365Z"/><path d="M117.42964,154.90269c-.0066,4.29812-2.95557,7.38083-7.04543,7.36495-4.01676-.01559-7.06716-3.27878-7.05631-7.54854.01087-4.28193,2.87382-7.33725,6.91434-7.37892A7.2423,7.2423,0,0,1,117.42964,154.90269Z"/><path d="M185.69827,152.58545a5.81918,5.81918,0,0,1,5.7867-5.69215,5.60158,5.60158,0,0,1,5.4376,5.69215Z"/></svg>