<?xml version="1.0" encoding="UTF-8"?>
<svg xmlns="http://www.w3.org/2000/svg" version="1.1" xmlns:xlink="http://www.w3.org/1999/xlink" viewBox="0 0 300 300">
  <defs>
    <style>
      .cls-1 {
        fill: #172d73;
      }

      .cls-2 {
        fill: url(#linear-gradient);
      }
    </style>
    <linearGradient id="linear-gradient" x1="65" y1="150" x2="235" y2="150" gradientTransform="translate(0 300) scale(1 -1)" gradientUnits="userSpaceOnUse">
      <stop offset="0" stop-color="#172d73"/>
      <stop offset="0" stop-color="#1a3678"/>
      <stop offset=".4" stop-color="#3c80a1"/>
      <stop offset=".7" stop-color="#56b6c1"/>
      <stop offset=".9" stop-color="#67d9d5"/>
      <stop offset="1" stop-color="#6de6dd"/>
    </linearGradient>
  </defs>
  <!-- Generator: Adobe Illustrator 28.6.0, SVG Export Plug-In . SVG Version: 1.2.0 Build 709)  -->
  <g>
    <g id="Layer_1">
      <g>
        <g>
          <path class="cls-1" d="M96.4,155.1c0,.7-.6,1.2-1.2,1.3h-1.7c-.7,0-1.2-.6-1.3-1.3v-21.2c0-.7.6-1.2,1.3-1.3h1.9c.6,0,1.2.3,1.6.9l7.5,10.2,7.2-10.2c.4-.5,1-.8,1.6-.9h1.7c.7,0,1.2.6,1.3,1.3v21.2c0,.7-.6,1.2-1.3,1.3h-1.6c-.7,0-1.2-.6-1.3-1.3v-15.9l-6.2,8.7c-.4.5-.9.9-1.6.9-.7,0-1.3-.4-1.6-.9l-6.2-8.6v15.8Z"/>
          <path class="cls-1" d="M137.2,133.9c0-.7.6-1.2,1.3-1.3h1.6c.7,0,1.2.6,1.3,1.3v12.6c0,7.2-4.5,10.2-9.4,10.2s-10.1-3.5-10.1-10.4v-12.4c0-.7.6-1.2,1.3-1.3h1.7c.7,0,1.2.6,1.3,1.3v11.5c0,4.5,1.9,7.4,5.9,7.4s5.3-2.5,5.3-7.2v-11.7h0Z"/>
          <path class="cls-1" d="M153.9,147.5h-2.9v7.6c0,.7-.6,1.2-1.3,1.3h-1.7c-.7,0-1.2-.6-1.3-1.3v-21.2c0-.7.6-1.3,1.3-1.3,2.1,0,5.4,0,6,0,6.4,0,8.6,3.2,8.6,7.3.1,3-1.7,5.8-4.6,6.8l5.9,7.7c.2.2.3.5.3.8,0,.7-.5,1.2-1.2,1.2,0,0,0,0,0,0h-1.5c-.6,0-1.2-.3-1.6-.9l-6-8h0ZM153.7,143.6c2.4,0,4.5-1.2,4.5-3.7s-1-3.5-4.4-3.5-1.7,0-2.9,0v7h2.7Z"/>
          <path class="cls-1" d="M171.5,150.3l-2.1,5.1c-.2.6-.8.9-1.4.9h-1.2c-.7,0-1.3-.5-1.3-1.3,0,0,0,0,0,0,0-.2,0-.3.1-.5l8.9-21.1c.2-.6.8-.9,1.4-.9h1.6c.6,0,1.1.4,1.4.9l8.9,21.1c0,.1.1.3.1.5,0,.7-.5,1.3-1.2,1.3,0,0,0,0,0,0h-1.5c-.6,0-1.1-.4-1.4-.9l-2.1-5.1h-10.1ZM173.1,146.4h7l-3.5-8.4-3.5,8.4Z"/>
          <path class="cls-1" d="M206.1,155.1c0,.7-.6,1.2-1.3,1.3h-12.3c-.7,0-1.2-.6-1.3-1.3v-21.2c0-.7.6-1.2,1.3-1.3h1.7c.7,0,1.2.6,1.3,1.3v18.6h9.4c.7,0,1.2.6,1.3,1.3v1.3h0Z"/>
          <path class="cls-1" d="M97.8,159.8c3.5,0,6.1,2.3,6.1,6,0,3.2-2.5,5.9-5.7,6-.1,0-.3,0-.4,0-3.5,0-6.1-2.3-6.1-6,0-3.4,2.4-6,6.1-6ZM97.8,169.2c2.2,0,3.3-1.5,3.3-3.5.1-1.8-1.3-3.4-3.1-3.5,0,0-.2,0-.2,0-1.8,0-3.3,1.4-3.3,3.2,0,.1,0,.2,0,.3-.1,1.8,1.3,3.4,3.1,3.5,0,0,.1,0,.2,0h0Z"/>
          <path class="cls-1" d="M118,159.9c.4,0,.7.3.7.7v10c0,.4-.3.7-.7.7h-.8c-.4,0-.7-.2-.9-.5l-5.1-6.4v6.2c0,.4-.3.7-.7.7h-1c-.4,0-.7-.3-.7-.7v-10c0-.4.3-.7.7-.7h.8c.4,0,.7.2.9.5l5.1,6.5v-6.2c0-.4.3-.7.7-.7h1Z"/>
          <path class="cls-1" d="M129.5,162.2c-1.8,0-3.3,1.2-3.3,3.5,0,1.8,1.3,3.4,3.2,3.5.1,0,.2,0,.4,0,.6,0,1.2-.2,1.8-.5.1,0,.3-.1.5-.1.3,0,.5.2.7.4l.4.6c0,.1.1.3.1.4,0,.3-.1.5-.3.7-1,.6-2.1,1-3.3.9-3.6,0-6-2.4-6-6s2.1-6,6-6c1,0,1.9.2,2.8.7.2.1.4.4.4.7,0,.1,0,.2,0,.3l-.3.8c-.1.3-.4.5-.8.5-.1,0-.3,0-.4,0-.6-.2-1.1-.3-1.7-.3h0Z"/>
          <path class="cls-1" d="M142.6,159.8c3.5,0,6.1,2.3,6.1,6,0,3.2-2.5,5.9-5.7,6-.1,0-.3,0-.4,0-3.5,0-6.1-2.3-6.1-6,0-3.2,2.4-5.9,5.7-6,.1,0,.3,0,.4,0ZM142.6,169.2c2.2,0,3.3-1.5,3.3-3.5.1-1.8-1.3-3.4-3.1-3.5,0,0-.2,0-.2,0-1.8,0-3.3,1.4-3.3,3.2,0,.1,0,.2,0,.3,0,1.9,1.4,3.4,3.2,3.5,0,0,0,0,0,0h0Z"/>
          <path class="cls-1" d="M160.8,170.7c0,.4-.3.7-.7.8h-5.8c-.4,0-.7-.4-.7-.8v-10c0-.4.3-.7.7-.7h1.1c.4,0,.7.3.7.7v8.3h3.9c.4,0,.7.3.7.7v1c0,0,0,0,0,0Z"/>
          <path class="cls-1" d="M170.1,159.8c3.5,0,6.1,2.3,6.1,6,0,3.2-2.5,5.9-5.7,6-.1,0-.3,0-.4,0-3.5,0-6.1-2.3-6.1-6,0-3.4,2.4-6,6.1-6ZM170.1,169.2c2.2,0,3.3-1.5,3.3-3.5.1-1.8-1.3-3.4-3.1-3.5,0,0-.2,0-.2,0-1.8,0-3.3,1.4-3.3,3.2,0,.1,0,.2,0,.3,0,1.9,1.4,3.4,3.2,3.5,0,0,0,0,0,0h0Z"/>
          <path class="cls-1" d="M186.3,169.2c.6,0,1.3-.2,1.8-.6v-1.3h-1.7c-.4,0-.8-.3-.8-.7v-.9c0-.4.4-.7.8-.7h3.4c.4,0,.7.3.7.7v3.9c0,.4-.2.7-.5.9-1.1.8-2.5,1.2-3.9,1.3-4,0-6.2-2.4-6.2-6s2.3-6,5.8-6c1.1,0,2.1.2,3.1.7.3.1.5.4.5.7,0,.1,0,.2,0,.3l-.5.8c-.1.2-.4.4-.7.4-.1,0-.3,0-.4,0-.5-.3-1.1-.4-1.7-.4-1.9,0-3.4,1.1-3.4,3.5,0,1.9,1.5,3.4,3.4,3.5,0,0,.1,0,.2,0h0Z"/>
          <path class="cls-1" d="M199.5,164.3l2.2-3.9c.2-.3.5-.5.9-.5h.8c.4,0,.8.3.8.8,0,.1,0,.3-.1.4l-3.3,5.6v3.9c0,.4-.3.7-.7.7h-1.1c-.4,0-.7-.3-.7-.7v-3.8l-3.3-5.6c0-.1-.1-.3-.1-.4,0-.4.3-.8.8-.8h1c.4,0,.7.2.9.5l2.2,3.7h0Z"/>
        </g>
        <path class="cls-2" d="M117.6,73.3c-6.9,3.7-13.2,8.5-18.7,14.1,1.5-1,3-1.9,4.5-2.7s2.8-1.5,4.1-2.1c-6.5,4.1-12.2,9.6-13.8,12-2.6,3.2-3.9,5.3-4.5,6.6s-.4,1.6.2,1.4c1-.5,2-1.1,2.9-1.8,1.3-.8,2.6-1.9,4-2.7,1.8-1.3,1.9-.7,2.2-.3s.8.5,3.5-1.4c-2.9,2.6-5.5,5.5-8,8.6,0,.2.7-.4,1.4-1.4.9-.9,1.9-2.3,3-3.5.5-.6,1.1-1.2,1.6-1.7s1-.9,1.3-1.2c.7-.6,1.1-.7.7,0-3.5,2.9-6.4,7-9.1,10.7.9-.4,3.3-3.5,5.8-6.2s5.1-4.8,5.2-4.3c-.7.7-1.5,1.4-2.3,2.1-1,.9-2.2,1.9-3.3,2.9-2.1,2.1-3.8,4.3-3.6,5,0,.2,2.9-3.3,4.4-5-4.5,5.3-6.8,10.2-7.4,12.2-.3,1-.1,1.3.5.8s1.8-2,3.8-4.4c-2.5,3.4-5.8,8.4-7.3,12.8h0c.9-2.1,2.7-5.4,3.8-7.2-1.3,2.2-2.4,4.5-3.4,6.9l1-1c.5-.9.9-1.7,1.4-2.5s.9-1.7,1.4-2.5c-.5.8-.8,1.5-1.2,2.2-.4.7-.8,1.5-1.1,2.2.9-1,1.9-2.1,2.9-3.3,3.5-4.8,7.7-8.4,9.8-10.7,8.3-9.2,19.1-15.8,31.1-18.9,11.9-3.1,24.4-2.7,36,1.1.2-.4-.9-1.3,1.1-.9,2.9.8,5.7,2.1,8.2,3.9l1.8,1.2c.6.4,1.2.8,1.9,1.2,1.2.9,2.5,1.7,3.9,2.5.3-.1.5-.2.8-.3,4,3.3,7.5,7,10.5,11.2,3.2,3.6,5.9,7.6,8.2,11.8,2.3,4.2,4.1,8.7,5.4,13.4.2-.3.4-.5.8.4,1.3,5,1.8,10.1,1.5,15.3,0,.9,0,1.7,0,2.5,0,.4.2.7.5,1-.2,2.4-.5,4.8-1,7.1-3,23-17.9,42.7-39.1,51.9-7.6,3.3-15.7,5.2-24,5.6-1.8.2-3.6.3-5.4.3-1.8,0-3.7,0-5.4-.2-3.6-.2-7.1-.9-10.6-1.9-5.5-1.6-10.8-4.1-15.6-7.2-4.7-3.1-9.1-6.7-13-10.8-.2.8-1.5.3-3.3-.9-2.2-1.5-4.2-3.2-6-5.1-4.1-4-7.4-8.4-7.3-5.3-1.9-3.6-3.6-7.3-5.1-11-1.3-3.5-2.3-6.4-2.7-6.5-.9-.4-1.6-1-2.2-1.7-.5-.6-.9-1.2-1.3-1.8-.4-.7-.9-1.6-1.3-2.6-1.8-4-3.9-10.8-3.6-21.6.4-4.7,1.2-9.4,2.7-13.9.3-1.1.7-2.2,1-3.2s.7-1.9.9-2.7c.6-1.7,1.1-2.9,1.3-3.7.2-1,0-1-.4-.5s-1.1,1.8-1.8,3c-1.3,2.5-2.5,5-2.1,2.7-5.1,15.2-5.7,31.6-1.8,47.1,3.9,15.4,12,29.5,23.5,40.5,2.8,2.8,5.9,5.3,9.1,7.6,3.2,2.3,6.6,4.4,10,6.2,3.5,1.8,7.1,3.4,10.8,4.8,3.7,1.4,7.5,2.5,11.4,3.3,15.7,3.4,32,2.3,47.1-3.1,4.2-1.7,8.3-3.7,12.2-5.9,6.5-3.7,12.5-8.3,17.9-13.6,3.3-3.2,6.3-6.7,9-10.4,2.9-4.1,5.5-8.3,7.7-12.8,9.7-19.6,11.3-42.3,4.6-63.1-2.8-9.8-7.6-19-14-27-5.4-6.8-11.8-12.8-19-17.6-5.2-3.5-10.7-6.4-16.5-8.6-1.1-.4-2.1-.8-3.2-1.1-10.3-3.6-21.1-5-32-4.3-8.3.6-16.4,2.5-24.1,5.8-1.7.8-3.2,1.4-4.6,2.1"/>
      </g>
    </g>
  </g>
</svg>