<svg id="Layer_1" data-name="Layer 1" xmlns="http://www.w3.org/2000/svg" viewBox="0 0 300 300"><defs><style>.cls-1{fill:#658ca6;}.cls-2{fill:#03578d;}.cls-3{fill:#97b2c3;}.cls-4{fill:#063851;}.cls-5{fill:#3e6f8f;}</style></defs><path class="cls-1" d="M121.89,218.13c-.39-.34-.29-.75-.17-1.16C122.21,217.29,122.12,217.7,121.89,218.13Z"/><path class="cls-1" d="M118,218.79c.26-.34.48-.29.7,0A.48.48,0,0,1,118,218.79Z"/><path class="cls-1" d="M121.67,216.94a.66.66,0,0,1-.78-.09A.57.57,0,0,1,121.67,216.94Z"/><path class="cls-1" d="M103.66,216.88c-.14.15-.26.12-.36,0Z"/><path class="cls-2" d="M124.58,113.37a2,2,0,0,1,1.93-.56c13.17,1.54,26.22,3.81,39.19,6.49.28.63-.8.88-.38,1.67,1.1-.44,2.2-.85,3.29-1.31,4.72-2,9.57-3.6,14.15-5.9,3.14-1.17,5.85-3.14,8.76-4.72,2.22-1.2,4.37-2.5,6.86-3.94l-9.24-3.19,10-7.47c1.65-.8,3.32-1.58,4.95-2.42.71-.36,1.64-.46,2-1.39l.68-.17c2.73-.81,5.14-2.33,7.68-3.54,1.3-.62,2.79-1,3.77-2.17l.94-.17a21,21,0,0,1,4,.82c1.59.35,3,1.25,4.72,1.24.67-.23.35-.81.44-1.24a13.33,13.33,0,0,0-.18-6.52l-.24-3.51h.72c.53.51,1.19.32,1.81.31h1.08c1.33,4.33,2,8.82,3.06,13.22a.75.75,0,0,0,.23.94,2.09,2.09,0,0,0,1.11,2c-2,2-4.69,2.89-7.26,3.91a40,40,0,0,0-.63-8.36c-1.22,1.74-2.3,3.16-3.26,4.65-1.77,2.74-4,5.18-5.44,8.13l-.65.48q.42-6.92.83-13.83c0-.46.58-1-.26-1.36-1.88.76-3.1,2.36-4.45,3.72-5.3,5.32-10.48,10.77-15.76,16.23l8.12,5.82c-.93.82-2.06.28-3.09.44-5.64.87-11.32,1.32-17,1.78a6.55,6.55,0,0,0-3.46,1c.52.62,1.26,1,1.8,1.5,3.67,3.67,7.3,7.38,10.94,11.08l-.42.09-4.39-.8-23.77-4.18c-2.16-.39-4.16-.6-6.37.49-4.65,2.29-9.5,4.16-14.27,6.21-1.54.66-3.06,1.37-4.6,2.06l.07.4,34,9a1.93,1.93,0,0,0,0,.34L161,140q-17.34-.78-34.69-1.56c-2.21-.1-4.42-.3-6.62-.46v-.34l22.13-6.49c1-5.1,2-10,3-15l-.45-.2-25.54,21.82a5.27,5.27,0,0,1,.09-.89c1.67-6.29,3.41-12.56,5-18.88.35-1.37,1.23-2.69.78-4.22Z"/><path class="cls-3" d="M214.62,75.37c-.32.6.38.89.41,1.38l-.41,0c-.91-.14-.41-1-.72-1.43Z"/><path class="cls-1" d="M230.42,75.68c-.62,0-1.28.2-1.81-.31h1.79C230.41,75.47,230.41,75.57,230.42,75.68Z"/><path class="cls-3" d="M230.42,75.68c0-.11,0-.21,0-.31h1.08a.5.5,0,0,1,0,.32Z"/><path class="cls-4" d="M76.43,157.56,70,155.09a9.39,9.39,0,0,1,3.06-1.38c7.42-2.57,14.85-5.11,22.27-7.67.6-.21,1.29-.3,1.58-1.2-3.5-1.85-7-3.72-10.51-5.53-3.92-2-7.87-3.94-11.8-5.91,1.49-1.65,3.55-2.51,5.31-3.78,1.31-.94,2.69-1.75,4-2.67a1.93,1.93,0,0,1,1.82-.39c2.6,1.67,5.68,2.15,8.46,3.38,1.91.85,4.11,1.05,5.74,2.54A67.37,67.37,0,0,1,98.58,140c-1.27,4.31-.4,8.47.33,12.68.8,4.69,1.54,9.39,2.3,14.08a3.72,3.72,0,0,1-1.06-.06q-4.83-1.83-9.66-3.7Z"/><path class="cls-3" d="M144,202.92a5,5,0,0,1-2.71.43c-.15-.13-.3-.2-.32-.29-.51-2.71-2.5-3.86-4.76-5a141.07,141.07,0,0,0-19.94-8.7,10.42,10.42,0,0,1-1.08-.53c1.26-6.2,3.14-12.21,4.19-18.41,2,2.38,4,4.84,6.15,7.11,1.19,1.27,2.07,2.87,3.72,3.67.06,2.06,1.5,3.57,2,5.41l11,5a37.82,37.82,0,0,0-2.27-5.21c-1-2.07-2.51-3.89-2.84-6.26.91.26,1.35,1.1,2,1.69,2.5,2.34,4.72,5,7.37,7.15.25.2.3,0,.38-.18a1.35,1.35,0,0,1,.29-.05,4.54,4.54,0,0,0,.68,2.69c1.33,2.69,3.23,5.1,4,8.05-.55-.09-.79-.83-1.45-.69-1.17-2.36-3.44-3.66-5.38-6C144.66,196.48,144.34,199.7,144,202.92Z"/><path class="cls-4" d="M124.68,113.72c.45,1.53-.43,2.85-.78,4.22-1.59,6.32-3.33,12.59-5,18.88a5.27,5.27,0,0,0-.09.89l-.32.41c-5.58,2.49-10.95,5.38-16.27,8.35a21.26,21.26,0,0,0,3.84.49q8.75.42,17.48.8a5.9,5.9,0,0,1,1.13,1.79c1.32,2.16,2.06,4.66,3.8,6.58a.3.3,0,0,0,.51,0l1.7-.08a124.27,124.27,0,0,0,13.78.36,44.22,44.22,0,0,1-5.85,4.33c-3.44-.28-6.72-1.36-10.09-2-3-.57-5.89-1.31-8.89-1.65-.13-.72-.78-.83-1.29-1.11-2.24-1.24-4.46-2.49-6.71-3.69-3.31-1.76-6.63-3.48-9.95-5.22-.6-.45-.09-.91,0-1.37a113.79,113.79,0,0,0,6.83-9.33C113.93,128.85,119.29,121.27,124.68,113.72Z"/><path class="cls-1" d="M195.92,127.11l.42-.09.65,0c.28,1.91,1.9,2.91,2.92,4.3,1.51,2.05,3.11,4,4.77,6.17l.5-1.43h.49l0,1.24a1.85,1.85,0,0,0-.66,1.57c.27,2.83.38,5.69.8,8.5.23,1.54-.07,3.16.56,4.76.23-.24.4-.35.45-.5q3.53-9.72,7-19.44a.69.69,0,0,0-.3-.92c.27-.37.63-.31,1-.22,1.71,3.87,3.45,7.74,5.12,11.62.26.62,1,1.4-.13,2a2,2,0,0,0-1.47.51l-11.7,8c-2.21.41-4.41.86-6.63,1.21-2,.32-3.9,1-5.93.77v0c.65-8.94,2-17.81,2.86-26.72.11-.53-.16-.7-.63-.67Z"/><path class="cls-3" d="M228.61,178.32c1.94-3.34,3.29-7,5-10.32-.21-1.2-1.61-1.4-1.73-2.51,2.12-1.51,4.75-2,7.28-3.78-1.35.11-2.24.16-3.11.26-6.38.79-12.78,1.52-19.14,2.43-2.76.4-5.6.32-8.27,1.28a2.74,2.74,0,0,1-2-.1c0-.18,0-.37,0-.56.37-.53.75-1.07,1.11-1.61,2.17-3.26,4-6.73,6.38-9.86,3.44.51,6.61,1.93,9.91,2.91,5.3,1.57,10.55,3.32,15.85,5a46.48,46.48,0,0,1,.92,6.55,2.26,2.26,0,0,1-.4,1.52c-3.38,5.17-6.34,10.63-10.61,15.19a4.14,4.14,0,0,1-.71.51c0-.66-.07-1.31-.13-2C228.8,181.62,229.29,179.93,228.61,178.32Z"/><path class="cls-2" d="M74.61,133.4c3.93,2,7.88,3.91,11.8,5.91,3.52,1.81,7,3.68,10.51,5.53-.29.9-1,1-1.58,1.2-7.42,2.56-14.85,5.1-22.27,7.67A9.39,9.39,0,0,0,70,155.09c-.62-.14-.46-.56-.36-1Q72,144,74.34,133.85A1.92,1.92,0,0,1,74.61,133.4Z"/><path class="cls-2" d="M206.63,165c0,.19,0,.38,0,.56l-.52.18c-.33,0-.65.08-.77.46l-.32.23a1.07,1.07,0,0,0-1-.36c-2.78.14-5.57.23-8.34.45-5.12.42-10.24.92-15.36,1.39q-11.06-1.6-22-3.74A2,2,0,0,1,159,164c4.83,0,9.63-.34,14.44-.75,2.39,1.19,4.21,3.24,6.77,4.64,4.5-4.26,9.24-8.28,13.6-12.72,2,.23,4-.45,5.93-.77,2.22-.35,4.42-.8,6.63-1.21,0,2.32,0,4.64.06,6.95C206.44,161.74,206,163.41,206.63,165Z"/><path class="cls-2" d="M60,179l-5.93-2.49L74.26,166q9.45,3.27,18.89,6.53a.89.89,0,0,1,.63.77h0a67.83,67.83,0,0,0-8.4,1.4l-9.92,1.76c-1.11.19-2.22.39-3.34.57C68.09,177.71,64.12,178.78,60,179Z"/><path class="cls-1" d="M147.17,188.69a1.35,1.35,0,0,0-.29.05l-.36-.41c-1.35-3.75-2.62-7.53-4.06-11.25-1-2.58-1.44-5.39-3.1-7.7.2-1.43-.85-2.59-.82-4,.49-.12,1.07.19,1.46-.33l3.59-.11c.27.44.52.39.74,0l6.08-.32c.48.63.84.48,1.13-.18a30.17,30.17,0,0,1,5.78,0c-.82,3.11-2.34,5.94-3.57,8.89C151.6,178.46,149.37,183.57,147.17,188.69Z"/><path class="cls-3" d="M186.22,191.75c1.36-.48,1.93-1.88,3.15-2.75a49.57,49.57,0,0,1,5,1.53c2.62,1.11,5.21.79,7.79.09,1.32-.36,2.89,0,3.92-1.22,1.39.84,2.32,2.38,4.09,2.94a3.68,3.68,0,0,0-.7-2.07q-4.08-8-8.21-16.05a3.41,3.41,0,0,1-.65-2c2.35,1.69,3.95,4.11,5.91,6.17,3,3.15,5.84,6.45,8.81,9.75-2.08,3-3.74,6.09-8,6.44a54.58,54.58,0,0,0-8.21,1.75,12.32,12.32,0,0,0-4.08,1.25,9.67,9.67,0,0,1-7.61,1.28,33.07,33.07,0,0,1-4.09-3.3C184.2,194.2,185.88,193.47,186.22,191.75Z"/><path class="cls-3" d="M124.68,113.72c-5.39,7.55-10.75,15.13-16.18,22.65a113.79,113.79,0,0,1-6.83,9.33c0-3.31,1.13-6.43,1.59-9.66a6.93,6.93,0,0,0,.1-2.83,1.81,1.81,0,0,0,.72-1.19c.62-3.31,1.21-6.62,1.82-9.93,4.76-2.31,9.5-4.66,14.29-6.89,1.43-.67,2.68-1.83,4.39-1.83Z"/><path class="cls-1" d="M129.26,181.17c-1.65-.8-2.53-2.4-3.72-3.67-2.15-2.27-4.11-4.73-6.15-7.11-2.12-2.61-4.62-4.9-6.47-7.74a13.53,13.53,0,0,1,2.84-.05c7,1.23,14.14,1.48,21.17,2.55Q133.1,173.16,129.26,181.17Z"/><path class="cls-4" d="M150.42,198.74c.66-.14.9.6,1.45.69a6.63,6.63,0,0,1,1.31,1.91,19.66,19.66,0,0,0,5.08,7c1.22,1,1,2.49,1.51,3.87,2.45,2.33,5.68,4,7.87,6.77,1.17,1.47,1.6,3.53,2.49,5.6l-12.22-1c-.16-1.65.75-3,.76-4.56l-4-1.92-1.67.91a52.64,52.64,0,0,1-1.63-6,.6.6,0,0,0-.24-.78l-.6-2.57a2.88,2.88,0,0,0-.42-1.74C149.81,204.22,150.42,201.49,150.42,198.74Z"/><path class="cls-5" d="M93.78,173.33a.89.89,0,0,0-.63-.77Q83.7,169.32,74.26,166c.7-2.2,1.38-4.4,2.09-6.59a2.18,2.18,0,0,0,.08-1.88L90.49,163q4.83,1.86,9.66,3.7a3.72,3.72,0,0,0,1.06.06c-.18,1.28-1.37,1.72-2.18,2.38C97.31,170.59,96.06,172.62,93.78,173.33Z"/><path class="cls-3" d="M218.66,100.61l.65-.48a45,45,0,0,0,9.33-4.42c2.57-1,5.25-1.86,7.26-3.91.64.09.74.66,1,1.1-.37.23-.37.56-.29.94.61,2.89,1.15,5.79,1.84,8.66s.8,5.72,2,8.38a.7.7,0,0,1-.77.81c-5.4-2.75-10.78-5.53-16.2-8.22-1.24-.62-2.35-1.61-3.86-1.58l0,0v-.42c-.28-.39-.68-.35-1.09-.3Z"/><path class="cls-2" d="M205.67,136h-.49l2.25-23.39.4,0,2.34,10c2.08-4.63,3.79-9.2,5.42-13.8.81-2.28,1.94-4.47,2.26-6.91h0c1,.25.7,1.1.71,1.75q.18,10.39.34,20.78c0,.41-.08.85.31,1.15-.07.39-.15.77-.22,1.15-3.08-.49-5.61-2.45-8.7-3.3Z"/><path class="cls-1" d="M200.62,172.22a3.41,3.41,0,0,0,.65,2q4.11,8,8.21,16.05a3.68,3.68,0,0,1,.7,2.07c-1.77-.56-2.7-2.1-4.09-2.94l-15.61-12.53c-.27-.21-.61-.4-.6-.82a50.81,50.81,0,0,1,9.17-5.65A7,7,0,0,1,200.62,172.22Z"/><path class="cls-4" d="M143.59,165l-3.59.11a1,1,0,0,0,.06-.34l7.44-2.46,16.57-5.46,1.07-.05c.49.42,1,.85,1.47,1.26,2.22,1.78,4.7,3.23,6.78,5.19-4.81.41-9.61.78-14.44.75a2,2,0,0,0-.65.23l-1,.24a30.17,30.17,0,0,0-5.78,0,1,1,0,0,0-1.13.18l-6.08.32A.43.43,0,0,0,143.59,165Z"/><path class="cls-1" d="M189.14,101.91l9.24,3.19c-2.49,1.44-4.64,2.74-6.86,3.94-2.91,1.58-5.62,3.55-8.76,4.72l-7.69-2.35c.08-.54.53-.75.93-1,3.25-2.1,6.5-4.19,9.73-6.31.73-.48,1.67-.73,2-1.69l.12-.58Z"/><path class="cls-5" d="M140.06,164.73a1,1,0,0,1-.06.34c-.39.52-1,.21-1.46.33l-1.61-.25c-7-1.07-14.15-1.32-21.17-2.55a13.53,13.53,0,0,0-2.84.05l-.36-.32,7.07-5.24c3,.34,5.93,1.08,8.89,1.65,3.37.65,6.65,1.73,10.09,2-.08,1.27-.16,2.55-.23,3.74C139,164.92,139.55,164.58,140.06,164.73Z"/><path class="cls-4" d="M199.05,170.4a50.81,50.81,0,0,0-9.17,5.65c-2.41-1.24-4.17-3.29-6.22-5a12.75,12.75,0,0,1-3.33-3.14c5.11-.47,10.23-1,15.35-1.39,2.77-.22,5.56-.31,8.34-.45a1.07,1.07,0,0,1,1,.36C203.13,168,200.78,168.7,199.05,170.4Z"/><path class="cls-1" d="M105.9,122.09c-.61,3.31-1.2,6.62-1.82,9.93a1.81,1.81,0,0,1-.72,1.19c-1.16-.16-2.12-1.21-3.41-.73-1.63-1.49-3.83-1.69-5.74-2.54-2.78-1.23-5.86-1.71-8.46-3.38.59-.77,1.52-.62,2.3-.78,4.71-1,9.43-1.94,14.15-2.9a.6.6,0,0,0,.93-.3Z"/><path class="cls-1" d="M150.42,198.74c0,2.75-.61,5.48-.36,8.25-.66.47-.35,1.16-.38,1.77q-.33,4.26-.64,8.52l-.49.19-6.63-10.29,4.13-3c-.56-.78-1.44-.75-2-1.22.33-3.22.65-6.44,1-10.17C147,195.08,149.25,196.38,150.42,198.74Z"/><path class="cls-4" d="M189.14,101.91l-1.3-.08-.79-.16a.31.31,0,0,0-.47,0l-17.05-2.42,0-.46,29.63-4.61a.23.23,0,0,0,0,.3Z"/><path class="cls-2" d="M239.7,111.69a.7.7,0,0,0,.77-.81A52.4,52.4,0,0,0,242.3,104c.19-.73-.07-1.74,1-2.1l4.44,10.68c-2.64.29-5.27-.59-8.11-.18v9.45c-4-3.69-8-7.44-11.73-11.37a47.1,47.1,0,0,0,4.71.63C235,111.23,237.29,111.91,239.7,111.69Z"/><path class="cls-1" d="M219.2,125.57c-.39-.3-.3-.74-.31-1.15q-.16-10.4-.34-20.78c0-.65.33-1.5-.71-1.75,0-.46.35-.61.73-.7s.81-.09,1.09.3l-.25.22.25.2,0,0,.6.84c1.65,2.22,4,3.79,5.52,6.14-.14,1.83-1.09,3.38-1.72,5-1.32,3.46-2.68,6.9-4,10.34C219.81,124.72,219.81,125.34,219.2,125.57Z"/><path class="cls-1" d="M239.6,121.88v-9.45c2.84-.41,5.47.47,8.11.18.3.11.34.38.35.65a1.26,1.26,0,0,0-.46,1.1q-.49,6.65-1,13.28A48.32,48.32,0,0,1,239.6,121.88Z"/><path class="cls-1" d="M228.61,178.32c.68,1.61.19,3.3.34,5,.06.65.09,1.3.13,2-1.25.63-2.14-.4-3.07-.83a7.24,7.24,0,0,0-5-.84c-3.73.92-5.44-2.22-8.34-4l10-4.86c1.71,1.27,1.58,2.92,1.23,4.49a2.93,2.93,0,0,0,1.64,1.24c.82-.43.4-1.33.8-1.95C227.08,178,227.86,178.34,228.61,178.32Z"/><path class="cls-2" d="M119.63,157.09l-7.07,5.24c-3.82-5-7.43-10.05-10.88-15.26,3.32,1.74,6.64,3.46,9.95,5.22,2.25,1.2,4.47,2.45,6.71,3.69C118.85,156.26,119.5,156.37,119.63,157.09Z"/><path class="cls-3" d="M60,179c4.11-.26,8.08-1.33,12.12-2,1.12-.18,2.23-.38,3.34-.57l-.38.69c-1.81.89-3.67,1.69-5.44,2.68-1.94,1.09-4.18,1.73-5.72,3.49-2.1,0-3.58,1.44-5.31,2.26-3.66,1.74-7.21,3.68-10.82,5.51a1.67,1.67,0,0,1-1.58.22,73.54,73.54,0,0,1,6.21-5.43c2.44-2.09,4.9-4.14,7.34-6.23C59.92,179.54,59.93,179.25,60,179Z"/><path class="cls-1" d="M186.22,191.75c-.34,1.72-2,2.45-2.85,3.81-3.32-1.95-7.55-1.05-10.76-3.38a15.28,15.28,0,0,0-1.41-.77l9.78-6.72c2.86,1.57,3.39,2.49,3.92,6.77C185.25,191.91,185.78,191.63,186.22,191.75Z"/><path class="cls-4" d="M206.63,165c-.62-1.61-.19-3.28-.25-4.92-.09-2.31,0-4.63-.06-6.95l11.7-8a2,2,0,0,1,1.47-.51l-5.37,9c-2.38,3.13-4.21,6.6-6.38,9.86C207.38,164,207,164.49,206.63,165Z"/><path class="cls-5" d="M75.09,177.17l.38-.69,9.92-1.76a67.83,67.83,0,0,1,8.4-1.4c-4,2.75-8.24,5-12.36,7.46a84.93,84.93,0,0,1-9.21,5l3.8-7.84c-.25-.48-.55-.25-.82-.22C75.17,177.52,75.13,177.34,75.09,177.17Z"/><path class="cls-2" d="M187.72,102.41c-.32,1-1.26,1.21-2,1.69-3.23,2.12-6.48,4.21-9.73,6.31-.4.25-.85.46-.93,1l-1.34.38h0c.06-.28,0-.49-.3-.58l-9.2-3.16C172.05,106,179.83,103.94,187.72,102.41Z"/><path class="cls-3" d="M205.67,136l4.61-12.59c3.09.85,5.62,2.81,8.7,3.3-.86,1.31-2.32,1.92-3.41,3-.42.41-1,.66-1.07,1.32-.36-.09-.72-.15-1,.22l-7.87,6Z"/><path class="cls-3" d="M218.21,84.75c-1,1.2-2.47,1.55-3.77,2.17-2.54,1.21-4.95,2.73-7.68,3.54l-6.67-7.77,13.42,1.13c1,.08,2,.13,3,.22C217.15,84.09,217.85,84,218.21,84.75Z"/><path class="cls-2" d="M246.59,127.64q.51-6.65,1-13.28a1.26,1.26,0,0,1,.46-1.1l6.41,10.39A52,52,0,0,1,246.59,127.64Z"/><path class="cls-3" d="M173.73,111.79l1.34-.38,7.69,2.35c-4.58,2.3-9.43,3.94-14.15,5.9-1.09.46-2.19.87-3.29,1.31-.42-.79.66-1,.38-1.67.42-.16.91-.24.85-.87C169.43,116.74,171.49,114.17,173.73,111.79Z"/><path class="cls-4" d="M75.09,177.17c0,.17.08.35.11.52q-8.45,8.12-16.91,16.21l-.3-.26,5.94-10.3c1.54-1.76,3.78-2.4,5.72-3.49C71.42,178.86,73.28,178.06,75.09,177.17Z"/><path class="cls-4" d="M225.76,108.87c-1.5-2.35-3.87-3.92-5.52-6.14l-.6-.84c1.51,0,2.62,1,3.86,1.58,5.42,2.69,10.8,5.47,16.2,8.22-2.41.22-4.74-.46-7.12-.55a47.1,47.1,0,0,1-4.71-.63C227,110.13,226.67,109.15,225.76,108.87Z"/><path class="cls-4" d="M173.73,111.79c-2.24,2.38-4.3,4.95-7.18,6.64l-8.6-3.88,0-.4,15.45-2.57.38.2Z"/><path class="cls-2" d="M208.6,165.68c2.67-1,5.51-.88,8.27-1.28,6.36-.91,12.76-1.64,19.14-2.43.87-.1,1.76-.15,3.11-.26-2.53,1.74-5.16,2.27-7.28,3.78Z"/><path class="cls-1" d="M243.27,101.93c-1,.36-.78,1.37-1,2.1a52.4,52.4,0,0,1-1.83,6.85c-1.22-2.66-1.35-5.58-2-8.38s-1.23-5.77-1.84-8.66c-.08-.38-.08-.71.29-.94C239.06,95.88,241.47,98.69,243.27,101.93Z"/><path class="cls-1" d="M199.18,94.44a.23.23,0,0,1,0-.3c.19-.86-.54-1.1-1-1.49-2.21-1.78-4.43-3.56-6.57-5.47,4.85,1.16,9.8,1.76,14.49,3.45-.31.93-1.24,1-2,1.39C202.5,92.86,200.83,93.64,199.18,94.44Z"/><path class="cls-1" d="M214.62,76.8l.41,0,12.84,9.89c-1.68,0-3.13-.89-4.72-1.24a21,21,0,0,0-4-.82c.36-.68-.15-1.1-.46-1.58C217.34,80.93,216,78.87,214.62,76.8Z"/><path class="cls-3" d="M149.68,208.76c0-.61-.28-1.3.38-1.77a2.88,2.88,0,0,1,.42,1.74Z"/><path class="cls-3" d="M234.79,89.85a.75.75,0,0,1-.23-.94A.61.61,0,0,1,234.79,89.85Z"/><path class="cls-3" d="M151.08,211.3a.6.6,0,0,1,.24.78C151,211.91,150.73,211.7,151.08,211.3Z"/><path class="cls-3" d="M103.13,122.58a.6.6,0,0,1-.93.3C102.44,122.57,102.72,122.36,103.13,122.58Z"/><path class="cls-3" d="M46,191.78c0,.27-.13.38-.41.3C45.48,191.7,45.62,191.62,46,191.78Z"/><path class="cls-4" d="M205.3,166.22c.12-.38.44-.43.77-.46Z"/><path class="cls-1" d="M186.58,101.63a.31.31,0,0,1,.47,0A.3.3,0,0,1,186.58,101.63Z"/><path class="cls-1" d="M173.74,111.78l-.38-.2.08-.38C173.74,111.29,173.8,111.5,173.74,111.78Z"/><path class="cls-3" d="M130.68,156.06l-1.7.08h-.51c-1.74-1.92-2.48-4.42-3.8-6.58a5.9,5.9,0,0,0-1.13-1.79,70.16,70.16,0,0,0-5.05-9.64l.32-.41,25.54-21.82.45.2c-1,5-2,9.91-3,15l-22.13,6.49v.34c2.2.16,4.41.36,6.62.46q17.34.81,34.69,1.56l15.56.67c0,.8-.66.91-1.21,1.08-1.59.51-3.18,1-4.77,1.47q-11.38,3.56-22.78,7.1c-5.33,1.65-10.68,3.24-16,4.89C131.37,155.3,130.69,155.29,130.68,156.06Z"/><path class="cls-3" d="M195.92,127.11c0,.22.05.43.08.65-.19.15-.37.31-.56.45l-16.73,12.52-.48.14a2.2,2.2,0,0,0-1.62-.59l-34-9-.07-.4c1.54-.69,3.06-1.4,4.6-2.06,4.77-2.05,9.62-3.92,14.27-6.21,2.21-1.09,4.21-.88,6.37-.49l23.77,4.18Z"/><path class="cls-1" d="M176.61,140.28a2.2,2.2,0,0,1,1.62.59c-2.18,2.59-4.39,5.17-6.53,7.79s-4.58,4.82-6.29,7.71l-.27.39-1.07.05c-.53-.6-1.23-.35-1.86-.36l-17.75,0a124.27,124.27,0,0,1-13.78-.36c0-.77.69-.76,1.15-.9,5.33-1.65,10.68-3.24,16-4.89q11.4-3.53,22.78-7.1c1.59-.49,3.18-1,4.77-1.47.55-.17,1.2-.28,1.21-1.08A1.93,1.93,0,0,1,176.61,140.28Z"/><path class="cls-5" d="M197,127l-.65,0c-3.64-3.7-7.27-7.41-10.94-11.08-.54-.54-1.28-.88-1.8-1.5a6.55,6.55,0,0,1,3.46-1c5.67-.46,11.35-.91,17-1.78,1-.16,2.16.38,3.09-.44l.47-.08a7.62,7.62,0,0,1-.44,1Q202.09,119.54,197,127Z"/><path class="cls-1" d="M207.61,111.1l-.47.09L199,105.37c5.28-5.46,10.46-10.91,15.76-16.23,1.35-1.36,2.57-3,4.45-3.72-2.55,5.64-5.18,11.25-7.62,16.93-1.22,2.83-2.82,5.51-3.59,8.53Z"/><path class="cls-4" d="M208,110.88c.77-3,2.37-5.7,3.59-8.53,2.44-5.68,5.07-11.29,7.62-16.93.84.31.29.9.26,1.36q-.41,6.91-.83,13.83l-.09.58c-.38.09-.7.24-.73.7h0c-.72,0-1,.62-1.39,1C213.63,105.54,210.83,108.21,208,110.88Z"/><path class="cls-1" d="M228.64,95.71a45,45,0,0,1-9.33,4.42c1.44-2.95,3.67-5.39,5.44-8.13,1-1.49,2-2.91,3.26-4.65A40,40,0,0,1,228.64,95.71Z"/><path class="cls-1" d="M228.31,85.4a23.36,23.36,0,0,1-.18-6.52A13.33,13.33,0,0,1,228.31,85.4Z"/><path class="cls-4" d="M137.15,180.08l-1.24-1.5c1.13-3,2.29-6.12,3.45-9.2,1.66,2.31,2.1,5.12,3.1,7.7,1.44,3.72,2.71,7.5,4.06,11.25,0,.2,0,.39,0,.59-2.65-2.19-4.87-4.81-7.37-7.15C138.5,181.18,138.06,180.34,137.15,180.08Z"/><path class="cls-5" d="M146.5,188.92c0-.2,0-.39,0-.59l.36.41C146.8,188.89,146.75,189.12,146.5,188.92Z"/><path class="cls-1" d="M118.49,138.12a70.16,70.16,0,0,1,5.05,9.64q-8.75-.39-17.48-.8a21.26,21.26,0,0,1-3.84-.49C107.54,143.5,112.91,140.61,118.49,138.12Z"/><path class="cls-3" d="M144.46,156.42l17.75,0c.63,0,1.33-.24,1.86.36l-16.57,5.46-7.44,2.46c-.51-.15-1.06.19-1.68-.24.07-1.19.15-2.47.23-3.74A44.22,44.22,0,0,0,144.46,156.42Z"/><path class="cls-1" d="M128.47,156.13H129A.3.3,0,0,1,128.47,156.13Z"/><path class="cls-4" d="M165.41,156.37c1.71-2.89,4.2-5.14,6.29-7.71s4.35-5.2,6.53-7.79l.48-.15a50,50,0,0,0,4.8,8.89,2.08,2.08,0,0,0,1.38-1.19c3-5.46,6-10.95,9.14-16.35.74-1.26,1-3,2.6-3.64-.9,8.91-2.21,17.78-2.86,26.72-.85.15-1.46-.4-2.14-.74l-7.88-4.08Z"/><path class="cls-3" d="M165.41,156.37l18.34-6,7.88,4.08c.68.34,1.29.89,2.14.74v0c-4.36,4.44-9.1,8.46-13.6,12.72-2.56-1.4-4.38-3.45-6.77-4.64-2.08-2-4.56-3.41-6.78-5.19-.5-.41-1-.84-1.47-1.26Z"/><path class="cls-3" d="M208,110.88c2.81-2.67,5.61-5.34,8.44-8,.41-.38.67-1,1.39-1-.32,2.44-1.45,4.63-2.26,6.91-1.63,4.6-3.34,9.17-5.42,13.8l-2.34-10-.4,0L205.18,136l-.5,1.43c-1.66-2.14-3.26-4.12-4.77-6.17-1-1.39-2.64-2.39-2.92-4.3q5.1-7.45,10.18-14.91a7.62,7.62,0,0,0,.44-1Z"/><path class="cls-2" d="M196.63,128.43c-1.63.66-1.86,2.38-2.6,3.64-3.14,5.4-6.11,10.89-9.14,16.35a2.08,2.08,0,0,1-1.38,1.19,50,50,0,0,1-4.8-8.89l16.73-12.51c.19-.14.37-.3.56-.45C196.47,127.73,196.74,127.9,196.63,128.43Z"/><path class="cls-2" d="M205.64,137.25l7.87-6a.69.69,0,0,1,.3.92q-3.51,9.72-7,19.44c0,.15-.22.26-.45.5-.63-1.6-.33-3.22-.56-4.76-.42-2.81-.53-5.67-.8-8.5A1.85,1.85,0,0,1,205.64,137.25Z"/><path class="cls-5" d="M150.41,164.6a1,1,0,0,1,1.13-.18C151.25,165.08,150.89,165.23,150.41,164.6Z"/><path class="cls-5" d="M143.59,165a.43.43,0,0,1,.74,0C144.11,165.35,143.86,165.4,143.59,165Z"/><path class="cls-4" d="M219.66,101.91l-.25-.2.25-.22Z"/></svg>