<?xml version="1.0" encoding="UTF-8"?>
<svg xmlns="http://www.w3.org/2000/svg" version="1.1" viewBox="0 0 300 300">
  <defs>
    <style>
      .cls-1 {
        fill: #192e5b;
      }
    </style>
  </defs>
  <!-- Generator: Adobe Illustrator 28.6.0, SVG Export Plug-In . SVG Version: 1.2.0 Build 709)  -->
  <g>
    <g id="Layer_1">
      <g>
        <g>
          <path class="cls-1" d="M197.3,180.3c0-3.6,2.9-6.5,6.5-6.5,3.6,0,6.5,2.9,6.5,6.5,0,3.6-2.9,6.5-6.5,6.5,0,0,0,0,0,0-3.6,0-6.5-2.8-6.5-6.4,0,0,0,0,0,0ZM208.3,180.3c0-2.5-2.1-4.5-4.6-4.4s-4.5,2.1-4.4,4.6c0,2.5,2.1,4.4,4.5,4.4,2.5,0,4.5-2,4.5-4.5,0,0,0,0,0,0h0Z"/>
          <path class="cls-1" d="M168.8,180.2c0-3.6,2.9-6.5,6.5-6.5,3.6,0,6.5,3,6.5,6.6,0,3.6-3,6.5-6.6,6.5-3.6,0-6.5-2.8-6.5-6.4,0,0,0,0,0-.1ZM179.9,180.2c0-2.5-2.2-4.5-4.7-4.4-2.5,0-4.5,2.2-4.4,4.7,0,2.5,2.1,4.4,4.6,4.4,2.5,0,4.5-2.1,4.5-4.6,0,0,0,0,0,0h0Z"/>
          <path class="cls-1" d="M80,180.3c0-3.5,2.8-6.5,6.3-6.6,3.6,0,6.6,2.9,6.7,6.5,0,0,0,0,0,0,0,3.6-2.9,6.5-6.5,6.5,0,0,0,0,0,0-3.5,0-6.5-2.8-6.5-6.3,0,0,0-.1,0-.2ZM86.5,184.9c2.5,0,4.5-2.1,4.5-4.6,0-2.5-2.1-4.5-4.6-4.5-2.5,0-4.5,2.1-4.5,4.6,0,2.5,2.1,4.5,4.6,4.5h0Z"/>
          <path class="cls-1" d="M60.5,186.6v-12.8c.4,0,.7,0,1.1,0,1.3,0,2.6,0,3.9.2,1.3,0,2.4,1,2.6,2.3.3,1.3-.2,2.6-1.3,3.4,0,0-.1.1-.3.2.1,0,.2.2.4.3,1.2.5,2,1.8,1.8,3.1,0,1.6-1.2,3-2.9,3.1-.9.1-1.9.2-2.8.2-.9,0-1.7,0-2.6,0ZM62.4,184.8c.7,0,1.3,0,1.9,0,.3,0,.5,0,.8-.1.3,0,.6-.2.9-.4.7-.5.9-1.5.4-2.3-.1-.2-.3-.4-.6-.5-1.1-.4-2.3-.5-3.4-.4v3.6ZM62.4,179.3c.8,0,1.5,0,2.2,0,.7,0,1.3-.7,1.4-1.4.2-.7,0-1.5-.7-1.9-.9-.4-1.9-.5-2.9-.3v3.6Z"/>
          <path class="cls-1" d="M164.4,187c-3.1-3-6.1-5.9-9.1-8.8h-.1v8.4h-1.9v-13.1c3,3,6.1,6,9.1,8.9h.1v-8.5h1.9v13.1Z"/>
          <path class="cls-1" d="M224.7,185.4c-2.7,1.9-6.4,1.7-9-.3-2.3-2.1-2.6-6.3-.6-9,2.1-2.8,6.3-3,9-1.5l-.5,1.6c-1-.3-2.1-.5-3.2-.5-2.4-.1-4.4,1.7-4.6,4.1,0,.2,0,.3,0,.5,0,3.3,2.8,4.9,5.4,4.5.4,0,.7-.1,1.1-.2.1,0,.3-.1.4-.2v-2.2h-2.4v-1.9h4.3v5.2Z"/>
          <path class="cls-1" d="M145.9,179.3v-5.4h1.9v12.7h-1.9v-5.3h-6.5v5.3h-2v-12.7h1.9v5.4h6.5Z"/>
          <path class="cls-1" d="M109.6,186.5v-12.6h8.4v1.8h-6.4v3.6h5.7v1.9h-5.7v3.6h6.7v1.8h-8.6Z"/>
          <path class="cls-1" d="M132.6,174.8l-.7,1.7c-2.6-1.5-4.9-1.3-6.6,1.3-1.1,1.8-.9,4.1.5,5.7,1.5,1.6,3.5,1.8,6.3.5l.8,1.6c-2.5,1.7-5.9,1.5-8.3-.5-2.5-2.5-2.6-6.5-.4-9.3,2.2-2.4,5.8-2.8,8.4-1Z"/>
          <path class="cls-1" d="M233.8,180.3c1.1-2.2,2.2-4.3,3.3-6.4h2.4c-.1.2-.2.4-.3.6-1.4,2.5-2.8,5-4.2,7.5-.2.3-.3.7-.3,1.1,0,1,0,1.9,0,2.9,0,.2,0,.4,0,.6h-1.9c0-.5,0-1,0-1.5.2-1.7-.3-3.4-1.2-4.8-1.2-1.9-2.2-4-3.3-5.9,0-.1-.1-.3-.2-.4h2.3l3.4,6.4Z"/>
          <path class="cls-1" d="M104.7,173.9v1.8h-3.2v10.8h-1.9v-10.8h-3.2v-1.8h8.4Z"/>
          <path class="cls-1" d="M188.1,173.9v10.8h6.4v1.8h-8.3v-12.6h1.9Z"/>
          <path class="cls-1" d="M73.4,173.9h1.8v12.7h-1.8v-12.7Z"/>
        </g>
        <g>
          <path class="cls-1" d="M21.2,128v23.2l-6.2,3.1v-40.9h.1c0-.1,28.6,28,28.6,28h.1v-26.7h6.2v26.2l-11.8,3.5-17-16.5Z"/>
          <path class="cls-1" d="M282.5,122.6c-.8-.4-1.6-.7-2.4-1.1-2.3-1.1-4.8-1.6-7.3-1.5-1.2,0-2.3.3-3.4.8-2.2,1.1-3.2,3.7-2.1,6,.3.7.8,1.3,1.5,1.8,1.6,1.1,3.4,2.1,5.2,2.8,2,.8,3.9,1.6,5.8,2.6,3,1.7,5,4.8,5.2,8.2.3,2.5-.3,5.1-1.6,7.3-.6,1-1.5,1.9-2.5,2.6-2.2-1-4.5-2-6.8-3,.5-.2,1-.5,1.5-.7,3.6-1.5,3.9-6.6.8-8.8-1.6-1.1-3.2-1.9-5-2.6-2-.8-3.9-1.6-5.8-2.6-2.6-1.3-4.5-3.8-5-6.6-.9-5.8,1.7-10.6,7.7-12.5,2.3-.7,4.8-.8,7.2-.5,3.1.3,6.1,1.3,8.8,2.9.2,0,.3.2.5.3-.8,1.6-1.5,3.1-2.3,4.7Z"/>
          <path class="cls-1" d="M97.9,137.5l6.1-.6c0,1.1,0,2.1,0,3.2,0,1.3.3,2.6.9,3.8,1.5,3,4.6,4.9,7.9,4.9,2.8.2,5.5-.9,7.3-3,1.4-1.5,2.2-3.5,2.2-5.6,0-1.5,0-3,0-4.5l6.1-.3c0,.1.1.2.1.2,0,1.9,0,3.8,0,5.7,0,1.6-.4,3.2-1,4.6-1.6,3.9-4.9,6.9-9,8.1-4.7,1.7-9.9,1.1-14.1-1.6-3.7-2.1-6.1-5.9-6.4-10.2,0-1.6,0-3.2,0-4.7Z"/>
          <path class="cls-1" d="M67,145.1c-1.3,3.1-2.5,6.2-3.8,9.3h-6.2l5-11.8c7.9-1.6,15.8-2.6,23.9-3.7,2.2,5.2,4.4,10.3,6.6,15.5h-7.2c-1.2-3.1-2.4-6.2-3.6-9.3h-14.6Z"/>
          <path class="cls-1" d="M194.7,136.6v11.8h19.5v6h-25.8v-18.3l6.3.5Z"/>
          <path class="cls-1" d="M162.6,114.7v5.9h-10.3v8.3h-6.3v-8.2h-10v-6h26.5Z"/>
          <path class="cls-1" d="M250.4,145.5c-.5.9-.8,1.7-1.3,2.4-2.2,3.4-5.6,5.8-9.6,6.5-4.6,1.1-9.5.2-13.3-2.6-3.2-2.2-5.2-5.7-5.6-9.5,0-.8,0-1.6-.1-2.4,0-.1,0-.2,0-.3l6.1,1c.8,4.6,3.4,7.4,8,8.1,3.8.6,7.6-1.3,9.5-4.6l6.3,1.5Z"/>
          <path class="cls-1" d="M64.2,137.6c.9-2.1,1.8-4.3,2.8-6.4,2.5-5.8,5-11.7,7.4-17.5,0-.2.2-.4.3-.6h.2s8.9,20.9,8.9,20.9l-6.2,1-3.1-7.9h-.2s-3.8,9.1-3.8,9.1c-1,.2-2.1.4-3.2.6-1.1.2-2.2.4-3.3.6h0Z"/>
          <path class="cls-1" d="M245.1,114.7h6.1v26.7l-6.1-1.6v-25.1Z"/>
          <path class="cls-1" d="M226.6,135.8l-6.1-1.1v-20h6.1v21.1Z"/>
          <path class="cls-1" d="M146.1,134.8h6.1v19.5h-6.1v-19.5Z"/>
          <path class="cls-1" d="M171.1,135.1l6.1.3v19h-6.1v-19.3Z"/>
          <path class="cls-1" d="M104,114.7v16.6l-6.1.7v-17.3h6.1Z"/>
          <path class="cls-1" d="M194.7,131.2l-6.2-.6v-15.8h6.2v16.4Z"/>
          <path class="cls-1" d="M122.4,114.7h6.1v14.8l-6.1.3v-15.1Z"/>
          <path class="cls-1" d="M177.3,114.7v15l-6.2-.3v-14.7h6.2Z"/>
          <path class="cls-1" d="M277.2,153.9c-4.7,1.9-13.2.8-18.8-3.3.2-.4.5-.8.7-1.2.2-.4.5-.8.8-1.3,5.8,1.8,11.7,3.3,17.3,5.9Z"/>
          <path class="cls-1" d="M50.1,155.9l-8.8-8.5,8.8-2.3v10.8Z"/>
          <polygon class="cls-1" points="64.2 137.5 64.2 137.6 64.2 137.6 64.2 137.5"/>
        </g>
      </g>
    </g>
  </g>
</svg>