<?xml version="1.0" encoding="UTF-8"?>
<svg xmlns="http://www.w3.org/2000/svg" version="1.1" viewBox="0 0 300 300">
  <defs>
    <style>
      .cls-1 {
        fill: #da804e;
      }
    </style>
  </defs>
  <!-- Generator: Adobe Illustrator 28.6.0, SVG Export Plug-In . SVG Version: 1.2.0 Build 709)  -->
  <g>
    <g id="Layer_1">
      <g>
        <path class="cls-1" d="M27.2,121.8h-12c-.1,0-.2.1-.2.2v56c0,.1.1.2.2.2h11.2c.1,0,.2-.1.2-.2v-37.6h.1l23.4,37.6h.1c0,.1,11.9.1,11.9.1.1,0,.2-.1.2-.1h0c0-.1-11.5-18.4-11.5-18.4l-23.4-37.7c-.1-.1-.2-.1-.2-.1h0Z"/>
        <path class="cls-1" d="M75,153.8h26.9c.1,0,.2-.1.2-.2v-9.1c0-.1-.1-.2-.2-.2h-26.9c-.1,0-.2-.1-.2-.2v-11.7c0-.1.1-.2.2-.2h29.4c.1,0,.2-.1.2-.2v-10.1c0-.1-.1-.2-.2-.2h-41.8c-.1,0-.2.1-.2.2v56c0,.1.1.2.2.2h42.6c.1,0,.2-.1.2-.2v-10c0-.1-.1-.2-.2-.2h-30.1c-.1,0-.2-.1-.2-.2v-13.4c.1,0,.1-.1.2-.1Z"/>
        <path class="cls-1" d="M194,121.8h-50.7l-21.7,23c-.1.1-.2.1-.2,0h-.1v-22.9c0-.1-.1-.2-.2-.2h-12c-.1,0-.2.1-.2.2v56c0,.1.1.2.2.2h12c.1,0,.2-.1.2-.2v-17.9h0c0-.1,6.9-7,6.9-7,.1-.1.2-.1.2,0l16.8,25.1h.1c0,.1,15.1.1,15.1.1.1,0,.2-.2.1-.2l-23.9-33.7v-.2l11.5-11.7h16.4c.1,0,.2.1.2.2v45.5c0,.1.1.2.2.2h12.1c.1,0,.2-.1.2-.2v-45.5c0-.1.1-.2.2-.2h16.5c.1,0,.2-.1.2-.2v-10.1q-.2-.2-.3-.2h0Z"/>
        <path class="cls-1" d="M236.6,177.9c-.8-2-5.6-15-10.4-27.9-4.9-13.3-9.9-26.7-10.4-28,0-.1-.1-.1-.2-.1h-12.4q-.1,0-.2.1c-.5,1.4-5.6,14.7-10.7,28-4.9,13-9.9,26-10.6,27.9,0,.1,0,.2.2.2h12.1q.1,0,.2-.1l4.3-12.3c0-.1.1-.1.2-.1h20.8q.1,0,.2.1l4.2,12.3c0,.1.1.1.2.1h12.4s.1-.1.1-.2ZM215.9,156.4h-14.1c-.1,0-.2-.1-.2-.2l7.3-20.5h.2l7,20.5c0,.1,0,.2-.2.2h0Z"/>
        <path class="cls-1" d="M285,177.9c-2-3.3-2-9.7-2.2-13.1-.4-5.7-2.2-11.5-8.2-13.2h0c6.3-2.6,8.9-7.6,8.9-14.2s-6.4-15.5-16.5-15.5h-30.2c-.1,0-.2.1-.2.2v56c0,.1.1.2.2.2h12c.1,0,.2-.1.2-.2v-21.7c0-.1.1-.2.2-.2h12.2c6.3,0,8.6,2.6,9.3,8.6.5,4.4.5,9.9,2,13.4,0,.1.1.1.2.1h11.9c.1,0,.2-.1.2-.1v-.3ZM262.6,147.3h-13.3c-.1,0-.2-.1-.2-.2v-15.5c0-.1.1-.2.2-.2h13.4c5.5,0,8.6,2.4,8.6,7.8-.1,5.8-3.2,8.1-8.7,8.1h0Z"/>
      </g>
    </g>
  </g>
</svg>