<?xml version="1.0" encoding="UTF-8"?>
<svg xmlns="http://www.w3.org/2000/svg" version="1.1" viewBox="0 0 300 300">
  <defs>
    <style>
      .cls-1 {
        fill: #57d271;
      }
    </style>
  </defs>
  <!-- Generator: Adobe Illustrator 28.6.0, SVG Export Plug-In . SVG Version: 1.2.0 Build 709)  -->
  <g>
    <g id="Layer_1">
      <g>
        <path class="cls-1" d="M119.6,103.2c-3.9.6-6.5,4.3-5.8,8.2,0,0,0,0,0,0,.3,1.9,1.3,3.5,2.9,4.6l24,16.9c5.5,3.9,12.8,3.9,18.3,0l24.2-16.9c3.3-2.2,4.2-6.6,2-9.8s-6.6-4.2-9.8-2c-.1.1-.3.1-.4.3l-24.2,16.9c-.5.4-1.2.4-1.7,0l-24-17.1c-1.6-1-3.5-1.4-5.4-1.2"/>
        <path class="cls-1" d="M202.7,141c3.2-2.2,4-6.6,1.8-9.8-1.1-1.6-2.8-2.6-4.7-2.9-1.9-.3-3.8.1-5.4,1.2l-43.7,30.7c-.5.4-1.2.4-1.7,0l-43.7-30.9c-3.2-2.2-7.6-1.3-9.8,1.9,0,0,0,0,0,.1-2,3.1-1.3,7.3,1.6,9.6l43.7,30.9c5.5,3.8,12.7,3.8,18.3,0l43.7-30.7Z"/>
        <path class="cls-1" d="M133.6,187.9l-25.6-18.1c-3.2-2.3-7.7-1.5-10,1.7s-1.5,7.7,1.7,10h0l25.6,18.1c2.7,1.9,4.4,5.1,4.3,8.4,0,3-1.6,5.8-4.2,7.4-2.4,1.5-5.3,1.6-7.8.3-34.7-17.7-48.5-60.2-30.9-94.9,10-19.6,28.5-33.4,50.1-37.4,3.9-.9,6.3-4.8,5.4-8.6,0,0,0,0,0,0-.9-3.5-4.2-5.8-7.8-5.5-46.1,8.5-76.6,52.7-68.1,98.8,4.8,26,21.4,48.3,44.9,60.3,6.9,3.5,15.1,3.2,21.7-.9,6.8-4.2,11-11.6,11-19.6,0-8-3.9-15.4-10.4-20"/>
        <path class="cls-1" d="M165.4,69.4c-3.9-.6-7.5,2-8.1,5.9,0,0,0,0,0,0-.6,3.7,1.8,7.3,5.5,8.1,38.2,7,63.7,43.7,56.6,82-3.9,21.5-17.6,40-37.1,50-2.6,1.4-5.9,1.3-8.4-.3-2.5-1.5-4-4.2-3.9-7.1,0-3.4,1.7-6.7,4.5-8.7l25.5-18.1c3.2-2.3,4-6.8,1.7-10-2.2-3.2-6.6-4.1-9.8-1.9,0,0-.1,0-.2.1h0l-25.3,18.3c-6.6,4.7-10.6,12.3-10.6,20.4,0,7.9,4.1,15.2,10.9,19.3,6.8,4.2,15.4,4.4,22.5.7,41.6-21.6,57.9-72.7,36.4-114.3-12.1-23.3-34.3-39.7-60.1-44.5"/>
      </g>
    </g>
  </g>
</svg>