<?xml version="1.0" encoding="UTF-8"?>
<svg xmlns="http://www.w3.org/2000/svg" version="1.1" viewBox="0 0 300 300">
  <defs>
    <style>
      .cls-1 {
        fill: #19b65c;
      }

      .cls-2 {
        fill: #1281f0;
      }
    </style>
  </defs>
  <!-- Generator: Adobe Illustrator 28.6.0, SVG Export Plug-In . SVG Version: 1.2.0 Build 709)  -->
  <g>
    <g id="Layer_1">
      <g>
        <path class="cls-1" d="M103.5,55.5c1.1,2.3,2.3,4.5,3.7,6.6,4.1,5.6,9.3,10.3,15.3,13.8,7.8,4.7,16.2,8,24.7,11.3,8,3.1,16.2,5.9,24.2,8.9,7.6,2.8,15.1,5.6,22.5,8.9,8.2,3.6,16.1,7.6,23.3,12.9,5.5,4.1,10.4,8.8,13.7,14.9,3.2,5.8,4.6,12.5,3.8,19.1-.9,8-4.8,14.6-10.4,20.3-7.4,7.5-16.3,12.5-25.9,16.6-6.7,2.9-13.7,5.2-20.8,7-.9.3-1.8.2-2.7-.2-9.3-4.9-18.8-9.4-28.4-13.7-.2,0-.3-.2-.8-.4,2.4-.5,4.5-.9,6.6-1.3,10.1-2,20-5,29.5-9.1,5.6-2.3,10.8-5.5,15.3-9.6,3.5-3.3,6-7.1,6.5-12,.6-5.7-2.1-10-6.1-13.7-5.7-5.4-12.7-8.8-19.7-12.2-10.7-5.2-21.8-9.5-32.5-14.5-8.6-4.1-17.1-8.4-24.8-14.1-7.4-5.5-13.4-12.1-16.9-20.8-2.3-5.9-3-11.9-1-18,0-.3.2-.6.5-.8Z"/>
        <path class="cls-2" d="M154,118.1c-3.7.8-7.2,1.4-10.7,2.2-12.3,2.9-24.3,6.5-35.1,13.4-4.2,2.7-7.9,5.9-10.2,10.5-3.1,5.7-2.1,12.8,2.4,17.5,4.2,4.7,9.6,8,15.1,10.9,8.8,4.7,18,8.4,27,12.4,12.2,5.4,24.4,10.8,35.4,18.5,7.8,5.6,14.3,12.3,18.1,21.3,2.4,5.7,3.2,11.6,1.5,17.6,0,.3-.2.6-.3.8-.1.3-.3.6-.5,1.1-1.3-2.9-2.9-5.6-4.8-8.2-5.3-6.9-12.3-11.8-20-15.6-9.9-4.9-20.2-8.7-30.5-12.4-8-2.9-16-5.8-23.9-8.9-6.7-2.6-13.4-5.4-19.8-8.7-7.3-3.7-14.3-7.8-20.2-13.4-5.8-5.5-10.2-11.8-11.7-19.8-1.8-8.8.3-17.9,5.7-25.1,5.2-7.2,12.2-12.3,19.8-16.5,8.9-5,18.3-8.4,28.1-11.3,3-1,6.2-.6,8.8,1,8.1,4.4,16.4,8.2,24.8,11.9.3.1.7.4,1.2.6Z"/>
      </g>
    </g>
  </g>
</svg>