<?xml version="1.0" encoding="UTF-8"?>
<svg xmlns="http://www.w3.org/2000/svg" version="1.1" viewBox="0 0 300 300">
  <defs>
    <style>
      .cls-1 {
        fill: #952c29;
      }

      .cls-2 {
        fill: #c1793b;
      }

      .cls-3 {
        fill: #3f5ea7;
      }
    </style>
  </defs>
  <!-- Generator: Adobe Illustrator 28.6.0, SVG Export Plug-In . SVG Version: 1.2.0 Build 709)  -->
  <g>
    <g id="Layer_1">
      <g>
        <path class="cls-2" d="M15,217.9c2.1-2.1,4-4.3,5.7-6.6,16.8-20.4,33.6-40.8,50.3-61.2,18.5-22.5,37-44.9,55.5-67.4.3-.4.7-.8,1.1-1.2,16.5,20.1,33,40,49.5,60.1-1.8,2.1-3.6,4.2-5.3,6.3-.2-.4-.5-.8-.7-1.2-3.7-4.4-7.4-8.9-11.1-13.3-8.9-10.8-17.9-21.5-26.8-32.3-1.8-2.2-3.6-4.3-5.5-6.6-.5.5-.9.9-1.2,1.3-6.5,7.9-13.1,15.9-19.6,23.8-7.5,9.1-14.9,18.1-22.4,27.1-8.6,10.4-17.2,20.8-25.7,31.2-8.4,10.2-16.9,20.5-25.3,30.7-2.7,3.2-5.5,6.3-7.9,9.7-3.5,0-7-.2-10.5.1v-.6Z"/>
        <path class="cls-3" d="M185.7,190.3l15.7-19.1c2.2,2.6,4.2,5.2,6.4,7.7,2.7,3.2,5.2,6.7,8.6,9.4,16.7,12.9,41.2,3,44-17.9,1.2-7.4-.9-15-5.7-20.8-7-8.7-14.2-17.3-21.3-25.9-.2-.2-.4-.5-.8-.9-26.2,31.9-52.4,63.7-78.6,95.5h-31.5l110.1-133.8c2.4,2.9,4.7,5.7,7,8.5,11.4,13.9,23,27.7,34.2,41.7,23.8,29.8,7,75.4-30.4,82.5-20.4,3.8-37.5-2.5-50.9-18.5-2.3-2.8-4.6-5.6-7-8.4Z"/>
        <path class="cls-1" d="M25.5,218.4c2.4-3.4,5.2-6.5,7.9-9.7,8.4-10.3,16.9-20.5,25.3-30.7,8.6-10.4,17.2-20.8,25.7-31.2,7.5-9,14.9-18.1,22.4-27.1,6.5-7.9,13.1-15.9,19.6-23.8.3-.4.7-.7,1.2-1.3,1.9,2.2,3.7,4.4,5.5,6.6,8.9,10.8,17.9,21.5,26.8,32.3,3.7,4.4,7.4,8.9,11.1,13.3.3.4.5.8.7,1.2-5.2,6.3-10.4,12.6-15.6,19l-28.6-34.2c-23.6,28.7-47.2,57.3-70.8,85.8-3.8,0-7.7,0-11.6,0-6.6,0-13.1,0-19.7,0Z"/>
      </g>
    </g>
  </g>
</svg>