<?xml version="1.0" encoding="UTF-8"?>
<svg xmlns="http://www.w3.org/2000/svg" version="1.1" viewBox="0 0 300 300">
  <defs>
    <style>
      .cls-1 {
        fill: #185f7f;
      }

      .cls-1, .cls-2 {
        fill-rule: evenodd;
      }

      .cls-2 {
        fill: #2fc5f4;
      }
    </style>
  </defs>
  <!-- Generator: Adobe Illustrator 28.6.0, SVG Export Plug-In . SVG Version: 1.2.0 Build 709)  -->
  <g>
    <g id="Layer_1">
      <g id="Your_Design">
        <g>
          <path class="cls-1" d="M21.7,184.1v-29.6c-.3-4.1,1.3-8.2,4.1-11.1,2.8-2.8,6.7-4.6,10.8-4.4,4.4-.3,8.2,1.5,11.3,4.6,2.8,3.1,4.4,7.5,4.1,11.6v28.5h6.7v-28.3c.3-6.4-2.1-12.6-6.7-17.2-3.9-3.9-9.3-5.9-14.7-5.9s-6.2.8-9,2.3c-2.8,1.3-5.1,3.6-6.7,6.2v-7.7h-6.7v50.9h6.7Z"/>
          <polygon class="cls-1" points="76.5 184.1 76.5 174.3 84.2 163.7 100.4 184.1 108.6 184.1 88.3 158.6 107.6 133.1 99.1 133.1 76.5 163.2 76.5 115.1 69.8 115.1 69.8 184.1 76.5 184.1"/>
          <path class="cls-1" d="M126.1,145c3.6-4.1,8.7-6.2,14.4-6.2s10,2.1,13.4,5.9c3.6,3.9,5.7,9,5.4,14.4,0,5.1-2.1,10.3-5.9,13.9-3.6,3.6-8.5,5.7-13.9,5.7s-10.3-2.3-13.6-6.4-5.4-9.5-5.1-14.9c0-4.6,2.1-9.3,5.4-12.3ZM121.2,177.4c4.9,4.9,11.3,7.7,18.3,7.5,3.9,0,7.7-.8,11.3-2.6s6.4-4.4,8.5-8v9.5h6.7v-50.7h-6.7v10c-3.6-7.2-11.1-11.6-19.3-11.3-6.7,0-13.1,2.6-18,7.2-5.7,5.1-8.5,12.3-8.2,19.8-.3,6.9,2.6,13.6,7.5,18.5Z"/>
          <path class="cls-1" d="M183.4,184.1v-31.4c0-3.9,1.8-7.5,4.6-10,2.6-2.3,5.9-3.9,9.3-3.9v-6.9c-6.2-.3-11.6,3.1-13.9,8.7v-8h-6.7v51.2h6.7v.3Z"/>
          <polygon class="cls-1" points="216.3 184.1 216.3 139.6 227.9 139.6 227.9 133.1 216.3 133.1 216.3 115.1 209.7 115.1 209.7 133.1 199.4 133.1 199.4 139.6 209.7 139.6 209.7 184.1 216.3 184.1"/>
          <path class="cls-1" d="M244.9,145c3.6-4.1,8.7-6.2,14.4-6.2s10,2.1,13.4,5.9c3.6,3.9,5.7,9,5.4,14.4,0,5.1-2.1,10.3-5.9,13.9-3.6,3.6-8.7,5.9-13.9,5.7-5.4,0-10.3-2.3-13.6-6.4-3.3-4.1-5.4-9.5-5.1-14.9,0-4.6,2.1-9.3,5.4-12.3ZM240.3,177.4c4.9,4.9,11.3,7.7,18.3,7.5,3.9,0,7.7-.8,11.3-2.6s6.4-4.4,8.5-8v9.5h6.7v-50.7h-6.7v10c-3.6-7.2-11.1-11.6-19.3-11.3-6.7,0-13.1,2.6-17.7,7.2-5.4,5.1-8.5,12.3-8.2,19.8-.5,6.9,2.3,13.6,7.2,18.5Z"/>
        </g>
        <g>
          <path class="cls-2" d="M150.3,158.3c0-1.8,1.5-3.6,3.3-3.6s3.6,1.5,3.6,3.3-1.5,3.6-3.3,3.6h0c-2.1.3-3.6-1.3-3.6-3.3Z"/>
          <path class="cls-2" d="M147.4,166.1c0-1.8,1.5-3.3,3.3-3.3s3.3,1.5,3.3,3.3-1.5,3.3-3.3,3.3h0c-1.8,0-3.3-1.5-3.3-3.3h0Z"/>
          <path class="cls-2" d="M147.4,150.9c0-1.8,1.5-3.3,3.3-3.3s3.3,1.5,3.3,3.3-1.5,3.3-3.3,3.3h0c-1.8,0-3.3-1.5-3.3-3.3h0Z"/>
        </g>
      </g>
    </g>
  </g>
</svg>