<?xml version="1.0" encoding="UTF-8"?>
<svg xmlns="http://www.w3.org/2000/svg" version="1.1" xmlns:xlink="http://www.w3.org/1999/xlink" viewBox="0 0 300 300">
  <defs>
    <style>
      .cls-1 {
        fill: url(#linear-gradient-2);
      }

      .cls-2 {
        fill: #448694;
      }

      .cls-3 {
        fill: #867fbb;
      }

      .cls-4 {
        fill: #50b299;
      }

      .cls-5 {
        fill: #51b599;
      }

      .cls-6 {
        fill: #6c659b;
      }

      .cls-7 {
        fill: #7e77b3;
      }

      .cls-8 {
        fill: #525d7e;
      }

      .cls-9 {
        fill: url(#linear-gradient-3);
      }

      .cls-10 {
        fill: #544e77;
      }

      .cls-11 {
        fill: #438d95;
      }

      .cls-12 {
        fill: #4eb59a;
      }

      .cls-13 {
        fill: #468392;
      }

      .cls-14 {
        fill: #526684;
      }

      .cls-15 {
        fill: #479596;
      }

      .cls-16 {
        fill: #535078;
      }

      .cls-17 {
        fill: #4d4c71;
      }

      .cls-18 {
        fill: url(#linear-gradient);
      }
    </style>
    <linearGradient id="linear-gradient" x1="114.4" y1="-15822.9" x2="178.7" y2="-15822.9" gradientTransform="translate(0 15986)" gradientUnits="userSpaceOnUse">
      <stop offset="0" stop-color="#847fbb"/>
      <stop offset=".3" stop-color="#524f74"/>
      <stop offset=".8" stop-color="#535276"/>
      <stop offset="1" stop-color="#3c3a54"/>
    </linearGradient>
    <linearGradient id="linear-gradient-2" x1="160.5" y1="-15866" x2="184.3" y2="-15804.1" gradientTransform="translate(0 15986)" gradientUnits="userSpaceOnUse">
      <stop offset="0" stop-color="#435f66"/>
      <stop offset=".1" stop-color="#608793"/>
      <stop offset=".6" stop-color="#5f8391"/>
      <stop offset="1" stop-color="#524f74"/>
    </linearGradient>
    <linearGradient id="linear-gradient-3" x1="122.5" y1="-15831.3" x2="175.5" y2="-15874.2" gradientTransform="translate(0 15986)" gradientUnits="userSpaceOnUse">
      <stop offset="0" stop-color="#415f50"/>
      <stop offset=".2" stop-color="#7db59a"/>
      <stop offset=".8" stop-color="#7bb199"/>
      <stop offset="1" stop-color="#608793"/>
    </linearGradient>
  </defs>
  <!-- Generator: Adobe Illustrator 28.6.0, SVG Export Plug-In . SVG Version: 1.2.0 Build 709)  -->
  <g>
    <g id="Layer_1">
      <g>
        <path class="cls-13" d="M220.3,150c0,5.6-4.5,10.1-10.1,10.1-5.6,0-10.1-4.5-10.1-10.1,0-5.6,4.5-10.1,10.1-10.1,0,0,0,0,0,0,5.6,0,10.1,4.5,10.1,10.1h0Z"/>
        <path class="cls-2" d="M201,103.7c3.9,3.9,4,10.3,0,14.2h0c-3.9,4-10.3,4-14.2,0h0c-3.9-4-4-10.3,0-14.3h0c3.9-4,10.3-4,14.2,0h0Z"/>
        <path class="cls-6" d="M122.7,182.1c3.9,3.9,4,10.3,0,14.2h0c-3.9,4-10.3,4-14.2,0h0c-3.9-4-4-10.3,0-14.3h0c3.9-4,10.3-4,14.2,0h0Z"/>
        <path class="cls-8" d="M201,196.3c-3.9,3.9-10.3,4-14.2,0h0c-3.9-4-4-10.3,0-14.3h0c3.9-4,10.3-4,14.2,0h0c3.9,4,4,10.3,0,14.3,0,0,0,0,0,0Z"/>
        <path class="cls-12" d="M122.7,117.9c-3.9,3.9-10.3,4-14.2,0h0c-3.9-4-4-10.3,0-14.3h0c3.9-4,10.3-4,14.2,0h0c4,3.9,4.1,10.2.2,14.2,0,0-.1.1-.2.1Z"/>
        <path class="cls-3" d="M109.4,150c0,5.6-4.5,10.1-10.1,10.1-5.6,0-10.1-4.5-10.1-10.1,0,0,0,0,0,0,0-5.6,4.5-10.1,10.1-10.1,0,0,0,0,0,0,5.6,0,10.1,4.5,10.1,10.1h0Z"/>
        <path class="cls-15" d="M154.8,84.5c5.6,0,10.1,4.5,10.1,10.1,0,0,0,0,0,0,0,5.6-4.5,10.1-10.1,10.1,0,0,0,0,0,0-5.6,0-10.1-4.5-10.1-10.1,0-5.6,4.5-10.1,10.1-10.1,0,0,0,0,0,0Z"/>
        <path class="cls-16" d="M154.8,195.4c5.6,0,10.1,4.5,10.1,10.1,0,0,0,0,0,0,0,5.6-4.5,10.1-10.1,10.1-5.6,0-10.1-4.5-10.1-10.1,0-5.6,4.5-10.1,10.1-10.1,0,0,0,0,0,0Z"/>
        <path class="cls-18" d="M174.5,150c-2.6,5.5-6.9,10.1-12.1,13.1-5.3,3-11.3,4.4-17.4,4-5.5-1.6-26.3-25.5-28-31.2-3.4,9.1-3.4,19.1,0,28.1,6.8,18.1,25.5,28.9,44.5,25.7,6-1.9,14.6-10,16.6-17.3,1.8-7.3.3-18.9-3.6-22.4h0Z"/>
        <path class="cls-1" d="M185.8,124.3c-4.1-3.4-9-5.8-17.3-5.8s-21.6,8-23.5,14.4c16.6-1.3,31.1,11.1,32.4,27.8.5,6.1-.9,12.2-4,17.5-.4.6-.8,1.3-1.2,1.9-2.7,4-6.4,7.3-10.7,9.6,9.5-1.6,18.2-6.6,24.4-14.1,12.3-14.9,12.3-36.5,0-51.3h0Z"/>
        <path class="cls-9" d="M161.4,110.3c-19.1-3.2-37.7,7.6-44.5,25.7-.2,4.9.8,9.7,2.9,14.1.3.7.7,1.4,1.1,2,5,8.7,13.9,14.3,23.9,15-3.4-5-5.2-10.9-5.2-17,0-6.1,1.8-12,5.2-17,5.6-8.2,15-13.1,24.9-13.2.8,0,1.5,0,2.3,0,4.9.3,9.6,1.9,13.7,4.5-6.1-7.5-14.8-12.6-24.4-14.2Z"/>
        <path class="cls-2" d="M219.2,123.1c1.6,3.8-.2,8.1-4,9.7-3.8,1.6-8.1-.2-9.7-4-1.6-3.8.2-8.1,4-9.7,3.8-1.6,8.1.2,9.7,3.9,0,0,0,0,0,0ZM234.6,116.8c1,2.5-.2,5.4-2.7,6.4-2.5,1-5.4-.2-6.4-2.7-1-2.5.2-5.4,2.7-6.4,2.5-1,5.4.2,6.4,2.7h0Z"/>
        <path class="cls-7" d="M89.6,176.9c-1.6-3.8.2-8.1,4-9.7,3.8-1.6,8.1.2,9.7,4,1.6,3.8-.2,8.1-4,9.7,0,0,0,0,0,0-3.8,1.6-8.1-.2-9.7-3.9,0,0,0,0,0,0ZM74.1,183.2c5,0,9.1,4.1,9.1,9.1,0,5-4.1,9.1-9.1,9.1-5,0-9.1-4.1-9.1-9.1,0-5,4.1-9.1,9.1-9.1h0Z"/>
        <path class="cls-4" d="M127.6,85.2c3.8-1.6,8.1.2,9.7,4s-.2,8.1-4,9.7c-3.8,1.6-8.1-.2-9.7-4,0,0,0,0,0,0-1.6-3.7.1-8,3.8-9.6,0,0,.1,0,.2,0ZM121.1,69.8c2.5-1,5.4.2,6.4,2.7,1,2.5-.2,5.4-2.7,6.4-2.5,1-5.4-.2-6.4-2.7,0,0,0,0,0,0-1-2.5.2-5.4,2.7-6.4h0Z"/>
        <path class="cls-17" d="M181.2,214.9c-3.8,1.6-8.1-.2-9.7-4-1.6-3.8.2-8.1,4-9.7,3.8-1.6,8.1.2,9.7,4,1.6,3.7-.1,8-3.8,9.6,0,0-.1,0-.2,0ZM187.6,230.2c-2.5,1-5.4-.2-6.4-2.7-1-2.5.2-5.4,2.7-6.4,2.5-1,5.4.2,6.4,2.7,1,2.5-.2,5.4-2.7,6.4h0Z"/>
        <path class="cls-11" d="M181.2,85.2c3.8,1.6,5.5,5.9,4,9.7-1.6,3.8-5.9,5.5-9.7,4-3.8-1.6-5.5-5.9-4-9.7,1.6-3.7,5.9-5.5,9.7-4ZM187.6,69.8c2.5,1,3.7,3.9,2.7,6.4-1,2.5-3.9,3.7-6.4,2.7-2.5-1-3.7-3.9-2.7-6.4,0,0,0,0,0,0,.9-2.5,3.7-3.7,6.2-2.8,0,0,.2,0,.2.1h0Z"/>
        <path class="cls-10" d="M127.6,214.9c-3.8-1.6-5.5-5.9-4-9.7s5.9-5.5,9.7-4c3.8,1.6,5.5,5.9,4,9.7,0,0,0,0,0,0-1.6,3.7-5.9,5.5-9.7,4ZM121.1,230.2c-2.5-1-3.7-3.9-2.7-6.4,1-2.5,3.9-3.7,6.4-2.7,2.5,1,3.7,3.9,2.7,6.4h0c-1,2.5-3.8,3.7-6.3,2.7h0c0,0-.1,0-.2,0h0Z"/>
        <path class="cls-14" d="M219.2,176.9c-1.6,3.8-5.9,5.5-9.7,4-3.8-1.6-5.5-5.9-4-9.7s5.9-5.5,9.7-4c0,0,0,0,0,0,3.8,1.6,5.5,5.9,4,9.6,0,0,0,0,0,0ZM234.6,183.2c-1,2.5-3.9,3.7-6.4,2.7-2.5-1-3.7-3.9-2.7-6.4,1-2.5,3.9-3.7,6.4-2.7,2.5,1.1,3.7,3.9,2.7,6.4h0Z"/>
        <path class="cls-5" d="M89.6,123.1c1.6-3.8,5.9-5.5,9.7-4,3.8,1.6,5.5,5.9,4,9.7-1.6,3.8-5.9,5.5-9.7,4-3.8-1.6-5.5-5.9-4-9.6,0,0,0,0,0,0ZM74.1,116.8c0,5,4.1,9.1,9.1,9.1,5,0,9.1-4.1,9.1-9.1s-4.1-9.1-9.1-9.1c-5,0-9.1,4.1-9.1,9.1h0Z"/>
      </g>
    </g>
  </g>
</svg>