<svg id="Layer_1" data-name="Layer 1" xmlns="http://www.w3.org/2000/svg" xmlns:xlink="http://www.w3.org/1999/xlink" viewBox="0 0 300 300"><defs><linearGradient id="linear-gradient" x1="131.72" y1="-4225.2" x2="281.72" y2="-4225.2" gradientTransform="matrix(1, 0, 0, -1, -56.72, -4066.86)" gradientUnits="userSpaceOnUse"><stop offset="0.3" stop-color="#dd331a"/><stop offset="0.7" stop-color="#e48719"/></linearGradient></defs><path id="_Path_" data-name=" Path " d="M178.55,141.18l-.42,1.09c7,3.09,22.75,15.32,22.75,40,0,23.21-19.56,46.59-50.3,46.59-38.25,0-51.43-22.36-51.43-42.91,0-26.32,18.41-43.85,18.41-67.83A37.47,37.47,0,0,0,88,81.91L87.41,83a31.08,31.08,0,0,1,9.43,22.47c0,25.91-21.84,44.31-21.84,74,0,27.38,19.14,55.28,74.56,55.28,49.39,0,75.44-24.19,75.44-49.92C225,162.78,209.16,144.09,178.55,141.18Z" fill="url(#linear-gradient)"/><polygon points="150.23 197.69 164.25 65.22 135.15 65.22 149.18 197.69 150.23 197.69" fill="#0b4b97"/></svg>