<?xml version="1.0" encoding="UTF-8"?>
<svg xmlns="http://www.w3.org/2000/svg" version="1.1" viewBox="0 0 300 300">
  <defs>
    <style>
      .cls-1 {
        fill: #cf4b3a;
      }

      .cls-2 {
        fill: #e7b14f;
      }
    </style>
  </defs>
  <!-- Generator: Adobe Illustrator 28.6.0, SVG Export Plug-In . SVG Version: 1.2.0 Build 709)  -->
  <g>
    <g id="Layer_1">
      <g>
        <path id="Path_5" class="cls-2" d="M180.4,263.5c8.9-25.1,4.2-45.5.6-53.3-.6-2,0-5,1.4-6.4,20.1-20.4,41-43.5,48-69.5,6.1,17.6,6.1,45,.6,68.9-7.5,28.2-27.1,50-50.5,60.3Z"/>
        <path id="Path_6" class="cls-1" d="M120.9,260.7c0,1.4,0,2.8-.6,4.2,0,0-2.2-.6-2.8-1.4-39.3-15.4-61.1-60.3-49.4-105.2,8.6-32.3,33.2-56.4,62-64.2-14,26.2.6,44.4.6,44.4,7.8-6.4,14.8-12.5,21.2-20.4,15.4-16.8,25.4-39.9,15.4-82.9,133.7,104.1-30.7,160.2-46.4,225.5Z"/>
      </g>
    </g>
  </g>
</svg>