<?xml version="1.0" encoding="UTF-8"?>
<svg xmlns="http://www.w3.org/2000/svg" version="1.1" viewBox="0 0 300 300">
  <defs>
    <style>
      .cls-1 {
        fill: #353d7d;
      }

      .cls-2 {
        fill: #1bafc8;
      }
    </style>
  </defs>
  <!-- Generator: Adobe Illustrator 28.6.0, SVG Export Plug-In . SVG Version: 1.2.0 Build 709)  -->
  <g>
    <g id="Layer_1">
      <g>
        <path class="cls-2" d="M148,69l-17.3,16.5c-6.2-5.6-13.5-7-21.4-6.8,11.8-6.6,25.2-9.9,38.7-9.7Z"/>
        <path class="cls-2" d="M126.8,227.9c-13.2-3.3-25.4-9.9-35.5-19.1h25.1c.3,8,4.4,14,10.3,19.1Z"/>
        <path class="cls-2" d="M65.6,152.3c5.5,5.3,11,10.6,16.8,16.1-5.6,5.9-6.6,13.1-6.4,20.8-7-11.3-10.5-23.5-11-36.6l.6-.3Z"/>
        <path class="cls-2" d="M224.5,111.4c6.8,11.2,10.1,23.3,10.5,37.1-6.1-5.8-11.7-11.1-17.6-16.8,5.5-5.7,7.4-12.6,7.1-20.3Z"/>
        <path class="cls-2" d="M184.4,90.7c-.4-8.1-5.1-13.7-10.7-18.8,12.9,3.4,24.8,9.8,34.7,18.8h-23.9Z"/>
        <path class="cls-2" d="M68.7,127.4c-.3-1.8.6-3.3,1.2-4.9,3.7-10.1,9.5-19.3,16.8-27.1.2-.4.7-.6,1.2-.6v22.2c-1.2.8-2.7.5-4.1.8-4.2,1.1-8.1,3.2-11.3,6.2-1.2,1.2-2.3,2.5-3.9,3.2h0Z"/>
        <path class="cls-2" d="M231.2,173.2c-3.6,12.2-10.2,23.4-19.2,32.4v-22.4c7.7-.5,14-4.3,19.2-10Z"/>
        <path class="cls-2" d="M153.5,230.8l16.4-15.8c5.9,5.1,12.9,6.5,20.6,5.8-6.2,5.3-28.2,11-37,10Z"/>
        <path class="cls-2" d="M68.7,127.4l-.3.5c-.2-.4-.1-.5.3-.4h0Z"/>
        <path class="cls-1" d="M96.6,126.8v-39.7c6.9.1,13.6-.5,20.3.3,6.1.8,10.1,4.8,12.3,11,10-9.6,19.9-19,29.9-28.6,2.5,1.8,4.5,4.1,6.7,6.1,1.8,1.7,3.5,3.4,5.3,5,4.9,4.7,6.3,10.2,3.9,16.5-.1.3-.2.6-.3.8,0,.2,0,.3,0,.5h40.7c.7,1.5.3,2.9.4,4.3,0,3.7,0,7.5,0,11.2,0,7.5-3.3,12.3-10.3,15.1-.4.1-.7.3-1.5.6,9.9,9.5,19.8,19,29.5,28.3.1,1-.6,1.4-1.1,1.8-3.3,3.2-6.8,6.4-10.1,9.7-5.1,5-10.9,6.2-17.6,3.9-.3,0-.6-.2-1.2-.3v39.4c-4.6,0-9,0-13.3,0-2.3,0-4.7.2-7-.2-5.8-1.1-9.8-4.5-12.1-10.2l-29.2,27.9c-4.7-4.5-9.6-8.6-13.8-13.4-3.4-4-3.8-8.8-2.2-13.7.2-.7.5-1.3.7-2,0-.2,0-.4-.1-.9h-41.5c-.5-1.4-.3-2.6-.3-3.8,0-3.4.1-6.9,0-10.3-.4-8.1,3-13.8,10.9-16.9l-29.2-28c4.8-4.5,9.1-9.2,14.1-13.2,3.9-3.1,8.5-3.5,13.3-2.4.9.2,1.7.5,2.9.8ZM161.6,181.2c2.6-2.9,4.9-5.6,7.2-8.2-2.6-3.1-5.7-5.3-7.9-8.6,2.4-2,5.1-.9,7.4-1.7l5.3,4.8,4.8-5.1c1.5-.2,2.9.4,4.5,0,.2-3.3-.6-6.5-.7-9.9-4.3-.7-8.6.2-12.7-1,.5-2.6.8-3,4.4-6.1h7.6c.5-1.5-.3-2.7,0-4.2.8-1.6,2.6-2.6,3.3-4.4l-8.7-6.6c-3.6,1.8-5.3,6.1-9.8,7-.3-2.5-.6-4.6-.8-6.5,1.2-2.1,3.4-3,4.5-5.1l-3.5-2.8c-1.3-2-.7-4.2-2-5.8-3.2.7-6.5.4-10,1.5,0,1.9,0,3.8,0,5.7-.2,1.8.9,4.1-1.6,5.4-1.9-1.2-3.6-2.5-5.1-4.1-.6-2.2.4-4.3-.3-6.5-2.3,0-4.6.7-6.8.4-1.3-.7-1.9-2.1-3.3-2.6-2.4,2.3-4.6,4.9-6.8,7.5,2.2,2.6,4.9,4.5,6.8,7.5-2.7,1.6-5.2.9-7.3,1.4-1.9-.8-2.6-2.8-4.5-3.4l-4.5,4.9h-5c.3,3.1.6,5.9.9,9.1,2.3,0,4.4-.2,6.5,0,2,.2,4.4-1,6.3,1.4-1.3,1.9-2.8,3.6-4.5,5.2-2.7.3-5.2-.2-7.8.3.3,2.3.5,4.6.4,6.9-.9,1.4-2.5,1.9-3.1,3.5l8.5,5.7c3.7-2.3,6-6.2,10.2-7.6,1.3,2.5.8,4.9.9,7.1-1.6,1.8-3.7,3-5,4.9,1.4,1.5,3.2,2.3,4.5,3.8.2,1.5-.2,3,.2,4.5,3.5.2,6.7-.6,10.1-.7.7-3.8.2-7.6.8-11.6,3,.5,4.5,2.7,6.4,4,.4,2.4-.2,4.7.4,7,2.3,0,4.5-.7,6.9-.4l3,3.3ZM173.6,178.1c-1.9,1.8-3.4,4-5.3,5.5l-16.8,1.4v13.1c2.3,2.1,4.4,4.5,6.9,6.3.9-.9,1.7-1.7,2.5-2.4,6.6-5.7,12-12.7,19-17.8-2-1.9-4.1-4-6.3-6.1h0ZM115.6,183.3v9.8c9.5.6,18.8.3,28.3.6,0-2.7.3-5.3,0-7.9-2.2-.2-4.2.2-6.3.4-4.6-3.4-9.1-6.8-13.8-10.3l-8.3,7.4ZM178.6,172.5c4,3.8,7.8,7.5,11.6,11.1,1.9-.2,3.7.3,5.6-.4,0-3.4,0-6.7,0-10,0-3.4.4-6.9-.2-10.3-.4-2.6-.2-5.3.7-7.7.2-.6.8-1.2.4-2.1-2.4,0-4.9-.5-7.4,0,.3,2.3.4,4.6.3,6.9l-11.1,12.4ZM112,166.9c-.5-5.6-1-10.9-1.5-16.3h-10.5c-2,2.2-4,4.5-6.3,6.9,6.3,6.2,12.8,12.3,19.7,18.2,1.4-1.5,3.2-2.5,4.5-4.3l-5.9-4.5ZM120.7,124.9l-8.3-8.3c-2.6.1-5.4-.3-8.3.2-.2,9-.2,17.8,1,26.7,1.5.2,3.1.2,4.6,0,.3-2.1-.7-4.1-.1-6.1l11.1-12.4ZM121.3,115.2c1.3,1.5,2.7,3,4.3,4.2,1.7-1.9,3.3-3.6,4.8-5.3l17.3-1.9c.2-3.9.4-7.6.6-11.3-1.9-1.8-3.4-3.7-5.5-5.1-7.3,6.3-13.9,13.2-21.4,19.4h0ZM206.9,142.9c-1.1-.9-2.2-1.8-3.2-2.8-5.9-6.3-13-11.6-18-19-1.5,1.4-3,2.8-4.7,4.4l6.5,5c.4,5.2.8,10.3,1.3,15.6h15l3-3.1ZM161.8,111l13.5,10.1c3.3-3.2,6.4-6.1,9.6-9.1.1-1.9,0-3.9,0-5.8-9.9-.2-19.7.1-29.5.2-.3,1.7-.3,3.4,0,5.1,2.2-.1,4.3-.7,6.5-.4ZM196.2,205.7v-14.9c-4,0-7.8-.5-11.6.3-3.8.6-6.4,4.1-5.9,7.9.4,3.7,3.4,6.5,7.1,6.7,3.4.2,6.8,0,10.5,0ZM148.7,91c2.3,2.5,4.7,4.8,7.3,6.9,3.2,2.5,7.7,2.1,10.4-.9,2.5-2.6,2.9-6.7.5-9.4s-5.1-5.1-8-7.9c-3.5,3.9-6.9,7.5-10.3,11.3h0ZM87.5,152.6c2.4-2.3,4.4-4.1,6.3-6,.2-.2.4-.4.7-.6,3.1-3.2,3.4-7.2.7-10.3-2.8-3.2-7.6-3.7-10.9-1-2.6,2.2-5,4.7-7,6.6l10.2,11.3ZM222.6,158.3c-3.2-3-6.7-6.4-10.4-9.9-2.4,2.2-4.6,4.2-6.7,6.4-3.2,3.2-3.4,7.5-.6,10.5,2.8,3.2,7.7,3.4,10.9.6,2.4-2.2,4.4-4.9,6.8-7.7ZM104.2,109.2c3.8,0,7.5.2,11.1,0,3.7-.4,6.5-3.5,6.5-7.2,0-3.7-2.6-7.1-6.3-7.3-3.7-.3-7.4,0-11.3,0v14.6ZM142.2,220.6c3.7-3.5,7.3-6.9,11-10.4-2.7-2.7-5.1-5.4-8.1-7.6-3.2-2.3-7.9-1.6-10.5,1.3-2.5,2.9-2.4,7.1.6,10.1,2.2,2.2,4.5,4.3,7,6.6ZM192.6,105.7c0,3,0,5.7,0,8.4,0,.6,0,1.2,0,1.8.4,3.6,3.4,6.5,7.1,6.6,3.9.2,7.6-2.2,8.1-5.7.4-3.7.4-7.4,0-11.1h-15.3ZM107.8,193c0-2.9,0-5.6,0-8.3,0-.8,0-1.6-.2-2.4-.7-3.6-4-6.2-7.6-6.1-3.8,0-7.3,2.6-7.6,6.1-.3,3.5,0,7,0,10.6h15.4Z"/>
        <path class="cls-2" d="M162.5,154.2c-3.4,1.7-6,3.8-7.5,7.3-3.5-1.2-6.7-1.6-10.1,0-2-2.9-4-5.7-7.7-7,1-3.4,1.3-6.8-.1-10.2,3.4-1.3,6.1-3.9,7.5-7.2,3.6,1.8,6.9,1.3,10.6.3,1.3,3.5,4,5.5,7.3,7-1.4,3.4-1.5,6.4,0,9.8Z"/>
      </g>
    </g>
  </g>
</svg>