<?xml version="1.0" encoding="UTF-8"?>
<svg xmlns="http://www.w3.org/2000/svg" version="1.1" viewBox="0 0 300 300">
  <defs>
    <style>
      .cls-1 {
        fill: #157d98;
      }

      .cls-2 {
        fill: #137a9e;
      }

      .cls-3 {
        fill: #49ab3c;
      }

      .cls-4 {
        fill: #1f81b8;
      }

      .cls-5 {
        fill: #17828b;
      }

      .cls-6 {
        fill: #8e8f90;
      }

      .cls-7 {
        fill: #4ea5e0;
      }

      .cls-8 {
        fill: #228d71;
      }

      .cls-9 {
        fill: #e2e6e8;
      }

      .cls-10 {
        fill: #2382b7;
      }

      .cls-11 {
        fill: #1e1e1e;
      }

      .cls-12 {
        fill: #409c88;
      }

      .cls-13 {
        fill: #208b76;
      }

      .cls-14 {
        fill: #0e73ac;
      }

      .cls-15 {
        fill: #3d9735;
      }

      .cls-16 {
        fill: #148090;
      }

      .cls-17 {
        fill: #429e84;
      }

      .cls-18 {
        fill: #2684b9;
      }

      .cls-19 {
        fill: #62a461;
      }

      .cls-20 {
        fill: #2584b8;
      }

      .cls-21 {
        fill: #1175a9;
      }

      .cls-22 {
        fill: #248f6d;
      }

      .cls-23 {
        fill: #1575a8;
      }

      .cls-24 {
        fill: #2e8f95;
      }

      .cls-25 {
        fill: #0472b1;
      }

      .cls-26 {
        fill: #3591a0;
      }

      .cls-27 {
        fill: #2584ba;
      }

      .cls-28 {
        fill: #8fbfdb;
      }

      .cls-29 {
        fill: #25906b;
      }

      .cls-30 {
        fill: #409d87;
      }

      .cls-31 {
        fill: #429e83;
      }

      .cls-32 {
        fill: #2f8caa;
      }

      .cls-33 {
        fill: #2e9959;
      }

      .cls-34 {
        fill: #409ede;
      }

      .cls-35 {
        fill: #2685ba;
      }

      .cls-36 {
        fill: #2684b5;
      }

      .cls-37 {
        fill: #3a9793;
      }

      .cls-38 {
        fill: #1278a4;
      }

      .cls-39 {
        fill: #2988b1;
      }

      .cls-40 {
        fill: #3290a0;
      }

      .cls-41 {
        fill: #36939c;
      }

      .cls-42 {
        fill: #1c887d;
      }

      .cls-43 {
        fill: #2685bb;
      }

      .cls-44 {
        fill: #17838b;
      }
    </style>
  </defs>
  <!-- Generator: Adobe Illustrator 28.6.0, SVG Export Plug-In . SVG Version: 1.2.0 Build 709)  -->
  <g>
    <g id="Layer_1">
      <g>
        <path class="cls-23" d="M202.4,115.3c5.9,7,10.6,14.9,14.2,23.4-1.5-.6-1.7-1.8-2.3-2.7-8.7-13.2-19.5-24-34.7-29.4-24.1-8.7-49.2-.6-64.5,20.5-4,5.4-7.3,11.4-9.6,17.7-.2.9-1,1.6-2,1.5-7.4,0-14.8,0-22.4,0,2.2-4.9,4.6-9.4,7.1-13.8.3-2.5,2.1-4.2,3.5-6.1,8.1-11.7,18.3-21.1,31.1-27.5,8.3-4.1,17.4-6.4,26.7-6.7h6.1c17.4,1.3,32.6,7.4,44.4,20.8.7.9,1.5,1.7,2.4,2.4Z"/>
        <path class="cls-15" d="M85.3,163.4c5.3,8,11.4,15.3,19,21.2,11.5,9,24.6,13.3,39.1,12.3,20.5-1.5,35.2-12.4,45.6-29.6,2.3-3.7,4.2-7.7,5.7-11.8.3-.7.5-1.3,1.5-1.3,7.5,0,15,0,23,0l-7.3,13.9c-1.3,3.5-3.7,6.3-6,9.2-7.3,9.7-16.5,17.7-27.2,23.4-6.5,3.4-13.5,5.6-20.7,6.7-.8.1-1.7.3-2.5.4-12.1,1.5-23.7-.6-34.9-5.4-8.1-3.5-15.2-8.8-20.9-15.5-.8-1-1.6-1.8-2.5-2.6-5-6.1-9.1-12.8-12.3-19.9-.4-.5-.4-.9.4-.9Z"/>
        <path class="cls-34" d="M149.1,92.6c-14.6.8-28.5,6.2-39.8,15.5-8.5,6.9-15.2,15.2-21.1,24.3-.7-.8-1.6-.4-2.4-.4h-20.8c2.1-3.9,4.5-7.5,7.3-10.9,10.2-13.2,22.3-24.3,37.9-30.4,27.3-10.8,53.2-7.9,77.1,9.4,5.8,4.2,10.9,9.3,15.1,15.2-1.1-.3-1.7-1.3-2.4-2-9.4-10.3-21.1-16.5-34.7-19.4-3.1-.7-6.2-1.1-9.3-1.2-2.3-.3-4.6-.3-6.9,0Z"/>
        <path class="cls-25" d="M122.8,157.4c-3.9-16.2,5.4-31.3,21.6-34.9,15.1-3.3,30.8,7.2,33.3,22.5.4,2.4.5,4.9.3,7.3-.7,1.2-1.4,0-2.1,0-1.8-.4-2.2-2.4-3.7-3.2-.3-.3-.4-.7-.1-1,0,0,.1-.1.2-.2.9-.4.7-1,.5-1.7-.3-.9-1.1-.6-1.8-.6-.5,0-1,.2-1.5.5-1.8.5-3.8.4-5.5-.2-.1-.2-.2-.4-.2-.6,2-1.7,4.4-2.8,6.5-4.5-2.7-.4-5.1,1.8-8,1.4.7-2.5,2.8-3.8,4.1-6-2.4.9-3.9,2.8-6.4,3.1.1-2.7,1.5-4.8,2.8-6.8.4-.4.3-1,.5-1.6-.3.5,0,1.1-.5,1.5-2.7.4-3.5,3.4-5.9,4.6-1.2-2.3.3-4.4-.1-6.7-1.1,1.3-1.6,2.9-2.3,4.3-.3.5-.6,1.2-1.3,1.1s-.8-.8-1-1.4c-.4-1.8-.5-3.7-.9-5.4-.6,2.4-.7,4.9-1.8,7.5-2.4-2.2-2.5-5.2-4.2-7.4-.3.7.2,1.4.2,2.1,0,1.2.7,2.7-.9,3.5-.3,0-.6,0-1,0-1.6-.5-2.5-2-3.8-3,0,1.1.8,2,.6,3.1-.5.7-1.2,1.3-2,1.6-1.5.4-2.4-.5-3.5-1.3.9,1,1.4,2.2,2.2,3.2,0,.2.1.4,0,.6q-.5,2.9-3.7,2.4c1.2,1.5,3.5,1.8,4.1,4-.9,1.2-2.2.8-3.4.7-1.7-.2-3.5,0-5.2.4,3,.9,5.9,1.2,8.6,2.6.1.3.1.7,0,1-.8.7-1.9.7-2.9,1-2,.5-4,1.2-6,1.7-.6.7-.2,1,.5,1,1.7,0,1.5.8,1.2,1.9-.6.6-1.2,1.2-2,1.5-.7,0-1.5.4-2.2.5-1.2.2-1.4,0-1.6-1.7-.5.7-.3,2.2-1.8,1.5Z"/>
        <path class="cls-3" d="M231.1,168.2c-6.4-.1-12.9.3-19.3-.2-.6.2-.8.9-1.2,1.4-4.3,6.8-9.4,13.1-15.3,18.6-8.7,8-18.4,14.2-30,17.1-3.2.8-6.5,1.5-9.8,2.2-4.2,0-8.3.7-12.5.2-8.7-1-17.1-3.1-25-7-5.5-2.7-10.5-6.3-14.9-10.7-1.9-1.9-3.6-4.2-6-5.6,8.7,11.5,19.4,20.3,32.7,25.7,8.4,3.4,17.1,5.5,26.2,5.6,12.9.7,25.9-1.9,37.5-7.6,15.6-7.5,27.7-19.1,37.5-33.2,1.4-2,3-4,4-6.5-1.5,0-2.7,0-3.9,0Z"/>
        <path class="cls-33" d="M167.2,172.3c-7,6.2-20,7.8-28.3,3.5-.3-.8-.3-1.2.7-.6-.1-.8,1.1-.6,1-1.6s.4-1.5,1.4-1.7c.4,0,.7-.4.7-.8,0,0,0,0,0-.1,0-.9.7-1,1.5-.5.3.3.5.7.6,1.2,0-.3,0-.7.2-.9,1.2.2.7-1.6,1.8-1.5.4-.5.4,1,1.1.2.7-.7,1.8-.9,2.7-.5.5.4-.3,1.7,1.1,1.4-.1-.9,0-1.8.4-2.6.9-.3,1.9-.3,2.6-1.1,1.5.4,1.5,1.9,2.2,2.9.5-.7,0-1.9.9-2.4,1.4.5,2.7,1.5,4.3.9.5,0,1,0,1.4,0,1.3.5,2.7,1,3.5,2.1.6.7.6,1.6.2,2.4Z"/>
        <path class="cls-44" d="M131.6,171.2c-2.4-1.8-4.4-4.2-5.7-6.9,0-.6,0-1.2.3-1.7.3-.5.4-1.1,1-1.1,1.6,0,2-1.1,2.7-2.1.1-.2.3-.3.5-.3.2.2.6.2.8,0,0,0,0-.1.1-.2,2.6-1.1,5.3-1.9,8-2.2.3,0,.6.3.7.7-1.2,2.2-3.3,3.6-4.6,5.8,2.3-.9,4.1-2.7,6.4-3.5.3,0,.6.4.7.7-.2,1.6-.6,3.1-1.9,4.3-1.5-.3-2.4,1.3-3.8,1.3-1.3.7-1.8,2-2.3,3.3-.3.5-.3,1.8-1.4.6,0,.4-.2.7-.6.8,0,0-.3-.2-.1.1.1.8-.2.9-.8.6Z"/>
        <path class="cls-5" d="M176.3,151.8c.6.1.9,1.1,1.7.5-.2,4.4-1.6,8.7-4,12.4-.4.4-.8-1.1-1.2,0-2.2-1.3-5.3-1.1-6.4-4.1-.1-.4-.6-.6-1-.5,0,0-.2,0-.3.2-1.3-.5-1.8-1.8-2.6-2.7-.2-.3-.2-.6.1-.9,2-.4,3.7.6,5.5,1.1.5,0,1,.7,1.4,0,.2-.3,0-.6-.3-.7-1.2-.8-2.5-1.4-3.7-2.3-.5-.4-1-.8-.8-1.5s.8-.6,1.3-.7c1.8-.3,3.6,0,5.5-.2.3,0,.7-.1.9,0,1.5,1,2.7.2,3.9-.7Z"/>
        <path class="cls-8" d="M131.6,171.2c.8,0,.6-.4.4-.9h0c.9-.3,1.6-.8,2.3-1.4,1-.9,1.8-2,2.3-3.2,1.3-.3,1.7-2.9,3.7-1.4.3.3.3.7.6,1.1,1.8-.9,2.5-3.1,4.5-3.6.2,0,.4.2.6.3,0,2.7-.8,5.4-1.2,8-.1.3-.4.6-.7.6-2.3-.5-.2,1.4-1,1.7-.6-.4-1.1.2-1.8.3.4,1.9-1,2.5-2.3,3.1-2.8-1-5.3-2.6-7.3-4.6Z"/>
        <path class="cls-8" d="M165.2,160.2c1.1-.7,1.4-.8,1.6.1.7,2.7,3.4,2.6,5.2,3.6.2.1.5,0,.7.3.4,0,.1-.5.5-.8.4.4,0,1.2.6,1.5-1.6,3-4,5.6-6.8,7.6,0-1.4-1.3-2.2-1.7-3.5l-.5,1.4c-.2-1.2-.6-1.9-1.6-2.2-1.5-2.1-2.3-4.6-3.3-6.9-.3-.5-.2-1.1.2-1.5,2.1-.2,3.4,1.9,5.3,2.2.1-.6-.6-1.1-.3-1.7Z"/>
        <path class="cls-21" d="M126.4,162.9c-.4.4,0,1.1-.6,1.4-1.4-2.1-2.5-4.5-3-7,.7-.1,1.2-.3,1.1-1.1-.1-1.6.9-.6,1.5-.7,0,.6-1,.4-.7,1.1.2.5.6.6,1.1.5.8-.1,1.5-.7,2.4-.3.4,1.2,0,2.6-1.1,3.3-.8.6-.7,1.7-.7,2.7Z"/>
        <path class="cls-19" d="M85.3,163.4l-.4.9c-.4-.9-.9-1.8-1.5-2.9,1.4.3,1.5,1.2,1.9,2Z"/>
        <path class="cls-7" d="M149.1,92.6c2.2-.7,4.6-.7,6.9,0h-6.9Z"/>
        <path class="cls-11" d="M145.8,162c0,0-.2,0-.3,0-1.4-.1-2.6-.6-3.3-2l-.4-.4c-1.2-.3-2-.9-2-2.2l-.4-.5c-.9-.8-1.5-1.9-1.8-3.1-.1-.5-.3-1.1-.4-1.6,0-.3-.1-.7-.1-1,0-.5.2-.9.5-1.3v-.8c-.9-1.4,0-2.5.5-3.7,0-.3.3-.7.5-.9.2-.1.4-.2.6-.2,1.1.2,1.9.9,3,1,3.8.2,6-2.4,5.7-7.1,0-.2.2-.5.3-.6,3.7-1.5,6.7.1,9.6,2.2,5.3,3.7,6.9,10.9,3.8,16.5-.6,1-1.4,2-2.1,2.9-2.6,2.8-6,4-9.8,4.1-.2,0-.5,0-.7,0-1.1-.2-2.4-.1-3.2-1.2Z"/>
        <path class="cls-18" d="M162,146.3c-2-4.5-5.2-7.6-10.2-8.5-1.2-.3-2.4-.2-3.6.2-1.2-1.3-2.9-2.1-3.8-3.7,1.2-1,.6-2.3.3-3.4-.4-1-.2-2.2.6-3,1.8,2.4,2.3,5.4,4.1,8.1.5-3,1-5.7,1.6-8.9,1.6,2.9,1.3,5.7,2.1,8.6,1.5-1.6,1.8-3.5,2.7-5.1.3-.6.5-1.5,1.4-1.2s.5,1.1.4,1.8c-.3,1.8-.8,3.6-.6,5.4.8-.7,1.8-1.3,2.3-2.2.9-1.5,1.9-2.3,3.7-1.9h0c-.4,2.4-2.2,4.1-2.6,6.7l6.4-3.9c0,3.3-3,4.3-3.8,6.6,2.8.2,5.4-2.8,8.7-.9-3,1.3-4.9,3.6-7.8,4.4-.7.1-1,1-1.9.9Z"/>
        <path class="cls-26" d="M162,146.3c.6-.4.7-1.6,1.8-.9v.4c.2,1.4,2.4,1.4,2,3.1.9.9,2.3.9,3.4,1.4s2.3.9,2.4,2.4c-2.1.9-4.4,0-6.8.7,1.4,1.7,3.5,2.1,4.9,3.5-.3.6-1.3.6-1.4,1.4l-6-1.4c-.9,1.1-1.2.3-1.5-.5,1.5-3.1,1.9-6.7,1.1-10.1Z"/>
        <path class="cls-28" d="M144.4,134.3c1.6.8,3.2,1.8,3.8,3.7h0c-.8.7-1.8.8-2.7,1.1-.1,0-.3,0-.4,0-3.1-.8-3.8-.2-3.6,3-.7.8-1.3,1.8-2.4,2.4h0c-1.7-.2-2.1-1.5-2.2-2.9-.1-.9,0-1.8.2-2.7v-.5c-.3-1.2.6-1.7,1.4-2.3l1.9-1.5c.9-1.4,2.1-.7,3.3-.4h.9Z"/>
        <path class="cls-2" d="M171.7,152.7c-1.7-2.4-4.7-2.1-7-3.5.2-.4.6-.2,1-.2,1.3-1.7,3.4-1.6,5.2-2.2.3,0,0,.3.1,0s0-.2-.2,0c-.4-.4-1.5,0-1.4-1,.9-1.1,2.2-.8,3.3-.6,1.5.3-.1,2.3,1.5,2.6-.7.7-1.6-.6-1.8.5-.1.7.4.8,1,.9.6.1,1.1.7,1.1,1.3.2,1.1,1,1.3,1.9,1.2-1,3-2.9,1.7-4.7.9Z"/>
        <path class="cls-20" d="M138.4,145.4l-.9,3.7c-2.8-.2-5.3-1.4-8-1.9-.5,0-1.1-.2-.9-1,.1-1,.8-.2,1.2-.4,1.7-.8,3.6-.4,5.4-.2.8.1,1.6,0,2.4-.2.2-.2.5-.3.7-.1,0,0,0,0,.1.1Z"/>
        <path class="cls-38" d="M137.6,152.2c.5.4.3,1,.3,1.5-.7,1.4-2.2,1.8-3.4,2.6-1.3.8-2.5,1.8-3.5,3-.2.3-.3.3-.5,0-.5-.3-.8-.6-.7-1.2.2-.5.4-.9.6-1.3,0-.4.4-.7-.2-1h-.2v-1.5c-2.4.3-3-.2-2.2-2.1h.2c0,0,.1.1.2.2,2,.7,4,0,6,.3h1.6c.6,0,1.2-.1,1.8-.4Z"/>
        <path class="cls-39" d="M171.2,146.7c-1.5,1.6-3.8,1.3-5.5,2.3,0-.8-.6-1.5-1.5-1.7-1-.2-1.1-.9-.4-1.6,1.8-.2,3.7.4,5.5,0,.7.2,1.4.2,1.8.9h0Z"/>
        <path class="cls-1" d="M126.4,162.9c-.7-1.2-.2-3.4,0-3.4,2.3.2.9-2,1.8-2.6,0-1.2,1.3-.9,1.9-1.4h0c.2.1.3.3.3.5,0,.5-.1,1.1-.5,1.5-.4.5-.3,1.2.2,1.7-.2,1.6-.7,3-2.8,2.7-.7,0-.3.9-.9,1Z"/>
        <path class="cls-35" d="M138.4,145.4h-.8c-1.5-1.8-3.9-2.6-5.6-4.6,1.8-.8,4.9,2.2,5.1-1.8,0,2.1,0,4.2,1.9,5.6l-.6.8Z"/>
        <path class="cls-36" d="M134.3,153.2h-3.9c-.8,0-1.7,0-2.1-.9l6-1.9c1.1.9.3,1.9,0,2.8Z"/>
        <path class="cls-27" d="M143.5,134.2c-1.1.1-2.2,0-3.3.4-.5-1.3-1.6-2.6-.6-4.3,1.1,1.5,2.4,2.8,3.9,3.9Z"/>
        <path class="cls-32" d="M134.3,153.2c-.6-.9.5-1.9,0-2.8l3.3-.5v1.4c-.5.6-1,1.2-1.4,1.8h-1.8Z"/>
        <path class="cls-43" d="M138.4,136.1l-1.4,2.3c-1.6-.7-1.4-2.7-3-3.6,1.8-.5,2.7,1.6,4.3,1.2Z"/>
        <path class="cls-4" d="M162.9,132.4c-.4-.8-.3-1.8.3-2.5,0,.9,1.1,1.8-.3,2.5h0Z"/>
        <path class="cls-31" d="M149.4,162.8c3.7-.4,7-1.4,9.7-4.1.7-.2,1.5-.5,1.6.7l-.2.3c-.4,2,1.2,3.4,1.7,5.2.3,1.1,1.2,2,1.1,3.2-.4.3-1,.3-1.4,0-1.6-1.4-3-2.9-4.3-4.6.3,1.2.3,2.5.2,3.7-.3,1.1.3,2.6-1.3,3.4-.4-1.4-1-2.7-1.9-3.8-.6-.5-1.1-1.1-1.2-1.9-.2,1-.2,2.1-1.1,2.9-.2,1.3-.4,2.5-.6,3.9-.6-.9-1.7-1.3-1.3-2.5-1.4-1.9-1.9-3.9-1-6.2Z"/>
        <path class="cls-17" d="M145.8,162l3.3.7c.2,2.6-1,4.6-2.4,6.6-.3.4-.7.8-.8,1.3-.2,1.3-.7.3-1,.1-.4.1-.6,0-.5-.5-.2-2.8.6-5.5,1.4-8.3Z"/>
        <path class="cls-22" d="M157.8,167.1c-.9-1.4-.2-3.1-.8-4.7,1.7,1.9,4,3.2,5,5.6-1.4,1-2.8.7-4.2-.9Z"/>
        <path class="cls-29" d="M146.7,169.4c.2-2.4,2.1-4.2,2.4-6.6,0,0,.2,0,.3,0,.1,2.1.4,4.1,1,6.1-1.2.1-2.3,1.5-3.7.5Z"/>
        <path class="cls-29" d="M152.3,167.5c.2-1.4.4-2.8.7-4.6.8,1.1,1.3,2.3,1.6,3.6-.3,1.6-1,2-2.3.9Z"/>
        <path class="cls-31" d="M144.4,170.3l.5.5c0,.3,0,.7-.1,1.4-.4-.7-.6-1.1-.8-1.4l.5-.5Z"/>
        <path class="cls-40" d="M131,159.2c0-2.3,2.2-2.6,3.5-3.6,1.1-.7,2.2-1.4,3.4-2l1.5,3.2-8.4,2.3Z"/>
        <path class="cls-41" d="M139.8,157.4l2,2.2c-2.1,2.2-4.8,3.3-7.6,4.4,1.7-2.4,3.2-4.9,5.6-6.6Z"/>
        <path class="cls-12" d="M142.2,160l3.3,2c-1.6,1.5-3.3,3.1-4.9,4.6-1-.7-.1-1.5-.4-2.2,1-1.3,1.4-2.8,1.9-4.3Z"/>
        <path class="cls-42" d="M136.6,165.7c.7,2.1-.8,2.7-2.3,3.2-.2-1.8,1.3-2.6,2.1-3.8l.3.5Z"/>
        <path class="cls-14" d="M130.1,159.2c-1.3-.3-1.1-1-.5-1.9.2,0,.4.2.5.5l.5,1.4h-.5Z"/>
        <path class="cls-13" d="M131.9,170.3c-.4-.2-.9-.4-.5-1,0-.1.2-.2.4-.1.7.3.3.7.2,1.1h0Z"/>
        <path class="cls-30" d="M165.2,160.2c.3.9,1.7,1.3,1,2.7-2-.8-3.9-1.9-5.6-3.2h0c.4-1.1,2.1-1,2.3-2.3l2.3,2.8Z"/>
        <path class="cls-37" d="M162.9,157.4c-.4.8,0,1.6.2,2.3-.9.6-1.7-1.7-2.5,0,0-1.1-1.1-.5-1.5-.9l1.8-2.3c.5.2.8,1.1,1.5.5l.5.4Z"/>
        <path class="cls-24" d="M168.4,158.3c-.3-1.2.7-1.1,1.4-1.4,1.1.4.7,1.2.2,1.7-.6.7-1.1.1-1.6-.4Z"/>
        <path class="cls-6" d="M138.9,144.5c.6-.9.7-2.2,2.2-2.3.4,0,.9,0,1.3.1,2,.3,2.6-.2,2.7-2.3,0-.4,0-.7.1-1.1.7-.8,1.8-1.1,2.8-.9,1,2.8.4,5-2,6.8-2,1.5-4.9,1.3-7.2-.4Z"/>
        <path class="cls-40" d="M136.1,153.2c-.7-1.5.4-1.6,1.4-1.8v.8c0,.9-.6,1.1-1.4,1Z"/>
        <path class="cls-9" d="M145.3,138.9c.8,1.2.8,2.6-.3,3.5-1.1,1-2.7,1-3.7-.1,0,0,0-.1-.1-.2-.5-1.2-1.1-2.3.3-3.4s2.6-1,3.9.2Z"/>
        <path class="cls-10" d="M171.2,146.7c0-.5.2-1,.8-.6.2.1.4.6.4.7-.4.6-.8,0-1.2,0h0Z"/>
        <path class="cls-25" d="M130.1,157.8c-.2-.2-.3-.3-.5-.5.2-.5.3-.9.5-1.4.9-.3.5.7.9.9l-.9.9Z"/>
        <path class="cls-16" d="M131,156.9c-.3-.3-.6-.6-.9-.9v-.4c.3,0,.4-.8.8-.5.6.5,0,1.2.1,1.9Z"/>
      </g>
    </g>
  </g>
</svg>