<?xml version="1.0" encoding="UTF-8"?>
<svg xmlns="http://www.w3.org/2000/svg" version="1.1" xmlns:xlink="http://www.w3.org/1999/xlink" viewBox="0 0 300 300">
  <defs>
    <style>
      .cls-1 {
        fill: url(#linear-gradient);
      }
    </style>
    <linearGradient id="linear-gradient" x1="761.4" y1="150" x2="79.7" y2="150" gradientTransform="translate(0 300) scale(1 -1)" gradientUnits="userSpaceOnUse">
      <stop offset="0" stop-color="#132d49"/>
      <stop offset=".3" stop-color="#14344e"/>
      <stop offset="1" stop-color="#2bb7b9"/>
    </linearGradient>
  </defs>
  <!-- Generator: Adobe Illustrator 28.6.0, SVG Export Plug-In . SVG Version: 1.2.0 Build 709)  -->
  <g>
    <g id="Layer_1">
      <path class="cls-1" d="M157,233.6c-48.9,0-82.1-26.1-90.1-65.7-10.5-51.5,24.6-97.1,75.2-101.2,14.9-1.2,29.3.6,43,6.6,18.2,8,32.2,20.5,40.7,38.9,15.1,32.7,11.8,63.4-10.4,91.5-16.6,21-39.7,29.4-58.4,30ZM97.8,156.9c0,4.7,1,9.3,2.7,13.7,5.7,14.1,15.6,23.8,29.8,29.1,22.3,8.4,47.3,1.2,60.9-16.4,9.2-12,12.7-25.3,7.9-40.2-1.5-4.7-3.5-9.2-5.9-13.5-12.2-21.8-28.5-40.8-42-61.7-1.4-2.2-2.5-1.1-3.5.4-3.6,5.2-7.2,10.3-10.8,15.4-10.1,14.1-21.1,27.7-29.6,42.8-5.2,9.3-9.9,19-9.5,30.2Z"/>
    </g>
  </g>
</svg>