<?xml version="1.0" encoding="UTF-8"?>
<svg xmlns="http://www.w3.org/2000/svg" version="1.1" viewBox="0 0 300 300">
  <defs>
    <style>
      .cls-1 {
        fill: #ab0bb0;
      }

      .cls-1, .cls-2 {
        fill-rule: evenodd;
      }

      .cls-2 {
        fill: #98a2b3;
      }
    </style>
  </defs>
  <!-- Generator: Adobe Illustrator 28.6.0, SVG Export Plug-In . SVG Version: 1.2.0 Build 709)  -->
  <g>
    <g id="Layer_1">
      <g>
        <path class="cls-2" d="M217.7,129h-63.4c-3.5,5-7.4,9.7-11.7,14h33c12.5-7.6,26.8-12.5,42.1-13.9h0s0,0,0,0ZM221.9,157.1h-42.4c-5.9,4-11.2,8.7-15.9,13.9h21.1c10.5-7.9,23.2-13,37.1-13.9ZM136.3,129h-21.1c-10.4,7.9-23.2,12.9-37,14h42.2c5.9-4,11.2-8.7,15.9-14ZM124.5,157.1h33c-4.3,4.3-8.2,8.9-11.7,13.9h-63.5c15.3-1.4,29.7-6.3,42.2-13.9Z"/>
        <path class="cls-1" d="M115.3,129h0,0s0,0,0,0ZM115.3,129c16.7-12.6,27.5-32.6,27.5-55v-8.2c2.4-.2,4.8-.3,7.3-.3s4.8.1,7.2.3v8.3c0,21-7.9,40.2-20.8,54.9h-21.1ZM142.5,143c-5.4,5.4-11.5,10.2-18.1,14.2h32.9c5.4-5.4,11.5-10.2,18.1-14.2h-33ZM82.3,171.1l-2.2-13.9c14.9-1.2,28.7-6.3,40.4-14.2h-42.1c0,0-.1,0-.2,0h0c0,0-.1,0-.2,0l-2.2-14c29.4-1.4,52.8-25.5,52.8-55v-5.8c-36.6,9.4-63.6,42.5-63.6,81.7s27,72.3,63.6,81.8v-5.7c0-20.4,6.3-39.3,17.1-54.9h-63.5ZM171.3,68.2v5.9c0,20.4-6.3,39.3-17.1,54.9h63.4l2.2,13.9c-14.9,1.2-28.7,6.3-40.3,14.2h42.5s2.2,13.9,2.2,13.9c-29.4,1.4-52.8,25.5-52.8,55v5.6c36.6-9.4,63.7-42.4,63.7-81.8s-27-72.4-63.7-81.8ZM184.7,171.1h0s0,0,0,0ZM184.7,171.1h-21.1c-13,14.7-20.9,33.9-20.9,54.9v8.1c2.4.2,4.8.3,7.3.3s4.8-.1,7.2-.3v-8c0-22.4,10.8-42.4,27.5-55Z"/>
      </g>
    </g>
  </g>
</svg>