<?xml version="1.0" encoding="UTF-8"?>
<svg xmlns="http://www.w3.org/2000/svg" version="1.1" viewBox="0 0 300 300">
  <defs>
    <style>
      .cls-1 {
        fill: #332e21;
      }

      .cls-2 {
        fill: #e88149;
      }
    </style>
  </defs>
  <!-- Generator: Adobe Illustrator 28.6.0, SVG Export Plug-In . SVG Version: 1.2.0 Build 709)  -->
  <g>
    <g id="Layer_1">
      <g>
        <path id="Layer" class="cls-2" d="M130.4,78.2c39.7-11.4,81.1,11.6,92.5,51.3,11.4,39.7-11.6,81.1-51.3,92.5-4.7,1.3-9.4,2.2-14.3,2.6.2-6.6,0-13.2,0-19.9,15.3-1.9,29.1-10,38.1-22.5,17.8-24.5,12.4-58.9-12.1-76.8-15.2-11-34.9-13.6-52.4-6.7-13.4,5.3-24.1,15.6-30.1,28.7-7.8,17.5-6,37.8,4.8,53.5,3.8,5.5,8.6,10.3,14.1,14.2,7.5,5.1,16.2,8.4,25.2,9.5,0,6.6,0,13.3,0,19.9h-.7c-41.1-3.9-71.4-40.3-67.6-81.5,2.8-30.7,24.1-56.5,53.7-65Z"/>
        <path id="Layer-2" class="cls-1" d="M105.7,181.1l44.3-47.3c15.2,16.2,30.4,32.4,45.5,48.5-3.9,5.4-8.8,10-14.3,13.7-10.3-11.1-20.7-22.2-31.1-33.2-9.7,10.1-19.1,20.4-28.7,30.6-.6.6-1.2,1.3-1.6,2-5.5-3.9-10.2-8.7-14.1-14.2h0ZM91.9,195.8c12.7,16.5,31.7,26.9,52.4,28.8-26.4,0-52.9,0-79.3,0,9-9.6,18-19.2,27-28.8h0ZM157.2,224.6c20.4-1.8,39.1-11.8,51.9-27.7,8.6,9.2,17.3,18.3,25.8,27.6-26,0-51.8,0-77.8,0h0Z"/>
      </g>
    </g>
  </g>
</svg>