<?xml version="1.0" encoding="UTF-8"?>
<svg xmlns="http://www.w3.org/2000/svg" version="1.1" viewBox="0 0 300 300">
  <defs>
    <style>
      .cls-1 {
        fill: #e47227;
      }

      .cls-2 {
        fill: #56585c;
      }
    </style>
  </defs>
  <!-- Generator: Adobe Illustrator 28.6.0, SVG Export Plug-In . SVG Version: 1.2.0 Build 709)  -->
  <g>
    <g id="Layer_1">
      <g>
        <g>
          <path class="cls-1" d="M215.9,122.6h1.5c8.9,19.1,17.8,38.1,26.8,57.2h-6.3c-2.9-6.2-6-12.4-9-18.7h-24.7c-2.9,6.2-5.9,12.4-8.9,18.7h-6.5c9.1-19.1,18.1-38.2,27.1-57.2ZM226.3,155.3l-9.7-20.5c-3.2,6.9-6.5,13.7-9.7,20.5,1.6.2,18.4.2,19.4,0h0Z"/>
          <path class="cls-1" d="M253.8,175.4v4.4h-5c-.2-.9-.2-55.4,0-57.1h4.6v27.7c6.9-7.4,18.4-8,25.9-1.2.3.3.6.5.8.8,6.9,6.9,6.5,18.4,0,25.2-7.2,7.4-18.9,7.4-26.2.2,0,0,0,0,0,0ZM280.4,162.7c.2-7.4-5.7-13.4-12.9-13.6h-.2c-7.4-.2-13.6,5.7-13.8,13.1-.2,7.4,5.7,13.6,13.1,13.8h.3c7.4.2,13.7-6,13.5-13.3h0Z"/>
        </g>
        <g>
          <path class="cls-2" d="M75.9,149.4c.3,16.5-13.6,30.8-30.9,30.5-7.9,0-15.5-3.2-21-8.8-5.9-5.6-9.1-13.4-9-21.6,0-16.7,13.3-30.2,30-30.3h.4c17.2,0,30.8,13.9,30.5,30.2ZM45.5,175c14.1,0,25.5-11.5,25.5-25.6s-11.5-25.5-25.6-25.5-25.5,11.5-25.5,25.5c0,14,11.2,25.4,25.2,25.5.2,0,.3,0,.4,0Z"/>
          <path class="cls-2" d="M131,179.8c-.3,0-.6,0-.9,0h-3.3c0-.4-.2-.9,0-1.3v-19.2c0-1.4-.2-2.8-.5-4.2-.6-2.7-2.8-4.7-5.6-5.1-5.7-1-10.5,3.2-11.5,7.8-.4,1.7-.6,3.3-.7,5-.3,5.2,0,10.5-.2,15.7,0,.4,0,.9,0,1.3h-4.1c0-.4,0-.9,0-1.3v-17.6c0-2.1-.2-4-.7-6-.8-2.6-2.9-4.5-5.7-4.9-4.7-.8-9.5,2.5-11,7.1-.7,2.4-1,4.7-1,7.2v14.2c0,.4,0,.9-.2,1.3h-4.1c-.2-.7-.3-31.7,0-33.2.3-.2.6,0,.9,0h3.4v5.5c.4-.5.7-.8.9-1.1,2.2-2.9,5.5-4.8,9-5.2,3.5-.5,7.2.8,9.6,3.4.8,1,1.4,2.1,1.9,3.1,0,.3,0,.7.5.9.7-.9,1.3-1.9,2-2.6,2.2-2.6,5.2-4.4,8.5-4.8,2.4-.4,4.7,0,6.9,1.1,2.8,1.5,4.9,4.1,5.5,7.3.5,2.1.7,4.2.7,6.5v18.5c.2.3.3.5,0,.8Z"/>
          <path class="cls-2" d="M140.2,146.6h4.2c0,1.8,0,3.5,0,5.4.5,0,.7-.4.9-.7,1.6-2,3.5-3.4,5.8-4.4,3.3-1.5,7.1-1.6,10.4-.2,3.4,1.4,6.1,4.4,6.8,8,.5,2.3.8,4.6.7,7v17.3c0,.3,0,.6,0,.8h-3.9c0-.4,0-.8,0-1.2v-17c0-2.3-.2-4.5-.9-6.8-.9-2.8-3.4-4.9-6.5-5.1-6.2-.9-11.4,3.9-12.4,8.9-.3,1.2-.4,2.4-.5,3.5-.3,5.4,0,10.8-.2,16.3v1.3c-.7.2-1.4.2-2.2,0h-2.1c0-1,0-31.9,0-33.3Z"/>
          <path class="cls-2" d="M182.1,179.8h-4.3v-33.2h4.2c.2.9.3,29,0,33.2Z"/>
          <path class="cls-2" d="M176.3,137.6c0-1.9,1.4-3.3,3.2-3.4h.3c2,0,3.5,1.5,3.5,3.4h0c0,2-1.7,3.5-3.5,3.5s-3.7-1.6-3.5-3.5Z"/>
        </g>
      </g>
    </g>
  </g>
</svg>