<?xml version="1.0" encoding="UTF-8"?>
<svg xmlns="http://www.w3.org/2000/svg" version="1.1" viewBox="0 0 300 300">
  <defs>
    <style>
      .cls-1 {
        fill: #b1b6ca;
      }

      .cls-2 {
        fill: #ab1f24;
      }

      .cls-3 {
        fill: #75689c;
      }
    </style>
  </defs>
  <!-- Generator: Adobe Illustrator 28.6.0, SVG Export Plug-In . SVG Version: 1.2.0 Build 709)  -->
  <g>
    <g id="Layer_1">
      <g>
        <g>
          <path class="cls-3" d="M35.9,166.1c-11.6,0-20.9-9.3-20.9-20.9s9.3-20.9,21.1-20.9,20.8,9.4,20.8,21-9.3,20.8-21,20.8ZM35.8,156.9c5.5.3,11.5-4,11.5-11.7s-5.9-11.8-11.4-11.7c-6.5.1-11.4,5-11.5,11.7,0,6.7,5.4,11.9,11.4,11.7Z"/>
          <path class="cls-3" d="M138.3,136.2c7.5-.2,14.9,5.5,14.9,14.9s-6.5,14.9-15,14.9-15-6.5-14.9-15c.1-9.2,7.2-15.1,15-14.8ZM144.5,151.2v-.7c-.1-2.8-1.9-5-4.4-5.7-2.8-.8-5.5.3-7.1,2.7-1.3,2.1-1.2,5.9.2,7.8,1,1.3,2.2,2.2,3.9,2.4,4.3.6,7.4-2.1,7.4-6.5Z"/>
          <path class="cls-3" d="M208,154.5h-7.8c-.9,0-1,.2-.6,1,1.2,2.2,3.2,3.1,5.6,3.3,2.7.2,5.1,0,7.5-1.3.7-.3,1.2-.2,1.7.4.6.9,1.2,1.7,1.8,2.5.8,1.1.7,1.4-.3,2.3-1.5,1.4-3.4,2.2-5.5,2.8-3.8.9-7.4.7-10.9-.8-5-2.1-7.8-5.9-8.7-11-.8-5.1.3-9.7,4.1-13.5s5.7-3.8,9.4-3.9c2.5-.1,5,.1,7.3,1.3,4.3,2.1,6.6,5.6,7.3,10.3.2,1.3.2,2.5,0,3.9-.3,1.9-1.3,2.8-3.3,2.8-2.4-.1-5-.1-7.4-.1ZM204.9,148.3h4.8c1.1,0,1.2-.2.8-1.2-.7-1.8-2-2.8-3.8-3.2-3.2-.7-6.3.9-7.3,3.5-.2.7-.1.9.7.9,1.5-.1,3.2,0,4.9,0Z"/>
          <path class="cls-3" d="M71.5,140.8c1.4-2.2,3.2-3.8,5.7-4.3,6.5-1.3,11.7,2.2,12.6,9.3.4,3.1.1,6.3.2,9.4v8.6c0,1.3-.3,1.5-1.5,1.5h-6c-1.2,0-1.4-.2-1.4-1.4v-13.3c0-1-.1-2.1-.4-3.1-.7-2-2-3-4.2-3s-3.9,1.1-4.5,3c-.3,1-.4,2.1-.4,3.2v12.9c0,1.7-.1,1.8-1.9,1.8h-5.5c-1.5,0-1.7-.2-1.8-1.8v-25.1c0-1.3.3-1.7,1.5-1.7h5.7c1,0,1.4.4,1.4,1.3.2.8.4,1.4.4,2.5Z"/>
          <path class="cls-3" d="M167.2,140.5c1-1.3,2-2.4,3.3-3.2,4.3-2.3,11.7-1.3,14.1,5.3.6,1.4.9,3,.9,4.5v16.6c0,1.3-.1,1.5-1.4,1.5h-5.9c-1.4,0-1.7-.2-1.7-1.7v-13c0-1,0-1.9-.2-2.9-.6-2.1-2-3.2-4.2-3.2s-4,1.1-4.5,3.1c-.2.8-.3,1.7-.3,2.4v13.5c0,1.5-.2,1.8-1.8,1.8h-5.9c-1.1,0-1.3-.2-1.3-1.3v-25.6c0-1.1.3-1.4,1.3-1.4h6c1,0,1.4.4,1.4,1.3-.2.7-.3,1.4.1,2.3Z"/>
          <path class="cls-3" d="M280.4,165.3h-3.5c-.8,0-1.3-.2-1.7-1-1.1-2-2.2-4-3.4-5.9-.2-.3-.2-.8-.7-.8s-.6.4-.7.8c-1.1,1.9-2.2,3.8-3.3,5.7-.4.8-1,1.2-2,1.2h-6.7c-.4,0-1,.1-1.2-.3-.2-.6.1-.9.3-1.3,2.5-4,5-8.1,7.5-12,.4-.7.3-1.1,0-1.8-2.4-3.8-4.8-7.5-7.2-11.2-.2-.4-.7-.9-.3-1.3.3-.6.9-.4,1.3-.4h6.5c1,0,1.5.3,2,1.2,1,1.8,2.1,3.5,3.1,5.3.4.8.7.8,1.1,0,1-1.8,2-3.4,3-5.2.6-.9,1.2-1.3,2.2-1.3h6.6c1.3,0,1.5.4.9,1.5-2.4,3.9-4.9,7.6-7.3,11.5-.4.7-.4,1.1,0,1.7,2.5,4,5.1,8.1,7.6,12,.2.3.7.8.3,1.2-.3.4-.8.3-1.2.3-1.1,0-2.2,0-3.3,0Z"/>
          <path class="cls-3" d="M109.3,136.2c4.5-.1,8.1,1.4,10.9,4.5,1,1.1,1,1.4-.1,2.4-1,1-2.1,2-3.2,3-1,.9-1.3.9-2.3,0-1.7-1.4-3.6-2.1-5.9-1.8-4.9.8-6.6,6.1-4.4,9.9,2,3.4,6.5,4.2,9.7,1.8.2-.2.4-.3.7-.6.8-.7,1.4-.7,2.1.1,1.1,1.1,2.2,2.1,3.3,3.2,1,.9,1,1.3.1,2.3-2.7,3-6,4.5-9.8,4.6-9.4.3-16.1-6.6-15.7-15.9.4-8.3,7.2-13.9,14.6-13.7Z"/>
          <path class="cls-3" d="M225.7,151.3v-6.3c0-.8-.2-1.2-1.1-1.1h-2.1c-.8,0-1.2-.4-1.2-1.2v-4.6c0-.8.4-1.1,1.2-1.2h2.2c.8,0,1-.3,1-1v-5c0-1.1.3-1.5,1.4-1.5h6.1c1.3,0,1.7.4,1.7,1.8v4.8c0,.8.2,1.2,1.1,1.1h2.8c.9,0,1.3.4,1.3,1.3v4.5c0,.9-.4,1.2-1.3,1.2h-3c-.6,0-.9.2-.9.8v11.5c0,1.3,1.1,2.1,2.8,2q2.4-.1,2.4,2.3v2.8c0,.8-.3,1.3-1,1.7-2.5,1.1-8.4,1.1-11.2-1.8-1.7-1.7-2.2-3.8-2.3-6,0-2,.1-4,.1-6Z"/>
        </g>
        <g>
          <path class="cls-2" d="M253.7,149.2v8.7c0,9.3-3.2,17.5-9.2,24.5-7.5,8.8-17.2,13.7-28.6,15.6-10.6,1.8-20.7.1-30.3-4.6-10.9-5.4-18.9-13.6-23.4-25q-.4-1.2.9-1.2h2.5c.7,0,1,.2,1.2.8,6.3,13.4,16.7,21.8,31.3,24.4,12.2,2.2,23.5-.1,33.5-8,6.2-5,9.7-11.6,11.6-19.2,1-3.9,1.3-7.8,1.4-11.8v-14.9c0-1.5.2-1.8,1.8-1.8h5.9c1.2,0,1.4.3,1.4,1.4,0,3.9,0,7.5,0,11Z"/>
          <path class="cls-2" d="M248.3,121.7c0,.4-.2.4-.4.4-2.8.7-4.8,2.2-5.7,5-.3.9-.7.4-.9,0-4.3-5.9-9.8-10.3-16.2-13.4-5.1-2.4-10.5-4-16.2-4.3-13.6-.9-25,3.6-34.4,13.5-3.1,3.2-5.5,7-7.3,11.2-.3.8-.7,1.2-1.7,1.1s-2.1-.1-3.2,0c-.8,0-1-.2-.8-1,1.2-3.5,2.8-7,4.8-10.1,8.4-12.6,20.1-20,34.9-22.2,14.7-2.2,27.6,2.2,39.1,11.3,2.9,2.3,5.4,5.1,7.5,8.1.3.1.4.3.6.4Z"/>
          <path class="cls-1" d="M243.7,129.5c0-3.1,2.4-5.5,5.4-5.6,3.1,0,5.5,2.5,5.5,5.6s-2.5,5.5-5.5,5.5-5.4-2.4-5.4-5.5Z"/>
        </g>
      </g>
    </g>
  </g>
</svg>