<?xml version="1.0" encoding="UTF-8"?>
<svg xmlns="http://www.w3.org/2000/svg" version="1.1" xmlns:xlink="http://www.w3.org/1999/xlink" viewBox="0 0 300 300">
  <defs>
    <style>
      .cls-1 {
        fill: url(#linear-gradient-13);
      }

      .cls-2 {
        fill: url(#linear-gradient-2);
      }

      .cls-3 {
        fill: url(#linear-gradient-10);
      }

      .cls-4 {
        fill: url(#linear-gradient-12);
      }

      .cls-5 {
        fill: url(#linear-gradient-4);
      }

      .cls-6 {
        fill: url(#linear-gradient-3);
      }

      .cls-7 {
        fill: url(#linear-gradient-5);
      }

      .cls-8 {
        fill: url(#linear-gradient-8);
      }

      .cls-9 {
        fill: url(#linear-gradient-7);
      }

      .cls-10 {
        fill: url(#linear-gradient-9);
      }

      .cls-11 {
        fill: url(#linear-gradient-11);
      }

      .cls-12 {
        fill: url(#linear-gradient-6);
      }

      .cls-13 {
        fill: url(#linear-gradient);
      }
    </style>
    <linearGradient id="linear-gradient" x1="64.1" y1="136.9" x2="285" y2="136.9" gradientTransform="translate(0 300) scale(1 -1)" gradientUnits="userSpaceOnUse">
      <stop offset="0" stop-color="#2e67b4"/>
      <stop offset="1" stop-color="#00a5dd"/>
    </linearGradient>
    <linearGradient id="linear-gradient-2" x1="251.3" y1="150" x2="16.4" y2="150" gradientTransform="translate(0 300) scale(1 -1)" gradientUnits="userSpaceOnUse">
      <stop offset="0" stop-color="#2e67b4"/>
      <stop offset="1" stop-color="#00a5dd"/>
    </linearGradient>
    <linearGradient id="linear-gradient-3" x1="251.3" y1="155.8" x2="16.4" y2="155.8" gradientTransform="translate(0 300) scale(1 -1)" gradientUnits="userSpaceOnUse">
      <stop offset="0" stop-color="#2e67b4"/>
      <stop offset="1" stop-color="#00a5dd"/>
    </linearGradient>
    <linearGradient id="linear-gradient-4" x1="251.3" y1="155.8" x2="16.4" y2="155.8" gradientTransform="translate(0 300) scale(1 -1)" gradientUnits="userSpaceOnUse">
      <stop offset="0" stop-color="#2e67b4"/>
      <stop offset="1" stop-color="#00a5dd"/>
    </linearGradient>
    <linearGradient id="linear-gradient-5" x1="251.3" y1="155.8" x2="16.4" y2="155.8" gradientTransform="translate(0 300) scale(1 -1)" gradientUnits="userSpaceOnUse">
      <stop offset="0" stop-color="#2e67b4"/>
      <stop offset="1" stop-color="#00a5dd"/>
    </linearGradient>
    <linearGradient id="linear-gradient-6" x1="251.3" y1="155.8" x2="16.4" y2="155.8" gradientTransform="translate(0 300) scale(1 -1)" gradientUnits="userSpaceOnUse">
      <stop offset="0" stop-color="#2e67b4"/>
      <stop offset="1" stop-color="#00a5dd"/>
    </linearGradient>
    <linearGradient id="linear-gradient-7" x1="251.3" y1="156.2" x2="16.4" y2="156.2" gradientTransform="translate(0 300) scale(1 -1)" gradientUnits="userSpaceOnUse">
      <stop offset="0" stop-color="#2e67b4"/>
      <stop offset="1" stop-color="#00a5dd"/>
    </linearGradient>
    <linearGradient id="linear-gradient-8" x1="251.3" y1="159.3" x2="16.4" y2="159.3" gradientTransform="translate(0 300) scale(1 -1)" gradientUnits="userSpaceOnUse">
      <stop offset="0" stop-color="#2e67b4"/>
      <stop offset="1" stop-color="#00a5dd"/>
    </linearGradient>
    <linearGradient id="linear-gradient-9" x1="251.3" y1="155.8" x2="16.4" y2="155.8" gradientTransform="translate(0 300) scale(1 -1)" gradientUnits="userSpaceOnUse">
      <stop offset="0" stop-color="#2e67b4"/>
      <stop offset="1" stop-color="#00a5dd"/>
    </linearGradient>
    <linearGradient id="linear-gradient-10" x1="251.3" y1="180.7" x2="16.4" y2="180.7" gradientTransform="translate(0 300) scale(1 -1)" gradientUnits="userSpaceOnUse">
      <stop offset="0" stop-color="#2e67b4"/>
      <stop offset="1" stop-color="#00a5dd"/>
    </linearGradient>
    <linearGradient id="linear-gradient-11" x1="258.7" y1="131.5" x2="-245.9" y2="131.5" gradientUnits="userSpaceOnUse">
      <stop offset="0" stop-color="#2e67b4"/>
      <stop offset="1" stop-color="#00a5dd"/>
    </linearGradient>
    <linearGradient id="linear-gradient-12" x1="251.3" y1="131.5" x2="16.4" y2="131.5" xlink:href="#linear-gradient-11"/>
    <linearGradient id="linear-gradient-13" x1="87.5" y1="123.6" x2="262.2" y2="123.6" gradientTransform="translate(0 300) scale(1 -1)" gradientUnits="userSpaceOnUse">
      <stop offset="0" stop-color="#2e67b4"/>
      <stop offset="1" stop-color="#00a5dd"/>
    </linearGradient>
  </defs>
  <!-- Generator: Adobe Illustrator 28.6.0, SVG Export Plug-In . SVG Version: 1.2.0 Build 709)  -->
  <g>
    <g id="Layer_1">
      <g>
        <path class="cls-13" d="M64.1,164.5c1,0,2.1.1,3.1.3,9.6,1.3,19.2,2.4,28.8,3.2,9.7.9,19.4,1.6,29.1,2,13.5.6,27,.9,40.5.7,6.1-.1,12.3-.3,18.4-.6,9-.5,18.1-1.2,27.1-2.2,8.5-.9,16.9-2.1,25.3-3.7,15-2.8,29.7-6.4,43.9-12.2,1.5-.6,3.1-1.3,4.8-2-.3.4-.7.7-1.1.9-7.7,4.9-15.9,8.8-24.6,11.7-11.6,4-23.4,6.9-35.5,8.9-8.2,1.4-16.4,2.4-24.7,3.1-15.9,1.4-31.8,1.7-47.8,1-8.3-.3-16.6-.8-24.9-1.5-8.2-.7-16.4-1.6-24.6-2.7-11.1-1.5-22.2-3.4-33.2-5.8-1.4-.3-2.9-.6-4.3-1,0,0-.1,0-.2-.2Z"/>
        <path class="cls-2" d="M45.2,172.7c2-14.2,4-28.3,6.1-42.5,1-.5,2.1-.9,3.3-1.2,4-1.1,8.1-1.7,12.3-1.6,2,0,4,.4,5.8,1.1,2.7,1.1,4.6,3.6,4.9,6.5.2,1.3.2,2.7,0,4-.5,3.7-.8,7.4-1.7,11-1.4,6.3-5.6,10-12.1,10.9-2.7.4-5.5.2-8.1-.5-.5-.2-1-.3-1.5-.2l-1.8,12.6h-7.2ZM55.3,153.5c2.6.9,5.4,1.1,8.2.7,2.6-.4,4.8-2.3,5.3-4.9.2-1,.4-2,.5-3,.3-2.3.7-4.6.9-6.9.3-2.5-.9-4.4-3.2-5-3-.7-6.2-.5-9.1.6-.4,1.4-2.7,17.6-2.6,18.6Z"/>
        <path class="cls-6" d="M159.2,161.1c-2.7,0-5.3-.5-7.7-1.8-3.3-1.7-5.4-5.1-5.5-8.7,0-1.3,0-2.6.2-3.9.4-2.4.6-4.8,1.1-7.2,1.4-6.3,6.7-11.1,13.1-11.9,3.4-.6,6.9-.3,10.2.9,4.8,1.8,7.6,6.6,6.9,11.6-.3,2.4-.7,4.9-1,7.3-.8,6.3-5.3,11.6-12.7,13.2-1.5.3-3.1.5-4.6.5ZM153.4,147.1c0,4.2,2.8,7.2,6.6,7.3,4.7,0,8.8-3.4,9.5-8.1.2-1.6.5-3.3.7-4.9.5-3.7-2-7.1-5.7-7.7-.4,0-.7,0-1.1,0-4.1,0-7.7,2.8-8.9,6.8-.5,2.2-.9,4.5-1.1,6.8Z"/>
        <path class="cls-5" d="M32.9,127.4c2.2-.1,4.4.2,6.5,1,4.7,1.6,7.7,6.3,7.1,11.3-.3,2.9-.7,5.8-1.2,8.7-1.2,6.3-6.2,11.2-12.6,12.2-3.2.7-6.6.6-9.7-.3-4.8-1.2-8.2-5.7-8-10.6.1-2.5.4-5,.9-7.5.1-1.3.4-2.5.7-3.7,2.1-6.3,6.5-9.7,12.9-10.9.5,0,1.1-.2,1.6-.2.6,0,1.2,0,1.8,0ZM22.4,147.1c0,3.9,2.1,6.6,5.6,7.3,4.6.9,9.5-2.7,10.4-7.5.3-1.9.6-3.7.8-5.6.5-3.7-2.1-7.1-5.8-7.6-.3,0-.7,0-1,0-4.2,0-7.9,2.9-9,7-.5,2.1-.8,4.3-1,6.5Z"/>
        <path class="cls-7" d="M238.1,146.4h-21.6c-.3,1.8-.8,3.6-.1,5.4.5,1.4,1.7,2.5,3.2,2.7,3.4.9,7,.2,9.8-1.9.1,0,.2-.2.4-.3,0,0,.2,0,.2,0,1.5,1.3,3.1,2.7,4.8,4.2-1.4,1.5-3.1,2.6-5,3.3-4.2,1.6-8.7,1.9-13.1.9-5-1.1-7.7-4.5-7.8-9.8,0-.8,0-1.6.1-2.4.4-3.1.7-6.3,1.4-9.4,1.1-6.1,6-10.7,12.1-11.4,2.9-.5,5.8-.4,8.6.2,5.5,1.4,8.4,5.2,8,11-.2,2.5-.6,4.9-1,7.6ZM231.5,141c.3-1,.4-2,.3-3.1,0-1.9-1.3-3.5-3.1-4-1.8-.6-3.8-.7-5.6-.2-3.5.6-6.1,3.8-5.8,7.3h14.2Z"/>
        <path class="cls-12" d="M207.9,136.1l-6.6,2.5c-.3-.2-.4-.6-.5-.9-.6-2-2.3-3.4-4.4-3.7-2-.4-4-.3-5.9.3-1.5.3-2.6,1.6-2.7,3.1-.2,1.1.4,2.3,1.5,2.6.9.4,1.9.6,2.9.7,2.3.2,4.6.5,6.9.9,1.1.2,2.1.6,3.1,1.1,2.3,1,3.8,3.3,3.8,5.8.1,5.4-3,9.8-8.5,11.5-4.2,1.4-8.7,1.4-12.8,0-2.9-.7-5.2-2.9-6.2-5.7-.3-1-.5-2-.6-3l6.7-2c.2.4.3.9.4,1.3.3,1.7,1.6,3,3.3,3.4,2.5.7,5.2.6,7.7-.2,1.7-.4,2.8-1.8,2.9-3.5.1-1-.4-1.9-1.3-2.3-.7-.4-1.5-.6-2.3-.7-2.3-.3-4.5-.6-6.8-.9-1.3-.2-2.6-.5-3.8-1-2.6-1-4.3-3.5-4.2-6.3-.2-5.2,3.3-9.9,8.4-11.2,3.8-1.1,7.9-1.2,11.7-.1,1,.3,1.9.7,2.8,1.2,2.5,1.4,4.1,4,4.4,6.8Z"/>
        <path class="cls-9" d="M118,130.2c1.7-.8,3.6-1.3,5.4-1.7,4.1-1,8.4-1.3,12.6-.9.9.1,1.8.3,2.6.6,3.7,1.3,5.4,4.1,5.7,7.9,0,1.8,0,3.6-.4,5.4-.9,6.1-1.8,12.3-2.6,18.5h-7.1c0-1,0-2.1.3-3,.8-5.7,1.6-11.4,2.4-17,0-.4,0-.9,0-1.3.1-2.2-1.4-4.1-3.6-4.5-3-.5-6-.3-8.9.7-1.2,8.4-2.4,16.7-3.6,25.2h-7.2c1.4-10,2.8-20,4.3-30Z"/>
        <path class="cls-8" d="M85.8,134.9h-6.1c.3-2.3.6-4.4.9-6.7h6.1c.4-2.6.8-5.1,1.1-7.7h7.2l-1,7.6h9l-.9,6.7h-9.1c-.2,1.7-.5,3.3-.7,4.8-.4,2.9-.9,5.7-1.2,8.6,0,.8,0,1.7,0,2.5.1,1.8,1.7,3.3,3.5,3.2,1,0,2-.1,2.9-.3.5,0,1.1-.2,1.8-.3l-1,6.9c-2.2.5-4.5.7-6.7.6-.6,0-1.1-.1-1.6-.2-3.2-.5-5.6-3-6.1-6.1-.5-2.9-.4-5.8.2-8.6.5-3.6,1-7.1,1.6-10.9Z"/>
        <path class="cls-10" d="M107.1,128.2h7.2c-1.5,10.7-3,21.2-4.5,31.9h-7.2c1.5-10.6,3-21.2,4.6-31.9Z"/>
        <path class="cls-3" d="M115,123.1h-7.2c.2-2.5.7-5,1-7.5h7.2l-1.1,7.5Z"/>
        <g>
          <path class="cls-11" d="M248.9,130.3c0-1.4-1-2.5-2.3-2.8-.2,0-.5-.1-.7-.2-2.6-.4-5,1.5-5.3,4.1-.5,2.7.9,4.3,3.6,4.3.2,0,.5,0,.7,0,2.6-.4,4.4-2.8,4.1-5.4ZM244.2,134.7c-2,0-3-1-2.7-3,0-.2,0-.4.1-.7.5-2,2.6-3.2,4.6-2.6,1.1.2,1.8,1.1,1.8,2.2,0,.2,0,.3,0,.5,0,2.1-1.7,3.7-3.8,3.7Z"/>
          <path class="cls-4" d="M245.4,129.4c-.7-.1-1.3,0-2,.1-.3,1.3-.5,2.6-.7,3.9.2.2.6.2.8,0,.3-.4.1-.9.6-1.3.9,0,.6,1,1.1,1.3.3,0,.6.2.8,0,0-.5-.4-.8-.3-1.3.2-.2.5-.4.6-.7.2-.2.3-.6.3-.9,0-.7-.6-1.2-1.3-1.1ZM244.3,131.3c-.2-.2-.2-.6,0-.8.4-.2.9-.2,1.3,0-.1,1-.8.8-1.3.8Z"/>
        </g>
        <path class="cls-1" d="M261,168.6c-4.1,1.5-8.2,2.8-12.4,3.9-11.3,3-22.8,5.1-34.5,6.4-11.6,1.4-23.2,2.1-34.9,2.1-18.2,0-36.3-1.1-54.3-3.5-8.9-1.1-17.8-2.5-26.6-4.1-1.1-.2-9.7-2-10.7-2,.4.1.7.3,1.1.3.2,0,.5.1.7.2,0,0,.2,0,.3,0,1.5.4,4,1.1,8.3,2.1h0c6.3,1.5,12.7,2.9,19.1,4.1,9.6,1.8,19.3,3.2,29,4.3,7.8.8,15.7,1.4,23.5,1.7,11.7.5,23.4,0,35.1-1.1,10.2-1,20.2-2.7,30.1-5.1,7.9-1.9,15.7-4.4,23.2-7.6,1.5-.6,2.9-1.3,4.3-2.1-.5-.2-.9,0-1.2.2Z"/>
      </g>
    </g>
  </g>
</svg>