<?xml version="1.0" encoding="UTF-8"?>
<svg xmlns="http://www.w3.org/2000/svg" version="1.1" viewBox="0 0 300 300">
  <defs>
    <style>
      .cls-1 {
        fill: #e53c1f;
      }
    </style>
  </defs>
  <!-- Generator: Adobe Illustrator 28.6.0, SVG Export Plug-In . SVG Version: 1.2.0 Build 709)  -->
  <g>
    <g id="Layer_1">
      <g>
        <path class="cls-1" d="M59.2,136.9c-5.2-2.6-11.3-2.6-16.5,0-7.3,3.8-10,12.8-6.2,20.1,1.4,2.7,3.6,4.8,6.2,6.2,5.2,2.6,11.3,2.6,16.5,0,2.4-1.2,4.4-3.1,5.8-5.4,2.8-4.8,2.8-10.7,0-15.5-1.4-2.3-3.4-4.2-5.8-5.4ZM59,154.8c-.8,1.4-1.9,2.5-3.3,3.3-2.9,1.6-6.5,1.6-9.4,0-1.4-.8-2.5-1.9-3.3-3.3-1.6-3-1.6-6.7,0-9.7.8-1.4,1.9-2.5,3.3-3.3,2.9-1.6,6.5-1.6,9.4,0,1.4.8,2.5,1.9,3.3,3.3,1.6,3,1.6,6.7,0,9.7h0Z"/>
        <path class="cls-1" d="M106.6,151.6c1.1-1.7,1.6-3.6,1.6-5.6.2-4.1-2.2-7.8-6-9.3-2.1-.9-4.5-1.3-6.8-1.3h-12.7v29.2h6.8v-8.1h6.3l5.7,8.1h7.3l-6.6-9.4c1.8-.7,3.4-2,4.5-3.6ZM99.7,149.8c-1.3,1-3,1.5-4.7,1.3h-5.5v-10.2h5.5c1.7-.1,3.3.3,4.7,1.3,2.1,2,2.1,5.3.1,7.4,0,0,0,0-.1.1h0Z"/>
        <path class="cls-1" d="M133.4,135.4l-13.1,29.2h7l2.6-6.3h13.7l2.6,6.3h7.1l-13.2-29.2h-6.7ZM132,153.2l4.7-11.2,4.7,11.2h-9.3Z"/>
        <path class="cls-1" d="M196.5,135.4l-13.2,22.6-13.2-22.6h-2.7c1,4.8,1.4,9.7,1.4,14.6,0,41.6-34.1,75.5-76.1,75.5S16.8,191.7,16.8,150s34.1-75.5,76.1-75.5c4.4,0,8.9.4,13.2,1.1,6.3,1.1,12.5,3,18.3,5.7,12.8,5.7,24.1,14.4,32.9,25.3-14.6-21.3-38.7-34-64.4-33.9-42.9,0-77.9,34.7-77.9,77.4s34.9,77.4,77.9,77.4,77.9-34.7,77.9-77.4c0-3.8-.3-7.6-.8-11.3.2.4.5.8.6,1l12.3,21h1.1l12.3-21.1v25h2.1v-29.2h-1.8Z"/>
        <path class="cls-1" d="M221.3,150.7h15.7v-1.9h-15.7v-11.5h17.5v-1.9h-19.7v29.2h20.3v-1.9h-18.2v-12Z"/>
        <path class="cls-1" d="M283,142.5c-1.3-2.2-3.2-4-5.5-5.2-2.5-1.3-5.3-1.9-8.1-1.9h-11.6v29.2h11.6c2.8,0,5.6-.6,8.1-1.9,2.3-1.2,4.2-3,5.5-5.2,2.6-4.7,2.6-10.4,0-15.1ZM281.2,156.6c-1.1,1.9-2.8,3.5-4.8,4.5-2.2,1.1-4.7,1.7-7.2,1.6h-9.3v-25.4h9.3c2.5,0,5,.5,7.2,1.6,2,1,3.7,2.6,4.8,4.5,2.2,4.1,2.2,9.1,0,13.2h0Z"/>
      </g>
    </g>
  </g>
</svg>