<?xml version="1.0" encoding="UTF-8"?>
<svg xmlns="http://www.w3.org/2000/svg" version="1.1" viewBox="0 0 300 300">
  <defs>
    <style>
      .cls-1 {
        fill: #e9663d;
      }
    </style>
  </defs>
  <!-- Generator: Adobe Illustrator 28.6.0, SVG Export Plug-In . SVG Version: 1.2.0 Build 709)  -->
  <g>
    <g id="Layer_1">
      <g>
        <path class="cls-1" d="M142.4,86.5c.5-.7,1-1.3,1.6-1.8,14.1-9.7,28.9-18,45.8-21.8,6.7-1.7,13.6-2,20.5-1,13.4,2.1,22.2,11.2,24.1,24.6,1.7,11.6-.6,22.7-4.4,33.6-6,17.5-15.4,33.1-26.5,47.7-19.6,25.8-44.1,46-72.8,61.1-8.9,4.7-18.4,8.1-28.5,9.4-10.4,1.3-20.3,0-29.1-6.3-1.2-1-2.4-2-3.5-3.1l.3-.9c.7,0,1.6-.3,2.2,0,11.4,6,23.1,4.7,34.8,1.5,15.2-4.1,28.9-11.6,41.6-20.8,23.3-16.9,42.3-37.7,55.8-63.2,5.5-10.5,9.5-21.5,10.8-33.4.7-5.4.3-10.9-1.2-16.1-3.4-11.4-11.3-17.7-22.8-19.6-10.4-1.7-20.4.4-30.2,3.9-5.1,1.8-10,4.2-14.9,6.3-1,.3-2,.6-3,.9l-.5-1Z"/>
        <path d="M141.6,206.3c-.4.8-.9,1.5-1.5,2.1-13,9-26.7,16.5-42.6,18.8-4.8.8-9.7.6-14.4-.5-10.4-2.6-17.1-10.9-17.9-22-.8-11.1,1.9-21.5,6.1-31.6,7.5-17.7,18.2-33.8,31.6-47.6,16.2-16.8,34.4-30.9,56.2-39.9,7.4-3,15.1-4.9,23.2-4.5,6.2.2,12.3,2.3,17.2,6.1.8.7,1.5,1.5,2.1,2.4l-.4.8c-.8,0-1.6.2-2.3-.1-8.2-4.3-16.8-3.8-25.5-1.8-14.7,3.4-27.6,10.7-39.4,19.7-18,13.6-32.8,30-43.3,50.1-4.9,9.3-8.4,19.1-8.9,29.7-.3,6.5.6,12.8,4.7,18.1,4,5.4,9.7,7.9,16.2,8.6,9.7,1,18.8-1.3,27.7-5,2.7-1.1,5.3-2.5,7.9-3.6.9-.3,1.8-.5,2.8-.6l.5.7Z"/>
      </g>
    </g>
  </g>
</svg>