<?xml version="1.0" encoding="UTF-8"?>
<svg xmlns="http://www.w3.org/2000/svg" version="1.1" viewBox="0 0 300 300">
  <defs>
    <style>
      .cls-1 {
        fill: #e20177;
      }

      .cls-2 {
        fill: #54b948;
      }

      .cls-3 {
        fill: #1b4298;
      }

      .cls-4 {
        fill: #009ddc;
      }
    </style>
  </defs>
  <!-- Generator: Adobe Illustrator 28.6.0, SVG Export Plug-In . SVG Version: 1.2.0 Build 709)  -->
  <g>
    <g id="Layer_1">
      <g>
        <path class="cls-1" d="M200.7,136.2h-37.4c-4.6,0-8.3-3.7-8.3-8.3h0c0-4.6,3.7-8.3,8.3-8.3h37.4c4.6,0,8.3,3.7,8.3,8.3h0c0,4.6-3.7,8.3-8.3,8.3Z"/>
        <path class="cls-1" d="M177.3,174.7v-23.1c0-4.6,3.7-8.3,8.3-8.3h0c4.6,0,8.3,3.7,8.3,8.3v23.1c0,4.6-3.7,8.3-8.3,8.3h0c-4.6,0-8.3-3.7-8.3-8.3Z"/>
        <path class="cls-1" d="M153.6,104.2v-23.1c0-4.6,3.7-8.3,8.3-8.3h0c4.6,0,8.3,3.7,8.3,8.3v23.1c0,4.6-3.7,8.3-8.3,8.3h0c-4.6,0-8.3-3.7-8.3-8.3Z"/>
        <path class="cls-1" d="M153.6,218.3v-36.7c0-4.6,3.7-8.3,8.3-8.3h0c4.6,0,8.3,3.7,8.3,8.3v36.7c0,4.6-3.7,8.3-8.3,8.3h0c-4.6,0-8.3-3.7-8.3-8.3Z"/>
        <path class="cls-1" d="M129.9,132.6v-23.1c0-4.6,3.7-8.3,8.3-8.3h0c4.6,0,8.3,3.7,8.3,8.3v23.1c0,4.6-3.7,8.3-8.3,8.3h0c-4.6,0-8.3-3.7-8.3-8.3Z"/>
        <path class="cls-1" d="M129.9,195.8v-11.9c0-4.6,3.7-8.3,8.3-8.3h0c4.6,0,8.3,3.7,8.3,8.3v11.9c0,4.6-3.7,8.3-8.3,8.3h0c-4.6,0-8.3-3.7-8.3-8.3Z"/>
        <path class="cls-1" d="M209.3,143.4h17.4c4.6,0,8.3,3.7,8.3,8.3h0c0,4.6-3.7,8.3-8.3,8.3h-17.4c-4.6,0-8.3-3.7-8.3-8.3h0c0-4.6,3.7-8.3,8.3-8.3Z"/>
        <path class="cls-1" d="M73.3,143.4h17.4c4.6,0,8.3,3.7,8.3,8.3h0c0,4.6-3.7,8.3-8.3,8.3h-17.4c-4.6,0-8.3-3.7-8.3-8.3h0c0-4.6,3.7-8.2,8.3-8.2Z"/>
        <path class="cls-1" d="M106.2,174.7v-23.1c0-4.6,3.7-8.3,8.3-8.3h0c4.6,0,8.3,3.7,8.3,8.3v23.1c0,4.6-3.7,8.3-8.3,8.3h0c-4.6,0-8.3-3.7-8.3-8.3Z"/>
        <circle class="cls-1" cx="150.7" cy="156.4" r="11.2"/>
        <circle class="cls-4" cx="224" cy="127.9" r="7.9"/>
        <circle class="cls-2" cx="138.1" cy="219.2" r="7.9"/>
        <circle class="cls-3" cx="114.4" cy="127.9" r="7.9"/>
      </g>
    </g>
  </g>
</svg>