<?xml version="1.0" encoding="UTF-8"?>
<svg xmlns="http://www.w3.org/2000/svg" version="1.1" viewBox="0 0 300 300">
  <defs>
    <style>
      .cls-1 {
        fill: #96bad9;
      }
    </style>
  </defs>
  <!-- Generator: Adobe Illustrator 28.6.0, SVG Export Plug-In . SVG Version: 1.2.0 Build 709)  -->
  <g>
    <g id="Layer_1">
      <g>
        <path class="cls-1" d="M234.3,200.1v28.6l-.7,2.7c-1.3,2.7-6,2-10,2h-6.6c-4-4.6-8-10.6-10.6-15.9l-1.3-4,4,2,4.6,1.3c3.3,0,6.6.7,10,1.3,0-2.7-2-3.3-1.3-6l5.3-4,4.6-2.7,2-5.3h0Z"/>
        <path class="cls-1" d="M202.5,212.7h0c3.3,7.3,8,13.9,12.6,19.9h-33.9l5.3-2,4.6-2.7c3.3-.7,3.3,3.3,5.3,4l.7-1.3c1.3-2.7,2.7-4.6,4-7.3,0-4,.7-7.3,1.3-10.6h0Z"/>
        <path class="cls-1" d="M106.2,110.5l2,3.3,3.3,2.7v-2l2.7,3.3,3.3,2.7v-1.3l1.3,1.3,3.3,2.7v-1.3c1.3,1.3,2.7,3.3,5.3,3.3v-2c2,.7,2,3.3,4.6,3.3l-1.3-1.3,4,3.3,1.3.7-.7-1.3,2,1.3.7.7,2,1.3h.7l5.3,3.3c3.3,2.7,6.6,5.3,10.6,7.3l-2-2c-2-2-4-4-6-6l-2.7-2.7-3.3-2.7.7-.7-4-3.3-1.3-.7h0l-3.3-2.7.7-.7-3.3-2h2l-2.7-2v-.7l-2.7-1.3h2c-1.3-2-3.3-3.3-5.3-3.3l1.3-.7c-1.3-2.7-4-4-6.6-4l2-1.3-2-2.7-4.6-1.3,1.3-.7-3.3-2c-2-.7-3.3-1.3-5.3-1.3l3.3-.7-3.3-2-2.7-1.3h-1.3l1.3-.7-3.3-2.7h-4l1.3-.7c-2-1.3-4-2-6.6-2l1.3-.7-2-.7c-1.3-.7-2.7-1.3-4.6-1.3l.7-.7c-2-.7-4-1.3-6.6-2v-.7l-5.3-1.3v-.7l-5.3-1.3-.7-.7-5.3-2v-1.3l5.3,1.3,4.6,1.3.7-.7c1.3,1.3,3.3,2,5.3,2l.7-.7,3.3,1.3v-.7c2,1.3,4.6,2.7,6.6,3.3v-1.3l3.3,2,.7-.7,4,1.3-.7-1.3,3.3,1.3,3.3,1.3v-1.3l1.3.7,3.3,1.3h1.3l-.7-1.3c2,.7,4,2.7,6.6,2.7l-1.3-2c2,1.3,4.6,2,6.6,2l-1.3-1.3v-.7c2,.7,3.3,3.3,6.6,2.7l-2-2,3.3,1.3,4,.7v-.7c2,0,3.3,1.3,5.3,1.3v-.7l2,1.3.7-.7,4.6,1.3,3.3,1.3c3.3.7,7.3,2,10.6,3.3-3.3-2-6.6-4-10-6v-.7l-4.6-2v-.7c-1.3-1.3-3.3-1.3-6-1.3l1.3-.7-1.3-1.3-4.6-.7,1.3-1.3-6-1.3,1.3-.7-3.3-1.3v-.7l-5.3.7,2-1.3c-2.7-.7-6-1.3-8.6-.7l1.3-1.3c-2-1.3-5.3-.7-8,0l.7-1.3c-2.7-.7-4.6.7-7.3.7v-1.3l-6,.7.7-1.3c-2.7-.7-4,1.3-6,1.3l-.7-.7-5.3,1.3h-6v-1.3c-2,.7-4,1.3-6,1.3v-.7c-2.7.7-4.6,1.3-7.3,1.3v-1.3l2.7-.7h4v-2.7h5.3v-.7l4.6.7v-.7h149.4l2.7,3.3v101.6l-.7,2.7v-.7l-1.3-1.3-1.3-3.3v-12.6c.7-2,1.3-4.6,2-6.6l-2.7,3.3-4.6,2.7-1.3.7-3.3,1.3-1.3.7-4.6-3.3-1.3,1.3-4,6-1.3,2c-.7,3.3-3.3,5.3-6,6.6h-1.3l-1.3-3.3v-1.3c-.7-3.3-1.3-7.3-2.7-10.6l-.7-4.6c-1.3,2-2,4.6-5.3,4l-5.3-4.6c-2.7-.7-6-1.3-8.6-1.3-4-.7-8-2-11.3-4.6.7,8.6-4,13.9-6,20.6,0,3.3,2.7,6,.7,8.6-2,1.3-4,2-6,1.3l2.7,1.3,2.7,3.3c2.7,3.3,5.3,6,8.6,8.6l-2,3.3-3.3,1.3h-4.6c-4-.7-8.6.7-12,0l1.3,1.3-1.3,4.6-4,2.7-1.3,1.3-2,1.3-4,1.3-2.7.7,5.3,1.3h.7c2,1.3,4.6,3.3,6.6,4.6l3.3,1.3,2.7,2.7,1.3,3.3.7.7-2,3.3,3.3-2c4-.7,7.3-1.3,11.3-1.3s5.3,1.3,6,3.3c.7,2-.7,3.3-1.3,6v2.7h-102.3l-4-3.3V89.9l1.3-1.3v2.7h1.3l-.7,1.3.7,3.3.7-1.3v2l.7,4.6,1.3-.7v2.7h1.3v3.3l1.3,2.7.7-1.3.7,5.3,1.3-1.3.7,6.6,1.3-1.3c0,2.7-.7,5.3,1.3,6.6l1.3-2v3.3l2,2.7,1.3-2c-.7,2.7,0,6,2,8l.7-1.3,2.7,4.6.7-.7.7,2h1.3l.7,2h.7l1.3,5.3.7-.7.7,2.7,3.3,5.3,1.3,3.3,3.3,5.3v-2l-1.3-4-.7-4-1.3-4h1.3l-.7-2v-1.3l-.7-1.3h1.3l-1.3-4-.7-1.3,2,1.3-.7-2.7-2-3.3,1.3.7-1.3-4-2-3.3,3.3.7-.7-1.3-2-2.7-1.3-1.3h2.7l-2-4-2.7-.7h2l-1.3-3.3-1.3-1.3-1.3-1.3h1.3l-2-2.7-1.3-1.3-1.3-1.3h1.3l-3.3-4-1.3-1.3h1.3l-3.3-3.3-1.3-.7h2l-4-3.3-1.3-.7h1.3l-4-4v-.7l-4-3.3h0l-4-4.6-2-4,2.7,1.3,2,2h.7l2.7,4h.7l3.3,4v-.7l1.3,2,2.7,2.7v-1.3c1.3,2,3.3,4,5.3,5.3v-1.3l2,2.7.7-.7,2.7,4.6v-1.3c1.3,2,1.3,4.6,4,5.3v-1.3l1.3,2,4,3.3v-1.3l1.3,1.3,3.3,3.3-.7-1.3Z"/>
      </g>
    </g>
  </g>
</svg>