<?xml version="1.0" encoding="UTF-8"?>
<svg xmlns="http://www.w3.org/2000/svg" version="1.1" viewBox="0 0 300 300">
  <defs>
    <style>
      .cls-1 {
        fill: #ffc72c;
      }

      .cls-2 {
        fill: #18253a;
      }
    </style>
  </defs>
  <!-- Generator: Adobe Illustrator 28.6.0, SVG Export Plug-In . SVG Version: 1.2.0 Build 709)  -->
  <g>
    <g id="Layer_1">
      <g>
        <path class="cls-2" d="M65,116.9c0-47.9,37.7-84.6,84.9-84.6s85.1,36.8,85.1,84.6-38.2,84.6-85.1,84.6-84.9-37-84.9-84.6ZM214.9,116.7c0-37.7-27.8-66.5-64.8-66.5s-65,28.5-65,66.5,27.5,67,65,67,64.8-28.8,64.8-67Z"/>
        <path class="cls-1" d="M233.7,259.3c-.6-3.1-1.6-5.9-2.9-8.5-.1-.3-.4-.7-.6-1.2-2.1-3.9-4.9-7.2-7.8-10-7-7.2-18.1-14.8-32.6-14.1-12.7.3-27.5,3.6-43.9,9.9-13.6,5.3-29.2,10.8-41.9,9.9-4.4-.2-8.4-1-12.4-2.1-5.3-1.8-9.8-4-13.2-6.3-1.1-.8-2.3-1.5-3.3-2.4h0c-4.5-3.6-6.7-6.5-6.7-6.5,2.1,22.7,21.6,33,21.6,33h0c6.3,3.9,13.5,6.2,21.5,6.5,1.5,0,3,.1,4.5.1,11.7,0,25-2.8,39.6-8.5,15.2-5.8,29.9-11.2,42.1-11.4,4.6-.2,9,.2,13.1.8,15.3,2.8,22.7,10.7,22.7,10.7h0Z"/>
      </g>
    </g>
  </g>
</svg>