<?xml version="1.0" encoding="UTF-8"?>
<svg xmlns="http://www.w3.org/2000/svg" version="1.1" viewBox="0 0 300 300">
  <defs>
    <style>
      .cls-1 {
        fill: #fdb713;
      }

      .cls-2 {
        fill: #f18c20;
      }

      .cls-3 {
        fill: #007681;
      }
    </style>
  </defs>
  <!-- Generator: Adobe Illustrator 28.6.0, SVG Export Plug-In . SVG Version: 1.2.0 Build 709)  -->
  <g>
    <g id="Layer_1">
      <g>
        <g id="_007681ff">
          <path id="Layer" class="cls-3" d="M251.3,112h4.3c4.3.1,8.6.8,12.8,2.1,6,2,11.6,5.2,16.3,9.5l-6.2,6.1c-2.7-2.3-5.6-4.3-8.7-6-6.5-3.4-13.8-4.7-21.1-3.7-6.1.7-11.8,3.2-16.5,7.2-4.4,3.8-7.6,8.8-9.1,14.5-1.8,6.8-1.3,14,1.5,20.5,2.7,6,7.2,11,13,14.1,5.9,3.1,12.7,4.4,19.3,3.7,4.1-.3,8-1.4,11.7-3.2,3.8-1.9,7.3-4.4,10.5-7.2,2,1.8,4,3.6,5.9,5.3h0c-3.3,3.2-7,5.9-11,8.1-6.4,3.3-13.5,4.9-20.7,4.8-7.8.2-15.5-1.8-22.3-5.7-17.7-10.3-23.7-33-13.4-50.7.5-.9,1.1-1.8,1.7-2.7,3-4.2,6.9-7.8,11.3-10.5,6.3-3.7,13.4-5.8,20.7-6.1h0ZM110.9,121v-7.7h31.7c6.5,0,13.3,1.5,18.6,5.6,2.6,2,4.6,4.6,5.9,7.6,1.6,3.7,2.1,7.8,1.5,11.8-.4,3.9-2.1,7.7-4.7,10.6-3.8,4.3-9.3,6.6-14.9,7.7,7.5,10,15,19.9,22.4,29.9h-10.2c-7.1-9.5-14.1-19-21.2-28.4h-20.9v28.4h-8.3v-35.9h31.1c4,0,8-1,11.5-3,2.6-1.5,4.6-3.8,5.8-6.5,1.2-3,1.4-6.3.6-9.4-.8-3.1-2.7-5.8-5.4-7.5-3.5-2.3-7.7-3.1-11.8-3.2h-31.8ZM185.9,186.4v-73.1h8.3v73.2c-2.8,0-5.5,0-8.3,0h0Z"/>
        </g>
        <g>
          <path id="Layer-2" class="cls-3" d="M16.3,140.6c1.9-6.6,5.5-12.5,10.5-17.1,2.1,2.1,4.1,4.1,6.2,6.2-2.1,2-3.9,4.3-5.3,6.8-3,5.2-4.2,11.3-3.3,17.3.9,6,3.6,11.6,7.9,16,4.2,4.2,9.4,7.3,15.2,8.7,6.5,1.6,13.3,1.3,19.6-.8,5.8-1.9,10.8-5.5,14.6-10.2,3.5-4.4,5.6-9.8,6-15.4h9.2c-.3,4.6-1.4,9.2-3.4,13.3-3.8,7.8-10.1,14.1-17.9,17.9-5.5,2.7-11.5,4.3-17.7,4.6h-3.8c-6.8-.3-13.5-2.2-19.5-5.5-6.4-3.6-11.7-8.9-15.3-15.3-2.6-4.7-4.1-10-4.3-15.4v-3.3c.1-2.6.6-5.3,1.3-7.8Z"/>
          <path id="Layer-3" class="cls-2" d="M29.7,121.1c7.1-5.4,15.6-8.4,24.5-8.7v8.5c-6.6.3-13,2.6-18.3,6.5l-6.2-6.2h0ZM79,129.8l6.2-6.2c7,6.4,11.2,15.3,11.7,24.7h-9.2c-.5-7.1-3.7-13.7-8.8-18.5Z"/>
          <path id="Layer-4" class="cls-1" d="M57.9,112.3c8.9.4,17.4,3.5,24.5,8.9-2.1,2.1-4.1,4.1-6.2,6.2-5.3-4-11.6-6.3-18.2-6.6v-8.5Z"/>
        </g>
      </g>
    </g>
  </g>
</svg>