<?xml version="1.0" encoding="UTF-8"?>
<svg xmlns="http://www.w3.org/2000/svg" version="1.1" viewBox="0 0 300 300">
  <defs>
    <style>
      .cls-1 {
        fill: #05204c;
      }

      .cls-2 {
        fill: #29ace6;
      }

      .cls-3 {
        fill: #fbfbfc;
      }
    </style>
  </defs>
  <!-- Generator: Adobe Illustrator 28.6.0, SVG Export Plug-In . SVG Version: 1.2.0 Build 709)  -->
  <g>
    <g id="Layer_1">
      <g>
        <circle class="cls-3" cx="150" cy="150" r="85"/>
        <path class="cls-1" d="M129.7,195.7c-3.6,3.4-7.2,6.9-10.7,10.3-3.6,3.4-7,7-10.1,10.8-1.7.4-2.5-.8-3.5-1.5-45.5-30.9-46.2-97.7-1.4-129.7,1.3-.9,2.5-2,4.1-2.4.8,1,1.5,2,2.3,3,5.2,6.6,11.9,11.7,17.7,17.7-5.6,3.6-11.3,7.2-16.9,10.8-3.8,2.4-7.5,4.9-10.6,8.2-2.9,3.1-5,6.6-5.3,11-.6,0,.1-.5-.3,0-.2.2,0,.4.2.3,0,8.5.1,17.1.2,25.6-1.9,8.3,1.9,14.2,8,19,8.2,6.4,17.2,11.7,26.2,16.8Z"/>
        <path class="cls-1" d="M171.9,196.2c5-4,10.8-6.8,16.1-10.4,3.5-2.3,7-4.6,10.1-7.4,4.5-4.1,7-9,6.8-15.3-.3-7.9-.2-15.7-.2-23.6,1.3-7-1.5-12.5-6.6-17.1-3.8-3.5-8.3-6.1-12.5-8.9-4.9-3.3-10.3-5.8-14.9-9.7,7.2-6.8,14.6-13.4,21.2-21.2,24.4,16.6,37.6,39,37.4,68.4-.2,26.2-11.6,47.1-32.6,62.9-1.5,1.1-2.9,2.6-4.9,2.8-.6-1.9-2.1-3.2-3.4-4.6-5.2-5.6-10.8-10.9-16.5-16Z"/>
        <path class="cls-1" d="M195.2,150.4c-2.3,2.6-5.3,4.1-8.1,5.9-12.2,7.6-24.4,15.2-36.3,23.3-14.8-10.8-30.7-19.7-45.9-29.8,2.1-2.6,5-4,7.7-5.7,12.2-7.7,24.5-15.2,36.4-23.4l46.2,29.7Z"/>
        <path class="cls-2" d="M105,149.7c15.2,10.2,31.1,19,45.9,29.8l-21.1,16.2c-9-5.2-18-10.4-26.2-16.8-6.1-4.8-10-10.7-8-19,2.8-3.8,4.9-8.1,9.4-10.2Z"/>
        <path class="cls-2" d="M195.2,150.4l-46.2-29.7,21.7-16.8c4.6,3.8,10,6.4,14.9,9.7,4.3,2.9,8.7,5.4,12.5,8.9,5,4.6,7.9,10.1,6.6,17.1-2.5,4.2-4.7,8.6-9.4,10.8Z"/>
        <path class="cls-2" d="M128.1,104c-5.8-6-12.5-11.1-17.7-17.7-.8-1-1.6-2-2.3-3,6.4-4.6,13.7-7.8,21.3-9.3.8,1.4,2.2,2.3,3.5,3.3,5.4,4.3,10.8,8.6,16.2,12.9-6.6,5.2-13.6,9.9-20.9,13.9Z"/>
        <path class="cls-2" d="M171.9,196.2c5.7,5.1,11.3,10.4,16.5,16,1.3,1.4,2.8,2.7,3.4,4.6-6.1,4.9-13.3,7.6-20.9,9.3-6-5.9-13.1-10.6-19.6-16,6.2-5.7,13.3-9.9,20.6-13.9Z"/>
        <path class="cls-1" d="M149,90.1c-5.4-4.3-10.8-8.6-16.2-12.9-1.2-1-2.6-1.9-3.5-3.3,11.9-3.8,23.9-3.7,36.1-1.5,1.4.3,2.8.6,5.2,1.2-7.3,6.1-14,11.8-21.6,16.5Z"/>
        <path class="cls-1" d="M151.3,210.1c6.5,5.4,13.5,10.1,19.6,16-11.3,3.9-27.7,4.1-41.1.1,7.3-5.8,13.6-11.9,21.5-16.1Z"/>
        <path class="cls-2" d="M95.3,134.3c-.3,0-.4,0-.2-.3.4-.5-.4,0,.3,0v.3Z"/>
        <path class="cls-2" d="M94,134.3c-.3,0-.4,0-.2-.3.4-.5-.4,0,.3,0v.3Z"/>
      </g>
    </g>
  </g>
</svg>