<?xml version="1.0" encoding="UTF-8"?>
<svg xmlns="http://www.w3.org/2000/svg" version="1.1" xmlns:xlink="http://www.w3.org/1999/xlink" viewBox="0 0 300 300">
  <defs>
    <style>
      .cls-1 {
        fill: url(#linear-gradient-2);
      }

      .cls-2 {
        fill: url(#linear-gradient-4);
      }

      .cls-3 {
        fill: url(#linear-gradient-3);
      }

      .cls-4 {
        fill: #241668;
      }

      .cls-5 {
        fill: url(#linear-gradient);
      }
    </style>
    <linearGradient id="linear-gradient" x1="207.4" y1="128.9" x2="207.4" y2="193.4" gradientTransform="translate(0 300) scale(1 -1)" gradientUnits="userSpaceOnUse">
      <stop offset="0" stop-color="#f83c3b"/>
      <stop offset="1" stop-color="#fa6934"/>
    </linearGradient>
    <linearGradient id="linear-gradient-2" x1="117.4" y1="213.1" x2="187.9" y2="213.1" gradientTransform="translate(0 300) scale(1 -1)" gradientUnits="userSpaceOnUse">
      <stop offset="0" stop-color="#2dc0b8"/>
      <stop offset="1" stop-color="#00aab0"/>
    </linearGradient>
    <linearGradient id="linear-gradient-3" x1="130.6" y1="125.4" x2="169.4" y2="125.4" gradientTransform="translate(0 300) scale(1 -1)" gradientUnits="userSpaceOnUse">
      <stop offset="0" stop-color="#a9d61f"/>
      <stop offset="1" stop-color="#0dc153"/>
    </linearGradient>
    <linearGradient id="linear-gradient-4" x1="92.2" y1="188.1" x2="152.2" y2="188.1" gradientTransform="translate(0 300) scale(1 -1)" gradientUnits="userSpaceOnUse">
      <stop offset="0" stop-color="#39d4bc"/>
      <stop offset="1" stop-color="#00aab0"/>
    </linearGradient>
  </defs>
  <!-- Generator: Adobe Illustrator 28.6.0, SVG Export Plug-In . SVG Version: 1.2.0 Build 709)  -->
  <g>
    <g id="Layer_1">
      <g>
        <path class="cls-4" d="M187.9,89.7c3,.6,6,1.2,9,1.8,16,3.2,27.3,12.4,33.8,27.3,5.5,12.6,5.5,25.5,1.3,38.4-2.9,8.9-9.4,14.8-17.7,18.8-5.2,2.5-10.7,4.4-16,6.5-2.3.9-4.6,1.9-6.8,3.1-3,1.6-5.4,3.8-6.7,7-.5,1.6-1.9,2.8-3.6,3.1-3.5-1-4.5-2.6-3.2-5.9,1.5-3.7,4.1-6.9,7.5-9.1,3.1-2.2,6.7-3.4,10-5.3h0s10-3.4,13.8-5c3-1.3,5.8-3,8.4-5.1,6.4-5.4,9.1-12.7,9.5-20.8.2-3.1-.1-6.2,0-9.2.3-5.1-1.3-10-3.5-14.2-4.5-8.9-11-16.1-20.7-19.7,0,0-2-1-2-1.1h-.2c-7.9-2.7-16.3-3.2-24.4-1.5-4.4.9-8.6,2.9-12.1,5.7,1.7,1.7,3.2,3.3,4.8,4.7,5.4,4.6,9.1,10.9,10.6,17.9,2.3,11.4-4.4,26.5-17.5,30.3-2.3.5-4.6.8-7,.8-2.9-.4-5.7-1-8.5-1.6-3.4-.7-7.1-.8-10.5.6-3.5,1.5-6.5,4.3-5.7,9,.5,3.2,2.8,5.1,5.3,6.6,1.9,1.2,4,2,5.9,3.1,7.5,4.1,15,8.1,21.7,13.5,1.8,1.4,5.7,4.1,5.7,4.1.7,1.6,2,2.6,3.1,3.8,6.7,7.3,11.2,16.3,12.3,24.7-.3,1.1-.9,2.2-1.9,2.8-1.1.4-2.2.4-3.3.1-1.7-.7-2-2.1-2.4-3.5-2.9-12.5-10.7-21.3-20.8-28.5-6.4-4.5-13.3-8-20.2-11.7-2.2-1.1-4.3-2.4-6.3-3.9-3.8-2.9-6.3-6.7-6.8-11.5-.6-6.5,4.3-13.1,10.7-15.6,5.1-2,10.3-2.4,15.5-.6.6.2,1.2.2,1.7.4,9.9,2.5,18.5-2.7,21-12.7,2-8,0-14.7-5.5-20.5-2.4-2.6-5.1-4.9-7.8-7.5-3.1,2.2-5.4,5.1-7.6,7.9-4.5,5.6-8.8,11.4-13.3,17-4.5,5.6-9.4,11-15.4,15.1-6.6,4.5-14,7.1-22,6.7-14.8-.6-28.4-9-33.5-22.6-1.8-4.8-2.4-9.9-1.7-15,1.7-13.3,9.3-22.7,20.1-29.8,8.7-5.8,19.1-8.7,29.5-8.2.8,0,1.7,0,2.5,0,15.9,1.4,29.1,8.7,41,18.5,2.2-.2,3.3-1.8,4.8-2.7,7-3.8,14.3-6.2,22.4-5.9.8.1,1.7,0,2.4-.4ZM103,88.8c-12.9,3.4-22.9,10.5-28.4,22.9-2.8,6-3,12.8-.7,19,5.3,14.4,24.4,22,38.7,15.5,7.4-3.4,13.1-8.8,18-15,2.2-2.4,3.9-5.2,5.8-7.7,3.5-4.7,7.6-9,11.1-13.7,1.5-2,4.6-6.1,4.6-6.1-3.1-2.5-6.4-4.9-9.7-7.1-12.2-7.5-25.2-10.4-39.4-7.7Z"/>
        <path class="cls-5" d="M203.1,101.2c9.7,3.6,16.2,10.9,20.7,19.7,2.2,4.3,3.7,9.1,3.5,14.2-.2,3.1.1,6.2,0,9.2-.4,8.2-3.1,15.4-9.5,20.8-2.5,2.1-5.3,3.8-8.4,5.1-3.9,1.7-13.8,5-13.8,5h0c2.3-3,5.3-5.3,7.4-8.5,3.9-5.8,5.2-12.1,3-18.8-1.4-4.3-4.3-7.8-7.6-10.8-2.7-2.4-5.2-5.2-7.3-8.1-3.3-4.6-4.1-9.8-3.2-15.2.9-5.4,5.6-11.7,13.1-12.5l2.2-.2Z"/>
        <path class="cls-1" d="M187.9,89.7c-.7.4-1.6.5-2.4.4-8.1-.3-15.4,2.2-22.4,5.9-1.5.8-2.6,2.5-4.8,2.7-11.8-9.8-25.1-17.2-41-18.5,4-2.1,8.4-3.5,12.9-4.2,11-1.7,21.9-1.5,32.7,2.1,7.9,2.7,17.7,7.4,25,11.5h0Z"/>
        <path class="cls-3" d="M169.4,193.3s-3.9-2.7-5.7-4.1c-6.7-5.4-14.2-9.4-21.7-13.5-2-1.1-4-2-5.9-3.1-2.5-1.5-4.8-3.4-5.3-6.6-.7-4.7,2.2-7.6,5.7-9,3.4-1.4,7-1.3,10.5-.6,2.8.6,5.6,1.2,8.5,1.6h0c3.8,3.6,8.7,10.4,10.8,15.2,1.5,3.8,2.4,7.9,2.7,12,.3,2.7.5,8,.5,8Z"/>
        <path class="cls-4" d="M212.9,201.6c0,6-5.2,11.5-11.2,11.3-6.2-.2-11-4.6-11.2-11.3-.1-6,5-11.1,11-11.1,6.2,0,11.2,4.9,11.3,11.1Z"/>
        <path class="cls-2" d="M103,88.8c14.2-2.7,27.2.2,39.4,7.7,3.4,2.2,6.6,4.5,9.7,7.1,0,0-3.1,4.1-4.6,6.1-3.6,4.7-7.6,9-11.1,13.7-1.9,2.6-3.6,5.3-5.8,7.7h0c-8.5,5.5-22.4,7.1-30.2.7-8.4-6.8-9.3-16-7.6-25.7,1-5.8,5.8-13.2,10.2-17.3h0Z"/>
      </g>
    </g>
  </g>
</svg>