<svg id="Layer_1" data-name="Layer 1" xmlns="http://www.w3.org/2000/svg" viewBox="0 0 300 300"><path d="M173.94862,117.97507a6.06643,6.06643,0,0,1-5.84938,5.8555,5.85091,5.85091,0,1,1,0-11.70181A6.12564,6.12564,0,0,1,173.94862,117.97507Z" fill="#1b5ea8"/><rect x="162.6984" y="126.61672" width="10.44498" height="42.92349" fill="#1b5ea8"/><path d="M266.52216,148.07617c0,13.76693-10.24905,22.456-23.43118,22.456-13.05663,0-23.31178-8.68911-23.31178-22.456,0-13.75162,10.25515-22.42695,23.31178-22.42695C256.27311,125.64922,266.52216,134.32455,266.52216,148.07617Zm-35.52183,0c0,8.88811,4.78391,15.52282,12.09065,15.52282,6.74645,0,12.011-6.63471,12.011-15.52282,0-8.8728-5.26458-15.5121-12.011-15.5121C235.19639,132.56407,231.00033,139.10386,231.00033,148.07617Z" fill="#1b5ea8"/><path d="M215.34893,186.68267a16.08994,16.08994,0,0,0,5.59831-10.01175c1.07005-9.46832-5.75141-14.935-15.12326-14.935H193.52972c-2.82136,0-7.31594-.38883-7.31594-4.196,0-3.50106,4.78544-4.291,7.41239-4.291h4.28944c8.686,0,16.9863-4.67674,16.9863-13.84654a10.49325,10.49325,0,0,0-2.55806-6.71277,47.945,47.945,0,0,0,8.0232-1.77426l.718-6.76023a53.41066,53.41066,0,0,1-16.69085,2.41262,30.58938,30.58938,0,0,0-8.32629-.92157c-10.83078,0-16.19181,7.30828-16.19181,13.75621a10.73887,10.73887,0,0,0,5.26307,9.65048,12.01286,12.01286,0,0,0-7.60985,10.83535,10.00858,10.00858,0,0,0,5.37328,9.35809c-2.73715,1.36705-7.81653,4.986-7.81653,11.52576a9.45128,9.45128,0,0,0,.6093,3.40462C125.10686,178.52325,73.97648,166.2841,25,180.24239v3.07853c78.27388-22.31213,162.04657,28.7463,240.31892,6.43417v-9.5127C248.86993,184.93444,232.18061,186.66123,215.34893,186.68267Zm-18.10538-54.80136a7.358,7.358,0,0,1,7.80274,7.61292c0,4.092-2.54427,7.41391-7.80274,7.41391-4.9829,0-7.8058-3.322-7.8058-7.41391A7.65171,7.65171,0,0,1,197.24355,131.88131Zm-6.74185,38.6509h13.95522c4.29251,0,7.8058,2.14166,7.0266,7.11692-.57559,4.48845-7.12,8.5896-13.86338,8.5896-6.04379,0-13.56333-1.76354-13.75162-6.647C183.76137,175.30386,188.26359,171.89466,190.5017,170.53221Z" fill="#1b5ea8"/><path d="M87.2367,163.39691c-9.07488,0-13.56639-5.46666-13.56639-14.24762h29.37241c0-16.47806-9.17285-23.50007-19.70969-23.50007-11.61,0-20.792,9.74386-20.792,22.82038,0,13.75162,8.40283,22.058,21.5712,22.058,1.17875,0,2.27179-.03675,3.29745-.08726a35.03635,35.03635,0,0,0,12.27894-2.55806q.372-3.53167.74247-7.06793a38.00369,38.00369,0,0,1-6.90414,2.08349A35.89252,35.89252,0,0,1,87.2367,163.39691Zm-4.19913-30.72568c5.17581,0,8.39212,3.5929,8.87894,10.0439H73.86626C74.53829,137.149,77.37955,132.67123,83.03757,132.67123Z" fill="#1b5ea8"/><path d="M25.473,169.54021V104.46532H44.40352c15.22889,0,22.54635,8.686,22.54635,17.74868,0,10.54143-9.18356,19.03611-22.949,19.03611H36.49209v28.2901Zm16.68014-57.56453H36.49209v22.99948a7.731,7.731,0,0,1,3.13058-1.18029c1.25377-.124,2.5305-.15767,2.5305-.15767,7.42462,0,13.173-4.09962,13.173-11.22113C55.32614,115.87628,50.06,111.97568,42.15317,111.97568Z" fill="#1b5ea8"/><path d="M132.24214,126.27381a11.43987,11.43987,0,0,0-3.87458-.66439c-5.65954,0-9.98419,4.05216-11.57628,6.87811l-.519-5.90755h-9.75764v42.92349h10.44347V140.14025c2.04827-4.22821,6.4418-8.15637,12.12739-5.22786" fill="#1b5ea8"/><path d="M160.0638,126.27381a11.40994,11.40994,0,0,0-3.873-.66439c-5.658,0-9.98418,4.05216-11.57628,6.87811l-.51588-5.90755h-9.75917v42.92349h10.44039V140.14025c2.04981-4.22821,6.44488-8.15637,12.12892-5.22786" fill="#1b5ea8"/><path d="M271.02744,128.40475a4.0298,4.0298,0,1,1-.02142,0Zm-.02142.48528a3.34673,3.34673,0,1,0,.02142,0Zm-.7945,5.62894h-.58325v-4.32006a8.37841,8.37841,0,0,1,1.18028-.1041,2.30745,2.30745,0,0,1,1.33643.3276,1.0088,1.0088,0,0,1,.41331.87871,1.11365,1.11365,0,0,1-.88329,1.06853v.03368c.398.06583.6644.41027.7746,1.04711a2.83612,2.83612,0,0,0,.31077,1.06853H272.145a3.27689,3.27689,0,0,1-.34139-1.09915.90038.90038,0,0,0-1.04863-.81136h-.54344Zm0-2.33h.56028c.61539,0,1.1757-.2235,1.1757-.80829,0-.41027-.28934-.845-1.2109-.845a3.46761,3.46761,0,0,0-.52508.03675" fill="#1b5ea8"/></svg>