<svg id="Layer_1" data-name="Layer 1" xmlns="http://www.w3.org/2000/svg" viewBox="0 0 300 300"><path d="M66.23,167.19a12.84,12.84,0,0,1,.74-1.8c7.28-14.71,38.41-20.78,83-15.39l9-33c-45.91-5.84-79.41.74-85,21.62Z" fill="#4192f6"/><path d="M233.74,132.81c-.19.5-.37,1-.59,1.49-7,14.93-38.21,21.09-83.17,15.68l-9,33c45.9,5.83,79.4-.74,85-21.63Z" fill="#0000c0"/><path d="M95.6,98c67.74,4.87,136.93,38.35,130.4,63.4l6.1-22.34c1.94-7,2.9-10.68,2.9-13.6C235,100,168.21,68.9,104.6,65Z" fill="#4192f6"/><path d="M204.37,202C136.63,197.11,67.43,163.6,74,138.58l-6.1,22.34C66,168,65,171.6,65,174.52,65,200,131.79,231.1,195.4,235Z" fill="#0000c0"/></svg>