<svg id="Layer_1" data-name="Layer 1" xmlns="http://www.w3.org/2000/svg" viewBox="0 0 300 300"><path id="Layer" d="M250.81748,129.7h2.415a7.47973,7.47973,0,0,1,5.74,6.58c.35,3.885-3.16749,7.7175-7.14,7.3675-4.1475.105-7.525-4.305-6.5625-8.295C245.70749,132.5,248.15749,130.47,250.81748,129.7Z" fill="#31a539"/><path id="Layer-2" data-name="Layer" d="M266.91748,132.51748c3.7275-2.6075,8.59249-2.8875,12.915-1.9775a14.92674,14.92674,0,0,1,9.78251,8.2775c-2.74749,1.12-5.53,2.1525-8.20751,3.395-1.19-1.6275-2.46749-3.325-4.375-4.1125a4.578,4.578,0,0,0-5.18,1.12,3.99332,3.99332,0,0,0-.63,2.5725,5.3959,5.3959,0,0,0,1.4875,1.4c2.7125,1.505,5.88,1.8375,8.73251,3.045a15.19548,15.19548,0,0,1,5.915,4.0075A10.844,10.844,0,0,1,290,157.19248V159.17c-.5075,6.37-6.6325,11.1475-12.82751,11.13H274.46a14.32537,14.32537,0,0,1-6.055-1.505c-3.65751-1.7325-6.2125-5.1275-7.945-8.6975,2.87-1.1025,5.74-2.205,8.575-3.36a12.82789,12.82789,0,0,0,3.43,4.13,6.03891,6.03891,0,0,0,7.35-.07c1.085-.9275,1.6625-2.8175.525-3.92-1.87249-1.82-4.49749-2.485-6.9125-3.2375-3.8675-1.0325-7.91-2.87-10.01-6.4575a11.4749,11.4749,0,0,1,3.5-14.665Z" fill="#1398e6"/><path id="Layer-3" data-name="Layer" d="M10,130.47c5.495.0175,10.99,0,16.4675.0175a12.25517,12.25517,0,0,1,11.0425,7.805,14.77569,14.77569,0,0,1,.6475,7.1925,12.26143,12.26143,0,0,1-8.1725,9.7125c-3.36,1.1375-6.9475.50749-10.43.68249,0,4.6725-.0175,9.345,0,14.035-3.185-.0175-6.37,0-9.555,0Zm9.555,8.5925v8.015c2.065-.0525,4.13.14,6.1775-.105,2.555-.2975,3.955-3.5175,2.765-5.6875a4.15148,4.15148,0,0,0-3.08-2.1525C23.475,138.975,21.515,139.09748,19.555,139.06248Z" fill="#1398e6" fill-rule="evenodd"/><path id="Layer-4" data-name="Layer" d="M42.5325,130.47c3.08,0,6.16.0175,9.24,0-.0525,4.865,0,9.7475-.035,14.6125H62.675c0-4.865-.0525-9.73.0175-14.6125,3.08,0,6.16.035,9.2225-.0175q-.02625,19.74,0,39.4625c-3.0625-.01751-6.1425,0-9.205,0-.105-5.215-.0525-10.43-.0175-15.6275-3.64.035-7.2975,0-10.9375.0175,0,5.1975-.0175,10.395,0,15.61-3.08-.01751-6.1425,0-9.2225-.01751V130.47Z" fill="#1398e6"/><path id="Layer-5" data-name="Layer" d="M75.08249,169.89747c4.76-13.09,9.2925-26.285,13.9475-39.42749h7.2625c4.74249,13.125,9.275,26.30249,13.965,39.445-3.29-.0175-6.59751,0-9.905-.0175-.525-1.9075-1.12-3.7975-1.68-5.705-3.92-.2275-7.8925-.0175-11.83-.105-.63,1.9425-1.155,3.92-1.8725,5.8275-3.29-.0175-6.5975,0-9.8875-.0175ZM89.205,156.02c2.415.01751,4.8125,0,7.2275.01751-1.17251-4.1125-2.31-8.225-3.5-12.32C91.62,147.795,90.44749,151.90747,89.205,156.02Z" fill="#1398e6" fill-rule="evenodd"/><path id="Layer-6" data-name="Layer" d="M113.44249,130.47c5.1975,0,10.37749.0175,15.575,0a11.4594,11.4594,0,0,1,8.785,4.4275,13.23676,13.23676,0,0,1,2.73,10.185A10.88835,10.88835,0,0,1,134.985,153.57c2.765,5.44251,5.565,10.8675,8.33,16.31-3.57.0525-7.14,0-10.71.035q-3.28125-7.1925-6.755-14.2975h-3.2025c.0175,4.76,0,9.52.0175,14.2975-3.0975,0-6.1775-.0175-9.275,0,.07-13.1425-.035-26.285.0525-39.445Zm9.205,8.8725c.035,2.66-.01749,5.3375.0175,8.015a57.83672,57.83672,0,0,0,6.0375-.1225c2.0475-.525,3.0975-2.9575,2.625-4.9175a3.50889,3.50889,0,0,0-3.2725-3.0275,46.4605,46.4605,0,0,0-5.40751.0525Z" fill="#1398e6" fill-rule="evenodd"/><path id="Layer-7" data-name="Layer" d="M143.77,130.47c3.5875.035,7.1925-.035,10.78.035a26.82058,26.82058,0,0,1,1.54,4.41c1.995,5.845,3.71,11.795,5.7575,17.6225,2.415-7.3325,4.6725-14.7175,7.07-22.0675,3.65751.0175,7.33251,0,11.00751,0-4.865,13.1075-9.43251,26.32-14.2625,39.4275-2.59,0-5.1975.035-7.7875-.0175q-7.0875-19.6875-14.105-39.41Z" fill="#1398e6"/><path id="Layer-8" data-name="Layer" d="M189.84748,130.47h7.245c4.70751,13.125,9.275,26.32,13.965,39.445-3.30751-.035-6.615.035-9.92249-.035-.56-1.925-1.12-3.8675-1.73251-5.775-3.92-.0175-7.84.0175-11.76-.0175-.6125,1.9425-1.225,3.9025-1.8725,5.8275-3.29-.0175-6.5975,0-9.8875-.0175,4.725-13.1075,9.275-26.285,13.965-39.4275Zm.175,25.55c2.39749.01751,4.795,0,7.21.01751-1.19-4.1125-2.38-8.2425-3.5175-12.355C192.43746,147.77748,191.17747,151.89,190.02248,156.02Z" fill="#1398e6" fill-rule="evenodd"/><path id="Layer-9" data-name="Layer" d="M214.19,130.47c5.32.0175,10.64,0,15.96,0a11.79444,11.79444,0,0,1,9.135,5.355c3.255,4.9175,3.02751,12.4425-1.645,16.415a15.53983,15.53983,0,0,1-1.855,1.33c1.8375,3.71,3.7625,7.35,5.6175,11.04249.92751,1.75,1.68,3.57,2.73,5.2325-3.57.14-7.14.0175-10.71.07Q230.08,162.74,226.65,155.61747h-3.2025c.01749,4.76,0,9.52.01749,14.2975-3.09749,0-6.17751-.0175-9.275,0,.0175-13.16.05251-26.3025,0-39.445Zm9.25751,8.8725c.035,2.66-.0175,5.3375.01749,8.015,1.855-.035,3.71.07,5.565-.0525a3.5399,3.5399,0,0,0,2.835-2.205c.85751-2.0125.175-5.005-2.17-5.635A28.67451,28.67451,0,0,0,223.4475,139.34248Z" fill="#1398e6" fill-rule="evenodd"/><path id="Layer-10" data-name="Layer" d="M247.31748,146.92c3.185.0175,6.37,0,9.555,0-.035,7.665-.01749,15.33-.01749,22.995-3.1675,0-6.335-.0175-9.50251,0C247.37,162.25,247.44,154.585,247.31748,146.92Z" fill="#1398e6"/></svg>