<svg id="Layer_1" data-name="Layer 1" xmlns="http://www.w3.org/2000/svg" viewBox="0 0 300 300"><defs><style>.cls-1{fill:#006299;}.cls-2{fill:#55afe2;}</style></defs><path id="Layer" class="cls-1" d="M276.05,130.4a24.92,24.92,0,0,1,5.55,8.08,25.56,25.56,0,0,1,2.16,9.68,28.18,28.18,0,0,1-1.73,9.75,25.4,25.4,0,0,1-5.33,8.3L171.06,276.54a26.34,26.34,0,0,1-8.13,5.63,25.29,25.29,0,0,1-27.65-5L100.86,244l-.36-.36L87.61,231a33.52,33.52,0,0,0,6.62-.51,36.27,36.27,0,0,0,6.34-1.87,31.25,31.25,0,0,0,10.87-7.37l42.7-44.33,64-67.15A25,25,0,0,1,235.87,102a24.89,24.89,0,0,1,9.72,1.73,26,26,0,0,1,8.28,5.27ZM73.71,174.23a29.36,29.36,0,0,1-10,6.93,32.09,32.09,0,0,1-11.88,2.67,31.58,31.58,0,0,1-22.25-8.74L24,169.75a26.62,26.62,0,0,1-5.62-8.16,26.07,26.07,0,0,1-2.09-9.68A25,25,0,0,1,18,142.17a23.78,23.78,0,0,1,5.26-8.31L129.09,23.46a25.08,25.08,0,0,1,17.71-7.73,24.93,24.93,0,0,1,9.72,1.74,26,26,0,0,1,8.28,5.27l20.74,20.07,16.06,15.6a35.08,35.08,0,0,0-14.69,2.31,36.08,36.08,0,0,0-6.63,3.46A34.46,34.46,0,0,0,174.59,69l-.36.36Z"/><path id="Layer-2" data-name="Layer" class="cls-2" d="M258.34,101.37a24.73,24.73,0,0,1,3.38,4,22.63,22.63,0,0,1,2.45,4.7,23.47,23.47,0,0,1,1.44,5,21.43,21.43,0,0,1,.36,5.27l-10.8-10.54a25.09,25.09,0,0,0-18-7.08,26.12,26.12,0,0,0-9.65,2.1,25.32,25.32,0,0,0-8.07,5.7l-64.3,66.86-4.46,4.7L112.45,222.1l-.57.58-.58.57a6.21,6.21,0,0,1-.65.58,3.66,3.66,0,0,1-.65.51l-.14.14-.14.15a1.21,1.21,0,0,1-.22.14l-.14.14-2,1.45-.72.43a2.77,2.77,0,0,1-.58.36l-.5.36c-.19.1-.36.2-.5.29l-.58.29-1,.65a16.59,16.59,0,0,1-2.37,1.08h-.51c-.86.37-1.73.65-2.59.94h-.29a11.38,11.38,0,0,1-3,.65,22,22,0,0,1-3.1.44H88.47a29.43,29.43,0,0,1-5.83-.73A29,29,0,0,1,77,229.39a33.23,33.23,0,0,1-5.18-2.74A38.94,38.94,0,0,1,67.23,223L41.81,198c-.57-.58-1.12-1.15-1.65-1.73s-1.06-1.18-1.59-1.81-1-1.2-1.44-1.87-.93-1.28-1.37-1.95a39.46,39.46,0,0,0,12.75,4.91,40.91,40.91,0,0,0,13.61.5,41.48,41.48,0,0,0,13-4,42.11,42.11,0,0,0,11-8.16l40.68-42.24,61.06-63.9a32.51,32.51,0,0,1,10.23-7.15,32,32,0,0,1,12.17-2.6,30.91,30.91,0,0,1,12.24,2.16,32.08,32.08,0,0,1,10.51,6.65l25.28,24.76"/></svg>