<svg id="Layer_1" data-name="Layer 1" xmlns="http://www.w3.org/2000/svg" viewBox="0 0 300 300"><title>PMCB_Mark_Light</title><path d="M137.18556,152.70225c-2.73632-3.94119-4.99114-8.07514-7.44266-12.16963a88.10158,88.10158,0,0,0-1.70249,10.69867c.71379,1.01666,1.78916.61239,2.5091,1.15177-.85721.51963-6.32123.51869-7.0874.02767.3166-.52167.91226-.11283,1.48777-.54625.79472-1.36595.74944-3.15693,1.05221-4.843.87471-4.87126,1.65629-9.75924,2.47884-14.6399.05854-.34744.08612-.73174.60143-.84571.57439.03876.72951.58627.97764,1.013,2.32676,4.002,4.63579,8.01435,6.978,12.00725.26407.45014.38144,1.06581,1.01252,1.25177.51581-.17829.647-.67056.87755-1.06531,2.315-3.96347,4.61189-7.93756,6.942-11.89209.29744-.50481.45828-1.21127,1.27484-1.30746a3.2903,3.2903,0,0,1,.60867,1.76329c.87391,5.39362,1.73436,10.78941,2.61373,16.18214.32769,2.00952.77161,2.40566,2.85761,2.66122.27183.03333.56835-.007.67326.507h-8.29336c-.09434-.5645.57034-.54591.81095-.97631l-1.782-10.78356-.43719-.11191C141.73916,144.62046,139.872,148.81675,137.18556,152.70225Z" fill="#101011"/><path d="M33.00775,141.40871c2.65043-.081,4.62646-1.145,5.63165-3.62715a7.4276,7.4276,0,0,0,.52785-4.98016,6.71418,6.71418,0,0,0-7.72046-4.951c-.45466.34717-.3559.84926-.35571,1.31486q.00381,9.32716.01775,18.65432a11.35863,11.35863,0,0,0,.20014,2.36264c.29935,1.40781.66238,1.7308,2.07086,1.74786.57648.007,1.1531.00114,1.66745.00114.217.73076-.16631.82643-.52737.827q-5.762.00979-11.524-.0199c-.1368-.0006-.2731-.11789-.54029-.241.54713-1.09177,1.644-.24154,2.25916-.74753a2.19933,2.19933,0,0,0,.76379-1.77757c.43784-7.00411.17-14.0158.21576-21.0239.00917-1.40583-.71435-2.03313-2.15909-2.131-.40084-.02716-.91571.14784-1.01175-.48921.19116-.396.53945-.30433.84184-.30338,4.07924.01305,8.15877.008,12.23752.06135a9.507,9.507,0,0,1,4.53983,1.23348c3.60884,2.01944,4.61773,6.26066,2.472,10.20956a8.96186,8.96186,0,0,1-8.87825,4.56043C33.43389,142.05111,33.2247,141.93112,33.00775,141.40871Z" fill="#101011"/><path d="M63.10254,142.14559h-9.6032c-.3871.33456-.26627.79658-.26815,1.21648-.00974,2.17956-.00681,4.35922-.00228,6.53883.00414,1.985.01626,1.99574,1.96713,2.26306.21049.02884.36936.10972.44907.46456H46.83122c.04434-.3275.1388-.44656.30935-.48284,1.67231-.35572,1.75528-.43146,1.75872-2.14767q.01587-7.906.00442-15.81208c-.00049-1.84855-.10108-1.95347-1.97156-2.16308-.19322-.02164-.3989-.03836-.51254-.23927.742-.51584,8.47675-.52493,9.26254.00186-.53252.52117-1.247.042-2.053.4917a1.32673,1.32673,0,0,0-.376.93586c-.02106.31594-.02385.63349-.02417.95033-.002,2.01583-.001,4.03165-.001,6.152H63.28162c0-1.49962,0-2.94686,0-4.39408q0-.65388.00016-1.30777c-.00139-2.25214-.00177-2.25031-2.15213-2.62967-.10382-.01832-.19325-.11823-.29726-.18522.73769-.52055,8.47362-.54295,9.29767-.02735-.529.53564-1.23751.07173-1.90982.39907a1.91282,1.91282,0,0,0-.64674,1.70367c.02,5.38947.02682,10.779.06529,16.16835.01078,1.51134.41554,1.91358,1.91245,2.12723.16844.024.30271.086.4058.43788H61.33073c.05925-.19269.06053-.25481.084-.2648,1.91851-.81639,1.91855-.8161,1.91868-3.0493.0001-1.90222.00341-3.80443-.00167-5.70663A2.67043,2.67043,0,0,0,63.10254,142.14559Z" fill="#101011"/><path d="M111.59916,142.70613c-.09126.3247.12238.52445.29877.732,1.87107,2.20126,3.63911,4.48953,5.66767,6.55761a5.41171,5.41171,0,0,0,3.67558,1.94048c.26379.01147.56012.028.698.32693-.07.372-.34355.4173-.63258.41076-1.6226-.03677-3.246-.05823-4.8673-.12689a4.80079,4.80079,0,0,1-3.77791-2.36732c-1.31849-1.87892-2.6169-3.7719-3.92653-5.657-.24636-.35461-.50512-.70061-.74247-1.02887a9.02164,9.02164,0,0,0-2.53484-.05155c-.4398.5461-.22431,1.163-.22561,1.73109q-.00531,2.31612.086,4.63223c.07389,1.85183.53145,2.28248,2.36337,2.34688.14633.00514.29185.03355.48193.05649-.55978.54093-8.77527.68841-10.14976.227.03322-.5445.45814-.4314.78622-.46054,1.49557-.13287,1.86921-.467,1.92431-1.96955.07983-2.17636.11438-4.355.12907-6.533.02059-3.04973.00774-6.0997.00413-9.14956-.00228-1.93018-.26711-2.20474-2.153-2.298-.29061-.01437-.65467.11467-.79606-.33047.20438-.49838.65975-.34382,1.01746-.34354,2.97043.00236,5.94084.02222,8.91122.04387a11.96706,11.96706,0,0,1,5.05925,1.13147,4.756,4.756,0,0,1,2.95169,4.71767,5.29342,5.29342,0,0,1-3.41371,5.0946C112.15337,142.45575,111.7922,142.392,111.59916,142.70613Zm-6.27085-9.37631v8.38069c2.55578.644,4.25519.22833,5.23842-1.23518a5.00155,5.00155,0,0,0-.00374-5.69332A4.60752,4.60752,0,0,0,105.32831,133.32982Z" fill="#101011"/><path d="M205.02835,127.14787c.4458,2.94494.19247,6.51667-.54553,6.84556a16.437,16.437,0,0,0-.33387-2.19677,5.119,5.119,0,0,0-4.09889-3.56226,11.504,11.504,0,0,0-7.68734.43231,8.63845,8.63845,0,0,0-4.72226,6.21312,14.39754,14.39754,0,0,0,1.38518,11.02842A9.923,9.923,0,0,0,201.203,150.398a5.25111,5.25111,0,0,0,3.71536-4.34242c.58248-.23344.7967.03657.75662.53144a17.59385,17.59385,0,0,1-.92731,4.64255c-.18076.49546-.69161.617-1.1422.77139a20.732,20.732,0,0,1-9.05814.63,15.67458,15.67458,0,0,1-8.99088-3.95431c-5.75169-5.19045-6.0827-17.85512,4.88889-21.58743C195.33909,125.42441,200.19694,126.167,205.02835,127.14787Z" fill="#101011"/><path d="M276.97248,147.45958a8.17587,8.17587,0,0,1-.50264,5.23152H258.8705c.36192-.42113.36192-.42113,2.65033-.586.63612-.32156.68611-.92921.71175-1.52564.23969-5.58326.09122-11.16959.109-16.75452.00334-1.04942-.67882-1.57058-1.99219-1.78694-.50363-.083-1.104.17355-1.54246-.33025.343-.49444.81783-.34787,1.22255-.34849q7.66527-.0119,15.33052.00866c1.15676.00308,1.69608.452,1.7855,1.60483a7.903,7.903,0,0,1-.13253,3.79458,5.21975,5.21975,0,0,1-.76383-2.11663,2.02456,2.02456,0,0,0-1.87466-1.5769c-2.483-.06933-4.9692-.0235-7.55668-.0235v7.158a7.21355,7.21355,0,0,0,2.55772.1615c.83.03954,1.666-.03269,2.49463.01922a2.6371,2.6371,0,0,0,2.68735-1.02562V144.457c-.40129-.02822-.50105-.24176-.49841-.41429.02056-1.35388-.84341-1.81946-1.97706-1.86174-1.69434-.06321-3.39274-.01641-4.99167-.01641a1.16746,1.16746,0,0,0-.418,1.154c-.0049,1.9807-.0175,3.96149-.00557,5.9421.00888,1.4774.33635,1.78793,1.83985,1.79351q2.67393.00993,5.348-.00042c1.49877-.00537,1.95906-.37358,2.35792-1.80612C276.38,148.64587,276.36079,147.98372,276.97248,147.45958Z" fill="#101011"/><path d="M181.481,152.65142h-8.53858c-.23666-.47171.35359-.70455.30941-1.12645a60.4018,60.4018,0,0,0-2.66647-5.9081h-6.61458c-.71358,2.04734-1.97728,3.80533-2.26535,5.8093.8167,1.06836,2.02182.37379,2.87529.98261-.9227.48552-8.5507.48073-9.27568.017.07977-.08611.15741-.24136.23168-.23976,2.396.05125,3.32987-1.674,4.17087-3.46438,2.50171-5.326,4.97129-10.66709,7.4727-15.99324.22419-.47737.40207-1.0455,1.01913-1.2458.62062.18167.77634.73757,1.01058,1.22521q3.92557,8.17234,7.85937,16.34068a10.82585,10.82585,0,0,0,1.19209,1.90468,2.78458,2.78458,0,0,0,2.34682,1.18305C180.92883,152.128,181.35428,151.984,181.481,152.65142Zm-13.95423-14.57394a46.35572,46.35572,0,0,0-2.6446,6.01706h5.32161A42.44111,42.44111,0,0,0,167.52678,138.07748Z" fill="#101011"/><path d="M70.90635,152.39785c.09645-.07512.188-.20785.27308-.20377,2.355.1132,3.32581-1.56409,4.15-3.30821,2.39728-5.07312,4.72789-10.17772,7.09933-15.26312a4.78093,4.78093,0,0,1,1.36724-2.15949c.70337.10278.86074.69262,1.08745,1.1644q3.7477,7.79891,7.46533,15.61227.23016.48188.47452.957c.81,1.58206,1.74381,3.0239,3.922,3.04409l-.18746.37942h-8.009c-.20421-.46736.51423-.59185.42513-1.0522a60.00417,60.00417,0,0,0-2.708-5.97889H79.86221c-1.21526,1.8836-2.37355,4.86307-2.334,5.94828.62727.97334,1.86723.267,2.72833.88726C79.22858,152.91925,71.65431,152.85884,70.90635,152.39785Zm12.19968-14.457-2.6087,6.13109h5.21726A21.11242,21.11242,0,0,0,83.106,137.94081Z" fill="#101011"/><path d="M248.147,133.033c-.58324,2.3896-.21168,17.41265.454,18.6626.91343.471,2.07345.05424,3.04727.61028-.59892.56313-10.45478.65551-11.44084.132.421-.476.968-.26265,1.4471-.30766,1.18679-.11153,1.86411-.71106,1.87429-1.87286.04748-5.42583.05809-10.852.07281-16.27805a4.49249,4.49249,0,0,0-.16335-.79629c-1.94327-.03388-3.87154-.29706-5.76253.25375a2.9571,2.9571,0,0,0-1.98583,2.19015c-.10643.35443-.01713.81279-.736,1.1357-.42448-1.74059-.05293-3.43047-.21976-5.21323h21.23841v5.03723l-.32125.15562c-.38112-1.67637-1.02574-3.13174-2.81992-3.53606A28.14212,28.14212,0,0,0,248.147,133.033Z" fill="#101011"/><path d="M225.89288,152.65425H215.85625c.10311-.61322.52957-.469.848-.51349.74716-.10427,1.34861-.49029,1.38924-1.24339.14007-2.5968.5933-5.2393-.37654-7.759a24.75026,24.75026,0,0,0-2.83352-4.5089c-.91515-1.38708-1.86616-2.75044-2.79546-4.12824a4.85048,4.85048,0,0,0-3.93515-2.53615l.13567-.36646h8.8c-.22231.59714-.88083.3385-1.21352.86649,1.29616,2.92868,3.32647,5.42,5.13788,8.40205,2.0163-2.76133,4.036-5.20337,5.04258-8.26031-.54038-.68415-1.34694-.28124-1.74406-.80455.747-.4829,6.9164-.51706,7.82331-.01377-.15363.09645-.2737.235-.40141.24245-1.7235.1007-2.78,1.19892-3.72711,2.46451a55.3889,55.3889,0,0,0-4.624,7.45466,7.72558,7.72558,0,0,0-.85175,3.78178c.023,1.54334.06775,3.08767.1584,4.6283.08245,1.40094.50461,1.75452,1.94428,1.79855A1.3465,1.3465,0,0,1,225.89288,152.65425Z" fill="#101011"/><path d="M131.33793,165.25556c1.58661.96393,2.66348,2.1651,2.68966,4.01956a4.60471,4.60471,0,0,1-3.44829,4.31554,27.87774,27.87774,0,0,1-6.725.5122.92625.92625,0,0,1-.70491-.44393V158.11707c.168-.10134.32922-.2796.5-.28931,2.20864-.12578,4.44723-.214,6.47388.82628a4.02335,4.02335,0,0,1,1.513,5.95883A6.54643,6.54643,0,0,0,131.33793,165.25556Zm-5.79672,6.29505a8.92978,8.92978,0,0,0,4.01193-.17115,2.1723,2.1723,0,0,0,1.65086-2.20663,2.298,2.298,0,0,0-1.85831-2.05512,9.4848,9.4848,0,0,0-3.80448-.17378Zm-.05261-6.79315c1.4623-.12431,2.93777.4889,3.82118-.96336a2.23553,2.23553,0,0,0-.08181-2.6614c-.99284-1.22817-2.33163-1.01911-3.76057-.82783A22.16529,22.16529,0,0,0,125.4886,164.75746Z" fill="#4fbcfe"/><path d="M163.64126,165.88525c-.45785-4.30908,3.98435-8.08536,7.91039-8.02811a8.27778,8.27778,0,0,1,8.11687,8.2291,7.89078,7.89078,0,0,1-7.80523,7.95709C167.475,174.10151,163.41748,171.0759,163.64126,165.88525Zm7.77987,5.78481a5.73207,5.73207,0,1,0,.25549-11.45936,5.901,5.901,0,0,0-5.91238,5.86094A5.52023,5.52023,0,0,0,171.42113,171.67006Z" fill="#4fbcfe"/><path d="M266.80783,157.83379a2.50789,2.50789,0,0,1,1.89524.10958c.43829,1.94761-.07127,4.01644.28859,6.09641h6.009v-5.83431c.7487-.72442,1.38508-.40825,2.13256-.49412v16.16757c-.91387.33-.91387.33-2.11462.01456v-7.11691h-6.202v7.08025a2.57518,2.57518,0,0,1-1.94654.1548C266.33947,173.13885,266.269,158.99,266.80783,157.83379Z" fill="#4fbcfe"/><path d="M224.057,157.85826a4.23045,4.23045,0,0,1-.02228,2.44455h-6.07318a13.13093,13.13093,0,0,0-.0878,3.41827c2.092.34549,4.10958-.02725,6.09889.22476a3.50139,3.50139,0,0,1,.13487,2.28305H217.9145v5.30586c2.05041.28432,4.06489-.00174,6.09154.17527a3.29388,3.29388,0,0,1,.09649,2.16464,37.11062,37.11062,0,0,1-8.45153.04133V157.85826Z" fill="#4fbcfe"/><path d="M250.7867,159.16668v2.45053c-.61475.25541-.91463-.24874-1.28523-.46813a6.73266,6.73266,0,0,0-7.06231.33145,5.03148,5.03148,0,0,0-2.23258,4.58457,5.632,5.632,0,0,0,3.58918,5.03981,5.87748,5.87748,0,0,0,5.87613-.54878c.282-.18546.52065-.51356.933-.43882.741,2.08546.16218,3.08874-1.90079,3.57915-3.69816.87913-6.83252-.0124-9.22927-2.9721a7.90671,7.90671,0,0,1,3.12319-12.06779C244.95385,157.53,248.94563,157.65549,250.7867,159.16668Z" fill="#4fbcfe"/><path d="M196.2486,160.47463c-1.33705-.40629-2.69306.15061-3.909-.38a4.41458,4.41458,0,0,1,.00894-2.218H202.721a2.36022,2.36022,0,0,1,.057,2.27557c-1.259.40134-2.59257-.02643-4.04248.30761v13.445a3.5815,3.5815,0,0,1-2.32524.05956C196.14334,169.4605,196.44614,164.96883,196.2486,160.47463Z" fill="#4fbcfe"/><path d="M147.62284,157.86047a3.76994,3.76994,0,0,1,1.9751-.04328c.48067.984.49526,15.14578.0341,16.15588a2.73346,2.73346,0,0,1-1.99943-.05731C147.47732,168.61,147.49776,163.23746,147.62284,157.86047Z" fill="#4fbcfe"/></svg>