<svg id="Layer_1" data-name="Layer 1" xmlns="http://www.w3.org/2000/svg" viewBox="0 0 300 300"><defs><style>.cls-1{fill:#2d7bba;}</style></defs><title>PHAT_Light_bg</title><path class="cls-1" d="M225.32,172.58h-4.56c-.49-.47-.37-1.06-.37-1.6q0-13.36,0-26.75v-1.47a1.86,1.86,0,0,1,1.29-1.91,25.86,25.86,0,0,1,12-2.1,12.44,12.44,0,0,1,6.47,2.39l.68.49a1.48,1.48,0,0,0,.28.08c.48-.29,1-.61,1.56-.91a16.1,16.1,0,0,1,13.1-1.4c4.83,1.52,7.34,5,8,9.93a30.63,30.63,0,0,1,.18,4.17q0,8.88,0,17.77a1.59,1.59,0,0,1-.36,1.34c-1.44,0-3,0-4.51,0-.5-.51-.35-1-.35-1.5q0-9.09,0-18.18a18,18,0,0,0-.3-4,6.4,6.4,0,0,0-5.46-5.33,12,12,0,0,0-8.73,1.61,4.85,4.85,0,0,0-.46.34c.14,1,.63,1.89.78,2.88a23.34,23.34,0,0,1,.34,3.63v19a1.72,1.72,0,0,1-.37,1.44H240c-.45-.47-.31-1-.31-1.45,0-6.2,0-12.4,0-18.61a17.15,17.15,0,0,0-.34-3.84,6.19,6.19,0,0,0-5.9-5.13,17.18,17.18,0,0,0-6.61.64c-.26.08-.53.16-.79.26a1.44,1.44,0,0,0-.25.18,2.66,2.66,0,0,0-.14,1.34q0,12.48,0,25A2.45,2.45,0,0,1,225.32,172.58Z"/><path class="cls-1" d="M24.64,127a1.09,1.09,0,0,1,1.09-.41c5.26,0,10.52,0,15.78,0a17.21,17.21,0,0,1,7.19,1.53,12.26,12.26,0,0,1,6.76,7.56,18.92,18.92,0,0,1,.38,10.7c-1.37,5.39-4.9,8.57-10.24,9.86a24.47,24.47,0,0,1-5.6.49H31.12a2.59,2.59,0,0,0-1.11.12c0,5.19,0,10.38,0,15.69-1.9,0-3.55.09-5.16-.06C24.52,171.66,24.38,130.36,24.64,127Zm5.42,24.67c3.37,0,6.64,0,9.91,0a17.4,17.4,0,0,0,4.14-.45,8,8,0,0,0,6.44-6.36,14.18,14.18,0,0,0,0-6.51,7.83,7.83,0,0,0-5.34-5.91,15,15,0,0,0-4.92-.77c-3.13,0-6.27,0-9.4,0-.27,0-.57-.1-.8.17Z"/><path class="cls-1" d="M62.64,126.71a25.13,25.13,0,0,1,4.59,0,2.46,2.46,0,0,1,.34,1.6c0,3.52,0,7,0,10.56a1.89,1.89,0,0,0,.15,1.16,26.3,26.3,0,0,0,2.9-.76,18.69,18.69,0,0,1,9.9.09A11.24,11.24,0,0,1,89,148.83a39.16,39.16,0,0,1,.38,7.18q0,7.59,0,15.16a1.83,1.83,0,0,1-.32,1.39H84.42a1.59,1.59,0,0,1-.26-1.27q0-8.78,0-17.56a24.79,24.79,0,0,0-.42-4.47,6.23,6.23,0,0,0-4.46-5.17c-4-1.24-7.82-.67-11.69,1,0,4.57,0,9.13,0,13.69s.09,9.1-.11,13.77a46.6,46.6,0,0,1-4.68.09c-.58-.37-.5-.89-.5-1.36V158q0-14.85,0-29.69A2,2,0,0,1,62.64,126.71Z"/><path class="cls-1" d="M155.46,172.57h-4.55c-.32-.79-.43-44.2-.14-45.66a11.78,11.78,0,0,1,4.71-.18c.51.33.4.85.4,1.32,0,3.59,0,7.18,0,10.77V140c.54.21.94-.07,1.35-.2a20.13,20.13,0,0,1,8.43-1,13.94,13.94,0,0,1,7.45,2.71,11.87,11.87,0,0,1,4.33,8.39,80.56,80.56,0,0,1,.2,9.19c0,4.08,0,8.15,0,12.23a2,2,0,0,1-.23,1.25,30.25,30.25,0,0,1-4.57.1c-.53-.43-.41-1-.41-1.42q0-8.69,0-17.35a24.11,24.11,0,0,0-.39-4.57,6.39,6.39,0,0,0-5-5.37,16.52,16.52,0,0,0-10.71,1,1.9,1.9,0,0,0-.33.22,3.43,3.43,0,0,0-.09,1.27q0,12.38,0,24.77C155.87,171.63,156,172.15,155.46,172.57Z"/><path class="cls-1" d="M116.72,153.11a16.22,16.22,0,0,0-.47-5.3,5.45,5.45,0,0,0-5.11-4.22,17.47,17.47,0,0,0-10.69,2,1.33,1.33,0,0,1-1.16.22,18.28,18.28,0,0,1-2.2-3.45,2.87,2.87,0,0,1,1.37-1.11,20.63,20.63,0,0,1,8.64-2.53,19,19,0,0,1,7,.57,10.39,10.39,0,0,1,7.69,9.81c.29,6,.07,11.92.14,17.87,0,.94,0,1.88,0,2.82a2.18,2.18,0,0,1-.25,1.29,17.63,17.63,0,0,1-4.1,1.28,33.72,33.72,0,0,1-10.78.85,14.14,14.14,0,0,1-8.66-3.43c-3.88-3.61-4.17-12.29,2.33-15.47a18.41,18.41,0,0,1,7.24-1.77,55.26,55.26,0,0,1,7.71.5A3.73,3.73,0,0,0,116.72,153.11Zm0,4.81c-.18-.06-.31-.12-.44-.15a35,35,0,0,0-9.13-.59,9,9,0,0,0-3.79,1,5.2,5.2,0,0,0-.36,8.92,8.38,8.38,0,0,0,2.67,1.12c3.74.88,7.38.24,11-.72Z"/><path class="cls-1" d="M185,156.13c0-1.78,0-3.56,0-5.33.23-7.07,5-10.76,10.27-11.78a16.69,16.69,0,0,1,10.43,1,11.53,11.53,0,0,1,7.13,10.54c.18,3.55.15,7.09,0,10.65-.22,7-4.66,10.71-10.19,11.8a16.92,16.92,0,0,1-11.2-1.23,11.18,11.18,0,0,1-6.47-10.1c-.07-1.84,0-3.69,0-5.53Zm22.65,0a38.12,38.12,0,0,0-.08-6,6.51,6.51,0,0,0-3.94-5.82,11.45,11.45,0,0,0-6.31-.85c-4.28.5-6.87,3.09-7,7.38-.13,3.48-.14,7,0,10.45.18,3.92,2.24,6.27,6,7a13,13,0,0,0,5.49-.07,6.92,6.92,0,0,0,5.85-7.08C207.63,159.56,207.6,157.85,207.6,156.15Z"/><path class="cls-1" d="M145.17,168.66a16.54,16.54,0,0,1-.16,4.57c-3.18,0-6.25.43-9.17-.88a9.24,9.24,0,0,1-5.46-7.16A37.49,37.49,0,0,1,130,158q0-12.6,0-25.19a2.34,2.34,0,0,1,.33-1.51,21.16,21.16,0,0,1,4.36,0c.37,2.78.34,5.53.6,8.31,3,.1,5.85-.06,8.79.09a14.8,14.8,0,0,1,0,4.65c-2.91.08-5.78,0-8.6,0-.28.33-.18.66-.18,1q0,8.35,0,16.72a7.9,7.9,0,0,0,.31,2.47,5.3,5.3,0,0,0,5.14,3.86,17.72,17.72,0,0,0,2.82-.08A1.86,1.86,0,0,1,145.17,168.66Z"/><path class="cls-1" d="M272.75,172.64a2.69,2.69,0,0,1-2.61-2.71,2.74,2.74,0,0,1,2.73-2.71A2.7,2.7,0,0,1,275.5,170,2.64,2.64,0,0,1,272.75,172.64Zm2.34-2.71a2.28,2.28,0,0,0-2.29-2.31,2.38,2.38,0,0,0-2.26,2.28,2.28,2.28,0,0,0,2.27,2.34A2.23,2.23,0,0,0,275.09,169.93Z"/><path class="cls-1" d="M273.17,170.35a1,1,0,0,0-.7,0c-.36.26.14,1-.63,1a16.87,16.87,0,0,1-.1-2.85c.76-.08,1.53-.37,2.13.29.37.41.15.84-.24,1.19.26.41.57.83.23,1.39C273.31,171.24,273.61,170.68,273.17,170.35Zm-.75-.51a1,1,0,0,0,.93-.17.54.54,0,0,0,0-.69,1,1,0,0,0-.95,0A1.18,1.18,0,0,0,272.42,169.84Z"/></svg>