<?xml version="1.0" encoding="UTF-8"?>
<svg xmlns="http://www.w3.org/2000/svg" version="1.1" viewBox="0 0 300 300">
  <defs>
    <style>
      .cls-1 {
        fill: #003087;
      }

      .cls-2 {
        fill: #ff9055;
      }

      .cls-3 {
        fill: #6db33f;
      }
    </style>
  </defs>
  <!-- Generator: Adobe Illustrator 28.6.0, SVG Export Plug-In . SVG Version: 1.2.0 Build 709)  -->
  <g>
    <g id="Layer_1">
      <g>
        <path class="cls-2" d="M274.2,184l-2.2,10.1h-59.2l2.2-10.1h59.2ZM35.3,106l-2.2,10.1h142.1l2.2-10.1H35.3Z"/>
        <g>
          <polygon class="cls-1" points="29.8 193.6 32.3 193.6 34.5 184.3 32.6 184.3 31 191.1 29.3 184.3 26.7 184.3 24.5 193.6 26.5 193.6 27.9 187.2 29.8 193.6"/>
          <polygon class="cls-1" points="34.3 193.6 36.4 193.6 38.6 184.3 36.5 184.3 34.3 193.6"/>
          <polygon class="cls-1" points="45.8 193.6 47.8 193.6 49.4 184.3 47.4 184.3 43.6 190.3 42.9 184.3 40.8 184.3 38 193.6 40.1 193.6 41.7 188.5 42.2 192.3 44.3 192.3 46.8 188.5 45.8 193.6"/>
          <polygon class="cls-1" points="58.4 193.6 64.3 193.6 64.7 191.7 61 191.7 62.7 184.2 60.6 184.2 58.4 193.6"/>
          <polygon class="cls-1" points="73.4 193.6 75.4 193.6 77.6 184.3 75.6 184.3 74.7 188 71.7 188 72.6 184.3 70.5 184.3 68.3 193.6 70.4 193.6 71.3 189.8 74.2 189.8 73.4 193.6"/>
          <polygon class="cls-1" points="77.3 193.6 83.2 193.6 83.7 191.7 79.7 191.7 80.3 189.7 83.8 189.7 84.2 187.8 80.7 187.8 81.2 186 85 186 85.4 184.2 79.5 184.2 77.3 193.6"/>
          <polygon class="cls-1" points="93.9 193.6 99.7 193.6 100.1 191.7 96.4 191.7 98.2 184.2 96.1 184.2 93.9 193.6"/>
          <polygon class="cls-1" points="105.1 186.1 107.6 186.1 108 184.3 100.9 184.3 100.5 186.1 103 186.1 101.2 193.7 103.3 193.7 105.1 186.1"/>
          <polygon class="cls-1" points="112.1 193.6 114.2 193.6 116.4 184.3 114.3 184.3 113.4 188 110.4 188 111.3 184.3 109.2 184.3 107 193.6 109.1 193.6 110 189.8 113 189.8 112.1 193.6"/>
          <path class="cls-1" d="M122.1,193.7c1,0,1.9-.1,2.9-.3v-1.8c-.8.2-1.6.2-2.4.2s-1.1-.2-1.1-.9v-.4l.8-3.3c0-.8.7-1.4,1.4-1.3h.2c.8,0,1.6.1,2.4.3l.5-1.8c-.9-.2-1.8-.4-2.6-.4-2.3,0-3.5.8-3.9,2.7l-.9,4.1c0,.2-.1.3-.1.5,0,1.4.8,2.3,2.9,2.3"/>
          <polygon class="cls-1" points="183.9 186.1 186.5 186.1 186.9 184.3 179.8 184.3 179.3 186.1 181.9 186.1 180.1 193.7 182.2 193.7 183.9 186.1"/>
          <polygon class="cls-1" points="185.9 193.6 188 193.6 190.2 184.3 188.1 184.3 185.9 193.6"/>
          <polygon class="cls-1" points="203.7 193.6 206.2 193.6 208.4 184.3 206.4 184.3 204.9 191.1 203.3 184.3 200.7 184.3 198.5 193.6 200.5 193.6 201.9 187.2 203.7 193.6"/>
          <path class="cls-1" d="M21.5,193.6h2.2l-.8-9.3h-3l-4.9,9.3h2.2l1-1.9h3.2v1.9ZM21,186l.2,4.1h-2.2l2-4.1ZM21.5,193.6h2.2l-.8-9.3h-3l-4.9,9.3h2.2l1-1.9h3.2v1.9ZM21,186l.2,4.1h-2.2l2-4.1Z"/>
          <polygon class="cls-1" points="29.8 193.6 32.3 193.6 34.5 184.3 32.6 184.3 31 191.1 29.3 184.3 26.7 184.3 24.5 193.6 26.5 193.6 27.9 187.2 29.8 193.6"/>
          <polygon class="cls-1" points="34.3 193.6 36.4 193.6 38.6 184.3 36.5 184.3 34.3 193.6"/>
          <polygon class="cls-1" points="45.8 193.6 47.8 193.6 49.4 184.3 47.4 184.3 43.6 190.3 42.9 184.3 40.8 184.3 38 193.6 40.1 193.6 41.7 188.5 42.2 192.3 44.3 192.3 46.8 188.5 45.8 193.6"/>
          <path class="cls-1" d="M55.3,193.6h2.2l-.8-9.3h-2.9l-4.9,9.3h2.2l1-1.9h3.2v1.9ZM54.9,186l.2,4.1h-2.2l2-4.1ZM55.3,193.6h2.2l-.8-9.3h-2.9l-4.9,9.3h2.2l1-1.9h3.2v1.9ZM54.9,186l.2,4.1h-2.2l2-4.1Z"/>
          <polygon class="cls-1" points="58.4 193.6 64.3 193.6 64.7 191.7 61 191.7 62.7 184.2 60.6 184.2 58.4 193.6"/>
          <polygon class="cls-1" points="73.4 193.6 75.4 193.6 77.6 184.3 75.6 184.3 74.7 188 71.7 188 72.6 184.3 70.5 184.3 68.3 193.6 70.4 193.6 71.3 189.8 74.2 189.8 73.4 193.6"/>
          <polygon class="cls-1" points="77.3 193.6 83.2 193.6 83.7 191.7 79.7 191.7 80.3 189.7 83.8 189.7 84.2 187.8 80.7 187.8 81.2 186 85 186 85.4 184.2 79.5 184.2 77.3 193.6"/>
          <path class="cls-1" d="M90.7,193.6h2.2l-.8-9.3h-2.9l-4.9,9.3h2.2l1-1.9h3.2v1.9ZM90.3,186l.2,4.1h-2.2l2-4.1ZM90.7,193.6h2.2l-.8-9.3h-2.9l-4.9,9.3h2.2l1-1.9h3.2v1.9ZM90.3,186l.2,4.1h-2.2l2-4.1Z"/>
          <polygon class="cls-1" points="93.9 193.6 99.7 193.6 100.1 191.7 96.4 191.7 98.2 184.2 96.1 184.2 93.9 193.6"/>
          <polygon class="cls-1" points="105.1 186.1 107.6 186.1 108 184.3 100.9 184.3 100.5 186.1 103 186.1 101.2 193.7 103.3 193.7 105.1 186.1"/>
          <polygon class="cls-1" points="112.1 193.6 114.2 193.6 116.4 184.3 114.3 184.3 113.4 188 110.4 188 111.3 184.3 109.2 184.3 107 193.6 109.1 193.6 110 189.8 113 189.8 112.1 193.6"/>
          <path class="cls-1" d="M122.1,193.7c1,0,1.9-.1,2.9-.3v-1.8c-.8.2-1.6.2-2.4.2s-1.1-.2-1.1-.9v-.4l.8-3.3c0-.8.7-1.4,1.4-1.3h.2c.8,0,1.6.1,2.4.3l.5-1.8c-.9-.2-1.8-.4-2.6-.4-2.3,0-3.5.8-3.9,2.7l-.9,4.1c0,.2-.1.3-.1.5,0,1.4.8,2.3,2.9,2.3"/>
          <path class="cls-1" d="M129.5,193.7c2.7,0,3.8-1.1,4.3-2.9l.9-3.8v-.4c0-1.3-.9-2.5-3.1-2.5s-3.7,1.1-4.2,2.9l-.9,3.8c0,.1-.1.3,0,.4-.1,1.4.8,2.5,3,2.5M132.6,187.1l-.8,3.5c-.2.8-.8,1.2-1.9,1.2s-1.3-.3-1.3-.9v-.3l.8-3.5c.2-.8,1-1.3,1.9-1.2,1,0,1.3.3,1.3.9v.3M129.5,193.7c2.7,0,3.8-1.1,4.3-2.9l.9-3.8v-.4c0-1.3-.9-2.5-3.1-2.5s-3.7,1.1-4.2,2.9l-.9,3.8c0,.1-.1.3,0,.4-.1,1.4.8,2.5,3,2.5M132.6,187.1l-.8,3.5c-.2.8-.8,1.2-1.9,1.2s-1.3-.3-1.3-.9v-.3l.8-3.5c.2-.8,1-1.3,1.9-1.2,1,0,1.3.3,1.3.9v.3"/>
          <path class="cls-1" d="M140.5,193.6h2.3l-1.6-3.2c1.1-.3,1.8-1.2,1.9-2.3l.2-1.1c0-.2.1-.4.1-.5.1-1.3-.9-2.2-2.9-2.2h-3.5l-2.2,9.3h2.1l.7-3h1.4l1.5,3ZM141,187.9c-.2.8-.4,1.1-1.3,1.1h-1.8l.7-2.9h1.6c.8,0,1,.2,1,.7v.4l-.2.7ZM140.5,193.6h2.3l-1.6-3.2c1.1-.3,1.8-1.2,1.9-2.3l.2-1.1c0-.2.1-.4.1-.5.1-1.3-.9-2.2-2.9-2.2h-3.5l-2.2,9.3h2.1l.7-3h1.4l1.5,3ZM141,187.9c-.2.8-.4,1.1-1.3,1.1h-1.8l.7-2.9h1.6c.8,0,1,.2,1,.7v.4l-.2.7Z"/>
          <path class="cls-1" d="M148.4,190.8c2.4,0,3.3-.9,3.6-2.6l.2-1.1c0-.2.1-.5.1-.8.1-1.3-.9-2.1-2.9-2.1h-3.5l-2.2,9.3h2.1l.7-2.9h1.9ZM150,188c-.2.7-.4,1.1-1.3,1.1h-1.6l.7-2.9h1.8c.7,0,.9.2.9.7v.4l-.3.7ZM148.4,190.8c2.4,0,3.3-.9,3.6-2.6l.2-1.1c0-.2.1-.5.1-.8.1-1.3-.9-2.1-2.9-2.1h-3.5l-2.2,9.3h2.1l.7-2.9h1.9ZM150,188c-.2.7-.4,1.1-1.3,1.1h-1.6l.7-2.9h1.8c.7,0,.9.2.9.7v.4l-.3.7Z"/>
          <path class="cls-1" d="M155.5,193.7c2.7,0,3.8-1.1,4.3-2.9l.9-3.8v-.4c0-1.3-.9-2.5-3.1-2.5s-3.7,1.1-4.2,2.9l-.9,3.8c0,.1-.1.3,0,.4,0,1.4.8,2.5,3,2.5M158.6,187.1l-.8,3.5c-.2.8-.8,1.2-1.9,1.2s-1.3-.3-1.3-.9v-.3l.8-3.5c.2-.8,1-1.3,1.9-1.2,1,0,1.3.3,1.3.9.1.2.1.3,0,.3M155.5,193.7c2.7,0,3.8-1.1,4.3-2.9l.9-3.8v-.4c0-1.3-.9-2.5-3.1-2.5s-3.7,1.1-4.2,2.9l-.9,3.8c0,.1-.1.3,0,.4,0,1.4.8,2.5,3,2.5M158.6,187.1l-.8,3.5c-.2.8-.8,1.2-1.9,1.2s-1.3-.3-1.3-.9v-.3l.8-3.5c.2-.8,1-1.3,1.9-1.2,1,0,1.3.3,1.3.9.1.2.1.3,0,.3"/>
          <path class="cls-1" d="M166.5,193.6h2.3l-1.6-3.2c1.1-.3,1.8-1.2,1.9-2.3l.2-1.1c0-.2.1-.4.1-.5.1-1.3-.9-2.2-2.9-2.2h-3.4l-2.2,9.3h2.1l.7-3h1.4l1.4,3ZM167,187.9c-.2.8-.4,1.1-1.3,1.1h-1.8l.7-2.9h1.6c.8,0,1,.2,1,.7v.4l-.2.7ZM166.5,193.6h2.3l-1.6-3.2c1.1-.3,1.8-1.2,1.9-2.3l.2-1.1c0-.2.1-.4.1-.5.1-1.3-.9-2.2-2.9-2.2h-3.4l-2.2,9.3h2.1l.7-3h1.4l1.4,3ZM167,187.9c-.2.8-.4,1.1-1.3,1.1h-1.8l.7-2.9h1.6c.8,0,1,.2,1,.7v.4l-.2.7Z"/>
          <path class="cls-1" d="M175.9,193.6h2.2l-.8-9.3h-2.9l-4.9,9.3h2.2l1-1.9h3.2v1.9ZM175.5,186l.2,4.1h-2.2l2-4.1ZM175.9,193.6h2.2l-.8-9.3h-2.9l-4.9,9.3h2.2l1-1.9h3.2v1.9ZM175.5,186l.2,4.1h-2.2l2-4.1Z"/>
          <polygon class="cls-1" points="183.9 186.1 186.5 186.1 186.9 184.3 179.8 184.3 179.3 186.1 181.9 186.1 180.1 193.7 182.2 193.7 183.9 186.1"/>
          <polygon class="cls-1" points="185.9 193.6 188 193.6 190.2 184.3 188.1 184.3 185.9 193.6"/>
          <path class="cls-1" d="M193.2,193.7c2.7,0,3.8-1.1,4.3-2.9l.9-3.8v-.4c0-1.3-.9-2.5-3.1-2.5s-3.7,1.1-4.2,2.9l-.9,3.8c0,.1-.1.3,0,.4-.1,1.4.8,2.5,3,2.5M196.3,187.1l-.8,3.5c-.2.8-.8,1.2-1.9,1.2s-1.3-.3-1.3-.9v-.3l.8-3.5c.2-.8,1-1.3,1.9-1.2,1,0,1.3.3,1.3.9v.3M193.2,193.7c2.7,0,3.8-1.1,4.3-2.9l.9-3.8v-.4c0-1.3-.9-2.5-3.1-2.5s-3.7,1.1-4.2,2.9l-.9,3.8c0,.1-.1.3,0,.4-.1,1.4.8,2.5,3,2.5M196.3,187.1l-.8,3.5c-.2.8-.8,1.2-1.9,1.2s-1.3-.3-1.3-.9v-.3l.8-3.5c.2-.8,1-1.3,1.9-1.2,1,0,1.3.3,1.3.9v.3"/>
          <polygon class="cls-1" points="203.7 193.6 206.2 193.6 208.4 184.3 206.4 184.3 204.9 191.1 203.3 184.3 200.7 184.3 198.5 193.6 200.5 193.6 201.9 187.2 203.7 193.6"/>
        </g>
        <g>
          <path class="cls-1" d="M84.6,123.8h17.7l-4.4,21.1h.1c3.4-3.9,6.8-6,12.8-6s11.8,3.6,9.9,13.4l-5.2,24.4h-17.7l4.8-22.7c.5-2.7-.2-4.3-2.3-4.3s-3.7,1.2-4.3,4.1l-4.9,22.8h-17.8l11.2-52.7Z"/>
          <polygon class="cls-1" points="131.8 123.8 149.5 123.8 147.2 135 129.5 135 131.8 123.8"/>
          <polygon class="cls-1" points="128.4 139.9 146.1 139.9 138.3 176.5 120.6 176.5 128.4 139.9"/>
          <path class="cls-1" d="M198.5,139.9h17.2l-.4,4.1c3.3-3.3,5.9-4.4,8.2-4.4,1.5-.1,3.1.2,4.4,1l-2.9,13.3c-2.3-.7-4.7-1-7.1-1-2.7-.1-5,1.9-5.5,4.6l-4.1,19.2h-17.7l7.8-36.8Z"/>
          <path class="cls-1" d="M57.3,141.2c-.8,3.7-3.2,5.7-8.7,5.7h-1l2.3-11h2.2c4.6-.1,5.9,1.5,5.2,5.3M62.3,123.8h-30.6l-11.2,52.7h20.8l3.8-17.8h6.8c14.8,0,23-7.1,25.3-17.7,2.2-9.9-2.3-17.2-15-17.2M57.3,141.2c-.8,3.7-3.2,5.7-8.7,5.7h-1l2.3-11h2.2c4.6-.1,5.9,1.5,5.2,5.3M62.3,123.8h-30.6l-11.2,52.7h20.8l3.8-17.8h6.8c14.8,0,23-7.1,25.3-17.7,2.2-9.9-2.3-17.2-15-17.2"/>
          <path class="cls-1" d="M84.6,123.8h17.7l-4.4,21.1h.1c3.4-3.9,6.8-6,12.8-6s11.8,3.6,9.9,13.4l-5.2,24.4h-17.7l4.8-22.7c.5-2.7-.2-4.3-2.3-4.3s-3.7,1.2-4.3,4.1l-4.9,22.8h-17.8l11.2-52.7Z"/>
          <polygon class="cls-1" points="131.8 123.8 149.5 123.8 147.2 135 129.5 135 131.8 123.8"/>
          <polygon class="cls-1" points="128.4 139.9 146.1 139.9 138.3 176.5 120.6 176.5 128.4 139.9"/>
          <path class="cls-1" d="M155.3,123.8h17.7l-4.1,19.4c3.2-3,7.5-4.5,11.8-4.4,7.9,0,13.9,5.2,11,19-2.7,12.9-10.6,19.9-19.5,19.9s-8.1-1.2-10.3-5.4l-1.2,4.3h-16.7l11.3-52.8ZM165,165.3c.2,1.1.9,2,2.9,2,3.8,0,5.2-4.1,6.1-9,1.2-5.8,1.4-9-2.2-9-2.1.1-3.8,1.4-4.5,3.3s-1.2,3.7-1.5,5.7c-.9,3.7-1.1,5.9-.8,7M155.3,123.8h17.7l-4.1,19.4c3.2-3,7.5-4.5,11.8-4.4,7.9,0,13.9,5.2,11,19-2.7,12.9-10.6,19.9-19.5,19.9s-8.1-1.2-10.3-5.4l-1.2,4.3h-16.7l11.3-52.8ZM165,165.3c.2,1.1.9,2,2.9,2,3.8,0,5.2-4.1,6.1-9,1.2-5.8,1.4-9-2.2-9-2.1.1-3.8,1.4-4.5,3.3s-1.2,3.7-1.5,5.7c-.9,3.7-1.1,5.9-.8,7"/>
          <path class="cls-1" d="M198.5,139.9h17.2l-.4,4.1c3.3-3.3,5.9-4.4,8.2-4.4,1.5-.1,3.1.2,4.4,1l-2.9,13.3c-2.3-.7-4.7-1-7.1-1-2.7-.1-5,1.9-5.5,4.6l-4.1,19.2h-17.7l7.8-36.8Z"/>
          <path class="cls-1" d="M254.4,158.2c-1.5,7.4-3.3,9.5-6.1,9.5s-3.7-2.2-2.2-9.5c1.6-7.4,3.4-9.5,6.3-9.5s3.6,2.3,2.1,9.5M254.4,138.8c-14.9,0-24,7.8-26.5,19.4-2.4,11.6,3.4,19.4,18.3,19.4s24-7.8,26.5-19.4c2.3-11.5-3.4-19.4-18.3-19.4M254.4,158.2c-1.5,7.4-3.3,9.5-6.1,9.5s-3.7-2.2-2.2-9.5c1.6-7.4,3.4-9.5,6.3-9.5s3.6,2.3,2.1,9.5M254.4,138.8c-14.9,0-24,7.8-26.5,19.4-2.4,11.6,3.4,19.4,18.3,19.4s24-7.8,26.5-19.4c2.3-11.5-3.4-19.4-18.3-19.4"/>
        </g>
        <g>
          <path class="cls-1" d="M280.8,185.2c-2.3,0-4.2,1.9-4.2,4.2s1.9,4.2,4.2,4.2,4.2-1.9,4.2-4.2-1.9-4.2-4.2-4.2ZM280.8,192.6c-1.8,0-3.2-1.5-3.2-3.2s1.5-3.2,3.2-3.2,3.2,1.5,3.2,3.2-1.5,3.2-3.2,3.2Z"/>
          <path class="cls-1" d="M282.1,189v-.4c0,0,0-.2,0-.2,0-.5-.6-.9-1.3-.9h-1.4v3.8s.8,0,.8,0v-1.2s.6,0,.6,0l.8,1.2h.9l-.9-1.3c.4-.1.6-.5.5-.9ZM281.3,189c0,.3,0,.4-.4.4h-.7v-1.2h.7c.3,0,.4,0,.5.3,0,0,0,0,0,.2v.3Z"/>
        </g>
        <path class="cls-3" d="M274.2,184l-2.2,10.1h-59.2l2.2-10.1h59.2ZM35.3,106l-2.2,10.1h142.1l2.2-10.1H35.3Z"/>
      </g>
    </g>
  </g>
</svg>