<svg id="Layer_1" data-name="Layer 1" xmlns="http://www.w3.org/2000/svg" viewBox="0 0 300 300"><circle cx="150" cy="150" r="125" fill="#858685"/><path d="M149.85,250.65828a99.828,99.828,0,0,1-59.41959-19.61752C45.86569,198.15589,36.34042,135.10764,69.11189,90.42957a100.80906,100.80906,0,0,1,80.96482-40.936A99.219,99.219,0,0,1,209.4963,68.99771,100.62787,100.62787,0,0,1,149.85,250.65828Z" fill="#94c9e8"/><path d="M149.96338,205.52663A54.83288,54.83288,0,0,1,117.19191,194.754,55.54867,55.54867,0,0,1,150.07676,94.51183a54.68841,54.68841,0,0,1,32.77147,10.886,55.488,55.488,0,0,1-32.88485,100.12877Z" fill="#e2833c"/></svg>