<svg id="Layer_1" data-name="Layer 1" xmlns="http://www.w3.org/2000/svg" xmlns:xlink="http://www.w3.org/1999/xlink" viewBox="0 0 300 300"><defs><linearGradient id="linear-gradient" x1="242.24" y1="163.51" x2="141.07" y2="163.51" gradientUnits="userSpaceOnUse"><stop offset="0.4" stop-color="#312d5c"/><stop offset="0.48" stop-color="#3a3c69"/><stop offset="0.62" stop-color="#52638c"/><stop offset="0.82" stop-color="#79a1c3"/><stop offset="1" stop-color="#a1e1fd"/></linearGradient><linearGradient id="linear-gradient-2" x1="242.24" y1="135.75" x2="141.07" y2="135.75" xlink:href="#linear-gradient"/><linearGradient id="linear-gradient-3" x1="242.24" y1="167.38" x2="141.07" y2="167.38" xlink:href="#linear-gradient"/><linearGradient id="linear-gradient-4" x1="242.24" y1="150.24" x2="141.07" y2="150.24" xlink:href="#linear-gradient"/><linearGradient id="linear-gradient-5" x1="242.24" y1="132.54" x2="141.07" y2="132.54" xlink:href="#linear-gradient"/><linearGradient id="linear-gradient-6" x1="242.24" y1="97.17" x2="141.07" y2="97.17" xlink:href="#linear-gradient"/><linearGradient id="linear-gradient-7" x1="242.24" y1="202.97" x2="141.07" y2="202.97" xlink:href="#linear-gradient"/><linearGradient id="linear-gradient-8" x1="242.24" y1="182.8" x2="141.07" y2="182.8" xlink:href="#linear-gradient"/><linearGradient id="linear-gradient-9" x1="242.24" y1="150.15" x2="141.07" y2="150.15" xlink:href="#linear-gradient"/><linearGradient id="linear-gradient-10" x1="242.24" y1="113.53" x2="141.07" y2="113.53" xlink:href="#linear-gradient"/><linearGradient id="linear-gradient-11" x1="242.24" y1="150.06" x2="141.07" y2="150.06" xlink:href="#linear-gradient"/><linearGradient id="linear-gradient-12" x1="242.24" y1="223.09" x2="141.07" y2="223.09" xlink:href="#linear-gradient"/><linearGradient id="linear-gradient-13" x1="242.24" y1="76.92" x2="141.07" y2="76.92" xlink:href="#linear-gradient"/><linearGradient id="linear-gradient-14" x1="242.24" y1="168.38" x2="141.07" y2="168.38" xlink:href="#linear-gradient"/><linearGradient id="linear-gradient-15" x1="242.24" y1="131.65" x2="141.07" y2="131.65" xlink:href="#linear-gradient"/><linearGradient id="linear-gradient-16" x1="242.24" y1="204.96" x2="141.07" y2="204.96" xlink:href="#linear-gradient"/><linearGradient id="linear-gradient-17" x1="242.24" y1="95.43" x2="141.07" y2="95.43" xlink:href="#linear-gradient"/><linearGradient id="linear-gradient-18" x1="242.24" y1="58.3" x2="141.07" y2="58.3" xlink:href="#linear-gradient"/><linearGradient id="linear-gradient-19" x1="242.24" y1="241.7" x2="141.07" y2="241.7" xlink:href="#linear-gradient"/><linearGradient id="linear-gradient-20" x1="242.24" y1="117.42" x2="141.07" y2="117.42" xlink:href="#linear-gradient"/><linearGradient id="linear-gradient-21" x1="242.24" y1="186.51" x2="141.07" y2="186.51" xlink:href="#linear-gradient"/></defs><path d="M119.81,154.14a15.39,15.39,0,0,0-8-1.49c-6.85-.37-12.89,2-13.69,8.63s4.67,10.25,11,11.71c1.63.37,3.23,1,4.88,1.27,6.72,1.19,14.58-3.1,15.21-9C129.94,158.81,124.78,156.32,119.81,154.14Z" fill="url(#linear-gradient)"/><path d="M111.82,145.78h.84v-.05c2,0,4,.16,5.94,0,6.67-.61,10.13-5.23,9.67-12.27-.51-7.87-6.63-7.22-11.74-7.7-2.12-.2-4.44.74-6.54,1.5-6,2.19-12.69,5.41-11.94,12.33C98.82,146.76,106.24,145.68,111.82,145.78Z" fill="url(#linear-gradient-2)"/><path d="M178.06,176.5c6.08-.09,11.19-2.63,11.07-9.16s-5.9-8.23-11.59-9.09c-5.56.86-11.34,2.32-11.35,9.11C166.18,174.57,171.74,176.59,178.06,176.5Z" fill="url(#linear-gradient-3)"/><path d="M82.46,143.7c-7.13-2.37-13.29.5-19.51,2.68-3,1-4.59,3.85-.5,6.06,4.91,2.65,9.74,5.7,15.34,5.17,1.23,0,2.07,0,2.91,0,4.93.12,8.6-2.64,9.36-6.89C91,145.81,86.41,145,82.46,143.7Z" fill="url(#linear-gradient-4)"/><path d="M178.85,141.62c5.06-1.09,10.62-3.19,10.18-9.68-.43-6.18-5.48-8.69-11.62-8.47-6,.22-11.15,2.52-11.17,8.93C166.22,139.65,172.51,140.76,178.85,141.62Z" fill="url(#linear-gradient-5)"/><path d="M173.81,106.36c5-.82,10.33-2,10.71-8.45.39-6.66-3.92-9.78-10.13-9.92s-10.91,3-11.18,9.24S168.07,105.53,173.81,106.36Z" fill="url(#linear-gradient-6)"/><path d="M174.06,193.76c-5.57,0-10.57,2.23-10.67,8.45s4.69,9.09,10.63,10c5.56-.62,10.22-2.84,10.5-8.95C184.83,196.5,180.15,193.77,174.06,193.76Z" fill="url(#linear-gradient-7)"/><path d="M147.16,173.22a16.22,16.22,0,0,1-1.7-.07c-4.81-.1-9.44.79-10.26,6.35-.86,5.84,2.15,9.61,8.15,10.69,5.2,3.52,10.2,2.75,14.86-1a7.06,7.06,0,0,0,2-8.56C157.83,175.12,153.17,172.79,147.16,173.22Z" fill="url(#linear-gradient-8)"/><path d="M146.49,140.86h-.85c-6.46-.29-10.27,3-10.46,9.2-.18,6.43,3.81,9.5,10.26,9.24,10.32.85,16.1-2.13,16.62-8.57C162.61,144,157.55,140.78,146.49,140.86Z" fill="url(#linear-gradient-9)"/><path d="M202.32,120.44c4.3-.34,8.41-1.33,8.07-6.54-.36-5.54-4.64-7.29-9.55-7.28-4,0-7.54,1.48-7.56,6.08C193.26,118.48,197.58,119.92,202.32,120.44Z" fill="url(#linear-gradient-10)"/><path d="M213.56,150.45c.4-5.55-4.1-7.13-8.43-7.49-4.56-.39-8.78,1.42-9.28,6.57-.53,5.54,4,6.73,8.29,7.68C208.35,156.36,213.17,155.91,213.56,150.45Z" fill="url(#linear-gradient-11)"/><path d="M195.08,215.61c-5.37.12-9.64,2.43-10,8.26-.31,4.43,2.8,6.89,7.07,6.69,5.49-.25,8.67-3.6,9.74-8.53C201.65,217.25,198.91,215.53,195.08,215.61Z" fill="url(#linear-gradient-12)"/><path d="M194.16,84.41c4.11.35,7.26-1.19,7.71-6.11-.76-5.51-4.65-8.27-9.74-8.86-4.27-.49-7.24,2.3-7,6.62C185.32,81.41,189.14,84,194.16,84.41Z" fill="url(#linear-gradient-13)"/><path d="M232.71,162.56c-4,0-7.47,1.34-7.89,5.81s3.19,5.83,6.61,5.84c4.08,0,7.68-1.62,8.57-6.34C239.39,163.51,236.33,162.54,232.71,162.56Z" fill="url(#linear-gradient-14)"/><path d="M224.74,130.77c0,4.77,3.58,6.53,7.67,6.72,4-.07,7.66-1.08,7.49-5.28-.2-4.81-4.41-6.19-8.51-6.39C228.09,125.66,224.75,127.1,224.74,130.77Z" fill="url(#linear-gradient-15)"/><path d="M225.85,198.82c-4.19,1-8.33,2.41-8.95,7.47-.43,3.6,2.07,5,5.36,4.77,4.9-.37,9-2.55,9.56-7.72C232.23,199.85,228.89,199.08,225.85,198.82Z" fill="url(#linear-gradient-16)"/><path d="M225.49,101.42c3.3.42,6.94-.43,6.52-4.53-.49-4.8-4.46-6.89-9-7.46-3.11-.39-5.66.47-6.11,4.6C217.54,98.71,221,100.85,225.49,101.42Z" fill="url(#linear-gradient-17)"/><path d="M211,64.14c2.56.47,4.9-.32,4.15-3.41-1.15-4.79-4.91-7.16-8.82-8.38-3-.19-4.73.72-4.34,3.22C202.73,60.6,206.14,63.25,211,64.14Z" fill="url(#linear-gradient-18)"/><path d="M211.31,235.72c-4.58.5-7.78,3.37-9.33,7.92-.71,2.12.51,4.27,2.88,4a11.53,11.53,0,0,0,10.3-8.47C215.93,236.69,214,235.78,211.31,235.72Z" fill="url(#linear-gradient-19)"/><path d="M143.78,127c6.65,1.22,12.4-.44,15.93-6.35a7.38,7.38,0,0,0-1.69-9.94c-4.56-3.63-9.57-4.51-14.67-.76-5.6.9-8.45,4.27-8.28,9.84S139.37,126.38,143.78,127Z" fill="url(#linear-gradient-20)"/><path d="M194.44,190.34c4.76,4.87,9.63,4,14.17-.11,2.63-2.4,3.12-5.82.34-8.25-4.5-3.91-9.35-3.23-13.85.45a2.83,2.83,0,0,0-.48.69C192,185.47,191.9,187.87,194.44,190.34Z" fill="url(#linear-gradient-21)"/></svg>