<svg id="Layer_1" data-name="Layer 1" xmlns="http://www.w3.org/2000/svg" viewBox="0 0 300 300"><title>PGEN_Mark_Light</title><polygon points="66.355 233.436 68.595 228.289 70.654 229.755 66.355 233.436" fill="#2c0e49"/><polygon points="76.806 223.808 80.6 219.911 74.961 214.477 72.944 219.604 76.806 223.808" fill="#2c0e49"/><polygon points="91.367 209.042 81.626 198.993 79.532 204.427 87.573 212.733 91.367 209.042" fill="#2c0e49"/><polygon points="102.544 197.967 87.983 183.919 85.933 188.944 98.648 201.761 102.544 197.967" fill="#2c0e49"/><polygon points="113.741 186.893 94.651 168.303 92.598 173.665 109.722 190.369 113.741 186.893" fill="#2c0e49"/><polygon points="124.283 175.818 101.441 152.686 99.213 157.821 121.002 179.817 124.283 175.818" fill="#2c0e49"/><polygon points="135.563 165.065 108.082 137.365 105.7 142.876 131.963 168.743 135.563 165.065" fill="#2c0e49"/><polygon points="146.535 153.771 114.645 122.086 112.377 127.501 142.844 157.821 146.535 153.771" fill="#2c0e49"/><polygon points="157.507 142.876 126.95 112.549 122.513 114.943 153.918 146.696 157.507 142.876" fill="#2c0e49"/><polygon points="168.377 131.827 142.683 106.161 137.306 107.987 164.685 135.314 168.377 131.827" fill="#2c0e49"/><polygon points="179.451 120.737 157.993 99.495 152.8 101.756 175.76 124.649 179.451 120.737" fill="#2c0e49"/><polygon points="190.423 109.678 173.299 92.861 168.432 94.954 187.04 113.677 190.423 109.678" fill="#2c0e49"/><polygon points="201.728 98.635 188.993 86.007 183.727 88.294 198.047 102.705 201.728 98.635" fill="#2c0e49"/><polygon points="212.675 87.734 204.21 79.377 198.934 81.432 208.676 91.66 212.675 87.734" fill="#2c0e49"/><polygon points="223.442 76.967 219.825 72.58 214.348 74.961 219.825 80.455 223.442 76.967" fill="#2c0e49"/><polygon points="230.107 70.199 233.645 66.564 228.379 68.851 230.107 70.199" fill="#2c0e49"/><polygon points="66.677 66.695 66.355 66.695 66.355 71.627 71.514 71.627 66.677 66.695" fill="#8d809c"/><polygon points="77.101 77.322 66.355 77.322 66.355 82.457 82.141 82.457 77.101 77.322" fill="#8d809c"/><polygon points="89.36 89.819 66.355 89.819 66.355 94.954 94.4 94.954 89.36 89.819" fill="#8d809c"/><polygon points="101.631 102.316 66.355 102.316 66.355 107.463 106.683 107.463 101.631 102.316" fill="#8d809c"/><polygon points="66.355 132.636 110.149 132.636 112.377 127.501 66.355 127.501 66.355 132.636" fill="#8d809c"/><polygon points="66.355 145.443 104.586 145.443 106.814 140.308 66.355 140.308 66.355 145.443" fill="#8d809c"/><polygon points="66.355 157.821 99.213 157.821 101.441 152.686 66.355 152.686 66.355 157.821" fill="#8d809c"/><polygon points="66.355 170.199 93.828 170.199 96.056 165.065 66.355 165.065 66.355 170.199" fill="#8d809c"/><polygon points="66.355 183.006 88.264 183.006 90.492 177.872 66.355 177.872 66.355 183.006" fill="#8d809c"/><polygon points="66.355 195.503 82.832 195.503 85.072 190.369 66.355 190.369 66.355 195.503" fill="#8d809c"/><polygon points="66.355 208.251 77.292 208.251 79.532 203.116 66.355 203.116 66.355 208.251" fill="#8d809c"/><polygon points="66.355 220.689 71.895 220.689 74.123 215.554 66.355 215.554 66.355 220.689" fill="#8d809c"/><polygon points="66.355 233.436 68.595 228.289 66.355 228.289 66.355 233.436" fill="#8d809c"/><polygon points="114.739 114.943 66.355 115.064 66.355 120.198 115.558 120.198 116.976 117.355 114.739 114.943" fill="#8d809c"/><polygon points="71.419 66.564 71.419 71.52 66.498 66.564 71.419 66.564" fill="#67577c"/><polygon points="80.378 66.564 80.378 80.527 75.1 75.225 75.1 66.564 80.378 66.564" fill="#67577c"/><polygon points="89.527 66.564 89.527 89.736 84.25 84.422 84.25 66.564 89.527 66.564" fill="#67577c"/><polygon points="98.379 66.564 98.379 98.635 93.101 93.334 93.101 66.564 98.379 66.564" fill="#67577c"/><polygon points="107.528 66.564 107.528 107.844 102.251 102.531 102.251 66.564 107.528 66.564" fill="#67577c"/><polygon points="116.38 66.564 116.38 116.755 111.102 111.442 111.102 66.564 116.38 66.564" fill="#67577c"/><polygon points="125.744 66.564 125.744 113.539 120.478 115.826 120.478 66.564 125.744 66.564" fill="#67577c"/><polygon points="134.596 66.564 134.596 109.679 129.33 111.978 129.33 66.564 134.596 66.564" fill="#67577c"/><polygon points="143.745 66.564 143.745 105.7 138.48 107.987 138.48 66.564 143.745 66.564" fill="#67577c"/><polygon points="152.8 66.564 152.8 101.756 147.522 104.056 147.522 66.564 152.8 66.564" fill="#67577c"/><polygon points="161.854 66.564 161.854 97.813 156.576 100.112 156.576 66.564 161.854 66.564" fill="#67577c"/><polygon points="170.598 66.564 170.598 94.013 165.333 96.3 165.333 66.564 170.598 66.564" fill="#67577c"/><polygon points="180.046 66.564 180.046 89.891 174.768 92.19 174.768 66.564 180.046 66.564" fill="#67577c"/><polygon points="188.993 66.564 188.993 86.007 183.727 88.294 183.727 66.564 188.993 66.564" fill="#67577c"/><polygon points="198.047 66.564 198.047 82.063 192.769 84.363 192.769 66.564 198.047 66.564" fill="#67577c"/><polygon points="206.994 66.564 206.994 78.168 201.728 80.455 201.728 66.564 206.994 66.564" fill="#67577c"/><polygon points="216.144 66.564 216.144 74.177 210.878 76.476 210.878 66.564 216.144 66.564" fill="#67577c"/><polygon points="225.102 66.564 225.102 70.281 219.825 72.58 219.825 66.564 225.102 66.564" fill="#67577c"/><polygon points="233.645 66.564 228.379 68.851 228.379 66.564 233.645 66.564" fill="#67577c"/></svg>