<svg id="Layer_1" data-name="Layer 1" xmlns="http://www.w3.org/2000/svg" viewBox="0 0 300 300"><title>DTIL_Mark_Light</title><path d="M229.12843,214.33609c-4.32047-7.78866-8.61-15.34848-14.23365-21.91139a.81566.81566,0,0,1,.19288-.74553c8.24434-12.96461,5.12542-29.28148-7.08676-38.89547a34.09821,34.09821,0,0,0-17.69883-7.13981c-9.37757-1.03957-17.63022,1.68726-25.02026,7.366-.33219.25526-.664.511-1.02254.787a6.95365,6.95365,0,0,1-1.68434-.99248c-5.29653-3.69811-10.276-7.80636-15.31562-11.83673q-3.28713-2.62881-6.57474-5.257c-.17828-.14274-.34259-.30289-.51089-.45272.21589-.50941.66329-.70383,1.0208-.97577A207.97485,207.97485,0,0,0,168.19539,109.615a135.864,135.864,0,0,0,19.23209-27.52152A104.07845,104.07845,0,0,0,196.732,59.76493a4.23883,4.23883,0,0,1,.25682-.568,2.95158,2.95158,0,0,1,1.36609.60712,106.41394,106.41394,0,0,1,39.56972,39.06266,101.57187,101.57187,0,0,1,12.8502,35.21571,98.46145,98.46145,0,0,1,.99027,23.62106,101.538,101.538,0,0,1-21.87587,55.78209C229.69123,213.73393,229.46588,213.96045,229.12843,214.33609Z" fill="#154995"/><path d="M132.24778,141.45564c7.91667,7.64805,15.62692,15.40132,23.1371,23.38162a47.05647,47.05647,0,0,0-1.26728,4.79611c-1.07228,6.19113-.96487,12.3107,1.39247,18.21525,3.675,9.20484,10.55127,14.88,19.95745,17.59937a38.43858,38.43858,0,0,0,16.78386.90159c3.63772,3.58787,10.26517,20.73087,11.64691,30.08909-.12787.39344-.51792.504-.82673.69171a102.0351,102.0351,0,0,1-99.10657,3.93455,3.77181,3.77181,0,0,1-1.45129-1.26338,62.40415,62.40415,0,0,1-6.96151-58.36683,55.65691,55.65691,0,0,1,10.59647-16.57125,192.82067,192.82067,0,0,1,24.53368-22.38432c.296-.22824.60455-.44074.91391-.65079C131.74886,141.72475,131.91669,141.64354,132.24778,141.45564Z" fill="#154995"/><path d="M67.73529,210.23057C33.30488,164.32491,44.78239,95.8385,94.41774,64.57553c.24049.07812.20279.28257.19626.46109a76.36678,76.36678,0,0,0,6.09533,32.38626,99.98657,99.98657,0,0,0,20.67933,31.28191,1.75617,1.75617,0,0,1,.6266.83834,4.50776,4.50776,0,0,1-1.252.98181c-7.33629,4.92761-14.65422,9.87986-21.653,15.28636a85.50888,85.50888,0,0,0-16.584,16.244A76.25179,76.25179,0,0,0,68.582,194.0071a54.25488,54.25488,0,0,0-1.064,12.95916A19.82936,19.82936,0,0,1,67.73529,210.23057Z" fill="#154995"/><path d="M128.93167,125.27489a4.42684,4.42684,0,0,1-1.67951-1.13061c-8.1-7.77468-14.26287-16.79537-17.59113-27.59927a37.22633,37.22633,0,0,1-.82711-17.21635,55.1794,55.1794,0,0,1,7.5236-20.37662,28.54007,28.54007,0,0,1,5.01463-6.19656,6.20682,6.20682,0,0,1,2.66711-1.44335A102.14715,102.14715,0,0,1,181.305,52.86939c.48916.15636.97023.33871,1.45113.51945.07862.02954.13667.11378.26987.23a99.76571,99.76571,0,0,1-1.297,10.35711,76.61082,76.61082,0,0,1-13.64015,31.94852,62.84622,62.84622,0,0,1-11.72557,11.81975,177.21957,177.21957,0,0,1-26.96779,17.37031A3.40183,3.40183,0,0,1,128.93167,125.27489Z" fill="#154995"/><path d="M172.30735,159.33073a22.82121,22.82121,0,0,1,9.01027-3.96157c7.29848-1.41745,14.06461-.13718,20.03834,4.40124a20.30066,20.30066,0,0,1,8.3938,15.51705,19.52288,19.52288,0,0,1-2.99281,11.49173H178.07419c3.00028,3.70676,5.79483,7.15937,8.66156,10.70114-11.712.936-25.76062-9.70946-23.11527-24.71017.46612-.44215,1.05828-.24556,1.59453-.24641q11.99921-.01929,23.99848-.01363a6.38238,6.38238,0,0,0,2.25-.19314C185.253,167.63414,178.734,163.71806,172.30735,159.33073Z" fill="#154995"/></svg>