<svg id="Layer_1" data-name="Layer 1" xmlns="http://www.w3.org/2000/svg" viewBox="0 0 300 300"><title>PRME_Mark_Light</title><path d="M261.82168,148.8858v4.6039c-.77487.11085-34.67115.14534-36.08651.03739V148.8858Z" fill="#1b31e5"/><path d="M123.74485,199.74823h-4.10577v-3.90591c-.42868-.26946-.63983-.10568-.8517.22655a9.817,9.817,0,0,1-7.17253,4.36386,12.25944,12.25944,0,0,1-11.93751-5.36605,17.56169,17.56169,0,0,1-1.75549-3.97617,14.42057,14.42057,0,0,1-.33474-3.46017,23.015,23.015,0,0,1,.105-4.45612,12.79251,12.79251,0,0,1,4.29688-7.90775,12.2353,12.2353,0,0,1,8.94827-2.78637,9.0235,9.0235,0,0,1,7.84618,4.49679.56271.56271,0,0,0,.81651.29737c0-2.45766,0-4.94526,0-7.43286,0-2.4896,0-4.9792,0-7.52132h4.09692C123.82409,162.905,123.8772,198.45856,123.74485,199.74823Zm-21.88016-12.82a16.314,16.314,0,0,0,.26283,2.52625,8.55543,8.55543,0,0,0,6.98623,6.92831c4.03651.60408,7.52766-1.01848,9.2811-4.54515a11.43842,11.43842,0,0,0,.0245-10.62433,8.60677,8.60677,0,0,0-14.0812-2.00345C102.42785,181.272,101.83809,183.81139,101.86469,186.9282Z" fill="#262223"/><path d="M52.47813,199.73382H48.294v-.8674q.00009-9.06065-.00214-18.12131a4.03255,4.03255,0,0,0-1.87842-3.826,3.20549,3.20549,0,0,0-3.061-.20041c-2.16348.87193-2.55027,2.79208-2.56531,4.796-.04339,5.78307-.01565,11.56667-.01584,17.35007,0,.277,0,.554,0,.869H36.60486V173.25841h4.11689v2.61548a.49553.49553,0,0,0,.70093.11147c.75852-2.82318,2.89715-3.60711,5.56958-3.51417,2.35385.08185,3.73473,1.44665,4.558,3.53836.42808.23381.61752-.02837.831-.36577A5.69262,5.69262,0,0,1,55.2808,172.907c2.6706-.91279,6.28713-.62176,7.9508,2.37015a2.30733,2.30733,0,0,0,.4924.70937,23.89367,23.89367,0,0,1,.4945,6.7456q.01111,8.05818.00241,16.1164v.87986H60.10322c-.18853-.24762-.093-.54019-.0933-.81024q-.00957-9.06053-.00255-18.12107a5.61551,5.61551,0,0,0-.68066-2.88847,2.72257,2.72257,0,0,0-2.08014-1.31189,4.35378,4.35378,0,0,0-2.24392.16216,3.13615,3.13615,0,0,0-1.8885,1.85063,8.95934,8.95934,0,0,0-.63228,3.91336q-.01348,8.17385-.00374,16.34772Z" fill="#262223"/><path d="M263.39514,187.76561H242.11388c-.30631,3.13241,1.94613,6.884,4.51711,7.87192,6.51755,2.50434,11.3183-.61078,12.34428-4.49055a6.17692,6.17692,0,0,1,2.04085.41627,15.621,15.621,0,0,1,1.92907.57972.5425.5425,0,0,1,.05115.633,13.22028,13.22028,0,0,1-3.01727,4.54615,12.00344,12.00344,0,0,1-3.78644,2.35906,17.30207,17.30207,0,0,1-5.11405.93262,12.77976,12.77976,0,0,1-5.60667-1.06139,11.24524,11.24524,0,0,1-4.75619-3.53865,14.79463,14.79463,0,0,1-2.67248-5.67606c-.41913-1.72346-.161-3.452-.2773-5.17287a10.401,10.401,0,0,1,.83161-4.65026,12.625,12.625,0,0,1,3.16-4.59561,12.91475,12.91475,0,0,1,13.17573-2.86227c4.52213,1.36,7.28089,4.61451,8.24232,9.31162A36.7267,36.7267,0,0,1,263.39514,187.76561Zm-4.26369-3.91989c-.04466-4.18943-4.11925-7.62726-8.68431-7.40551-4.423.21486-8.51332,3.89472-8.20845,7.40551Z" fill="#262223"/><path d="M72.23454,187.723c-.107,4.34874,2.6997,8.05588,6.74746,8.64228,5.8286.8444,9.20686-1.769,10.1533-5.24513a37.32371,37.32371,0,0,1,3.984.97765c.13812.25287.00239.43363-.06279.61984a11.689,11.689,0,0,1-4.25372,5.683c-1.98783,1.46144-4.26546,1.76385-6.59469,2.12682a10.60831,10.60831,0,0,1-4.235-.20446A11.77693,11.77693,0,0,1,71.108,196.2906a13.75439,13.75439,0,0,1-2.90087-6.18137,39.52748,39.52748,0,0,1-.21654-5.64466,12.17307,12.17307,0,0,1,1.96046-6.21534,11.1593,11.1593,0,0,1,5.81106-4.83532,14.10394,14.10394,0,0,1,8.73636-.61756,11.682,11.682,0,0,1,6.76573,4.67812,12.54248,12.54248,0,0,1,2.31036,7.48325c.00806.89583.00126,1.7918.00126,2.76524ZM89.283,183.83423c.10642-3.89759-3.69708-7.32162-8.172-7.3978-4.54807-.07741-8.74623,3.46728-8.74207,7.3978Z" fill="#262223"/><path d="M180.78326,182.624c-1.39629.3667-2.77343.55823-4.10252,1.00766a11.57153,11.57153,0,0,1-.743-2.2138,6.803,6.803,0,0,0-3.82423-4.06321,9.20948,9.20948,0,0,0-5.71912-.75149,8.69805,8.69805,0,0,0-6.49033,4.97425,11.25708,11.25708,0,0,0-.381,9.15224c1.57343,4.02486,4.99428,6.14288,9.7826,5.73159a8.03593,8.03593,0,0,0,6.04307-3.68221,7.45506,7.45506,0,0,0,1.18074-3.40083c1.4385.31476,2.857.44785,4.272.90152a10.005,10.005,0,0,1-1.27168,3.90868,11.172,11.172,0,0,1-4.45247,4.65986,13.395,13.395,0,0,1-4.07562,1.46852,15.30062,15.30062,0,0,1-3.84323.2496,17.76764,17.76764,0,0,1-4.6386-1.05192,5.34119,5.34119,0,0,1-2.546-1.43567,3.84936,3.84936,0,0,0-.61273-.46408,12.58454,12.58454,0,0,1-4.53376-7.05233,20.69581,20.69581,0,0,1-.25635-5.53555,12.01367,12.01367,0,0,1,3.09469-7.98521,13.07558,13.07558,0,0,1,7.84788-4.37035,14.14089,14.14089,0,0,1,8.87461,1.165,11.25266,11.25266,0,0,1,5.63405,6.09107A16.06533,16.06533,0,0,1,180.78326,182.624Z" fill="#262223"/><path d="M233.56383,199.73774h-4.13076a1.60707,1.60707,0,0,1-.07984-.84006c-.00488-4.80583.01548-9.61176-.0126-14.41743a11.39482,11.39482,0,0,0-.99113-4.60591,5.85519,5.85519,0,0,0-3.5192-2.96691,7.71218,7.71218,0,0,0-4.912-.09963,6.45978,6.45978,0,0,0-4.32246,3.62585,12.68257,12.68257,0,0,0-1.07786,2.93506,13.41041,13.41041,0,0,0-.21279,2.44358c-.01949,4.34316-.00883,8.68644-.00862,13.02968,0,.27906,0,.5581,0,.88422h-4.15537V173.24206h4.14136v4.32288c.39863.2347.603.09738.73789-.19877,1.41156-3.09821,3.96584-4.51721,7.218-4.87847a10.99216,10.99216,0,0,1,6.119.961,8.56455,8.56455,0,0,1,4.56541,5.64048,19.072,19.072,0,0,1,.64526,5.13958c-.01242,4.8829-.00429,9.76584-.00429,14.64877Z" fill="#262223"/><path d="M129.9011,199.73437v-3.81352h9.20577V177.11449h-8.21832v-3.84781h12.499v22.61286h8.646v3.85483Z" fill="#262223"/><path d="M196.88335,195.88721h8.64178V199.735H183.42545v-3.82175h9.18684V177.13573H184.389v-3.87381h12.49436Z" fill="#262223"/><path d="M195.65291,169.05216a1.4189,1.4189,0,0,0-.92008.11021,3.9501,3.9501,0,0,1-3.35054-1.94738,3.46726,3.46726,0,0,1-.53856-2.29708,3.91032,3.91032,0,0,1,3.375-3.37978,3.81284,3.81284,0,0,1,4.06468,2.48449,3.87936,3.87936,0,0,1-.2335,3.07514A4.441,4.441,0,0,1,195.65291,169.05216Z" fill="#262223"/><path d="M142.7109,168.89474a2.44087,2.44087,0,0,0-1.49854.35369,8.07274,8.07274,0,0,0-1.84027-.53807c-2.81968-2.282-2.27136-4.62542-1.05666-5.93205,1.59129-1.71167,4.08184-1.87262,6.0858.32459C145.723,164.5521,145.00263,166.98166,142.7109,168.89474Z" fill="#262223"/><path d="M44.19789,142.90206v18.57207H38.90863v-47.265h5.27108v5.10039c.48226.25544.79244.18062,1.0292-.23482,3.82734-6.71581,15.51541-8.30688,22.24553-1.429a17.08706,17.08706,0,0,1,4.71471,11.69241,24.85162,24.85162,0,0,1-1.13037,9.55437c-3.91262,10.99184-17.35835,12.53293-23.974,6.47912a10.08769,10.08769,0,0,1-1.76694-2.07979C45.04538,142.88871,44.79424,142.61759,44.19789,142.90206Zm22.57652-11.78433c-.07862-.97292-.12119-1.95035-.24192-2.918a11.12933,11.12933,0,0,0-8.88954-9.69544,10.86931,10.86931,0,0,0-11.93211,5.82037,14.87826,14.87826,0,0,0-.85434,11.41269,10.46022,10.46022,0,0,0,8.04339,7.73781,10.75071,10.75071,0,0,0,10.732-3.14184C66.06452,137.761,66.7378,134.54379,66.77441,131.11773Z" fill="#1b31e5"/><path d="M182.62417,147.87373h-5.15949a2.00659,2.00659,0,0,1-.12674-1.10291q-.008-11.39985-.00049-22.7997a9.78164,9.78164,0,0,0-.18585-2.04048,4.10142,4.10142,0,0,0-3.59714-3.60073,4.66416,4.66416,0,0,0-4.89435,2.48827,9.90511,9.90511,0,0,0-.872,4.665q-.01666,10.617-.006,21.234c0,.354,0,.708,0,1.13616h-5.18138a1.76,1.76,0,0,1-.12475-1.06469q-.00857-11.44876-.00189-22.89755a8.58535,8.58535,0,0,0-.18862-2.03927,4.38948,4.38948,0,0,0-3.71957-3.5327,4.57162,4.57162,0,0,0-4.7734,2.517,8.63088,8.63088,0,0,0-.86678,4.07088q-.007,10.91058-.00307,21.82118c0,.35328,0,.70656,0,1.12946h-5.27832v-33.6505h5.27489v3.44946a.69284.69284,0,0,0,.81943.07491,6.56747,6.56747,0,0,1,6.85253-4.513c2.87779.06362,4.61655,1.40095,6.02244,4.51362.52447.28779.79837.00916,1.05013-.44627,2.33185-4.2183,6.62337-4.55928,9.68232-3.714a6.94228,6.94228,0,0,1,4.35141,3.6733,9.48294,9.48294,0,0,1,.97411,4.57869q.03028,12.72078.00894,25.4417C182.68048,147.45337,182.64658,147.64115,182.62417,147.87373Z" fill="#1b31e5"/><path d="M219.93909,132.72566h-27.0485c-.185,4.04457,2.16023,9.13691,7.27378,10.54665a14.1586,14.1586,0,0,0,8.56749-.23532,9.10782,9.10782,0,0,0,5.72054-6.1825l5.04056,1.35934a12.28714,12.28714,0,0,1-1.70193,3.85443,13.83441,13.83441,0,0,1-9.71917,6.44209c-4.957.82123-9.72917.44356-13.92-2.63115-4.51547-3.31291-6.48545-7.98-6.69122-13.45775A21.28768,21.28768,0,0,1,188.6,123.37416a16.44263,16.44263,0,0,1,17.00054-10.10171,15.37362,15.37362,0,0,1,14.33832,15.80082C219.94062,130.239,219.93909,131.40476,219.93909,132.72566Zm-5.42888-5.04076c-.13758-5.52954-5.6322-9.92373-11.57206-9.34924a10.79745,10.79745,0,0,0-7.874,4.20025,13.65941,13.65941,0,0,0-2.33316,5.149Z" fill="#1b31e5"/><path d="M96.63315,142.951V147.872H75.07163v-4.89046h7.6687V119.11992H75.87622v-4.9101h12.205v4.30737c.553.29384.823.10592,1.06192-.34035,2.21649-4.13951,5.92927-5.26711,10.2525-4.87447,4.612.41886,7.6756,2.961,9.2362,7.30777a18.26723,18.26723,0,0,1,.94112,5.69287l-5.52976.82644c-.10465-.92557-.16013-1.79213-.30628-2.64312a6.92255,6.92255,0,0,0-6.02224-6.06415,7.4369,7.4369,0,0,0-8.0741,3.6563,12.80019,12.80019,0,0,0-1.51713,6.40143c-.04863,4.66323-.0145,9.32732-.01184,13.99106a4.82528,4.82528,0,0,0,.05737.48Z" fill="#1b31e5"/><path d="M125.46143,119.11014h-10.453v-4.87888h15.88448v28.74046H141.846v4.904H113.78693v-4.8682h11.6745Z" fill="#1b31e5"/><path d="M128.1421,108.92512a4.78849,4.78849,0,1,1,4.77006-4.78058A4.76148,4.76148,0,0,1,128.1421,108.92512Z" fill="#1b31e5"/></svg>