<svg id="Layer_1" data-name="Layer 1" xmlns="http://www.w3.org/2000/svg" viewBox="0 0 300 300"><defs><style>.cls-1{fill:#36a8e0;}</style></defs><path class="cls-1" d="M162.7,166.45a10.35,10.35,0,0,1,10.47,10.24v.16a10.43,10.43,0,1,1-10.67-10.4Z"/><path class="cls-1" d="M135.68,198.37a10.35,10.35,0,0,1-10.38-10.31v-.19a10.58,10.58,0,0,1,10.62-10.36A10.41,10.41,0,0,1,146.11,188,10.26,10.26,0,0,1,136,198.37Z"/><path class="cls-1" d="M162.26,133.54A10.32,10.32,0,0,1,152,123.23a10.62,10.62,0,0,1,10.5-10.51,10.38,10.38,0,0,1,10.32,10.44v.15a10.14,10.14,0,0,1-10,10.24Z"/><path class="cls-1" d="M184.31,150.2A10.37,10.37,0,0,1,174,160.63h-.18a10.56,10.56,0,0,1-10.36-10.33,10.41,10.41,0,1,1,20.81-.17Z"/><path class="cls-1" d="M136,122.11a10.32,10.32,0,0,1-10.38-10.28v-.2A10.43,10.43,0,1,1,136,122.11Z"/><path class="cls-1" d="M206.54,141.92a8,8,0,1,1-8,7.93A8.08,8.08,0,0,1,206.54,141.92Z"/><path class="cls-1" d="M108.77,92.72a8,8,0,1,1,7.9-8v0A8.06,8.06,0,0,1,108.77,92.72Z"/><path class="cls-1" d="M108.58,223.2a8,8,0,0,1-7.84-8.08,8.23,8.23,0,0,1,8.14-7.84,8.09,8.09,0,0,1,7.79,8.14,7.94,7.94,0,0,1-8.08,7.78Z"/><path class="cls-1" d="M193.65,200.23a7.89,7.89,0,1,1-7.84-8.11A8,8,0,0,1,193.65,200.23Z"/><path class="cls-1" d="M177.88,100.35a7.7,7.7,0,0,1,7.4-8h.43a8,8,0,0,1,7.94,7.94v0a7.89,7.89,0,1,1-15.77.1Z"/><path class="cls-1" d="M170.63,85.21a8,8,0,1,1,0-.14Z"/><path class="cls-1" d="M135.74,228.69a7.71,7.71,0,0,1-7.94-7.47v-.43a8,8,0,1,1,8.33,7.9Z"/><path class="cls-1" d="M78,100.25a7.67,7.67,0,0,1,7.45-7.9h.19a8,8,0,0,1,.35,15.9H85.8a7.78,7.78,0,0,1-7.86-7.71A2.71,2.71,0,0,1,78,100.25Z"/><path class="cls-1" d="M128.17,79.49a7.89,7.89,0,0,1,15.78-.1h0a8,8,0,0,1-7.86,8.1,7.89,7.89,0,0,1-7.92-7.86Z"/><path class="cls-1" d="M193.05,177.08a7.93,7.93,0,0,1,7.93-7.93h.07a8,8,0,0,1,7.77,8.18,7.89,7.89,0,0,1-15.77-.25Z"/><path class="cls-1" d="M201,131a7.64,7.64,0,0,1-7.91-7.37v-.5a7.89,7.89,0,0,1,15.77,0,7.63,7.63,0,0,1-7.34,7.91Z"/><path class="cls-1" d="M78,199.62A7.48,7.48,0,0,1,85.24,192h.5a7.75,7.75,0,0,1,8,7.53c0,.11,0,.21,0,.32a8,8,0,0,1-8,7.9,7.79,7.79,0,0,1-7.73-7.82A2.62,2.62,0,0,1,78,199.62Z"/><path class="cls-1" d="M170.63,215.23a7.89,7.89,0,1,1-8-7.95A8,8,0,0,1,170.63,215.23Z"/><path class="cls-1" d="M136,47a5.38,5.38,0,0,1,5.24,5.15,5.19,5.19,0,0,1-10.37.09A5.34,5.34,0,0,1,136,47Z"/><path class="cls-1" d="M233.55,155.38a5.28,5.28,0,0,1-5.17-5.18,5.15,5.15,0,0,1,5.13-5.16,5,5,0,0,1,5.13,5v.17A5.18,5.18,0,0,1,233.55,155.38Z"/><path class="cls-1" d="M66.4,213.92a5,5,0,0,1,5.26,4.75,1.41,1.41,0,0,1,0,.2,5.16,5.16,0,0,1-10.31.24,5,5,0,0,1,4.82-5.19Z"/><path class="cls-1" d="M66.44,86.08a5,5,0,1,1,5.23-5,5,5,0,0,1-5,5Z"/><path class="cls-1" d="M140.81,247.88a5.1,5.1,0,0,1-5.12,5.09h0a5.13,5.13,0,1,1,.05-10.25h.1a5,5,0,0,1,5,4.93Z"/><path class="cls-1" d="M205,86.08a4.92,4.92,0,0,1-5.11-4.71c0-.11,0-.22,0-.33a5,5,0,0,1,4.9-5H205a5.08,5.08,0,0,1,5.17,5v.1a5,5,0,0,1-5,5Z"/><path class="cls-1" d="M205,213.91a5.26,5.26,0,0,1,5.21,5.06,5.1,5.1,0,0,1-5.12,5.09h0a5.08,5.08,0,0,1-.14-10.15Z"/></svg>