<svg xmlns="http://www.w3.org/2000/svg" viewBox="0 0 300 300"><g id="logo"><path d="M263.119,83.82743s-31.7525,9.63762-50.59748,43.36929-4.1304,54.5558-4.1304,54.5558h.51631c3.7862,0,26.58949-1.29076,43.79952-32.09672,18.845-33.64561,10.41205-65.82837,10.41205-65.82837" fill="#fff"/><path d="M263.119,83.82743s-31.7525,9.63762-50.59748,43.36929-4.1304,54.5558-4.1304,54.5558h.51631c3.7862,0,26.58949-1.29076,43.79952-32.09672,18.845-33.64561,10.41205-65.82837,10.41205-65.82837" fill="#a0cb86"/><path d="M70.88292,149.39765h-.51631C49.11223,149.48371,35,154.30251,35,154.30251s16.77978,43.36929,65.82838,66.17258c16.34953,7.5724,30.37571,10.15391,41.73432,10.15391,21.85674,0,34.07587-9.37947,34.85032-9.98183-.08606,0-35.28057-6.19562-49.90909-58.16991l-.25816-.8605a135.25848,135.25848,0,0,0-56.36285-12.21911" fill="#fff"/><path d="M70.88292,149.39765h-.51631C49.11223,149.48371,35,154.30251,35,154.30251s16.77978,43.36929,65.82838,66.17258c16.34953,7.5724,30.37571,10.15391,41.73432,10.15391,21.85674,0,34.07587-9.37947,34.85032-9.98183-.08606,0-35.28057-6.19562-49.90909-58.16991l-.25816-.8605a135.25848,135.25848,0,0,0-56.36285-12.21911" fill="#828688"/><path d="M128.02023,161.961l-.77444-.3442.25815.86051C142.21852,214.45158,177.413,220.6472,177.413,220.6472l.08605-.08606c-.08605-.68841-.94655-36.055-49.47884-58.60016" fill="#fff"/><path d="M134.64609,69.371s-21.68464,40.61568-7.48636,92.15973l.25815.8605-.25815-.8605.77445.34419c48.53228,22.54514,49.47884,57.91175,49.47884,58.60017,1.54889-1.46287,26.2453-25.29874,12.047-75.63809-14.62853-51.9743-54.81395-75.466-54.81395-75.466" fill="#fff"/><path d="M134.64609,69.371s-21.68464,40.61568-7.48636,92.15973l.25815.8605-.25815-.8605.77445.34419c48.53228,22.54514,49.47884,57.91175,49.47884,58.60017,1.54889-1.46287,26.2453-25.29874,12.047-75.63809-14.62853-51.9743-54.81395-75.466-54.81395-75.466" fill="#247bc1"/><path d="M127.15973,161.53073l.25815.8605c14.71459,51.97429,49.90911,58.16991,49.90911,58.16991l.08605-.08605c0-.68839-.94655-35.969-49.47884-58.60017Z" fill="#537fae"/></g></svg>