<svg id="Layer_1" data-name="Layer 1" xmlns="http://www.w3.org/2000/svg" viewBox="0 0 300 300"><path d="M145.933,117.636c1.081-3.1758,2.10993-6.11344,3.08228-9.06965a290.65994,290.65994,0,0,1,17.15168-42.15555C171.78,55.4766,177.90844,44.83332,186.55058,35.967c4.51125-4.62829,9.52385-8.85227,16.06173-10.49042a13.96706,13.96706,0,0,1,13.85788,3.58606c7.077,6.76413,11.09326,15.09488,12.771,24.61917,2.18675,12.41386-.44932,23.92529-6.66528,34.75291a135.25213,135.25213,0,0,1-21.366,28.35244,120.6,120.6,0,0,1-28.27827,20.95437c-3.963,2.14024-7.95067,4.23494-12.05208,6.41688,1.43675,5.72867,2.95431,11.37514,4.25927,17.07018a194.566,194.566,0,0,1,4.653,32.18c.42469,7.26419.6112,14.51661.36139,21.75992-.50926,14.76522-2.78694,29.23748-8.968,42.81691-2.231,4.90133-4.87513,9.62258-8.88514,13.42151-5.50365,5.21394-11.7007,4.78785-16.56335-.97216-4.68141-5.54531-6.57957-12.172-7.89584-19.03867a162.39262,162.39262,0,0,1-2.24527-40.11689,260.28843,260.28843,0,0,1,4.8422-35.4134c1.42576-7.1987,3.00825-14.35083,4.84549-21.45138a2.37053,2.37053,0,0,0-.19947-1.98825c-12.53243.01293-21.008-6.74488-27.42477-17.68038a111.54694,111.54694,0,0,1,13.0645,2.39662c5.40037,8.79628,9.24137,11.27,16.22754,10.36279,2.35039-8.159,4.7212-16.389,7.08408-24.59139a20.31945,20.31945,0,0,0-11.59986-4.61741c-9.79679-.8036-19.01719,1.26789-26.83978,7.459-5.32255,4.21251-7.60463,9.97725-6.94267,16.85525.20511,2.13124.41846,4.26128.88961,6.94323-10.051-1.226-19.90183-2.29383-29.474,2.20685-.31332-3.721.51869-6.9491,1.05582-10.19218a63.52923,63.52923,0,0,1,4.84834-16.57289c4.2837-9.19973,11.6421-14.86438,21.15916-17.82612,13.365-4.15923,26.33343-2.54171,38.87881,3.22294C139.67084,112.07437,142.72681,114.74476,145.933,117.636Zm13.49922,22.402a5.01679,5.01679,0,0,0,3.07078-.88881,161.09727,161.09727,0,0,0,18.94652-11.27533c9.4112-6.55312,17.77243-14.16969,23.68672-24.16647,7.33-12.38971,6.90923-27.17129-1.99822-38.19648-4.4767-5.541-11.173-8.04388-17.90679-2.259-3.93931,3.38416-6.90562,7.45574-9.80251,11.63087-10.50588,15.14151-17.22685,32.02686-22.71813,49.47085a3.86125,3.86125,0,0,0-.089,2.20575C155.79137,130.42706,157.49622,135.24247,159.43218,140.038Zm-.51809,4.92789-14.06181,6.12126a14.86779,14.86779,0,0,0-.54334,1.75292c-1.19341,6.72707-2.40839,13.44405-3.16177,20.24807-.87084,7.86484-1.91423,15.71513-2.09805,23.6296a162.25248,162.25248,0,0,0,1.17212,21.96615c.68166,6.03492,1.97792,11.97051,4.91418,17.39312,2.32175,4.28773,5.6548,4.69032,8.91006,1.04667a29.34586,29.34586,0,0,0,3.88916-5.86328c6.78511-12.75169,9.327-26.35627,8.95888-40.73944a157.876,157.876,0,0,0-3.73054-29.90357C162.0377,155.4895,160.62787,150.42916,158.91409,144.96592Zm-1.39637-3.42563A36.22081,36.22081,0,0,0,150.91939,129.51c-2.21225,5.6378-4.20578,10.95224-4.9337,16.94506A50.99683,50.99683,0,0,0,157.51772,141.54029Z" fill="#8bc7c8"/></svg>