<svg id="Layer_1" data-name="Layer 1" xmlns="http://www.w3.org/2000/svg" xmlns:xlink="http://www.w3.org/1999/xlink" viewBox="0 0 300 300"><defs><linearGradient id="linear-gradient" x1="137.14843" y1="198.87146" x2="195.77672" y2="78.59278" gradientUnits="userSpaceOnUse"><stop offset="0.00038" stop-color="#51c3c7" stop-opacity="0.2"/><stop offset="1" stop-color="#51c3c7"/></linearGradient><linearGradient id="linear-gradient-2" x1="137.01453" y1="198.80619" x2="195.64283" y2="78.52752" xlink:href="#linear-gradient"/><linearGradient id="linear-gradient-3" x1="137.01282" y1="198.80536" x2="195.64112" y2="78.52668" xlink:href="#linear-gradient"/><linearGradient id="linear-gradient-4" x1="137.40008" y1="198.99413" x2="196.02838" y2="78.71545" xlink:href="#linear-gradient"/><linearGradient id="linear-gradient-5" x1="137.60774" y1="199.09534" x2="196.23604" y2="78.81667" xlink:href="#linear-gradient"/><linearGradient id="linear-gradient-6" x1="137.88908" y1="199.23248" x2="196.51738" y2="78.95381" xlink:href="#linear-gradient"/><linearGradient id="linear-gradient-7" x1="138.51201" y1="199.53612" x2="197.14031" y2="79.25744" xlink:href="#linear-gradient"/><linearGradient id="linear-gradient-8" x1="136.90885" y1="198.75468" x2="195.53715" y2="78.47601" xlink:href="#linear-gradient"/><linearGradient id="linear-gradient-9" x1="136.86849" y1="198.73501" x2="195.49679" y2="78.45633" xlink:href="#linear-gradient"/><linearGradient id="linear-gradient-10" x1="136.73191" y1="198.66843" x2="195.3602" y2="78.38976" xlink:href="#linear-gradient"/></defs><path d="M170.27434,145.85225c6.18031-13.5414,12.32108-26.99619,18.51326-40.56359l81.13208,14.41226a6.18851,6.18851,0,0,1-.39409,2.977q-3.20336,13.858-6.26558,27.74741c-1.60234,7.256-3.35268,14.47918-4.99344,21.72685-1.71518,7.57642-3.35573,15.1697-5.06979,22.74638-1.723,7.616-3.50122,15.21947-5.24463,22.83085-.55356,2.41679-1.07759,4.84038-1.60333,7.26344a2.05289,2.05289,0,0,1-.43026.99784c-.9066-.91057-1.82282-1.79292-2.69661-2.7154q-4.34307-4.58511-8.66067-9.19431-7.51824-8.00688-15.03244-16.01753c-2.92-3.10054-5.8744-6.16876-8.80377-9.26054q-7.35715-7.7651-14.70152-15.5423-4.68409-4.95754-9.35744-9.92523-7.24343-7.67721-14.48752-15.35378C171.55715,147.322,170.96914,146.631,170.27434,145.85225Z" fill="#277fc0"/><path d="M96.28311,88.39551l80.87259,14.31364c-6.64579,13.43377-13.21369,26.71-19.78009,39.98326L30,172.81441C30.45744,171.68392,92.96385,92.11467,96.28311,88.39551Z" fill="#0f436a"/><path d="M175.918,111.49039a4.55088,4.55088,0,0,1,6.37-2.81993,2.43663,2.43663,0,0,1,.82568,3.76685,4.87009,4.87009,0,0,1-5.98516,1.062A2.60254,2.60254,0,0,1,175.918,111.49039Z" fill="url(#linear-gradient)"/><path d="M169.39352,124.53575a4.55088,4.55088,0,0,1,6.37-2.81992,2.43663,2.43663,0,0,1,.82569,3.76685,4.87012,4.87012,0,0,1-5.98517,1.062A2.60256,2.60256,0,0,1,169.39352,124.53575Z" fill="url(#linear-gradient-2)"/><path d="M163.45063,136.72351a4.55087,4.55087,0,0,1,6.37-2.81992,2.43662,2.43662,0,0,1,.82569,3.76684,4.87012,4.87012,0,0,1-5.98516,1.062A2.60254,2.60254,0,0,1,163.45063,136.72351Z" fill="url(#linear-gradient-3)"/><path d="M157.21785,150.49362a4.55087,4.55087,0,0,1,6.37-2.81992,2.43661,2.43661,0,0,1,.82568,3.76684,4.87012,4.87012,0,0,1-5.98516,1.062A2.60252,2.60252,0,0,1,157.21785,150.49362Z" fill="url(#linear-gradient-4)"/><path d="M150.98506,163.8077a4.55088,4.55088,0,0,1,6.37-2.81993,2.43663,2.43663,0,0,1,.82569,3.76685,4.87011,4.87011,0,0,1-5.98517,1.062A2.60254,2.60254,0,0,1,150.98506,163.8077Z" fill="url(#linear-gradient-5)"/><path d="M145.473,175.04348a4.55088,4.55088,0,0,1,6.89535-.99135,2.43663,2.43663,0,0,1-.22423,3.84976,4.87012,4.87012,0,0,1-6.04928-.59688A2.60256,2.60256,0,0,1,145.473,175.04348Z" fill="url(#linear-gradient-6)"/><path d="M139.5696,188.73626a4.55088,4.55088,0,0,1,6.89535-.99134,2.43662,2.43662,0,0,1-.22423,3.84975,4.8701,4.8701,0,0,1-6.04928-.59688A2.60255,2.60255,0,0,1,139.5696,188.73626Z" fill="url(#linear-gradient-7)"/><path d="M189.04568,99.28353a4.19151,4.19151,0,0,1-4.1667,3.34914,3.09464,3.09464,0,0,1-3.45849-2.32919c.14827-2.459,3.07409-3.89536,5.729-3.22879A2.58786,2.58786,0,0,1,189.04568,99.28353Z" fill="url(#linear-gradient-8)"/><path d="M188.85257,91.168a4.99912,4.99912,0,0,1-1.59473-1.20644c-.53038-2.32548.8083-4.14057,3.31756-4.45158a5.42363,5.42363,0,0,1,1.2891-.01092,2.4015,2.4015,0,0,1,2.25448,1.48223,2.6778,2.6778,0,0,1-.55447,2.669,4.02518,4.02518,0,0,1-2.971,1.50974C190.02356,91.20641,189.44672,91.168,188.85257,91.168Z" fill="url(#linear-gradient-9)"/><path d="M192.60983,78.31427a3.08024,3.08024,0,0,1,1.83627-3.56781,4.09786,4.09786,0,0,1,3.68552-.48033,2.23481,2.23481,0,0,1,1.21356,3.2683,4.56936,4.56936,0,0,1-5.31319,2.03364A2.67976,2.67976,0,0,1,192.60983,78.31427Z" fill="url(#linear-gradient-10)"/></svg>