<svg id="Layer_1" data-name="Layer 1" xmlns="http://www.w3.org/2000/svg" xmlns:xlink="http://www.w3.org/1999/xlink" viewBox="0 0 300 300"><defs><clipPath id="clip-path"><path d="M25,171.42564v1.74276c0,4.16894,2.15282,6.01422,5.19409,6.01422,3.07546,0,4.98907-1.84527,4.98907-6.01422v-1.23018H30.22827v2.32367h2.2895c-.17086,1.64024-.78595,2.597-2.35785,2.597-1.60607,0-2.42619-1.09349-2.42619-3.69054v-1.91362c0-2.59705.85429-3.69054,2.42619-3.69054a2.26343,2.26343,0,0,1,2.35785,2.0503H35.149a4.65683,4.65683,0,0,0-4.98906-4.374C27.15282,165.2064,25,167.0175,25,171.42564" fill="none"/></clipPath><linearGradient id="linear-gradient" x1="6766.49613" y1="-7144.48917" x2="6766.83785" y2="-7144.48917" gradientTransform="matrix(-730.17078, 40.3924, 40.3924, 730.17078, 5229550.41522, 4943541.11924)" gradientUnits="userSpaceOnUse"><stop offset="0" stop-color="#947bb1"/><stop offset="0.07631" stop-color="#947bb1"/><stop offset="0.1325" stop-color="#977cac"/><stop offset="0.2424" stop-color="#997da9"/><stop offset="0.2783" stop-color="#9b7fa5"/><stop offset="0.3134" stop-color="#a2839a"/><stop offset="0.3482" stop-color="#ac8b8a"/><stop offset="0.3829" stop-color="#ba9775"/><stop offset="0.417" stop-color="#cda65b"/><stop offset="0.4481" stop-color="#e2b648"/><stop offset="0.5172" stop-color="#c29e69"/><stop offset="0.5808" stop-color="#a98a8d"/><stop offset="0.6293" stop-color="#9a7fa7"/><stop offset="0.657" stop-color="#947bb1"/><stop offset="0.7055" stop-color="#8a80b6"/><stop offset="0.7941" stop-color="#748bc1"/><stop offset="0.9122" stop-color="#5aa2d6"/><stop offset="0.9399" stop-color="#56a8db"/><stop offset="1" stop-color="#56a8db"/></linearGradient><clipPath id="clip-path-2"><polygon points="39.25 165.377 39.25 165.377 39.25 178.978 39.25 178.978 42.017 178.978 42.017 178.978 42.017 165.377 42.017 165.377 39.25 165.377" fill="none"/></clipPath><linearGradient id="linear-gradient-2" x1="6766.49613" y1="-7144.4907" x2="6766.83785" y2="-7144.4907" gradientTransform="matrix(-730.17078, 40.3924, 40.3924, 730.17078, 5229550.50897, 4943542.82237)" xlink:href="#linear-gradient"/><clipPath id="clip-path-3"><polygon points="54.148 165.377 51.176 174.535 48.203 165.377 45.195 165.377 45.195 165.377 49.911 178.978 52.44 178.978 57.156 165.377 57.156 165.377 54.148 165.377" fill="none"/></clipPath><linearGradient id="linear-gradient-3" x1="6766.49613" y1="-7144.49224" x2="6766.83785" y2="-7144.49224" gradientTransform="matrix(-730.17078, 40.3924, 40.3924, 730.17078, 5229550.60272, 4943544.52549)" xlink:href="#linear-gradient"/><clipPath id="clip-path-4"><polygon points="60.334 165.377 60.334 165.377 60.334 178.978 63.067 178.978 63.067 178.978 63.067 165.377 60.334 165.377" fill="none"/></clipPath><linearGradient id="linear-gradient-4" x1="6766.49613" y1="-7144.49376" x2="6766.83785" y2="-7144.49376" gradientTransform="matrix(-730.17078, 40.3924, 40.3924, 730.17078, 5229550.69647, 4943546.21299)" xlink:href="#linear-gradient"/><clipPath id="clip-path-5"><polygon points="75.13 165.377 75.13 173.92 69.799 165.377 67.544 165.377 67.544 165.377 67.544 178.978 70.141 178.978 70.141 170.571 75.437 178.978 77.761 178.978 77.761 178.978 77.761 165.377 77.761 165.377 75.13 165.377" fill="none"/></clipPath><linearGradient id="linear-gradient-5" x1="6766.49613" y1="-7144.49535" x2="6766.83785" y2="-7144.49535" gradientTransform="matrix(-730.17078, 40.3924, 40.3924, 730.17078, 5229550.79412, 4943547.97862)" xlink:href="#linear-gradient"/><clipPath id="clip-path-6"><path d="M81.62247,171.42564v1.74276c0,4.16894,2.15282,6.01422,5.1941,6.01422,3.07545,0,4.98906-1.84527,4.98906-6.01422v-1.23018H86.85074v2.32367h2.28951c-.17086,1.64024-.78595,2.597-2.35785,2.597-1.60607,0-2.42619-1.09349-2.42619-3.69054v-1.91362c0-2.59705.85429-3.69054,2.42619-3.69054a2.26342,2.26342,0,0,1,2.35785,2.0503h2.63122a4.65685,4.65685,0,0,0-4.98907-4.374c-3.04129-.03416-5.15993,1.77694-5.15993,6.18508" fill="none"/></clipPath><linearGradient id="linear-gradient-6" x1="6766.49613" y1="-7144.49741" x2="6766.83785" y2="-7144.49741" gradientTransform="matrix(-730.17078, 40.3924, 40.3924, 730.17078, 5229550.9201, 4943550.25987)" xlink:href="#linear-gradient"/><clipPath id="clip-path-7"><polygon points="102.16 165.377 102.16 165.377 102.16 178.978 102.16 178.978 110.6 178.978 110.6 178.978 110.6 176.654 104.893 176.654 104.893 165.377 102.16 165.377" fill="none"/></clipPath><linearGradient id="linear-gradient-7" x1="6766.49613" y1="-7144.50027" x2="6766.83785" y2="-7144.50027" gradientTransform="matrix(-730.17078, 40.3924, 40.3924, 730.17078, 5229551.09588, 4943553.43174)" xlink:href="#linear-gradient"/><clipPath id="clip-path-8"><polygon points="113.846 165.377 113.846 165.377 113.846 178.978 113.846 178.978 116.58 178.978 116.58 178.978 116.58 165.377 116.58 165.377 113.846 165.377" fill="none"/></clipPath><linearGradient id="linear-gradient-8" x1="6766.49613" y1="-7144.50155" x2="6766.83785" y2="-7144.50155" gradientTransform="matrix(-730.17078, 40.3924, 40.3924, 730.17078, 5229551.17498, 4943554.85362)" xlink:href="#linear-gradient"/><clipPath id="clip-path-9"><polygon points="121.057 165.377 121.057 165.377 121.057 178.978 121.057 178.978 123.79 178.978 123.79 173.408 128.916 173.408 128.916 171.084 123.79 171.084 123.79 167.735 129.497 167.735 129.497 165.377 129.497 165.377 121.057 165.377" fill="none"/></clipPath><linearGradient id="linear-gradient-9" x1="6766.49613" y1="-7144.50301" x2="6766.83785" y2="-7144.50301" gradientTransform="matrix(-730.17078, 40.3924, 40.3924, 730.17078, 5229551.26483, 4943556.47862)" xlink:href="#linear-gradient"/><clipPath id="clip-path-10"><polygon points="132.88 165.377 132.88 165.377 132.88 178.978 132.88 178.978 141.355 178.978 141.355 178.978 141.355 178.978 141.355 176.654 135.648 176.654 135.648 173.1 140.739 173.1 140.739 170.776 135.648 170.776 135.648 167.735 141.355 167.735 141.355 165.377 141.355 165.377 132.88 165.377" fill="none"/></clipPath><linearGradient id="linear-gradient-10" x1="6766.49613" y1="-7144.50473" x2="6766.83785" y2="-7144.50473" gradientTransform="matrix(-730.17078, 40.3924, 40.3924, 730.17078, 5229551.3703, 4943558.38487)" xlink:href="#linear-gradient"/><clipPath id="clip-path-11"><polygon points="150.137 165.377 150.137 165.377 150.137 167.735 153.896 167.735 153.896 178.978 156.629 178.978 156.629 167.735 160.388 167.735 160.388 165.377 160.388 165.377 150.137 165.377" fill="none"/></clipPath><linearGradient id="linear-gradient-11" x1="6766.49613" y1="-7144.50738" x2="6766.83785" y2="-7144.50738" gradientTransform="matrix(-730.17078, 40.3924, 40.3924, 730.17078, 5229551.5324, 4943561.32237)" xlink:href="#linear-gradient"/><clipPath id="clip-path-12"><path d="M165.65063,173.13422v-1.91361c0-2.597.85429-3.69054,2.42619-3.69054,1.60606,0,2.46036,1.09349,2.46036,3.69054v1.91361c0,2.597-.8543,3.69055-2.46037,3.69055-1.57189,0-2.42618-1.0935-2.42618-3.69055m-2.73373-1.91361v1.91362c0,4.16894,2.15281,6.01422,5.1941,6.01422,3.07545,0,5.22826-1.84527,5.22826-6.01422v-1.91362c0-4.20311-2.15281-6.01421-5.22826-6.01421-3.04129,0-5.1941,1.8111-5.1941,6.01421" fill="none"/></clipPath><linearGradient id="linear-gradient-12" x1="6766.49613" y1="-7144.50926" x2="6766.83785" y2="-7144.50926" gradientTransform="matrix(-730.17078, 40.3924, 40.3924, 730.17078, 5229551.64666, 4943563.40049)" xlink:href="#linear-gradient"/><clipPath id="clip-path-13"><path d="M183.38572,169.03362c0,2.25534,1.3327,3.51969,4.03225,4.23729,2.22116.58092,2.7679,1.09349,2.7679,2.0503,0,.82012-.54674,1.50355-2.11865,1.50355a3.31617,3.31617,0,0,1-2.93875-1.36687l-2.11865,1.46939c1.196,1.5719,2.87043,2.22116,5.22826,2.22116,3.178,0,4.68152-1.74276,4.68152-3.96392,0-2.392-1.26435-3.45134-4.1006-4.16894-1.81109-.44424-2.66538-.92264-2.66538-1.982,0-.92264.68343-1.50355,1.9136-1.50355a2.74631,2.74631,0,0,1,2.66539,1.36686l2.08446-1.46938a5.23768,5.23768,0,0,0-4.74987-2.22116c-3.28043,0-4.68148,1.67442-4.68148,3.82723" fill="none"/></clipPath><linearGradient id="linear-gradient-13" x1="6766.49613" y1="-7144.51215" x2="6766.83785" y2="-7144.51215" gradientTransform="matrix(-730.17078, 40.3924, 40.3924, 730.17078, 5229551.8244, 4943566.60362)" xlink:href="#linear-gradient"/><clipPath id="clip-path-14"><path d="M196.13177,171.22061v1.91362c0,4.16894,2.15281,6.01422,5.1941,6.01422,2.80208,0,4.51067-1.3327,4.95489-4.374H203.6837c-.30755,1.36687-.9568,2.0503-2.35785,2.0503-1.60607,0-2.42618-1.16183-2.42618-3.69054v-1.91362c0-2.597.85429-3.69054,2.42618-3.69054a2.28248,2.28248,0,0,1,2.35785,2.0503h2.63123a4.63774,4.63774,0,0,0-4.98906-4.374c-3.04129,0-5.1941,1.8111-5.1941,6.01421" fill="none"/></clipPath><linearGradient id="linear-gradient-14" x1="6766.49613" y1="-7144.51408" x2="6766.83785" y2="-7144.51408" gradientTransform="matrix(-730.17078, 40.3924, 40.3924, 730.17078, 5229551.94256, 4943568.74424)" xlink:href="#linear-gradient"/><clipPath id="clip-path-15"><polygon points="210.04 165.377 210.04 165.377 210.04 178.978 212.773 178.978 212.773 178.978 212.773 178.978 212.773 165.377 210.04 165.377" fill="none"/></clipPath><linearGradient id="linear-gradient-15" x1="6766.49613" y1="-7144.51555" x2="6766.83785" y2="-7144.51555" gradientTransform="matrix(-730.17078, 40.3924, 40.3924, 730.17078, 5229552.03338, 4943570.38487)" xlink:href="#linear-gradient"/><clipPath id="clip-path-16"><polygon points="217.25 165.377 217.216 165.377 217.216 178.978 217.216 178.978 225.69 178.978 225.69 178.978 225.69 176.654 219.984 176.654 219.984 173.1 225.109 173.1 225.109 170.776 219.984 170.776 219.984 167.735 225.69 167.735 225.69 165.377 225.69 165.377 217.25 165.377" fill="none"/></clipPath><linearGradient id="linear-gradient-16" x1="6766.49613" y1="-7144.51702" x2="6766.83785" y2="-7144.51702" gradientTransform="matrix(-730.17078, 40.3924, 40.3924, 730.17078, 5229552.12322, 4943572.00987)" xlink:href="#linear-gradient"/><clipPath id="clip-path-17"><polygon points="236.796 165.377 236.796 173.92 231.465 165.377 229.176 165.377 229.176 165.377 229.176 178.978 229.176 178.978 231.807 178.978 231.807 170.571 237.104 178.978 239.393 178.978 239.393 178.978 239.393 178.978 239.393 165.377 239.393 165.377 236.796 165.377" fill="none"/></clipPath><linearGradient id="linear-gradient-17" x1="6766.49613" y1="-7144.51888" x2="6766.83785" y2="-7144.51888" gradientTransform="matrix(-730.17078, 40.3924, 40.3924, 730.17078, 5229552.23748, 4943574.07237)" xlink:href="#linear-gradient"/><clipPath id="clip-path-18"><path d="M243.2545,171.22061v1.91362c0,4.16894,2.15281,6.01422,5.1941,6.01422,2.80208,0,4.51067-1.3327,4.9549-4.374h-2.63123c-.30755,1.36687-.9568,2.0503-2.35785,2.0503-1.60608,0-2.42618-1.16183-2.42618-3.69054v-1.91362c0-2.597.85429-3.69054,2.42618-3.69054a2.28248,2.28248,0,0,1,2.35785,2.0503h2.63123a4.63774,4.63774,0,0,0-4.98906-4.374c-3.00713,0-5.15994,1.8111-5.15994,6.01421" fill="none"/></clipPath><linearGradient id="linear-gradient-18" x1="6766.49613" y1="-7144.52092" x2="6766.83785" y2="-7144.52092" gradientTransform="matrix(-730.17078, 40.3924, 40.3924, 730.17078, 5229552.36346, 4943576.33799)" xlink:href="#linear-gradient"/><clipPath id="clip-path-19"><polygon points="256.957 165.377 256.957 165.377 256.957 178.978 256.957 178.978 265.398 178.978 265.398 178.978 265.398 176.654 259.691 176.654 259.691 173.1 264.817 173.1 264.817 170.776 259.691 170.776 259.691 167.735 265.398 167.735 265.398 165.377 265.398 165.377 256.957 165.377" fill="none"/></clipPath><linearGradient id="linear-gradient-19" x1="6766.49613" y1="-7144.52279" x2="6766.83785" y2="-7144.52279" gradientTransform="matrix(-730.17078, 40.3924, 40.3924, 730.17078, 5229552.47772, 4943578.41612)" xlink:href="#linear-gradient"/></defs><path d="M36.78923,138.07409H30.39912v11.07162H26.16184v-28.055H36.8234c5.46747,0,8.98715,3.6222,8.98715,8.50875-.03417,4.88655-3.51968,8.47458-9.02132,8.47458M36.55,124.88382h-6.1509V134.281H36.55c3.0071,0,4.95489-1.74276,4.95489-4.68152.03417-3.00711-1.94779-4.71569-4.95489-4.71569" fill="#1a375e"/><path d="M67.30454,149.38491c-5.70667,0-10.04648-3.89557-10.04648-9.70476V121.09076h4.27146V139.5093c0,3.75888,2.28951,6.08255,5.80919,6.08255s5.84336-2.32367,5.84336-6.08255V121.09076h4.27146v18.62356c-.06835,5.775-4.44232,9.67059-10.149,9.67059" fill="#1a375e"/><path d="M106.49945,149.14571l-5.91169-11.8234H95.257v11.8234H90.98551v-28.055h10.90077c5.33078,0,8.71378,3.41717,8.71378,8.2012a7.36489,7.36489,0,0,1-5.60416,7.44943l6.45845,12.43849h-4.9549Zm-4.92072-24.26189H95.257v8.81629h6.32176c2.83625,0,4.784-1.60607,4.784-4.374-.03417-2.7679-1.94779-4.44231-4.784-4.44231" fill="#1a375e"/><polygon points="123.551 149.146 123.551 121.091 141.491 121.091 141.491 124.884 127.788 124.884 127.788 133.119 139.475 133.119 139.475 136.878 127.788 136.878 127.788 145.318 141.491 145.318 141.491 149.146 123.551 149.146" fill="#1a375e"/><polygon points="163.532 124.884 163.532 149.146 159.261 149.146 159.261 124.884 151.538 124.884 151.538 121.091 171.255 121.091 171.255 124.884 163.532 124.884" fill="#1a375e"/><polygon points="182.805 149.146 182.805 121.091 200.745 121.091 200.745 124.884 187.076 124.884 187.076 133.119 198.729 133.119 198.729 136.878 187.076 136.878 187.076 145.318 200.745 145.318 200.745 149.146 182.805 149.146" fill="#1a375e"/><path d="M222.37562,149.38491a9.77641,9.77641,0,0,1-7.2444-2.83625c-2.73374-2.76791-2.83625-5.57-2.83625-11.44751s.10251-8.67961,2.83625-11.44752a9.77641,9.77641,0,0,1,7.2444-2.83625c5.15991,0,9.02133,3.07545,10.01229,8.64544h-4.3398c-.61509-2.87042-2.56288-4.85238-5.67249-4.85238a5.3841,5.3841,0,0,0-4.13477,1.74276c-1.43521,1.50355-1.70858,3.178-1.70858,8.74795s.27337,7.24439,1.70858,8.74794a5.55921,5.55921,0,0,0,4.13477,1.74276c3.10961,0,5.09158-1.982,5.74083-4.85238h4.27146c-.991,5.57-4.88654,8.64544-10.01229,8.64544" fill="#1a375e"/><polygon points="260.443 149.146 260.443 136.878 249.03 136.878 249.03 149.146 244.792 149.146 244.792 121.091 249.03 121.091 249.03 133.051 260.443 133.051 260.443 121.091 264.68 121.091 264.68 149.146 260.443 149.146" fill="#1a375e"/><g clip-path="url(#clip-path)"><polygon points="35.183 164.66 24.248 165.241 25.034 179.695 35.969 179.114 35.183 164.66" fill="url(#linear-gradient)"/></g><g clip-path="url(#clip-path-2)"><polygon points="42.017 165.241 38.498 165.411 39.25 179.114 42.769 178.943 42.017 165.241" fill="url(#linear-gradient-2)"/></g><g clip-path="url(#clip-path-3)"><polygon points="57.121 164.728 44.444 165.411 45.23 179.627 57.907 178.943 57.121 164.728" fill="url(#linear-gradient-3)"/></g><g clip-path="url(#clip-path-4)"><polygon points="63.067 165.241 59.582 165.411 60.334 179.114 63.819 178.943 63.067 165.241" fill="url(#linear-gradient-4)"/></g><g clip-path="url(#clip-path-5)"><polygon points="77.727 164.831 66.792 165.411 67.544 179.524 78.479 178.943 77.727 164.831" fill="url(#linear-gradient-5)"/></g><g clip-path="url(#clip-path-6)"><polygon points="91.771 164.66 80.837 165.241 81.622 179.695 92.557 179.114 91.771 164.66" fill="url(#linear-gradient-6)"/></g><g clip-path="url(#clip-path-7)"><polygon points="110.6 164.933 101.408 165.411 102.16 179.422 111.352 178.943 110.6 164.933" fill="url(#linear-gradient-7)"/></g><g clip-path="url(#clip-path-8)"><polygon points="116.58 165.241 113.095 165.411 113.846 179.114 117.332 178.943 116.58 165.241" fill="url(#linear-gradient-8)"/></g><g clip-path="url(#clip-path-9)"><polygon points="129.497 164.933 120.305 165.411 121.057 179.422 130.249 178.943 129.497 164.933" fill="url(#linear-gradient-9)"/></g><g clip-path="url(#clip-path-10)"><polygon points="141.32 164.933 132.128 165.411 132.914 179.422 142.106 178.943 141.32 164.933" fill="url(#linear-gradient-10)"/></g><g clip-path="url(#clip-path-11)"><polygon points="160.354 164.831 149.385 165.411 150.171 179.524 161.14 178.943 160.354 164.831" fill="url(#linear-gradient-11)"/></g><g clip-path="url(#clip-path-12)"><polygon points="173.305 164.625 162.131 165.241 162.951 179.729 174.091 179.114 173.305 164.625" fill="url(#linear-gradient-12)"/></g><g clip-path="url(#clip-path-13)"><polygon points="192.92 164.66 182.258 165.241 183.044 179.695 193.706 179.114 192.92 164.66" fill="url(#linear-gradient-13)"/></g><g clip-path="url(#clip-path-14)"><polygon points="206.281 164.66 195.38 165.241 196.166 179.695 207.101 179.114 206.281 164.66" fill="url(#linear-gradient-14)"/></g><g clip-path="url(#clip-path-15)"><polygon points="212.773 165.241 209.288 165.411 210.04 179.114 213.525 178.943 212.773 165.241" fill="url(#linear-gradient-15)"/></g><g clip-path="url(#clip-path-16)"><polygon points="225.656 164.933 216.498 165.411 217.25 179.422 226.442 178.943 225.656 164.933" fill="url(#linear-gradient-16)"/></g><g clip-path="url(#clip-path-17)"><polygon points="239.359 164.831 228.424 165.411 229.21 179.524 240.145 178.943 239.359 164.831" fill="url(#linear-gradient-17)"/></g><g clip-path="url(#clip-path-18)"><polygon points="253.403 164.66 242.503 165.241 243.289 179.695 254.224 179.114 253.403 164.66" fill="url(#linear-gradient-18)"/></g><g clip-path="url(#clip-path-19)"><polygon points="265.398 164.933 256.206 165.411 256.957 179.422 266.15 178.943 265.398 164.933" fill="url(#linear-gradient-19)"/></g><path d="M271.1386,172.58748A3.8614,3.8614,0,1,1,275,168.72608a3.85736,3.85736,0,0,1-3.8614,3.8614m0-6.86851a3.0079,3.0079,0,1,0,2.93876,3.00711,2.91223,2.91223,0,0,0-2.93876-3.00711m.68344,5.05741-.75178-1.60607h-.41007v1.60607h-.92264v-4.13477H271.412a1.31432,1.31432,0,0,1,1.36687,1.29852,1.18,1.18,0,0,1-.75178,1.09349l.85429,1.74276Zm-.54676-3.383h-.61509v1.05932h.64927a.54852.54852,0,0,0,.58093-.54675.63016.63016,0,0,0-.61511-.51257" fill="#947bb0"/></svg>