<svg id="Layer_1" data-name="Layer 1" xmlns="http://www.w3.org/2000/svg" viewBox="0 0 300 300"><path d="M121.64688,129.05737a8.78612,8.78612,0,0,1,.523-.79687c.249-.39843.47315-.69725.67237-.97118l.523-.57274L145.777,104.0557,113.40435,52.38393a5.603,5.603,0,0,0-4.45745-2.49021H76.57422a4.98041,4.98041,0,0,0-4.7563,7.79435l47.98627,75.40344,1.56885-3.46139Z" fill="#0f3258"/><path d="M179.24532,165.93731a9.9571,9.9571,0,0,1-.59766.94628l-.62255.84667-.42333.49805-21.54027,21.8391L189.505,242.61075a5.6029,5.6029,0,0,0,4.73137,2.49021h30.13151a4.98042,4.98042,0,0,0,4.73138-7.79434L181.43671,161.181l-1.89254,4.20844A5.95471,5.95471,0,0,1,179.24532,165.93731Z" fill="#0f3258"/><polygon points="181.536 100.843 158.676 137.151 170.48 161.256 227.68 35.127 130.412 133.739 155.14 133.739 181.536 100.843" fill="#d50068"/><polygon points="153.795 138.744 127.225 138.744 70 264.873 167.267 166.286 153.795 138.744" fill="#0f3258"/></svg>