<svg id="Layer_1" data-name="Layer 1" xmlns="http://www.w3.org/2000/svg" xmlns:xlink="http://www.w3.org/1999/xlink" viewBox="0 0 300 300"><defs><linearGradient id="linear-gradient" x1="-3.90744" y1="241.04192" x2="178.94394" y2="104.99408" gradientUnits="userSpaceOnUse"><stop offset="0.23004"/><stop offset="0.99901" stop-color="#1a7234"/></linearGradient></defs><path d="M274.9998,245.17939A31.54228,31.54228,0,1,1,243.48916,213.924,31.326,31.326,0,0,1,274.9998,245.17939Z"/><path d="M248.00592,103.61645a82.776,82.776,0,0,1-33.67549-14.773c-13.79806-9.98106-25.03778-22.41262-32.23836-38.03141-3.16116-6.85713-6.35425-13.80422-7.052-21.5153a34.43845,34.43845,0,0,0-4.71579-1.95055c-13.97478-3.60894-28.03014-5.3696-42.557-3.75517Q80.9856,28.7903,50.92285,64.71877C44.41768,72.5037,38.76558,80.90785,35.30962,90.5853a92.86129,92.86129,0,0,0-9.504,37.02215c-1.50365,9.58339-.7338,19.16238.92224,28.57843,5.02027,28.543,18.82976,52.09147,41.52869,70.16018,18.34506,14.60308,39.264,22.86275,62.79315,24.15511a106.84354,106.84354,0,0,0,51.03-8.06714c.43342-.17905.47123-.53863.08615-1.05587-18.37172-5.6981-29.4066-18.217-33.24411-36.83371a2.6995,2.6995,0,0,0-2.43732-.44749c-8.49206,1.48343-16.844.38976-25.01961-1.81077a67.88185,67.88185,0,0,1-49.81474-60.82266,156.22931,156.22931,0,0,1-.06008-16.58029c.3502-1.42512,2.05283-4.87961,2.808-7.38931,8.66906-28.8205,35.43966-47.31472,62.88017-48.04647,37.36326-.99638,69.23648,29.63254,69.10168,66.66436a78.09765,78.09765,0,0,1-1.56519,16.23537c18.95167,5.46806,30.46832,17.875,34.819,37.09248C252.41342,168.40674,257.49729,133.86176,248.00592,103.61645Z" fill="url(#linear-gradient)"/><path d="M248.0058,103.61654a82.77525,82.77525,0,0,1-33.67539-14.77311c-13.79826-9.981-25.03778-22.41276-32.23839-38.03156-3.1613-6.85715-6.35434-13.80414-7.052-21.51527a35.12769,35.12769,0,0,1,9.77206,2.94763,115.4342,115.4342,0,0,1,41.03279,30.6125A106.41007,106.41007,0,0,1,248.0058,103.61654Z" fill="#a3f444"/><path d="M196.39568,222.28927c-10.84541.53242-23.44-8.73174-23.41984-23.98485.01732-13.077,10.99012-23.37783,24.2488-23.2397a23.62732,23.62732,0,0,1,23.3977,24.0687C220.38534,212.34222,209.10846,223.04691,196.39568,222.28927Z"/><path d="M161.20885,179.085c-10.04691-.33293-15.94241-7.91512-15.93712-16.24592.00549-8.64318,7.32684-15.57751,15.98227-15.61061a15.87481,15.87481,0,0,1,15.89549,16.213A16.0358,16.0358,0,0,1,161.20885,179.085Z"/></svg>