<svg xmlns="http://www.w3.org/2000/svg" xmlns:xlink="http://www.w3.org/1999/xlink" viewBox="0 0 300 300">
  <defs>
    <linearGradient id="a" x1="83.4442" y1="185.1193" x2="196.9999" y2="185.1193" gradientUnits="userSpaceOnUse">
      <stop offset="0" stop-color="#1cb67e"/>
      <stop offset="0.3201" stop-color="#46ba89"/>
      <stop offset="1" stop-color="#23b782"/>
    </linearGradient>
    <linearGradient id="b" x1="130.6646" y1="128.637" x2="268.2022" y2="182.3199" gradientUnits="userSpaceOnUse">
      <stop offset="0" stop-color="#11baed"/>
      <stop offset="0.3201" stop-color="#26a5dd"/>
      <stop offset="1" stop-color="#2c88c8"/>
    </linearGradient>
    <linearGradient id="c" x1="161.2113" y1="180.3318" x2="216.5558" y2="180.3318" xlink:href="#a"/>
    <linearGradient id="d" x1="163.9495" y1="84.1041" x2="148.7202" y2="95.5095" xlink:href="#b"/>
    <linearGradient id="e" x1="179.5738" y1="71.7183" x2="193.0073" y2="71.7183" xlink:href="#b"/>
    <linearGradient id="f" x1="179.569" y1="87.4318" x2="189.7038" y2="87.4318" xlink:href="#b"/>
  </defs>
  <g>
    <path d="M149.5915,234.6708a37.0069,37.0069,0,0,1-9.46.0509,63.1531,63.1531,0,0,1-30.15-11.6426c-4.9595-3.5865-8.5218-8.3476-11.9272-13.2823A88.679,88.679,0,0,1,86.508,187.805c-3.28-9.7522-4.2692-19.65-1.2656-29.6234,3.6191-12.017,11.4642-19.7969,23.89-22.4421,7.4009-1.5756,13.97.6663,19.7559,5.3165,5.9364,4.771,9.7869,11.0453,12.6462,18.0012,2.8443,6.9195,4.6291,14.1694,6.6943,21.3329,2.1583,7.4861,4.6336,14.8411,8.97,21.42,4.0629,6.1639,9.0449,11.2929,16.0252,14.1158,7.3654,2.9787,14.6774,2.379,21.9164-.5332A4.3049,4.3049,0,0,1,197,214.96c-.6884.5825-1.3377,1.2205-2.0715,1.7386a122.7685,122.7685,0,0,1-17.4121,10.7693,73.8988,73.8988,0,0,1-22.4038,6.9912,7.4911,7.4911,0,0,1-3.6567-.5779,57.6294,57.6294,0,0,1-22.6894-15.4824,5.876,5.876,0,0,1-.4327-.7445c11.2855,4.52,22.3318,4.9871,33.3752.4028l-.0351-.3379c-1.4334.3108-2.8657.6268-4.3.9316a51.5414,51.5414,0,0,1-29.9994-2.4131c-1.3577-.5277-1.9621-1.7905-2.7669-2.8266a98.54,98.54,0,0,1-11.5607-19.8751,1.1557,1.1557,0,0,1-.1639-1.0208c11.8385,8.6766,24.9887,12.6652,40.0019,11.3574a2.1,2.1,0,0,0-1.6512-.469,71.0577,71.0577,0,0,1-38.0659-11.5759,4.0151,4.0151,0,0,1-1.6941-1.83,122.7319,122.7319,0,0,1-6.4765-19.9869c-.0473-.2084-.0433-.4284-.097-1.0069,9.9623,8.2512,21.0244,13.387,33.6494,14.9084a14.6646,14.6646,0,0,0-4.0275-1.4185,97.0166,97.0166,0,0,1-29.1345-13.8891,2.3177,2.3177,0,0,1-.9886-1.6543,80.1182,80.1182,0,0,1-1.2784-12.1036,8.9879,8.9879,0,0,0-.4315-3.01,27.692,27.692,0,0,0-.8344,6.075,57.2277,57.2277,0,0,0,.584,10.6836,6.8163,6.8163,0,0,1-.2211,2.6335c-2.0236,8.2018-4.4612,16.28-7.2031,24.2688a9.8289,9.8289,0,0,0-.5174,2.0755,23.619,23.619,0,0,0,2.9032-5.66c.82-2.0271,1.57-4.0872,2.2495-6.1658.6658-2.0358,1.2562-4.1,1.7855-6.1757.5371-2.106.9589-4.2414,1.4941-6.6465a16.5913,16.5913,0,0,1,1.1721,4.0807,109.8085,109.8085,0,0,0,5.75,16.846,2.745,2.745,0,0,1,.005,2.3977,43.7621,43.7621,0,0,0-3.72,19.3017,1.67,1.67,0,0,0,.4061,1.2927,134.7873,134.7873,0,0,1,4.2344-20.7156c.9457,1.8848,1.7433,3.4565,2.5251,5.036A76.6579,76.6579,0,0,0,125.8209,219.45a2.3516,2.3516,0,0,1,.67,1.6842,30.7466,30.7466,0,0,1-.6228,5.5812,2.309,2.309,0,0,0-.0193,1.538,2.6615,2.6615,0,0,0,1.2147-1.7869,10.9892,10.9892,0,0,0,.74-3.39c.0123-.3373-.1132-.7933.3027-.9486.4029-.15.622.2618.8728.4925a55.7845,55.7845,0,0,0,10.8863,7.9757,45.9886,45.9886,0,0,0,9.1195,3.8353C149.1928,234.493,149.39,234.59,149.5915,234.6708ZM136.1851,158.905a13.8546,13.8546,0,0,0-1.9261-2.9416c-4.65-5.8954-10.2014-10.3467-18.0017-11.17a14.9206,14.9206,0,0,0-8.5743,1.6512c.1865.1136.2266.1591.261.1551a3.4392,3.4392,0,0,0,.3929-.0723,21.2911,21.2911,0,0,1,15.88,2.2954c4.178,2.3615,7.538,5.6669,10.7734,9.13C135.3076,158.2918,135.4948,158.788,136.1851,158.905ZM98.3,151.9336c-6.8329,2.6259-10.5971,15.0837-9.8518,22.529C90.3748,166.37,91.6676,157.9979,98.3,151.9336Zm77.163,70.7a86.7986,86.7986,0,0,1-15.9643,6.9191C164.4461,230.1468,173.5493,225.9105,175.4629,222.6333Z" fill="url(#a)"/>
    <path d="M168.1141,199.6466a37.3882,37.3882,0,0,1-8.35-1.1607,2.61,2.61,0,0,1-1.6531-1.4455c-3.0254-5.3587-5.0244-11.14-7.0273-16.9236-2.4683-7.1277-4.6778-14.3475-7.6957-21.2791-3.6847-8.4632-8.5785-16.0517-15.7258-22.0319a1.9427,1.9427,0,0,1-.595-2.0456,205.2809,205.2809,0,0,1,5.6638-25.2057,170.9163,170.9163,0,0,1,13.0414-32.2273c.1959-.3714.2654-1.01.7753-.976.5128.0342.4777.6815.638,1.0722a89.3366,89.3366,0,0,0,13.1061,21.5622c5.1109,6.4352,10.7187,12.4389,16.1659,18.5819,6.6188,7.4642,12.9706,15.14,17.5046,24.1a53.1659,53.1659,0,0,1,6.04,21.7716c.4276,9.4509-2.2187,17.8233-8.4343,24.9665A31.1913,31.1913,0,0,1,170.9,199.379,18.1676,18.1676,0,0,1,168.1141,199.6466ZM160.72,172.32l.2862.4414c5.7345-.69,11.256-1.8961,15.3284-6.7441a4.09,4.09,0,0,1-.1118,1.4,22.8086,22.8086,0,0,1-3.4205,6.9306c-1.8612,2.7735-4.357,4.9472-6.7141,7.2527-.6776.6627-.7458,1.083.1872,1.594a17.3621,17.3621,0,0,0,10.3618,2.4992c7.6452-.8056,13.1772-4.6864,16.24-11.6579,3.925-8.9345,2.483-17.6584-1.94-26.0256-3.49-6.6031-8.5619-11.9568-13.9812-16.99-4.9376-4.586-10.1439-8.8855-14.7756-13.7969a57.4959,57.4959,0,0,1-8.5538-11.4519c-1.03-1.85-1.8069-3.8226-2.815-5.7874a2.51,2.51,0,0,0-.2123,1.4289,39.1024,39.1024,0,0,0,.5745,7.7338c.9634,5.9807,2.3731,11.8348,5.63,17.0542,2.2691,3.6357,4.7178,7.1614,6.9265,10.8323,3.6136,6.0061,6.3383,12.3155,5.9291,19.5629-.2637,4.6712-1.7157,8.8262-5.1568,12.1387C163.2518,169.94,161.9819,171.1254,160.72,172.32Z" fill="url(#b)"/>
    <path d="M196.12,201.93a26.7486,26.7486,0,0,0,2.9332-16.5629c-.6483.9264-.5058,2.0241-.6251,3.039a48.97,48.97,0,0,1-4.316,14.8607,7.1645,7.1645,0,0,1-2.322,2.6983,40.9886,40.9886,0,0,1-9.9345,5.7635,5.509,5.509,0,0,1-.7636.23c-.0644.015-.1507-.0642-.3-.1344,3.0023-3.7789,4.6083-7.9785,4.0043-12.8331a2.3025,2.3025,0,0,0-.67,1.5442,36.1324,36.1324,0,0,1-4.4679,11.4245c-.73,1.2523-4.0364,2.1592-5.5789,1.5009a27.3481,27.3481,0,0,1-10.0681-7.3818,14.9325,14.9325,0,0,1-2.8-3.7075,18.0469,18.0469,0,0,0,8.6484.1c7.8956-2.2528,15.6043-4.9556,21.4028-11.2446a33.9458,33.9458,0,0,0,7.012-11.0043,16.1745,16.1745,0,0,1,2.0812-3.724,50.2384,50.2384,0,0,0,8.9156-19.1732,27.41,27.41,0,0,0,.3825-11.297,5.5867,5.5867,0,0,1-.0422-.7546c.63.2558.7076.7674.9091,1.1765a61.0232,61.0232,0,0,1,5.2075,18.0777c1.1589,7.6689,1.2741,15.3078-.7835,22.8537-2.8154,10.3253-7.9832,18.9954-17.6471,24.3516a27.3189,27.3189,0,0,1-17.1691,3.4206,6.0982,6.0982,0,0,1-.785-.1694,4.28,4.28,0,0,1-.4706-.1851c.1143-.3862.4158-.3853.665-.4336a35.34,35.34,0,0,0,14.1873-6.3623,7.1735,7.1735,0,0,1,1.7759-.91,32.4463,32.4463,0,0,0,13.3862-9.0782,2.09,2.09,0,0,0,.7728-1.4215c-3.4806,2.5526-6.6742,5.2877-10.4693,7.1174a21.39,21.39,0,0,1,2.7539-3.4267,41.2518,41.2518,0,0,0,5.28-8.3655,4.83,4.83,0,0,1,1.7161-1.9726,12.8421,12.8421,0,0,0,5.2546-7.0544,3.78,3.78,0,0,0,.1521-2.1565c-1.6449,2.6356-2.8867,5.19-5.081,7.0674,3.1544-9.6724,4.3524-19.4065,1.7005-29.3654-.3775,7.133-.5284,14.2847-2.6952,21.2288-.4568-3.0619-.7922-6.1335-2.61-8.8165,1.1981,7.4207,2.2476,14.7622-2.1751,21.6318A48.2338,48.2338,0,0,1,196.12,201.93Z" fill="url(#c)"/>
    <path d="M170.02,88.9279a9.4023,9.4023,0,1,1,9.5279-9.3222A9.3936,9.3936,0,0,1,170.02,88.9279Z" fill="url(#d)"/>
    <path d="M192.9822,71.71a6.6135,6.6135,0,0,1-6.6447,6.726,6.9366,6.9366,0,0,1-6.7633-6.7686,6.75,6.75,0,0,1,6.796-6.6673C190.0655,64.9516,193.3273,68.1855,192.9822,71.71Z" fill="url(#e)"/>
    <path d="M184.4989,92.3945a4.9631,4.9631,0,0,1-4.93-4.9468,5.0677,5.0677,0,0,1,10.1346.11A5.0692,5.0692,0,0,1,184.4989,92.3945Z" fill="url(#f)"/>
  </g>
</svg>
