<svg id="Layer_1" data-name="Layer 1" xmlns="http://www.w3.org/2000/svg" viewBox="0 0 300 300"><defs><style>.cls-1{fill:#56be91;}.cls-1,.cls-2{fill-rule:evenodd;}.cls-2{fill:#463966;}</style></defs><path id="Path" class="cls-1" d="M205.07,219.93c-8.39,19.6-29.11,32.94-53.51,32.94s-45.11-13.34-53.51-32.94H114C121.24,232,135.14,240,151.56,240s30.33-8,37.61-20.06Z"/><path id="Shape" class="cls-2" d="M183.29,201.27c0-19.92-9-31.44-21.51-38s-29.3-3.83-45.07-12.69v50.66H94V102.88c0-.79,0-1.63.05-2.43,1.17-30.27,24.77-53.32,54.16-53.32,30.19,0,54.4,24.31,54.4,55.75,0,18.33-8.21,34.24-21,44.32,15.21,12.88,23.33,32.1,24.45,54.12Zm-3.36-98.39c0-18.33-14.14-33.12-31.63-33.12s-31.63,14.79-31.63,33.12S130.8,136,148.3,136,179.93,121.17,179.93,102.88Z"/></svg>