<svg id="Layer_1" data-name="Layer 1" xmlns="http://www.w3.org/2000/svg" viewBox="0 0 300 300"><defs><style>.cls-1{fill:#7a246d;fill-rule:evenodd;}</style></defs><g id="Clip-Path:_Mask" data-name="Clip-Path: Mask"><g id="Mask"><path id="Path_9" data-name="Path 9" class="cls-1" d="M290.51,131.48a13.17,13.17,0,0,1-12.95,12.94,12.84,12.84,0,0,1-6.48-2.23C248.42,175,224.19,218.06,218.83,239,199,226.2,170.38,223,149.39,223c-16.08,0-48.46,3.68-68.89,16.62-4.8-20.41-29.59-64-52.25-97.4-2.12,1.12-3.69,2.23-5.92,2.23A12.78,12.78,0,0,1,9.49,131.48c0-7.59,5.36-12.39,12.84-12.39a12.14,12.14,0,0,1,12.39,12.39,9.64,9.64,0,0,1-2.12,5.91C49.24,148.66,74,159.93,96.13,150.78,122.48,139.51,136,110,142.91,89c-4.24-3.24-8.6-7.59-8.6-14.06,0-8,7-14.5,15.08-14.5s15.07,6.47,15.07,14.5c0,6.47-3.24,10.82-8.6,14.06,7,21,21,50.54,47.34,61.81,21.55,9.15,46.89-2.12,63.08-13.39a9.49,9.49,0,0,1-1.67-5.91c0-7.59,5.91-12.39,12.95-12.39S290.51,123.89,290.51,131.48Z"/></g></g></svg>