<svg id="Layer_1" data-name="Layer 1" xmlns="http://www.w3.org/2000/svg" viewBox="0 0 300 300"><title>RAPT_Mark_Light</title><path d="M145.82891,101.16181a44.72769,44.72769,0,0,1-44.73711,44.73627,44.02058,44.02058,0,0,1-18.77031-4.13629,44.74938,44.74938,0,1,1,63.50742-40.6Z" fill="#0497a9"/><path d="M243.67926,101.16181A44.76911,44.76911,0,1,1,198.9082,56.3899,44.69668,44.69668,0,0,1,243.67926,101.16181Z" fill="#f99e27"/><path d="M145.82891,198.87341a44.72277,44.72277,0,1,1-44.73711-44.77149A44.4446,44.4446,0,0,1,145.82891,198.87341Z" fill="#f99e27"/><path d="M243.67926,198.87341a44.748,44.748,0,0,1-83.07715,23.081,44.12641,44.12641,0,0,1-6.431-23.081,44.75409,44.75409,0,1,1,89.50817,0Z" fill="#0497aa"/><path d="M139.22307,77.7333a44.7611,44.7611,0,0,1-38.13127,68.16478,44.02058,44.02058,0,0,1-18.77031-4.13629v-31.18Z" fill="#e75727"/><path d="M145.82891,198.87341A44.4446,44.4446,0,0,1,139.46748,221.85l-57.146-32.98764V158.23821a44.02058,44.02058,0,0,1,18.77031-4.13629A44.75775,44.75775,0,0,1,145.82891,198.87341Z" fill="#e75727"/><path d="M217.92122,110.58176v31.07565a44.76953,44.76953,0,0,1-57.0764-64.06329Z" fill="#e75727"/><path d="M198.9082,154.10192a44.66527,44.66527,0,0,1,19.013,4.24067v30.51979l-57.31911,33.092a44.12641,44.12641,0,0,1-6.431-23.081A44.75667,44.75667,0,0,1,198.9082,154.10192Z" fill="#e75727"/></svg>