<svg id="Layer_1" data-name="Layer 1" xmlns="http://www.w3.org/2000/svg" viewBox="0 0 300 300"><path d="M150,184.375V150l31.25,17.1875Z" fill="#802c84"/><path d="M118.75,167.1875,150,150v34.375Z" fill="#365098"/><path d="M181.25,167.1875,150,150l31.25-17.1875Z" fill="#d13835"/><path d="M118.75,132.8125,150,150l-31.25,17.1875Z" fill="#56a9de"/><path d="M150,150V115.625l31.25,17.1875Z" fill="#e8be44"/><path d="M118.75,132.8125,150,115.625V150Z" fill="#acd14b"/><path d="M150,206.25V262.5l-25-42.1875Z" fill="#4953a3"/><path d="M150,206.25V262.5l25-42.1875Z" fill="#4a3391"/><path d="M150,262.5l-50-28.125,25-14.0625Z" fill="#33519e"/><path d="M150,262.5l50-28.125-25-14.0625Z" fill="#802d85"/><path d="M125,220.4375,100,178.125l50,28.125Z" fill="#4663ac"/><path d="M175,220.4375l25-42.3125L150,206.25Z" fill="#9e3790"/><path d="M100,234.375v-56.25l25,42.1875Z" fill="#3662ab"/><path d="M200,234.375v-56.25l-25,42.1875Z" fill="#c02e7f"/><path d="M100,234.375,50,206.25l24.75-13.875Z" fill="#4b83b2"/><path d="M100,178.125l-25.25,14.25,25.25,42Z" fill="#4b8ecb"/><path d="M200,234.375l50-28.125-24.75-13.875Z" fill="#d13683"/><path d="M200,178.125l25.25,14.25-25.25,42Z" fill="#c32e6f"/><path d="M74.75,192.375,100,178.125,50,151.25Z" fill="#60b5e9"/><path d="M225.25,192.375,200,178.125l50-26.875Z" fill="#d22f85"/><path d="M50,206.25l24.75-13.875L50,151.25Z" fill="#56a9dc"/><path d="M250,206.25l-24.75-13.875L250,151.25Z" fill="#d33779"/><path d="M100,178.125,50,151.25l27.31249-15.6875Z" fill="#6cbac1"/><path d="M200,178.125l50-26.875-27.31249-15.6875Z" fill="#d43558"/><path d="M100,178.125V122.5L77.31249,135.5625Z" fill="#79c3a8"/><path d="M200,178.125V122.5l22.68751,13.0625Z" fill="#d84d40"/><path d="M50,151.25V93.75l27.31249,41.8125Z" fill="#5da580"/><path d="M250,151.25V93.75l-27.31249,41.8125Z" fill="#d13835"/><path d="M50,93.75h50V122.5L77.31249,135.5625Z" fill="#60ad58"/><path d="M250,93.75,200,122.5l22.68751,13.0625Z" fill="#d44437"/><path d="M250,93.75H200V122.5Z" fill="#d8563a"/><path d="M100,93.75h50L100,122.5Z" fill="#abd24c"/><path d="M200,93.75H150l50,28.75Z" fill="#da7641"/><path d="M100,93.75H50l50-28.125Z" fill="#79be59"/><path d="M200,93.75h50L200,65.625Z" fill="#e8ac46"/><path d="M150,93.75H100V65.625Z" fill="#c6db4b"/><path d="M150,93.75h50V65.625Z" fill="#eabb45"/><path d="M150,65.625V93.75L100,65.625Z" fill="#ede44f"/><path d="M150,65.625V93.75l50-28.125Z" fill="#f1c645"/><path d="M150,65.625H100L150,37.5Z" fill="#fbf050"/><path d="M150,65.625h50L150,37.5Z" fill="#eebe44"/></svg>