<svg xmlns="http://www.w3.org/2000/svg" viewBox="0 0 300 300"><g id="layer"><path d="M122.2939,199.62435a24.47734,24.47734,0,1,1-2.13756,34.43852,24.21627,24.21627,0,0,1,2.13756-34.43852" fill="#128dd7" opacity="0.7" style="isolation:isolate"/><path d="M31.56621,125.28468A19.51683,19.51683,0,1,0,59.117,126.94726a19.529,19.529,0,0,0-27.55081-1.66258" fill="#128dd7" opacity="0.7" style="isolation:isolate"/><path d="M207.79642,66.38293a26.578,26.578,0,1,0,37.52611,2.13755,26.63386,26.63386,0,0,0-37.52611-2.13755" fill="#128dd7" opacity="0.7" style="isolation:isolate"/><path d="M112.3186,86.33351a12.7813,12.7813,0,1,0,18.05053.95,12.778,12.778,0,0,0-18.05053-.95" fill="#128dd7" opacity="0.7" style="isolation:isolate"/><path d="M85.24279,42.86971a12.61361,12.61361,0,1,0,17.813.95,12.49372,12.49372,0,0,0-17.813-.95" fill="#128dd7" opacity="0.7" style="isolation:isolate"/><path d="M192.83348,107.23413a8.57989,8.57989,0,1,0,12.11286.71249,8.61138,8.61138,0,0,0-12.11286-.71249" fill="#084390"/><path d="M177.633,37.88209a19.51681,19.51681,0,1,1-1.66256,27.55083A19.529,19.529,0,0,1,177.633,37.88209" fill="#128dd7"/><path d="M173.83292,211.73722a29.60561,29.60561,0,1,0,41.80123,2.37507,29.65546,29.65546,0,0,0-41.80123-2.37507" fill="#128dd7"/><path d="M58.167,186.32394a32.29792,32.29792,0,1,0,45.60136,2.61259A32.30717,32.30717,0,0,0,58.167,186.32394" fill="#128dd7"/><path d="M136.78183,100.10892a13.96451,13.96451,0,1,0,18.52555,20.90059,13.9654,13.9654,0,0,0-18.52555-20.90059" fill="#128dd7"/><path d="M60.30456,157.58565a10.60169,10.60169,0,1,0,14.963.95,10.57275,10.57275,0,0,0-14.96295-.95" fill="#128dd7"/><path d="M250.54769,102.959a10.60169,10.60169,0,1,0,14.96293.95,10.36707,10.36707,0,0,0-14.96293-.95" fill="#128dd7"/><path d="M228.222,218.14994a10.60169,10.60169,0,1,0,14.96294.95,10.7648,10.7648,0,0,0-14.96294-.95" fill="#128dd7"/><path d="M170.74532,98.44638a10.6017,10.6017,0,1,0,14.96294.95,10.76484,10.76484,0,0,0-14.96294-.95" fill="#128dd7"/><path d="M250.07267,182.52389a10.60168,10.60168,0,1,0,14.96294.95,10.57274,10.57274,0,0,0-14.96294-.95" fill="#128dd7"/><path d="M214.92163,183.4739a17.73676,17.73676,0,0,1,25.17575,1.42506,17.83043,17.83043,0,1,1-26.60078,23.7507,18.17633,18.17633,0,0,1,1.425-25.17576" fill="#128dd7" opacity="0.5" style="isolation:isolate"/><path d="M52.94184,70.42054a32.13025,32.13025,0,1,0,45.36384,2.61259,32.02156,32.02156,0,0,0-45.36384-2.61259" fill="#128dd7" opacity="0.5" style="isolation:isolate"/><path d="M179.29559,76.35822a10.6017,10.6017,0,1,0,14.96294.95,10.36714,10.36714,0,0,0-14.96294-.95" fill="#128dd7" opacity="0.5" style="isolation:isolate"/><path d="M111.13106,168.03594a15.30585,15.30585,0,0,0,20.4256,22.80069A15.07257,15.07257,0,0,0,132.7442,169.461a15.3894,15.3894,0,0,0-21.61314-1.42506" fill="#128dd7" opacity="0.5" style="isolation:isolate"/><path d="M87.14286,157.8231a10.93693,10.93693,0,1,1-.95,15.438,10.91791,10.91791,0,0,1,.95-15.43795" fill="#084390"/><path d="M100.68075,117.68443a22.54439,22.54439,0,1,0,31.82594,1.9c-8.07524-9.26276-22.32566-9.97525-31.82594-1.9" fill="#084390"/><path d="M118.49378,33.132A29.43794,29.43794,0,1,0,160.05751,35.507,29.36936,29.36936,0,0,0,118.49378,33.132" fill="#084390"/><path d="M229.40957,129.7973a27.3378,27.3378,0,1,0,38.71364,2.13755,27.42455,27.42455,0,0,0-38.71364-2.13755" fill="#084390"/><path d="M33.22877,166.84841a14.65469,14.65469,0,0,0-1.18753,20.66314,14.63514,14.63514,0,1,0,1.18753-20.66314" fill="#084390"/><path d="M32.27874,106.75909a7.14991,7.14991,0,1,0,9.97529.475,7.33653,7.33653,0,0,0-9.97529-.475" fill="#084390"/><path d="M245.79755,205.562a7.40007,7.40007,0,0,0-.71252,10.21278,7.22933,7.22933,0,1,0,10.68781-9.73773c-2.37507-2.85012-6.8877-3.08764-9.97529-.47505" fill="#084390"/><path d="M105.90592,73.27062a5.38465,5.38465,0,1,0,7.60021.475,5.52119,5.52119,0,0,0-7.60021-.475" fill="#084390"/><path d="M233.68469,113.40933a5.38468,5.38468,0,1,0,7.60023.475,5.52123,5.52123,0,0,0-7.60023-.475" fill="#084390"/><path d="M167.89524,68.04547a5.38466,5.38466,0,1,0,7.60022.475,5.52119,5.52119,0,0,0-7.60022-.475" fill="#084390"/><path d="M155.30737,81.58337a10.6017,10.6017,0,1,0,14.96294.95,10.57276,10.57276,0,0,0-14.96294-.95" fill="#084390"/><path d="M209.69648,116.97193a10.60169,10.60169,0,1,0,14.96294.95,10.36711,10.36711,0,0,0-14.96294-.95" fill="#084390"/><path d="M70.51737,132.64741A13.294,13.294,0,1,0,88.09289,152.598a13.72037,13.72037,0,0,0,1.18753-19.00056,13.197,13.197,0,0,0-18.76305-.95" fill="#084390"/><path d="M142.7195,247.36327a15.47437,15.47437,0,1,0,21.85064.95009c-5.46265-6.17527-15.43795-6.65024-21.85064-.95009" fill="#084390"/><path d="M99.01821,239.28805a16.154,16.154,0,0,0,21.37563,24.22575,16.15475,16.15475,0,1,0-21.37563-24.22575" fill="#084390"/><path d="M150.55722,131.93485a38.01781,38.01781,0,1,0,53.67658,3.08756,38.42954,38.42954,0,0,0-53.67658-3.08756" fill="#de2c0e"/><polyline points="166.47 188.699 189.983 160.436 166.47 132.172" fill="#fff"/></g></svg>