<svg id="Layer_1" data-name="Layer 1" xmlns="http://www.w3.org/2000/svg" viewBox="0 0 300 300"><defs><style>.cls-1{fill:#e6602c;}.cls-2{fill:#dc9b19;}</style></defs><title>REGN_Light_bg</title><g id="layer1"><g id="g2081"><path id="path1997" class="cls-1" d="M61.62,141.39v3.72H50.27v-3.72h3.21V112.2H50.27v-3.72H66c10.05,0,12.85,5,12.85,10.09,0,4.21-2.19,8.22-7.41,9.21,3,.56,3.75,1.89,4.91,4.78L79,141.39h3.25v3.72H75.14l-3.7-11.72c-1.64-3.5-4.11-4-8.22-4H58.37v12h3.26M58.4,125.62h5.66c6.31,0,9.7-2.33,9.7-6.55,0-4.72-3.37-6.86-9.7-6.86H58.37Z"/><path id="path1999" class="cls-1" d="M107.27,137.22c-1.16,5.62-5.33,8.55-12.22,8.55-8,0-12.77-5.16-12.77-13.32,0-7.94,5.11-13.33,12.89-13.33,8.16,0,12.82,5.16,12.82,14.44H87.06c.17,5.61,3.28,8.85,8.16,8.85,4.34,0,7.17-2,7.84-5.22h4.2m-4.05-7c-.7-5.11-3.51-7.78-8-7.78s-7.61,2.81-8,7.78Z"/><path id="path2001" class="cls-1" d="M165.43,137.22c-1.16,5.62-5.33,8.55-12.22,8.55-8,0-12.77-5.16-12.77-13.32,0-7.94,5.11-13.33,12.88-13.33,8.17,0,12.83,5.16,12.83,14.44H145.23c.17,5.61,3.28,8.89,8.16,8.89,4.33,0,7.17-2,7.83-5.23h4.21m-4.05-7c-.67-5.11-3.51-7.77-8.06-7.77s-7.61,2.8-8,7.77Z"/><path id="path2003" class="cls-1" d="M167.84,141.92h2.5V123.27h-2.49v-3.34h6.82v4.39c1.58-3.74,5.05-5,8.78-5,6.14,0,10,2.94,10,9.12v13.53h2.25v3.33h-9v-3.33H189V128.39c0-3.83-3-5.78-6.65-5.78-4.38,0-7.5,3-7.5,8v11.31h2.41v3.33h-9.39v-3.33"/><path id="path2005" class="cls-1" d="M122.93,145.5c-7.3,0-12.1-5.19-12.1-13.16s4.72-13.23,12.33-13.23c4,0,7.19,1.76,8.84,5.5v-4.82h7.41v3.33h-3.07v20.21c0,7.94-4.06,11.67-12.72,11.67-7.44,0-11-2.23-11.33-7.61h4.5c.61,3.1,2.61,4.28,6.61,4.28,6.16,0,8.41-2.4,8.41-8.34v-3c-1.77,3.37-3.83,5.22-8.9,5.22m.78-22.8c-4.91,0-8.06,3.55-8.06,9.61s3.21,9.67,8.22,9.67,7.78-3.83,7.78-9.6-3.08-9.7-7.91-9.7Z"/><path id="path2007" class="cls-1" d="M217,136.61c-.56,3.45-3.17,5.55-7,5.55-4.72,0-7.83-3.55-7.83-9.77s3.1-9.61,7.87-9.66c3.74.07,6.32,2.16,6.84,5.54H221c-.82-6.13-4.58-9.11-11.22-9.16h-.08c-7.51,0-12.36,5.19-12.36,13.27,0,8.28,4.91,13.39,12.49,13.39,6.72,0,10.52-3,11.33-9.16H217"/><path id="path2009" class="cls-1" d="M221.13,119.79h10.4v3.33h-2.74l7.27,16.24,7.22-16.24h-2.8v-3.33h10v3.33h-2.6L236.33,148.9c-1.34,3.16-3.08,5.61-7.9,5.61a17.52,17.52,0,0,1-2.6-.28v-3.61a10.66,10.66,0,0,0,2.17.28,4.21,4.21,0,0,0,4.06-2.59l1.54-3.5-9.82-21.75h-2.69v-3.27"/><path id="path2011" class="cls-2" d="M111.12,183c-1.16,5.61-5.31,8.55-12.22,8.55-8,0-12.77-5.16-12.77-13.32,0-7.94,5.11-13.33,12.89-13.33,8.16,0,12.82,5.16,12.82,14.43H90.91c.17,5.61,3.27,8.89,8.16,8.89,4.34,0,7.17-2,7.84-5.22h4.2m-4-7c-.7-5.11-3.51-7.78-8-7.78S91.4,171,91,176Z"/><path id="path2013" class="cls-2" d="M114.62,187.51h2.49V168.85h-2.49v-3.33h6.83v4.38c1.57-3.74,5-5.05,8.77-5.05,6.17,0,10,2.94,10,9.12v13.54h2.26v3.3h-9v-3.3h2.21V174c0-3.84-3-5.78-6.64-5.78-4.39,0-7.5,3-7.5,8v11.31h2.44v3.3h-9.43v-3.3"/><path id="path2015" class="cls-2" d="M191.78,183c-1.17,5.61-5.33,8.55-12.22,8.55-8,0-12.77-5.16-12.77-13.32,0-7.94,5.11-13.33,12.89-13.33,8.16,0,12.82,5.16,12.82,14.43H171.56c.17,5.61,3.28,8.89,8.16,8.89,4.34,0,7.17-2,7.83-5.22h4.21m-4-7c-.7-5.11-3.51-7.78-8.06-7.78s-7.61,2.81-8,7.78Z"/><path id="path2017" class="cls-2" d="M204.89,187.54v3.33H194.62v-3.33h2.93V168.88h-2.93v-3.32h7.28v4.21c2-3.51,4.55-4.91,8.55-4.91,2.81,0,3.47,1,3.61,1v4c-.49.05-1.57-1.46-4-1.46-4.08,0-8,3.62-8,10v9.12h2.85"/><path id="path2019" class="cls-2" d="M251,186.48a4.7,4.7,0,1,0-4.7,4.7h0a4.69,4.69,0,0,0,4.7-4.7"/><path id="path2021" class="cls-2" d="M227.78,191.22c5.86,0,10.43-2.8,10.43-7.55,0-2.87-1.41-6.67-8.34-7.72-.63-.09-5.05-.7-5.52-.79-2.29-.38-3.78-1.52-3.78-3.36s1.41-3.39,5-3.39c5.8,0,6.93,2.61,7.53,3.76h3.57v-6.61h-3.57V167c-1.2-.61-2.72-1.83-7.83-1.83-5.81,0-9.22,3.25-9.22,7.43,0,2.88,1.74,6.17,7.24,7l5.42.81c3.35.49,5,1.6,5,3.72s-2.32,3.69-6.62,3.69c-6,0-7.72-2.56-7.72-4.58v-.4h-3.6v8h3.61v-1.88c1.11.75,2.8,2.32,8.41,2.32"/><path id="path2023" class="cls-2" d="M82.86,178.77c-.8,8.2-6.79,12.63-15.79,12.63C56.33,191.4,49,184.5,49,173.16s7.32-18.34,17.75-18.34c8,0,11.15,3.72,11.92,4.48v-2.6h3.84v11.22H78.46c-.37-2.69-2.47-9.16-11.43-9.16-7.71,0-12.62,5.12-12.62,14,0,9.54,5.14,14.22,13,14.22,5.28,0,9.21-2.22,10.52-8.18h5"/><path id="path2025" class="cls-2" d="M161.37,183c-.2,2.6-1.12,5.22-4.84,5.22-3.4,0-4.64-2.18-4.64-5.27V169h10.22v-3.33H152V158l-4.51,1.73v5.92h-3.9V169h3.95v13.92c0,5.36,3.17,8.61,9.08,8.61,7.5,0,9-5.09,9-8.55h-4.2"/></g></g></svg>