<svg id="Layer_1" data-name="Layer 1" xmlns="http://www.w3.org/2000/svg" xmlns:xlink="http://www.w3.org/1999/xlink" viewBox="0 0 300 300"><defs><style>.cls-1{fill:#d1d1d1;}.cls-2{fill:url(#linear-gradient);}.cls-3{fill:#e8ba5f;}.cls-4{fill:url(#linear-gradient-2);}.cls-5{fill:url(#linear-gradient-3);}.cls-6{fill:#3f4969;}</style><linearGradient id="linear-gradient" x1="1823.13" y1="-771.88" x2="1867.03" y2="-727.99" gradientTransform="matrix(1.56, 0, 0, -1.58, -2679.95, -985.29)" gradientUnits="userSpaceOnUse"><stop offset="0" stop-color="#ff81cc"/><stop offset="0.25" stop-color="#db6eaf"/><stop offset="0.32" stop-color="#b966a0"/><stop offset="0.42" stop-color="#945d8f"/><stop offset="0.52" stop-color="#755681"/><stop offset="0.62" stop-color="#5d5077"/><stop offset="0.73" stop-color="#4c4c6f"/><stop offset="0.85" stop-color="#424a6a"/><stop offset="1" stop-color="#3f4969"/></linearGradient><linearGradient id="linear-gradient-2" x1="1803.72" y1="-775.03" x2="1803.72" y2="-693.1" gradientTransform="matrix(1.56, 0, 0, -1.58, -2679.95, -985.29)" gradientUnits="userSpaceOnUse"><stop offset="0.17" stop-color="#1b831b"/><stop offset="0.17" stop-color="#1c811d"/><stop offset="0.26" stop-color="#296d39"/><stop offset="0.36" stop-color="#335d4e"/><stop offset="0.47" stop-color="#3a525d"/><stop offset="0.6" stop-color="#3e4b66"/><stop offset="0.78" stop-color="#3f4969"/></linearGradient><linearGradient id="linear-gradient-3" x1="1766.22" y1="-767.03" x2="1808.67" y2="-693.5" gradientTransform="matrix(1.56, 0, 0, -1.58, -2679.95, -985.29)" gradientUnits="userSpaceOnUse"><stop offset="0" stop-color="#1b831b"/><stop offset="0.13" stop-color="#1e841c"/><stop offset="0.24" stop-color="#28871f"/><stop offset="0.34" stop-color="#398b25"/><stop offset="0.43" stop-color="#51912d"/><stop offset="0.52" stop-color="#709a37"/><stop offset="0.61" stop-color="#96a444"/><stop offset="0.69" stop-color="#c1b052"/><stop offset="0.75" stop-color="#e8ba5f"/></linearGradient></defs><title>RLMD_Light_bg</title><path id="path7068" class="cls-1" d="M241.7,113.2v80.57a49.48,49.48,0,0,0-17.65-37.9c-1-.83-2-1.64-3.11-2.4a30.72,30.72,0,0,0,3.11-2.4A49.42,49.42,0,0,0,241.7,113.2Z"/><path id="path7070" class="cls-1" d="M193.17,243H113.75a48.17,48.17,0,0,0,37.36-17.91c.84-1,1.63-2.07,2.37-3.14a33.12,33.12,0,0,0,2.37,3.14A48.15,48.15,0,0,0,193.17,243Z"/><path id="path7072" class="cls-1" d="M85.89,153.48a34.9,34.9,0,0,0-3.1,2.41A49.4,49.4,0,0,0,65.2,193.77V113.2a49.42,49.42,0,0,0,17.65,37.9A28.21,28.21,0,0,0,85.89,153.48Z"/><path id="path7074" class="cls-1" d="M193.17,64a48.17,48.17,0,0,0-37.35,17.9c-.84,1-1.62,2.08-2.37,3.15a32.83,32.83,0,0,0-2.37-3.15A48.19,48.19,0,0,0,113.72,64Z"/><path id="path7076" class="cls-2" d="M241.7,193.77C241.63,221,219.85,243,193,242.89a48.23,48.23,0,0,1-37.22-17.79c-.83-1-1.62-2.07-2.37-3.14a49.41,49.41,0,0,0,8.82-28.23,30.89,30.89,0,1,0,30.89-31.34A47.72,47.72,0,0,0,221,153.44a31.76,31.76,0,0,1,3.1,2.4A49.46,49.46,0,0,1,241.7,193.77Z"/><path id="path7078" class="cls-3" d="M153.45,85a49.42,49.42,0,0,0-8.83,28.23,30.89,30.89,0,1,0-30.88,31.34h0a47.7,47.7,0,0,0-27.83,8.95,33.13,33.13,0,0,1-3.11-2.4,49.73,49.73,0,0,1-7.33-69.24,48.08,48.08,0,0,1,68.25-7.44,49,49,0,0,1,7.36,7.47A34.58,34.58,0,0,1,153.45,85Z"/><path id="path7080" class="cls-4" d="M162.24,113.2v80.57A49.41,49.41,0,0,1,153.42,222a31.63,31.63,0,0,1-2.37,3.15,48.14,48.14,0,0,1-37.36,17.9v-18a31.19,31.19,0,0,0,30.89-31.33V113.2Z"/><path id="path7082" class="cls-5" d="M82.79,193.77A31.48,31.48,0,0,0,114,225.1h0a1.13,1.13,0,0,1,1.12,1.14h0v15.58A1.13,1.13,0,0,1,114,243h0C87.19,243,65.4,221,65.33,193.85a49.52,49.52,0,0,1,17.46-38c1-.84,2-1.64,3.1-2.41a47.86,47.86,0,0,1,27.83-8.95,31.11,31.11,0,0,0,30.89-31.33v37.9a47.83,47.83,0,0,1-30.89,11.32A31.2,31.2,0,0,0,82.79,193.77Z"/><path id="path7084" class="cls-6" d="M241.7,113.2a49.42,49.42,0,0,1-17.65,37.91c-1,.84-2,1.64-3.11,2.4h-.07a29.89,29.89,0,0,1-21.14,8.93H162.24a1.51,1.51,0,0,1-1-.42,1.53,1.53,0,0,1-.41-1V146a1.48,1.48,0,0,1,1.47-1.49h30.59A31.33,31.33,0,1,0,162.24,113v.51a1.09,1.09,0,0,1-.32.8,1.14,1.14,0,0,1-.81.35H145.78a1.15,1.15,0,0,1-1.13-1.15h0v-.27A49.42,49.42,0,0,1,153.48,85a32,32,0,0,1,2.37-3.15,48.06,48.06,0,0,1,68.34-6.43,49.53,49.53,0,0,1,17.54,37.76Z"/></svg>