<?xml version="1.0" encoding="utf-8"?>
<!-- Generator: Adobe Illustrator 28.3.0, SVG Export Plug-In . SVG Version: 6.00 Build 0)  -->
<svg version="1.1" id="Layer_1" xmlns="http://www.w3.org/2000/svg" xmlns:xlink="http://www.w3.org/1999/xlink" x="0px" y="0px"
	 viewBox="0 0 300 300" style="enable-background:new 0 0 300 300;" xml:space="preserve">
<style type="text/css">
	.st0{fill:#31318D;}
</style>
<g>
	<path class="st0" d="M231.2,214.8h-45.8L158.1,178l0,0v36.7h-38.6V86.4h64.4c8.7,0,16.3,1.9,23.5,5.7c6.8,3.8,12.5,9.5,16.7,16.3
		c4.2,7.2,6.1,15.2,6.1,24.6s-1.5,14.8-4.5,20.8s-6.8,11-11.4,14.8s-9.5,6.1-14.8,7.2l32.6,39L231.2,214.8z M180.5,144.3
		c2.7,0,5.3-1.1,7.2-3s3-4.5,3-8s-1.1-5.7-3-8c-1.9-1.9-4.2-3-7.2-3h-23.1v22C157.4,144.3,180.5,144.3,180.5,144.3z"/>
	<path class="st0" d="M246,232.6c-0.4,0.4-0.8,0.8-1.5,1.1l0,0c-2.3,2.3-4.9,4.2-7.2,6.1c0,0,0,0-0.4,0.4c-2.3,1.9-4.9,3.4-7.2,4.9
		c-0.4,0-0.8,0.4-1.1,0.8c-2.3,1.5-4.9,2.7-7.2,3.8c-0.8,0-1.5,0.8-2.3,1.1c-2.3,1.1-4.5,2.3-6.8,3c-1.1,0.4-2.3,0.8-3,1.1
		c-2.3,0.8-4.2,1.5-6.4,2.3c-1.5,0.4-3,0.8-4.5,1.1c-1.9,0.4-3.8,1.1-5.7,1.1c-1.9,0.4-4.2,0.8-6.1,0.8c-1.5,0-3,0.4-4.2,0.8
		c-3.4,0-7.2,0.4-11,0.4s-7.2,0-11-0.4c-1.5,0-3-0.4-4.2-0.8c-1.9,0-4.2-0.4-6.1-0.8c-1.9,0-3.8-0.8-5.7-1.1c-1.5,0-3-0.8-4.5-1.1
		c-2.3-0.8-4.2-1.5-6.4-2.3c-1.1-0.4-2.3-0.8-3-1.1c-2.3-0.8-4.5-1.9-6.8-3c-0.8,0-1.5-0.8-2.3-1.1c-2.3-1.1-4.9-2.7-7.2-3.8
		c-0.4,0-0.8-0.4-1.1-0.8c-2.7-1.5-4.9-3-7.2-4.9c0,0,0,0-0.4-0.4c-2.7-1.9-4.9-3.8-7.2-6.1l0,0c-23.1-20.5-37.9-50-37.9-83.3
		S75.2,87.5,98.3,67c2.3-2.3,4.9-4.2,7.2-6.1c0,0,0,0,0.4-0.4c2.3-1.9,4.9-3.4,7.2-4.9c0.4,0,0.8-0.4,1.1-0.8
		c2.3-1.5,4.5-2.7,7.2-3.8c0.8,0,1.5-0.8,2.3-1.1c2.3-1.1,4.5-2.3,6.8-3c1.1-0.4,2.3-0.8,3-1.1c2.3-0.8,4.2-1.5,6.4-2.3
		c1.5-0.4,3-0.8,4.5-1.1c1.9-0.4,3.8-1.1,5.7-1.1c1.9-0.4,4.2-0.8,6.1-0.8c1.5,0,3-0.4,4.2-0.8c3.4,0,7.2-0.4,11-0.4s7.2,0,11,0.4
		c1.5,0,3,0.4,4.2,0.8c1.9,0,4.2,0.4,6.1,0.8c1.9,0,3.8,0.8,5.7,1.1c1.5,0,3,0.8,4.5,1.1c2.3,0.8,4.2,1.5,6.4,2.3
		c1.1,0.4,2.3,0.8,3,1.1c2.3,0.8,4.5,1.9,6.8,3c0.8,0,1.5,0.8,2.3,1.1c2.3,1.1,4.9,2.7,7.2,3.8c0.4,0,0.8,0.4,1.1,0.8
		c2.7,1.5,4.9,3,7.2,4.9c0,0,0,0,0.4,0.4c2.7,1.9,4.9,3.8,7.2,6.1l0,0c0.8,0.8,1.1,1.1,1.9,1.9l7.6-9.1c-0.4-0.4-0.8-0.8-1.5-1.5
		c-2.7-2.3-5.3-4.5-8.3-6.8c0,0,0,0-0.4,0c-2.7-1.9-5.3-3.8-8.3-5.7c-0.4,0-0.8-0.4-1.1-0.8c-2.7-1.5-5.3-3-8.3-4.5
		c-0.8,0-1.5-0.8-2.3-1.1c-2.7-1.1-5.3-2.3-8-3.4c-1.1-0.4-2.3-0.8-3.4-1.1c-2.3-0.8-4.9-1.9-7.2-2.3c-1.5-0.4-3-0.8-4.9-1.1
		c-2.3-0.4-4.2-1.1-6.4-1.5c-2.3-0.4-4.5-0.8-6.8-1.1c-1.5,0-3-0.4-4.9-0.8c-3.8-0.4-8-0.8-12.1-0.8l0,0c-4.2,0-8,0-12.1,0.8
		c-1.5,0-3.4,0.4-4.9,0.8c-2.3,0-4.5,0.8-6.8,1.1s-4.2,1.1-6.4,1.5c-1.5,0.4-3.4,0.8-4.9,1.1c-2.3,0.8-4.9,1.5-7.2,2.3
		c-1.1,0.4-2.3,0.8-3.4,1.1c-2.7,1.1-5.3,2.3-8,3.4c-0.8,0-1.5,0.8-2.3,1.1c-2.7,1.5-5.7,3-8.3,4.5c-0.4,0-0.8,0.4-1.1,0.8
		c-3,1.9-5.7,3.8-8.3,5.7c0,0,0,0-0.4,0c-2.7,2.3-5.7,4.2-8.3,6.8C61.9,81.1,46,113.6,46,150s15.9,69.3,41.3,91.7
		c2.7,2.3,5.3,4.5,8.3,6.8c0,0,0,0,0.4,0c2.7,1.9,5.3,3.8,8.3,5.7c0.4,0,0.8,0.4,1.1,0.8c2.7,1.5,5.3,3,8.3,4.5
		c0.8,0,1.5,0.8,2.3,1.1c2.7,1.1,5.3,2.3,7.6,3.4c1.1,0.4,2.3,0.8,3.4,1.1c2.3,0.8,4.9,1.9,7.2,2.3c1.5,0.4,3,0.8,4.9,1.1
		c2.3,0.4,4.2,1.1,6.4,1.5c2.3,0.4,4.5,0.8,6.8,1.1c1.5,0,3,0.4,4.9,0.8c3.8,0.4,8,0.8,12.1,0.8l0,0c4.2,0,8,0,12.1-0.8
		c1.5,0,3.4-0.4,4.9-0.8c2.3,0,4.5-0.8,6.8-1.1c2.3-0.4,4.2-1.1,6.4-1.5c1.5-0.4,3.4-0.8,4.9-1.1c2.3-0.8,4.9-1.5,7.2-2.3
		c1.1-0.4,2.3-0.8,3.4-1.1c2.7-1.1,5.3-2.3,7.6-3.4c0.8,0,1.5-0.8,2.3-1.1c2.7-1.5,5.3-3,8.3-4.5c0.4,0,0.8-0.4,1.1-0.8
		c3-1.9,5.7-3.8,8.3-5.7c0,0,0,0,0.4,0c2.7-2.3,5.7-4.2,8.3-6.8c0,0,0.4-0.4,0.8-0.8l-7.6-9.1L246,232.6z"/>
</g>
</svg>
