<svg id="Layer_1" data-name="Layer 1" xmlns="http://www.w3.org/2000/svg" viewBox="0 0 300 300"><path d="M104.00108,152.0501H93.50372v6.71707h10.49736Z" fill="#121b10"/><path d="M103.99934,149.81015H93.69847v4.47973h10.30087Z" fill="#387743"/><path d="M104.00108,133.26387H93.50372v6.8106h10.49736Z" fill="#53ae58"/><path d="M103.99934,131.11272H93.69847v4.47974h10.30087Z" fill="#7eba56"/><path d="M104.00108,114.662H93.50372v6.717h10.49736Z" fill="#2b4927"/><path d="M103.99934,112.42215H93.69847v4.47974h10.30087Z" fill="#1d0e0d"/><path d="M95.20506,114.662H84.75945v6.717H95.20506Z" fill="#5bb057"/><path d="M95.20506,133.26387H84.75945v6.8106H95.20506Z" fill="#243c20"/><path d="M95.20506,152.0501H84.75945v6.71707H95.20506Z" fill="#243c20"/><path d="M86.41813,114.662H76.71165v6.717h9.70648Z" fill="#397843"/><path d="M86.41813,133.26387H76.71165v6.8106h9.70648Z" fill="#8e2926"/><path d="M86.41813,152.0501H76.71165v6.71707h9.70648Z" fill="#391614"/><path d="M77.6347,114.662H68.84812v6.717H77.6347Z" fill="#152114"/><path d="M77.6347,133.26387H68.84812v6.8106H77.6347Z" fill="#2b4927"/><path d="M77.6347,152.0501H68.84812v6.71707H77.6347Z" fill="#121b11"/><path d="M25.02049,158.72155V112.41532H43.989c5.79385,0,9.37572.62436,12.00133,2.14882,3.58694,2.08119,5.51484,5.72325,5.51484,10.20818,0,6.04059-3.24079,10.00007-9.24146,11.2488,3.3803.90521,4.3467,2.2216,7.03437,9.92727l4.62064,12.77316H51.02339l-3.72662-11.665c-1.51952-4.792-3.30775-6.18108-7.86126-6.18108H37.43528v17.84606ZM41.8492,131.98874c4.967,0,7.236-1.6648,7.236-5.20287,0-3.6785-2.55323-5.4839-7.86135-5.4839H37.089v10.67646Z" fill="#221f20"/><path d="M110.96518,158.72155V112.41532h16.69434c6.82773,0,10.761.90011,13.58816,3.12178,3.38012,2.63789,5.16852,6.7378,5.16852,11.73784,0,5.83247-2.62053,10.55153-7.31356,13.049-2.68766,1.38911-6.76042,2.08122-12.92122,2.08122h-2.7548v16.31639ZM125.2666,133.5081c3.30775,0,4.54826-.20822,6.00066-.97305a5.76937,5.76937,0,0,0,2.7548-5.14043,5.39575,5.39575,0,0,0-3.24062-5.34343c-1.44733-.62435-2.76-.76484-5.58722-.76484h-1.79347V133.5081Z" fill="#221f20"/><path d="M179.04549,158.72155l-3.51457-9.792H158.42313l-3.72662,9.792h-12.3424l17.542-46.30623h14.69408l17.65566,46.30623ZM167.871,124.76712a19.72773,19.72773,0,0,1-.75451-3.26224,19.40305,19.40305,0,0,1-.75976,3.19459l-5.16853,15.69212h11.44819Z" fill="#221f20"/><path d="M196.26114,158.72155V112.41532h18.96822c5.7935,0,9.38079.62436,12.00132,2.14882,3.5873,2.08119,5.52079,5.72325,5.52079,10.20818,0,6.04059-3.24114,10.00007-9.24093,11.2488,3.374.90521,4.34076,2.2216,7.033,9.92727l4.62048,12.77316H222.2431l-3.7219-11.665c-1.51917-4.792-3.31282-6.18108-7.86511-6.18108h-1.99993v17.84606Zm16.82844-26.73281c4.9666,0,7.23576-1.6648,7.23576-5.20287,0-3.6785-2.55237-5.4839-7.86511-5.4839H208.324v10.67646Z" fill="#221f20"/><path d="M273.65738,158.72155H240.53267V112.41532h32.35027V121.302H252.9623v9.3029h18.76334v8.86578H252.9623v10.35383h20.67411Z" fill="#221f20"/><path d="M95.20506,112.42215H84.75945v4.47974H95.20506Z" fill="#7ab957"/><path d="M95.20506,149.81015H84.75945v4.47973H95.20506Z" fill="#391614"/><path d="M86.42512,112.42215H76.32583v4.47974H86.42512Z" fill="#1f311c"/><path d="M86.42512,149.81015H76.32583v4.47973H86.42512Z" fill="#4a9d53"/><path d="M77.6347,112.42215H68.84812v4.47974H77.6347Z" fill="#010101"/><path d="M77.6347,149.81015H68.84812v4.47973H77.6347Z" fill="#20341d"/><path d="M95.20506,131.11272H84.75945v4.47974H95.20506Z" fill="#3e8148"/><path d="M86.42512,131.11272H76.32583v4.47974H86.42512Z" fill="#387743"/><path d="M77.6347,131.11272H68.84812v4.47974H77.6347Z" fill="#131910"/><path d="M30.32875,174.91382H25V173.124H38.10737v1.7898H32.77863v12.41932H30.32875Z" fill="#221f20"/><path d="M48.02349,173.124h2.45516v5.94175h8.19727V173.124h2.44974v14.20912H58.67592v-6.47757H50.47865v6.47757H48.02349Z" fill="#221f20"/><path d="M73.10933,173.124h9.59792v1.7898H75.56449v4.16226h6.50187v1.7898H75.56449v4.6827h7.14276v1.78456H73.10933Z" fill="#221f20"/><path d="M93.82137,173.124h4.19688c3.39044,0,6.65186.44736,6.65186,3.845,0,1.72739-1.55064,2.95007-3.53537,3.23625v.0416a2.64076,2.64076,0,0,1,1.66953,1.42041l3.24062,5.66589h-2.79623l-2.62561-4.92186c-.75976-1.38405-1.55047-1.38405-2.87367-1.38405h-1.473v6.30591h-2.455Zm2.455,6.10293h2.06741c2.331,0,3.70581-.85329,3.70581-2.21636,0-1.28-1.17828-2.08122-3.43694-2.08122H96.25572Z" fill="#221f20"/><path d="M121.76165,173.124H124.346l7.23593,14.1988H128.889l-1.747-3.5796h-8.378l-1.76252,3.58992h-2.58435Zm1.19908,1.91462-3.41124,7.03437H126.372Z" fill="#221f20"/><path d="M141.28876,173.124h4.49145c3.50949,0,6.42968,1.04052,6.42968,4.25072,0,3.153-2.96668,4.27171-6.06273,4.27171h-2.40324v5.68669h-2.45516Zm2.45516,6.73263H146.173c1.52477,0,3.43712-.6297,3.43712-2.50271,0-1.7898-2.25866-2.44012-3.77819-2.44012h-2.06741Z" fill="#221f20"/><path d="M162.55043,173.124h9.59285v1.7898h-7.14293v4.16226h6.50728v1.7898h-6.50728v4.6827h7.14293v1.78456h-9.59285Z" fill="#221f20"/><path d="M196.76777,181.44872c0,3.98536-2.43436,6.12391-6.65187,6.12391-4.21768,0-6.652-2.13855-6.652-6.12391V173.124H185.919v8.05408c0,2.72631,1.03371,4.59949,4.19689,4.59949,3.163,0,4.1967-1.87318,4.1967-4.59949v-8.04884h2.45517Z" fill="#221f20"/><path d="M211.94275,174.91382h-5.32848V173.124h13.10619v1.7898H214.392v12.41932h-2.44922Z" fill="#221f20"/><path d="M229.50683,173.124H231.963v14.20912h-2.45621Z" fill="#221f20"/><path d="M255.51115,175.469a7.98948,7.98948,0,0,0-3.53482-.79613c-3.95442,0-6.5802,2.36216-6.5802,5.5568,0,3.335,2.90026,5.55156,6.45608,5.55156a9.903,9.903,0,0,0,3.73062-.69211l.14511,1.972a12.7212,12.7212,0,0,1-3.902.52027c-5.42112,0-9.02939-2.88766-9.02939-7.40377,0-4.37571,3.83029-7.28418,9.05564-7.28418a11.18929,11.18929,0,0,1,3.85474.614Z" fill="#221f20"/><path d="M273.84792,175.27149a8.956,8.956,0,0,0-3.22016-.59316c-1.37057,0-2.99288.411-2.99288,1.89381,0,2.72648,7.36512,2.08123,7.36512,6.76393,0,3.028-2.82158,4.22992-6.25853,4.22992a13.42723,13.42723,0,0,1-3.51035-.593l.243-1.88875a12.1949,12.1949,0,0,0,3.56107.69193c1.39506,0,3.36-.65032,3.36-2.32055,0-3.17366-7.3599-2.29956-7.3599-6.71165,0-2.52351,2.402-3.86577,5.49284-3.86577a13.70591,13.70591,0,0,1,3.6607.52026Z" fill="#221f20"/></svg>