<svg id="Layer_1" data-name="Layer 1" xmlns="http://www.w3.org/2000/svg" viewBox="0 0 300 300"><defs><style>.cls-1{fill:#80bc00;}.cls-2{fill:#00abc8;}</style></defs><path class="cls-1" d="M150,152.05a80,80,0,0,1,27.53,4.78L149.66,20.18,122.55,157.1A79,79,0,0,1,150,152.05Z"/><path class="cls-2" d="M243.73,184c2.69-4.24,16.57-23.74,50.1-35.22-30.57-6.4-48.57-33-52.4-39.17a98.71,98.71,0,0,0-5.85-11.34c-.89-3.38-4.36-20.36,6.84-43.3-19.29,12.65-42.13,7.36-46.1,6.28a100.26,100.26,0,0,0-25.94-9.27l8,39.27a65.55,65.55,0,0,1,6.15,3.38v.2a64.93,64.93,0,0,1,11.79,100.57,3.92,3.92,0,0,0-.36.33c-1.37,1.37-2.8,2.72-4.27,3.94a6.34,6.34,0,0,0-.65.51c-1.11.93-2.27,1.77-3.47,2.6-.62.45-1.25.9-1.91,1.35a64.45,64.45,0,0,1-69.92.78v-.18A65,65,0,0,1,104,104.11c.15-.12.24-.23.35-.32a53.06,53.06,0,0,1,4.3-4,5.52,5.52,0,0,1,.66-.51c1.11-.93,2.27-1.79,3.43-2.63.63-.45,1.26-.9,1.92-1.32a62.75,62.75,0,0,1,6.77-3.88l7.83-39.39a98.82,98.82,0,0,0-20.84,7c-.27.12-.54.24-.81.39-2,.93-3.94,1.94-5.85,3-.54.3-1.08.63-1.61.93l0,0,.08-.09s-18.51,6-45.44-7.27c14.57,22.31,6,49.37,6,49.37h0c-1.43,2.93-2.68,6-3.88,9v-.15S43.91,137.49,6.17,150.43c34.66,7.21,53,40.49,53,40.49v-.09a97.79,97.79,0,0,0,6.15,11.54c.72,3.2,3.32,19-7.88,42,21.29-14,47.47-5.59,47.47-5.59l-.06-.06a94.85,94.85,0,0,0,19.92,7.59h-.09s15.7,7.84,24.48,33.52c4.93-23.56,27.47-33.88,27.47-33.88h-.09a93.83,93.83,0,0,0,15.34-5.65c.27-.15.54-.24.81-.36,2-.93,3.94-1.94,5.85-3,.54-.3,1.08-.6,1.58-.93s.69-.41,1-.59c4.42-.9,21.61-3.26,44.57,8-12.51-19.14-8.36-42.1-7-48A103.2,103.2,0,0,0,243.73,184Z"/></svg>