<svg id="Layer_1" data-name="Layer 1" xmlns="http://www.w3.org/2000/svg" viewBox="0 0 300 300"><title>Tab Jun 2022_V2_logos</title><path d="M85.84859,236.68188a38.27737,38.27737,0,0,1,1.13676-20.191c5.19729-15.76585,15.51313-27.72754,29.07975-36.86029,10.518-7.08046,22.20334-12.23724,33.22507-18.50477,10.22116-5.81226,20.88533-10.71929,31.51645-15.71417,9.152-4.29993,15.52865-11.04489,17.86638-21.9345a52.80517,52.80517,0,0,1-.71474,21.8705c-3.12967,11.9765-11.01535,20.452-20.71189,27.51477-12.72867,9.27124-26.66677,16.43884-40.9173,23.071C124.73361,201.33,113.2623,206.98268,103.016,214.74977c-7.45867,5.65393-13.78392,12.19044-16.554,21.43542C86.42054,236.32336,86.19667,236.40748,85.84859,236.68188Z" fill="#bc2131"/><path d="M86.25824,38.48229q-.01651-.46585-.03294-.93223c.02118-2.83656.02492-5.67292.0773-8.50839.01113-.60236-.41208-1.68538.99325-1.25877q.09516.46452.19027.92956c-.15511,1.00042-.13294,1.93228.9536,2.45542,5.20662,11.30394,14.76885,18.16281,25.10961,24.171,11.06211,6.42735,23.07872,10.9594,34.38486,16.89675,12.82166,6.73321,25.30115,14.03364,36.1647,23.73039a56.77369,56.77369,0,0,1,10.60024,12.33016,7.16708,7.16708,0,0,1,1.21452,4.75847c-.41313,3.81444-.63889,7.64867-.96469,11.47283a7.22848,7.22848,0,0,1-1.48466,4.16831c-4.91277-5.07784-10.66877-9.01569-16.62238-12.67672-17.047-10.48266-34.82645-19.65509-52.49858-29.02451-12.36171-6.55393-23.16156-14.96468-30.73547-26.94487a27.70927,27.70927,0,0,1-3.94094-8.00412c.03878-1.10405.17824-2.24531-1.07813-2.86787l-.00957-.04221a25.16609,25.16609,0,0,0-2.14467-8.919.32827.32827,0,0,1-.05806-.44478Q86.31734,39.12829,86.25824,38.48229Z" fill="#e91f27"/><path d="M122.598,206.46282c9.07243-4.90555,18.26388-9.03961,27.59877-13.52221,4.58439,2.86248,9.13545,5.77164,13.753,8.5724,8.06585,4.89226,16.12292,9.80207,24.27285,14.55333,15.49608,9.03392,23.3186,22.84748,26.05361,40.11973a43.27425,43.27425,0,0,1-.71159,19.078c-1.842-11.8816-10.90674-17.97-19.30157-24.39543-13.15182-10.06638-27.75024-17.86255-42.27008-25.75437-9.69317-5.26843-18.69608-11.65017-28.12278-17.34992A8.02879,8.02879,0,0,1,122.598,206.46282Z" fill="#f39422"/><path d="M92.43178,141.34793c.05693,14.88878,10.90042,21.74178,21.51169,28.76331,1.396.92379,2.82019,1.80559,4.21925,2.725a6.80761,6.80761,0,0,1,.81129.84372,99.00662,99.00662,0,0,0-18.4527,14.76385C92.242,181.21849,87.387,164.03662,92.43178,141.34793Z" fill="#f39422"/><path d="M87.29585,27.7829c-1.40533-.42661-.98212.65641-.99325,1.25877-.05238,2.83547-.05612,5.67183-.0773,8.50839-1.1167-4.24232-.14434-8.43445.26674-12.81414A5.46693,5.46693,0,0,1,87.29585,27.7829Z" fill="#bc2131"/><path d="M86.43456,40.21651a25.16609,25.16609,0,0,1,2.14467,8.919A22.6678,22.6678,0,0,1,86.43456,40.21651Z" fill="#bc2131"/><path d="M88.5888,49.17771c1.25637.62256,1.11691,1.76382,1.07813,2.86787A4.38636,4.38636,0,0,1,88.5888,49.17771Z" fill="#bc2131"/><path d="M88.43972,31.16788c-1.08654-.52314-1.10871-1.455-.9536-2.45542A4.08615,4.08615,0,0,1,88.43972,31.16788Z" fill="#bc2131"/><path d="M86.25824,38.48229q.05912.64536.11826,1.28944A1.15571,1.15571,0,0,1,86.25824,38.48229Z" fill="#bc2131"/></svg>