<svg id="Layer_1" data-name="Layer 1" xmlns="http://www.w3.org/2000/svg" viewBox="0 0 300 300"><path d="M240.31313,153.27272a89.962,89.962,0,0,0-14.16162-15.11111A82.16626,82.16626,0,0,0,234,102.41414a104.2401,104.2401,0,0,0-36.41414-10.80808l14.32323,24.77779,10.22223,15.66665a66.23215,66.23215,0,0,0-6.08082-4.77777,69.24719,69.24719,0,0,0-14.404-7.18183,66.75072,66.75072,0,0,0-4.06061-28.404,85.90207,85.90207,0,0,0-7.80808-15.70707,80.74066,80.74066,0,0,0-8.25252-13.26263l26.202,19.697L234.24243,102.495l7.65656,32.82828,5.44444,30.303A78.06419,78.06419,0,0,0,240.31313,153.27272Zm-34.87878-1.88889a61.00158,61.00158,0,0,0-8.67678-9.35352,53.43057,53.43057,0,0,0,4.53535-21.85858,52.30085,52.30085,0,0,0-22.05049-4.57577,33.14116,33.14116,0,0,0-14.83838,1.37373l-2.56566-.82827a41.32749,41.32749,0,0,0-9.8687-10.02021l12.0404,4.18182,15.15152,5.29293a51.45068,51.45068,0,0,0-8.0909-17.9596l14.16162,10.77778,16.303,12.11112,4.8889,20.24242,3.66665,18.70706a55.17658,55.17658,0,0,0-4.697-8.17171h.04042Zm-4.8081,27.26264-8.798,16.14141a52.31265,52.31265,0,0,0,.66667-20.83838l-11.9596,10.73737-11.75759,10.76768H135.90909l-11.75758-9.31314-12.85859-10.76768a39.45915,39.45915,0,0,0,16.9697,3.78788,41.07305,41.07305,0,0,0,7.64647,16.29294,41.43177,41.43177,0,0,0,15.9899-7.88889,43.99847,43.99847,0,0,0,16.87878,7.57575c3.55557-4.77777,5.44446-10.73737,6.67678-16.57576a41.06381,41.06381,0,0,0,16.95959-4.697,52.28247,52.28247,0,0,0,17.44445-12.34344l-9.23234,17.202Zm-28.80807,25.60606-19.25253,7.101-19.21212-5.91918-19.49494-6.42426L103.0505,181.68686,92.0404,164.40405a52.75054,52.75054,0,0,0,18.34343,11.87877,77.19945,77.19945,0,0,0,.82829,12.42426,50.67272,50.67272,0,0,0,2.56565,10.45454,53.92536,53.92536,0,0,0,21.15152-2.28282c2.87878,2.87878,6,5.75757,9.15151,8.36362a45.53732,45.53732,0,0,0,8.48485,6.11111,49.44723,49.44723,0,0,0,8.32323-6.42424,82.30807,82.30807,0,0,0,8.21214-9.24241,41.90715,41.90715,0,0,0,21.65655.36363Zm-87.35353-72.202a65.39261,65.39261,0,0,0-9.31313,8.55556l12.0303-22.21212L98.62626,96.9697a68.06791,68.06791,0,0,0-.90908,26,52.59,52.59,0,0,0,6.82827,21.505,42.54228,42.54228,0,0,0,10.303,13.18182,40.18582,40.18582,0,0,0-4.11111,16.64647l-3-14-3.42425-15.66667a50.96114,50.96114,0,0,0-11.798,18.38384L95,144.24243,97.63636,123.798A68.23119,68.23119,0,0,0,84.46465,132.0505Zm34.56565-15.62625a53.11578,53.11578,0,0,0-17.52526,4.76768l11.52526-10.72728,12.11111-11.202a50.59056,50.59056,0,0,0-6.11111,17.12121ZM110.38383,138.404a36.27549,36.27549,0,0,0-4.26262,3.35355l5.9192-10.9293,6.98989-13.49494a38.58934,38.58934,0,0,0-.55556,15.93939A40.56653,40.56653,0,0,0,110.38383,138.404Zm69.75758,11.51517-6.03031,9.31312L172.13131,170l-10.84848,2.25252-9.07071,6.23233-9.39394-5.9192-10.92928-2.0505-2.25254-10.64647-6.38384-9.12121,6.0707-9.23232,1.96972-10.68687,10.899-2.33333,9.11112-6.23233,9.39394,5.9192,10.80808,2.0505L173.8687,141l6.27271,9Zm16.37374-5.28284-1.53536,13.60606-2.25252,14.798a40.34292,40.34292,0,0,0-4.84848-16.13132A44.63078,44.63078,0,0,0,196.51515,144.63636ZM191,136.899a36.97223,36.97223,0,0,0-7.38385-3.86868l-1.26262-2.0505a37.44893,37.44893,0,0,0-.39394-7.88889,26.37806,26.37806,0,0,0-1.88889-6.35353l7.80809,12.11111,8.09091,12.19192a39.24823,39.24823,0,0,0-5.13132-4.06061H191ZM123.56565,86.12122,145.899,77.04041a66.27923,66.27923,0,0,0-18.23233,18.62626h39.697a50.99964,50.99964,0,0,0-18.58586,9.35354h.47476a39.2939,39.2939,0,0,0-12,12.0303h-.11112a41.43717,41.43717,0,0,0-15.39394-1.22222l12.11112-5.01011,14.64645-6.27273a52.27572,52.27572,0,0,0-21-8.63635,68.95729,68.95729,0,0,0-27.73738-.16163l23.63637-9.62625Zm48.92929-2.80808,24.02021,8.05049a69.73418,69.73418,0,0,0-27.88889,3.55557A65.15582,65.15582,0,0,0,148.9394,76.21212l23.47474,7.101Zm91.88891,65.93939A106.72433,106.72433,0,0,0,275,129.404a112.09693,112.09693,0,0,0-17.04041-14.63637,118.44788,118.44788,0,0,0-23.48483-11.9596,106.92691,106.92691,0,0,0-6.31314-46.59595,110.47471,110.47471,0,0,0-47.11112,6.07071,108.80316,108.80316,0,0,0-33.92929-33.49495,108.91307,108.91307,0,0,0-33.77777,33.34344l67.70706.23233A84.69756,84.69756,0,0,0,164.91918,67.495a103.73561,103.73561,0,0,0-17.48483,8.95958,86.53767,86.53767,0,0,0-34.09091-13.88888A82.83462,82.83462,0,0,0,99.0202,96.14143a86.71974,86.71974,0,0,0-35.15152,10.76765,82.78715,82.78715,0,0,0,10.84849,34.8485,67.14683,67.14683,0,0,0,17.24242,22.72727,66.8767,66.8767,0,0,0-6.43434,28.32324,66.66581,66.66581,0,0,0,28.25252,6.43433,67.2178,67.2178,0,0,0,12.11113,24.61617L105.76768,209.0303,83.202,192.96969a93.87613,93.87613,0,0,0,2.09091,19.37375,85.53491,85.53491,0,0,0,3.78788,16.68686,88.175,88.175,0,0,0,17.9495.28282,82.0867,82.0867,0,0,0,19.18182-5.0505,85.78978,85.78978,0,0,0,26.51515,25.95961,85.90641,85.90641,0,0,0,26.43433-26.04041H128.33333a66.20809,66.20809,0,0,0,24.15152-12.74747,66.43049,66.43049,0,0,0,26.67676,11.52524,66.70172,66.70172,0,0,0,11.51516-26.83838,66.33237,66.33237,0,0,0,27.66667-8.24242,66.74338,66.74338,0,0,0-8.05051-27.65658,68.3701,68.3701,0,0,0,15.23232-22.72727v.31313l-3.16162,26.04042L218.495,190.01011a86.123,86.123,0,0,0,28.9293-19.92929l-15.58587,27.58585-14.798,26.12121a81.96346,81.96346,0,0,0,1.45455-33.77777l-19.56566,17.202-19.76768,16.9697a89.83581,89.83581,0,0,0,36.37375,2.24242l-31.36365,12.12122L152.798,250.22223,121,239.76767,89.16162,229.0303,71.28283,200.73738,53.64647,172.41414v-.35353a85.56781,85.56781,0,0,0,11.798,9.46465,111.00452,111.00452,0,0,0,17.596,10.65656l-5.48485-27.26264L73.33333,139.303c-4.697,4.54546-10.06061,9.86868-13.64646,15.39394a95.49225,95.49225,0,0,0-4.9798,8.71716l3.47475-24.1111,4.77778-32.93939L87.899,84.0303l24.96969-22.45454a111.92485,111.92485,0,0,0-47.697-2.25252,105.32335,105.32335,0,0,0-2.29293,47.0404A110.07327,110.07327,0,0,0,25,134.92929a108.20165,108.20165,0,0,0,28.56566,37.63636,107.97333,107.97333,0,0,0-10.92929,45.77779A109.42972,109.42972,0,0,0,88.91919,229.0707a107.79821,107.79821,0,0,0,21.23233,42.14142A109.90441,109.90441,0,0,0,152.798,250.22223a110.1899,110.1899,0,0,0,43.404,19.25251,107.59854,107.59854,0,0,0,19.33335-43.0505,109.543,109.543,0,0,0,45.61617-12.85859,111.83135,111.83135,0,0,0-13.14144-45.92928,104.778,104.778,0,0,0,16.45456-18.46466Z" fill="#003157"/></svg>