<svg id="Layer_1" data-name="Layer 1" xmlns="http://www.w3.org/2000/svg" viewBox="0 0 300 300"><defs><style>.cls-1{fill:#2c266c;}.cls-2{fill:#00a7e0;}</style></defs><path id="Layer" class="cls-1" d="M240.28,254.35H220.07l-68.73-88.28V151.33h2c35.71,0,62.68-18,62.68-48.83v-.62c0-28.78-23-46.8-62.05-46.8H80.64V198.2H64.44V39.64h91c26.26,0,47.81,8.74,60.63,21.45a59.49,59.49,0,0,1,16.12,40.09v.7c0,35.41-26.89,56.15-63.31,60.83Z"/><path id="Layer-2" data-name="Layer" class="cls-2" d="M72.54,260.36a12.72,12.72,0,1,1,12.82-12.71A12.77,12.77,0,0,1,72.54,260.36Z"/></svg>