<svg id="Layer_1" data-name="Layer 1" xmlns="http://www.w3.org/2000/svg" viewBox="0 0 300 300"><defs><style>.cls-1{fill:#ee8c22;}.cls-2{fill:#232d66;}</style></defs><path class="cls-1" d="M162,63.05c3.14.35,6.28.62,9.4,1.08,32.88,4.77,59.35,20.25,78.86,47.32.19.26.53.49.41,1h-2.78C222.08,82.29,189.58,67.85,150.06,72S81.74,96.78,63,131.66H46.84a80.34,80.34,0,0,1,5.36-10.15C70.56,91.83,96.86,73.3,130.86,65.67a101.49,101.49,0,0,1,17.46-2.33c.45,0,1,.11,1.33-.29Z"/><path class="cls-2" d="M44.44,162.61H62v7.84c4.61-7.16,11.47-8.86,19.42-8.43v16.76a16.83,16.83,0,0,0-9.29-1.41c-4.86.5-8,3.09-9.31,7.78A29.36,29.36,0,0,0,62,193c0,6.28,0,12.56,0,19H44.44Z"/><path class="cls-2" d="M114,218.05h19.35a11.08,11.08,0,0,0,14.48,3.62,8.28,8.28,0,0,0,4.14-4.82c1.15-3.25,1.21-6.62,1.12-10.25-1.42,1.12-2.59,2.15-3.87,3-10.06,6.83-24.93,3.55-32-7-8.1-12.13-4.34-30.31,8.09-37.92,7-4.26,14.42-5.07,22-1.65a15.72,15.72,0,0,1,5.69,4.92v-5.24h17.4a2.94,2.94,0,0,1,.2,1.73q0,21,0,42c0,5.18-.42,10.32-2.25,15.25-2.43,6.53-6.83,11.17-13.46,13.21-11.11,3.42-21.93,2.74-32-3.46C117.67,228.22,114.45,223.23,114,218.05Zm28.49-42.12c-6.68,0-11.27,4.47-11.31,11.08s4.44,11.13,11.18,11.18,11.32-4.49,11.35-11.06S149.12,176,142.51,175.93Z"/><path class="cls-2" d="M231.22,190.35H194.71a9.3,9.3,0,0,0,5.1,10c5.21,2.34,10.72,1,14-3.42h16.65A9.81,9.81,0,0,1,229.2,201a20.78,20.78,0,0,1-12.42,10.82A33.24,33.24,0,0,1,189.47,210c-8.94-4.6-13.52-14.59-12.48-25.48,1.47-15.33,12.91-23.75,27.82-23.5,5.75.1,11.22,1.23,16,4.56,6.86,4.76,9.69,11.7,10.36,19.72C231.33,187,231.22,188.6,231.22,190.35Zm-36.38-10.1h20.09a9.58,9.58,0,0,0-9.65-7.79C199.85,172.38,196,175.21,194.84,180.25Z"/><path class="cls-2" d="M255.56,212.07H238.33V132.15h17.23Z"/><path class="cls-2" d="M105.82,212.06H88.6V162.73h17.22Z"/></svg>