<svg id="Layer_1" data-name="Layer 1" xmlns="http://www.w3.org/2000/svg" viewBox="0 0 300 300"><defs><style>.cls-1{fill:#122d7e;}</style></defs><title>RPRX</title><path class="cls-1" d="M108.06,161.59l42.88,35.14h-1.85q-14.44,0-28.89,0a2.46,2.46,0,0,1-1.89-.79c-3.29-3.19-6.63-6.35-10-9.51l-7.66-7.18L89,168.28q-3.53-3.28-7.08-6.56a1.52,1.52,0,0,0-.93-.41c-6.59,0-13.18,0-19.78,0,0,0-.06,0-.25.13v35.21H39.5V102.86h1.22c27.51,0,55,0,82.53,0A19.15,19.15,0,0,1,136,107.48a13.85,13.85,0,0,1,4.47,8.26A36.9,36.9,0,0,1,141,122c.06,7.49.1,15,0,22.46a16.86,16.86,0,0,1-3,9.89,15.65,15.65,0,0,1-8.32,5.76,31.75,31.75,0,0,1-10.31,1.24c-3.72-.07-7.43,0-11.15,0ZM61,145.1h1.57q24.34,0,48.67,0c1,0,1.91-.14,2.87-.22,4.26-.36,5.45-2.81,5.62-6.26.21-4.36.16-8.74,0-13.11-.1-3.11-1.31-5.09-4.27-5.88a17.5,17.5,0,0,0-4.5-.55q-24.34-.06-48.67,0H61Z"/><path class="cls-1" d="M158.94,103.35h1.32c27.46,0,54.93,0,82.39.05A19,19,0,0,1,255.53,108a13.65,13.65,0,0,1,4.42,8.28,42,42,0,0,1,.5,6.34c.06,6.95.08,13.91,0,20.87a17.37,17.37,0,0,1-3.5,10.82,15.7,15.7,0,0,1-8.24,5.22,36,36,0,0,1-10.55,1.24q-28,0-56.06,0h-1.71v36.35H158.94Zm21.5,16.18v24.84H182q21.48,0,43,0c2.74,0,5.47-.07,8.2-.25,4.16-.26,5.77-2.1,6-6.23.23-3.95.16-7.93,0-11.88-.12-3.11-1.31-5.11-4.27-5.89a18,18,0,0,0-4.62-.55q-24.21-.06-48.42,0Z"/></svg>