<svg id="Layer_1" data-name="Layer 1" xmlns="http://www.w3.org/2000/svg" viewBox="0 0 300 300"><defs><style>.cls-1{fill:#4e60ac;}.cls-2{fill:#f36f21;}.cls-3{fill:#d6a2ca;}</style></defs><path class="cls-1" d="M246.63,144.26c-1.26-23.49-20.95-39.7-22-40.2h0c.11.44.22.77.22.83,2,7.94,4.14,28.28,4.14,28.28,1.49,13.57-6.29,25-25.42,32.87-7.78,3.14-20.57,7.39-29.28,12.57-5.63,3.31-9.49,7.89-11.25,19a142.83,142.83,0,0,0-1,22.88c.16,6.07-.61,22.45,16.21,21.23s40.31-18.3,55.64-44.06A93.06,93.06,0,0,0,246.63,144.26Z"/><path class="cls-2" d="M224.85,104.89s-.6-2.26-.71-2.65c-10.09-35.35-27.35-42.57-51.62-43.89-32.47-1.88-66.72,22.05-88.66,43.89a171.17,171.17,0,0,0-13.51,15.05c-26,33.09-19,62.59-1.6,80.23A59.45,59.45,0,0,0,85.9,209.66a49.78,49.78,0,0,0,22.83,4.85c13.67-.77,20.56-8.82,25.36-14.61.66-.78,1.93-2.38,1.93-2.38-.66,0-2.1.06-2.15.06-21.12-.17-36.39-15-37.77-40.58A44,44,0,0,1,105,127.6c10-13.56,28.72-22.55,55.3-24.81,25.53-2.15,42.57,3.36,52.83,9.43,8.55,5,14.45,13.12,15.93,20.84v.06C228.77,131.35,226.89,112.83,224.85,104.89Z"/><path class="cls-3" d="M108.73,214.51c-7.39.44-15.39-1.38-22.83-4.85h-.06c10.48,16.1,27.19,30.21,48.75,32,11.19.94,19.57-4.69,20.12-20.46.39-11.25-.11-19-2.42-23.6a8.62,8.62,0,0,0-7.61-5.13c-3.7-.27-6.12,2-8.71,5.07,0,0-1.27,1.55-1.93,2.38C129.29,205.69,122.4,213.74,108.73,214.51Z"/></svg>