<svg id="Layer_1" data-name="Layer 1" xmlns="http://www.w3.org/2000/svg" viewBox="0 0 300 300"><path d="M145.542,146.52606c-8.189,13.23655-20.12644,20.18415-35.65076,20.27021-20.575.11407-38.0711-16.07287-40.00774-36.49223C67.7806,108.13175,83.51367,88.169,104.99679,85.75081c22.63863-2.54824,42.46186,12.51621,45.63375,34.87523A40.93708,40.93708,0,0,1,147.93,141.82853Q146.73589,144.17728,145.542,146.52606Z" fill="#48b7a6"/><path d="M202.93966,185.7538c-3.944,1.637-7.804,3.36961-12.2012,3.7234-13.50828,1.0869-25.40648-9.224-26.77285-23.4138-1.21969-12.66645,8.912-25.12439,21.6176-26.58115,15.73371-1.804,28.461,9.38208,28.5863,25.12171.00465.58381.0389,1.16738.05936,1.751q-.383,2.361-.766,4.72209a30.20417,30.20417,0,0,1-7.6254,12.262C204.841,184.10747,203.60922,184.59431,202.93966,185.7538Z" fill="#01a69f"/><path d="M259.36962,193.33588A15.51919,15.51919,0,1,1,275,177.83125,15.47029,15.47029,0,0,1,259.36962,193.33588Z" fill="#0295b2"/><path d="M53.457,101.37383c-7.627,9.52844-18.97289,7.6096-24.4507,1.5284a15.56031,15.56031,0,0,1,15.55158-25.4684A15.17127,15.17127,0,0,1,55.97715,92.21449c-.0025,1.73612-.32666,3.47179-.50211,5.20737Q54.46679,99.39756,53.457,101.37383Z" fill="#53afb8"/><path d="M234.65515,213.38281a9.54174,9.54174,0,0,1-9.5301,9.7348,9.62533,9.62533,0,0,1-.20753-19.24942A9.50864,9.50864,0,0,1,234.65515,213.38281Z" fill="#389aae"/><path d="M213.46284,171.0771q.383-2.361.766-4.72209c7.34972,1.22506,14.7068,2.40856,22.04287,3.71037,1.46.25908,3.29824.54938,2.95213,2.81-.36106,2.35759-2.29995,1.86856-3.69113,1.65637-6.12144-.93366-12.22365-2.00267-18.313-3.12927A20.53083,20.53083,0,0,0,213.46284,171.0771Z" fill="#b6dae3"/><path d="M202.93966,185.7538c.66956-1.15949,1.90134-1.64633,2.89778-2.41469,3.60589,4.90478,7.22472,9.80012,10.808,14.72126.85,1.16735,1.38732,2.44241-.10827,3.54977-1.29614.95964-2.44268.46431-3.27808-.65786q-5.10676-6.85977-10.09876-13.80437C202.91455,186.807,203.0053,186.22417,202.93966,185.7538Z" fill="#b6dae3"/><path d="M145.542,146.52606q1.194-2.34878,2.388-4.69754c3.55669,1.785,7.14942,3.50317,10.65276,5.387,1.45962.78487,4.22553,1.07459,3.04524,3.65861-1.313,2.875-3.44642.98808-5.1825.18743-2.55581-1.17872-5.05807-2.47431-7.57083-3.74439A5.25166,5.25166,0,0,0,145.542,146.52606Z" fill="#b6dae3"/><path d="M53.457,101.37384q1.00938-1.97615,2.01805-3.952c3.93137,1.8775,7.85012,3.78367,11.80248,5.61758a2.27588,2.27588,0,0,1,1.30354,3.32554c-.70324,1.4702-2.132,1.15323-3.302.60031-3.50734-1.65746-6.968-3.41312-10.455-5.114A11.85559,11.85559,0,0,0,53.457,101.37384Z" fill="#b6dae3"/></svg>