<svg id="Layer_1" data-name="Layer 1" xmlns="http://www.w3.org/2000/svg" viewBox="0 0 300 300"><path d="M152.41344,199.0922c-.44728-.45879-1.02836-.32284-1.56289-.32342q-17.73775-.01907-35.47555-.01629a10.82644,10.82644,0,0,0-1.13308.13754c-1.0862,2.08282-1.20987,4.54542-2.265,7.43087,0-6.27811-.00043-11.86508.00013-17.45206.00055-5.59152.21116-11.19269-.04709-16.77223-.36317-7.8467,2.26389-14.62577,6.61219-20.93394,5.69686-8.26456,12.94867-15.10006,20.16859-21.9638,3.41453-3.24607,6.88581-6.43255,10.33136-9.64557,5.834-5.52016,12.05954-10.64783,17.082-16.98308,9.58849-10.06473,17.32269-21.1328,19.10727-34.73326.42593,4.7278.14842,10.10641.1895,15.48258.04216,5.51932-.07109,11.04079.03543,16.55839a40.12987,40.12987,0,0,1-2.76565,15.46229,20.527,20.527,0,0,0-.60427,2.26192c-.27459.27268-.65652.49482-.80919.8233-2.93594,6.31675-7.543,11.44036-11.922,16.72729-1.70138,1.7882-3.40278,3.57639-5.28063,5.55,3.92828-.137,7.738.30826,11.54348-.292,2.8928.04781,5.78766.04519,8.67759.16316,1.61527.06592,3.02021.50305,2.33841,2.68882-2.03374,1.63935-4.45147.45971-6.60174.99676h-20.358L147.49184,155.0603h41.369c1.02433.22664,2.14841-.28079,3.12013.37635.307,1.22932-.47561,2.08329-.91189,3.04109H143.58092a140.55054,140.55054,0,0,0-10.39351,10.33636c1.42728,0,2.36123-.00153,3.29517.00025q24.01116.04568,48.02233.09209-1.34447,1.81462-2.68894,3.6293c-.81-.75166-1.8083-.39776-2.713-.3991q-22.37546-.03307-44.751.00151a14.42235,14.42235,0,0,0-4.529.21763c-2.58915,3.13408-5.34913,6.18975-7.47414,10.04986.84107.04535,1.30007.09173,1.75906.0917q21.90149-.00133,43.80294-.00236c.93825.00049,1.87642.12511,2.81463.192-.26443,1.67386-1.80963,2.228-2.83526,3.23633H120.08458a46.59437,46.59437,0,0,0-4.55071,9.52463h41.06661Q154.50695,197.27006,152.41344,199.0922Z" fill="#06a3d9"/><path d="M124.14067,272.36343s.14342-1.57431.15549-2.94461c.08538-9.69047-.2252-19.39252.14025-29.07016.35611-9.43037,4.92239-17.25987,10.77242-24.39777,5.11848-6.24532,11.137-11.577,17.20424-16.85837q2.09406-1.8226,4.18729-3.64456c3.88672-3.02877,7.66472-6.18631,11.28987-9.52466,1.02563-1.00835,2.57083-1.56247,2.83653-3.2362a3.45449,3.45449,0,0,0,2.38854-1.31845q4.34686-4.41986,8.70067-8.83291,1.34447-1.81465,2.68906-3.62933a37.009,37.009,0,0,0,6.564-10.42867c.43628-.9578,1.21891-1.81177.91189-3.04109-.97172-.65714-2.0958-.14971-3.12058-.37564-2.21833-4.191-5.74489-7.31546-8.828-10.80152,2.15027-.537,4.568.64259,6.60174-.99676.6818-2.18577-.72314-2.6229-2.33841-2.68882-2.88993-.118-5.78479-.11535-8.67763-.16321l-6.26281-5.258c4.379-5.28691,8.986-10.41052,11.922-16.72727.15267-.32848.5346-.55062.80919-.8233,5.51171,6.16188,10.21572,12.7868,12.06653,21.04533a27.92244,27.92244,0,0,1,.74105,6.07854c.01022,7.24872-.18938,14.505.07505,21.74441.41312,11.31028-3.32641,21.13225-9.9573,30.067-7.19135,9.68994-16.17884,17.62445-25.03825,25.68817-8.509,7.74481-17.12458,15.375-24.29986,24.45446-6.02711,7.62662-10.11118,16.03675-11.53294,25.68335" fill="#253672"/><path d="M166.12411,102.57022c-5.02243,6.33525-11.248,11.46292-17.082,16.98308-7.11258-5.85895-14.36589-11.55523-20.818-18.1704-10.16458-10.42144-18.24551-22.0668-21.62281-36.50239a50.48384,50.48384,0,0,1-1.54037-10.73161c-.12717-8.82244-.04147-17.64794.12953-26.51233.4858,2.29.8951,4.59941,1.47014,6.86685,3.12468,12.32094,10.05061,22.45391,18.45725,31.70445,10.27526,11.30675,22.264,20.70861,33.99519,30.39548C161.47917,98.55714,163.78857,100.57948,166.12411,102.57022Z" fill="#253672"/><path d="M144.62275,61.9612c.03235-6.17113,1.37666-10.86671,4.6414-14.86389,5.7061-6.98625,14.65365-6.85407,20.22392.23244,5.86667,7.4636,5.9376,19.87428.15639,27.36257-5.91076,7.6561-15.50731,7.4727-21.081-.44675A21.026,21.026,0,0,1,144.62275,61.9612Z" fill="#253672"/></svg>