<svg id="Layer_1" data-name="Layer 1" xmlns="http://www.w3.org/2000/svg" xmlns:xlink="http://www.w3.org/1999/xlink" viewBox="0 0 300 300"><defs><radialGradient id="radial-gradient" cx="-2714.89518" cy="7476.73624" r="60.10393" gradientTransform="matrix(0.70711, 0.70711, 0.70711, -0.70711, -3225.43393, 7312.07834)" gradientUnits="userSpaceOnUse"><stop offset="0" stop-color="#fffac2"/><stop offset="1" stop-color="#cda349"/></radialGradient><radialGradient id="radial-gradient-2" cx="497.83758" cy="14097.59899" r="61.13646" gradientTransform="matrix(1, 0, 0, -1, -54.78, 14398.4)" xlink:href="#radial-gradient"/></defs><path d="M147.54791,196.29492a30.05457,30.05457,0,0,1-30.21572-4.53235c-3.44459-2.84029-7.39277-8.27911-9.40715-20.14381l-3.20287,5.68057s1.7928,17.20279,16.4575,24.29342a33.01576,33.01576,0,0,0,17.62583,2.377Z" fill="#c3922e"/><path d="M152.52343,103.3514a30.05458,30.05458,0,0,1,30.21571,4.53236c3.42445,2.86042,7.39278,8.29926,9.40716,20.14383l3.30358-5.72084s-1.79279-17.20281-16.45749-24.29343a33.09629,33.09629,0,0,0-17.646-2.39712Z" fill="#c3922e"/><path d="M111.77251,117.43192c6.46616-8.31939,32.71354-32.23009,49.4329-49.99693a60.04872,60.04872,0,0,0,16.29633-39.01857s6.68775,15.65174,7.01,25.80422c.26187,9.14529-.96691,24.95818-11.38125,38.27324-6.46616,8.33953-32.6934,32.23009-49.43291,50.01708a68.93208,68.93208,0,0,0-17.80713,40.08617s-4.02876-17.86755-5.49926-26.892S101.35815,130.82754,111.77251,117.43192Z" fill="url(#radial-gradient)"/><path d="M185.43841,206.89059c-3.26331-26.42867-52.37391-104.22408-51.407-125.47579,1.81294-39.925,43.47034-52.99836,43.47034-52.99836-39.502-7.57408-76.02274,29.04737-71.28894,67.42133,3.28345,26.40852,52.37391,104.20393,51.42714,125.45563-1.81294,39.925-40.79121,50.2185-40.79121,50.2185C156.33061,279.10612,190.19235,245.24439,185.43841,206.89059Z" fill="#2f2f2f"/><path d="M124.70483,207.1726c6.6676-8.35967,33.70059-32.43155,50.96385-50.21853A68.65012,68.65012,0,0,0,194.1204,116.8679s4.02876,17.84741,5.49927,26.8517-1.08777,24.95818-11.82443,38.41423c-6.68774,8.33953-33.72073,32.43154-50.984,50.19837a75.98229,75.98229,0,0,0-19.96252,39.26029S113.02143,255.135,112.82,245.64726C112.71926,236.44155,113.948,220.60852,124.70483,207.1726Z" fill="url(#radial-gradient-2)"/></svg>