<svg id="Layer_1" data-name="Layer 1" xmlns="http://www.w3.org/2000/svg" viewBox="0 0 300 300"><defs><style>.cls-1{fill:#6790b5;}.cls-2{fill:#123849;}</style></defs><path id="Path_7" data-name="Path 7" class="cls-1" d="M139.27,224.05c10-16.59,6.64-32.29,3.12-48.91-3.45-16.34-7-33.22,4.18-48.8a36.31,36.31,0,0,1,29-16L150,66.14,53.18,233.86h69.7C130.42,231.93,136.39,228.84,139.27,224.05Z"/><path id="Path_8" data-name="Path 8" class="cls-2" d="M159.27,135.49c-6.82,9.48-5.05,20-1.57,36.41,3.61,17.08,8.11,38.34-5,60.21-.38.61-.8,1.17-1.21,1.75h95.34L186.18,128.8a20.62,20.62,0,0,0-4.05-1.79A19.59,19.59,0,0,0,159.27,135.49Z"/></svg>