<svg id="Layer_1" data-name="Layer 1" xmlns="http://www.w3.org/2000/svg" xmlns:xlink="http://www.w3.org/1999/xlink" viewBox="0 0 300 300"><defs><radialGradient id="radial-gradient" cx="1546.40401" cy="163.67474" r="205.90682" gradientTransform="translate(-601.93163 79.90243) scale(0.46732)" gradientUnits="userSpaceOnUse"><stop offset="0" stop-color="#a02615"/><stop offset="0.5" stop-color="#ed463b"/><stop offset="1" stop-color="#a02615"/></radialGradient><radialGradient id="radial-gradient-2" cx="1547.56918" cy="163.52067" r="177.51952" xlink:href="#radial-gradient"/><radialGradient id="radial-gradient-3" cx="1546.65438" cy="164.38733" r="170.33288" xlink:href="#radial-gradient"/></defs><path d="M152.71652,189.82268c-2.01754,11.26006-6.72575,21.03169-11.55883,30.84492-17.01944-3.98627-32.03517-11.47617-46.15494-20.84356-17.89207-11.87-32.32409-27.00176-42.63363-45.91785a95.22345,95.22345,0,0,1-9.88933-30.08794c-2.13981-12.71772-2.30871-25.4773.5181-38.18944,6.57105-29.55,28.35165-45.1364,50.6031-50.09541,15.8172-3.52506,30.89779-.7586,45.18709,6.41854a103.93911,103.93911,0,0,1,34.63621,28.29763c.183.2281.17111.6118.39252,1.4832a172.31466,172.31466,0,0,0-30.52354,1.55316c-5.08477-6.17186-10.38437-11.58372-16.78778-15.79766-7.42618-4.887-15.332-8.47793-24.36966-9.10831-19.54556-1.36332-35.62372,10.0896-39.86552,29.23493-4.45473,20.10637-.3413,38.76237,11.28373,55.75446,12.57657,18.38293,29.68187,31.63263,48.747,42.6315A149.39213,149.39213,0,0,0,152.71652,189.82268Z" fill="url(#radial-gradient)"/><path d="M184.77542,223.78259a161.39751,161.39751,0,0,0,14.32972-27.864c8.04429-1.47376,15.71377-3.35668,22.84782-7.00782,7.63139-3.90569,14.3598-8.88374,19.317-15.95865,11.24275-16.04564,8.95567-37.05448-5.858-49.83454-16.45429-14.1954-35.61858-19.83666-57.32587-17.1195-31.90726,3.99391-58.8762,18.48319-83.36755,38.41367a16.99965,16.99965,0,0,1-1.63888,1.00255c-8.58316-6.91368-14.67911-15.92125-20.792-25.03373A101.62711,101.62711,0,0,1,89.9005,104.89145c18.13746-12.77031,37.78158-22.20874,59.8003-26.06329,33.3139-5.83189,63.17876,2.01781,88.63177,24.17215,16.88671,14.69825,23.76936,33.81038,21.11438,56.25805-2.27471,19.232-11.60283,34.17193-26.97611,45.58485C218.5134,215.20505,202.68306,220.9069,184.77542,223.78259Z" fill="url(#radial-gradient-2)"/><path d="M48.24966,156.41557a164.3618,164.3618,0,0,0,16.91065,25.81459,70.65924,70.65924,0,0,0-5.51281,25.13471c-.64256,20.47144,8.9259,37.61683,28.452,43.25679,9.9277,2.86752,19.43236.97559,28.52341-3.24375,19.04026-8.837,31.79291-23.40158,39.03341-43.00294a137.36781,137.36781,0,0,0,8.38916-38.31463c.30264-4.36915.72636-8.72212.78113-13.11022.15361-12.312-.38693-24.56-3.25978-36.98848,10.50305-4.067,21.33477-4.89519,32.32792-5.58747a57.91272,57.91272,0,0,1,3.94355,15.833c3.15788,23.84689,2.14124,47.43564-5.84356,70.35251-10.51355,30.17459-30.63839,51.59485-60.14395,63.896-26.83758,11.18881-53.32451,5.001-73.15688-14.78949-10.25109-10.22948-15.57269-22.9144-17.87737-37.14115C38.165,192.15665,42.32039,168.17735,48.24966,156.41557Z" fill="url(#radial-gradient-3)"/></svg>