<svg id="Layer_1" data-name="Layer 1" xmlns="http://www.w3.org/2000/svg" xmlns:xlink="http://www.w3.org/1999/xlink" viewBox="0 0 300 300"><defs><linearGradient id="linear-gradient" x1="139.95472" y1="266.07876" x2="139.95472" y2="33.28764" gradientUnits="userSpaceOnUse"><stop offset="0" stop-color="#752c67"/><stop offset="1" stop-color="#f2a08b"/></linearGradient><linearGradient id="linear-gradient-2" x1="153.78491" y1="266.07876" x2="153.78491" y2="33.28764" xlink:href="#linear-gradient"/></defs><path d="M110.75152,153.41779c.83714.37283,1.62238.92352,2.2516.79378,9.27169-9.2471,18.316-18.26751,27.41425-27.34152a107.19568,107.19568,0,0,1-15.5871-7.06754c-5.088-2.83815-9.77118-6.14369-13.4847-10.7838-9.29524-11.61444-5.93235-28.403,4.95182-36.80576,9.538-7.36389,20.71236-8.7507,32.15507-8.8002a53.40939,53.40939,0,0,1,9.63768,1.05291c8.29287,1.50971,15.72333,4.56636,21.74308,10.65542a54.06626,54.06626,0,0,1,5.5148,6.35229c8.16142-8.1307,16.29621-16.23476,24.56142-24.4689a4.162,4.162,0,0,0-.536-.85182,56.7871,56.7871,0,0,0-14.02037-11.33073c-10.83023-6.22665-22.686-9.27135-34.98946-10.07264a126.94383,126.94383,0,0,0-29.15647,1.10105c-10.69639,1.77806-20.921,4.79784-30.40773,10.0262A58.97775,58.97775,0,0,0,79.36052,65.28641c-8.76776,13.46557-10.862,28.362-8.40245,43.95183a48.26618,48.26618,0,0,0,14.3587,27.51087C92.7148,143.99384,101.36887,149.23961,110.75152,153.41779Z" fill="url(#linear-gradient)"/><path d="M219.149,166.81c-.38546-1.29019-1.466-2.05427-2.30418-2.99076-7.97194-8.90433-18.04526-14.753-28.7915-19.569-2.60223-1.16592-5.13447-2.62511-8.158-3.10718-9.37308,9.02212-18.71817,18.0176-28.14145,27.08752,1.61351,1.26936,3.3769,1.39978,5.003,1.89312,1.58653.66336,3.16453,1.34857,4.76131,1.986,7.76879,3.10138,15.29792,6.61791,21.93119,11.84251,15.59017,12.27849,12.97975,34.72009-1.40525,44.51072-7.31984,4.98221-15.4857,7.25634-24.15275,7.84289a85.37339,85.37339,0,0,1-20.17463-.67941,57.12342,57.12342,0,0,1-23.42077-9.075,46.641,46.641,0,0,1-11.35361-11.33381q-12.92631,12.428-25.37261,24.39413a6.69343,6.69343,0,0,0,2.23761,3.04435,73.31406,73.31406,0,0,0,23.77481,15.40377c11.82987,4.89651,24.2818,6.84391,36.94574,7.40622a124.20517,124.20517,0,0,0,37.92014-3.902c12.27507-3.295,23.48734-8.63872,32.8891-17.31157,12.97736-11.97088,18.49012-27.22886,18.65877-44.50936a50.49,50.49,0,0,0-1.20142-12.42017C226.967,179.81976,224.27327,172.75222,219.149,166.81Z" fill="url(#linear-gradient-2)"/></svg>