<svg id="Layer_1" data-name="Layer 1" xmlns="http://www.w3.org/2000/svg" viewBox="0 0 300 300"><path d="M157.41146,139.47019c-32.18694-17.40359-58.98558-33.491-65.68508-50.31A42.01711,42.01711,0,0,1,87.503,47.9175a35.19191,35.19191,0,0,1,4.66094-7.89735C81.53155,44.70046,73.376,52.15884,68.56942,62.98131c-16.45749,37.14769,26.65232,69.46875,74.86063,96.08593,28.10841,15.50278,48.20758,27.93413,58.40241,40.21915A46.06944,46.06944,0,0,1,215.52265,253.984c-.29122.73093-.728,1.31624-1.01925,2.04714a52.02118,52.02118,0,0,0,16.45748-20.62136C247.27277,198.11648,212.46413,169.45145,157.41146,139.47019Z"/><path d="M198.04517,74.24275V35.48617H154.20732v14.4792h29.274V74.24275Z"/><path d="M98.71709,225.319H84.29885v39.19486h43.10982V250.03534H98.71709Z"/></svg>