<?xml version="1.0" encoding="utf-8"?>
<!-- Generator: Adobe Illustrator 24.2.3, SVG Export Plug-In . SVG Version: 6.00 Build 0)  -->
<svg version="1.1" id="Layer_1" xmlns="http://www.w3.org/2000/svg" xmlns:xlink="http://www.w3.org/1999/xlink" x="0px" y="0px"
	 viewBox="0 0 300 300" style="enable-background:new 0 0 300 300;" xml:space="preserve">
<style type="text/css">
	.st0{fill:#000091;}
	.st1{fill:#000072;}
	.st2{fill:#032FD5;}
	.st3{fill:url(#SVGID_1_);}
	.st4{fill:#1395FF;}
	.st5{fill:url(#SVGID_2_);}
	.st6{fill:url(#SVGID_3_);}
	.st7{fill:url(#SVGID_4_);}
	.st8{fill:url(#SVGID_5_);}
	.st9{fill:#053EFF;}
	.st10{fill:url(#SVGID_6_);}
	.st11{fill:url(#SVGID_7_);}
	.st12{fill:url(#SVGID_8_);}
</style>
<g>
	<path class="st0" d="M261.1,147.8c-5.8-2.2-12.1-4.2-20-6.5c-2.5-0.7-5-1.4-7.5-2c-1.2-0.3-2.4-0.6-3.7-1l-11.1-2.7
		c-7.3-1.7-14.9-3-22.4-4.1l-2.1-0.3c2.2,0.9,4.5,1.9,6.6,2.8l11.6,4.6c3.7,0.4,7.4,0.8,11,1.4l10,1.7c1.1,0.2,2.2,0.4,3.3,0.6
		c2.2,0.4,4.5,0.8,6.7,1.4c6.4,1.4,11.6,2.7,16.4,4.1l0.3,0.1c0.7,0.1,1.4,0.2,2.1,0.3L261.1,147.8z"/>
	<path class="st0" d="M259.5,156.5l-1.4,0.4c0.3,0,0.5,0,0.7-0.1L259.5,156.5z"/>
	<path class="st1" d="M257.9,147.8c-4.7-1.4-9.8-2.7-16.1-4.1c-2.2-0.5-4.4-0.9-6.6-1.3c-1.1-0.2-2.1-0.4-3.2-0.6l-9.8-1.6
		c-3.6-0.5-7.2-1-10.8-1.4l3.7,1.5l4.9,1.9c3.3,1.3,6.8,2.6,10.2,3.8l0.5,0.2c4.1,0,8.3,0.1,12.5,0.3c1.4,0.1,2.8,0.1,4.2,0.2
		c3.7,0.3,7.1,0.6,10.2,1.1l0.5,0.1L257.9,147.8z"/>
	<path class="st0" d="M258.1,156.9c-4.9,0.4-10.2,0.7-16.7,0.7c-2.2,0-4.4,0-6.6-0.1c-1.1,0-2.1-0.1-3.2-0.1l-9.8-0.4l-1.7-0.1
		c-2-0.1-4-0.3-6-0.5c-0.8,0.3-1.6,0.5-2.4,0.8l-4,1.4c-4,1.4-8.1,2.9-12.1,4.2l-5.7,1.9l1.6-0.1c4.3-0.2,8.8-0.2,13.1-0.2l4.3,0
		c5.8-0.1,11.7-0.5,17.5-1.2c5.6-0.7,11.4-1.6,17.4-2.8C249.2,159.2,253.8,158.1,258.1,156.9"/>
	<path class="st1" d="M223.6,153.5c-3.2,0.8-6.4,1.8-9.6,2.8c2,0.2,4,0.4,6,0.5l1.7,0.1l9.8,0.4c1.1,0,2.1,0,3.2,0.1
		c2.2,0.1,4.4,0.1,6.6,0.1c6.5,0,11.8-0.2,16.7-0.7l1.4-0.4l0.5-0.3c-4.6,0-9.5-0.1-15-0.5c-2.1-0.1-4.2-0.3-6.4-0.5
		c-2.5-0.2-4.9-0.5-7.4-0.7c-1.2-0.1-2.4-0.3-3.6-0.4L223.6,153.5z"/>
	<path class="st1" d="M230.8,146.2c-1.7,0-3.3,0-5,0.1c-5.8,0.1-11.7,0.6-17.5,1.3l-4.2,0.6c-2.3,0.3-4.7,0.6-7.1,0.9
		c6.6,1.5,13.1,2.7,19.6,3.6l6.9,0.9c1.5-0.4,2.9-0.7,4.4-1.1c4.2-1,8.6-1.9,13.1-2.6C237.8,148.7,234.5,147.5,230.8,146.2"/>
	<path class="st1" d="M247.5,146.7c-1.4-0.1-2.8-0.2-4.2-0.2c-4.2-0.2-8.4-0.3-12.5-0.3c3.6,1.3,7,2.6,10.2,3.7
		c1.1-0.2,2.2-0.4,3.3-0.5c5.1-0.8,9.4-1.3,13.3-1.5C254.6,147.3,251.2,147,247.5,146.7"/>
	<path class="st1" d="M241.1,149.8c-4.5,0.8-8.9,1.6-13.1,2.6c-1.5,0.3-2.9,0.7-4.4,1.1l4,0.5c1.2,0.1,2.4,0.3,3.6,0.4
		c2.4,0.3,4.9,0.5,7.4,0.7c2.1,0.2,4.2,0.4,6.4,0.5c5.5,0.4,10.4,0.5,15,0.5l0.3-0.2C254.3,154.3,248.1,152.3,241.1,149.8
		L241.1,149.8z"/>
	<path class="st0" d="M262.6,157.2l-1.4,0.4l0.8-0.1L262.6,157.2z"/>
	<path class="st1" d="M261,148.3c-4.8-1.4-10-2.8-16.4-4.1c-2.3-0.5-4.5-1-6.7-1.4c-1.1-0.2-2.2-0.4-3.3-0.6l-10-1.6
		c-3.6-0.6-7.3-1-11-1.4l3.8,1.5c1.7,0.6,3.4,1.3,5,1.9c3.4,1.3,6.9,2.7,10.4,3.9l0.5,0.2c4.2,0,8.4,0.1,12.8,0.3
		c1.4,0.1,2.8,0.2,4.3,0.3c3.8,0.3,7.2,0.6,10.5,1.1l0.5,0.1L261,148.3z"/>
	<path class="st0" d="M261.2,157.6c-5,0.5-10.4,0.7-17,0.7c-2.2,0-4.5,0-6.7-0.1c-1.1,0-2.2-0.1-3.3-0.1l-10-0.4l-1.8-0.1
		c-2-0.1-4.1-0.3-6.2-0.5c-0.8,0.3-1.6,0.5-2.4,0.8l-4,1.4c-4.1,1.4-8.3,2.9-12.4,4.3l-5.8,1.9l1.6-0.1c4.4-0.2,9-0.2,13.4-0.2
		l4.4-0.1c6-0.1,11.9-0.5,17.8-1.2c5.7-0.7,11.7-1.7,17.8-2.8C252.2,160,256.8,158.9,261.2,157.6"/>
	<path class="st1" d="M225.9,154.2c-3.3,0.9-6.5,1.8-9.8,2.9c2.1,0.2,4.1,0.4,6.2,0.5l1.8,0.1l10,0.4c1.1,0,2.2,0,3.3,0.1
		c2.2,0.1,4.5,0.1,6.7,0.1c6.6,0,12-0.2,17-0.7l1.4-0.4l0.5-0.3c-4.7,0-9.7-0.1-15.3-0.5c-2.2-0.2-4.3-0.3-6.5-0.5
		c-2.5-0.2-5.1-0.5-7.5-0.7c-1.2-0.1-2.4-0.3-3.7-0.4L225.9,154.2"/>
	<path class="st1" d="M233.3,146.7c-1.7,0-3.4,0-5.1,0.1c-6,0.1-11.9,0.6-17.8,1.3l-4.3,0.6c-2.4,0.3-4.8,0.6-7.3,1
		c6.7,1.5,13.4,2.7,20.1,3.7l7.1,0.9c1.5-0.4,3-0.8,4.5-1.1c4.3-1,8.8-1.9,13.4-2.7C240.5,149.3,237,148,233.3,146.7"/>
	<path class="st1" d="M250.3,147.2c-1.4-0.1-2.8-0.2-4.3-0.3c-4.3-0.2-8.6-0.3-12.8-0.3c3.7,1.4,7.2,2.6,10.5,3.8
		c1.1-0.2,2.3-0.4,3.4-0.6c5.3-0.8,9.6-1.3,13.6-1.5C257.6,147.8,254.1,147.5,250.3,147.2"/>
	<path class="st1" d="M243.8,150.4c-4.6,0.8-9.1,1.7-13.4,2.7c-1.5,0.3-3,0.7-4.5,1.1l4.1,0.5c1.2,0.1,2.4,0.3,3.7,0.4
		c2.5,0.3,5,0.6,7.5,0.7c2.2,0.2,4.3,0.4,6.5,0.5c5.6,0.4,10.7,0.6,15.3,0.5l0.3-0.2C257.3,155,251,152.9,243.8,150.4"/>
	<path class="st2" d="M116,193.2l75.5-27.6l65.8-7.2L116,193.2z"/>
	
		<linearGradient id="SVGID_1_" gradientUnits="userSpaceOnUse" x1="21.9145" y1="-5748.0752" x2="226.3191" y2="-5748.0752" gradientTransform="matrix(1 0 0 1 0 5905.6606)">
		<stop  offset="0" style="stop-color:#9F0005"/>
		<stop  offset="0.65" style="stop-color:#CA0006"/>
		<stop  offset="1" style="stop-color:#CA0006"/>
	</linearGradient>
	<path class="st3" d="M21.9,158.4l176.9-8.7l27.5,4.7l-34.8,11.3L21.9,158.4z"/>
	<path class="st0" d="M261.5,156.8c-0.5,0.2-1,0.3-1.4,0.4l0.8-0.1L261.5,156.8z"/>
	<path class="st0" d="M260.1,157.2c-5,0.5-10.4,0.7-17,0.7c-2.2,0-4.5,0-6.7-0.1c-1.1,0-2.2-0.1-3.3-0.1l-10-0.4l-1.8-0.1
		c-2-0.1-4.1-0.3-6.2-0.5c-0.8,0.3-1.6,0.5-2.4,0.8l-4.1,1.4c-4.1,1.4-8.3,2.9-12.4,4.3l-5.8,1.9l1.6-0.1c4.4-0.2,9-0.2,13.4-0.2
		l4.4-0.1c6-0.1,11.9-0.5,17.8-1.2c5.7-0.7,11.7-1.7,17.8-2.8C251.1,159.6,255.8,158.5,260.1,157.2"/>
	<path class="st1" d="M224.9,153.8c-3.3,0.9-6.5,1.8-9.8,2.9c2.1,0.2,4.1,0.4,6.2,0.5l1.8,0.1l10,0.5c1.1,0,2.2,0,3.3,0.1
		c2.2,0.1,4.5,0.1,6.7,0.1c6.6,0,12-0.2,17-0.7c0.5-0.1,1-0.3,1.4-0.4l0.5-0.3c-4.7,0-9.7-0.1-15.3-0.5c-2.2-0.2-4.3-0.3-6.5-0.5
		c-2.5-0.2-5.1-0.5-7.5-0.7l-3.7-0.4L224.9,153.8"/>
	<path class="st1" d="M232.3,146.2c-1.7,0-3.4,0-5.1,0.1c-6,0.1-11.9,0.6-17.8,1.3l-4.3,0.6c-2.4,0.3-4.8,0.6-7.3,1
		c6.7,1.5,13.4,2.7,20.1,3.7l7.1,0.9c1.5-0.4,3-0.8,4.5-1.1c4.3-1,8.8-1.9,13.4-2.7C239.5,148.8,236,147.6,232.3,146.2"/>
	<path class="st1" d="M249.3,146.8c-1.4-0.1-2.8-0.2-4.3-0.2c-4.3-0.2-8.6-0.3-12.8-0.3c3.7,1.4,7.2,2.6,10.5,3.8l3.4-0.6
		c5.3-0.8,9.6-1.3,13.6-1.5C256.5,147.4,253.1,147,249.3,146.8"/>
	<path class="st1" d="M242.7,150c-4.6,0.8-9.1,1.7-13.4,2.7c-1.5,0.3-3,0.7-4.5,1.1l4.1,0.5l3.7,0.4c2.5,0.3,5,0.6,7.5,0.7
		c2.2,0.2,4.3,0.4,6.5,0.5c5.6,0.4,10.7,0.6,15.3,0.5l0.3-0.2C256.3,154.6,250,152.5,242.7,150"/>
	<path class="st0" d="M261.5,156.7l-1.4,0.4l0.8-0.1L261.5,156.7z"/>
	<path class="st1" d="M260,147.8c-4.8-1.5-10-2.8-16.4-4.1c-2.3-0.5-4.5-1-6.7-1.4c-1.1-0.2-2.2-0.4-3.3-0.6l-10-1.7
		c-3.6-0.6-7.3-1-11-1.4l3.8,1.5c1.7,0.6,3.4,1.3,5,1.9c3.4,1.3,6.9,2.7,10.4,3.9l0.5,0.2c4.2,0,8.4,0.1,12.8,0.3
		c1.4,0.1,2.8,0.2,4.3,0.2c3.8,0.3,7.2,0.6,10.5,1.1l0.5,0.1L260,147.8z"/>
	<path class="st0" d="M260.1,157.1c-5,0.5-10.4,0.7-17,0.7c-2.2,0-4.5,0-6.7-0.1c-1.1,0-2.2-0.1-3.3-0.1l-10-0.5l-1.8-0.1
		c-2-0.1-4.1-0.3-6.2-0.5c-0.8,0.3-1.6,0.5-2.4,0.8l-4.1,1.4c-4.1,1.4-8.3,2.9-12.4,4.3l-5.8,1.9l1.6-0.1c4.4-0.2,9-0.2,13.4-0.2
		l4.4-0.1c6-0.1,11.9-0.5,17.8-1.2c5.7-0.7,11.7-1.7,17.8-2.8C251.1,159.5,255.8,158.4,260.1,157.1"/>
	<path class="st1" d="M224.9,153.7c-3.3,0.9-6.5,1.8-9.8,2.9c2.1,0.2,4.1,0.4,6.2,0.5l1.8,0.1l10,0.5c1.1,0,2.2,0,3.3,0.1
		c2.2,0.1,4.5,0.1,6.7,0.1c6.6,0,12-0.2,17-0.7l1.4-0.4l0.5-0.3c-4.7,0-9.7-0.1-15.3-0.5c-2.2-0.2-4.3-0.3-6.5-0.5
		c-2.5-0.2-5.1-0.5-7.5-0.7l-3.7-0.4L224.9,153.7"/>
	<path class="st1" d="M232.3,146.2c-1.7,0-3.4,0-5.1,0.1c-6,0.1-11.9,0.6-17.8,1.3l-4.3,0.6c-2.4,0.3-4.8,0.6-7.3,1
		c6.7,1.5,13.4,2.7,20.1,3.7l7.1,0.9c1.5-0.4,3-0.8,4.5-1.1c4.3-1,8.8-1.9,13.4-2.7C239.5,148.8,236,147.5,232.3,146.2"/>
	<path class="st1" d="M249.3,146.7c-1.4-0.1-2.8-0.2-4.3-0.2c-4.3-0.2-8.6-0.3-12.8-0.3c3.7,1.4,7.2,2.6,10.5,3.8l3.4-0.6
		c4.5-0.7,9-1.3,13.6-1.5C256.5,147.3,253.1,147,249.3,146.7"/>
	<path class="st1" d="M242.7,149.9c-4.6,0.8-9.1,1.7-13.4,2.7c-1.5,0.3-3,0.7-4.5,1.1l4.1,0.5l3.7,0.4c2.5,0.3,5,0.6,7.5,0.7
		c2.2,0.2,4.3,0.4,6.5,0.5c5.6,0.4,10.7,0.6,15.3,0.5l0.3-0.2C256.3,154.5,250,152.4,242.7,149.9"/>
	<path class="st4" d="M116,193.2l74.5-28.2l65.8-7.2L116,193.2z"/>
	
		<linearGradient id="SVGID_2_" gradientUnits="userSpaceOnUse" x1="180.4245" y1="-5702.7251" x2="198.6779" y2="-5769.6313" gradientTransform="matrix(1 0 0 1 0 5905.6606)">
		<stop  offset="0" style="stop-color:#9F0005"/>
		<stop  offset="0.79" style="stop-color:#053EFF"/>
		<stop  offset="1" style="stop-color:#00007E"/>
	</linearGradient>
	<path class="st5" d="M272.9,154.7c-3.4-3.4-7.6-5.7-12.3-6.9c-12.8-2.6-29.5-2.3-41.6-4.5c-0.2,0-0.4,0-0.3,0.5
		c1.3,2.1-122.4,42.4-122.4,42.4s180-22.7,182.9-22.9l0.8-0.1L272.9,154.7z"/>
	<path class="st0" d="M261.5,156.7l-1.4,0.4l0.8-0.1L261.5,156.7z"/>
	
		<linearGradient id="SVGID_3_" gradientUnits="userSpaceOnUse" x1="236.3811" y1="-5766.7881" x2="236.3811" y2="-5759.7539" gradientTransform="matrix(1 0 0 1 0 5905.6606)">
		<stop  offset="0" style="stop-color:#053EFF"/>
		<stop  offset="1" style="stop-color:#00007E"/>
	</linearGradient>
	<path class="st6" d="M260,147.8c-4.8-1.5-10-2.8-16.4-4.1c-2.3-0.5-4.5-1-6.7-1.4c-1.1-0.2-2.2-0.4-3.3-0.6l-10-1.7
		c-3.6-0.6-7.3-1-11-1.4l3.8,1.5c1.7,0.6,3.4,1.3,5,1.9c3.4,1.3,6.9,2.7,10.4,3.9l0.5,0.2c4.2,0,8.4,0.1,12.8,0.3
		c1.4,0.1,2.8,0.2,4.3,0.2c3.8,0.3,7.2,0.6,10.5,1.1l0.5,0.1L260,147.8z"/>
	<path class="st1" d="M224.9,153.7c-3.3,0.9-6.5,1.8-9.8,2.9c2.1,0.2,4.1,0.4,6.2,0.5l1.8,0.1l10,0.5c1.1,0,2.2,0,3.3,0.1
		c2.2,0.1,4.5,0.1,6.7,0.1c6.6,0,12-0.2,17-0.7l1.4-0.4l0.5-0.3c-4.7,0-9.7-0.1-15.3-0.5c-2.2-0.2-4.3-0.3-6.5-0.5
		c-2.5-0.2-5.1-0.5-7.5-0.7l-3.7-0.4L224.9,153.7"/>
	<path class="st1" d="M232.3,146.2c-1.7,0-3.4,0-5.1,0.1c-6,0.1-11.9,0.6-17.8,1.3l-4.3,0.6c-2.4,0.3-4.8,0.6-7.3,1
		c6.7,1.5,13.4,2.7,20.1,3.7l6.7,1.1c1.5-0.4,3.4-1,4.9-1.3c4.3-1,8.8-1.9,13.4-2.7C239.5,148.7,236,147.5,232.3,146.2"/>
	<path class="st1" d="M249.3,146.7c-1.4-0.1-2.8-0.2-4.3-0.2c-4.3-0.2-8.6-0.3-12.8-0.3c3.7,1.4,7.2,2.6,10.5,3.8l3.4-0.6
		c4.5-0.7,9-1.3,13.6-1.5C256.5,147.3,253.1,147,249.3,146.7"/>
	<path class="st1" d="M242.7,149.9c-4.6,0.8-9.1,1.7-13.4,2.7c-1.5,0.3-3,0.7-4.5,1.1l4.1,0.5l3.7,0.4c2.5,0.3,5,0.6,7.5,0.7
		c2.2,0.2,4.3,0.4,6.5,0.5c5.6,0.4,10.7,0.6,15.3,0.5l0.3-0.2C256.3,154.5,250,152.4,242.7,149.9"/>
	
		<linearGradient id="SVGID_4_" gradientUnits="userSpaceOnUse" x1="23280.3027" y1="-5748.3716" x2="94866.7422" y2="-5748.3716" gradientTransform="matrix(1 0 0 1 0 5905.6606)">
		<stop  offset="0" style="stop-color:#9F0005"/>
		<stop  offset="0.65" style="stop-color:#CA0006"/>
		<stop  offset="1" style="stop-color:#CA0006"/>
	</linearGradient>
	<path class="st7" d="M20.4,158l176.9-8.7l27.5,4.7l-34.5,11.3L20.4,158z"/>
	
		<linearGradient id="SVGID_5_" gradientUnits="userSpaceOnUse" x1="122.6778" y1="-1070.171" x2="122.6778" y2="-1502.1633" gradientTransform="matrix(1 0 0 1 0 5905.6606)">
		<stop  offset="0" style="stop-color:#9F0005"/>
		<stop  offset="0.65" style="stop-color:#CA0006"/>
		<stop  offset="1" style="stop-color:#CA0006"/>
	</linearGradient>
	<path class="st8" d="M197.5,149.4l-176.9,8.7l169.4,7.2l34.8-11.3L197.5,149.4z"/>
	<path class="st9" d="M84.2,135.8l71.5,10.6H169l-11-3L84.2,135.8z"/>
	
		<linearGradient id="SVGID_6_" gradientUnits="userSpaceOnUse" x1="130.1537" y1="-5785.1743" x2="128.8362" y2="-5777.1807" gradientTransform="matrix(1 0 0 1 0 5905.6606)">
		<stop  offset="0" style="stop-color:#00007E"/>
		<stop  offset="0.21" style="stop-color:#053EFF"/>
		<stop  offset="1" style="stop-color:#9F0005"/>
	</linearGradient>
	<path class="st10" d="M182.8,136.8l29.7,1.8l-18.5-7.5L47,106.8L182.8,136.8z"/>
	
		<linearGradient id="SVGID_7_" gradientUnits="userSpaceOnUse" x1="179.5076" y1="-795.7833" x2="179.5076" y2="-5772.4897" gradientTransform="matrix(1 0 0 1 0 5905.6606)">
		<stop  offset="0" style="stop-color:#053EFF"/>
		<stop  offset="1" style="stop-color:#00007E"/>
	</linearGradient>
	<path class="st11" d="M206.2,138.1c-0.9-0.1-1.8-0.1-2.8-0.2c-6-0.3-12.3-0.6-20-1.1l-40-2.7c-4.7-0.2-9.3-0.5-14-0.8l-2.7-0.2
		l2.1,0.5l44.4,9.8c8.5,1.9,15.6,3.5,22.2,5.1l2.3,0.5c2.4-0.3,4.9-0.6,7.3-1l4.3-0.6c5.9-0.7,11.9-1.2,17.8-1.3
		c1.7,0,3.4-0.1,5.1-0.1l-0.5-0.2c-3.5-1.2-7-2.6-10.4-3.9c-1.7-0.6-3.4-1.3-5-1.9l-3.8-1.5C210.4,138.4,208.3,138.2,206.2,138.1"/>
	<path class="st0" d="M161.7,180.8l100.3-24.4l-16.8,10.8"/>
	<path class="st9" d="M116,193.2l74.5-28.2l65.8-7.2L116,193.2z"/>
	
		<linearGradient id="SVGID_8_" gradientUnits="userSpaceOnUse" x1="122.4795" y1="-835.4391" x2="122.4795" y2="-1308.8721" gradientTransform="matrix(1 0 0 1 0 5905.6606)">
		<stop  offset="0" style="stop-color:#00007E"/>
		<stop  offset="0.21" style="stop-color:#053EFF"/>
		<stop  offset="1" style="stop-color:#9F0005"/>
	</linearGradient>
	<path class="st12" d="M196.1,148.8L20,158.1l169.9,7.3L225,154L196.1,148.8z"/>
</g>
</svg>
