<svg id="Layer_1" data-name="Layer 1" xmlns="http://www.w3.org/2000/svg" viewBox="0 0 300 300"><defs><style>.cls-1{fill:#5c2b7b;}.cls-1,.cls-2{fill-rule:evenodd;}.cls-2{fill:#f6901f;}</style></defs><title>SCYX_Light_bg</title><path class="cls-1" d="M155.52,51.53a32.19,32.19,0,1,0,32,32.18A32.14,32.14,0,0,0,155.52,51.53Zm0,49a16.85,16.85,0,1,1,16.76-16.85A16.81,16.81,0,0,1,155.52,100.56Z"/><path class="cls-2" d="M215.23,232.51l-41.61-53.66a1.56,1.56,0,0,0-2.2-.26,1.33,1.33,0,0,0-.27.26l-10.27,13.22a1.59,1.59,0,0,0,0,1.94l31.06,40.1a1.31,1.31,0,0,0,1,.5h21.25a1.3,1.3,0,0,0,1.29-1.3A1.35,1.35,0,0,0,215.23,232.51Z"/><path class="cls-2" d="M171.1,163.37a1.57,1.57,0,0,0,2.21.27,1.44,1.44,0,0,0,.28-.27L215.14,110a1.33,1.33,0,0,0-.23-1.86,1.32,1.32,0,0,0-.81-.27H192.94a1.3,1.3,0,0,0-1,.5l-31,39.83a1.65,1.65,0,0,0,0,2Z"/><path class="cls-2" d="M108,95.23a1.38,1.38,0,0,0-1.05-.52H85.84a1.36,1.36,0,0,0-1.34,1.36,1.33,1.33,0,0,0,.28.82l57.06,72.74c1,1.17,1,2,.14,3.12L84.85,246a1.56,1.56,0,0,0,.29,2.18,1.48,1.48,0,0,0,.93.32h20.6a1.51,1.51,0,0,0,1.22-.59l46.9-60.18h0l12.81-16.49Z"/></svg>