<svg id="Layer_1" data-name="Layer 1" xmlns="http://www.w3.org/2000/svg" viewBox="0 0 300 300"><path d="M149.8844,274.8189c-3.80466.04447-7.602-.15181-11.39107-.467a115.25778,115.25778,0,0,1-14.381-2.16588q-5.811-1.23375-11.49086-3.00984c-2.85328-.89738-5.688-1.85858-8.45741-2.98838-2.99228-1.22075-5.9645-2.4919-8.86753-3.91928q-5.5524-2.73006-10.82279-5.9671A118.20781,118.20781,0,0,1,74.57,249.5302a110.136,110.136,0,0,1-9.81395-8.286c-1.22178-1.17583-2.47528-2.31987-3.66965-3.52271s-2.33939-2.455-3.49441-3.69639c-2.03833-2.19068-3.95369-4.48827-5.80574-6.83562-1.37623-1.7443-2.73491-3.50509-3.97649-5.35156-1.21715-1.81012-2.49973-3.57879-3.65563-5.42689-1.30683-2.08941-2.53-4.23263-3.74294-6.3788-1.35126-2.391-2.58908-4.8439-3.75922-7.328-.74-1.57083-1.42778-3.168-2.08553-4.77522-.70385-1.71981-1.33136-3.47066-2.01662-5.19828-.999-2.51857-1.80269-5.10148-2.55889-7.69932-.80157-2.75373-1.48756-5.53617-2.11279-8.33691-.61706-2.7641-1.02108-5.56112-1.52194-8.34332-.52438-2.9128-.77682-5.84959-1.01927-8.78712-.28275-3.4258-.34709-6.86375-.33565-10.30312.00955-2.873.10635-5.74255.32233-8.60491.18546-2.45781.40751-4.91769.74953-7.35759.38687-2.75993.85351-5.51344,1.41517-8.24306a115.59515,115.59515,0,0,1,3.133-12.2002q1.33855-4.15086,2.90432-8.22756a106.89431,106.89431,0,0,1,4.6261-10.40734c1.67734-3.27108,3.43861-6.49867,5.39084-9.62011,2.08014-3.326,4.26712-6.57856,6.63815-9.7014a125.67054,125.67054,0,0,1,8.17964-9.74349c2.73166-2.92862,5.57262-5.74385,8.57307-8.39376,1.63484-1.44383,3.35064-2.79568,5.01629-4.2051,2.19333-1.85592,4.53938-3.51114,6.88051-5.166,1.91274-1.352,3.91331-2.58246,5.90047-3.826a109.02011,109.02011,0,0,1,10.61978-5.8383c2.65894-1.278,5.34372-2.49628,8.08529-3.59335A134.144,134.144,0,0,1,117.22253,29.513c2.76757-.7729,5.5648-1.40119,8.37165-1.98369,2.21339-.45933,4.46583-.72757,6.69484-1.11564,1.67467-.29156,3.36428-.44979,5.05034-.6398,1.08443-.12221,2.17315-.214,3.26208-.28774a136.68609,136.68609,0,0,1,14.79736-.2159,108.08043,108.08043,0,0,1,10.87364.92066c2.99962.42766,5.99036.93233,8.96828,1.492,1.98428.37291,3.9596.83018,5.90179,1.38065,2.25315.63861,4.52169,1.22358,6.75123,1.95509,2.34279.76867,4.67986,1.55091,6.97665,2.44265,1.73054.67189,3.47345,1.317,5.14538,2.13983,1.52133.7487,3.0934,1.39364,4.62451,2.12327a108.23572,108.23572,0,0,1,10.51714,5.76965c1.88827,1.17213,3.77377,2.35409,5.60092,3.61773,1.76,1.21718,3.4732,2.50387,5.18885,3.786,2.33481,1.74479,4.55481,3.62586,6.75448,5.52747,1.83162,1.58344,3.577,3.269,5.30213,4.974q2.67508,2.64387,5.17629,5.44651c1.45381,1.62581,2.87187,3.28409,4.23242,4.99329,1.25843,1.581,2.49968,3.17406,3.69294,4.80277,1.91091,2.60825,3.68764,5.307,5.396,8.05388A126.06553,126.06553,0,0,1,262.67368,95.954c1.73986,3.56014,3.256,7.21148,4.63449,10.92633a118.48213,118.48213,0,0,1,3.728,11.778c.96355,3.75671,1.72967,7.55526,2.35886,11.38688a123.90161,123.90161,0,0,1,1.49671,15.68036c.081,2.26446.15188,4.52718.07575,6.79045-.1346,4.00034-.346,7.99484-.80074,11.97653-.46368,4.05967-1.15776,8.07775-2.001,12.07131a111.68071,111.68071,0,0,1-2.87827,10.89111q-1.95432,6.12208-4.48971,12.03293c-1.08768,2.52351-2.30708,4.98736-3.55487,7.43723-1.30288,2.55816-2.681,5.076-4.18051,7.52024-1.71052,2.78828-3.49291,5.53375-5.41473,8.18582-2.53911,3.50392-5.22447,6.89132-8.09368,10.12929-1.44625,1.63213-2.91481,3.251-4.46579,4.78215-1.7524,1.73-3.51733,3.44936-5.3507,5.099-2.04489,1.83992-4.15492,3.59964-6.29515,5.32262-1.47843,1.19019-3.01381,2.3121-4.55352,3.42327q-4.57295,3.30027-9.43269,6.16643-5.22746,3.0795-10.71618,5.65817c-1.71867.80551-3.48964,1.49895-5.22852,2.26223a95.8151,95.8151,0,0,1-9.8965,3.621c-3.27772,1.02705-6.60524,1.8779-9.94772,2.6823-3.18925.76755-6.426,1.24095-9.646,1.81737-1.50927.27016-3.04611.38924-4.57206.56283-3.25722.37046-6.53135.50172-9.80306.65167C152.39466,274.86692,151.13842,274.8189,149.8844,274.8189Zm-9.15429-136.74442c-1.35624-.8866-24.66892-19.15945-25.51923-20.07312a1.919,1.919,0,0,1,.08267-.33473c.12927-.296.274-.58526.41129-.87779a9.44988,9.44988,0,0,0,.40525-.87969A15.99626,15.99626,0,0,0,115.406,102.857c-.16067-.31507-.42673-.60448-.34387-1.0303a1.5184,1.5184,0,0,1,.2151-.26027c1.29618-1.03108,2.59779-2.05534,3.8954-3.08464q3.22932-2.56159,6.45466-5.12822c1.70562-1.361,3.39875-2.73756,5.10529-4.09735,1.76991-1.4103,3.55267-2.80446,5.32334-4.21381,1.23266-.98113,2.44812-1.98392,3.68538-2.95915a1.94472,1.94472,0,0,1,1.10734-.6035,15.99217,15.99217,0,0,0,18.22643.60226,3.50027,3.50027,0,0,1,1.10286.64362c1.45216,1.02576,2.90014,2.05746,4.35379,3.08113,2.61065,1.83845,5.2284,3.66689,7.83554,5.51031,2.44118,1.72608,4.8697,3.47,7.309,5.19876,1.748,1.23875,3.50569,2.46373,5.25585,3.69937.22557.15927.50289.27926.5638.59776-5.22857,8.40726-2.21635,17.19087,3.48765,21.54757a15.80407,15.80407,0,0,0,21.018-1.47023,15.6154,15.6154,0,0,0,1.60337-20.24248c-4.06443-5.80576-12.339-9.16379-21.08127-4.5521q-2.9113-2.0468-5.83668-4.103c-.8603-.60419-1.72649-1.20005-2.58385-1.80836-1.91124-1.35605-3.81634-2.72075-5.72822-4.07588-1.68178-1.192-3.37047-2.3743-5.05416-3.56365q-2.82188-1.99338-5.64143-3.99a16.13686,16.13686,0,0,1-1.8131-1.41019c.15474-.27091.27705-.47547.39034-.68491a16.01862,16.01862,0,0,0,1.95769-6.32359,15.98388,15.98388,0,0,0-12.02563-16.757,14.66442,14.66442,0,0,0-7.32919-.06694,16.4049,16.4049,0,0,0-5.2038,2.24351,15.86131,15.86131,0,0,0-6.5879,8.99848,14.72676,14.72676,0,0,0-.49464,5.64826,12.377,12.377,0,0,0,1.05193,4.33564c.27733.571.46989,1.18311.66575,1.686a1.30933,1.30933,0,0,1-.5304.64357c-1.01312.803-2.03017,1.60106-3.04125,2.40661q-3.17616,2.53048-6.34841,5.06591-4.41281,3.50854-8.83177,7.00936c-2.08624,1.66095-4.15738,3.34087-6.24937,4.9945a1.86519,1.86519,0,0,1-1.15663.57316,15.85242,15.85242,0,0,0-21.34255,3.4989,15.83774,15.83774,0,0,0,.64775,20.22128c4.25034,4.87567,12.804,7.8411,21.18417,2.447a2.72036,2.72036,0,0,1,1.00608.64813q3.58455,2.79534,7.16361,5.59769,2.67,2.09514,5.32638,4.20759c1.64807,1.304,3.288,2.61847,4.94328,3.91319,2.2602,1.76779,4.53186,3.52093,6.79775,5.28141a.91762.91762,0,0,1,.41915.73188,15.31268,15.31268,0,0,0-1.45068,10.45563,15.88388,15.88388,0,0,0,17.96892,12.47968,16.53616,16.53616,0,0,0,8.04261-3.685,5.43634,5.43634,0,0,1,.47534.28659q12.30915,9.44883,24.61381,18.90355a1.92069,1.92069,0,0,1,.25373.25671c.0247.02781.02742.0751.058.16682a1.56422,1.56422,0,0,1-.45254.78065,13.28808,13.28808,0,0,0-1.96785,3.60365,15.73129,15.73129,0,0,0-.87032,7.75539,15.30958,15.30958,0,0,0,1.87583,5.59708c.16894.304.45088.58357.334,1.065-1.36529.9835-2.76907,2.00043-4.17892,3.0089-1.87361,1.34025-3.75361,2.6716-5.6278,4.011q-2.51462,1.79711-5.023,3.60292-4.18971,2.99987-8.38392,5.99345a6.88862,6.88862,0,0,1-1.65.99465q-10.27086-6.96592-20.23718.34179a.76966.76966,0,0,1-.24271-.07929q-2.80047-2.32015-5.5947-4.64789-2.23786-1.86027-4.47746-3.71848-2.2867-1.89334-4.57831-3.78077-2.2407-1.85574-4.47588-3.71818-2.61417-2.16609-5.23156-4.32828a1.07128,1.07128,0,0,1-.51424-.74782c.175-.35894.3629-.80454.60167-1.221a11.1335,11.1335,0,0,0,.91612-2.23987,16.05546,16.05546,0,0,0,.67525-3.93554,15.25834,15.25834,0,0,0-1.19475-6.99585A15.90225,15.90225,0,0,0,89.511,179.27728a15.346,15.346,0,0,0-3.856,8.21655A15.83824,15.83824,0,0,0,98.1976,205.405,15.13567,15.13567,0,0,0,109.192,203.5863a1.8599,1.8599,0,0,1,1.11269-.446c.12393.09134.25864.18062.3823.28322q4.991,4.14108,9.98048,8.28387,3.1735,2.63032,6.35638,5.24934c2.43038,2.00708,4.86978,4.00345,7.28376,6.03a8.63587,8.63587,0,0,1,1.67894,1.56078c-.25507.62572-.54246,1.208-.7335,1.82039a16.00479,16.00479,0,0,0-.3,8.61814,15.80419,15.80419,0,0,0,2.532,5.46054,15.92546,15.92546,0,0,0,22.86561,3.12583,15.82469,15.82469,0,0,0,3.99866-4.81983,17.13143,17.13143,0,0,0,1.642-4.545,14.30151,14.30151,0,0,0,.22018-4.34657,12.51573,12.51573,0,0,0-.51634-2.7288c-.31947-1.037-.71741-2.04575-1.07547-3.00729a1.82581,1.82581,0,0,1,.18139-.27675,4.25591,4.25591,0,0,1,.45571-.39907q11.83817-8.45361,23.68016-16.90183c.26329-.18787.53039-.37054.79873-.55113a1.3167,1.3167,0,0,1,.2176-.10577.52839.52839,0,0,1,.1159-.03062c.0397-.007.08041-.00863.1687-.01737.146.0612.33553.12988.5155.218.68947.33764,1.35286.74247,2.06746,1.01247a15.94036,15.94036,0,0,0,9.29772.70866,15.871,15.871,0,0,0,12.05733-18.72253,16.24812,16.24812,0,0,0-3.42628-7.00369,14.9744,14.9744,0,0,0-6.59076-4.59607,16.18214,16.18214,0,0,0-11.62392.23912,1.704,1.704,0,0,1-.95911.218c-8.71063-6.67681-17.51031-13.45653-26.30979-20.23649a2.09088,2.09088,0,0,1-.29171-.33444,3.567,3.567,0,0,1,.30416-1.20547,25.80943,25.80943,0,0,0,.72357-2.55947,15.39428,15.39428,0,0,0-.62649-8.00093,15.73239,15.73239,0,0,0-5.2844-7.39181,15.33481,15.33481,0,0,0-7.52159-3.14256,15.57549,15.57549,0,0,0-10.56671,2.24627C141.59233,137.54561,141.18044,137.79754,140.73011,138.07448Z" fill="#00d4f1"/><path d="M198.56759,199.95058a7.63711,7.63711,0,1,1,7.744-7.49633A7.60577,7.60577,0,0,1,198.56759,199.95058Z" fill="#00d5f1"/><path d="M158.01194,68.77941a7.63763,7.63763,0,0,1-15.27524-.00435,7.63768,7.63768,0,0,1,15.27524.00435Z" fill="#00d5f1"/><path d="M93.69024,189.80978a7.63963,7.63963,0,1,1,7.598,7.661A7.59861,7.59861,0,0,1,93.69024,189.80978Z" fill="#00d5f1"/><path d="M150.44854,143.1139a7.63055,7.63055,0,0,1,2.25243,14.8906,7.66763,7.66763,0,0,1-9.42216-4.477,7.26244,7.26244,0,0,1-.00046-5.54118,5.96356,5.96356,0,0,1,.59182-1.05087c.27356-.39882.58627-.77153.892-1.14752A6.74936,6.74936,0,0,1,150.44854,143.1139Z" fill="#00d5f1"/><path d="M198.68183,117.44518a7.67184,7.67184,0,0,1-7.66051-7.61993,7.6424,7.6424,0,1,1,7.66051,7.61993Z" fill="#00d5f1"/><path d="M101.305,117.73217a7.61029,7.61029,0,1,1,7.66977-7.58573A7.61876,7.61876,0,0,1,101.305,117.73217Z" fill="#00d5f1"/><path d="M157.72921,229.23541a7.48192,7.48192,0,0,1-.1625,4.55153,7.698,7.698,0,0,1-9.504,4.72682,7.78163,7.78163,0,0,1-5.33058-7.68151,7.61024,7.61024,0,0,1,7.20179-7.18332,8.39528,8.39528,0,0,1,3.55277.60811,2.62211,2.62211,0,0,1,1.22558.94019c.693.99223,1.41018,1.96773,2.12854,2.94191C157.10273,228.49436,157.39612,228.82641,157.72921,229.23541Z" fill="#00d5f1"/></svg>