<svg id="Layer_1" data-name="Layer 1" xmlns="http://www.w3.org/2000/svg" viewBox="0 0 300 300"><defs><style>.cls-1{fill:#c89c6c;}.cls-2{fill:#b98976;}.cls-3{fill:#ac787e;}</style></defs><path class="cls-1" d="M119.24,181.88a12.47,12.47,0,0,1-13-12.72,12.94,12.94,0,0,1,13-13.19A13.17,13.17,0,0,1,132.2,169,12.79,12.79,0,0,1,119.24,181.88Z"/><path class="cls-2" d="M150.42,126.9a12.79,12.79,0,0,1-12.76-13.1A13,13,0,0,1,150.86,101c7,.21,13.16,6.5,12.93,13.2A13.1,13.1,0,0,1,150.42,126.9Z"/><path class="cls-1" d="M118.72,144.05c-7.41-.13-12.62-5.68-12.44-13.25.17-7,6.19-12.8,13-12.6a13.17,13.17,0,0,1,12.93,13.13C132.11,138.8,126.4,144.19,118.72,144.05Z"/><path class="cls-3" d="M182.34,144.71a12.55,12.55,0,0,1-12.87-12.86,12.92,12.92,0,0,1,12.88-13,13.16,13.16,0,0,1,13,13A12.89,12.89,0,0,1,182.34,144.71Z"/><path class="cls-2" d="M150.77,137.24a12.65,12.65,0,0,1,12.81,13,13,13,0,1,1-25.91-.3A12.68,12.68,0,0,1,150.77,137.24Z"/><path class="cls-2" d="M150.61,199.09a12.69,12.69,0,0,1-12.94-12.85,13,13,0,1,1,25.91,0A12.7,12.7,0,0,1,150.61,199.09Z"/><path class="cls-3" d="M182.34,181.24a12.48,12.48,0,0,1-12.87-12.82,12.72,12.72,0,0,1,12.87-12.93,12.88,12.88,0,1,1,0,25.75Z"/><path class="cls-1" d="M62,132.42c0,3.08-3.71,6.79-7,6.88a7,7,0,0,1-7.28-7.09c0-3.48,3.65-7.11,7.16-7.12C58.19,125.08,62,129,62,132.42Z"/><path class="cls-1" d="M54.85,160.75c5.3,2.3,7.87,5.49,7.09,8.65a8,8,0,0,1-7,5.6,6.87,6.87,0,0,1-7.12-5.68C47.11,165.4,48.9,163.19,54.85,160.75Z"/><path class="cls-1" d="M93.49,187.42a6.69,6.69,0,0,1-6.94,7,6.93,6.93,0,0,1-6.77-6.86,6.68,6.68,0,0,1,6.86-6.67A6.43,6.43,0,0,1,93.49,187.42Z"/><path class="cls-1" d="M93.49,114.07a6.77,6.77,0,0,1-7,6.64,7.06,7.06,0,0,1-6.74-7A7.17,7.17,0,0,1,86.87,107,6.83,6.83,0,0,1,93.49,114.07Z"/><path class="cls-1" d="M93.49,150.15A6.88,6.88,0,0,1,86.24,157c-3.37-.12-6.39-3.38-6.43-6.95a6.84,6.84,0,0,1,13.68.1Z"/><path class="cls-1" d="M86.71,83a6.72,6.72,0,0,1-6.92-6.7c-.1-3.53,3.2-6.79,6.92-6.84a6.75,6.75,0,0,1,6.78,6.79A6.54,6.54,0,0,1,86.71,83Z"/><path class="cls-1" d="M126.14,59A7.46,7.46,0,0,1,119,65.71a6.9,6.9,0,0,1-6.63-7.43,6.79,6.79,0,0,1,7-6.3A7.22,7.22,0,0,1,126.14,59Z"/><path class="cls-1" d="M119.31,199.11a7.06,7.06,0,0,1,6.83,6.93c-.06,3.43-3.58,6.79-7.11,6.79a7,7,0,0,1-6.64-7.07A6.7,6.7,0,0,1,119.31,199.11Z"/><path class="cls-1" d="M94.36,223.76a6.81,6.81,0,0,1-6.64,7c-3.52.16-7.14-3.22-7.1-6.64s3.4-7,6.79-7.05A6.84,6.84,0,0,1,94.36,223.76Z"/><path class="cls-3" d="M189.19,206a7.31,7.31,0,0,1-7.07,6.76,7,7,0,0,1-6.57-6.79,6.79,6.79,0,0,1,6.81-6.85A6.93,6.93,0,0,1,189.19,206Z"/><path class="cls-2" d="M158,223.67a7.1,7.1,0,0,1-6.57,6.82,7,7,0,0,1-7.11-6.6,6.84,6.84,0,0,1,13.68-.22Z"/><path class="cls-1" d="M119.22,248a6.67,6.67,0,0,1-6.83-6.69,6.49,6.49,0,0,1,6.83-6.63,6.65,6.65,0,0,1,6.93,6.62A7,7,0,0,1,119.22,248Z"/><path class="cls-2" d="M151.19,84.43a6.76,6.76,0,0,1-6.9-6.7A6.84,6.84,0,0,1,158,77.55,6.74,6.74,0,0,1,151.19,84.43Z"/><path class="cls-3" d="M189.19,58.82a7.35,7.35,0,0,1-6.95,6.87,7,7,0,0,1-6.7-6.66,6.76,6.76,0,0,1,6.68-7A7.06,7.06,0,0,1,189.19,58.82Z"/><path class="cls-3" d="M189.18,95.43a6.82,6.82,0,0,1-13.64,0,6.52,6.52,0,0,1,6.6-6.56A6.79,6.79,0,0,1,189.18,95.43Z"/><path class="cls-3" d="M252.33,132.27a7.25,7.25,0,0,1-6.88,6.88,6.85,6.85,0,0,1,0-13.69A7,7,0,0,1,252.33,132.27Z"/><path class="cls-1" d="M119.12,102.26a6.69,6.69,0,0,1-6.73-6.49A6.4,6.4,0,0,1,119,88.9c3.81-.05,7.15,3,7.1,6.58A7,7,0,0,1,119.12,102.26Z"/><path class="cls-3" d="M221.34,76.12a6.75,6.75,0,0,1-6.8,6.82,6.62,6.62,0,0,1-6.73-6.46,6.77,6.77,0,1,1,13.53-.36Z"/><path class="cls-3" d="M252.34,168.06a7,7,0,0,1-7,6.79,6.72,6.72,0,0,1-6.73-6.55,6.84,6.84,0,0,1,6.68-7A7.09,7.09,0,0,1,252.34,168.06Z"/><path class="cls-3" d="M182.3,234.71a6.7,6.7,0,0,1,6.87,6.68,6.81,6.81,0,0,1-13.62.07A6.55,6.55,0,0,1,182.3,234.71Z"/><path class="cls-3" d="M221.34,149.92a6.76,6.76,0,0,1-13.51.47,6.63,6.63,0,0,1,6.5-7.07A6.78,6.78,0,0,1,221.34,149.92Z"/><path class="cls-3" d="M214.58,180.84a6.65,6.65,0,0,1,6.76,6.82,6.89,6.89,0,0,1-7,6.69,6.76,6.76,0,0,1-6.53-6.72A6.61,6.61,0,0,1,214.58,180.84Z"/><path class="cls-3" d="M208,224.11a6.47,6.47,0,0,1,6.51-7,6.78,6.78,0,0,1,6.84,6.78,7,7,0,0,1-6.87,6.83A6.49,6.49,0,0,1,208,224.11Z"/><path class="cls-3" d="M208,113.78a6.51,6.51,0,0,1,6.46-6.63,6.74,6.74,0,0,1,6.9,6.71,6.94,6.94,0,0,1-6.82,6.84C210.67,120.72,207.93,117.82,208,113.78Z"/></svg>