<svg id="Layer_1" data-name="Layer 1" xmlns="http://www.w3.org/2000/svg" viewBox="0 0 300 300"><path d="M222.485,204.69611c-2.70618-4.093-34.90917-53.576-63.16283-132.795-.04771-.15351-.10735-.30236-.16233-.45276-.00882-.02593-.01867-.0529-.028-.07727h-.00052a9.17332,9.17332,0,0,0-7.55894-5.88328,9.17508,9.17508,0,0,0-7.559,5.88276h-.001c-.01037.02593-.01919.05342-.029.07727-.055.15041-.11565.29873-.16129.45276-28.25314,79.21946-60.45665,128.70251-63.16283,132.7955a9.16259,9.16259,0,0,0,7.4293,14.54173H215.05518a9.16368,9.16368,0,0,0,7.42982-14.54173Z" fill="#c9a32e"/><path d="M216.43318,202.02312c-2.46867-3.73151-31.84462-48.87-57.61613-121.13058-.04253-.14107-.09751-.27591-.14833-.41438-.00778-.02334-.01555-.0472-.02489-.07054h-.001a8.37087,8.37087,0,0,0-6.8946-5.36673,8.36772,8.36772,0,0,0-6.89461,5.36673h-.001c-.00778.02334-.01608.04668-.02489.07054-.05083.13847-.1058.27227-.14833.41438-25.772,72.26-55.14749,117.39752-57.61562,121.13058A8.35781,8.35781,0,0,0,93.84058,215.288H209.65682a8.35835,8.35835,0,0,0,6.77636-13.26487Z" fill="#fff"/><path d="M214.78913,201.34113c-2.40746-3.63815-31.034-47.62638-56.151-118.05047-.042-.13691-.09646-.26761-.14365-.40089-.00882-.0249-.01608-.04772-.02541-.07054h-.00052a8.15558,8.15558,0,0,0-6.72087-5.22981,8.15948,8.15948,0,0,0-6.71982,5.22981h-.001c-.0083.02282-.01711.04564-.02541.07054-.04875.13328-.10217.265-.14366.40089-25.11494,70.42306-53.74356,114.41283-56.14842,118.05047A8.145,8.145,0,0,0,95.314,214.26837H208.18391a8.14609,8.14609,0,0,0,6.60522-12.92724Z" fill="#292866"/><path d="M214.78913,201.34113c-2.40746-3.63815-31.034-47.62638-56.151-118.05047-.042-.13691-.09646-.26761-.14365-.40089-.00882-.0249-.01608-.04772-.02541-.07054h-.00052a8.15558,8.15558,0,0,0-6.72087-5.22981,8.15948,8.15948,0,0,0-6.71982,5.22981h-.001c-.0083.02282-.01711.04564-.02541.07054-.04875.13328-.10217.265-.14366.40089-25.11494,70.42306-53.74356,114.41283-56.14842,118.05047A8.145,8.145,0,0,0,95.314,214.26837H208.18391a8.14609,8.14609,0,0,0,6.60522-12.92724Z" fill="#292866"/><path d="M216.33981,206.113a8.07028,8.07028,0,0,0-.81891-3.54013l-63.77169-49.6096L87.977,202.57286a8.13688,8.13688,0,0,0,7.337,11.69551H208.18392A8.15559,8.15559,0,0,0,216.33981,206.113Z" fill="#4296d2"/><path d="M144.59842,121.10516c0-6.32463-3.3664-7.93963-3.3664-7.93963s-3.3638,1.61448-3.3638,7.93963v46.15711h6.7302Zm-.16441,50.35591h-6.7219s0,6.10214-1.34531,9.86787h9.413C144.434,177.56269,144.434,171.46107,144.434,171.46107Z" fill="#fff" stroke="#8d9299"/><path d="M143.57931,167.26124h1.0191V121.10465c0-6.32515-3.36639-7.93912-3.36639-7.93912a3.17636,3.17636,0,0,0-.50981.33867c.94027.73852,2.85659,2.827,2.85659,7.60045C143.57931,127.43031,143.57931,167.26124,143.57931,167.26124Zm.8547,4.19983h-1.0191s0,6.10214,1.34636,9.86787h1.0191C144.434,177.56269,144.434,171.46107,144.434,171.46107Z" fill="#8d9299" stroke="#8d9299"/><path d="M165.86048,121.10516c0-6.32463-3.36535-7.93963-3.36535-7.93963s-3.3638,1.61448-3.3638,7.93963v46.15711H165.86C165.86048,167.26124,165.86048,127.43031,165.86048,121.10516Zm.154,50.35591h-6.72086s0,6.10214-1.34531,9.86787h9.41253C166.01452,177.56269,166.01452,171.46107,166.01452,171.46107Z" fill="#fff" stroke="#8d9299"/><path d="M165.85945,121.10516c0-6.32463-3.36485-7.93963-3.36485-7.93963a3.14831,3.14831,0,0,0-.50928.33918c.93974.73853,2.855,2.827,2.855,7.60045v46.15711H165.86C165.85945,167.26124,165.85945,127.43031,165.85945,121.10516Zm.15507,50.35591h-1.0191s0,6.10214,1.34635,9.86787h1.01962C166.01452,177.56269,166.01452,171.46107,166.01452,171.46107Z" fill="#8d9299" stroke="#8d9299"/><path d="M151.86487,92.71148s-7.26594,5.38333-7.26594,26.91353v47.09842h14.53291V119.625C159.13081,98.09429,151.86487,92.71148,151.86487,92.71148Z" fill="#fff" stroke="#8d9299"/><path d="M151.86383,92.71148a5.05175,5.05175,0,0,0-.5098.46987c1.65078,1.69383,6.75768,8.39084,6.75768,26.44366v47.09842h1.01962V119.625C159.13081,98.09429,151.86383,92.71148,151.86383,92.71148Z" fill="#8d9299" stroke="#8d9299"/><path d="M144.12439,181.32894h-6.10162a6.57406,6.57406,0,0,0-.60524,2.89393h7.31313A6.55632,6.55632,0,0,0,144.12439,181.32894Z" fill="#fff" stroke="#8d9299"/><path d="M159.60379,181.32894h6.10059a6.56959,6.56959,0,0,1,.60575,2.89393h-7.311A6.57871,6.57871,0,0,1,159.60379,181.32894Z" fill="#fff" stroke="#8d9299"/><path d="M133.60616,167.1098l-.31066,4.66556s10.7594,2.61335,12.56836,3.3332h5.99945V137.00985h-4.18945C147.67438,137.00984,147.91347,149.01809,133.60616,167.1098Zm36.51638,0c-14.30678-18.09223-14.0677-30.1-14.0677-30.1h-4.19v38.09871h5.99894c1.81-.71985,12.56732-3.3332,12.56732-3.3332Z" fill="#fff" stroke="#8d9299"/><path d="M151.8628,121.69069c.001,0-4.18842,2.33382-4.18842,15.31915v30.1s-1.6876,4.2216-1.72857,11.64469a.27506.27506,0,0,0,.27176.25775c.00726,0,.013-.00311.01919-.00311v.00311h5.62656v-.97761h.00207v.97813H157.492v-.00311c.00726,0,.01192.00311.01919.00311a.27385.27385,0,0,0,.27124-.25775c-.03839-7.42308-1.727-11.64469-1.727-11.64469v-30.1c0-12.98585-4.19-15.31915-4.19-15.31915" fill="#fff" stroke="#8d9299"/><path d="M151.8628,122.688v-.99732a2.752,2.752,0,0,0-.50877.417A5.88422,5.88422,0,0,1,151.8628,122.688Zm4.609,56.32424h.01866c-.00726,0-.01192-.00311-.01866-.00311Zm-.417-11.90245v-30.1c0-12.98638-4.19-15.31967-4.19-15.31967v.99991c1.24055,1.59944,3.17036,5.50313,3.17036,14.31976v30.1s1.68864,4.22161,1.72754,11.64469a.27448.27448,0,0,1-.27073.25776h1.00043v-.00311c.00727,0,.01141.00311.01919.00311a.27375.27375,0,0,0,.27073-.25776C157.74348,171.33141,156.05484,167.1098,156.05484,167.1098Z" fill="#8d9299" stroke="#8d9299"/><path d="M147.5162,180.86633h4.34608v-1.85408h-3.62571A2.80365,2.80365,0,0,0,147.5162,180.86633Zm7.97541-1.85408h-3.6257v1.85408H156.212A2.80363,2.80363,0,0,0,155.49161,179.01225Z" fill="#fff" stroke="#8d9299"/><path d="M155.49161,179.01225h-1.01909a2.80332,2.80332,0,0,1,.71985,1.85408H156.212A2.80363,2.80363,0,0,0,155.49161,179.01225Z" fill="#8d9299" stroke="#8d9299"/><path d="M151.86383,167.1098s-3.36432,2.93646,0,17.2334V183.32l.00208.02852v.99472c3.36432-14.29694,0-17.23339,0-17.23339h0" fill="#fff" stroke="#8d9299"/><path d="M151.35039,167.8587a7.2186,7.2186,0,0,1,.50825,1.37228V167.1041A2.76824,2.76824,0,0,0,151.35039,167.8587Zm.51085-.75357v2.13466c.47195,1.7488.7743,4.79573,0,9.89485v5.2044C155.22556,170.04159,151.86124,167.10513,151.86124,167.10513Zm-.00207,17.23339v-5.192c-.13588.891-.30288,1.84164-.50825,2.86178C151.50028,182.751,151.66779,183.52376,151.85917,184.33852Z" fill="#8d9299" stroke="#8d9299"/><path d="M154.77591,130.067s-3.1216-1.21047-5.03326.09543-.82824,1.24262,0,1.0191c.82825-.223,4.74646-.2868,5.0649.223" fill="#8d9299"/><path d="M192.94905,202.75958h.23963v2.68526h-.22633c-.0049-.00455-.0164-.01006-.019-.01835-.12657-.40511-.19969-.46029-.62457-.46046q-2.01611-.00081-4.03221-.00021h-.1581v2.7646h.17216q3.268,0,6.53608-.00009c.45529,0,.49311-.02819.64854-.48037h.24153v2.84249h-.25327c-.04916-.43832-.35968-.48007-.72976-.47929q-4.61751.00975-9.23506.00369h-.20392v-.24721a.08108.08108,0,0,1,.02155-.01658c.43817-.16051.46537-.19895.4654-.67258q.00026-4.34112,0-8.68226c0-.04877.00021-.09758-.00142-.14631-.01116-.3333-.077-.41811-.40178-.51959-.02576-.008-.05083-.0183-.085-.03073v-.25526h9.24431q.07315,0,.14633,0c.47044-.00022.5078-.027.66336-.48129h.24648V201.413h-.24823c-.01793-.05988-.0328-.11711-.05213-.17278a.39533.39533,0,0,0-.40933-.30561c-.04866-.00258-.09752-.00174-.14629-.00174q-3.21927-.0001-6.43853-.00006h-.18475V203.242h.16939q2.008,0,4.016-.00008c.04877,0,.09761.00043.1463-.00186a.39346.39346,0,0,0,.44188-.32513C192.91585,202.86464,192.93144,202.81364,192.94905,202.75958Z" fill="#fff"/><path d="M104.46759,208.985l-.31636-.10339,1.14907-2.57772.32319.13523c-.13574.3653.1141.53094.36813.67507a6.79525,6.79525,0,0,0,2.085.72834,6.47434,6.47434,0,0,0,2.81166.00809,5.05466,5.05466,0,0,0,1.00445-.41172,1.19361,1.19361,0,0,0,.37916-.33891.76175.76175,0,0,0-.20615-1.18283,2.59748,2.59748,0,0,0-1.15732-.37219c-.75817-.0744-1.51934-.119-2.27961-.171a8.07127,8.07127,0,0,1-2.46312-.46739,2.519,2.519,0,0,1-1.68865-1.7119,2.973,2.973,0,0,1,.99057-3.19632,5.03587,5.03587,0,0,1,2.55518-1.093,9.34931,9.34931,0,0,1,5.247.80981c.142.06075.28594.11768.42521.18427.27571.1318.54429.2027.78081-.06752l.25961.12024-1.31067,2.53514-.33147-.17685a.71463.71463,0,0,0-.37244-.66314,4.89719,4.89719,0,0,0-1.43887-.69834,5.84375,5.84375,0,0,0-3.34563-.1453,3.40918,3.40918,0,0,0-.80563.372,1.03621,1.03621,0,0,0-.32778.34286.6915.6915,0,0,0,.25225,1.03583,3.0608,3.0608,0,0,0,1.281.36243c.85162.08717,1.70644.14407,2.55725.23792a6.33119,6.33119,0,0,1,2.53623.75687,2.66921,2.66921,0,0,1,1.39113,1.76849,2.81976,2.81976,0,0,1-1.11919,2.97013,5.6297,5.6297,0,0,1-2.78935,1.13391,10.105,10.105,0,0,1-5.67346-.83728c-.10048-.04548-.20174-.08962-.30441-.12985C104.67624,208.71583,104.61638,208.73674,104.46759,208.985Z" fill="#fff"/><path d="M118.12252,199.18793v-.24134h3.37069v.23875a.067.067,0,0,1-.02009.01624c-.4427.16065-.47573.20743-.47591.68819q-.0006,1.53566-.00014,3.07131v.17725h6.22222v-.16616q0-1.56057-.00016-3.12112c0-.05533-.0003-.11072-.0029-.166a.401.401,0,0,0-.34007-.44477c-.047-.01548-.09484-.02873-.14886-.045v-.25281h3.35038v.2412a.07087.07087,0,0,1-.021.017c-.41985.15064-.455.19881-.4551.6491q-.00061,4.48247-.00016,8.96492c0,.04427.0002.08856.00167.13279.00967.29127.07345.37965.34449.47776.04138.015.08313.02888.13363.04637v.23987h-3.35151c0-.0784,0-.15857-.00022-.23882.48949-.19677.48979-.19708.48983-.74047q.00009-1.68507,0-3.37015v-.20823h-6.21435c-.00251.05421-.0075.11213-.00753.17005q-.00066,1.74318-.00017,3.48636c0,.04979.00066.09964.00312.14935.01417.28635.0852.37734.36057.463.04209.01309.08451.02513.13487.04006v.25226h-3.37023v-.24531c.49685-.20942.49978-.21367.49979-.75783q.00006-4.38283,0-8.76567v-.0166C118.625,199.40066,118.61183,199.38106,118.12252,199.18793Z" fill="#fff"/><path d="M133.33423,199.34262v-.2384h3.35191v.23117c-.00988.0094-.01628.02014-.02541.02352-.41717.15426-.45324.20286-.45286.65041.00165,1.96845-.004,3.937.01548,5.90526a3.44452,3.44452,0,0,0,.18635.9869,1.72388,1.72388,0,0,0,1.30324,1.15851,5.85981,5.85981,0,0,0,3.01631.01138,2.002,2.002,0,0,0,1.556-1.83116,6.03259,6.03259,0,0,0,.04881-.79335q.00615-2.68731.00214-5.37463,0-.01659,0-.03317c-.00168-.48488-.02549-.51972-.47841-.69071-.00269-.03943-.00763-.0826-.008-.12581-.00029-.03752.00462-.07509.00778-.12059h3.36529v.24281a.06992.06992,0,0,1-.0203.01566c-.44576.16511-.4824.21831-.48311.702-.003,2.0348.00127,4.06966-.01354,6.10437a4.45223,4.45223,0,0,1-.38014,1.77071,3.12677,3.12677,0,0,1-2.09773,1.73819,8.90813,8.90813,0,0,1-2.23716.3487,11.18965,11.18965,0,0,1-3.42293-.28372,3.48372,3.48372,0,0,1-2.00321-1.24116,3.86664,3.86664,0,0,1-.70044-1.97376c-.03264-.32926-.03926-.6621-.03994-.99335q-.00549-2.66241-.00173-5.32486,0-.05805,0-.11611C133.82239,199.55689,133.81322,199.54274,133.33423,199.34262Z" fill="#fff"/><path d="M170.44451,201.54126h-.24143c-.00947-.01311-.01948-.02117-.02181-.031-.09248-.3931-.20647-.49653-.70965-.49373-1.03085.00575-2.06175.00173-3.09263.00173h-.20942v.18917q0,3.963.00018,7.92593c0,.05067-.00018.10152.00366.152.02462.32356.07891.39147.38818.49107.032.01029.06306.02334.10077.03743v.25474H163.2871v-.249a.22642.22642,0,0,1,.0411-.02669c.38681-.14709.46441-.25266.46456-.66058q.00146-3.98832.0005-7.97663v-.12717c-.05877-.00387-.10739-.00984-.156-.00986q-1.62237-.00078-3.24474-.00023c-.045,0-.0901.00162-.13513.00327a.411.411,0,0,0-.42782.33383c-.01339.05369-.03479.10539-.05405.16256h-.26219v-2.9265h.24062a.11173.11173,0,0,1,.02052.026c.15669.42477.22612.47385.67822.47387q4.53756.00021,9.07511,0c.05632,0,.1128.00078.16893-.00289a.41115.41115,0,0,0,.44251-.34c.01775-.05238.0336-.10541.0508-.15964h.25449Z" fill="#fff"/><path d="M158.15813,201.54126h-.24143c-.00946-.01311-.01947-.02117-.0218-.031-.09248-.3931-.20647-.49653-.70966-.49373-1.03085.00575-2.06175.00173-3.09263.00173h-.20942v.18917q0,3.963.00018,7.92593c0,.05067-.00017.10152.00367.152.02462.32356.07891.39147.38817.49107.032.01029.06306.02334.10078.03743v.25474h-3.37527v-.249a.22684.22684,0,0,1,.04111-.02669c.3868-.14709.4644-.25266.46455-.66058q.00145-3.98832.00051-7.97663v-.12717c-.05877-.00387-.10739-.00984-.156-.00986q-1.62237-.00078-3.24473-.00023c-.045,0-.09011.00162-.13513.00327a.41094.41094,0,0,0-.42782.33383c-.01339.05369-.0348.10539-.05405.16256h-.26219v-2.9265h.24062a.112.112,0,0,1,.02052.026c.15668.42477.22611.47385.67822.47387q4.53754.00021,9.07511,0c.05631,0,.11279.00078.16892-.00289a.41115.41115,0,0,0,.44252-.34c.01775-.05238.03359-.10541.0508-.15964h.25448Z" fill="#fff"/><path d="M172.76511,209.72436v-.248a.17551.17551,0,0,1,.03053-.02154c.45036-.17565.47127-.20523.47129-.68508q.00024-4.41487,0-8.82974c0-.04409.00022-.08821-.001-.13227-.01008-.35234-.07473-.43735-.4115-.5433-.02617-.00824-.05152-.01905-.08513-.03161v-.249h3.358v.24472c-.48558.19712-.49758.21468-.4976.73928q-.00014,3.81133-.00005,7.62268v.21532h.18989q3.24915,0,6.49829-.00006c.04409,0,.08822.00033.13226-.00146.28885-.01178.37752-.07983.46315-.35457.013-.0419.02551-.084.04081-.13438h.25273v2.89519h-.24333c-.20559-.48223-.21185-.48624-.76008-.48624h-9.43824Z" fill="#fff"/><path d="M109.69571,233.662v.28519h-2.99219v-.28544c.44788-.05925.48365-.38645.48309-.75469q-.00639-4.272-.00208-8.54408c.00005-.35555.00081-.70969-.48234-.76478v-.28671h4.02358c-.04952.1156-.06349.25411-.13229.29106-.3576.192-.30666.44691-.157.73892.42149.8225.83826,1.64741,1.25768,2.471q.73668,1.44657,1.47528,2.89217c.03133.06129.07158.118.12977.21291.06545-.10314.11237-.16821.15028-.23812q1.435-2.64642,2.86424-5.29591a3.16932,3.16932,0,0,0,.176-.5386l-.40866-.28883v-.248h3.87178l.01842.27814c-.44543.06973-.5014.38413-.5007.757q.008,4.29028.0027,8.58058c-.00006.34538.01183.68137.47744.73463l.01942.2811h-3.17843l-.0201-.26562c.457-.05661.504-.36816.50227-.745-.00928-2.0447-.004-4.08945-.00522-6.13419a.57865.57865,0,0,0-.08475-.3233q-.997,1.83453-1.99406,3.669c-.66209,1.2179-1.32444,2.43566-2.02774,3.729l-3.88618-7.483c-.02108.1886-.03717.26571-.03722.34283-.00123,2.09343.0017,4.18686-.00338,6.28027C109.23452,233.333,109.29439,233.59485,109.69571,233.662Z" fill="#2259b9"/><path d="M92.41727,223.59313V223.295h.337q3.1658.00007,6.33159.00068a6.45111,6.45111,0,0,1,2.542.43328,2.70429,2.70429,0,0,1,1.84041,2.41068,2.78174,2.78174,0,0,1-1.53094,2.84011c-.41434.22323-.86457.38019-1.33549.58337.83032,1.136,1.648,2.28473,2.50467,3.40382a4.44637,4.44637,0,0,0,.77925.59175,2.17221,2.17221,0,0,1,.28526.38688h-3.9725l-.01146-.21581.54282-.36521-2.56761-3.76669H95.23995c0,.8939,0,1.76743,0,2.641,0,.24334.00634.48686-.00113.73-.01066.34719.05341.63969.47951.69124v.28283h-3.3v-.27913c.422-.051.485-.34367.48465-.69084q-.0039-4.34358.001-8.68715C92.90453,223.93222,92.82,223.65646,92.41727,223.59313Zm2.84293,4.42146a1.03536,1.03536,0,0,0,.15734.02631c1.21979-.00161,2.44028.01812,3.659-.01955a5.13608,5.13608,0,0,0,1.35472-.26051,1.10022,1.10022,0,0,0,.78167-1.04326c.06393-.81644-.27172-1.36651-1.10716-1.42978-1.58858-.12032-3.18691-.11253-4.78126-.15592-.01956-.00053-.03986.02555-.0643.04229Z" fill="#2259b9"/><path d="M160.5554,222.79323h.24785v2.894l-.23.01683c-.07582-.46433-.39518-.51963-.80268-.51664-2.02561.01482-4.05138.00676-6.0771.00676h-.41983v2.32248c.11146.00488.22734.01426.34323.01436,1.25691.00106,2.51395-.00863,3.7707.00622.38545.00456.68026-.06424.74379-.51442l.24356.018v2.83127c-.14006-.11632-.214-.1821-.29246-.242-.15172-.11577-.30427-.32434-.45946-.32707-1.43775-.02535-2.87615-.015-4.34412-.015v2.77251h.36179c2.09894,0,4.1979-.00493,6.2968.00452.37966.00171.69-.046.74276-.49872h.24835v2.876l-.24829.01954c-.06564-.4349-.35147-.50735-.72424-.5064q-4.53954.01156-9.07912.00431h-.44986v-.29927c.42964-.05881.48679-.36135.48621-.72215q-.007-4.3083-.00117-8.61661c.00031-.35332-.03725-.67147-.48429-.72709V223.295c.15336,0,.298,0,.44272,0,2.98974,0,5.9795-.004,8.96922.00495C160.21427,223.301,160.49476,223.229,160.5554,222.79323Z" fill="#2259b9"/><path d="M248.53592,226.71722l-.29164-.13247.07387-.07691a3.21024,3.21024,0,0,0-.61955-.64987,6.08167,6.08167,0,0,0-4.578-.7197,2.47548,2.47548,0,0,0-.96472.48613.67015.67015,0,0,0,.19284,1.2332,12.59358,12.59358,0,0,0,1.99916.37575c.95135.14022,1.91775.2003,2.85647.39593a4.608,4.608,0,0,1,1.53133.65869,2.71016,2.71016,0,0,1,.44563,4.23583,5.3858,5.3858,0,0,1-3.36723,1.51058,10.14467,10.14467,0,0,1-5.35641-.82655c-.177-.07735-.35887-.14367-.55352-.22109l-.273.2239-.27744-.09186,1.12337-2.49611.30376.099-.09019.09234c.14811.19105.25574.459.45071.561a6.8758,6.8758,0,0,0,5.12406.68329,2.5757,2.5757,0,0,0,.95145-.5144.824.824,0,0,0-.20466-1.47045,6.76694,6.76694,0,0,0-2.35912-.42518,20.87259,20.87259,0,0,1-2.92734-.38744,2.55405,2.55405,0,0,1-2.15209-2.93422,3.02349,3.02349,0,0,1,1.80288-2.48876,6.78806,6.78806,0,0,1,4.73933-.49667,24.36311,24.36311,0,0,1,2.56083.84607c.28475.09881.54953.27935.85293.03621.04721-.03782.1697.01779.31082.03776C249.396,225.09788,248.97635,225.888,248.53592,226.71722Z" fill="#2259b9"/><path d="M75.78619,233.67845v.26787H72.50466v-.27991c.416-.05378.47993-.34413.47837-.69227-.0052-1.16581-.002-2.33166-.002-3.52019H66.82137c0,.68251-.00005,1.34882,0,2.01513,0,.49888.00637.99785-.0018,1.4966-.00568.34621.04772.64185.47674.69282l.01446.28285H63.99937v-.28088c.46054-.06082.4861-.395.48567-.76q-.00512-4.27087-.00186-8.54177c0-.35542.00092-.71135-.48367-.75792v-.29114h3.29156l.02045.28267c-.42144.06572-.49517.34852-.49243.699.00741.949.00186,1.89815.00342,2.84723.00016.09453.01391.189.02271.30086h6.13617q0-.322,0-.64261c-.00005-.82741-.00257-1.65483.001-2.48222.00153-.35142-.03328-.67234-.47737-.72133v-.28489H75.7867v.27079c-.39136.07664-.457.35226-.45608.70543q.01168,4.34385-.00048,8.68775C75.32907,233.32686,75.39462,233.59972,75.78619,233.67845Z" fill="#2259b9"/><path d="M172.69793,223.5889v-.2796h3.29222l.02033.28511c-.4594.06259-.48949.37836-.48829.73455.006,1.78858.01,3.57724-.00246,5.36575a9.39555,9.39555,0,0,1-.11032,1.37917,3.038,3.038,0,0,1-2.33414,2.65667,10.791,10.791,0,0,1-5.81615.01208,3.12787,3.12787,0,0,1-2.46416-3.03627c-.08142-1.468-.05348-2.9421-.06849-4.41357-.00683-.66914-.012-1.33864.00314-2.0075.00795-.35219-.05277-.634-.45713-.70329v-.27427h3.28257v.27427c-.40213.06631-.46568.35415-.46476.70029.00481,1.81291.00137,3.62584.00424,5.43876.00032.2065.01528.41361.035.61933a1.9194,1.9194,0,0,0,1.648,1.87174,5.77949,5.77949,0,0,0,2.57554.01176,2.02992,2.02992,0,0,0,1.77672-2.12722c.03688-1.654.01836-3.30915.02319-4.96381.00086-.292-.00911-.58438.00223-.876C173.16842,223.91851,173.09911,223.64488,172.69793,223.5889Z" fill="#2259b9"/><path d="M52.83181,229.577c0,.56734,0,1.099,0,1.63057.00005.5839-.00262,1.16781.00113,1.75168.00323.503.01542.51714.47233.7281l.01939.25089H50.013v-.27156c.45581-.05832.48264-.39229.48226-.75618q-.00453-4.288-.00052-8.57594c.00026-.35-.01817-.6788-.47744-.73167L50,223.33448a.44392.44392,0,0,1,.11213-.03493c2.30522.00011,4.61057-.01153,6.91559.01085a5.1948,5.1948,0,0,1,2.23178.49672,2.67012,2.67012,0,0,1,1.66327,2.38083,2.8459,2.8459,0,0,1-1.466,2.77835,4.64486,4.64486,0,0,1-2.34657.60162c-1.28043.01914-2.56132.00764-3.842.00909C53.13683,229.57716,53.00549,229.577,52.83181,229.577Zm.01165-1.87026c1.36064,0,2.68726.01811,4.0128-.01171a3.34976,3.34976,0,0,0,1.09529-.25311,1.06888,1.06888,0,0,0,.71631-1.18433,1.08518,1.08518,0,0,0-1.12228-1.04572c-1.541-.10617-3.08922-.10755-4.63455-.14977-.01832-.0005-.03741.02734-.06757.05086Z" fill="#2259b9"/><path d="M147.56383,224.0652l-1.53135,2.46975c-.09042-.11477-.15506-.19463-.21731-.2763-.12142-.15931-.20724-.38043-.36739-.47017a5.70618,5.70618,0,0,0-5.29065-.45308,3.40306,3.40306,0,0,0-2.03026,3.75815,3.53447,3.53447,0,0,0,2.839,2.96944,6.43292,6.43292,0,0,0,4.86275-.93308c.259-.157.47622-.34587.36538-.711-.0193-.06357.074-.16115.14316-.29809l1.5553,2.36989-.56-.03255-.016-.06692c-.2329.12736-.46852.25005-.69827.38284a9.0774,9.0774,0,0,1-4.99864,1.39886,6.10964,6.10964,0,0,1-4.85711-2.4414,5.3125,5.3125,0,0,1,2.36885-8.06294,8.50309,8.50309,0,0,1,5.84-.18625c.43351.12229.857.28316,1.29439.3874a8.2565,8.2565,0,0,0,.89066.10046C147.27635,223.98519,147.39327,224.0245,147.56383,224.0652Z" fill="#2259b9"/><path d="M208.74466,230.12615c.52047.79335.99981,1.524,1.5361,2.34153h-.51117l-.02188-.08366c-.233.12432-.47019.2415-.69836.3741a9.09385,9.09385,0,0,1-5.03088,1.41464,6.10251,6.10251,0,0,1-4.855-2.44524,5.31843,5.31843,0,0,1,2.54457-8.13055,8.69979,8.69979,0,0,1,5.88279-.05421c.38485.11556.76418.25325,1.15434.34605a6.8544,6.8544,0,0,0,.78361.08486c.13015.0153.25841.04652.44523.08127l-1.53365,2.47281a3.076,3.076,0,0,1-.21839-.23856c-.11752-.16092-.18878-.39419-.34467-.48257a5.673,5.673,0,0,0-5.38689-.43775,3.39234,3.39234,0,0,0-1.95938,3.72967,3.521,3.521,0,0,0,2.772,2.95026,6.40433,6.40433,0,0,0,4.96377-.94215.56364.56364,0,0,0,.33019-.69273C208.57833,230.35262,208.67441,230.25657,208.74466,230.12615Z" fill="#2259b9"/><path d="M86.58887,233.94173v-.24746c.57-.30957.603-.40406.33089-.97318-.23013-.48135-.46555-.96019-.70232-1.44775H81.31958c-.22022.47516-.446.957-.66721,1.441-.26816.58673-.23753.67632.32784.97549v.25536H77.70835l-.01288-.26939a1.69079,1.69079,0,0,0,.92982-.978q1.96662-4.11122,3.93861-8.21989c.21757-.45416.17555-.57168-.24215-.82778-.09073-.05562-.14681-.16745-.28272-.32959H85.7345v.24258c-.58042.31406-.60921.40236-.31177,1.00437q1.97851,4.00452,3.96144,8.00688c.22752.45857.44625.9338,1.01528,1.09532l.0131.272Zm-4.552-4.164h3.52093l-1.7172-3.73113Z" fill="#2259b9"/><path d="M134.56838,233.67159v.27174H130.7568v-.25153c.56821-.30245.60187-.40257.32576-.97876-.2304-.4808-.466-.95909-.70109-1.442h-4.897c-.23247.506-.46881,1.01064-.69673,1.51907-.23117.51572-.18954.62008.35191.891l.01432.26541h-3.28333V233.672a1.69357,1.69357,0,0,0,.92436-.982q1.94432-4.06131,3.89291-8.12058c.28022-.58453.24746-.67871-.35709-1.00163l-.01546-.25126h3.57414v.254c-.55772.2956-.59573.40384-.3145.97278q1.99544,4.03684,3.99627,8.071C133.79438,233.06394,134.01913,233.51823,134.56838,233.67159Zm-8.3635-3.89721h3.51792c-.57312-1.24454-1.12988-2.45353-1.71667-3.72774Z" fill="#2259b9"/><path d="M216.41094,223.56323v-.24546h3.56713v.25295c-.55595.29641-.59418.40369-.31424.9701q1.99521,4.037,3.99545,8.07141a1.74033,1.74033,0,0,0,.99793,1.06472v.2662H220.8456v-.25035c.56861-.30455.60237-.40382.32778-.97726-.23032-.481-.466-.95939-.70161-1.44382h-4.89734c-.23148.50334-.46788,1.00772-.69589,1.51584-.2321.51728-.19026.62336.34918.89206l.01853.26672H211.9617v-.27386a1.70013,1.70013,0,0,0,.92208-.98q1.94389-4.06152,3.89284-8.12062C217.0583,223.9843,217.02545,223.88906,216.41094,223.56323Zm1.686,2.48259-1.80021,3.72679h3.51434C219.24,228.531,218.68536,227.32515,218.09694,226.04582Z" fill="#2259b9"/><path d="M185.57992,233.66432l-.01307.28h-3.27052v-.28081c.3878-.07069.4899-.347.4897-.69751q-.00212-3.77784-.00154-7.55569c0-.0584-.00974-.11681-.01859-.21614-.67085,0-1.3256,0-1.98035,0-.427,0-.85407.00547-1.28093-.00171-.28262-.00475-.5.06153-.59151.36934-.02123.07148-.13684.11507-.26761.2173v-3.03306c.11206.07469.23622.11117.26155.18253a.522.522,0,0,0,.56306.36682q4.46509-.00258,8.93017.00195a.50456.50456,0,0,0,.57407-.49178h.2624v2.89594h-.257c-.04539-.44812-.34632-.51712-.73108-.512-1.036.01373-2.0723.00469-3.1644.00469v.36758q0,3.6866-.002,7.3732C185.0817,233.28981,185.11019,233.60968,185.57992,233.66432Z" fill="#2259b9"/><path d="M229.52193,232.06064h1.786c1.58611,0,3.17221-.00256,4.75832.00215.312.00093.58962-.01642.675-.39948.01314-.059.13213-.09448.25757-.1775v3.02637c-.11713-.07829-.24464-.11592-.26624-.186-.10812-.3508-.37572-.36779-.67057-.36751q-3.53214.00333-7.06427.00122h-2.31955l-.01322-.29257c.42128-.067.49679-.355.496-.72129q-.00945-4.30747-.00285-8.615c.00013-.34776-.01627-.6809-.47873-.7306l-.01473-.28639h3.31126v.26977a.57456.57456,0,0,0-.48295.66142c.00676,2.53094.00372,5.0619.00484,7.59285C229.49781,231.89752,229.51029,231.957,229.52193,232.06064Z" fill="#2259b9"/><path d="M195.31449,233.65906v.3008h-3.28126l-.014-.30045c.436-.06174.46982-.36977.469-.727q-.00965-4.32509-.001-8.6502c.00052-.32875-.02608-.61953-.44948-.69093l-.01261-.28324h3.2904v.27719c-.41048.06165-.46593.35526-.46556.69951q.00477,4.34335.00012,8.68671C194.84977,233.30038,194.89559,233.58646,195.31449,233.65906Z" fill="#2259b9"/></svg>