<svg id="Layer_1" data-name="Layer 1" xmlns="http://www.w3.org/2000/svg" viewBox="0 0 300 300"><defs><style>.cls-1{fill:#7bc2e2;}.cls-2{fill:#005888;}.cls-3{fill:#010101;}</style></defs><path class="cls-1" d="M219.79,143.25c-4.86,17.86-11.81,32.44-20.24,44.25a141.42,141.42,0,0,1-13,15.87A122.26,122.26,0,0,1,139,233.43h0S106.6,224.9,81.4,192.06a120.33,120.33,0,0,1-9.72-14.58c-1.19-2-2-3.67-3.27-5.66-.4-.79-.8-1.19-.8-2-.39-.79-.79-1.19-.79-2-.4-.8-.79-1.19-.79-2a6.59,6.59,0,0,1-.8-2,6.64,6.64,0,0,1-.79-2c-2-4.86-3.67-10.11-5.26-15.37a71.48,71.48,0,0,1-2-8.93,239.54,239.54,0,0,1-3.67-26c-.4-7.74-.4-15.87,0-24.7h.39c1.19-.4,2.48-1.19,3.67-1.59.8-.4,1.59-.79,2.48-1.19s1.59-.79,2.48-1.19c1.59-.79,3.28-1.19,4.47-2,3.27-1.2,6.45-2.48,9.72-3.68.79-.39,1.59-.39,2.48-.79s1.59-.4,2.48-.79A9.24,9.24,0,0,1,85,74.9c1.59-.39,2.88-.79,4.47-1.19,2.48-.79,5.25-1.19,7.73-2a231.45,231.45,0,0,1,42.17-4.86h1.58a143.16,143.16,0,0,1,18.65,1.19,191.74,191.74,0,0,1,44.64,9.72,182.87,182.87,0,0,1,21.93,9.33C225.94,108,223.86,127.08,219.79,143.25Z"/><path class="cls-2" d="M202.83,143.25v-67a191.82,191.82,0,0,0-44.65-9.72v77.08h9.73l-29.17,89.28c2.88-.79,26-8.13,47.52-30.06l8.53-36.1L199.25,187a143.91,143.91,0,0,0,20.24-44.24H202.83Z"/><path class="cls-2" d="M138.64,191.17v42.16h0s-26.39-6.94-50.29-32.44v-9.72Z"/><path class="cls-2" d="M148.86,109.23c0,8.13-1.59,14.58-5.26,20.24s-9.32,10.11-17.46,13.39a45.29,45.29,0,0,1-10.91,3.27c4.07,1.59,7.74,3.27,10.12,5.66a29.6,29.6,0,0,1,8.93,12.2c1.19,3.27,2,8.13,2,14.58H94.89A8.43,8.43,0,0,0,92,172.12a11.87,11.87,0,0,0-7.74-2.48c-4.07,0-7,.8-9.33,2.88a16.71,16.71,0,0,0-4.06,4.86c-1.19-2-2-3.67-3.28-5.65-.39-.8-.79-1.2-.79-2-.4-.79-.79-1.19-.79-2-.4-.8-.8-1.19-.8-2a6.5,6.5,0,0,1-.79-2c-.4-.79-.4-1.59-.8-2h0c-2-4.87-3.67-10.12-5.25-15.38a71.53,71.53,0,0,1-2-8.93,244.59,244.59,0,0,1-3.67-26H86.86c0,4.46.79,7.74,2.48,9.72,2,2,4.46,2.88,8.53,2.88,3.27,0,6-.8,8.13-2.88a8.75,8.75,0,0,0,2.88-6.45,6.81,6.81,0,0,0-2-4.86c-1.19-1.19-4.47-2.87-9.73-4.07L80.91,101c-8.54-2.48-14.19-4.46-17.46-5.65,0,0-7-2.48-10.92-8.53h.4c1.19-.4,2.48-1.19,3.67-1.59.79-.4,1.59-.79,2.48-1.19s1.59-.79,2.48-1.19c1.59-.79,3.27-1.19,4.47-2,3.27-1.19,6.44-2.48,9.72-3.67.79-.4,1.58-.4,2.48-.8s1.58-.39,2.48-.79A9.24,9.24,0,0,1,84,74.8c1.59-.39,2.88-.79,4.47-1.19,2.48-.79,5.25-1.19,7.73-2,2,.4,4.47,1.19,7.34,2s7.74,2,14.19,3.67c6.94,2,12.2,3.68,15.87,6.06a29.91,29.91,0,0,1,8.93,6.94,28.06,28.06,0,0,1,5.26,8.93A68.25,68.25,0,0,1,148.86,109.23Z"/><path class="cls-3" d="M236.45,84.43h3.28a6.48,6.48,0,0,1,2.48.79c.4.4.4.79.4,1.59a2.81,2.81,0,0,1-2.39,2.38l2.48,3.67h-.79l-2.48-3.27H237v3.27h-.4V84.43Zm3.28,4.46c.79,0,1.19,0,1.59-.4s.79-.79.79-1.19a1.46,1.46,0,0,0-.4-1.19c-.39-.39-.79-.39-1.58-.39h-2.88v3.67h2.48Z"/><path class="cls-3" d="M239.73,96.63a7.74,7.74,0,1,1,7.74-7.74A7.75,7.75,0,0,1,239.73,96.63Zm0-15A7.34,7.34,0,1,0,247.07,89,7.32,7.32,0,0,0,239.73,81.65Z"/></svg>