<?xml version="1.0" encoding="UTF-8"?>
<svg xmlns="http://www.w3.org/2000/svg" version="1.1" xmlns:xlink="http://www.w3.org/1999/xlink" viewBox="0 0 300 300">
  <defs>
    <style>
      .cls-1 {
        fill: url(#linear-gradient-2);
      }

      .cls-2 {
        fill: url(#linear-gradient-4);
      }

      .cls-3 {
        fill: url(#linear-gradient-3);
      }

      .cls-4 {
        fill: url(#linear-gradient-5);
      }

      .cls-5 {
        fill: url(#linear-gradient-6);
      }

      .cls-6 {
        fill: url(#linear-gradient);
      }
    </style>
    <linearGradient id="linear-gradient" x1="71.3" y1="278.2" x2="247.4" y2="102" gradientTransform="translate(0 302) scale(1 -1)" gradientUnits="userSpaceOnUse">
      <stop offset=".2" stop-color="#d65f2d"/>
      <stop offset=".5" stop-color="#001f38"/>
      <stop offset=".7" stop-color="#001f38"/>
      <stop offset=".8" stop-color="#85c8de"/>
      <stop offset=".9" stop-color="#85c8de"/>
      <stop offset="1" stop-color="#d65f2d"/>
    </linearGradient>
    <linearGradient id="linear-gradient-2" x1="74.9" y1="281.9" x2="251.1" y2="105.7" xlink:href="#linear-gradient"/>
    <linearGradient id="linear-gradient-3" x1="58.4" y1="265.3" x2="234.6" y2="89.2" xlink:href="#linear-gradient"/>
    <linearGradient id="linear-gradient-4" x1="66.3" y1="273.2" x2="242.4" y2="97.1" xlink:href="#linear-gradient"/>
    <linearGradient id="linear-gradient-5" x1="29.4" y1="236.3" x2="205.6" y2="60.2" xlink:href="#linear-gradient"/>
    <linearGradient id="linear-gradient-6" x1="68.8" y1="275.7" x2="245" y2="99.6" xlink:href="#linear-gradient"/>
  </defs>
  <!-- Generator: Adobe Illustrator 28.6.0, SVG Export Plug-In . SVG Version: 1.2.0 Build 709)  -->
  <g>
    <g id="Layer_1">
      <g>
        <polygon class="cls-6" points="119.4 56.8 89.2 54.8 93.8 61.5 123.8 63.5 119.4 56.8"/>
        <path class="cls-1" d="M109.7,42.1l-28.9-1.9c.4-1.3.9-2.5,1.4-3.8.5-1.3,1.2-2.5,1.8-3.7l20.4,1.4-4.2-6.4s0-.1-.2-.2l-12.2-.8c.9-1.2,1.7-2.4,2.7-3.6h-17.6c-1.1,0-1.7.7-2.1,2.2-.3,1.3-.2,2.4.5,3.2l12.5,18.3,30.4,2s-4.4-6.6-4.4-6.6Z"/>
        <path class="cls-3" d="M121,100.8c.7-.5,1.4-1,2.1-1.5l-3.8-.3,1.4,2s.2-.2.3-.2h0Z"/>
        <path class="cls-2" d="M134.6,90c.2-.2.4-.4.6-.6.9-.9,1.8-1.8,2.7-2.8.2-.2.3-.3.4-.5l-29-1.9,4.5,6.6,18.3,1.2c.8-.7,1.6-1.4,2.4-2.2h0Z"/>
        <path class="cls-4" d="M228.6,214.5l-37.9-54.7,34.9-49.3c.9-1.4,1.2-2.6.8-3.7-.4-1.2-1.2-1.7-2.5-1.7h-21.2c-2.3,0-4.5,1.7-6.5,5l-20.3,32.4-31.2-47.4c-.7.8-1.4,1.6-2.1,2.3-.3.3-.5.5-.8.8-.7.7-1.4,1.5-2.2,2.2-.2.2-.3.3-.5.5-.9.8-1.7,1.6-2.5,2.3-.3.3-.6.5-.9.8-.6.5-1.2,1-1.8,1.6-.3.3-.7.6-1.1.9-.7.5-1.3,1-2,1.6-.3.3-.7.5-1,.8l-3.8-.2,34.8,51.2-76.4,112.7c-.8,1.2-1,2.2-.8,3.1.2,1,.9,1.5,1.9,1.5h22.3c2.8,0,5.2-1.7,7.3-5.2l60.4-93.8,22.5,35.8c2.1,3.5,4.6,5.2,7.3,5.2h22.3c1,0,1.6-.5,1.8-1.5.2-.9,0-1.9-.8-3.1h0Z"/>
        <polygon class="cls-5" points="129.1 71.5 99.2 69.5 103.8 76.2 133.5 78.2 129.1 71.5"/>
      </g>
    </g>
  </g>
</svg>