<svg id="Layer_1" data-name="Layer 1" xmlns="http://www.w3.org/2000/svg" viewBox="0 0 300 300"><path d="M190.967,149.98313a271.46472,271.46472,0,0,1,18.85746-99.88242,2.71464,2.71464,0,0,0-4.84906-2.38308,164.51534,164.51534,0,0,0-13.739,29.96472h-33.156c-3.10838,0-5.57435,3.958-5.57435,8.82778V88.313c0,4.9734,2.54886,8.80706,5.61579,8.80706h27.51947a234.16425,234.16425,0,0,0-.35228,104.50352l-27.25008.16579c-3.10837,0-5.57435,3.958-5.57435,8.82778V212.42c0,4.99412,2.54886,8.80706,5.6158,8.80706h32.783a165.24022,165.24022,0,0,0,14.13274,31.08373,2.71464,2.71464,0,0,0,4.84906-2.36236A271.69264,271.69264,0,0,1,190.967,149.98313Z" fill="#909aba"/><path d="M143.20161,139.62188h-23.002c-1.51274-35.5598-10.81714-67.72111-25.17783-91.90425a2.71464,2.71464,0,0,0-4.84906,2.38308,271.46453,271.46453,0,0,1,18.85747,99.88242,271.69247,271.69247,0,0,1-18.85747,99.7788,2.71465,2.71465,0,0,0,4.84906,2.36236c14.50575-24.41109,23.95521-56.96612,25.21928-93.02326h22.96052c3.06693,0,5.55363-3.91655,5.55363-8.78634v-1.80285C148.75524,143.53843,146.26854,139.62188,143.20161,139.62188Z" fill="#1b4b5c"/><path d="M91.20888,87.46337a21.57212,21.57212,0,1,1,21.5721,21.57212h-.02071A21.57211,21.57211,0,0,1,91.20888,87.46337" fill="#df7540"/><path d="M162.49425,149.4029a21.11622,21.11622,0,1,1,21.116,21.11647l-.10335-.00025a21.11622,21.11622,0,0,1-21.01261-21.11622h0" fill="#df7540"/><path d="M91.47827,211.36316a21.34417,21.34417,0,1,1,21.34409,21.34425l-.06209-.0001h0a21.34416,21.34416,0,0,1-21.282-21.34415" fill="#df7540"/></svg>