<svg id="Layer_1" data-name="Layer 1" xmlns="http://www.w3.org/2000/svg" viewBox="0 0 300 300"><defs><style>.cls-1{fill:#4ebce6;}.cls-2{fill:#9dc93b;}.cls-3{fill:#11aae2;}.cls-4{fill:#3d8e42;}</style></defs><path class="cls-1" d="M79.47,129h-.24v-6.45h.23Z"/><path class="cls-2" d="M153.55,145.47c.39-4.65,2-9,3.58-13.3a36.46,36.46,0,0,1,3.45-6.9c1.1.93,2.1,1.83,3.15,2.65,5.35,4.18,11.55,6.64,17.91,8.77,5.43,1.81,11,3.08,16.5,4.75a54.45,54.45,0,0,1,7.64,3,22.65,22.65,0,0,1,12.27,14c3.4,10.52,3.84,21,0,31.48-4.27,11.67-12.49,19.51-23.92,24.19-9.29,3.79-18.9,6.61-28.48,9.54-9.35,2.87-18.68,5.82-27.52,10.08-6.48,3.12-12.64,6.77-17.87,11.78-3.4,3.26-6.23,6.92-7.4,11.62a13.84,13.84,0,0,0-.38,4.16c-.46.05-.51-.35-.65-.58-5.52-8.62-9.74-17.79-11.4-27.95-1.81-11.11-.4-21.67,6.15-31.17,3.86-5.6,9.19-9.54,15-12.9,8.41-4.88,17.56-7.8,26.9-10.21,5.93-1.54,11.92-2.81,17.9-4.14a9.8,9.8,0,0,0,2.69-.41,146.87,146.87,0,0,0,32.84-9.64c3.27-1.43,6.59-2.84,9.21-5.39,3-2.88,3-6.59.23-9.64a23.77,23.77,0,0,0-8.35-5.41c-.1,0-.22,0-.25.11.41.62,1.42.48,1.79,1.47Z"/><path class="cls-1" d="M146.82,148.33a33.43,33.43,0,0,1-1.11,11.22,56.18,56.18,0,0,1-5.83,14.7c-.12.2-.26.38-.43.63a11.87,11.87,0,0,1-2.29-1.9c-4.68-3.94-10.15-6.36-15.82-8.43-6.09-2.23-12.41-3.69-18.62-5.53a39.62,39.62,0,0,1-14-6.88,20.57,20.57,0,0,1-5-6.34c1.23-4.2,4.5-6.5,8-8.49A70.5,70.5,0,0,1,104,132.08c9.61-3.23,19.56-5.14,29.4-7.44l4.64-1.11v-1.34q0-22.39,0-44.81a7.47,7.47,0,0,0-.25-1.76c3.08-1,6.17-2.05,9.25-3.11,8.79-3,17.33-6.61,25.12-11.77,4.78-3.16,9.17-6.76,12.36-11.62a16.41,16.41,0,0,0,3-10.45,20.89,20.89,0,0,1,2.29,3.43,79.57,79.57,0,0,1,7.44,16.25,53.78,53.78,0,0,1,3,18c-.24,10.75-3.68,20.22-11.62,27.74A58.22,58.22,0,0,1,174,113.87c-8.05,3.94-16.6,6.45-25.27,8.55-5,1.22-10.08,2.31-15.12,3.46-4.31.69-8.57,1.59-12.81,2.64-9.32,2.3-18.45,5.14-27,9.56a18.31,18.31,0,0,0-5.42,3.86,5.89,5.89,0,0,0-1.59,5c.65,3.78,3.44,5.72,6.52,7.38.17.18.29.47.66.28,0-.37-.37-.3-.59-.37-.19-.5-.68-.64-1-.93a8.83,8.83,0,0,1-3.28-4.51,2,2,0,0,1,1.45-.23H145A4.1,4.1,0,0,0,146.82,148.33ZM95,155.27l-.21-.17.18.2c.1.1.18.27.37,0Z"/><path class="cls-3" d="M137.81,75.62a7.47,7.47,0,0,1,.25,1.76q0,22.41,0,44.81v1.34l-4.64,1.11c-9.84,2.3-19.79,4.21-29.4,7.44a70.5,70.5,0,0,0-12.27,5.23c-3.54,2-6.81,4.29-8,8.49A46.24,46.24,0,0,1,79.47,129v-6.47c1.1-13.94,7.21-25,19-32.59,5.09-3.28,10.8-5.19,16.46-7.17C122.5,80.13,130.15,77.87,137.81,75.62Z"/><path class="cls-4" d="M153.55,145.47h51c-.37-1-1.38-.85-1.79-1.47,0-.16.15-.16.25-.11a23.77,23.77,0,0,1,8.35,5.41c2.82,3,2.73,6.76-.23,9.64-2.62,2.55-5.94,4-9.21,5.39A146.87,146.87,0,0,1,169.06,174a9.8,9.8,0,0,1-2.69.41,29.63,29.63,0,0,1-8.19-7.55c-3.93-5.56-5.31-11.81-4.94-18.52A11.35,11.35,0,0,1,153.55,145.47Z"/><path class="cls-3" d="M146.82,148.33a4.1,4.1,0,0,1-1.87.27H90.52a2,2,0,0,0-1.45.23,8.83,8.83,0,0,0,3.28,4.51c.36.29.85.43,1,.93l-.07.09c-3.08-1.66-5.87-3.6-6.52-7.38a5.89,5.89,0,0,1,1.59-5,18.31,18.31,0,0,1,5.42-3.86c8.57-4.42,17.7-7.26,27-9.56,4.24-1.05,8.5-2,12.81-2.64a28,28,0,0,1,9.58,9.62A27,27,0,0,1,146.82,148.33Z"/><path class="cls-3" d="M93.39,154.27c.22.07.54,0,.59.37-.37.19-.49-.1-.66-.28Z"/><path class="cls-3" d="M95,155.27l.34.08c-.19.22-.27.05-.37,0Z"/><path class="cls-3" d="M95,155.3l-.18-.2.21.17Z"/></svg>