<svg id="Layer_1" data-name="Layer 1" xmlns="http://www.w3.org/2000/svg" viewBox="0 0 300 300"><path d="M150,275A125,125,0,1,1,275,150h0A125.13817,125.13817,0,0,1,150,275Zm0-240.7885A115.7885,115.7885,0,1,0,265.7885,150h0A115.92667,115.92667,0,0,0,150,34.2115Z" fill="#f63"/><circle cx="210.19713" cy="115.22661" r="17.17944" fill="#f63"/><circle cx="210.19713" cy="184.72735" r="17.17944" fill="#f63"/><circle cx="210.19713" cy="149.95394" r="8.61275" fill="#f63"/><circle cx="180.07553" cy="97.81688" r="8.61275" fill="#f63"/><circle cx="240.31872" cy="132.59028" r="8.61275" fill="#f63"/><circle cx="210.19713" cy="219.50074" r="8.61274" fill="#f63"/><circle cx="180.1216" cy="63.13559" r="8.61275" fill="#f63"/><circle cx="150" cy="80.45321" r="17.17944" fill="#f63"/><circle cx="119.87841" cy="97.90899" r="8.61275" fill="#f63"/><circle cx="89.75682" cy="80.49927" r="8.61275" fill="#f63"/><circle cx="89.75682" cy="115.27267" r="17.17944" fill="#f63"/><circle cx="89.75682" cy="150.04606" r="8.61275" fill="#f63"/><circle cx="59.68129" cy="167.36367" r="8.61275" fill="#f63"/><circle cx="119.87841" cy="202.13707" r="8.61275" fill="#f63"/><circle cx="119.87841" cy="236.91046" r="8.61275" fill="#f63"/><circle cx="150" cy="219.50074" r="17.17944" fill="#f63"/><circle cx="180.1216" cy="202.13707" r="8.61275" fill="#f63"/><circle cx="89.75682" cy="184.81946" r="17.17944" fill="#f63"/><path d="M210.19713,237.0947a17.17944,17.17944,0,0,0-17.17944,17.17943,16.71872,16.71872,0,0,0,1.75019,7.41526,119.15088,119.15088,0,0,0,29.615-17.13339A17.13338,17.13338,0,0,0,210.19713,237.0947Z" fill="#f63"/><path d="M255.51769,141.38726a17.17942,17.17942,0,0,0,6.27719,23.47047l.03268.01884a16.62669,16.62669,0,0,0,7.231,2.1647A122.09753,122.09753,0,0,0,270.39425,150a123.43647,123.43647,0,0,0-1.2896-17.13338A17.08735,17.08735,0,0,0,255.51769,141.38726Z" fill="#f63"/><path d="M195.41268,54.33862A17.04127,17.04127,0,0,0,224.42889,55.444a119.15116,119.15116,0,0,0-29.615-17.13338A17.08733,17.08733,0,0,0,195.41268,54.33862Z" fill="#f63"/><path d="M89.75682,62.95136A17.17943,17.17943,0,0,0,106.98231,45.8181q.00012-.04611,0-.09223a17.40971,17.40971,0,0,0-1.75018-7.41526,120.76306,120.76306,0,0,0-29.5689,17.17944A17.22549,17.22549,0,0,0,89.75682,62.95136Z" fill="#f63"/><path d="M44.43626,158.5667a17.17945,17.17945,0,0,0-6.27719-23.47048l-.03269-.01884a17.64,17.64,0,0,0-7.13891-2.21076A117.26359,117.26359,0,0,0,29.60575,150a122.78773,122.78773,0,0,0,1.33567,17.08732A17.17944,17.17944,0,0,0,44.43626,158.5667Z" fill="#f63"/><path d="M104.67944,245.66139a17.17944,17.17944,0,0,0-23.47126-6.27427l-.01806.01045a16.53472,16.53472,0,0,0-5.52689,5.15843,120.76244,120.76244,0,0,0,29.615,17.17944A17.3176,17.3176,0,0,0,104.67944,245.66139Z" fill="#f63"/></svg>