<svg id="Layer_1" data-name="Layer 1" xmlns="http://www.w3.org/2000/svg" viewBox="0 0 300 300"><ellipse cx="163.01569" cy="96.93113" rx="76.98431" ry="76.42986" fill="#626baf"/><ellipse cx="138.17302" cy="203.39762" rx="78.17302" ry="76.10111" fill="#6fc1b4"/><path d="M195.68145,170.06345a40.358,40.358,0,0,1,1.161,10.36663,42.88,42.88,0,0,1-5.50963,20.7367A76.61863,76.61863,0,0,1,176.83569,219.882a127.26509,127.26509,0,0,1-19.7148,15.42456,120.89115,120.89115,0,0,1-21.16607,10.87329c-15.01237,5.817-32.08571,12.03944-50.14488,13.64185a78.91015,78.91015,0,0,0,52.36386,19.677c43.17368,0,78.17224-34.20335,78.17224-76.39636a74.77454,74.77454,0,0,0-12.64915-41.64342,78.891,78.891,0,0,1-9.3018,4.94974,30.19775,30.19775,0,0,1,1.28637,3.65478" fill="#6fc1b4" fill-rule="evenodd"/><path d="M157.12139,235.30711a127.37023,127.37023,0,0,0,19.71481-15.42458,76.61878,76.61878,0,0,0,14.49713-18.71523,42.88472,42.88472,0,0,0,5.50963-20.73669,40.34821,40.34821,0,0,0-1.161-10.36663,30.28747,30.28747,0,0,0-1.28638-3.65477,79.1905,79.1905,0,0,1-30.48332,6.91453c.59768.97551,1.15242,1.92012,1.61785,2.80806a37.438,37.438,0,0,1,4.63888,17.44946,42.53565,42.53565,0,0,1-12.46709,30.59839,85.1134,85.1134,0,0,1-30.44382,19.97757,90.1188,90.1188,0,0,1-19.42627,5.31041,81.39072,81.39072,0,0,1-21.76374.96178c-3.89693-.43967-7.32671-.936-10.43018-1.4839a77.53347,77.53347,0,0,0,10.17256,10.875c18.05745-1.60068,35.13251-7.82307,50.14489-13.64012a121.00809,121.00809,0,0,0,21.16606-10.87329" fill="#fdfdfd" fill-rule="evenodd"/><path d="M171.038,39.323a78.15265,78.15265,0,0,0-14.49714,8.85011,106.41657,106.41657,0,0,0-9.568,8.34517A93.79813,93.79813,0,0,0,130.44741,79.7848a57.68868,57.68868,0,0,0-6.66893,26.29957,44.21753,44.21753,0,0,0,6.08842,23.2648q6.09014,10.12447,17.68648,23.26653,11.325,12.46366,16.35888,20.70751a79.15886,79.15886,0,0,0,30.48331-6.91453,41.87845,41.87845,0,0,0-2.772-5.44953,85.441,85.441,0,0,0-7.82821-10.62082q-4.93342-5.80674-12.46709-14.413a174.24818,174.24818,0,0,1-17.97673-24.27983,52.89523,52.89523,0,0,1-8.11674-28.32275q0-19.72082,14.49542-31.60827,14.48854-11.87886,37.69154-11.88487a79.68348,79.68348,0,0,1,18.42155,1.88406,78.3411,78.3411,0,0,0-15.6822-11.38509,81.83256,81.83256,0,0,0-9.40657,1.91326A113.45429,113.45429,0,0,0,171.038,39.323" fill="#fdfdfd" fill-rule="evenodd"/></svg>