<svg id="Layer_1" data-name="Layer 1" xmlns="http://www.w3.org/2000/svg" viewBox="0 0 300 300"><path d="M249.61026,92.51356H50.41439a114.20136,114.20136,0,0,0-15.38973,57.46609H264.99383A114.26733,114.26733,0,0,0,249.6115,92.51356Z" fill="#f7a826"/><path d="M265,150.02034v-.03206H35v.03206a114.31536,114.31536,0,0,0,15.41439,57.46609H249.61026A114.45963,114.45963,0,0,0,265,150.02034Z" fill="#159d8f"/><path d="M150.0037,35.008A114.93648,114.93648,0,0,0,50.40576,92.50616H249.60164A114.93648,114.93648,0,0,0,150.0037,35.008Z" fill="#ffeb14"/><path d="M249.61026,207.49383H50.41439a115.01053,115.01053,0,0,0,199.19587,0Z" fill="#17acde"/></svg>