<svg id="Layer_1" data-name="Layer 1" xmlns="http://www.w3.org/2000/svg" viewBox="0 0 300 300"><path d="M207.83163,190.56868c12.33709,1.37079,13.02242-12.33705,13.02242-12.33705-3.427,1.37079-5.48316,1.37079-7.53936,2.05617-6.85393,1.37079-6.85393,9.59549-6.85393,9.59549a22.77752,22.77752,0,0,0,10.96632-4.79775A23.13077,23.13077,0,0,1,207.83163,190.56868Z"/><path d="M205.77543,165.20916c8.91013-7.53932-.68543-17.13481-.68543-17.13481-.68543,3.427-2.74153,5.48314-3.427,6.85393-3.427,6.16852,2.0562,11.65167,2.0562,11.65167a18.31536,18.31536,0,0,0,2.74152-10.96628C208.51707,160.41142,205.77543,165.20916,205.77543,165.20916Z"/><path d="M145.461,130.25416c6.85392,4.79774,12.33708-3.427,12.33708-3.427a10.61745,10.61745,0,0,1-5.48316-1.37078c-4.79772-1.37078-7.53935,3.427-7.53935,3.427a11.86658,11.86658,0,0,0,7.53935,0A10.48691,10.48691,0,0,1,145.461,130.25416Z"/><path d="M168.76429,178.23163c2.0562,9.59549,13.02241,6.85392,13.02241,6.85392a17.19447,17.19447,0,0,1-3.427-5.48313c-2.74153-4.79775-9.59545-2.74157-9.59545-2.74157a11.324,11.324,0,0,0,6.16849,6.16853A17.85276,17.85276,0,0,1,168.76429,178.23163Z"/><path d="M149.57328,72.6812c-6.16849-1.37078-7.53936,6.16853-7.53936,6.16853a12.05927,12.05927,0,0,1,4.1124-.68539c4.1124,0,4.1124-4.79775,4.1124-4.79775a8.20968,8.20968,0,0,0-5.48316,2.05618A6.48226,6.48226,0,0,1,149.57328,72.6812Z"/><path d="M92.68575,127.51259a16.51427,16.51427,0,0,0-7.53931-2.05618c3.427-1.37078,6.85392.68539,6.85392.68539-5.48315-6.16852-13.02246.6854-13.02246.6854,2.0562.68539,3.427,2.05618,4.79773,2.74157A8.04987,8.04987,0,0,0,92.68575,127.51259Z"/><path d="M120.78682,133.68112c-5.48316-6.16853-13.02241.68539-13.02241.68539,2.0562.6854,3.427,2.05618,4.79773,2.74157,4.11239,2.74157,8.22468-1.37078,8.22468-1.37078a16.51438,16.51438,0,0,0-7.53935-2.05618C116.67443,132.31033,120.78682,133.68112,120.78682,133.68112Z"/><path d="M202.34847,149.44514a9.13685,9.13685,0,0,1-3.427-4.11235c-3.427-3.427-8.22469-.6854-8.22469-.6854a12.24371,12.24371,0,0,0,6.85393,4.11236,10.48772,10.48772,0,0,1-6.85393-2.74157C193.43846,153.5575,202.34847,149.44514,202.34847,149.44514Z"/><path d="M216.74175,119.97327a19.28855,19.28855,0,0,1,.68544,5.48314c0,5.48314,6.16849,6.16853,6.16849,6.16853a14.33982,14.33982,0,0,0-2.74153-8.22471,12.244,12.244,0,0,1,4.1124,6.85393C227.02264,122.71484,216.74175,119.97327,216.74175,119.97327Z"/><path d="M222.22491,141.22043c-1.37076-6.85392-10.28088-6.85392-10.28088-6.85392a23.05149,23.05149,0,0,0,5.48316,10.28088c-4.79773-2.74157-6.16849-8.22471-6.16849-8.22471-1.37077,11.65167,13.70785,13.02246,13.70785,13.02246C222.91024,146.01818,222.91024,143.27661,222.22491,141.22043Z"/><path d="M98.16885,101.46768c-8.91012.68539-6.85392,10.96628-6.85392,10.96628a40.40906,40.40906,0,0,1,5.48316-2.74157c4.79773-2.05618,3.427-8.22471,3.427-8.22471a22.96609,22.96609,0,0,0-6.85392,5.48314A12.88432,12.88432,0,0,1,98.16885,101.46768Z"/><path d="M159.85417,110.37778a12.4618,12.4618,0,0,1-6.85393-4.11236c2.0562,8.9101,13.02242,5.48314,13.02242,5.48314a15.8228,15.8228,0,0,1-3.427-4.79774c-2.05619-4.11236-6.85392-2.74157-8.22468-2.74157v.6854A11.71935,11.71935,0,0,0,159.85417,110.37778Z"/><path d="M144.09012,152.8721c7.53936,9.59549,18.50557,0,18.50557,0a19.78864,19.78864,0,0,1-6.85392-4.11235c-6.16849-4.11236-12.33708,2.05617-12.33708,2.05617a24.50918,24.50918,0,0,0,11.65165,3.427A16.5813,16.5813,0,0,1,144.09012,152.8721Z"/><path d="M200.29238,110.37778a14.47587,14.47587,0,0,0,0,8.22471,10.48667,10.48667,0,0,1-1.37076-6.85393c-4.1124,6.85393,4.11239,11.65167,4.11239,11.65167a10.61785,10.61785,0,0,1,1.37077-5.48314A7.25168,7.25168,0,0,0,200.29238,110.37778Z"/><path d="M183.15757,109.007c-5.48316-4.11236-10.28089,2.74156-10.28089,2.74156a24.23659,24.23659,0,0,1,4.1124.6854c4.1124,1.37078,6.16849-2.74157,6.16849-2.74157a10.1555,10.1555,0,0,0-6.85392,0A13.32682,13.32682,0,0,1,183.15757,109.007Z"/><path d="M207.83163,119.28788a10.61786,10.61786,0,0,1-1.37076,5.48314c-1.37077,5.48314,4.11239,7.53932,4.11239,7.53932a13.67691,13.67691,0,0,0,0-8.22471A12.3664,12.3664,0,0,1,211.944,131.625C217.42719,124.08563,207.83163,119.28788,207.83163,119.28788Z"/><path d="M113.24747,150.81593c5.48316,0,5.48316-6.85392,5.48316-6.85392a11.5792,11.5792,0,0,1-3.427,1.37079,3.7011,3.7011,0,0,0-2.05619,5.48313,21.10208,21.10208,0,0,0,4.11239-4.11235A6.6652,6.6652,0,0,1,113.24747,150.81593Z"/><path d="M145.461,96.66993c-3.427,1.37079-5.48316,2.05618-7.53936,2.05618-6.85392,1.37078-6.85392,9.59549-6.85392,9.59549a28.47835,28.47835,0,0,0,10.96632-5.48314c-2.74153,4.79775-8.22469,6.85392-8.22469,6.85392C145.461,109.69238,145.461,96.66993,145.461,96.66993Z"/><path d="M179.73061,86.38905c-2.74163-4.11236-7.53936-2.05618-7.53936-2.05618a12.65256,12.65256,0,0,0,6.16849,4.79774,10.17278,10.17278,0,0,1-6.16849-3.427C174.24745,93.243,183.8429,89.816,183.8429,89.816A5.41306,5.41306,0,0,1,179.73061,86.38905Z"/><path d="M133.12391,90.5014c-2.0562-7.53932-11.65165-4.11236-11.65165-4.11236a9.13682,9.13682,0,0,1,3.427,4.11236c2.74153,4.11235,7.53936,2.05618,7.53936,2.05618a12.65254,12.65254,0,0,0-6.16849-4.79775C131.06771,87.75983,133.12391,90.5014,133.12391,90.5014Z"/><path d="M97.48347,136.42269c2.0562,7.53932,11.6517,4.11236,11.6517,4.11236a9.137,9.137,0,0,1-3.427-4.11236c-2.74158-4.11236-7.5393-2.05618-7.5393-2.05618a12.65259,12.65259,0,0,0,6.16854,4.79775C99.53967,139.16426,97.48347,136.42269,97.48347,136.42269Z"/><path d="M187.26986,154.24289a33.41354,33.41354,0,0,1-2.0562,4.79776c-2.05619,4.11235,2.74153,7.53931,2.74153,7.53931a12.71592,12.71592,0,0,0,1.37076-7.53931,10.15557,10.15557,0,0,1,0,6.85392C195.49455,159.726,187.26986,154.24289,187.26986,154.24289Z"/><path d="M105.02278,89.816a33.415,33.415,0,0,1-2.0562,4.79774c-2.0562,4.11236,2.0562,7.53932,2.0562,7.53932a12.716,12.716,0,0,0,1.37076-7.53932,10.15559,10.15559,0,0,1,0,6.85393C111.8767,95.98454,105.02278,89.816,105.02278,89.816Z"/><path d="M196.86542,90.5014c.68543,3.427,0,6.16853,0,8.2247-.68544,7.53932,7.53936,9.59549,7.53936,9.59549a23.3382,23.3382,0,0,0-2.0562-11.65166c4.11239,4.11235,4.11239,10.28088,4.11239,10.28088C211.25859,95.29915,196.86542,90.5014,196.86542,90.5014Z"/><path d="M165.33733,62.40031a25.56471,25.56471,0,0,1-1.37077,8.22471c-1.37076,7.53932,6.16849,10.28089,6.16849,10.28089a22.67666,22.67666,0,0,0-.68543-11.65167,15.958,15.958,0,0,1,2.74153,10.28088C178.35974,67.88345,165.33733,62.40031,165.33733,62.40031Z"/><path d="M179.73061,119.97327c-2.0562.68539-3.427,0-4.79773,0-4.11239,0-5.48316,4.79774-5.48316,4.79774a16.63182,16.63182,0,0,0,6.85393-1.37078,7.40156,7.40156,0,0,1-5.48316,2.74157C176.989,127.51259,179.73061,119.97327,179.73061,119.97327Z"/><path d="M126.95531,136.42269c4.1124,2.05618,6.16849-2.74157,6.16849-2.74157h-2.74153c-2.74152-.68539-4.11229,2.05618-3.427,2.74157a8.68859,8.68859,0,0,0,4.1124-1.37078A4.19986,4.19986,0,0,1,126.95531,136.42269Z"/><path d="M136.55087,121.34405h-4.79773c-4.11239-.68539-5.48316,4.11236-5.48316,4.11236a8.41712,8.41712,0,0,0,6.16849-1.37078c-2.0562,2.05617-5.48316,2.05617-5.48316,2.05617C133.80924,127.51259,136.55087,121.34405,136.55087,121.34405Z"/><path d="M118.0453,120.65866c-10.96632-6.85392-18.50558,5.48314-18.50558,5.48314,4.1124,0,6.16849,1.37079,8.22469,2.05618,7.53936,2.05618,11.65165-5.48314,11.65165-5.48314-6.16849-2.05618-13.02241,0-13.02241,0A17.25488,17.25488,0,0,1,118.0453,120.65866Z"/><path d="M116.67443,94.61375a9.966,9.966,0,0,1-.68544,6.85393c-.68543,6.16853,6.16849,8.9101,6.16849,8.9101a22.07884,22.07884,0,0,0-1.37076-10.28089,12.33528,12.33528,0,0,1,2.74153,8.91011C129.01151,98.72611,116.67443,94.61375,116.67443,94.61375Z"/><path d="M189.32606,128.88337c6.85392,6.16853,14.39328-2.05618,14.39328-2.05618a23.20283,23.20283,0,0,1-5.48316-2.05618c-4.79772-2.74156-8.91012,2.74157-8.91012,2.74157a17.04387,17.04387,0,0,0,8.91012,1.37079C194.12379,130.93955,189.32606,128.88337,189.32606,128.88337Z"/><path d="M161.91036,96.66993c2.0562,10.28089,14.39329,7.53932,14.39329,7.53932a30.0524,30.0524,0,0,1-3.427-6.16853c-2.74152-5.48314-10.28088-3.427-10.28088-3.427a24.62516,24.62516,0,0,0,6.85392,7.53932A14.92956,14.92956,0,0,1,161.91036,96.66993Z"/><path d="M166.02276,135.7373c-7.53936-7.53932-16.44937,1.37078-16.44937,1.37078,3.427.68539,4.79772,2.05618,6.16849,2.74157,5.48316,2.74157,10.96632-2.74156,10.96632-2.74156-4.79773-2.74157-10.96632-2.05618-10.96632-2.05618A17.73438,17.73438,0,0,1,166.02276,135.7373Z"/><path d="M162.5958,116.54631c-8.22469-3.427-13.02241,6.16853-13.02241,6.16853,2.74152-.6854,4.11239,0,6.16849.68539,5.48316.6854,7.53935-4.79774,7.53935-4.79774a13.4756,13.4756,0,0,0-8.22468,1.37078A11.60986,11.60986,0,0,1,162.5958,116.54631Z"/><path d="M82.40486,135.0519c-.68538,3.427-2.0562,4.79775-2.74158,6.85392-2.74158,5.48314,2.74158,10.28089,2.74158,10.28089a15.36482,15.36482,0,0,0,1.37077-10.28089,13.33467,13.33467,0,0,1,0,9.59549C91.31493,143.27661,82.40486,135.0519,82.40486,135.0519Z"/><path d="M153.68568,89.816c-2.74153-9.5955-15.07861-5.48314-15.07861-5.48314a22.4677,22.4677,0,0,1,4.11239,5.48314c3.427,4.79774,10.28089,2.05618,10.28089,2.05618a13.97807,13.97807,0,0,0-7.53936-6.16853A10.281,10.281,0,0,1,153.68568,89.816Z"/><path d="M107.76441,158.35524C94.74194,156.29907,92.6858,170.6923,92.6858,170.6923a20.37314,20.37314,0,0,1,8.22469-1.37079c7.53935-.6854,8.22468-9.5955,8.22468-9.5955a23.15763,23.15763,0,0,0-11.65165,4.79776A18.02428,18.02428,0,0,1,107.76441,158.35524Z"/><path d="M194.80922,178.23163c-8.22469,1.37079-6.16849,11.65167-6.16849,11.65167,2.0562-2.05617,3.427-2.05617,4.79773-2.74156,4.79772-2.74157,2.74152-8.22472,2.74152-8.22472a16.21268,16.21268,0,0,0-6.16849,5.48314C190.69682,180.2878,194.80922,178.23163,194.80922,178.23163Z"/><path d="M260.60682,139.84965c0,63.05609-54.146,114.46054-121.99986,114.46054-48.66285,0-90.47177-26.73029-109.66278-65.79766,16.44943,47.29207,63.74151,81.56168,119.94367,81.56168C218.79785,270.07421,275,217.299,275,151.50134c0-44.5505-26.04493-83.61787-65.11227-103.49425C240.73049,67.88345,260.60682,101.46768,260.60682,139.84965Z"/><path d="M98.85429,197.42261c-34.955-27.4157-45.23589-74.02238-23.30335-113.77514C96.11271,46.63629,140.66316,28.81608,181.7867,37.04079,137.2362,19.22059,83.77557,35.67,60.47227,77.47894,35.79816,120.65866,52.933,174.11927,98.85429,197.42261Z"/><path d="M244.15745,107.63621c-7.53936-40.43815-47.292-69.22464-91.15721-65.11228-46.6067,4.11236-80.19088,42.49433-76.07854,85.674,4.79773-37.69658,37.0112-68.53924,78.13474-71.9662C194.80922,53.49021,230.4496,74.73737,244.15745,107.63621Z"/><path d="M144.09012,244.71468c57.57292,0,83.61785-41.80894,83.61785-41.80894-23.3033,19.191-51.40443,25.35952-51.40443,25.35952a88.45559,88.45559,0,0,1-16.44937,2.05618c1.37076-10.96628,0-20.56177-4.79773-32.21345a45.56553,45.56553,0,0,1,2.0562-14.39324c6.85392-8.9101,14.39328-14.39324,28.10113-13.70785,8.91012,2.74157,18.50557,8.22471,21.2472,20.56177-.68543-7.53932-5.48316-15.07864-13.70784-20.56177,8.91012-.68539,18.50557-5.48313,21.2472-13.70785-6.85392,13.70785-20.56177,9.59549-29.47189,8.22472-6.85393-.6854-12.33709-.6854-17.13481,2.05617a34.32547,34.32547,0,0,1,4.79772-5.48314,48.65433,48.65433,0,0,0,6.85393-9.59549c10.96632-12.33706,26.04493-25.35951,47.292-19.87637-12.33708-4.11236-28.78646.68539-41.809,9.59549,1.37077-4.79775,2.74153-9.59549,2.74153-15.07863,2.0562-9.59549,7.53936-17.8202,21.24721-20.56177-7.53936,1.37078-16.44938,5.48314-21.24721,13.70784a59.27434,59.27434,0,0,0-4.11239-15.764c6.85392,22.618-1.37077,38.382-12.33709,50.03364a45.90922,45.90922,0,0,0-8.22469-38.382c11.65165,19.191,3.427,41.12354-6.16848,54.146-4.79773,5.48313-8.22469,8.91009-10.96632,13.70784-3.427-13.70784-5.48316-28.10109-4.79773-37.01118A85.47192,85.47192,0,0,1,154.371,104.89463v-.6854c6.16849-10.28088,15.07861-19.191,26.73026-27.41569a135.85788,135.85788,0,0,0-22.618,17.8202c1.37076-9.59549-1.37077-17.8202-6.85393-23.98873,8.91013,11.65167,5.48316,22.61795.68544,31.528-8.22469,10.96628-15.764,23.30334-17.82024,37.01118a136.89472,136.89472,0,0,0-2.0562,19.87638c-6.85393-17.8202-8.22469-42.49433,4.11239-69.91a140.21682,140.21682,0,0,0-10.96632,28.78648c-6.16849-11.65167-17.82024-17.13481-29.47189-17.82021,17.82025,2.05618,25.3595,14.39325,28.10113,24.67413-1.37076,10.28089-2.0562,20.56177-.68543,30.84266a35.26473,35.26473,0,0,0-15.07861-6.16853c-7.53931-5.48313-14.39323-14.39324-12.33709-26.04491a27.35874,27.35874,0,0,0,6.16854,25.35951c-6.16854,0-13.70784.6854-19.87639,3.427,21.24716-1.37079,34.26962,4.79775,42.49431,14.39324a60.31941,60.31941,0,0,0,3.427,10.28088c8.22469,19.87638,13.70785,37.01119,10.96632,52.08983-45.23588-8.22472-71.9662-39.75276-71.9662-39.75276C11.12394,128.88337,56.35983,70.625,56.35983,70.625c-29.4719,20.56177-34.955,63.74149-29.4719,84.98865C43.33747,221.41134,106.39354,244.71468,144.09012,244.71468Z"/></svg>