<svg id="Layer_1" data-name="Layer 1" xmlns="http://www.w3.org/2000/svg" viewBox="0 0 300 300"><defs><style>.cls-1{fill:#00a2ae;}.cls-2{fill:#72bc44;}.cls-3{fill:#28c0da;}.cls-4{fill:#005ea8;}</style></defs><g id="_00a2aeff" data-name="#00a2aeff"><path id="Layer" class="cls-1" d="M103.51,19.06h.33c9.15.3,18.25,5,22.91,13,5.57,9.12,3.94,20.28,6.79,30.23,2.65,10,9.52,18,16.7,25.09,5.87,5.48,12,11.38,20.12,13.23,7.2,1.88,15.46,2.38,21,7.92,7.11,6.8,7,19.52-.3,26.16-6.8,6.82-18.93,6.69-25.57-.27-5.46-5.64-5.92-13.92-7.84-21.13-1.55-7.11-6.37-12.8-11.12-18C139.84,88.09,132.39,81,123,77.49c-8.31-3.25-17.41-2.73-26-4.82A26.6,26.6,0,0,1,78.37,56a27.68,27.68,0,0,1,4-26.44C87.32,22.89,95.45,19.45,103.51,19.06Z"/></g><g id="_72bc44ff" data-name="#72bc44ff"><path id="Layer-2" data-name="Layer" class="cls-2" d="M243.8,76.75c12.79-4.33,28,2.46,33.12,15,5.14,11.57,1.09,26.38-9.52,33.37-11.08,7.53-25.55,3.79-37.25,9.7-11.3,5.61-20.21,15.12-27.73,25.07-6.7,8.82-4.31,21.43-11.41,30s-22.07,8-28.37-1.2c-5.68-7.56-4.34-19.57,3.36-25.26,8.57-6.41,20.56-4.33,29.1-10.91,9.68-7.29,18.79-16,24.48-26.85,4.68-8.94,4-19.3,6.13-28.92A26.85,26.85,0,0,1,243.8,76.75Z"/></g><g id="_28c0daff" data-name="#28c0daff"><path id="Layer-3" data-name="Layer" class="cls-3" d="M108.83,111.62c6-7.49,18-8.63,25.35-2.54,8.34,6.25,9.14,19.81,1.81,27.15-5.8,5.77-14.4,6.17-21.86,8.21-5.73,1.44-10.6,5-14.95,8.89-8.11,7.29-16.12,15.35-20.15,25.72-3.52,8.82-2.55,18.62-5.2,27.65a26.34,26.34,0,0,1-13.17,15.94C50.19,228.41,36,226,28.13,217c-4.76-4.88-7-11.66-7.27-18.38v-.24c.26-9.26,5.08-18.43,13.19-23.1,9.61-5.79,21.4-3.63,31.7-7.23C76,164.72,84,157,91.2,149.31c4.42-4.89,8.91-10.18,10.63-16.73C103.79,125.52,104.16,117.61,108.83,111.62Z"/></g><g id="_005ea8ff" data-name="#005ea8ff"><path id="Layer-4" data-name="Layer" class="cls-4" d="M115.28,161.41c7.77-3,17.48.17,21.74,7.4,3.42,5.92,3.87,12.86,5.69,19.31,2.07,7.14,7.19,12.78,12.14,18.09,7.11,7.46,15.24,14.68,25.41,17.46,9.44,2.83,19.91,1.4,28.84,6a27.3,27.3,0,0,1,14.07,28A27,27,0,0,1,203.51,280c-11.49,3.33-24.87-2-30.61-12.66-5.32-9.45-3.43-20.85-6.77-30.89-2.91-9.35-9.38-17-16.27-23.69-6.11-5.76-12.67-11.94-21.21-13.56-8-1.76-17.64-2.88-22.34-10.6C99.86,179.26,104.62,165,115.28,161.41Z"/></g></svg>