<svg id="Layer_1" data-name="Layer 1" xmlns="http://www.w3.org/2000/svg" viewBox="0 0 300 300"><defs><style>.cls-1{fill:#484f4d;}.cls-2{fill:#10adb9;}.cls-3{fill:#fcfdfd;}.cls-4{fill:#f7fafb;}</style></defs><path class="cls-1" d="M131,133.86c1-6.91,5.24-11.45,11.06-14.67,10.29-5.69,21.67-6.59,33.05-7,19.8-.7,74.07,3.33,94.2,6.75-1.39,4-3.87,7.12-6.46,10.17-14.33,16.84-32.79,26.59-54.18,31a119.79,119.79,0,0,1-38.43,1.89l7.17-5.36c33.22,1.76,74.07-14.84,81.22-33a2.63,2.63,0,0,0-.8-.37c-27.74-3-55.51-5.66-83.46-5.17-9.88.17-19.73,1.11-28.72,5.76-4.36,2.25-8.33,5.09-8.52,10.77Z"/><path class="cls-2" d="M131,133.86l6.13.8c17.86.59,35.58,2.51,53.64,4.71-3.19,7.45-8.61,12.13-13.36,17.32l-7.17,5.36c-16.57,10.56-34.81,14.79-54.28,14.32-1.94,0-3.87-.38-5.8-.59,1.69-2.35,4.19-3.75,6.4-5.49,15,.58,29.39-1.8,42.66-9.27a15.39,15.39,0,0,0,7.74-4.7c5.44-2.79,9.57-7,14-12.22-15.21-1.69-29.59-3.2-44.05-3.63l-5.95-.15c-3.63-.24-7.25-.69-10.88-.7-9.56,0-19.14.08-28.29,3.43-4.53,1.66-8.53,4-10,9.14l-6-.2c1.46-7.54,6.65-11.67,13.34-14.25,7.16-2.76,14.71-3.64,22.31-3.82C118,133.76,124.5,133.87,131,133.86Z"/><path class="cls-1" d="M116.57,170.29c-2.21,1.74-4.71,3.14-6.4,5.49-8.3,4.41-16.63,8.67-26,10.4a92.27,92.27,0,0,1-36.57-.26,29.6,29.6,0,0,1-9.28-3.6c-10.37-6.35-10.14-19.54.49-25.46,6.12-3.4,12.9-4.35,19.74-4.67,5.75-.27,11.51-.15,17.27-.2l6,.2c14.76,1.68,29.67,2.11,44.66,4.59C124.08,162.44,120.09,166.19,116.57,170.29Zm-10.55,0c4.2-1.85,7.16-5.08,10.61-9-12-1.23-23.2-2.66-34.46-2.74-2.12.1-4.16-1.13-6.32-.4a90.25,90.25,0,0,0-17.7-.18c-5.89.48-11.85,1-17,4.3C35,166.17,35,173.12,41,177.17a22.47,22.47,0,0,0,8.42,3.26c16.83,3.25,33.2,2,48.93-5.08C101,173.82,104.08,172.91,106,170.27Z"/><path class="cls-3" d="M177.42,156.69c4.75-5.19,10.17-9.87,13.36-17.32-18.06-2.2-35.78-4.12-53.64-4.71.19-5.68,4.16-8.52,8.52-10.77,9-4.65,18.84-5.59,28.72-5.76,28-.49,55.72,2.16,83.46,5.17a2.63,2.63,0,0,1,.8.37C251.49,141.85,210.64,158.45,177.42,156.69Z"/><path class="cls-4" d="M116.57,170.29c3.52-4.1,7.51-7.85,9.85-13.51-15-2.48-29.9-2.91-44.66-4.59,1.47-5.09,5.47-7.48,10-9.14,9.15-3.35,18.73-3.45,28.29-3.43,3.63,0,7.25.46,10.88.7,1,6.83,5.11,11.36,10.86,14.72,5.42,3.17,11.46,4.46,17.44,6C146,168.49,131.59,170.87,116.57,170.29Z"/><path class="cls-4" d="M136.88,140.47c14.46.43,28.84,1.94,44.05,3.63-4.39,5.2-8.52,9.43-14,12.22-6.06-1.06-12.19-1.78-17.93-4.17C143.49,149.83,138.55,146.84,136.88,140.47Z"/><path class="cls-1" d="M136.88,140.47c1.67,6.37,6.61,9.36,12.16,11.68,5.74,2.39,11.87,3.11,17.93,4.17a15.39,15.39,0,0,1-7.74,4.7c-6-1.52-12-2.81-17.44-6-5.75-3.36-9.84-7.89-10.86-14.72Z"/><path class="cls-4" d="M98.35,175.34c-15.74,7.14-32.11,8.34-48.94,5.09A22.47,22.47,0,0,1,41,177.17c-6-4-6-11,.14-14.9,5.17-3.31,11.13-3.82,17-4.3a91,91,0,0,1,17.7.17c1.75,7.37,6.93,11.36,13.57,14.05C92.36,173.38,95.65,173.53,98.35,175.34Z"/><path class="cls-4" d="M82.17,158.55c11.26.08,22.41,1.51,34.46,2.74-3.45,3.9-6.41,7.13-10.62,9-3.93-.86-7.93-1.48-11.77-2.65C89.19,166.08,84.29,164.09,82.17,158.55Z"/><path class="cls-2" d="M82.17,158.55c2.12,5.54,7,7.53,12.07,9.07,3.84,1.17,7.84,1.79,11.77,2.65-1.93,2.64-5,3.55-7.66,5.07-2.7-1.81-6-2-8.93-3.15-6.64-2.69-11.82-6.68-13.57-14.05C78,157.42,80.05,158.65,82.17,158.55Z"/></svg>