<?xml version="1.0" encoding="utf-8"?>
<!-- Generator: Adobe Illustrator 28.3.0, SVG Export Plug-In . SVG Version: 6.00 Build 0)  -->
<svg version="1.1" id="Layer_1" xmlns="http://www.w3.org/2000/svg" xmlns:xlink="http://www.w3.org/1999/xlink" x="0px" y="0px"
	 viewBox="0 0 300 300" style="enable-background:new 0 0 300 300;" xml:space="preserve">
<style type="text/css">
	.st0{fill:#C13B95;}
</style>
<g>
	<path class="st0" d="M49,244.6c0.1-0.3,0.4-0.4,0.6-0.5c16.2-9.4,32.3-18.8,48.5-28.2c16.2-9.4,32.4-18.8,48.6-28.3
		c0.2-0.1,0.3-0.2,0.6-0.2c-0.1,0.6-0.5,1.1-0.8,1.6c-4.3,7.5-8.5,15-12.8,22.5c-0.2,0.4-0.6,0.8-1,1c-13.6,7.9-27.3,15.9-40.9,23.8
		c-4.4,2.6-8.8,5.1-13.3,7.7c-0.3,0.2-0.6,0.4-0.9,0.6C68.1,244.6,58.5,244.6,49,244.6z"/>
	<path class="st0" d="M258.5,231.4c-1.9-0.9-3.6-2-5.4-3.1c-13.3-7.7-26.6-15.5-39.9-23.3c-9.6-5.6-19.2-11.2-28.7-16.8
		c-7.9-4.6-15.8-9.2-23.7-13.8c-0.1-0.1-0.2-0.1-0.4-0.2c-0.1-0.1-0.2-0.1-0.2-0.3c0-0.1,0.1-0.1,0.2-0.1c0.2,0,0.4,0,0.6,0
		c3.5,0,7.1-0.1,10.6,0c5.4,0.1,10.8,0,16.3,0.1c0.5,0,1,0.2,1.4,0.4c6.2,3.6,12.4,7.2,18.6,10.9c11.4,6.7,22.8,13.3,34.2,19.9
		c1.4,0.8,2.4,1.8,3.2,3.2c4.2,7.6,8.6,15.1,12.9,22.6c0,0.1,0.1,0.2,0.2,0.2C258.5,231.3,258.5,231.3,258.5,231.4z"/>
	<path class="st0" d="M141.4,55.4c0,38,0,75.8,0,113.7c-0.3,0-0.3-0.2-0.4-0.4c-4.6-7.9-9.2-15.9-13.8-23.8
		c-0.2-0.4-0.2-0.8-0.2-1.3c0-17,0-34.1,0-51.1c0-3.9,0-7.8,0-11.7c0-0.5,0.1-0.9,0.3-1.3c4.5-7.8,9-15.6,13.5-23.3
		C141,55.9,141.1,55.6,141.4,55.4z"/>
	<path class="st0" d="M156.6,169.2c0-38,0-75.8,0-113.7c0.4,0.2,0.5,0.6,0.7,0.9c3.3,5.7,6.5,11.3,9.8,17c1.2,2.1,2.4,4.2,3.7,6.3
		c0.2,0.4,0.3,0.8,0.3,1.2c0,21,0,42,0,63c0,0.5-0.2,1-0.4,1.4c-4.5,7.7-8.9,15.4-13.4,23.1C157.1,168.6,157,168.9,156.6,169.2z"/>
	<path class="st0" d="M249,244.4c-0.5,0.2-0.8,0.2-1,0.2c-8.9,0-17.8,0-26.7,0c-0.6,0-1.1-0.1-1.6-0.4c-17.1-10-34.1-19.9-51.2-29.9
		c-0.5-0.3-1-0.7-1.6-0.9c-1.6-0.7-2.6-1.9-3.4-3.4c-4.1-7.3-8.3-14.6-12.4-21.9c-0.1-0.2-0.3-0.4-0.3-0.9
		C183.5,206.2,216.2,225.2,249,244.4z"/>
	<path class="st0" d="M139.7,174.1c-32.7,19.1-65.4,38.1-98.1,57.2c-0.2-0.4,0-0.6,0.1-0.8c4.5-7.8,8.9-15.6,13.4-23.4
		c0.2-0.4,0.6-0.7,1-1c16.3-9.5,32.5-19,48.8-28.4c1.9-1.1,3.8-2.2,5.7-3.3c0.4-0.3,0.9-0.4,1.4-0.4c5.2,0,10.3,0,15.5,0
		c3.8,0,7.6-0.1,11.4-0.1c0.3,0,0.5,0,0.8,0C139.6,173.9,139.7,174,139.7,174.1z"/>
</g>
</svg>
