<svg id="Layer_1" data-name="Layer 1" xmlns="http://www.w3.org/2000/svg" xmlns:xlink="http://www.w3.org/1999/xlink" viewBox="0 0 300 300"><defs><clipPath id="clip-path"><path d="M176.35517,27.32622l-.97455,2.43642c-.73094,1.46185-1.46187,3.16735-2.19277,4.6292s-1.70549,2.92371-2.43642,4.14192c-.97455,1.46185-1.70549,2.68006-2.68008,3.89827a57.21659,57.21659,0,0,1-6.33471,7.06562c-2.19276,2.19278-4.62919,4.38556-6.822,6.3347-2.43642,1.94914-4.87284,3.89828-7.55292,5.84741s-5.1165,3.89828-7.79654,5.60377-5.36012,3.65464-8.0402,5.36013-5.36012,3.411-8.0402,5.11649a.23862.23862,0,0,0-.24365.24363A164.45531,164.45531,0,0,0,107.4044,88.724a96.46667,96.46667,0,0,0-14.3749,13.88761,102.13128,102.13128,0,0,0-6.33469,8.04019,65.93087,65.93087,0,0,0-5.11648,9.01476c-.73093,1.46185-1.46185,3.16734-2.19278,4.87284a38.66959,38.66959,0,0,0-1.70549,4.87284,76.70682,76.70682,0,0,0-2.19278,10.233c-.24364,1.70549-.24364,3.411-.48728,5.11648v5.11648l.48728,5.11648.97457,4.87284,1.21821,4.87285c.48728,1.70548.97457,3.16735,1.46185,4.6292,1.21821,3.16736,2.43642,6.09106,3.89827,9.01475a92.37229,92.37229,0,0,0,4.87284,8.28384,43.375,43.375,0,0,0,5.60378,7.5529,84.48193,84.48193,0,0,0,6.091,7.06563l6.57833,6.57833c-1.21821-2.9237-2.92369-5.36012-4.1419-8.28384-1.21822-2.68006-2.68006-5.36012-3.89828-8.28383-1.21821-2.68006-2.19278-5.60378-3.411-8.28384-.97457-2.9237-1.94914-5.60378-2.68006-8.28384-.48728-1.94914-.97457-3.65463-1.46185-5.60377h26.557a4.38557,4.38557,0,1,0,0-8.77114H89.37487l-.24364-2.43642v-4.14191l.24364-4.14191.48728-3.89827c.24364-1.21821.48728-2.68006.73093-3.89827q.36546-1.09638.73094-2.19278h57.7432a4.38556,4.38556,0,1,0,0-8.77111H94.735a15.53329,15.53329,0,0,1,1.94915-3.411c1.21821-2.19278,2.92369-4.38556,4.38556-6.57834a63.881,63.881,0,0,1,5.36012-6.09105A66.39337,66.39337,0,0,1,112.5209,109.19c1.94914-1.7055,4.38556-3.411,6.57833-5.11648,1.94914-1.46185,3.89829-2.68006,5.84739-4.14192l8.77114-5.36013q4.38554-2.92369,8.77113-5.84741c2.9237-2.19279,5.84739-4.38556,8.52747-6.57834a105.04987,105.04987,0,0,0,15.34947-15.83674,31.03028,31.03028,0,0,0,3.16735-4.6292c.97456-1.46186,1.94915-3.16735,2.9237-4.87285a79.20417,79.20417,0,0,0,4.38557-10.47661A43.662,43.662,0,0,0,178.30428,29.519a34.57859,34.57859,0,0,0-1.21821-5.36013,10.12068,10.12068,0,0,1-.7309,3.16739" fill="none"/></clipPath><linearGradient id="linear-gradient" x1="6865.57122" y1="7000.42732" x2="6868.00677" y2="7000.42732" gradientTransform="translate(-526492.02673 516682.13011) rotate(-90) scale(75.2267)" gradientUnits="userSpaceOnUse"><stop offset="0" stop-color="#f6ec3b"/><stop offset="0.3161" stop-color="#f19125"/><stop offset="0.7755" stop-color="#ec6357"/><stop offset="1" stop-color="#e81d28"/></linearGradient></defs><path d="M224.59632,161.08575c0,.97458-.24365,1.70549-.24365,2.68006-.24366.97458-.24366,1.70549-.48728,2.68006l-.24366,1.21822-.24366,1.21821c-.24365.73093-.48727,1.70548-.73093,2.43642a66.74664,66.74664,0,0,1-3.65463,9.74568,65.93251,65.93251,0,0,1-5.1165,9.01476,69.50659,69.50659,0,0,1-6.09106,8.04019c-1.21821,1.21822-2.19276,2.43643-3.411,3.65464a46.77427,46.77427,0,0,1-3.65463,3.411c-2.43642,2.19278-4.87285,4.38557-7.55292,6.57833-2.68008,1.94915-5.1165,3.89827-7.79655,5.84742q-4.02011,2.55822-8.04019,5.11648h0c-1.46187.97457-2.68008,1.70549-4.14191,2.68006s-2.68008,1.70549-4.14191,2.68006-2.68008,1.70549-4.14191,2.68006-2.68008,1.70549-4.14191,2.68006a37.17431,37.17431,0,0,1-3.89829,2.68006c-1.21821.97457-2.68008,1.94914-3.89829,2.9237s-2.43642,1.94914-3.89829,2.92369q-1.82731,1.46187-3.65463,2.9237a42.35419,42.35419,0,0,0-3.65463,3.16736c-1.21821.97457-2.19277,2.19278-3.411,3.16735a40.46067,40.46067,0,0,0-3.16735,3.411q-1.46184,1.82732-2.9237,3.65463a22.0802,22.0802,0,0,0-2.68008,3.89827,36.68178,36.68178,0,0,0-2.43642,4.14191c-.73094,1.46185-1.46187,2.9237-2.19277,4.6292l-.48727,1.21822c-.24366.48727-.24366.73093-.48728,1.21821l-.48728,1.21821c-.24365.48727-.24365.97457-.48727,1.21821-.24366-.48728-.24366-.97457-.48728-1.21821l-.24366-1.21821c-.24366-.97458-.24366-1.70549-.48728-2.68006a41.29542,41.29542,0,0,1-.24365-5.60378,43.49968,43.49968,0,0,1,.48727-5.60378,46.09024,46.09024,0,0,1,1.21822-5.60377,47.38948,47.38948,0,0,1,1.94914-5.36012,48.70038,48.70038,0,0,1,2.43642-5.11649c.97456-1.70548,1.94915-3.16735,2.9237-4.87284.97455-1.46185,2.19276-3.16735,3.16736-4.6292,1.21821-1.46185,2.19276-2.9237,3.411-4.38557s2.43642-2.68006,3.65463-4.14191l3.89829-3.89827c1.21821-1.21821,2.68008-2.43642,4.14191-3.65463s2.68008-2.19279,4.14191-3.411c1.46187-.97457,2.9237-2.19278,4.38557-3.16735s2.92369-1.94915,4.38556-2.9237,2.9237-1.94914,4.38557-2.9237l6.57833-3.89827c.24366-.24364.73093-.48728.97455-.73093,2.43642-1.46185,4.62919-3.16736,7.06561-4.87285l6.57833-5.11648a66.39456,66.39456,0,0,0,6.09106-5.60377,63.88077,63.88077,0,0,0,5.36012-6.09106,38.64328,38.64328,0,0,0,4.38556-6.57833c.24366-.48728.73094-1.21821.97456-1.70549a6.107,6.107,0,0,1,.97455-1.70548H151.50368a4.38557,4.38557,0,0,1,0-8.77114h57.01225c.24365-.73093.48727-1.46185.73093-2.43642a40.07794,40.07794,0,0,0,1.21821-7.79654c.24366-2.68006.24366-5.36013.24366-8.04019a8.28794,8.28794,0,0,0-.24366-2.43642H182.44622a4.38556,4.38556,0,1,1,0-8.77111h26.557c-.48727-1.94914-.73093-3.65464-1.21821-5.60377-.73093-2.68006-1.70549-5.60377-2.68008-8.28384s-2.19276-5.60377-3.411-8.28384-2.43642-5.60376-3.89829-8.28383c-1.21821-2.68006-2.68008-5.36013-4.14191-8.28384a83.79727,83.79727,0,0,1,6.57833,6.57834,84.48725,84.48725,0,0,1,6.091,7.06563c1.94915,2.43642,3.89829,5.11648,5.60378,7.5529a92.37088,92.37088,0,0,1,4.87284,8.28384c1.46187,2.9237,2.68008,5.84741,3.89829,9.01476a46.30833,46.30833,0,0,1,2.68008,9.502,65.74726,65.74726,0,0,1,1.46187,9.98932,53.6821,53.6821,0,0,1-.24366,10.96393" fill="#48484a"/><g clip-path="url(#clip-path)"><rect x="75.24368" y="24.64615" width="103.54792" height="183.21889" fill="url(#linear-gradient)"/></g></svg>