<svg id="Layer_1" data-name="Layer 1" xmlns="http://www.w3.org/2000/svg" viewBox="0 0 300 300"><path d="M205.85376,79.35657a23.97047,23.97047,0,0,1-6.977,16.25684,23.05571,23.05571,0,0,1-13.28132,7.07068,33.00745,33.00745,0,0,1-8.54688.49831,26.009,26.009,0,0,1-13.87937-5.99979c-2.6413-2.24083-5.23277-4.48165-6.80262-7.69279a27.21991,27.21991,0,0,1-2.26752-16.831,21.15544,21.15544,0,0,1,6.57834-12.59847,9.68054,9.68054,0,0,1,6.379-2.86294c-1.54492,1.54444-3.08984,3.03781-4.63476,4.53118a6.15787,6.15787,0,0,1,.52328.67318c3.663-1.47016,7.27607-3.08733,11.01377-4.35786,3.23935-1.12041,6.57835-2.16654,10.09181-.87126a2.08716,2.08716,0,0,0,.79737.07428,1.1108,1.1108,0,0,0,.82229-.39771c-.92194-.24916-1.819-.49831-2.741-.74746v-.27392c.27411-.04952.52326-.1238.79737-.14856,1.42034-.10059,2.79083.24915,4.28591.14856,1.59476-.099,3.28919,1.29529,4.95869,2.01644,5.85575,2.5395,9.07017,7.59375,11.63673,12.92191,1.221,2.49,1.34555,5.72587,1.221,8.61511Z" fill="#a70f26"/><path d="M114.52917,73.45583l.299-.34974a23.76234,23.76234,0,0,1,1.29572-3.43553,26.5054,26.5054,0,0,0-1.59475,3.78527Z" fill="#a70f26"/><path d="M116.12392,69.69532a23.71328,23.71328,0,0,0-1.29572,3.43707l-.299.3482a26.49853,26.49853,0,0,1,1.59475-3.78527Z" fill="#a70f26"/><path d="M116.12392,69.69532a23.71328,23.71328,0,0,0-1.29572,3.43707l-.299.3482a26.49853,26.49853,0,0,1,1.59475-3.78527Z" fill="#a70f26"/><path d="M116.12392,69.69532a23.71328,23.71328,0,0,0-1.29572,3.43707l-.299.3482a26.49853,26.49853,0,0,1,1.59475-3.78527Z" fill="#a70f26"/><path d="M116.12392,69.69532a23.71328,23.71328,0,0,0-1.29572,3.43707l-.299.3482a26.49853,26.49853,0,0,1,1.59475-3.78527Z" fill="#a70f26"/><path d="M131.17444,86.95032a3.26491,3.26491,0,0,1-.42362-.94709,2.71714,2.71714,0,0,1-.19936-1.07089A6.81577,6.81577,0,0,0,131.17444,86.95032Z" fill="#a70f26"/><path d="M164.88852,122.17837l-.99671-.44723a12.36465,12.36465,0,0,0,1.17114.64687c-.14953-.14857-.14953-.19964-.19936-.19964Zm0,0-.99671-.44723a12.36465,12.36465,0,0,0,1.17114.64687c-.14953-.14857-.14953-.19964-.19936-.19964Z" fill="#a70f26"/><path d="M245,201.40126a45.466,45.466,0,0,1-.87213,9.63494c-1.34558,8.24217-4.80918,15.73532-9.96723,22.95611a66.59344,66.59344,0,0,1-21.13048,18.94646,77.55787,77.55787,0,0,1-19.95934,8.26537,27.523,27.523,0,0,1-3.5882.8465,2.10789,2.10789,0,0,0-.8472.27392c-.79739.05107-1.819.29867-2.66621.424a10.16333,10.16333,0,0,0-1.27081.19963c-2.06823.29868-4.03674.49676-6.05511.72115-.12458,0-.27409.04953-.37376.04953H177.821c-.84723.07582-1.71933.07582-2.56656.07582a46.4543,46.4543,0,0,1-6.25441.3482,110.25353,110.25353,0,0,1-21.77836-2.14179c-2.3672-6.14989-.94688-12.69751,1.37051-18.14947a94.633,94.633,0,0,0,21.18029,2.38939c1.71936,0,3.46362,0,5.183-.1238h.04983c3.38888-.29867,6.703-.94554,10.042-1.51968,5.98032-.94554,11.78623-2.56426,17.044-6.14835,1.07144-.64842,2.01834-1.34481,3.13965-2.01644a39.56765,39.56765,0,0,0,4.261-3.08732A42.588,42.588,0,0,0,224.91606,200.53a46.02248,46.02248,0,0,0-3.04-16.20732c0-.04952-.1246-.04952-.1246-.19963-.34885-.57259-.52329-1.0709-.84721-1.594a54.39185,54.39185,0,0,0-14.15345-16.73039,8.48944,8.48944,0,0,0-1.6695-1.16993,36.68054,36.68054,0,0,0-5.98034-3.7342c-8.47214-4.23251-30.37506-14.36576-32.6177-15.71056-6.95213-4.1087-14.02886-8.39073-20.90624-13.12154a88.934,88.934,0,0,1-14.02885-11.8247c-7.74949-6.74725-13.45573-14.59015-16.3213-22.95611a2.99872,2.99872,0,0,1-.34885-1.0709,7.45183,7.45183,0,0,1-.42362-.94554,3.08587,3.08587,0,0,1-.19931-.64687,2.07444,2.07444,0,0,1-.19937-.87126,33.267,33.267,0,0,1-1.42032-9.56066,29.5037,29.5037,0,0,1,1.91868-10.6068v-.1238l.299-.34974a23.76234,23.76234,0,0,1,1.29572-3.43553,16.69408,16.69408,0,0,1,1.52-2.73758,54.26528,54.26528,0,0,1,3.51346-4.95521,35.48507,35.48507,0,0,1,3.13968-3.31172,47.79253,47.79253,0,0,1,4.1862-3.78372c1.49511-1.02137,3.08984-2.09226,4.73443-3.21268a23.03577,23.03577,0,0,1,2.442-1.51813,37.65064,37.65064,0,0,1,3.61313-1.792c.12458-.12535.27408-.12535.37378-.22439a53.73112,53.73112,0,0,1,5.33244-2.066c.52328-.19963.94689-.29868,1.49508-.49831.299-.15011.64786-.19963.9469-.34819a79.5492,79.5492,0,0,1,28.92983-4.08394c-16.22163,0-30.52459,6.32477-38.99673,16.08351a3.72161,3.72161,0,0,1-.34885.44879,25.73307,25.73307,0,0,0-5.88065,9.23568,12.8895,12.8895,0,0,0-.9469,3.61039,2.31361,2.31361,0,0,0-.37377,1.16994,30.54869,30.54869,0,0,0,.2741,11.12986,15.6271,15.6271,0,0,0,.44855,2.066,2.71747,2.71747,0,0,0,.19934,1.07089,3.23778,3.23778,0,0,0,.42361.94554,46.309,46.309,0,0,0,9.76786,15.562c2.36722,2.51319,4.80918,4.72926,7.276,6.97009,1.27081,1.14518,2.6413,2.29035,3.962,3.43553a109.13641,109.13641,0,0,0,12.70818,9.262l-.99671-.44723a12.72192,12.72192,0,0,0,1.17114.64687c1.52.94554,3.23935,1.91739,4.88395,2.88769a10.5941,10.5941,0,0,1,1.6695.8465c9.12,5.02949,22.97441,12.57371,30.44985,15.237a87.50366,87.50366,0,0,1,26.2885,19.64439c6.45375,7.09544,12.08525,14.98786,14.27806,24.62281C243.72918,190.72018,245,195.92454,245,201.35174Z" fill="#a70f26"/><path d="M209.91541,45.59558s-.1246.19963-.19934.29868c-2.94034-.8465-5.90558-1.71777-8.77116-2.78866-10.54032-3.5098-21.20524-5.57731-32.31869-4.73081a113.05206,113.05206,0,0,0-13.85444,1.64348,20.53992,20.53992,0,0,0-4.08655.8465c-.87213.19963-1.71933.44879-2.59146.64687a78.641,78.641,0,0,0-15.34953,5.02949,79.77919,79.77919,0,0,0-17.59212,9.686,38.19493,38.19493,0,0,0-5.3823,3.95859,73.21435,73.21435,0,0,0-9.89246,8.98807c-1.49509,1.56766-3.01508,3.16161-4.46032,4.87938-1.42033,1.74252-2.81574,3.58563-4.23607,5.37768-1.37048,1.8168-2.66622,3.70943-3.73769,5.47672A100.81846,100.81846,0,0,0,73.863,116.502v.27392a107.13407,107.13407,0,0,0-1.19608,46.06078,102.03363,102.03363,0,0,0,7.10165,22.905c-5.53181.42247-11.11345,3.0378-15.29967,9.95837a114.477,114.477,0,0,1-8.09836-27.78441A112.70253,112.70253,0,0,1,55,150.18873c0-2.39094.14949-4.75557.34885-7.1202.12459-1.99322.22426-3.88431.4236-5.90075A11.04522,11.04522,0,0,1,55.922,134.927a148.13175,148.13175,0,0,1,3.51345-16.95478A107.93685,107.93685,0,0,1,75.00917,84.9571a114.19651,114.19651,0,0,1,25.51605-26.61448A109.83012,109.83012,0,0,1,135.28589,41.0644a135.32644,135.32644,0,0,1,17.74163-4.00811,101.03031,101.03031,0,0,1,22.40135-1.02137,89.62085,89.62085,0,0,1,24.12063,4.35631c.49837.19963,1.07147.3745,1.59475.59889,2.96525,1.29374,5.90559,3.13685,8.77116,4.60546Z" fill="#21afb2"/><path d="M147.22163,261.97636A113.89791,113.89791,0,0,1,64.5187,195.72491c4.18623-6.89581,9.76786-9.53591,15.29968-9.95838,12.80787,29.2035,38.19934,51.08872,68.79867,58.06036-2.31738,5.452-3.73771,11.99957-1.37049,18.14947Z" fill="#233b90"/><path d="M131.17444,86.95032a3.26491,3.26491,0,0,1-.42362-.94709,2.71714,2.71714,0,0,1-.19936-1.07089A6.81577,6.81577,0,0,0,131.17444,86.95032Z" fill="#a70f26"/><path d="M131.17444,86.95032a3.26491,3.26491,0,0,1-.42362-.94709,2.71714,2.71714,0,0,1-.19936-1.07089A6.81577,6.81577,0,0,0,131.17444,86.95032Z" fill="#a70f26"/><path d="M79.76853,185.79129c-5.53181.44878-11.11344,3.03781-15.24983,9.95838a112.057,112.057,0,0,1-8.09837-27.83394c4.93377-4.73081,10.83935-5.6779,16.24655-5.02949A102.03363,102.03363,0,0,0,79.76853,185.79129Z" fill="#1179b0"/><path d="M178.61833,263.66936a3.48137,3.48137,0,0,1-.37375.04953H177.796c-.84721.04952-1.71934.04952-2.56654.04952a46.92145,46.92145,0,0,1-6.25441.34974,110.82282,110.82282,0,0,1-21.85313-2.14179c-2.29245-6.1499-.87213-12.69751,1.44525-18.14947a94.63323,94.63323,0,0,0,21.18032,2.38939c1.71936,0,3.43869,0,5.183-.1238h.04983c-1.42032,5.57731-1.09638,11.851,3.663,17.57688Z" fill="#601f56"/></svg>