<svg id="Layer_1" data-name="Layer 1" xmlns="http://www.w3.org/2000/svg" xmlns:xlink="http://www.w3.org/1999/xlink" viewBox="0 0 300 300"><defs><style>.cls-1{fill:url(#radial-gradient);}</style><radialGradient id="radial-gradient" cx="-883.36" cy="-854.76" r="182.48" gradientTransform="matrix(-0.36, -0.79, -0.84, 0.45, -859.64, -127.98)" gradientUnits="userSpaceOnUse"><stop offset="0" stop-color="#2a3b8f"/><stop offset="0.57" stop-color="#3b98d4"/></radialGradient></defs><path class="cls-1" d="M161.35,56.43c21.18-7,43-7.13,64.92-5.23-3.74-2.6-8-3.67-12.16-4.88-44.23-13-92.35,3.33-119.35,40.14C64.15,128.18,67,186.75,103,223.84c23.88,24.61,53.34,35.85,87.34,34.06a38.56,38.56,0,0,0,15.55-3.83C212,251,215.3,246.2,215,239c-.27-6.32-3.91-10.32-8.55-13.62-10.92-7.76-23-13.13-35.25-18.25-18.49-7.77-35.65-17.5-49.85-32.19a66.78,66.78,0,0,1-9-82.1C123.85,73.93,141.22,63.1,161.35,56.43Z"/></svg>