<svg id="Layer_1" data-name="Layer 1" xmlns="http://www.w3.org/2000/svg" viewBox="0 0 300 300"><defs><style>.cls-1{fill:#d6d95a;}.cls-1,.cls-2{fill-rule:evenodd;}.cls-2{fill:#212a5d;}</style></defs><path class="cls-1" d="M249.66,150A99.66,99.66,0,1,1,150,50.34,99.65,99.65,0,0,1,249.66,150Z"/><path class="cls-2" d="M236.48,129.71a75.3,75.3,0,1,1-75.3-75.3A75.3,75.3,0,0,1,236.48,129.71Z"/><path class="cls-1" d="M166.77,193.73A70.86,70.86,0,0,1,109.6,81a70.86,70.86,0,1,0,109,90.15A70.64,70.64,0,0,1,166.77,193.73Z"/><path class="cls-1" d="M105.15,115.55a63.62,63.62,0,0,1,6.49-28,61.76,61.76,0,0,0-10.46,34.4c0,35.32,29.78,64,66.51,64a68,68,0,0,0,39.62-12.61,70.63,70.63,0,0,1-33.45,8.36C135.91,181.62,105.15,152,105.15,115.55Z"/><path class="cls-1" d="M117.13,110.2a58.31,58.31,0,0,1,5.55-24.87,56.76,56.76,0,0,0,81.72,76.05,58.7,58.7,0,0,1-87.27-51.18Z"/><path class="cls-1" d="M129.23,107.11A44.81,44.81,0,0,1,134,87a43.6,43.6,0,0,0-7.68,24.67c0,25.33,21.87,45.85,48.84,45.85a50.75,50.75,0,0,0,29.1-9,52.8,52.8,0,0,1-24.56,6C151.82,154.48,129.23,133.28,129.23,107.11Z"/></svg>