<svg id="Layer_1" data-name="Layer 1" xmlns="http://www.w3.org/2000/svg" xmlns:xlink="http://www.w3.org/1999/xlink" viewBox="0 0 300 300"><defs><linearGradient id="linear-gradient" x1="97.33871" y1="-5663.33089" x2="100.46287" y2="-5503.77996" gradientTransform="matrix(1, 0, 0, -1, 0, -5390)" gradientUnits="userSpaceOnUse"><stop offset="0" stop-color="#4191d2"/><stop offset="1" stop-color="#163c6f"/></linearGradient><linearGradient id="linear-gradient-2" x1="202.73767" y1="-5665.35711" x2="205.86184" y2="-5505.83742" xlink:href="#linear-gradient"/><linearGradient id="linear-gradient-3" x1="153.48941" y1="-5419.70338" x2="158.9567" y2="-5605.80968" xlink:href="#linear-gradient"/></defs><path d="M136.53007,163.04337c-8.71642-11.62188-31.24162-39.98926-31.99142-72.69924,0,0-16.71426,38.52092,9.37249,73.4178a340.15385,340.15385,0,0,1,19.651,29.08595c4.31135,7.27929,16.808,28.36738-4.2801,40.02051-12.49664,5.06115-29.83574,9.37249-53.8293-20.36953a104.44122,104.44122,0,0,1-12.49665-21.02561A92.91262,92.91262,0,0,1,127.12634,66.85043l9.99731-23.4A114.90665,114.90665,0,0,0,37.90029,131.0832h0s-.31242,1.37463-.68732,3.81148A113.75076,113.75076,0,0,0,57.77,225.49537c1.09346,1.56208,2.21816,3.12416,3.40534,4.62377,18.18262,23.275,44.36309,33.45977,63.26428,31.99141,9.52869-1.031,39.4894-12.84031,38.5209-42.17619C161.992,197.2217,145.27772,174.66526,136.53007,163.04337Z" fill="url(#linear-gradient)"/><path d="M211.82236,60.69584c-2.74927-1.71829-5.561-3.34286-8.43524-4.84245-1.90574-.9685-3.84272-1.84326-5.74846-2.59306-1.21842-.49986-2.4056-.93725-3.56154-1.34339-29.0547-10.49718-45.2691-3.37409-47.36229,23.8686-2.15567,28.36738,44.26938,79.97853,44.26938,79.97853-28.11746-47.23732-27.52387-61.07736-25.36819-71.26212,2.90547-12.99652,20.15084-14.49611,42.4886-.28118a92.7876,92.7876,0,0,1-27.77379,160.86308L149.9015,271.45178A114.21935,114.21935,0,0,0,211.82236,60.69584Z" fill="url(#linear-gradient-2)"/><path d="M169.27128,27.07986s-33.20984,13.09023-35.36551,43.73826c0,13.059,4.03017,29.11719,28.80478,63.233,10.62215,12.6841,34.58446,43.73827,37.89608,71.69952,2.18692,17.43281.65607,53.36067-56.0787,67.16948,6.56073-5.27984,54.61034-27.46138,27.71131-75.69844A713.18685,713.18685,0,0,0,131.0003,133.77c-15.27715-21.86913-23.4-52.14226-14.746-73.26159C126.50151,35.2964,153.27558,29.26677,169.27128,27.07986Z" fill="url(#linear-gradient-3)"/></svg>