<svg id="Layer_1" data-name="Layer 1" xmlns="http://www.w3.org/2000/svg" viewBox="0 0 300 300"><path d="M70.15329,185.46954c25.341,0,48.26937-.0203,71.19755.04055a13.78812,13.78812,0,0,1,5.18525.95108c10.737,4.52191,29.17806,3.97416,40.6448-1.30135,1.57907-.72649-1.90426.36,0,0,17.33257,12.946,34.58216,27.23423,51.7633,40.06711h0c-17.82716-5.12316-40.1536-8.61824-58.90593-7.90574-13.63412.518-26.079,4.24176-36.785,12.10759-8.67552,6.37406-14.44552,15.59208-18.08442,25.89356-1.01667,2.87809-2.09593,5.73417-3.6491,9.97171C117.98748,229.82965,107.57631,200.18691,70.15329,185.46954Z" fill="#94b2d5"/><path d="M243.993,73.38678c-2.71378.807-5.46549,1.50227-8.13291,2.43987a128.807,128.807,0,0,1-37.483,7.51872c-27.01137,1.15568-47.312-14.02294-51.9695-41.52945l-.00421-.001.00421.001-.28022-7.11-1.516,6.89928h0q-.16118.71426-.32553,1.42642c-1.96264,8.51743-4.25713,16.89053-8.00016,24.90334-9.296,19.89612-27.61818,26.42879-49.36528,23.84775-9.29069-1.103-18.57189-7.08891-28.127-9.80163.44563.12958,3.72934,9.317,3.72934,9.317a96.6647,96.6647,0,0,1,11.50828,26.28131C79.4681,138.46689,65.53891,162.7255,50,176.8559h82.03491c-6.90349-9.10106-11.26386-18.5582-10.676-29.05829.58574-10.459,4.32561-20.04993,12.13931-27.76882a43.61921,43.61921,0,0,1,19.13973-11.306c7.23007-1.97949,14.9616-1.47066,22.41079-.36977,7.48186,1.10616,13.10115,6.53161,19.41153,9.81427,8.58906-7.3765,16.69247-14.36849,24.83276-21.31833q12.21516-10.43109,24.48721-20.7958L250,71.66538Z" fill="#2f578a"/></svg>