<svg id="Layer_1" data-name="Layer 1" xmlns="http://www.w3.org/2000/svg" viewBox="0 0 300 300"><path d="M25,150.19084a129.379,129.379,0,0,1,2.09924-22.90077h112.5L52.67176,228.626A124.38489,124.38489,0,0,1,25,150.19084Z" fill="#67c1bf"/><path d="M139.59924,127.38549V274.80916a124.65131,124.65131,0,0,1-86.92748-46.08779Z" fill="#027c86"/><path d="M275,150.19084a129.37716,129.37716,0,0,0-2.09925-22.90077h-112.5L247.32824,228.626A124.38489,124.38489,0,0,0,275,150.19084Z" fill="#1c6273"/><path d="M160.40076,127.38549V274.80916a124.65133,124.65133,0,0,0,86.92748-46.08779Z" fill="#041e3f"/><path d="M150,25.19084h0V106.584l63.83587-63.83588A124.18505,124.18505,0,0,0,150,25.19084Z" fill="#fcc901"/><path d="M86.16412,42.74809,150,106.584V25.19084A123.92867,123.92867,0,0,0,86.16412,42.74809Z" fill="#fce355"/><path d="M32.82443,106.584H150L86.16412,42.74809A125.35807,125.35807,0,0,0,32.82443,106.584Z" fill="#fcc92e"/><path d="M150,106.584H267.17558a125.3581,125.3581,0,0,0-53.33971-63.83588Z" fill="#e3a200"/></svg>