<svg id="Layer_1" data-name="Layer 1" xmlns="http://www.w3.org/2000/svg" viewBox="0 0 300 300"><defs><style>.cls-1{fill:#2ca8e0;}.cls-2{fill:#7cc042;}.cls-3{fill:#fab355;}</style></defs><title>TSHA_Light_bg</title><path class="cls-1" d="M35,150.1c0,2.52,0,5.05,0,7.58,0,2.81-1.57,4.33-4.38,4.33-2.49,0-5,0-7.46,0A3.8,3.8,0,0,1,19,158.1C19,152.72,19,147.34,19,142A3.84,3.84,0,0,1,23,138c2.67-.06,5.34-.05,8,0a3.88,3.88,0,0,1,4,4.07C35,144.76,35,147.43,35,150.1Z"/><path class="cls-2" d="M105.55,150.07c0-2.58,0-5.15,0-7.73,0-2.76,1.6-4.32,4.4-4.33h7.18c2.77,0,4.35,1.6,4.36,4.39q0,7.59,0,15.17c0,2.93-1.52,4.44-4.41,4.44-2.44,0-4.88,0-7.32,0a3.9,3.9,0,0,1-4.21-4.22C105.54,155.22,105.55,152.64,105.55,150.07Z"/><path class="cls-1" d="M200,150c0-2.53,0-5.06,0-7.59,0-2.79,1.59-4.36,4.37-4.37,2.4,0,4.79,0,7.19,0a3.93,3.93,0,0,1,4.26,4.08q.1,7.93,0,15.87c0,2.59-1.66,4-4.24,4s-5,0-7.46,0a3.84,3.84,0,0,1-4.11-4C200,155.31,200,152.64,200,150Z"/><path class="cls-3" d="M237.54,150c0-2.62,0-5.25,0-7.87a3.86,3.86,0,0,1,4-4.12c2.58,0,5.17,0,7.75,0a3.86,3.86,0,0,1,4,4.11c0,5.29,0,10.59,0,15.88a3.79,3.79,0,0,1-4,4q-3.94,0-7.89,0a3.75,3.75,0,0,1-4-4C237.53,155.34,237.54,152.67,237.54,150Z"/><path class="cls-2" d="M164.74,150c0-2.67,0-5.34,0-8a3.79,3.79,0,0,1,3.83-4c2.72-.05,5.44-.06,8.16,0a3.79,3.79,0,0,1,3.81,3.91q0,8.08,0,16.16a3.77,3.77,0,0,1-3.93,3.92c-2.63,0-5.26,0-7.89,0a3.72,3.72,0,0,1-4-4C164.73,155.38,164.74,152.71,164.74,150Z"/><path class="cls-1" d="M84,150.13c0,2.58,0,5.15,0,7.73A3.81,3.81,0,0,1,79.91,162c-2.54,0-5.07,0-7.61,0a3.86,3.86,0,0,1-4.07-4.08q0-7.86,0-15.73A3.93,3.93,0,0,1,72.37,138c2.53,0,5.07,0,7.6,0a3.84,3.84,0,0,1,4,4.1C84,144.79,84,147.46,84,150.13Z"/><path class="cls-3" d="M156.79,150c0,2.67,0,5.34,0,8a3.73,3.73,0,0,1-4.07,4c-2.53,0-5.07,0-7.6,0a3.87,3.87,0,0,1-4.09-3.94c-.05-5.33-.06-10.67,0-16a4,4,0,0,1,4.28-4.06c2.44,0,4.88,0,7.33,0a3.85,3.85,0,0,1,4.14,4.11C156.8,144.75,156.79,147.37,156.79,150Z"/><path class="cls-1" d="M127.18,150.14c0-2.67,0-5.34,0-8a4,4,0,0,1,3.11-4,4.13,4.13,0,0,1,4.43,1.79,4.69,4.69,0,0,1,.6,2.51c0,5.1,0,10.2,0,15.31,0,2.68-1.61,4.31-4.13,4.29s-4-1.68-4-4.29S127.18,152.66,127.18,150.14Z"/><path class="cls-2" d="M54.39,150c0-2.57,0-5.15,0-7.72a4,4,0,0,1,3.8-4.24,3.92,3.92,0,0,1,4.31,3.87c.1,5.42.11,10.85,0,16.27-.05,2.55-1.88,4-4.4,3.86a3.92,3.92,0,0,1-3.7-4.18C54.37,155.21,54.39,152.59,54.39,150Z"/><path class="cls-2" d="M221.57,149.9c0-2.53,0-5.05,0-7.58a4.07,4.07,0,1,1,8.13-.23q.11,7.92,0,15.85a3.85,3.85,0,0,1-4.22,4.07c-2.33,0-3.88-1.72-3.9-4.25S221.57,152.52,221.57,149.9Z"/><path class="cls-2" d="M272.84,150.13c0-2.67,0-5.35,0-8a3.86,3.86,0,0,1,2.37-3.74A4.06,4.06,0,0,1,281,142.2c0,5.2,0,10.41,0,15.61a4.07,4.07,0,1,1-8.13.19c-.08-2.62,0-5.25,0-7.87Z"/><path class="cls-1" d="M259.17,149.85c0-2.57,0-5.15,0-7.73a4,4,0,1,1,8-.12q.06,8,0,16a4,4,0,1,1-8-.15C259.16,155.19,259.17,152.52,259.17,149.85Z"/><path class="cls-3" d="M186.37,150c0-2.66,0-5.33,0-8a3.9,3.9,0,0,1,3.46-4,4,4,0,0,1,4.33,3,4.7,4.7,0,0,1,.19,1.22c0,5.16,0,10.31,0,15.46,0,2.73-1.75,4.4-4.29,4.29a3.78,3.78,0,0,1-3.68-3.74C186.35,155.51,186.37,152.75,186.37,150Z"/><path class="cls-3" d="M40.75,150.06c0-2.67,0-5.34,0-8A3.9,3.9,0,0,1,44.42,138a4,4,0,0,1,4.18,3.4,7.11,7.11,0,0,1,.13,1.22c0,4.92,0,9.84,0,14.76,0,3.06-1.68,4.79-4.39,4.62a3.73,3.73,0,0,1-3.57-3.68C40.72,155.57,40.75,152.81,40.75,150.06Z"/><path class="cls-3" d="M99.77,150.1c0,2.67,0,5.33,0,8A3.78,3.78,0,0,1,96.29,162,3.83,3.83,0,0,1,92,158.84a6.83,6.83,0,0,1-.16-1.36c0-5,0-10,0-15,0-3.15,2.53-5.12,5.28-4.22a3.7,3.7,0,0,1,2.68,3.6C99.79,144.59,99.77,147.34,99.77,150.1Z"/></svg>