<svg id="Layer_1" data-name="Layer 1" xmlns="http://www.w3.org/2000/svg" xmlns:xlink="http://www.w3.org/1999/xlink" viewBox="0 0 300 300"><defs><linearGradient id="linear-gradient" x1="171.36554" y1="8160.1282" x2="308.15089" y2="8161.45309" gradientTransform="matrix(0.99964, -0.02687, -0.02687, -0.99964, 116.39261, 8316.16847)" gradientUnits="userSpaceOnUse"><stop offset="0.04" stop-color="#002774"/><stop offset="0.09" stop-color="#002a77"/><stop offset="0.14" stop-color="#003480"/><stop offset="0.19" stop-color="#154591"/><stop offset="0.24" stop-color="#2e60ab"/><stop offset="0.29" stop-color="#5180cd"/><stop offset="0.33" stop-color="#77a6f2"/><stop offset="0.38" stop-color="#73a3ef"/><stop offset="0.43" stop-color="#6598e6"/><stop offset="0.48" stop-color="#5088d8"/><stop offset="0.53" stop-color="#3374c4"/><stop offset="0.57" stop-color="#0b59ac"/><stop offset="0.6" stop-color="#00479b"/><stop offset="0.64" stop-color="#004190"/><stop offset="0.77" stop-color="#002e74"/><stop offset="0.89" stop-color="#002462"/><stop offset="0.98" stop-color="#00205c"/></linearGradient></defs><path d="M236.94178,90.84584C153.48744,121.08566,66.83,136.54773,51.65916,111.69487,44.72889,100.688,57.90513,85.7355,121.879,77.48033l1.92184-.24751a.45135.45135,0,0,1,.16016.87357C86.51431,83.81366,69.96029,96.32017,72.6829,100.07648c8.73563,12.15708,77.49956-8.98313,148.11256-45.13407a20.20848,20.20848,0,0,1,8.954-2.43141C252.25825,52.27805,257.68889,83.08569,236.94178,90.84584ZM216.4713,131.3209c.32031-11.05056-11.19617-19.5678-21.53331-16.01531-1.19388.364-2.446.74252-3.74177,1.10651-37.53407,10.83218-111.23363,23.80459-134.03362,4.64445m0,.07279c16.94711,30.15247,74.68961,38.37853,145.59377,26.48351a16.7433,16.7433,0,0,0,13.71493-16.29194ZM191.4583,175.232a13.87507,13.87507,0,0,0-15.41838-14.35555c-1.849.17472-5.13945.37855-7.01763.56782-33.03523,3.305-80.58614-.84445-102.01755-22.5816h-.0728c20.8927,37.85438,55.64594,49.50188,109.98153,49.58923A14.03523,14.03523,0,0,0,191.4583,175.232ZM161.102,197.72622c-3.81455-.32031-7.8475-.16015-11.77853-.48046-26.29423-2.16934-52.41376-11.6475-64.06126-26.41071h0c17.74788,38.18925,48.04594,48.04594,74.07812,49.50188C174.64221,221.19594,176.36021,199.29864,161.102,197.72622Zm-14.836,30.95324c-15.72413-2.18391-32.93331-9.34712-41.62525-22.42144h0c13.67125,30.57469,28.11415,40.22755,40.22756,41.10112a9.40536,9.40536,0,1,0,1.39769-18.67968Z" fill-rule="evenodd" fill="url(#linear-gradient)"/><path d="M123.84455,77.26194l-1.92184.24751C63.23386,85.08032,47.32047,98.28568,50.42161,108.914c3.63985-.96092,7.27969-1.81992,10.94865-2.63525.99-.29119,1.98007-.59693,2.91187-.87356,3.94559-1.12107,8.24062-1.61609,12.24444-2.91187a7.42543,7.42543,0,0,1-3.8728-2.46053C69.93117,96.27649,86.48518,83.77,123.9319,78.06271a.45134.45134,0,0,0-.08735-.80077Z" fill="#002774" fill-rule="evenodd"/><path d="M234.27741,78.383c9.47815-4.26589,14.29732-11.5019,13.3655-15.41838a19.69883,19.69883,0,0,1-10.70115,27.88121c-83.45432,30.23982-170.11174,45.70189-185.2826,20.849a10.49732,10.49732,0,0,1-1.60153-4.36781C60.07447,125.62819,144.51886,118.74161,234.27741,78.383Zm-31.63752,69.22984a16.74328,16.74328,0,0,0,13.83141-16.29194,15.30168,15.30168,0,0,0-1.26666-6.5226h0c0,5.25593-6.81378,8.54635-13.846,10.75938C161.20392,148.1661,84.63616,152.91246,57.22085,121.12934h0C74.03691,151.28181,131.77941,159.50786,202.63989,147.61285ZM191.4583,175.27567V174.14h0c-3.53792,4.01839-9.39079,4.76091-14.67586,4.99386-41.50878,1.80536-87.69112-7.9203-109.45739-39.95093l-.24751-.21839h-.0728c20.8927,37.85438,55.64594,49.50188,109.98153,49.58924a14.03525,14.03525,0,0,0,14.472-13.32183ZM171.54106,210.8879c-6.07126,4.36781-65.9831-.17472-86.26431-39.96549h0c17.74789,38.18924,48.04595,48.04595,74.07812,49.50189a11.07969,11.07969,0,0,0,12.18619-9.58008Zm-16.83064,30.1088c-4.17853,3.71265-32.46741-2.1839-50.08425-34.76779h0c13.67125,30.5747,28.11415,40.22756,40.22755,41.10113a9.24521,9.24521,0,0,0,9.91493-6.377Z" fill="#002774" fill-rule="evenodd"/></svg>