<svg id="Layer_1" data-name="Layer 1" xmlns="http://www.w3.org/2000/svg" viewBox="0 0 300 300"><path d="M104.81117,138.44521q5.22465-5.79635,10.44691-11.59488c4.83229-5.3957,9.64773-10.80646,14.54242-16.2915,6.70423,7.51079,13.36887,14.97721,20.17244,22.5993L170.145,110.57538q12.56269,14.03444,24.96862,27.89371a.3604.3604,0,0,0,.04317.21242c-.28535.272-.59145.5256-.853.81881q-5.41595,6.07171-10.82225,12.15205Q168.63568,168.28247,153.796,184.918a27.61155,27.61155,0,0,0-3.69643,4.39369l-.10229-.00556-.10149.01282c-.40436-.54164-.77078-1.11705-1.21881-1.61985q-8.57409-9.62134-17.16774-19.22532c-6.43512-7.21072-12.8406-14.448-19.30689-21.63074-2.45455-2.72645-4.76962-5.58207-7.414-8.13623A.54225.54225,0,0,0,104.81117,138.44521Z" fill="#d8421f"/><path d="M104.81117,138.44522a.54222.54222,0,0,1-.02287.2616c-.36547.35118-.757.67924-1.09245,1.057-5.77978,6.508-11.53454,13.0384-17.33176,19.5309-7.22876,8.09572-14.52142,16.13474-21.7171,24.2596-1.6814,1.8985-3.61577,3.58964-4.97173,5.7706-.56405.031-1.12806.08886-1.69211.089q-23.19042.007-46.38083-.00146A3.65328,3.65328,0,0,1,10,189.26172a4.77563,4.77563,0,0,1,1.4105-2.15437c1.14052-1.38456,2.39726-2.67368,3.60893-3.9996,3.99253-4.36892,7.80307-8.8987,11.83175-13.238,2.87439-3.096,5.59523-6.33479,8.44836-9.45561,2.92425-3.19854,5.62292-6.604,8.56763-9.78255,2.18588-2.35951,4.29547-4.78315,6.42685-7.18782,4.18356-4.71993,8.55525-9.27183,12.554-14.15835,1.42652-1.74318,3.11743-3.25842,4.59709-4.97305,3.13051-3.62759,6.38107-7.15228,9.60947-10.69456a18.94756,18.94756,0,0,1,2.788-2.98218c1.47825,1.61423,2.94869,3.16888,4.361,4.77462,1.933,2.1977,3.792,4.46069,5.736,6.64839,3.59431,4.04474,7.30614,7.98375,10.79506,12.12422C101.99888,135.68325,103.447,137.029,104.81117,138.44522Z" fill="#b6d5ea"/><path d="M195.15679,138.68151a.36038.36038,0,0,1-.04317-.21241,32.79959,32.79959,0,0,0,2.88593-3.03433c1.35417-1.82189,3.05305-3.31545,4.50983-5.041,3.48875-4.13252,7.11491-8.1521,10.76547-12.14427,2.28119-2.4946,4.366-5.17,6.94064-7.64093,1.38738,1.50576,2.84234,2.89961,4.07164,4.46995,1.29083,1.64913,2.8284,3.05871,4.15808,4.67084,3.29913,3.99981,7.01627,7.63552,10.303,11.65538,1.318,1.61215,2.88069,3.01676,4.24126,4.61,3.18248,3.72692,6.49913,7.33828,9.73483,11.02022q3.40348,3.87285,6.89871,7.6778c2.59817,2.818,5.15425,5.673,7.63429,8.59758,1.82208,2.14878,3.73673,4.21933,5.61278,6.3224q5.57162,6.246,11.14571,12.4898,2.75778,3.09205,5.50651,6.19212c.21221.23952.5555.42.46194.85587-.27514.4016-.71026.23736-1.0753.2376q-23.62129.01523-47.24251.00657c-.45031-.00012-.90062-.06564-1.35094-.10066-1.64225-2.1631-3.52619-4.11831-5.32469-6.14553-3.41644-3.85087-6.886-7.65452-10.3159-11.49356q-8.08294-9.04725-16.14089-18.11666c-2.10428-2.36617-4.1697-4.767-6.28742-7.12091C199.9039,143.83353,197.52175,141.26528,195.15679,138.68151Z" fill="#b6d5ea"/><path d="M195.15679,138.68152c2.365,2.58376,4.74711,5.152,7.08975,7.75585,2.11772,2.35394,4.18314,4.75474,6.28742,7.12091q8.0624,9.06553,16.14089,18.11666c3.42988,3.839,6.89946,7.64269,10.3159,11.49356,1.7985,2.02722,3.68244,3.98243,5.32469,6.14553-4.19061.00855-8.38132.02412-12.57193.02452q-37.88779.00366-75.7756.00035c-.62279,0-1.24558-.01774-1.86836-.0272A27.61155,27.61155,0,0,1,153.796,184.918q14.81282-16.65948,29.68559-33.26564,5.41844-6.06957,10.82225-12.15205C194.56534,139.20711,194.87144,138.95351,195.15679,138.68152Z" fill="#366de7"/><path d="M59.67526,189.32493c1.356-2.181,3.29033-3.8721,4.97173-5.7706,7.19568-8.12486,14.48834-16.16388,21.7171-24.2596,5.79722-6.4925,11.552-13.02286,17.33176-19.5309.33549-.37777.727-.70583,1.09245-1.057,2.64441,2.55416,4.95948,5.40978,7.414,8.13623,6.46629,7.1827,12.87177,14.42,19.30689,21.63074q8.581,9.61516,17.16774,19.22532c.448.5028.81445,1.07821,1.21881,1.61985q-20.13395.01037-40.26791.01942Q84.65157,189.33921,59.67526,189.32493Z" fill="#366de7"/></svg>