<svg id="Layer_1" data-name="Layer 1" xmlns="http://www.w3.org/2000/svg" viewBox="0 0 300 300"><defs><style>.cls-1{fill:#199bd6;}.cls-2{fill:#0a3c52;}</style></defs><path class="cls-1" d="M150.06,263V106.86C99.24,100.23,54,79.39,10.21,54.47c.65-1.36,1.61-.83,2.31-.8q60.63,2,121.26,4.12c17.63.6,35.25,1.26,52.87,1.79,15,.46,25.73,10.28,27.09,25.15.48,5.32-1.39,10.18-3.18,15q-25,68.09-50.05,136.19c-3.12,8.5-6.2,17-9.3,25.54-.21.55-.46,1.08-.69,1.62Z"/><path class="cls-1" d="M214.42,104.18c.88-2.49,1.46-4.27,2.14-6a32,32,0,0,0-1-26.37c-2.77-5.87.55-11.13,7-10.91q33.55,1.11,67.18,2.64C263.55,74.43,239.16,88.74,214.42,104.18Z"/><path class="cls-2" d="M260.23,57l-97.62-3.47c.5-.84,1.43-.84,2.31-1Q196.75,45,228.58,37.59C242.63,34.32,256.42,42.63,260.23,57Z"/></svg>