<svg id="Layer_1" data-name="Layer 1" xmlns="http://www.w3.org/2000/svg" xmlns:xlink="http://www.w3.org/1999/xlink" viewBox="0 0 300 300"><defs><radialGradient id="radial-gradient" cx="150" cy="14371.66" fx="188.01550904237" fy="14411.36751021995" r="108.98" gradientTransform="matrix(1, 0, 0, -1, 0, 14521.66)" gradientUnits="userSpaceOnUse"><stop offset="0" stop-color="#28beda"/><stop offset="1" stop-color="#0a517c"/></radialGradient></defs><path d="M255.06,128.1c-5.86-7.19-10.15-14.95-10.35-24.61-.08-4.35-2.34-8-5.53-11.09a126.14,126.14,0,0,1-9.7-10.58,39,39,0,0,0-9.55-8.61A12.47,12.47,0,0,1,216.82,70c-1.26-1.75-2.33-3.64-3.45-5.48-2.17-3.6-5.23-6.13-9.41-6.82-7.8-1.29-15.11-4.4-23.05-5.38-7.56-.91-14.92-3.5-22.37-5.34-8.77-2.17-17.5-4.57-25.2-4.89-8.77,0-15.87,1.32-21.71,6A201.31,201.31,0,0,0,95.07,63c-4.42,4.47-8.66,8.9-14.69,11.27a20.39,20.39,0,0,0-10.2,9.11c-3.13,5.38-6.12,10.86-9.43,16.13a174.68,174.68,0,0,0-18.3,37.92c-2.7,8.17-3.54,16.57-.61,25,.74,2.1,2,4.13,2.22,6.28.52,5.7.78,11.44.82,17.17.06,10.13,2.63,19.23,9.74,26.79,4.08,4.35,8,8.91,11.95,13.35a17.39,17.39,0,0,0,3.56,3.51c5.13,3.07,10.37,6,15.62,8.84s10.4,5.6,15.64,8.34a55.31,55.31,0,0,0,8.17,4,140.69,140.69,0,0,0,50.79,7.2c5.87-.28,11.63-.79,17.16-3,7.29-2.88,14.49-6.09,22.48-6.59,6.83-.43,12.37-3.56,17.17-8.17,3.44-3.32,6.58-7,10.09-10.23,6.92-6.47,13.63-13.2,18.17-21.54a225.25,225.25,0,0,0,9.86-21.82,32.7,32.7,0,0,0,2-14.61,51.69,51.69,0,0,1,.2-9.31c.66-5.22,2.18-10.38,2.42-15.6.32-6.64-.37-13.3-4.88-18.83Z" fill="url(#radial-gradient)"/><path d="M209.92,168.87c.88-7-3.6-12.2-5.7-18.17-1.08-3.06-3.7-5.57-5.45-8.44-2.89-5.47-5.88-6.59-5.88-6.59a19.8,19.8,0,0,0-4.07-1.84c-4.49-1.12-8.73-3.15-13.54-3.24-3.26-.05-6.51-1.06-9.78-1.21s-6.4.09-8.81,2.92c-1.24,1.46-3.1,2.38-4.54,3.69-3.32,3-7.13,5.66-9.66,9.22-3.25,4.58-5.52,9.87-8.05,14.93a8,8,0,0,0-.92,4.37c.81,5.68,2,11.31,2.89,17,.81,5.31,3.46,9.57,7.05,13.39a9.19,9.19,0,0,1,1.29,2.07c3.2,1.43,5.69,2.64,8.26,3.67,10.7,4.31,21.77,4.71,32.92,2.48,3.31-.66,6.94-1.91,9.43-4.05,7.78-6.71,12.28-15.68,15.2-25.4.42-1.41-.82-3.24-.63-4.79Z" fill="#49ffff"/></svg>