<?xml version="1.0" encoding="utf-8"?>
<!-- Generator: Adobe Illustrator 28.3.0, SVG Export Plug-In . SVG Version: 6.00 Build 0)  -->
<svg version="1.1" id="Layer_1" xmlns="http://www.w3.org/2000/svg" xmlns:xlink="http://www.w3.org/1999/xlink" x="0px" y="0px"
	 viewBox="0 0 300 300" style="enable-background:new 0 0 300 300;" xml:space="preserve">
<style type="text/css">
	.st0{fill:#5EA5E5;}
</style>
<path class="st0" d="M134.2,257.1c-4.1,0-4.2-0.1-4.2-4.2c0-57,0-113.9,0-170.9c0-0.8,0-1.7,0-2.5c0.3-2.6-0.9-3.3-3.4-3.3
	c-19.1,0.1-38.2,0-57.3,0c-1.7,0-3.3-0.1-5-0.1V42.9c18.7,0,37.4-0.1,56.2-0.1c37,0,73.9,0,110.9,0c4.2,0,4.2,0,4.2,4.1
	c0,8.7-0.1,17.4,0,26.1c0,2.5-0.9,3.4-3.4,3.3c-19.2-0.1-38.4-0.1-57.5,0h-1.2c-4.4,0-4-0.1-4,5.3c0,57,0,113.9,0,170.9
	c0,4.7,0,4.7-4.8,4.7L134.2,257.1L134.2,257.1z"/>
</svg>
