<svg id="Layer_1" data-name="Layer 1" xmlns="http://www.w3.org/2000/svg" viewBox="0 0 300 300"><path d="M152.94236,81.1237a14.19959,14.19959,0,1,1,14.205,14.205A14.20059,14.20059,0,0,1,152.94236,81.1237Z" fill="#9ca8cf"/><path d="M50,81.1237a14.19959,14.19959,0,1,1,14.205,14.205A14.20059,14.20059,0,0,1,50,81.1237Z" fill="#1d4a91"/><path d="M84.2926,81.1237a14.20337,14.20337,0,1,1,14.205,14.205A14.208,14.208,0,0,1,84.2926,81.1237Z" fill="#3a5e9f"/><path d="M118.63254,81.1237a14.19959,14.19959,0,1,1,14.18782,14.205A14.20059,14.20059,0,0,1,118.63254,81.1237Z" fill="#798abd"/><path d="M84.2926,115.5669a14.20211,14.20211,0,1,1,14.205,14.20073A14.208,14.208,0,0,1,84.2926,115.5669Z" fill="#5972ac"/><path d="M118.63254,115.5669a14.19833,14.19833,0,1,1,14.18782,14.20073A14.20059,14.20059,0,0,1,118.63254,115.5669Z" fill="#9ca8cf"/><path d="M84.2926,150.01012a14.20211,14.20211,0,1,1,14.205,14.20072A14.20706,14.20706,0,0,1,84.2926,150.01012Z" fill="#798abd"/><path d="M221.57489,150.01012a14.19833,14.19833,0,1,1,14.205,14.20072A14.19967,14.19967,0,0,1,221.57489,150.01012Z" fill="#1d4a91"/><path d="M84.2926,184.449a14.20337,14.20337,0,1,1,14.205,14.205A14.20521,14.20521,0,0,1,84.2926,184.449Z" fill="#9ca8cf"/><path d="M118.63254,184.449a14.19959,14.19959,0,1,1,14.18782,14.205A14.19781,14.19781,0,0,1,118.63254,184.449Z" fill="#9ca8cf"/><path d="M84.2926,218.89226a14.20337,14.20337,0,1,1,14.205,14.205A14.2052,14.2052,0,0,1,84.2926,218.89226Z" fill="#9ca8cf"/><path d="M118.63254,218.89226a14.19959,14.19959,0,1,1,14.18782,14.205A14.19781,14.19781,0,0,1,118.63254,218.89226Z" fill="#6a7fb5"/></svg>