<svg id="Layer_1" data-name="Layer 1" xmlns="http://www.w3.org/2000/svg" viewBox="0 0 300 300"><defs><style>.cls-1{fill:#003a5d;}.cls-2{fill:#008996;}</style></defs><title>TXMD</title><polygon class="cls-1" points="30.66 139.89 37.85 139.89 37.85 159.07 40.82 159.07 40.82 139.89 48.01 139.89 48.01 137.12 30.66 137.12 30.66 139.89"/><path class="cls-1" d="M58.59,142.38a6.15,6.15,0,0,0-5.17,2.54v-8.7H50.55v22.86h2.87v-9.32a4.39,4.39,0,0,1,4.51-4.7c2.59,0,4.14,1.7,4.14,4.52v9.5h2.87V149c0-4-2.49-6.63-6.35-6.63"/><path class="cls-1" d="M75.71,142.38c-4.47,0-7.86,3.67-7.86,8.51A8.17,8.17,0,0,0,76,159.4a8.36,8.36,0,0,0,6.72-3.05l.19-.19-1.83-1.65-.19.19a6.35,6.35,0,0,1-4.8,2.17,5.22,5.22,0,0,1-5.26-4.75h12.5V151c0-5.17-3-8.65-7.61-8.65m4.7,7.34H70.77c.42-2.87,2.4-4.85,4.84-4.85,3.11,0,4.47,2.45,4.8,4.85"/><path class="cls-1" d="M89.25,146.05v-3.34H86.38v16.37h2.87v-6.59c0-4.28,2.35-7,6-7h.42v-3.06h-.23a6.82,6.82,0,0,0-6.21,3.62"/><path class="cls-1" d="M104,142.48a13.59,13.59,0,0,0-5.87,1.36l-.19.09.89,2.4.24-.09a10.42,10.42,0,0,1,4.7-1.13c2.91,0,4.42,1.41,4.42,4v.14a16.67,16.67,0,0,0-4.61-.61c-4.42,0-7,2-7,5.5s3.11,5.18,6.16,5.18a7.3,7.3,0,0,0,5.46-2.26V159H111v-9.88a6.49,6.49,0,0,0-1.74-4.84,7.29,7.29,0,0,0-5.27-1.83m-.8,14.53c-1.78,0-3.71-.9-3.71-3,0-1.83,1.69-2.91,4.37-2.91a16,16,0,0,1,4.38.61V153c0,2.26-2.17,4-5,4"/><path class="cls-1" d="M122.77,142.38a7.1,7.1,0,0,0-5.83,3v-2.63h-2.86V164h2.86v-7.43a7.29,7.29,0,0,0,5.83,2.87c3.81,0,7.81-3,7.81-8.56s-4-8.51-7.81-8.51m-.42,2.64c3.11,0,5.32,2.49,5.32,5.92s-2.17,5.83-5.32,5.83a5.89,5.89,0,0,1,0-11.75"/><path class="cls-1" d="M140.78,142.38c-4.46,0-7.85,3.67-7.85,8.51a8.17,8.17,0,0,0,8.14,8.51,8.36,8.36,0,0,0,6.72-3.05l.19-.19-1.84-1.65-.18.19a6.35,6.35,0,0,1-4.8,2.17,5.23,5.23,0,0,1-5.27-4.75H148.4v-.24a5.71,5.71,0,0,0,0-.85c0-5.17-3.06-8.65-7.67-8.65m4.75,7.34h-9.64c.43-2.87,2.4-4.85,4.85-4.85,3,0,4.46,2.45,4.79,4.85"/><path class="cls-1" d="M162.41,152.07a4.39,4.39,0,0,1-4.51,4.7c-2.59,0-4.14-1.69-4.14-4.51v-9.5h-2.87v10.06c0,4,2.5,6.58,6.3,6.58a6.21,6.21,0,0,0,5.18-2.53v2.21h2.82V142.76h-2.82v9.31Z"/><path class="cls-1" d="M173,138h-2.87v4.8h-2.21v2.58h2.21v9.32c0,3.05,1.69,4.74,4.75,4.74a6.39,6.39,0,0,0,3-.7l.14,0v-2.58l-.38.18a4.52,4.52,0,0,1-2.16.52,2.09,2.09,0,0,1-2.4-2.4v-9h5v-2.58h-5V138Z"/><rect class="cls-1" x="181.69" y="136.65" width="3.2" height="3.1"/><rect class="cls-1" x="181.83" y="142.76" width="2.87" height="16.36"/><path class="cls-1" d="M200.22,154.56a6.21,6.21,0,0,1-4.66,2.31,5.7,5.7,0,0,1-5.55-6,5.61,5.61,0,0,1,5.41-5.87,6.17,6.17,0,0,1,4.61,2.3l.19.19,1.93-2-.19-.19a8.33,8.33,0,0,0-6.54-2.92,8.54,8.54,0,1,0,6.68,13.92l.14-.19-1.88-1.74Z"/><path class="cls-1" d="M211.46,149.53h-.05c-2-.61-3.86-1.18-3.86-2.54s1.13-2,2.82-2a8.57,8.57,0,0,1,4.57,1.5l.23.14,1.32-2.21-.19-.14a10.87,10.87,0,0,0-5.83-1.78c-3.34,0-5.64,2-5.64,4.84,0,3.2,3.15,4,5.4,4.7s3.77,1.18,3.77,2.59-1.23,2.26-3,2.26a9.12,9.12,0,0,1-5.32-2l-.19-.14-1.5,2.07.19.14a11.13,11.13,0,0,0,6.72,2.4c3.53,0,5.88-2,5.88-5.08s-2.63-3.95-5.31-4.75"/><path class="cls-2" d="M252,137.12h-5.83V154h2.49V139.42H252c5.54,0,9.12,3.81,9.12,8.7v0c0,4.84-3.58,8.65-9.12,8.65H242v-19.7h-2.54l-8,12-8-12H221v22h2.4V141.3l8,11.76h.14l8-11.76v17.82H252c6.91,0,11.66-4.79,11.66-11v-.05c-.05-6.2-4.8-10.95-11.71-10.95"/><path class="cls-2" d="M269.34,139a3.07,3.07,0,0,1-3.1,3.11,3.08,3.08,0,1,1,0-6.16A3.05,3.05,0,0,1,269.34,139Zm-5.5,0a2.36,2.36,0,0,0,2.4,2.45,2.42,2.42,0,0,0-.05-4.84A2.27,2.27,0,0,0,263.84,139Zm1.88,1.6H265v-3a6.63,6.63,0,0,1,1.18-.1,1.65,1.65,0,0,1,1,.24.78.78,0,0,1,.29.66.75.75,0,0,1-.62.7v0a.9.9,0,0,1,.57.75c.09.47.14.66.23.75h-.75a2.26,2.26,0,0,1-.23-.75c0-.33-.24-.47-.62-.47h-.32v1.22Zm0-1.74h.33c.37,0,.7-.14.7-.42s-.19-.47-.66-.47c-.18,0-.32,0-.37.05v.84Z"/></svg>