<?xml version="1.0" encoding="UTF-8"?>
<svg id="Layer_1" xmlns="http://www.w3.org/2000/svg" version="1.1" xmlns:xlink="http://www.w3.org/1999/xlink" viewBox="0 0 300 300">
  <!-- Generator: Adobe Illustrator 29.1.0, SVG Export Plug-In . SVG Version: 2.1.0 Build 142)  -->
  <defs>
    <style>
      .st0 {
        fill: #542c87;
      }

      .st1 {
        fill: #fff;
      }

      .st2 {
        fill: url(#linear-gradient1);
      }

      .st3 {
        fill: #673091;
      }

      .st4 {
        fill: url(#radial-gradient);
      }

      .st5 {
        fill: #98ce81;
      }

      .st6 {
        fill: #71529c;
      }

      .st7 {
        fill: #7d4799;
      }

      .st8 {
        fill: url(#linear-gradient);
      }
    </style>
    <radialGradient id="radial-gradient" cx="65.5" cy="114.9" fx="14.1" fy="114.9" r="51.5" gradientUnits="userSpaceOnUse">
      <stop offset="0" stop-color="#9772b2"/>
      <stop offset=".1" stop-color="#86a"/>
      <stop offset=".5" stop-color="#694c99"/>
    </radialGradient>
    <linearGradient id="linear-gradient" x1="16.1" y1="158.4" x2="58.5" y2="158.4" gradientUnits="userSpaceOnUse">
      <stop offset="0" stop-color="#7565a6"/>
      <stop offset=".5" stop-color="#8577b2"/>
    </linearGradient>
    <linearGradient id="linear-gradient1" x1="121.3" y1="146.4" x2="67.4" y2="203.7" gradientUnits="userSpaceOnUse">
      <stop offset="0" stop-color="#612e88"/>
      <stop offset=".5" stop-color="#9b7fae" stop-opacity=".8"/>
      <stop offset="1" stop-color="#7b5791"/>
    </linearGradient>
  </defs>
  <g>
    <path class="st3" d="M147.3,190.8v-11.4h2v7.8c.9-1.7,2.7-2.7,4.9-2.7,3.4,0,6.3,2.5,6.3,6.4s-2.7,6.6-6.7,6.6-6.6-2.6-6.6-6.6ZM158.5,190.9c0-2.7-1.8-4.6-4.6-4.6s-4.5,1.9-4.5,4.6,1.8,4.6,4.5,4.6,4.6-1.9,4.6-4.6Z"/>
    <path class="st3" d="M163,181.1c0-.8.6-1.5,1.5-1.5s1.5.6,1.5,1.5-.6,1.5-1.5,1.5-1.5-.6-1.5-1.5ZM163.5,184.7h2v12.3h-2v-12.3Z"/>
    <path class="st3" d="M167.9,190.9c0-3.7,2.7-6.5,6.6-6.5s6.6,2.7,6.6,6.5-2.7,6.5-6.6,6.5-6.6-2.7-6.6-6.5ZM179.1,190.9c0-2.7-1.8-4.6-4.6-4.6s-4.6,1.9-4.6,4.6,1.8,4.6,4.6,4.6,4.6-1.9,4.6-4.6Z"/>
    <path class="st3" d="M182.7,193.5h2.1c0,1.1,1.1,2,3,2s3-.9,3-2-1.4-1.5-3.1-1.7c-2.2-.3-4.7-.6-4.7-3.4s1.9-4,4.8-4,4.7,1.6,4.8,3.7h-2c0-1.1-1-1.9-2.7-1.9s-2.7.8-2.7,2,1.4,1.5,3.1,1.7c2,.2,4.8.6,4.8,3.4s-2,4-5.1,4-5-1.6-5.1-3.8Z"/>
    <path class="st3" d="M194.9,190.9c0-3.7,2.7-6.5,6.6-6.5s5.7,1.9,6.4,4.7h-2.1c-.6-1.7-2.2-2.8-4.3-2.8s-4.6,1.9-4.6,4.6,1.8,4.6,4.6,4.6,3.6-1.1,4.3-2.8h2.1c-.7,2.8-3.1,4.7-6.4,4.7s-6.6-2.7-6.6-6.5Z"/>
    <path class="st3" d="M209.9,181.1c0-.8.6-1.5,1.5-1.5s1.5.6,1.5,1.5-.6,1.5-1.5,1.5-1.5-.6-1.5-1.5ZM210.3,184.7h2v12.3h-2v-12.3Z"/>
    <path class="st3" d="M215.3,190.9c0-3.7,2.7-6.5,6.6-6.5s6.6,2.7,6.6,6.5v.7h-11.1c.3,2.4,2,3.9,4.5,3.9s3-.6,3.8-1.9h2.2c-.9,2.3-3.2,3.8-6.1,3.8s-6.6-2.7-6.6-6.5ZM226.4,189.8c-.4-2.2-2.2-3.5-4.4-3.5s-4,1.3-4.4,3.5h8.9Z"/>
    <path class="st3" d="M230.4,190.6c0-4.1,2.4-6.2,6.1-6.2s6.1,2.1,6.1,6.2v6.4h-2v-6.4c0-2.8-1.6-4.3-4-4.3s-4,1.5-4,4.3v6.4h-2v-6.4Z"/>
    <path class="st3" d="M245.1,190.9c0-3.7,2.7-6.5,6.6-6.5s5.7,1.9,6.4,4.7h-2.1c-.6-1.7-2.2-2.8-4.3-2.8s-4.6,1.9-4.6,4.6,1.8,4.6,4.6,4.6,3.6-1.1,4.3-2.8h2.1c-.7,2.8-3.1,4.7-6.4,4.7s-6.6-2.7-6.6-6.5Z"/>
    <path class="st3" d="M259.6,190.9c0-3.7,2.7-6.5,6.6-6.5s6.6,2.7,6.6,6.5v.7h-11.1c.3,2.4,2,3.9,4.5,3.9s3-.6,3.8-1.9h2.2c-.9,2.3-3.2,3.8-6.1,3.8s-6.6-2.7-6.6-6.5ZM270.6,189.8c-.4-2.2-2.2-3.5-4.4-3.5s-4,1.3-4.4,3.5h8.9Z"/>
    <path class="st3" d="M274.8,193.5h2.1c0,1.1,1.1,2,3,2s3-.9,3-2-1.4-1.5-3.1-1.7c-2.2-.3-4.7-.6-4.7-3.4s1.9-4,4.8-4,4.7,1.6,4.8,3.7h-2c0-1.1-1-1.9-2.7-1.9s-2.7.8-2.7,2,1.4,1.5,3.1,1.7c2,.2,4.8.6,4.8,3.4s-2,4-5.1,4-5-1.6-5.1-3.8Z"/>
  </g>
  <g>
    <path class="st0" d="M125.2,152.6c-1,23.3-17.3,43.8-39.6,50.2-32.2,9.2-65.4-12-70-45.1-5.1-36.5,26-67.5,62.5-62.4,26.1,3.7,46.7,26.3,47.2,52.8v4.5Z"/>
    <path class="st4" d="M43.7,153s-21.2-2.7-16.7-23.9c4.5-21.3,25.2-30.8,43.1-30.6,17.9.3,41.8,10.5,43.1,35.9,0,0,2.4,18.9-24.9,19.6-27.3.7-41.6-.3-44.6-.9Z"/>
    <path class="st6" d="M100.1,108.7s-3.3,5.4-11.3,5.1c0,0,18.1,2.9,24.5,22.9,0,0,1.7-16.1-13.2-27.9Z"/>
    <path class="st7" d="M15.8,159.3s10.9,18,23.3,26.4,28.7,7,41,.8c0,0,5.9-3,10-6.5,0,0,3.1-2.6,6.7-2.9s6.4,2,7.3,3,5.6,5.4,10.2,2.8c0,0-11,15.1-27.9,19.7-16.9,4.6-26.5,2.2-34.2,0-7.6-2.2-32.1-16.5-36.5-43.3Z"/>
    <path class="st8" d="M21.1,127.1s-9.5,19.8-2.3,39.9c0,0-1.1-4.9-.8-9.3,0,0,0-2.1,1.6.4,0,0,1.4,2.1,1.4,4.3,0,0,3.8,8.1,10,13.5,6.3,5.4,9.4,10.7,27.3,13.7,0,0-19.2-5.2-29.6-24.1-10.5-18.9-9.1-26.6-7.8-38.4Z"/>
    <path class="st2" d="M121.7,138.6s9.2,26.6-16.1,51c-25.3,24.4-58.6,8.2-58.3,8.8,0,0,30,12,55.5-8.8,0,0,23.6-18.3,19-51Z"/>
  </g>
  <g>
    <path class="st1" d="M44.2,131.9v41.4h4.8v-41.4c5.2.3,10.4,1.8,14.9,4.5l1.6-4c-11.7-6.3-26-6.4-37.7,0l1.3,3.7c.3.3,3.2-1.4,3.8-1.6,3.6-1.5,7.4-2.5,11.3-2.6Z"/>
    <path class="st1" d="M92.3,148.6v10.2c0,5.1-4.4,10.1-9.5,10.7s-11.9-1.9-12.6-8.9c-.6-5.8.4-12.4,0-18.2-.2-.5-3.6-2.6-4.5-2.8v21.6c0,11.9,16,16.1,24,9.1s1.4-1.7,2.2-2.6,0-.5.6-.3v5.8h4.3v-24.7h-4.5Z"/>
  </g>
  <g>
    <path class="st5" d="M281.4,173.6h-5v-13.5h-28s-.4.4-.4.4v13.1h-4.8v-27.5c.4-9.9,6.2-17.8,16.6-18.4s20.9,5.6,21.7,19c.5,8.8-.4,18.1,0,27ZM276.4,155.8v-11.8c0-3.4-3-8.3-5.9-10-9.3-5.6-22.5-.1-22.5,11.6v10.2h28.4Z"/>
    <path class="st5" d="M201.2,127.9c11.8.6,32.6-3.8,35.5,12.4,1.5,8.2-2.2,14.9-10,17.7l10.9,15.5h-5.2l-10.6-14.6h-15.5v14.6h-5v-45.7ZM206.3,155c7.8-.4,21.7,2.3,25.1-7.2,3-8.3-2.9-15.7-11.4-15.7h-13.7v22.8Z"/>
    <path class="st5" d="M158.7,127.9v28.5c0,17,25.7,17.5,27.3,1.3.7-9.9.2-19.9.3-29.8h4.8v45.7h-4.8v-7.2l-2.8,3.4c-8.5,6.8-23.7,5.4-28.1-5.6s-1.5-4.5-1.5-5.4v-30.9h4.8Z"/>
    <polygon class="st5" points="105.9 127.9 105.9 173.6 110.9 173.6 110.9 152.8 139.2 152.8 139.2 173.6 144.1 173.6 144.1 127.9 139 127.9 139 148 110.7 148 110.7 127.9 105.9 127.9"/>
  </g>
</svg>