<svg id="Layer_1" data-name="Layer 1" xmlns="http://www.w3.org/2000/svg" viewBox="0 0 300 300"><title>TSBX_Mark_Light</title><path d="M201.83894,184.773c8.09213,9.11848,15.87512,17.88869,23.95983,26.99871-3.32219.25991-5.09554-1.63308-7.153-2.81-12.61945-7.21848-25.20116-14.50324-37.84567-21.67743A32.07326,32.07326,0,0,1,168.11744,174.263a227.79428,227.79428,0,0,1-13.50223-30.34262,3.58922,3.58922,0,0,1,.38234-4.09307c9.26314,8.85428,21.42694,12.39483,32.54506,17.95082C198.41431,163.211,201.00656,173.39738,201.83894,184.773Z" fill="#0596d9"/><path d="M164.35876,182.54428q-3.73729-1.47677-7.47459-2.95342l.09557.09529c-7.32165-5.80209-14.61633-11.6387-21.97028-17.39956-17.745-13.901-34.91741-28.42118-47.19976-47.654a69.73557,69.73557,0,0,1-8.1285-17.32377c-5.19129-17.42719.07556-31.46421,15.75413-40.53437,31.70363-18.34081,64.767-19.75177,98.10323-5.08212,48.93655,21.5346,74.25869,75.9,59.90435,127.23792a12.93184,12.93184,0,0,1-2.28655,4.43981,131.50349,131.50349,0,0,0-4.32552-52.79688A93.46274,93.46274,0,0,0,115.86129,71.7954c-16.47854,7.98206-20.77645,19.81146-12.12805,36.45149,9.27871,17.85259,21.95082,33.38753,35.58916,48.09775,8.21221,8.85745,16.62605,17.52807,24.9493,26.28262Z" fill="#5b5c5e"/><path d="M213.18463,235.92625c-4.2999,3.16753-8.29221,6.905-12.94613,9.41644C137.77727,279.049,59.83956,243.79377,43.77178,174.6588c-.6465-2.78193-.80587-5.67711-1.21029-8.65216,29.18577,5.16581,57.65662,10.20506,86.43145,15.29812-19.3744,2.42931-38.84736,4.87093-59.38256,7.44576,1.66884,3.93742,2.68574,6.9017,4.12417,9.645,18.34456,34.986,55.41667,54.11933,94.81561,49.81694,15.66788-1.711,30.36167-6.11624,44.72108-12.18416Z" fill="#5b5c5e"/><path d="M168.80735,182.55989c-15.80445-13.279-28.62316-29.22912-39.47315-46.57317a166.77883,166.77883,0,0,1-16.50288-33.675c-4.61773-13.40165,4.32-23.73716,19.87512-24.36287.389,4.49727.74668,9.05654,1.18332,13.60818,2.575,26.84245,13.07337,50.89856,26.00611,74.11682,3.1012,5.5677,5.89607,11.306,8.83184,16.96591Z" fill="#0596d9"/><path d="M153.94044,179.61991c-8.5837-3.60775-17.50015-6.59062-25.68449-10.94835C108.93882,158.38622,89.41,148.31708,71.03732,136.49667c-14.80609-9.52567-17.39174-26.211-9.15554-42.43356.45519.04656,1.18839-.06859,1.32567.16557,18.301,31.22819,45.933,52.985,74.6434,73.65914,5.38395,3.87706,10.6755,7.8824,16.00977,11.82851Z" fill="#0596d9"/><path d="M43.71676,122.5853c25.64965,32.239,63.16555,41.52346,97.89291,55.732-.06952.22344,9.59556,3.01578,9.526,3.23921-.07393.23753-9.88249-2.09384-9.9564-1.8563-18.00711-3.68132-36.09974-6.99849-53.98558-11.19631a132.50022,132.50022,0,0,1-26.532-9.02451C46.36665,152.67947,40.719,139.92107,43.71676,122.5853Z" fill="#0596d9"/><path d="M216.19633,234.50963q-1.5058.70832-3.0117,1.41653l.08661.10217q1.49222-.72792,2.98454-1.45581Z"/><path d="M216.25578,234.57252l-.05945-.06285Z"/><path d="M164.2717,182.62726l.08706-.083Z"/></svg>