<svg id="Layer_1" data-name="Layer 1" xmlns="http://www.w3.org/2000/svg" viewBox="0 0 300 300"><path d="M202.835,179.66689c.44971-1.23136.88651-2.42088,1.31871-3.61206q2.18938-6.03395,4.37726-12.06843c1.198-3.292,2.41158-6.57836,3.60842-9.8708,1.42591-3.92267,2.83608-7.85106,4.2629-11.7734,1.19215-3.27724,2.40371-6.5474,3.59724-9.82412q2.83942-7.79528,5.66542-15.59545a5.33064,5.33064,0,0,1,1.90612-2.86256,4.31206,4.31206,0,0,1,2.44736-.691q8.21418-.01791,16.42847.00091a4.066,4.066,0,0,1,4.01856,2.916c1.32005,3.56253,2.60969,7.13635,3.90777,10.707q2.86266,7.87418,5.71927,15.75056,2.936,8.09187,5.86945,16.18471,2.85907,7.87337,5.72527,15.74415c1.04506,2.87353,2.09765,5.74437,3.13173,8.62184a2.38176,2.38176,0,0,1-1.07068,3.05958,2.05285,2.05285,0,0,1-.99283.23434c-4.56352-.00278-9.127.004-13.69053-.0056a3.383,3.383,0,0,1-3.42591-2.39147c-1.52256-4.09071-3.02489-8.18895-4.53592-12.284-.13075-.35437-.25134-.71346-.4021-1.05925a1.39768,1.39768,0,0,0-1.902-.81969,65.82942,65.82942,0,0,1-8.28164,2.34465,73.95045,73.95045,0,0,1-8.76734,1.32974c-2.24682.21864-4.49843.341-6.74956.33534-2.6491-.00668-5.29781-.16005-7.94681-.24547-.395-.01274-.79083-.00178-1.33275-.00178,1.05462.33511,1.9842.60828,2.89814.92636a10.92446,10.92446,0,0,1,3.387,1.71855,1.72964,1.72964,0,0,1,.66134,2.17413c-.55985,1.80663-1.20245,3.58442-1.8373,5.36506a3.52566,3.52566,0,0,1-3.70262,2.612c-1.56707.004-3.13418.00121-4.70127.00114q-12.16647-.00051-24.333.00194a4.36736,4.36736,0,0,1-4.22926-2.56979q-3.19212-6.32906-6.42887-12.63559c-.8989-1.76171-1.81394-3.51519-2.71448-5.27607a1.64737,1.64737,0,0,1,.52742-2.38438,13.15256,13.15256,0,0,1,4.48173-2.03457,7.49474,7.49474,0,0,0,1.392-.51182q-1.04433,0-2.08867,0-7.54269.00074-15.08538.00163c-1.18793.00018-1.71669.53735-1.71671,1.74121-.00009,6.92042-.03976,13.84122.02534,20.761a2.78208,2.78208,0,0,1-2.94869,2.929c-4.66593-.06505-9.3336-.05154-14-.00739a2.81493,2.81493,0,0,1-2.75554-2.77568q.04673-30.13476.01989-60.26962a10.99745,10.99745,0,0,1,1.828-6.33812,8.26256,8.26256,0,0,1,5.7911-3.65753,9.03209,9.03209,0,0,1,1.43731-.13133c7.85264.00575,15.70551-.02869,23.55781.02486a39.12761,39.12761,0,0,1,13.80558,2.4202c6.38339,2.43915,10.95415,6.75836,13.18333,13.3124a25.97429,25.97429,0,0,1,1.0965,10.29687,22.07034,22.07034,0,0,1-2.53245,8.91257,20.73166,20.73166,0,0,1-6.373,7.11955,19.44279,19.44279,0,0,1-2.0415,1.30349,1.78567,1.78567,0,0,0-.7586,2.68163c3.14361,5.64349,6.25113,11.30707,9.37094,16.9638.48948.88749.97364,1.77792,1.466,2.6638A1.07612,1.07612,0,0,0,202.835,179.66689Zm-41.25-51.12145c0,.15509,0,.30826,0,.46144q-.00084,6.71-.00082,13.42a3.08151,3.08151,0,0,0,3.26918,3.26086q4.62116.005,9.24229-.00007a10.89132,10.89132,0,0,0,3.15941-.424c2.469-.74607,4.4649-2.06173,5.33108-4.63946a11.041,11.041,0,0,0,.32322-5.39937,7.437,7.437,0,0,0-3.73739-5.46026,10.4346,10.4346,0,0,0-5.34623-1.30646c-3.8896-.01755-7.77933-.00642-11.669-.00481A.954.954,0,0,0,161.585,128.54544Zm67.13841,30.48724c4.856.06553,14.66485-2.29741,17.478-4.21107q-3.98984-11.40681-7.99288-22.85145l-.13267.00211Q233.4086,145.47646,228.7234,159.03268Z" fill="#ff6146"/><path d="M89.97472,130.46239q-1.05735,0-2.11469,0-9.91917.001-19.83832.00259c-1.32734.00038-1.79718.47248-1.7973,1.80688q-.00231,25.745-.00331,51.49a2.67374,2.67374,0,0,1-2.84643,2.82595q-7.20689.00179-14.41377-.001a2.642,2.642,0,0,1-2.80727-2.79909q-.0031-25.6417-.007-51.28339a2.22961,2.22961,0,0,0-.304-1.4831,1.40869,1.40869,0,0,0-1.20609-.56035c-2.46255.00716-4.92513.00264-7.3877.00262-3.08251,0-6.16526-.02218-9.24745.00982a2.83659,2.83659,0,0,1-3.0009-2.98726c.05731-3.70031.0113-7.40216.0148-11.10337a2.78309,2.78309,0,0,1,2.95313-2.9392q30.584-.0073,61.168-.02121a4.18609,4.18609,0,0,1,3.93286,2.50741c2.14247,4.01839,4.42345,7.96014,6.61786,11.94972,2.06944,3.76235,4.10653,7.54248,6.16465,11.31107.3375.618.70452,1.22014,1.0689,1.823.17538.29015.38787.541.83813.3706.72255-1.28488,1.44778-2.60784,2.20392-3.91291,2.27465-3.92594,4.31231-7.98136,6.54361-11.93119,1.833-3.24484,3.613-6.51958,5.43638-9.76992a4.36211,4.36211,0,0,1,4.07793-2.41606c4.42561.02235,8.85176.036,13.27693-.014a2.356,2.356,0,0,1,2.06691,3.533c-2.77366,5.02613-5.45665,10.10229-8.175,15.15893q-5.27236,9.80765-10.53725,19.61927c-1.3109,2.4556-2.61139,4.91606-3.94878,7.3578a12.20418,12.20418,0,0,0-1.415,5.90937c-.017,6.31785-.00851,12.63577-.01144,18.95366a2.47891,2.47891,0,0,1-2.72414,2.77755q-7.10349.0225-14.2071-.00138a2.49893,2.49893,0,0,1-2.71558-2.74894c-.00191-5.90473-.03042-11.80966.0094-17.71412a17.08982,17.08982,0,0,0-2.22368-8.62456c-2.32474-4.17213-4.52827-8.41174-6.78292-12.6229q-2.60283-4.86147-5.20513-9.72325a1.39785,1.39785,0,0,1,.37025-2.04335,10.18442,10.18442,0,0,1,3.08568-1.62476C87.89105,131.15192,88.93928,130.8853,89.97472,130.46239Z" fill="#ff6146"/></svg>