<svg id="Layer_1" data-name="Layer 1" xmlns="http://www.w3.org/2000/svg" viewBox="0 0 300 300"><defs><style>.cls-1{fill:#0467a6;}</style></defs><title>UBX</title><path class="cls-1" d="M140.53,166.92v-40.3h4.08v45.82h-4.54l-39.8-40.33v40.32H96.11V126.62h4.62q19.8,20.15,39.68,40.34Z"/><path class="cls-1" d="M80.3,126.62h4.14a1.3,1.3,0,0,1,.06.61c0,10.3,0,20.59,0,30.88A12.88,12.88,0,0,1,78,169.6a25,25,0,0,1-10,3.33,48.93,48.93,0,0,1-12.68.09,25.21,25.21,0,0,1-11-3.64,12.81,12.81,0,0,1-5.92-8.59,15.19,15.19,0,0,1-.26-2.77q0-15.44,0-30.88a.88.88,0,0,1,.06-.52h4.07a.71.71,0,0,1,.08.49c0,10.26,0,20.52,0,30.77a9.23,9.23,0,0,0,3.92,7.77A18.65,18.65,0,0,0,54.45,169a35.31,35.31,0,0,0,16.35-.64,15.72,15.72,0,0,0,6.65-3.63,8.84,8.84,0,0,0,2.86-6.59q0-15.47,0-30.93Z"/><path class="cls-1" d="M191.47,172.44h-4.15v-42H166.48v-3.81h45.79v3.78h-20.8Z"/><path class="cls-1" d="M214.69,126.61h5l18.64,22.93,18.57-22.93h4.93c0,.22-.16.32-.26.45q-10.41,12.8-20.84,25.58a1.43,1.43,0,0,0-.33,1q0,9.15,0,18.3v.53h-4.18V153.06Q225.51,139.89,214.69,126.61Z"/><path class="cls-1" d="M156.65,126.62h4.16v45.82h-4.16Z"/></svg>