<svg id="Layer_1" data-name="Layer 1" xmlns="http://www.w3.org/2000/svg" viewBox="0 0 300 300"><path d="M93.2,80.18A89.94,89.94,0,0,1,239.27,161a43.62,43.62,0,0,0-12.61-15.39,34.94,34.94,0,0,0-9.25-17.68,36.62,36.62,0,0,0-23.17-10.89c-7.74-.65-16,.52-22.56,4.79-.05-1.83.09-3.66-.05-5.49a1.72,1.72,0,0,0-1.83-1.78c-4.36.14-8.77,0-13.13.09a1.65,1.65,0,0,0-1.65,1.69c0,2.77,0,5.54,0,8.3-3-.09-6,0-9.05.1.09-7.32-.14-14.64-.14-22,.23-1.45-1.64-1.4-2.53-1.08a108.79,108.79,0,0,0-11,4.41c-.75.43-2,.71-2,1.83-.09,6,0,12.06,0,18.11a117.44,117.44,0,0,0-33.78,9.38q.13-11.4.19-22.8a1.63,1.63,0,0,0-2.3-1.31l-12,4.36c-1.17.43-2.67,1.08-2.53,2.54v27.86a55.48,55.48,0,0,0-11.4,12.48c-2.82,4.36-5.35,9.19-5.44,14.45A89.93,89.93,0,0,1,93.2,80.14Z" fill="#118eff"/><path d="M176.88,138.54a21.47,21.47,0,0,1,32.7,6.57,22.4,22.4,0,0,1,2.11,13.83c3.89,3.76,8.68,7.09,14.21,7.7,2.58.51,5.35.7,7.79-.42,2.21-.8,3.57-2.82,5.4-4.13a7.73,7.73,0,0,1-5.07,5.39c-4.69,1.36-9.94,1.5-14.45-.51a33.21,33.21,0,0,1-8.44-5.73A22.1,22.1,0,0,1,200.62,174a24.44,24.44,0,0,1-8.87,2.48,36.76,36.76,0,0,0,22.1,11c6.75.79,14.73.7,19.89-4.51a90.1,90.1,0,0,1-43.81,47.71l-.57.19c-2.77.28-5.35,1.36-8,2.06a95.23,95.23,0,0,1-19.09,3.8c-9.81.75-19.84.52-29.32-2.3-8.68-2.48-16.42-7.5-23-13.6-4.31-4-8.58-8.12-11.86-13A34.86,34.86,0,0,1,92,190.23c6.43,4.65,14.69,6.24,22.47,5.35a23.57,23.57,0,0,0,15.81-8.3c0,2.34-.09,4.69,0,7a1.58,1.58,0,0,0,1.88,1.46q5.91,0,11.82,0a1.69,1.69,0,0,0,1.92-1.93c.05-16.41,0-32.79.05-49.2,3,0,6,.09,9,.37-.09,9.85.19,19.7.14,29.55,0,13.47,0,26.93,0,40.39-.05.94.37,2.26,1.5,2.26,4.41.09,8.82,0,13.23,0a1.7,1.7,0,0,0,1.92-1.83c0-9.14,0-18.29,0-27.44a25.53,25.53,0,0,0,10.51,5,37.32,37.32,0,0,0,27-4.22c-8.16-1.59-16-5.77-21.06-12.43A21.88,21.88,0,0,1,177,171.56a21.29,21.29,0,0,1-7.69-14.35,21.51,21.51,0,0,1,7.55-18.67Zm10.46-.24a17,17,0,0,0-4.59,31.81,17,17,0,0,0,23.92-20.74c-2.58-7.74-11.3-12.85-19.33-11.07Z" fill="#118eff" fill-rule="evenodd"/><path d="M97.47,169.4a65,65,0,0,1,32.83-22.23c-.14,5.54.28,11.07-.37,16.61-.61,4.5-2.25,9.05-5.44,12.38-4.84,5.25-13.33,6.85-19.61,3.28-3.8-2.06-6.24-5.95-7.41-10Z" fill="#118eff"/><path d="M143.3,101.71c.89-.32,2.76-.37,2.53,1.08,0,7.32.23,14.64.14,22v19.89c0,16.41.05,32.79,0,49.2a1.69,1.69,0,0,1-1.92,1.93q-5.91,0-11.82,0a1.65,1.65,0,0,1-1.93-1.46c-.09-2.34,0-4.69,0-7a23.31,23.31,0,0,1-15.81,8.25c-7.78.94-16-.65-22.47-5.3-7.69-5.39-11.91-14.82-12.15-24.06,0-6.71,0-13.37,0-20.08V118.23c-.14-1.46,1.36-2.11,2.53-2.54,4-1.45,8-3,12-4.41a1.67,1.67,0,0,1,2.3,1.36q0,11.4-.19,22.8c0,6.66-.19,13.28-.09,19.89a44.24,44.24,0,0,0,1.08,14.07c1.17,4.09,3.61,8,7.41,10,6.24,3.57,14.77,2,19.61-3.28,3.19-3.33,4.83-7.88,5.44-12.38.65-5.54.23-11.07.33-16.61V126.06c0-6,0-12.1,0-18.11,0-1.12,1.22-1.4,2-1.83A108.79,108.79,0,0,1,143.3,101.71Z" fill="#fff"/><path d="M155,116.35a1.65,1.65,0,0,1,1.65-1.69c4.36,0,8.77,0,13.13-.09a1.72,1.72,0,0,1,1.83,1.78c.14,1.83,0,3.66.05,5.49,6.61-4.27,14.82-5.44,22.56-4.79a36.42,36.42,0,0,1,23.17,10.89,34.94,34.94,0,0,1,9.25,17.68,45.4,45.4,0,0,1-.76,21c-5.53-.61-10.32-3.94-14.21-7.7a22.4,22.4,0,0,0-2.11-13.83A21.4,21.4,0,1,0,177,171.56a21.88,21.88,0,0,0,11.22,4.74c5.06,6.66,12.9,10.84,21.06,12.43a37.32,37.32,0,0,1-27,4.22,26.17,26.17,0,0,1-10.51-5c0,9.15,0,18.3,0,27.44a1.7,1.7,0,0,1-1.92,1.83c-4.41,0-8.82.05-13.23,0-1.13,0-1.55-1.32-1.5-2.26,0-13.46,0-26.92,0-40.39.05-9.85-.23-19.7-.14-29.55V124.65c0-2.76,0-5.53,0-8.3Z" fill="#fff"/><path d="M146,124.75c3-.1,6-.19,9-.1V145c-3-.28-6-.37-9.05-.37V124.75Z" fill="#074dff"/><path d="M96.53,135.44a116.58,116.58,0,0,1,33.77-9.38v21.11A65,65,0,0,0,97.47,169.4a44.24,44.24,0,0,1-1.08-14.07C96.29,148.72,96.53,142.1,96.53,135.44Z" fill="#074dff"/><path d="M226.66,145.62A43.18,43.18,0,0,1,239.27,161l.19.75-.37.33c-1.83,1.31-3.19,3.28-5.4,4.13-2.44,1.12-5.21.93-7.79.42A45.4,45.4,0,0,0,226.66,145.62Z" fill="#074dff"/><path d="M68.43,158.57a54.73,54.73,0,0,1,11.44-12.48c0,6.71,0,13.37,0,20.08.24,9.24,4.46,18.67,12.15,24.06a34.86,34.86,0,0,0,6.06,17.59c3.28,4.88,7.55,9,11.86,13,6.57,6.1,14.31,11.12,23,13.6,9.48,2.82,19.51,3.05,29.32,2.3a95.23,95.23,0,0,0,19.09-3.8c2.67-.7,5.25-1.78,8-2.06-23.12,11.63-51.46,12.1-75.15,1.73A90.43,90.43,0,0,1,67.87,186.9,67.43,67.43,0,0,1,63,173c.09-5.26,2.58-10.09,5.44-14.45Z" fill="#074dff"/><path d="M187.34,138.3c8-1.78,16.75,3.33,19.33,11.07a17,17,0,1,1-19.33-11.07Z" fill="#22ff07"/><path d="M211.13,161.24a32.35,32.35,0,0,0,8.44,5.73c4.51,2,9.76,1.87,14.45.51a7.82,7.82,0,0,0,5.07-5.39l.37-.33c.52,7.36-.28,15.71-5.72,21.2-5.16,5.21-13.14,5.3-19.94,4.51-8.39-.85-16.13-5.07-22.05-11a24.44,24.44,0,0,0,8.87-2.48,22.1,22.1,0,0,0,10.51-12.72Z" fill="#0024db"/></svg>