<svg id="Layer_1" data-name="Layer 1" xmlns="http://www.w3.org/2000/svg" xmlns:xlink="http://www.w3.org/1999/xlink" viewBox="0 0 300 300"><defs><linearGradient id="linear-gradient" x1="31.15252" y1="127.93091" x2="205.20818" y2="152.34822" gradientUnits="userSpaceOnUse"><stop offset="0" stop-color="#fff"/><stop offset="0.6564" stop-color="#1694d7"/></linearGradient></defs><path d="M262.21819,125.59781c-15.29654-66.5253-81.70064-104.61675-146.90231-84.27133l-12.71629,4.96915,12.6812-3.69656a98.43587,98.43587,0,0,1,42.68744-1.17053c55.40053,10.79306,91.07439,62.041,82.03872,117.7062-8.86026,54.56809-61.70287,92.58619-116.53249,83.84075-48.3455-7.71206-84.10866-47.81924-86.472-96.97166l-.37635-7.38355-.28386,7.38036a106.4343,106.4343,0,0,0,2.66956,29.10681c14.2823,61.23082,72.70323,98.88852,134.58151,86.79417C235.37588,249.82322,276.30594,186.87328,262.21819,125.59781Z" fill="#0d5094"/><path d="M202.97812,141.3233c-3.5626-.92494-7.02633-.32213-10.43584.38911-6.78394,1.40973-12.914.43057-18.3297-4.05377-3.518-3.83052-5.26257-8.51261-6.49051-13.44667a32.35375,32.35375,0,0,1,4.0155-18.73157,33.55924,33.55924,0,0,1,7.23684-5.84624,21.53367,21.53367,0,0,0,7.74714-7.559,9.28,9.28,0,0,0,.791-8.58915c-2.59939-6.296-14.86278-11.78817-21.331-9.56832a8.42127,8.42127,0,0,0-1.60747,1.00467,5.71,5.71,0,0,0-3.08419,3.27556,26.93338,26.93338,0,0,0-2.2932,13.14686c-.0606,1.68721-.05422,3.3808-.20094,5.05845-.6028,6.95616-1.66807,13.73372-7.75352,18.38392-3.25961,1.1769-6.449,2.711-10.08181,1.94874a63.553,63.553,0,0,1-11.69248-5.51453,60.79313,60.79313,0,0,0-9.52366-7.358,46.48594,46.48594,0,0,0-10.90469-7.30062A37.29117,37.29117,0,0,0,98.0807,90.48685,45.551,45.551,0,0,0,86.267,85.13179a57.34462,57.34462,0,0,0-13.32866-3.96448,41.77825,41.77825,0,0,0-12.5313-2.341c-1.14182-1.30448-2.67275-.71125-4.03783-.75271-2.58663-.07974-5.18921.13077-7.68973-.78141-4.34721.1212-8.79009-.67935-13.6795,1.55006,4.277,4.21006,4.54176,10.31465,8.01506,14.84365H53.368q5.48744.775,10.97167,1.55006c3.78905.13077,7.10607,2.42079,10.9302,2.408q5.8893,2.31075,11.77859,4.62468,4.70283,2.33946,9.40247,4.6821,5.08555,3.13841,10.17749,6.27681a78.80441,78.80441,0,0,0,8.58916,6.32147,78.27535,78.27535,0,0,1,8.52537,8.77414c4.72355,10.53471-.99511,18.46685-8.17453,21.58293a40.78094,40.78094,0,0,1-12.06246,2.67593c-3.64552-.3317-7.33889-.00637-10.95572-.75908a42.36394,42.36394,0,0,0-8.80284-.9983c-9.74055.10845-13.64442,4.48116-12.257,13.33185.18817,2.49414.47841,4.96277,2.06037,7.05185,2.60259,5.02018,5.88452,6.41715,11.10244,4.78416a18.88293,18.88293,0,0,0,5.83667-3.00126,29.38641,29.38641,0,0,1,16.14493-5.90684,41.0807,41.0807,0,0,1,12.52492,2.408q2.4495,1.36827,4.90217,2.73654,2.2629,2.20549,4.529,4.411a16.79162,16.79162,0,0,1,2.45587,10.19983,24.3008,24.3008,0,0,1-3.43184,6.96892,25.83378,25.83378,0,0,0-4.72036,10.60807c-.90581,5.73461,1.85625,9.91277,7.46966,11.39267a20.46792,20.46792,0,0,0,10.809-.3636c6.48413-1.77014,9.53-6.80626,8.23194-13.44348a33.5274,33.5274,0,0,0-3.40313-9.52366,30.12194,30.12194,0,0,1-3.42227-11.12476c.64108-7.7886,4.19412-14.008,10.15836-18.96121,3.95491-3.28512,8.62424-5.135,13.39883-6.79988,7.6993-1.08759,14.33971.775,19.92761,6.47456a22.28517,22.28517,0,0,0,8.90491,5.49221c4.07291,1.35233,7.66741.74952,10.66229-2.5356a19.2525,19.2525,0,0,0,5.05526-15.0669C210.32339,145.3388,207.51988,142.50977,202.97812,141.3233Z" fill="url(#linear-gradient)"/></svg>