<svg id="Layer_1" data-name="Layer 1" xmlns="http://www.w3.org/2000/svg" xmlns:xlink="http://www.w3.org/1999/xlink" viewBox="0 0 300 300"><defs><style>.cls-1{fill:none;}.cls-2{fill:#3b74b9;}.cls-3{clip-path:url(#clip-path);}.cls-4{fill:url(#linear-gradient);}.cls-5{clip-path:url(#clip-path-2);}.cls-6{fill:url(#linear-gradient-2);}.cls-7{clip-path:url(#clip-path-3);}.cls-8{fill:url(#linear-gradient-3);}.cls-9{clip-path:url(#clip-path-4);}.cls-10{fill:url(#linear-gradient-4);}</style><clipPath id="clip-path"><path class="cls-1" d="M166.42,94.67h38.22l-19.18,41,26.63,57.13c6.08,12.42,9.53,12.42,14.08,12.42h37.12l-45.81-98.11C212,95.91,208.65,94.8,204.64,94.67Z"/></clipPath><linearGradient id="linear-gradient" x1="-618.46" y1="-427.12" x2="-613.91" y2="-427.12" gradientTransform="translate(10620.97 -14862.44) rotate(-90) scale(24.36)" gradientUnits="userSpaceOnUse"><stop offset="0" stop-color="#688cc8"/><stop offset="0.36" stop-color="#6ea4d8"/><stop offset="0.74" stop-color="#74b8e6"/><stop offset="1" stop-color="#74bfea"/></linearGradient><clipPath id="clip-path-2"><polygon class="cls-1" points="166.42 94.67 185.6 135.65 204.64 94.67 166.42 94.67"/></clipPath><linearGradient id="linear-gradient-2" x1="-618.46" y1="-428.32" x2="-613.91" y2="-428.32" gradientTransform="translate(10620.97 -14862.44) rotate(-90) scale(24.36)" gradientUnits="userSpaceOnUse"><stop offset="0" stop-color="#3b75b9"/><stop offset="0" stop-color="#3b75b9"/><stop offset="0.39" stop-color="#378ecd"/><stop offset="0.73" stop-color="#349ed8"/><stop offset="1" stop-color="#31a4dc"/></linearGradient><clipPath id="clip-path-3"><path class="cls-1" d="M146.14,205.33h0ZM83.08,94.67H36.71c8.28,1.24,16.28,8,20.56,17l6.49,13.94,31.32,67.33c5.52,11.18,8.83,12.29,12.83,12.42l19.18-41.12-26.77-57.12C94.25,94.67,90.8,94.67,86.25,94.67Z"/></clipPath><linearGradient id="linear-gradient-3" x1="-603.15" y1="-460.76" x2="-598.61" y2="-460.76" gradientTransform="translate(-11260.94 14955.11) rotate(90) scale(24.64)" xlink:href="#linear-gradient"/><clipPath id="clip-path-4"><polygon class="cls-1" points="107.78 205.33 146.14 205.33 126.96 164.21 107.78 205.33"/></clipPath><linearGradient id="linear-gradient-4" x1="-603.15" y1="-462.21" x2="-598.61" y2="-462.21" gradientTransform="translate(-11260.94 14955.11) rotate(90) scale(24.64)" xlink:href="#linear-gradient-2"/></defs><path class="cls-2" d="M204.64,94.67l-45.81,98.24C153.31,204.23,150,205.2,146,205.33H107.78l45.81-98.24c5.52-11.18,8.83-12.29,12.83-12.42h38.22"/><g class="cls-3"><rect class="cls-4" x="166.42" y="94.67" width="96.87" height="110.67"/></g><g class="cls-5"><rect class="cls-6" x="166.42" y="94.67" width="38.22" height="40.98"/></g><g class="cls-7"><rect class="cls-8" x="36.57" y="94.67" width="109.42" height="110.67"/></g><g class="cls-9"><rect class="cls-10" x="107.78" y="164.21" width="38.36" height="41.12"/></g></svg>