<svg id="Layer_1" data-name="Layer 1" xmlns="http://www.w3.org/2000/svg" viewBox="0 0 300 300"><defs><style>.cls-1{fill:#81be41;}.cls-2{fill:#023c5b;}</style></defs><g id="_81be41ff" data-name="#81be41ff"><path id="Layer" class="cls-1" d="M70.23,55.24c5-10.42,17.91-14.5,28.82-13.41,14.2,2,28.27,4.76,42.47,6.89,5.24.85,11.21,2.25,14.19,7.13,2.38,3.35,2.62,7.61,2.26,11.57l.67-3.9c7.62,27.48,15.54,54.9,23.09,82.38-31.62-10.6-63.12-21.39-94.8-31.93-10-3.59-21-6.39-31.56-3.59A11.41,11.41,0,0,0,49,114.83h-.85C56.28,95.27,62.55,75,70.23,55.24Z"/></g><path id="Layer-2" data-name="Layer" class="cls-2" d="M163.21,66.94c-1.71-.67-3.84-2-3.53-4.15,9.38,1.77,18.88,3.17,28.27,4.76A39.41,39.41,0,0,1,217.5,88.87q16.35,32.26,32.78,64.52a33.24,33.24,0,0,1,2.19,25.41c-1.71,5-5.61,8.77-8.9,12.8Q220,219.38,196.48,247.16c-9.45,11.28-27.36,14.81-40,7q-45.61-27.06-91.4-53.92c-15.29-9-23.33-29.49-16.81-46.25,3-8.41,6-16.81,9.14-25.22,1-3.84,4.87-5.85,8.53-6.46a49.72,49.72,0,0,1,24.61,2.13c33.39,11,66.6,22.36,99.86,33.51q-11.32-40.4-22.72-80.73a34.94,34.94,0,0,0-4.45-10.23Z"/></svg>