<svg id="Layer_1" data-name="Layer 1" xmlns="http://www.w3.org/2000/svg" viewBox="0 0 300 300"><defs><style>.cls-1{fill:#727371;}.cls-2{fill:#fe3c03;}</style></defs><title>VXRT_Light_bg</title><path class="cls-1" d="M198.45,197.88c-1.86,1.8-1.44,4.3-1.91,6.49-2,9.61-4.41,19.09-9.23,27.76-4.23,7.62-10.1,11.8-19.44,11.39-12.77-.57-25.58-.27-38.37-.08A16.63,16.63,0,0,1,114.91,236c-6.72-9.29-9.24-20.16-11.66-31.07-.53-2.37-1.1-4.73-1.66-7.1a79.29,79.29,0,0,0-1.71-14.57q-.8-15.17-1.58-30.32l14,2.25c.39,10.18.54,20.37,2.28,30.44a54.29,54.29,0,0,0,2.18,14.55c1.83,10.17,4,20.21,10.7,29.46,6.38-8.76,8.58-18.23,10.44-27.84l14.29.15a129.65,129.65,0,0,1-7.85,27.45c8.25,0,15.85-.21,23.43.09,3.72.14,5.84-1.3,7.41-4.42a79.38,79.38,0,0,0,7.55-24.89A51.17,51.17,0,0,0,185,185.72c1.72-10.07,1.86-20.25,2.25-30.42L201.34,153l-1.56,30.45C199.08,188.22,197.46,192.93,198.45,197.88Z"/><path class="cls-1" d="M101.66,102.56c2-9.14,3.55-18.43,7.1-27.19a54.6,54.6,0,0,1,5.18-10.16c3.83-5.64,8.83-8.85,16-8.71,12.93.27,25.88.36,38.8,0,8.44-.26,13.95,3.58,18,10.41,5.68,9.67,8.14,20.4,10.25,31.24.29,1.47.67,2.91,1,4.37a85,85,0,0,0,1.84,14.38q.66,10.73,1.31,21.45a63.84,63.84,0,0,1-13.87,2.18c-.78-8.63-.51-17.36-2.29-25.91a51.93,51.93,0,0,0-2.08-14.29c-1.31-9-3.59-17.62-7.86-25.65-.92-1.73-1.75-3.9-4.28-3.91-8.56,0-17.13,0-26.29,0a129.53,129.53,0,0,1,7.88,27.85l-14.26.07c-2-9.79-4.12-19.51-10.59-28.41-6.74,9.58-9,19.74-10.81,30.08a49.59,49.59,0,0,0-2.06,14.37c-1.77,8.48-1.46,17.15-2.25,25.72a56.68,56.68,0,0,1-13.8-2.31L99.87,117Q100.77,109.78,101.66,102.56Z"/><path class="cls-2" d="M187.27,140.49a63.84,63.84,0,0,0,13.87-2.18c10-1.61,19.6-4,28.45-10.44-9.24-6.85-19.58-8.72-29.76-11A85,85,0,0,1,198,102.48c12,1.74,23.8,4.44,34.55,10.44,7.18,4,11.29,9.56,10.94,18.44-.5,12.52-.49,25.08,0,37.6.34,8.83-3.67,14.44-10.87,18.47-10.62,5.93-22.27,8.55-34.14,10.45-1-4.95.62-9.66,1.32-14.46,8.57-1.6,17-3.58,24.86-7.6,1.87-1,4.51-1.74,4.57-4.22.2-8.76.08-17.52.08-26.86-9.43,4.08-18.66,6.26-27.95,8.23l-14.07,2.33c-10.22.15-20.36,1.91-30.61,1.6l0-14C166.89,142.67,177.14,142.31,187.27,140.49Z"/><path class="cls-2" d="M101.66,102.56q-.9,7.22-1.79,14.43c-10.1,2.21-20.33,4.06-29.49,10.93,8.94,6.25,18.32,8.88,28.2,10.17a56.68,56.68,0,0,0,13.8,2.31c9.91,1.86,20,2.19,30,2.53l.06,14.06-30.08-1.78L98.3,153c-9.19-2.22-18.48-4.08-27.66-8.4,0,8.38.22,16.11-.09,23.81-.15,3.76,1.46,5.74,4.52,7.3,7.83,4,16.22,6.11,24.81,7.61a79.29,79.29,0,0,1,1.71,14.57c-12.93-2.16-25.71-4.78-36.88-12.24-5.52-3.68-8.26-8.64-8.16-15.45.2-13.22.25-26.45,0-39.66C56.34,123,59.7,117.76,65.79,114,76.78,107.19,89.1,104.47,101.66,102.56Z"/><path class="cls-2" d="M185,185.72a51.17,51.17,0,0,1-2.24,14.48L152.24,202,138,201.82l-21.14-1.62a54.29,54.29,0,0,1-2.18-14.55c8.62.85,17.23,1.93,25.93,1.44a39.54,39.54,0,0,0,14.1.23C164.82,187.65,174.92,186.69,185,185.72Z"/><path class="cls-2" d="M182.9,100.29A51.93,51.93,0,0,1,185,114.58c-10.09-.75-20.15-2-30.3-1.65-4.69-.11-9.39-.76-14.05.41-8.72-.54-17.35.52-26,1.34a49.59,49.59,0,0,1,2.06-14.37l21.4-1.67,14.26-.07Z"/><path class="cls-1" d="M142.37,142.93c.33-9.92-.94-19.74-1.74-29.59,4.66-1.17,9.36-.52,14.05-.41l1.95,30,0,14q-1,15.21-2,30.42a39.54,39.54,0,0,1-14.1-.23c.9-10,2-20,1.87-30.1Z"/></svg>