<svg id="Layer_1" data-name="Layer 1" xmlns="http://www.w3.org/2000/svg" xmlns:xlink="http://www.w3.org/1999/xlink" viewBox="0 0 300 300"><defs><linearGradient id="linear-gradient" x1="13818.95213" y1="13031.63688" x2="13891.26072" y2="13105.5478" gradientTransform="translate(13298.16653 14006.23522) rotate(-176.61635)" gradientUnits="userSpaceOnUse"><stop offset="0" stop-color="#a8d8e1"/><stop offset="1" stop-color="#04a387"/></linearGradient><linearGradient id="linear-gradient-2" x1="-313.83819" y1="750.96245" x2="-241.52962" y2="824.87341" gradientTransform="translate(385.76895 -612.29642) rotate(3.38365)" xlink:href="#linear-gradient"/><linearGradient id="linear-gradient-3" x1="13827.97264" y1="13096.33229" x2="13993.75601" y2="13096.33229" gradientTransform="translate(13298.16653 14006.23522) rotate(-176.61635)" gradientUnits="userSpaceOnUse"><stop offset="0" stop-color="#a8d8e1"/><stop offset="0.1053" stop-color="#a1d1de"/><stop offset="0.2771" stop-color="#8ebdd6"/><stop offset="0.494" stop-color="#6d9cc6"/><stop offset="0.7469" stop-color="#4272af"/><stop offset="1" stop-color="#184894"/></linearGradient><linearGradient id="linear-gradient-4" x1="-304.84241" y1="815.70124" x2="-139.05905" y2="815.70124" gradientTransform="translate(385.76895 -612.29642) rotate(3.38365)" xlink:href="#linear-gradient-3"/></defs><path d="M209.42988,29.37934c49.30479-.44022,55.4679,117.09889,55.4679,117.09889,3.52177,108.73468-85.40294,85.84317-43.58191,8.36421C262.69667,77.80369,209.42988,29.37934,209.42988,29.37934Z" fill="url(#linear-gradient)"/><path d="M90.57011,270.62066c-49.30479.44021-55.46789-117.0989-55.46789-117.0989-3.52177-108.73468,85.40294-85.84317,44.02213-8.3642C37.30332,222.19631,90.57011,270.62066,90.57011,270.62066Z" fill="url(#linear-gradient-2)"/><path d="M96.293,189.1797S145.15756,29.81956,209.42988,29.37935c50.18524,0,55.4679,117.09888,55.4679,117.09888s-10.56532-55.90812-53.707-57.669C168.48929,86.60812,121.38561,125.3476,96.293,189.1797Z" fill="url(#linear-gradient-3)"/><path d="M203.707,110.82029S154.84243,270.18043,90.5701,270.62064c-49.30478.44023-55.46788-117.09888-55.46788-117.09888s10.56531,55.46789,53.707,57.669C131.95092,212.95165,178.61438,174.21217,203.707,110.82029Z" fill="url(#linear-gradient-4)"/><path d="M203.707,110.82029S154.84243,270.18043,90.5701,270.62064c-49.30478.44023-55.46788-117.09888-55.46788-117.09888s10.56531,55.46789,53.707,57.669C131.95092,212.95165,178.61438,174.21217,203.707,110.82029Z" fill="url(#linear-gradient-4)"/></svg>