<svg id="Layer_1" data-name="Layer 1" xmlns="http://www.w3.org/2000/svg" xmlns:xlink="http://www.w3.org/1999/xlink" viewBox="0 0 300 300"><defs><style>.cls-1{fill:url(#linear-gradient);}.cls-2{fill:#04196b;}.cls-3{fill:#056afe;}.cls-4{mask:url(#mask);}</style><linearGradient id="linear-gradient" x1="82.86" y1="159.71" x2="155.35" y2="159.71" gradientUnits="userSpaceOnUse"><stop offset="0.07"/><stop offset="0.25" stop-color="#383838"/><stop offset="0.65" stop-color="#c2c2c2"/><stop offset="0.82" stop-color="#fff"/></linearGradient><mask id="mask" x="82.86" y="132.55" width="72.49" height="54.32" maskUnits="userSpaceOnUse"><polygon class="cls-1" points="155.35 137.58 87.81 186.88 82.86 177.41 144.35 132.55 155.35 137.58"/></mask></defs><title>VERA_Light_bg</title><path class="cls-2" d="M250.57,179.56c-.92,1-1.74,2-2.63,2.91a23.3,23.3,0,0,1-4.48,3.62,17.43,17.43,0,0,1-4.36,2,23.49,23.49,0,0,1-3.21.68,11.89,11.89,0,0,1-3.2.14,19.93,19.93,0,0,1-4.24-.79,21,21,0,0,1-2.91-1.15,24.36,24.36,0,0,1-3.3-2.12,26.21,26.21,0,0,1-5.58-5.89,39.15,39.15,0,0,1-4.93-9.08,47.63,47.63,0,0,1-3-13.44,58.59,58.59,0,0,1,.68-15.42,42.76,42.76,0,0,1,5.67-15,31.92,31.92,0,0,1,6.18-7.5,19.46,19.46,0,0,1,3.8-2.59,20.41,20.41,0,0,1,4.4-1.69,18.12,18.12,0,0,1,6.17-.46,16.37,16.37,0,0,1,4.25,1,22.28,22.28,0,0,1,5.9,3.44,29.91,29.91,0,0,1,6.29,7.31,41.81,41.81,0,0,1,5.84,14.59A57.43,57.43,0,0,1,259,151.64v37.29h-8.43ZM217,151.29c0,.42,0,.84,0,1.26a30.59,30.59,0,0,0,4.39,15.71,18.3,18.3,0,0,0,6.27,6.46,11.2,11.2,0,0,0,3.85,1.45,13,13,0,0,0,5.2-.16,12.63,12.63,0,0,0,3.56-1.5,17.89,17.89,0,0,0,5.38-5.44,29.69,29.69,0,0,0,4.78-14.18,38.9,38.9,0,0,0-.31-9.58c-1-5.91-3.22-11.18-7.6-15.4a12.39,12.39,0,0,0-6.14-3.36,9.32,9.32,0,0,0-3.54-.22,20,20,0,0,0-3.25.7,11.3,11.3,0,0,0-2.91,1.5,19.46,19.46,0,0,0-4.64,4.85,27.23,27.23,0,0,0-3.61,7.53A34,34,0,0,0,217,151.29Z"/><path class="cls-2" d="M144.33,132.55a3.33,3.33,0,0,0-.69-1.35,19,19,0,0,0-4.56-5.15,18.3,18.3,0,0,0-3-1.8A12.42,12.42,0,0,0,132,123.1a11.66,11.66,0,0,0-5.4.85,14.18,14.18,0,0,0-3.51,2,20.72,20.72,0,0,0-6.06,7.76,36,36,0,0,0-3,20.92c.23,1.18.43,2.36.73,3.53a27.43,27.43,0,0,0,2.76,7,14.83,14.83,0,0,0,2.13,3.4,17.89,17.89,0,0,0,4.71,4.3,12.53,12.53,0,0,0,3.49,1.52,11.44,11.44,0,0,0,3.41.46,11.59,11.59,0,0,0,4.67-1.11c.69-.35,1.37-.72,2.1-1.13.35,1,.69,2,1,3.06.75,2.3,1.51,4.6,2.26,6.89.3.91.31.93-.51,1.36a33.74,33.74,0,0,1-4.09,1.9,17.3,17.3,0,0,1-8.31.81,18.2,18.2,0,0,1-4.78-1.46,24.68,24.68,0,0,1-9.57-8,40.89,40.89,0,0,1-3.76-6.21,40.33,40.33,0,0,1-3.57-10.5,56.45,56.45,0,0,1-.91-16.81A50,50,0,0,1,110.25,127a34.35,34.35,0,0,1,5.52-8.46,25.72,25.72,0,0,1,5.75-4.8,22.41,22.41,0,0,1,4-1.81,17,17,0,0,1,7.6-.8,16.77,16.77,0,0,1,4.29,1.12,22.14,22.14,0,0,1,5,2.76,25.53,25.53,0,0,1,3.46,3.11A37.62,37.62,0,0,1,154,132.77a44.88,44.88,0,0,1,1.24,4.86c-1,.71-1.9,1.43-2.86,2.12"/><path class="cls-2" d="M41,114.7H51.06L70.5,162.27,89.88,114.7H99.94L70.47,186.83C60.74,162.7,50.83,138.77,41,114.7Z"/><path class="cls-2" d="M205.36,126l-6.14,8.48c-.4-.75-.83-1.45-1.25-2.14a14.36,14.36,0,0,0-4.68-4.78,8.49,8.49,0,0,0-5-1.2,10.39,10.39,0,0,0-3.78.83,13.31,13.31,0,0,0-4.32,3.07,27.64,27.64,0,0,0-7.28,15.32,40.07,40.07,0,0,0-.44,6.29q0,18.22,0,36.45v.63h-8.38v-.61c0-12.62,0-25.25,0-37.88a49.32,49.32,0,0,1,2.86-16.8,40,40,0,0,1,8.4-13.77,21.1,21.1,0,0,1,4.5-3.58,18.13,18.13,0,0,1,4.82-2,15.45,15.45,0,0,1,5.61-.46,15.23,15.23,0,0,1,4.84,1.43,21.52,21.52,0,0,1,4.73,3.26,20.79,20.79,0,0,1,3.18,3.69A38.86,38.86,0,0,1,205.36,126Z"/><path class="cls-3" d="M122.67,148.47c0-.06-.08-.11,0-.15S122.76,148.43,122.67,148.47Z"/><g class="cls-4"><polygon class="cls-2" points="155.35 137.58 87.81 186.88 82.86 177.41 144.35 132.55 155.35 137.58"/></g></svg>