<?xml version="1.0" encoding="UTF-8"?>
<svg id="Layer_1" xmlns="http://www.w3.org/2000/svg" viewBox="0 0 300 300">
  <defs>
    <style>
      .cls-1 {
        fill: #53575a;
      }

      .cls-2 {
        fill: #510c76;
      }
    </style>
  </defs>
  <path class="cls-1" d="M105.74,157.34v10.72h.54c1.73,0,6.37-.14,7.15-.85.85-.85,1.38-1.96,1.5-3.16h.77v9.39h-.77c-.12-.91-.47-1.78-1.02-2.51-.52-.65-1.12-.58-1.81-.91s-5.06-.49-6.36-.49v7.4c-.05.88,0,1.76.18,2.62.14.34.4.62.72.79.53.24,1.12.35,1.7.31h1.63c2.18.11,4.33-.49,6.13-1.71,1.65-1.31,2.82-3.14,3.32-5.2h.72l-1.22,8.35h-23.61v-.72h.91c.66.03,1.32-.11,1.91-.4.37-.21.65-.53.81-.92.2-.8.27-1.63.22-2.45v-17.28c.02-.72,0-1.45-.1-2.17-.11-.42-.36-.8-.72-1.05-.63-.39-1.36-.58-2.1-.54h-.93v-.72h22.89v7.77h-.77c-.21-1.48-.78-2.88-1.65-4.09-.8-.88-1.84-1.52-2.99-1.82-1.39-.29-2.81-.41-4.23-.35h-2.83Z"/>
  <path class="cls-1" d="M133,170.13v7.36c-.06.9.03,1.81.27,2.69.21.39.55.7.96.88.82.27,1.69.38,2.56.33v.72h-13.99v-.72c.87.06,1.75-.05,2.57-.33.4-.18.74-.5.95-.89.25-.87.34-1.77.27-2.67v-17.05c.06-.9-.03-1.81-.27-2.68-.21-.4-.55-.71-.96-.88-.82-.28-1.69-.39-2.56-.33v-.72h12.7c2.43-.09,4.85.13,7.23.66,1.47.4,2.78,1.25,3.75,2.43.96,1.17,1.47,2.64,1.45,4.15.04,1.85-.76,3.61-2.17,4.8-1.14.9-2.47,1.52-3.89,1.81l6.58,8.89c.53.78,1.14,1.51,1.83,2.17.56.41,1.23.63,1.92.66v.72h-8.58l-8.77-11.99h-1.83ZM133,157.25v11.54h1.15c1.41.06,2.83-.11,4.19-.5.91-.32,1.67-.95,2.17-1.78.57-1.03.85-2.19.79-3.37,0-2-.49-3.48-1.45-4.44-.95-.95-2.54-1.45-4.71-1.45h-2.15Z"/>
  <path class="cls-1" d="M176.44,155.83v7.11h-.72c-.27-1.25-.76-2.45-1.45-3.53-.56-.75-1.31-1.34-2.17-1.72-.86-.28-1.77-.4-2.68-.35h-2.04v20.27c-.06.85.02,1.7.23,2.52.2.38.52.69.91.88.57.28,1.21.41,1.84.38h.91v.72h-14.29v-.72h.9c.66.03,1.32-.11,1.91-.4.37-.21.67-.53.83-.92.2-.8.27-1.63.22-2.45v-20.27h-1.97c-1.84,0-3.18.38-4.01,1.13-1.24,1.18-2.03,2.77-2.22,4.47h-.77v-7.11h24.55Z"/>
  <path class="cls-1" d="M189.18,157.34v10.72h.56c1.73,0,2.98-.52,3.76-1.57.9-1.39,1.41-2.98,1.5-4.63h.77v13.76h-.77c-.1-1.28-.44-2.53-1.02-3.68-.39-.82-1.02-1.49-1.81-1.93-.95-.38-1.97-.55-2.98-.49v7.4c-.05.89.01,1.79.2,2.66.14.34.4.62.72.79.53.24,1.11.35,1.69.31h1.63c2.18.11,4.33-.49,6.14-1.71,1.65-1.31,2.82-3.14,3.32-5.2h.72l-1.23,8.35h-23.63v-.72h.9c.66.03,1.32-.11,1.91-.4.37-.2.66-.53.81-.92.21-.8.28-1.63.22-2.45v-17.31c.02-.72,0-1.45-.1-2.17-.11-.42-.37-.79-.72-1.05-.63-.39-1.36-.58-2.1-.54h-.92v-.72h22.88v7.77h-.77c-.21-1.48-.77-2.88-1.64-4.09-.8-.88-1.84-1.51-2.99-1.82-1.39-.29-2.81-.41-4.23-.35h-2.83Z"/>
  <path class="cls-1" d="M222.9,166.7l7.54,10.76c.75,1.19,1.64,2.28,2.67,3.24.56.39,1.21.63,1.89.69v.72h-13.32v-.72c.71.01,1.42-.14,2.05-.46.29-.19.47-.51.47-.85,0-.22-.05-.43-.14-.62-.43-.75-.92-1.48-1.45-2.17l-3.97-5.68-4.17,4.91c-1.25,1.48-1.88,2.49-1.88,3.02.01.4.19.78.48,1.05.4.38.9.63,1.45.72.57.1,1.15.14,1.73.12v.72h-10.51v-.72c1-.1,1.96-.41,2.82-.92,1.41-1.08,2.67-2.33,3.77-3.72l5.42-6.36-6.95-9.83c-1.14-1.61-1.8-2.51-1.96-2.7-.3-.37-.66-.68-1.07-.91-.46-.21-.95-.35-1.45-.4v-.72h13.56v.72h-.72c-.57-.05-1.13.07-1.63.36-.3.2-.47.54-.47.9,0,.25.04.49.14.72l1.39,2.02,3.39,4.96,2.89-3.39c1.48-1.75,2.22-2.97,2.22-3.66,0-.35-.11-.69-.31-.97-.22-.32-.54-.57-.9-.72-.58-.2-1.2-.28-1.81-.25v-.72h10.06v.72c-.65,0-1.3.09-1.91.28-.57.23-1.1.56-1.55.98-.35.3-1.22,1.27-2.62,2.89l-5.15,6Z"/>
  <path class="cls-1" d="M85.1,155.83v.77c.78-.03,1.56.09,2.3.35.38.14.71.39.95.72.22.33.33.71.33,1.11-.02.44-.09.88-.22,1.31-.15.51-.54,1.52-1.19,3.03l-5.4,12.49-5.83-14.05c-.61-1.49-.98-2.39-1.08-2.73-.1-.29-.16-.59-.17-.89-.02-.36.16-.71.46-.91.75-.38,1.59-.54,2.42-.46h.45v-.77h-13.11v.77c.81.01,1.58.33,2.17.9.9,1.53,1.66,3.15,2.27,4.82l8.41,20.11h2.63l8.41-19.23c.67-1.72,1.51-3.35,2.52-4.89.66-.85,1.6-1.43,2.66-1.64v-.77l-8.97-.03Z"/>
  <path class="cls-2" d="M151.65,103.95l-26.34,45.62h52.68l-26.34-45.62ZM200.27,188.18h-97.24l-4.55,7.87h106.34l-4.54-7.87Z"/>
</svg>