<svg id="Layer_1" data-name="Layer 1" xmlns="http://www.w3.org/2000/svg" viewBox="0 0 300 300"><defs><style>.cls-1{fill:#a5d060;}.cls-2{fill:#77bf44;}.cls-3{fill:#522977;}.cls-4{fill:#71308d;}</style></defs><path class="cls-1" d="M23.29,151.83a2.41,2.41,0,0,1-1.52-2.27c-.05-1.1,0-2.21,0-3.31V21.67c2.19.31,3,1.74,4,2.74Q56.83,55.76,87.88,87.17q25.71,25.92,51.46,51.79c2.63,2.65,5.19,5.36,7.79,8,1,1,1.68,2.25,3.23,2.42h.38l-.75.8c-35.63.34-71.27-1-106.89.69-6.44.3-12.9,0-19.48,0C23.57,151.06,23.43,151.45,23.29,151.83Z"/><path class="cls-2" d="M23.29,151.83c.14-.38.28-.77.33-.89,6.58,0,13,.26,19.48,0,35.62-1.67,71.26-.35,106.89-.69.09,1.65.23,3.29.24,4.94q0,56.54,0,113c0,3.59-.1,7.18-.15,10.76-1.8,0-2.51-1.6-3.53-2.62q-30.41-30.52-60.73-61.13-29.89-30.15-59.74-60.34C25.11,153.9,24.21,152.85,23.29,151.83Z"/><path class="cls-3" d="M150.36,149.41Q176.49,123,202.62,96.68q36.06-36.39,72.07-72.81a18.42,18.42,0,0,0,2-2.83c2,1,1.42,2.1,1.42,2.93q0,61.38,0,122.75c0,1.41.7,3.05-.75,4.25a4.72,4.72,0,0,0-3.15-.81c-3.16.46-6.32,0-9.48,0q-54.36,0-108.73,0c-1.77,0-3.62.39-5.25-.71Z"/><path class="cls-4" d="M150.74,149.41c1.63,1.1,3.48.71,5.25.71q54.36,0,108.73,0c3.16,0,6.32.49,9.48,0a4.72,4.72,0,0,1,3.15.81c-4.08,5.06-8.94,9.37-13.49,14q-55.23,55.84-110.58,111.57c-.94.95-1.64,2.29-3.2,2.45,0-3.58.15-7.17.15-10.76q0-56.52,0-113c0-1.65-.15-3.29-.24-4.94Z"/></svg>