<svg id="Layer_1" data-name="Layer 1" xmlns="http://www.w3.org/2000/svg" viewBox="0 0 300 300"><title>VIGL_Mark_Light</title><path d="M102.67239,65.248a89.91842,89.91842,0,0,1,4.62571,8.8572,2.09825,2.09825,0,0,1-1.18334,1.6834C85.29717,89.98106,72.21868,109.319,68.129,134.23279c-3.32956,20.28341-.829,39.886,9.15615,58.1421,7.06841,12.92334,16.29245,23.99167,28.9029,31.95724a2.209,2.209,0,0,1,1.11059,1.59306,77.92521,77.92521,0,0,1-4.70226,8.81392,2.54157,2.54157,0,0,1-2.11314-.62817c-19.84782-12.319-33.71319-29.39756-41.06851-51.62313a104.87461,104.87461,0,0,1,5.72506-78.85255,92.48749,92.48749,0,0,1,30.727-34.64548c1.65491-1.14095,3.36978-2.19524,5.05874-3.28679A2.20943,2.20943,0,0,1,102.67239,65.248Z" fill="#38c6f3"/><path d="M197.67947,65.239a1.76066,1.76066,0,0,1,1.45176.43273c24.45527,15.00241,39.44559,36.60115,44.69166,64.7487,4.22036,22.6441,1.44006,44.48307-8.76771,65.24718a91.965,91.965,0,0,1-30.12282,34.77111c-1.92074,1.35947-3.91879,2.61011-5.88246,3.909a1.6413,1.6413,0,0,1-1.75236.31884c-.8299-1.50655-1.7678-3.20993-2.70649-4.91289-.426-.7728-.859-1.54179-1.27935-2.31765-.96492-1.78084-.8648-2.29389.816-3.36043a69.414,69.414,0,0,0,12.98321-10.5704c12.90151-13.459,21.817-29.06106,24.7879-47.63053,3.18789-19.926,1.21579-39.22484-8.46735-57.24586-6.7729-12.6049-15.69391-23.44952-27.66558-31.56666-.771-.52273-1.56552-1.01071-2.33654-1.53329a1.34915,1.34915,0,0,1-.65119-1.76927,73.34908,73.34908,0,0,1,4.52139-8.23274A1.26107,1.26107,0,0,1,197.67947,65.239Z" fill="#38c6f3"/><path d="M148.98858,187.74816c7.20656-18.16769,14.30137-36.05423,21.39671-53.94057,1.76941-4.46038,3.57382-8.90735,5.29266-13.38708a3.02452,3.02452,0,0,1,3.2186-2.21319c2.25842.0555,4.51923.0117,6.779.01535.58277.00094,1.19491-.08229,1.64937.486.35772.70049-.0817,1.30285-.33347,1.91808q-11.23974,27.46567-22.491,54.92667c-3.17306,7.74871-6.37478,15.486-9.48535,23.25971a2.91414,2.91414,0,0,1-3.30348,2.18245,55.54726,55.54726,0,0,0-5.89214-.01695,2.58649,2.58649,0,0,1-2.76968-1.88222q-12.07724-29.661-24.21705-59.29668c-1.68607-4.12466-3.37292-8.249-5.12639-12.53728h-9.20474c-3.32826,0-3.32844,0-3.32819-3.35517.0001-1.27568-.00315-2.55138.00314-3.827a1.63658,1.63658,0,0,1,1.89131-1.87078q8.17921.04265,16.35878.005a2.65424,2.65424,0,0,1,2.73288,1.9638q13.039,32.99828,26.14537,65.97C148.48226,186.59526,148.6823,187.03327,148.98858,187.74816Z" fill="#6c6d6d"/></svg>