<svg id="Layer_1" data-name="Layer 1" xmlns="http://www.w3.org/2000/svg" viewBox="0 0 300 300"><defs><style>.cls-1{fill:#702d97;}.cls-2{fill:#05aee6;}.cls-3{fill:#7cc813;}.cls-4{fill:#f5f5f5;}.cls-5{fill:#0579c3;}</style></defs><title>VINC_Light_bg</title><path class="cls-1" d="M249.71,175.87c-1.26,7.46-6.09,12.79-11.2,17.71-12,11.55-27,16.22-43.11,17.56a138,138,0,0,1-68.51-11.5,22.71,22.71,0,0,1-2.6-1.6c.93-.88,2.11-.62,3.2-.65,25.63-.76,51.26-1.6,76.64-5.59,16.14-2.54,31.49-7.49,45.63-15.86Z"/><path class="cls-2" d="M96,156.74c-15-4.12-31.18-7.35-43.22-19.44-7.77-7.82-9.21-17.56-6.9-28,.14-.62.36-1.23.55-1.84a6.28,6.28,0,0,1,1.18,1.43c4,9.86,11.74,16.21,20.59,21.35,11.53,6.7,23,13.49,36.16,16.8,2.72.69,2.3,1.51.61,3s-3.28,3.38-4.92,5.07A4.67,4.67,0,0,1,96,156.74Z"/><path class="cls-3" d="M70.4,169.67A23.19,23.19,0,0,1,56.78,165c-11-8.4-16.43-19.62-16.77-33.37,0-.61,0-1.61.26-1.78.84-.43,1,.51,1.24,1,7.09,15,20.89,21.24,35,27,2.77,1.13,5.71,1.83,8.51,2.87.89.34,2.45,0,2.5,1.33,0,.62-1.07,1.38-1.78,1.91A26.21,26.21,0,0,1,70.4,169.67Z"/><path class="cls-3" d="M59.87,183.13c-4.79,0-8.44-2.25-11.41-5.53a31.46,31.46,0,0,1-8.07-18.69,12.72,12.72,0,0,1,0-1.38,6.46,6.46,0,0,1,1,1c6.59,10.49,16.64,15.35,28.4,17.42l1.83.3a6.8,6.8,0,0,1-1,1.56C67.67,180.83,64.16,183,59.87,183.13Z"/><path class="cls-2" d="M259.76,139l-1.33-.09C258.91,138.51,259.41,137.62,259.76,139Z"/><path class="cls-4" d="M93.4,184.51l-.29-.11.33-.32.22.24Z"/><path class="cls-4" d="M96.78,182.76l-.25.17-.21-.38c.11,0,.23-.07.31,0S96.74,182.67,96.78,182.76Z"/><path class="cls-4" d="M104.41,190.25l-.24.29c0-.13.09-.27.13-.41Z"/><path class="cls-4" d="M79.2,179.17l-.33.33c0-.07,0-.17.06-.21a1.36,1.36,0,0,1,.28-.11Z"/><path class="cls-1" d="M249.76,175.94c.1,0,.19-.08.29-.1s.09,0,.13.06c-.15,0-.31,0-.46,0S249.76,175.94,249.76,175.94Z"/><path class="cls-3" d="M246.84,88.35c-.79.42-1.63.78-2.38,1.27A284,284,0,0,1,207,110.08c-25.73,11.93-52.5,21.49-77.77,34.46-4.54,2.33-9,4.82-13.33,7.43-1.72,1-4.33,2.6-5.12,3.15a240.94,240.94,0,0,0-27.64,20.5,7.14,7.14,0,0,0-.56.54c-3.09,2.56-5.8,4.84-5.8,4.84s5.76-3.69,11.38-7.11c3.55-2,7.09-3.94,10.75-5.67s7.33-3.32,11.05-4.85c.72-.28,1.34-.54,1.84-.75C130,155.33,148.9,150,167.49,143.81c18-6,35.89-12.25,52-22.6,11.67-7.5,21.37-16.81,26.73-30C246.59,90.33,247.32,89.46,246.84,88.35Z"/><path class="cls-5" d="M259.52,104.55c-.16-.09-.91.77-1.26,1.28-10.25,14.86-24.69,24.17-41,31-18.75,7.87-38.56,12.29-58,18-19.06,5.58-37.83,11.82-54.29,23.32-.48.31-.93.61-1.33.89C99.71,181.83,89,186.55,89,186.55s14.29-6.22,16.48-6.91c.78-.25,1.66-.57,2.66-.93l1.16-.33c4.29-1.29,8.62-2.46,13-3.54,4.73-1.11,9.6-2.23,9.6-2.23l0,0c16.92-3.79,34-6.67,50.91-10.67,18.22-4.33,36.28-9.16,52.31-19.38,13.32-8.49,22.22-20.06,24.64-36C259.78,105.85,260.43,105,259.52,104.55Z"/><path class="cls-5" d="M258.43,138.94c-23.8,14.57-49.54,24.57-76.28,32.2-20.69,5.9-41.68,10.57-62.56,15.73-8.19,1.69-17.13,3.42-17.13,3.42s10.71-1.38,13.59-1.49c1.94-.08,5.43-.37,8.7-.58l5.09-.25c2.3-.09,6.27-.29,9.56-.47,13.1-.65,26.2-1.32,39.28-2.26,16.84-1.2,33.57-3.47,49.36-10,16.52-6.83,28.59-17.64,31.72-36.22Z"/></svg>