<svg id="Layer_1" data-name="Layer 1" xmlns="http://www.w3.org/2000/svg" viewBox="0 0 300 300"><defs><style>.cls-1{fill:#046494;}</style></defs><path class="cls-1" d="M149.79,243.56,44.16,57.49c.8-1.41,1.89-1,2.81-1h87.64c8.45,0,10.09,1.61,9.18,9.9a131.55,131.55,0,0,1-7.15,31.73A53.49,53.49,0,0,1,126.87,114,30,30,0,1,0,175,149.44c6.91-10.66,6.34-25.58-2.15-35.06C159.55,99.5,157.51,81,155.34,62.47c-.36-3.12,1.7-5.28,4.93-5.82a23.61,23.61,0,0,1,3.95-.14h91.62C220.32,119.16,185.24,181,149.79,243.56Z"/></svg>