<svg id="Layer_1" data-name="Layer 1" xmlns="http://www.w3.org/2000/svg" viewBox="0 0 300 300"><path d="M213.3599,132.22808c16.615,5.593,33.0244,11.11656,49.43361,16.64065,1.65327.55658,3.317,1.08457,4.95632,1.67975,5.59352,2.03091,8.40779,7.3164,6.8025,12.729-1.54706,5.2163-6.79108,8.16137-12.45279,6.81434q-36.198-8.61223-72.376-17.30909c-5.56071-1.33079-11.1141-2.6938-16.687-3.97151-4.66264-1.069-8.00783-3.60408-8.91063-8.43677-.88113-4.71662,1.17431-8.28043,5.15168-10.81616q38.8638-24.77724,77.73651-49.54047a10.16712,10.16712,0,0,1,14.162,2.71622c3.09136,4.55251,2.09835,10.37625-2.50761,13.94924q-21.61192,16.765-43.27779,33.46064A4.91126,4.91126,0,0,0,213.3599,132.22808Z" fill="#037c4d"/><path d="M88.08747,105.68577c-3.83024-7.69023-7.37255-14.7794-10.89416-21.87882C72.93306,75.21849,68.62563,66.65239,64.46905,58.014a9.106,9.106,0,0,1,2.451-11.06163,9.32357,9.32357,0,0,1,11.34627-.47929,10.27532,10.27532,0,0,1,2.88206,3.23216q21.79359,35.5622,43.59736,71.11815c2.20786,3.602,2.653,7.27817.12948,10.898-2.59937,3.72875-6.31566,4.5797-10.54791,3.64854q-26.4093-5.81039-52.80723-11.67231-14.1918-3.13881-28.38478-6.27237c-5.862-1.29005-8.92215-5.58026-7.96086-11.19983.8611-5.03385,5.69739-7.92021,11.52908-7.151C53.61155,101.30483,70.53282,103.43463,88.08747,105.68577Z" fill="#057b80"/><path d="M159.66414,204.70548c-3.75021,11.08846-7.33381,21.68639-10.91893,32.2838-1.70555,5.0415-3.37023,10.09735-5.13355,15.11862-1.73864,4.951-6.2172,7.39832-11.02186,6.13313-4.48264-1.18038-7.19058-5.76829-6.01876-10.76532,3.60062-15.35433,7.322-30.68046,11.00978-46.01435,2.55636-10.62935,5.179-21.24306,7.68048-31.88521.93761-3.9888,3.15273-6.56866,7.22478-7.37871,3.77058-.7501,7.01708.73878,9.34471,4.37107q21.40069,33.396,42.74963,66.82514c3.2355,5.06876,2.47558,10.13871-1.82071,13.0941-4.27318,2.93946-9.3513,1.72523-12.95912-2.96152q-14.27489-18.54382-28.62846-37.02718C160.81965,206.04362,160.43148,205.61572,159.66414,204.70548Z" fill="#057b80"/><path d="M143.39742,84.24863c4.96235-11.205,9.85591-22.258,14.75352-33.30928.62731-1.41546,1.27661-2.82119,1.91443-4.232,2.01449-4.45584,5.75929-6.2613,9.8691-4.75744,3.948,1.44465,5.66549,5.531,4.14816,10.137-1.93719,5.8805-3.95931,11.73311-5.94754,17.59682-4.94,14.56921-9.90784,29.12907-14.80293,43.71331-1.1516,3.43106-2.49236,6.60428-6.50687,7.43364-3.4435.71138-6.517-.82275-8.36592-4.351-5.92928-11.31447-11.77726-22.67143-17.65288-34.01392Q114.332,69.96718,107.86821,57.46313c-2.29537-4.44277-1.351-8.95986,2.2734-10.96074,3.99625-2.20618,7.99975-.91771,10.8268,3.50525q10.163,15.9,20.31986,31.80382A5.4374,5.4374,0,0,0,143.39742,84.24863Z" fill="#22ac90"/><path d="M106.11784,182.92364c-5.77632,2.84739-11.30854,5.58574-16.85095,8.30335-5.48028,2.68716-10.92939,5.44359-16.47557,7.98835a5.723,5.723,0,0,1-6.90707-1.55064,6.2674,6.2674,0,0,1-1.113-7.286,7.08752,7.08752,0,0,1,3.03094-3.03248q24.532-15.04608,49.07945-30.06716c2.64594-1.623,5.30984-1.96334,7.90015-.084,2.61672,1.89846,2.956,4.61687,2.304,7.57723q-6.15615,27.95073-12.32087,55.89956c-.93254,4.20537-3.97677,6.3569-7.7559,5.66419-3.7784-.6926-5.54636-3.62765-4.983-8.0828q2.07977-16.44678,4.08137-32.90339A23.44953,23.44953,0,0,0,106.11784,182.92364Z" fill="#22ac90"/></svg>