<svg id="Layer_1" data-name="Layer 1" xmlns="http://www.w3.org/2000/svg" viewBox="0 0 300 300"><defs><style>.cls-1{fill:#028db8;}</style></defs><path class="cls-1" d="M259.77,129.27a7.68,7.68,0,0,0,3.65-2c-.33-.75-1.32-.33-1.67-1.14,1.17-.55,2.28.35,3.47.07,2.27-2.58,6-2.13,8.65-4,.56.41.19,1,.52,1.5,1.48,0,.88-1.9,2-2.2.6-.14.91.75,1.57.43,1-1.57,9.89-7,11.93-7.24-.42,1.14-2,1.34-2.09,2.81,1.27.39,1.21,1.54,1.26,2.57.15,3.16-1.28,5.73-3.17,8.12a30.14,30.14,0,0,1-5.23,4.82c.05.8.89,1.1.87,2.14-2.7-.56-5.4-.89-7,2.17,2.73.08,4.79,1.2,5.59,4,1.07-.29,1.24-1.17,1.57-2a4.92,4.92,0,0,1,1.4,2.75c-4.5,4.85-10.46,7.83-15.58,12,1.77.78,1.93.7,9-4.11a1.08,1.08,0,0,1,1.07.61,9.06,9.06,0,0,1-3.31,2,2.19,2.19,0,0,0,3,.76c1.68-.76,3.27-1.7,5.18-1.76.62,0,.86-.5.7-1.17,2.44.19,4.52,1.65,7,1,.06,1,.47,1.56,1.45,1.6-.86,1-.86,2.4-1.91,3.11.48.8,1.1.1,1.67.32C291,158,291,159.55,290,161l-3,.45c1.3-1.85-1-2.87-.51-4.4-1.22-.63-2.41-.37-3.67-.42-1,1.32-2.74,1.55-3.94,3l-.68-1.17c-3.81,1.08-7.69,1.65-9,6.22-.75.53-2.12.59-2.09,2,.35.73,1,.49,1.51.65.48,1.69-.29,2.41-3.86,3.6-.67-.09-.65-.91-1.21-1.12-3.17.59-3.83,1.19-3.8,3.56-2.07,1.45-4.49,2.55-6,4.88-1.7-.1-2.83,1.14-4.23,1.78a42.08,42.08,0,0,1-7.35,2.9c-.94.23-1.85.38-2.29,1.55-3.12-.06-5.49,2.39-8.57,2.68a5.61,5.61,0,0,1-1.76.09,5,5,0,0,1,3-2.45c1.7-.69,3.44-1.27,5.14-2a3.28,3.28,0,0,0,1.7-1.19c.67-.17,1.27.19,1.89.26a1.47,1.47,0,0,0,1.21-1.13,7.41,7.41,0,0,0-3.08.89,23.41,23.41,0,0,0-5.48,1.24,111.74,111.74,0,0,1-13.89,2.92c-.46-.43,0-.87-.15-1.27-.41-.29-.81-.06-1.2.05-3,.85-6,1.79-9,2.55a188.6,188.6,0,0,1-29.31,4.72c-5.08.46-10.18,1.1-15.25.83-2.95-.15-5.91.68-8.89-.23-1.32-.4-2.9.09-4.36.1a95.85,95.85,0,0,1-18.61-1.31,4.91,4.91,0,0,1-2.77-1.15c-3.1.82-6.07-.54-9-.84-.47.35-.07.83-.42,1.13-.82.42-1.62,0-2.25-.07-.61-.29-.29-.83-.74-1.13-2.93-.33-5.85-1.23-9-1.42-2.64-.15-5.21-1.24-7.87-1.68l-9.63-1.6c-2.37-.4-4.48-1.7-6.9-2A9.94,9.94,0,0,1,80.29,181c-.77-.12-1,.78-1.72.54-.29-.2.05-.73-.64-1.09a14.29,14.29,0,0,1-7.14-1l.11-.68c-4.37-.87-8.59-2.3-13.05-2.62-2.61-2.44-6-1.33-9.05-2.11-.29-.31.27-.58,0-1-9.89-.54-17.89-5.39-25.14-11.75l-1.05.1c-.28,0-.55.11-.91.18-1.11-2.37-3.59-1.56-5.35-2.34-.58.26.08.6-.31,1a10.2,10.2,0,0,1-5.47-1.8h7.26a8.06,8.06,0,0,0-3.9-2.17,16.49,16.49,0,0,1-3.82-1.44v-1.54c-.81-1.19-2.78-.39-3.4-2,.86-.34,1.47.4,2.41.35l1-.48c.49.24.17.93,1,1,1-.25.76-1.53,1.33-2.18-.4-.74-1.29-.24-1.68-1,.83-1,2.1-.36,3.1-.74.34-.41-.31-.8.17-1.35,1.33,0,2.69,1.3,4.24.68.7-1.35-1.58-1.6-1-3a69.13,69.13,0,0,0,7.09.92c2.18-1.29,2.18-1.29,5.66-1.28-.31-1.15-1.66-1.22-2.18-2.16-.06-.44.42-.23.6-.45A3.16,3.16,0,0,0,25,139.52c-.27-.44.05-.92-.52-1.53-.84-.69-2.18-.59-3.61-.62-.46-.6-1.57-.73-1.59-1.88.9-.57,1.45.6,2.34.39.31-.09.06-.59.52-.86a183.57,183.57,0,0,1,20.13,1.3c-3.53-2.37-7.6-3.19-11.62-4.21l-5.39-.88-.41-1.57c2.18-.22,4.4.2,6.37-.83a2.45,2.45,0,0,1,1.84,2H36c1.73,2.52,4.6,2.77,7.29,3.45.45.76,1.22,1.32,1.28,2.26l13,2.61c.32.62-.6.78-.15,1.7a3.1,3.1,0,0,0,2.63.75,3.66,3.66,0,0,1,2.12.57,39.28,39.28,0,0,0,7.6,3c1.92.59,3.82,1.2,5.78,1.63.42.09.94.27.93,1-1.32.23-2.43-.73-3.72-.6-1,1.2-.88,2,.43,2.66a9.63,9.63,0,0,0,2.37.92c4,.92,7.71,2.73,11.49,4.33,1.6.68,3.25,1.25,4.91,1.79,1.22.4,1.84.16,3-.93-1-1.29-2.78-1.56-3.82-2.76-.85.52,0,1.3-.46,1.89-.56.4-1-.15-1.66-.24,1.59-2.55-.85-3.3-2.35-4.87,1.52.42,2.56,1.15,3.7,1,.5.31.17.79.44,1.13a46.83,46.83,0,0,0,14.61,4.1c5.77.61,11.26,2.26,16.83,3.66A295.46,295.46,0,0,0,156,166c10.81,1.41,21.66,2.47,32.55,3.1a155.1,155.1,0,0,0,20.22-.64c1.87-.13,3.61-1,5.52-.94.43,0,.62-.4.94-.58.86-.48,1.73-.95,2.74-.34,1.17-.52,1.95-1.71,3.32-1.83.51-.05,1.12-.31.92.64l-.18.15c.14,0,.29,0,.15-.17a24.1,24.1,0,0,0,5.66-1.55,58.86,58.86,0,0,0,8.33-3.21c.74-.15,1,.41,1.4.42,1.15-.16.92-1.27,1.34-2l6.67-3.36c.67.16,0,.66.51.84a22.47,22.47,0,0,1,11.16-5.4c.23.81-.53.85-.68,1.37.79.39,1.47-.62,2.33-.12.44,2.4-2.39,2.07-3.21,3.73,2.89-.74,5.66-1.23,7.54-3.44-.05-.72-.51-1-.75-1.51,1-1.39,2.51-1.59,3.87-1.9.56.47,0,1,.37,1.32,3.56-.64,8.61-5.37,9.37-8.79-.57-1-.57-1-1.74-1.68-1.75,0-3.54,1.48-5.27-.27-3.33.79-6.81,1-10.16,2-.45-.83-.45-.83.48-4.07a8,8,0,0,0-7.4,1.41c-1.84,1.42-3.69,2.82-6.1,3.1l-1.41.16c-3.58,3.38-8.21,3.73-12.65,4.39-.55.2-.28.85-.69,1.14-2.33.59-4.65,1.2-7,1.78a51.58,51.58,0,0,0-6.83,2.27c-1.89.76-4,.48-6,.87a27.78,27.78,0,0,0-3.2.58,15.34,15.34,0,0,1-5.72.37c-3.16-.2-6.32.28-9.49,0a9.33,9.33,0,0,0-2.74-.29c0,.77.9.55,1,1.21-2.39,1-4.48-1.07-6.86-.66l-1-2.31c5.71,0,11.3,1.07,16.89-.09-3.48-1.1-7-.26-10.57-.2-.09-.56-.16-1-.3-1.93,3.11,1.41,5.62-.72,8.43-.9,3.21-.21,6.41-.13,9.62-.44a120.13,120.13,0,0,0,23.67-4.77c.17-.06.36-.1.67-.18a3,3,0,0,0,1.43,2.12c1.25-.89-.07-3.39,2.33-3.61l1,.58c.64-.13.34-.83.79-1s.26.56.73.53c1.19-.7,1.69-2.22,2.95-2.7.23-.47-.41-.52-.14-.87,1.69-.13,2.34-.91,2.81-3.48,2.58-.94,5.36-1.29,8-2s5.58-1.59,7.11-4.39c.53-.06.68.23.72.66l-.29.33ZM110.53,171.34c3.83.87,7.5,1.75,11.18,2.53a307,307,0,0,0,30.9,4.78c7.78.85,15.59,1.53,23.38,2.27.51,0,1.16.3,1.26-.37,8.86,1.38,17.38-.73,26.07-1.64.29,0,.07-.64.49-.68l1.09.45a3.87,3.87,0,0,0,2.39-1.27c1.75.72,7.83-1.32,8.72-3-1.49-.86-3.06.5-4.71-.19,1.39-.22,2.71,0,4.11-.9-3.91-.69-7.32,1.19-10.92.73-.08.29-.13.46-.16.63a.66.66,0,0,1-.51.6c-4.94-.38-10-1.16-15.09.06a1.19,1.19,0,0,0,.62,1.07c.28.22.72.29.76.79-.14,0-.28.09-.39.06-6.38-1.85-12.88-1.59-19.39-1.2a2.69,2.69,0,0,1-2.05-.27,2,2,0,0,0-2.25-.13c-.77.36-1.66.82-2.42.27a3,3,0,0,0-2.82-.27,4.22,4.22,0,0,1-2,.22c-.62-.37,0-.91-.58-1.07-.65,0-.81.77-1.66,1-3.13-.79-6.65-.43-10.1-.88-.55-.07-.63-.44-.82-.82-1.17,1-2.51.51-3.76.4-7.57-.66-15.08-1.88-22.66-2.44-.84-.07-1.69-.08-2.18-.81-2.6,0-5.24.56-7.19-2.12-1.06,1.84-2.57,1-4,.69a20.39,20.39,0,0,0-4.16-.73c2.59,1.7,5.72.66,7.74,2.77ZM229.79,146.9a41.82,41.82,0,0,0-10.92,1.33c-4.62,1.07-9.21,2.42-14.09,2a7.46,7.46,0,0,0-1,.49c-.31.22-.88.13-.9.74C212.11,151.25,221.22,150.64,229.79,146.9Zm20.34-8.17c-4.47.28-7,1.13-8,2.71l2.45-.25C245.88,139.42,248.37,140.24,250.13,138.73ZM36.67,146.9c-.79-1.22-4.27-3.18-5.12-2.93C32.65,145.9,34.54,146.38,36.67,146.9Zm56.75,20.61c1.33.38,2.27,1.05,3.46,1l0-1A5.25,5.25,0,0,0,93.42,167.51Zm173.06-12.28c-.49-.13-.86-.45-1.37-.29a1.12,1.12,0,0,0,.06,1.08C265.7,156.08,266.21,156.1,266.48,155.23ZM74.63,160.74c.48.2.82.51,1.37.19-.27-.37-.36-.84-.93-.92C74.71,160.08,74.78,160.42,74.63,160.74Zm12.78,4.73c.54.31.92.67,1.49.48A2.11,2.11,0,0,0,87.41,165.47Zm132.38,9.21c.57-.23,1.05-.09,1.25-.68C220.49,173.79,220.07,173.75,219.79,174.68ZM90.91,166.39c.14.66.48.73,1,.59C91.77,166.48,91.53,166.27,90.91,166.39Z"/><path class="cls-1" d="M76.77,137.54c-1.71-.95-1.73-.95-4.12-.47l-.59-.86c-1.65.2-3.26.38-4.54-1-3.93.8-7.22-.72-10.29-2.84-2.42.25-4.76.44-6.67-1.76a7.16,7.16,0,0,1,2.84.78,3.09,3.09,0,0,0,2.89-.19,6.92,6.92,0,0,1-2.66-3.71c-.35-1.6-2.67-1.8-2.5-3.7-.73-.17-.75.68-1.29.8-.65-.57-.15-1.59-.9-2.25-.84-.43-1.49,0-2.07.85a10,10,0,0,0-4.62-.56c.22-1,1.09-.33,1.48-.74-1.33-1-2.12-1-3.36,0-1.28-1.32-3.21-1.31-4.94-2.26,1.38-.76,2.75-.5,4-.86,1-1.34,3.18-.33,4.21-1.87-.29-.82-1.48-.25-1.83-1.22a14.52,14.52,0,0,0,2.66-1.43,2.89,2.89,0,0,0,3.56,2.41c2.11-.29,4.08-1.22,6.22-1.31.47,0,.93-.08,1.54-.13-.35,2.06-2.25,1.69-3.62,2.62,2.12.29,3.47,2.86,5.84,1.08a41.68,41.68,0,0,1,13.26,7.11,18.86,18.86,0,0,0,4.22,2.5c2.47,1.05,4.82,2.38,7.26,3.49a11.92,11.92,0,0,0,4.89,1.08c.7-.11.75-.63,1.12-1a10.8,10.8,0,0,0,8.8,2.86,6.62,6.62,0,0,0,4.86,2.35,2.91,2.91,0,0,1,1.16.46,18.78,18.78,0,0,0,5.8,1.74,4.28,4.28,0,0,0,2.94-.43,3.64,3.64,0,0,1,2.68,1.28c1.48,1.37,3.08,2.22,5,1.38.9.12,1.25,1,2.33,1a1.78,1.78,0,0,0,.86-.63c0-.53-.81-.6-.57-1.35,2.6.47,4.57,2.17,6.73,3.47-.64,2-.47,2.37,1.4,3a20.77,20.77,0,0,1,8-2c-.13,1-1.12.88-1.53,1.44.25,1,1.19,1.38,1.76,2,.68.08,1.11-.33,1.69-.67a9.09,9.09,0,0,0,4.57,2.3l.68,1.94c-1.78.68-3.11-1.2-4.74-.6-1-2.23-3.13-1.86-5-2.29-.09-.81-.42-1.48-1.45-1.5-.78.81,0,1.58,0,2.5-2.38.71-4.17-2-6.45-1.05-.37-.59.25-1.05-.2-1.55-1-.33-1.15.48-1.33,1.06-1.57.46-2.53-.45-3.49-1.25a31.73,31.73,0,0,0-3.88.78c-1.84-1.21-4-1.18-6.19-1.4-1.73-.18-3.39-.49-4.45-2.19-1.81.32-2.58-2-4.33-1.81-.48.38.19.75-.27,1.22a80.38,80.38,0,0,1-16.95-4.06c-.11-2.71-2.53-3.34-4.18-4.71a.84.84,0,0,0-.55,1c.36.74,1.08.52,1.7.7l.82,2.29C83,139,81.23,138,79.21,138c-.72.16-.9.84-1.19,1.42A1.42,1.42,0,0,1,76.77,137.54Z"/><path class="cls-1" d="M120.16,132.45c-1.5,1-2.84.5-3.94.61-.62-.13-.49-.71-1-.89-.75,0-1.55.47-2.45.24l-1.07-1.36c-1.3-.37-2.26.83-3.58.57l-1.24-1.68c-3.59,0-6.81-1.57-10.17-2.62-.88-.28-1.65-.44-2.29.46a12.68,12.68,0,0,1-2.65-2c-2.3-.51-4.9.68-6.85-1.24-.62-.24-.48.54-1,.55-2.7-.48-3.66-3.52-6.18-4.48-.85.7-1.93,1.16-2.29,2.44-1.11-1.3-2.49-.4-3.86-.72a6.23,6.23,0,0,0-2.3-3.31c.65-.43.42-1.41,1.34-1.61l-.34-1.36c-.89-.42-.95.25-1.09.78-1.17-.23-.85-2.07-2.32-1.89-.3.46.71,1.27-.42,1.65a3.32,3.32,0,0,1-2-3.46c-2.05-.31-3.31,1.65-5.19,1.64-.29-.22.2-.48-.11-.78-1.43-.56-3.27.08-4.48-1.16-1,0-1,1-1.62,1.45A17.39,17.39,0,0,0,48,112.75c2.24-1,4.38.51,6.45-.64-3-2.91-6.75-3.32-10.67-3.83,1.3-1,2.63-.78,3.92-.71,1.93.12,3.84,1,5.8-.2.44-.26,1.4.33,2.12-.16.85,1.64,2.36,1.84,3.88,2,1.72.2,3.5.23,5,1.36.54.06,1-.44,1.69-.18,1.43,2.09,3.62,2.34,6.12,1.82.88,1.72,2.4,2.07,4.21,1.79.6.8.7,2.06,1.89,2.09,1.85,5.43,6.78,5.15,11,6.29l.7.84a2.08,2.08,0,0,0,1.46-.07c2.18,2.15,5.1,2.25,7.85,2.77,2.23.42,4.51.67,6.26,2.49,1.18-.79,2.23-.38,3.38.24a43.15,43.15,0,0,0,9.18,3.23Z"/><path class="cls-1" d="M216.9,135.88a6.52,6.52,0,0,0-3.74-.49l-1,1a21.28,21.28,0,0,0-3.64-1c1.33-.71,2.64-1.38,4.12-.94,1.16-.4,1.57-1.41,2.16-2.21a8.09,8.09,0,0,1,4,.11c3.53-1.65,7.31-1.82,10.91-2.7,1.43-.35,2.74-1.17,4.1-1.46,4.05-.87,7.41-3.69,11.66-4C243.15,127.47,231.08,132.37,216.9,135.88Z"/><path class="cls-1" d="M246,147.33c0-.78-.66-1.5.14-2.32.41-.3.9,0,1.4.34,1.39-1.94,3.43-2,5.44-2.23.6,2.14-.39,3.85-3.16,5.42.33,1.05-.41,1.65-1.14,2.32l-1.49-.49c-2.13,2.48-5,3.72-8.08,4.66.07-1,.94-.93,1.46-1.46-1.42-.67-2.09-2.15-3.5-2.88,4-2.44,4-2.44,6.24-2.31A3.08,3.08,0,0,1,246,147.33Z"/><path class="cls-1" d="M131.45,161.56c.19-1.09.92-.73,1.45-.65,5.09.74,10.16,1.54,15.25,2.27a176.06,176.06,0,0,0,21.47,1.7,12.7,12.7,0,0,1-4.68.77,118.11,118.11,0,0,1-26-3A53.61,53.61,0,0,0,131.45,161.56Z"/><path class="cls-1" d="M177.87,155.06a2.93,2.93,0,0,1-2.57-1.77c-1.3.11-2.66.31-3.72-.48-.64.44,0,.81-.33,1.25l-3.36-.62c1.16-.55,1.27-1.75,2.09-2.49a16.17,16.17,0,0,0,3-.06c.26-.47-.07-1.11.71-1.5a5.61,5.61,0,0,1,3.87,1.61c-.92.42-1.41-.32-2.06-.43a.76.76,0,0,0-.63.77c.53.39,1.15-.1,1.8.1C176.85,152.65,178.32,153.46,177.87,155.06Z"/><path class="cls-1" d="M159.16,139.5a4.61,4.61,0,0,0,.2-3.24l-1.32-.19c-.49-1.24.54-2.91-1.12-3.9a2.39,2.39,0,0,1,1.57-.21c.57,1.93,1.3,3.75,3.73,3.6a2.13,2.13,0,0,1,.95,1.18c-.79.52-1.57,0-2.33,0-.46.81,0,1.34.47,1.93h2.1c.35.81,1.51.92,1.87,2l-1.54.76C162.44,140.41,160.66,140.44,159.16,139.5Z"/><path class="cls-1" d="M284,167.54c1-.85.36-2.25,1.36-3.09.85-.1,1.89.12,2.46-1,1.56,1.43,3.23.07,5.15.2a13.68,13.68,0,0,1-3.94,2.93c-.32.5-.36,1.24-1.15,1.69A6.68,6.68,0,0,1,284,167.54Z"/><path class="cls-1" d="M288.85,129.67l1.35-.06c.1-1.31,1-1.93,2-2.59a1.61,1.61,0,0,1,.09,2.67,26.19,26.19,0,0,1-2.28,1.91,4.44,4.44,0,0,0-2.17,3.28c-1.38.54-2.64,1-3.8-.1-.16-.92.26-1.63.89-1.69C287.14,132.89,288.13,131.44,288.85,129.67Z"/><path class="cls-1" d="M123.64,131.91c2.88,2,5.85,3.18,9.3,1.73.36.44.12,1.06.65,1.47-.71.43-1.25.87-1.08,1.8-2-2.2-5.12-1.1-7.22-2.89l-1.24.6C122.39,133.94,122.25,133.18,123.64,131.91Z"/><path class="cls-1" d="M182.09,141.89c-.53.36-.44.93-.94,1.14-.82-.29-1.63-.95-2.73-.42-.19-1.11-1.93-1.27-1.53-2.79a3.28,3.28,0,0,1,2.5.8c1.56-.45,3.15-.14,4.71-.12a3.25,3.25,0,0,1,1.46,2.33,1,1,0,0,1-1.16.42c-.38-.45,0-.89-.16-1.31A6.24,6.24,0,0,0,182.09,141.89Z"/><path class="cls-1" d="M187.44,139.86l5.19.41,1.3.92c-.36.92-1.32,1-1.63,1.69C187.7,142.42,186.7,141.84,187.44,139.86Z"/><path class="cls-1" d="M228.12,154.85c1.55-2.32,4-3.24,6.41-4.42.25.59,1,.49,1.33,1.12-.77.84-2.4.49-2.66,2-1.89-.16-3.38,1-5.11,1.26Z"/><path class="cls-1" d="M60.87,135.61A40.47,40.47,0,0,1,70,139.67a8.4,8.4,0,0,1,1.7,1.22c-3.94-1-7.72-2.43-10.77-5.3Z"/><path class="cls-1" d="M169.61,142.08a6.7,6.7,0,0,0-2.43-3.07c1-.75,1.26-.66,3.48,1.36a3.61,3.61,0,0,1,2.61.52c.06.82-.82,1.24-.79,2.18A3.67,3.67,0,0,0,169.61,142.08Z"/><path class="cls-1" d="M154.11,139.86c-2.42-.29-3.59-1.1-4-2.85,1.13.12,1.33-1.18,2.38-1.55C152.76,137.08,154.26,138.13,154.11,139.86Z"/><path class="cls-1" d="M277.93,161.36c-1.14,1.53-2.26,3-3.49,4.67a3.15,3.15,0,0,1,.88-3.95C276.21,161.26,277.18,160.81,277.93,161.36Z"/><path class="cls-1" d="M217.41,190.09c-.45-.49.08-.78-.2-1.14-.71-.45-1.42.56-2.33.1,1.58-1.2,3.45-1.26,5.22-2l-.25,2.31A4.12,4.12,0,0,0,217.41,190.09Z"/><path class="cls-1" d="M41.06,115.92c-.65.12-1.19,0-1.62.39-.1.39.67.28.23,1-.82.68-1.2-.77-1.64-.75-.79,0-.56.58-1.16.68s-.88-.62-1.46-.9C36.18,115.55,40,115.25,41.06,115.92Z"/><path class="cls-1" d="M35.81,125.88c.86-1.57,1.67-1.72,3.56-.73.14.43-.13.78-.28,1.16a6.58,6.58,0,0,0-.21,1.12Z"/><path class="cls-1" d="M106.72,155.06c-2.83.52-5.34-.8-8-1.36C101.51,153.46,104.07,154.56,106.72,155.06Z"/><path class="cls-1" d="M203.89,134.47c.58.58,1.38.8,1.25,1.82a25.34,25.34,0,0,1-4.8-.72C201.4,134.45,202.75,135,203.89,134.47Z"/><path class="cls-1" d="M256.54,143.49c.95-.31,1.13.37,1.53.62.29-.19.22-.66.71-.74a4.14,4.14,0,0,1,1.86.56c-1,.68-2.52.24-3.08,1.61a2.42,2.42,0,0,1-1.37-.2C256.27,144.69,256.87,144.19,256.54,143.49Z"/><path class="cls-1" d="M140,136.87c-.66.25-1.13-.18-1.7-.27a3.93,3.93,0,0,1-.2-2.2,2.5,2.5,0,0,1,1.56-.12A2.76,2.76,0,0,1,140,136.87Z"/><path class="cls-1" d="M124,129a4.15,4.15,0,0,1-.88-2.14c.92,1.23,2.36,2,1.76,3.8-1,.07-1.5-.65-2.19-1.18Z"/><path class="cls-1" d="M117.21,128.78c-1.18.09-1.8-.84-2.86-1,.55-.82,1.59-.77,1.94-1.59A2.45,2.45,0,0,1,117.21,128.78Z"/><path class="cls-1" d="M97.17,153.31c-1.74.4-3.15-.53-4.68-1A5,5,0,0,1,97.17,153.31Z"/><path class="cls-1" d="M109.14,155.56c1.69.13,3.45,0,5.09,1A6.35,6.35,0,0,1,109.14,155.56Z"/><path class="cls-1" d="M99,148.08a9.6,9.6,0,0,1,5.35,1.21C102.62,149.21,100.86,149.29,99,148.08Z"/><path class="cls-1" d="M157.75,152.5c1.83-1.31,2.86.44,4.37.39C161.31,153.45,161.31,153.45,157.75,152.5Z"/><path class="cls-1" d="M143.19,137.43c-1.08-1.23-.8-2,.84-2.33C144.41,136.09,144.57,137,143.19,137.43Z"/><path class="cls-1" d="M58.71,134.75A2.36,2.36,0,0,1,56,133C57.17,133.26,58.3,133.29,58.71,134.75Z"/><path class="cls-1" d="M185.08,151.49c-.39-.31-.65-.78-1.21-.71,0-.55.35-.64.64-.87.67.16,1.26.81,2.1.49C186.47,151.29,185.87,151.4,185.08,151.49Z"/><path class="cls-1" d="M83.71,145l.63-1.12c1.15-.21,1.89.46,2.85,1.09C86,145.47,85,144.66,83.71,145Z"/><path class="cls-1" d="M118.5,157.3a3.68,3.68,0,0,1-3.26-.32C116.4,156.23,117.42,157,118.5,157.3Z"/><path class="cls-1" d="M148.11,161.59c-1.21.64-2.31.13-3.46.1l0-.53Z"/><path class="cls-1" d="M76,147.92a6.63,6.63,0,0,1,3.92.92C78.41,149.61,77.5,148.51,76,147.92Z"/><path class="cls-1" d="M227,153.75a.87.87,0,0,1,0,1,11.07,11.07,0,0,0-3,.8C225,154.43,225.78,153.79,227,153.75Z"/><path class="cls-1" d="M89.06,114.43a1.29,1.29,0,0,1-1.89-.07.88.88,0,0,1,0-1.39A4.3,4.3,0,0,1,89.06,114.43Z"/><path class="cls-1" d="M104.71,125.32a2,2,0,0,1,2.8,1.05C106.18,126.83,105.6,125.66,104.71,125.32Z"/><path class="cls-1" d="M83.31,144.41a12.45,12.45,0,0,1-3.15-.68C81.9,143,82.62,143.15,83.31,144.41Z"/><path class="cls-1" d="M29.25,123.73a2.34,2.34,0,0,1,.94-1.19c.76,0,1.27.76,2.05.63-.06.93-1.22.11-1.19,1C30.4,124.13,30,123.59,29.25,123.73Z"/><path class="cls-1" d="M156.57,135.48A8.44,8.44,0,0,1,153,135,2.63,2.63,0,0,1,156.57,135.48Z"/><path class="cls-1" d="M109.68,126.24a1.66,1.66,0,0,1,2,1.57c-.72.36-1.3,0-1.91-.21A1.83,1.83,0,0,1,109.68,126.24Z"/><path class="cls-1" d="M223.53,155.62a2.39,2.39,0,0,1-2.38.64,2.11,2.11,0,0,1,1.24-1.42A1.29,1.29,0,0,1,223.53,155.62Z"/><path class="cls-1" d="M122.78,158.26c1.13-.73,2.15-.14,3.51.16C124.87,159.18,123.85,158.3,122.78,158.26Z"/><path class="cls-1" d="M140.76,160.78c-1.19.6-2.16-.16-3.21-.4C138.73,159.59,139.73,160.43,140.76,160.78Z"/><path class="cls-1" d="M205.29,160.28a1,1,0,0,1-.13-1,1.71,1.71,0,0,1,2,.22C206.62,160.08,205.89,160.06,205.29,160.28Z"/><path class="cls-1" d="M213.06,158.71c.69-1.52,1.77-1.21,3-1.35C215.23,158.53,214.18,158.3,213.06,158.71Z"/><path class="cls-1" d="M282.57,138.49c-1.38-.5-2-1.08-1.9-2.34C281.69,136.54,282,137.37,282.57,138.49Z"/><path class="cls-1" d="M290,125.57c-.38.94-1.19,1-1.86,1.72C288.25,125.89,288.62,125.24,290,125.57Z"/><path class="cls-1" d="M126.44,129.77c1.11-.48,1.35.47,2,.9C127.24,131.3,126.78,130.76,126.44,129.77Z"/><path class="cls-1" d="M210.68,190.1a1.24,1.24,0,0,1,.92,1.23.77.77,0,0,1-1,.56Z"/><path class="cls-1" d="M145.58,135.57c.88.42,1.77.19,2.15,1.25A1.62,1.62,0,0,1,145.58,135.57Z"/><path class="cls-1" d="M280,164.47c.43-1,1.34-1.06,2.23-1.2C281.72,164.11,280.72,164.06,280,164.47Z"/><path class="cls-1" d="M144.09,146.81a1.55,1.55,0,0,1-1.15-.73c.4-.61.93-.16,1.39-.29C144.68,146.32,144.4,146.57,144.09,146.81Z"/><path class="cls-1" d="M165.48,154c-1.38.24-1.64-1-2.51-1.07A5.25,5.25,0,0,1,165.48,154Z"/><path class="cls-1" d="M146.46,143.94c.94-.28,1.39.1,1.79,1C147.34,145.05,146.7,145,146.46,143.94Z"/><path class="cls-1" d="M82.08,111c1-.08,1.67.09,2.06,1C83.15,112.29,82.86,111.48,82.08,111Z"/><path class="cls-1" d="M292,157.12a1.35,1.35,0,0,1,1.27,1.35C292.53,158.32,291.87,158.25,292,157.12Z"/><path class="cls-1" d="M135.74,136.27c-1,.42-1.21-.15-1.4-.81C135.12,135.18,135.4,135.64,135.74,136.27Z"/><path class="cls-1" d="M158.16,138.16a1,1,0,0,1-1,.25c-.3-.32-.14-.66-.09-1C157.74,137.24,158,137.58,158.16,138.16Z"/><path class="cls-1" d="M60.89,135.59l-.29-.08c.19-.15.26-.12.27.1Z"/><polygon class="cls-1" points="84.8 149.91 84.9 149.89 84.89 149.97 84.8 149.91"/><path class="cls-1" d="M228.09,154.83c.14.1.14.18,0,.24l.06-.22Z"/><path class="cls-1" d="M205.15,175c.89-.74,1.73-.43,2.66-.51C207,175.3,206.14,174.9,205.15,175Z"/></svg>