<svg id="Layer_1" data-name="Layer 1" xmlns="http://www.w3.org/2000/svg" viewBox="0 0 300 300"><path d="M270,151.2a119.83927,119.83927,0,0,0-120-120c-66.4,0-120,54.4-120,120A121.02494,121.02494,0,0,0,40.4,200l8.8-7.2c-5.6-12.8-8-27.2-8-41.6C40.4,91.2,90,42.4,150,42.4S259.6,91.2,259.6,152A108.304,108.304,0,0,1,178,257.6l-2.4,4.8.8,6.4A120.23906,120.23906,0,0,0,270,151.2Z" fill="#c2a92e" opacity="0.45"/><path d="M54,188l3.2-1.6a.78351.78351,0,0,0,.8-.8,97.35067,97.35067,0,0,1-6.4-34.4c0-53.6,44-98.4,98.4-98.4A98.25338,98.25338,0,0,1,182,244l.8,1.6-.8,3.2-2.4,3.2-2.4,4.8c47.2-12,81.6-55.2,81.6-105.6,0-60-48.8-109.6-109.6-109.6S40.4,91.2,40.4,151.2c0,15.2,3.2,28.8,8,41.6l1.6-1.6Z" fill="#c2a92e" opacity="0.75"/><path d="M248.4,151.2a98.4,98.4,0,1,0-196.8,0A97.35074,97.35074,0,0,0,58,185.6c.8-.8-.8-2.4-.8-2.4l4-2.4v-1.6l2.4-1.6L61.2,176a28.38625,28.38625,0,0,1,5.6-.8H70v-4.8l4.8-4c1.6-1.6,4-3.2,5.6-6.4a4.975,4.975,0,0,0,4.8-3.2c1.6,0,3.2-.8,4-.8,1.6.8,1.6-2.4,3.2-.8a11.50831,11.50831,0,0,0,2.4-1.6c1.6-.8,3.2-2.4,5.6-3.2.8-1.6,2.4-3.2,4-5.6a2.79313,2.79313,0,0,1,1.6-.8v-4a3.55754,3.55754,0,0,0,4-1.6,10.70561,10.70561,0,0,0-4-.8v-.8a2.7931,2.7931,0,0,1-.8-1.6,7.21208,7.21208,0,0,0,4,.8c.8-.8,2.4-.8,4-2.4a3.504,3.504,0,0,1-2.4-.8,2.93893,2.93893,0,0,1-2.4-.8c.8,0,.8,0,1.6-.8-1.6-1.6-2.4,0-4,0a2.79305,2.79305,0,0,1-1.6-.8c1.6-.8,2.4-2.4,4-3.2a10.14677,10.14677,0,0,0,4.8-.8A113.33545,113.33545,0,0,1,98.8,120a2.93894,2.93894,0,0,1,2.4-.8,10.14662,10.14662,0,0,0,4.8-.8c2.4,0,4-.8,5.6-3.2,4.8-4.8,9.6-8,16-8,0-.8,0-.8.8-1.6a6.065,6.065,0,0,0,3.2-1.6v-1.6a8.19331,8.19331,0,0,0,4-4.8c2.4,0,4.8-1.6,6.4-2.4,3.2-1.6,5.6-4,8-6.4,3.2-3.2,7.2-5.6,12-5.6a17.61473,17.61473,0,0,0,6.4-.8c4-8,11.2-13.6,18.4-18.4,2.4,2.4,4,5.6,5.6,8,.8.8.8,1.6,1.6,2.4,2.4,1.6,2.4,3.2,2.4,6.4-1.6-.8-2.4-1.6-4-2.4a26.63424,26.63424,0,0,0,2.4,4.8l-.8.8c-.8-.8-1.6-.8-3.2-1.6a39.00312,39.00312,0,0,0,2.4,5.6c-1.6-.8-2.4-.8-3.2-1.6a2.93894,2.93894,0,0,1-.8,2.4c0,.8-.8,1.6-.8,2.4.8.8,1.6,1.6,2.4,1.6a11.04336,11.04336,0,0,0,2.4-3.2,6.04735,6.04735,0,0,1,3.2.8c-.8-1.6-.8-2.4-1.6-4,1.6.8,2.4.8,3.2,1.6V85.6c.8,0,.8,0,1.6-.8-.8-.8-.8-1.6-1.6-2.4.8,0,1.6-.8,1.6,0a39.00208,39.00208,0,0,0,5.6,2.4c0,.8.8,1.6,1.6,3.2.8.8,1.6.8,2.4,1.6-.8,3.2.8,6.4-1.6,8.8-.8-.8-.8-1.6-1.6-2.4,0,4,0,4.8-.8,5.6h-1.6c-1.6,1.6-2.4,4-4,6.4s-.8,4.8-1.6,6.4l-1.6,4a55.12192,55.12192,0,0,1-2.4,6.4c0,.8-.8,2.4-.8,3.2-3.2,5.6-4.8,11.2-7.2,16.8a25.55218,25.55218,0,0,0-2.4,11.2,88.15183,88.15183,0,0,1-1.6,14.4c-.8,3.2-1.6,7.2-2.4,11.2a17.48656,17.48656,0,0,1,2.4,4c1.6,2.4,3.2,4.8,3.2,7.2.8,4.8,2.4,8.8,5.6,11.2v.8c-.8.8-.8,1.6-1.6,2.4.8.8.8,2.4,1.6,4-.8,1.6-.8,4-1.6,6.4,0,.8.8,2.4.8,4l-1.6,1.6c0,.8.8.8,1.6,1.6,0,.8-.8.8-.8,1.6V228h-2.4c0,.8.8,1.6.8,2.4-.8.8-1.6,1.6-1.6,2.4l-2.4,4.8-1.6,4.8v2.4c38.4-13.6,66.4-49.6,66.4-93.6Z" fill="#c2a92e"/></svg>