<svg id="Layer_1" data-name="Layer 1" xmlns="http://www.w3.org/2000/svg" xmlns:xlink="http://www.w3.org/1999/xlink" viewBox="0 0 300 300"><defs><style>.cls-1{fill:url(#linear-gradient);}.cls-2{fill:url(#linear-gradient-2);}.cls-3{fill:url(#linear-gradient-3);}.cls-4{fill:url(#linear-gradient-4);}.cls-5{fill:#80c242;}.cls-6{fill:#0d7ab6;}.cls-7{fill:#fefefe;}</style><linearGradient id="linear-gradient" x1="66.5" y1="169.82" x2="225.7" y2="156.48" gradientUnits="userSpaceOnUse"><stop offset="0" stop-color="#108ac9"/><stop offset="1" stop-color="#004f81"/></linearGradient><linearGradient id="linear-gradient-2" x1="67.4" y1="180.63" x2="226.6" y2="167.29" xlink:href="#linear-gradient"/><linearGradient id="linear-gradient-3" x1="66.92" y1="174.82" x2="226.12" y2="161.49" xlink:href="#linear-gradient"/><linearGradient id="linear-gradient-4" x1="65.2" y1="154.3" x2="224.4" y2="140.97" xlink:href="#linear-gradient"/></defs><title>XOMA_Light_bg</title><path class="cls-1" d="M146.78,150.55a12.56,12.56,0,0,0-6.88-9.06,25.29,25.29,0,0,0-9.53-2.33,42.34,42.34,0,0,0-7.12.21,34.32,34.32,0,0,0-8.49,1.77,28.51,28.51,0,0,0-14.43,12,44.18,44.18,0,0,0-4.77,11.18A34.35,34.35,0,0,0,94,178.76c.73,5.67,3.87,9.88,9.9,11.42a51.89,51.89,0,0,0,5.79,1.12h7.23c0-.12.12-.1.2-.1a47.25,47.25,0,0,0,4.74-.61,25.75,25.75,0,0,0,12.07-5.3,32.05,32.05,0,0,0,9-12,48,48,0,0,0,4.16-15.7A22.48,22.48,0,0,0,146.78,150.55Zm-13.89,18.18a28.81,28.81,0,0,1-4.3,8.15,15.66,15.66,0,0,1-10.37,5.76,19,19,0,0,1-2.13.14,14.07,14.07,0,0,1-5.31-.82A7.06,7.06,0,0,1,106,176.4a12.14,12.14,0,0,1-.26-3.18,33.71,33.71,0,0,1,4-15.45,20,20,0,0,1,4.74-6.12,16.49,16.49,0,0,1,15.3-3,7.43,7.43,0,0,1,5.23,6.77A31.65,31.65,0,0,1,132.89,168.73Z"/><path class="cls-2" d="M259.76,188.43l-2.1-13.2q-1-6-1.9-11.95l-2-12.5-1.56-9.89c-.12-.74-.25-.83-1-.83-3.18,0-6.36,0-9.53,0a1.48,1.48,0,0,0-1.38.72q-5.13,7.5-10.3,15l-23.35,33.88a1.65,1.65,0,0,0-.39.78c.31,0,.58,0,.85,0,3.11,0,6.22,0,9.32,0a1.46,1.46,0,0,0,1.41-.78c2.22-3.51,4.46-7,6.67-10.52a1.4,1.4,0,0,1,1.32-.74q10.11,0,20.23,0a1,1,0,0,1,.69.16c.47,3.85,1,7.77,1.43,11.6a1.09,1.09,0,0,0,.87.25h10.5l.45,0v-.81A5.23,5.23,0,0,1,259.76,188.43ZM231,169.38l12.24-18.89h.14l2.41,18.88Z"/><path class="cls-3" d="M216.05,140.25c-.22-.26-.48-.17-.7-.17-4.61,0-9.21,0-13.81,0a1.52,1.52,0,0,0-1.48.83q-11,18.36-22,36.71c-.14.24-.29.46-.43.69l-.13,0q-1.22-19-2.42-38.13H159.42L146,190.26a1.46,1.46,0,0,0,.93.19h9c.81,0,1-.12,1.16-.9q3.67-15.34,7.36-30.68c.57-2.37,1.13-4.74,1.7-7.11,0-.09,0-.21.11-.25s.09.2.08.31c.08,1.22.17,2.43.26,3.65q.39,5.53.77,11.07c.22,3.23.43,6.46.65,9.69q.39,5.64.8,11.27c.07.94.08,1.89.24,2.81a1.46,1.46,0,0,0,.83.13c3.13,0,6.25,0,9.37,0a1.59,1.59,0,0,0,1.56-.88q10-16.84,20-33.65c.75-1.26,1.53-2.51,2.29-3.77l.07-.17a.16.16,0,0,1,0,.23c0,.12,0,.24-.07.35q-4.71,16.33-9.41,32.65l-1.48,5.16c.35,0,.66.06,1,.06h8.56c.86,0,1-.09,1.19-.92q6.25-23.41,12.5-46.82A22.88,22.88,0,0,0,216.05,140.25Z"/><path class="cls-4" d="M78.89,163.82A188.56,188.56,0,0,1,97.57,145a184.12,184.12,0,0,1,26.05-19.15,143.93,143.93,0,0,1,37.5-16.18l2.49-.66,0-.14a8.91,8.91,0,0,0-1.25-.16c-2.3,0-4.61-.09-6.92.09A84,84,0,0,0,145,110.16a107.91,107.91,0,0,0-26.75,9.37A151.1,151.1,0,0,0,85.8,141.89,212.41,212.41,0,0,0,70.71,157L40.2,190c-.09.11-.26.18-.18.39a1.32,1.32,0,0,0,.59.05c4.15,0,8.29,0,12.44,0a2.34,2.34,0,0,0,1.86-.83q7-7.54,14-15.06c.08-.09.15-.23.35-.25l.25.69,4.9,14.44c.32.94.4,1,1.42,1h10.7a2.74,2.74,0,0,0,.93-.12c-.12-.33-.22-.65-.35-1l-5.73-14.08q-1.83-4.51-3.69-9a1.14,1.14,0,0,1,.24-1.42C78.29,164.52,78.59,164.16,78.89,163.82Z"/><path class="cls-5" d="M71.6,152.78l-8.32,8.89-8.74-21.33a.77.77,0,0,1,.6-.12c3.71,0,7.43,0,11.15,0a.86.86,0,0,1,.93.65q2.15,5.59,4.31,11.18A1.06,1.06,0,0,1,71.6,152.78Z"/><path class="cls-6" d="M166.14,151.77c0-.09,0-.21.11-.25s.09.2.08.31S166.22,151.72,166.14,151.77Z"/><path class="cls-7" d="M203.11,152.17l.07-.17a.16.16,0,0,1,0,.23Z"/><path class="cls-5" d="M234.65,167.37c2.45-3.79,4.88-7.52,7.35-11.34.49,3.82,1,7.56,1.45,11.34Z"/></svg>