<svg id="Layer_1" data-name="Layer 1" xmlns="http://www.w3.org/2000/svg" viewBox="0 0 300 300"><path d="M74.37972,121.4374h72.35085v45.54109h35.13v11.07062H135.15725v-44.934H115.27264v44.934H103.0414v-44.934h-22.679l-15.232,17.12522c7.7023,8.71716,15.30271,18.82736,23.23854,27.80878H74.04474L56.81963,158.7697l-16.9583,19.03112H25l22.431-27.0503L25.45284,121.6724H39.21493l17.597,19.29722Z" fill="#003673"/><path d="M274.99991,159.17374a19.38306,19.38306,0,1,1-19.35431-19.3883A19.31782,19.31782,0,0,1,274.99991,159.17374Zm-19.41023,13.986a14.01887,14.01887,0,1,0-13.65491-14.10915A13.63657,13.63657,0,0,0,255.58968,173.15976Z" fill="#058cda"/><path d="M226.16205,140.66868h5.63246v36.93475h-5.63246Z" fill="#058cda"/><path d="M225.53448,130.34978a3.474,3.474,0,0,1,3.42836-3.46059,3.45968,3.45968,0,1,1-3.42836,3.46059Z" fill="#058cda"/><path d="M183.05968,122.26417h5.67915V145.346c.22338-.18648.32414-.26256.41584-.34831a19.49979,19.49979,0,0,1,25.45855-.95337,19.28569,19.28569,0,0,1,2.84058,27.33726c-5.25509,6.25253-12.11,8.51191-19.98224,6.42389-7.90648-2.0971-12.603-7.5091-14.14242-15.55958a18.47042,18.47042,0,0,1-.25848-3.427m19.35578,14.34073c7.66684.03326,13.63369-6.037,13.68866-13.92582a13.6806,13.6806,0,1,0-13.68866,13.92582Z" fill="#058cda"/></svg>