<svg id="Layer_1" data-name="Layer 1" xmlns="http://www.w3.org/2000/svg" viewBox="0 0 300 300"><defs><style>.cls-1{fill:#385a7e;}.cls-2{fill:#6287ae;}.cls-3{fill:#a0ce00;}.cls-4{fill:#055946;}</style></defs><title>YMAB</title><path class="cls-1" d="M119.42,134.8a7.3,7.3,0,0,1-5.13-2.12L76.13,94.49A7.25,7.25,0,1,1,86.39,84.23l38.16,38.2a7.25,7.25,0,0,1-5.13,12.37Zm61.12,0a7.25,7.25,0,0,1-5.13-12.37l38.2-38.18a7.25,7.25,0,1,1,10.26,10.26h0l-38.21,38.17A7.28,7.28,0,0,1,180.54,134.8Z"/><path class="cls-2" d="M99.66,143.44a50.63,50.63,0,0,1,1.83-13.35L90.12,118.73a64.72,64.72,0,0,0,34.21,84.17V186.66A50.28,50.28,0,0,1,99.66,143.44Zm100.62,0a50.24,50.24,0,0,1-24.65,43.22V202.9a64.72,64.72,0,0,0,34.22-84.17l-11.38,11.36A50.2,50.2,0,0,1,200.28,143.44ZM150,93.14A49.61,49.61,0,0,1,163.32,95l11.37-11.38a64.75,64.75,0,0,0-49.37,0L136.72,95A49.17,49.17,0,0,1,150,93.14Z"/><path class="cls-3" d="M98.67,67.21A7.25,7.25,0,0,0,88.41,77.47l18.1,18.12a64.24,64.24,0,0,1,12-8.55ZM211.54,77.46a7.26,7.26,0,1,0-10.26-10.27L181.67,86.83a64,64,0,0,1,12,8.55Z"/><path class="cls-4" d="M131.58,227.7a7.25,7.25,0,0,0,14.49,0V117.6a7.28,7.28,0,0,0-2.12-5.13L118.48,87a65.47,65.47,0,0,0-11.89,8.56l25,25.06Zm22.33-110.1V227.7a7.24,7.24,0,0,0,14.47,0V120.6l25.23-25.22a64.24,64.24,0,0,0-12-8.55L156,112.49A7.18,7.18,0,0,0,153.91,117.6Z"/></svg>