<svg id="Layer_1" data-name="Layer 1" xmlns="http://www.w3.org/2000/svg" viewBox="0 0 300 300"><rect x="133.47" y="133.55" width="12.31" height="55.74" fill="#af2b2e"/><polygon points="27.94 133.55 69.18 133.55 44.77 177.46 69.27 177.46 69.27 189.3 25 189.3 48.71 145.39 27.94 145.39 27.94 133.55" fill="#af2b2e"/><path d="M209.88,134.36c4,0,8.09,0,12.13,0,5.16.06,8.83,3.47,9,8.63.17,4.46.16,8.94,0,13.4-.18,5.19-3.61,8.43-8.78,8.47q-11.37.07-22.74,0c-5.2,0-8.54-3.77-8.57-8.91s3.42-9,8.62-9.08c7.17-.05,14.11,0,21.29,0,1.59,0,3.22,0,3.29,2.13s-1.33,2.6-3.22,2.59c-7-.06-13.71,0-20.68,0-3.59,0-4.88,1.52-5,4.19s1.73,4.68,5,4.7q10.62,0,21.23,0c3.79,0,5.18-1.34,5.23-5q.07-5.79,0-11.57c-.06-3.53-1.46-4.94-5-5-8.19-.06-16.38,0-24.56-.1-1.54,0-3.59.3-3.51-2.24.07-2.23,1.78-2.22,3.52-2.21,4.24,0,8.49,0,12.73,0" fill="#af2b2e"/><path d="M234.86,140.17v-19c0-1.63.14-3.21,2.16-3.19,1.57,0,2,1.26,2,3.13.13,10,.07,23.23.08,33.28,0,4.56,1.42,6,6,6,6.87,0,13.42,0,20.31,0,3.89,0,5.05-1.19,5.09-5.1s.06-7.91,0-11.86c-.06-3.57-1.26-4.74-4.79-4.75-7.07,0-13.6,0-20.68,0-1.55,0-3.25,0-3.25-2.25s1.56-2.42,3.34-2.41c7.27,0,14.31-.07,21.58,0,4.77.06,8.1,3.47,8.19,8.32s.09,9.53,0,14.29c-.1,5.31-3.08,8.22-8.41,8.26-7.38.06-14.75,0-22.13,0-5.8,0-9.32-3.07-9.46-8.92-.13-5.27,0-10.55,0-15.82" fill="#af2b2e"/><path d="M171.41,164.84c-4.54,0-4.83,0-9.38,0-5.24-.07-8.57-2.67-8.77-7.92-.24-6.58-.15-14.45,0-21,0-1.16.68-2.8,2.25-2.78s2.13.91,2.12,3.06c.21,5.77.08,12.82.11,18.6,0,4.37,1.28,5.64,5.61,5.64,8.08,0,10.75,0,18.83,0h2.44c1.69,0,3.45,0,3.39,2.35,0,2.15-1.71,2.14-3.3,2.13-4.75,0-8.54,0-13.27,0v0" fill="#af2b2e"/><path d="M131,118.6a8.65,8.65,0,0,1,2.52-6.1,8.61,8.61,0,0,1,2.79-1.87,8.51,8.51,0,0,1,6.57,0,8.58,8.58,0,0,1,4.65,4.67,8.7,8.7,0,0,1,0,6.6,8.58,8.58,0,0,1-4.65,4.67,8.58,8.58,0,0,1-11.22-4.67,8.53,8.53,0,0,1-.66-3.3" fill="#af2b2e"/><path d="M97.13,178.48a16.84,16.84,0,0,1-3.32-.33,17.54,17.54,0,0,1-3.19-1,17.1,17.1,0,0,1-3-1.59,16.92,16.92,0,0,1-2.58-2.12,16.92,16.92,0,0,1-3.69-5.55,17.21,17.21,0,0,1-1-3.21,17,17,0,0,1,0-6.67,17.21,17.21,0,0,1,1-3.21,17,17,0,0,1,6.27-7.67,16.4,16.4,0,0,1,3-1.58,16.82,16.82,0,0,1,3.19-1,17.38,17.38,0,0,1,6.64,0,16.91,16.91,0,0,1,3.2,1,16.66,16.66,0,0,1,2.94,1.58,16.85,16.85,0,0,1,4.7,4.72,17.14,17.14,0,0,1,2.54,6.16,17,17,0,0,1,0,6.67,17.21,17.21,0,0,1-1,3.21,17.05,17.05,0,0,1-9.21,9.26,17.89,17.89,0,0,1-3.2,1,16.76,16.76,0,0,1-3.32.33m16-44.93v4.93a26.86,26.86,0,0,0-16.8-5.78,29,29,0,0,0-5.57.55,28.49,28.49,0,0,0-5.35,1.63,29,29,0,0,0-4.94,2.65,28.46,28.46,0,0,0-4.32,3.57,27.91,27.91,0,0,0-3.55,4.34A29.4,29.4,0,0,0,70,150.39a28.82,28.82,0,0,0,0,21.94,29.11,29.11,0,0,0,2.64,5,28.86,28.86,0,0,0,7.87,7.91,28.93,28.93,0,0,0,4.94,2.64,27.77,27.77,0,0,0,5.35,1.63,28.22,28.22,0,0,0,5.57.56,26.79,26.79,0,0,0,16.8-5.79v5.06h12.2V133.55Z" fill="#af2b2e"/></svg>