<?xml version="1.0" encoding="UTF-8"?>
<svg xmlns="http://www.w3.org/2000/svg" version="1.1" viewBox="0 0 300 300">
  <defs>
    <style>
      .cls-1 {
        fill: #002f6c;
      }

      .cls-2 {
        fill: #04adbf;
      }
    </style>
  </defs>
  <!-- Generator: Adobe Illustrator 28.6.0, SVG Export Plug-In . SVG Version: 1.2.0 Build 709)  -->
  <g>
    <g id="Layer_1">
      <g>
        <path class="cls-2" d="M248.4,134.4c-.6-1.5-2.1-2.5-3.7-2.5l-104.3.5c-2.2,0-3.8,1.6-3.9,3.8-.1,2.2,1.4,3.9,3.6,4.1l74.5,7c-17.2,16-67.8,63.1-87.5,81.4,2.4-6.9,6.5-18.4,13.7-37.9.8-2-.2-4.2-2.2-5-2-.8-4.2,0-5.1,2l-38.6,81.5c-.8,1.7-.3,3.7,1.2,4.9.7.5,1.6.8,2.4.8s1.9-.4,2.6-1.1l146.3-135.1c1.2-1.1,1.6-2.8,1-4.4Z"/>
        <path class="cls-1" d="M204,25.8c-1.5-1.1-3.6-1-5,.3L52.6,161.2c-1.2,1.1-1.6,2.8-1,4.4.6,1.5,2.1,2.5,3.7,2.5l104.3-.5h0c2.1,0,3.8-1.6,3.9-3.8.1-2.2-1.4-3.9-3.6-4.1l-74.5-7c22.1-20.6,68.8-64,87.5-81.4-2.4,6.9-6.5,18.4-13.7,37.9-.8,2,.2,4.2,2.2,5,2,.8,4.2,0,5.1-2l38.6-81.5c.8-1.7.3-3.7-1.2-4.9h0Z"/>
      </g>
    </g>
  </g>
</svg>