<svg id="Layer_1" data-name="Layer 1" xmlns="http://www.w3.org/2000/svg" viewBox="0 0 300 300"><title>ZVRA_Mark_Light</title><path d="M54.81191,77.60581a33.79213,33.79213,0,0,0-1.45837,9.78358v55.64044a73.98676,73.98676,0,0,0,14.42775,17.02085c16.18249,14.24059,31.87364,29.10117,48.76972,42.441a39.23956,39.23956,0,0,0,22.69057,8.3486,70.44253,70.44253,0,0,1,50.22809,19.536c5.84909,5.38506,11.62408,10.83641,17.43029,16.25656h5.70482a33.757,33.757,0,0,0,19.78942-6.42619l-33.67515-41.50125c1.55976,8.3915,2.72958,14.66171,3.87209,20.93194l-1.899,1.38039a109.07409,109.07409,0,0,1-12.73541-11.05088c-10.13843-11.83076-22.93234-17.02865-38.19065-18.97835-31.58509-4.04367-54.41994-22.08616-70.65311-48.489a49.612,49.612,0,0,1,.33145-55.31679c1.46617-2.36694,2.85435-4.79626,4.496-7.03841C90.39777,71.281,97.171,62.57365,102.87583,53.34379H87.39914a33.68281,33.68281,0,0,0-12.44686,2.402Q69.389,60.76627,64.112,66.0909a76.19489,76.19489,0,0,0-9.3,11.51491m-1.45837,113.8038v21.201a34.147,34.147,0,0,0,34.0456,34.0456h78.46359a83.16622,83.16622,0,0,0-33.74144-12.32208c-32.88359-4.5584-58.00738-20.74867-78.76775-42.92452M246.64646,148.3954V107.75982l-3.061-2.77247a188.60572,188.60572,0,0,1-38.82626-51.64356H193.52892a123.2207,123.2207,0,0,0,8.59817,15.78084,712.22194,712.22194,0,0,1,44.51937,79.27077m-63.47822-42.97132a91.277,91.277,0,0,0,17.71884,62.64376c14.225,19.23181,29.30394,37.87871,43.24427,57.28989a33.718,33.718,0,0,0,2.51511-12.76271V190.02924c-21.318-45.08481-40.82274-91.06255-60.9943-136.68545h-6.67967c5.74381,15.83153,5.29147,34.76309,4.19185,52.08029" fill="#7467ad"/><path d="M105.30125,109.44046a299.81379,299.81379,0,0,0,36.03819-1.07233l1.75863-3.54065a82.50256,82.50256,0,0,0-10.20081-9.78358,16.52952,16.52952,0,0,1-7.47513-16.79079c.53811-8.29011,1.05283-16.59971,1.45447-24.90932H115.43578C110.04291,66.92148,103.258,79.96885,96.85907,93.1371c-4.64418,9.54571-2.5541,15.3948,8.44218,16.30336m5.87639,46.48077c9.60811,16.86877,22.81925,25.88027,42.66716,22.96352,10.18911-1.50126,18.50652.77988,24.262,10.00975a22.58115,22.58115,0,0,0,5.26028,4.44531l3.178-1.16982a69.46343,69.46343,0,0,0-4.85475-16.19418,40.971,40.971,0,0,1-6.58217-28.46557c2.14857-14.36536-8.719-25.697-23.32227-26.07134a96.00711,96.00711,0,0,0-19.66854,1.8834c-14.60323,2.69838-29.11677,6.69916-43.63811-1.357L86.06165,124.808c3.39637,4.48431,6.629,9.09339,10.21641,13.42952,4.90544,5.96217,11.14446,11.10547,14.89568,17.68764m57.45756-47.91185c2.09007-14.67342-.44063-35.53517-5.49425-54.66949h-22.4917c-.08188.67459-.13258,1.34529-.21836,2.01988C137.20609,80,144.96978,98.19851,168.6274,108.00548m50.94947-49.4677a112.61374,112.61374,0,0,0,14.06121,21.39207q6.35991,7.7247,13.00837,15.20764v-7.7481a34.13919,34.13919,0,0,0-29.35072-33.67906q1.09572,2.43712,2.28114,4.82745M86.86492,54.16266C75.97,68.16148,65.11021,81.99263,53.35354,95.13359v-7.7442a34.14308,34.14308,0,0,1,34.0456-34.0456h.12868c-.21836.27685-.44843.54591-.6629.81887" fill="#7467ad"/></svg>