<svg id="Layer_1" data-name="Layer 1" xmlns="http://www.w3.org/2000/svg" viewBox="0 0 300 300"><defs><style>.cls-1{fill:#80ba02;}.cls-2{fill:#1c6bb0;}</style></defs><path class="cls-1" d="M198.08,174.47l-8.24,7.85c3.71,5.65,4.9,11.69,2.62,18.14a18.78,18.78,0,0,1-8.82,10.45,19.41,19.41,0,0,1-25-5.37c-5.16-6.94-6.17-18.8,4.19-27.48l-5.44-9.94c-5.59,1.81-11,1.82-16.15-.84a19,19,0,0,1-8.58-8.74c-3.36-6.86-3-16.92,6-24.36-1.78-3.27-3.59-6.58-5.5-10.07-7.14,2.45-13.74,1.58-19.84-3.12l-8.4,7.69-3-3.16,8.28-7.77c-3.66-5.39-4.8-11.2-3-17.43a18.8,18.8,0,0,1,8.38-10.82,19.4,19.4,0,0,1,25.24,4.36c6.85,8.43,5.58,18.4-3.71,28.23l5.41,9.82c9.43-3.22,19.34-.43,24.52,8.86,3.7,6.63,4,17.07-5.74,25.26,1.74,3.19,3.5,6.44,5.39,9.89,7.13-2.49,13.81-1.62,20,3.16l8.37-7.8Z"/><path class="cls-1" d="M76.73,155.37l-8.24,7.79c3.61,5.52,4.86,11.38,2.81,17.69A19,19,0,0,1,63,191.41a19.39,19.39,0,0,1-25-29c6.69-8,16.61-9,27.46-2.58l8.24-7.7Z"/><path class="cls-1" d="M223.26,144.64l8.26-7.82c-3.66-5.59-4.91-11.53-2.74-17.92a19,19,0,0,1,8.47-10.44A19.4,19.4,0,0,1,261.68,138c-5.44,6.23-16.37,9.89-27.13,2.1l-8.2,7.76Z"/><path class="cls-2" d="M223.26,144.64l3.09,3.21c3.35,5.2,4.81,10.74,3.09,16.87a19.35,19.35,0,0,1-29.67,10.86c-.56-.38-1.13-.74-1.69-1.1l-3-3.2c-4-6.28-5-12.91-1.93-19.82a19.37,19.37,0,0,1,27.78-8.36C221.72,143.59,222.49,144.13,223.26,144.64Z"/><path class="cls-2" d="M76.73,155.37l-3-3.24c-6.36-9.4-3.83-19.36,1.62-25A19.34,19.34,0,0,1,100,124.29l1.92,1.23,3,3.16c4,6.14,5.13,12.63,2.19,19.51a19.27,19.27,0,0,1-28.3,8.58Z"/></svg>